<svg id="レイヤー_1" data-name="レイヤー 1" xmlns="http://www.w3.org/2000/svg" viewBox="0 0 52.8 59.14"><defs><style>.cls-1{fill:#c6a385;}</style></defs><path class="cls-1" d="M18.88,43.62l-7.1-7.09,2.12-2.12,5,5,5-5L26,36.53Zm7.09.67-2.12-2.12-5,5-5-5-2.12,2.12,7.1,7.09ZM26,52l-2.12-2.12-5,5-5-5L11.78,52l7.1,7.1Zm8.4-39.63a12.8,12.8,0,0,1-2,1.19,14,14,0,0,1-.81,1.4,14.72,14.72,0,0,1-5.27,4.77c-2.18,1.17-5.44,2.3-7.76.9a3.77,3.77,0,0,1-1.69-3c-1.09.62-2.2,1.23-3.33,1.78A15.44,15.44,0,0,1,8.76,26a11.46,11.46,0,0,1-4.33,2C3,28.32.7,28.55.12,26.74a3.25,3.25,0,0,1,1.4-3.46,16.26,16.26,0,0,1,4.59-2q2.33-.86,4.56-1.91c.64-1.64,1.12-3.36,1.62-5.07a17.08,17.08,0,0,1-1.46,1.07C8.52,16.81,4.49,17.81,3,14.78c-1.15-2.31,0-4.83,1.77-6.4A17.21,17.21,0,0,1,8.4,6c1.66-.84,3.48-1.75,5.41-1.58A4.1,4.1,0,0,1,17,6.49a3.82,3.82,0,0,1,.32.64c.32,0,.56.16.41.42s-.1.23-.16.34a11.77,11.77,0,0,1,.22,3.3c0,.59-1.09,1-2,1.09-.55,1.75-1,3.53-1.61,5.27.58-.32,1.16-.63,1.72-1a4.48,4.48,0,0,1,.94-.44c0-.14,0-.29.07-.43a10.23,10.23,0,0,1,3.29-5.4A14.89,14.89,0,0,1,26.8,6.85c.23-.06,1.32-.32,1.62,0a4.41,4.41,0,0,1,4.21,1.59,3.71,3.71,0,0,1,.53,2.88A28.14,28.14,0,0,1,36,9.28a3.09,3.09,0,0,1,2.18-.37c.66.26,0,.73-.35.93C36.58,10.56,35.53,11.58,34.37,12.41Zm-20-3.92a5.1,5.1,0,0,0-.28-.74c-.35-.75-1.33-2-2.27-1.91a4.6,4.6,0,0,0-1.33.62c-.46.23-.93.47-1.38.73A8.77,8.77,0,0,0,6.72,9.1a4.47,4.47,0,0,0-.57,5c.31.56,1.09,1.37,1.81,1.26a2.44,2.44,0,0,0,.84-.48,13.5,13.5,0,0,0,1.38-1.12A22.25,22.25,0,0,0,14.39,8.49ZM9.92,21.08c-.51.21-1,.43-1.53.63-.8.31-1.61.61-2.42.88a9.33,9.33,0,0,0-1.64.65,2.29,2.29,0,0,0-1.1,2.67c.78,2.42,4-.86,4.78-1.81A15,15,0,0,0,9.92,21.08ZM28,8.33l-.28,0-.13.13a3.09,3.09,0,0,0,0,3.89,2.8,2.8,0,0,0,1.94.91h.09a4,4,0,0,0,0-3.65A2.92,2.92,0,0,0,28,8.33Zm-.47-.08Zm1.29,6.64c.06-.11.13-.22.19-.34-2.07.21-4.43-.24-5.07-2.45a3.47,3.47,0,0,1,.41-2.95A9.47,9.47,0,0,0,20,15.55a4.07,4.07,0,0,0,1.28,3.88c1.32.94,2.81.1,4-.68A11.89,11.89,0,0,0,28.85,14.89ZM51.87,0a2.77,2.77,0,0,0-2.06.81,132.75,132.75,0,0,0-8.07,12.52c-.66,1.17,2.41.77,2.87,0A132.75,132.75,0,0,1,52.68.78C53.1.21,52.32,0,51.87,0ZM41.41,19.91c0-.12,0-.23,0-.34a1.68,1.68,0,0,0-.09-.32,3.06,3.06,0,0,0-.31-.56,1.17,1.17,0,0,0-.7-.39,2,2,0,0,0-1,0A3.45,3.45,0,0,0,37.16,20a2.56,2.56,0,0,0-.22,1.84,2.61,2.61,0,0,0,.24.54,1.28,1.28,0,0,0,1.06.57,3,3,0,0,0,1.68-.31,2.83,2.83,0,0,0,1-.78,3,3,0,0,0,.5-1,1.77,1.77,0,0,0,0-.32,2.29,2.29,0,0,0-.06-.58Z"/></svg>