<svg id="レイヤー_1" data-name="レイヤー 1" xmlns="http://www.w3.org/2000/svg" viewBox="0 0 474.05 83"><defs><style>.cls-1{fill:#f6beba;}.cls-2{fill:#f0908a;}.cls-3{fill:#21110d;}</style></defs><path class="cls-1" d="M106.25,7.09a28.7,28.7,0,0,1-9.91-.44l3.71-3.21a21.72,21.72,0,0,1-4.66-1.9c-.35-.18-5,4.54-5.6,5.07C88.52,7.75,87.85,8.67,88,10.45c.31,5.58.22,11.28,1,16.82a.69.69,0,0,0,.87.72c5.26,0,16.82-1.38,17.11-1.22Q106.16,17,106.25,7.09Zm-5.11,17.44h-8v-2h8Zm0-5h-9v-2h9Zm0-6h-9v-2h9Z"/><path class="cls-1" d="M245.54,22.07h0A34.65,34.65,0,0,1,239,29.24a12,12,0,0,0,3,2,.83.83,0,0,0,.4.11.79.79,0,0,0,.33-.13,29.64,29.64,0,0,0,7.95-6.49A19.41,19.41,0,0,0,255,15.55,5.1,5.1,0,0,0,255.1,14c0-.12-3.18-.7-3.51-.78a2,2,0,0,0-2,.25,4.89,4.89,0,0,0-1,2.23,22.93,22.93,0,0,1-1.22,3.1A25.92,25.92,0,0,1,245.54,22.07Z"/><path class="cls-1" d="M234.6,18.77c1.51-.05,3-.14,4.53-.26a.38.38,0,0,0,.21-.07.36.36,0,0,0,.08-.25c.05-2.22.07-4.45,0-6.67h0c-.9,0-1.81,0-2.72,0a2.91,2.91,0,0,0-1.7.23,1.39,1.39,0,0,0-.57,1.26c0,.9,0,1.82.06,2.72C234.53,16,234.6,18.77,234.6,18.77Z"/><path class="cls-1" d="M210.78,13.34h0a40,40,0,0,1,3.49,4.08.48.48,0,0,1,.09.19.33.33,0,0,1-.11.22l-2.87,3.67,5.66.31a4.45,4.45,0,0,0-1.24,1.77,5.88,5.88,0,0,0-.55,4,4.85,4.85,0,0,0,1.27,2A7.18,7.18,0,0,0,219,31.2a12.23,12.23,0,0,0,5.68.47c.14,0,.31-.05.38-.17a.47.47,0,0,0,0-.31,5.76,5.76,0,0,1,.09-2.34,5.66,5.66,0,0,1-2.43-1.14,4.25,4.25,0,0,1-1.91-2.28,4,4,0,0,1,.94-3.1,12.9,12.9,0,0,1,4.05-3.66,31,31,0,0,1-6.29-.8,63.46,63.46,0,0,0,5.11-5,.35.35,0,0,0,.08-.13c0-.11-.09-.19-.18-.24a6.13,6.13,0,0,1-2.27-2.39q-2.26,1.61-4.64,3a.49.49,0,0,1-.25.1.57.57,0,0,1-.27-.13c-.88-.68-1.93-2.45-3.11-2.45S211.56,12.48,210.78,13.34Z"/><path class="cls-1" d="M193.1,24.68h0l3.18.25c.81.06,1.79.25,2.05,1a1.41,1.41,0,0,1-.24,1.23,4.37,4.37,0,0,1-.94.88l-1.64,1.26a.15.15,0,0,0-.09.1c0,.05,0,.11,0,.17l.88,1.84a.6.6,0,0,0,.32.36.62.62,0,0,0,.35,0,10.61,10.61,0,0,0,6.34-5.83,4.84,4.84,0,0,0,.46-2.55,3.69,3.69,0,0,0-3.08-2.92,8.4,8.4,0,0,0-2.5.09,28.3,28.3,0,0,0-4.19.7c-.88.21-1,.18-1,1.1Z"/><path class="cls-1" d="M172.79,29.59a45.68,45.68,0,0,0,13.11.48.84.84,0,0,0,.68-.28.85.85,0,0,0,.1-.33l.51-3.21c-2.75-.26-13-2.36-13-2.36S172.7,29.57,172.79,29.59Z"/><path class="cls-1" d="M175.73,10.54a43.71,43.71,0,0,1,7.09,1.92,11.78,11.78,0,0,1-1.94,3.11c1.1.56,2.24,1.08,3.39,1.53,1.84-1.85,3.64-3.76,5.37-5.71h0c-3-1.43-5.94-3-8.87-4.62-1-.56-1.91-.84-2.83,0C177.53,7.21,175.89,10.57,175.73,10.54Z"/><path class="cls-1" d="M115.82,16l.83,3.12a26.06,26.06,0,0,1,2.76-.59l0,2.4a.48.48,0,0,1-.06.29.41.41,0,0,1-.29.1,19.88,19.88,0,0,1-5.39-.19,18.85,18.85,0,0,1,0,3.36,37.29,37.29,0,0,0,5.48.46c.38.8.61,1.66,1,2.46a3.94,3.94,0,0,0,1.7,2,4.92,4.92,0,0,0,1.83.39c1.11.08,2.23.12,3.34.1a6.78,6.78,0,0,0,2.37-.34.57.57,0,0,0,.31-.23.62.62,0,0,0,0-.33l-.21-2.26a7.25,7.25,0,0,1-3.56-.32A3,3,0,0,1,124,23.55q3.87-.26,7.74-.27l-.28-2.76a38.62,38.62,0,0,1-8-.31,1.34,1.34,0,0,1-.61-.2,1.16,1.16,0,0,1-.32-.46,7.47,7.47,0,0,1-.57-1.73l2.87-1.5a.53.53,0,0,0,.21-.18h0c.2-.46-1-2.16-1.41-2.47a1.84,1.84,0,0,0-1.82-.13c-1,.32-1.94.81-2.91,1.2A23.14,23.14,0,0,0,115.82,16Z"/><path class="cls-1" d="M118.25,8.57h0L113,8.74a32.11,32.11,0,0,1,0,6.2l2.11.25a.63.63,0,0,0,.39,0,.6.6,0,0,0,.22-.36l.82-2.53a1.44,1.44,0,0,1,.4-.71,1.38,1.38,0,0,1,.6-.2,53.4,53.4,0,0,1,9.78-.69.64.64,0,0,1,.31.07.56.56,0,0,1,.19.37q.38,1.65.6,3.3a.53.53,0,0,0,.17.39.48.48,0,0,0,.31.06l2.78-.08a.81.81,0,0,0,.6-.18.89.89,0,0,0,.14-.51l.29-6.78-9.32.58-.61-4.12c.06.4-4.27.52-4.6.74C117.33,5.11,118.14,7.67,118.25,8.57Z"/><path class="cls-2" d="M20.26,74.94S19.15,81,0,82.48V77.2c2.5,0,4.9,0,7.1-.2,0-.67.05-1.72.05-3.4H1V71.24H7.15c0-1,0-2.06,0-3.26H6.05a2.6,2.6,0,0,0,0,.62H1.39C.91,57.56.77,55.16.77,55.16H6.34v.72h1V53.39H.14V51h7.3V49.74h4.13a11.13,11.13,0,0,0,0,1.29h3.55l1.92-1.92L19,51v2.36H11.67c0,.86,0,1.68,0,2.49H13.3v-.72h4.61c.48,11,.62,13.44.62,13.44H13V68H12c.05,1.2.1,2.3.1,3.26h2.69l1.92-1.92,1.87,1.92V73.6H12.1c.05,1.24.05,2.16.09,2.83A68.93,68.93,0,0,0,20.26,74.94ZM1,46.81a31.26,31.26,0,0,0,13.44-5.57l3,4.32C5.38,52.23,1,46.81,1,46.81ZM7.25,65.58c0-.77,0-1.58,0-2.5H6.14c0,.77,0,1.59,0,2.5Zm-1-7.35c0,.68,0,1.49,0,2.5H7.3c0-.82,0-1.63,0-2.5Zm5.47,0c0,.87.05,1.68.05,2.5h1.34c0-.77,0-1.58,0-2.5ZM13,65.58c.05-.67.05-1.49.09-2.5H11.86c0,.92,0,1.73,0,2.5ZM29.38,55.07h6.05s0,8.3-.34,24.09C30.72,79.84,27,80,27,80V73.31s1,0,2.78.09c-.19-6.86-.34-12.24-.38-15.31h-1.3c-1.54,22.32-8.88,24.29-8.88,24.29S21.41,74.51,22,58.09H20V55.74h2.11c.05-2.11.05-4.27.05-6.63h6.24c0,2.36-.05,4.56-.15,6.63h1.11Z"/><path class="cls-2" d="M76.37,55.69c.53,16,.67,26.88.67,26.88H71.43s0-1.39,0-4.13H50.11c0,1.35,0,2.69-.09,4.13H45.46c-.53-16-.68-26.88-.68-26.88H50.4s0,7-.24,20.4H71.47c0-4.51.15-11.33.29-20.4Zm-12.86-8c0,1.35,0,3.65,0,6.82h1.68v-.62h4.61c.52,11.42.67,19.2.67,19.2H64.8v-.63H56.88v.63H52.27c-.52-11.43-.62-19.2-.62-19.2h5.57v.62h1.34c-.09-3.07-.14-5.42-.14-6.82H45.5V45.32H72.72l1.92-1.92,1.92,1.92v2.35ZM59,70.09l-.15-5.42H57.07c0,1.63,0,3.45-.14,5.42Zm-1.83-7.78h1.63c-.09-2-.09-3.79-.14-5.47H57.22C57.17,58.23,57.17,60.06,57.12,62.31Zm7.78,2.36H63.31c0,1.68,0,3.5-.09,5.42h1.63C64.85,68.75,64.85,66.92,64.9,64.67Zm-1.49-7.83c0,1.63,0,3.46,0,5.47H65l.14-5.47Z"/><path class="cls-2" d="M115.92,79.16c-1.39-.67-2.69-1.39-3.93-2.06a17.27,17.27,0,0,1-8.84,2.06c-4.13,0-6.67-1.24-8-3.07a6.21,6.21,0,0,1-.63-6,9.61,9.61,0,0,1,4.13-4.9c-2-3.36-2.45-6.48-1.82-9,.91-3.7,4.22-6,8.3-6,6.34,0,9.17,2.88,9.17,8.93,0,2.79-2.45,5.72-6.67,7.06a35.7,35.7,0,0,0,3.84,2.4,28,28,0,0,0,2.25-2.78L119,69.61c-.48.77-.92,1.49-1.4,2.16l1.59.72Zm-10.66-6.62A30,30,0,0,1,100.61,68c-2.55,1.68-1.63,4.7,3,4.7A9,9,0,0,0,105.26,72.54Zm-1.15-9.22c5.57-1.53,5.52-6.29,1-6.29C102.53,57,100.51,59.39,104.11,63.32Z"/><path class="cls-2" d="M149.23,67.21a29,29,0,0,1,8.55,4.42L153,76.38a62,62,0,0,0-11.81-9s2.2-1.25,6.28-.53a27.11,27.11,0,0,0,5.24-10.13c-9.84.33-14.12.43-14.12.43v-4.9s6.2,0,21.56.34C159,62.36,152.83,66,149.23,67.21Z"/><path class="cls-2" d="M199.68,76.91c-13,.67-23.81.86-23.81.86V71.05s9.6,0,23.81.43Zm-1.44-23.48v6.72s-8-.19-20.93-.86V53.87C191.52,53.43,198.24,53.43,198.24,53.43Z"/><path class="cls-2" d="M228.43,71.82c0-4.08.2-8,.29-10.75l-10.51.38V57.32s3.46,0,16.27.29c0,0-.33,6.87-1,14.31,1.1,0,2.3.09,3.5.09v4.56c-11.71.58-21.51.72-21.51.72V71.68S220.42,71.68,228.43,71.82Z"/><path class="cls-2" d="M252.86,52.71s10,0,25.35.34c0,11.38-10.32,12.39-10.32,12.39s2.5-2.17,3.31-8.26c-11,.33-18.34.43-18.34.43Zm2,26.45s5.67-4.51,5.67-17.66h6.72C267.27,78.06,254.88,79.16,254.88,79.16Z"/><path class="cls-2" d="M293,57.9h6.72c0,21.26-10.56,21.26-10.56,21.26S293,74.46,293,57.9Zm16.18,14.5c5.09-.77,9.45-4.71,9.45-4.71s-.38,9.94-9.6,11.47h-5.42c-.67-13-.86-28.22-.86-28.22h6.72S309.51,60.83,309.22,72.4Z"/><path class="cls-2" d="M347.81,67.4c-.38-5.18-5.42-8.54-11.91-5.66-4.89,2.21-5.47,10-2.2,10.37,2.4.29,4.56-3.51,5.37-9.6l6.1.76c-1.1,8.6-5.86,14.36-10.23,14.36-4.7,0-7.63-4.23-7.63-8.88a14.36,14.36,0,0,1,12.58-14.36c9.55-1.2,15.51,7,14.4,14.69-1.1,7.3-6,11-14.64,10.08C344,77.39,348.29,73.6,347.81,67.4Z"/><path class="cls-2" d="M364.46,67.5s1.64,3.07,7.59,3.07c12.62,0,15.41-1.77,15.41-1.77l.53,6.72s-2.36,1.77-15.94,1.77C362,77.29,364.46,67.5,364.46,67.5Zm20-8.88a116.76,116.76,0,0,0-16.94-1.06V52.28a133.55,133.55,0,0,1,17.85,1.06Zm2-2.26,2.21-2.49a5.08,5.08,0,0,1,1.25,1.63L392,53.15a4.07,4.07,0,0,1,.62,6,10.43,10.43,0,0,0-2.49-3.17,4.23,4.23,0,0,1-.82,3.89A11.05,11.05,0,0,0,386.45,56.36Z"/><path class="cls-2" d="M420.24,71.15c-.05,2.73-.14,6.43-.29,11.13h-5.56c-.15-2.68-.24-5.18-.34-7.39a19.35,19.35,0,0,1-13.39,6.29,35,35,0,0,0,9.21-10h-8.73V68.8h12.72c-.05-.77-.05-1.35-.1-1.88a16.15,16.15,0,0,1-3.26.44,21,21,0,0,0,5.09-4.52h-2.74v.63h-5.57c-.19-2.59-.29-4.9-.38-6.87h-5.76V54.25h5.61c0-.91-.05-1.73-.09-2.35h-4.61c-.48-5.38-.63-6.53-.63-6.53h6.05V46h7.25l-.43-2.83h6.1s0,.34-.2,2.83h7.11v-.67h5.09c.52,5.38.67,6.53.67,6.53H427s0-.39.19-3.51H407.33c0,.48-.05,1-.05,1.59h5.91s0,1.44-.1,4.27h16L431,52.33l1.87,1.92V56.6h-7.1a14.32,14.32,0,0,1-1.73,3.89h1.63l1.92-1.92,1.92,1.92v2.35h-7.44a14,14,0,0,1-4.32,2.84h2.5V68.8h8.83L431,66.88l1.87,1.92v2.35Zm-3-10.66A15.91,15.91,0,0,0,419,56.6H413c0,1.15-.05,2.45-.1,3.89Zm16.61,15.89-3.27,4.8c-9.26-4-9.21-9.79-9.21-9.79A46.09,46.09,0,0,0,433.83,76.38Z"/><path class="cls-2" d="M462.24,43.26a56.15,56.15,0,0,1-.33,6.57h6.43v-.72h5.09c.48,19.73.62,33.22.62,33.22-4.61.53-8.45.67-8.45.67V77.72s.77,0,2.4,0c0-2.21.05-5.28.1-9.12l-5,2.16A52.41,52.41,0,0,0,459,61c-3.22,7.15-8,9.6-10.13,10.42l-.15,10.94h-5.09c-.52-19.73-.67-33.22-.67-33.22h6.1v.72h6.19c.15-2,.24-4.22.24-6.57ZM455,52.19h-6c0,3.36,0,9.5-.19,18.24C450.63,68.22,453.84,62.79,455,52.19Zm6.53,0a32.76,32.76,0,0,1-1.68,6.67,18.6,18.6,0,0,1,8.21,7c0-3.89.09-8.45.19-13.63Z"/><path class="cls-1" d="M56.42,23.15s-4-3.2-4.8-7.2C50.54,10.55,49.25,6.29,48.73.8c3,.64,6.09.75,10.09,2.35,4.61,1.84,7,3.7,10.4,8.8,3.2,4.8,6,12.91,0,15.2A18.36,18.36,0,0,1,56.42,23.15Z"/><path class="cls-3" d="M70.58,29.62l-.7-2c-.07-.21-.46-.19-.62-.18-3.24.2-6.61.38-9.74-.61a10.88,10.88,0,0,1-6.82-6.4C50,14,51.8,6.73,49.54.2L47.43.87c2.36,2.53,5.79,3.25,8.91,4.42a24,24,0,0,1,8.13,5.14,18.73,18.73,0,0,1,5,8c.91,3,1.33,7.45-1.51,9.56-.89.67,1.26.43,1.68.12,2.77-2.07,3-5.74,2.35-8.89a18.2,18.2,0,0,0-4.49-8.47A24,24,0,0,0,59.45,5c-3.39-1.5-7.34-2-10-4.85-.31-.34-2.28.16-2.1.67,2.41,7,.16,14.92,3.8,21.55,3.47,6.32,10.81,6.42,17.16,6l-.62-.18.7,2c.19.55,2.34-.08,2.17-.58Z"/><path class="cls-3" d="M53.64,9.05l9.73,14c.56.79,2.63,0,2-1l-9.73-14c-.56-.8-2.63,0-2,1Z"/><path class="cls-3" d="M60.84,11.17,60.16,18c0,.28,1.05,0,1.16,0,.28-.08,1-.23,1-.6L63,10.59c0-.28-1.06-.05-1.17,0-.28.08-1,.24-1,.6Z"/><path class="cls-3" d="M55,18.66a50.47,50.47,0,0,1,6.43,2.47,1.94,1.94,0,0,0,1.4-.11c.09,0,1-.47.65-.64a53.24,53.24,0,0,0-6.7-2.58,2.33,2.33,0,0,0-1.52.28c-.21.1-.72.44-.26.58Z"/><path class="cls-3" d="M53.21,12.82l3.45.52a2,2,0,0,0,.81,0,1.83,1.83,0,0,0,.73-.38c.11-.13.27-.32.2-.51a.53.53,0,0,0-.43-.33l-3.45-.52a2,2,0,0,0-.81,0A1.83,1.83,0,0,0,53,12c-.12.13-.27.32-.2.51a.53.53,0,0,0,.43.33Z"/><path class="cls-1" d="M417.42,25.15s4-3.2,4.8-7.2c1.08-5.4,2.36-9.66,2.88-15.15-3,.64-6.08.75-10.08,2.35-4.62,1.84-7,3.7-10.4,8.8-3.2,4.8-6,12.91,0,15.2A18.36,18.36,0,0,0,417.42,25.15Z"/><path class="cls-3" d="M405.41,31.72l.7-2-1.77.64c6.4.39,14.12.23,17.94-5.86,4.17-6.65,1.7-15,4.17-22.18.2-.57-1.84,0-2.06.26-2.54,2.73-6.48,3.23-9.75,4.68A24.93,24.93,0,0,0,406.47,13a18.35,18.35,0,0,0-4.61,8.45c-.67,3.05-.62,6.87,2.12,8.91.49.36,2.39-.5,2-.75-2.85-2.12-2.67-6.32-1.81-9.39a18.52,18.52,0,0,1,5-8.15,23,23,0,0,1,8.52-5.24c3.07-1.09,6.36-2,8.66-4.44l-2.06.26c-2.19,6.31-.59,13.23-2.89,19.5a10.53,10.53,0,0,1-6.05,6.62c-3,1.09-6.47.82-9.63.63-.43,0-1.6.14-1.78.64l-.69,2c-.15.43,1.94.19,2.14-.38Z"/><path class="cls-3" d="M418.13,10.77l-9.74,14c-.22.33.79.23.87.21a2,2,0,0,0,1.28-.59l9.73-14c.23-.33-.79-.23-.87-.22a2,2,0,0,0-1.27.6Z"/><path class="cls-3" d="M410.82,13.17l.69,6.87c0,.16.3.22.4.24a2,2,0,0,0,.81-.07c.31-.09,1-.32,1-.76L413,12.59c0-.16-.3-.23-.41-.24a2,2,0,0,0-.8.07c-.32.09-1,.31-1,.75Z"/><path class="cls-3" d="M417.71,19.46a54.5,54.5,0,0,0-6.84,2.63c-.41.19-.82.71-.5,1.15s1,.39,1.48.19c1-.49,2.1-.94,3.18-1.36l.34-.13c.14-.05.16-.06.07,0l.23-.09.82-.29,1.64-.53c.43-.14,1-.53.88-1.07s-.87-.62-1.3-.48Z"/><path class="cls-3" d="M420.09,13.47l-3.46.52a1.88,1.88,0,0,0-.82.29.93.93,0,0,0-.39.54c0,.5.57.68,1,.62l3.46-.52a1.8,1.8,0,0,0,.81-.29.91.91,0,0,0,.4-.54c0-.5-.58-.68-1-.62Z"/><path class="cls-3" d="M115.38,5.46a7.57,7.57,0,0,0,.22,1.83,8.08,8.08,0,0,1,.31,1.6V8.73c0,.22-.09.52.08.7a1.14,1.14,0,0,0,.9.2,2.07,2.07,0,0,0,.93-.35.83.83,0,0,0,.41-.47.36.36,0,0,0-.22-.4,1.72,1.72,0,0,0-1.54.19c-.37.25,0-.27,1-.23l.45.1q.18.16.12.09l.08.14a.17.17,0,0,1,0-.07v.16a5,5,0,0,0,0-.67,5.37,5.37,0,0,0-.19-1,9.42,9.42,0,0,1-.33-2v.16a.29.29,0,0,1,0-.13.4.4,0,0,0-.23-.41,1.18,1.18,0,0,0-.72-.08,1.87,1.87,0,0,0-.82.28c-.15.1-.41.27-.41.47Z"/><path class="cls-3" d="M116.53,5.57l5-1.29-1.22-.19V8.81l.67-.67c.35-.16.56-.2.77-.07a1.63,1.63,0,0,0-1.43,0,1.41,1.41,0,0,0-.59.4c-.07.1-.15.3,0,.4a2.3,2.3,0,0,0,2.09,0c.29-.13.67-.32.67-.68V3.51c0-.16-.31-.24-.41-.25a2,2,0,0,0-.8.06l-5,1.29c-.28.08-1.07.36-1,.77s1,.26,1.21.19Z"/><path class="cls-3" d="M117.67,8.55a29.27,29.27,0,0,0-3.74.39l-1.73.26c-.15,0-.47.08-.14,0s-.25,0-.28,0a3.4,3.4,0,0,0-.46.09c-1.2.33-1.13,1-1.2,2.13-.05.76-.08,1.52-.12,2.28,0,.42,0,.84-.07,1.26a2.88,2.88,0,0,1-.08,1c-.08.13.1.21.19.24a15.37,15.37,0,0,0,3.46.08c.38,0,1.67-.13,1.78-.64l.52-2.62a3,3,0,0,0,.12-.6.65.65,0,0,0,0-.17,4.74,4.74,0,0,0-.91.45c-.23.16-.23,0,0,0a3.85,3.85,0,0,0,.47-.08c2-.29,4-.5,6-.71,1-.1,2.06-.2,3.09-.28.37,0,.75-.06,1.13-.07.19,0,.07,0,.21,0s0,0,0-.05a16.9,16.9,0,0,1,.55,3.77c0,.34,0,.53.32.71a4.93,4.93,0,0,0,2.53,0c1.15-.17,3.45-.16,3.83-1.54a12.87,12.87,0,0,0,0-3.34l0-4c0-.2-.52-.16-.62-.16a108,108,0,0,0-11.35,1c-.24,0-1.26.26-1.27.61s.63.26.87.22A103.21,103.21,0,0,1,131.57,8L131,7.81c0,2.24.19,4.54,0,6.77,0,0-.09.63-.1.62-.17-.16,1.16-.24.43-.21a6.19,6.19,0,0,0-1,.15,5.91,5.91,0,0,1-.91.14c-.43,0-.65.08-.8-.18a5.42,5.42,0,0,1-.2-1.62,13.12,13.12,0,0,0-.34-2.16c-.2-.68-.67-.58-1.3-.56-2,.05-4,.31-6,.52-1.82.2-3.67.36-5.47.69-.76.14-1.48.29-1.64,1.1l-.61,3,1.78-.64H113.4l-1.06,0a2.08,2.08,0,0,0-.43,0c-.07,0-.33-.06-.09,0l.18.24a4.07,4.07,0,0,0,.12-1.36c0-.7.07-1.41.1-2.11s-.14-2.11.27-2.68l-1,.54c-1.14.34-.82.13-.39.08l.61-.08,1.33-.21a23.08,23.08,0,0,1,3.2-.38A2.6,2.6,0,0,0,117.8,9c.27-.22.36-.5-.13-.49Z"/><path class="cls-3" d="M120.56,14A19.35,19.35,0,0,1,117,16.2c-.94.52-1.88,1-2.83,1.53-.21.11-.46.34-.41.61l.5,2.74c.08.44,1,.32,1.23.25l2.35-.75-1.23-.24a22.63,22.63,0,0,1,.13,3l1.23-.73c-1.87.15-3.75.36-5.62.57-.38,0-1.14.27-1.23.73A7.37,7.37,0,0,0,110.7,26c.09.53.71.57,1.17.66a39.12,39.12,0,0,0,5.5.76l-.66-.32c0,2.53,1,4.46,3.6,5.11s5.27-.41,7.91-.59c.34,0,1.21-.29,1.24-.73.06-.86.18-2.15-.39-2.88s-1.88-.35-2.77-.28c-.72.06-2.39,0-2.66-.79a2.55,2.55,0,0,1,.12-1.64l-.58.42c-.46.21.26.09.37.08l.91-.06,1.81-.11,3.62-.22c.41,0,1.29-.34,1.24-.89a14.73,14.73,0,0,0-.63-2.84c-.34-1.07-.93-1-2-.95q-3.12,0-6.25.06l.66.32V18.38l-1.23.88a5.71,5.71,0,0,0,3.09-1.51c.18-.18.3-.36.14-.59l-2.18-3.24c-.4-.59-2.51.13-2,.85L122.86,18l.14-.59a2.34,2.34,0,0,1-.88.6c-.12,0-.64.15-.17.07-.46.08-1.24.29-1.24.88v2.76c0,.26.5.32.66.32,1.77,0,3.54,0,5.31,0,.43,0,1.36.16,1.7,0-.26.15-.22-.42-.12.1,0,.19.12.39.17.58a14.13,14.13,0,0,1,.52,2.49l1.24-.89-6.7.42a2.15,2.15,0,0,0-1.81.72,2.92,2.92,0,0,0-.26,1.43,1.88,1.88,0,0,0,.26,1.24,4.24,4.24,0,0,0,2.14.81,7.48,7.48,0,0,0,2.79,0c.24,0,.34-.1.46,0a1.83,1.83,0,0,1,.14.57,6.56,6.56,0,0,1,.08,1.77l1.23-.74c-2.18.15-4.43,1.13-6.62.68s-3-2.44-3-4.59c0-.27-.5-.31-.66-.32a37.72,37.72,0,0,1-4.62-.63,4.15,4.15,0,0,0-.78-.16c-.08,0-.17,0-.08,0s0,.29.18,0a7,7,0,0,0,.33-1.87l-1.24.73c1.87-.21,3.74-.42,5.62-.57.33,0,1.22-.29,1.24-.73a23.78,23.78,0,0,0-.13-3.27c0-.45-1-.31-1.23-.25l-2.35.75,1.23.24-.5-2.75-.41.61c1-.53,2-1.07,3-1.63a20.59,20.59,0,0,0,3.82-2.43c.34-.31.22-.64-.21-.76a1.9,1.9,0,0,0-1.53.42Z"/><path class="cls-3" d="M141,21.42l8.05-.86-1.21-1c-1.54,2-2.57,5.39-1.34,7.82a3.32,3.32,0,0,0,3.27,1.84,3.47,3.47,0,0,0,3.3-2.22c.2-.68-.87-.84-1.3-.8a1.81,1.81,0,0,0-1.62,1.08c0-.09,0,.1-.06.13s0,0,0,0h0a.39.39,0,0,1,.17-.11c-.15.1-.06,0,0,0-.17,0-.07,0,.05,0-.38,0,.17,0-.05,0s.16,0,0,0-.26-.08-.12,0A2.46,2.46,0,0,1,149,25.29a7.67,7.67,0,0,1,1.59-5.57c.58-.77-.74-1.1-1.21-1l-8,.86c-.59.07-1.52.4-1.62,1.09s.81.85,1.3.8Z"/><path class="cls-3" d="M151.7,11.83a22.8,22.8,0,0,1,1.23,4.81c0,.19.4.22.51.23a3.15,3.15,0,0,0,1.06-.13,3.21,3.21,0,0,0,1-.42c.15-.1.36-.24.33-.45a22.87,22.87,0,0,0-1.22-4.82c-.07-.18-.36-.21-.52-.23A3.16,3.16,0,0,0,153,11a3.19,3.19,0,0,0-1,.41c-.12.09-.4.27-.33.46Z"/><path class="cls-3" d="M156.53,10.49A14,14,0,0,0,158,16c.27.52,1.17.37,1.62.24a2.53,2.53,0,0,0,1-.46c.13-.11.4-.35.3-.56a13.91,13.91,0,0,1-1.48-5.51c0-.21-.41-.31-.55-.33a2.59,2.59,0,0,0-1.07.09c-.45.13-1.32.42-1.28,1Z"/><path class="cls-3" d="M173.86,8.32a13.12,13.12,0,0,1-2.25,3.35c-.26.28.07.45.31.49l8.46,1.55-.16-.63-2.14,1.75-1.13.92c-.18.16-.48.36-.55.61-.16.63.93.95,1.35,1.14a12.73,12.73,0,0,0,2.34.82,3.4,3.4,0,0,0,2.33-.16,7.38,7.38,0,0,0,1.89-1.6l4-4c.19-.19.06-.36-.12-.45A78.78,78.78,0,0,0,175.58,6.9a2.06,2.06,0,0,0-1.53.24c-.22.12-.72.55-.23.71a78.78,78.78,0,0,1,12.63,5.25l-.12-.45-4.12,4.07-.42.4-.31.31c-.27.23-.09.22.53,0a5.44,5.44,0,0,0-1.17-.32c-.41-.14-2.29-.69-2.27-1.17l-.09.26a7.93,7.93,0,0,1,1.64-1.4l1.8-1.47c.34-.28.27-.55-.17-.63l-8.46-1.55.31.5A14.15,14.15,0,0,0,176,8c.19-.42-.74-.37-.91-.35a1.67,1.67,0,0,0-1.25.67Z"/><path class="cls-3" d="M171.11,23.22c3.39,3.42,8.41,4.18,13,4.7l-.19-.12-.25,1.64a4.18,4.18,0,0,1-.35,1.66l.45-.33.56-.16-.42.07-.71.1c-.42.06-.85.12-1.28.16-.9.1-1.8.16-2.7.2a42,42,0,0,1-5.61-.14c-.57-.05-2,0-2.29-.59-.2-.37,0-.88.14-1.25l.41-1.39,1.58-5.44c.12-.4-2-.15-2.14.39l-1.14,3.9-.56,1.95a11.26,11.26,0,0,0-.51,1.87c-.12,1,.86,1.18,1.64,1.27,1.28.16,2.58.26,3.88.31a45.16,45.16,0,0,0,7.62-.38c.91-.12,2.6-.12,3.22-.93a3.65,3.65,0,0,0,.35-1.58l.28-1.91a.2.2,0,0,0-.19-.12c-4.5-.52-9.38-1.24-12.72-4.61-.39-.39-2.37.41-2,.73Z"/><path class="cls-3" d="M190.5,23.74l0,2.79c0,.16.31.27.41.29a10.05,10.05,0,0,0,2.95-.19,1.44,1.44,0,0,1,1.45.48c.87,1.29-1.28,2.81-2.31,3.11-.36.11-1.17.45-.87,1l.9,1.47c.25.43.45.91,1,1.06,1.13.32,2.29-.6,3.2-1.16a15,15,0,0,0,4.63-4,7.89,7.89,0,0,0,1.22-2.67,4.81,4.81,0,0,0-.07-2.81,3.49,3.49,0,0,0-2.24-1.64,11.93,11.93,0,0,0-3-.61,12.56,12.56,0,0,0-6.87,1.53c-.33.18-.62.59-.2.83a1.79,1.79,0,0,0,1.54-.2A8.33,8.33,0,0,1,197,22a8.65,8.65,0,0,1,2.6.66,2.05,2.05,0,0,1,1.42,2A6.7,6.7,0,0,1,199,29.54a12.52,12.52,0,0,1-2.15,1.76c-.37.25-.75.49-1.13.72a7.14,7.14,0,0,1-1.19.7l.85-.17c.22.09.25.07.11-.06s-.13-.21-.19-.31-.22-.37-.34-.55l-.78-1.3-.86,1a7.57,7.57,0,0,0,3-1.62,3.28,3.28,0,0,0,1.35-2.72,2.13,2.13,0,0,0-2-1.5,5.43,5.43,0,0,0-1.61,0,5.38,5.38,0,0,1-1.82.19l.42.29,0-2.78c0-.66-2.18-.25-2.17.58Z"/><path class="cls-3" d="M232.44,13.89a13.81,13.81,0,0,0-.08,6.79c.09.38.67.38.95.36l2.46-.15a4.82,4.82,0,0,0,2.43-.48c.76-.5.67-1.3.69-2.11s0-1.54,0-2.31,0-1.55,0-2.32a4.43,4.43,0,0,0,0-1.09,1,1,0,0,0-.79-.63,8.3,8.3,0,0,0-2.38.12l-2.47.22c-.42,0-1.14.29-1.22.77s.63.56,1,.53l2.93-.26.7-.07.39,0s-.35,0-.29-.08a4.3,4.3,0,0,0,0,.46c0,.26,0,.51,0,.77,0,.95,0,1.91,0,2.86,0,.49,0,1,0,1.46,0,.22.07,1-.08,1.13l.44-.28c.16-.08.17,0,0,0l-.46,0-1,.06-2,.12,1,.36a13,13,0,0,1,.08-6.46c.13-.49-.65-.56-1-.53s-1.09.29-1.22.78Z"/><path class="cls-3" d="M245.3,14.36c-1.15,6.24-5.73,11-10,15.34a.54.54,0,0,0,.05.87l2.11,1.63a12.42,12.42,0,0,0,1.75,1.33c1.23.64,2.25-.22,3.12-1a44.71,44.71,0,0,0,6.24-6.44A18,18,0,0,0,252,18.63c.2-1.09.47-2.32-.54-3.06a40.92,40.92,0,0,0-4-2.29c-.75-.43-2.7.62-1.69,1.19l2.76,1.58a5,5,0,0,1,1.22.72c.32.34.2.81.15,1.26A14.82,14.82,0,0,1,248,23.67a25,25,0,0,1-3.63,4.7q-1.07,1.1-2.19,2.13l-1.13,1-.5.45c-.13.11-.25.23-.38.33s-.16.15,0,0h.82a8.05,8.05,0,0,1-2-1.44l-2-1.52,0,.87c4.5-4.57,9.22-9.56,10.42-16.09.19-1-2-.69-2.19.2Z"/><path class="cls-3" d="M210.05,10.74l-2.24,2.5c-.09.11-.15.16,0,.27,1.42,1.51,2.9,2.94,4.46,4.3l.05-.26c-1.65,1.54-3.25,3.12-4.82,4.74-.24.25,0,.31.27.33a28.55,28.55,0,0,0,7.21-.35l-.86-.17c-1.75,2.21-3.2,5.73-.78,8.07,1.16,1.11,3.13,1.41,4.64,1.64a23,23,0,0,0,5.44.13c.33,0,1.55-.23,1.56-.71l.08-3.36c0-.12-.34-.13-.38-.13-1.72-.12-6.28-1.32-4.94-3.86A10.12,10.12,0,0,1,222,21.32a23.66,23.66,0,0,1,2.88-2.18c.34-.22.31-.41-.12-.44l-7.1-.46.27.33A45.66,45.66,0,0,1,223.77,13c.11-.09.14-.17,0-.27-1.09-1.18-2.44-3.16-4.23-2.73a4.88,4.88,0,0,0-2.08,1.19l-2.65,2.25,2-.46a21.13,21.13,0,0,1-4.26-2.82c-.42-.36-2.33.49-2,.73a21.56,21.56,0,0,0,4.26,2.82,2.37,2.37,0,0,0,2-.46c1.16-1,2.29-2.05,3.52-2.95l-.9.41.31-.09-1,.1a5.23,5.23,0,0,1,1.59,1.3c.49.46.95,1,1.41,1.44l0-.27A45.66,45.66,0,0,0,216,18.76c-.23.25,0,.31.27.33l7.1.46-.11-.44a25,25,0,0,0-3.33,2.53c-1,.85-2.33,2-2.62,3.28-.58,2.61,4.15,3.55,5.92,3.67l-.38-.13-.08,3.35,1.56-.7a19.21,19.21,0,0,1-5.19-.22c-1.43-.25-3.1-.56-4.06-1.75-1.87-2.35-.47-5.4,1.14-7.44.23-.3-.86-.18-.86-.18a24.38,24.38,0,0,1-6.21.25l.27.33c1.57-1.62,3.17-3.2,4.82-4.74.09-.09.15-.18,0-.27-1.56-1.36-3-2.8-4.47-4.3l0,.26,2.24-2.5c.31-.35-.28-.33-.51-.32a2.43,2.43,0,0,0-1.45.51Z"/><path class="cls-3" d="M263,17a131.7,131.7,0,0,1-1.86,13.57l2.91-.33,0-.59c.09-1.23-2.83-.7-2.91.34l0,.58c-.09,1.26,2.71.67,2.91-.33a134.89,134.89,0,0,0,1.86-13.57c.1-1.23-2.82-.71-2.91.33Z"/><path class="cls-3" d="M264.38,17.56l5.56-.59-1.35-1a30.68,30.68,0,0,0-.11,7.48c.09,1.24.22,2.47.32,3.7.06.61.1,1.23.13,1.84a4.62,4.62,0,0,1,0,1.57l.42-.51-.15.09,1.09-.4c.25,0,.14,0,0-.12s-.31-.21-.46-.34a3.79,3.79,0,0,1-.64-.85c-.71-1.16-3.46,0-2.65,1.3s2.66,2.83,4.32,2a1.87,1.87,0,0,0,1.06-1.95c0-.95-.09-1.9-.16-2.85-.29-3.72-.83-7.45-.22-11.17.12-.72-.8-1.07-1.36-1l-5.56.6c-.65.06-1.52.45-1.59,1.2s.75,1.07,1.36,1Z"/><path class="cls-3" d="M263.9,21.51l5-.43a4.4,4.4,0,0,0,1.13-.25,2.35,2.35,0,0,0,.81-.43c.46-.46-.42-.49-.68-.47l-5,.43a4.4,4.4,0,0,0-1.13.25,2.53,2.53,0,0,0-.81.43c-.46.46.42.49.68.47Z"/><path class="cls-3" d="M263.79,25.49c.9,0,1.81-.06,2.72,0l.65,0h.33c.29,0-.15,0,.11,0l1.41.1a2.88,2.88,0,0,0,2.05-.55c.15-.12.37-.31.31-.54s-.35-.29-.54-.31a42.44,42.44,0,0,0-5.86-.14,2.68,2.68,0,0,0-1.92.75c-.41.52.35.71.74.69Z"/><path class="cls-3" d="M274.69,16.47a70.46,70.46,0,0,0,.62,15,.29.29,0,0,0,.25.16,39.21,39.21,0,0,0,7.78.94c1.32,0,2.64,0,4-.14,1.1-.09,2.91-.21,3.58-1.26a2.47,2.47,0,0,0,.22-1.29l0-2,.07-4.07.15-8.28c0-.42-2.89,0-2.9.78l-.14,8-.07,3.91,0,1.87c0,.51.15,1.39-.31,1.73l.82-.43.45-.09-.45.05-.76.05c-.45,0-.9,0-1.36.06-1,0-1.92,0-2.88-.05a36.16,36.16,0,0,1-5.76-.82l.25.16a70.43,70.43,0,0,1-.61-15c0-.37-2.84-.06-2.9.78Z"/><path class="cls-3" d="M279.09,21.47A25.35,25.35,0,0,0,284.61,25a2.56,2.56,0,0,0,1.68-.11,3.35,3.35,0,0,0,.8-.35c.12-.08.39-.24.34-.42l-.12-.43c-.05-.18-.39-.2-.51-.2a4.11,4.11,0,0,0-2.05.55c-.12.08-.39.24-.34.42l.12.43,2.81-.88a24.64,24.64,0,0,1-5.51-3.51,1.35,1.35,0,0,0-.74-.09,4,4,0,0,0-1.13.26c-.2.07-1.26.48-.87.81Z"/><path class="cls-3" d="M284,18.43a60,60,0,0,0-5.26,8.37c-.31.6.27,1,.82,1a2.16,2.16,0,0,0,1.91-.82,59.53,59.53,0,0,1,5.26-8.38c.42-.56-.36-1-.82-1a2.24,2.24,0,0,0-1.91.83Z"/><path class="cls-3" d="M296.51,13.76A94.17,94.17,0,0,0,296,26.44c0,1.71.05,3.41.1,5.12a6.08,6.08,0,0,0,.24,2.52c.64,1.11,2.56.22,2.79-.75h0c.18-.72-.82-1-1.35-1a1.65,1.65,0,0,0-1.59,1.21h0l2.79-.75c.1.17.11.57.13.33a3,3,0,0,0,0-.52L299,31c0-1.74-.08-3.48-.09-5.21a91.86,91.86,0,0,1,.52-12.19c.2-1.53-2.77-1.18-2.94.19Z"/><path class="cls-3" d="M297.83,14.15a41.42,41.42,0,0,1,6.85-.6c1.35,0,2.7,0,4.05,0l1.91.07c.42,0,1.65-.11,2,.14s0,1.53,0,1.84c0,.68-.07,1.36-.11,2-.09,1.48-.18,2.95-.28,4.42s-.2,3-.32,4.42c-.05.68-.1,1.36-.16,2,0,.31,0,1.47-.31,1.68l1-.43-.18,0,1.07-.12c-.33-.05-1-1.14-1.23-1.39-.5-.61-1-1.22-1.47-1.84s-3.23.37-2.72,1,1,1.23,1.47,1.83a5.05,5.05,0,0,0,1.43,1.48,3.18,3.18,0,0,0,3.46-1,2.63,2.63,0,0,0,.32-1.24c.07-.85.14-1.7.2-2.54.12-1.53.24-3.06.34-4.59s.21-3.18.3-4.77l.12-2.38c0-.53.21-1.25-.26-1.63a2.78,2.78,0,0,0-1.52-.28c-.79,0-1.58-.08-2.38-.1q-2.2-.08-4.41-.06a46.18,46.18,0,0,0-8.63.69c-.41.08-1.6.31-1.69.84s.9.42,1.18.36Z"/><path class="cls-3" d="M303.62,18.08a41.32,41.32,0,0,0,4.66,3.31,2.06,2.06,0,0,0,2.07-.22c.44-.33.81-1,.2-1.34a42.28,42.28,0,0,1-4.67-3.3,1.49,1.49,0,0,0-1-.17,2.3,2.3,0,0,0-1.1.38c-.22.17-.5.41-.52.7a.66.66,0,0,0,.33.64Z"/><path class="cls-3" d="M324,20.46a27.18,27.18,0,0,0,6.57-1.14,2.11,2.11,0,0,0,.95-.55.88.88,0,0,0,.25-.78c-.22-.66-1.14-.72-1.7-.55s-1,.28-1.49.4c-.25.07-.5.12-.75.17l-.41.09c-.09,0-.43.12-.07,0a9.72,9.72,0,0,1-1.53.22c-.51.05-1,.09-1.54.12a2.09,2.09,0,0,0-1.09.39,1.21,1.21,0,0,0-.51.74c-.05.73.75.91,1.32.88Z"/><path class="cls-3" d="M325.56,17.74l-.36,2.44L325,21.37c-.06.38-.23.81.13,1.06a8.81,8.81,0,0,0,1.06.54l1.1.56,2.31,1.17a1.5,1.5,0,0,0,.73.06,4.8,4.8,0,0,0,1.12-.26c.12-.05,1.3-.55.88-.76l-2.18-1.11c-.73-.37-1.49-.7-2.19-1.11-.16-.09-.17-.15-.15-.33a5.59,5.59,0,0,1,.08-.59l.18-1.19.36-2.45c.05-.35-1.42,0-1.56,0-.38.11-1.27.31-1.34.79Z"/><path class="cls-3" d="M330.42,20.92a16.4,16.4,0,0,0-3.79,2.94,5.11,5.11,0,0,0-1.77,3.86,3.37,3.37,0,0,0,2.63,2.62c1.66.49,3.35.16,5,.25a2.42,2.42,0,0,0,1.92-.77c.4-.57-.35-.75-.77-.77a20.63,20.63,0,0,1-4-.09,2.48,2.48,0,0,1-1.91-2,4.1,4.1,0,0,1,1.46-3,12.5,12.5,0,0,1,3-2.28c.38-.21.87-.77.27-1.05a2.56,2.56,0,0,0-2.05.29Z"/><path class="cls-3" d="M276.56,9.18l1.6,4.07c.21.54,1.2.38,1.62.26a2.68,2.68,0,0,0,1-.46c.14-.13.38-.36.3-.58l-1.6-4.07c-.22-.54-1.2-.38-1.63-.26a2.44,2.44,0,0,0-1,.47c-.14.12-.39.35-.3.57Z"/><path class="cls-3" d="M280.82,9.32a32.56,32.56,0,0,1,1.39,3.28c.06.17.37.18.5.19a3.82,3.82,0,0,0,1.06-.15,3.74,3.74,0,0,0,1-.4c.11-.08.41-.24.34-.42a27.66,27.66,0,0,0-1.39-3.27c-.08-.17-.34-.18-.5-.19a3.82,3.82,0,0,0-1.06.15,3.17,3.17,0,0,0-1,.4c-.1.07-.42.25-.34.41Z"/><path class="cls-3" d="M288,8.73a9.91,9.91,0,0,1-1.68,3.62l.12-.16-.2.27c-.11.13-.21.27,0,.41A1.19,1.19,0,0,0,287,13a3.94,3.94,0,0,0,1.13-.25,1.85,1.85,0,0,0,.81-.45,10.41,10.41,0,0,0,2-4c.12-.52-.91-.37-1.17-.32a3.88,3.88,0,0,0-1.11.35c-.18.09-.53.24-.58.46Z"/><path class="cls-3" d="M346.08,9.6l1,5.71c0,.26.37.44.59.51a2,2,0,0,0,1.09,0c.55-.16,1.33-.58,1.21-1.27L349,8.82c-.05-.26-.37-.44-.59-.51a2.06,2.06,0,0,0-1.1,0c-.55.16-1.33.58-1.21,1.27Z"/><path class="cls-3" d="M341.94,15.73q6.17-.09,12.33.07l.77-1.59-.43.08c-.51.1-1.54.33-1.65,1s.86.67,1.25.6l.43-.08c.53-.1,1.37-.3,1.6-.87s-.4-.71-.83-.72q-6.17-.15-12.33-.08a2.4,2.4,0,0,0-1.92.79c-.35.56.3.83.78.83Z"/><path class="cls-3" d="M345.74,15.63A50.14,50.14,0,0,1,345.6,22c0,.18.45.23.52.24a3.15,3.15,0,0,0,1.06-.13c.43-.12,1.27-.34,1.32-.88a52.11,52.11,0,0,0,.14-6.37c0-.19-.43-.23-.52-.24a3.15,3.15,0,0,0-1.06.13c-.37.11-1.34.36-1.32.88Z"/><path class="cls-3" d="M349.93,15.57a25.47,25.47,0,0,0,.28,6.92c0,.25.37.39.57.44a2.12,2.12,0,0,0,1.09,0c.49-.14,1.36-.52,1.24-1.18a23.33,23.33,0,0,1-.27-6.46c.06-.66-.79-.77-1.28-.71a2.45,2.45,0,0,0-1.09.38c-.22.15-.51.37-.54.65Z"/><path class="cls-3" d="M342.89,18.35l-2.48,2.37a.32.32,0,0,0,0,.47,1.18,1.18,0,0,0,.75.16,3.08,3.08,0,0,0,1.93-.73l2.48-2.38a.31.31,0,0,0,0-.47,1.21,1.21,0,0,0-.75-.15,3,3,0,0,0-1.93.73Z"/><path class="cls-3" d="M353,18.51a23.78,23.78,0,0,0,2.47,2.74,1.2,1.2,0,0,0,.76.18,3.19,3.19,0,0,0,1.14-.24,1.8,1.8,0,0,0,.79-.51c.11-.16.19-.34,0-.5a22.89,22.89,0,0,1-2.47-2.74c-.14-.17-.59-.18-.77-.18a3.41,3.41,0,0,0-1.13.24A1.8,1.8,0,0,0,353,18l-.11.18a.28.28,0,0,0,.09.32Z"/><path class="cls-3" d="M345.41,23.63a4.4,4.4,0,0,1-.28.82l.1-.22a4.33,4.33,0,0,1-.67,1l.18-.21a3.47,3.47,0,0,1-.6.55l.26-.19-.26.18a1.1,1.1,0,0,0-.55.61.48.48,0,0,0,.3.53,1.71,1.71,0,0,0,.95.1,2.66,2.66,0,0,0,1.1-.37,5.15,5.15,0,0,0,2.36-3.16.47.47,0,0,0-.29-.53,1.66,1.66,0,0,0-1-.1A2.71,2.71,0,0,0,346,23a1.15,1.15,0,0,0-.54.61Z"/><path class="cls-3" d="M347.37,24.73H348c-.14,0,0,0,.1,0h1.6c.85,0,1.69,0,2.53.09l-.83-1a15.66,15.66,0,0,1-1.33,2.27A14.37,14.37,0,0,1,348.43,28c-.31.31-.63.61-1,.89l-.07.06-.28.22-.52.4c-.36.25-.73.49-1.1.72l-.26.15c-.35.2.26-.14-.1.05-.21.11-.42.22-.64.32-.44.21-1.17.78-.73,1.32s1.43.37,1.94.12a17.86,17.86,0,0,0,8.4-8.24c.3-.62-.25-1-.83-1-1.86-.11-3.72-.13-5.58-.07-.58,0-1.52.42-1.62,1.07s.82.79,1.29.78Z"/><path class="cls-3" d="M345.74,25.55A25.14,25.14,0,0,0,355,32a2.81,2.81,0,0,0,1.87-.17c.1,0,1.32-.63.86-.81a25.17,25.17,0,0,1-9.26-6.42c-.13-.13-.61-.09-.74-.08a4.86,4.86,0,0,0-1.13.25c-.24.09-1.2.45-.86.82Z"/><path class="cls-3" d="M364.12,14.14l3.63,3.05a1.21,1.21,0,0,0,.78.25,2.72,2.72,0,0,0,1.13-.23,1.64,1.64,0,0,0,.78-.56.43.43,0,0,0,0-.58L366.82,13a1.21,1.21,0,0,0-.78-.25,2.77,2.77,0,0,0-1.14.23,1.64,1.64,0,0,0-.78.56c-.1.17-.19.42,0,.59Z"/><path class="cls-3" d="M364.25,21.73c1.28-.3,2.6-.55,3.92-.73l-.8-.31c-1.66,2.72-3.2,5.52-4.61,8.37-.18.38.68.32.8.31a3.7,3.7,0,0,0,1.74-.54l1.82-1.25L368,27l.5-.34.16-.11c.35-.22.21-.18-.43.12l-1.06.15h.13l-.42-.09c.26.13.31.72.43,1a4.57,4.57,0,0,0,.55.87,4.12,4.12,0,0,0,1.8,1.28,7,7,0,0,0,5.82-.92c.09-.06.39-.25.34-.42s-.39-.19-.51-.19a3.81,3.81,0,0,0-2.05.55A2.39,2.39,0,0,0,373,29c-.21.18.09-.07,0,0s.12,0,.12,0-.23,0-.25,0a2.88,2.88,0,0,1-1.27-.41,3.74,3.74,0,0,1-1.7-2.25c-.18-.62-.62-.7-1.24-.65a5,5,0,0,0-2.38.88c-1.08.73-2.16,1.46-3.23,2.2l2.53-.23c1.41-2.85,2.95-5.65,4.61-8.37.21-.35-.71-.32-.8-.3-1.82.24-3.62.58-5.41,1-.28.06-1.42.38-1.33.82s1.38.08,1.56,0Z"/><path class="cls-3" d="M380.62,13.81l5.28-.36-.71-.57-6.44,9c-.63.88,1.56.42,1.84.31,1.29-.46,3,.47,3.79,1.39a5.11,5.11,0,0,1,1.24,4.25,4.07,4.07,0,0,1-.9,1.95c-.13.14-.36.26-.47.41s-.11.08.12,0,.27-.07.1-.07-.64-.19-.85-.34a1.79,1.79,0,0,1-.69-.87,2.73,2.73,0,0,1-.07-.64s.15-.43-.08-.25c.2-.16.94,0,1.13,0a7,7,0,0,1,1.36.37,2.84,2.84,0,0,0,2-.34c.32-.17.95-.62.34-.85a8.45,8.45,0,0,0-4.9-.27c-1.19.28-3,.95-2.77,2.49a2.7,2.7,0,0,0,2.52,2,6,6,0,0,0,4.3-1.22,5.2,5.2,0,0,0,.73-7.08c-1.83-2.53-5.25-2.66-8-1.67l1.84.32,6.45-9c.36-.5-.32-.59-.71-.57l-5.28.37c-.57,0-1.59.2-1.94.71s.3.6.71.57Z"/><path class="cls-3" d="M304.8,8.65a48.59,48.59,0,0,1-1.92,7.12c-.78,2.16-1.59,4.46-3.28,6.09a.6.6,0,0,0,.3,1.1,2.42,2.42,0,0,0,2.05-.55c1.85-1.79,2.78-4.13,3.66-6.49a47.9,47.9,0,0,0,2.09-7.61c.22-1.17-2.71-.71-2.9.34Z"/><path class="cls-3" d="M91,4.26,88.11,6.92a23.28,23.28,0,0,0-2.55,2.41,2.92,2.92,0,0,0-.38,2.11l.21,3.91.79,15.15c0,.35.74.33.94.3a63.12,63.12,0,0,1,17.31.16c.51.08,1.82-.13,1.75-.87q-1-10-1-20c0-.35-.75-.31-.93-.3a37.39,37.39,0,0,1-10-.58l.35.6,3.2-3.57a.33.33,0,0,0-.15-.53L92.69,4a1.82,1.82,0,0,0-1.54.2c-.23.16-.71.66-.19.84l5,1.72-.14-.54L92.62,9.74c-.25.29.08.55.35.6a40.9,40.9,0,0,0,11,.6l-.94-.3q0,10,1,20l1.75-.87a67.05,67.05,0,0,0-18.34-.18l.93.3-.71-13.69-.18-3.42c-.06-1.09-.47-2.67.25-3.56A27.34,27.34,0,0,1,90.2,6.93l2.49-2.32c.91-.86-1.22-.83-1.74-.35Z"/><path class="cls-3" d="M89.75,19.41l.42,2.51c.07.38.67.49,1,.44a48,48,0,0,1,5.75-.06c.94,0,2.29.08,3-.59.43-.39.31-.89.29-1.42l-.08-1.52c0-.41-.71-.46-1-.45l-7.84.22c-.45,0-1.14.34-1.2.84s.59.65,1,.64L99,19.8l-1-.45.06,1,0,.49c0,.06,0,.43,0,.37l.32-.35-.09.07.53-.24a12,12,0,0,1-1.74.09c-.6,0-1.2,0-1.8-.05a24.8,24.8,0,0,0-3.95.11l1,.45-.42-2.5c-.09-.51-.91-.5-1.27-.4s-1,.46-.9,1Z"/><path class="cls-3" d="M89.93,24.89a7.26,7.26,0,0,0,.16,1.92c0,.12.3.13.37.13q4.23-.17,8.46,0a2.93,2.93,0,0,0,1.2-.25c.16-.07.61-.22.59-.46a8.14,8.14,0,0,1,.13-2.09c0-.21-.2-.23-.36-.22l-8.89.15a3.13,3.13,0,0,0-1.53.41c-.33.2-.33.44.11.43l8.89-.15-.36-.22a8.63,8.63,0,0,0-.16,2.27l1.8-.71q-4.23-.18-8.46,0l.38.13a7.3,7.3,0,0,1-.16-1.92c0-.26-2.15,0-2.17.58Z"/><path class="cls-3" d="M89.11,13.67l.32,2.45c0,.35.58.43.83.43a1.58,1.58,0,0,0,1.15-.45l0,0-.53.24c-.16,0,.19,0,.24,0h.53l1.06,0,2,0,4.17,0c.42,0,1.16-.34,1.21-.82a16.38,16.38,0,0,0,.07-2.1.66.66,0,0,0-.7-.62l-8.54-.11a1.59,1.59,0,0,0-1.43.64c-.23.45.21.8.64.81l8.54.11-.7-.62a16.38,16.38,0,0,1-.07,2.1l1.21-.83-4.78.06-2.31,0a3,3,0,0,0-2.42.66l2,0-.32-2.45c-.06-.51-.93-.46-1.26-.37s-1,.44-.91.95Z"/></svg>