<svg id="レイヤー_1" data-name="レイヤー 1" xmlns="http://www.w3.org/2000/svg" viewBox="0 0 265.56 137.66"><defs><style>.cls-1{fill:#f0908a;}.cls-2{fill:#f6beba;}.cls-3{fill:#21110d;}</style></defs><path class="cls-1" d="M16.88,92.94S16,98,0,99.22v-4.4c2.08,0,4.08,0,5.92-.16,0-.56,0-1.44,0-2.84H.84v-2H6c0-.8,0-1.72,0-2.72H5a2.28,2.28,0,0,0,0,.52H1.16c-.4-9.2-.52-11.2-.52-11.2H5.28v.6h.88V75h-6V73H6.2V71.94H9.64a9.75,9.75,0,0,0,0,1.08h3l1.6-1.6,1.6,1.6v2H9.72c0,.72,0,1.4,0,2.08h1.32v-.6h3.84c.4,9.2.52,11.2.52,11.2H10.8v-.52H10c0,1,.08,1.92.08,2.72h2.24l1.6-1.6,1.56,1.6v2H10.08c0,1,0,1.8.08,2.36A56.27,56.27,0,0,0,16.88,92.94ZM.84,69.51A26,26,0,0,0,12,64.87l2.52,3.6C4.48,74,.84,69.51.84,69.51ZM6,85.14c0-.64,0-1.32,0-2.08h-1c0,.64,0,1.32,0,2.08ZM5.24,79c0,.56,0,1.24,0,2.08h.88c0-.68,0-1.36,0-2.08ZM9.8,79c0,.72,0,1.4,0,2.08H11c0-.64,0-1.32,0-2.08Zm1,6.12c0-.56,0-1.24.08-2.08h-1c0,.76,0,1.44,0,2.08Zm13.64-8.76h5s0,6.92-.29,20.08c-3.63.56-6.71.72-6.71.72v-5.6s.84,0,2.32.08c-.16-5.72-.28-10.2-.32-12.76H23.44C22.16,97.5,16,99.14,16,99.14s1.8-6.56,2.32-20.24H16.68v-2h1.76c0-1.76,0-3.56,0-5.52h5.2q0,2.94-.12,5.52h.92Z"/><path class="cls-1" d="M63.64,76.9c.44,13.32.56,22.4.56,22.4H59.52s0-1.16,0-3.44H41.76c0,1.12,0,2.24-.08,3.44h-3.8c-.44-13.32-.56-22.4-.56-22.4H42s0,5.84-.2,17H59.56c0-3.76.12-9.44.24-17ZM52.92,70.23c0,1.11,0,3,0,5.67h1.4v-.52h3.84c.44,9.52.56,16,.56,16H54v-.52H47.4v.52H43.56c-.44-9.52-.52-16-.52-16h4.64v.52H48.8c-.08-2.56-.12-4.52-.12-5.67H37.92v-2H60.6l1.6-1.6,1.6,1.6v2ZM49.12,88.9,49,84.38H47.56c0,1.36,0,2.88-.12,4.52ZM47.6,82.42H49c-.08-1.64-.08-3.16-.12-4.56H47.68C47.64,79,47.64,80.54,47.6,82.42Zm6.48,2H52.76c0,1.4,0,2.92-.08,4.52H54C54,87.78,54,86.26,54.08,84.38Zm-1.24-6.52c0,1.36,0,2.88,0,4.56h1.32l.12-4.56Z"/><path class="cls-1" d="M96.6,96.46c-1.16-.56-2.24-1.16-3.28-1.72A14.4,14.4,0,0,1,86,96.46c-3.44,0-5.56-1-6.68-2.56a5.18,5.18,0,0,1-.52-5,8,8,0,0,1,3.44-4.08,9.91,9.91,0,0,1-1.52-7.48c.76-3.08,3.52-5,6.92-5,5.28,0,7.64,2.4,7.64,7.44,0,2.32-2,4.76-5.56,5.88a30.16,30.16,0,0,0,3.2,2,22.56,22.56,0,0,0,1.88-2.32l4.36,3.08c-.4.64-.76,1.24-1.16,1.8l1.32.6Zm-8.88-5.52a25,25,0,0,1-3.88-3.76c-2.12,1.4-1.36,3.92,2.52,3.92A7.88,7.88,0,0,0,87.72,90.94Zm-1-7.68C91.4,82,91.36,78,87.6,78,85.44,78,83.76,80,86.76,83.26Z"/><path class="cls-1" d="M124.36,86.5a24.21,24.21,0,0,1,7.12,3.68l-4,4a51.49,51.49,0,0,0-9.84-7.52,8.34,8.34,0,0,1,5.24-.44,22.67,22.67,0,0,0,4.36-8.44c-8.2.28-11.76.36-11.76.36V74s5.16,0,18,.28C132.48,82.46,127.36,85.46,124.36,86.5Z"/><path class="cls-1" d="M166.4,94.58c-10.8.56-19.84.72-19.84.72V89.7s8,0,19.84.36ZM165.2,75v5.6s-6.64-.16-17.44-.72V75.38C159.6,75,165.2,75,165.2,75Z"/><path class="cls-1" d="M190.36,90.34c0-3.4.16-6.68.24-9l-8.76.32V78.26s2.88,0,13.56.24c0,0-.28,5.72-.88,11.92.92,0,1.92.08,2.92.08v3.8c-9.76.48-17.92.6-17.92.6V90.22S183.68,90.22,190.36,90.34Z"/><path class="cls-1" d="M210.72,74.42s8.36,0,21.12.28c0,9.48-8.6,10.32-8.6,10.32s2.08-1.8,2.76-6.88c-9.2.28-15.28.36-15.28.36Zm1.68,22s4.72-3.76,4.72-14.72h5.6C222.72,95.54,212.4,96.46,212.4,96.46Z"/><path class="cls-1" d="M244.2,78.74h5.6c0,17.72-8.8,17.72-8.8,17.72S244.2,92.54,244.2,78.74Zm13.48,12.08a17.57,17.57,0,0,0,7.88-3.92s-.32,8.28-8,9.56H253c-.56-10.8-.72-23.52-.72-23.52h5.6S257.92,81.18,257.68,90.82Z"/><path class="cls-1" d="M90.18,124.66c-.32-4.32-4.52-7.12-9.92-4.72-4.08,1.84-4.56,8.32-1.84,8.64,2,.24,3.8-2.92,4.48-8l5.08.64c-.92,7.16-4.88,12-8.52,12-3.92,0-6.36-3.52-6.36-7.4a12,12,0,0,1,10.48-12c8-1,12.92,5.8,12,12.24-.92,6.08-5,9.2-12.2,8.4C87,133,90.58,129.82,90.18,124.66Z"/><path class="cls-1" d="M104.06,124.74s1.36,2.56,6.32,2.56c10.52,0,12.84-1.48,12.84-1.48l.44,5.6s-2,1.48-13.28,1.48C102,132.9,104.06,124.74,104.06,124.74Zm16.68-7.4a97.66,97.66,0,0,0-14.12-.88v-4.4a111.81,111.81,0,0,1,14.88.88Zm1.64-1.88,1.84-2.08a4.25,4.25,0,0,1,1,1.36l1.72-2a3.4,3.4,0,0,1,.52,5,8.85,8.85,0,0,0-2.08-2.64,3.53,3.53,0,0,1-.68,3.24A9.26,9.26,0,0,0,122.38,115.46Z"/><path class="cls-1" d="M150.54,127.78c0,2.28-.12,5.36-.24,9.28h-4.64c-.12-2.24-.2-4.32-.28-6.16a16.13,16.13,0,0,1-11.16,5.24,29.14,29.14,0,0,0,7.68-8.36h-7.28v-2h10.6c0-.64,0-1.12-.08-1.56a13.71,13.71,0,0,1-2.72.36,17.45,17.45,0,0,0,4.24-3.76h-2.28v.52h-4.64c-.16-2.16-.24-4.08-.32-5.72h-4.8v-2h4.68c0-.76,0-1.44-.08-2h-3.84c-.4-4.47-.52-5.43-.52-5.43h5v.56h6l-.36-2.36h5.08s0,.28-.16,2.36h5.92v-.56h4.24c.44,4.47.56,5.43.56,5.43h-5.08s0-.32.16-2.91H139.78c0,.4,0,.79,0,1.31h4.92s0,1.2-.08,3.56h13.36l1.6-1.6,1.56,1.6v2h-5.92a12,12,0,0,1-1.44,3.24h1.36l1.6-1.6,1.6,1.6v2h-6.2a11.65,11.65,0,0,1-3.6,2.36h2.08v2.6h7.36l1.6-1.6,1.56,1.6v2ZM148,118.9a13.35,13.35,0,0,0,1.48-3.24h-5c0,1,0,2-.08,3.24Zm13.84,13.24-2.72,4c-7.72-3.32-7.68-8.16-7.68-8.16A38.49,38.49,0,0,0,161.86,132.14Z"/><path class="cls-1" d="M185.54,104.55a46.58,46.58,0,0,1-.28,5.47h5.36v-.6h4.23c.41,16.44.53,27.68.53,27.68-3.84.44-7,.56-7,.56v-4.4s.64,0,2,0c0-1.84,0-4.4.08-7.6l-4.16,1.8a43,43,0,0,0-3.4-8.2c-2.68,6-6.64,8-8.44,8.68l-.12,9.12h-4.24c-.44-16.44-.56-27.68-.56-27.68h5.08v.6h5.16c.12-1.67.2-3.51.2-5.47Zm-6,7.43h-5c0,2.8,0,7.92-.16,15.2C175.86,125.34,178.54,120.82,179.54,112Zm5.44,0a27.48,27.48,0,0,1-1.4,5.56,15.52,15.52,0,0,1,6.84,5.8c0-3.24.08-7,.16-11.36Z"/><path class="cls-2" d="M88.39,4.45a23,23,0,0,1-7.93-.36l3-2.57A17,17,0,0,1,79.71,0c-.29-.14-4,3.64-4.49,4.06a3.41,3.41,0,0,0-1.47,3.07c.25,4.47.18,9,.81,13.46a.71.71,0,0,0,.16.43.7.7,0,0,0,.53.15c4.21,0,13.46-1.11,13.69-1Q88.33,12.33,88.39,4.45Zm-4.09,14H77.9V16.8h6.4Zm0-4H77.1V12.8h7.2Zm0-4.8H77.1V8h7.2Z"/><path class="cls-2" d="M199.82,16.43h0a27.51,27.51,0,0,1-5.2,5.73A9.43,9.43,0,0,0,197,23.79a.59.59,0,0,0,.31.09.74.74,0,0,0,.26-.1,23.33,23.33,0,0,0,6.36-5.2,15.44,15.44,0,0,0,3.5-7.37,3.74,3.74,0,0,0,.05-1.25c0-.09-2.55-.56-2.81-.62a1.58,1.58,0,0,0-1.56.2,3.89,3.89,0,0,0-.8,1.79,20.28,20.28,0,0,1-1,2.48A21.9,21.9,0,0,1,199.82,16.43Z"/><path class="cls-2" d="M191.07,13.79c1.21,0,2.42-.11,3.62-.21a.21.21,0,0,0,.17-.06c.06,0,.06-.12.06-.2.05-1.77.06-3.55,0-5.33h0c-.73,0-1.45,0-2.17,0a2.37,2.37,0,0,0-1.37.18,1.16,1.16,0,0,0-.45,1c0,.73,0,1.46,0,2.18Z"/><path class="cls-2" d="M172,9.44h0a33.54,33.54,0,0,1,2.8,3.27.35.35,0,0,1,.07.15.26.26,0,0,1-.09.18L172.49,16l4.53.25a3.65,3.65,0,0,0-1,1.42,4.72,4.72,0,0,0-.44,3.18,3.85,3.85,0,0,0,1,1.62,5.82,5.82,0,0,0,2,1.3,10,10,0,0,0,4.55.37.37.37,0,0,0,.3-.14.42.42,0,0,0,0-.25,4.71,4.71,0,0,1,.07-1.87,4.54,4.54,0,0,1-2-.91,3.42,3.42,0,0,1-1.52-1.82,3.15,3.15,0,0,1,.75-2.48A10.21,10.21,0,0,1,184,13.71a25.1,25.1,0,0,1-5-.64,49.67,49.67,0,0,0,4.08-4,.26.26,0,0,0,.07-.11c0-.08-.08-.14-.15-.19a5,5,0,0,1-1.81-1.91q-1.81,1.27-3.71,2.43a.48.48,0,0,1-.2.07.37.37,0,0,1-.22-.1c-.7-.54-1.54-2-2.49-2S172.64,8.76,172,9.44Z"/><path class="cls-2" d="M157.87,18.51h0l2.54.21c.65.05,1.44.2,1.65.82a1.12,1.12,0,0,1-.2,1,3,3,0,0,1-.75.71l-1.31,1s-.06.05-.07.08a.17.17,0,0,0,0,.14l.71,1.47a.36.36,0,0,0,.53.26,8.47,8.47,0,0,0,5.07-4.67,3.8,3.8,0,0,0,.37-2A3,3,0,0,0,164,15.14a6.72,6.72,0,0,0-2,.07,23.12,23.12,0,0,0-3.35.56c-.71.17-.81.15-.8.88S157.85,17.89,157.87,18.51Z"/><path class="cls-2" d="M141.62,22.44a36.14,36.14,0,0,0,10.49.39.71.71,0,0,0,.55-.22.84.84,0,0,0,.08-.27c.13-.85.27-1.71.4-2.57-2.2-.2-10.43-1.89-10.43-1.89S141.55,22.43,141.62,22.44Z"/><path class="cls-2" d="M144,7.2a35.71,35.71,0,0,1,5.67,1.54,9,9,0,0,1-1.55,2.49c.89.45,1.79.86,2.72,1.22q2.2-2.22,4.3-4.56h0c-2.42-1.15-4.76-2.42-7.1-3.7-.82-.45-1.53-.68-2.27,0C145.41,4.54,144.11,7.23,144,7.2Z"/><path class="cls-2" d="M96.05,11.53l.66,2.5a18.48,18.48,0,0,1,2.21-.47l0,1.92a.31.31,0,0,1,0,.23.34.34,0,0,1-.23.08,16.4,16.4,0,0,1-4.31-.15,15.12,15.12,0,0,1,0,2.69,30.69,30.69,0,0,0,4.38.37c.3.64.49,1.32.79,2a3.15,3.15,0,0,0,1.37,1.57,4,4,0,0,0,1.46.31c.89.07,1.78.09,2.67.08a5.54,5.54,0,0,0,1.9-.27.44.44,0,0,0,.25-.19.46.46,0,0,0,0-.26L107,20.09a5.83,5.83,0,0,1-2.85-.25,2.36,2.36,0,0,1-1.53-2.23q3.09-.2,6.19-.21l-.23-2.21a31.45,31.45,0,0,1-6.43-.25.89.89,0,0,1-.48-.16.91.91,0,0,1-.27-.37A6,6,0,0,1,101,13l2.29-1.2a.44.44,0,0,0,.18-.15h0c.16-.36-.82-1.72-1.13-2a1.49,1.49,0,0,0-1.46-.11c-.79.26-1.56.65-2.33,1A18.45,18.45,0,0,0,96.05,11.53Z"/><path class="cls-2" d="M98,5.63h0l-4.18.13a25.69,25.69,0,0,1,0,5l1.7.2a.47.47,0,0,0,.31,0A.46.46,0,0,0,96,10.6l.66-2A1.05,1.05,0,0,1,97,8a1,1,0,0,1,.48-.17,43.52,43.52,0,0,1,7.82-.55.51.51,0,0,1,.25.06.44.44,0,0,1,.15.3q.3,1.3.48,2.64a.41.41,0,0,0,.14.31.35.35,0,0,0,.25,0l2.22-.06a.68.68,0,0,0,.48-.15.67.67,0,0,0,.11-.4l.23-5.42-7.45.45-.49-3.29c0,.32-3.42.42-3.68.59C97.26,2.86,97.9,4.91,98,5.63Z"/><path class="cls-2" d="M47.43,44.31s-4-3.2-4.8-7.2c-1.08-5.4-2.36-9.66-2.88-15.15,3,.64,6.08.75,10.08,2.35,4.62,1.84,7,3.7,10.4,8.8,3.2,4.8,6,12.91,0,15.2A18.36,18.36,0,0,1,47.43,44.31Z"/><path class="cls-3" d="M61.6,50.78l-.7-2a.91.91,0,0,0-1-.49c-3.19.19-6.54.39-9.63-.58a10.53,10.53,0,0,1-6.64-6.29c-2.6-6.39-.84-13.55-3.08-20l-2.08.77c2.25,2.42,5.39,3.28,8.41,4.35a24,24,0,0,1,8.44,5,18.64,18.64,0,0,1,5.14,7.87c.9,2.87,1.42,7.25-1.34,9.3-1.18.88.58,1.62,1.44,1,2.8-2.09,3.13-5.77,2.54-9a18.41,18.41,0,0,0-4.47-8.79A24.79,24.79,0,0,0,50.54,26c-3.34-1.55-7.46-2-10.07-4.82-.53-.56-2.43-.22-2.09.77,2.43,7,.24,14.88,3.81,21.57,3.48,6.52,11,6.72,17.52,6.32l-1-.49.7,2c.33,1,2.5.38,2.17-.58Z"/><path class="cls-3" d="M44.56,30l9.74,14c.35.51,2.32-.36,2.17-.58l-9.73-14c-.36-.51-2.33.36-2.18.58Z"/><path class="cls-3" d="M51.86,32.18,51.17,39c-.05.48.6.52.94.47s1.19-.27,1.24-.74L54,31.9c0-.47-.6-.51-.93-.46s-1.19.27-1.24.74Z"/><path class="cls-3" d="M46,39.84a49,49,0,0,1,6.43,2.46,1.92,1.92,0,0,0,1.41-.09c.09,0,1-.5.63-.68A54.68,54.68,0,0,0,47.82,39a2.29,2.29,0,0,0-1.53.26c-.21.11-.72.48-.25.63Z"/><path class="cls-3" d="M44.23,34l3.45.52a1.71,1.71,0,0,0,.81,0,1.52,1.52,0,0,0,.72-.38c.12-.12.28-.32.21-.51a.53.53,0,0,0-.43-.33l-3.45-.52a1.75,1.75,0,0,0-.82,0,1.52,1.52,0,0,0-.72.38c-.12.12-.27.32-.21.51a.54.54,0,0,0,.44.33Z"/><path class="cls-2" d="M218.43,46.31s4-3.2,4.8-7.2c1.08-5.4,2.37-9.66,2.89-15.15-3,.64-6.09.75-10.09,2.35-4.61,1.84-7,3.7-10.4,8.8-3.2,4.8-6,12.91,0,15.2A18.36,18.36,0,0,0,218.43,46.31Z"/><path class="cls-3" d="M206.43,52.88l.7-2-1.78.64c6.4.39,14.12.23,18-5.86,4.17-6.65,1.7-15,4.17-22.18.2-.57-1.84,0-2.06.26-2.54,2.73-6.48,3.23-9.75,4.68a25.08,25.08,0,0,0-8.18,5.79,18.42,18.42,0,0,0-4.6,8.45c-.67,3-.62,6.87,2.12,8.91.49.36,2.38-.5,2-.75-2.84-2.12-2.66-6.32-1.8-9.39a18.52,18.52,0,0,1,5-8.15A23,23,0,0,1,218.73,28c3.07-1.09,6.36-2,8.65-4.44l-2.06.26c-2.18,6.31-.58,13.23-2.88,19.5A10.52,10.52,0,0,1,216.38,50c-3,1.09-6.46.82-9.62.63-.43,0-1.6.14-1.78.64l-.7,2c-.15.43,1.95.19,2.15-.38Z"/><path class="cls-3" d="M219.19,31.67l-9.73,14c-.31.44.26.73.62.77a1.62,1.62,0,0,0,1.43-.63l9.73-14c.31-.44-.26-.73-.62-.77a1.62,1.62,0,0,0-1.43.63Z"/><path class="cls-3" d="M211.83,34.33l.69,6.87c0,.18.29.3.43.34a1.63,1.63,0,0,0,.82,0c.4-.11,1-.38.93-.89L214,33.75c0-.19-.29-.3-.43-.34a1.75,1.75,0,0,0-.82,0c-.4.12-1,.39-.93.89Z"/><path class="cls-3" d="M218.82,40.94A54,54,0,0,0,212,43.56c-.22.1-.93.42-.61.76s1.12.09,1.42,0q1.58-.72,3.18-1.35c1.09-.42,2.09-.76,3.1-1.08.27-.08,1.06-.32,1-.74s-1-.23-1.2-.16Z"/><path class="cls-3" d="M221.2,35l-3.45.52a3,3,0,0,0-.83.26c-.12.05-.39.17-.45.31-.15.35.78.19.86.18l3.45-.52a3.08,3.08,0,0,0,.83-.26c.11,0,.39-.17.45-.31.15-.35-.78-.19-.86-.18Z"/><path class="cls-3" d="M109.89,4.56c0-.1-.27-.1-.3-.1-2.74.1-5.46.33-8.18.68,0-1.14,0-2.28,0-3.42,0-.5-.65-.47-1-.38l-4,1c-.27.07-.84.33-.74.71l0,0a6.34,6.34,0,0,0,.17,1.37c.08.38.2.76.25,1.15,0,0,0,.07,0,.11-.51.06-1,.14-1.52.21l-1.31.2-.2,0-.24,0a2.33,2.33,0,0,0-.36.08c-1,.26-.92.75-1,1.65,0,.61-.07,1.21-.1,1.82,0,.34,0,.67,0,1a2.55,2.55,0,0,1-.06.83c-.06.1.07.13.13.15a12.2,12.2,0,0,0,2.77.05c.35,0,1.36-.13,1.44-.55l.48-2.41h0l2-.26c1.54-.17,3.08-.34,4.62-.47a6.93,6.93,0,0,1,1.29-.07,1.18,1.18,0,0,0,.08.31,14.56,14.56,0,0,1,.23,1.45c.05.41,0,1.54.35,1.78a3.23,3.23,0,0,0,1.55.06c.47,0,.93-.15,1.4-.22,1-.14,2.19-.25,2.24-1.47C110,8.17,109.9,6.36,109.89,4.56ZM96.7,5.41a.31.31,0,0,0-.1,0c.05,0,.09-.06.05,0ZM95.49,8.94h0Zm8.63-.89s0,0,0,0Zm2.79,3c-.48,0-.51.06-.62-.3a7.13,7.13,0,0,1-.17-1.38,5,5,0,0,0-.29-1.69c-.2-.34-.57-.27-1-.25-1.65.06-3.3.26-4.94.44-1.42.16-2.86.28-4.26.55-.64.12-1.16.24-1.29.9s-.26,1.28-.38,1.91a5,5,0,0,1-1-.06,4.39,4.39,0,0,0,0-.95c0-.56.06-1.12.09-1.69a9,9,0,0,1,.08-1.83l.55-.09a21.33,21.33,0,0,1,2.39-.28.8.8,0,0,0,.75.33,1.49,1.49,0,0,0,.75-.3.59.59,0,0,0,.18-.83v0a5.47,5.47,0,0,0-.13-.81,8.93,8.93,0,0,1-.28-1.44.49.49,0,0,1,0-.12l2.21-.57v2.6l-.2.11c-.26.18-.49.52-.13.74a1.75,1.75,0,0,0,1.56,0,1.23,1.23,0,0,0,.44-.31q3.4-.42,6.82-.55c0,1.76.14,3.56,0,5.31,0,0,0,.27-.06.42l-.44.08A6.76,6.76,0,0,1,106.91,11Z"/><path class="cls-3" d="M107.52,15.51c-.32-.35-1-.23-1.37-.22l-4.45,0V14a4.22,4.22,0,0,0,1.5-1,.45.45,0,0,0,.09-.58l-1.75-2.58a.51.51,0,0,0-.25-.18.63.63,0,0,0-.24-.18,1.32,1.32,0,0,0-1.23.33,15.65,15.65,0,0,1-2.77,1.71c-.72.41-1.45.8-2.19,1.19-.25.13-.56.35-.5.68.14.73.27,1.47.41,2.2.07.39.74.38,1,.3l.91-.29c0,.39,0,.78,0,1.18-1.18.1-2.35.23-3.52.36-.37,0-.89.24-1,.66a6.83,6.83,0,0,0-.3,1.72c0,.49.56.55,1,.63a29.67,29.67,0,0,0,3.86.56c.12,1.82.85,3.32,2.79,3.85,2.17.61,4.27-.27,6.44-.42.32,0,.94-.25,1-.65.07-1,.14-2.56-1.09-2.8a10.7,10.7,0,0,0-1.86.16c-.4,0-1.55-.16-1.71-.42a3,3,0,0,1,0-.87.31.31,0,0,1,0-.08l.38,0,4.64-.29c.41,0,1-.31,1-.8a11,11,0,0,0-.5-2.28A1.67,1.67,0,0,0,107.52,15.51Zm-5.36,2.9c-1.21.07-1.64.63-1.64,1.79a1.67,1.67,0,0,0,.23,1.05,3.28,3.28,0,0,0,1.71.69,6.08,6.08,0,0,0,2.25,0c.41-.08.35-.09.45.36a4,4,0,0,1,.07.85,13.51,13.51,0,0,1-4.22.46c-1.85-.29-2.49-1.76-2.51-3.47,0-.32-.26-.47-.56-.49a30.82,30.82,0,0,1-3.69-.49l-.49-.1a3.05,3.05,0,0,0,.17-.84c1.19-.13,2.39-.26,3.59-.36.32,0,1-.25,1-.65a18,18,0,0,0-.11-2.65c0-.4-.77-.37-1-.3l-1,.31c-.08-.41-.15-.83-.23-1.24l1.9-1c.72-.4,1.47-.8,2.17-1.27l1.21,1.81a2.23,2.23,0,0,1-.76.32c-.24,0-.74.3-.74.61V16a.52.52,0,0,0,.56.49c1.42,0,2.85,0,4.27,0H106c0,.15.1.29.14.44.11.41.21.83.29,1.25Z"/><path class="cls-3" d="M124.79,19.69a1.44,1.44,0,0,0-1.29.87s0,0,0,0h0a2,2,0,0,1-.9-1.55,6.11,6.11,0,0,1,1.27-4.45c.46-.62-.59-.88-1-.84l-6.44.69c-.47,0-1.21.32-1.29.87s.64.68,1,.64l4.84-.52a6,6,0,0,0-.45,5.25,2.66,2.66,0,0,0,2.62,1.47,2.78,2.78,0,0,0,2.64-1.78C126,19.79,125.14,19.66,124.79,19.69Zm-1.36,1,0,0S123.45,20.68,123.43,20.68Z"/><path class="cls-3" d="M126.65,7.43a2.46,2.46,0,0,0-.85.11,2.5,2.5,0,0,0-.79.33c-.09.07-.32.22-.26.37a17.55,17.55,0,0,1,1,3.85c0,.15.33.17.41.18a2.68,2.68,0,0,0,.85-.1,2.52,2.52,0,0,0,.79-.34c.12-.08.29-.2.27-.36a18.13,18.13,0,0,0-1-3.85C127,7.47,126.78,7.44,126.65,7.43Z"/><path class="cls-3" d="M132.12,11a11.1,11.1,0,0,1-1.19-4.41c0-.17-.33-.25-.43-.26a1.93,1.93,0,0,0-.86.07c-.36.1-1,.33-1,.81a11.1,11.1,0,0,0,1.19,4.41c.21.42.93.3,1.3.2a2.08,2.08,0,0,0,.78-.37C132,11.31,132.2,11.11,132.12,11Z"/><path class="cls-3" d="M154.07,8.56a63.22,63.22,0,0,0-10.21-4.25,1.69,1.69,0,0,0-1.22.2c-.18.09-.58.41-.19.53l.33.11a.76.76,0,0,0-.3.29,10.33,10.33,0,0,1-1.8,2.68c-.2.23,0,.33.24.36l6.21,1.14c-.43.34-.85.69-1.27,1l-.9.73c-.15.13-.39.28-.44.48-.14.49.73.74,1.07.89a9.41,9.41,0,0,0,1.87.65,2.8,2.8,0,0,0,1.89-.14A5.93,5.93,0,0,0,150.83,12l3.22-3.17C154.11,8.78,154.18,8.62,154.07,8.56Zm-3.92,2.62-1,1-.46.48-.13,0a9.85,9.85,0,0,1-1.29-.45,7,7,0,0,1-.74-.34c-.27-.15-.33-.1-.14-.36a7.86,7.86,0,0,1,1.26-1l1.26-1c.27-.22.23-.4-.12-.46l-6.3-1.15A11.33,11.33,0,0,0,144,5.57a62.66,62.66,0,0,1,8.27,3.53Z"/><path class="cls-3" d="M151.69,20.2c-3.35-.38-7-.92-9.58-3.33l0-.16c.21-.71-1.39-.53-1.7.09-.23.16-.32.36-.19.56-.25.88-.51,1.76-.77,2.64a28.28,28.28,0,0,0-.82,2.86c-.17.94.49,1.34,1.32,1.48a27,27,0,0,0,3,.27,35.9,35.9,0,0,0,6.13-.25c.79-.09,2.1-.06,2.6-.79a3.26,3.26,0,0,0,.32-1.34c.07-.51.15-1,.22-1.53C152.3,20.37,152,20.23,151.69,20.2Zm-3.07,3.09c-.72.08-1.44.13-2.16.16a33,33,0,0,1-4.33-.1l-1-.1c-.18,0-.54,0-.67-.16s.1-.81.16-1l.29-1,.73-2.53c2.54,1.8,5.74,2.38,8.82,2.75,0,.3-.09.6-.13.89s-.05.63-.12.94l-.55.06Z"/><path class="cls-3" d="M165.8,17.22A2.8,2.8,0,0,0,164,15.9a9.38,9.38,0,0,0-2.41-.49,9.92,9.92,0,0,0-5.49,1.22c-.27.15-.48.49-.15.69,0,0,.06,0,.09,0a.53.53,0,0,0-.25.41c0,.75,0,1.49,0,2.23,0,.14.25.23.34.25a7.5,7.5,0,0,0,2.36-.15,1.16,1.16,0,0,1,1.16.38c.67,1-1,2.22-1.86,2.47-.3.09-.94.36-.69.78l.72,1.18c.2.34.36.73.78.85.9.26,1.83-.48,2.56-.93a12,12,0,0,0,3.7-3.21,6.22,6.22,0,0,0,1-2.14A3.83,3.83,0,0,0,165.8,17.22Zm-3.21,5.17a11,11,0,0,1-1.72,1.41l-.91.58-.3.19,0-.06-.27-.44-.37-.62a5.52,5.52,0,0,0,1.46-.94,2.58,2.58,0,0,0,1.07-2.19A1.72,1.72,0,0,0,160,19.11a4.29,4.29,0,0,0-1.29,0,10.25,10.25,0,0,1-1.11.17c0-.66,0-1.33,0-2,0-.11-.08-.17-.18-.21a6.79,6.79,0,0,1,3.71-.68,7.56,7.56,0,0,1,2,.52,1.64,1.64,0,0,1,1.13,1.62A5.38,5.38,0,0,1,162.59,22.39Z"/><path class="cls-3" d="M194,8.44a6.94,6.94,0,0,0-1.76.09l-2,.17a1.69,1.69,0,0,0-1.16.45c-.24.3.21.42.44.4l.38,0c-.27.1-.49.23-.54.4a11,11,0,0,0-.07,5.41c.05.19.37.2.51.19l2-.12a5.21,5.21,0,0,0,2.08-.35,1.09,1.09,0,0,0,.61-.65,3.52,3.52,0,0,0,0-.86c0-.62,0-1.24,0-1.85s0-1.24,0-1.86S194.66,8.57,194,8.44Zm-3,6.2a10.53,10.53,0,0,1,.1-5c0-.11-.05-.19-.18-.23l1.7-.15h.15a1.28,1.28,0,0,0,0,.17,6.06,6.06,0,0,1,0,.74c0,.51,0,1,0,1.54,0,.94,0,1.88-.07,2.82l-.62,0Z"/><path class="cls-3" d="M204.69,11.4a11.12,11.12,0,0,0-1.46-.85l-1.71-1a1.48,1.48,0,0,0-1.13.07c-.08,0-.63.3-.57.47a.38.38,0,0,0-.17.22c-.94,5.07-4.62,8.92-8.11,12.47-.07.07-.12.18,0,.26l1.68,1.31a10.1,10.1,0,0,0,1.4,1.06,2.24,2.24,0,0,0,2.31-.54A37.44,37.44,0,0,0,202,19.81a14.49,14.49,0,0,0,2.94-5.94C205.08,13.09,205.41,12,204.69,11.4Zm-2.77,6.18a18.58,18.58,0,0,1-2.95,4c-.56.6-1.14,1.16-1.73,1.72l-.9.83-.41.36-.13.1c-.39-.27-.77-.64-1.08-.88l-1.44-1.11c3.28-3.34,6.72-7,7.89-11.63l.92.52c.63.36,1.31.57,1.29,1.39A10.85,10.85,0,0,1,201.92,17.58Z"/><path class="cls-3" d="M181,15.84a19.47,19.47,0,0,1,2.31-1.75c.27-.17.24-.34-.1-.36L178,13.38a37.34,37.34,0,0,1,4.42-4.2c.09-.07.11-.14,0-.22-.86-1-1.95-2.54-3.38-2.2a3.86,3.86,0,0,0-1.66,1l-1.22,1a17.77,17.77,0,0,1-2.71-1.85c-.18-.16-.71,0-1.12.14a1.84,1.84,0,0,0-.92.32c-.6.67-1.19,1.34-1.79,2-.08.09-.12.14,0,.23,1.11,1.17,2.27,2.28,3.48,3.35q-1.91,1.79-3.72,3.66c-.2.2,0,.26.22.27a21.93,21.93,0,0,0,4.86-.14c-1.3,1.78-2.25,4.4-.41,6.18a6.91,6.91,0,0,0,3.72,1.31,18,18,0,0,0,4.34.11c.28,0,1.24-.17,1.25-.57,0-.9,0-1.79.07-2.69,0-.1-.27-.11-.31-.11-1.37-.1-5-1.05-3.95-3.08A8.2,8.2,0,0,1,181,15.84Zm.66,5.78c0,.7,0,1.4,0,2.09a14.32,14.32,0,0,1-2.92-.23,5.05,5.05,0,0,1-3.24-1.4c-1.5-1.88-.38-4.32.91-5.95.19-.24-.7-.15-.7-.15a19.29,19.29,0,0,1-4.49.23c1.18-1.21,2.37-2.4,3.6-3.55.08-.07.12-.14,0-.22q-1.83-1.59-3.49-3.35l1.06-1.19a16.71,16.71,0,0,0,2.85,1.84,1.86,1.86,0,0,0,1.61-.36c.68-.58,1.35-1.17,2-1.74.29.24.56.54.79.75s.69.69,1,1a37.66,37.66,0,0,0-4.51,4.33c-.18.21,0,.27.21.28l5.12.33a21,21,0,0,0-2.19,1.7c-.75.68-1.86,1.58-2.09,2.62C176.81,20.66,180.08,21.45,181.67,21.62Z"/><path class="cls-3" d="M141.34,47.16a16.36,16.36,0,0,1-3.21-.07,2,2,0,0,1-1.53-1.61,2.89,2.89,0,0,1,.9-2.1l.59.3a1.05,1.05,0,0,0,.58,0,4.14,4.14,0,0,0,.91-.21c.09,0,1-.44.7-.61l-1.48-.75a11.24,11.24,0,0,1,1.35-.89c.3-.17.7-.62.22-.84a2,2,0,0,0-1.64.23,12.19,12.19,0,0,0-1.28.83,7.06,7.06,0,0,1-.67-.35c-.12-.07-.13-.12-.12-.27s.05-.31.07-.47l.08-.52a21,21,0,0,0,2-.51,1.59,1.59,0,0,0,.76-.44.72.72,0,0,0,.2-.62c-.18-.52-.91-.58-1.36-.44s-.79.23-1.19.33l-.21,0,.11-.75c0-.28-1.14,0-1.25,0-.3.08-1,.24-1.07.62l-.07.49-1,.08a1.76,1.76,0,0,0-.88.31,1,1,0,0,0-.41.59c0,.59.6.73,1.06.71.31,0,.63,0,.94-.07l-.12.8c0,.3-.18.65.11.85a7.51,7.51,0,0,0,.85.43l.69.35-.37.36a4.09,4.09,0,0,0-1.41,3.09,2.71,2.71,0,0,0,2.1,2.1,17.53,17.53,0,0,0,4,.2,2,2,0,0,0,1.54-.62C142.27,47.32,141.67,47.18,141.34,47.16Z"/><path class="cls-3" d="M91.61,36.54c.1-.57-.63-.85-1.08-.81l-4.45.48c-.52,0-1.22.36-1.27,1a.48.48,0,0,0,0,.24s0,.05,0,.08q-.43,5.13-1.37,10.18a.64.64,0,0,0-.09.21l0,.47c-.07,1,2.17.53,2.32-.27.24-1.26.45-2.52.64-3.78.45,0,.89,0,1.33,0l.52,0h.35l.85.06c0,.43.08.85.11,1.27,0,.26,0,.52.06.79-.78-.49-2.45.33-1.88,1.28s2.13,2.26,3.46,1.6a1.5,1.5,0,0,0,.85-1.56c0-.76-.07-1.52-.13-2.28C91.55,42.5,91.13,39.51,91.61,36.54Zm-4.55,1.31,2.09-.22A20.61,20.61,0,0,0,89,40l-2.21.19C86.92,39.4,87,38.63,87.06,37.85Zm-.61,5.31c.1-.71.19-1.42.27-2.14l2.34-.19c0,.61.06,1.23.11,1.85,0,.16,0,.33,0,.49C88.29,43.13,87.37,43.12,86.45,43.16Z"/><path class="cls-3" d="M105.14,37,105,43.33c0,1,0,2.08,0,3.12L105,48a4,4,0,0,1,0,1h-.16c-.36,0-.72,0-1.08,0-.77,0-1.54,0-2.31,0a30,30,0,0,1-4.42-.62,56.53,56.53,0,0,1-.48-11.91c0-.3-2.27-.06-2.31.62a55.49,55.49,0,0,0,.49,12,.24.24,0,0,0,.2.13,31,31,0,0,0,6.22.74c1.06,0,2.12,0,3.17-.1.88-.08,2.32-.18,2.86-1a1.94,1.94,0,0,0,.17-1l0-1.62.06-3.25q0-3.32.11-6.63C107.47,36,105.15,36.3,105.14,37Z"/><path class="cls-3" d="M100.2,40.59c-.12-.1-.24-.18-.35-.28a1.09,1.09,0,0,0-.59-.07,3.47,3.47,0,0,0-.9.21c-.16.06-1,.39-.69.65a18,18,0,0,0,1.48,1.12q-1,1.53-1.8,3.15c-.24.47.22.77.66.79a1.73,1.73,0,0,0,1.52-.67c.4-.76.82-1.51,1.26-2.24.42.23.85.46,1.29.66a1.94,1.94,0,0,0,1.34-.09,2.13,2.13,0,0,0,.64-.27c.1-.07.31-.19.27-.34l-.09-.35c0-.14-.31-.15-.41-.16l-.36,0c-.59-.31-1.18-.65-1.74-1,.64-1,1.3-2,2-2.91.34-.45-.29-.77-.66-.79a1.79,1.79,0,0,0-1.52.66C101.09,39.29,100.64,39.94,100.2,40.59Z"/><path class="cls-3" d="M96.92,34.52c.17.44,1,.31,1.3.21a2.08,2.08,0,0,0,.78-.37c.11-.1.31-.29.24-.46L98,30.64c-.17-.43-1-.31-1.29-.21a1.9,1.9,0,0,0-.78.38c-.12.1-.31.28-.24.46C96.06,32.35,96.49,33.43,96.92,34.52Z"/><path class="cls-3" d="M100.56,34.15a2.77,2.77,0,0,0,.85-.12,2.58,2.58,0,0,0,.79-.32c.09-.06.32-.19.27-.33a23.11,23.11,0,0,0-1.11-2.62c-.07-.14-.28-.15-.4-.15a3,3,0,0,0-.85.12,2.73,2.73,0,0,0-.79.32c-.08.05-.34.2-.28.33A23.18,23.18,0,0,1,100.16,34C100.2,34.14,100.46,34.15,100.56,34.15Z"/><path class="cls-3" d="M104,34.31a3.36,3.36,0,0,0,.9-.2,1.62,1.62,0,0,0,.65-.37,8.31,8.31,0,0,0,1.59-3.22c.1-.42-.73-.3-.94-.26a3,3,0,0,0-.88.27c-.15.08-.43.2-.47.38a8.2,8.2,0,0,1-1.32,2.86l-.09.12c-.08.1-.17.22,0,.33A1,1,0,0,0,104,34.31Z"/><path class="cls-3" d="M150.85,38.14a.91.91,0,0,0-.6-.12,2.42,2.42,0,0,0-1.55.58l-2,1.9a.26.26,0,0,0,0,.38,1,1,0,0,0,.61.12,2.47,2.47,0,0,0,1.54-.58l2-1.9A.26.26,0,0,0,150.85,38.14Z"/><path class="cls-3" d="M160.93,40.06a17.79,17.79,0,0,1-2-2.18c-.11-.14-.47-.15-.61-.15a2.55,2.55,0,0,0-.91.19,1.41,1.41,0,0,0-.63.41l-.09.14a.23.23,0,0,0,.07.26,18.64,18.64,0,0,0,2,2.19.93.93,0,0,0,.61.15,2.78,2.78,0,0,0,.9-.19,1.54,1.54,0,0,0,.64-.41C161,40.34,161.06,40.19,160.93,40.06Z"/><path class="cls-3" d="M155.79,46a13.14,13.14,0,0,0,1.89-2.88c.24-.49-.2-.79-.67-.82l-1.15,0h0c.39-.12,1.08-.43,1-1a18.91,18.91,0,0,1-.25-4.75H157a1.52,1.52,0,0,0,.72.06l.34-.07c.42-.08,1.1-.23,1.28-.69s-.32-.57-.66-.58l-4.44-.07c-.24-1.4-.47-2.81-.71-4.22,0-.21-.29-.35-.47-.41a1.75,1.75,0,0,0-.88,0c-.44.14-1.06.47-1,1,.21,1.2.41,2.4.61,3.6h-3a1.93,1.93,0,0,0-1.53.63c-.28.45.24.67.62.66h3a40.19,40.19,0,0,1-.11,5c0,.15.36.19.42.19a2.45,2.45,0,0,0,.85-.1c.33-.1,1-.28,1.05-.71a41.66,41.66,0,0,0,.12-4.33h.06l.19-.06h.77a20,20,0,0,0,.23,5.4c0,.14.15.23.29.29l-1.92,0-.13-.1A1.45,1.45,0,0,0,152,42a2.14,2.14,0,0,0-.88.3.9.9,0,0,0-.43.49,3.49,3.49,0,0,1-.2.57,3.56,3.56,0,0,1-.4.61q-.18.18-.36.33l-.06,0a1,1,0,0,0-.44.5.4.4,0,0,0,.24.42,1.45,1.45,0,0,0,.77.08,2.1,2.1,0,0,0,.87-.3,3.46,3.46,0,0,0,.31-.22,21,21,0,0,0,1.63,1.5q-.35.34-.72.66a.65.65,0,0,1-.09.08l-.18.15-.42.31c-.29.2-.58.4-.88.58l-.21.12,0,0,0,0-.52.26c-.35.17-.93.62-.58,1.06s1.14.29,1.55.09a14.86,14.86,0,0,0,3.47-2.33,20.37,20.37,0,0,0,4,2.12,2.2,2.2,0,0,0,1.49-.14c.09,0,1.06-.5.7-.65A19.89,19.89,0,0,1,155.79,46Zm-.71-2.25a11.12,11.12,0,0,1-.65,1l0,0c-.39-.35-.76-.72-1.12-1.11h.86Z"/><path class="cls-3" d="M168.59,37.68a1,1,0,0,0,.62.19,2.18,2.18,0,0,0,.91-.18,1.28,1.28,0,0,0,.62-.45c.09-.13.16-.34,0-.46l-2.9-2.45a1,1,0,0,0-.62-.2,2.21,2.21,0,0,0-.91.18,1.33,1.33,0,0,0-.62.45.35.35,0,0,0,0,.47Z"/><path class="cls-3" d="M174.6,46.61a3.06,3.06,0,0,0-1.64.44l-.13.08h-.11a2.2,2.2,0,0,1-1-.33A3,3,0,0,1,170.34,45c-.14-.5-.5-.57-1-.53a4,4,0,0,0-1.52.47c.87-1.65,1.77-3.28,2.74-4.88.18-.29-.56-.26-.64-.25-1.45.2-2.89.47-4.32.8-.23.06-1.14.31-1.07.66s1.11.07,1.25,0c.75-.17,1.51-.31,2.27-.44-1.24,2.06-2.4,4.16-3.46,6.31-.15.3.54.26.64.25a3.06,3.06,0,0,0,1.39-.43c.48-.34,1-.67,1.46-1l.06,0a.84.84,0,0,0,0,.17,3.84,3.84,0,0,0,.44.69,3.31,3.31,0,0,0,1.43,1,5.62,5.62,0,0,0,4.66-.73c.08-.05.31-.2.28-.34S174.69,46.61,174.6,46.61Z"/><path class="cls-3" d="M184.41,42.35A4.75,4.75,0,0,0,180,40.59l4.67-6.48c.29-.41-.25-.48-.57-.46l-4.22.29c-.45,0-1.27.16-1.55.58s.24.47.57.45l3.28-.23-4.78,6.65c-.51.71,1.25.34,1.47.26,1-.38,2.36.37,3,1.11a4.13,4.13,0,0,1,1,2.54,7,7,0,0,0-2.36.14c-1,.22-2.41.76-2.22,2a2.19,2.19,0,0,0,2,1.57,4.84,4.84,0,0,0,3.44-1A4.15,4.15,0,0,0,184.41,42.35ZM181.9,48c-.16-.09-.47-.13-.62-.23a1.44,1.44,0,0,1-.54-.7,1.78,1.78,0,0,1-.06-.51s.06-.19,0-.23a2.41,2.41,0,0,1,.82,0,5.16,5.16,0,0,1,1.09.29.3.3,0,0,0,.13,0,3.07,3.07,0,0,1-.57,1.09Z"/><path class="cls-3" d="M126.62,34.08a2.3,2.3,0,0,0-1.22-.22l-1.91-.08c-1.17,0-2.35-.06-3.52-.05h-.15c.29-1,.53-2.1.73-3.16s-2.16-.57-2.32.27-.42,2-.68,2.95a32.52,32.52,0,0,0-3.82.39c-.58-.46-2-.1-2.13.75a74.65,74.65,0,0,0-.42,10.14c0,1.37,0,2.73.08,4.1a5,5,0,0,0,.19,2c.52.9,2,.18,2.24-.6h0a.43.43,0,0,0,0-.28,2.85,2.85,0,0,0,0-.31c0-.43,0-.86,0-1.3,0-1.38-.07-2.77-.07-4.16a75.16,75.16,0,0,1,.38-9.49c1.11-.14,2.22-.21,3.34-.25-.18.59-.36,1.17-.57,1.75a12.27,12.27,0,0,1-2.62,4.87.48.48,0,0,0,.24.88,1.92,1.92,0,0,0,1.64-.44,10,10,0,0,0,2-3A32.73,32.73,0,0,0,121,41a1.64,1.64,0,0,0,1.65-.17c.35-.26.65-.77.16-1.07a33.58,33.58,0,0,1-3.73-2.65.77.77,0,0,0-.36-.12c0-.12.09-.24.14-.37.23-.62.43-1.25.63-1.88.62,0,1.24,0,1.87,0l1.52,0c.34,0,1.32-.08,1.57.12s0,1.22,0,1.47l-.09,1.63c-.07,1.18-.14,2.36-.22,3.54s-.17,2.36-.26,3.53l-.09,1.16c-.32-.38-.64-.77-.94-1.17s-2.59.29-2.18.82.78,1,1.17,1.46A4.21,4.21,0,0,0,123,48.58a2.55,2.55,0,0,0,2.77-.77,2.18,2.18,0,0,0,.25-1c.06-.68.11-1.36.17-2l.27-3.67c.08-1.27.16-2.54.23-3.81,0-.63.07-1.27.11-1.9C126.85,35,127,34.38,126.62,34.08Z"/><path class="cls-3" d="M87.55,6.82c0-.28-.61-.25-.75-.24a29.65,29.65,0,0,1-7.35-.37l2.22-2.47a.27.27,0,0,0-.12-.43l-4-1.37a1.42,1.42,0,0,0-1,.07.93.93,0,0,0-.36.17L73.88,4.31a17.76,17.76,0,0,0-2,1.93,2.29,2.29,0,0,0-.3,1.68c0,1.05.11,2.09.16,3.13q.31,6.06.64,12.13c0,.27.59.26.74.24a50.19,50.19,0,0,1,13.85.12c.41.06,1.46-.1,1.41-.69Q87.56,14.85,87.55,6.82ZM74.06,22.39c-.19-3.54-.37-7.09-.56-10.63,0-.91-.09-1.83-.14-2.74s-.38-2.13.2-2.85a21.79,21.79,0,0,1,2-1.85L76.93,3l2.85,1c-.76.86-1.53,1.71-2.29,2.56-.21.23.06.44.27.48a33,33,0,0,0,8,.51q0,7.44.71,14.86A53,53,0,0,0,74.06,22.39Z"/><path class="cls-3" d="M76.31,16.66a39.23,39.23,0,0,1,4.6-.05,3.73,3.73,0,0,0,2.43-.47c.35-.31.25-.71.23-1.13l-.06-1.22c0-.33-.57-.37-.78-.36l-6,.17a1.16,1.16,0,0,0-.85-.08c-.35.09-.79.37-.72.78l.34,2C75.58,16.61,76.06,16.7,76.31,16.66Zm3.34-1.27c-.82,0-1.64,0-2.46,0l-.11-.64,4.71-.14,0,.46,0,.33h-.74C80.61,15.43,80.13,15.41,79.65,15.39Z"/><path class="cls-3" d="M83.77,17.92,76.66,18a2.59,2.59,0,0,0-1.22.33c-.2.12-.25.26-.11.32a6.05,6.05,0,0,0,.13,1.53c0,.1.25.11.3.1,2.25-.08,4.51-.07,6.76,0a2.31,2.31,0,0,0,1-.2c.13-.05.48-.17.47-.37a6.23,6.23,0,0,1,.1-1.67C84.09,17.93,83.91,17.92,83.77,17.92Zm-6.59,1.73a6.25,6.25,0,0,1-.1-1l5.24-.09a7.3,7.3,0,0,0-.09,1C80.54,19.59,78.86,19.59,77.18,19.65Z"/><path class="cls-3" d="M76.23,11.86h1.32l1.63,0,3.33,0c.33,0,.93-.27,1-.66a15.63,15.63,0,0,0,.06-1.68A.52.52,0,0,0,83,9l-6.84-.09a2.72,2.72,0,0,0-.39,0,1.54,1.54,0,0,0-.35,0c-.34.09-.78.35-.72.76l.25,2c0,.28.47.35.67.34A1.45,1.45,0,0,0,76.23,11.86Zm.27-.19h0l0,0Zm2.37-1L77,10.7h-.41L76.52,10l5.25.07c0,.18,0,.36,0,.54Z"/></svg>