<svg id="レイヤー_1" data-name="レイヤー 1" xmlns="http://www.w3.org/2000/svg" viewBox="0 0 364 62.41"><defs><style>.cls-1{fill:#e2d1c2;}.cls-2{fill:#c6a385;}</style></defs><path class="cls-1" d="M49.11,38.78c-.09-.05-.2-.07-.23-.13a2.89,2.89,0,0,0-3.21-1.32,5.13,5.13,0,0,1-3-.2.42.42,0,0,0-.57.19.53.53,0,0,0,.11.61c.2.23.45.43.64.67a9.09,9.09,0,0,1,.8,1,1.73,1.73,0,0,1,0,1.77,3.5,3.5,0,0,1-1.46,1.49,11.61,11.61,0,0,0-1.89,1.2c-.33.29-.7.12-.78-.3a2.32,2.32,0,0,1,0-1.05c.08-.3.17-.6.23-.9a2.63,2.63,0,0,0-2.92-3.27,4,4,0,0,0-2.68,1.28A6.21,6.21,0,0,0,32.75,46a7.91,7.91,0,0,0,3,4.56c-.23.31-.42.09-.58,0a15.88,15.88,0,0,1-6-4.67,28,28,0,0,1-5.57-9.82A13.35,13.35,0,0,0,23,34.63a12.73,12.73,0,0,1-.72-2.4c-.16-.78-.33-1.55-.51-2.33q-.6-2.64-1.22-5.28c-.29-1.25-.58-2.49-.88-3.73-.25-1-.48-2.07-.77-3.09a22.88,22.88,0,0,0-4.5-8.9A8,8,0,0,0,7.94,6.07a4.19,4.19,0,0,0-4.2,4.08c0,.27,0,.53,0,.79,0,.07-.1.16-.16.18A.28.28,0,0,1,3.3,11,5.29,5.29,0,0,1,2.12,6,3.72,3.72,0,0,1,4.94,3.29c.43-.1.87-.18,1.29-.31a.46.46,0,0,0,.32-.71A2.41,2.41,0,0,1,6.21.62.62.62,0,0,1,6.91,0c.84,0,1.68.08,2.51.16A3.54,3.54,0,0,1,11.7,1.38a12.44,12.44,0,0,0,1,1c.61.5,1,.42,1.35-.28a4.28,4.28,0,0,1,1-1.51.68.68,0,0,1,1.05,0,7.6,7.6,0,0,1,2.05,2.89,12.4,12.4,0,0,1,.82,4c0,.79.08,1.58.12,2.38a5.29,5.29,0,0,0,.39,1.66,1.69,1.69,0,0,0,.54.75,1,1,0,0,0,1.12,0,.82.82,0,0,0,.44-.75,3.86,3.86,0,0,0-.22-1.3c-.27-1-.54-2-.78-2.94a3.91,3.91,0,0,1,.09-2.09A.51.51,0,0,1,21.56,5a4.53,4.53,0,0,1,2.22,2.84c.1.53.37.78.63.71s.46-.38.53-.69.14-.6.21-.9c.6-2.67,3.88-4.3,6.5-3.52.44.13.51.45.18.78s-.59.53-.86.82a4.77,4.77,0,0,0-1.23,2.45,2.11,2.11,0,0,1-1.11,1.7A1.21,1.21,0,0,0,28,10a.51.51,0,0,0,.38.6,3.38,3.38,0,0,0,.78,0,3.19,3.19,0,0,1,2.41.44,4.38,4.38,0,0,0,1.7.7.33.33,0,0,1,.2.59,4.09,4.09,0,0,1-2.62,1.41,8.92,8.92,0,0,0-2.38.75,4.59,4.59,0,0,0-1.85,1.46,13.21,13.21,0,0,0-2.21,4.34,6,6,0,0,0-.15,2.5A2.1,2.1,0,0,0,25,24.18,1,1,0,0,0,26.52,24,2.68,2.68,0,0,0,27,22.48c0-.49,0-1,0-1.46a6.88,6.88,0,0,1,2.13-4.7.69.69,0,0,1,1-.12,3.16,3.16,0,0,1,1.79,2c.37,1.27.87,1.36,1.79.36a9.31,9.31,0,0,1,2-1.68,5.86,5.86,0,0,1,3.67-.81,8.71,8.71,0,0,1,3.17.87c.38.17.43.55.09.7a4.53,4.53,0,0,0-2.35,2.57,3.81,3.81,0,0,1-.47.8,1.87,1.87,0,0,1-1.66.91,5.79,5.79,0,0,0-.92.07.89.89,0,0,0-.58.26.52.52,0,0,0,.11.88,2.86,2.86,0,0,0,.76.21,2.81,2.81,0,0,1,2.06,1.28,4.77,4.77,0,0,0,1.35,1.26c.18.13.11.32,0,.46a1.92,1.92,0,0,1-.91.51c-.59.19-1.19.34-1.78.5-1.24.34-2.5.59-3.7,1A9.72,9.72,0,0,0,28.67,34a3.88,3.88,0,0,0-.16,2.21,1.41,1.41,0,0,0,.35.7.73.73,0,0,0,1.15.08,7.43,7.43,0,0,0,.87-1,16.62,16.62,0,0,1,6-5.08,12,12,0,0,0,3.42-2.23c.45-.46.79-.37,1.2.16a2.08,2.08,0,0,1,.34,1.88c-.09.38-.26.74-.38,1.12a.65.65,0,0,0,.51.9,2.43,2.43,0,0,0,1,0,6,6,0,0,1,3,.47,6.09,6.09,0,0,1,3.13,3.09,3,3,0,0,1,.29,1.54C49.38,38.17,49.45,38.53,49.11,38.78ZM24.66,36.4a3.24,3.24,0,0,0,.24.44.19.19,0,0,0,.33,0,2.27,2.27,0,0,0,.21-.62A24.89,24.89,0,0,1,29.6,26.7c.34-.5.79-.94,1.18-1.42s.6-.75.88-1.15a.39.39,0,0,0,0-.36.37.37,0,0,0-.34,0,3.25,3.25,0,0,0-.61.5,28.06,28.06,0,0,0-3.37,4.23,20.88,20.88,0,0,0-2.7,6A2.85,2.85,0,0,0,24.66,36.4Zm4.81,8a1.73,1.73,0,0,0,.63,1,.26.26,0,0,0,.4-.17c0-.22,0-.44,0-.66a10.75,10.75,0,0,1,.69-4,6.53,6.53,0,0,1,2.64-3.37l1.47-.9a6.42,6.42,0,0,0,.56-.34c.15-.11.26-.25.14-.45a.3.3,0,0,0-.32-.16,3,3,0,0,0-.52.11,8.76,8.76,0,0,0-3.79,2.78,9.89,9.89,0,0,0-1.93,5.4C29.44,43.87,29.47,44.18,29.47,44.35ZM21.27,23a1,1,0,0,0,.17.28.19.19,0,0,0,.33,0,1.81,1.81,0,0,0,.25-.59,81.5,81.5,0,0,1,2.19-8,2.66,2.66,0,0,0,.09-.63c0-.05-.1-.12-.17-.16s-.11,0-.12,0a3.14,3.14,0,0,0-.34.55c-.49,1.27-1,2.53-1.46,3.81-.35,1-.64,2-.94,3A2.66,2.66,0,0,0,21.27,23Z"/><path class="cls-1" d="M.12,44.1A5.32,5.32,0,0,1,.41,41a7.26,7.26,0,0,1,3.1-3.57,11,11,0,0,1,4.34-1.63,19.16,19.16,0,0,1,9.08.73,29.89,29.89,0,0,1,9.79,5.39,90.68,90.68,0,0,1,8.34,7.94A24.63,24.63,0,0,0,43.66,56,19.26,19.26,0,0,0,47,57a9.68,9.68,0,0,0,5.46-.31c.17-.06.34-.21.58,0a9.31,9.31,0,0,1-4.79,1.91,39.39,39.39,0,0,1-5.54.28A8.32,8.32,0,0,0,37,60.75l-1,.82a3.93,3.93,0,0,1-2.15.82c-1.08.09-1.27-.11-1-1.1a14,14,0,0,0,.2-1.45,1.7,1.7,0,0,1,1-1.36,14.61,14.61,0,0,0,1.41-.75,1.27,1.27,0,0,0-.08-2.32A2.3,2.3,0,0,0,34.23,55a6.22,6.22,0,0,0-2.86.39,3.82,3.82,0,0,0-2.48,3c-.08.43-.15.87-.25,1.29a3,3,0,0,1-1.36,1.83.7.7,0,0,1-1-.18c-.35-.47-.69-.94-1.05-1.4a3.51,3.51,0,0,1-.65-1.6,8.3,8.3,0,0,0-.14-.87c-.16-.57-.75-.76-1.11-.28a5.13,5.13,0,0,1-3.92,1.93,5.36,5.36,0,0,0-1.94.61c-.18.11-.38,0-.44-.24a1.62,1.62,0,0,1-.06-.58,5.8,5.8,0,0,1,2.67-4.62c.32-.22.68-.39,1-.61.79-.57.8-.93,0-1.36a7.2,7.2,0,0,1-2.12-1.76l-.09-.11c-.17-.18-.38-.37-.16-.62a.63.63,0,0,1,.68-.13c.33.1.64.24,1,.33s.65.19,1,.26a.71.71,0,0,0,.84-.43c0-.09.06-.18.1-.27.47-1,.64-1.1,1.66-.9a11.87,11.87,0,0,1,2.76.95,3.06,3.06,0,0,0,2,.31,1.47,1.47,0,0,0,1-2.51,4.36,4.36,0,0,0-3.68-1.75,4.11,4.11,0,0,0-4.11,2.89c-.31.83-.74.8-1.35.56a3.08,3.08,0,0,1-2.07-2.09c-.12-.41-.2-.94-.72-1s-.87.45-1,.91a7.46,7.46,0,0,1-2.68,3.9,3.9,3.9,0,0,0-.91,1.31c-.17.32-.45.33-.71.07a3.85,3.85,0,0,1-.52-4.35,5.74,5.74,0,0,1,1.28-1.58c.29-.26.58-.56.36-1s-.53-.37-1.17-.11a6.94,6.94,0,0,1-.8.35A3,3,0,0,1,8,44.43a.48.48,0,0,1,0-.55,12.64,12.64,0,0,1,2.06-2.26,4.69,4.69,0,0,1,2.77-.77c.53,0,1.06.07,1.6.1a2.22,2.22,0,0,0,1.4-.3,1.36,1.36,0,0,0,.68-1.36,1.15,1.15,0,0,0-.93-1,6.35,6.35,0,0,0-5.94,1.06c-.93.77-1.79,1.65-2.72,2.43-.45.39-.86,1.19-1.54.85-.5-.26-.31-1.06-.43-1.62a2.9,2.9,0,0,1,0-.59c0-.24,0-.51-.27-.6s-.46.1-.65.24a9.83,9.83,0,0,1-1.16.88A5.24,5.24,0,0,0,.59,43.53c-.08.17-.17.35-.26.52S.25,44.07.12,44.1Zm36,8.38a1.8,1.8,0,0,0-1.6-.73,26.32,26.32,0,0,0-7.34.89,5.44,5.44,0,0,0-.94.38.48.48,0,0,0-.21.34c0,.15.16.23.31.21.43,0,.87-.11,1.29-.19a25.71,25.71,0,0,1,7.53-.44,4.94,4.94,0,0,0,.86,0,.22.22,0,0,0,.19-.32A.37.37,0,0,0,36.15,52.48Zm-18.29-9.9c-.06.16-.14.31-.11.33s.25.22.35.2a5.42,5.42,0,0,0,1-.29,10.49,10.49,0,0,1,4.83-.74,5.44,5.44,0,0,0,.57,0c.15,0,.32,0,.31-.21a.58.58,0,0,0-.19-.36,1.66,1.66,0,0,0-1.23-.33,12.85,12.85,0,0,0-4.93,1A5.45,5.45,0,0,0,17.86,42.58Z"/><path class="cls-1" d="M314.61,37.82a3,3,0,0,1,.29-1.54A6.09,6.09,0,0,1,318,33.19a6,6,0,0,1,3-.47,2.43,2.43,0,0,0,1,0,.65.65,0,0,0,.51-.9c-.12-.38-.29-.74-.38-1.12a2.08,2.08,0,0,1,.34-1.88c.41-.53.75-.62,1.2-.16a12,12,0,0,0,3.42,2.23,16.62,16.62,0,0,1,6,5.08,7.43,7.43,0,0,0,.87,1,.73.73,0,0,0,1.15-.08,1.41,1.41,0,0,0,.35-.7,3.88,3.88,0,0,0-.16-2.21,9.72,9.72,0,0,0-5.86-5.57c-1.2-.44-2.46-.69-3.7-1-.59-.16-1.19-.31-1.78-.5a1.92,1.92,0,0,1-.91-.51c-.13-.14-.2-.33,0-.46a4.77,4.77,0,0,0,1.35-1.26,2.81,2.81,0,0,1,2.06-1.28,2.86,2.86,0,0,0,.76-.21.52.52,0,0,0,.11-.88.89.89,0,0,0-.58-.26,5.79,5.79,0,0,0-.92-.07,1.87,1.87,0,0,1-1.66-.91,3.81,3.81,0,0,1-.47-.8,4.53,4.53,0,0,0-2.35-2.57c-.34-.15-.29-.53.09-.7a8.71,8.71,0,0,1,3.17-.87,5.86,5.86,0,0,1,3.67.81,9.31,9.31,0,0,1,2,1.68c.92,1,1.42.91,1.79-.36a3.16,3.16,0,0,1,1.79-2,.69.69,0,0,1,1,.12A6.88,6.88,0,0,1,337,21c0,.49,0,1,0,1.46a2.68,2.68,0,0,0,.49,1.49,1,1,0,0,0,1.48.21,2.1,2.1,0,0,0,.79-1.47,6,6,0,0,0-.15-2.5,13.21,13.21,0,0,0-2.21-4.34,4.59,4.59,0,0,0-1.85-1.46,8.92,8.92,0,0,0-2.38-.75,4.09,4.09,0,0,1-2.62-1.41.33.33,0,0,1,.2-.59,4.38,4.38,0,0,0,1.7-.7,3.19,3.19,0,0,1,2.41-.44,3.38,3.38,0,0,0,.78,0A.51.51,0,0,0,336,10a1.21,1.21,0,0,0-.64-.8,2.11,2.11,0,0,1-1.11-1.7A4.77,4.77,0,0,0,333,5c-.27-.29-.58-.54-.86-.82s-.26-.65.18-.78c2.62-.78,5.9.85,6.5,3.52.07.3.13.61.21.9s.18.61.53.69.53-.18.63-.71A4.53,4.53,0,0,1,342.44,5a.51.51,0,0,1,.83.31,3.91,3.91,0,0,1,.09,2.09c-.24,1-.51,2-.78,2.94a3.86,3.86,0,0,0-.22,1.3.82.82,0,0,0,.44.75,1,1,0,0,0,1.12,0,1.69,1.69,0,0,0,.54-.75,5.29,5.29,0,0,0,.39-1.66c0-.8.09-1.59.12-2.38a12.4,12.4,0,0,1,.82-4,7.6,7.6,0,0,1,2-2.89.68.68,0,0,1,1.05,0,4.28,4.28,0,0,1,1.05,1.51c.31.7.74.78,1.35.28a12.44,12.44,0,0,0,1-1A3.54,3.54,0,0,1,354.58.16c.83-.08,1.67-.12,2.51-.16a.62.62,0,0,1,.7.62,2.41,2.41,0,0,1-.34,1.65.46.46,0,0,0,.32.71c.42.13.86.21,1.29.31A3.72,3.72,0,0,1,361.88,6,5.29,5.29,0,0,1,360.7,11a.28.28,0,0,1-.24.08c-.06,0-.16-.11-.16-.18,0-.26,0-.52,0-.79a4.19,4.19,0,0,0-4.2-4.08,8,8,0,0,0-6.45,2.83,22.88,22.88,0,0,0-4.5,8.9c-.29,1-.52,2.06-.77,3.09-.3,1.24-.59,2.48-.88,3.73q-.61,2.64-1.22,5.28c-.18.78-.35,1.55-.51,2.33a12.73,12.73,0,0,1-.72,2.4,13.35,13.35,0,0,0-.58,1.48,28,28,0,0,1-5.57,9.82,15.88,15.88,0,0,1-6,4.67c-.16.07-.35.29-.58,0a7.91,7.91,0,0,0,3-4.56,6.21,6.21,0,0,0-1.47-6.15,4,4,0,0,0-2.68-1.28,2.63,2.63,0,0,0-2.92,3.27c.06.3.15.6.23.9a2.32,2.32,0,0,1,0,1.05c-.08.42-.45.59-.78.3a11.61,11.61,0,0,0-1.89-1.2,3.5,3.5,0,0,1-1.46-1.49,1.73,1.73,0,0,1,0-1.77,9.09,9.09,0,0,1,.8-1c.19-.24.44-.44.64-.67a.53.53,0,0,0,.11-.61.42.42,0,0,0-.57-.19,5.13,5.13,0,0,1-3,.2,2.89,2.89,0,0,0-3.21,1.32c0,.06-.14.08-.23.13C314.55,38.53,314.62,38.17,314.61,37.82Zm24.78-3.37a20.88,20.88,0,0,0-2.7-6,28.06,28.06,0,0,0-3.37-4.23,3.25,3.25,0,0,0-.61-.5.37.37,0,0,0-.34,0,.39.39,0,0,0,0,.36c.28.4.58.78.88,1.15s.84.92,1.18,1.42a24.89,24.89,0,0,1,4.16,9.48,2.27,2.27,0,0,0,.21.62.19.19,0,0,0,.33,0,3.24,3.24,0,0,0,.24-.44A2.85,2.85,0,0,0,339.39,34.45Zm-4.85,9.11a9.89,9.89,0,0,0-1.93-5.4,8.76,8.76,0,0,0-3.79-2.78,3,3,0,0,0-.52-.11.3.3,0,0,0-.32.16c-.12.2,0,.34.14.45a6.42,6.42,0,0,0,.56.34c.49.3,1,.59,1.47.9a6.53,6.53,0,0,1,2.64,3.37,10.75,10.75,0,0,1,.69,4c0,.22,0,.44,0,.66a.26.26,0,0,0,.4.17,1.73,1.73,0,0,0,.63-1C334.53,44.18,334.56,43.87,334.54,43.56Zm8.19-22.27c-.3-1-.59-2-.94-3-.46-1.28-1-2.54-1.46-3.81a3.14,3.14,0,0,0-.34-.55s-.09-.05-.12,0-.18.11-.17.16a2.66,2.66,0,0,0,.09.63,81.5,81.5,0,0,1,2.19,8,1.81,1.81,0,0,0,.25.59.19.19,0,0,0,.33,0,1,1,0,0,0,.17-.28A2.66,2.66,0,0,0,342.73,21.29Z"/><path class="cls-1" d="M363.67,44.05c-.09-.17-.18-.35-.26-.52a5.24,5.24,0,0,0-2.26-2.59,9.83,9.83,0,0,1-1.16-.88c-.19-.14-.38-.33-.65-.24s-.27.36-.27.6a2.9,2.9,0,0,1,0,.59c-.12.56.07,1.36-.43,1.62-.68.34-1.09-.46-1.54-.85-.93-.78-1.79-1.66-2.72-2.43a6.35,6.35,0,0,0-5.94-1.06,1.15,1.15,0,0,0-.93,1,1.36,1.36,0,0,0,.68,1.36,2.22,2.22,0,0,0,1.4.3c.54,0,1.07-.11,1.6-.1a4.69,4.69,0,0,1,2.77.77A12.64,12.64,0,0,1,356,43.88a.48.48,0,0,1,0,.55,3,3,0,0,1-3.1,1.14,6.94,6.94,0,0,1-.8-.35c-.64-.26-1-.23-1.17.11s.07.75.36,1a5.74,5.74,0,0,1,1.28,1.58,3.85,3.85,0,0,1-.52,4.35c-.26.26-.54.25-.71-.07a3.9,3.9,0,0,0-.91-1.31,7.46,7.46,0,0,1-2.68-3.9c-.12-.46-.41-1-1-.91s-.6.58-.72,1A3.08,3.08,0,0,1,344,49.16c-.61.24-1,.27-1.35-.56a4.11,4.11,0,0,0-4.11-2.89,4.36,4.36,0,0,0-3.68,1.75,1.47,1.47,0,0,0,1,2.51,3.06,3.06,0,0,0,2-.31,11.87,11.87,0,0,1,2.76-.95c1-.2,1.19-.1,1.66.9,0,.09.06.18.1.27a.71.71,0,0,0,.84.43c.33-.07.66-.16,1-.26s.64-.23,1-.33a.63.63,0,0,1,.68.13c.22.25,0,.44-.16.62l-.09.11a7.2,7.2,0,0,1-2.12,1.76c-.84.43-.83.79,0,1.36.31.22.67.39,1,.61a5.8,5.8,0,0,1,2.67,4.62,1.62,1.62,0,0,1-.06.58c-.06.2-.26.35-.44.24a5.36,5.36,0,0,0-1.94-.61,5.13,5.13,0,0,1-3.92-1.93c-.36-.48-.95-.29-1.11.28a8.3,8.3,0,0,0-.14.87,3.51,3.51,0,0,1-.65,1.6c-.36.46-.7.93-1.05,1.4a.7.7,0,0,1-1,.18,3,3,0,0,1-1.36-1.83c-.1-.42-.17-.86-.25-1.29a3.82,3.82,0,0,0-2.48-3,6.22,6.22,0,0,0-2.86-.39,2.3,2.3,0,0,0-1.09.38,1.27,1.27,0,0,0-.08,2.32,14.61,14.61,0,0,0,1.41.75,1.7,1.7,0,0,1,1,1.36,14,14,0,0,0,.2,1.45c.22,1,0,1.19-1.05,1.1a3.93,3.93,0,0,1-2.15-.82l-1-.82a8.32,8.32,0,0,0-5.68-1.9,39.39,39.39,0,0,1-5.54-.28A9.31,9.31,0,0,1,311,56.66c.24-.2.41,0,.58,0A9.68,9.68,0,0,0,317,57a19.26,19.26,0,0,0,3.35-1,24.63,24.63,0,0,0,8.6-6.16,90.68,90.68,0,0,1,8.34-7.94,29.89,29.89,0,0,1,9.79-5.39,19.16,19.16,0,0,1,9.08-.73,11,11,0,0,1,4.34,1.63,7.26,7.26,0,0,1,3.1,3.57,5.32,5.32,0,0,1,.29,3.13C363.75,44.07,363.68,44.07,363.67,44.05Zm-35.91,8.59A.22.22,0,0,0,328,53a4.94,4.94,0,0,0,.86,0,25.71,25.71,0,0,1,7.53.44c.42.08.86.14,1.29.19.15,0,.31-.06.31-.21a.48.48,0,0,0-.21-.34,5.44,5.44,0,0,0-.94-.38,26.32,26.32,0,0,0-7.34-.89,1.8,1.8,0,0,0-1.6.73A.37.37,0,0,0,327.76,52.64Zm17.81-10.39a12.85,12.85,0,0,0-4.93-1,1.66,1.66,0,0,0-1.23.33.58.58,0,0,0-.19.36c0,.16.16.21.31.21a5.44,5.44,0,0,0,.57,0,10.49,10.49,0,0,1,4.83.74,5.42,5.42,0,0,0,1,.29c.1,0,.25-.11.35-.2s-.05-.17-.11-.33A5.45,5.45,0,0,0,345.57,42.25Z"/><path class="cls-2" d="M64.94,40.17s5-5.42,5-16.8h4.9C74.88,39.68,64.94,40.17,64.94,40.17ZM84,24.91s.73,6.16,1.54,14.21l-3.92.56c-1.44-7.63-2.49-14.1-2.49-14.1Zm1.54-3.33A2.59,2.59,0,1,1,82.93,19,2.58,2.58,0,0,1,85.52,21.58Zm-1.4,0a1.19,1.19,0,1,0-1.19,1.2A1.18,1.18,0,0,0,84.12,21.58Z"/><path class="cls-2" d="M95,31.11s6.51.1,18.55.45v3.22C100.29,35,95,35,95,35Z"/><path class="cls-2" d="M129.3,42.2h-3.92c-.49-9.45-.63-21.21-.63-21.21h4.9S129.65,31.81,129.3,42.2Zm7.46-7c-6.2,0-6.51-6.44-6.51-6.44a12.91,12.91,0,0,0,6.51,1.54Z"/><path class="cls-2" d="M158.77,21c0,1.5,0,2.91-.14,4.24h1.54l1.4-1.4,1.4,1.4v1.4h-4.44c-1.47,15.36-9,15.61-9,15.61s3.29-4.06,4.13-15.61h-6.61v-1.4h6.72c.07-1.33.1-2.74.1-4.24Z"/><path class="cls-2" d="M169.9,31.11s6.51.1,18.55.45v3.22C175.19,35,169.9,35,169.9,35Z"/><path class="cls-2" d="M197.31,25.82c6.3.35,6.05,5.5,6.05,5.5a16,16,0,0,0-6.12-1.86Zm18.06,1s3.18,9.17-15.86,14.63l-1.08-4.76C212,33,215.37,26.84,215.37,26.84ZM207,27.5a15.82,15.82,0,0,0-6.12-1.89L201,22C207.25,22.32,207,27.5,207,27.5Z"/><path class="cls-2" d="M226.25,25.65h3.05A32.24,32.24,0,0,0,230,32S226.25,32.26,226.25,25.65Zm11,2.55h4.1c0,14-12.53,14-12.53,14S237.24,37.76,237.24,28.2Zm-6.33-2.55H234a33.55,33.55,0,0,0,.7,6.37S230.91,32.26,230.91,25.65Z"/><path class="cls-2" d="M250.82,21.83s3.75,0,14.91.25c0,19.56-12.84,20.12-12.84,20.12s6.89-4.06,7.84-17.12c-7.28.29-9.91.36-9.91.36Zm17.08-3.12a2.59,2.59,0,1,1-2.59-2.59A2.59,2.59,0,0,1,267.9,18.71Zm-1.4,0a1.19,1.19,0,1,0-1.19,1.2A1.18,1.18,0,0,0,266.5,18.71Z"/><path class="cls-2" d="M279.77,35.34l3.64,2.24a10.52,10.52,0,0,1-9.28,5.36A26,26,0,0,0,279.77,35.34Zm14.59-16.49a48.58,48.58,0,0,1-5.18.95l.84.53a11.07,11.07,0,0,1-6.09,4.86,11.8,11.8,0,0,1,1.3,2.28,32.19,32.19,0,0,0,2.52-3.64l3.64,2.24A20.74,20.74,0,0,1,286.7,31c1.61,0,2.87-.11,3.81-.18-.35-1.29-.49-1.68-.49-1.68l4-.7,1.43,7.67-3.29.59c-.38-1.36-.7-2.45-.94-3.39a17.53,17.53,0,0,1-2.91.91c0,1.57-.1,4.62-.21,10.36h-3.71c-.21-4.9-.31-7.91-.38-9.66-1.75.17-3.85.31-6.34.38L277.46,31c1.61,0,3,0,4.34,0,.56-.53,1.19-1.09,1.82-1.75a40.07,40.07,0,0,0-5.22-3.85l2.7-3.33c.59.53,1.12,1.05,1.57,1.54a27.83,27.83,0,0,0,2.56-3.57c-5.78.1-8.09-1.4-8.09-1.4A55.25,55.25,0,0,0,292,15.77Zm1.51,24.47c-6.34-2.66-5.81-7.56-5.81-7.56a21.69,21.69,0,0,0,7.45,3.61Z"/></svg>