<svg id="レイヤー_1" data-name="レイヤー 1" xmlns="http://www.w3.org/2000/svg" viewBox="0 0 562.31 19.78"><defs><style>.cls-1{fill:#333;}</style></defs><path class="cls-1" d="M3.38,17c.23-.19.48-.42.82-.72s.67-.63,1-1a10.28,10.28,0,0,0,1-1.3,7.19,7.19,0,0,0,.8-1.53,4.3,4.3,0,0,0,.33-1.68v-.17c0-.08,0-.17,0-.25a.78.78,0,0,0-.08-.23A.21.21,0,0,0,7.14,10H.27L.21,9.93a.33.33,0,0,0-.06-.12.87.87,0,0,1-.09-.17L0,9.53v-2a.5.5,0,0,1,.19-.34A.61.61,0,0,1,.57,7H17.22a.56.56,0,0,1,.35.21c.15.13.21.23.21.34v2l-.06.11a.91.91,0,0,1-.08.17.31.31,0,0,0-.07.12c0,.06-.06.09-.08.09h-6a1.48,1.48,0,0,0-.18.42c-.11.27-.26.65-.4,1.09s-.36.92-.55,1.45-.38,1-.59,1.53-.37.92-.56,1.32a5.24,5.24,0,0,1-.53.84,1.9,1.9,0,0,1-.29.29c-.15.15-.3.32-.46.47s-.32.33-.47.46-.25.25-.31.31a2,2,0,0,1-.32.28l-.44.31a4.53,4.53,0,0,1-.46.3,1.33,1.33,0,0,1-.38.1A1.64,1.64,0,0,1,4.85,19c-.27-.14-.55-.31-.82-.48a4.17,4.17,0,0,1-.69-.61.83.83,0,0,1-.27-.55S3.17,17.2,3.38,17ZM2.52,1.68H15.39V4.49H2.52Z"/><path class="cls-1" d="M23.58,14.57h-.27a.61.61,0,0,1-.53-.29,2.14,2.14,0,0,1-.29-.7,3.42,3.42,0,0,1-.15-.81c0-.28,0-.51,0-.68a.54.54,0,0,1,.19-.44,1.22,1.22,0,0,1,.46-.21,2.32,2.32,0,0,1,.55-.06,1.68,1.68,0,0,0,.48,0,4.79,4.79,0,0,0,.88-.13c.45-.08.89-.14,1.37-.21s.94-.14,1.36-.21l.89-.14a.83.83,0,0,0,.39-.26A1,1,0,0,0,29,10c0-.19,0-.4-.06-.65a2.56,2.56,0,0,0-.11-.75,1.41,1.41,0,0,0-.31-.61A.75.75,0,0,0,28,7.69a7.83,7.83,0,0,0-1.18.1c-.39.08-.79.17-1.17.27s-.8.17-1.18.23a5.42,5.42,0,0,1-1.19.13.75.75,0,0,1-.59-.27,1.77,1.77,0,0,1-.28-.7,5.17,5.17,0,0,1-.06-.82v-1a1,1,0,0,0,0-.19l.3-.13a2.83,2.83,0,0,0,.44-.06c.21,0,.42,0,.67-.08s.46-.05.67-.09A2.83,2.83,0,0,1,24.84,5L25.26,5c.21,0,.4-.05.61-.09l.59-.08a3.1,3.1,0,0,0,.36,0c.14,0,.33-.07.54-.09a.51.51,0,0,0,.42-.33V4.09a1.84,1.84,0,0,1,0-.23,3.83,3.83,0,0,0-.17-1.11,4,4,0,0,1-.14-1.09.6.6,0,0,1,.38-.55,3.31,3.31,0,0,1,.84-.27c.31,0,.63-.08.9-.1a5.2,5.2,0,0,1,.57,0,.72.72,0,0,1,.29.17.85.85,0,0,1,.25.25c0,.13.06.34.09.66a7.55,7.55,0,0,0,.12.94,2.1,2.1,0,0,0,.34.84A.68.68,0,0,0,31.9,4a5.06,5.06,0,0,0,1.17-.13c.4-.06.8-.15,1.2-.23s.8-.19,1.18-.25a5.24,5.24,0,0,1,1.17-.13.77.77,0,0,1,.59.23,1.92,1.92,0,0,1,.29.61,4,4,0,0,1,.11.78v.71a.88.88,0,0,1-.07.42.63.63,0,0,1-.37.21l-.86.13c-.4.06-.84.15-1.31.21s-.9.12-1.3.21-.71.13-.88.15a2,2,0,0,0-.61.18c-.17.09-.23.28-.23.55v.53l.06.63c.05.23.11.42.17.63a1.12,1.12,0,0,0,.34.42l.27,0h.29a6.59,6.59,0,0,0,1.33-.13c.44-.08.86-.19,1.3-.31s.86-.21,1.3-.3A7.37,7.37,0,0,1,38.36,9a.66.66,0,0,1,.57.25,1.25,1.25,0,0,1,.25.61,2.81,2.81,0,0,1,.11.77v.93a1.84,1.84,0,0,1,0,.23A.47.47,0,0,1,39,12l-.31.08a4.51,4.51,0,0,0-.84.13c-.42.06-.86.15-1.32.23l-1.3.19a6.85,6.85,0,0,0-.87.15,1.83,1.83,0,0,0-.42.06,1.79,1.79,0,0,0-.42.12,1.28,1.28,0,0,0-.31.24.61.61,0,0,0-.13.39,6,6,0,0,0,.15,1.18c.08.4.19.78.27,1.15L33.83,17A5.81,5.81,0,0,1,34,18.2a.55.55,0,0,1-.29.55A1.82,1.82,0,0,1,33,19a6.11,6.11,0,0,1-.86.06h-.74a1.63,1.63,0,0,0-.23,0h-.25a1.1,1.1,0,0,1-.36-.6,7.1,7.1,0,0,1-.21-1.06c0-.39-.08-.79-.12-1.23s-.07-.84-.13-1.2a4,4,0,0,0-.19-.88c-.1-.23-.23-.34-.4-.34H28.35Z"/><path class="cls-1" d="M44.71,15.83c.33-.21.73-.44,1.17-.67l1.26-.67c.4-.21.7-.36.89-.49s.61-.44,1-.77L50.5,12c.53-.46,1-.94,1.58-1.47A21.29,21.29,0,0,0,53.55,9,12.32,12.32,0,0,0,54.6,7.39,3,3,0,0,0,55,6L55,5.9a.83.83,0,0,0-.09-.15.35.35,0,0,0-.08-.1l0,0H46.62a1.09,1.09,0,0,1-.32-.17c-.16-.11-.25-.19-.25-.25V2.81a.4.4,0,0,1,.11-.23.43.43,0,0,1,.19-.19c.27,0,.69,0,1.28,0l1.95,0c.71,0,1.49,0,2.29,0l2.29,0,2,0h1.76a1.81,1.81,0,0,1,.57.12,5.28,5.28,0,0,1,.67.34,2.71,2.71,0,0,1,.57.44.78.78,0,0,1,.23.5.27.27,0,0,1,0,.13c-.27.61-.55,1.15-.8,1.66s-.52,1-.77,1.47-.51.94-.78,1.4-.55,1-.86,1.5c-.11.16-.17.29-.23.35a.66.66,0,0,0-.07.34c0,.08,0,.17,0,.23a.72.72,0,0,0,.13.19c.13.12.38.38.71.71l1.05,1,1.08,1.05.67.69a1.49,1.49,0,0,0,.29.3c.13.15.25.29.4.44l.36.42a1.73,1.73,0,0,1,.21.25,1.35,1.35,0,0,1,.16.27,1.09,1.09,0,0,1,.11.28c0,.12-.06.31-.27.54a7.51,7.51,0,0,1-.74.76,9.1,9.1,0,0,1-.84.65,1.48,1.48,0,0,1-.59.29.45.45,0,0,1-.27-.08.77.77,0,0,1-.23-.19c0-.06-.17-.21-.36-.44s-.37-.48-.61-.76-.44-.52-.63-.75L56.7,16c-.09-.09-.25-.25-.49-.51s-.5-.48-.77-.75-.53-.53-.76-.76l-.5-.5H54a1.52,1.52,0,0,0-.82.4c-.33.25-.73.56-1.17.94L50.65,16c-.5.44-1,.86-1.49,1.26a10,10,0,0,1-1.45.95,2.5,2.5,0,0,1-1.26.39H46.3l-.1,0-2-1.95a.36.36,0,0,1-.09-.17.57.57,0,0,1-.06-.12C44.16,16.23,44.35,16.06,44.71,15.83Z"/><path class="cls-1" d="M70.73,16.38v-15l.06-.07a.66.66,0,0,1,.13-.08l.14-.08a.36.36,0,0,0,.13-.05h2.67l.42.42v4.9c0,.08.08.16.23.25l.31.17c.55.21,1.16.4,1.79.58s1.3.4,2,.61,1.32.47,2,.72a13.45,13.45,0,0,1,1.74.88.79.79,0,0,1,.28.25,1.12,1.12,0,0,1,0,.32,2.48,2.48,0,0,1-.13.6,4.39,4.39,0,0,1-.31.95,4.29,4.29,0,0,1-.46.88.72.72,0,0,1-.53.38A.32.32,0,0,1,81,13c-1-.46-2.07-.93-3.1-1.37A28.24,28.24,0,0,0,74.7,10.5l-.21.1c-.15.07-.21.13-.21.19v7.69l-.3.29H70.92c-.09,0-.15-.06-.17-.19s0-.21,0-.23Z"/><path class="cls-1" d="M99.83,12.68a48,48,0,0,0-4.07-4.41.39.39,0,0,0-.3-.14,1.83,1.83,0,0,0-.33,0l-.19,0h-.17a12.28,12.28,0,0,0-1.24,1.32c-.4.48-.77,1-1.15,1.51s-.72,1-1,1.55-.63,1-.9,1.35a1.34,1.34,0,0,1-.26.31.39.39,0,0,1-.31.13.34.34,0,0,1-.15,0l-2.22-2.23-.09-.12a.63.63,0,0,0-.06-.17v-.13a.48.48,0,0,0,.06-.14,1,1,0,0,0,.09-.15,12,12,0,0,0,1-1.11c.4-.47.79-1,1.23-1.5s.89-1.07,1.35-1.59A18,18,0,0,1,92.5,5.67,7.7,7.7,0,0,1,93.83,4.6,2.13,2.13,0,0,1,95,4.2a2.86,2.86,0,0,1,1.43.38,6,6,0,0,1,1.18.88L99.9,7.73c.71.73,1.42,1.45,2.09,2.18s1.37,1.45,2,2.21,1.45,1.57,2.23,2.45a.26.26,0,0,1,.12.19.82.82,0,0,1,0,.23,1.2,1.2,0,0,1-.23.67c-.17.23-.38.46-.59.7s-.46.44-.69.63a5.42,5.42,0,0,0-.59.52h-.52a.19.19,0,0,1-.19-.15C102.35,15.77,101.09,14.21,99.83,12.68Zm.13-8.8a1.63,1.63,0,0,1,.35-.23l.47-.12a3.47,3.47,0,0,1,.42,0,1,1,0,0,1,.67.31,3.63,3.63,0,0,1,.65.74,3.72,3.72,0,0,1,.48.9,1.87,1.87,0,0,1,.19.73.45.45,0,0,1-.19.36,1.61,1.61,0,0,1-.44.32,3.2,3.2,0,0,1-.52.23,1.31,1.31,0,0,1-.4.08.91.91,0,0,1-.67-.34,3.66,3.66,0,0,1-.59-.81,5.63,5.63,0,0,1-.42-1,2.45,2.45,0,0,1-.15-.8A.51.51,0,0,1,100,3.88Zm2.94-1.13a1.49,1.49,0,0,1,.35-.27,1.92,1.92,0,0,1,.91-.25,1,1,0,0,1,.63.31,4.47,4.47,0,0,1,.63.76,3.64,3.64,0,0,1,.5.88,1.71,1.71,0,0,1,.21.73.53.53,0,0,1-.19.4,1.56,1.56,0,0,1-.42.3,2,2,0,0,1-.52.21,2.14,2.14,0,0,1-.4.08,1,1,0,0,1-.67-.31,3.84,3.84,0,0,1-.59-.76,4.4,4.4,0,0,1-.42-.92,2.4,2.4,0,0,1-.17-.76A.64.64,0,0,1,102.9,2.75Z"/><path class="cls-1" d="M127.47,11.34l-.28.29H110.82a.35.35,0,0,1-.34-.19.83.83,0,0,1-.08-.37V8.4a.63.63,0,0,0,0-.13c0-.06.06-.12.08-.14a.18.18,0,0,1,.07-.09s.06-.06.08-.06h16.8Z"/><path class="cls-1" d="M132.91,15.83c.33-.21.73-.44,1.17-.67l1.26-.67c.4-.21.7-.36.89-.49s.6-.44,1-.77.93-.76,1.45-1.2,1.05-.94,1.58-1.47A21.29,21.29,0,0,0,141.75,9a13.48,13.48,0,0,0,1.05-1.58A3,3,0,0,0,143.22,6l-.07-.13a.5.5,0,0,0-.08-.15.35.35,0,0,0-.08-.1l-.05,0h-8.12a1.09,1.09,0,0,1-.32-.17c-.16-.11-.25-.19-.25-.25V2.81a.4.4,0,0,1,.11-.23.43.43,0,0,1,.19-.19c.27,0,.69,0,1.28,0l1.95,0c.71,0,1.49,0,2.29,0l2.29,0,2,0h1.76a1.81,1.81,0,0,1,.57.12,5.28,5.28,0,0,1,.67.34,2.71,2.71,0,0,1,.57.44.78.78,0,0,1,.23.5.27.27,0,0,1,0,.13c-.27.61-.55,1.15-.8,1.66s-.52,1-.77,1.47-.51.94-.78,1.4-.55,1-.86,1.5c-.11.16-.17.29-.23.35a.66.66,0,0,0-.07.34c0,.08,0,.17,0,.23a.72.72,0,0,0,.13.19l.71.71,1,1c.38.36.74.72,1.07,1.05l.68.69a1.49,1.49,0,0,0,.29.3c.13.15.25.29.4.44l.36.42a1.73,1.73,0,0,1,.21.25,1.35,1.35,0,0,1,.16.27,1.09,1.09,0,0,1,.11.28c0,.12-.06.31-.27.54a7.51,7.51,0,0,1-.74.76c-.29.25-.57.46-.84.65a1.48,1.48,0,0,1-.59.29.45.45,0,0,1-.27-.08.77.77,0,0,1-.23-.19c0-.06-.17-.21-.36-.44s-.37-.48-.61-.76-.44-.52-.63-.75L144.9,16c-.09-.09-.25-.25-.49-.51s-.5-.48-.77-.75l-.76-.76-.5-.5h-.15a1.52,1.52,0,0,0-.82.4c-.33.25-.73.56-1.17.94L138.85,16c-.5.44-1,.86-1.49,1.26a10,10,0,0,1-1.45.95,2.5,2.5,0,0,1-1.26.39h-.15l-.1,0-2-1.95a.36.36,0,0,1-.09-.17.57.57,0,0,1-.06-.12C132.36,16.23,132.55,16.06,132.91,15.83Z"/><path class="cls-1" d="M160.1,9.72a13.7,13.7,0,0,1,.7-1.64c.23-.5.46-.94.67-1.34a2.05,2.05,0,0,0,.31-.92.1.1,0,0,0,0-.07.43.43,0,0,0-.12-.14,2.21,2.21,0,0,1-.32,0H161a12,12,0,0,0-1.49.1c-.51.08-1,.17-1.52.27l-1.47.25a10.56,10.56,0,0,1-1.49.11.72.72,0,0,1-.61-.25,1.26,1.26,0,0,1-.23-.61,3.28,3.28,0,0,1,0-.78c0-.27,0-.52,0-.73a.7.7,0,0,1,.57-.72c.31,0,.78-.08,1.43-.12s1.36-.13,2.16-.19,1.66-.13,2.56-.19,1.74-.13,2.56-.21l2.19-.17,1.42-.1c.47,0,1-.09,1.5-.11s1,0,1.55,0h.25a1.26,1.26,0,0,1,.27,0,.53.53,0,0,1,.26.13.32.32,0,0,1,.08.25V4.77l-.27.27A22.92,22.92,0,0,0,168,5.4a7.62,7.62,0,0,0-2.48.88A5,5,0,0,0,163.71,8a5,5,0,0,0-.69,2.77,3.72,3.72,0,0,0,.53,2.08,3.8,3.8,0,0,0,1.36,1.34,7.62,7.62,0,0,0,1.89.8,17.54,17.54,0,0,0,2.1.46c.13,0,.17.09.17.23v.28a6.28,6.28,0,0,1-.06.77,4.26,4.26,0,0,1-.26.88,2.17,2.17,0,0,1-.46.74.84.84,0,0,1-.69.31,7.91,7.91,0,0,1-2.88-.54,8.17,8.17,0,0,1-4.26-3.8,6,6,0,0,1-.67-2.79A5.16,5.16,0,0,1,160.1,9.72ZM166.8,8a.37.37,0,0,1,.13-.29,1.18,1.18,0,0,1,.29-.26,1.39,1.39,0,0,1,.38-.12l.33,0a.81.81,0,0,1,.55.25,3,3,0,0,1,.48.61,2.58,2.58,0,0,1,.38.69,1.34,1.34,0,0,1,.15.57.67.67,0,0,1-.42.63,1.87,1.87,0,0,1-.8.21h-.21s-.08-.07-.13-.15l-.23-.38c-.1-.19-.23-.38-.33-.59s-.23-.4-.34-.58-.19-.34-.23-.4Zm2.5-1.32a2.59,2.59,0,0,1,.33-.19,1,1,0,0,1,.36-.13l.3,0a1.62,1.62,0,0,1,.31,0,.36.36,0,0,1,.27.13s.11.14.21.31.26.34.4.53l.36.6a1.23,1.23,0,0,1,.17.53.51.51,0,0,1-.15.29,1.26,1.26,0,0,1-.38.3,3,3,0,0,1-.4.17.64.64,0,0,1-.29.08A.84.84,0,0,1,170.2,9a4.59,4.59,0,0,1-.5-.65,7.69,7.69,0,0,1-.38-.76,1.73,1.73,0,0,1-.15-.65A.34.34,0,0,1,169.3,6.66Z"/><path class="cls-1" d="M177.39,11.91a.22.22,0,0,0-.13,0A1.6,1.6,0,0,0,177,12a1.23,1.23,0,0,0-.23.11.22.22,0,0,1-.13,0,.07.07,0,0,1-.06,0,.65.65,0,0,1-.5-.27,3.46,3.46,0,0,1-.42-.65,3.34,3.34,0,0,1-.3-.76,2.15,2.15,0,0,1-.12-.65c0-.06,0-.13,0-.21a18.39,18.39,0,0,0,2-2.27c.57-.76,1.2-1.55,1.87-2.35l.15-.08a.37.37,0,0,1,.15,0H181a.89.89,0,0,0,.67-.35,6.29,6.29,0,0,0,.61-.89,11.19,11.19,0,0,0,.59-1.15c.19-.4.38-.78.54-1.13A5.76,5.76,0,0,1,184,.5c.19-.23.36-.35.52-.35A2.77,2.77,0,0,1,186,.42a1.65,1.65,0,0,1,.63.59,2.58,2.58,0,0,1,.32.61.39.39,0,0,0,.42.27h7l.29.36a2,2,0,0,0,0,.23v.33a1.28,1.28,0,0,0,0,.28,2.43,2.43,0,0,1,0,.44,1.6,1.6,0,0,1-.14.42.36.36,0,0,1-.3.19h-8.54a.37.37,0,0,0-.27.16.53.53,0,0,0-.15.32,1,1,0,0,0,0,.21c0,.08.06.15.13.15h7.55a.54.54,0,0,1,.34.14.46.46,0,0,1,.21.34v5.75s0,0-.06,0a.26.26,0,0,1-.07.09,1.93,1.93,0,0,0-.16.15l-.13.06h-4.47l-.13.12a2.08,2.08,0,0,1-.15.24.76.76,0,0,0-.1.16.25.25,0,0,0,0,.11c0,.06,0,.12.12.23s.13.13.15.13h3.93l1.11.63a.27.27,0,0,1,.06.12.43.43,0,0,1,.09.15v.08a1.46,1.46,0,0,1-.25.69,5,5,0,0,1-.59.8,9.71,9.71,0,0,1-.63.74c-.23.23-.38.4-.49.5a.68.68,0,0,0,0,.21c0,.27.15.44.49.5a6.39,6.39,0,0,0,1.07.13,5,5,0,0,1,1.07.11.51.51,0,0,1,.48.52.75.75,0,0,1,0,.21c0,.06-.11.19-.21.38a6,6,0,0,1-.36.57,2,2,0,0,1-.44.52.79.79,0,0,1-.48.21,5,5,0,0,1-1.28-.17c-.42-.12-.84-.25-1.24-.4a11.9,11.9,0,0,0-1.24-.4,4.46,4.46,0,0,0-1.26-.18,4.6,4.6,0,0,0-1.28.18,12.23,12.23,0,0,0-1.26.4c-.42.15-.84.28-1.26.4a5.15,5.15,0,0,1-1.3.17.9.9,0,0,1-.55-.19,2.54,2.54,0,0,1-.44-.48,2.91,2.91,0,0,1-.31-.61,1.84,1.84,0,0,1-.11-.55.52.52,0,0,1,.25-.42,2.37,2.37,0,0,1,.63-.18l.8-.07a5.17,5.17,0,0,0,.82-.06,1.8,1.8,0,0,0,.63-.21.46.46,0,0,0,.25-.44c0-.21,0-.36-.12-.4a1.18,1.18,0,0,0-.44-.17c-.21.11-.4.21-.59.29a1.36,1.36,0,0,1-.61.13.79.79,0,0,1-.44-.17,1.7,1.7,0,0,1-.46-.35l-.42-.42a3.49,3.49,0,0,0-.3-.32v-.15c0-.06.15-.21.42-.46s.61-.52,1-.8l1.05-.83a6,6,0,0,0,.65-.57.86.86,0,0,0,0-.21.34.34,0,0,0-.19-.34,1.45,1.45,0,0,0-.42-.12,2.58,2.58,0,0,1-.42-.11.32.32,0,0,1-.19-.33V7.14c0-.06-.06-.15-.19-.27a2.61,2.61,0,0,0-.46-.34,3.68,3.68,0,0,0-.54-.25,1.16,1.16,0,0,0-.42-.13.7.7,0,0,0-.45.23,3.17,3.17,0,0,0-.42.51q-.18.32-.33.63a1.89,1.89,0,0,1-.25.46V19.19a.5.5,0,0,1-.09.11,1.59,1.59,0,0,0-.12.16l-.17.17c-.06.07-.11.11-.13.11h-1.8s-.07,0-.13-.11-.13-.12-.17-.17a1.59,1.59,0,0,0-.12-.16.5.5,0,0,1-.09-.11V12.05s0,0-.08-.08-.09-.06-.13-.06h-.12Zm-2-7.84.09-.14a.45.45,0,0,1,.06-.15,6.11,6.11,0,0,0,.5-.48l.76-.78.76-.76.5-.5c.06-.06.15-.17.23-.27a2,2,0,0,1,.3-.38,1.43,1.43,0,0,1,.33-.32.61.61,0,0,1,.4-.14,2.17,2.17,0,0,1,.44.1,3,3,0,0,1,.67.23c.23.11.42.23.61.34a.5.5,0,0,1,.25.38,1.29,1.29,0,0,1-.29.67,8.65,8.65,0,0,1-.73.94,13.4,13.4,0,0,1-1,1c-.36.36-.72.67-1.05,1a6.53,6.53,0,0,1-.88.69,1.13,1.13,0,0,1-.55.27.79.79,0,0,1-.44-.18,1.78,1.78,0,0,1-.46-.45,2.68,2.68,0,0,1-.36-.52,1,1,0,0,1-.15-.48Zm11.11,3.28c0,.06.1.08.23.08h3.65c.07,0,.11,0,.13-.12a.59.59,0,0,0,0-.17.62.62,0,0,0,0-.17.13.13,0,0,0-.13-.1h-3.78c-.08,0-.14,0-.14.12a.56.56,0,0,0,0,.17A.27.27,0,0,0,186.52,7.35Zm.13,2.35a.63.63,0,0,0,.25.11h3.36c.14,0,.23-.05.25-.11a.82.82,0,0,0,0-.25.76.76,0,0,0,0-.25c0-.07-.11-.09-.25-.09h-3.51a1,1,0,0,0-.13.11.4.4,0,0,0-.14.17v.06A.3.3,0,0,0,186.65,9.7Zm1,5.52a1.16,1.16,0,0,0,.59.19,1.22,1.22,0,0,0,.61-.17.48.48,0,0,0,.29-.48.46.46,0,0,0-.08-.25.37.37,0,0,0-.23-.09,1.14,1.14,0,0,0-.27,0h-.51a1.62,1.62,0,0,0-.31,0,2.09,2.09,0,0,0-.3.11.28.28,0,0,0-.12.25A.47.47,0,0,0,187.65,15.22Z"/><path class="cls-1" d="M200.28,11.34l.27-.34h4.2s.08-.06.21-.19a1.69,1.69,0,0,0,.21-.31s0,0,0,0v-.09a1,1,0,0,0,0-.21A.16.16,0,0,0,205,10h-2a.42.42,0,0,1-.38-.26c-.08-.16-.15-.35-.23-.56a3.77,3.77,0,0,0-.27-.57.6.6,0,0,0-.53-.25h-.14l-.13,0-2.37,1h-.13a1.09,1.09,0,0,0-.15,0,.74.74,0,0,1-.46-.19,1.23,1.23,0,0,1-.35-.46,3.46,3.46,0,0,1-.24-.57,1.46,1.46,0,0,1-.08-.48.58.58,0,0,1,.42-.57,4.05,4.05,0,0,0,.42-.13l.63-.21.63-.23.42-.12.15-.13.12-.15s0,0,0-.06a.68.68,0,0,0-.27-.57,5.51,5.51,0,0,0-.59-.4,3.64,3.64,0,0,1-.59-.37.69.69,0,0,1-.25-.55.7.7,0,0,1,.09-.4,1.16,1.16,0,0,0,.08-.42.28.28,0,0,0-.1-.23L198.53,3l-.27-.12a1.55,1.55,0,0,1-.23-.21s0-.17,0-.36V1.6a1,1,0,0,1,0-.36.5.5,0,0,1,.17-.27c.06-.09.19-.13.38-.13H206c.06,0,.12,0,.23.11a.83.83,0,0,1,.19.18c0,.21,0,.59,0,1.14s0,1.11,0,1.72,0,1.2,0,1.74,0,.93.05,1.14V9a.49.49,0,0,0,.33.25,3.42,3.42,0,0,0,.44,0,1.76,1.76,0,0,0,.34,0c.1,0,.15-.11.15-.25a1.12,1.12,0,0,0-.09-.44,2.15,2.15,0,0,0-.21-.4c-.06-.15-.12-.28-.19-.42a1.17,1.17,0,0,1-.08-.44.54.54,0,0,1,0-.22c0-.06.11-.1.23-.18a2.72,2.72,0,0,1,.34-.11,3.52,3.52,0,0,1,.52-.17l.51-.16a2.38,2.38,0,0,1,.31-.13,1.2,1.2,0,0,0,.38-.21.37.37,0,0,0,.21-.34.51.51,0,0,0-.25-.44L209,5a4.73,4.73,0,0,1-.52-.32.52.52,0,0,1-.26-.46.76.76,0,0,1,.17-.44.5.5,0,0,0,.13-.42.85.85,0,0,0-.19-.38c-.11-.06-.19-.15-.3-.21a1.37,1.37,0,0,1-.27-.27,1.22,1.22,0,0,1-.1-.53V1.66a1.29,1.29,0,0,1,.08-.38.91.91,0,0,1,.19-.29.33.33,0,0,1,.32-.15h7.26a.69.69,0,0,1,.34.19c.14.1.23.19.23.23v7a1.35,1.35,0,0,1-.3.91,1.84,1.84,0,0,1-.73.5,4,4,0,0,1-.93.23c-.33,0-.65,0-.92,0h-1.05a.92.92,0,0,1-.34-.48,5.43,5.43,0,0,1-.18-.61,1.71,1.71,0,0,0-.28-.52.63.63,0,0,0-.52-.23l-.4.08-.84.23a4.33,4.33,0,0,0-.84.31c-.25.13-.38.26-.38.38v1.54l.3.35h5.45a.33.33,0,0,1,.3.25,1,1,0,0,1,.12.38v7.56a.81.81,0,0,1-.1.36.34.34,0,0,1-.32.19h-2.24l-.27-.21c-.15-.11-.26-.17-.3-.21s-.06,0-.15-.07l-.12-.06h-7.56l-.27.21-.3.21a.48.48,0,0,1-.14.06.32.32,0,0,1-.13.07h-2.1l-.27-.28Zm2.24-5.27a2,2,0,0,1,.34.78c0,.27.08.54.1.77s.15.36.38.36a.53.53,0,0,0,.38-.21.54.54,0,0,0,.19-.34V3.65a.89.89,0,0,0-.17-.33c-.1-.15-.19-.23-.25-.23h-2.1c-.08,0-.1,0-.13.1a.8.8,0,0,0,0,.19v.13l.72.69a.2.2,0,0,0,0,.08v.11a.52.52,0,0,1-.07.29l-.16.3a2,2,0,0,1-.17.27.68.68,0,0,0-.06.29.71.71,0,0,0,0,.21A1.09,1.09,0,0,1,202.52,6.07Zm.74,7.68c0,.09.06.11.08.11h7.86c.06,0,.12,0,.12-.11a.52.52,0,0,0,0-.17.39.39,0,0,0-.12-.27.46.46,0,0,0-.32-.14h-7.26a.45.45,0,0,0-.3.14.39.39,0,0,0-.12.27A.28.28,0,0,0,203.26,13.75Zm.08,3.07a.53.53,0,0,0,.3.12h7.26a.53.53,0,0,0,.32-.12.48.48,0,0,0,.12-.3.32.32,0,0,0-.19-.31.87.87,0,0,0-.37-.11h-7a.88.88,0,0,0-.35.11.32.32,0,0,0-.19.31A.48.48,0,0,0,203.34,16.82Zm9.26-9h.21c.21,0,.36-.12.46-.4a3.27,3.27,0,0,0,.17-.9,8.85,8.85,0,0,0,0-1c0-.33,0-.56,0-.69V4.24a2.11,2.11,0,0,0,0-.36V3.65a2.24,2.24,0,0,0-.15-.33c-.1-.15-.19-.23-.27-.23h-1.8c-.09,0-.15,0-.15.1a.8.8,0,0,0,0,.19v.08a.1.1,0,0,1,0,0,1.13,1.13,0,0,0,.25.29c.17.13.25.23.32.27V5.33a1.89,1.89,0,0,1,1,.3c.26.19.36.58.36,1.17,0,0,0,.07,0,.07a.18.18,0,0,1-.06.1l-.15.19-.13.17-.08.1a.37.37,0,0,0-.06.15.33.33,0,0,0-.06.13A.13.13,0,0,0,212.6,7.85Z"/><path class="cls-1" d="M226.53,1.26l.12.15a2,2,0,0,0,0,.23V2c0,1.6,0,3.17-.14,4.75s-.15,3.13-.15,4.72v2.44a2,2,0,0,0,.94,1.55,3.73,3.73,0,0,0,1.77.42,5.13,5.13,0,0,0,1.7-.27,11,11,0,0,0,1.55-.72,10.55,10.55,0,0,0,1.32-.9,14,14,0,0,0,1.1-.92c.31-.27.56-.51.75-.69s.32-.28.38-.28a.94.94,0,0,1,.63.28,3.92,3.92,0,0,1,1.13,1.49,1.44,1.44,0,0,1,.21.67.78.78,0,0,1-.19.42,1.86,1.86,0,0,1-.23.35,13.32,13.32,0,0,1-3.86,2.9,10.46,10.46,0,0,1-4.68,1A7.81,7.81,0,0,1,227,19a6.25,6.25,0,0,1-1.87-.74,4.5,4.5,0,0,1-1.39-1.32,3.38,3.38,0,0,1-.54-1.91V1.26Z"/><path class="cls-1" d="M249.39,18l-.25-.89c-.1-.29-.19-.58-.27-.88s-.13-.46-.17-.59a4.17,4.17,0,0,0-.17-.56c-.08-.3-.21-.63-.31-1s-.25-.69-.36-1.05l-.27-.75c0-.17-.13-.4-.19-.7s-.19-.56-.29-.84a3.44,3.44,0,0,0-.42-.69.77.77,0,0,0-.61-.31.56.56,0,0,0-.17,0h-.15l-2.22,1.11s-.07,0-.13,0a.41.41,0,0,1-.15,0,.74.74,0,0,1-.56-.29,4.48,4.48,0,0,1-.47-.72,3.63,3.63,0,0,1-.29-.8,3,3,0,0,1-.1-.58V8.31a.16.16,0,0,1,.14-.18l.65-.17c.34-.09.7-.21,1.05-.34a5.88,5.88,0,0,0,1-.5.81.81,0,0,0,.42-.61,1.3,1.3,0,0,0-.25-.76,6.16,6.16,0,0,0-.53-.73c-.19-.23-.35-.48-.52-.72a1.22,1.22,0,0,1-.25-.73.6.6,0,0,1,.31-.5,2.65,2.65,0,0,1,.71-.38,8,8,0,0,1,.84-.23,2.94,2.94,0,0,1,.68-.09h.25s.1,0,.17.15L247.86,5c.09.15.17.25.23.27a.83.83,0,0,0,.34,0,2.12,2.12,0,0,0,.54-.1,4.84,4.84,0,0,0,.87-.27,4.86,4.86,0,0,0,.79-.4.68.68,0,0,0,.34-.53c0-.08,0-.12,0-.12l-1.83-2s0,0,0-.08v-.1a.78.78,0,0,1,.19-.49c.15-.14.31-.29.5-.44a3.32,3.32,0,0,1,.59-.31,1.2,1.2,0,0,1,.5-.13,1.14,1.14,0,0,1,.59.23,8.41,8.41,0,0,1,.76.51c.25.21.46.42.67.6a1,1,0,0,1,.3.49v.42c-.17.14-.34.29-.53.48a.75.75,0,0,0-.29.61c.46,0,.9,0,1.34-.06a12.14,12.14,0,0,1,1.36-.07,6.36,6.36,0,0,1,2,.32,5.7,5.7,0,0,1,1.72.88A4.57,4.57,0,0,1,260,6.26a3.89,3.89,0,0,1,.48,1.93,4.75,4.75,0,0,1-.44,2.06,4.56,4.56,0,0,1-1.16,1.51,5.32,5.32,0,0,1-1.67,1,6.5,6.5,0,0,1-2,.32h-.61a9.51,9.51,0,0,1-1.05-.06,8.16,8.16,0,0,1-1-.21c-.31-.11-.46-.26-.46-.44V10.08c0-.13,0-.21.15-.23a1.47,1.47,0,0,1,.27,0,4.57,4.57,0,0,1,1.11.16,6.6,6.6,0,0,0,1.14.26h.06a2.6,2.6,0,0,0,1.64-.55,1.77,1.77,0,0,0,.69-1.49,1.83,1.83,0,0,0-.29-1.09,1.53,1.53,0,0,0-1-.65h-.48a1.42,1.42,0,0,1-.3,0h-.18a7.11,7.11,0,0,0-.76.06c-.34.06-.69.12-1.11.21s-.82.17-1.24.29a9.89,9.89,0,0,0-1.16.38,5.61,5.61,0,0,0-.86.48.78.78,0,0,0-.33.55l.06.19a1.2,1.2,0,0,0,.06.23c.57,1.49,1.11,2.94,1.68,4.39s1.07,2.94,1.56,4.43v.29a.66.66,0,0,1-.4.59,2.68,2.68,0,0,1-.89.31,4.23,4.23,0,0,1-.9.15,2.15,2.15,0,0,0-.48.06,1,1,0,0,1-.32-.16.78.78,0,0,1-.25-.26C249.52,18.52,249.46,18.33,249.39,18Z"/><path class="cls-1" d="M268.5,17a.18.18,0,0,1,.15-.16c.51-.13,1.05-.32,1.64-.51a8.65,8.65,0,0,0,1.59-.75.27.27,0,0,0,.09-.13.29.29,0,0,0,0-.15c0-.21-.25-.39-.61-.54a8.36,8.36,0,0,1-1.15-.63A4.34,4.34,0,0,1,269.16,13a3.23,3.23,0,0,1-.51-1.93A3,3,0,0,1,269,9.6a4.06,4.06,0,0,1,.88-1.1A5.5,5.5,0,0,1,271,7.73a12.26,12.26,0,0,1,1.16-.57l.88-.38c.23-.1.36-.19.36-.27a1.92,1.92,0,0,0,0-.3.25.25,0,0,0-.26-.18h-8l-.3-.28V3.65l.3-.35h7.13a1.36,1.36,0,0,0,.74-.17.87.87,0,0,0,.36-.44,2.18,2.18,0,0,0,.06-.65c0-.23,0-.49,0-.78l.27-.27h2.67l.27.27a2.62,2.62,0,0,1,0,.32V2a4.21,4.21,0,0,0,0,.5.9.9,0,0,0,.13.4.6.6,0,0,0,.14.13c.07.06.11.08.13.08H282c.09,0,.17.06.25.19a1.1,1.1,0,0,1,.17.31V5.17a1.29,1.29,0,0,1-.14.58.26.26,0,0,0-.07.13s-.06.08-.08.08h-5.17l-.29.34v.17c0,.08,0,.16,0,.29s0,.21,0,.32,0,.16,0,.23a5.46,5.46,0,0,0,.12,1.17c.09.36.17.74.28,1.09a10.12,10.12,0,0,1,.25,1.12,5.47,5.47,0,0,1,.12,1.15,6.91,6.91,0,0,1-.52,2.5,9.83,9.83,0,0,1-1.43,2.42,8.63,8.63,0,0,1-2.08,1.84,4.36,4.36,0,0,1-2.47.74s-.07,0-.09,0a1.71,1.71,0,0,1-.25-.07l-.17-.06-1.8-1.83s0,0,0-.06V17Zm3.45-5.1a1.2,1.2,0,0,0,.9.34,1.25,1.25,0,0,0,.95-.38,1.35,1.35,0,0,0,.33-1,1.18,1.18,0,0,0-.33-.89,1.29,1.29,0,0,0-.89-.31A1.32,1.32,0,0,0,272,10a1.13,1.13,0,0,0-.4.93A1.27,1.27,0,0,0,272,11.86Z"/><path class="cls-1" d="M287.22,3.3V3.09l.27-.28h2.79l.3.28c0,.25,0,.67,0,1.26v3.8c0,.58,0,1,0,1.24s0,.69.06,1.21a7.44,7.44,0,0,0,.23,1.56,5.84,5.84,0,0,0,.55,1.4,1.36,1.36,0,0,0,1,.72.79.79,0,0,0,.65-.17,2.14,2.14,0,0,0,.47-.61,7,7,0,0,0,.33-.82c.11-.29.21-.59.32-.84a3.45,3.45,0,0,1,.27-.65c.1-.19.21-.27.36-.27a.87.87,0,0,1,.63.29,5.07,5.07,0,0,1,.63.67,4.32,4.32,0,0,1,.5.84,2,2,0,0,1,.21.76,4,4,0,0,1-.38,1.62,6.66,6.66,0,0,1-1,1.51A6.08,6.08,0,0,1,294,17.76a2.84,2.84,0,0,1-1.55.46,3.4,3.4,0,0,1-2.42-.86,6.1,6.1,0,0,1-1.55-2.2,11.44,11.44,0,0,1-.86-3,28.35,28.35,0,0,1-.36-3.28c-.06-1.07-.08-2.08-.08-3V3.63C287.2,3.55,287.22,3.44,287.22,3.3Zm11,1.11a.58.58,0,0,1,.32-.48,3.49,3.49,0,0,1,.73-.32,6.34,6.34,0,0,1,.84-.19,4.43,4.43,0,0,1,.59-.06c.25,0,.55.21.86.63a7.68,7.68,0,0,1,.9,1.57,18.91,18.91,0,0,1,.84,2.15c.25.77.49,1.55.7,2.28s.37,1.41.5,2a6.8,6.8,0,0,1,.17,1.37.74.74,0,0,1-.34.58,3,3,0,0,1-.8.46,3.73,3.73,0,0,1-.92.32,3,3,0,0,1-.67.13s-.13-.19-.27-.59-.28-.88-.47-1.49-.35-1.24-.56-2-.42-1.4-.63-2.1-.4-1.28-.61-1.82A8.33,8.33,0,0,0,299,5.75l-.12-.23-.23-.35a2.62,2.62,0,0,1-.21-.34,1.26,1.26,0,0,1-.15-.21Z"/><path class="cls-1" d="M320.46.29s0,0,0-.06a.59.59,0,0,1,.11-.08.85.85,0,0,1,.14-.09l.13-.06h6l.42.42V2.1l-.42.5h-3.23s0,0-.1.07-.11.1-.17.14a.71.71,0,0,1-.15.15.33.33,0,0,0-.06.13V13h-2.73Z"/><path class="cls-1" d="M333.54,10.65l.42-.44c.17-.19.36-.38.55-.57a4.37,4.37,0,0,1,.61-.49,1,1,0,0,1,.59-.2,1.37,1.37,0,0,1,.92.35c.27.25.52.51.78.78a8.12,8.12,0,0,0,.77.78,1.39,1.39,0,0,0,.91.35,1.21,1.21,0,0,0,.58-.29,8.42,8.42,0,0,0,.86-.74c.32-.31.63-.65,1-1s.65-.75.92-1.11a5.57,5.57,0,0,0,.65-1,1.71,1.71,0,0,0,.3-.69,1,1,0,0,0,0-.19A.14.14,0,0,0,343.2,6H331.32L331.19,6a.68.68,0,0,1-.17-.08l-.08-.09,0,0V3.09a.31.31,0,0,1,0-.09.28.28,0,0,0,.08-.06l.17-.06.13-.07h15.39a1.42,1.42,0,0,1,.58.23,4.16,4.16,0,0,1,.72.55,4.45,4.45,0,0,1,.59.65,1.1,1.1,0,0,1,.25.53.53.53,0,0,1,0,.14.7.7,0,0,1,0,.13,41.7,41.7,0,0,1-3.26,4.47c-1.17,1.39-2.41,2.75-3.74,4.07,0,.05,0,.09,0,.15a1.39,1.39,0,0,0,.3.78,8.12,8.12,0,0,0,.65.78c.27.25.52.5.8.73a5,5,0,0,1,.65.65.43.43,0,0,0,0,.13,1.13,1.13,0,0,0,0,.14,1.11,1.11,0,0,1-.29.61,3.57,3.57,0,0,1-.7.7,3.62,3.62,0,0,1-.82.56,1.48,1.48,0,0,1-.71.25,4.25,4.25,0,0,1-.69-.6c-.42-.4-.93-.91-1.54-1.52s-1.26-1.26-2-2l-1.93-2c-.59-.59-1.09-1.09-1.47-1.51a7.21,7.21,0,0,1-.59-.65A.71.71,0,0,1,333.54,10.65Z"/><path class="cls-1" d="M353,13.73h16.79v3.21a.1.1,0,0,1-.06.07s-.06.06-.08.08l-.15.06-.13.07L353,17.09Zm1.68-9.8a.79.79,0,0,1,0-.13c0-.06.06-.13.08-.15a.5.5,0,0,1,.07-.08s.06-.06.08-.06h12.87l.29.27V6.72H354.9l-.27-.27Z"/><path class="cls-1" d="M376.38,15.33h8c.11,0,.21-.21.32-.61s.21-.88.29-1.41.15-1,.19-1.51.06-.82.06-.94v-.32a2.5,2.5,0,0,1,0-.31A.49.49,0,0,0,385,10a1.14,1.14,0,0,0-.3-.07h-6.29l-.3-.29V7.14l.15-.13h.44c.27,0,.65,0,1.11,0s1,0,1.6,0l1.78,0c.59,0,1.18,0,1.75,0l1.44,0h.42a3,3,0,0,1,.66.1,3,3,0,0,1,.73.32,1.89,1.89,0,0,1,.61.46.92.92,0,0,1,.25.63v.23c0,.12,0,.21,0,.21l-.84,5.46v.54a.79.79,0,0,0,0,.23.48.48,0,0,0,.09.19.18.18,0,0,0,.18.09h2.38l.27.35v2.38l-.27.29H376.53a.41.41,0,0,1-.29-.15.4.4,0,0,1-.13-.27V15.68Z"/><path class="cls-1" d="M407.4,8.61a1.17,1.17,0,0,1,.33-.72,10,10,0,0,1,.8-.77c.3-.25.59-.51.88-.74a4,4,0,0,0,.65-.63V5.54a.7.7,0,0,0-.1-.33.31.31,0,0,0-.32-.17h-11.9s0,0-.06-.06-.07-.07-.09-.07a.82.82,0,0,0-.06-.16.4.4,0,0,1-.06-.13V2.39a.52.52,0,0,1,.14-.29.41.41,0,0,1,.28-.13h15.39a1.81,1.81,0,0,1,.27.11,2,2,0,0,1,.29.17c.09.08.19.19.34.31l.42.4c.15.15.25.25.36.38a.92.92,0,0,1,.14.17v.42s-.06.08-.16.25a3.7,3.7,0,0,0-.4.57c-.13.21-.3.44-.44.69s-.3.44-.4.59-.42.63-.78,1.11a14.74,14.74,0,0,1-1.13,1.43,14.74,14.74,0,0,1-1.22,1.26,1.55,1.55,0,0,1-1,.54,1.11,1.11,0,0,1-.59-.19,3.9,3.9,0,0,1-.61-.48c-.18-.19-.37-.38-.54-.57a2.76,2.76,0,0,1-.42-.44Zm-8.59,8a5.13,5.13,0,0,1,.57-.38l.65-.32a1.65,1.65,0,0,0,.5-.33,9.73,9.73,0,0,0,1.62-1.89,7.38,7.38,0,0,0,.86-2,10.5,10.5,0,0,0,.32-2.17c0-.75,0-1.59,0-2.52a.44.44,0,0,1,.14-.27.31.31,0,0,1,.28-.15h2.37a.6.6,0,0,1,.31.17l.26.25a2,2,0,0,0,0,.28c0,.12,0,.27,0,.42a3.13,3.13,0,0,0,0,.44c0,.12,0,.21,0,.25v.15a16.92,16.92,0,0,1-.23,2.75,11.28,11.28,0,0,1-.76,2.64,10,10,0,0,1-1.34,2.35,8.41,8.41,0,0,1-2,1.91c-.23.15-.44.32-.68.47a1.19,1.19,0,0,1-.73.25,1.57,1.57,0,0,1-.71-.21,4.72,4.72,0,0,1-.84-.49,3,3,0,0,1-.7-.62,1,1,0,0,1-.29-.59A.58.58,0,0,1,398.81,16.57Z"/><path class="cls-1" d="M418.63,16.21l.95-1.34,1-1.47a12.23,12.23,0,0,0,.63-1.07,12.27,12.27,0,0,0,.59-2.46,23.45,23.45,0,0,0,.2-2.65c0-.9,0-1.78,0-2.66s-.06-1.7-.06-2.46l.15-.27H425l.12.14a.89.89,0,0,0,0,.19V3.44c0,1.35,0,2.71,0,4.1a25.5,25.5,0,0,1-.4,4.05,14.84,14.84,0,0,1-1.19,3.76,10.71,10.71,0,0,1-2.46,3.27.47.47,0,0,0-.15,0h-.12a2.37,2.37,0,0,1-.76-.14,5.2,5.2,0,0,1-.82-.4,3.79,3.79,0,0,1-.67-.55.83.83,0,0,1-.29-.61A2.28,2.28,0,0,1,418.63,16.21ZM430.86,1.83l.06.06A.11.11,0,0,1,431,2s.06.09.11.15a.79.79,0,0,1,0,.13V13.44c0,.06.06.12.21.19l.21.1a7.39,7.39,0,0,0,2.12-1.38c.59-.57,1.2-1.18,1.8-1.85a.28.28,0,0,0,.13-.06.31.31,0,0,1,.15-.07.88.88,0,0,1,.54.3,4,4,0,0,1,.55.69c.17.27.31.55.44.8a2.12,2.12,0,0,1,.17.59,1.66,1.66,0,0,1-.49.83,16.45,16.45,0,0,1-1.25,1.22c-.51.44-1.08.91-1.68,1.37s-1.22.9-1.79,1.28a12.35,12.35,0,0,1-1.55.94,2.67,2.67,0,0,1-1,.38,1.73,1.73,0,0,1-.51-.15,3.37,3.37,0,0,1-.61-.4,6.2,6.2,0,0,1-.54-.46.67.67,0,0,1-.23-.4V1.83Z"/><path class="cls-1" d="M439.89,17.64l.42-.49h3.21l.13-.06.14-.15c0-.06.11-.1.15-.16a.24.24,0,0,0,.06-.11v-10h2.73V19.46a.1.1,0,0,1-.06.07s-.06.06-.06.08l-.17.06a.27.27,0,0,1-.13.07h-6l-.42-.42Z"/><path class="cls-1" d="M468.8,9.72a13.7,13.7,0,0,1,.7-1.64c.23-.5.46-.94.67-1.34a2.05,2.05,0,0,0,.31-.92.1.1,0,0,0,0-.07.43.43,0,0,0-.12-.14,2.21,2.21,0,0,1-.32,0h-.31a12.32,12.32,0,0,0-1.5.1L466.7,6l-1.47.25a10.56,10.56,0,0,1-1.49.11.72.72,0,0,1-.61-.25,1.26,1.26,0,0,1-.23-.61,3.28,3.28,0,0,1,0-.78c0-.27,0-.52,0-.73a.7.7,0,0,1,.57-.72c.32,0,.78-.08,1.43-.12s1.36-.13,2.16-.19,1.66-.13,2.56-.19,1.74-.13,2.56-.21l2.19-.17,1.42-.1c.47,0,1-.09,1.5-.11s1,0,1.55,0h.25a1.26,1.26,0,0,1,.27,0,.53.53,0,0,1,.26.13.32.32,0,0,1,.08.25V4.77l-.27.27a22.92,22.92,0,0,0-2.73.36,7.7,7.7,0,0,0-2.48.88A5,5,0,0,0,472.41,8a5,5,0,0,0-.69,2.77,3.72,3.72,0,0,0,.53,2.08,3.8,3.8,0,0,0,1.36,1.34,7.62,7.62,0,0,0,1.89.8,17.54,17.54,0,0,0,2.1.46c.13,0,.17.09.17.23v.28a6.28,6.28,0,0,1-.06.77,4.26,4.26,0,0,1-.26.88,2.17,2.17,0,0,1-.46.74.84.84,0,0,1-.69.31,7.91,7.91,0,0,1-2.88-.54,8.17,8.17,0,0,1-4.26-3.8,6,6,0,0,1-.67-2.79A5.16,5.16,0,0,1,468.8,9.72ZM475.5,8a.37.37,0,0,1,.13-.29,1.18,1.18,0,0,1,.29-.26,1.39,1.39,0,0,1,.38-.12l.33,0a.81.81,0,0,1,.55.25,3,3,0,0,1,.48.61,2.58,2.58,0,0,1,.38.69,1.34,1.34,0,0,1,.15.57.67.67,0,0,1-.42.63,1.87,1.87,0,0,1-.8.21h-.21s-.08-.07-.13-.15l-.23-.38c-.1-.19-.23-.38-.33-.59s-.23-.4-.34-.58-.19-.34-.23-.4ZM478,6.66a2.59,2.59,0,0,1,.33-.19,1,1,0,0,1,.36-.13l.3,0a1.62,1.62,0,0,1,.31,0,.38.38,0,0,1,.27.13s.11.14.21.31.26.34.4.53l.36.6a1.39,1.39,0,0,1,.17.53.58.58,0,0,1-.15.29,1.26,1.26,0,0,1-.38.3,3,3,0,0,1-.4.17.64.64,0,0,1-.29.08A.84.84,0,0,1,478.9,9a4.59,4.59,0,0,1-.5-.65,6,6,0,0,1-.38-.76,2,2,0,0,1-.15-.65A.37.37,0,0,1,478,6.66Z"/><path class="cls-1" d="M485.31,13.42a4,4,0,0,1,.86-1.05,8.63,8.63,0,0,1,1.11-.86,13.09,13.09,0,0,0,1.1-.82,5,5,0,0,0,.86-.93,2.1,2.1,0,0,0,.35-1.21V8.11a4.73,4.73,0,0,0,0-.53.93.93,0,0,0-.21-.46.54.54,0,0,0-.46-.19h-2.79s-.07,0-.13-.13a1.07,1.07,0,0,0-.17-.21.82.82,0,0,0-.06-.16.4.4,0,0,1-.06-.13V4.49l.27-.35h3.21s.06-.07.13-.15a2.25,2.25,0,0,0,.17-.21,1.55,1.55,0,0,0,.08-.15.79.79,0,0,0,0-.12V1.13l.3-.29h2.51c.05,0,.11.08.19.21s.09.21.09.21v.15a2.09,2.09,0,0,1,0,.29,5.48,5.48,0,0,1,0,.55,2.22,2.22,0,0,0-.07.54,2.12,2.12,0,0,0,0,.3.64.64,0,0,0,.09.29.4.4,0,0,0,.2.27h.49a4.17,4.17,0,0,0,1.13-.14,4.68,4.68,0,0,1,1.14-.15,1.81,1.81,0,0,1,.29,0c.11,0,.17.11.17.25V5.88a.39.39,0,0,1-.28.36,2.69,2.69,0,0,1-.67.12l-.86.07a4,4,0,0,0-.88.16,1.54,1.54,0,0,0-.69.42,1.17,1.17,0,0,0-.28.84,2.76,2.76,0,0,0,.11.65.48.48,0,0,0,.5.34,11.22,11.22,0,0,0,1.45-.08,14.15,14.15,0,0,1,1.47-.09,10.34,10.34,0,0,1,2.25.25,6.53,6.53,0,0,1,1.91.8,4.2,4.2,0,0,1,1.87,3.66,4.75,4.75,0,0,1-.57,2.35,5.39,5.39,0,0,1-1.51,1.7,7.41,7.41,0,0,1-2.14,1,8.71,8.71,0,0,1-2.44.33.93.93,0,0,1-.69-.27,2.06,2.06,0,0,1-.46-.65,4.32,4.32,0,0,1-.25-.84,3.33,3.33,0,0,1-.09-.78.37.37,0,0,1,.06-.23.5.5,0,0,1,.23-.17c.4,0,.87-.06,1.43-.12a7.72,7.72,0,0,0,1.56-.36,4.2,4.2,0,0,0,1.26-.76,1.76,1.76,0,0,0,.52-1.36,1.65,1.65,0,0,0-.27-1,2.07,2.07,0,0,0-.72-.63,3.61,3.61,0,0,0-.94-.33,4.05,4.05,0,0,0-1-.11l-.65,0c-.36,0-.76.07-1.18.11a4.11,4.11,0,0,0-1.11.25c-.33.1-.5.27-.5.48V16.8a1.8,1.8,0,0,1-.23.88,2.19,2.19,0,0,1-.55.67,2.45,2.45,0,0,1-.8.42,2.94,2.94,0,0,1-.86.15,5.59,5.59,0,0,1-1.7-.3,5.32,5.32,0,0,1-1.64-.84,4.28,4.28,0,0,1-1.23-1.28,3,3,0,0,1-.49-1.66A2.88,2.88,0,0,1,485.31,13.42Zm3,1.89a1.06,1.06,0,0,0,.65.25,1,1,0,0,0,.42-.11.31.31,0,0,0,.21-.33V13.31c0-.08,0-.14-.15-.14a.47.47,0,0,0-.18,0c-.07,0-.13,0-.21,0-.32.27-.55.48-.74.67a1.12,1.12,0,0,0-.27.84A.8.8,0,0,0,488.29,15.31ZM497.53,4.7a4.58,4.58,0,0,1,.31-.63,3.43,3.43,0,0,1,.45-.61.65.65,0,0,1,.46-.25s.06,0,.06,0l1.05.47c.42.16.86.35,1.32.58a13.49,13.49,0,0,1,1.28.76,3.94,3.94,0,0,1,1,.84s0,0,0,.06a1.19,1.19,0,0,1-.15.53,4.34,4.34,0,0,1-.35.67,7,7,0,0,1-.44.61A.69.69,0,0,1,502,8a.3.3,0,0,1-.14,0l-1-.53c-.48-.25-1-.52-1.51-.82A14.74,14.74,0,0,1,498,5.75c-.4-.27-.61-.48-.61-.63A1.85,1.85,0,0,1,497.53,4.7Z"/><path class="cls-1" d="M511.92,9.45H516a.29.29,0,0,0,.25-.13.66.66,0,0,0,.19-.27,1.34,1.34,0,0,0,.1-.32.94.94,0,0,0,0-.25,1.92,1.92,0,0,0-.13-.59.42.42,0,0,0-.44-.33h-4.35a.54.54,0,0,0-.31.17,1.32,1.32,0,0,0-.23.25,1.89,1.89,0,0,0,0,.42c0,.21,0,.42,0,.63s0,.44-.06.63,0,.36,0,.42,0,.31-.06.57-.07.52-.09.81-.06.55-.08.78,0,.42,0,.51-.09.44-.15.83-.15.84-.25,1.35-.25,1-.4,1.53a12.85,12.85,0,0,1-.46,1.47,7.76,7.76,0,0,1-.53,1.11c-.19.3-.38.44-.59.44a2.26,2.26,0,0,1-.63-.12c-.23-.11-.46-.21-.69-.34a2.44,2.44,0,0,1-.57-.46.94.94,0,0,1-.23-.57,4.64,4.64,0,0,1,.19-1.15c.15-.46.3-.95.49-1.45l.52-1.47a8.26,8.26,0,0,0,.36-1.32c.14-.93.23-1.87.29-2.84s.09-1.91.11-2.87,0-1.91,0-2.86,0-1.87,0-2.77l.27-.27h15.68a.17.17,0,0,1,0,.06s.06.06.08.08a.68.68,0,0,1,.08.15.27.27,0,0,1,.07.13V7l-.07.11c0,.06-.06.12-.08.17l-.08.12,0,.09H520l-.1.08a.4.4,0,0,0-.17.13l-.17.16a.29.29,0,0,1-.11.11V9l.11.1a1.34,1.34,0,0,0,.17.17.67.67,0,0,0,.17.13.22.22,0,0,1,.1.08h4.35l.27.36v9.51a.35.35,0,0,1-.13.27.34.34,0,0,1-.29.15h-1.81l-.84-.42h-7a1.17,1.17,0,0,1-.73.4c-.23,0-.49,0-.8,0l-.32,0a4.1,4.1,0,0,1-.48,0,1.09,1.09,0,0,1-.42-.13.33.33,0,0,1-.19-.31V9.81Zm-.72-4.79a.52.52,0,0,0,.42.25h9.24a.47.47,0,0,0,.38-.23.59.59,0,0,0,.19-.4.78.78,0,0,0-.19-.54.58.58,0,0,0-.51-.23h-9a.7.7,0,0,0-.53.21.63.63,0,0,0-.18.48A.82.82,0,0,0,511.2,4.66Zm3.26,8.19c0,.13.1.17.25.17h1.41a.23.23,0,0,0,.25-.17,1,1,0,0,0,0-.31,1,1,0,0,0,0-.32.23.23,0,0,0-.25-.17h-1.41c-.15,0-.23,0-.25.17a1,1,0,0,0,0,.32A1,1,0,0,0,514.46,12.85Zm.23,3.74a2.57,2.57,0,0,0,.71.08,2.17,2.17,0,0,0,.36,0,1.11,1.11,0,0,0,.36-.08.7.7,0,0,0,.29-.19.48.48,0,0,0,.13-.34.53.53,0,0,0-.13-.36.6.6,0,0,0-.29-.18.91.91,0,0,0-.36-.09,2.17,2.17,0,0,0-.36,0,2.57,2.57,0,0,0-.71.08c-.19,0-.27.24-.27.57S514.5,16.54,514.69,16.59Zm4.81-3.74c0,.13.1.17.25.17h1.68a.23.23,0,0,0,.25-.17,1,1,0,0,0,0-.31,1,1,0,0,0,0-.32.23.23,0,0,0-.25-.17h-1.68c-.15,0-.23,0-.25.17a1.48,1.48,0,0,0,0,.32A1.5,1.5,0,0,0,519.5,12.85Zm.08,3.55a1,1,0,0,0,.31.19,2.33,2.33,0,0,0,.38.08h.78a1.8,1.8,0,0,0,.38-.08.73.73,0,0,0,.29-.21.6.6,0,0,0,.13-.42.42.42,0,0,0-.15-.34,1.26,1.26,0,0,0-.33-.17l-.4-.06h-.68a3.14,3.14,0,0,0-.4.08,1,1,0,0,0-.31.19.54.54,0,0,0-.13.38A.53.53,0,0,0,519.58,16.4Z"/><path class="cls-1" d="M529.54,6.17c.14-1.47.31-3,.5-4.49a1.15,1.15,0,0,1,.1-.23,1,1,0,0,1,.17-.19h.51c.12,0,.33,0,.61,0a6.28,6.28,0,0,1,.86,0,2.56,2.56,0,0,1,.77.17.46.46,0,0,1,.34.46,8.94,8.94,0,0,1-.19,1.85c-.1.61-.25,1.24-.38,1.87s-.27,1.26-.4,1.89a12.05,12.05,0,0,0-.16,1.89v1c0,.13,0,.21,0,.26a.13.13,0,0,0,.1.12.59.59,0,0,0,.17,0,.31.31,0,0,0,.27-.14,2.2,2.2,0,0,0,.19-.3c.06-.12.15-.21.21-.31a.34.34,0,0,1,.32-.09,1.14,1.14,0,0,1,.65.34.76.76,0,0,1,.33.61,7.12,7.12,0,0,1-.19,1.64c-.12.54-.27,1.09-.44,1.65s-.33,1.1-.48,1.66a7.41,7.41,0,0,0-.29,1.66,1.66,1.66,0,0,1-.44.36,3,3,0,0,1-.53.17,5.47,5.47,0,0,1-.59,0H531a.78.78,0,0,1-.65-.48,5.36,5.36,0,0,1-.47-1.22,12.4,12.4,0,0,1-.29-1.66c-.08-.59-.13-1.16-.17-1.72s-.06-1-.08-1.45,0-.72,0-.86A44.61,44.61,0,0,1,529.54,6.17Zm7.74,10.54c.26-.25.57-.54.91-.84l1-.92a4.19,4.19,0,0,0,.68-.8,6.15,6.15,0,0,0,.69-2.16,17.47,17.47,0,0,0,.15-2.25V8.69a.46.46,0,0,0-.42-.42c-.15,0-.4,0-.76,0l-1.13,0-1.16,0c-.36,0-.61,0-.73,0a1.52,1.52,0,0,1-.28,0L535.88,8a.68.68,0,0,1-.28-.17.4.4,0,0,1-.1-.29V5.61a.79.79,0,0,1,0-.13.83.83,0,0,1,.11-.15s0-.06.06-.08l.06-.06h4.35a.37.37,0,0,0,.29-.11,1.84,1.84,0,0,0,.17-.25,1.82,1.82,0,0,0,.08-.29,1.09,1.09,0,0,0,0-.3c0-.42,0-.86-.07-1.3a9,9,0,0,1-.08-1.28.89.89,0,0,1,.1-.36.37.37,0,0,1,.32-.17h2.37a.52.52,0,0,1,.29.13.44.44,0,0,1,.13.29V4.49a.49.49,0,0,0,.15.28.5.5,0,0,0,.27.14h2.39V7.56c0,.21-.12.33-.42.36s-.58,0-.92.06a7,7,0,0,0-1,.08.56.56,0,0,0-.5.49c0,1-.06,2-.15,2.91a14.14,14.14,0,0,1-.48,2.59,11.27,11.27,0,0,1-1,2.37,9.53,9.53,0,0,1-1.82,2.2c-.11.11-.28.21-.47.36a.78.78,0,0,1-.52.21,1.72,1.72,0,0,1-.72-.19,5.05,5.05,0,0,1-.77-.46,4.77,4.77,0,0,1-.65-.61,1.1,1.1,0,0,1-.26-.63C536.88,17.18,537,17,537.28,16.71Z"/><path class="cls-1" d="M558.35,14.21a2.32,2.32,0,0,1,1.66-.63,2.23,2.23,0,0,1,.86.17,2.71,2.71,0,0,1,.75.42,2,2,0,0,1,.69,1.54,2,2,0,0,1-.65,1.63,2.34,2.34,0,0,1-1.65.59,2.59,2.59,0,0,1-1.66-.55,1.91,1.91,0,0,1-.68-1.57A2,2,0,0,1,558.35,14.21Zm-.28-6.92A38.57,38.57,0,0,1,557.82,3V2.79a.59.59,0,0,1,0-.27.41.41,0,0,1,.13-.19.34.34,0,0,1,.25-.08h3.51a.32.32,0,0,1,.27.12.72.72,0,0,1,.13.28,1.94,1.94,0,0,1,0,.33v.25a34.77,34.77,0,0,1-.28,4.22c-.18,1.41-.37,2.8-.56,4.18a4,4,0,0,1-.21.36.44.44,0,0,1-.36.19h-1.53a.46.46,0,0,1-.4-.25,1.94,1.94,0,0,1-.17-.44C558.45,10.1,558.26,8.69,558.07,7.29Z"/></svg>