<svg id="レイヤー_1" data-name="レイヤー 1" xmlns="http://www.w3.org/2000/svg" viewBox="0 0 290.2 44.7"><defs><style>.cls-1{fill:#333;}</style></defs><path class="cls-1" d="M3.22,16.08c.22-.18.46-.4.78-.68s.64-.6,1-1a10,10,0,0,0,1-1.24,6.76,6.76,0,0,0,.76-1.46,4.08,4.08,0,0,0,.32-1.6V9.94c0-.08,0-.16,0-.24A.72.72,0,0,0,7,9.48.19.19,0,0,0,6.8,9.4H.26L.2,9.32A.33.33,0,0,0,.14,9.2.59.59,0,0,1,.06,9L0,8.94V7.06a.48.48,0,0,1,.18-.32.55.55,0,0,1,.36-.2H16.4c.1,0,.2.06.34.2a.45.45,0,0,1,.2.32V8.94l-.06.1a.59.59,0,0,1-.08.16.33.33,0,0,0-.06.12c0,.06-.06.08-.08.08H10.94a1.51,1.51,0,0,0-.18.4c-.1.26-.24.62-.38,1s-.34.88-.52,1.38-.36,1-.56,1.46-.36.88-.54,1.26a5.26,5.26,0,0,1-.5.8A1.77,1.77,0,0,1,8,16c-.14.14-.28.3-.44.44s-.3.32-.44.44a4,4,0,0,0-.3.3,2.31,2.31,0,0,1-.3.26l-.42.3c-.14.1-.3.2-.44.28a1.24,1.24,0,0,1-.36.1A1.64,1.64,0,0,1,4.62,18c-.26-.14-.52-.3-.78-.46a3.8,3.8,0,0,1-.66-.58.8.8,0,0,1-.26-.52S3,16.24,3.22,16.08ZM2.4,1.46H14.66V4.14H2.4ZM22.46,13.74H22.2a.57.57,0,0,1-.5-.28,2,2,0,0,1-.28-.66,3.18,3.18,0,0,1-.14-.78c0-.26,0-.48,0-.64a.49.49,0,0,1,.18-.42,1,1,0,0,1,.44-.2,2.06,2.06,0,0,1,.52-.06,1.57,1.57,0,0,0,.46,0,5.06,5.06,0,0,0,.84-.12c.42-.08.84-.14,1.3-.2s.9-.14,1.3-.2l.84-.14a.78.78,0,0,0,.38-.24,1,1,0,0,0,.14-.42c0-.18,0-.38-.06-.62A2.72,2.72,0,0,0,27.5,8a1.46,1.46,0,0,0-.3-.58.71.71,0,0,0-.58-.24,7.06,7.06,0,0,0-1.12.1c-.38.08-.76.16-1.12.26s-.76.16-1.12.22a5.52,5.52,0,0,1-1.14.12.71.71,0,0,1-.56-.26A1.63,1.63,0,0,1,21.3,7a4.75,4.75,0,0,1-.06-.78V5.24a.88.88,0,0,0,0-.18l.28-.12A2.53,2.53,0,0,0,22,4.88l.64-.08a6.21,6.21,0,0,0,.64-.08,2.53,2.53,0,0,1,.42-.06l.4-.06a5.77,5.77,0,0,0,.58-.08l.56-.08a2.6,2.6,0,0,0,.34,0c.14,0,.32-.06.52-.08a.5.5,0,0,0,.4-.32V3.76a1.59,1.59,0,0,1,0-.22,3.78,3.78,0,0,0-.16-1.06,3.63,3.63,0,0,1-.14-1,.57.57,0,0,1,.36-.52,3.13,3.13,0,0,1,.8-.26c.3,0,.6-.08.86-.1l.54,0A.57.57,0,0,1,29,.7a.69.69,0,0,1,.24.24,5.4,5.4,0,0,1,.08.62,6.94,6.94,0,0,0,.12.9,2,2,0,0,0,.32.8.66.66,0,0,0,.6.36A5.19,5.19,0,0,0,31.5,3.5c.38-.06.76-.14,1.14-.22S33.4,3.1,33.76,3a5.48,5.48,0,0,1,1.12-.12.69.69,0,0,1,.56.22,1.74,1.74,0,0,1,.28.58,4.4,4.4,0,0,1,.1.74v.68a1,1,0,0,1-.06.4.7.7,0,0,1-.36.2l-.82.12c-.38.06-.8.14-1.24.2s-.86.12-1.24.2l-.84.14a1.81,1.81,0,0,0-.58.18c-.16.08-.22.26-.22.52v.5l.06.6a5.25,5.25,0,0,0,.16.6,1,1,0,0,0,.32.4l.26,0h.28A6.72,6.72,0,0,0,32.8,9.1c.42-.08.82-.18,1.24-.3s.82-.2,1.24-.28a6.72,6.72,0,0,1,1.26-.12.63.63,0,0,1,.54.24,1.27,1.27,0,0,1,.24.58,3,3,0,0,1,.1.74v.88a1.59,1.59,0,0,1,0,.22.41.41,0,0,1-.24.2l-.3.08a4.75,4.75,0,0,0-.8.12l-1.26.22-1.24.18c-.4.06-.68.1-.82.14a1.62,1.62,0,0,0-.4.06,1.52,1.52,0,0,0-.4.12,1.17,1.17,0,0,0-.3.22.58.58,0,0,0-.12.38,5.36,5.36,0,0,0,.14,1.12c.08.38.18.74.26,1.1l.3,1.08a5.33,5.33,0,0,1,.12,1.12.52.52,0,0,1-.28.52,1.83,1.83,0,0,1-.68.24,5.46,5.46,0,0,1-.82.06h-.7a1.59,1.59,0,0,0-.22,0H29.4a1.06,1.06,0,0,1-.34-.58,6.31,6.31,0,0,1-.2-1c0-.38-.08-.76-.12-1.18a9.08,9.08,0,0,0-.12-1.14,3.81,3.81,0,0,0-.18-.84c-.1-.22-.22-.32-.38-.32H27Zm20.12,1.2c.32-.2.7-.42,1.12-.64l1.2-.64c.38-.2.66-.34.84-.46s.58-.42,1-.74l1.38-1.14c.5-.44,1-.9,1.5-1.4A19.35,19.35,0,0,0,51,8.4a11.48,11.48,0,0,0,1-1.5,2.83,2.83,0,0,0,.4-1.3l-.06-.12a.43.43,0,0,0-.08-.14.35.35,0,0,0-.08-.1l0,0H44.4A.86.86,0,0,1,44.1,5q-.24-.15-.24-.24V2.54a.39.39,0,0,1,.1-.22.38.38,0,0,1,.18-.18c.26,0,.66,0,1.22,0l1.86,0c.68,0,1.42,0,2.18,0l2.18,0,1.88,0h1.68a1.66,1.66,0,0,1,.54.12,4.78,4.78,0,0,1,.64.32,2.79,2.79,0,0,1,.54.42.75.75,0,0,1,.22.48.25.25,0,0,1,0,.12C56.8,4,56.54,4.56,56.3,5s-.5.94-.74,1.4-.48.9-.74,1.34S54.3,8.7,54,9.2a2.54,2.54,0,0,1-.22.34.7.7,0,0,0-.06.32c0,.08,0,.16,0,.22a.47.47,0,0,0,.12.18l.68.68,1,1c.36.34.7.68,1,1s.52.52.64.66a1.77,1.77,0,0,0,.28.28c.12.14.24.28.38.42l.34.4a1.16,1.16,0,0,1,.2.24,1.21,1.21,0,0,1,.16.26,1.17,1.17,0,0,1,.1.26c0,.12-.06.3-.26.52a7.81,7.81,0,0,1-.7.72,9.7,9.7,0,0,1-.8.62,1.51,1.51,0,0,1-.56.28.4.4,0,0,1-.26-.08.87.87,0,0,1-.22-.18c0-.06-.16-.2-.34-.42s-.36-.46-.58-.72-.42-.5-.6-.72-.3-.36-.34-.42-.24-.24-.46-.48-.48-.46-.74-.72l-.72-.72-.48-.48h-.14a1.49,1.49,0,0,0-.78.38c-.32.24-.7.54-1.12.9l-1.32,1.2c-.48.42-.94.82-1.42,1.2a9,9,0,0,1-1.38.9,2.38,2.38,0,0,1-1.2.38H44.1l-.1,0-1.86-1.86a.38.38,0,0,1-.08-.16.57.57,0,0,1-.06-.12A1.51,1.51,0,0,1,42.58,14.94Zm24.78.52V1.2l.06-.06.12-.08L67.68,1l.12,0h2.54l.4.4V6c0,.08.08.16.22.24l.3.16c.52.2,1.1.38,1.7.56s1.24.38,1.86.58,1.26.44,1.86.68a14.27,14.27,0,0,1,1.66.84c.14.1.24.18.26.24a1,1,0,0,1,0,.3,2.64,2.64,0,0,1-.12.58,4,4,0,0,1-.3.9,3.71,3.71,0,0,1-.44.84.67.67,0,0,1-.5.36.25.25,0,0,1-.12,0c-1-.44-2-.88-3-1.3a27.57,27.57,0,0,0-3-1.1l-.2.1c-.14.06-.2.12-.2.18v7.32l-.28.28H67.54c-.08,0-.14-.06-.16-.18s0-.2,0-.22Zm27.72-3.52a44.89,44.89,0,0,0-3.88-4.2.35.35,0,0,0-.28-.14,1.72,1.72,0,0,0-.32,0l-.18,0h-.16a12.11,12.11,0,0,0-1.18,1.26c-.38.46-.74.94-1.1,1.44s-.68,1-1,1.48-.6.92-.86,1.28a1.22,1.22,0,0,1-.24.3.41.41,0,0,1-.3.12.3.3,0,0,1-.14,0l-2.12-2.12a1.18,1.18,0,0,1-.08-.12.68.68,0,0,0-.06-.16v-.12a.48.48,0,0,0,.06-.14l.08-.14a10.86,10.86,0,0,0,1-1.06c.38-.44.76-.92,1.18-1.42s.84-1,1.28-1.52a18,18,0,0,1,1.32-1.4,7.05,7.05,0,0,1,1.26-1,2,2,0,0,1,1.1-.38,2.71,2.71,0,0,1,1.36.36,5.85,5.85,0,0,1,1.12.84l2.2,2.16c.68.7,1.36,1.38,2,2.08s1.3,1.38,1.94,2.1,1.38,1.5,2.12,2.34a.24.24,0,0,1,.12.18.75.75,0,0,1,0,.22,1.18,1.18,0,0,1-.22.64,8.19,8.19,0,0,1-.56.66q-.33.33-.66.6a4.88,4.88,0,0,0-.56.5h-.5a.19.19,0,0,1-.18-.14C97.48,14.88,96.28,13.4,95.08,11.94Zm.12-8.38a1.24,1.24,0,0,1,.34-.22L96,3.22a3.37,3.37,0,0,1,.4,0,1,1,0,0,1,.64.3,3.53,3.53,0,0,1,.62.7A4,4,0,0,1,98.1,5a1.89,1.89,0,0,1,.18.7.45.45,0,0,1-.18.34,1.6,1.6,0,0,1-.42.3,2.12,2.12,0,0,1-.5.22,1.16,1.16,0,0,1-.38.08.86.86,0,0,1-.64-.32,3.69,3.69,0,0,1-.56-.78,5.91,5.91,0,0,1-.4-.9,2.46,2.46,0,0,1-.14-.76A.48.48,0,0,1,95.2,3.56ZM98,2.48a1.4,1.4,0,0,1,.34-.26A2,2,0,0,1,98.78,2,1.76,1.76,0,0,1,99.2,2a.94.94,0,0,1,.6.3,4.4,4.4,0,0,1,.6.72,3.51,3.51,0,0,1,.48.84,1.71,1.71,0,0,1,.2.7.52.52,0,0,1-.18.38,1.57,1.57,0,0,1-.4.28,1.54,1.54,0,0,1-.5.2,1.85,1.85,0,0,1-.38.08.91.91,0,0,1-.64-.3,3.45,3.45,0,0,1-.56-.72,4.29,4.29,0,0,1-.4-.88,2.37,2.37,0,0,1-.16-.72A.63.63,0,0,1,98,2.48Zm23.4,8.18-.26.28h-15.6a.34.34,0,0,1-.32-.18.78.78,0,0,1-.08-.36V7.86a.64.64,0,0,0,0-.12c0-.06.06-.12.08-.14s0-.06.06-.08.06-.06.08-.06h16Zm5.18,4.28c.32-.2.7-.42,1.12-.64l1.2-.64c.38-.2.66-.34.84-.46s.58-.42,1-.74l1.38-1.14c.5-.44,1-.9,1.5-1.4A19.35,19.35,0,0,0,135,8.4a11.48,11.48,0,0,0,1-1.5,2.83,2.83,0,0,0,.4-1.3l-.06-.12a.43.43,0,0,0-.08-.14.35.35,0,0,0-.08-.1l0,0H128.4a.86.86,0,0,1-.3-.16q-.24-.15-.24-.24V2.54a.39.39,0,0,1,.1-.22.38.38,0,0,1,.18-.18c.26,0,.66,0,1.22,0l1.86,0c.68,0,1.42,0,2.18,0l2.18,0,1.88,0h1.68a1.66,1.66,0,0,1,.54.12,4.78,4.78,0,0,1,.64.32,2.79,2.79,0,0,1,.54.42.75.75,0,0,1,.22.48.25.25,0,0,1,0,.12c-.26.58-.52,1.1-.76,1.58s-.5.94-.74,1.4-.48.9-.74,1.34-.52.92-.82,1.42a2.54,2.54,0,0,1-.22.34.7.7,0,0,0-.06.32c0,.08,0,.16,0,.22a.47.47,0,0,0,.12.18l.68.68,1,1c.36.34.7.68,1,1s.52.52.64.66a1.77,1.77,0,0,0,.28.28c.12.14.24.28.38.42l.34.4a1.16,1.16,0,0,1,.2.24,1.21,1.21,0,0,1,.16.26,1.17,1.17,0,0,1,.1.26c0,.12-.06.3-.26.52a7.81,7.81,0,0,1-.7.72,9.7,9.7,0,0,1-.8.62,1.51,1.51,0,0,1-.56.28.4.4,0,0,1-.26-.08.87.87,0,0,1-.22-.18c0-.06-.16-.2-.34-.42s-.36-.46-.58-.72-.42-.5-.6-.72-.3-.36-.34-.42-.24-.24-.46-.48-.48-.46-.74-.72l-.72-.72-.48-.48h-.14a1.49,1.49,0,0,0-.78.38c-.32.24-.7.54-1.12.9l-1.32,1.2c-.48.42-.94.82-1.42,1.2a9,9,0,0,1-1.38.9,2.38,2.38,0,0,1-1.2.38h-.14l-.1,0-1.86-1.86a.38.38,0,0,1-.08-.16.57.57,0,0,1-.06-.12A1.51,1.51,0,0,1,126.58,14.94Zm25.9-5.82a14.07,14.07,0,0,1,.66-1.56c.22-.48.44-.9.64-1.28a2,2,0,0,0,.3-.88.09.09,0,0,0,0-.06.43.43,0,0,0-.12-.14,2,2,0,0,1-.3,0h-.3a11,11,0,0,0-1.42.1c-.48.08-1,.16-1.44.26l-1.4.24a11.3,11.3,0,0,1-1.42.1.69.69,0,0,1-.58-.24,1.14,1.14,0,0,1-.22-.58,3,3,0,0,1,0-.74c0-.26,0-.5,0-.7a.66.66,0,0,1,.54-.68c.3,0,.74-.08,1.36-.12l2.06-.18c.78,0,1.58-.12,2.44-.18s1.66-.12,2.44-.2l2.08-.16,1.36-.1c.44,0,.92-.08,1.42-.1s1,0,1.48,0h.24a1.17,1.17,0,0,1,.26,0,.46.46,0,0,1,.24.12.29.29,0,0,1,.08.24V4.4l-.26.26A23.13,23.13,0,0,0,160,5a7.53,7.53,0,0,0-2.36.84,4.72,4.72,0,0,0-1.72,1.6,4.78,4.78,0,0,0-.66,2.64,3.55,3.55,0,0,0,.5,2,3.79,3.79,0,0,0,1.3,1.28,7.27,7.27,0,0,0,1.8.76,17.91,17.91,0,0,0,2,.44c.12,0,.16.08.16.22V15a5.72,5.72,0,0,1-.06.74,4,4,0,0,1-.24.84,2.21,2.21,0,0,1-.44.7.8.8,0,0,1-.66.3,7.57,7.57,0,0,1-2.74-.52,7.73,7.73,0,0,1-4.06-3.62,5.74,5.74,0,0,1-.64-2.66A4.88,4.88,0,0,1,152.48,9.12Zm6.38-1.66a.39.39,0,0,1,.12-.28,1.05,1.05,0,0,1,.28-.24,1.27,1.27,0,0,1,.36-.12l.32,0a.77.77,0,0,1,.52.24,3.46,3.46,0,0,1,.46.58,2.64,2.64,0,0,1,.36.66,1.34,1.34,0,0,1,.14.54.63.63,0,0,1-.4.6,1.66,1.66,0,0,1-.76.2h-.2s-.08-.06-.12-.14-.12-.18-.22-.36-.22-.36-.32-.56-.22-.38-.32-.56l-.22-.38Zm2.38-1.26.32-.18a1,1,0,0,1,.34-.12l.28,0a1.51,1.51,0,0,1,.3,0,.39.39,0,0,1,.26.12s.1.14.2.3.24.32.38.5l.34.58a1.19,1.19,0,0,1,.16.5.53.53,0,0,1-.14.28,1.25,1.25,0,0,1-.36.28,2.17,2.17,0,0,1-.38.16.6.6,0,0,1-.28.08.8.8,0,0,1-.56-.26,4.18,4.18,0,0,1-.48-.62,6,6,0,0,1-.36-.72,1.76,1.76,0,0,1-.14-.62A.35.35,0,0,1,161.24,6.2Zm7.7,5a.2.2,0,0,0-.12,0,1.52,1.52,0,0,0-.22.08,2.35,2.35,0,0,0-.22.1.2.2,0,0,1-.12,0,.07.07,0,0,1-.06,0,.65.65,0,0,1-.48-.26,3.68,3.68,0,0,1-.4-.62,2.84,2.84,0,0,1-.28-.72,2,2,0,0,1-.12-.62c0-.06,0-.12,0-.2a17.51,17.51,0,0,0,1.94-2.16c.54-.72,1.14-1.48,1.78-2.24l.14-.08a.51.51,0,0,1,.14,0h1.46A.86.86,0,0,0,173,4.2a5.61,5.61,0,0,0,.58-.84,11.28,11.28,0,0,0,.56-1.1l.52-1.08a5.13,5.13,0,0,1,.52-.84c.18-.22.34-.34.5-.34a2.67,2.67,0,0,1,1.38.26,1.64,1.64,0,0,1,.6.56,2.69,2.69,0,0,1,.3.58.38.38,0,0,0,.4.26h6.66l.28.34a1.73,1.73,0,0,0,0,.22v.32a1.69,1.69,0,0,0,0,.26,3.25,3.25,0,0,1,0,.42,1.36,1.36,0,0,1-.14.4.32.32,0,0,1-.28.18H176.8a.38.38,0,0,0-.26.16.49.49,0,0,0-.14.3.92.92,0,0,0,0,.2c0,.08.06.14.12.14h7.2a.49.49,0,0,1,.32.14.44.44,0,0,1,.2.32v5.48s0,0-.06,0a.37.37,0,0,1-.06.08l-.16.14-.12.06H179.6l-.12.12-.14.22a.76.76,0,0,0-.1.16.2.2,0,0,0,0,.1c0,.06,0,.12.12.22s.12.12.14.12h3.74l1.06.6a.27.27,0,0,1,.06.12.55.55,0,0,1,.08.14v.08a1.33,1.33,0,0,1-.24.66,5,5,0,0,1-.56.76c-.2.26-.4.48-.6.7l-.46.48a.62.62,0,0,0,0,.2c0,.26.14.42.46.48a7.15,7.15,0,0,0,1,.12,5.18,5.18,0,0,1,1,.1c.3.06.46.22.46.5a.68.68,0,0,1,0,.2c0,.06-.1.18-.2.36s-.22.36-.34.54a2.07,2.07,0,0,1-.42.5.78.78,0,0,1-.46.2,5,5,0,0,1-1.22-.16c-.4-.12-.8-.24-1.18-.38a9,9,0,0,0-1.18-.38,4.06,4.06,0,0,0-1.2-.18,4.19,4.19,0,0,0-1.22.18,9.24,9.24,0,0,0-1.2.38c-.4.14-.8.26-1.2.38a5.14,5.14,0,0,1-1.24.16.86.86,0,0,1-.52-.18,2.3,2.3,0,0,1-.42-.46,2.65,2.65,0,0,1-.3-.58,2,2,0,0,1-.1-.52.46.46,0,0,1,.24-.4,2.13,2.13,0,0,1,.6-.18l.76-.06a4.75,4.75,0,0,0,.78-.06,1.63,1.63,0,0,0,.6-.2.45.45,0,0,0,.24-.42c0-.2,0-.34-.12-.38a1.08,1.08,0,0,0-.42-.16c-.2.1-.38.2-.56.28a1.37,1.37,0,0,1-.58.12.79.79,0,0,1-.42-.16,1.74,1.74,0,0,1-.44-.34l-.4-.4c-.12-.14-.22-.24-.28-.3V14c0-.06.14-.2.4-.44s.58-.5.92-.76l1-.8a4,4,0,0,0,.62-.54.75.75,0,0,0,0-.2.32.32,0,0,0-.18-.32,1.33,1.33,0,0,0-.4-.12,2.34,2.34,0,0,1-.4-.1.3.3,0,0,1-.18-.32V6.66c0-.06-.06-.14-.18-.26a3.54,3.54,0,0,0-.44-.32,3,3,0,0,0-.52-.24,1.17,1.17,0,0,0-.4-.12.62.62,0,0,0-.42.22,2.43,2.43,0,0,0-.4.48c-.12.2-.22.4-.32.6a1.73,1.73,0,0,1-.24.44V18.14a.44.44,0,0,1-.08.1,1.59,1.59,0,0,0-.12.16l-.16.16c-.06.06-.1.1-.12.1h-1.72s-.06,0-.12-.1l-.16-.16a1.59,1.59,0,0,0-.12-.16.44.44,0,0,1-.08-.1v-6.8s0,0-.08-.08-.08-.06-.12-.06h-.12Zm-1.88-7.46.08-.14a.48.48,0,0,1,.06-.14c.1-.08.26-.24.48-.46l.72-.74.72-.72.48-.48c.06-.06.14-.16.22-.26a2.2,2.2,0,0,1,.28-.36,1.5,1.5,0,0,1,.32-.3A.56.56,0,0,1,170.8,0a1.93,1.93,0,0,1,.42.1,2.7,2.7,0,0,1,.64.22c.22.1.4.22.58.32a.48.48,0,0,1,.24.36,1.24,1.24,0,0,1-.28.64,8,8,0,0,1-.7.9c-.28.32-.58.64-.94,1s-.68.64-1,.92a5.45,5.45,0,0,1-.84.66,1.09,1.09,0,0,1-.52.26.74.74,0,0,1-.42-.18,1.73,1.73,0,0,1-.44-.42,2.76,2.76,0,0,1-.34-.5.87.87,0,0,1-.14-.46Zm10.58,3.12c0,.06.1.08.22.08h3.48q.09,0,.12-.12a.5.5,0,0,0,0-.16.56.56,0,0,0,0-.16.13.13,0,0,0-.12-.1h-3.6c-.08,0-.14,0-.14.12a.5.5,0,0,0,0,.16A.24.24,0,0,0,177.64,6.86Zm.12,2.24a.55.55,0,0,0,.24.1h3.2c.14,0,.22,0,.24-.1a.74.74,0,0,0,0-.48c0-.06-.1-.08-.24-.08h-3.34l-.12.1a.46.46,0,0,0-.14.16v.06A.29.29,0,0,0,177.76,9.1Zm1,5.26a1.14,1.14,0,0,0,.56.18,1.21,1.21,0,0,0,.58-.16.47.47,0,0,0,.28-.46.43.43,0,0,0-.08-.24.36.36,0,0,0-.22-.08,1.06,1.06,0,0,0-.26,0h-.48a1.51,1.51,0,0,0-.3,0,1.16,1.16,0,0,0-.28.1.26.26,0,0,0-.12.24A.45.45,0,0,0,178.72,14.36Zm12-3.7.26-.32h4s.08-.06.2-.18a1.54,1.54,0,0,0,.2-.3s0,0,0,0V9.74a.83.83,0,0,0,0-.2c0-.1-.08-.14-.14-.14H193.4a.38.38,0,0,1-.36-.24c-.08-.16-.14-.34-.22-.54a3.39,3.39,0,0,0-.26-.54.56.56,0,0,0-.5-.24h-.14l-.12,0-2.26.94h-.12a.71.71,0,0,0-.14,0,.66.66,0,0,1-.44-.18,1.24,1.24,0,0,1-.34-.44,3.07,3.07,0,0,1-.22-.54,1.31,1.31,0,0,1-.08-.46.55.55,0,0,1,.4-.54l.4-.12c.18-.06.38-.14.6-.2l.6-.22.4-.12.14-.12a1.2,1.2,0,0,1,.12-.14s0,0,0-.06a.65.65,0,0,0-.26-.54,3.92,3.92,0,0,0-.56-.38,3.33,3.33,0,0,1-.56-.36.62.62,0,0,1-.24-.52.72.72,0,0,1,.08-.38,1.09,1.09,0,0,0,.08-.4.26.26,0,0,0-.1-.22l-.24-.16-.26-.12a1,1,0,0,1-.22-.2s0-.16,0-.34V1.38a.94.94,0,0,1,0-.34.57.57,0,0,1,.16-.26.43.43,0,0,1,.36-.12h7.06a.5.5,0,0,1,.22.1.76.76,0,0,1,.18.18c0,.2,0,.56,0,1.08s0,1.06,0,1.64,0,1.14,0,1.66,0,.88,0,1.08v2a.48.48,0,0,0,.32.24,3,3,0,0,0,.42,0,1.55,1.55,0,0,0,.32,0c.1,0,.14-.1.14-.24a1,1,0,0,0-.08-.42,2.28,2.28,0,0,0-.2-.38l-.18-.4a1,1,0,0,1-.08-.42.43.43,0,0,1,0-.2c0-.06.1-.1.22-.18l.32-.1a3.66,3.66,0,0,1,.5-.16L199,6l.3-.12a1.08,1.08,0,0,0,.36-.2.36.36,0,0,0,.2-.32.47.47,0,0,0-.24-.42l-.52-.3a5.5,5.5,0,0,1-.5-.3.5.5,0,0,1-.24-.44.69.69,0,0,1,.16-.42.48.48,0,0,0,.12-.4.76.76,0,0,0-.18-.36c-.1-.06-.18-.14-.28-.2a1.06,1.06,0,0,1-.26-.26,1.1,1.1,0,0,1-.1-.5v-.3a1.17,1.17,0,0,1,.08-.36A.84.84,0,0,1,198,.8a.32.32,0,0,1,.3-.14h6.92a.65.65,0,0,1,.32.18c.14.1.22.18.22.22V7.74a1.27,1.27,0,0,1-.28.86,1.69,1.69,0,0,1-.7.48,4,4,0,0,1-.88.22c-.32,0-.62,0-.88,0h-1a.87.87,0,0,1-.32-.46,4.91,4.91,0,0,1-.18-.58,1.68,1.68,0,0,0-.26-.5.62.62,0,0,0-.5-.22s-.14,0-.38.08l-.8.22a4.16,4.16,0,0,0-.8.3q-.36.18-.36.36V10l.28.34h5.2c.12,0,.22.08.28.24a.92.92,0,0,1,.12.36v7.2a.74.74,0,0,1-.1.34.31.31,0,0,1-.3.18H201.8l-.26-.2c-.14-.1-.24-.16-.28-.2a1.33,1.33,0,0,0-.14-.06l-.12-.06h-7.2l-.26.2c-.16.1-.24.18-.28.2a.48.48,0,0,1-.14.06.31.31,0,0,1-.12.06h-2l-.26-.26Zm2.14-5a2,2,0,0,1,.32.74c0,.26.08.52.1.74a.32.32,0,0,0,.36.34.51.51,0,0,0,.36-.2.53.53,0,0,0,.18-.32V3.34A.89.89,0,0,0,194,3c-.1-.14-.18-.22-.24-.22h-2c-.08,0-.1,0-.12.1a.69.69,0,0,0,0,.18V3.2l.68.66a.2.2,0,0,0,0,.08V4a.58.58,0,0,1-.06.28l-.16.28a1.83,1.83,0,0,1-.16.26.64.64,0,0,0-.06.28.68.68,0,0,0,0,.2A1.05,1.05,0,0,1,192.88,5.64Zm.7,7.32c0,.08.06.1.08.1h7.48c.06,0,.12,0,.12-.1a.5.5,0,0,0,0-.16.35.35,0,0,0-.12-.26.42.42,0,0,0-.3-.14h-6.92a.41.41,0,0,0-.28.14.35.35,0,0,0-.12.26A.27.27,0,0,0,193.58,13Zm.08,2.92a.48.48,0,0,0,.28.12h6.92a.48.48,0,0,0,.3-.12.43.43,0,0,0,.12-.28.31.31,0,0,0-.18-.3.81.81,0,0,0-.36-.1h-6.68a.81.81,0,0,0-.34.1.31.31,0,0,0-.18.3A.43.43,0,0,0,193.66,15.88Zm8.82-8.54h.2c.2,0,.34-.12.44-.38a3.47,3.47,0,0,0,.16-.86,8,8,0,0,0,0-1c0-.32,0-.54,0-.66V3.9a1.83,1.83,0,0,0,0-.34V3.34a2.57,2.57,0,0,0-.14-.32c-.1-.14-.18-.22-.26-.22h-1.72c-.08,0-.14,0-.14.1a.69.69,0,0,0,0,.18v.08a.06.06,0,0,1,0,0,1.08,1.08,0,0,0,.24.28c.16.12.24.22.3.26v1.2a1.86,1.86,0,0,1,1,.28c.24.18.34.56.34,1.12,0,0,0,.06,0,.06a.18.18,0,0,1-.06.1l-.14.18-.12.16-.08.1a.31.31,0,0,0-.06.14.31.31,0,0,0-.06.12A.13.13,0,0,0,202.48,7.34Zm13.26-6.28.12.14a1.73,1.73,0,0,0,0,.22v.3c0,1.52,0,3-.14,4.52s-.14,3-.14,4.5v2.32a2,2,0,0,0,.9,1.48,3.48,3.48,0,0,0,1.68.4,4.91,4.91,0,0,0,1.62-.26,11.13,11.13,0,0,0,1.48-.68,11.61,11.61,0,0,0,1.26-.86,12.52,12.52,0,0,0,1-.88q.45-.39.72-.66c.18-.18.3-.26.36-.26a.89.89,0,0,1,.6.26,4.72,4.72,0,0,1,.62.64,5.3,5.3,0,0,1,.46.78,1.43,1.43,0,0,1,.2.64.75.75,0,0,1-.18.4,3.47,3.47,0,0,1-.22.34,12.88,12.88,0,0,1-3.68,2.76,10.05,10.05,0,0,1-4.46,1,7.56,7.56,0,0,1-1.84-.22,6,6,0,0,1-1.78-.7A4.42,4.42,0,0,1,213.06,16a3.19,3.19,0,0,1-.52-1.82V1.06Zm21.78,16q-.12-.39-.24-.84c-.1-.28-.18-.56-.26-.84a5.69,5.69,0,0,0-.16-.56,4.89,4.89,0,0,0-.16-.54c-.08-.28-.2-.6-.3-.94s-.24-.66-.34-1-.2-.56-.26-.72-.12-.38-.18-.66-.18-.54-.28-.8a2.77,2.77,0,0,0-.4-.66.73.73,0,0,0-.58-.3.5.5,0,0,0-.16,0h-.14l-2.12,1.06s-.06,0-.12,0a.39.39,0,0,1-.14,0,.72.72,0,0,1-.54-.28,4.43,4.43,0,0,1-.44-.68,3.47,3.47,0,0,1-.28-.76,2.77,2.77,0,0,1-.1-.56V7.78a.16.16,0,0,1,.14-.18l.62-.16c.32-.08.66-.2,1-.32a5.69,5.69,0,0,0,.92-.48.76.76,0,0,0,.4-.58,1.24,1.24,0,0,0-.24-.72,5.59,5.59,0,0,0-.5-.7c-.18-.22-.34-.46-.5-.68a1.18,1.18,0,0,1-.24-.7.59.59,0,0,1,.3-.48,2.72,2.72,0,0,1,.68-.36c.26-.08.52-.16.8-.22a3,3,0,0,1,.64-.08h.24s.1,0,.16.14l1.32,2.4a.6.6,0,0,0,.22.26.73.73,0,0,0,.32,0,2,2,0,0,0,.52-.1,4.32,4.32,0,0,0,.82-.26,3.85,3.85,0,0,0,.76-.38.63.63,0,0,0,.32-.5c0-.08,0-.12,0-.12l-1.74-1.86s0,0,0-.08v-.1a.75.75,0,0,1,.18-.46,5.15,5.15,0,0,1,.48-.42,3,3,0,0,1,.56-.3,1.21,1.21,0,0,1,.48-.12,1.12,1.12,0,0,1,.56.22,7.5,7.5,0,0,1,.72.48c.24.2.44.4.64.58a.91.91,0,0,1,.28.46v.4c-.16.14-.32.28-.5.46a.71.71,0,0,0-.28.58c.44,0,.86,0,1.28-.06s.86-.06,1.3-.06a6.06,6.06,0,0,1,1.88.3,5.52,5.52,0,0,1,1.64.84,4.24,4.24,0,0,1,1.16,1.36,3.69,3.69,0,0,1,.46,1.84,4.47,4.47,0,0,1-.42,2,4.38,4.38,0,0,1-1.1,1.44A5.07,5.07,0,0,1,245,12a6.16,6.16,0,0,1-1.94.3h-.58a8.64,8.64,0,0,1-1-.06,6,6,0,0,1-.94-.2c-.3-.1-.44-.24-.44-.42V9.46c0-.12,0-.2.14-.22a1.38,1.38,0,0,1,.26,0,4.27,4.27,0,0,1,1.06.16,5.88,5.88,0,0,0,1.08.24h.06a2.48,2.48,0,0,0,1.56-.52,1.68,1.68,0,0,0,.66-1.42,1.76,1.76,0,0,0-.28-1,1.49,1.49,0,0,0-.94-.62h-.46a1.23,1.23,0,0,1-.28,0h-.18A6.37,6.37,0,0,0,242,6l-1.06.2c-.38.08-.78.16-1.18.28a8.89,8.89,0,0,0-1.1.36,4.44,4.44,0,0,0-.82.46.75.75,0,0,0-.32.52l.06.18a1.06,1.06,0,0,0,.06.22c.54,1.42,1.06,2.8,1.6,4.18s1,2.8,1.48,4.22v.28a.61.61,0,0,1-.38.56,2.61,2.61,0,0,1-.84.3,4.53,4.53,0,0,1-.86.14,2,2,0,0,0-.46.06.87.87,0,0,1-.3-.16.69.69,0,0,1-.24-.24C237.64,17.5,237.58,17.32,237.52,17Zm18.2-1a.17.17,0,0,1,.14-.16c.48-.12,1-.3,1.56-.48a8.21,8.21,0,0,0,1.52-.72.31.31,0,0,0,.08-.12.29.29,0,0,0,0-.14c0-.2-.24-.38-.58-.52a7.62,7.62,0,0,1-1.1-.6,4.27,4.27,0,0,1-1-1,3.09,3.09,0,0,1-.48-1.84A2.84,2.84,0,0,1,256.2,9,3.84,3.84,0,0,1,257,8a5.05,5.05,0,0,1,1.1-.74,11,11,0,0,1,1.1-.54l.84-.36c.22-.1.34-.18.34-.26a1.57,1.57,0,0,0,0-.28.24.24,0,0,0-.24-.18h-7.6l-.28-.26v-2l.28-.34h6.8a1.24,1.24,0,0,0,.7-.16.78.78,0,0,0,.34-.42,2,2,0,0,0,.06-.62c0-.22,0-.46,0-.74l.26-.26h2.54l.26.26a2.29,2.29,0,0,1,0,.3V1.8a3.88,3.88,0,0,0,0,.48,1,1,0,0,0,.12.38.43.43,0,0,0,.14.12c.06.06.1.08.12.08h4.68q.12,0,.24.18a1.11,1.11,0,0,1,.16.3V4.78a1.19,1.19,0,0,1-.14.56.33.33,0,0,0-.06.12s-.06.08-.08.08h-4.92l-.28.32V6c0,.08,0,.16,0,.28s0,.2,0,.3,0,.16,0,.22a5.06,5.06,0,0,0,.12,1.12c.08.34.16.7.26,1A9.07,9.07,0,0,1,264,10a5,5,0,0,1,.12,1.1,6.69,6.69,0,0,1-.5,2.38,9.18,9.18,0,0,1-1.36,2.3,8.24,8.24,0,0,1-2,1.76,4.22,4.22,0,0,1-2.36.7s-.06,0-.08,0-.12,0-.24-.06l-.16-.06-1.72-1.74s0,0,0-.06V16ZM259,11.16a1.15,1.15,0,0,0,.86.32,1.16,1.16,0,0,0,.9-.36,1.29,1.29,0,0,0,.32-.92,1.1,1.1,0,0,0-.32-.84,1.2,1.2,0,0,0-.84-.3,1.26,1.26,0,0,0-.88.32,1,1,0,0,0-.38.88A1.22,1.22,0,0,0,259,11.16ZM273.54,3V2.8l.26-.26h2.66l.28.26c0,.24,0,.64,0,1.2V7.62c0,.56,0,1,0,1.18s0,.66.06,1.16a7.35,7.35,0,0,0,.22,1.48,5.34,5.34,0,0,0,.52,1.34,1.29,1.29,0,0,0,.92.68.76.76,0,0,0,.62-.16,1.93,1.93,0,0,0,.44-.58,7,7,0,0,0,.32-.78c.1-.28.2-.56.3-.8a3.86,3.86,0,0,1,.26-.62c.1-.18.2-.26.34-.26a.83.83,0,0,1,.6.28,4.62,4.62,0,0,1,.6.64,3.69,3.69,0,0,1,.48.8,2,2,0,0,1,.2.72,3.75,3.75,0,0,1-.36,1.54,6.07,6.07,0,0,1-.92,1.44,5.77,5.77,0,0,1-1.32,1.1,2.76,2.76,0,0,1-1.48.44,3.25,3.25,0,0,1-2.3-.82,5.85,5.85,0,0,1-1.48-2.1,11.26,11.26,0,0,1-.82-2.88,27.55,27.55,0,0,1-.34-3.12c-.06-1-.08-2-.08-2.86V3.32C273.52,3.24,273.54,3.14,273.54,3Zm10.52,1.06a.56.56,0,0,1,.3-.46,3.21,3.21,0,0,1,.7-.3,5.75,5.75,0,0,1,.8-.18,4.1,4.1,0,0,1,.56-.06c.24,0,.52.2.82.6a7.26,7.26,0,0,1,.86,1.5,19.74,19.74,0,0,1,.8,2c.24.74.46,1.48.66,2.18s.36,1.34.48,1.92a6.73,6.73,0,0,1,.16,1.3.69.69,0,0,1-.32.56,3.15,3.15,0,0,1-.76.44,3.82,3.82,0,0,1-.88.3,2.6,2.6,0,0,1-.64.12s-.12-.18-.26-.56L286.9,12l-.54-1.88c-.22-.68-.4-1.34-.6-2s-.38-1.22-.58-1.74a8.77,8.77,0,0,0-.44-1.08s-.06-.12-.12-.22l-.22-.34a2.8,2.8,0,0,1-.2-.32,1.26,1.26,0,0,1-.14-.2ZM27.2,26.14s0,0,0-.06l.1-.08a.87.87,0,0,1,.14-.08l.12-.06h5.74l.4.4v1.6l-.4.48H30.26s0,0-.1.06-.1.1-.16.14a.92.92,0,0,1-.14.14.31.31,0,0,0-.06.12v9.46H27.2ZM39.66,36c.1-.1.24-.24.4-.42s.34-.36.52-.54a3.89,3.89,0,0,1,.58-.46,1,1,0,0,1,.56-.2,1.31,1.31,0,0,1,.88.34c.26.24.5.48.74.74a6.46,6.46,0,0,0,.74.74,1.3,1.3,0,0,0,.86.34,1.18,1.18,0,0,0,.56-.28,10.39,10.39,0,0,0,.82-.7c.3-.3.6-.62.92-1s.62-.72.88-1.06a6.87,6.87,0,0,0,.62-.94,1.67,1.67,0,0,0,.28-.66.88.88,0,0,0,0-.18.14.14,0,0,0-.14-.14H37.54l-.12-.06a.59.59,0,0,1-.16-.08l-.08-.08,0,0V28.8s0,0,0-.08a.28.28,0,0,0,.08-.06l.16-.06.12-.06H52.2a1.26,1.26,0,0,1,.56.22,4.09,4.09,0,0,1,.68.52,4,4,0,0,1,.56.62,1,1,0,0,1,.24.5.53.53,0,0,1,0,.14.71.71,0,0,1,0,.12,40.11,40.11,0,0,1-3.1,4.26c-1.12,1.32-2.3,2.62-3.56,3.88,0,0,0,.08,0,.14a1.32,1.32,0,0,0,.28.74,6.4,6.4,0,0,0,.62.74c.26.24.5.48.76.7a4.52,4.52,0,0,1,.62.62.35.35,0,0,0,0,.12,1.13,1.13,0,0,0,0,.14,1,1,0,0,1-.28.58,3.44,3.44,0,0,1-.66.66,3.9,3.9,0,0,1-.78.54,1.46,1.46,0,0,1-.68.24,4.33,4.33,0,0,1-.66-.58c-.4-.38-.88-.86-1.46-1.44s-1.2-1.2-1.88-1.86L41.6,38.26c-.56-.56-1-1-1.4-1.44a6.55,6.55,0,0,1-.56-.62A.68.68,0,0,1,39.66,36Zm18.48,2.94h16V42s0,0-.06.06-.06.06-.08.08l-.14.06-.12.06-15.6-.12Zm1.6-9.34a.79.79,0,0,1,0-.12c0-.06.06-.12.08-.14l.06-.08s.06-.06.08-.06H72.26l.28.26v2.8H60L59.74,32ZM80.46,40.46h7.6c.1,0,.2-.2.3-.58s.2-.84.28-1.34.14-1,.18-1.44.06-.78.06-.9v-.3a2.29,2.29,0,0,1,0-.3.49.49,0,0,0-.24-.2,1.39,1.39,0,0,0-.28-.06h-6l-.28-.28v-2.4l.14-.12h.42c.26,0,.62,0,1.06,0s1,0,1.52,0l1.7,0c.56,0,1.12,0,1.66,0l1.38,0h.4a2.64,2.64,0,0,1,.62.1,3.08,3.08,0,0,1,.7.3,1.85,1.85,0,0,1,.58.44.88.88,0,0,1,.24.6v.22c0,.12,0,.2,0,.2l-.8,5.2V40a.75.75,0,0,0,0,.22.71.71,0,0,0,.08.18.19.19,0,0,0,.18.08H94.2l.26.34v2.26l-.26.28H80.6a.41.41,0,0,1-.28-.14.43.43,0,0,1-.12-.26V40.8ZM110,34.06a1.1,1.1,0,0,1,.32-.68,9,9,0,0,1,.76-.74c.28-.24.56-.48.84-.7a4.52,4.52,0,0,0,.62-.6v-.2a.66.66,0,0,0-.1-.32.3.3,0,0,0-.3-.16H100.8s0,0-.06-.06-.06-.06-.08-.06a.82.82,0,0,0-.06-.16.31.31,0,0,1-.06-.12V28.14a.47.47,0,0,1,.14-.28.35.35,0,0,1,.26-.12H115.6a1.17,1.17,0,0,1,.26.1l.28.16c.08.08.18.18.32.3l.4.38c.14.14.24.24.34.36a1.21,1.21,0,0,1,.14.16v.4s-.06.08-.16.24a4.86,4.86,0,0,0-.38.54c-.12.2-.28.42-.42.66s-.28.42-.38.56-.4.6-.74,1.06A13.4,13.4,0,0,1,114.18,34a13.36,13.36,0,0,1-1.16,1.2,1.48,1.48,0,0,1-1,.52,1.08,1.08,0,0,1-.56-.18,4.18,4.18,0,0,1-.58-.46c-.18-.18-.36-.36-.52-.54a3.66,3.66,0,0,1-.4-.42Zm-8.18,7.58a6.32,6.32,0,0,1,.54-.36L103,41a1.65,1.65,0,0,0,.48-.32,9.48,9.48,0,0,0,1.54-1.8,7,7,0,0,0,.82-1.86,9.47,9.47,0,0,0,.3-2.06c0-.72,0-1.52,0-2.4a.42.42,0,0,1,.14-.26.29.29,0,0,1,.26-.14h2.26a.55.55,0,0,1,.3.16l.24.24a1.69,1.69,0,0,0,0,.26c0,.12,0,.26,0,.4a2.72,2.72,0,0,0,0,.42c0,.12,0,.2,0,.24V34a16.35,16.35,0,0,1-.22,2.62,10.72,10.72,0,0,1-.72,2.52,10,10,0,0,1-1.28,2.24,8.23,8.23,0,0,1-1.9,1.82c-.22.14-.42.3-.64.44a1.1,1.1,0,0,1-.7.24,1.57,1.57,0,0,1-.68-.2,4.59,4.59,0,0,1-.8-.46,3.19,3.19,0,0,1-.66-.6.92.92,0,0,1-.28-.56A.58.58,0,0,1,101.82,41.64Zm18.88-.34c.26-.38.56-.8.9-1.28s.64-.94.94-1.4a8.87,8.87,0,0,0,.6-1,11.11,11.11,0,0,0,.56-2.34,21.39,21.39,0,0,0,.2-2.52c0-.86,0-1.7,0-2.54s-.06-1.62-.06-2.34l.14-.26h2.8l.12.14a.88.88,0,0,0,0,.18v1.22c0,1.28,0,2.58,0,3.9a24.28,24.28,0,0,1-.38,3.86,13.85,13.85,0,0,1-1.14,3.58A10.15,10.15,0,0,1,123,43.6a.39.39,0,0,0-.14,0h-.12a2.16,2.16,0,0,1-.72-.14,4.7,4.7,0,0,1-.78-.38,3.44,3.44,0,0,1-.64-.52.79.79,0,0,1-.28-.58A2.17,2.17,0,0,1,120.7,41.3Zm11.64-13.7.06.06a.11.11,0,0,1,.06.08s.06.08.1.14a.79.79,0,0,1,0,.12V38.66c0,.06.06.12.2.18l.2.1a7.06,7.06,0,0,0,2-1.32c.56-.54,1.14-1.12,1.72-1.76a.31.31,0,0,0,.12-.06.35.35,0,0,1,.14-.06.84.84,0,0,1,.52.28,3.61,3.61,0,0,1,.52.66c.16.26.3.52.42.76a1.89,1.89,0,0,1,.16.56,1.6,1.6,0,0,1-.46.8c-.32.34-.72.74-1.2,1.16s-1,.86-1.6,1.3-1.16.86-1.7,1.22a11.75,11.75,0,0,1-1.48.9,2.45,2.45,0,0,1-1,.36,1.86,1.86,0,0,1-.48-.14,3.62,3.62,0,0,1-.58-.38,6,6,0,0,1-.52-.44.69.69,0,0,1-.22-.38V27.6Zm8.6,15.06.4-.46h3.06l.12-.06.14-.14c0-.06.1-.1.14-.16a.18.18,0,0,0,.06-.1V32.26h2.6V44.4s0,0-.06.06-.06.06-.06.08l-.16.06a.31.31,0,0,1-.12.06h-5.72l-.4-.4Zm27.54-7.54a14.07,14.07,0,0,1,.66-1.56c.22-.48.44-.9.64-1.28a2,2,0,0,0,.3-.88.09.09,0,0,0,0-.06.43.43,0,0,0-.12-.14,2,2,0,0,1-.3,0h-.3a11,11,0,0,0-1.42.1c-.48.08-1,.16-1.44.26l-1.4.24a11.3,11.3,0,0,1-1.42.1.69.69,0,0,1-.58-.24,1.14,1.14,0,0,1-.22-.58,3,3,0,0,1,0-.74c0-.26,0-.5,0-.7a.66.66,0,0,1,.54-.68c.3,0,.74-.08,1.36-.12l2.06-.18c.78,0,1.58-.12,2.44-.18s1.66-.12,2.44-.2l2.08-.16,1.36-.1c.44,0,.92-.08,1.42-.1s1,0,1.48,0h.24a1.17,1.17,0,0,1,.26,0,.46.46,0,0,1,.24.12.29.29,0,0,1,.08.24V30.4l-.26.26A23.13,23.13,0,0,0,176,31a7.53,7.53,0,0,0-2.36.84,4.72,4.72,0,0,0-1.72,1.6,4.78,4.78,0,0,0-.66,2.64,3.55,3.55,0,0,0,.5,2,3.79,3.79,0,0,0,1.3,1.28,7.27,7.27,0,0,0,1.8.76,17.91,17.91,0,0,0,2,.44c.12,0,.16.08.16.22V41a5.72,5.72,0,0,1-.06.74,4,4,0,0,1-.24.84,2.21,2.21,0,0,1-.44.7.8.8,0,0,1-.66.3,7.57,7.57,0,0,1-2.74-.52,7.73,7.73,0,0,1-4.06-3.62,5.74,5.74,0,0,1-.64-2.66A4.88,4.88,0,0,1,168.48,35.12Zm6.38-1.66a.39.39,0,0,1,.12-.28,1.05,1.05,0,0,1,.28-.24,1.27,1.27,0,0,1,.36-.12l.32,0a.77.77,0,0,1,.52.24,3.46,3.46,0,0,1,.46.58,2.64,2.64,0,0,1,.36.66,1.34,1.34,0,0,1,.14.54.63.63,0,0,1-.4.6,1.66,1.66,0,0,1-.76.2h-.2s-.08-.06-.12-.14-.12-.18-.22-.36-.22-.36-.32-.56-.22-.38-.32-.56l-.22-.38Zm2.38-1.26.32-.18a1,1,0,0,1,.34-.12l.28,0a1.51,1.51,0,0,1,.3,0,.39.39,0,0,1,.26.12s.1.14.2.3.24.32.38.5l.34.58a1.19,1.19,0,0,1,.16.5.53.53,0,0,1-.14.28,1.25,1.25,0,0,1-.36.28,2.17,2.17,0,0,1-.38.16.6.6,0,0,1-.28.08.8.8,0,0,1-.56-.26,4.18,4.18,0,0,1-.48-.62,6,6,0,0,1-.36-.72,1.76,1.76,0,0,1-.14-.62A.35.35,0,0,1,177.24,32.2Zm7,6.44a4,4,0,0,1,.82-1,8.77,8.77,0,0,1,1.06-.82,10.07,10.07,0,0,0,1-.78,4.21,4.21,0,0,0,.82-.88,2,2,0,0,0,.34-1.16v-.42a4.21,4.21,0,0,0,0-.5,1,1,0,0,0-.2-.44.53.53,0,0,0-.44-.18h-2.66s-.06,0-.12-.12a1,1,0,0,0-.16-.2.82.82,0,0,0-.06-.16.31.31,0,0,1-.06-.12V30.14l.26-.34h3.06s.06-.06.12-.14a1.15,1.15,0,0,0,.16-.2s0-.08.08-.14a.79.79,0,0,0,0-.12V26.94l.28-.28h2.4s.1.08.18.2.08.2.08.2v.14a1.9,1.9,0,0,1,0,.28,4.92,4.92,0,0,1,0,.52,2.59,2.59,0,0,0-.06.52,1.9,1.9,0,0,0,0,.28.67.67,0,0,0,.08.28.4.4,0,0,0,.2.26h.46a3.81,3.81,0,0,0,1.08-.14,4.69,4.69,0,0,1,1.08-.14,1.57,1.57,0,0,1,.28,0c.1,0,.16.1.16.24v2.12a.36.36,0,0,1-.26.34,2.61,2.61,0,0,1-.64.12l-.82.06a3.68,3.68,0,0,0-.84.16,1.4,1.4,0,0,0-.66.4,1.1,1.1,0,0,0-.26.8,2.49,2.49,0,0,0,.1.62.46.46,0,0,0,.48.32,10.25,10.25,0,0,0,1.38-.08c.46,0,.92-.08,1.4-.08a9.36,9.36,0,0,1,2.14.24,5.93,5.93,0,0,1,1.82.76,4,4,0,0,1,1.28,1.38,4,4,0,0,1,.5,2.1,4.53,4.53,0,0,1-.54,2.24A5.13,5.13,0,0,1,198,42.46a6.85,6.85,0,0,1-2,1,8.23,8.23,0,0,1-2.32.32.89.89,0,0,1-.66-.26,2,2,0,0,1-.44-.62,4.68,4.68,0,0,1-.24-.8,3.47,3.47,0,0,1-.08-.74.36.36,0,0,1,.06-.22c0-.06.1-.1.22-.16.38,0,.82-.06,1.36-.12a7,7,0,0,0,1.48-.34,4,4,0,0,0,1.2-.72,1.67,1.67,0,0,0,.5-1.3,1.56,1.56,0,0,0-.26-.92,1.94,1.94,0,0,0-.68-.6,3.44,3.44,0,0,0-.9-.32,4.13,4.13,0,0,0-1-.1l-.62,0c-.34,0-.72.06-1.12.1a4.13,4.13,0,0,0-1.06.24c-.32.1-.48.26-.48.46v4.52a1.64,1.64,0,0,1-.22.84,2,2,0,0,1-.52.64,2.51,2.51,0,0,1-.76.4,3.07,3.07,0,0,1-.82.14,5.31,5.31,0,0,1-1.62-.28,5.25,5.25,0,0,1-1.56-.8,4.28,4.28,0,0,1-1.18-1.22,2.92,2.92,0,0,1-.46-1.58A2.74,2.74,0,0,1,184.2,38.64Zm2.84,1.8a1,1,0,0,0,.62.24,1.07,1.07,0,0,0,.4-.1.31.31,0,0,0,.2-.32V38.54a.13.13,0,0,0-.14-.14.69.69,0,0,0-.18,0l-.2,0c-.3.26-.52.46-.7.64a1.07,1.07,0,0,0-.26.8A.76.76,0,0,0,187,40.44Zm8.8-10.1a4.2,4.2,0,0,1,.3-.6,3.07,3.07,0,0,1,.42-.58.62.62,0,0,1,.44-.24s.06,0,.06,0l1,.44c.4.16.82.34,1.26.56a12.22,12.22,0,0,1,1.22.72,3.72,3.72,0,0,1,.92.8s0,0,0,.06a1.19,1.19,0,0,1-.14.5,4,4,0,0,1-.34.64,4.85,4.85,0,0,1-.42.58.65.65,0,0,1-.44.24.3.3,0,0,1-.14,0l-.94-.5c-.46-.24-1-.5-1.44-.78s-.94-.56-1.32-.84-.58-.46-.58-.6A1.48,1.48,0,0,1,195.84,30.34Zm13.7,4.52h3.86a.29.29,0,0,0,.24-.12.61.61,0,0,0,.18-.26,1.32,1.32,0,0,0,.1-.3,1.36,1.36,0,0,0,0-.24,1.66,1.66,0,0,0-.12-.56.41.41,0,0,0-.42-.32h-4.14a.55.55,0,0,0-.3.16,1.65,1.65,0,0,0-.22.24,1.75,1.75,0,0,0,0,.4c0,.2,0,.4,0,.6s0,.42-.06.6a3.83,3.83,0,0,0,0,.4q0,.18-.06.54c0,.26-.06.5-.08.78s-.06.52-.08.74,0,.4,0,.48-.08.42-.14.8-.14.8-.24,1.28-.24,1-.38,1.46a10.53,10.53,0,0,1-.44,1.4,7.63,7.63,0,0,1-.5,1.06c-.18.28-.36.42-.56.42a2,2,0,0,1-.6-.12c-.22-.1-.44-.2-.66-.32a2.45,2.45,0,0,1-.54-.44.85.85,0,0,1-.22-.54,4.16,4.16,0,0,1,.18-1.1c.14-.44.28-.9.46-1.38s.34-.94.5-1.4a7.49,7.49,0,0,0,.34-1.26c.14-.88.22-1.78.28-2.7s.08-1.82.1-2.74,0-1.82,0-2.72,0-1.78,0-2.64l.26-.26h14.94l0,.06s.06.06.08.08a.43.43,0,0,1,.08.14.31.31,0,0,1,.06.12v5.34l-.06.1a1.19,1.19,0,0,1-.08.16l-.08.12,0,.08h-3.88l-.1.08a.55.55,0,0,0-.16.12l-.16.16a.35.35,0,0,1-.1.1v.94l.1.1a1.19,1.19,0,0,0,.16.16.55.55,0,0,0,.16.12.22.22,0,0,1,.1.08h4.14l.26.34v9.06a.45.45,0,0,1-.4.4h-1.72l-.8-.4h-6.68a1.12,1.12,0,0,1-.7.38c-.22,0-.46,0-.76,0l-.3,0a3.7,3.7,0,0,1-.46,0,1.17,1.17,0,0,1-.4-.12.31.31,0,0,1-.18-.3V35.2Zm-.68-4.56a.49.49,0,0,0,.4.24h8.8a.45.45,0,0,0,.36-.22.6.6,0,0,0,.18-.38.78.78,0,0,0-.18-.52.56.56,0,0,0-.48-.22H209.4a.66.66,0,0,0-.5.2.6.6,0,0,0-.18.46A.76.76,0,0,0,208.86,30.3Zm3.1,7.8c0,.12.1.16.24.16h1.34a.22.22,0,0,0,.24-.16,1.15,1.15,0,0,0,0-.6.22.22,0,0,0-.24-.16H212.2c-.14,0-.22,0-.24.16a1.15,1.15,0,0,0,0,.6Zm.22,3.56a2.35,2.35,0,0,0,.68.08,1.94,1.94,0,0,0,.34,0,.94.94,0,0,0,.34-.08.57.57,0,0,0,.28-.18.42.42,0,0,0,.12-.32.47.47,0,0,0-.12-.34.57.57,0,0,0-.28-.18.94.94,0,0,0-.34-.08,1.94,1.94,0,0,0-.34,0,2.35,2.35,0,0,0-.68.08c-.18,0-.26.22-.26.54S212,41.62,212.18,41.66Zm4.58-3.56c0,.12.1.16.24.16h1.6a.22.22,0,0,0,.24-.16,1.15,1.15,0,0,0,0-.6.22.22,0,0,0-.24-.16H217c-.14,0-.22,0-.24.16a1.14,1.14,0,0,0,0,.6Zm.08,3.38a.75.75,0,0,0,.3.18,1.9,1.9,0,0,0,.36.08h.74a1.6,1.6,0,0,0,.36-.08.59.59,0,0,0,.4-.6.4.4,0,0,0-.14-.32,1,1,0,0,0-.32-.16l-.38-.06h-.64a2.57,2.57,0,0,0-.38.08.75.75,0,0,0-.3.18.49.49,0,0,0-.12.36A.47.47,0,0,0,216.84,41.48Zm9.48-9.74c.14-1.4.3-2.82.48-4.28a1.07,1.07,0,0,1,.1-.22.69.69,0,0,1,.16-.18h.48c.12,0,.32,0,.58,0a5.68,5.68,0,0,1,.82,0,2.69,2.69,0,0,1,.74.16.44.44,0,0,1,.32.44,8.76,8.76,0,0,1-.18,1.76c-.1.58-.24,1.18-.36,1.78s-.26,1.2-.38,1.8a11,11,0,0,0-.16,1.8v1c0,.12,0,.2,0,.24a.13.13,0,0,0,.1.12.5.5,0,0,0,.16,0,.29.29,0,0,0,.26-.14c.06-.08.12-.18.18-.28s.14-.2.2-.3a.32.32,0,0,1,.3-.08,1.09,1.09,0,0,1,.62.32.73.73,0,0,1,.32.58,6.92,6.92,0,0,1-.18,1.56c-.12.52-.26,1-.42,1.58s-.32,1-.46,1.58a7.29,7.29,0,0,0-.28,1.58,1.37,1.37,0,0,1-.42.34,2.09,2.09,0,0,1-.5.16,4.92,4.92,0,0,1-.56,0h-.54c-.24,0-.44-.16-.62-.46a4.85,4.85,0,0,1-.44-1.16,11.21,11.21,0,0,1-.28-1.58c-.08-.56-.12-1.1-.16-1.64s-.06-1-.08-1.38,0-.68,0-.82C226.12,34.58,226.18,33.14,226.32,31.74Zm7.38,10c.24-.24.54-.52.86-.8l.94-.88a3.77,3.77,0,0,0,.64-.76,5.66,5.66,0,0,0,.66-2.06,15.79,15.79,0,0,0,.14-2.14v-1a.43.43,0,0,0-.4-.4c-.14,0-.38,0-.72,0l-1.08,0-1.1,0c-.34,0-.58,0-.7,0a1.33,1.33,0,0,1-.26,0,2.49,2.49,0,0,1-.32-.08.71.71,0,0,1-.26-.16.4.4,0,0,1-.1-.28V31.2a.79.79,0,0,1,0-.12.85.85,0,0,1,.1-.14s0-.06.06-.08l.06-.06h4.14a.37.37,0,0,0,.28-.1,1.67,1.67,0,0,0,.16-.24,1.47,1.47,0,0,0,.08-.28,1.42,1.42,0,0,0,0-.28c0-.4,0-.82-.06-1.24a8.15,8.15,0,0,1-.08-1.22.81.81,0,0,1,.1-.34.33.33,0,0,1,.3-.16h2.26a.48.48,0,0,1,.28.12.43.43,0,0,1,.12.28v2.8a.51.51,0,0,0,.4.4h2.28v2.52c0,.2-.12.32-.4.34s-.56,0-.88.06a6.31,6.31,0,0,0-.92.08.53.53,0,0,0-.48.46c0,1-.06,1.9-.14,2.78a13.73,13.73,0,0,1-.46,2.46,10.74,10.74,0,0,1-1,2.26,9.15,9.15,0,0,1-1.74,2.1c-.1.1-.26.2-.44.34a.76.76,0,0,1-.5.2,1.64,1.64,0,0,1-.68-.18,5.55,5.55,0,0,1-.74-.44,4.33,4.33,0,0,1-.62-.58,1.05,1.05,0,0,1-.24-.6C233.32,42.22,233.44,42,233.7,41.78Zm20.06-2.38a2.22,2.22,0,0,1,1.58-.6,2,2,0,0,1,.82.16,2.49,2.49,0,0,1,.72.4,1.93,1.93,0,0,1,.48.64,1.89,1.89,0,0,1,.18.82,2,2,0,0,1-.62,1.56,2.25,2.25,0,0,1-1.58.56,2.5,2.5,0,0,1-1.58-.52,1.82,1.82,0,0,1-.64-1.5A1.91,1.91,0,0,1,253.76,39.4Zm-.26-6.6a34.89,34.89,0,0,1-.24-4.08v-.2a.55.55,0,0,1,0-.26.36.36,0,0,1,.12-.18.32.32,0,0,1,.24-.08H257a.3.3,0,0,1,.26.12.62.62,0,0,1,.12.26,1.83,1.83,0,0,1,0,.32v.24a33.64,33.64,0,0,1-.26,4c-.18,1.34-.36,2.66-.54,4a3.62,3.62,0,0,1-.2.34.42.42,0,0,1-.34.18H254.6a.43.43,0,0,1-.38-.24,1.6,1.6,0,0,1-.16-.42C253.86,35.48,253.68,34.14,253.5,32.8Z"/></svg>