<svg id="レイヤー_1" data-name="レイヤー 1" xmlns="http://www.w3.org/2000/svg" viewBox="0 0 206.46 44.86"><path d="M0,16.16l.06,0S.12,16,.12,16a.66.66,0,0,0,.16-.12c.06,0,.1-.08.12-.08H6.8l.06-.08.06-.12A.59.59,0,0,0,7,15.46l.06-.1V13.9a.36.36,0,0,0-.1-.22,1.64,1.64,0,0,0-.16-.18.55.55,0,0,0-.16-.12.5.5,0,0,1-.12-.08H2.4l-.28-.2v-2s0-.06.1-.12l.18-.16h.12c.32,0,.82,0,1.48,0s1.44,0,2.28,0,1.72,0,2.66,0l2.64,0,2.26,0h1.48a.76.76,0,0,1,.18.18.5.5,0,0,1,.1.22V13l-.28.34h-4.8l-.1.08-.16.12a.73.73,0,0,0-.16.18.36.36,0,0,0-.1.22v1.46a.71.71,0,0,0,.14.28c.1.12.18.18.26.18h6.4l.1.08a.66.66,0,0,0,.16.12.44.44,0,0,1,.08.1l.06,0V18l-.28.28H.26L0,18ZM.48,8.24c.24-.1.52-.2.86-.32a11.7,11.7,0,0,0,1.12-.44A5.69,5.69,0,0,0,3.6,6.86,3,3,0,0,0,4.46,6,2.3,2.3,0,0,0,4.8,4.74c0-.3-.1-.46-.28-.52a2.83,2.83,0,0,0-.66-.08,1.43,1.43,0,0,0-.76.16.7.7,0,0,0-.28.4,1.49,1.49,0,0,0,0,.52,1.5,1.5,0,0,1-.1.52.81.81,0,0,1-.38.4,2.29,2.29,0,0,1-1,.16H.52l-.2-.1C.18,6.14.12,6.08.12,6V1.7H6.4a.48.48,0,0,0,.5-.26A2.46,2.46,0,0,0,7,.86,3.53,3.53,0,0,1,7.18.28.41.41,0,0,1,7.6,0H9.46a.45.45,0,0,1,.42.26A2.28,2.28,0,0,1,10,.86a2.46,2.46,0,0,0,.16.58.48.48,0,0,0,.5.26h6.26s0,0,.08.08l.06.12a.43.43,0,0,1,.08.14l.06.12V5.5a.45.45,0,0,1-.1.2.6.6,0,0,1-.18.2l-.32,0a3.28,3.28,0,0,1-.46,0l-.48,0a2.61,2.61,0,0,1-.34,0l-.14,0H15c-.3,0-.48-.08-.54-.26a2.12,2.12,0,0,1-.12-.56c0-.2-.06-.42-.1-.62a.56.56,0,0,0-.4-.44h-.3c-.16,0-.26,0-.3,0l-.32,0a1.13,1.13,0,0,0-.36.06.61.61,0,0,0-.32.16.35.35,0,0,0-.14.32V7a.43.43,0,0,0,.16.36.9.9,0,0,0,.34.22,1.42,1.42,0,0,0,.4.08,2.43,2.43,0,0,0,.36,0,1.33,1.33,0,0,0,.76-.18,1.37,1.37,0,0,0,.44-.36c.12-.14.22-.26.32-.36a.4.4,0,0,1,.36-.18,1.92,1.92,0,0,1,.46.1,3.75,3.75,0,0,1,.6.24,2.54,2.54,0,0,1,.54.36.62.62,0,0,1,.22.42,2.05,2.05,0,0,1-.6,1.48,2.46,2.46,0,0,1-1.42.74h-2.8A5.63,5.63,0,0,1,11,9.76a2.55,2.55,0,0,1-1.1-.52A1.31,1.31,0,0,1,9.4,8.16V4.7a.32.32,0,0,0-.1-.22.89.89,0,0,0-.22-.16A1.69,1.69,0,0,0,8.8,4.2a.88.88,0,0,0-.2,0,.9.9,0,0,0-.74.4,13.94,13.94,0,0,1-.54,1.8,6.23,6.23,0,0,1-.8,1.44A5.79,5.79,0,0,1,5.36,9a8.87,8.87,0,0,1-1.64.94,1.47,1.47,0,0,1-.28.12c-.16.08-.32.14-.52.22a5,5,0,0,1-.58.22,1.86,1.86,0,0,1-.48.1,1.18,1.18,0,0,1-.64-.22,1.89,1.89,0,0,1-.54-.52,3.88,3.88,0,0,1-.4-.66,1.58,1.58,0,0,1-.16-.6C.12,8.46.24,8.36.48,8.24ZM21.26,17l.4-.2.6-.32c.22-.12.42-.24.6-.32l.4-.22.48-.24c.2-.12.38-.22.58-.36a2.41,2.41,0,0,0,.48-.42.73.73,0,0,0,.2-.46.68.68,0,0,0-.36-.58,7.11,7.11,0,0,0-.78-.4,5,5,0,0,1-.8-.42.66.66,0,0,1-.36-.6s0-.08,0-.12l.38-.44a4,4,0,0,1,.38-.44,3.39,3.39,0,0,1,.46-.34,1,1,0,0,1,.54-.14,1.4,1.4,0,0,1,.7.18l.66.42a6,6,0,0,0,.66.42,1.29,1.29,0,0,0,.7.2.8.8,0,0,0,.48-.18,1.92,1.92,0,0,0,.46-.44,2.33,2.33,0,0,0,.34-.56,1.38,1.38,0,0,0,.12-.48v-.08a1,1,0,0,0-.16-.18.46.46,0,0,0-.12-.14H23c-.06,0-.14-.1-.22-.3s-.2-.46-.32-.74-.26-.54-.4-.82a2.08,2.08,0,0,0-.54-.62s-.06,0-.16-.12a2.61,2.61,0,0,1-.3-.2l-.3-.22A.75.75,0,0,1,20.6,7l-.14-.14-.14-.12V6.64a1.32,1.32,0,0,1,.28-.7c.2-.26.42-.52.68-.8s.5-.54.76-.8a6,6,0,0,0,.56-.72,1.88,1.88,0,0,0,.18-.36c.1-.18.18-.36.28-.54a4.87,4.87,0,0,1,.28-.56,1.93,1.93,0,0,0,.18-.4.91.91,0,0,0,.1-.3,4.44,4.44,0,0,1,.22-.6,3.15,3.15,0,0,1,.32-.58A.54.54,0,0,1,24.58,0a7,7,0,0,1,1,.06,1.42,1.42,0,0,1,.64.2,1.11,1.11,0,0,1,.42.44A5,5,0,0,1,27,1.5a1.28,1.28,0,0,0,.12.2.3.3,0,0,0,.14.12H37.8l.26.34v1.6L38,3.8s-.06.06-.08.1L37.78,4l-.12.08H25.92a.13.13,0,0,0-.12.14.69.69,0,0,0,0,.18.92.92,0,0,0,0,.2.13.13,0,0,0,.12.14h10s.06,0,.12.08A1.59,1.59,0,0,0,36.2,5l.08.08,0,.06V6.7a.25.25,0,0,0,0,.06s-.06.06-.08.06l-.16.1-.12,0H25.4a.35.35,0,0,1-.26-.1A1.67,1.67,0,0,1,25,6.62a1.67,1.67,0,0,0-.16-.24.33.33,0,0,0-.24-.1.48.48,0,0,0-.28.12,1.07,1.07,0,0,0-.3.3,1.88,1.88,0,0,0-.24.36.75.75,0,0,0-.1.3.59.59,0,0,0,.16.28q.12.18.24.18H35.4l.26.34c0,.16,0,.44,0,.82s0,.8,0,1.24,0,.86,0,1.26a7,7,0,0,0,0,.82,6.17,6.17,0,0,0,0,.68c0,.38.08.8.14,1.22a6.33,6.33,0,0,0,.32,1.18c.12.34.28.52.5.52a.32.32,0,0,0,.36-.26,2.11,2.11,0,0,0,.08-.62c0-.22,0-.42.06-.58a.28.28,0,0,1,.3-.28.85.85,0,0,1,.46.16,1.73,1.73,0,0,1,.44.42,2.21,2.21,0,0,1,.36.52.93.93,0,0,1,.14.48,4.3,4.3,0,0,1-.14,1.12,2.63,2.63,0,0,1-.4,1,2.19,2.19,0,0,1-.7.72,2.25,2.25,0,0,1-1.06.26,2.62,2.62,0,0,1-1.56-.46,3.43,3.43,0,0,1-1-1.16,5.83,5.83,0,0,1-.64-1.62,14.54,14.54,0,0,1-.34-1.82C33,13.16,33,12.58,33,12s-.08-1-.1-1.44a.45.45,0,0,0-.12-.26.32.32,0,0,0-.28-.14H30.32l-.06.06a.11.11,0,0,0-.06.08.09.09,0,0,0,0,.06.35.35,0,0,0,.18.3,1.67,1.67,0,0,0,.38.16,2.28,2.28,0,0,1,.38.2.45.45,0,0,1,.16.38v.14a.32.32,0,0,0,0,.08l-1.2,1.88a.24.24,0,0,0,0,.1v.14a1,1,0,0,0,.26.66A4.87,4.87,0,0,0,31,15l.76.54a3.29,3.29,0,0,1,.6.5c0,.06,0,.1,0,.14a.86.86,0,0,1-.2.54,2.32,2.32,0,0,1-.48.52,6.51,6.51,0,0,1-.58.46,3.82,3.82,0,0,0-.48.34l-.14,0a1,1,0,0,1-.72-.28q-.3-.27-.6-.6c-.2-.22-.4-.42-.62-.62a1,1,0,0,0-.7-.26,2,2,0,0,0-1.24.42c-.36.28-.74.58-1.12.92s-.76.66-1.14.94A2.17,2.17,0,0,1,23,19l-.16,0-.14,0L21.26,17.5Zm24.2-1.64c-.18.36-.36.76-.54,1.18a6.91,6.91,0,0,1-.62,1.14,1,1,0,0,1-.8.54,1.79,1.79,0,0,1-.62-.12,2,2,0,0,1-.62-.28,1.65,1.65,0,0,1-.48-.42.88.88,0,0,1-.2-.56,1.51,1.51,0,0,1,.26-.7c.18-.32.38-.66.6-1s.44-.66.64-1a6.15,6.15,0,0,0,.38-.64s.06,0,.12-.06.14-.06.14-.08h.08a2.17,2.17,0,0,1,1,.26,4.14,4.14,0,0,0,.94.4h.08s.06,0,.08,0L46,14l.66-.72h1.46c.06,0,.12-.06.22-.2s.2-.3.32-.46l.3-.48a1.06,1.06,0,0,0,.12-.26,1.68,1.68,0,0,0,0-.2c0-.08-.06-.14-.12-.14H46l-.28-.34s0-.12,0-.36,0-.5,0-.84,0-.66,0-1,0-.64,0-.86V8a.64.64,0,0,1,0-.16.94.94,0,0,1,.08-.34A.34.34,0,0,1,46,7.36h5.06l.14.14s0,.14,0,.36,0,.46,0,.74a2.71,2.71,0,0,0,.18.72.44.44,0,0,0,.42.32l.2,0a1.2,1.2,0,0,0,.58-.44,1.51,1.51,0,0,0,.1-.58,5.74,5.74,0,0,0-.08-.78A6.5,6.5,0,0,0,52.38,7c-.08-.28-.18-.54-.28-.8a4.33,4.33,0,0,0-.38-.68.07.07,0,0,0-.06,0,.21.21,0,0,0-.18.1.83.83,0,0,0-.14.22,1.45,1.45,0,0,1-.1.24.79.79,0,0,0,0,.12.11.11,0,0,1-.06.08s-.06.06-.08.06H46l-.22-.08a.44.44,0,0,1-.18-.06h-.08s-.12.16-.2.48-.18.74-.28,1.24-.22,1-.36,1.6a15.77,15.77,0,0,1-.44,1.62,6,6,0,0,1-.58,1.24c-.2.34-.42.5-.66.5a1.19,1.19,0,0,1-.52-.14,3.33,3.33,0,0,1-.56-.36,2.46,2.46,0,0,1-.44-.48.85.85,0,0,1-.18-.5,2.42,2.42,0,0,1,.14-.68,6.59,6.59,0,0,1,.34-.78l.36-.76a4.55,4.55,0,0,0,.26-.72,11.76,11.76,0,0,0,.26-1.54c0-.54.08-1.08.1-1.62s0-1.08,0-1.62V2.16s0,0,.08-.1A1.14,1.14,0,0,1,43,1.92l.16-.16a.31.31,0,0,1,.12-.06h7.6l.34-.34V.3s0,0,.08-.06l.12-.08.16-.08.1-.06h1.6a.36.36,0,0,1,.36.22,2.1,2.1,0,0,1,.14.46,1.4,1.4,0,0,0,.12.46.33.33,0,0,0,.34.22l.06,0h.06l.14-.26c.06-.16.12-.24.12-.28l.16-.16L55,.4A2.53,2.53,0,0,1,55.3.18,1.14,1.14,0,0,0,55.46,0h.2l.2,0a5.28,5.28,0,0,1,.58.3c.34.18.74.4,1.14.64l1.1.68c.34.22.52.36.52.4v1.6s0,0-.06.06-.06.06-.08.08a2.24,2.24,0,0,1-.64.18c-.28,0-.54.06-.8.08h-1.1l-.12.14a.76.76,0,0,0,.36.26l.58.18.54.18q.24.06.24.18v.66a1.64,1.64,0,0,1-.3.94,6.39,6.39,0,0,1-.64.86c-.24.28-.44.56-.64.84a1.65,1.65,0,0,0-.28.9.63.63,0,0,0,.3.54,1,1,0,0,0,.58.2.53.53,0,0,0,.52-.26,2.63,2.63,0,0,0,.18-.6c0-.24.08-.44.12-.62a.34.34,0,0,1,.36-.26,1.59,1.59,0,0,1,.5.1,2.7,2.7,0,0,1,.52.3,1.9,1.9,0,0,1,.38.42.86.86,0,0,1,.16.48,3.2,3.2,0,0,1-.2,1.26,2,2,0,0,1-.54.8,3.49,3.49,0,0,1-.82.56c-.3.16-.64.38-1,.62a.28.28,0,0,0-.06.08l-.06,0a1.31,1.31,0,0,0,.4.8c.28.32.56.64.88,1s.6.68.86,1a1.85,1.85,0,0,1,.4,1.08.89.89,0,0,1-.22.54,2.79,2.79,0,0,1-.54.42,3.24,3.24,0,0,1-.66.26,2.35,2.35,0,0,1-.6.1.62.62,0,0,1-.56-.36q-.18-.36-.36-.78a3.82,3.82,0,0,0-.36-.76.61.61,0,0,0-.58-.36c-.06,0-.12.1-.2.26s-.14.36-.22.58-.16.46-.26.68a2,2,0,0,1-.26.48,1.58,1.58,0,0,1-.76.56,4.82,4.82,0,0,1-1,.24H52.12c-.24,0-.44,0-.64,0h-.42c-.38,0-.82,0-1.34,0a5.84,5.84,0,0,1-1.46-.12A3.17,3.17,0,0,1,47,17.94a1.73,1.73,0,0,1-.62-1.24,1.42,1.42,0,0,1,0-.28,3.91,3.91,0,0,0,0-.46,3.57,3.57,0,0,0,0-.46c0-.14,0-.24,0-.28a1.39,1.39,0,0,0,0-.32c0-.06-.1-.1-.22-.1S45.64,15,45.46,15.32ZM45.32,4.56l.08.16a.28.28,0,0,0,.06.1h6.06a2.53,2.53,0,0,0,0-.32,2.6,2.6,0,0,0,0-.34.34.34,0,0,0,0-.1s-.06,0-.1,0H45.6c-.06,0-.1.06-.18.2a1.38,1.38,0,0,1-.1.2v.14ZM48.1,9.72a.72.72,0,0,0,.36.06.84.84,0,0,0,.36-.06q.12,0,.12-.3a.5.5,0,0,0-.16-.36.63.63,0,0,0-.4-.12.32.32,0,0,0-.3.14.74.74,0,0,0-.1.34Q48,9.69,48.1,9.72Zm1.06,4.06c-.06,0-.1.1-.1.24V15.5a.59.59,0,0,0,.3.46.85.85,0,0,0,.5.2h2.4a.65.65,0,0,0,.48-.18,2.56,2.56,0,0,0,.28-.42,3.92,3.92,0,0,1,.24-.42.49.49,0,0,1,.4-.2,2,2,0,0,1,.9.22,2.16,2.16,0,0,0,.94.22,1,1,0,0,0-.06-.34,2.38,2.38,0,0,0-.18-.3,2,2,0,0,1-.16-.28.73.73,0,0,1-.06-.3.49.49,0,0,1,.26-.46c.18-.08.36-.18.56-.26l.56-.28a.44.44,0,0,0,.24-.4s-.1-.14-.32-.3L55.62,12l-.78-.44a1.43,1.43,0,0,0-.52-.18.85.85,0,0,0-.4.1l-.36.24-.38.24a.93.93,0,0,1-.42.1,1,1,0,0,1-.54-.12,4,4,0,0,1-.5-.56.25.25,0,0,0-.12,0c-.14,0-.24,0-.26.14a1.55,1.55,0,0,0,0,.32.45.45,0,0,0,0,.14V12l1.34,1.34v.06a.84.84,0,0,1-.18.46,2.37,2.37,0,0,1-.44.46,4.65,4.65,0,0,1-.52.34,1.05,1.05,0,0,1-.46.16.85.85,0,0,1-.44-.16,3.68,3.68,0,0,1-.44-.34c-.16-.14-.28-.26-.38-.36a1.19,1.19,0,0,0-.2-.22.68.68,0,0,0-.2,0A.75.75,0,0,0,49.16,13.78ZM54.38,4.9a1.7,1.7,0,0,0,.08.46,1.33,1.33,0,0,0,.18.38.32.32,0,0,0,.28.16.34.34,0,0,0,.16,0s.06,0,.12-.12a2.4,2.4,0,0,1,.16-.3c.08-.14.16-.28.24-.44l.24-.44c.08-.12.12-.22.16-.28V4.16l-.08-.1-.06,0H54.52l-.08,0a.34.34,0,0,0,0,.1.55.55,0,0,0,0,.16V4.9Zm12.76,8.4a5.66,5.66,0,0,1,.76-1.18,9,9,0,0,1,1-1q.51-.45,1-.78l.76-.58c.2-.18.3-.3.3-.4a.33.33,0,0,0-.3-.36,2.76,2.76,0,0,0-.5-.06,4.08,4.08,0,0,0-1.22.2,2.86,2.86,0,0,0-1.06.62l-2.4,2.4-.12,0a1.36,1.36,0,0,1-.56-.18,6.26,6.26,0,0,1-.68-.42,3.52,3.52,0,0,1-.56-.52.82.82,0,0,1-.24-.5.34.34,0,0,1,0-.14c.2-.22.5-.52.9-.88a16.21,16.21,0,0,0,1.16-1.18,9.67,9.67,0,0,0,1-1.28,2.18,2.18,0,0,0,.42-1.2V5.66c0-.1,0-.16-.14-.16a3.19,3.19,0,0,0-.34,0l-.46,0-.48-.06-.32,0-.44-.06a1.59,1.59,0,0,1-.36-.08A.66.66,0,0,1,64,5.1C64,5,63.92,5,63.92,5V2.82h3.74a.5.5,0,0,0,.48-.26A1.67,1.67,0,0,0,68.36,2l.18-.66a1,1,0,0,1,.32-.5h.46l1,0A1.37,1.37,0,0,1,71,1a.75.75,0,0,1,.36.48,2.29,2.29,0,0,1,0,.94c0,.16.12.24.22.26a1.62,1.62,0,0,0,.32,0,12.48,12.48,0,0,0,1.94-.14,15.54,15.54,0,0,1,1.94-.14h.38l.12.14v2c0,.22-.16.36-.5.44a6.6,6.6,0,0,1-1.22.12c-.48,0-1,0-1.6,0a10.46,10.46,0,0,0-1.62.08,4.15,4.15,0,0,0-1.24.32.82.82,0,0,0-.5.76.4.4,0,0,0,.06.22.71.71,0,0,0,.22.18h1.42A3.73,3.73,0,0,1,72.6,7,2,2,0,0,1,73,7.2c.14.1.26.2.38.3a2.43,2.43,0,0,0,.4.28,1,1,0,0,0,.44.12h.12L75,7.6c.3-.12.64-.28,1-.44l1-.46c.32-.14.54-.24.66-.28L78,6.3a1.24,1.24,0,0,1,.3,0,.65.65,0,0,1,.46.24,2.38,2.38,0,0,1,.36.58c.08.22.16.44.22.66a3.21,3.21,0,0,1,.08.54.76.76,0,0,1-.38.56,4.29,4.29,0,0,1-1,.48c-.38.14-.78.28-1.24.42s-.86.26-1.24.4a5.38,5.38,0,0,0-.94.38c-.26.14-.38.28-.38.42v2.66l-.34.28h-2q-.21,0-.24-.24a3.86,3.86,0,0,1,0-.5,3.27,3.27,0,0,0-.08-.5.36.36,0,0,0-.38-.24H71l-.5.42a2.81,2.81,0,0,0-.34.36,1.9,1.9,0,0,0-.18.42,2,2,0,0,0-.06.54,1,1,0,0,0,.3.8,2.05,2.05,0,0,0,.78.4h.9a5.06,5.06,0,0,0,.54,0h.36a21.52,21.52,0,0,0,2.3-.14,17.6,17.6,0,0,1,2.32-.16h.2a1.11,1.11,0,0,1,.18,0l.12.12v2.14a.43.43,0,0,1-.24.38,1.6,1.6,0,0,1-.42.16,20.18,20.18,0,0,1-2.12.14H71.66c-.28,0-.56,0-.8,0h-.54A9.66,9.66,0,0,1,69,17.68a3.66,3.66,0,0,1-1.1-.62,3,3,0,0,1-.76-1,3.37,3.37,0,0,1-.26-1.4A3.19,3.19,0,0,1,67.14,13.3Zm17-3.54s0-.08-.14-.24L83.68,9c-.1-.22-.22-.44-.32-.66s-.22-.42-.3-.56a.61.61,0,0,1-.1-.2c0-.1,0-.18,0-.2a4.28,4.28,0,0,1,.24-.48c.16-.3.36-.66.62-1.1l.8-1.4c.3-.52.58-1,.82-1.48l.66-1.18c.18-.34.3-.54.34-.62a4.19,4.19,0,0,1,.26-.52.47.47,0,0,1,.46-.3c.14,0,.34,0,.56,0a3.36,3.36,0,0,1,.64.18,1.44,1.44,0,0,1,.54.32.61.61,0,0,1,.22.5V1.5a.56.56,0,0,0,0,.12L88,4.3v8.92h.4c.14,0,.34-.14.58-.44a9.67,9.67,0,0,0,.8-1.12c.3-.46.58-.94.88-1.48s.58-1.06.8-1.56l.6-1.32a2.4,2.4,0,0,0,.22-.8V6.22a.58.58,0,0,0,0-.18A.14.14,0,0,0,92.12,6H89.6s-.06,0-.12-.08l-.16-.12s0,0-.06-.06a.35.35,0,0,1-.06-.08v-2l.26-.32h3.86s.06,0,.12-.06.1-.1.16-.14a1.14,1.14,0,0,1,.14-.16.31.31,0,0,0,.06-.12V.56c0-.08.06-.16.18-.26a.71.71,0,0,1,.28-.14h1.86l.28.26a3.94,3.94,0,0,0,0,.42c0,.22,0,.44,0,.66s0,.44,0,.64a3.94,3.94,0,0,1,0,.42.68.68,0,0,1,.06.16,1.13,1.13,0,0,0,.08.24,1,1,0,0,0,.14.24c0,.08.08.1.12.1h4.54l.26.32v2l0,.08s-.06.06-.08.06a.55.55,0,0,1-.16.12l-.12.08H98.26c-.08,0-.12.08-.12.22s0,.22,0,.26a3.1,3.1,0,0,0,.3,1.22,10.58,10.58,0,0,0,.74,1.4,15.46,15.46,0,0,0,1,1.48c.36.48.68.94,1,1.38s.54.78.74,1.12a1.6,1.6,0,0,1,.3.72s0,.08,0,.14a2.63,2.63,0,0,0-.24.28,4.85,4.85,0,0,1-.44.56l-.54.56a1.3,1.3,0,0,1-.5.32s0,0-.08,0a.09.09,0,0,1-.06,0l-.8-.8a.41.41,0,0,0-.1,0,.22.22,0,0,0-.1,0,.27.27,0,0,0-.26.14c0,.12-.1.22-.14.34l-.12.3a.25.25,0,0,1-.22.14h-1.6s-.08,0-.12.1a.69.69,0,0,0-.14.24,1.13,1.13,0,0,0-.08.24.31.31,0,0,1-.06.14,3.63,3.63,0,0,1,0,.4c0,.18,0,.38,0,.6s0,.42,0,.62a3.33,3.33,0,0,0,0,.38.9.9,0,0,1-.2.18.37.37,0,0,1-.2.1H94.4a.31.31,0,0,1-.12-.06,1.19,1.19,0,0,1-.16-.08l-.2-.16-.12-.1V16c0-.1-.1-.16-.28-.16a4,4,0,0,1-.64-.06,2.17,2.17,0,0,1-.78-.28,1.54,1.54,0,0,1-.64-.82s0,0-.06-.08-.08,0-.08-.06h-.06a.48.48,0,0,0-.4.18c-.1.12-.2.24-.3.38a2.86,2.86,0,0,1-.3.36.52.52,0,0,1-.42.18l-.14,0c-.08,0-.1,0-.1,0l-1.08-1.06h-.6V18.3a.44.44,0,0,1-.08.1.55.55,0,0,1-.12.16.73.73,0,0,1-.18.16.36.36,0,0,1-.22.1h-1.6l-.1-.06-.16-.06-.12-.08-.08-.06V9.76Zm8.32,3.38a.94.94,0,0,0,.48.1.83.83,0,0,0,.2,0,1.15,1.15,0,0,0,.28-.08,1.08,1.08,0,0,0,.22-.12.28.28,0,0,0,.1-.2v-2.4l-.06-.06s0-.06-.06-.06,0,0-.08,0-.28.12-.42.36a4.71,4.71,0,0,0-.42.78c-.12.3-.22.58-.32.84a2.57,2.57,0,0,0-.12.5A.37.37,0,0,0,92.44,13.14Zm4.08-.82a1.21,1.21,0,0,0,.1.48.8.8,0,0,0,.26.32,1.14,1.14,0,0,0,.58.12,1,1,0,0,0,.5-.12.47.47,0,0,0,.18-.42v-.14c0-.06,0-.1,0-.14a2.45,2.45,0,0,0-.14-.34c-.08-.16-.16-.34-.26-.52s-.16-.36-.22-.52-.14-.28-.18-.34a4.4,4.4,0,0,1-.18-.42C97.06,10.1,97,10,96.8,10h-.14a3.27,3.27,0,0,0-.12.84c0,.26,0,.56,0,.86Zm11.94,3c-.18.36-.36.76-.54,1.18a6.91,6.91,0,0,1-.62,1.14,1,1,0,0,1-.8.54,1.79,1.79,0,0,1-.62-.12,2,2,0,0,1-.62-.28,1.65,1.65,0,0,1-.48-.42.88.88,0,0,1-.2-.56,1.51,1.51,0,0,1,.26-.7c.18-.32.38-.66.6-1s.44-.66.64-1a6.15,6.15,0,0,0,.38-.64s.06,0,.12-.06.14-.06.14-.08h.08a2.17,2.17,0,0,1,1,.26,4.14,4.14,0,0,0,.94.4h.08s.06,0,.08,0l.12,0,.66-.72h1.46c.06,0,.12-.06.22-.2s.2-.3.32-.46l.3-.48a1.06,1.06,0,0,0,.12-.26,1.68,1.68,0,0,0,0-.2c0-.08-.06-.14-.12-.14H109l-.28-.34s0-.12,0-.36,0-.5,0-.84,0-.66,0-1,0-.64,0-.86V8a.64.64,0,0,1,0-.16.94.94,0,0,1,.08-.34.34.34,0,0,1,.34-.16h5.06l.14.14s0,.14,0,.36,0,.46,0,.74a2.71,2.71,0,0,0,.18.72.44.44,0,0,0,.42.32l.2,0a1.2,1.2,0,0,0,.58-.44,1.51,1.51,0,0,0,.1-.58,5.74,5.74,0,0,0-.08-.78,6.5,6.5,0,0,0-.22-.84c-.08-.28-.18-.54-.28-.8a4.33,4.33,0,0,0-.38-.68.07.07,0,0,0-.06,0,.21.21,0,0,0-.18.1.83.83,0,0,0-.14.22,1.45,1.45,0,0,1-.1.24.79.79,0,0,0,0,.12.11.11,0,0,1-.06.08s-.06.06-.08.06H109l-.22-.08a.44.44,0,0,1-.18-.06h-.08s-.12.16-.2.48-.18.74-.28,1.24-.22,1-.36,1.6a15.77,15.77,0,0,1-.44,1.62,6,6,0,0,1-.58,1.24c-.2.34-.42.5-.66.5a1.19,1.19,0,0,1-.52-.14,3.33,3.33,0,0,1-.56-.36,2.46,2.46,0,0,1-.44-.48.85.85,0,0,1-.18-.5,2.42,2.42,0,0,1,.14-.68,6.59,6.59,0,0,1,.34-.78l.36-.76a4.55,4.55,0,0,0,.26-.72,11.76,11.76,0,0,0,.26-1.54c0-.54.08-1.08.1-1.62s0-1.08,0-1.62V2.16s0,0,.08-.1a1.14,1.14,0,0,1,.16-.14l.16-.16.12-.06h7.6l.34-.34V.3s0,0,.08-.06l.12-.08.16-.08.1-.06h1.6a.36.36,0,0,1,.36.22,2.1,2.1,0,0,1,.14.46,1.4,1.4,0,0,0,.12.46.33.33,0,0,0,.34.22l.06,0h.06l.14-.26c.06-.16.12-.24.12-.28l.16-.16L118,.4a2.53,2.53,0,0,1,.26-.22,1.14,1.14,0,0,0,.16-.16h.2c.1,0,.16,0,.2,0a5.28,5.28,0,0,1,.58.3c.34.18.74.4,1.14.64l1.1.68c.34.22.52.36.52.4v1.6s0,0-.06.06-.06.06-.08.08a2.24,2.24,0,0,1-.64.18c-.28,0-.54.06-.8.08h-1.1l-.12.14a.76.76,0,0,0,.36.26l.58.18.54.18q.24.06.24.18v.66a1.64,1.64,0,0,1-.3.94,6.39,6.39,0,0,1-.64.86c-.24.28-.44.56-.64.84a1.65,1.65,0,0,0-.28.9.63.63,0,0,0,.3.54,1,1,0,0,0,.58.2.53.53,0,0,0,.52-.26,2.63,2.63,0,0,0,.18-.6c0-.24.08-.44.12-.62a.34.34,0,0,1,.36-.26,1.59,1.59,0,0,1,.5.1,2.7,2.7,0,0,1,.52.3,1.9,1.9,0,0,1,.38.42.86.86,0,0,1,.16.48,3.2,3.2,0,0,1-.2,1.26,2,2,0,0,1-.54.8,3.49,3.49,0,0,1-.82.56c-.3.16-.64.38-1,.62a.28.28,0,0,0-.06.08l-.06,0a1.31,1.31,0,0,0,.4.8c.28.32.56.64.88,1s.6.68.86,1a1.85,1.85,0,0,1,.4,1.08.89.89,0,0,1-.22.54,2.79,2.79,0,0,1-.54.42,3.24,3.24,0,0,1-.66.26,2.35,2.35,0,0,1-.6.1.62.62,0,0,1-.56-.36q-.18-.36-.36-.78a3.82,3.82,0,0,0-.36-.76.61.61,0,0,0-.58-.36c-.06,0-.12.1-.2.26s-.14.36-.22.58-.16.46-.26.68a2,2,0,0,1-.26.48,1.58,1.58,0,0,1-.76.56,4.82,4.82,0,0,1-1,.24h-1.08c-.24,0-.44,0-.64,0h-.42c-.38,0-.82,0-1.34,0a5.84,5.84,0,0,1-1.46-.12,3.17,3.17,0,0,1-1.24-.54,1.73,1.73,0,0,1-.62-1.24,1.42,1.42,0,0,1,0-.28,3.91,3.91,0,0,0,0-.46,3.57,3.57,0,0,0,0-.46c0-.14,0-.24,0-.28a1.39,1.39,0,0,0,0-.32c0-.06-.1-.1-.22-.1S108.64,15,108.46,15.32Zm-.14-10.76.08.16a.28.28,0,0,0,.06.1h6.06a2.53,2.53,0,0,0,0-.32,2.6,2.6,0,0,0,0-.34.34.34,0,0,0,0-.1s-.06,0-.1,0H108.6c-.06,0-.1.06-.18.2a1.38,1.38,0,0,1-.1.2v.14Zm2.78,5.16a.72.72,0,0,0,.36.06.84.84,0,0,0,.36-.06q.12,0,.12-.3a.5.5,0,0,0-.16-.36.63.63,0,0,0-.4-.12.32.32,0,0,0-.3.14.74.74,0,0,0-.1.34Q111,9.69,111.1,9.72Zm1.06,4.06c-.06,0-.1.1-.1.24V15.5a.59.59,0,0,0,.3.46.85.85,0,0,0,.5.2h2.4a.65.65,0,0,0,.48-.18,2.56,2.56,0,0,0,.28-.42,3.92,3.92,0,0,1,.24-.42.49.49,0,0,1,.4-.2,2,2,0,0,1,.9.22,2.16,2.16,0,0,0,.94.22,1,1,0,0,0-.06-.34,2.38,2.38,0,0,0-.18-.3,2,2,0,0,1-.16-.28.73.73,0,0,1-.06-.3.49.49,0,0,1,.26-.46c.18-.08.36-.18.56-.26l.56-.28a.44.44,0,0,0,.24-.4s-.1-.14-.32-.3l-.72-.48-.78-.44a1.43,1.43,0,0,0-.52-.18.85.85,0,0,0-.4.1l-.36.24-.38.24a.93.93,0,0,1-.42.1,1,1,0,0,1-.54-.12,4,4,0,0,1-.5-.56.25.25,0,0,0-.12,0c-.14,0-.24,0-.26.14a1.55,1.55,0,0,0,0,.32.45.45,0,0,0,0,.14V12l1.34,1.34v.06a.84.84,0,0,1-.18.46,2.37,2.37,0,0,1-.44.46,4.65,4.65,0,0,1-.52.34,1.05,1.05,0,0,1-.46.16.85.85,0,0,1-.44-.16,3.68,3.68,0,0,1-.44-.34c-.16-.14-.28-.26-.38-.36a1.19,1.19,0,0,0-.2-.22.68.68,0,0,0-.2,0A.75.75,0,0,0,112.16,13.78Zm5.22-8.88a1.7,1.7,0,0,0,.08.46,1.33,1.33,0,0,0,.18.38.32.32,0,0,0,.28.16.34.34,0,0,0,.16,0s.06,0,.12-.12a2.4,2.4,0,0,1,.16-.3c.08-.14.16-.28.24-.44l.24-.44c.08-.12.12-.22.16-.28V4.16l-.08-.1-.06,0h-1.34l-.08,0a.34.34,0,0,0,0,.1.55.55,0,0,0,0,.16V4.9ZM132,1.22l.12.14a1.73,1.73,0,0,0,0,.22v.3c0,1.52,0,3-.14,4.52s-.14,3-.14,4.5v2.32a2,2,0,0,0,.9,1.48,3.48,3.48,0,0,0,1.68.4,4.91,4.91,0,0,0,1.62-.26,11.13,11.13,0,0,0,1.48-.68,11.61,11.61,0,0,0,1.26-.86,12.52,12.52,0,0,0,1-.88q.45-.39.72-.66c.18-.18.3-.26.36-.26a.89.89,0,0,1,.6.26,4.72,4.72,0,0,1,.62.64,5.3,5.3,0,0,1,.46.78,1.43,1.43,0,0,1,.2.64.75.75,0,0,1-.18.4,3.47,3.47,0,0,1-.22.34,12.88,12.88,0,0,1-3.68,2.76,10.05,10.05,0,0,1-4.46,1,7.56,7.56,0,0,1-1.84-.22,6,6,0,0,1-1.78-.7,4.42,4.42,0,0,1-1.32-1.26,3.19,3.19,0,0,1-.52-1.82V1.22Zm21.78,16q-.12-.39-.24-.84c-.1-.28-.18-.56-.26-.84a5.69,5.69,0,0,0-.16-.56,4.89,4.89,0,0,0-.16-.54c-.08-.28-.2-.6-.3-.94s-.24-.66-.34-1-.2-.56-.26-.72-.12-.38-.18-.66-.18-.54-.28-.8a2.77,2.77,0,0,0-.4-.66.73.73,0,0,0-.58-.3.5.5,0,0,0-.16,0h-.14l-2.12,1.06s-.06,0-.12,0a.39.39,0,0,1-.14,0,.72.72,0,0,1-.54-.28A4.43,4.43,0,0,1,147,9.5a3.47,3.47,0,0,1-.28-.76,2.77,2.77,0,0,1-.1-.56V7.94a.16.16,0,0,1,.14-.18l.62-.16c.32-.08.66-.2,1-.32a5.69,5.69,0,0,0,.92-.48.76.76,0,0,0,.4-.58,1.24,1.24,0,0,0-.24-.72,5.59,5.59,0,0,0-.5-.7c-.18-.22-.34-.46-.5-.68a1.18,1.18,0,0,1-.24-.7.59.59,0,0,1,.3-.48,2.72,2.72,0,0,1,.68-.36c.26-.08.52-.16.8-.22a3,3,0,0,1,.64-.08h.24s.1,0,.16.14l1.32,2.4a.6.6,0,0,0,.22.26.73.73,0,0,0,.32,0,2,2,0,0,0,.52-.1,4.32,4.32,0,0,0,.82-.26,3.85,3.85,0,0,0,.76-.38.63.63,0,0,0,.32-.5c0-.08,0-.12,0-.12L153.52,1.9s0,0,0-.08v-.1a.75.75,0,0,1,.18-.46,5.15,5.15,0,0,1,.48-.42,3,3,0,0,1,.56-.3,1.21,1.21,0,0,1,.48-.12,1.12,1.12,0,0,1,.56.22,7.5,7.5,0,0,1,.72.48c.24.2.44.4.64.58a.91.91,0,0,1,.28.46v.4c-.16.14-.32.28-.5.46a.71.71,0,0,0-.28.58c.44,0,.86,0,1.28-.06s.86-.06,1.3-.06a6.06,6.06,0,0,1,1.88.3,5.52,5.52,0,0,1,1.64.84A4.24,4.24,0,0,1,163.88,6a3.69,3.69,0,0,1,.46,1.84,4.47,4.47,0,0,1-.42,2,4.38,4.38,0,0,1-1.1,1.44,5.07,5.07,0,0,1-1.6.92,6.16,6.16,0,0,1-1.94.3h-.58a8.64,8.64,0,0,1-1-.06,6,6,0,0,1-.94-.2c-.3-.1-.44-.24-.44-.42V9.62c0-.12,0-.2.14-.22a1.38,1.38,0,0,1,.26,0,4.27,4.27,0,0,1,1.06.16,5.88,5.88,0,0,0,1.08.24h.06a2.48,2.48,0,0,0,1.56-.52,1.68,1.68,0,0,0,.66-1.42,1.76,1.76,0,0,0-.28-1,1.49,1.49,0,0,0-.94-.62h-.46a1.23,1.23,0,0,1-.28,0H159a6.37,6.37,0,0,0-.72.06l-1.06.2c-.38.08-.78.16-1.18.28a8.89,8.89,0,0,0-1.1.36,4.44,4.44,0,0,0-.82.46.75.75,0,0,0-.32.52l.06.18a1.06,1.06,0,0,0,.06.22c.54,1.42,1.06,2.8,1.6,4.18s1,2.8,1.48,4.22v.28a.61.61,0,0,1-.38.56,2.61,2.61,0,0,1-.84.3,4.53,4.53,0,0,1-.86.14,2,2,0,0,0-.46.06.87.87,0,0,1-.3-.16.69.69,0,0,1-.24-.24C153.9,17.66,153.84,17.48,153.78,17.2Zm18.2-1a.17.17,0,0,1,.14-.16c.48-.12,1-.3,1.56-.48a8.21,8.21,0,0,0,1.52-.72.31.31,0,0,0,.08-.12.29.29,0,0,0,0-.14c0-.2-.24-.38-.58-.52a7.62,7.62,0,0,1-1.1-.6,4.27,4.27,0,0,1-1-1,3.09,3.09,0,0,1-.48-1.84,2.84,2.84,0,0,1,.34-1.4,3.84,3.84,0,0,1,.84-1,5.05,5.05,0,0,1,1.1-.74,11,11,0,0,1,1.1-.54l.84-.36c.22-.1.34-.18.34-.26a1.57,1.57,0,0,0,0-.28.24.24,0,0,0-.24-.18h-7.6l-.28-.26v-2l.28-.34h6.8a1.24,1.24,0,0,0,.7-.16.78.78,0,0,0,.34-.42A2,2,0,0,0,176.7,2c0-.22,0-.46,0-.74l.26-.26h2.54l.26.26a2.29,2.29,0,0,1,0,.3V2a3.88,3.88,0,0,0,0,.48,1,1,0,0,0,.12.38.43.43,0,0,0,.14.12c.06.06.1.08.12.08h4.68q.12,0,.24.18a1.11,1.11,0,0,1,.16.3V4.94a1.19,1.19,0,0,1-.14.56.33.33,0,0,0-.06.12s-.06.08-.08.08H180l-.28.32v.16c0,.08,0,.16,0,.28s0,.2,0,.3,0,.16,0,.22a5.06,5.06,0,0,0,.12,1.12c.08.34.16.7.26,1a9.07,9.07,0,0,1,.24,1.06,5,5,0,0,1,.12,1.1,6.69,6.69,0,0,1-.5,2.38,9.18,9.18,0,0,1-1.36,2.3,8.24,8.24,0,0,1-2,1.76,4.22,4.22,0,0,1-2.36.7s-.06,0-.08,0-.12,0-.24-.06l-.16-.06L172,16.56s0,0,0-.06v-.32Zm3.28-4.86a1.15,1.15,0,0,0,.86.32,1.16,1.16,0,0,0,.9-.36,1.29,1.29,0,0,0,.32-.92,1.1,1.1,0,0,0-.32-.84,1.2,1.2,0,0,0-.84-.3,1.26,1.26,0,0,0-.88.32,1,1,0,0,0-.38.88A1.22,1.22,0,0,0,175.26,11.32ZM189.8,3.16V3l.26-.26h2.66L193,3c0,.24,0,.64,0,1.2V7.78c0,.56,0,1,0,1.18s0,.66.06,1.16a7.35,7.35,0,0,0,.22,1.48,5.34,5.34,0,0,0,.52,1.34,1.29,1.29,0,0,0,.92.68.76.76,0,0,0,.62-.16,1.93,1.93,0,0,0,.44-.58,7,7,0,0,0,.32-.78c.1-.28.2-.56.3-.8a3.86,3.86,0,0,1,.26-.62c.1-.18.2-.26.34-.26a.83.83,0,0,1,.6.28,4.62,4.62,0,0,1,.6.64,3.69,3.69,0,0,1,.48.8,2,2,0,0,1,.2.72,3.75,3.75,0,0,1-.36,1.54,6.07,6.07,0,0,1-.92,1.44,5.77,5.77,0,0,1-1.32,1.1,2.76,2.76,0,0,1-1.48.44,3.25,3.25,0,0,1-2.3-.82,5.85,5.85,0,0,1-1.48-2.1,11.26,11.26,0,0,1-.82-2.88,27.55,27.55,0,0,1-.34-3.12c-.06-1-.08-2-.08-2.86V3.48C189.78,3.4,189.8,3.3,189.8,3.16Zm10.52,1.06a.56.56,0,0,1,.3-.46,3.21,3.21,0,0,1,.7-.3,5.75,5.75,0,0,1,.8-.18,4.1,4.1,0,0,1,.56-.06c.24,0,.52.2.82.6a7.26,7.26,0,0,1,.86,1.5,19.74,19.74,0,0,1,.8,2c.24.74.46,1.48.66,2.18s.36,1.34.48,1.92a6.73,6.73,0,0,1,.16,1.3.69.69,0,0,1-.32.56,3.15,3.15,0,0,1-.76.44,3.82,3.82,0,0,1-.88.3,2.6,2.6,0,0,1-.64.12s-.12-.18-.26-.56l-.44-1.42-.54-1.88c-.22-.68-.4-1.34-.6-2s-.38-1.22-.58-1.74A8.77,8.77,0,0,0,201,5.5s-.06-.12-.12-.22l-.22-.34a2.8,2.8,0,0,1-.2-.32,1.26,1.26,0,0,1-.14-.2ZM17,26.3s0,0,0-.06l.1-.08a.87.87,0,0,1,.14-.08l.12-.06H23.1l.4.4V28l-.4.48H20s0,0-.1.06-.1.1-.16.14a.92.92,0,0,1-.14.14.31.31,0,0,0-.06.12v9.46H17ZM38.5,42.56l.12-.14a2.64,2.64,0,0,0,1.94-.74A3.52,3.52,0,0,0,41.32,40a9.9,9.9,0,0,0,.08-2.2,22.2,22.2,0,0,1-.1-2.24v-2.2c-.06-.16-.14-.26-.26-.26a1.62,1.62,0,0,0-.32,0,1,1,0,0,0-.42.06,1,1,0,0,0-.2.36c-.08.82-.18,1.68-.28,2.58a25.29,25.29,0,0,1-.44,2.7,13.46,13.46,0,0,1-.82,2.54,8.29,8.29,0,0,1-1.4,2.18l-.32.32c-.14.14-.26.28-.4.4s-.24.26-.32.34-.14.14-.16.14h-.4a2.23,2.23,0,0,1-.18-.2,3.7,3.7,0,0,1-.28-.28,1.85,1.85,0,0,0-.28-.28,1.16,1.16,0,0,0-.2-.18.33.33,0,0,0-.12-.06l-.14-.08h-.8c-.58,0-1.18,0-1.76.08l-1.74.18c-.58.08-1.16.14-1.76.2s-1.16.08-1.76.08A.62.62,0,0,1,26.1,44a.8.8,0,0,1-.2-.36,2,2,0,0,1-.06-.48,3.86,3.86,0,0,1,0-.46v-.54a1.76,1.76,0,0,1,.66-.24c.3,0,.62-.08,1-.1s.64,0,.92,0,.46,0,.54,0a3.61,3.61,0,0,0,.36-.2.42.42,0,0,0,.18-.34,1,1,0,0,0-.06-.3.23.23,0,0,0-.22-.16H26.62a.29.29,0,0,1-.24-.12.76.76,0,0,1-.12-.26.83.83,0,0,1,0-.32v-.42a2,2,0,0,1,0-.32,1.05,1.05,0,0,1,.1-.3c0-.08.08-.12.16-.12h2.4a.27.27,0,0,0,.24-.1,1,1,0,0,0,0-.24.92.92,0,0,0,0-.2c0-.1-.06-.14-.14-.14H26.76a.44.44,0,0,1-.1-.08A.55.55,0,0,1,26.5,38L26.42,38l-.06-.06V32.3s0,0,.06-.08l.08-.06a1.59,1.59,0,0,0,.16-.12.44.44,0,0,1,.1-.08H29c.08,0,.12,0,.14-.14a.92.92,0,0,0,0-.2.72.72,0,0,0,0-.22.27.27,0,0,0-.24-.1H26.1c-.06,0-.12,0-.16-.14a1.32,1.32,0,0,1-.08-.3,2.23,2.23,0,0,1,0-.34v-.16a1,1,0,0,1,.16-.58,1,1,0,0,1,.32-.34,1.89,1.89,0,0,1,.34-.18c.1,0,.14-.08.14-.1a.81.81,0,0,0-.1-.36c-.08-.14-.16-.26-.26-.42L26.18,28a1.19,1.19,0,0,1-.1-.46c0-.28.2-.48.62-.6a6.07,6.07,0,0,1,1.46-.22c.56,0,1.14-.06,1.7-.06a10.64,10.64,0,0,0,1.3-.06l.56-.08.84-.12.84-.12.56-.08a1,1,0,0,1,.46.2,2.57,2.57,0,0,1,.38.42,4,4,0,0,1,.28.5,1.37,1.37,0,0,1,.1.48.44.44,0,0,1-.22.4,2.06,2.06,0,0,1-.56.16,7,7,0,0,1-.7,0,4,4,0,0,0-.7,0,1.87,1.87,0,0,0-.56.16.4.4,0,0,0-.22.4.79.79,0,0,0,.06.28.23.23,0,0,0,.22.18h2.8a.38.38,0,0,1,.26.16c.08.1.16.22.26.36a1.59,1.59,0,0,0,.3.34.66.66,0,0,0,.44.16,1.08,1.08,0,0,0,.22,0l.32-.06a.92.92,0,0,0,.28-.14.22.22,0,0,0,.12-.2v-3.2q0-.09.18-.24c.12-.12.2-.16.28-.16H39.7a.24.24,0,0,0,.1,0,.55.55,0,0,1,.16.1s.06,0,.12.06.08.06.08.08V30a.57.57,0,0,1,.12.1l.22.18a1.59,1.59,0,0,1,.16.12.44.44,0,0,0,.1.08h3.06l.14.2V31c0,.2,0,.42,0,.68v4.76c0,.48,0,1-.06,1.48s-.06,1.12-.1,1.84-.12,1.38-.2,2a4.54,4.54,0,0,1-.54,1.62,2.79,2.79,0,0,1-1.14,1.06,4.29,4.29,0,0,1-2,.4h-.32a1.25,1.25,0,0,1-.22,0l-.4-.4Zm-9.6-13.2.26-.26c0-.12-.1-.16-.24-.16l-.26,0h-.38a4.18,4.18,0,0,0-.5,0,3,3,0,0,0-.44,0c-.12,0-.18,0-.18.08v.12Zm-.18,4.7q0,.24.24.24a.43.43,0,0,0,.24-.06.25.25,0,0,0,.1-.2c0-.18-.06-.26-.18-.28a2.46,2.46,0,0,0-.4,0Zm0,2.08v.34a2.46,2.46,0,0,0,.4,0q.18,0,.18-.3a.25.25,0,0,0-.1-.2.43.43,0,0,0-.24-.06C28.82,35.88,28.74,36,28.72,36.14Zm3.7,5.26a.93.93,0,0,0,.32.1h.5a4.64,4.64,0,0,0,.74,0,3.8,3.8,0,0,0,.72-.16.79.79,0,0,0,.46-.36l-.26-.14H32.5a.89.89,0,0,0-.12.1,1,1,0,0,0-.16.18v.06C32.22,41.26,32.28,41.34,32.42,41.4Zm-.1-7.3a.27.27,0,0,0,.3.2c.14,0,.2,0,.24-.08a.4.4,0,0,0,0-.18c0-.18-.08-.28-.22-.3a2.68,2.68,0,0,0-.42,0A1.62,1.62,0,0,0,32.32,34.1Zm0,2c0,.16,0,.28,0,.34a2.22,2.22,0,0,0,.38,0c.14,0,.2-.12.2-.3a.25.25,0,0,0-.1-.2.43.43,0,0,0-.24-.06C32.42,35.88,32.34,36,32.34,36.14Zm3.22-3.84s0,0,.08-.06a.11.11,0,0,0,.06-.08V31.9a.78.78,0,0,0-.08-.36.32.32,0,0,0-.32-.18H32.76a.37.37,0,0,0-.2.1,1,1,0,0,0-.2.16l.26.34H35Zm-3.2,6.26.06.06s.06.06.08.08l.16.12a.44.44,0,0,0,.1.08h2.4a.24.24,0,0,1,.24.18,2.36,2.36,0,0,1,.08.4,2.11,2.11,0,0,0,.1.38.24.24,0,0,0,.24.18c.16,0,.32-.14.46-.42a4.91,4.91,0,0,0,.4-1.06c.12-.42.22-.9.32-1.42s.16-1,.24-1.48.1-.9.14-1.26,0-.64,0-.78a.58.58,0,0,0-.18-.42,2.27,2.27,0,0,0-.46-.3,1.8,1.8,0,0,0-.56-.16,2.23,2.23,0,0,0-.46-.06.28.28,0,0,0-.18.1,2.18,2.18,0,0,0-.12.22c0,.08-.06.16-.08.22a.53.53,0,0,0,0,.14V37.9l-.34.32H32.5a.14.14,0,0,0-.06.08,1.18,1.18,0,0,1-.08.12v.14ZM51.5,31.5l.12-.28.64,0a8,8,0,0,0,1,0,2.6,2.6,0,0,0,.92-.26.66.66,0,0,0,.42-.66,1,1,0,0,0-.08-.4.33.33,0,0,0-.34-.24H47.5a.35.35,0,0,1-.26-.18.55.55,0,0,1-.14-.3v-1.6l0-.1a1.11,1.11,0,0,1,.08-.16s0-.06.06-.1l.08,0H64.82l.28.28v1.72a.79.79,0,0,1,0,.12.55.55,0,0,1-.1.16s0,.06-.06.12a.24.24,0,0,1-.08.08H57.9c-.18,0-.28.1-.34.3a2.61,2.61,0,0,0-.08.44.83.83,0,0,0,.2.48.6.6,0,0,0,.48.24H60.7V40H51.5Zm-1.14-.4v9.46a.44.44,0,0,0,.08.1.55.55,0,0,0,.12.16.76.76,0,0,0,.18.18.31.31,0,0,0,.22.1H61.22l.12,0a1.12,1.12,0,0,0,.16-.1l.18-.16a.79.79,0,0,0,.14-.1V31.1A.37.37,0,0,1,61.9,31L62,31a1.19,1.19,0,0,1,.16-.08l.12-.06H64l.12.06a.59.59,0,0,1,.16.08l.08.08a.29.29,0,0,1,0,.06V44.56s0,0,0,.06l-.08.08-.16.06-.12.06H62.3a.34.34,0,0,1-.32-.16,3,3,0,0,1-.18-.36,2.36,2.36,0,0,0-.22-.38.44.44,0,0,0-.36-.16H51a.4.4,0,0,0-.34.16c-.06.12-.14.24-.2.38a3,3,0,0,1-.18.36.43.43,0,0,1-.34.16H48.16a.38.38,0,0,1-.28-.14.35.35,0,0,1-.12-.26V31.22a.43.43,0,0,1,.12-.26.38.38,0,0,1,.28-.14H50Zm3.46,3.28a.41.41,0,0,0,.4.18.59.59,0,0,0,.42-.2.69.69,0,0,0,.2-.4.64.64,0,0,0-.18-.4.4.4,0,0,0-.36-.22c-.22,0-.36,0-.44.16a.83.83,0,0,0-.12.46A.93.93,0,0,0,53.82,34.38Zm0,3.36a.53.53,0,0,0,.44.16.45.45,0,0,0,.36-.22.6.6,0,0,0,.18-.38.65.65,0,0,0-.18-.42.42.42,0,0,0-.36-.2c-.22,0-.36,0-.44.16a.83.83,0,0,0-.12.46A.68.68,0,0,0,53.86,37.74Zm3.56-3.38a.55.55,0,0,0,.4.2.52.52,0,0,0,.42-.22.74.74,0,0,0,.18-.44.52.52,0,0,0-.2-.4.57.57,0,0,0-.4-.16.57.57,0,0,0-.4.18.6.6,0,0,0-.2.44A.59.59,0,0,0,57.42,34.36Zm0,3.36a.52.52,0,0,0,.4.2.68.68,0,0,0,.4-.16.49.49,0,0,0,.2-.4.7.7,0,0,0-.18-.46.47.47,0,0,0-.42-.22.55.55,0,0,0-.4.2.54.54,0,0,0,0,.84Zm10.28,5.1.4-.46h3.06a.31.31,0,0,0,.12-.06l.14-.14c0-.06.1-.1.14-.16a.18.18,0,0,0,.06-.1V32.42h2.6V44.56s0,0-.06.06-.06.06-.06.08l-.16.06a.31.31,0,0,1-.12.06H68.1l-.4-.4Zm27.54-7.54a14.07,14.07,0,0,1,.66-1.56c.22-.48.44-.9.64-1.28a2,2,0,0,0,.3-.88.09.09,0,0,0,0-.06.43.43,0,0,0-.12-.14,2,2,0,0,1-.3,0h-.3a11,11,0,0,0-1.42.1c-.48.08-1,.16-1.44.26l-1.4.24a11.3,11.3,0,0,1-1.42.1.69.69,0,0,1-.58-.24,1.14,1.14,0,0,1-.22-.58,3,3,0,0,1,0-.74c0-.26,0-.5,0-.7a.66.66,0,0,1,.54-.68c.3,0,.74-.08,1.36-.12l2.06-.18c.78,0,1.58-.12,2.44-.18s1.66-.12,2.44-.2l2.08-.16,1.36-.1c.44,0,.92-.08,1.42-.1s1,0,1.48,0H105a1.17,1.17,0,0,1,.26,0,.46.46,0,0,1,.24.12.29.29,0,0,1,.08.24v2.14l-.26.26a23.13,23.13,0,0,0-2.6.34,7.53,7.53,0,0,0-2.36.84,4.72,4.72,0,0,0-1.72,1.6A4.78,4.78,0,0,0,98,36.24a3.55,3.55,0,0,0,.5,2,3.79,3.79,0,0,0,1.3,1.28,7.27,7.27,0,0,0,1.8.76,17.91,17.91,0,0,0,2,.44c.12,0,.16.08.16.22v.26a5.72,5.72,0,0,1-.06.74,4,4,0,0,1-.24.84,2.21,2.21,0,0,1-.44.7.8.8,0,0,1-.66.3,7.57,7.57,0,0,1-2.74-.52,7.73,7.73,0,0,1-4.06-3.62A5.74,5.74,0,0,1,94.94,37,4.88,4.88,0,0,1,95.24,35.28Zm6.38-1.66a.39.39,0,0,1,.12-.28,1.05,1.05,0,0,1,.28-.24,1.27,1.27,0,0,1,.36-.12l.32,0a.77.77,0,0,1,.52.24,3.46,3.46,0,0,1,.46.58,2.64,2.64,0,0,1,.36.66,1.34,1.34,0,0,1,.14.54.63.63,0,0,1-.4.6,1.66,1.66,0,0,1-.76.2h-.2s-.08-.06-.12-.14-.12-.18-.22-.36-.22-.36-.32-.56l-.32-.56-.22-.38ZM104,32.36l.32-.18a1,1,0,0,1,.34-.12l.28,0a1.51,1.51,0,0,1,.3,0,.39.39,0,0,1,.26.12s.1.14.2.3.24.32.38.5l.34.58a1.19,1.19,0,0,1,.16.5.53.53,0,0,1-.14.28,1.25,1.25,0,0,1-.36.28,2.17,2.17,0,0,1-.38.16.6.6,0,0,1-.28.08.8.8,0,0,1-.56-.26,4.18,4.18,0,0,1-.48-.62,6,6,0,0,1-.36-.72,1.76,1.76,0,0,1-.14-.62A.35.35,0,0,1,104,32.36Zm7,6.44a4,4,0,0,1,.82-1,8.77,8.77,0,0,1,1.06-.82,10.07,10.07,0,0,0,1-.78,4.21,4.21,0,0,0,.82-.88,2,2,0,0,0,.34-1.16v-.42a4.21,4.21,0,0,0,0-.5,1,1,0,0,0-.2-.44.53.53,0,0,0-.44-.18H111.7s-.06,0-.12-.12a1,1,0,0,0-.16-.2.82.82,0,0,0-.06-.16.31.31,0,0,1-.06-.12V30.3l.26-.34h3.06s.06-.06.12-.14a1.15,1.15,0,0,0,.16-.2s0-.08.08-.14a.79.79,0,0,0,0-.12V27.1l.28-.28h2.4s.1.08.18.2.08.2.08.2v.14a1.9,1.9,0,0,1,0,.28,4.92,4.92,0,0,1,0,.52,2.59,2.59,0,0,0-.06.52,1.9,1.9,0,0,0,0,.28.67.67,0,0,0,.08.28.4.4,0,0,0,.2.26h.46a3.81,3.81,0,0,0,1.08-.14,4.69,4.69,0,0,1,1.08-.14,1.57,1.57,0,0,1,.28,0c.1,0,.16.1.16.24v2.12a.36.36,0,0,1-.26.34,2.61,2.61,0,0,1-.64.12l-.82.06a3.68,3.68,0,0,0-.84.16,1.4,1.4,0,0,0-.66.4,1.1,1.1,0,0,0-.26.8,2.49,2.49,0,0,0,.1.62.46.46,0,0,0,.48.32,10.25,10.25,0,0,0,1.38-.08c.46,0,.92-.08,1.4-.08a9.36,9.36,0,0,1,2.14.24,5.93,5.93,0,0,1,1.82.76,4,4,0,0,1,1.28,1.38,4,4,0,0,1,.5,2.1,4.53,4.53,0,0,1-.54,2.24,5.13,5.13,0,0,1-1.44,1.62,6.85,6.85,0,0,1-2,1,8.23,8.23,0,0,1-2.32.32.89.89,0,0,1-.66-.26,2,2,0,0,1-.44-.62,4.68,4.68,0,0,1-.24-.8,3.47,3.47,0,0,1-.08-.74.36.36,0,0,1,.06-.22c0-.06.1-.1.22-.16.38,0,.82-.06,1.36-.12a7,7,0,0,0,1.48-.34,4,4,0,0,0,1.2-.72,1.67,1.67,0,0,0,.5-1.3,1.56,1.56,0,0,0-.26-.92,1.94,1.94,0,0,0-.68-.6,3.44,3.44,0,0,0-.9-.32,4.13,4.13,0,0,0-1-.1l-.62,0c-.34,0-.72.06-1.12.1a4.13,4.13,0,0,0-1.06.24c-.32.1-.48.26-.48.46V42a1.64,1.64,0,0,1-.22.84,2,2,0,0,1-.52.64,2.51,2.51,0,0,1-.76.4,3.07,3.07,0,0,1-.82.14,5.31,5.31,0,0,1-1.62-.28,5.25,5.25,0,0,1-1.56-.8,4.28,4.28,0,0,1-1.18-1.22,2.92,2.92,0,0,1-.46-1.58A2.74,2.74,0,0,1,111,38.8Zm2.84,1.8a1,1,0,0,0,.62.24,1.07,1.07,0,0,0,.4-.1.31.31,0,0,0,.2-.32V38.7a.13.13,0,0,0-.14-.14.69.69,0,0,0-.18,0l-.2,0c-.3.26-.52.46-.7.64a1.07,1.07,0,0,0-.26.8A.76.76,0,0,0,113.8,40.6Zm8.8-10.1a4.2,4.2,0,0,1,.3-.6,3.07,3.07,0,0,1,.42-.58.62.62,0,0,1,.44-.24s.06,0,.06,0l1,.44c.4.16.82.34,1.26.56a12.22,12.22,0,0,1,1.22.72,3.72,3.72,0,0,1,.92.8s0,0,0,.06a1.19,1.19,0,0,1-.14.5,4,4,0,0,1-.34.64,4.85,4.85,0,0,1-.42.58.65.65,0,0,1-.44.24.3.3,0,0,1-.14,0l-.94-.5c-.46-.24-1-.5-1.44-.78s-.94-.56-1.32-.84-.58-.46-.58-.6A1.48,1.48,0,0,1,122.6,30.5ZM136.3,35h3.86a.29.29,0,0,0,.24-.12.61.61,0,0,0,.18-.26,1.32,1.32,0,0,0,.1-.3,1.36,1.36,0,0,0,0-.24,1.66,1.66,0,0,0-.12-.56.41.41,0,0,0-.42-.32H136a.55.55,0,0,0-.3.16,1.65,1.65,0,0,0-.22.24,1.75,1.75,0,0,0,0,.4c0,.2,0,.4,0,.6s0,.42-.06.6a3.83,3.83,0,0,0,0,.4q0,.18-.06.54c0,.26-.06.5-.08.78s-.06.52-.08.74,0,.4,0,.48-.08.42-.14.8-.14.8-.24,1.28-.24,1-.38,1.46a10.53,10.53,0,0,1-.44,1.4,7.63,7.63,0,0,1-.5,1.06c-.18.28-.36.42-.56.42a2,2,0,0,1-.6-.12c-.22-.1-.44-.2-.66-.32a2.45,2.45,0,0,1-.54-.44.85.85,0,0,1-.22-.54,4.16,4.16,0,0,1,.18-1.1c.14-.44.28-.9.46-1.38s.34-.94.5-1.4A7.49,7.49,0,0,0,132.3,38c.14-.88.22-1.78.28-2.7s.08-1.82.1-2.74,0-1.82,0-2.72,0-1.78,0-2.64L133,27H147.9l0,.06s.06.06.08.08a.43.43,0,0,1,.08.14.31.31,0,0,1,.06.12V32.7l-.06.1A1.19,1.19,0,0,1,148,33a1.18,1.18,0,0,0-.08.12l0,.08H144l-.1.08a.55.55,0,0,0-.16.12l-.16.16a.35.35,0,0,1-.1.1v.94l.1.1a1.19,1.19,0,0,0,.16.16.55.55,0,0,0,.16.12.22.22,0,0,1,.1.08h4.14l.26.34v9.06a.45.45,0,0,1-.4.4H146.3l-.8-.4h-6.68a1.12,1.12,0,0,1-.7.38c-.22,0-.46,0-.76,0l-.3,0a3.7,3.7,0,0,1-.46,0,1.17,1.17,0,0,1-.4-.12.31.31,0,0,1-.18-.3V35.36Zm-.68-4.56a.49.49,0,0,0,.4.24h8.8a.45.45,0,0,0,.36-.22.6.6,0,0,0,.18-.38.78.78,0,0,0-.18-.52.56.56,0,0,0-.48-.22h-8.54a.66.66,0,0,0-.5.2.6.6,0,0,0-.18.46A.76.76,0,0,0,135.62,30.46Zm3.1,7.8c0,.12.1.16.24.16h1.34a.22.22,0,0,0,.24-.16,1.14,1.14,0,0,0,0-.6.22.22,0,0,0-.24-.16H139c-.14,0-.22,0-.24.16a1.14,1.14,0,0,0,0,.6Zm.22,3.56a2.35,2.35,0,0,0,.68.08,1.94,1.94,0,0,0,.34,0,.94.94,0,0,0,.34-.08.57.57,0,0,0,.28-.18.42.42,0,0,0,.12-.32.47.47,0,0,0-.12-.34.57.57,0,0,0-.28-.18.94.94,0,0,0-.34-.08,1.94,1.94,0,0,0-.34,0,2.35,2.35,0,0,0-.68.08c-.18,0-.26.22-.26.54S138.76,41.78,138.94,41.82Zm4.58-3.56c0,.12.1.16.24.16h1.6a.22.22,0,0,0,.24-.16,1.14,1.14,0,0,0,0-.6.22.22,0,0,0-.24-.16h-1.6c-.14,0-.22,0-.24.16a1.14,1.14,0,0,0,0,.6Zm.08,3.38a.75.75,0,0,0,.3.18,1.9,1.9,0,0,0,.36.08H145a1.6,1.6,0,0,0,.36-.08.59.59,0,0,0,.4-.6.4.4,0,0,0-.14-.32,1,1,0,0,0-.32-.16l-.38-.06h-.64a2.57,2.57,0,0,0-.38.08.75.75,0,0,0-.3.18.49.49,0,0,0-.12.36A.47.47,0,0,0,143.6,41.64Zm9.48-9.74c.14-1.4.3-2.82.48-4.28a1.07,1.07,0,0,1,.1-.22.69.69,0,0,1,.16-.18h.48c.12,0,.32,0,.58,0a5.68,5.68,0,0,1,.82,0,2.69,2.69,0,0,1,.74.16.44.44,0,0,1,.32.44,8.76,8.76,0,0,1-.18,1.76c-.1.58-.24,1.18-.36,1.78s-.26,1.2-.38,1.8a11,11,0,0,0-.16,1.8v1c0,.12,0,.2,0,.24a.13.13,0,0,0,.1.12.5.5,0,0,0,.16,0,.29.29,0,0,0,.26-.14c.06-.08.12-.18.18-.28s.14-.2.2-.3a.32.32,0,0,1,.3-.08,1.09,1.09,0,0,1,.62.32.73.73,0,0,1,.32.58,6.92,6.92,0,0,1-.18,1.56c-.12.52-.26,1-.42,1.58s-.32,1-.46,1.58a7.29,7.29,0,0,0-.28,1.58,1.37,1.37,0,0,1-.42.34,2.09,2.09,0,0,1-.5.16,4.92,4.92,0,0,1-.56,0h-.54c-.24,0-.44-.16-.62-.46a4.85,4.85,0,0,1-.44-1.16,11.21,11.21,0,0,1-.28-1.58c-.08-.56-.12-1.1-.16-1.64s-.06-1-.08-1.38,0-.68,0-.82C152.88,34.74,152.94,33.3,153.08,31.9Zm7.38,10c.24-.24.54-.52.86-.8l.94-.88a3.77,3.77,0,0,0,.64-.76,5.66,5.66,0,0,0,.66-2.06,15.79,15.79,0,0,0,.14-2.14v-1a.43.43,0,0,0-.4-.4c-.14,0-.38,0-.72,0l-1.08,0-1.1,0c-.34,0-.58,0-.7,0a1.33,1.33,0,0,1-.26,0,2.49,2.49,0,0,1-.32-.08.71.71,0,0,1-.26-.16.4.4,0,0,1-.1-.28V31.36a.79.79,0,0,1,0-.12.85.85,0,0,1,.1-.14s0-.06.06-.08L159,31h4.14a.37.37,0,0,0,.28-.1,1.67,1.67,0,0,0,.16-.24,1.47,1.47,0,0,0,.08-.28,1.42,1.42,0,0,0,0-.28c0-.4,0-.82-.06-1.24a8.15,8.15,0,0,1-.08-1.22.81.81,0,0,1,.1-.34.33.33,0,0,1,.3-.16h2.26a.48.48,0,0,1,.28.12.43.43,0,0,1,.12.28v2.8a.51.51,0,0,0,.4.4h2.28v2.52c0,.2-.12.32-.4.34s-.56,0-.88.06a6.31,6.31,0,0,0-.92.08.53.53,0,0,0-.48.46c0,1-.06,1.9-.14,2.78A13.73,13.73,0,0,1,166,39.4a10.74,10.74,0,0,1-1,2.26,9.15,9.15,0,0,1-1.74,2.1c-.1.1-.26.2-.44.34a.76.76,0,0,1-.5.2,1.64,1.64,0,0,1-.68-.18,5.55,5.55,0,0,1-.74-.44,4.33,4.33,0,0,1-.62-.58,1.05,1.05,0,0,1-.24-.6C160.08,42.38,160.2,42.2,160.46,41.94Zm20.06-2.38a2.22,2.22,0,0,1,1.58-.6,2,2,0,0,1,.82.16,2.49,2.49,0,0,1,.72.4,1.93,1.93,0,0,1,.48.64,1.89,1.89,0,0,1,.18.82,2,2,0,0,1-.62,1.56,2.25,2.25,0,0,1-1.58.56,2.5,2.5,0,0,1-1.58-.52,1.82,1.82,0,0,1-.64-1.5A1.91,1.91,0,0,1,180.52,39.56Zm-.26-6.6a34.89,34.89,0,0,1-.24-4.08v-.2a.55.55,0,0,1,0-.26.36.36,0,0,1,.12-.18.32.32,0,0,1,.24-.08h3.34a.3.3,0,0,1,.26.12.62.62,0,0,1,.12.26,1.83,1.83,0,0,1,0,.32v.24a33.64,33.64,0,0,1-.26,4c-.18,1.34-.36,2.66-.54,4a3.62,3.62,0,0,1-.2.34.42.42,0,0,1-.34.18h-1.46a.43.43,0,0,1-.38-.24,1.6,1.6,0,0,1-.16-.42C180.62,35.64,180.44,34.3,180.26,33Z"/></svg>