<svg id="レイヤー_1" data-name="レイヤー 1" xmlns="http://www.w3.org/2000/svg" viewBox="0 0 408.24 19.95"><defs><style>.cls-1{fill:#333;}</style></defs><path class="cls-1" d="M0,17l.06,0s.07-.08.07-.1a.76.76,0,0,0,.16-.13c.07,0,.11-.08.13-.08H7.14a.49.49,0,0,0,.06-.09l.06-.12a.45.45,0,0,0,.09-.17.67.67,0,0,0,.06-.11V14.59a.42.42,0,0,0-.1-.23l-.17-.19A.62.62,0,0,0,7,14.05L6.84,14H2.52l-.29-.21v-2.1s0-.06.1-.12a2,2,0,0,1,.19-.17h.13c.33,0,.86,0,1.55,0s1.51,0,2.39,0,1.81,0,2.8,0l2.77,0c.88,0,1.68,0,2.37,0h1.55a.64.64,0,0,1,.19.18c.06.11.11.17.11.24v1.68l-.3.35H11l-.1.09a1.25,1.25,0,0,0-.17.12,1.12,1.12,0,0,0-.17.19.42.42,0,0,0-.1.23v1.53a.68.68,0,0,0,.15.3c.1.12.18.19.27.19h6.72l.1.08a.77.77,0,0,0,.17.13.44.44,0,0,1,.08.1l.07,0v2l-.3.29H.27L0,18.92ZM.5,8.65l.91-.34a11.23,11.23,0,0,0,1.17-.46,6.29,6.29,0,0,0,1.2-.65,3.15,3.15,0,0,0,.9-.92A2.44,2.44,0,0,0,5,5c0-.32-.11-.49-.29-.55a3.14,3.14,0,0,0-.7-.08,1.57,1.57,0,0,0-.8.16A.8.8,0,0,0,3,4.93a1.66,1.66,0,0,0,0,.55A1.46,1.46,0,0,1,2.81,6a.89.89,0,0,1-.4.42,2.47,2.47,0,0,1-1,.16H.55l-.21-.1C.19,6.45.13,6.38.13,6.32V1.78H6.72c.27,0,.44-.08.52-.27A2.27,2.27,0,0,0,7.39.9,3,3,0,0,1,7.54.29.43.43,0,0,1,8,0H9.93a.47.47,0,0,1,.44.27A2.12,2.12,0,0,1,10.5.9a2.28,2.28,0,0,0,.17.61c.08.19.25.27.52.27h6.57s0,0,.09.09l.06.12a.68.68,0,0,1,.08.15l.07.13v3.5A.47.47,0,0,1,18,6a.5.5,0,0,1-.19.21l-.33,0a2.54,2.54,0,0,1-.49,0l-.5,0a2.88,2.88,0,0,1-.36,0l-.14,0h-.17c-.32,0-.51-.08-.57-.27a2.36,2.36,0,0,1-.12-.59c0-.21-.07-.44-.11-.65a.58.58,0,0,0-.42-.46h-.31c-.17,0-.28,0-.32,0l-.34,0a1.19,1.19,0,0,0-.37.06.58.58,0,0,0-.34.17.37.37,0,0,0-.15.33V7.31a.46.46,0,0,0,.17.37,1,1,0,0,0,.36.24,1.56,1.56,0,0,0,.42.08,2.69,2.69,0,0,0,.38,0,1.34,1.34,0,0,0,.79-.19,1.42,1.42,0,0,0,.47-.38c.12-.14.23-.27.33-.37A.42.42,0,0,1,16,6.89a2.14,2.14,0,0,1,.48.1,4.12,4.12,0,0,1,.63.25,2.83,2.83,0,0,1,.57.38.66.66,0,0,1,.23.44,2.17,2.17,0,0,1-.63,1.56,2.54,2.54,0,0,1-1.49.77H12.87a6.16,6.16,0,0,1-1.36-.14,2.78,2.78,0,0,1-1.16-.55,1.38,1.38,0,0,1-.48-1.13V4.93a.33.33,0,0,0-.11-.23.79.79,0,0,0-.23-.16,1.23,1.23,0,0,0-.29-.13,1.07,1.07,0,0,0-.21,0,.93.93,0,0,0-.78.42,15.35,15.35,0,0,1-.57,1.89,6.47,6.47,0,0,1-.84,1.51A6.07,6.07,0,0,1,5.63,9.41a9.41,9.41,0,0,1-1.72,1,1.68,1.68,0,0,1-.3.13l-.54.23a5.5,5.5,0,0,1-.61.23,2.14,2.14,0,0,1-.51.11,1.22,1.22,0,0,1-.67-.24,1.93,1.93,0,0,1-.57-.54,5.1,5.1,0,0,1-.42-.69A1.76,1.76,0,0,1,.13,9C.13,8.88.25,8.78.5,8.65ZM22.32,17.8a4,4,0,0,0,.42-.21c.21-.1.42-.23.63-.33s.44-.25.63-.34l.42-.23.51-.25c.21-.13.4-.23.61-.38a2.59,2.59,0,0,0,.5-.44.74.74,0,0,0,.21-.48.72.72,0,0,0-.38-.61,7,7,0,0,0-.82-.42,5.56,5.56,0,0,1-.84-.44.7.7,0,0,1-.38-.63s0-.09,0-.13l.39-.46a6,6,0,0,1,.4-.46,3.83,3.83,0,0,1,.49-.36,1,1,0,0,1,.56-.15,1.54,1.54,0,0,1,.74.19l.69.44a6.75,6.75,0,0,0,.69.45,1.43,1.43,0,0,0,.74.21.87.87,0,0,0,.5-.19,2.18,2.18,0,0,0,.49-.47,2.3,2.3,0,0,0,.35-.58A1.35,1.35,0,0,0,30,11v-.08a1.15,1.15,0,0,0-.17-.19.53.53,0,0,0-.13-.15H24.15c-.06,0-.15-.1-.23-.31s-.21-.48-.34-.78-.27-.57-.42-.86A2.27,2.27,0,0,0,22.6,8s-.07,0-.17-.13a2,2,0,0,1-.32-.21,3.13,3.13,0,0,1-.31-.23.66.66,0,0,1-.17-.12l-.15-.15A1,1,0,0,1,21.34,7V7a1.34,1.34,0,0,1,.29-.73,10.24,10.24,0,0,1,.71-.84c.26-.28.53-.57.8-.84a7.7,7.7,0,0,0,.59-.76,2.49,2.49,0,0,0,.19-.38c.1-.19.19-.38.29-.56a5.43,5.43,0,0,1,.3-.59,3.68,3.68,0,0,0,.19-.42,1,1,0,0,0,.1-.32A4.88,4.88,0,0,1,25,.9a3.48,3.48,0,0,1,.34-.61A.58.58,0,0,1,25.81,0a7.64,7.64,0,0,1,1.07.06,1.56,1.56,0,0,1,.67.21A1.17,1.17,0,0,1,28,.76a5.34,5.34,0,0,1,.36.81,1,1,0,0,0,.12.21c.07.09.13.13.15.13H39.69l.27.36V4L39.9,4s-.07.06-.09.1-.08.07-.14.13l-.13.08H27.21a.14.14,0,0,0-.12.15.8.8,0,0,0,0,.19,1,1,0,0,0,0,.21.14.14,0,0,0,.12.15h10.5a.24.24,0,0,1,.13.08,1.1,1.1,0,0,0,.17.13l.08.08,0,.06V7a.22.22,0,0,0,0,.07s-.06.06-.08.06l-.17.1-.13,0h-11a.36.36,0,0,1-.27-.11A1.23,1.23,0,0,1,26.23,7a1.84,1.84,0,0,0-.17-.25.33.33,0,0,0-.25-.11.48.48,0,0,0-.3.13A1.14,1.14,0,0,0,25.2,7a1.9,1.9,0,0,0-.25.38.71.71,0,0,0-.11.32A.71.71,0,0,0,25,8c.08.13.17.19.25.19H37.17l.27.36c0,.16,0,.46,0,.86s0,.84,0,1.3,0,.9,0,1.32a7.14,7.14,0,0,0,.05.86,6.83,6.83,0,0,0,0,.72,12.3,12.3,0,0,0,.15,1.28,6.23,6.23,0,0,0,.33,1.24c.13.35.3.54.53.54a.32.32,0,0,0,.37-.27,2,2,0,0,0,.09-.65c0-.23,0-.44.06-.61a.29.29,0,0,1,.32-.29A.94.94,0,0,1,40,15a2.11,2.11,0,0,1,.46.44,2.46,2.46,0,0,1,.38.55,1.05,1.05,0,0,1,.15.5,4.77,4.77,0,0,1-.15,1.18,2.67,2.67,0,0,1-.42,1.05,2.34,2.34,0,0,1-.74.76,2.43,2.43,0,0,1-1.11.27,2.79,2.79,0,0,1-1.64-.48,3.77,3.77,0,0,1-1.09-1.22,6.42,6.42,0,0,1-.67-1.7,16,16,0,0,1-.36-1.91c-.08-.65-.14-1.26-.16-1.87s-.09-1.09-.11-1.51a.45.45,0,0,0-.13-.28.33.33,0,0,0-.29-.14H31.83l-.06.06a.11.11,0,0,0-.06.08.1.1,0,0,0,0,.07.36.36,0,0,0,.19.31,1.76,1.76,0,0,0,.39.17,1.69,1.69,0,0,1,.4.21.46.46,0,0,1,.17.4v.14a.43.43,0,0,0,0,.09l-1.26,2a.27.27,0,0,0,0,.11v.14a1,1,0,0,0,.27.7,4.86,4.86,0,0,0,.7.61l.79.56a3,3,0,0,1,.63.53c0,.06,0,.1,0,.14a.9.9,0,0,1-.21.57,2.31,2.31,0,0,1-.5.55,7.16,7.16,0,0,1-.61.48,3.45,3.45,0,0,0-.5.36l-.15,0a1.09,1.09,0,0,1-.75-.3A6.24,6.24,0,0,1,30.6,18a8.11,8.11,0,0,0-.66-.65,1.05,1.05,0,0,0-.73-.27,2.15,2.15,0,0,0-1.3.44c-.38.3-.78.61-1.18,1s-.8.69-1.19,1a2.27,2.27,0,0,1-1.37.47l-.17,0a.36.36,0,0,0-.14,0l-1.54-1.53Zm25.41-1.72c-.19.38-.38.8-.56,1.24a6.94,6.94,0,0,1-.66,1.2,1,1,0,0,1-.84.57A2,2,0,0,1,45,19a2.14,2.14,0,0,1-.65-.29,1.83,1.83,0,0,1-.5-.45.87.87,0,0,1-.21-.58,1.59,1.59,0,0,1,.27-.74c.19-.33.4-.69.63-1l.67-1a5.29,5.29,0,0,0,.4-.67s.07,0,.13-.06.15-.06.15-.08H46a2.26,2.26,0,0,1,1,.27,4.38,4.38,0,0,0,1,.42h.08l.08,0a.7.7,0,0,0,.13,0L49,14h1.53c.07,0,.13-.06.24-.21s.21-.31.33-.48l.32-.5a1.2,1.2,0,0,0,.12-.28s0-.1,0-.21-.06-.14-.13-.14H48.3L48,11.78a3.58,3.58,0,0,0,0-.38c0-.23,0-.52,0-.88s0-.69,0-1,0-.67,0-.9V8.42a.71.71,0,0,1,0-.17,1.11,1.11,0,0,1,.08-.36.37.37,0,0,1,.36-.16h5.31l.15.14s0,.15,0,.38,0,.48,0,.78a2.58,2.58,0,0,0,.19.75.47.47,0,0,0,.44.34l.21,0a1.4,1.4,0,0,0,.61-.46,1.68,1.68,0,0,0,.1-.61,6.29,6.29,0,0,0-.08-.82A7.13,7.13,0,0,0,55,7.33c-.09-.3-.19-.57-.3-.84a3.76,3.76,0,0,0-.4-.72.07.07,0,0,0-.06,0,.23.23,0,0,0-.19.11.74.74,0,0,0-.14.23c0,.1-.07.19-.11.25a.79.79,0,0,0,0,.13.11.11,0,0,1-.06.08c-.05,0-.07.06-.09.06H48.3l-.23-.08a.44.44,0,0,1-.19-.06H47.8s-.13.16-.21.5-.19.78-.3,1.3-.23,1.07-.38,1.68a14.4,14.4,0,0,1-.46,1.7,6.09,6.09,0,0,1-.61,1.3c-.21.36-.44.53-.69.53a1.2,1.2,0,0,1-.55-.15A3,3,0,0,1,44,13a2.45,2.45,0,0,1-.47-.5.93.93,0,0,1-.18-.52,2.67,2.67,0,0,1,.14-.72,8.2,8.2,0,0,1,.36-.82l.38-.79a5.43,5.43,0,0,0,.27-.76,11.17,11.17,0,0,0,.27-1.62c0-.56.09-1.13.11-1.7s0-1.13,0-1.7V2.27s0,0,.08-.11L45.19,2l.17-.17c.06,0,.1-.07.13-.07h8l.36-.35V.31s0,0,.09-.06L54,.17A1.31,1.31,0,0,1,54.2.08L54.3,0H56a.37.37,0,0,1,.38.23,2.48,2.48,0,0,1,.15.48,1.6,1.6,0,0,0,.12.49.37.37,0,0,0,.36.23l.06,0h.07l.14-.28a2,2,0,0,0,.13-.29l.17-.17.23-.27a2.76,2.76,0,0,1,.27-.23A1.27,1.27,0,0,0,58.23,0h.21a2.1,2.1,0,0,0,.21,0,5.13,5.13,0,0,1,.61.31c.36.19.78.42,1.2.68l1.15.71c.36.23.55.38.55.42V3.8s0,0-.07.06A.24.24,0,0,1,62,4a2.86,2.86,0,0,1-.67.19c-.3,0-.57.06-.84.08H59.34l-.12.15a.79.79,0,0,0,.38.27l.6.19.57.19c.17,0,.25.1.25.19V5.9a1.73,1.73,0,0,1-.31,1,7,7,0,0,1-.67.9,10.42,10.42,0,0,0-.68.88,1.82,1.82,0,0,0-.29.95.65.65,0,0,0,.32.56,1,1,0,0,0,.6.21.54.54,0,0,0,.55-.27,2.9,2.9,0,0,0,.19-.63c0-.25.08-.46.12-.65a.36.36,0,0,1,.38-.27,1.76,1.76,0,0,1,.53.1A2.65,2.65,0,0,1,62.3,9a1.68,1.68,0,0,1,.4.44.84.84,0,0,1,.17.5,3.26,3.26,0,0,1-.21,1.32,2.06,2.06,0,0,1-.57.84,3.63,3.63,0,0,1-.86.59c-.31.17-.67.4-1,.65a.23.23,0,0,0-.06.09l-.06,0a1.35,1.35,0,0,0,.42.84c.29.33.58.67.92,1a11.56,11.56,0,0,1,.9,1.09,1.89,1.89,0,0,1,.42,1.13.93.93,0,0,1-.23.57,3,3,0,0,1-.56.44,3.64,3.64,0,0,1-.7.27,2.2,2.2,0,0,1-.63.11.64.64,0,0,1-.58-.38c-.13-.25-.26-.53-.38-.82a4.23,4.23,0,0,0-.38-.8.66.66,0,0,0-.61-.38c-.06,0-.13.11-.21.28s-.15.38-.23.61-.17.48-.27.71a1.91,1.91,0,0,1-.28.5,1.59,1.59,0,0,1-.79.59,4.82,4.82,0,0,1-1,.25H54.72a4.72,4.72,0,0,0-.67,0h-.44c-.4,0-.86,0-1.41,0a5.94,5.94,0,0,1-1.53-.13,3.19,3.19,0,0,1-1.3-.57,1.78,1.78,0,0,1-.65-1.3,1.44,1.44,0,0,1,0-.29,4.4,4.4,0,0,0,0-.49,4.12,4.12,0,0,0,0-.48c0-.15,0-.25,0-.29a1.59,1.59,0,0,0,0-.34c0-.06-.1-.1-.23-.1S47.92,15.73,47.73,16.08ZM47.59,4.79l.08.17a.28.28,0,0,0,.06.1h6.36a2.88,2.88,0,0,0,0-.34,2.84,2.84,0,0,0,0-.35.37.37,0,0,0,0-.11.21.21,0,0,0-.11,0h-6c-.06,0-.11.06-.19.21a1.28,1.28,0,0,1-.1.21v.15ZM50.5,10.2a.68.68,0,0,0,.38.07.75.75,0,0,0,.38-.07c.08,0,.13-.12.13-.31a.56.56,0,0,0-.17-.38.7.7,0,0,0-.42-.12.35.35,0,0,0-.32.14.81.81,0,0,0-.1.36C50.38,10.08,50.42,10.18,50.5,10.2Zm1.12,4.27c-.07,0-.11.1-.11.25v1.55a.61.61,0,0,0,.32.48.86.86,0,0,0,.52.21h2.52a.72.72,0,0,0,.51-.18,3.79,3.79,0,0,0,.29-.45c.08-.16.17-.31.25-.44a.54.54,0,0,1,.42-.21,2.09,2.09,0,0,1,.95.24,2.35,2.35,0,0,0,1,.23,1.13,1.13,0,0,0-.06-.36,2.69,2.69,0,0,0-.19-.32,1.69,1.69,0,0,1-.17-.29.78.78,0,0,1-.06-.31.53.53,0,0,1,.27-.49c.19-.08.38-.19.59-.27l.59-.29a.47.47,0,0,0,.25-.42c0-.05-.1-.15-.34-.32l-.75-.5-.82-.47a1.52,1.52,0,0,0-.55-.18,1,1,0,0,0-.42.1l-.37.25-.4.25a.93.93,0,0,1-.44.11,1,1,0,0,1-.57-.13,4.21,4.21,0,0,1-.53-.58.18.18,0,0,0-.12,0c-.15,0-.25,0-.27.15a1.21,1.21,0,0,0,0,.34.45.45,0,0,0,0,.14v.09L55.29,14v.06a.84.84,0,0,1-.19.48,2.08,2.08,0,0,1-.46.48,4,4,0,0,1-.55.36,1,1,0,0,1-.48.17.84.84,0,0,1-.46-.17,2.71,2.71,0,0,1-.46-.36,5.39,5.39,0,0,1-.4-.37,1.31,1.31,0,0,0-.21-.23.51.51,0,0,0-.21,0A.73.73,0,0,0,51.62,14.47ZM57.1,5.14a1.93,1.93,0,0,0,.08.49,1.62,1.62,0,0,0,.19.4.34.34,0,0,0,.29.16.37.37,0,0,0,.17,0s.06,0,.13-.12a1.72,1.72,0,0,1,.17-.32l.25-.46.25-.46c.08-.13.13-.23.17-.3V4.37a.62.62,0,0,0-.09-.11l-.06,0H57.24l-.08,0a.37.37,0,0,0,0,.11.59.59,0,0,0,0,.17v.6ZM70.5,14a6.2,6.2,0,0,1,.79-1.24,11.06,11.06,0,0,1,1-1.05c.36-.31.69-.58,1-.82l.8-.6c.21-.19.31-.32.31-.42a.35.35,0,0,0-.31-.38,3,3,0,0,0-.53-.06,4.16,4.16,0,0,0-1.28.21,2.79,2.79,0,0,0-1.11.65l-2.52,2.52a.7.7,0,0,1-.13,0A1.52,1.52,0,0,1,68,12.6a7.71,7.71,0,0,1-.72-.44,3.91,3.91,0,0,1-.59-.55.91.91,0,0,1-.25-.52.36.36,0,0,1,0-.15,12.56,12.56,0,0,1,1-.92c.42-.38.82-.8,1.22-1.24a11.71,11.71,0,0,0,1-1.35,2.31,2.31,0,0,0,.44-1.26V5.94c0-.1,0-.17-.15-.17a3.42,3.42,0,0,0-.36,0l-.48,0-.5-.06a2.69,2.69,0,0,0-.34,0c-.11,0-.25,0-.46-.07a1.78,1.78,0,0,1-.38-.08.54.54,0,0,1-.17-.13c-.08-.06-.12-.1-.12-.14V3H71a.54.54,0,0,0,.51-.27,2.09,2.09,0,0,0,.23-.61L72,1.39A1,1,0,0,1,72.3.86h.48l1,0a1.39,1.39,0,0,1,.72.17.79.79,0,0,1,.38.5,2.54,2.54,0,0,1,0,1c0,.17.12.25.23.27a1.78,1.78,0,0,0,.34,0,13.66,13.66,0,0,0,2-.14,15.31,15.31,0,0,1,2-.15H80l.12.15v2.1c0,.23-.16.38-.52.46a7.23,7.23,0,0,1-1.28.13c-.51,0-1.07,0-1.68,0a11.47,11.47,0,0,0-1.7.08,4.1,4.1,0,0,0-1.3.34.85.85,0,0,0-.53.79.41.41,0,0,0,.06.23.75.75,0,0,0,.23.19h1.5a3.86,3.86,0,0,1,1.32.28,2,2,0,0,1,.4.25l.4.31a2.32,2.32,0,0,0,.42.3,1,1,0,0,0,.46.12H78L78.75,8l1-.46,1-.49c.33-.14.56-.25.69-.29a2.72,2.72,0,0,1,.34-.13,1.28,1.28,0,0,1,.31,0,.69.69,0,0,1,.48.25,2.33,2.33,0,0,1,.38.61,6.35,6.35,0,0,1,.23.7,3.75,3.75,0,0,1,.09.56.81.81,0,0,1-.4.59,4.75,4.75,0,0,1-1,.51c-.4.14-.82.29-1.3.44s-.9.27-1.3.42a5.67,5.67,0,0,0-1,.39c-.27.15-.4.3-.4.45V14.3l-.36.29h-2.1c-.14,0-.23-.08-.25-.25a4.27,4.27,0,0,1,0-.52,3.71,3.71,0,0,0-.08-.53.38.38,0,0,0-.4-.25h-.21l-.53.44a3,3,0,0,0-.35.38,1.54,1.54,0,0,0-.19.44,2.15,2.15,0,0,0-.07.57,1.08,1.08,0,0,0,.32.84,2.18,2.18,0,0,0,.82.41h.94a3.76,3.76,0,0,0,.57,0h.38A23.44,23.44,0,0,0,78.85,16a17.74,17.74,0,0,1,2.44-.17h.21a1.31,1.31,0,0,1,.19,0l.12.13v2.24a.44.44,0,0,1-.25.4,1.45,1.45,0,0,1-.44.17,19.72,19.72,0,0,1-2.23.15H75.24c-.29,0-.59,0-.84,0h-.57a10.53,10.53,0,0,1-1.42-.36,4.06,4.06,0,0,1-1.16-.65,3.2,3.2,0,0,1-.8-1,3.67,3.67,0,0,1-.27-1.47A3.37,3.37,0,0,1,70.5,14Zm17.83-3.71L88.18,10l-.32-.56c-.1-.23-.23-.46-.33-.7s-.23-.44-.32-.58a.83.83,0,0,1-.1-.21c0-.11,0-.19,0-.21a4.15,4.15,0,0,1,.25-.51c.17-.31.38-.69.65-1.15s.55-1,.84-1.47.61-1.07.86-1.56l.69-1.23c.19-.36.32-.57.36-.66A5.42,5.42,0,0,1,91,.61a.51.51,0,0,1,.49-.32,5,5,0,0,1,.58.05,3.77,3.77,0,0,1,.68.18,1.47,1.47,0,0,1,.56.34.65.65,0,0,1,.23.53v.18a.69.69,0,0,0,0,.13L92.4,4.51v9.37h.42c.15,0,.36-.15.61-.46a12.28,12.28,0,0,0,.84-1.18c.31-.48.61-1,.92-1.55s.61-1.12.84-1.64l.63-1.39a2.45,2.45,0,0,0,.23-.84V6.53a.65.65,0,0,0,0-.19.15.15,0,0,0-.13-.08H94.08s-.06,0-.13-.09a1.11,1.11,0,0,1-.16-.12s-.05,0-.07-.07a.35.35,0,0,1-.06-.08V3.8l.27-.34h4s.07,0,.13-.06.11-.1.17-.15a.77.77,0,0,1,.15-.16A.4.4,0,0,0,98.49,3V.59c0-.09.06-.17.19-.28A.73.73,0,0,1,99,.17h2l.3.27a4.37,4.37,0,0,0,0,.44c0,.23,0,.46,0,.69s0,.47,0,.68a4.27,4.27,0,0,1,0,.44.57.57,0,0,1,.07.17,1.44,1.44,0,0,0,.08.25.79.79,0,0,0,.15.25c0,.08.08.1.12.1h4.77l.27.34V5.9l0,.08s-.06.07-.08.07a.83.83,0,0,1-.17.12l-.13.09h-3.21c-.08,0-.13.08-.13.23s0,.23,0,.27A3.24,3.24,0,0,0,103.34,8a10.52,10.52,0,0,0,.78,1.47,15.62,15.62,0,0,0,1,1.55c.38.51.72,1,1,1.45a13.94,13.94,0,0,1,.78,1.18,1.67,1.67,0,0,1,.31.76s0,.08,0,.14a3.85,3.85,0,0,0-.25.3,5.27,5.27,0,0,1-.46.58l-.57.59a1.39,1.39,0,0,1-.52.34s0,0-.09,0a.09.09,0,0,1-.06,0l-.84-.84a.41.41,0,0,0-.1,0,.33.33,0,0,0-.38.12c0,.13-.11.23-.15.36l-.13.31a.24.24,0,0,1-.23.15h-1.68s-.08,0-.12.11a.56.56,0,0,0-.15.25,1.21,1.21,0,0,0-.08.25.34.34,0,0,1-.07.15,4,4,0,0,1,0,.42c0,.19,0,.4,0,.63s0,.44,0,.65a3.63,3.63,0,0,0,0,.4,1.37,1.37,0,0,1-.21.19.43.43,0,0,1-.21.1H99.12L99,19.57a.91.91,0,0,1-.17-.09l-.21-.16-.12-.11V16.82c0-.11-.11-.17-.3-.17a4.47,4.47,0,0,1-.67-.06,2.49,2.49,0,0,1-.82-.3,1.61,1.61,0,0,1-.67-.86s0,0-.06-.08-.09,0-.09-.06h-.06a.52.52,0,0,0-.42.18c-.1.13-.21.26-.31.4a2.55,2.55,0,0,1-.32.38.52.52,0,0,1-.44.19l-.15,0c-.08,0-.1,0-.1,0L93,15.29h-.63v3.92l-.09.11a.55.55,0,0,1-.12.16.79.79,0,0,1-.19.17.37.37,0,0,1-.23.11H90l-.11-.07-.17-.06-.12-.08a.28.28,0,0,1-.09-.07V10.25Zm8.73,3.54a.94.94,0,0,0,.5.11.86.86,0,0,0,.21,0,1,1,0,0,0,.3-.09,1.2,1.2,0,0,0,.23-.12.3.3,0,0,0,.1-.21V10.94l-.06-.06c0-.05,0-.07-.06-.07s0,0-.09,0-.29.13-.44.38a5.61,5.61,0,0,0-.44.82c-.12.31-.23.61-.33.88a2.29,2.29,0,0,0-.13.53A.38.38,0,0,0,97.06,13.79Zm4.28-.86a1.36,1.36,0,0,0,.11.51.86.86,0,0,0,.27.33,1.15,1.15,0,0,0,.61.13,1,1,0,0,0,.53-.13.49.49,0,0,0,.18-.44v-.14c0-.07,0-.11,0-.15a2.92,2.92,0,0,0-.14-.36c-.09-.17-.17-.36-.28-.54l-.23-.55a2.65,2.65,0,0,0-.19-.36c-.06-.12-.12-.27-.19-.44s-.18-.27-.35-.27h-.15a3.61,3.61,0,0,0-.13.88c0,.27,0,.59,0,.9Zm12.54,3.15c-.19.38-.38.8-.56,1.24a6.94,6.94,0,0,1-.66,1.2,1,1,0,0,1-.84.57,2,2,0,0,1-.65-.13,2.14,2.14,0,0,1-.65-.29,1.83,1.83,0,0,1-.5-.45.87.87,0,0,1-.21-.58,1.59,1.59,0,0,1,.27-.74c.19-.33.4-.69.63-1l.67-1a5.29,5.29,0,0,0,.4-.67s.07,0,.13-.06.15-.06.15-.08h.08a2.26,2.26,0,0,1,1,.27,4.38,4.38,0,0,0,1,.42h.08s.06,0,.08,0a.7.7,0,0,0,.13,0l.69-.76h1.53c.07,0,.13-.06.24-.21s.21-.31.33-.48l.32-.5a1.2,1.2,0,0,0,.12-.28s0-.1,0-.21-.06-.14-.13-.14h-3.06l-.29-.36a3.58,3.58,0,0,0,0-.38c0-.23,0-.52,0-.88s0-.69,0-1,0-.67,0-.9V8.42a.71.71,0,0,1,0-.17,1.11,1.11,0,0,1,.08-.36.37.37,0,0,1,.36-.16h5.31l.15.14s0,.15,0,.38,0,.48,0,.78a2.58,2.58,0,0,0,.19.75.47.47,0,0,0,.44.34l.21,0a1.4,1.4,0,0,0,.61-.46,1.68,1.68,0,0,0,.1-.61,6.29,6.29,0,0,0-.08-.82c-.07-.29-.13-.59-.23-.88s-.19-.57-.3-.84a3.76,3.76,0,0,0-.4-.72.07.07,0,0,0-.06,0,.23.23,0,0,0-.19.11.74.74,0,0,0-.14.23c0,.1-.07.19-.11.25a.79.79,0,0,0,0,.13.11.11,0,0,1-.06.08s-.07.06-.09.06h-5.31l-.23-.08a.44.44,0,0,1-.19-.06H114s-.13.16-.21.5-.19.78-.3,1.3-.23,1.07-.38,1.68a14.4,14.4,0,0,1-.46,1.7A6.09,6.09,0,0,1,112,13c-.21.36-.44.53-.69.53a1.2,1.2,0,0,1-.55-.15,2.76,2.76,0,0,1-.58-.38,2.45,2.45,0,0,1-.47-.5.93.93,0,0,1-.18-.52,2.67,2.67,0,0,1,.14-.72,8.2,8.2,0,0,1,.36-.82l.38-.79a5.43,5.43,0,0,0,.27-.76,11.17,11.17,0,0,0,.27-1.62c0-.56.09-1.13.11-1.7s0-1.13,0-1.7V2.27s0,0,.08-.11l.17-.14.17-.17c.06,0,.1-.07.13-.07h8l.36-.35V.31s0,0,.09-.06l.12-.08a1.31,1.31,0,0,1,.17-.09l.1-.06h1.68a.37.37,0,0,1,.38.23,2.48,2.48,0,0,1,.15.48,1.6,1.6,0,0,0,.12.49.37.37,0,0,0,.36.23l.06,0h.07l.14-.28a2,2,0,0,0,.13-.29l.17-.17.23-.27a2.76,2.76,0,0,1,.27-.23,1.27,1.27,0,0,0,.17-.17h.21a2.1,2.1,0,0,0,.21,0,5.13,5.13,0,0,1,.61.31c.36.19.78.42,1.2.68l1.15.71c.36.23.55.38.55.42V3.8s0,0-.07.06a.24.24,0,0,1-.08.09,2.86,2.86,0,0,1-.67.19c-.3,0-.57.06-.84.08h-1.16l-.12.15a.79.79,0,0,0,.38.27l.6.19c.21.06.4.13.57.19s.25.1.25.19V5.9a1.73,1.73,0,0,1-.31,1,7,7,0,0,1-.67.9,10.42,10.42,0,0,0-.68.88,1.82,1.82,0,0,0-.29.95.65.65,0,0,0,.32.56,1,1,0,0,0,.6.21.55.55,0,0,0,.55-.27,2.9,2.9,0,0,0,.19-.63c0-.25.08-.46.12-.65a.36.36,0,0,1,.38-.27,1.76,1.76,0,0,1,.53.1,2.65,2.65,0,0,1,.54.32,1.68,1.68,0,0,1,.4.44.84.84,0,0,1,.17.5,3.26,3.26,0,0,1-.21,1.32,2.06,2.06,0,0,1-.57.84,3.63,3.63,0,0,1-.86.59c-.31.17-.67.4-1,.65a.23.23,0,0,0-.06.09l-.06,0a1.35,1.35,0,0,0,.42.84c.29.33.58.67.92,1a11.56,11.56,0,0,1,.9,1.09,1.89,1.89,0,0,1,.42,1.13.93.93,0,0,1-.23.57,3,3,0,0,1-.56.44,3.64,3.64,0,0,1-.7.27,2.2,2.2,0,0,1-.63.11.64.64,0,0,1-.58-.38c-.13-.25-.26-.53-.38-.82a4.23,4.23,0,0,0-.38-.8.66.66,0,0,0-.61-.38c-.06,0-.13.11-.21.28s-.15.38-.23.61-.17.48-.27.71a1.91,1.91,0,0,1-.28.5,1.59,1.59,0,0,1-.79.59,4.82,4.82,0,0,1-1,.25h-1.14a4.72,4.72,0,0,0-.67,0h-.44c-.4,0-.86,0-1.41,0a5.94,5.94,0,0,1-1.53-.13,3.19,3.19,0,0,1-1.3-.57,1.78,1.78,0,0,1-.65-1.3,1.44,1.44,0,0,1,0-.29,4.4,4.4,0,0,0,0-.49,4.12,4.12,0,0,0-.05-.48c0-.15,0-.25,0-.29a1.59,1.59,0,0,0,0-.34c0-.06-.1-.1-.23-.1S114.07,15.73,113.88,16.08Zm-.14-11.29.08.17a.28.28,0,0,0,.06.1h6.36a2.88,2.88,0,0,0,0-.34,2.84,2.84,0,0,0,0-.35.37.37,0,0,0,0-.11.21.21,0,0,0-.11,0h-6c-.06,0-.11.06-.19.21a1.28,1.28,0,0,1-.1.21v.15Zm2.91,5.41a.68.68,0,0,0,.38.07.75.75,0,0,0,.38-.07c.08,0,.13-.12.13-.31a.56.56,0,0,0-.17-.38.7.7,0,0,0-.42-.12.35.35,0,0,0-.32.14.81.81,0,0,0-.1.36C116.53,10.08,116.57,10.18,116.65,10.2Zm1.12,4.27c-.07,0-.11.1-.11.25v1.55a.61.61,0,0,0,.32.48.86.86,0,0,0,.52.21H121a.68.68,0,0,0,.5-.18,2.93,2.93,0,0,0,.3-.45c.08-.16.17-.31.25-.44a.54.54,0,0,1,.42-.21,2.09,2.09,0,0,1,1,.24,2.35,2.35,0,0,0,1,.23,1.13,1.13,0,0,0-.06-.36,2.69,2.69,0,0,0-.19-.32,1.69,1.69,0,0,1-.17-.29.78.78,0,0,1-.06-.31.53.53,0,0,1,.27-.49c.19-.08.38-.19.59-.27l.59-.29a.47.47,0,0,0,.25-.42c0-.05-.1-.15-.34-.32s-.46-.31-.75-.5l-.82-.47a1.52,1.52,0,0,0-.55-.18,1,1,0,0,0-.42.1l-.37.25-.4.25a.93.93,0,0,1-.44.11,1,1,0,0,1-.57-.13,4.21,4.21,0,0,1-.53-.58.18.18,0,0,0-.12,0c-.15,0-.25,0-.27.15a1.21,1.21,0,0,0,0,.34.45.45,0,0,0,0,.14v.09L121.44,14v.06a.84.84,0,0,1-.19.48,2.08,2.08,0,0,1-.46.48,4,4,0,0,1-.55.36,1,1,0,0,1-.48.17.84.84,0,0,1-.46-.17,2.71,2.71,0,0,1-.46-.36,5.39,5.39,0,0,1-.4-.37,1.31,1.31,0,0,0-.21-.23.51.51,0,0,0-.21,0A.73.73,0,0,0,117.77,14.47Zm5.48-9.33a1.93,1.93,0,0,0,.08.49,1.62,1.62,0,0,0,.19.4.34.34,0,0,0,.29.16.37.37,0,0,0,.17,0s.06,0,.13-.12a1.72,1.72,0,0,1,.17-.32l.25-.46.25-.46c.08-.13.13-.23.17-.3V4.37a.62.62,0,0,0-.09-.11l-.06,0h-1.41l-.08,0a.37.37,0,0,0,0,.11.59.59,0,0,0,0,.17v.6ZM138.6,1.28l.12.15a1.31,1.31,0,0,0,0,.23V2c0,1.6-.05,3.17-.15,4.75s-.15,3.13-.15,4.72v2.44a2,2,0,0,0,1,1.55,3.55,3.55,0,0,0,1.76.42,5.13,5.13,0,0,0,1.7-.27,11.59,11.59,0,0,0,1.55-.71,11.94,11.94,0,0,0,1.33-.91,13.76,13.76,0,0,0,1.09-.92c.31-.27.57-.51.75-.69s.32-.28.38-.28a.94.94,0,0,1,.63.28,4.61,4.61,0,0,1,.65.67,5.38,5.38,0,0,1,.49.82,1.57,1.57,0,0,1,.21.67.87.87,0,0,1-.19.42c-.11.19-.19.29-.23.36a13.65,13.65,0,0,1-3.87,2.89,10.43,10.43,0,0,1-4.68,1A7.81,7.81,0,0,1,139,19a6.62,6.62,0,0,1-1.87-.73,4.5,4.5,0,0,1-1.38-1.33,3.31,3.31,0,0,1-.55-1.91V1.28Zm22.87,16.78c-.09-.28-.17-.57-.25-.89s-.19-.58-.28-.88a3.62,3.62,0,0,0-.17-.58,4.72,4.72,0,0,0-.16-.57c-.09-.3-.21-.63-.32-1s-.25-.69-.35-1.05-.21-.59-.28-.75-.12-.4-.19-.7-.19-.56-.29-.84a3,3,0,0,0-.42-.69.77.77,0,0,0-.61-.31.59.59,0,0,0-.17,0h-.14l-2.23,1.11s-.06,0-.13,0a.39.39,0,0,1-.14,0,.76.76,0,0,1-.57-.29,4.46,4.46,0,0,1-.46-.72,3.78,3.78,0,0,1-.3-.79,3.23,3.23,0,0,1-.1-.59V8.34a.16.16,0,0,1,.15-.19l.65-.17c.33-.09.69-.21,1-.34a5.43,5.43,0,0,0,1-.5.79.79,0,0,0,.42-.61,1.3,1.3,0,0,0-.25-.76,7.44,7.44,0,0,0-.52-.73c-.19-.23-.36-.48-.53-.71a1.27,1.27,0,0,1-.25-.74.6.6,0,0,1,.31-.5,2.57,2.57,0,0,1,.72-.38,6.86,6.86,0,0,1,.84-.23,2.81,2.81,0,0,1,.67-.09h.25s.11,0,.17.15l1.39,2.52c.08.15.16.25.23.27a.62.62,0,0,0,.33,0,2.37,2.37,0,0,0,.55-.11,5,5,0,0,0,.86-.27,4.27,4.27,0,0,0,.8-.4.66.66,0,0,0,.33-.53C163,4,163,4,163,4l-1.83-2s0,0,0-.08v-.1a.84.84,0,0,1,.19-.49c.15-.14.32-.29.51-.44a3.23,3.23,0,0,1,.58-.31.95.95,0,0,1,1.1.1,8.29,8.29,0,0,1,.75.51c.25.21.46.42.67.6a1,1,0,0,1,.3.49v.42c-.17.14-.34.29-.53.48a.75.75,0,0,0-.29.61c.46,0,.9,0,1.34-.06a12.32,12.32,0,0,1,1.37-.07,6.35,6.35,0,0,1,2,.32,5.7,5.7,0,0,1,1.72.88,4.33,4.33,0,0,1,1.22,1.43,3.79,3.79,0,0,1,.48,1.93,4.61,4.61,0,0,1-.44,2.06A4.66,4.66,0,0,1,171,11.78a5.26,5.26,0,0,1-1.68,1,6.46,6.46,0,0,1-2,.32h-.61a9.65,9.65,0,0,1-1-.06,8,8,0,0,1-1-.21c-.32-.11-.47-.26-.47-.44V10.1c0-.13.05-.21.15-.23a1.6,1.6,0,0,1,.27,0,4.72,4.72,0,0,1,1.12.16,6.5,6.5,0,0,0,1.13.26h.06a2.6,2.6,0,0,0,1.64-.55,1.77,1.77,0,0,0,.69-1.49,1.83,1.83,0,0,0-.29-1.09,1.51,1.51,0,0,0-1-.65h-.48a1.32,1.32,0,0,1-.29,0H167a7.11,7.11,0,0,0-.76.06c-.33.06-.69.12-1.11.21s-.82.17-1.24.29a9.12,9.12,0,0,0-1.15.38,5.76,5.76,0,0,0-.87.48.78.78,0,0,0-.33.55l.06.19a1.2,1.2,0,0,0,.06.23c.57,1.49,1.12,2.94,1.68,4.39s1.08,2.94,1.56,4.43V18a.66.66,0,0,1-.4.59,2.62,2.62,0,0,1-.88.31,4.32,4.32,0,0,1-.91.15,2.15,2.15,0,0,0-.48.06.92.92,0,0,1-.31-.16.81.81,0,0,1-.26-.26C161.59,18.54,161.53,18.35,161.47,18.06ZM180.58,17a.17.17,0,0,1,.15-.17c.5-.13,1-.32,1.63-.51a8.75,8.75,0,0,0,1.6-.75.29.29,0,0,0,.08-.13.24.24,0,0,0,.05-.14c-.05-.21-.26-.4-.61-.55a8.44,8.44,0,0,1-1.16-.63A4.5,4.5,0,0,1,181.23,13a3.23,3.23,0,0,1-.5-1.93,3,3,0,0,1,.35-1.47,4.26,4.26,0,0,1,.88-1.1,5.57,5.57,0,0,1,1.16-.77c.42-.23.8-.42,1.15-.57l.89-.38c.23-.1.35-.19.35-.27a1.67,1.67,0,0,0,0-.29.24.24,0,0,0-.25-.19h-8L177,5.77V3.67l.29-.35h7.14a1.33,1.33,0,0,0,.73-.17.82.82,0,0,0,.36-.44,2.18,2.18,0,0,0,.06-.65c0-.23,0-.49,0-.78l.28-.27h2.66l.27.27a2.62,2.62,0,0,1,0,.32v.46a2.83,2.83,0,0,0,0,.5,1,1,0,0,0,.12.4s.09.08.15.13.1.08.12.08H194c.08,0,.16.06.25.19a1.46,1.46,0,0,1,.17.31V5.19a1.2,1.2,0,0,1-.15.58.4.4,0,0,0-.06.13c-.05,0-.07.08-.09.08H189l-.3.34v.17c0,.08,0,.17,0,.29s0,.21,0,.32,0,.16,0,.23a4.88,4.88,0,0,0,.13,1.17c.08.36.17.74.27,1.1a7.8,7.8,0,0,1,.25,1.11,4.89,4.89,0,0,1,.13,1.15,6.94,6.94,0,0,1-.53,2.5,9.8,9.8,0,0,1-1.42,2.42,8.82,8.82,0,0,1-2.08,1.84,4.41,4.41,0,0,1-2.48.74s-.06,0-.08,0a1.75,1.75,0,0,1-.26-.07l-.16-.06-1.81-1.83s0,0,0-.06V17ZM184,11.88a1.37,1.37,0,0,0,1.85,0,1.36,1.36,0,0,0,.34-1,1.19,1.19,0,0,0-.34-.89,1.25,1.25,0,0,0-.88-.31,1.31,1.31,0,0,0-.93.34,1.09,1.09,0,0,0-.39.92A1.27,1.27,0,0,0,184,11.88Zm15.27-8.56V3.11l.27-.28h2.79l.3.28c0,.25,0,.67,0,1.26v3.8c0,.59,0,1,0,1.24s0,.69.06,1.21a8.16,8.16,0,0,0,.23,1.56,5.84,5.84,0,0,0,.55,1.4,1.36,1.36,0,0,0,1,.72.81.81,0,0,0,.66-.17,2.32,2.32,0,0,0,.46-.61,7,7,0,0,0,.33-.82c.11-.29.21-.59.32-.84a4.27,4.27,0,0,1,.27-.65c.11-.19.21-.27.36-.27a.87.87,0,0,1,.63.29,5.07,5.07,0,0,1,.63.67,3.88,3.88,0,0,1,.5.84,2,2,0,0,1,.21.76,3.82,3.82,0,0,1-.38,1.62,6.33,6.33,0,0,1-1,1.51,5.88,5.88,0,0,1-1.39,1.15,2.86,2.86,0,0,1-1.55.47,3.41,3.41,0,0,1-2.42-.87,6.1,6.1,0,0,1-1.55-2.2,11.83,11.83,0,0,1-.86-3,30.73,30.73,0,0,1-.36-3.28c-.06-1.07-.08-2.08-.08-3V3.65C199.27,3.57,199.29,3.46,199.29,3.32Zm11,1.11a.58.58,0,0,1,.32-.48,3.49,3.49,0,0,1,.73-.32c.28-.08.57-.14.84-.19a4.76,4.76,0,0,1,.59-.06c.25,0,.55.21.86.63a7.66,7.66,0,0,1,.91,1.57c.29.66.58,1.37.84,2.15s.48,1.55.69,2.29.38,1.4.5,2a6.8,6.8,0,0,1,.17,1.37.69.69,0,0,1-.34.58,3.44,3.44,0,0,1-.79.47,4.23,4.23,0,0,1-.93.31,2.92,2.92,0,0,1-.67.13s-.13-.19-.27-.59-.28-.88-.46-1.49-.36-1.24-.57-2-.42-1.4-.63-2.1-.4-1.28-.61-1.82a10.28,10.28,0,0,0-.46-1.14l-.13-.23-.23-.35a3.13,3.13,0,0,1-.21-.34,1.5,1.5,0,0,1-.15-.21ZM232.53.31s0,0,0-.06.09-.06.11-.08a.85.85,0,0,1,.14-.09L233,0h6l.42.42V2.12l-.42.5h-3.24s0,0-.1.07l-.17.14a.71.71,0,0,1-.15.15.33.33,0,0,0-.06.13V13h-2.73Zm22.62,17.07.12-.14a2.77,2.77,0,0,0,2-.78,3.71,3.71,0,0,0,.8-1.76,10.3,10.3,0,0,0,.08-2.31c-.08-.84-.1-1.62-.1-2.35V7.73c-.07-.17-.15-.28-.28-.28a1.72,1.72,0,0,0-.33,0,.92.92,0,0,0-.44.07.81.81,0,0,0-.21.37c-.09.86-.19,1.77-.3,2.71a25.43,25.43,0,0,1-.46,2.84,14,14,0,0,1-.86,2.66,8.7,8.7,0,0,1-1.47,2.29l-.34.34c-.14.14-.27.29-.42.42s-.25.27-.33.35-.15.15-.17.15h-.42a2.57,2.57,0,0,1-.19-.21,4,4,0,0,1-.29-.29,2.13,2.13,0,0,0-.3-.3,1.39,1.39,0,0,0-.21-.19.33.33,0,0,0-.12-.06l-.15-.08H250c-.61,0-1.24,0-1.85.08l-1.82.19c-.61.08-1.22.15-1.85.21s-1.22.08-1.85.08a.66.66,0,0,1-.46-.16.79.79,0,0,1-.21-.38,2.22,2.22,0,0,1-.06-.51,4.1,4.1,0,0,1,0-.48V17a2,2,0,0,1,.69-.25c.31,0,.65-.08,1-.1s.67,0,1,0,.49,0,.57,0a3.17,3.17,0,0,0,.38-.21.45.45,0,0,0,.19-.35,1.16,1.16,0,0,0-.07-.32.24.24,0,0,0-.23-.16h-2.66a.33.33,0,0,1-.26-.13.8.8,0,0,1-.12-.27.94.94,0,0,1,0-.34v-.44a2.25,2.25,0,0,1,0-.34,1.13,1.13,0,0,1,.1-.31c0-.09.09-.13.17-.13h2.52a.29.29,0,0,0,.25-.1,1.18,1.18,0,0,0,0-.25,1,1,0,0,0,0-.21c0-.11-.06-.15-.15-.15h-2.37a.38.38,0,0,1-.1-.09.5.5,0,0,1-.17-.12l-.08-.06-.07-.07V6.61s0,0,.07-.08l.08-.06s.08-.07.17-.13a.44.44,0,0,1,.1-.08h2.37c.09,0,.13,0,.15-.15a1,1,0,0,0,0-.21.79.79,0,0,0,0-.23.3.3,0,0,0-.25-.11h-2.94a.19.19,0,0,1-.17-.14,1.5,1.5,0,0,1-.08-.32,2.35,2.35,0,0,1,0-.35V4.58A1.1,1.1,0,0,1,242,4a1.18,1.18,0,0,1,.34-.36,2.12,2.12,0,0,1,.36-.19c.1,0,.14-.08.14-.1a.9.9,0,0,0-.1-.38l-.27-.44-.26-.44a1.34,1.34,0,0,1-.1-.49c0-.29.21-.5.65-.63a6.58,6.58,0,0,1,1.53-.23c.59,0,1.2-.06,1.79-.06a11.54,11.54,0,0,0,1.36-.06L248,.5l.88-.12.88-.13.59-.08a1,1,0,0,1,.48.21,2.12,2.12,0,0,1,.4.44,4.4,4.4,0,0,1,.3.52,1.54,1.54,0,0,1,.1.51.46.46,0,0,1-.23.42,2.76,2.76,0,0,1-.59.17c-.21,0-.46,0-.73,0a4.47,4.47,0,0,0-.74,0,1.66,1.66,0,0,0-.58.17.42.42,0,0,0-.24.42.87.87,0,0,0,.07.29.23.23,0,0,0,.23.19h2.94a.38.38,0,0,1,.27.17,3.47,3.47,0,0,1,.27.38,1.75,1.75,0,0,0,.32.35.65.65,0,0,0,.46.17,1.16,1.16,0,0,0,.23,0l.34-.06a1,1,0,0,0,.29-.15.23.23,0,0,0,.13-.21V.86c0-.06.06-.15.19-.25a.41.41,0,0,1,.29-.17h1.83a.24.24,0,0,0,.1,0,.5.5,0,0,1,.17.11s.06,0,.13.06.08.06.08.08V4.22a.63.63,0,0,1,.13.11,2.15,2.15,0,0,0,.23.18l.17.13a.44.44,0,0,0,.1.08h3.21l.15.21v.32c0,.21,0,.44,0,.71v5c0,.5,0,1-.06,1.55s-.07,1.18-.11,1.94-.12,1.44-.21,2.09a4.78,4.78,0,0,1-.56,1.71,3,3,0,0,1-1.2,1.11,4.57,4.57,0,0,1-2.08.42h-.34a1.45,1.45,0,0,1-.23,0l-.42-.42ZM245.07,3.53l.27-.28c0-.12-.1-.16-.25-.16l-.27,0h-.4a4.7,4.7,0,0,0-.53,0,3.42,3.42,0,0,0-.46,0c-.12,0-.19,0-.19.08v.13Zm-.19,4.93c0,.17.11.25.25.25a.44.44,0,0,0,.25-.06.25.25,0,0,0,.11-.21c0-.19-.06-.27-.19-.29a2.68,2.68,0,0,0-.42-.05Zm0,2.19V11a2.72,2.72,0,0,0,.42,0c.13,0,.19-.13.19-.31a.24.24,0,0,0-.11-.21.37.37,0,0,0-.25-.07C245,10.37,244.9,10.48,244.88,10.65Zm3.89,5.52a1,1,0,0,0,.33.1h.53a5,5,0,0,0,.77,0,3.39,3.39,0,0,0,.76-.17.81.81,0,0,0,.48-.37l-.27-.15h-2.52l-.13.1-.17.19v.07C248.55,16,248.62,16.1,248.77,16.17Zm-.11-7.67a.28.28,0,0,0,.31.21c.15,0,.22,0,.26-.08a.45.45,0,0,0,0-.19c0-.19-.08-.29-.23-.31a2,2,0,0,0-.44,0A1.68,1.68,0,0,0,248.66,8.5Zm0,2.15c0,.16,0,.29,0,.35a2.46,2.46,0,0,0,.4,0c.15,0,.21-.13.21-.31a.24.24,0,0,0-.11-.21.37.37,0,0,0-.25-.07C248.77,10.37,248.68,10.48,248.68,10.65Zm3.38-4s0,0,.09-.06a.11.11,0,0,0,.06-.08V6.19a.72.72,0,0,0-.09-.37.32.32,0,0,0-.33-.19h-2.67a.43.43,0,0,0-.21.1,1.07,1.07,0,0,0-.21.17l.27.36h2.52Zm-3.36,6.58.07.06s.06.06.08.08l.17.13a.44.44,0,0,0,.1.08h2.52a.25.25,0,0,1,.25.19,1.84,1.84,0,0,1,.09.42,2.34,2.34,0,0,0,.1.4.24.24,0,0,0,.25.19c.17,0,.34-.15.49-.44a6,6,0,0,0,.42-1.11q.18-.67.33-1.5c.09-.52.17-1,.25-1.55s.11-.94.15-1.32,0-.67,0-.82a.58.58,0,0,0-.19-.44,2.23,2.23,0,0,0-.48-.32,2,2,0,0,0-.59-.16,1.91,1.91,0,0,0-.48-.07.29.29,0,0,0-.19.11,1.61,1.61,0,0,0-.12.23c0,.08-.07.17-.09.23a.58.58,0,0,0,0,.15v4.76l-.36.34h-2.64a.14.14,0,0,0-.06.08l-.09.13v.15Zm20.1-7.42.13-.29.67,0a8.85,8.85,0,0,0,1,0,2.62,2.62,0,0,0,1-.27.69.69,0,0,0,.44-.69,1.08,1.08,0,0,0-.08-.42.35.35,0,0,0-.36-.26h-7a.36.36,0,0,1-.27-.18.58.58,0,0,1-.15-.32V1.7l0-.1c0-.09.06-.15.09-.17s0-.07.06-.11l.08,0h18.33l.3.29V3.38a.58.58,0,0,1-.05.13.55.55,0,0,1-.1.16s0,.07-.06.13a.32.32,0,0,1-.09.08h-7.26c-.19,0-.3.11-.36.32a3,3,0,0,0-.08.46.86.86,0,0,0,.21.51.63.63,0,0,0,.5.25h2.67v9.3H268.8Zm-1.2-.42v9.94a.38.38,0,0,0,.09.1.62.62,0,0,0,.12.17,1.13,1.13,0,0,0,.19.19.34.34,0,0,0,.23.1H279l.13,0a1.28,1.28,0,0,0,.17-.1,1.92,1.92,0,0,1,.19-.17l.14-.11V5.35l.09-.06.12-.08a1.31,1.31,0,0,1,.17-.09.33.33,0,0,1,.13-.06h1.8l.13.06a.87.87,0,0,1,.17.09l.08.08,0,.06V19.48a.1.1,0,0,1,0,.07l-.08.08-.17.06-.13.07h-1.8a.37.37,0,0,1-.34-.17c-.06-.11-.12-.23-.19-.38a2.6,2.6,0,0,0-.23-.4.47.47,0,0,0-.38-.17H268.23a.45.45,0,0,0-.36.17c-.06.13-.14.25-.2.4s-.13.27-.19.38a.48.48,0,0,1-.36.17h-1.83a.38.38,0,0,1-.29-.15.35.35,0,0,1-.13-.27V5.48a.42.42,0,0,1,.13-.27.38.38,0,0,1,.29-.15h2Zm3.63,3.45a.45.45,0,0,0,.42.19.67.67,0,0,0,.45-.21.79.79,0,0,0,.21-.42.69.69,0,0,0-.19-.42.42.42,0,0,0-.38-.23c-.23,0-.38,0-.46.16a.85.85,0,0,0-.13.49A1,1,0,0,0,271.23,8.8Zm0,3.52a.53.53,0,0,0,.46.17.47.47,0,0,0,.38-.23.67.67,0,0,0,.19-.4.74.74,0,0,0-.19-.44.44.44,0,0,0-.38-.21c-.23,0-.38,0-.46.17a.82.82,0,0,0-.13.48A.67.67,0,0,0,271.28,12.32ZM275,8.78a.62.62,0,0,0,.42.21.55.55,0,0,0,.44-.23.77.77,0,0,0,.19-.47.55.55,0,0,0-.21-.42.6.6,0,0,0-.42-.16.63.63,0,0,0-.42.18.67.67,0,0,0-.21.47A.67.67,0,0,0,275,8.78Zm0,3.52a.55.55,0,0,0,.42.21.71.71,0,0,0,.42-.16.52.52,0,0,0,.21-.42.74.74,0,0,0-.19-.49.48.48,0,0,0-.44-.23.58.58,0,0,0-.42.21.67.67,0,0,0-.21.44A.63.63,0,0,0,275,12.3Zm10.8,5.36.42-.49h3.21a.33.33,0,0,0,.13-.06l.15-.15c0-.06.1-.1.14-.16a.3.3,0,0,0,.07-.11v-10h2.73V19.48s0,.05-.07.07-.06.06-.06.08l-.17.06a.26.26,0,0,1-.12.07h-6l-.42-.42Zm28.92-7.92a15.55,15.55,0,0,1,.69-1.64c.23-.5.46-.94.67-1.34a2.1,2.1,0,0,0,.32-.92.08.08,0,0,0,0-.07.43.43,0,0,0-.12-.14,2.28,2.28,0,0,1-.32,0h-.31a12,12,0,0,0-1.49.1c-.51.08-1,.17-1.51.27l-1.47.26a12.57,12.57,0,0,1-1.49.1.7.7,0,0,1-.61-.25,1.16,1.16,0,0,1-.23-.61,2.49,2.49,0,0,1,0-.78c0-.27,0-.52,0-.73a.71.71,0,0,1,.56-.72c.32,0,.78-.08,1.43-.12L313,2.94c.82,0,1.66-.13,2.56-.19s1.75-.13,2.57-.21l2.18-.17,1.43-.1c.46,0,1-.09,1.49-.11s1.05,0,1.55,0H325a1.35,1.35,0,0,1,.28,0,.5.5,0,0,1,.25.13.32.32,0,0,1,.08.25V4.79l-.27.27a23.2,23.2,0,0,0-2.73.36,7.79,7.79,0,0,0-2.48.88A4.92,4.92,0,0,0,318.34,8a5,5,0,0,0-.7,2.77,3.72,3.72,0,0,0,.53,2.08,4,4,0,0,0,1.36,1.34,7.62,7.62,0,0,0,1.89.8,18,18,0,0,0,2.1.46c.13,0,.17.09.17.23v.28a6.14,6.14,0,0,1-.06.77,4.24,4.24,0,0,1-.25.88,2.35,2.35,0,0,1-.47.74.81.81,0,0,1-.69.31,7.82,7.82,0,0,1-2.87-.54,8.13,8.13,0,0,1-4.27-3.8,6,6,0,0,1-.67-2.79A5.17,5.17,0,0,1,314.73,9.74ZM321.42,8a.41.41,0,0,1,.13-.29,1.18,1.18,0,0,1,.29-.26,1.51,1.51,0,0,1,.38-.12,3,3,0,0,1,.34,0,.79.79,0,0,1,.54.25,3.84,3.84,0,0,1,.49.61,2.86,2.86,0,0,1,.37.69,1.34,1.34,0,0,1,.15.57.67.67,0,0,1-.42.63,1.8,1.8,0,0,1-.8.21h-.21s-.08-.07-.12-.15a3.88,3.88,0,0,1-.23-.38c-.11-.19-.23-.38-.34-.59s-.23-.4-.34-.58-.18-.34-.23-.4Zm2.5-1.32a2.74,2.74,0,0,1,.34-.19.87.87,0,0,1,.35-.13l.3,0a1.62,1.62,0,0,1,.31,0,.4.4,0,0,1,.28.13s.1.14.21.31l.4.53c.12.21.25.42.35.61a1.16,1.16,0,0,1,.17.52.51.51,0,0,1-.15.29,1.35,1.35,0,0,1-.37.3l-.4.17a.67.67,0,0,1-.3.08.8.8,0,0,1-.58-.27,4.6,4.6,0,0,1-.51-.65,7.69,7.69,0,0,1-.38-.76A1.9,1.9,0,0,1,323.8,7,.36.36,0,0,1,323.92,6.68Zm7.31,6.76a4.2,4.2,0,0,1,.86-1,8.74,8.74,0,0,1,1.12-.86c.37-.26.75-.53,1.09-.82a4.38,4.38,0,0,0,.86-.93,2.11,2.11,0,0,0,.36-1.21V8.13a3.17,3.17,0,0,0,0-.53.93.93,0,0,0-.21-.46A.54.54,0,0,0,334.8,7H332s-.06,0-.13-.13a1.58,1.58,0,0,0-.16-.21s-.05-.1-.07-.16a.4.4,0,0,1-.06-.13V4.51l.27-.35h3.22s.06-.07.12-.15a1.3,1.3,0,0,0,.17-.21,1.55,1.55,0,0,0,.08-.15c0-.06.05-.1.05-.12V1.15l.29-.29h2.52s.1.08.19.21l.08.21v.15a2.09,2.09,0,0,1,0,.29,5.48,5.48,0,0,1,0,.55,2.86,2.86,0,0,0-.06.54,2.2,2.2,0,0,0,0,.3.7.7,0,0,0,.08.29.38.38,0,0,0,.21.27h.48a4.24,4.24,0,0,0,1.14-.14,4.54,4.54,0,0,1,1.13-.15,1.67,1.67,0,0,1,.29,0c.11,0,.17.11.17.25V5.9a.38.38,0,0,1-.27.36,2.88,2.88,0,0,1-.67.12l-.86.07a4.13,4.13,0,0,0-.89.16,1.54,1.54,0,0,0-.69.42,1.17,1.17,0,0,0-.27.84,2.71,2.71,0,0,0,.1.65.48.48,0,0,0,.51.34,11.43,11.43,0,0,0,1.45-.08,14,14,0,0,1,1.46-.09,10.27,10.27,0,0,1,2.25.25,6.42,6.42,0,0,1,1.91.8,4.15,4.15,0,0,1,1.87,3.66,4.73,4.73,0,0,1-.57,2.35,5.39,5.39,0,0,1-1.51,1.7,7.41,7.41,0,0,1-2.14,1,8.69,8.69,0,0,1-2.43.33.93.93,0,0,1-.7-.27,2.24,2.24,0,0,1-.46-.65,5.15,5.15,0,0,1-.25-.84,4,4,0,0,1-.09-.78.39.39,0,0,1,.07-.23c0-.06.1-.1.23-.17.4,0,.86-.06,1.43-.12a7.62,7.62,0,0,0,1.55-.36,4.2,4.2,0,0,0,1.26-.76,1.72,1.72,0,0,0,.52-1.36,1.65,1.65,0,0,0-.27-1,2.13,2.13,0,0,0-.71-.63,3.82,3.82,0,0,0-.95-.33,4,4,0,0,0-1-.11l-.65,0c-.35,0-.75.07-1.17.11a4,4,0,0,0-1.11.25c-.34.1-.51.27-.51.48v4.75a1.7,1.7,0,0,1-.23.88,2,2,0,0,1-.54.67,2.66,2.66,0,0,1-.8.42,3.05,3.05,0,0,1-.86.15,5.49,5.49,0,0,1-1.7-.3,5.21,5.21,0,0,1-1.64-.84,4.2,4.2,0,0,1-1.24-1.28,3,3,0,0,1-.48-1.65A2.88,2.88,0,0,1,331.23,13.44Zm3,1.89a1,1,0,0,0,.65.25,1,1,0,0,0,.42-.11.32.32,0,0,0,.22-.33V13.33a.13.13,0,0,0-.15-.14.54.54,0,0,0-.19,0c-.06,0-.13,0-.21,0-.32.27-.55.48-.74.67a1.12,1.12,0,0,0-.27.84A.8.8,0,0,0,334.21,15.33Zm9.24-10.61a4.67,4.67,0,0,1,.32-.63,2.65,2.65,0,0,1,.44-.6.63.63,0,0,1,.46-.26s.06,0,.06,0l1,.47c.42.16.86.35,1.33.58s.88.49,1.28.76a3.87,3.87,0,0,1,1,.84s0,0,0,.06a1.3,1.3,0,0,1-.14.53,4.44,4.44,0,0,1-.36.67,5.37,5.37,0,0,1-.44.61A.69.69,0,0,1,348,8a.32.32,0,0,1-.15,0c-.17-.08-.5-.27-1-.53s-1-.52-1.51-.81-1-.59-1.38-.89-.61-.48-.61-.63A1.64,1.64,0,0,1,343.45,4.72Zm14.39,4.75h4.05a.28.28,0,0,0,.25-.13.53.53,0,0,0,.19-.27,1.42,1.42,0,0,0,.11-.31,1.55,1.55,0,0,0,0-.26,1.62,1.62,0,0,0-.13-.58.42.42,0,0,0-.44-.34h-4.35a.57.57,0,0,0-.31.17A1.32,1.32,0,0,0,357,8a1.89,1.89,0,0,0,0,.42c0,.21,0,.42,0,.63s-.05.44-.07.63,0,.36,0,.42,0,.31-.06.57-.06.52-.09.81-.06.55-.08.78,0,.42,0,.51-.08.44-.15.84-.15.84-.25,1.34-.25,1-.4,1.53a9.81,9.81,0,0,1-.46,1.47,7.76,7.76,0,0,1-.53,1.11c-.19.3-.37.45-.58.45a2.2,2.2,0,0,1-.63-.13c-.23-.11-.47-.21-.7-.34a2.19,2.19,0,0,1-.56-.46.88.88,0,0,1-.23-.57,4.56,4.56,0,0,1,.18-1.15c.15-.46.3-.94.49-1.45s.35-1,.52-1.47a7.33,7.33,0,0,0,.36-1.32c.15-.93.23-1.87.29-2.84s.09-1.91.11-2.87,0-1.91,0-2.86,0-1.87,0-2.77l.27-.27H370a.25.25,0,0,1,0,.06s.06.06.08.08a.66.66,0,0,1,.09.15.33.33,0,0,1,.06.13V7a.67.67,0,0,1-.06.11c0,.06-.07.12-.09.17l-.08.12,0,.09h-4.08l-.1.08a.4.4,0,0,0-.17.13l-.17.16a.33.33,0,0,1-.1.11V9l.1.1a1.32,1.32,0,0,0,.17.17.67.67,0,0,0,.17.13.22.22,0,0,1,.1.08h4.35l.27.36v9.51a.37.37,0,0,1-.12.27.37.37,0,0,1-.3.15h-1.8l-.84-.42h-7a1.17,1.17,0,0,1-.73.4c-.23,0-.48,0-.8,0l-.31,0a4.18,4.18,0,0,1-.49,0,1.15,1.15,0,0,1-.42-.13.33.33,0,0,1-.19-.31V9.83Zm-.72-4.79a.52.52,0,0,0,.42.25h9.24a.45.45,0,0,0,.38-.23.59.59,0,0,0,.19-.4.79.79,0,0,0-.19-.54.56.56,0,0,0-.5-.23h-9a.67.67,0,0,0-.52.21.6.6,0,0,0-.19.48A.8.8,0,0,0,357.12,4.68Zm3.26,8.19c0,.13.1.17.25.17H362a.23.23,0,0,0,.25-.17,1,1,0,0,0,0-.31,1,1,0,0,0,0-.32.23.23,0,0,0-.25-.17h-1.41c-.15,0-.23,0-.25.17a1,1,0,0,0,0,.32A1,1,0,0,0,360.38,12.87Zm.23,3.74a2.57,2.57,0,0,0,.71.08,2.11,2.11,0,0,0,.36,0,1.05,1.05,0,0,0,.36-.08.7.7,0,0,0,.29-.19.44.44,0,0,0,.13-.34.46.46,0,0,0-.13-.35.55.55,0,0,0-.29-.19.87.87,0,0,0-.36-.09,2.11,2.11,0,0,0-.36,0,2.23,2.23,0,0,0-.71.09c-.19,0-.27.23-.27.56S360.42,16.57,360.61,16.61Zm4.81-3.74c0,.13.1.17.25.17h1.68a.22.22,0,0,0,.25-.17,1,1,0,0,0,0-.31,1,1,0,0,0,0-.32.22.22,0,0,0-.25-.17h-1.68c-.15,0-.23,0-.25.17a2.31,2.31,0,0,0,0,.32A2.39,2.39,0,0,0,365.42,12.87Zm.08,3.55a.85.85,0,0,0,.32.19,2,2,0,0,0,.37.08H367a1.68,1.68,0,0,0,.38-.08.59.59,0,0,0,.29-.21.6.6,0,0,0,.13-.42.42.42,0,0,0-.15-.34,1.26,1.26,0,0,0-.33-.17l-.4-.06h-.67a1.79,1.79,0,0,0-.4.09.83.83,0,0,0-.32.18.54.54,0,0,0-.12.38A.52.52,0,0,0,365.5,16.42Zm10-10.23c.14-1.47.31-3,.5-4.49a.8.8,0,0,1,.11-.23.61.61,0,0,1,.17-.19h.5c.12,0,.34,0,.61,0a6.25,6.25,0,0,1,.86,0,2.63,2.63,0,0,1,.78.17.46.46,0,0,1,.33.46,8.94,8.94,0,0,1-.19,1.85c-.1.61-.25,1.24-.37,1.87s-.28,1.26-.4,1.89a11,11,0,0,0-.17,1.89v1c0,.13,0,.21,0,.26a.13.13,0,0,0,.1.12.59.59,0,0,0,.17,0,.32.32,0,0,0,.28-.14q.09-.13.18-.3c.07-.12.15-.21.21-.31a.34.34,0,0,1,.32-.09,1.14,1.14,0,0,1,.65.34.77.77,0,0,1,.34.61,7.72,7.72,0,0,1-.19,1.64c-.13.54-.28,1.09-.44,1.65s-.34,1.1-.49,1.66a8.15,8.15,0,0,0-.29,1.66,1.51,1.51,0,0,1-.44.36,3,3,0,0,1-.53.17,5.46,5.46,0,0,1-.58,0h-.57c-.25,0-.46-.17-.65-.48a4.94,4.94,0,0,1-.46-1.22,10.94,10.94,0,0,1-.3-1.66c-.08-.59-.12-1.16-.17-1.72s-.06-1-.08-1.45,0-.72,0-.86A44.74,44.74,0,0,1,375.46,6.19Zm7.75,10.54c.25-.25.56-.54.9-.84l1-.92a4.14,4.14,0,0,0,.67-.8,6,6,0,0,0,.69-2.16,15.84,15.84,0,0,0,.15-2.25v-1a.45.45,0,0,0-.42-.42c-.15,0-.4,0-.76,0l-1.13,0-1.16,0c-.35,0-.61,0-.73,0a1.42,1.42,0,0,1-.27,0L381.8,8a.59.59,0,0,1-.27-.17.37.37,0,0,1-.11-.29V5.63a.79.79,0,0,1,0-.13l.11-.15s0-.06.06-.08l.06-.06H386a.36.36,0,0,0,.29-.11,1.23,1.23,0,0,0,.17-.25,1.61,1.61,0,0,0,.09-.29,1.62,1.62,0,0,0,0-.3,11.57,11.57,0,0,0-.07-1.3,9,9,0,0,1-.08-1.28.78.78,0,0,1,.11-.36.34.34,0,0,1,.31-.17h2.37a.55.55,0,0,1,.3.13.48.48,0,0,1,.12.29V4.51c0,.09.07.17.15.28a.54.54,0,0,0,.27.14h2.4V7.58c0,.21-.13.34-.42.36s-.59,0-.93.06a6.89,6.89,0,0,0-1,.08.56.56,0,0,0-.51.49c0,1-.06,2-.14,2.91a15,15,0,0,1-.49,2.59,11.27,11.27,0,0,1-1,2.37,9.53,9.53,0,0,1-1.82,2.2c-.11.11-.28.21-.46.36a.8.8,0,0,1-.53.21,1.64,1.64,0,0,1-.71-.19,4.7,4.7,0,0,1-.78-.46,4.77,4.77,0,0,1-.65-.61,1.08,1.08,0,0,1-.25-.63C382.81,17.2,382.93,17,383.21,16.73Zm21.06-2.49a2.34,2.34,0,0,1,1.66-.63,2.18,2.18,0,0,1,.86.16,3.06,3.06,0,0,1,.76.42,2,2,0,0,1,.5.68,1.9,1.9,0,0,1,.19.86,2.05,2.05,0,0,1-.65,1.63,2.36,2.36,0,0,1-1.66.59,2.66,2.66,0,0,1-1.66-.54,1.93,1.93,0,0,1-.67-1.58A2,2,0,0,1,404.27,14.24ZM404,7.31A36.3,36.3,0,0,1,403.75,3V2.81a.59.59,0,0,1,0-.27.39.39,0,0,1,.12-.19.37.37,0,0,1,.26-.08h3.5a.3.3,0,0,1,.27.12.6.6,0,0,1,.13.28,1.94,1.94,0,0,1,0,.33v.25a34.77,34.77,0,0,1-.27,4.22c-.19,1.41-.38,2.8-.57,4.18A2.49,2.49,0,0,1,407,12a.42.42,0,0,1-.35.19h-1.54a.47.47,0,0,1-.4-.25,1.84,1.84,0,0,1-.16-.44C404.37,10.12,404.19,8.71,404,7.31Z"/></svg>