<svg id="レイヤー_1" data-name="レイヤー 1" xmlns="http://www.w3.org/2000/svg" viewBox="0 0 61.46 81.52"><defs><style>.cls-1{fill:#333;}</style></defs><path class="cls-1" d="M60,56.42a1.68,1.68,0,0,0,.86-1.12,1.64,1.64,0,0,0-.3-1.37L34.89,19.69a1.68,1.68,0,0,0-2.12-.48L3,34.89l27.72,37Z"/><path class="cls-1" d="M61.15,63.72l-.41-.4L30.21,79.27c-1,.25-.75-.51-.76-1.7a21.85,21.85,0,0,1,.4-3.55l-27.72-37a20.83,20.83,0,0,0-.29,6.25L0,40.84,1.84,43.3c.06.51.12,1,.21,1.54l27.2,36.27a1,1,0,0,0,1.28.29L60.92,65.34a1,1,0,0,0,.53-.76A1,1,0,0,0,61.15,63.72Z"/><polygon class="cls-1" points="31.49 76.24 60.22 61.18 60.22 59.47 31.49 74.54 31.49 76.24"/><path class="cls-1" d="M6.16.35a.68.68,0,0,1,.3-.16c.13,0,.29.1.42.35a7.38,7.38,0,0,1,.57,1.38c.07.3.32,1,.4,1.28s.1.26.1.29a3.53,3.53,0,0,0,.08.8c.09.27.13.16.24.5a1.22,1.22,0,0,1,.09.43.28.28,0,0,1,0,.08s.22.24.25.4.16.54.2.75.16.67.27,1.12.46,1.07.48,1.27a3.75,3.75,0,0,0,.18.72,1.78,1.78,0,0,0,.46-.87c.11-.43.22-.8.26-1s.24-.46.25-.73a4.45,4.45,0,0,1,.15-.9,4.42,4.42,0,0,1,.27-.86c.06,0,.13-.6.21-.6a.42.42,0,0,0,0-.19.18.18,0,0,0,0-.11,2.71,2.71,0,0,1,.18-.69,3,3,0,0,1,.27-.54,2.15,2.15,0,0,0,.13-.61A2,2,0,0,1,12.06,2a1.52,1.52,0,0,0,.21-.56s0-.1,0-.13a2.74,2.74,0,0,0,0-.32.21.21,0,0,1,0-.13,2,2,0,0,1,.57-.56h.05c.18,0,.37.3.46.65a3.17,3.17,0,0,1,.15,1,3,3,0,0,0,.11.91,4.46,4.46,0,0,1,.1.72,5.14,5.14,0,0,1,.09,1c0,.53.08,1.1.08,1.55a1.9,1.9,0,0,1,0,.37,1.38,1.38,0,0,0,0,.26,2.27,2.27,0,0,0,.11.51c0,.21.13.19.13.57,0,.07,0,.17,0,.26s0,.27,0,.4c0,.34,0,.58,0,1,0,.31.08.4.08.72s0,.56,0,.71v.36c0,.2.13.44.13.6s-.45.72-.69.72c-.06,0-.14,0-.27-.15s-.24-.38-.3-.67a2.73,2.73,0,0,1,0-.66c-.05-1.29-.18-1.68-.18-1.95V8.56a6.6,6.6,0,0,0-.06-1.15,4,4,0,0,1-.07-.8c0-.27,0-.51,0-.61s-.14-1.38-.14-1.65c0-.11,0-.22,0-.33s0-.23,0-.35a6.94,6.94,0,0,0,0-.76c0-.08-.27.74-.41,1s-.31.34-.32.59a1.58,1.58,0,0,1-.1.66c-.11.22-.24.74-.33,1s-.07.69-.24,1.13-.34.89-.44,1.24-.16.81-.28,1.13-.23.76-.32,1a.15.15,0,0,0,0,.09c0,.15.14.24.14.43v.39a.34.34,0,0,1-.19.35c-.27.21-.38.42-.61.42s-.45,0-.54-.64a20.88,20.88,0,0,0-.59-2.15C8.19,9.48,8,9,7.93,8.82s-.08-.46-.14-.66-.1-.41-.18-.65a3.87,3.87,0,0,1-.22-.92,2.85,2.85,0,0,1,0-.33.19.19,0,0,0-.08-.15c-.16-.14,0-.33-.18-.57s-.17-.8-.27-1a6.41,6.41,0,0,1-.16-.87,3.72,3.72,0,0,0-.29-.7s0-.05,0-.05-.18.56-.24.91a5.93,5.93,0,0,0-.1,1.14v.4a1.46,1.46,0,0,1,0,.34,3.11,3.11,0,0,0-.13.76c0,.31,0,.52,0,.68a4.85,4.85,0,0,1-.11,1.07,2.52,2.52,0,0,0-.12.62,1.85,1.85,0,0,0,0,.23V9.2a1.39,1.39,0,0,1,0,.42,10.11,10.11,0,0,0-.22,1.26c-.05.36-.1.76-.13,1.16s0,.36-.16.54a.39.39,0,0,1-.27.14c-.08,0-.15,0-.17-.17a3.07,3.07,0,0,1,0-.34,3.27,3.27,0,0,1,.1-.78,5.15,5.15,0,0,0,.08-.9v-.21c0-.19.1-.52.1-.83a.62.62,0,0,0,0-.19.78.78,0,0,1,0-.21A4.45,4.45,0,0,1,5,8.47a7.16,7.16,0,0,0,.19-.87.34.34,0,0,0,0-.14.71.71,0,0,1,0-.16c0-.59.27-2.45.28-2.87s.1-.75.1-1,.11-.72.13-1.05A10.18,10.18,0,0,1,5.87.88.9.9,0,0,1,6.16.35Z"/><path class="cls-1" d="M21.82.61c0,.37.19.69.19,1.12,0,.19,0,.32,0,.45s-.1.44-.1.7,0,.9,0,1.44c0,.34,0,.66,0,.8a5.79,5.79,0,0,1,.1.88,2.91,2.91,0,0,1,0,.42,3.53,3.53,0,0,0,0,.57s0,.9,0,1.4c0,.33,0,.85,0,1.25a2.51,2.51,0,0,1,0,.44,1.94,1.94,0,0,0,0,.4c0,.23,0,.45,0,1.11a.82.82,0,0,1,0,.22,2.34,2.34,0,0,1-.09.51,2.28,2.28,0,0,1-.52.42.71.71,0,0,1-.33.1.42.42,0,0,1-.18-.07.5.5,0,0,1-.14-.32c0-.13.08-.24.08-.4s-.08-.22-.1-.37,0-.35,0-.67,0-.67,0-.86a2.68,2.68,0,0,1,0-.53.42.42,0,0,1,0-.26.68.68,0,0,0,0-.3c0-.16,0-.32-.12-.32a.93.93,0,0,0-.42-.1l-.66,0c-.08,0-.11.07-.25.07a4.27,4.27,0,0,0-.82,0c-.14,0-.48,0-.48.26a1.78,1.78,0,0,0-.09.53c0,.16,0,.25,0,.33s-.09.29-.09.47,0,.24,0,.46a4.57,4.57,0,0,1-.05.72c0,.1-.1.35-.21.4s-.06.18-.14.32-.16.26-.29.26-.26-.18-.34-.29a1.14,1.14,0,0,1-.17-.61c0-.19,0-.45,0-.62s.05-.23.05-.39,0-.24,0-.32,0-.43,0-.76a2,2,0,0,0,.05-.31.19.19,0,0,0-.07-.16.49.49,0,0,1-.12-.37,1.34,1.34,0,0,1,.09-.46,7.48,7.48,0,0,0,0-.75c0-.64.05-1.27.05-1.94,0-.14,0-.46,0-.74a15.92,15.92,0,0,1,.43-2.33,1.92,1.92,0,0,1,.55-.8c.09-.1.24-.2.25-.34s.48-.45.69-.56a2.85,2.85,0,0,1,.54-.3c.13,0,.39-.13.6-.16a7.55,7.55,0,0,1,.83-.05c.21,0,.77-.15.88-.15S21.82.37,21.82.61ZM20.09.88a3,3,0,0,0-.73.1.94.94,0,0,0-.53.44,2,2,0,0,0-.27.53c0,.11-.2.48-.28.74a2.89,2.89,0,0,0-.08.7c0,.31,0,.44,0,.58s-.16.59-.16.94v.52c0,.62,0,1.53,0,1.76s0,.8.05.94.06.11.19.11h.29c.43,0,.85,0,1.39,0h.39c.17,0,.22-.16.24-.3s0-.29,0-.5,0-.4,0-.48,0-.16,0-.29,0-.37,0-.48a5.7,5.7,0,0,0-.08-.77c0-.22,0-.83-.06-1.24s.11-.8.11-1.22c0-.19-.06-.37-.06-.61s0-.27,0-.56,0-.74-.24-.85A1.19,1.19,0,0,0,20.09.88Z"/><path class="cls-1" d="M25.18.24a1.64,1.64,0,0,1,.91.54,10,10,0,0,1,.56,1,4.09,4.09,0,0,1,.55.91,4.15,4.15,0,0,0,.22.7c.26.79,1.57,3,1.63,3.46s.15.38.21.56A3.06,3.06,0,0,1,29.4,8c0,.21.29.61.37.85a4.58,4.58,0,0,0,.4.83,2,2,0,0,1,.24.63c0,.12.13.3.18.3s0,0,0-.06a8.28,8.28,0,0,0,.08-1.08c0-.4,0-.88,0-1.13s.11-.47.11-.68a.25.25,0,0,0,0-.12,2.41,2.41,0,0,1,0-.55V6.67c0-.22.09-.38.09-.67a1.62,1.62,0,0,0,0-.21,2.63,2.63,0,0,1,0-.43c0-.43.05-.93.07-1.21s-.1-1.28-.11-1.59a5.34,5.34,0,0,1,0-.59,3.34,3.34,0,0,1,0-.5,2.85,2.85,0,0,1,.15-.89c.13-.28,0-.47.28-.56a.12.12,0,0,1,.08,0c.19,0,.33.3.37.58s-.08.62-.08,1,0,.59,0,.86a3.7,3.7,0,0,1,0,.55,2.33,2.33,0,0,0,0,.51c0,.34,0,.62,0,.85v.25c0,.2,0,.34,0,.56s0,2.21-.08,2.74,0,1.68-.08,2.08a3.37,3.37,0,0,0-.07.87c0,.14.07.36.07.59a4.27,4.27,0,0,1-.2,1c-.06.18-.16.29-.33.29h-.23a1,1,0,0,1-.61-.12,2.5,2.5,0,0,1-.48-.73c-.14-.26-.56-1.35-.7-1.65a13.47,13.47,0,0,1-.69-1.5c0-.21,0-.31-.11-.44a.67.67,0,0,1-.26-.41,10,10,0,0,0-.62-1.28c-.16-.31-.18-.76-.35-.93A1.47,1.47,0,0,1,26.52,5a2.33,2.33,0,0,1-.22-.65c0-.16-.11-.24-.22-.48a2.83,2.83,0,0,0-.24-.55c-.1-.12-.1-.44-.28-.44s-.24.16-.24.62c0,.75,0,1,0,1.41s.05.64.06.93a3,3,0,0,1-.08.76.76.76,0,0,0,0,.15c0,.14.05.25.05.45,0,.4-.18.8-.18,1.1a.66.66,0,0,0,0,.21,4.81,4.81,0,0,1,.15,1.12v.26c0,.25.07.6.07.8a4,4,0,0,1-.07.94c-.05.14,0,.35-.23.58s-.21.52-.34.52-.24-.12-.25-.7a7.77,7.77,0,0,1,.08-.83c0-.15,0-.24,0-.34s0-.25,0-.37a.42.42,0,0,0,0-.2,3,3,0,0,1,0-.76,1.94,1.94,0,0,1,0-.33,5,5,0,0,1,.05-.64c0-.26.06-.39.08-.58s0-.16,0-.3a10.74,10.74,0,0,0-.08-1.11,3.2,3.2,0,0,1-.05-.64c0-.32,0-.64.05-.85a2,2,0,0,1,.12-.68c0-.07.1-.12.1-.2a.4.4,0,0,0-.08-.2,1.52,1.52,0,0,1-.22-.92c0-.35,0-.88,0-1.28a7.76,7.76,0,0,0-.08-.86.86.86,0,0,1,0-.21C24.57.43,25,.26,25.18.24Z"/><path class="cls-1" d="M34.59.54c.2-.17.36-.46.54-.46s.43.35.54.7a2,2,0,0,1,.17.79,2,2,0,0,1,0,.32c-.06.59-.13,1.28-.18,1.9,0,.2,0,.34,0,.47v.91c0,.19,0,.35,0,1.17,0,.27-.08.59-.08.89a.68.68,0,0,0,0,.21c0,.35.09.93.09,1.12s.1,1.06.15,1.38a2.33,2.33,0,0,0,.4,1,3,3,0,0,0,.73.56,1.56,1.56,0,0,0,.68.26l.09,0c.26,0,.61-.46.71-.54a4.49,4.49,0,0,0,.46-.8c.11-.24,0-.22.11-.72a5.49,5.49,0,0,0,.26-1.25c0-.62.06-1.06.06-1.34a2.18,2.18,0,0,0,0-.28.34.34,0,0,1,0-.16c0-.22.05-.54.05-.73a.54.54,0,0,0,0-.11,3.25,3.25,0,0,1,0-.37V4.53c0-.3.16-.45.16-.56a3.66,3.66,0,0,1-.21-.83c0-.35.09-.6.09-1,0-.2,0-.5,0-.71a4.4,4.4,0,0,0,0-.48.94.94,0,0,1,.11-.49A.89.89,0,0,1,40,.05h.09c.09.08.15.2.15.63V.94a14.56,14.56,0,0,1-.09,1.62c0,.4-.16.66-.16,1a1.55,1.55,0,0,0,0,.21A1,1,0,0,1,40,4c0,.22,0,.41,0,.63a.93.93,0,0,0,0,.23,10.68,10.68,0,0,1,0,1.2,14.85,14.85,0,0,1-.07,1.62c-.08.72,0,1.12-.09,1.63a3,3,0,0,1-.36,1.25c-.17.29-.44,1-.7,1.07s-.32.16-.5.34a5.84,5.84,0,0,1-1,.51.67.67,0,0,1-.26,0,4.45,4.45,0,0,1-.72-.12,4.08,4.08,0,0,1-.85-.44,1.83,1.83,0,0,1-.69-.58,6.56,6.56,0,0,1-.48-1.25A5,5,0,0,1,34.12,9a2.33,2.33,0,0,1,0-.32,1.14,1.14,0,0,0,0-.36,4.73,4.73,0,0,0,0-.54A5.63,5.63,0,0,1,34,7a.78.78,0,0,1,0-.21c0-.4,0-2,.11-2.35a.75.75,0,0,0,0-.22c0-.29-.07-.61-.07-.79s0-.75,0-.89.09-.79.13-1.27S34.39.72,34.59.54Z"/><path class="cls-1" d="M47.92.61c0,.37.19.69.19,1.12,0,.19,0,.32,0,.45s-.09.44-.09.7,0,.9,0,1.44c0,.34,0,.66,0,.8a7.3,7.3,0,0,1,.09.88,2.91,2.91,0,0,1-.05.42,3.53,3.53,0,0,0,.05.57s-.05.9-.05,1.4c0,.33,0,.85,0,1.25a2.51,2.51,0,0,1,0,.44,1.94,1.94,0,0,0,0,.4c0,.23,0,.45,0,1.11a1.62,1.62,0,0,1,0,.22,1.84,1.84,0,0,1-.1.51,2,2,0,0,1-.51.42.72.72,0,0,1-.34.1.38.38,0,0,1-.17-.07.46.46,0,0,1-.15-.32c0-.13.08-.24.08-.4s-.08-.22-.09-.37,0-.35,0-.67,0-.67,0-.86a3.74,3.74,0,0,1-.05-.53.51.51,0,0,1,.05-.26.64.64,0,0,0,0-.3c0-.16,0-.32-.13-.32a.88.88,0,0,0-.41-.1l-.66,0c-.08,0-.11.07-.26.07a4.09,4.09,0,0,0-.81,0c-.15,0-.48,0-.48.26a1.78,1.78,0,0,0-.1.53c0,.16,0,.25,0,.33s-.1.29-.1.47,0,.24,0,.46a7.19,7.19,0,0,1,0,.72c0,.1-.1.35-.21.4s-.07.18-.15.32-.16.26-.29.26-.25-.18-.33-.29a1.22,1.22,0,0,1-.18-.61c0-.19,0-.45,0-.62s.05-.23.05-.39,0-.24,0-.32,0-.43,0-.76c0-.12,0-.21,0-.31a.18.18,0,0,0-.06-.16.46.46,0,0,1-.13-.37,1.35,1.35,0,0,1,.1-.46c0-.1,0-.53,0-.75,0-.64.05-1.27.05-1.94,0-.14,0-.46,0-.74a17.77,17.77,0,0,1,.44-2.33,2,2,0,0,1,.54-.8c.1-.1.24-.2.26-.34s.48-.45.69-.56a2.35,2.35,0,0,1,.54-.3c.13,0,.38-.13.59-.16a7.86,7.86,0,0,1,.83-.05c.21,0,.77-.15.88-.15S47.92.37,47.92.61ZM46.19.88a3.08,3.08,0,0,0-.74.1,1,1,0,0,0-.53.44,2.4,2.4,0,0,0-.27.53c0,.11-.19.48-.27.74a2.89,2.89,0,0,0-.08.7c0,.31,0,.44,0,.58s-.17.59-.17.94v.52c0,.62,0,1.53,0,1.76s0,.8,0,.94.07.11.2.11h.29c.43,0,.84,0,1.39,0h.38c.18,0,.23-.16.24-.3s0-.29,0-.5,0-.4,0-.48,0-.16,0-.29a3.23,3.23,0,0,1,0-.48,5.7,5.7,0,0,0-.08-.77c0-.22,0-.83-.07-1.24s.12-.8.12-1.22c0-.19-.07-.37-.07-.61s0-.27,0-.56,0-.74-.24-.85A1.29,1.29,0,0,0,46.19.88Z"/><path class="cls-1" d="M51.27.5a1,1,0,0,1,.5-.21c.19,0,.38.49.4.64a7,7,0,0,1,.15,1c0,.8,0,1,0,1.22,0,.35-.11.7-.11,1,0,.46,0,.65,0,.88s0,.57,0,1a3.77,3.77,0,0,1,0,.47C52.11,7.33,52,8,52,8.4s-.09,1.22-.09,1.46,0,.74,0,1,0,.26,0,.37,0,.22.09.27a2.59,2.59,0,0,0,.63.15c.37.08.77,0,1,.08a2,2,0,0,0,.27,0,.67.67,0,0,0,.35-.08,1.57,1.57,0,0,1,.69-.18c.22,0,.3.08.35.29,0,0,0,.05,0,.08s-.13.24-.36.32a7,7,0,0,1-.88.13l-.25,0c-.21,0-.4-.05-.64-.05s-.31,0-.39,0c-.25,0-.49,0-.91,0l-.43,0a.56.56,0,0,1-.24,0c-.19-.08-.59,0-.59-.37s0-.58,0-.88,0-.29,0-.4,0-.16,0-.26c0-.32,0-.75.06-1.09,0,0,0-.08,0-.12,0-.37.14-.55.14-.79s0-.21,0-.27,0-.39,0-.56,0-.11,0-.35c0-.42.05-1.25.05-1.75,0-.13,0-.22,0-.29s0-.16,0-.24a1.69,1.69,0,0,1,.13-.81,0,0,0,0,0,0,0c0-.07-.1-.21-.1-.32s.07-.4.07-.6a.47.47,0,0,0,0-.16,2.83,2.83,0,0,1-.06-.67c0-.11,0-.22,0-.35,0-.47.07-.95.07-1.14S51.11.62,51.27.5Z"/></svg>