<svg id="レイヤー_1" data-name="レイヤー 1" xmlns="http://www.w3.org/2000/svg" viewBox="0 0 55.63 65.27"><defs><style>.cls-1{fill:#333;}.cls-2{fill:#f4b0a9;}</style></defs><rect class="cls-1" y="23.55" width="55.63" height="41.73" rx="11.35"/><polygon class="cls-2" points="22.6 54.84 22.6 35.72 36.51 44.41 22.6 54.84"/><path class="cls-1" d="M7.22.36A.79.79,0,0,1,7.58.17c.16,0,.35.12.5.42a8.29,8.29,0,0,1,.68,1.63c.08.36.38,1.22.48,1.52s.11.31.11.34a4,4,0,0,0,.1,1c.11.33.15.19.28.59a1.41,1.41,0,0,1,.11.52.41.41,0,0,1,0,.09s.26.29.3.48.19.64.23.89.19.8.32,1.33.55,1.27.57,1.5a4.36,4.36,0,0,0,.21.85,2.12,2.12,0,0,0,.55-1c.13-.51.27-.95.3-1.2s.29-.55.31-.87a4.78,4.78,0,0,1,.17-1.07,6.29,6.29,0,0,1,.32-1c.08,0,.15-.7.25-.7s0-.12,0-.23a.3.3,0,0,0,0-.14,3.23,3.23,0,0,1,.21-.81,3,3,0,0,1,.32-.65,2.2,2.2,0,0,0,.15-.72,2.6,2.6,0,0,1,.17-.57,1.74,1.74,0,0,0,.25-.67c0-.05,0-.11,0-.15a3.41,3.41,0,0,0-.06-.38A.29.29,0,0,1,14.5.93a2.1,2.1,0,0,1,.68-.66l.06,0c.21,0,.44.36.55.78A4,4,0,0,1,16,2.24a3.29,3.29,0,0,0,.14,1.08,6.47,6.47,0,0,1,.11.86,5.94,5.94,0,0,1,.11,1.14c0,.63.1,1.31.1,1.84a2.65,2.65,0,0,1,0,.44,2.08,2.08,0,0,0,0,.3,2.49,2.49,0,0,0,.14.61c0,.25.15.23.15.68,0,.08,0,.19,0,.31a3.86,3.86,0,0,0,0,.47c0,.4,0,.69,0,1.24,0,.36.09.47.09.85s0,.67,0,.84v.44c0,.22.16.51.16.7s-.54.85-.82.85c-.08,0-.17-.05-.33-.17-.32-.24-.28-.45-.36-.8a3.69,3.69,0,0,1,0-.77c-.06-1.54-.21-2-.21-2.32v-.72A7,7,0,0,0,15,8.74a5.65,5.65,0,0,1-.07-1c0-.32,0-.61,0-.72s-.18-1.64-.18-2c0-.13,0-.27,0-.4s0-.26,0-.42,0-.78,0-.89-.33.87-.5,1.2-.36.4-.38.7a1.85,1.85,0,0,1-.11.78c-.13.27-.29.87-.4,1.2a11.58,11.58,0,0,1-.29,1.34c-.2.54-.39,1.05-.51,1.47a13.31,13.31,0,0,1-.34,1.35c-.15.38-.27.89-.38,1.17a.25.25,0,0,0,0,.12c0,.17.17.28.17.51v.46a.41.41,0,0,1-.23.41c-.32.25-.45.5-.72.5s-.53,0-.64-.76a22,22,0,0,0-.71-2.55c0-.11-.28-.7-.36-.89s-.09-.55-.17-.78S9.05,9.14,9,8.85a5.33,5.33,0,0,1-.26-1.08c0-.23,0-.32,0-.4a.18.18,0,0,0-.09-.17c-.19-.17-.06-.4-.21-.68s-.21-.95-.32-1.24a5.54,5.54,0,0,1-.19-1,5,5,0,0,0-.34-.84s0-.06-.06-.06S7.3,4,7.22,4.45a7.25,7.25,0,0,0-.11,1.34v.48a1.5,1.5,0,0,1,0,.4,4.42,4.42,0,0,0-.15.91c0,.36.06.61.06.8a5.07,5.07,0,0,1-.14,1.27,3.36,3.36,0,0,0-.13.74,1.32,1.32,0,0,0,0,.27v.21a1.61,1.61,0,0,1-.06.49c-.11.46-.2,1.08-.26,1.5s-.12.89-.15,1.37,0,.44-.19.65a.53.53,0,0,1-.33.17c-.09,0-.17-.06-.19-.21a2.41,2.41,0,0,1,0-.4,4,4,0,0,1,.11-.93,5.31,5.31,0,0,0,.09-1.07V12.2c0-.23.12-.63.12-1a.9.9,0,0,0,0-.23,1.1,1.1,0,0,1,0-.25c0-.26.1-.41.13-.74a6.74,6.74,0,0,0,.23-1,.47.47,0,0,0,0-.17.53.53,0,0,1,0-.19c0-.71.33-2.91.35-3.4s.11-.9.11-1.24.13-.85.15-1.25A16.05,16.05,0,0,1,6.88,1,1.11,1.11,0,0,1,7.22.36Z"/><path class="cls-1" d="M24.34.27a1.55,1.55,0,0,1,.91.24,8.06,8.06,0,0,1,.9,1c.15.29.26.63.39.86a2.35,2.35,0,0,1,.35,1C27,4.46,27,5.28,27,6a12.2,12.2,0,0,1-.13,1.84,16.29,16.29,0,0,1-.17,2,7.82,7.82,0,0,0-.33,1.33,5.2,5.2,0,0,1-1.06,2.26c-.57.65-.72.44-.89.67s-.19.28-.46.41a1.74,1.74,0,0,1-1.06.37,3.54,3.54,0,0,1-1.14-.35,3.67,3.67,0,0,1-1.07-.79,1.89,1.89,0,0,1-.51-.84,11.82,11.82,0,0,1-.44-1.1,10.16,10.16,0,0,0-.19-1.35,5.43,5.43,0,0,1-.17-1c0-.3-.05-.8-.05-1.22a1.91,1.91,0,0,1,.05-.57l.12-.38a4.93,4.93,0,0,1-.06-.7c0-.09,0-.17,0-.24a4.56,4.56,0,0,1,.23-.92,15.43,15.43,0,0,1,.43-1.69A3.67,3.67,0,0,1,21,2.28a4.7,4.7,0,0,1,1-.91,2,2,0,0,0,.68-.48,3,3,0,0,1,1.41-.6A1.32,1.32,0,0,1,24.34.27Zm-.72,1c-.13,0-.25-.06-.46-.06a.5.5,0,0,0-.4.16A6,6,0,0,0,22,2.55a6,6,0,0,0-.42,1.36,12.73,12.73,0,0,1-.23,1.43,3.56,3.56,0,0,0-.15,1.35,7.7,7.7,0,0,0,.11,1.25,9.37,9.37,0,0,0,.25,1.6,10.77,10.77,0,0,0,.23,1.36c.11.37.17,1,.23,1.14a3.35,3.35,0,0,0,.72,1c.36.28.47.72,1,.72a.94.94,0,0,0,.31-.06,1.41,1.41,0,0,0,.55-.51c.15-.21.25-.23.32-.23s.21-.43.27-.62.45-.71.49-.95,0-.31,0-.48a.58.58,0,0,1,.12-.43c.17-.18.26-.19.34-.78a6,6,0,0,0,0-.84,7.68,7.68,0,0,1,0-.82,4.38,4.38,0,0,0,0-.51c0-.23,0-.44,0-.64a2.61,2.61,0,0,1,0-.4c0-.42.12-.52.12-.76a.78.78,0,0,0,0-.21c-.06-.44-.14-1.64-.21-1.86a6.38,6.38,0,0,1-.31-.92.93.93,0,0,0-.45-.68c-.19-.17-.42-.59-.65-.76a1,1,0,0,0-.57-.17C23.94,1.16,23.81,1.31,23.62,1.31Z"/><path class="cls-1" d="M29.72.65c.13,0,.25-.17.36-.17s.15.05.23.22a7.51,7.51,0,0,1,.72,2,15.8,15.8,0,0,0,.63,2.26,8.24,8.24,0,0,1,.43,1.77,2.48,2.48,0,0,1,0,.38c0,.17,0,.32,0,.45a1,1,0,0,0,.12.53,4.43,4.43,0,0,1,.38,1.11c.09.43.3,1.42.43,2s.19,1.14.25,1.31a0,0,0,0,0,0,0c.09,0,.25-.49.28-.78s.19-.91.29-1.33a3.92,3.92,0,0,0,.25-1.18,4.39,4.39,0,0,1,.3-1c.11-.42.32-1.63.4-2a2.09,2.09,0,0,1,.4-.84.35.35,0,0,0,0-.17c0-.11,0-.27,0-.61a14.82,14.82,0,0,1,.47-1.92c.14-.43.27-.36.29-.45s0-.67,0-.86a3.34,3.34,0,0,1,.31-.78c.06-.09.06-.49.38-.51s.34.06.34.27a2.86,2.86,0,0,1-.11.6,11,11,0,0,0-.27,1.49,2.38,2.38,0,0,1-.4,1,15.68,15.68,0,0,1-.53,1.89c-.17.07-.19.37-.28.89s-.16.87-.35,1.63-.36,1.35-.49,2,0,1-.19,1.31a8,8,0,0,0-.36,1.24c-.15.47-.36.95-.42,1.16s-.11.74-.34.95a1.2,1.2,0,0,1-.69.4l-.07,0A1.78,1.78,0,0,1,32,13.64c0-.49-.84-2.47-.84-2.94a13.91,13.91,0,0,0-.38-2c-.09-.34-.34-1.56-.43-1.88S30.14,5.76,30,5.19s-.19-.78-.3-1.28a8.51,8.51,0,0,1-.34-1.23c0-.44-.29-1.12-.29-1.37S29.51.72,29.72.65Z"/><path class="cls-1" d="M40.11.63c.23-.14.27-.36.48-.42l.07,0c.19,0,.38.17.46.57a3.3,3.3,0,0,1,.13,1v.68a4.26,4.26,0,0,1-.07,1A5.66,5.66,0,0,0,41,4.65c0,.54,0,1.11,0,1.28s.06,1,.06,2.2c0,.67,0,1.54,0,2s0,.76,0,1a1,1,0,0,1,0,.34A2.24,2.24,0,0,0,41,12c0,.17,0,.34,0,.51s-.13.59-.13.76.06.32.06.44a.64.64,0,0,1,0,.26c-.08.27-.4.5-.68.73s-.29.28-.39.28c-.28,0-.28-.53-.28-.68v-.38c0-.5,0-1.1,0-1.43s.06-2.09.08-2.39,0-.32,0-.49c0-.56,0-.65,0-.76s.06-.38.06-.57-.06-.5-.08-.86v-.3a20,20,0,0,1,.06-2.15,2.61,2.61,0,0,0,0-.46c0-.19,0-.41,0-.64s.15-.63.15-.91-.12-.48-.12-.73.08-.64.1-.91S39.88.76,40.11.63Z"/><path class="cls-1" d="M44.41,1.31c0-.3,0-.47.2-.47.35,0,.5,0,.52-.08a.75.75,0,0,1,.53-.25A5.5,5.5,0,0,0,46.82.38,2.31,2.31,0,0,1,47.71.3h1.18c.23,0,.46.21.46.42s-.14.32-.33.5a1,1,0,0,1-.34.15c-.11,0-.17,0-.19-.1s-.15-.11-.38-.17a1.28,1.28,0,0,0-.3,0l-1,0a.45.45,0,0,0-.31.1c-.19.15-.34.19-.34.49s.19,1.27.19,2.24a3,3,0,0,1,0,.44c-.05.82-.07,1.12-.07,1.31s0,.38,0,.53,0,.27,0,.4,0,.23,0,.5c0,.07,0,.15,0,.24s0,.46,0,.65a.92.92,0,0,0,.15.64.64.64,0,0,0,.44.12c.6,0,.78,0,1,0a3.49,3.49,0,0,1,.57-.1c.4,0,.48.12.56.37a.37.37,0,0,1,0,.11c0,.15-.13.21-.47.23h-.57a4.91,4.91,0,0,0-.91,0,1.44,1.44,0,0,1-.38,0,.28.28,0,0,0-.25.09,1.51,1.51,0,0,0-.27.91c0,.52.06.9.06,1.26v.2c0,.37-.09.86-.09,1.16,0,.08,0,.14,0,.31s0,.26,0,.36a.38.38,0,0,0,0,.15,3,3,0,0,0,.88.11c.21,0,.45.06.68.06a.93.93,0,0,0,.25,0c.25-.07.49,0,.74-.22s.36-.23.51-.37a.47.47,0,0,1,.17-.07c.1,0,.18.09.19.28s.1.44.1.59a.23.23,0,0,1,0,.14,3,3,0,0,1-.74.26,2,2,0,0,1-.53,0,5.78,5.78,0,0,0-.88,0,1.86,1.86,0,0,1-.34,0c-.26,0-.53,0-.78,0a4.87,4.87,0,0,0-1.06,0,4.38,4.38,0,0,1-.46.07.31.31,0,0,1-.19,0c-.15-.07-.11-.34-.22-.64a.25.25,0,0,1,0-.12c0-.19.24-.17.24-.32a4.64,4.64,0,0,0-.09-.68,9.67,9.67,0,0,1-.1-1.29c0-.16,0-.29,0-.44s0-.53,0-.72a1.22,1.22,0,0,0,0-.46,1.73,1.73,0,0,1-.24-.61s0-.05,0-.07S44.5,9,44.5,9c0-.34-.08-.71-.08-1.07a1.89,1.89,0,0,1,.06-.47A5.55,5.55,0,0,0,44.58,6a3.94,3.94,0,0,0,0-.7,5.38,5.38,0,0,1-.06-1v-.4c0-.29,0-.74,0-1s0-.74,0-1.16Z"/></svg>