<svg id="レイヤー_1" data-name="レイヤー 1" xmlns="http://www.w3.org/2000/svg" viewBox="0 0 92.4 92.4"><defs><style>.cls-1{fill:#c6a385;}.cls-2{fill:#fff;}</style></defs><circle class="cls-1" cx="46.52" cy="46.2" r="46.2"/><path class="cls-2" d="M58.72,42.5v5a12.39,12.39,0,0,1-24.78,0v-5H30.29v5A16.06,16.06,0,0,0,44.51,63.39v7H39.83v3.25h13V70.36H48.16v-7A16.07,16.07,0,0,0,62.38,47.45v-5Z"/><path class="cls-2" d="M46.33,55.82a8.37,8.37,0,0,0,8.37-8.37V30.8A8.37,8.37,0,1,0,38,30.8V47.45A8.37,8.37,0,0,0,46.33,55.82Z"/></svg>