<svg xmlns="http://www.w3.org/2000/svg" viewBox="0 0 25.43 24.31"><g id="レイヤー_2" data-name="レイヤー 2"><g id="アイコン"><g id="LINE"><path id="パス_783" data-name="パス 783" d="M25.42,10h0C25.23,4.43,19.62,0,12.71,0S0,4.58,0,10.22C0,15.57,5.11,20,11.61,20.41a4.82,4.82,0,0,1,0,3.9S23.79,20.9,25.28,11.79a8.19,8.19,0,0,0,.15-1.57v-.15C25.43,10,25.42,10,25.42,10ZM8.29,13.55a.27.27,0,0,1-.28.27H5a.27.27,0,0,1-.27-.27h0V7.47A.27.27,0,0,1,5,7.19h.56a.27.27,0,0,1,.27.28h0v5.25H8a.27.27,0,0,1,.28.27h0Zm1.93,0a.27.27,0,0,1-.27.27H9.39a.27.27,0,0,1-.27-.27h0V7.47a.27.27,0,0,1,.27-.28H10a.27.27,0,0,1,.27.28h0Zm6.08,0a.27.27,0,0,1-.27.27h-.61a.26.26,0,0,1-.23-.13L12.43,9.36v4.19a.27.27,0,0,1-.28.27H11.6a.28.28,0,0,1-.28-.27h0V7.47a.28.28,0,0,1,.28-.28h.61a.28.28,0,0,1,.23.13l2.76,4.33V7.47a.27.27,0,0,1,.27-.28H16a.27.27,0,0,1,.27.28h0ZM21.55,8a.27.27,0,0,1-.27.27H18.5v1.85h2.78a.27.27,0,0,1,.27.28h0V11a.28.28,0,0,1-.27.28H18.5v1.49h2.78a.27.27,0,0,1,.27.28h0v.53a.27.27,0,0,1-.27.27H17.7a.28.28,0,0,1-.28-.27h0V7.48a.27.27,0,0,1,.28-.27h3.58a.27.27,0,0,1,.27.27h0Z"/></g></g></g></svg>