<svg id="レイヤー_1" data-name="レイヤー 1" xmlns="http://www.w3.org/2000/svg" viewBox="0 0 92.4 92.4"><defs><style>.cls-1{fill:#c6a385;}.cls-2{fill:#fff;}</style></defs><circle class="cls-1" cx="46.2" cy="46.2" r="46.2"/><path class="cls-2" d="M47.94,34.68a2,2,0,0,1-.27,1l5,5.73a1.94,1.94,0,0,1,.73-.14,2.09,2.09,0,0,1,.51.07l2-2.9a2.11,2.11,0,0,1-.38-1.19,2.06,2.06,0,0,1,4.11,0,1.92,1.92,0,0,1-.2.87l4.52,4.51a2,2,0,1,1-1.19,1.86,2,2,0,0,1,.2-.87L58.42,39.1a2.05,2.05,0,0,1-.86.2,1.77,1.77,0,0,1-.52-.08l-2,2.91a2,2,0,0,1,.38,1.18,2.06,2.06,0,1,1-4.11,0,2,2,0,0,1,.27-1l-5-5.73a2,2,0,0,1-.73.14,2.06,2.06,0,1,1,2-2Zm-19.1-.56a4,4,0,0,0,4.25-4.25V28.42a4,4,0,0,0-4.25-4.26,4,4,0,0,0-4.25,4.26v1.45A4,4,0,0,0,28.84,34.12Zm16.61,7.05-5.94,2.91-3.25-5.31c-1-1.56-2.19-2.77-3.95-2.77H25.84a5.33,5.33,0,0,0-5.18,5.48V57.26h3.5V74h3.39l2.09-15.22L31.74,74h3.38V45.86L38,49.17l9.06-5.6Zm26.4-13.6v-2.4H56.65V22.78h-3.2v2.39H38.26v2.4h1.6v14l.26.42,1.34-.65V27.57H68.65v24H41.46V48.91l-1.6,1v1.68h-1.6V54h16v6.3L48.79,70.74a1.56,1.56,0,1,0,1.46.66l4-7.68v7.84h1.6V63.91l3.94,7.54a1.54,1.54,0,0,0-.25.85,1.58,1.58,0,1,0,1.69-1.57L55.88,60.46V54h16v-2.4h-1.6v-24Z"/></svg>