<svg xmlns="http://www.w3.org/2000/svg" viewBox="0 0 24.32 19.91"><g id="レイヤー_2" data-name="レイヤー 2"><g id="アイコン"><g id="Icon_-_Twitter" data-name="Icon - Twitter"><path id="パス_779" data-name="パス 779" d="M12.18,6A4.93,4.93,0,0,1,15.37.3c2.49-1.13,5,1.29,5,1.29l3-1.22C23.45,1.68,21.28,3,21.28,3a10.45,10.45,0,0,0,3-.44c0,.44-2.61,2.61-2.61,2.61,0,10.42-7.81,14.76-14.33,14.76S0,17.31,0,17.31c5.21,0,7-2.17,7-2.17-1.3.86-4.34-3-4.34-3a5,5,0,0,0,2.6,0C2.61,11.66.87,6.88.87,6.88c.43.87,2.6.87,2.6.87A6.11,6.11,0,0,1,1.74.81C4.34,5.15,12.18,6,12.18,6Z"/></g></g></g></svg>