<svg id="レイヤー_1" data-name="レイヤー 1" xmlns="http://www.w3.org/2000/svg" viewBox="0 0 92.4 92.4"><defs><style>.cls-1{fill:#c6a385;}.cls-2{fill:#fff;}</style></defs><circle class="cls-1" cx="46.52" cy="46.2" r="46.2"/><path class="cls-2" d="M66,36.61l-.47,3.93L61.7,73.38H31.32L27,36.61h.53l4.34,0,.66,7.24,2.88,24.34h22.3l2.86-24.33.65-7.22,4.87,0v0Zm-27.1-7.49L28.3,25.23l1.09-3h0L42,26.78l1.91,17.29H57.5l-.24,2.23-2,19.25H37.77L35.5,44.07h5.14l-.17-1.48Zm3,25.51a1.85,1.85,0,1,0,1.85-1.84A1.84,1.84,0,0,0,41.9,54.63Zm7.36,5a1.38,1.38,0,1,0,1.38-1.37A1.38,1.38,0,0,0,49.26,59.59Zm3.27-11.15a2.44,2.44,0,1,0-2.44,2.44A2.44,2.44,0,0,0,52.53,48.44Z"/></svg>