<svg xmlns="http://www.w3.org/2000/svg" viewBox="0 0 29.58 19.65"><defs><style>.svg_news_icon1{fill:#f4b0a9;}</style></defs><g id="レイヤー_2" data-name="レイヤー 2"><g id="newslist"><path class="svg_news_icon1" d="M4,7H4a8.18,8.18,0,0,1-2.9-5.59A15.9,15.9,0,0,1,8.79.85,9.16,9.16,0,0,1,15,6.25c1.22-2.64,2.51-4.74,5.33-5.4a9.77,9.77,0,0,1,8.2,1.86,8.86,8.86,0,0,1-8.63,6.58c-1.12,0-2.43-.21-3.15.63a3.13,3.13,0,0,0-.52,1.93c-.07,1.63-.35,6.62-.35,6.62l-3.77.62s.39-10.22.27-10.22-3.49.87-5.24,0A11.07,11.07,0,0,1,4,7Z"/><path class="svg_news_icon1" d="M5,6.54A8.24,8.24,0,0,1,2.17,1.07l-1,.76c2.64-.65,5.45-1.17,8,0a8.62,8.62,0,0,1,4.63,4.73c.26.73,1.94,0,2.17-.45.71-1.54,1.55-3.28,3.05-4.23,1.66-1,4-.82,5.77-.19.63.23,2.32.8,2.45,1.54S26.51,5.1,26.15,5.6a7.48,7.48,0,0,1-4.51,3c-1.63.31-3.28-.22-4.85.51-1.39.65-1.63,1.79-1.7,3.21-.1,2.09-.22,4.18-.33,6.27L16,17.94l-3.77.62.92.38q.11-2.62.18-5.25c0-1.2.08-2.41.11-3.61,0-.44.17-1.22-.08-1.62s-.91-.12-1.14-.07a9.44,9.44,0,0,1-3,.29A8.12,8.12,0,0,1,5,6.54c-.53-.45-2.54.38-2,.81A9.21,9.21,0,0,0,8.14,9.79a14.38,14.38,0,0,0,4.33-.45l-1.14-.06c-.12-.19-.05.35-.05.46,0,.37,0,.74,0,1.11,0,1.14-.06,2.28-.1,3.42-.05,1.66-.11,3.32-.17,5,0,.44.6.43.91.37L15.67,19c.3-.05,1.22-.27,1.25-.69.07-1.33.15-2.66.22-4l.12-2.47a4,4,0,0,1,.2-1.51c.4-.76,1.27-.51,2-.5A10.33,10.33,0,0,0,29.57,2.56a.22.22,0,0,0-.07-.25A11,11,0,0,0,19.82.47c-3,.85-4.66,3.21-5.94,5.93L16.05,6A9.41,9.41,0,0,0,10.33.56C7.29-.5,4,.13,1,.89.63,1,0,1.22,0,1.65a8.65,8.65,0,0,0,3,5.7C3.48,7.82,5.51,7,5,6.54Z"/></g></g></svg>