<svg id="レイヤー_1" data-name="レイヤー 1" xmlns="http://www.w3.org/2000/svg" viewBox="0 0 92.4 92.4"><defs><style>.cls-1{fill:#c6a385;}.cls-2{fill:#fff;}</style></defs><circle class="cls-1" cx="46.2" cy="46.2" r="46.2"/><path class="cls-2" d="M62.47,34.81V39.4H31.67V34.81h5.64V24a1.36,1.36,0,0,1,1.36-1.35h2.16A1.36,1.36,0,0,1,42.18,24v10.8H52V24a1.35,1.35,0,0,1,1.35-1.35h2.16A1.35,1.35,0,0,1,56.83,24v10.8ZM31.67,47.18a13.67,13.67,0,0,0,8,12.44v3a2.59,2.59,0,0,0,2.58,2.58h9.58a2.59,2.59,0,0,0,2.59-2.58v-3a13.66,13.66,0,0,0,8-12.44V41.49H31.67ZM44.14,73.84H50V67.08H44.14Z"/></svg>