<svg id="見出し_テキスト" data-name="見出し＆テキスト" xmlns="http://www.w3.org/2000/svg" viewBox="0 0 196.89 100.84"><defs><style>.cls-1{fill:#f0908a;}</style></defs><path class="cls-1" d="M58.59,4.55s-2.48,0-5.6-.14c-.14,6.55-.42,20-.42,26.6L50,31.19C49.14,21.42,49,.31,49,.31,54.43,0,58.59,0,58.59,0ZM69,30.14s1.85-6.16,1.5-22H74.9v.45h1V8.16h4.41s0,1.5-.25,21.35c-3.36.38-6.16.49-6.16.49V26.15s.77,0,2.38.07l-.1-4.69H73.71C72,29.33,69,30.14,69,30.14ZM74,19.81h2.14c0-1.47,0-2.73-.07-3.88H74.55C74.41,17.36,74.24,18.66,74,19.81Zm.67-5.6h1.36c0-1.71-.06-3-.1-3.88H74.87C74.83,11.73,74.79,13,74.69,14.21Zm9.52-3.32a19.59,19.59,0,0,0-3.11-5.5s3.64-.94,6.75,4Zm9.52,1.85h4.1s0,1.75-.25,18.13H94.22c0-.38,0-.77,0-1.15h-9c0,.38,0,.77,0,1.15H81.8c-.35-14.91-.46-18.13-.46-18.13H85.4s0,1.54-.21,15.26h9C93.84,15.54,93.73,12.74,93.73,12.74Zm0,.84a26.33,26.33,0,0,1-2.13,5.18,16.52,16.52,0,0,1,2.13,2.52l-2.76,2a17,17,0,0,0-1.09-1.92A10.27,10.27,0,0,1,85.26,25a29.31,29.31,0,0,0,3.19-5.64,24.27,24.27,0,0,0-3-3.29,7.87,7.87,0,0,1,3.89,1.12A42.32,42.32,0,0,0,91,11.31ZM92.4,8.47l-3.74,1.3a19.24,19.24,0,0,0-2.73-5.68S89.64,3.36,92.4,8.47Zm2.7-5.39,3.85,1c-2.07,6.06-7.35,6.17-7.35,6.17A17.27,17.27,0,0,0,95.1,3.08ZM117.57,28.6h-3.92c-.49-9.45-.63-21.21-.63-21.21h4.9S117.92,18.2,117.57,28.6Zm7.45-7c-6.19,0-6.51-6.44-6.51-6.44A13,13,0,0,0,125,16.66Zm28.11-3.25s-.7,7.59-9.8,10.29h-4c-.49-9.45-.63-20.58-.63-20.58h4.9s0,7.21-.18,15.68A15.53,15.53,0,0,0,153.13,18.31Zm22.81,12.88c-5.39.31-9.55.31-9.55.31V27s2.48,0,5.6.1c.14-6.54.42-20,.42-26.6L175,.31C175.84,10.12,175.94,31.19,175.94,31.19ZM0,44.63s5.57,0,16.73.24c0,0,0,7.35-.31,17.71A162.72,162.72,0,0,1,0,62.65V58.14s4.45-.11,12.25.28c-.17-4.31-.28-8.09-.35-10.54C4.1,48.13,0,48.2,0,48.2ZM31.5,56.77s5.36.74,13.27,2.1l-.28,3.92c-7.28-.45-13.37-1.12-13.37-1.12Zm12.25-9.94S39.27,46.41,32,45.47l.07-2.21c8,.18,11.76.42,11.76.42Zm-11.3,5.88.14-2.24c8,.53,10.85.88,10.85.88l-.18,3.18Zm35.31,5.53c0-3,.14-5.84.21-7.84l-7.66.28v-3s2.52,0,11.86.21c0,0-.24,5-.77,10.43.81,0,1.68.07,2.56.07v3.33c-8.54.42-15.68.52-15.68.52V58.14S61.92,58.14,67.76,58.24Zm38,3.71c-9.45.49-17.36.63-17.36.63v-4.9s7,0,17.36.32Zm-1-17.11v4.9s-5.81-.14-15.26-.63v-4C99.82,44.84,104.72,44.84,104.72,44.84ZM120,47.67h14.77l1.4-1.36,1.37,1.36v1.4H132c-.42,14.25-9.66,14.53-9.66,14.53s4.48-4.1,4.76-14.53H120Zm1-3.78v-1.4h12.32l1.36-1.4,1.4,1.4v1.4Zm25.54,8.47a17.23,17.23,0,0,0,11.87-7.14l3.29,2.45a14,14,0,0,1-4.2,3.85c-.17,2-.45,6.48-.45,12.08h-2.28c-.6-4.41-.94-8.26-1.12-10.61A13.41,13.41,0,0,1,146.54,52.36Zm44,2.66c-.28-3.78-4-6.23-8.68-4.13-3.58,1.61-4,7.28-1.62,7.56,1.75.21,3.33-2.55,3.92-7l4.45.56c-.8,6.27-4.27,10.47-7.46,10.47-3.43,0-5.56-3.08-5.56-6.48a10.45,10.45,0,0,1,9.17-10.46,9.3,9.3,0,0,1,10.5,10.71c-.8,5.32-4.37,8-10.68,7.35C187.74,62.3,190.86,59.54,190.51,55ZM12.79,88.73a16.73,16.73,0,0,0,3.78-.7c-.07-2-.1-3.75-.1-5.22H13.39V81.1h3l-.1-4.41h4.44l0,4.34,1.33-1.33.91.91c.21-2.21.35-5,.35-8.19l3.81.31c-.07,1.4-.21,2.69-.38,3.85h.7v-.52h3.78c0,8.26-1.16,13.79-2.63,17.46a25,25,0,0,0,11.59,2.7v4.09c-6.79,0-10.71-1.89-13-4-2.48,4.13-5.25,4.52-5.25,4.52a27.92,27.92,0,0,0,3.12-7.28,8.41,8.41,0,0,1-1-3.12,14,14,0,0,0,1.5,1.26,60.08,60.08,0,0,0,1.82-13.4h-.94C25,85.68,22,87.5,22,87.5a37.36,37.36,0,0,0,.77-4.69h-2c0,1,0,2.24,0,3.57l1.33-.7a10.24,10.24,0,0,1-1.36,2.42c0,2.87-.07,6.33-.14,10.5-3.26.42-6,.52-6,.52V95.34s.7,0,2.17.07l-.11-3.78a14.31,14.31,0,0,1-2.87,1.16Zm27.69-1.26,2.83.7s-.52,2-1.68,5.84c0,0-1.78,0-5.14-.28-.18-9.06-.28-14-.32-16.45h-1c-.38,15.47-4.62,16.42-4.62,16.42S31.8,90,31.8,75h3.39v.57h1l0-.57h3.75s0,1.48-.14,14.36c.14,0,.28,0,.38,0Zm13.61,6,3.75,1.3c-2.31,6.51-7.35,5.14-7.35,5.14A19.1,19.1,0,0,0,54.09,93.52ZM67,92.05v-.63H60.18a4.43,4.43,0,0,0,0,.63H56.09c-.35-6.37-.46-10.71-.46-10.71h4.76v.53h1.19c-.31-5.64-.38-9.39-.38-9.39H66s0,1.06,0,3.12h2.45l1.4-1.4,1.37,1.4v1.72H65.89c0,1.26-.07,2.8-.14,4.55h1.43c0-.18,0-.35,0-.53h4.06c.35,6.37.45,10.71.45,10.71ZM64.1,99.89l-3.64.77a16.14,16.14,0,0,0-1.19-6.26S63.37,94.4,64.1,99.89ZM67,89.71c0-1.4.07-3.47.18-6.13H60.36c0,1.4,0,3.47-.14,6.13Zm3.36,9.62-3.6,1a16.73,16.73,0,0,0-1.58-6.16S69.21,93.87,70.33,99.33Zm6.34-1-3.22,1.89a20,20,0,0,0-3.4-6S74.18,93.35,76.67,98.32Zm9.69-19,4.9.49C88.67,90.86,90.6,98,90.6,98S84,96.85,86.36,79.35Zm19.88,12,.32,4.9s-1.89,1.33-8.79,1.33c-5.53,0-4.16-7.18-4.16-7.18a4.26,4.26,0,0,0,4.16,2.28C103.83,92.65,106.24,91.32,106.24,91.32ZM94.87,80.92a66.6,66.6,0,0,1,10.71.77L105,85.54a58.07,58.07,0,0,0-10.15-.77Zm24.85,8.75L118.25,85c8.29-2.87,16.06-2.63,18,3.43,2.1,6.47-4.79,9-4.79,9C134.73,93.21,132.91,85.72,119.72,89.67Zm36,7.49s-8.15.42-7-15.85l4.86.59C152.48,92.44,155.73,97.16,155.73,97.16Zm13-4.2-4.83.81a19.72,19.72,0,0,0-3.74-9S165.74,83.62,168.68,93Zm28.21-13.54c-4.93,7-11.27,13.4-2.9,19.18-12.92,0-10-10.29-3.15-15.19a48.73,48.73,0,0,1-10,1.33v-4.9C188.84,79.84,196.89,79.42,196.89,79.42Z"/></svg>