<svg id="レイヤー_1" data-name="レイヤー 1" xmlns="http://www.w3.org/2000/svg" viewBox="0 0 655.78 43.2"><defs><style>.cls-1{fill:#f0908a;}</style></defs><path class="cls-1" d="M13.11,6.24s-3.41,0-7.69-.19c-.19,9-.57,27.46-.57,36.48l-3.51.24C.14,29.38,0,.43,0,.43,7.39,0,13.11,0,13.11,0Zm4.36,35.09S20,32.88,19.53,11.19h6.1v.62H27v-.62h6.05s0,2.06-.33,29.28c-4.61.53-8.45.67-8.45.67V35.86s1.05,0,3.26.1l-.14-6.44H24C21.6,40.23,17.47,41.33,17.47,41.33Zm7-14.16h2.93c0-2-.05-3.74-.1-5.33H25.15Q24.87,24.8,24.43,27.17Zm.91-7.68h1.88c0-2.35-.1-4.08-.15-5.33H25.58C25.54,16.08,25.49,17.86,25.34,19.49ZM38.4,14.93a26.83,26.83,0,0,0-4.27-7.54s5-1.29,9.26,5.43Zm13.06,2.54h5.61s0,2.4-.33,24.87H52.13c0-.53-.05-1.06-.05-1.58H39.74c0,.52,0,1.05,0,1.58H35.09c-.48-20.45-.63-24.87-.63-24.87H40s0,2.12-.29,20.93H52C51.6,21.31,51.46,17.47,51.46,17.47Zm0,1.16a36.79,36.79,0,0,1-2.93,7.1,21.62,21.62,0,0,1,2.93,3.46l-3.79,2.69a26,26,0,0,0-1.49-2.65c-3.27,4.13-6.34,5-6.34,5a39.61,39.61,0,0,0,4.37-7.73A32.83,32.83,0,0,0,40.13,22a10.64,10.64,0,0,1,5.33,1.53,57.56,57.56,0,0,0,2.3-8Zm-1.83-7L44.5,13.39a26.41,26.41,0,0,0-3.75-7.77S45.84,4.61,49.63,11.62Zm3.7-7.4,5.28,1.4c-2.83,8.3-10.08,8.45-10.08,8.45A23.62,23.62,0,0,0,53.33,4.22Zm22.89,35H70.85c-.67-13-.87-29.09-.87-29.09H76.7S76.7,25,76.22,39.22Zm10.23-9.65c-8.5,0-8.93-8.83-8.93-8.83a17.74,17.74,0,0,0,8.93,2.11Zm30.62-4.46s-1,10.41-13.44,14.11H98.21c-.67-13-.87-28.23-.87-28.23h6.72s0,9.89-.24,21.51A21.2,21.2,0,0,0,117.07,25.11Zm20.5,17.66c-7.4.43-13.11.43-13.11.43V37s3.41,0,7.68.15c.19-9,.58-27.46.58-36.49l3.5-.24C137.42,13.87,137.57,42.77,137.57,42.77ZM158.11,13.2s7.63,0,22.95.34c0,0,0,10.08-.44,24.29a222.43,222.43,0,0,1-22.51.09V31.73s6.1-.14,16.8.38c-.24-5.9-.38-11.08-.48-14.44-10.7.33-16.32.43-16.32.43Zm41,16.66s7.35,1,18.19,2.88L217,38.12c-10-.63-18.34-1.54-18.34-1.54ZM216,16.23s-6.14-.58-16.08-1.88l.1-3c11,.24,16.13.58,16.13.58Zm-15.5,8.06.19-3.07c11,.72,14.88,1.2,14.88,1.2l-.24,4.37Zm48.19,7.59c.05-4.09.19-8,.29-10.76l-10.51.39V17.38s3.45,0,16.27.29c0,0-.34,6.86-1.06,14.3,1.11.05,2.31.1,3.51.1v4.56c-11.72.57-21.51.72-21.51.72V31.73S240.62,31.73,248.64,31.88ZM296.69,37c-13,.68-23.81.87-23.81.87V31.11s9.6,0,23.81.43Zm-1.44-23.47v6.72s-8-.19-20.93-.86V13.92C288.53,13.49,295.25,13.49,295.25,13.49Zm15.88,3.89h20.26l1.92-1.87,1.88,1.87V19.3h-7.64C327,38.84,314.3,39.22,314.3,39.22s6.15-5.62,6.53-19.92h-9.7Zm1.4-5.19V10.27h16.89l1.88-1.92,1.92,1.92v1.92Zm31.92,11.62s9.31-.48,16.27-9.79l4.51,3.36a19.3,19.3,0,0,1-5.76,5.28c-.24,2.69-.62,8.88-.62,16.56h-3.12c-.82-6-1.3-11.33-1.54-14.55A18.43,18.43,0,0,1,344.45,23.81Zm56.21,3.65c-.39-5.19-5.43-8.55-11.91-5.67-4.9,2.21-5.47,10-2.21,10.37,2.4.29,4.56-3.5,5.38-9.6l6.1.77c-1.11,8.59-5.86,14.35-10.23,14.35-4.7,0-7.63-4.22-7.63-8.88a14.35,14.35,0,0,1,12.58-14.35c9.55-1.2,15.5,7,14.4,14.69-1.11,7.3-6,11-14.64,10.08C396.86,37.44,401.14,33.65,400.66,27.46Zm21.11-1.78a22.68,22.68,0,0,0,5.19-1c-.1-2.73-.15-5.13-.15-7.15h-4.22V15.22h4.18l-.15-6.05h6.1l-.05,5.95,1.83-1.82,1.24,1.25c.29-3,.48-6.82.48-11.24l5.24.43c-.1,1.92-.29,3.7-.53,5.28h1V8.3h5.18c0,11.33-1.58,18.92-3.6,24A34.3,34.3,0,0,0,459.36,36v5.61c-9.31,0-14.69-2.59-17.81-5.47-3.41,5.66-7.2,6.19-7.2,6.19a38.17,38.17,0,0,0,4.27-10A11.66,11.66,0,0,1,437.28,28a21.38,21.38,0,0,0,2.06,1.73,82.71,82.71,0,0,0,2.5-18.38h-1.3c-2,10.13-6.19,12.62-6.19,12.62a50.73,50.73,0,0,0,1.06-6.43h-2.74c-.05,1.44-.05,3.07-.05,4.9l1.83-1a14.58,14.58,0,0,1-1.87,3.31c-.05,3.93-.1,8.69-.2,14.4-4.46.58-8.16.72-8.16.72V34.76s1,0,3,.09l-.14-5.18a20.1,20.1,0,0,1-3.94,1.58Zm38-1.73,3.88,1s-.72,2.79-2.3,8c0,0-2.45,0-7.06-.38-.24-12.44-.38-19.16-.43-22.57H452.5C452,31.2,446.16,32.5,446.16,32.5s1.68-5.09,1.68-25.64h4.66v.77h1.29l0-.77h5.13s0,2-.19,19.69c.19,0,.38-.05.53-.05Zm15.55,8.31L480.43,34c-3.17,8.92-10.08,7.05-10.08,7.05A26.35,26.35,0,0,0,475.3,32.26Zm17.66-2v-.86h-9.31a5,5,0,0,0,0,.86H478c-.48-8.73-.62-14.69-.62-14.69h6.53v.72h1.63C485.14,8.54,485,3.41,485,3.41h6.53s0,1.44-.05,4.27h3.36l1.92-1.92,1.87,1.92V10h-7.2c-.05,1.73-.09,3.84-.19,6.24h2c0-.24.05-.48.05-.72h5.56c.49,8.74.63,14.69.63,14.69ZM489,41l-5,1a22.26,22.26,0,0,0-1.63-8.59S488,33.46,489,41ZM493,27c.05-1.92.1-4.76.24-8.4h-9.31c0,1.92-.05,4.75-.19,8.4Zm4.61,13.2-4.95,1.39a22.68,22.68,0,0,0-2.16-8.45S496,32.74,497.57,40.23Zm8.69-1.39-4.42,2.59a27.39,27.39,0,0,0-4.65-8.21S502.85,32,506.26,38.84Zm8.25-26,6.72.67c-3.55,15.12-.91,24.91-.91,24.91S511.25,36.82,514.51,12.82Zm27.27,16.41.43,6.73s-2.59,1.82-12.05,1.82c-7.58,0-5.71-9.84-5.71-9.84s1.25,3.12,5.71,3.12C538.46,31.06,541.78,29.23,541.78,29.23ZM526.18,15A91.7,91.7,0,0,1,540.86,16l-.76,5.28a80.14,80.14,0,0,0-13.92-1Zm30,12-2-6.48c11.38-3.94,22-3.6,24.72,4.7,2.88,8.88-6.58,12.39-6.58,12.39C576.77,31.83,574.27,21.55,556.18,27Zm47.23,10.27s-11.19.58-9.56-21.74l6.68.81C598.94,30.77,603.41,37.25,603.41,37.25Zm17.76-5.76-6.63,1.11a27.05,27.05,0,0,0-5.13-12.39S617.14,18.67,621.17,31.49Zm34.61-18.58c-6.77,9.6-15.46,18.39-4,26.31-17.71,0-13.73-14.11-4.32-20.83a67.1,67.1,0,0,1-13.68,1.82V13.49C644.74,13.49,655.78,12.91,655.78,12.91Z"/></svg>