<svg id="レイヤー_1" data-name="レイヤー 1" xmlns="http://www.w3.org/2000/svg" viewBox="0 0 178.8 39.99"><defs><style>.cls-1{fill:#c6a385;}</style></defs><path class="cls-1" d="M0,13.63V11.28H12.63l1.92-1.92,1.92,1.92v2.35ZM16.13,36.29H9.55a2.87,2.87,0,0,1,0-.43H7.25v.43H1.68C1.15,30.29,1,26.21,1,26.21H7.58v.48H9.89a1.42,1.42,0,0,1,0-.48h5.52C16,32.21,16.13,36.29,16.13,36.29ZM1.92,8.59V6.24h8.79l1.92-1.92,1.92,1.92V8.59Zm0,10.08V16.32h8.79l1.92-1.92,1.92,1.92v2.35Zm0,2.69h8.79l1.92-1.92,1.92,1.92v2.35H1.92ZM9.79,29H7.54l-.15,4.47H9.6C9.65,32.35,9.7,30.87,9.79,29Zm23.09-17.9,5.19,1.34s-.72,2.79-2.35,8c0,0-2.89,0-8.41-.39L26.79,4.7H25.06C24,19.3,15,20.11,15,20.11s4.41-6.19,4.41-18.33H25.2c0,.19-.05.38-.05.57h1.54l-.05-.57h5.62s0,1.34-.24,12.38h.24C32.6,12.24,32.88,11.14,32.88,11.14Zm-11,22.46c-4.08-3.79-3.65-7.15-3.65-7.15a24.21,24.21,0,0,0,5.72,4.13A29.67,29.67,0,0,0,26.31,25h-9V22.61H33.65A19.81,19.81,0,0,1,28.8,32.69a37.55,37.55,0,0,0,4.56,1.25l-2.69,4.75A31.71,31.71,0,0,1,25,35.91a19.85,19.85,0,0,1-8.54,2.83A21.6,21.6,0,0,0,21.84,33.6ZM53.23,21.7h4.32c.48,12,.63,14.59.63,14.59h-6s0-1.39.29-14a14.65,14.65,0,0,1-6,2.45A39.67,39.67,0,0,0,55,6.24l6.39,2C59.62,15.36,56.3,19.39,53.23,21.7Zm25.88-4.61h4.61c.48,18.29.62,22.27.62,22.27C80.69,39.84,77,40,77,40V37.54H72l.1-5.47H70.56c0,2.11,0,4.51-.09,7.29H65.86l-.34-11.52c-2.45,6.87-6.19,6.87-6.19,6.87S61.87,30,61.87,11.86h16.8l1.92-1.92,1.93,1.92v2.35H67.63l-.14,2.88H70.8v1h8.26A6.18,6.18,0,0,0,79.11,17.09ZM78.48,6.24c.19,3.26.29,4.13.29,4.13H73.15s0-.53.15-4.13H70c0,1.15-.09,2.5-.19,4.13H65.28c-.14-1.63-.19-3-.29-4.13H61.87V3.89h3L64.61.58h5.62s0,.43-.15,3.31h3.31c0-1,0-2.07.1-3.31H78.1c.09,1.24.14,2.35.19,3.31h.38L80.59,2l1.93,1.92V6.24Zm-6.29,20H70.66c0,1.06,0,2.21,0,3.5H72.1C72.15,28.66,72.15,27.51,72.19,26.21Zm.1-5.81H70.75c0,.87,0,2,0,3.46h1.53C72.24,22.8,72.29,21.65,72.29,20.4Zm6.77,0H77l.14,3.46H79C79,22.8,79,21.6,79.06,20.4ZM79,26.21H77.19c0,1.3,0,2.45.09,3.5h1.59C78.91,28.66,78.91,27.51,79,26.21Zm-.09,5.86H77.38c.05,1.24.05,2.25.09,3,.29,0,.72,0,1.35,0C78.82,34.28,78.82,33.27,78.87,32.07ZM97.73,21.46V19.11h30.82l1.92-1.92,1.92,1.92v2.35ZM154.22,1.58v.34h6.15L162.29,0l1.92,1.92V4.27H159.7c0,.48,0,1.11-.1,2h4c.48,5.67.62,6.91.62,6.91h-4.46l-.15,2.36h.77l1.92-1.88,1.92,1.88v2.35H153.89v.33h-4.61c-.48-13.63-.62-16.61-.62-16.61ZM155,32.69H152.5c-.53-8.16-.67-13.78-.67-13.78h6.57v.48h9.36v-.48h5.57c.38,6.1.58,10.8.63,12.77l4.84,1s-.67,2.12-2.3,6.1c0,0-4,0-11.71-.24-.44-3.46-.63-6-.68-6.62h-2.06c-1.78,7.82-12.82,7.43-12.82,7.43S153.55,36.87,155,32.69Zm.43-17.18c-.14-1.16-.19-2-.28-2.6H154c0,.82,0,1.68,0,2.6ZM159.31,9h-5.18a15.65,15.65,0,0,0,0,1.58h5.14C159.27,10.13,159.27,9.6,159.31,9Zm-5.09-4.71c0,.63,0,1.39,0,2.35h1.24l-.23-2.35Zm3.94,25.2h9.31v-1h-9.26A6.7,6.7,0,0,0,158.16,29.47Zm.1-3.36h9.31v-1h-9.26A6.7,6.7,0,0,0,158.26,26.11Zm.09-3.36h9.32v-1h-9.32Zm13.3-19.53a26.49,26.49,0,0,1-1.49,4h3.6l1.92-1.92L177.6,7.2V9.55h-8.69c-2.25,3.51-4.32,3.75-4.32,3.75A56.76,56.76,0,0,0,166,2Zm2.11,10.37,1.92-1.92,1.92,1.92v2.35H166.71V13.59ZM169.63,34l3.41-.15.29-1.15h-3.65C169.68,33,169.68,33.46,169.63,34Z"/></svg>