<svg id="レイヤー_1" data-name="レイヤー 1" xmlns="http://www.w3.org/2000/svg" viewBox="0 0 358.41 55.56"><defs><style>.cls-1{fill:#fff;}</style></defs><path class="cls-1" d="M.1,28.36l23,26.5c.59.68,3.36-.34,2.71-1.09l-23-26.5c-.59-.68-3.35.34-2.7,1.09Z"/><path class="cls-1" d="M355.6,28.35,332.69,54.81c-.45.52.39.74.76.75a2.57,2.57,0,0,0,1.92-.76l22.91-26.46c.45-.53-.39-.74-.76-.75a2.58,2.58,0,0,0-1.92.76Z"/><path class="cls-1" d="M33.27,31.27l.92-.55.35-.21.23-.13c-.13.07-.12.07,0,0l1.69-.94c1.16-.63,2.34-1.22,3.53-1.79.47-.23,1.14-.84.7-1.4s-1.41-.42-1.95-.17c-2.53,1.21-5,2.56-7.38,4-.48.29-.77,1.06-.19,1.4a2.08,2.08,0,0,0,2.07-.2Z"/><path class="cls-1" d="M32.54,25.4,36.45,35c.64,1.57,1.32,3.13,1.92,4.71.25.64,1.08,2.75.1,3.17s-2-1.38-2.19-2.08a4.16,4.16,0,0,1,1.13-3.65,8.84,8.84,0,0,1,3.52-2.19c1.1-.43,2.56-1,3.74-.56s1.82,2.23,1.92,3.52a4.87,4.87,0,0,1-.16,1.7,2.39,2.39,0,0,1-.33.77c-.13.19-.39.27-.13.23-.63.1-1.51.43-1.59,1.18s.76,1,1.34,1c4-.57,4.6-5.2,3-8.25-2.16-4-7.8-2.13-10.89-.42a8.82,8.82,0,0,0-4.15,4.31,5,5,0,0,0,.76,5.14,4.57,4.57,0,0,0,5.36,1.05c1.94-1,2.35-2.92,1.77-4.85-.73-2.46-1.93-4.85-2.9-7.22l-3.21-7.87c-.53-1.3-3.41-.48-2.9.78Z"/><path class="cls-1" d="M41.53,20.51l3.22,4.14c.14.17.59.18.77.18a3.36,3.36,0,0,0,1.13-.24c.34-.15,1.18-.54.81-1l-3.22-4.14c-.14-.18-.59-.19-.77-.19a3.36,3.36,0,0,0-1.13.24c-.34.15-1.18.54-.81,1Z"/><path class="cls-1" d="M62.08,9.79l-4.16,5.35c-.13.17-.38.49-.26.73a55.16,55.16,0,0,1,3.87,11c.27,1.19,3.18.44,2.89-.78a54.2,54.2,0,0,0-3.86-11l-.26.73,4.16-5.36c1.09-1.41-1.66-1.6-2.38-.68Z"/><path class="cls-1" d="M60.89,18.08q4.83-2.29,9.78-4.3L68.4,14l1.7,8.77c.1.55,3-.12,2.89-.78l-1.7-8.77c-.11-.57-2,.13-2.27.23q-5,2-9.78,4.3c-.25.12-1,.53-.37.7a3.39,3.39,0,0,0,2-.38Z"/><path class="cls-1" d="M63.42,20.92l5.77-1.55a2.45,2.45,0,0,0,1-.46c.14-.12.36-.34.3-.56-.15-.55-1.28-.34-1.62-.25l-5.78,1.55a2.71,2.71,0,0,0-1,.46c-.15.12-.36.34-.3.56.14.56,1.28.34,1.62.25Z"/><path class="cls-1" d="M63.38,26.64l8-4.2a1.39,1.39,0,0,0,.84-.94.81.81,0,0,0-.63-.84l-1-.36a2,2,0,0,0-2,.55A.8.8,0,0,0,69,22.21l1,.36.21-1.78-8,4.19c-.5.26-1.13.87-.69,1.46a1.68,1.68,0,0,0,2,.2Z"/><path class="cls-1" d="M52.62,22.31l3.6.81a2.64,2.64,0,0,0,.93,0,3.92,3.92,0,0,0,1.1-.35c.2-.1.51-.23.59-.45S58.76,22,58.6,22L55,21.17a2.37,2.37,0,0,0-.92,0,4.34,4.34,0,0,0-1.11.35c-.19.1-.5.24-.59.46s.08.28.25.32Z"/><path class="cls-1" d="M57.09,30.2l3.65-5.42c.12-.18-.14-.32-.25-.35a2.09,2.09,0,0,0-.93,0,2.51,2.51,0,0,0-1.68.83l-3.66,5.42c-.12.18.14.31.25.35a2.09,2.09,0,0,0,.93,0,2.56,2.56,0,0,0,1.69-.83Z"/><path class="cls-1" d="M75.38,9.7l-3.7,7.91c-.15.33.34.47.54.51q3.39.75,6.81,1.35a2.76,2.76,0,0,0,2-.55c.46-.37.34-.78-.24-.89q-3.42-.6-6.81-1.35l.54.52,3.7-7.92c.26-.56-1-.54-1.22-.5a2.2,2.2,0,0,0-1.67.92Z"/><path class="cls-1" d="M62.31,32.34c-.68-.07-2.32.16-2.54,1s1.51.6,1.92.5a41.13,41.13,0,0,0,5.38-2,74.13,74.13,0,0,0,10.4-5.28c.5-.3.31-.67-.2-.74a3.47,3.47,0,0,0-2,.55,66,66,0,0,1-6.85,3.64c-1.15.54-2.32,1-3.51,1.49-.6.24-1.21.47-1.82.69l-.79.28-.53.18c-.57.17-.34.16.71,0l.27.21-.09,0-2.24.72h.09a3.21,3.21,0,0,0,2-.55c.44-.34.39-.68-.2-.74Z"/><path class="cls-1" d="M65.83,25.71l5.65,16.74c.4,1.21,3.29.4,2.89-.78L68.73,24.93c-.41-1.21-3.29-.4-2.9.78Z"/><path class="cls-1" d="M68,32.8a47.05,47.05,0,0,1-6.89,7.9A.72.72,0,0,0,61.4,42a2.26,2.26,0,0,0,2.05-.55A49.94,49.94,0,0,0,70.7,33c.41-.58-.34-1-.84-1.07a2.1,2.1,0,0,0-1.9.85Z"/><path class="cls-1" d="M69.35,32.08a32.51,32.51,0,0,0,11.11,3.39,3,3,0,0,0,2.05-.55c.44-.35.37-.76-.23-.83a31.07,31.07,0,0,1-10.59-3.27,2.6,2.6,0,0,0-2,.33c-.39.21-.88.64-.3.93Z"/><path class="cls-1" d="M86.26,14.18a25.12,25.12,0,0,0,2.8,15.05,4.93,4.93,0,0,0,2.31,2.31A4.05,4.05,0,0,0,95,31.15a11.25,11.25,0,0,0,4.46-5.7c.56-1.48-2.33-1.32-2.74-.23a11.16,11.16,0,0,1-3.18,4.52c-.35.32-.22.1-.1.11a.83.83,0,0,1-.32-.17,3.46,3.46,0,0,1-.89-.94,13.28,13.28,0,0,1-1.33-2.6,24.37,24.37,0,0,1-1.67-12.23c.16-1.36-2.78-.92-2.92.27Z"/><path class="cls-1" d="M104.06,15.23l5.46-2.62-2.31.1a42.73,42.73,0,0,1,1.6,9.72,4.64,4.64,0,0,1-1.36,3.88c-.12.06-.07.07.13,0a.82.82,0,0,1-.34-.09,2.38,2.38,0,0,1-.6-.44,2.46,2.46,0,0,1-.5-1.76,3.67,3.67,0,0,1,2.19-2.9c1.38-.72,2.89-1.25,4.32-1.84l9.86-4.07c.31-.13,1.19-.51.83-1s-1.53-.06-1.89.09l-9.86,4.07c-2.53,1-6.07,1.94-7.69,4.35-1.4,2.08-.46,4.89,2.24,4.9a5.28,5.28,0,0,0,5.52-4.76,22.06,22.06,0,0,0-.36-5.19,51.51,51.51,0,0,0-1.19-5.78c-.19-.73-2-.07-2.31.1l-5.46,2.62c-.42.2-.83.6-.32.9s1.57-.11,2-.33Z"/><path class="cls-1" d="M114.45,11.2a27,27,0,0,1,.66,15.33c-.18.72.83,1,1.35,1a1.68,1.68,0,0,0,1.59-1.2,28.27,28.27,0,0,0-.7-15.91c-.47-1.36-3.36-.57-2.9.78Z"/><path class="cls-1" d="M129,9.91a34.12,34.12,0,0,0,4.25,13.46c.44.79,2.35.12,2.78-.43A17.32,17.32,0,0,0,138.63,18c.26-.78-2.59-.42-2.88.43A15.66,15.66,0,0,1,133.31,23l2.78-.42a34.06,34.06,0,0,1-4.24-13.46c-.08-.76-3-.17-2.9.78Z"/><path class="cls-1" d="M141.26,7.71l6.07,12.38c.39.78,3.18-.2,2.9-.78L144.16,6.94c-.38-.78-3.18.2-2.9.77Z"/><path class="cls-1" d="M157.6,13.44a98.93,98.93,0,0,0,10.57-2.77c.43-.14,1.4-.5,1.25-1.12s-1.27-.47-1.64-.35A99,99,0,0,1,157.21,12c-.45.09-1.39.52-1.25,1.12s1.25.42,1.64.34Z"/><path class="cls-1" d="M161.72,7.45a84.31,84.31,0,0,0-2.86,19.73c0,.44,2.88.07,2.9-.78a82.62,82.62,0,0,1,2.82-19.46c.16-.59-2.66-.22-2.86.51Z"/><path class="cls-1" d="M168.41,17l3-1.06-1.93.12,0,1c0,.16.46.16.5.16A3.72,3.72,0,0,0,171,17a3.9,3.9,0,0,0,1-.38c.14-.09.35-.19.35-.39l0-1a.31.31,0,0,0-.25-.14,1.78,1.78,0,0,0-.4,0,4.3,4.3,0,0,0-1.28.27l-3,1.06a2.6,2.6,0,0,0-.82.4c-.09.08-.23.24-.06.34a1.36,1.36,0,0,0,.72.05,6,6,0,0,0,1.13-.26Z"/><path class="cls-1" d="M166.16,26.58a11.18,11.18,0,0,0,9.11-.34c.23-.1,1-.55.37-.69a3.64,3.64,0,0,0-2,.38c-.05,0-.51.2-.2.09a2.19,2.19,0,0,1-.33.12c.37-.07,0,0-.07,0s-.15,0,0,0l-.23,0c-.07,0-.41.07-.1,0l-.35,0h-.28a2,2,0,0,1-.35,0,7.44,7.44,0,0,1-2.86-.65,2.68,2.68,0,0,0-1.86.19c-.11,0-1.3.58-.88.77Z"/><path class="cls-1" d="M177.94,13.39a53.32,53.32,0,0,0,12.35-2.69c.54-.2,1.38-.65,1.18-1.37s-1.17-.77-1.71-.58A49.68,49.68,0,0,1,178.2,11.3c-.62.06-1.51.44-1.6,1.16s.78,1,1.34.93Z"/><path class="cls-1" d="M182.8,7.37l-3.21,18.87c-.21,1.23,2.73.77,2.91-.32l3.21-18.87c.21-1.23-2.73-.77-2.91.32Z"/><path class="cls-1" d="M189.78,18.76c-.33.25-.05,0,0,0l.24-.15c.05,0,.33-.18.08-.05s0,0,.09,0l.26-.11c.36-.15-.3.08-.05,0l.48-.13c.25-.06-.43.07-.05,0l.21,0,.28,0c.24,0-.39,0,0,0a4,4,0,0,1,.49,0h0l.28.06a2.46,2.46,0,0,0,1.08-.05,2.37,2.37,0,0,0,1-.5c.15-.17.36-.41.27-.66a.7.7,0,0,0-.57-.43,7.88,7.88,0,0,0-6.42,1.53.75.75,0,0,0-.28.66.73.73,0,0,0,.57.43,2.53,2.53,0,0,0,2.05-.54Z"/><path class="cls-1" d="M187.7,27a14.89,14.89,0,0,0,9.49.06c.48-.16,1.4-.57,1.23-1.24s-1.22-.61-1.68-.45-.67.21-1,.29l-.44.1h0l-.29.05c-.3,0-.6.08-.9.1s-.4,0-.6,0h-.23a11.44,11.44,0,0,1-3.79-.69,2.19,2.19,0,0,0-2.05.55c-.47.48-.27,1,.32,1.19Z"/><path class="cls-1" d="M194.78,4a20.59,20.59,0,0,0,.94,6.93c.16.51,1.25.28,1.6.18a3,3,0,0,0,1-.44c.14-.11.38-.31.32-.52a20.34,20.34,0,0,1-.94-6.93c0-.63-2.87-.2-2.9.78Z"/><path class="cls-1" d="M202,1.16a26.69,26.69,0,0,0,1.1,7.53c.2.67,1.14.74,1.71.57s1.39-.66,1.19-1.35a24.73,24.73,0,0,1-1.07-7c0-.69-.71-1-1.33-.91S202,.45,202,1.16Z"/><path class="cls-1" d="M210.3,5.87a52.45,52.45,0,0,0-2.37,16.74c0,1.18,1.74,1,2.41.48a34.92,34.92,0,0,0,3.36-2.83.77.77,0,0,0-.36-1.32,2.12,2.12,0,0,0-2.05.55,28.17,28.17,0,0,1-2.84,2.38l2.41.48a52.43,52.43,0,0,1,2.37-16.73c.21-.69-.88-.92-1.32-.88a1.77,1.77,0,0,0-1.61,1.13Z"/><path class="cls-1" d="M217.76,14a42.47,42.47,0,0,0,9.14-.81c.44-.09,1.4-.56,1.24-1.15s-1.23-.45-1.65-.37l-.24.05-.56.1-1,.14c-.67.1-1.34.17-2,.23a34.8,34.8,0,0,1-3.84.12,2.24,2.24,0,0,0-1.91.8c-.37.58.3.88.79.89Z"/><path class="cls-1" d="M221.33,8.66a20.54,20.54,0,0,1-1.87,13.69c-.67,1.28,2.24,1,2.71.12a21.71,21.71,0,0,0,2.05-14.59c-.22-1.07-3.13-.34-2.89.78Z"/><path class="cls-1" d="M234,10.34l12.33-.75a3.18,3.18,0,0,0,1.94-.69c.43-.46-.39-.47-.68-.45l-12.32.75a3.24,3.24,0,0,0-1.95.69c-.43.47.39.47.68.45Z"/><path class="cls-1" d="M233.34,17.81a125.08,125.08,0,0,1,12.7-.29,2.45,2.45,0,0,0,1.92-.76c.37-.56-.33-.74-.76-.75a133.54,133.54,0,0,0-13.42.34c-.48,0-1.55.36-1.66.93s.88.56,1.22.53Z"/><path class="cls-1" d="M239.57,6.33a55.52,55.52,0,0,1-3.45,17.57,6.93,6.93,0,0,1-.77,1.51c-.17.25-.39.43-.57.65s-.27.19,0,.07l-.27-.15a1.34,1.34,0,0,1-.16-1.6c.31-.52.79-.41,1.33-.39,3.23.15,6.47.49,9.7.73a2.84,2.84,0,0,0,2-.55c.39-.35.4-.85-.25-.9-3.48-.26-7-.67-10.49-.78a6.82,6.82,0,0,0-4.14,1.05,2.62,2.62,0,0,0-1.22,2.85c.46,1.18,1.93,1.35,3,1.2a5.51,5.51,0,0,0,3.54-2,11.07,11.07,0,0,0,1.65-3.55q.78-2.36,1.37-4.79a60.46,60.46,0,0,0,1.58-11.36c.05-1.07-2.84-.46-2.88.41Z"/><path class="cls-1" d="M259,10.27a39,39,0,0,0-1.78,6,14.41,14.41,0,0,0-.54,5.49,3.63,3.63,0,0,0,3.7,2.84A9.07,9.07,0,0,0,266,22.26c.43-.33.81-.91.21-1.29a2.12,2.12,0,0,0-2.06.23c-.86.66-2,1.74-3.15,1.49-1.39-.3-1.57-1.94-1.47-3.1A35.13,35.13,0,0,1,261.9,10c.25-.66-.92-.8-1.29-.76A1.85,1.85,0,0,0,259,10.27Z"/><path class="cls-1" d="M274,14.72a122.49,122.49,0,0,0,13.67,1.13,3.75,3.75,0,0,0,2-.55c.44-.29.42-.58-.15-.59a120.73,120.73,0,0,1-13.17-1.08,3.66,3.66,0,0,0-2,.38c-.2.09-1,.62-.36.71Z"/><path class="cls-1" d="M281.44,11.84a193.58,193.58,0,0,0-8,17.78c-.6,1.54,2.31,1.5,2.77.32a192.3,192.3,0,0,1,7.95-17.78c.74-1.45-2.19-1.44-2.76-.32Z"/><path class="cls-1" d="M285.82,23.09l1.8-.25.89-.12.22,0c.06,0,.33,0,0,0s-.16,0-.06,0h-.17l-.11,0,.11,0-.18-.08a.49.49,0,0,1,.14.11l-.09-.12a.38.38,0,0,1,.07.25l0-.15a.58.58,0,0,1-.06.17l.11-.17c-.12.15,0,.07.37-.24l.71-.27h0l.75-.13h0a4.38,4.38,0,0,0-1.13.24,2.19,2.19,0,0,0-.8.48c-.1.12-.21.3,0,.44a1.22,1.22,0,0,0,.75.13,4.29,4.29,0,0,0,1.37-.33,2.11,2.11,0,0,0,.72-.46.7.7,0,0,0,.19-.62.73.73,0,0,0-.5-.48,2.89,2.89,0,0,0-1.24-.07c-1.11.13-2.22.3-3.32.46a3.59,3.59,0,0,0-1.11.35c-.15.08-.53.28-.58.49-.13.55.94.4,1.19.37Z"/><path class="cls-1" d="M283.12,31.7a21.11,21.11,0,0,0,7.82,1.8A3.54,3.54,0,0,0,293,33c.13-.1.38-.27.33-.47s-.37-.23-.52-.24a19.64,19.64,0,0,1-7.31-1.71,2,2,0,0,0-.93,0,3.92,3.92,0,0,0-1.1.35c-.34.18-.92.56-.34.82Z"/><path class="cls-1" d="M297.72,26.47l6.06.68a7.48,7.48,0,0,1,2.49.42,2,2,0,0,1,.83,2.06A15.67,15.67,0,0,1,303.2,39l2.68-.6a3.32,3.32,0,0,1-1.35-2.17c-.11-.6-3,.06-2.9.78a3.72,3.72,0,0,0,1.52,2.37c.57.41,2.25-.11,2.68-.6A16.15,16.15,0,0,0,310,28.66a2.17,2.17,0,0,0-1-2.08,7.61,7.61,0,0,0-2.71-.54l-6.69-.75a3.45,3.45,0,0,0-2.05.55c-.47.32-.38.57.17.63Z"/><path class="cls-1" d="M306.13,21.44A139.21,139.21,0,0,1,296,33.77c-.41.45-.33.95.3,1.11a2.3,2.3,0,0,0,2-.55,142.94,142.94,0,0,0,10.52-12.77c.41-.56-.36-.91-.81-.93a2.28,2.28,0,0,0-1.91.81Z"/><path class="cls-1" d="M314,25.58a51.34,51.34,0,0,0,.18,8.59c0,.25.39.41.58.47a2.12,2.12,0,0,0,1.09,0c.55-.16,1.3-.53,1.23-1.21a47.87,47.87,0,0,1-.16-8.12c0-.67-.77-.81-1.29-.75s-1.58.39-1.63,1.06Z"/><path class="cls-1" d="M328.31,23.42a1.78,1.78,0,0,1,1.77,0A8.93,8.93,0,0,1,332.63,25c.65.55,1.38,1.23,1.22,2.16a2.36,2.36,0,0,1-1.66,1.69c-1,.37-2.06.57-3,1a7.47,7.47,0,0,0-2.43,1.81,15.34,15.34,0,0,0-2.63,5.21c-.22.65.91.74,1.27.7a1.9,1.9,0,0,0,1.64-1c.63-1.84,1.37-4.24,3.16-5.28a27.25,27.25,0,0,1,3.42-1.22,5.63,5.63,0,0,0,2.8-2.29c1.29-2.33-1-4.15-2.85-5.22-2.15-1.26-4.92-1.66-7.06-.11-.41.3-.83.85-.23,1.21a2.2,2.2,0,0,0,2.06-.25Z"/><path class="cls-1" d="M322,44.31a2.79,2.79,0,0,0,.5,0,3.33,3.33,0,0,0,.54-.07A5,5,0,0,0,324,44a4.75,4.75,0,0,0,.75-.37l.25-.19a1.7,1.7,0,0,0,.24-.22,1.57,1.57,0,0,0,.29-.52l-2.88.63-.1,1.33,2.9-.78a2.09,2.09,0,0,1-.32-1.36l0,.16a1.75,1.75,0,0,1,.06-.33l-2.88.62a1.58,1.58,0,0,1,0,.53l0-.15a1.77,1.77,0,0,1-.29.76l.11-.16-.06.08a.31.31,0,0,0-.12.24.16.16,0,0,0,.08.2.57.57,0,0,0,.31.1,1.29,1.29,0,0,0,.44,0,4,4,0,0,0,1.13-.25l.33-.14a1.73,1.73,0,0,0,.47-.33,1.93,1.93,0,0,0,.43-.81,2,2,0,0,0,0-.87A.27.27,0,0,0,325,42a.6.6,0,0,0-.35-.08,3.21,3.21,0,0,0-.87.08,3.31,3.31,0,0,0-.9.31l-.27.16a.89.89,0,0,0-.32.32,2.37,2.37,0,0,0,.25,1.84.24.24,0,0,0,.18.16.67.67,0,0,0,.34.09,2.79,2.79,0,0,0,.5,0,2.87,2.87,0,0,0,.57-.11,2.94,2.94,0,0,0,1-.42l.2-.17a.34.34,0,0,0,.13-.31l.1-1.33a.23.23,0,0,0-.18-.16.67.67,0,0,0-.34-.09,3.14,3.14,0,0,0-.87.08,3.62,3.62,0,0,0-.91.31l-.27.16a.76.76,0,0,0-.31.33,1.11,1.11,0,0,1-.14.29l.11-.17a.91.91,0,0,1-.18.21l.2-.17-.15.11.27-.16-.1.05.33-.15-.11,0,.38-.13-.09,0,.39-.09-.11,0,.36,0H324l-.16,0a2.68,2.68,0,0,0-.49,0,2.87,2.87,0,0,0-.57.11,2.76,2.76,0,0,0-.55.19,2.22,2.22,0,0,0-.43.23l-.2.17a.34.34,0,0,0-.13.31l.09.12a.73.73,0,0,0,.43.13Z"/></svg>