<svg id="レイヤー_1" data-name="レイヤー 1" xmlns="http://www.w3.org/2000/svg" viewBox="0 0 72.21 48.54"><defs><style>.cls-1{fill:#1578db;}.cls-2{fill:#fff;}</style></defs><path class="cls-1" d="M2.47,18.33h0C4.72,11.72,10.29,6.56,16.69,3.78S30.28.41,37.24,1c7.2.56,14.42,2.36,20.54,6.2s11,9.9,12.54,17a16.12,16.12,0,0,1-.08,7.81c-1.6,5.56-6.84,9.28-12.13,11.63A50.6,50.6,0,0,1,32.9,47.62c-8.62-.84-17.5-3.88-25.69-1.08.31-.11.12-7.31-.09-7.95-.66-2-2.54-3.48-3.55-5.36A19,19,0,0,1,2.47,18.33Z"/><path class="cls-1" d="M3.91,18.12c2.94-9.42,12.72-14.91,22-16.2a51.52,51.52,0,0,1,16.06.45A40.09,40.09,0,0,1,56.74,7.9,29,29,0,0,1,66.4,18c2.43,4.37,3.89,10,2.17,14.83-1.53,4.35-5.35,7.36-9.32,9.42A45.35,45.35,0,0,1,44,46.78c-6.38.77-12.54-.14-18.83-1.16-6-1-12.2-1.64-18.1.29l1.31.8c.47-.42.42-1,.45-1.57,0-.92,0-1.84,0-2.76,0-1.71.15-3.66-.69-5.2a42.63,42.63,0,0,0-2.59-3.53,14.94,14.94,0,0,1-2.11-5.06,19.22,19.22,0,0,1,.49-10.47c.28-.84-2.59-.47-2.88.42a20.08,20.08,0,0,0-.76,9.61,18.31,18.31,0,0,0,1.48,4.73A21.67,21.67,0,0,0,4.36,36.7a5.75,5.75,0,0,1,1.39,2.8c.09.82.11,1.67.13,2.5,0,1,0,2,0,3a10.86,10.86,0,0,1,0,1.14c0,.48-.24.6.18.23-1,.86.74,1,1.31.8,6-2,12.23-.72,18.24.27a63.23,63.23,0,0,0,17.69.78A52.57,52.57,0,0,0,60,43.43c4.24-2,8.4-5,10.65-9.2,2.57-4.84,1.66-10.72-.58-15.51A29,29,0,0,0,60.4,7.45C51.26,1.06,39-.79,28.09.29S4.56,7.22,1,18.54C.76,19.4,3.63,19,3.91,18.12Z"/><path class="cls-2" d="M20.16,36.1A18.43,18.43,0,0,1,13.54,35V30.54A16.33,16.33,0,0,0,19.93,32a4.45,4.45,0,0,0,2.75-.72,2.35,2.35,0,0,0,.94-2,2.13,2.13,0,0,0-1.26-2,11.57,11.57,0,0,0-4.63-.63H16.44v-4h1.29a10,10,0,0,0,4.35-.69,2.23,2.23,0,0,0,1.3-2.1c0-1.38-1.19-2.08-3.57-2.08a14.63,14.63,0,0,0-6.06,1.47V14.75a19.25,19.25,0,0,1,6.82-1.15,9.58,9.58,0,0,1,5.66,1.48,4.55,4.55,0,0,1,2.05,3.83,5.34,5.34,0,0,1-1,3.42,6.68,6.68,0,0,1-3.36,2v.06A5.48,5.48,0,0,1,27.41,26a5,5,0,0,1,1.22,3.54,5.83,5.83,0,0,1-2.23,4.84A9.84,9.84,0,0,1,20.16,36.1Z"/><path class="cls-2" d="M38.77,36.1A18.43,18.43,0,0,1,32.15,35V30.54A16.33,16.33,0,0,0,38.54,32a4.45,4.45,0,0,0,2.75-.72,2.35,2.35,0,0,0,.94-2,2.13,2.13,0,0,0-1.26-2,11.57,11.57,0,0,0-4.63-.63H35.05v-4h1.29a10,10,0,0,0,4.35-.69A2.24,2.24,0,0,0,42,19.81c0-1.38-1.2-2.08-3.58-2.08a14.66,14.66,0,0,0-6.06,1.47V14.75a19.25,19.25,0,0,1,6.82-1.15,9.56,9.56,0,0,1,5.66,1.48,4.55,4.55,0,0,1,2,3.83,5.34,5.34,0,0,1-1,3.42,6.64,6.64,0,0,1-3.36,2v.06A5.48,5.48,0,0,1,46,26a5,5,0,0,1,1.22,3.54A5.83,5.83,0,0,1,45,34.35,9.84,9.84,0,0,1,38.77,36.1Z"/><path class="cls-2" d="M59.69,30.22l1.36.31a9,9,0,0,1-1.36,2.62c.21.41.39.61.56.61s.27-.43.31-1.3a3,3,0,0,0,1.07.68,3.13,3.13,0,0,1-.47,1.55,1.22,1.22,0,0,1-1,.4,1.76,1.76,0,0,1-1.37-.93,7.28,7.28,0,0,1-1.2.91,6,6,0,0,0-1-1,5.92,5.92,0,0,0,1.56-1.14A13.57,13.57,0,0,1,57.41,30H53.74v.65a10.38,10.38,0,0,1-.28,2.63,4.83,4.83,0,0,0,.6-1.46l1,.21v-.51H54v-1.1h3.23v1.1h-1v.58l.83-.31a6.26,6.26,0,0,1,.6,1.39l-1,.4a8.39,8.39,0,0,0-.43-1.2v1.36a2.61,2.61,0,0,1-.07.65.61.61,0,0,1-.3.35,2.26,2.26,0,0,1-1.12.2,5,5,0,0,0-.36-1.11l-.06.08-.05.08a3.67,3.67,0,0,0-.87-.54,4.87,4.87,0,0,1-.73,1.59,6.88,6.88,0,0,0-.56-.49,4.1,4.1,0,0,0-.59-.4,6,6,0,0,0,.81-3.53V28.85h4.93c0-.25-.05-.45-.06-.59H51.86V27h1.5v-1.5h1.41V27h1.41v-2h1.48v.54H60.6v1H57.66V27h3.73v1.22H60.27a4.61,4.61,0,0,1,.66.59h.43V30H58.78a15.34,15.34,0,0,0,.34,1.55A6.41,6.41,0,0,0,59.69,30.22ZM55,33.75V32.43a5.63,5.63,0,0,1-.62,1.42l.51,0C55,33.87,55,33.83,55,33.75Zm4.4-5.49H58.6a5.68,5.68,0,0,0,0,.59h.72a2.54,2.54,0,0,0-.36-.29Z"/></svg>