<svg id="レイヤー_1" data-name="レイヤー 1" xmlns="http://www.w3.org/2000/svg" viewBox="0 0 152.29 95.58"><defs><style>.cls-1{fill:#fff;}.cls-2{font-size:22px;font-family:Corporate-Logo-Bold, Corporate Logo Bold;font-weight:700;letter-spacing:0.05em;}.cls-2,.cls-3{fill:#1578db;}.cls-3{stroke:#fff;stroke-miterlimit:10;}</style></defs><path class="cls-1" d="M87.91,89.41c-19.9,4.68-41.15,8-60.45,1.33-12.35-4.31-24-14-25.76-26.95C.09,52,7,40.58,15.13,31.87,40.24,5.11,80.89-5.89,116.06,4.57c8.73,2.59,17.26,6.49,23.89,12.73s11.19,15.06,10.88,24.16c-.52,15.43-14.09,27.07-27.57,34.59-3.66,2-7.51,4-10.08,7.34s-3.41,8.38-.7,11.57a58.1,58.1,0,0,0-16.55-7.8"/><path class="cls-1" d="M87.77,88.88c-13.61,3.19-27.64,5.8-41.67,4.77C33.88,92.75,21.41,89,12.36,80.37A30.18,30.18,0,0,1,3.8,66.57,28.33,28.33,0,0,1,5.13,48.88c4.39-11.26,13.62-20.5,23.12-27.65A100,100,0,0,1,91.9,1.39a88.23,88.23,0,0,1,34,7.94c11.24,5.35,21.3,14.93,23.19,27.74,1.72,11.73-4.88,22.07-13.38,29.5a83,83,0,0,1-14.57,9.91c-4.9,2.73-10.53,6.07-11.62,12.08a8.36,8.36,0,0,0,1.58,6.92l2.72-1a60.06,60.06,0,0,0-16.73-7.89,2.89,2.89,0,0,0-2,.34c-.28.15-1,.67-.33.86a58.62,58.62,0,0,1,16.37,7.72c.55.37,3.31-.3,2.72-1-1.93-2.4-1.91-5.69-.83-8.46a15,15,0,0,1,6.1-6.76c2.64-1.75,5.5-3.15,8.21-4.78a83.28,83.28,0,0,0,7.29-4.94c9-6.83,17.09-16.29,17.65-28.06.62-13-8.3-24.29-19-30.67-10.48-6.25-23-9.35-35-10.4a106.69,106.69,0,0,0-67,17c-18,11.79-41.87,36.51-26,58.9,7,9.89,18.69,15.32,30.3,17.53,14,2.67,28.42,1.14,42.28-1.6,3.45-.69,6.87-1.45,10.29-2.25.31-.07,1.44-.43,1.31-.92s-1.33-.2-1.59-.14Z"/><text class="cls-2" transform="translate(27.19 52.27)">関東<tspan x="0" y="24">在住</tspan></text><path class="cls-3" d="M98.4,27.18c.85,1.12,1.58,1,1.43,2.56-.11,1.08-.6,2-.14,3a5.47,5.47,0,0,0,2.06,2.1c1.59,1.11,3.43,1.51,4.07,3a2.77,2.77,0,0,1,.81.76,49.83,49.83,0,0,0,4.64-3.54c1.34-1.26,2.43-2.76,4.15-3.77s2.73-2.18,2.07-4.29c-.18-.56-.67-1-.88-1.55a10.7,10.7,0,0,1-.25-1.94c-.18-.95-.71-1.55-.73-2.55s.32-2.29,1.43-2.42a23.44,23.44,0,0,1-.85-2.57c-.74-1.63-2.4-3.48-4.34-3.29A12.48,12.48,0,0,0,107.65,14c-.93.51-1.56,1.56-2.37,2.25-1.76,1.49-4.16,1.92-6,3.31a12.51,12.51,0,0,0-2,1.7l0,0a10.49,10.49,0,0,1,1,2.88C98.47,25.41,97.57,26.09,98.4,27.18Z"/><path class="cls-3" d="M95,18.32c-.62-.51-2.08-2.2-3-1.69-.39.22-.87,1.74-1.13,2.18s-.61,1-.94,1.45a11.43,11.43,0,0,1-4.89,3.67c-.22.08-.44.14-.67.2h0a8.25,8.25,0,0,0-2.92.87c-.93.64-1.34,1.81-2,2.67-.41.56-2,2-2,2.66,0,1,1.66,1.16,2.2,1.6a28.17,28.17,0,0,1,3.37,3.18c1.49,1.76.76,4.06,1.75,5.78.58,1,.95,1,.8,2.37A8.87,8.87,0,0,0,85.58,46a6.94,6.94,0,0,0,.47,1.37c.11-.23-.27-.44-.26-.64a9,9,0,0,1,.32-3c.6-1.92,3.69-3.07,5.06-4.48a9.65,9.65,0,0,1,3.54-2.67c1.32-.46,1.66,0,3,.42a16.63,16.63,0,0,0,4.06.82c1.31.07,2.88-.66,4.07,0l0,0c-.64-1.49-2.48-1.89-4.07-3a5.47,5.47,0,0,1-2.06-2.1c-.46-1,0-2,.14-3,.15-1.52-.58-1.44-1.43-2.56s.07-1.77-.14-3a10.49,10.49,0,0,0-1-2.88h0a11.56,11.56,0,0,0-1.13-1.79h0A7.67,7.67,0,0,0,95,18.32Z"/><path class="cls-3" d="M105.82,37.87l0,0c-1.19-.63-2.76.1-4.07,0a16.63,16.63,0,0,1-4.06-.82c-1.29-.42-1.63-.88-3-.42a9.65,9.65,0,0,0-3.54,2.67c-1.37,1.41-4.17,2.63-5,4.43a4.55,4.55,0,0,0-.36,2.95,3.43,3.43,0,0,0,.28.71c.12.28.25.55.39.83a3,3,0,0,0,1.81.48c.4-.05.71-.11,1-.16a4,4,0,0,1,.69-1.31c.72-.84,2.12-.93,3.25-1.1a5.76,5.76,0,0,1,4.25,1,18,18,0,0,0,2.8,1.79c2,.78,4.35-.86,6.44-1.06a18.08,18.08,0,0,1,5.59.31,7.45,7.45,0,0,0-1.37-3.32,14.73,14.73,0,0,1-1.27-1.51,5.22,5.22,0,0,1-.32-1.57h0a2.12,2.12,0,0,0-.2-.6c-.31-.56-1.2-1.08-1.68-1.58-.24-.25-.49-.61-.76-.95Z"/><path class="cls-3" d="M102.52,53.89c-2.49,1.53-3.39-.74-5.94-1.39A6.41,6.41,0,0,0,94,52.36a3.59,3.59,0,0,1,.42.6c.87,1.6-.43,3.75-1.1,5.22a6.07,6.07,0,0,1-2.24,2.38c1.17.94-.46,3.75.81,5.13.37.4.81.33,1.19.66s.57.83.91,1.16c.13.13.28.26.42.38.08-.18.17-.37.25-.58.25-.64.29-1.31.55-1.92.87-2,2.5-1.84,4.33-2.62a4.85,4.85,0,0,1,4.69.38A3.94,3.94,0,0,1,106,65.32c.13.49,0,1.9.83,1.83a2.06,2.06,0,0,0,1.85-2.37,3.23,3.23,0,0,0-.49-1.73c-.52-.64-1.31-1.24-1.5-2.08a4.59,4.59,0,0,1,1-3.13,8.37,8.37,0,0,0,.82-1.87c-.69-.4-1.32-.92-2-1.4C104.82,53.35,104.39,52.74,102.52,53.89Z"/><path class="cls-3" d="M112.23,48.16a18.08,18.08,0,0,0-5.59-.31c-2.09.2-4.46,1.84-6.44,1.06a18,18,0,0,1-2.8-1.79,5.76,5.76,0,0,0-4.25-1c-1.13.17-2.53.26-3.25,1.1a4,4,0,0,0-.69,1.31c.74-.13,1-.11,1.84,1s2.15,1.78,3,2.81a6.41,6.41,0,0,1,2.54.14c2.55.65,3.45,2.92,5.94,1.39,1.87-1.15,2.3-.54,4,.68.67.48,1.3,1,2,1.4a6.74,6.74,0,0,1,.38-.87,7.44,7.44,0,0,1,2-1.88c.53-.42.89-1,1.4-1.35A15.31,15.31,0,0,0,112.23,48.16Z"/><path class="cls-3" d="M124.31,44.16c-1.29-1.25-2.41-.77-4.14-.32-2.66.69-5.5.89-7.64-1.1a3.68,3.68,0,0,0-3.26-1,5.22,5.22,0,0,0,.32,1.57,14.73,14.73,0,0,0,1.27,1.51,7.45,7.45,0,0,1,1.37,3.32h0a15.31,15.31,0,0,1,.06,3.71,1.88,1.88,0,0,1,.67-.31,1.82,1.82,0,0,1,1.83.61,8.71,8.71,0,0,1,1.34,1.3c.55.94-.11,1.05-.71,1.48-1.13.81-1.29,2.27-2.46,3.08a5,5,0,0,0-2,4.21,10.5,10.5,0,0,1,.12,2.17,14.19,14.19,0,0,0-.55,2.18,24.63,24.63,0,0,0,.57,4.47c.16.85-.16,1.53.7,1.83,2.38.82,2.28-3.39,3.45-4.31a8.16,8.16,0,0,1,3.48-1.52,5.72,5.72,0,0,0,3.62-2,4.05,4.05,0,0,0,1.49-3.35c0-.84-.73-1.49-.54-2.35a16.64,16.64,0,0,1,1.29-2.46A17,17,0,0,1,126.72,53c.89-1.07,2.21-2.45,3.65-2.56.56,0,4.4.67,3.27-.9-.46-.22-1.27-.3-1.65-.71l-.14-.18c-1.3-.5-2.58-1.12-3.83-1.7A13.72,13.72,0,0,1,124.31,44.16Z"/><path class="cls-3" d="M119.46,20.25c-.82-.51-1.26-1.71-2.25-1.69h-.15s0,0,0,0,0,0,0,0h0C116,18.7,115.62,20,115.63,21s.55,1.6.73,2.55a10.7,10.7,0,0,0,.25,1.94c.21.54.7,1,.88,1.55.66,2.11-.48,3.36-2.07,4.29s-2.81,2.51-4.15,3.77a49.83,49.83,0,0,1-4.64,3.54c.27.34.52.7.76.95.48.5,1.37,1,1.68,1.58a2.12,2.12,0,0,1,.2.6,3.68,3.68,0,0,1,3.26,1c2.14,2,5,1.79,7.64,1.1,1.73-.45,2.85-.93,4.14.32A13.72,13.72,0,0,0,128,47c1.25.58,2.53,1.2,3.83,1.7a13.07,13.07,0,0,1-.58-1.49,16.33,16.33,0,0,0-2.52-3.38c-2-2.33-2.48-5-2.19-8a31,31,0,0,1,.8-4.56c.37-1.51-.17-3.18.25-4.56s1.56-2.43,2.14-3.73a17.38,17.38,0,0,0,.74-2.72c-1.38-.52-2.48-1.56-4-1.66C124,18.38,121.72,21.68,119.46,20.25Z"/></svg>