<svg id="レイヤー_1" data-name="レイヤー 1" xmlns="http://www.w3.org/2000/svg" viewBox="0 0 231.94 115.44"><defs><style>.cls-1{fill:#1578db;}.cls-2{fill:#fff;}.cls-3{fill:#fffa96;}.cls-4{fill:#7db4eb;}</style></defs><rect class="cls-1" x="38.16" width="158" height="26" rx="13"/><path class="cls-2" d="M19.17,37a.74.74,0,0,1,.79.84.76.76,0,0,1-.79.86H16.4a.67.67,0,0,0-.75.74v8.83a.79.79,0,0,1-.9.79c-.57,0-.9-.31-.9-.79V38.94c0-1.37.52-1.94,2-1.94Z"/><path class="cls-2" d="M25.5,50a23,23,0,0,1-1.16,7,.74.74,0,0,1-.68.55.89.89,0,0,1-.4-.09.78.78,0,0,1-.55-.68.86.86,0,0,1,.09-.4C23.88,53.7,24,50.4,24,43.54v-4c0-1.3.57-1.78,1.83-1.78H28c1.23,0,1.8.48,1.8,1.78V55.7c0,1.19-.55,1.68-1.87,1.68a6.18,6.18,0,0,1-1.36-.14.68.68,0,0,1-.51-.72.83.83,0,0,1,0-.27c.08-.33.28-.55.57-.55a.17.17,0,0,1,.11,0,7.54,7.54,0,0,0,.81.08c.53,0,.66-.13.66-.59V50Zm.11-5.34c0,1.14,0,2.31,0,3.45,0,.14,0,.29,0,.42h2.68V44.66Zm2.62-4.84c0-.46-.2-.57-.59-.57H26.21c-.4,0-.6.11-.6.57v3.36h2.62ZM32,38.23a.77.77,0,0,1,.69.47,30.35,30.35,0,0,1,1.91,4.13,1.1,1.1,0,0,1,.07.38.74.74,0,0,1-.53.7,1.11,1.11,0,0,1-.46.11.73.73,0,0,1-.73-.53,27.63,27.63,0,0,0-1.67-3.87,1.35,1.35,0,0,1-.2-.62.69.69,0,0,1,.44-.63A1.08,1.08,0,0,1,32,38.23Zm-.68,7.68c0-.42.31-.64.77-.64s.82.22.82.64V55c0,.46.22.57.68.57h7.06c.44,0,.66-.11.66-.57V45.91c0-.39.31-.64.82-.64s.77.25.77.64v9.27c0,1.34-.58,1.87-1.9,1.87H33.2c-1.32,0-1.89-.53-1.89-1.87Zm2.84,1.81a.84.84,0,0,1-.22-.53.67.67,0,0,1,.2-.48.8.8,0,0,1,.57-.27.71.71,0,0,1,.49.2c.68.64,1.4,1.38,2.13,2.18a15.15,15.15,0,0,0,1.25-3.13.64.64,0,0,1,.6-.46.78.78,0,0,1,.33.07c.37.11.53.3.53.61a1.28,1.28,0,0,1-.05.27,20.88,20.88,0,0,1-1.65,3.76c.79.9,1.56,1.85,2.27,2.79a.85.85,0,0,1,.11.4.82.82,0,0,1-.31.64.86.86,0,0,1-.55.22.58.58,0,0,1-.48-.24c-.55-.8-1.19-1.63-1.9-2.47a18,18,0,0,1-2.61,3.06.73.73,0,0,1-.51.22.74.74,0,0,1-.6-.33.87.87,0,0,1-.17-.48.82.82,0,0,1,.26-.58,15.35,15.35,0,0,0,2.67-3C35.74,49.3,34.92,48.44,34.15,47.72Zm1.78-10.21a.75.75,0,0,1,.69.44,25,25,0,0,1,1.65,4,1.43,1.43,0,0,1,.06.39.65.65,0,0,1-.53.66,1,1,0,0,1-.44.09.71.71,0,0,1-.68-.57,25.22,25.22,0,0,0-1.52-3.9.87.87,0,0,1-.13-.46.7.7,0,0,1,.55-.64A1.17,1.17,0,0,1,35.93,37.51Zm7.33,1.1a1,1,0,0,1-.07.35,24,24,0,0,1-2.68,5.17.87.87,0,0,1-.7.44,1,1,0,0,1-.51-.15.71.71,0,0,1-.35-.6,1,1,0,0,1,.2-.57,20.16,20.16,0,0,0,2.46-4.88.67.67,0,0,1,.66-.55,1.15,1.15,0,0,1,.42.08A.73.73,0,0,1,43.26,38.61Z"/><path class="cls-2" d="M53.18,56c0,.6-.42.84-1,.84s-1-.24-1-.84V38.92c0-.6.38-.84,1-.84s1,.24,1,.86v5.65a66.49,66.49,0,0,1,10.74,3.94,1,1,0,0,1,.59.93,1.26,1.26,0,0,1-.09.48,1,1,0,0,1-.88.64,1.34,1.34,0,0,1-.46-.11,59.65,59.65,0,0,0-9.9-3.92Z"/><path class="cls-2" d="M73.09,39.42a1,1,0,0,1,2,0L75,52.67c0,.88.33,1.25,1,1.25a1.47,1.47,0,0,0,.28,0A14.82,14.82,0,0,0,86.67,47a.91.91,0,0,1,.81-.53,1,1,0,0,1,.53.18,1,1,0,0,1,.42.79,1.32,1.32,0,0,1-.16.57,16.42,16.42,0,0,1-12,7.9l-.59,0a2.82,2.82,0,0,1-1.85-.57,2.73,2.73,0,0,1-.82-2.2Z"/><path class="cls-2" d="M93.57,58a.73.73,0,0,1-.79-.84c0-.48.22-.86.79-.86h2.75a.67.67,0,0,0,.77-.74V46.68a.8.8,0,0,1,.9-.79c.58,0,.91.31.91.79V56c0,1.37-.53,1.94-2,1.94Z"/><path class="cls-2" d="M107.43,45.3c-.37,0-.59-.29-.59-.71s.22-.7.59-.7h6.85a8.61,8.61,0,0,0,.9-1.28.75.75,0,0,1,.7-.44.86.86,0,0,1,.27,0,.67.67,0,0,1,.61.61.51.51,0,0,1-.09.29c-.13.22-.33.5-.52.77h10.12a.62.62,0,0,1,.61.7.63.63,0,0,1-.61.71h-6a13.42,13.42,0,0,0,6.36,3.23.65.65,0,0,1,.52.71,1.92,1.92,0,0,1,0,.3.72.72,0,0,1-.72.6,1.1,1.1,0,0,1-.29,0,15,15,0,0,1-7.72-4.79h-3.26a16.3,16.3,0,0,1-7.35,4.35,1.47,1.47,0,0,1-.29.05c-.35,0-.59-.2-.72-.62a1.19,1.19,0,0,1,0-.26.67.67,0,0,1,.55-.66,15.49,15.49,0,0,0,5.84-2.86Zm13.82-5c-.53-.41-1-.81-1.54-1.16a.64.64,0,0,1-.35-.53.68.68,0,0,1,.24-.48.69.69,0,0,1,.53-.22,1.1,1.1,0,0,1,.55.17A38.26,38.26,0,0,1,125,41.62a.82.82,0,0,1,.27.55.76.76,0,0,1-.25.55.84.84,0,0,1-.59.24.81.81,0,0,1-.59-.26c-.38-.4-.82-.81-1.26-1.23-3.83.42-9.11.68-13.46.7a.7.7,0,0,1-.8-.72V41.4a.66.66,0,0,1,.73-.7h2.88a20.39,20.39,0,0,0,2.25-3.1.8.8,0,0,1,.72-.44,1.58,1.58,0,0,1,.42.06.63.63,0,0,1,.51.6.74.74,0,0,1-.14.39,15.88,15.88,0,0,1-1.87,2.47C116.32,40.59,118.79,40.52,121.25,40.32Zm-3.54,6.21a.75.75,0,0,1,.53.22.87.87,0,0,1,.24.55.71.71,0,0,1-.22.48,19.28,19.28,0,0,1-7.86,3.46.5.5,0,0,1-.17,0,.73.73,0,0,1-.69-.59.86.86,0,0,1,0-.22.59.59,0,0,1,.53-.62,17.15,17.15,0,0,0,7.22-3.17A.76.76,0,0,1,117.71,46.53Zm2.57,2.26a.87.87,0,0,1,.6.27.71.71,0,0,1,.22.51.74.74,0,0,1-.27.57,22.32,22.32,0,0,1-10.27,4.2h-.14a.7.7,0,0,1-.72-.64.56.56,0,0,1,0-.17.63.63,0,0,1,.55-.66,20.54,20.54,0,0,0,9.66-3.94A.64.64,0,0,1,120.28,48.79Zm2.86,2.47a.85.85,0,0,1,.6.28.92.92,0,0,1,.24.56.8.8,0,0,1-.33.59,25.52,25.52,0,0,1-13,5.06h-.16a.72.72,0,0,1-.77-.68.44.44,0,0,1,0-.16.66.66,0,0,1,.66-.68,24.07,24.07,0,0,0,12.26-4.79A.66.66,0,0,1,123.14,51.26Z"/><path class="cls-2" d="M133.41,41.36c0-.9.05-1.87.05-2.91V37.9c0-.44.37-.68.86-.68s.88.24.88.68c0,1.26,0,2.4-.07,3.46h2.75c1.39,0,2,.55,2,1.89a53,53,0,0,1-1,11.64,2.31,2.31,0,0,1-2.6,1.89,7.42,7.42,0,0,1-2-.22.77.77,0,0,1-.64-.79,1.06,1.06,0,0,1,0-.24c.11-.44.38-.64.68-.64a.44.44,0,0,1,.16,0,6.8,6.8,0,0,0,1.54.24c.81,0,1-.19,1.25-.92a51.16,51.16,0,0,0,.88-10.67c0-.51-.24-.62-.72-.62h-2.34A34.5,34.5,0,0,1,134,50.45a19.66,19.66,0,0,1-2.88,6.16.94.94,0,0,1-.75.39.93.93,0,0,1-.53-.17.82.82,0,0,1-.42-.71.88.88,0,0,1,.2-.53,17,17,0,0,0,2.73-5.67,30.77,30.77,0,0,0,1-7h-2.91c-.41,0-.63-.35-.63-.81s.22-.77.63-.77Zm16,13.24c0,1.37-.64,1.9-2,1.9h-3.8c-1.34,0-2-.53-2-1.9V41.31c0-1.36.64-1.89,2-1.89h3.8c1.37,0,2,.53,2,1.89Zm-6.05-.33c0,.47.22.62.63.62h3c.42,0,.66-.15.66-.62V41.64c0-.46-.24-.61-.66-.61h-3c-.41,0-.63.15-.63.61Z"/><path class="cls-2" d="M165.12,44.11a26.5,26.5,0,0,0,5.28-5.41.83.83,0,0,1,.66-.36.84.84,0,0,1,.48.16.73.73,0,0,1,.4.68.81.81,0,0,1-.2.53,35.07,35.07,0,0,1-4.29,4.4h5c.39,0,.64.31.64.77s-.25.77-.64.77h-7a19.23,19.23,0,0,1-4,2.22,17.35,17.35,0,0,1,2.38-.13h4.69c1.36,0,1.93.48,1.93,1.67v6.1c0,1.18-.57,1.67-1.93,1.67h-9c-1.39,0-1.94-.49-1.94-1.67V52.29c0-.63.09-1.49.17-2.24a32.22,32.22,0,0,1-3.78,1.61,1.29,1.29,0,0,1-.37.06.85.85,0,0,1-.22-1.67,43.28,43.28,0,0,0,9.41-4.4h-9c-.39,0-.63-.31-.63-.77s.24-.77.63-.77h7.55v-2.6h-5.48c-.37,0-.61-.28-.61-.75s.24-.74.61-.74h5.48V37.88c0-.39.31-.64.84-.64s.81.25.81.64V40h3.87a.69.69,0,0,1,.64.77.66.66,0,0,1-.7.72h-3.81v2.6Zm3.76,7.46V49.7c0-.44-.2-.55-.64-.55H160c-.42,0-.62.11-.62.55v1.87Zm-9.55,3.58c0,.44.2.58.62.58h8.29c.44,0,.64-.14.64-.58V53h-9.55Z"/><path class="cls-2" d="M190.51,48.58a21.73,21.73,0,0,1-3.94-4.93,64.15,64.15,0,0,1-8.14.52.83.83,0,0,1-.86-.92.8.8,0,0,1,.83-.86,65.19,65.19,0,0,0,7.24-.37,21.27,21.27,0,0,1-1.38-3.1,1.14,1.14,0,0,1-.07-.38.75.75,0,0,1,.68-.72,1.26,1.26,0,0,1,.33,0,.81.81,0,0,1,.82.66,19.35,19.35,0,0,0,1.41,3.32,37.84,37.84,0,0,0,5.43-1.12,1.29,1.29,0,0,1,.37-.06.79.79,0,0,1,.77.59,1.26,1.26,0,0,1,.05.33.79.79,0,0,1-.6.79,36.65,36.65,0,0,1-5.1,1.12,26.72,26.72,0,0,0,4.73,5.79,1,1,0,0,1,.31.71,1,1,0,0,1-.29.7.85.85,0,0,1-.61.24,1.8,1.8,0,0,1-.86-.26,14.37,14.37,0,0,0-6.32-1.37c-3.06,0-5.08.93-5.08,2.86s2.14,2.73,5.37,2.73a23.17,23.17,0,0,0,6-.81,2.71,2.71,0,0,1,.37-.05.75.75,0,0,1,.79.58,1,1,0,0,1,.07.37.86.86,0,0,1-.73.86,22.64,22.64,0,0,1-6.45.86c-4.7,0-7.32-1.7-7.32-4.56s2.66-4.4,6.8-4.4a14.29,14.29,0,0,1,5.3,1Z"/><path class="cls-2" d="M204.19,48.84c1.34-1.87,2.95-2.91,4.64-2.91a2.35,2.35,0,0,1,2.2,1.19c.4.71.59,1.52.66,3.72.07,2,.22,2.69.51,3.08a1.82,1.82,0,0,0,1.45.57,2.42,2.42,0,0,0,2-1.07A9.36,9.36,0,0,0,217,49.59a.84.84,0,0,1,.85-.8.53.53,0,0,1,.22,0,.85.85,0,0,1,.75.9.82.82,0,0,1,0,.22A9.93,9.93,0,0,1,217,54.78a4.09,4.09,0,0,1-3.43,1.63,3.37,3.37,0,0,1-2.69-1c-.55-.64-.88-1.65-.94-3.86a9,9,0,0,0-.38-3.1,1.13,1.13,0,0,0-1.19-.77,5.18,5.18,0,0,0-4,2.71,28.94,28.94,0,0,0-2.53,5.46c-.2.48-.46.7-.83.7a1.1,1.1,0,0,1-.38-.07.82.82,0,0,1-.66-.83,1.05,1.05,0,0,1,.09-.46c2-5.48,4.2-11.49,6.25-16.64a.87.87,0,0,1,.84-.64,1.34,1.34,0,0,1,.39.07.75.75,0,0,1,.59.77,1.31,1.31,0,0,1-.08.46c-1.08,2.69-2.12,5.19-3.06,7.59a16.47,16.47,0,0,1-.93,2Z"/><path class="cls-3" d="M52,12.55a.54.54,0,0,1-.53-.61.53.53,0,0,1,.54-.59h11.7c.38,0,.54.26.54.62s-.16.58-.52.58H59A8,8,0,0,1,57.84,17a6,6,0,0,1-3.61,2.53,1.39,1.39,0,0,1-.33,0,.54.54,0,0,1-.56-.36.84.84,0,0,1,0-.27.59.59,0,0,1,.43-.6,4.91,4.91,0,0,0,3.05-2.13,6.9,6.9,0,0,0,.9-3.65Zm9.28-5c.38,0,.54.27.54.65a.53.53,0,0,1-.54.6h-8a.57.57,0,0,1-.54-.63c0-.35.18-.62.54-.62Zm1-1.21a.59.59,0,0,1,.42.21,7.33,7.33,0,0,1,1.14,1.77A.8.8,0,0,1,64,8.7a.46.46,0,0,1-.51.42A.41.41,0,0,1,63,8.85a9,9,0,0,0-1-1.73.5.5,0,0,1-.14-.36A.44.44,0,0,1,62.31,6.36Zm1.76-.68a.62.62,0,0,1,.43.2A6.94,6.94,0,0,1,65.61,7.6a.82.82,0,0,1,.08.38.45.45,0,0,1-.47.42.43.43,0,0,1-.42-.3,9.21,9.21,0,0,0-1-1.68A.56.56,0,0,1,63.65,6,.42.42,0,0,1,64.07,5.68Z"/><path class="cls-3" d="M67.5,13.9a.56.56,0,0,1-.58-.64.6.6,0,0,1,.6-.68H78.9a.6.6,0,0,1,.6.68.56.56,0,0,1-.58.64Z"/><path class="cls-3" d="M86.69,9.43a12.94,12.94,0,0,1-3.5,3.68.63.63,0,0,1-.39.13.6.6,0,0,1-.48-.27.62.62,0,0,1-.12-.36.64.64,0,0,1,.29-.55,11.74,11.74,0,0,0,2.35-2.21,11,11,0,0,0,1.74-3.07.52.52,0,0,1,.53-.39h.24a.53.53,0,0,1,.48.5.3.3,0,0,1,0,.13,6.83,6.83,0,0,1-.49,1.25l4.81-.08a1.35,1.35,0,0,1,1.5,1.46,2.43,2.43,0,0,1-.06.58A11.81,11.81,0,0,1,91,15.63a12.78,12.78,0,0,1-6.56,4.08l-.28,0a.52.52,0,0,1-.54-.36.86.86,0,0,1,0-.27.6.6,0,0,1,.47-.57,12.55,12.55,0,0,0,5.47-3.18,23.08,23.08,0,0,0-3.43-2.66.47.47,0,0,1-.24-.43.61.61,0,0,1,.16-.39.56.56,0,0,1,.47-.24.77.77,0,0,1,.39.12,19.86,19.86,0,0,1,3.51,2.65,10,10,0,0,0,1.86-4.33,1.33,1.33,0,0,0,0-.32c0-.28-.15-.43-.6-.42Z"/><path class="cls-3" d="M100.73,7.11a.52.52,0,0,1,.57-.53.3.3,0,0,1,.13,0c.35,0,.54.21.54.51a.57.57,0,0,1,0,.13c-.12.86-.3,1.74-.5,2.57l1.16,0c2,0,2.95,1.05,2.95,3.39a15.34,15.34,0,0,1-.52,4,2.38,2.38,0,0,1-2.48,2,4.62,4.62,0,0,1-2.17-.54.64.64,0,0,1-.33-.55.62.62,0,0,1,.55-.63.84.84,0,0,1,.39.1,3.92,3.92,0,0,0,1.59.38c.63,0,1-.27,1.29-1.23a14.65,14.65,0,0,0,.44-3.6c0-1.67-.44-2.22-1.85-2.22-.51,0-.91,0-1.29.06-.24.87-.51,1.75-.81,2.62A27,27,0,0,1,98,18.9a.64.64,0,0,1-.57.37.63.63,0,0,1-.33-.1.62.62,0,0,1-.33-.53.7.7,0,0,1,.12-.39,26.32,26.32,0,0,0,2.39-5.05c.24-.71.49-1.43.69-2.16-.77.06-1.83.21-2.69.33H97.1a.5.5,0,0,1-.51-.48.22.22,0,0,1,0-.12.55.55,0,0,1,.51-.55c.9-.14,2.15-.29,3.12-.36C100.43,9,100.59,8,100.73,7.11Zm9.12,7.45a.52.52,0,0,1-.38.54.57.57,0,0,1-.28.06.59.59,0,0,1-.57-.46,18.29,18.29,0,0,0-2.78-5.34.49.49,0,0,1-.1-.3.58.58,0,0,1,.33-.51.61.61,0,0,1,.31-.09.68.68,0,0,1,.54.27,18.28,18.28,0,0,1,2.88,5.56A1,1,0,0,1,109.85,14.56Z"/><path class="cls-3" d="M114.33,14.14a7.72,7.72,0,0,1,5.33-2c2.56,0,4.14,1.44,4.14,3.41,0,2.38-2.13,3.87-5.78,3.87a12.19,12.19,0,0,1-3.39-.44.63.63,0,0,1-.48-.61.55.55,0,0,1,0-.18.57.57,0,0,1,.55-.45.71.71,0,0,1,.21,0,12.61,12.61,0,0,0,3.08.39c2.76,0,4.5-1,4.5-2.69,0-1.14-1-2.17-2.91-2.17a6.89,6.89,0,0,0-5.06,2.05,1.08,1.08,0,0,1-.76.41,1.81,1.81,0,0,1-.23,0A.64.64,0,0,1,113,15a.58.58,0,0,1,0-.18,38.54,38.54,0,0,1,.82-4.67.57.57,0,0,1,.57-.51.34.34,0,0,1,.14,0,.51.51,0,0,1,.51.51.55.55,0,0,1,0,.18c-.27,1.14-.52,2.34-.58,2.82a6.32,6.32,0,0,1-.21,1Zm7.11-6.28a.65.65,0,0,1,.6.61v.08a.63.63,0,0,1-.67.58h-.06a35.11,35.11,0,0,1-6-1,.56.56,0,0,1-.44-.57,1.77,1.77,0,0,1,0-.21.59.59,0,0,1,.56-.46h.16A35.19,35.19,0,0,0,121.44,7.86Z"/><path class="cls-3" d="M127.62,12.51c-.24,0-.37-.21-.37-.45s.13-.45.37-.45h2.54v-1h-2c-.27,0-.38-.19-.38-.45a.39.39,0,0,1,.38-.43h2V9c0-.27.19-.4.49-.4s.5.13.5.4v.71h2.07a.38.38,0,0,1,.37.43c0,.26-.1.45-.37.45h-2.07v1h2.46a.46.46,0,0,1,0,.9h-2.46v1.06h3.24c.22,0,.36.2.36.47a.4.4,0,0,1-.36.45h-7.68c-.24,0-.36-.21-.36-.45s.12-.47.36-.47h3.45V12.51Zm6-5.15c.8,0,1.17.33,1.17,1.14v1c0,.33-.21.45-.52.45s-.51-.14-.51-.41V8.68c0-.3-.15-.37-.42-.37H128c-.29,0-.42.07-.42.37v1c0,.27-.24.42-.54.42s-.53-.14-.53-.47V8.5c0-.81.38-1.14,1.17-1.14h2.45V6.55c0-.27.22-.42.57-.42s.58.15.58.42v.81Zm-.94,8.09c.84,0,1.2.31,1.2,1.14v2c0,.82-.36,1.14-1.2,1.14h-4.16c-.84,0-1.21-.32-1.21-1.14v-2c0-.83.37-1.14,1.21-1.14Zm-.35,3.33c.29,0,.42-.08.42-.36V16.74c0-.3-.13-.38-.42-.38h-3.48c-.28,0-.42.08-.42.38v1.68c0,.28.14.36.42.36Zm4.43-2.66c0,.29-.24.42-.57.42s-.57-.15-.57-.42V7.5c0-.29.25-.42.57-.42s.57.15.57.42Zm2.82,2.33c0,1-.5,1.42-1.67,1.42a8.75,8.75,0,0,1-1.57-.13.49.49,0,0,1-.36-.5.86.86,0,0,1,0-.16.48.48,0,0,1,.47-.45h.1a6.32,6.32,0,0,0,1.2.14c.57,0,.68-.11.68-.6V6.75c0-.29.22-.45.57-.45s.57.16.57.45Z"/><path class="cls-3" d="M144.74,12.76a10.21,10.21,0,0,1,.84-2.58,4.11,4.11,0,0,1,3.54-2.56c2.07,0,3.81,1.54,3.81,5,0,2.61-.84,4.41-2.43,5.55a9.54,9.54,0,0,1-4.17,1.49h-.11a.62.62,0,0,1-.66-.51,1,1,0,0,1,0-.17.59.59,0,0,1,.57-.6,7.87,7.87,0,0,0,3.7-1.33,5.22,5.22,0,0,0,1.82-4.47c0-2.48-1.13-3.77-2.61-3.77-1.2,0-2.27.87-3,2.42a9.5,9.5,0,0,0-.91,3.79c0,.44-.2.71-.62.74h0c-.33,0-.58-.2-.67-.63a17,17,0,0,1-.21-2.66A23.24,23.24,0,0,1,144.42,7c.11-.36.32-.52.6-.52h.15a.49.49,0,0,1,.48.5.81.81,0,0,1,0,.25,27.47,27.47,0,0,0-.8,4c0,.48-.1,1-.16,1.55Z"/><path class="cls-3" d="M159.06,12.82a1.2,1.2,0,0,1-1.38-1.33V8.05c0-.3.23-.45.59-.45s.6.15.6.45v3.2c0,.36.15.48.49.48h3.18V6.84c0-.3.24-.48.6-.48s.62.18.62.48v4.89h3.33c.34,0,.49-.12.49-.48V8.07c0-.32.23-.47.59-.47s.6.15.6.47v3.42c0,.91-.5,1.33-1.4,1.33h-3.61v5.61h3.88c.36,0,.54-.15.54-.51V14.58c0-.33.24-.5.6-.5s.6.17.6.5v3.58a1.24,1.24,0,0,1-1.42,1.4h-9.51A1.24,1.24,0,0,1,157,18.15V14.59c0-.34.22-.51.6-.51s.6.17.6.51v3.33c0,.36.16.51.52.51h3.78V12.82Z"/><path class="cls-3" d="M179.42,14.47a2.3,2.3,0,0,1-2.49,1.74,2.51,2.51,0,0,1-2.67-2.56,2.72,2.72,0,0,1,3-2.69,2.42,2.42,0,0,1,1.79.69c0-.54,0-1.3,0-2-2.2,0-4.5.14-6.67.27h-.06a.55.55,0,0,1-.56-.58v0a.53.53,0,0,1,.54-.57c2.12-.12,4.46-.2,6.74-.24,0-.53,0-1,0-1.5a.51.51,0,0,1,.57-.54c.44,0,.63.18.63.57V8.47l2.37,0c.54,0,1.08,0,1.59,0s.62.19.62.6v0a.49.49,0,0,1-.56.53q-1.32,0-2.79,0h-1.23v3.11a4.36,4.36,0,0,1,.44,2,4.21,4.21,0,0,1-2.43,4.05,8.5,8.5,0,0,1-2.39.8h-.15a.57.57,0,0,1-.6-.49,1,1,0,0,1,0-.17.58.58,0,0,1,.48-.6c2.68-.49,4-1.75,4-3.52v-.29ZM177.29,12a1.67,1.67,0,0,0-1.8,1.62,1.47,1.47,0,0,0,1.63,1.53,1.7,1.7,0,0,0,1.77-1.8C178.89,12.51,178.25,12,177.29,12Z"/><path class="cls-3" d="M14.38,83.7C8.49,90.6,2.33,98.2.85,107.15c-.93,5.59,2.54,5.53,4.53,5.43,7.14-.39,12.82-6,17.32-11.52A139.83,139.83,0,0,0,35.1,83.13c1.44-2.47.89-7.59-1.68-8.83C25.37,70.4,17.71,79.79,14.38,83.7Z"/><path class="cls-3" d="M13.67,83.83C7.84,90.66,1.58,98.19.12,107.35c-.42,2.65.15,5.21,3.16,5.5a17,17,0,0,0,9.13-2.1,33.18,33.18,0,0,0,9.49-8,122.1,122.1,0,0,0,9-11.88q2.21-3.27,4.22-6.66a8.67,8.67,0,0,0,1.5-4.63,7.33,7.33,0,0,0-1.31-4.52,6.22,6.22,0,0,0-4.15-1.88C23.76,72.25,18,78.79,13.67,83.83a2.09,2.09,0,0,0,1.42-.27,53.91,53.91,0,0,1,5.76-6c2.55-2.19,5.74-4.29,9.25-3.79a5.51,5.51,0,0,1,4,2,7.49,7.49,0,0,1,1.08,4,8.06,8.06,0,0,1-1.35,4.45q-1.66,2.8-3.45,5.52-3.71,5.63-7.92,10.88a44.7,44.7,0,0,1-8.21,8.28c-2.78,2-6.27,3.69-9.8,3.36-3-.27-3.24-3.1-2.81-5.55,1.57-9,7.71-16.42,13.48-23.19A2.2,2.2,0,0,0,13.67,83.83Z"/><path class="cls-3" d="M36.3,98.68h0A46.1,46.1,0,0,1,58.67,71.92a8.6,8.6,0,0,1,4.55-1.29c2.36.19,4.26,2.18,5.08,4.4a19,19,0,0,1,.7,7,27.89,27.89,0,0,1,16.25-8,8.2,8.2,0,0,1,5.16.64,10,10,0,0,1,3.25,3.85c3.92,7.82-1.23,17.1-5,25-2.47,5.21-8.07,10-15,9s-3-10,.53-19c-.88,3.76-4.5,6.94-8.35,6.58A6.29,6.29,0,0,1,60.57,92c-1.23,6.36-5.39,16.19-12.14,18.52C39.43,113.62,33.54,107.52,36.3,98.68Z"/><path class="cls-3" d="M37,98.59A45.25,45.25,0,0,1,58,72.77c1.8-1,3.95-2.28,6-1.47,4.27,1.65,4.37,7,4.28,10.84,0,.58,1.07.26,1.3,0a27.47,27.47,0,0,1,8.07-5.63,22,22,0,0,1,9.57-2.24c3.55.17,5.7,3.5,6.59,6.63a17.5,17.5,0,0,1-.26,9.33,56.22,56.22,0,0,1-3.73,9.43,34,34,0,0,1-4.19,7.47,13.89,13.89,0,0,1-7.23,4.74c-2.2.53-5.75.79-7.19-1.39s-.49-5.18.13-7.35c1-3.32,2.31-6.52,3.57-9.73l-1.45.18c-.88,3.44-4.27,7-8.13,5.92a6.09,6.09,0,0,1-4-7.64l-1.45.18c-1.11,5.56-3.49,11.57-7.66,15.55-3.81,3.64-11.2,5.07-14.52,0-1.75-2.68-1.53-6.09-.64-9,.15-.51-1.3-.31-1.45.18-.87,2.89-1.09,6.17.43,8.89a8.13,8.13,0,0,0,6.26,4c6.81.83,12.13-3.73,15.23-9.34a36.28,36.28,0,0,0,3.8-10.43c.11-.58-1.3-.27-1.45.18a6.6,6.6,0,0,0,5.71,8.44c4.36.38,8.3-3,9.35-7.08.14-.57-1.28-.25-1.45.18a97.72,97.72,0,0,0-3.71,10.24c-.58,2.15-1.24,5,0,7.05S74,113.17,76.24,113a15,15,0,0,0,8.3-3.4A20.91,20.91,0,0,0,90.06,102a79.6,79.6,0,0,0,4.52-10.54,19.4,19.4,0,0,0,.78-10.56c-.72-2.86-2.6-6.26-5.62-7.14-3.56-1-8,.31-11.37,1.62a29,29,0,0,0-10,6.53l1.31,0c.09-3.74.07-8.17-3.27-10.62-3.09-2.28-6.64-.57-9.57,1.09A46.71,46.71,0,0,0,40.8,87.68a45.53,45.53,0,0,0-5.22,11.09C35.42,99.27,36.87,99.08,37,98.59Z"/><path class="cls-3" d="M115.66,105.5c-2,4-7,6.7-9.2,7.25s-4.87.1-6.28-1.72c-1.62-2.08-1.12-5.07-.33-7.59a49.2,49.2,0,0,1,23-28.06c4-2.19,8.7-3.83,13-2.35,4.88,1.69,7.64,6.94,8.57,12a29.56,29.56,0,0,1-3.13,19.32c-1.6,2.93-3.94,5.73-7.16,6.62s-7.3-1-7.7-4.31c-3.05,2.12-7.2.64-10.58-.9"/><path class="cls-3" d="M115,105.42a14.77,14.77,0,0,1-8.08,6.67,5.82,5.82,0,0,1-5.31-.65c-1.79-1.37-1.92-3.76-1.56-5.81a37.35,37.35,0,0,1,4.66-11.56,49.54,49.54,0,0,1,7.38-9.78,47.17,47.17,0,0,1,9.74-7.72c3.89-2.32,8.78-4.59,13.37-3.11,8.36,2.69,9.72,14.27,8.54,21.57-.76,4.7-2.66,10-6.19,13.33a7,7,0,0,1-6.47,2.13,5.06,5.06,0,0,1-4-4c-.08-.53-.93-.32-1.21-.14-2.95,1.93-6.8.25-9.67-1-.61-.27-1.68.61-.84,1,3.6,1.62,7.86,3.09,11.48.74l-1.21-.14c.62,3.91,5.29,5.58,8.74,4.57,4.58-1.35,7.36-6,9-10.12a30.27,30.27,0,0,0,1.82-15.61c-.65-4.27-2.42-8.69-5.88-11.44-8.12-6.45-19.66,1.5-25.89,7.08a50.76,50.76,0,0,0-9.18,10.91,41.17,41.17,0,0,0-5.65,13.09c-.47,2.29-.39,4.92,1.45,6.61a7.19,7.19,0,0,0,6.52,1.29,16.18,16.18,0,0,0,9.76-7.67c.38-.72-1.09-.74-1.39-.16Z"/><path class="cls-4" d="M122.1,92.54a9.28,9.28,0,0,1,2.46-5.35,3,3,0,0,1,3.06-1A2.68,2.68,0,0,1,129,88.7c0,2.73-1.62,7-4.34,6.8C124.66,95.5,121.66,95.5,122.1,92.54Z"/><path class="cls-4" d="M122.81,92.42a8.73,8.73,0,0,1,2.74-5.57,1.61,1.61,0,0,1,1.07-.49,1.66,1.66,0,0,1,1.19.81,4,4,0,0,1,.44,2.46,8.94,8.94,0,0,1-1.59,4.46c-.3.4-.84,1-1.29,1.09a2.43,2.43,0,0,1-.63,0,2.67,2.67,0,0,1-1.31-.6,2.37,2.37,0,0,1-.62-2.13c.06-.4-1.38-.13-1.43.24a2.65,2.65,0,0,0,.55,2.26,2.91,2.91,0,0,0,1.53.8,4.48,4.48,0,0,0,3.88-1,8.29,8.29,0,0,0,2.33-5.18,4,4,0,0,0-.52-2.91A2.7,2.7,0,0,0,126,86c-2.81.93-4.18,4-4.59,6.71C121.32,93.05,122.76,92.8,122.81,92.42Z"/><path class="cls-3" d="M191.08,78.57c-2.68-4.8-8.62-7.2-14.09-6.63s-10.42,3.67-14.24,7.63a35.24,35.24,0,0,0-8.25,13.94c-1.61,5.17-1.69,11.57,2.33,15.2,2.58,2.32,6.35,3,9.78,2.42a31.71,31.71,0,0,0,9.67-3.69c-1.47,1.29-1.19,3.91.3,5.18a5.28,5.28,0,0,0,5.56.45,10.3,10.3,0,0,0,4.13-4.07,20.58,20.58,0,0,0,3-10.76,5,5,0,0,0-.7-2.9,5.52,5.52,0,0,0-2.53-1.61c-2.92-1.17-4.85-1-7.43.77-1.57,1.11-3.54,2.65-5.43,3-4.57,1-3.62-2.22-3.6-3,0-2.1,4.57-6.1,8-6.1,6,0,4.39,1.17,11.34-.45C195.66,86.5,191.08,78.57,191.08,78.57Z"/><path class="cls-3" d="M191.76,78.28C189,73.52,183.35,71.2,178,71.47c-6,.3-11.43,3.53-15.54,7.69a34.58,34.58,0,0,0-9.14,16.16c-1.17,5-.8,11.27,3.85,14.45,6.1,4.18,13.79.91,19.57-2.12l-1-.33c-2.47,2.43-.52,6.11,2.57,6.65,3.73.65,6.84-2,8.68-5,2.12-3.43,3.59-8,3-12.11-.47-3.42-5.36-4.81-8.32-4.19-1.93.4-3.43,1.6-5,2.69-1.38.95-3.94,2.71-5.67,1.69s-.25-4,.6-4.91a10.18,10.18,0,0,1,4.59-3.07,12.81,12.81,0,0,1,4.86,0,21.44,21.44,0,0,0,7.39-.54c2.78-.62,5-2.09,4.93-5.2a11.23,11.23,0,0,0-1.53-5c-.28-.48-1.68,0-1.45.39,1.65,2.89,2.81,7.83-1.46,8.93a19.07,19.07,0,0,1-7.2.6c-2.76-.31-5.36-.37-7.86,1-2,1.07-4.61,3-4.94,5.42-.17,1.25-.2,2.66,1.17,3.22,2.8,1.14,6.14-1.12,8.28-2.65,1.8-1.28,3.45-2.24,5.72-1.66,2,.51,4.15,1.4,4.46,3.68.6,4.49-1.25,9.86-4.07,13.31-1.55,1.9-4.1,3.47-6.54,2.18-1.81-1-2.63-3.67-1.06-5.21.63-.62-.75-.49-1-.34-5.15,2.7-11.69,5.56-17.2,2.06-4.35-2.77-4.94-8.43-4.09-13.07a32.72,32.72,0,0,1,7.21-14.75c3.55-4.26,8.37-8,13.95-9s11.78,1.3,14.71,6.35C190.65,79.26,192.06,78.81,191.76,78.28Z"/><path class="cls-3" d="M216.81,71.85c-5.33,2.13-6.69,4.46-9.59,7.46s-5.09,8.9-6.42,12.84c-1,2.95-8.5,20.19,7.8,22.51a36.05,36.05,0,0,0,7.77.24c3.59-.25,7.54-1.27,9.46-4.31,1-1.52,1.19-3.7-.05-5a5.43,5.43,0,0,0-2.43-1.25,31.94,31.94,0,0,0-12.22-1.15c-.8-1.53.65-3.41,2.31-3.89s3.44-.1,5.16-.14a10.64,10.64,0,0,0,8-4c1-1.28,1.66-3.15.72-4.47a4,4,0,0,0-1.53-1.16c-2.84-1.44-10.16,0-9.26-1.59-.9-5.4,7.18-3.27,10.1-4.4,3.37-1.3,6-4,3.67-8.54C228.42,71.26,222.13,69.72,216.81,71.85Z"/><path class="cls-3" d="M216.53,71.58c-6.88,2.81-11.82,8.93-14.6,15.66a64.05,64.05,0,0,0-4,12.29c-.82,4.35-.64,9.43,3,12.55,2.42,2.08,5.65,2.83,8.74,3.13,4.15.41,8.85.41,12.74-1.28a8.86,8.86,0,0,0,4.33-3.63c.87-1.58,1.07-3.79-.36-5.12-1.67-1.54-4.83-1.88-7-2.19a34.38,34.38,0,0,0-8.11-.18l.62.18a2.21,2.21,0,0,1,.18-2.14,3.4,3.4,0,0,1,3-1.41,31.84,31.84,0,0,0,5-.06A11.62,11.62,0,0,0,227.41,95a4.53,4.53,0,0,0,1-3.87,4,4,0,0,0-2.74-2.24c-2.16-.67-4.53-.44-6.76-.51-.62,0-1.47.07-1.64-.5a2.88,2.88,0,0,1,.57-2.57c1.27-1.27,4-.92,5.67-1a10.41,10.41,0,0,0,5.43-1.5c2-1.28,3.37-3.32,2.92-5.79-1.24-6.88-10-7.44-15.32-5.42-.95.36-.08.79.56.55a12,12,0,0,1,9.39.2c2.49,1.19,4.49,4,3.93,6.87-.45,2.29-2.84,4-5.08,4.23-1.86.21-3.75,0-5.61.38-1.41.24-3.09.78-3.72,2.2-.42,1-.63,2.62.59,2.94,1.89.5,4,.13,6,.28a6.37,6.37,0,0,1,3.59,1.14c1.57,1.28.86,3.38-.18,4.75a9.53,9.53,0,0,1-4.78,3.28c-2.06.61-4.09.15-6.19.29s-5.78,1.89-4.59,4.69c.1.23.43.2.62.19a30.87,30.87,0,0,1,7.19.14c1,.14,2,.32,2.93.54a9.11,9.11,0,0,1,3.68,1.36c1.5,1.22,1.26,3.47.34,5a8.07,8.07,0,0,1-4.73,3.29,27.35,27.35,0,0,1-12.69.19,11.43,11.43,0,0,1-6.53-3.55c-5-5.89-1-15,1.28-21.19,1.38-3.73,3-7.45,5.74-10.37,1.14-1.2,2.21-2.48,3.45-3.59a18.34,18.34,0,0,1,5.41-3.23C218,71.74,217.16,71.32,216.53,71.58Z"/></svg>