<svg id="レイヤー_1" data-name="レイヤー 1" xmlns="http://www.w3.org/2000/svg" viewBox="0 0 165.92 111.98"><defs><style>.cls-1{fill:#1578db;}.cls-2{fill:#fff;}.cls-3{fill:#c7bb7d;}.cls-4{fill:#736424;}</style></defs><path class="cls-1" d="M61.32,103.49h0c-19-3-37.69-11-51.1-25C2.06,70-5.81,47.59,13.45,34.19,34.53,19.53,50.52,20.76,79.18,18.76a10.86,10.86,0,0,0,4.42-.91C85.35,16.92,99.71.76,100,.89c-.25-.13,5.36,16.88,8.84,18.32,9.89,4.08,27.24,11.52,39.63,23,17.12,15.89,18.26,45-11.55,56.85C121.16,105.36,91.77,109.12,61.32,103.49Z"/><path class="cls-1" d="M62.2,102.65C45.35,100,28.71,93.45,15.83,82c-4.46-3.94-8-8.2-10.32-13.75A31,31,0,0,1,3.37,51.05C4.69,43.92,9.12,38.27,15,34.24a71.07,71.07,0,0,1,19.4-9.54,97.52,97.52,0,0,1,20.07-3.48c8.16-.71,16.35-1,24.52-1.58,2.69-.19,5-.66,7-2.53,1.57-1.48,3-3.07,4.53-4.64C93.79,9,97,5.45,100.25,2l.54-.54c.37-.4.19-.12-.24.07l-1.14.22h0L100.14,0h0c-.59.11-1.46.36-1.63,1a2.61,2.61,0,0,0,.26,1.19c.28.9.59,1.8.9,2.69.9,2.53,1.87,5,3,7.49a25.76,25.76,0,0,0,3.6,6.36,5.24,5.24,0,0,0,2.15,1.47c1.42.59,2.84,1.18,4.26,1.79a160.91,160.91,0,0,1,21.12,10.8c6.53,4,13.09,8.75,17.81,14.9,6.93,9,9.73,21.45,5.24,32.2-5.39,12.93-18.83,18.87-31.65,21.88-17.88,4.22-36.86,4.49-55,2.09-2.66-.35-5.31-.78-7.94-1.26a2.38,2.38,0,0,0-2.05.55c-.41.42-.35,1,.3,1.13a164.77,164.77,0,0,0,58.42.47c13.86-2.48,29-7,37.54-19.11,6.91-9.78,7-22.59,1.64-33.08-3.11-6.09-7.74-10.87-13.09-15a121,121,0,0,0-22.18-13.42c-3.27-1.58-6.59-3.05-9.93-4.46a16.58,16.58,0,0,1-3.31-1.44A7.81,7.81,0,0,1,107.76,16a64,64,0,0,1-6-14.21c-.09-.29-.17-.58-.26-.86s0-.5-.09-.19l-1.63,1h0c.53-.09,1.41-.32,1.59-.92S101,0,100.51,0c-1.61,0-2.58,1.4-3.58,2.47C95.29,4.21,93.68,6,92.05,7.73c-1.88,2-3.76,4.06-5.68,6.06-.73.76-1.47,1.52-2.22,2.26-.28.27-.56.54-.85.8s-.55.45-.42.37c-1.51.88-3.8.69-5.5.8l-6.91.43c-4.1.24-8.21.46-12.31.76a120,120,0,0,0-21.27,3.08,73.21,73.21,0,0,0-20,8.57c-6.46,4-12.29,8.74-15.11,16C-2.36,57.42,1.1,70.8,8.75,79c12,12.8,28.76,20.56,45.7,24.23q3,.64,6,1.13a2.38,2.38,0,0,0,2-.55C62.9,103.37,62.86,102.76,62.2,102.65Z"/><path class="cls-2" d="M63.72,38.24h2.47V48.47H63.72V40.86h0l-2.7,2V40.21Z"/><path class="cls-2" d="M86.46,45v2H81.81v2.87H79.72V46.92H73.47V45h2.17V41.82a7,7,0,0,1-.5.56A11.17,11.17,0,0,0,73.39,41,8.32,8.32,0,0,0,75,39a11.41,11.41,0,0,0,1.18-2.59L78.3,37c-.08.22-.2.54-.39,1h7.73v2H81.81v1.43H85.3v1.89H81.81V45Zm-6.74-5.06H76.94A14.15,14.15,0,0,1,76,41.34h3.72Zm-2,5.06h2V43.23h-2Z"/><path class="cls-2" d="M96.07,43.16a3.74,3.74,0,0,0-.47-1.82,1.79,1.79,0,0,0-1.34-.89c0,.89-.09,1.78-.18,2.68a10.46,10.46,0,0,1-.51,2.49,5.22,5.22,0,0,1-1,1.81,1.74,1.74,0,0,1-1.44.64,2.39,2.39,0,0,1-1.23-.42,2.94,2.94,0,0,1-1-1.29,6.24,6.24,0,0,1-.42-2.45,6.49,6.49,0,0,1,.62-2.75,5.33,5.33,0,0,1,1.57-2A4.28,4.28,0,0,1,93,38.28a5.28,5.28,0,0,1,2.46.39,4,4,0,0,1,1.86,1.65,6,6,0,0,1,.8,3,6.93,6.93,0,0,1-.4,2.66,4.59,4.59,0,0,1-1.12,1.73,4.29,4.29,0,0,1-1.5.89,4.69,4.69,0,0,1-1.47.27v-2a2.24,2.24,0,0,0,1.83-1A4.42,4.42,0,0,0,96.07,43.16Zm-4.86,2.75c.21,0,.38-.17.52-.53A6.63,6.63,0,0,0,92.07,44c.09-.57.16-1.16.2-1.78s0-1.18,0-1.7a2,2,0,0,0-1,.78,4.73,4.73,0,0,0-.62,1.3,5.66,5.66,0,0,0-.24,1.34,3.68,3.68,0,0,0,.18,1.5C90.78,45.72,91,45.89,91.21,45.91Z"/><path class="cls-2" d="M13.56,59.35h4.29a5.27,5.27,0,0,1-.05.82,28.63,28.63,0,0,1-.38,3.39,3.41,3.41,0,0,1-.61,1.56,2.33,2.33,0,0,1-1.54.71,17.87,17.87,0,0,1-2.19,0,4.07,4.07,0,0,0-.24-1.09,4.8,4.8,0,0,0-.52-1c.63,0,1.33.08,2.07.08a1.09,1.09,0,0,0,.65-.18,4.78,4.78,0,0,0,.57-2.43H13.25l-.13.63-2-.32a41,41,0,0,0,.86-5.26h3.76V55h-4v-1.9h6v5H13.75C13.64,58.8,13.58,59.19,13.56,59.35Zm6.92-6.47h2.06v13H20.48Z"/><path class="cls-2" d="M26.29,55.14l1.43,0h1.35c-.08-.38-.15-.68-.21-.89L28.78,54H31c0,.18.07.36.11.54s.09.37.14.56c.56,0,1.06-.06,1.5-.11l1.08-.14.43-.06v1.94a19.89,19.89,0,0,1-2.54.25,5.44,5.44,0,0,0,.15.54q.08.26.15.54l1.49-.14,1.17-.12.45-.07v2l-1.27.17-1.3.12c.19.59.33,1.06.44,1.41a4.64,4.64,0,0,0,.18.52H30.87c-.08-.29-.17-.58-.26-.89s-.18-.61-.26-.92l-1.47,0-1.38,0H26v-2l2,0,1.76,0c-.05-.19-.09-.37-.14-.55a5.11,5.11,0,0,1-.13-.53l-1.6,0H26.29ZM27.24,61h2.17a5.2,5.2,0,0,0-.43.73,1.18,1.18,0,0,0-.13.58.77.77,0,0,0,.11.42.79.79,0,0,0,.44.27,5.64,5.64,0,0,0,1.14.12c.64,0,1.23,0,1.77-.07s1.14-.12,1.82-.22v2.27c-.19,0-.56,0-1.12.1s-1.41.1-2.55.11a4.6,4.6,0,0,1-2.77-.73,2.28,2.28,0,0,1-1-2,2.63,2.63,0,0,1,.14-.84A3.69,3.69,0,0,1,27.24,61Z"/><path class="cls-2" d="M49.91,59v1.76H48.17V64a2.61,2.61,0,0,1-.18,1.1,1.23,1.23,0,0,1-.65.59,7.6,7.6,0,0,1-2.49.27,6.73,6.73,0,0,0-.34-1.2H40.87v.69H39V61.18h5.84V64.1l1,0c.19,0,.28-.08.28-.22V60.75H37.41V59H39.5a4,4,0,0,0-.64-.92,7.39,7.39,0,0,0,2.73-.75H39.24V56.6H37.55V53.48h5.08v-.86h2v.86h5.08V56.6H48v.72H45a16.43,16.43,0,0,1,3.19,1l-.51.67ZM42.7,55.2H39.42v.56h3.2A4.44,4.44,0,0,0,42.7,55.2Zm.26,8v-.58H40.87v.58ZM41.81,59h3.48a21.85,21.85,0,0,0-2.22-.61A6.1,6.1,0,0,1,41.81,59Zm6-3.23V55.2H44.6s0,.23-.08.56Z"/><path class="cls-2" d="M53.3,58.25H52.1V56.16h1.23c0-.72,0-1.37,0-1.95h2c0,.58,0,1.23,0,1.95h2.92c0-.71,0-1.36,0-1.95h2c0,.56,0,1.21,0,1.95h1.19v2.09H60.24v1a4.54,4.54,0,0,1-.37,1.85A1.8,1.8,0,0,1,59,62a3.42,3.42,0,0,1-1.54.16,5,5,0,0,1-1.38-.27V60.17l.83.15c.22,0,.4,0,.54,0a1.18,1.18,0,0,0,.43,0,.51.51,0,0,0,.28-.31,2.44,2.44,0,0,0,.12-.8v-1h-3c0,.06,0,.25,0,.57s0,.7,0,1.11,0,.82,0,1.18a3.05,3.05,0,0,0,.22,1.13,1.36,1.36,0,0,0,.6.63,2.76,2.76,0,0,0,1.16.24,14.75,14.75,0,0,0,1.63,0c.51,0,1.08-.11,1.72-.21V65c-.59.06-1.14.1-1.64.12s-1.07,0-1.71,0a7.26,7.26,0,0,1-1.88-.33,2.63,2.63,0,0,1-1.44-1.14,4.72,4.72,0,0,1-.6-2.33c0-.39,0-.81,0-1.27S53.31,59,53.3,58.25Z"/><path class="cls-2" d="M63.69,56.45V54.3h4v2.15Zm9.09.31A12.25,12.25,0,0,1,71,60.84a10.15,10.15,0,0,1-2.38,2.42,8.93,8.93,0,0,1-2.35,1.21,8.49,8.49,0,0,1-1.81.42c-.47,0-.71.06-.72,0V62.71a4.67,4.67,0,0,0,.56,0,6.73,6.73,0,0,0,1.4-.28,6,6,0,0,0,1.8-.94A8.91,8.91,0,0,0,69.2,59.7a10.61,10.61,0,0,0,1.41-2.94Zm-9.09,3V57.62h4v2.15Zm6.8-3.54v-2h.94v2Zm1.47,0v-2h1v2Z"/><path class="cls-2" d="M82.37,53.33a1.46,1.46,0,0,1,1.07-.44,1.51,1.51,0,0,1,1.07,2.59,1.46,1.46,0,0,1-1.07.43h0v.51a9.41,9.41,0,0,1-.63,3.46,8.34,8.34,0,0,1-1.44,2.39,6.69,6.69,0,0,1-1.76,1.45,9.81,9.81,0,0,1-1.76.79,8.41,8.41,0,0,1-1.37.34,3.45,3.45,0,0,1-.54.06V62.72a9,9,0,0,0,1.91-.47,5.53,5.53,0,0,0,1.6-1,4.93,4.93,0,0,0,1.31-1.79,7.9,7.9,0,0,0,.57-2.88H75V54.41h6.91A1.5,1.5,0,0,1,82.37,53.33Zm1.75,1.08a.63.63,0,0,0-.2-.49.7.7,0,0,0-1,0,.66.66,0,0,0-.19.49.68.68,0,0,0,1.15.48A.62.62,0,0,0,84.12,54.41Z"/><path class="cls-2" d="M86.22,56.45V54.3h4v2.15Zm9.09.31a12.67,12.67,0,0,1-1.83,4.08,10.18,10.18,0,0,1-2.39,2.42,8.88,8.88,0,0,1-2.34,1.21,8.56,8.56,0,0,1-1.82.42c-.47,0-.7.06-.71,0V62.71a4.69,4.69,0,0,0,.56,0,7,7,0,0,0,1.4-.28,6,6,0,0,0,1.8-.94,8.87,8.87,0,0,0,1.74-1.77,10.61,10.61,0,0,0,1.41-2.94Zm-9.09,3V57.62h4v2.15Z"/><path class="cls-2" d="M97.17,60.52V58.38h6.32v2.14Z"/><path class="cls-2" d="M116.83,53.15l1.36.59A9.24,9.24,0,0,1,116,57.36a10.43,10.43,0,0,0,2.63.91A5.51,5.51,0,0,0,118,59a8.22,8.22,0,0,0-.56.87,11,11,0,0,1-3-1.3A12.41,12.41,0,0,1,111.38,60a7.78,7.78,0,0,0-.88-1.42,7.75,7.75,0,0,1,.52,1.63l-1.42.64a3.88,3.88,0,0,0-.14-.64l-.46,0v1l1.19-.39a17.73,17.73,0,0,1,.86,2.55l-1.49.53c-.07-.37-.26-1-.56-2v4h-1.77V61.83a11.24,11.24,0,0,1-.72,3.12,8.27,8.27,0,0,0-1.53-.74,9.61,9.61,0,0,0,.64-3.22l1.61.27v-.89l-1.94.12-.17-1.75,1.06,0,.51-.67a11.76,11.76,0,0,0-1.57-1.86l.95-1.4.26.24a14.52,14.52,0,0,0,.92-2.36l1.75.64c-.73,1.39-1.25,2.33-1.57,2.83a3.44,3.44,0,0,1,.28.36c.41-.68.8-1.39,1.17-2.15l1.64.75c-.65,1-1.24,1.82-1.77,2.54l1.08-.45q.28.54.54,1.11a9.94,9.94,0,0,0,2.5-1,10.13,10.13,0,0,1-1.47-2l1.08-.35H110.8V53.24h5.66ZM108,58.65l1,0c-.21-.48-.33-.73-.35-.77C108.36,58.13,108.15,58.4,108,58.65Zm7.56,3.85v1.29h2.93v1.78h-8V63.79h3V62.5h-2.21V60.73h2.21V59.26h2v1.47h2.35V62.5ZM115.41,55h-2.12a7.09,7.09,0,0,0,1.07,1.26A8.35,8.35,0,0,0,115.41,55Z"/><path class="cls-2" d="M121.51,61.85l.82-.08a11.7,11.7,0,0,1,.11,2.59l-.87.11a13.37,13.37,0,0,0-.07-2.58,6.26,6.26,0,0,1-.78,3.24l-1-.53a6.08,6.08,0,0,0,.72-3.08l1.07.21Zm11.31.15H130.9a5.3,5.3,0,0,0,2.46,2.32,6.22,6.22,0,0,0-1.29,1.59,6,6,0,0,1-2.42-2.72,6.53,6.53,0,0,1-3,2.77,5.2,5.2,0,0,0-.87-1.06,1.42,1.42,0,0,1-.19.39,1.21,1.21,0,0,1-.86.55,5.32,5.32,0,0,1-1.23.07,3.72,3.72,0,0,0-.43-1.55,5.35,5.35,0,0,0,.73,0,.47.47,0,0,0,.37-.2,2.44,2.44,0,0,0,.2-.93l-.45.15a7.49,7.49,0,0,0-.53-1.8l.74-.23a6.28,6.28,0,0,1,.32.8c0-.54,0-.93.06-1.14h-3.93v-8h5.27v1.63h-1.3v.5h1v.66a7.39,7.39,0,0,0,1.69-1.48,9,9,0,0,0,1.23-1.8h1.75a11.08,11.08,0,0,0,1.49,1.85,5.73,5.73,0,0,0,1.71,1.21,9.43,9.43,0,0,0-1,1.77,7,7,0,0,1-.76-.55v.7h-1.22v.53h2.41Zm-9.9-7.26h-.71v.5h.71Zm0,2h-.71v.62h.71Zm-.71,2.12v.62h.71v-.62Zm.24,2.91.81-.13a11,11,0,0,1,.4,2.27l-.85.16A11.84,11.84,0,0,0,122.45,61.79Zm2.07-2.29h1.65c0,.29,0,.5,0,.64a39.42,39.42,0,0,1-.29,4.18A5,5,0,0,0,128.14,62h-1.8V58.13h2.28V57.6h-1.3v-.73a7,7,0,0,1-1,.75,9.76,9.76,0,0,0-.77-1.42v.56h-1v.62h1v1.5h-1Zm3.44,1h.58c0-.35.07-.67.08-1H128Zm.21-4.5h2.53a10.29,10.29,0,0,1-1.3-1.65A9.52,9.52,0,0,1,128.17,56.05Zm2.93,4.5v-1h-.69c0,.31,0,.63,0,1Z"/><path class="cls-2" d="M147.56,56.16h-7.48l-.42.81H146v6.86a3.17,3.17,0,0,1-.17,1.15,1.26,1.26,0,0,1-.63.64,2.67,2.67,0,0,1-1,.28c-.37,0-.89,0-1.56,0a6.38,6.38,0,0,0-.6-2c.4,0,.95.05,1.64.05.21,0,.32-.09.32-.25v-.51h-4.64v2.63h-2V60.14a9.66,9.66,0,0,1-1.56,1.35,9.64,9.64,0,0,0-1.37-1.57,10,10,0,0,0,3.31-3.76h-2.83V54.25h3.7a16.7,16.7,0,0,0,.5-1.64l2.12.47-.4,1.17h6.7Zm-3.51,3.16v-.59h-4.64v.59Zm-4.64,2.28h4.64V61h-4.64Z"/><path class="cls-2" d="M35.61,78.79v0h3.87v1.92h-7V78.81a26,26,0,0,0,3.63-3.15,3.23,3.23,0,0,0,.88-2c0-.85-.48-1.28-1.44-1.28a7.33,7.33,0,0,0-2.87.78V71a8.9,8.9,0,0,1,3.23-.59,3.81,3.81,0,0,1,2.61.81,2.82,2.82,0,0,1,.91,2.23,4.09,4.09,0,0,1-.78,2.37A18,18,0,0,1,35.61,78.79Z"/><path class="cls-2" d="M46.1,74.06a3.35,3.35,0,0,1,2.42.82,3.21,3.21,0,0,1,.84,2.38c0,2.4-1.42,3.6-4.28,3.6a8.87,8.87,0,0,1-2.66-.38v-2A7.8,7.8,0,0,0,45,79c1.36,0,2-.58,2-1.72a1.24,1.24,0,0,0-1.4-1.4,1.84,1.84,0,0,0-1.21.53h-2l.29-5.89H48.9v1.93H44.81l-.1,1.9h0A3.38,3.38,0,0,1,46.1,74.06Z"/><path class="cls-2" d="M67.71,71.65H60.43c0,.44,0,1.09-.1,2h6.33c0,.41,0,.7,0,.86-.1,2.12-.22,3.67-.37,4.64a4.37,4.37,0,0,1-.63,1.95,2,2,0,0,1-.71.55,2.93,2.93,0,0,1-.94.24,15.63,15.63,0,0,1-2.45,0,4,4,0,0,0-.72-2c.62,0,1.39.08,2.29.08a1,1,0,0,0,.67-.21c.33-.3.56-1.7.69-4.21H60.1a11.65,11.65,0,0,1-1.29,3.7A7.73,7.73,0,0,1,56.12,82a5.55,5.55,0,0,0-.65-.9,5,5,0,0,0-.83-.78,6.4,6.4,0,0,0,1.27-.93,5.89,5.89,0,0,0,.93-1.05,5.69,5.69,0,0,0,.63-1.2,9.76,9.76,0,0,0,.41-1.27,10.64,10.64,0,0,0,.22-1.37c.06-.51.09-1,.11-1.37s0-.87.06-1.39v-.1h-3v-2H67.71Z"/><path class="cls-2" d="M82.28,69.61V79.76A3.3,3.3,0,0,1,82.09,81a1.36,1.36,0,0,1-.66.7,3.09,3.09,0,0,1-1.05.3q-.61.06-1.71.06a5.81,5.81,0,0,0-.73-2c.37,0,1,0,1.92,0,.24,0,.37-.11.37-.34V76.85h-8V82h-2V69.61Zm-10,2v3.22h2.86V71.62Zm4.89,3.22h3.07V71.62H77.16Z"/><path class="cls-2" d="M97.54,73.17h-.88a16.58,16.58,0,0,1-1.27,5,6.4,6.4,0,0,0,2.31,2.12,5.73,5.73,0,0,0-.76.82,8.39,8.39,0,0,0-.66,1,7.38,7.38,0,0,1-2-2,8.3,8.3,0,0,1-2.48,2,6,6,0,0,0-1-1.58,1.42,1.42,0,0,1-.62,1.26,4.4,4.4,0,0,1-1.89.29,4.91,4.91,0,0,0-.52-1.66,6.4,6.4,0,0,0,1,0c.13,0,.2-.06.2-.18V80h-2v2H85.07V75h5.66l.27-.5H84.27V72.77h1.37v-.9H84.47V70.21h1.17V69h1.83v1.25h.91V69h1.86v1.25h1.17v1.66H90.24v.9h1v1.09a17.42,17.42,0,0,0,1.06-5.12l2,.29c-.09.74-.21,1.5-.35,2.26h3.57Zm-8.62,3.28h-2v.33h2Zm-2,2.09h2V78.2h-2Zm.54-6.67v.9h.91v-.9Zm3.33,3.46v4.91a6.2,6.2,0,0,0,2.39-2.15,19,19,0,0,1-.7-2.15,9.32,9.32,0,0,1-.61,1A9.82,9.82,0,0,0,90.8,75.33Zm3.85-2.16H93.59a15.66,15.66,0,0,0,.62,2.54A15.1,15.1,0,0,0,94.65,73.17Z"/><path class="cls-2" d="M100.55,78.47l1.94.49a8.44,8.44,0,0,1-2.09,3.12,8.56,8.56,0,0,0-1.63-1.15,5.13,5.13,0,0,0,1-1.09A6.13,6.13,0,0,0,100.55,78.47Zm11.7-6.42v1.87H110.9v5.92a3.52,3.52,0,0,1-.16,1.15,1.33,1.33,0,0,1-.55.67,4.6,4.6,0,0,1-2.25.41,5.71,5.71,0,0,0-.69-2l1.35,0c.19,0,.29-.09.29-.28V76.48a12.24,12.24,0,0,1-2.6,3.39,7.89,7.89,0,0,0-1.26-1.4h-1a9.25,9.25,0,0,1,1.55,2.24l-1.71.85a9,9,0,0,0-1.49-2.4l1.56-.69H99.74V69.3h5.39v8.91a9.78,9.78,0,0,0,1.7-1.88,13.94,13.94,0,0,0,1.36-2.41h-2.75V72.05h3.45V68.81h2v3.24Zm-9.12-.15v-1h-1.49v1Zm0,2.48v-1h-1.49v1Zm0,2.49v-1h-1.49v1Z"/><path class="cls-2" d="M118.87,70.5h2.84l-.34,7h-2.16Zm.21,10.23V78.62h2.43v2.11Z"/><path class="cls-3" d="M18.8,22h0a3.66,3.66,0,0,1,1.08-1.2,3.3,3.3,0,0,1,1.27-.39A18.32,18.32,0,0,1,37.81,27a20.53,20.53,0,0,0,2.71,3.17A4,4,0,0,0,44.4,31a43.3,43.3,0,0,1-7.62,11.69,1.53,1.53,0,0,1-.55.43,1.39,1.39,0,0,1-.73,0,6.9,6.9,0,0,1-1.68-.36A5.8,5.8,0,0,1,31,40c-.65-1.17-1.12-2.43-1.88-3.53A10.24,10.24,0,0,0,24,32.83a20.69,20.69,0,0,0-6.31-1c-2.16-.05-5.36.3-3.66-2.66C15.48,26.73,17.23,24.41,18.8,22Z"/><path class="cls-2" d="M19.49,22.11c1.35-2,5.26-1.42,7.35-1a18,18,0,0,1,6.87,2.95c2.11,1.49,3.45,3.44,5.11,5.35,1.44,1.66,3.49,2.81,5.71,2.07l-.82-.55a43.5,43.5,0,0,1-3.34,6.15c-.69,1.06-1.43,2.09-2.21,3.08-.59.74-1.46,2.24-2.4,2.48-1.16.28-2.59-.89-3.24-1.7a16.82,16.82,0,0,1-1.75-3.09,10.24,10.24,0,0,0-3.63-4.19c-3.43-2.22-7.29-2.06-11.19-2.33-.53,0-1.35,0-1.59-.62-.33-.74.74-2,1.09-2.59,1.27-2.05,2.7-4,4-6,.43-.64-1-.65-1.38-.14-1.21,1.82-2.5,3.58-3.68,5.43-.61.94-2,2.6-1.46,3.85.38.85,1.52,1,2.34,1.07,1.64.14,3.27,0,4.91.23a13.32,13.32,0,0,1,6.11,2.12c1.8,1.25,2.67,3,3.63,4.87a7.06,7.06,0,0,0,3.28,3.63c1.36.58,3,.84,4.14-.29a41.15,41.15,0,0,0,7.71-11.82c.22-.49-.46-.66-.82-.54-3.16,1.07-5.23-3.47-7.05-5.27A18.73,18.73,0,0,0,31.1,21.2a19.21,19.21,0,0,0-7.18-1.45c-2.33,0-4.44.15-5.81,2.22C17.69,22.61,19.16,22.61,19.49,22.11Z"/><path class="cls-4" d="M23.16,25l-1.82,3.36c-.05.09.06.17.13.19a.94.94,0,0,0,.47,0,1.16,1.16,0,0,0,.84-.43l1.82-3.35c0-.1-.07-.17-.13-.2a1.07,1.07,0,0,0-.47,0,1.16,1.16,0,0,0-.84.43Z"/><path class="cls-4" d="M27.8,26.89a3.27,3.27,0,0,0-2.95.75,1.64,1.64,0,0,0-.56,1.12,1.41,1.41,0,0,0,.48,1,3.08,3.08,0,0,0,2.78.54,2.35,2.35,0,0,0,2-1.88,1.34,1.34,0,0,0-.47-1.1A1.8,1.8,0,0,0,27.53,27a2.09,2.09,0,0,0-.55.18c-.09,0-.26.14-.29.25-.09.27.49.21.59.19s-.18,0,0,0,.09,0,0,0l.07,0a1,1,0,0,1,.32.18,1.21,1.21,0,0,1,.39.67,1.33,1.33,0,0,1-.16.83,1.86,1.86,0,0,1-.21.28l-.08.07,0,0-.1.06c.1-.06-.07,0,0,0s0,0,0,0,.05,0,0,0c.22-.05-.17,0,0,0h-.12s.07,0,0,0l-.22,0a1.77,1.77,0,0,1-.8-.33A1.14,1.14,0,0,1,25.87,28a1.4,1.4,0,0,1,.28-.36h0l.13-.1s.08,0,0,0,.07,0,.08,0h0c.13-.06-.1,0,0,0h0c.07,0-.08,0,0,0a.63.63,0,0,1,.19,0,1.43,1.43,0,0,0,1-.17c.14-.07.5-.34.17-.43Z"/><path class="cls-4" d="M30.76,28.43a2.19,2.19,0,0,0-1.89.28A1.92,1.92,0,0,0,28,29.93a4.06,4.06,0,0,0-.08.7,3.66,3.66,0,0,0,0,.74,1.32,1.32,0,0,0,1,1,3.39,3.39,0,0,0,3.38-.56,1.66,1.66,0,0,0,.57-1.27,1.7,1.7,0,0,0-.48-1.05,4.83,4.83,0,0,0-1.15-.85,1.36,1.36,0,0,0-.89-.13c-.35.05-1,.25-.94.7,0,.11.2.16.28.18a1.4,1.4,0,0,0,.54,0c.23-.07.66-.22.63-.53a.16.16,0,0,1-.09.17l-.3.17a1.06,1.06,0,0,1-.53.08c.11,0,0,0,0,0a1.62,1.62,0,0,0,.18.1,3.13,3.13,0,0,1,.34.21,3.66,3.66,0,0,1,.66.58,1.15,1.15,0,0,1,.07,1.44l-.07.07h0l-.1.09s-.1.07,0,0-.07,0-.07,0,.08-.09,0,0-.17.08,0,0c0,0-.22.08,0,0l-.12,0h0s-.25,0-.15,0a3.21,3.21,0,0,1-.5-.09,1,1,0,0,1-.68-.45,2.15,2.15,0,0,1-.11-1,2.08,2.08,0,0,1,.28-1l.06-.08c.06-.08,0,0,0,0l.09-.08c-.1.08,0,0,0,0l0,0c.08,0,.06,0-.06,0,.12,0-.05,0-.1,0h-.06c.09,0-.06,0,.05,0a1.25,1.25,0,0,0,1-.15c.16-.1.47-.4.14-.52Z"/><path class="cls-4" d="M32.65,30.42a2.35,2.35,0,0,0-1.53,2.33,2.4,2.4,0,0,0,1.75,2,2.89,2.89,0,0,0,3.1-.93,2.68,2.68,0,0,0-.29-3,1.88,1.88,0,0,0-1.46-.77,2,2,0,0,0-1.78.88c-.16.3.15.52.43.53a1,1,0,0,0,.94-.42s.11-.12,0,0l.06-.06s-.1.08,0,0l-.09,0,.08,0s-.18.07-.06,0-.14,0,0,0,0,0,0,0a.71.71,0,0,1,.14,0c-.1,0-.07,0,0,0s.17.06,0,0l.17.1.07.05a.6.6,0,0,0,.08.08l.19.24a3,3,0,0,1,.38,1,1.48,1.48,0,0,1-.09,1.06l-.06.08c.07-.09,0,0,0,0l-.09.09c.09-.1,0,0,0,0a1,1,0,0,1-.13.09s.16-.08,0,0l-.09,0c-.14.07.16,0,0,0,0,0-.12,0-.13,0s.17,0,.05,0l-.15,0c-.1,0,0,0,0,0s-.22,0-.26,0,.13,0,0,0l-.16,0-.12,0c-.09,0,.12.06,0,0l-.22-.13a1,1,0,0,1-.17-.12c-.13-.09,0,.07-.06,0L33,33.4a1.51,1.51,0,0,1-.42-.82,1.18,1.18,0,0,1,0-.46,2.61,2.61,0,0,1,.06-.27c0,.08,0,0,0,0a1,1,0,0,1,.07-.15,1.88,1.88,0,0,1,.14-.24c-.06.09,0,0,0,0l.12-.13h0l.12-.09,0,0s.15-.07.18-.08c.24-.09.57-.42.36-.68s-.7-.18-1-.07Z"/><path class="cls-4" d="M34.31,34.28a2.73,2.73,0,0,0,0,2.67c.67.84,2,.61,2.84.2a2.84,2.84,0,0,0,1.58-2,1.8,1.8,0,0,0-.9-1.92,2.53,2.53,0,0,0-2.94.52.21.21,0,0,0,0,.28.61.61,0,0,0,.39.11,1.31,1.31,0,0,0,1-.38c-.11.11.06,0,.07-.06l-.08,0,.07,0c.06,0,0,0-.07,0l0,0-.08,0,.07,0c-.18.08-.14,0-.05,0s-.17,0,0,0h.1c.08,0-.16,0,0,0l.18,0c.09,0,0,0,0,0l.11,0,.19.09h0l.07.05.15.13.12.14a.22.22,0,0,1,0,.08c0-.06,0,.06,0,.05a1.57,1.57,0,0,1,.16.87,2.39,2.39,0,0,1-.09.45,1.89,1.89,0,0,1-.09.21l0,.09s0,.07-.05.08-.17.24-.26.36.08-.07,0,0l-.07.06-.11.09c-.09.08.1-.06,0,0l-.1.06c-.11.07,0,0,0,0a.3.3,0,0,1-.1,0c-.1,0-.09,0,0,0s-.08,0-.11,0,.2,0,0,0h-.13c-.08,0,0,0,0,0s-.11,0-.13,0-.08,0,0,0l-.1,0a.82.82,0,0,1-.32-.26c-.55-.66-.2-1.62.06-2.32,0-.11-.06-.21-.14-.25a1,1,0,0,0-.48,0c-.29.05-.71.17-.83.48Z"/><path class="cls-2" d="M17.89,23.38A54.84,54.84,0,0,0,14.58,19a4.68,4.68,0,0,0-1.82-1.42,4.74,4.74,0,0,0-3,.07,52.54,52.54,0,0,0-5.44,2.08C3,20.23.57,21.05.58,22.8c0,.5.44.7.9.7,1.9,0,3.79,0,5.68-.14l-1-1.13c-.94,1.08-1.87,2.16-2.81,3.23-.7.81.2,1.24,1,1.14L9.11,26l-1-1.14a29.09,29.09,0,0,0-2.45,2.86c-.3.41.09.8.48.88a7.55,7.55,0,0,0,2.55.14A7.71,7.71,0,0,0,10,28.47l.61-.2.35-.14c.4-.17.13-.17-.83,0l-.31-.34c.11.23-.07.4-.13.64a1.45,1.45,0,0,0,0,.8,2,2,0,0,0,1,1.05c1.28.66,2.89.1,4.09-.46.43-.2,1.16-.69.76-1.23s-1.48-.29-1.93-.07a5.05,5.05,0,0,1-.53.24c-.06,0-.21,0-.1.07a.69.69,0,0,1-.43-.65c0-.28.22-.51.22-.8a.89.89,0,0,0-.51-.8,3,3,0,0,0-2.39.2,3.14,3.14,0,0,1-1.94.16l.48.89a22.87,22.87,0,0,1,2.08-2.42c.76-.78-.26-1.23-1-1.14l-4.76.62,1,1.13,2.8-3.23c.73-.84-.22-1.19-1-1.14-1.64.1-3.29.13-4.93.11l.9.7c0-.49.19-.63.61-.85.65-.35,1.36-.62,2-.9a40.55,40.55,0,0,1,4.05-1.54c.57-.18.86,0,1.27.46a14.93,14.93,0,0,1,1.25,1.49c.87,1.11,1.71,2.25,2.51,3.42.58.86,3.39-.12,2.68-1.16Z"/><path class="cls-2" d="M43.3,35.71A18.82,18.82,0,0,0,48,34.59c.18-.06.94-.25,1-.42-.68,0-.83.09-.45.28l.51.37,2.06,1.47,2,1.46c.3.21,1.4.87.76,1.35-.27.2-1.06-.15-1.37-.31a10.54,10.54,0,0,1-1.85-1.25,2,2,0,0,0-1.93,0c-.4.17-1.18.69-.76,1.2a6.17,6.17,0,0,1,.53.93c-.19.64.28.53,1.4-.33l-.38-.21-1.91-1c-.57-.31-3,.09-2.59,1.11a1.18,1.18,0,0,1,.09.46c0,.13-.14.31-.13.41l-.07.1.79-.14s-.37-.24-.4-.27a10.38,10.38,0,0,0-1.7-1.4,5.69,5.69,0,0,0-4.84,0c-.42.19-1.16.69-.76,1.21s1.47.25,1.92,0a2,2,0,0,1,1.94.57,4.58,4.58,0,0,0,2.28,1.49c1.7.29,4.56-1.19,3.77-3.26l-2.59,1.11c1.44.78,3,2,4.7,1.31a2.18,2.18,0,0,0,1.34-1.33,2.21,2.21,0,0,0-.7-1.92l-2.69,1.15c1.8,1.42,3.72,2.56,6.09,2,1.8-.42,4.15-2.35,2-3.94l-2.92-2.08-1.54-1.11a5.41,5.41,0,0,0-1.43-.88c-1.19-.37-2.28.26-3.37.66a13.56,13.56,0,0,1-3.2.7c-.53.05-1.54.37-1.64,1s.84.7,1.26.66Z"/><path class="cls-3" d="M132.19,107.78a14.06,14.06,0,0,1,4.33-2.55c7.77-3.53,14.63-8.76,22.14-12.79l-8.83-7.21A48.13,48.13,0,0,1,143.14,89h0c-4.2,2.1-19.45,11.61-19.45,11.61l3,1.91S132.09,107.87,132.19,107.78Z"/><path class="cls-2" d="M132.79,108c1.76-1.67,4.34-2.42,6.47-3.51s4.32-2.34,6.42-3.6c4.43-2.68,8.74-5.56,13.3-8,.32-.17.61-.53.25-.82l-8.84-7.21a1,1,0,0,0-1,.09c-2.76,2-5.91,3.25-8.85,4.92-2.33,1.32-4.64,2.71-6.94,4.09-3.46,2.1-6.91,4.21-10.35,6.36-.24.15-.37.54-.08.72a21.09,21.09,0,0,1,4.13,3c1,.94,1.9,1.89,2.86,2.82.44.43,1.14,1.4,1.81,1.47s1.49-.91.51-1c.25,0,.31.15.1,0l-.45-.42c-.41-.38-.81-.78-1.22-1.17l-2.76-2.74a21.06,21.06,0,0,0-3.86-2.71l-.08.73q5.14-3.21,10.34-6.35c2.32-1.4,4.64-2.8,7-4.12,2.93-1.65,6.05-2.94,8.8-4.9l-1,.1,8.83,7.21.25-.82c-4.67,2.52-9.09,5.46-13.63,8.2-2.31,1.4-4.66,2.74-7.09,3.92-2.1,1-4.32,1.8-6,3.43C130.94,108.19,132.34,108.41,132.79,108Z"/><path class="cls-4" d="M131.3,98.9l1.3,2.6.32.64a1.23,1.23,0,0,0,.32.49,1,1,0,0,0,.77.16,1.11,1.11,0,0,0,.93-.55c.11-.3-.47-.29-.61-.26s-.72.16-.83.46l.09-.11.3-.17h0l.39-.11h.31c-.06,0-.05,0,0,0s0,0,0,0a.73.73,0,0,0-.09-.09,3.5,3.5,0,0,1-.26-.51l-.48-1-1-2c-.14-.26-.58-.19-.82-.13s-.76.27-.63.52Z"/><path class="cls-4" d="M135.37,97.38a3,3,0,0,0,.3,2.23c.72,1,2.12.62,3,.15a3.86,3.86,0,0,0,1.24-.92,1.47,1.47,0,0,0,.26-1.37,3,3,0,0,0-4.38-.86,1.36,1.36,0,0,0-.42,1.4c.13.32.56.35.85.26s.73-.32.6-.64a.59.59,0,0,1-.05-.22h0a.59.59,0,0,0,0-.13s0-.09,0,0l0-.09a.75.75,0,0,0,.07-.12c0,.09,0,0,0,0s0,0,0,0L137,97l0,0c-.09,0-.1.06,0,0l.05,0L137,97s.19-.06.06,0,0,0,.07,0a.2.2,0,0,1,.11,0h0l.28,0c-.13,0,0,0,0,0l.14,0,.23.07.13,0c-.09,0,0,0,.06,0l.24.14.08.07c0-.05,0,0,0,0a1.54,1.54,0,0,1,.17.19l.06.08c0,.06,0,.06,0,0l0,.07a1.72,1.72,0,0,1,.07.21.59.59,0,0,1,0,.13c0,.08,0-.1,0,0a1.43,1.43,0,0,1,0,.22c0,.08.06-.08,0,0l-.08.13c.06-.1,0,0,0,0l-.08.09s-.1.07,0,0l-.1.08-.2.13-.11.07-.07,0,.05,0c-.17.09-.33.17-.5.24s0,0,0,0a.48.48,0,0,1-.17,0c-.1,0,0,0,0,0s-.13,0-.16,0,.11,0,0,0,.13.05,0,0l-.1,0h0s-.17-.13-.08,0A.93.93,0,0,1,137,99a.43.43,0,0,1,0-.07c-.06-.08,0,.07,0,0a1.55,1.55,0,0,1-.08-.23,2.34,2.34,0,0,1-.07-.45c0-.09,0,.11,0,0V98a2.09,2.09,0,0,1,0-.25,4.43,4.43,0,0,1,.06-.51c0-.34-.4-.45-.66-.42s-.75.2-.81.55Z"/><path class="cls-4" d="M139,95.77a1.35,1.35,0,0,0-.35,1.31,1.78,1.78,0,0,0,.83,1.07,2.65,2.65,0,0,0,1.88.19,4.49,4.49,0,0,0,1.81-.91c.82-.65,1.56-1.81,1-2.84s-2.16-1.24-3.24-1a2.78,2.78,0,0,0-2.18,2.89c0,.13.19.2.29.23a1.09,1.09,0,0,0,.54,0c.27-.08.66-.26.62-.6a1.75,1.75,0,0,1,.21-1,1.6,1.6,0,0,1,.26-.36l.09-.09c.13-.13-.06,0,0,0l.12-.08c.16-.11-.11,0,.07,0l.11-.05c.19-.08-.14,0,.06,0l.12,0c-.14,0,0,0,0,0l.16,0c.11,0-.16,0,0,0h.22a1.7,1.7,0,0,1,1,.51,1.08,1.08,0,0,1,.25,1,2,2,0,0,1-.52.93l-.21.2s-.15.12-.08.07l-.1.07-.23.15c-.18.11.12,0-.08,0l-.18.09-.13,0c.14-.06,0,0,0,0s-.18,0,0,0h-.13c-.19,0,.07,0,0,0H141s.1,0,0,0a1.39,1.39,0,0,1-.19-.06h0l-.13-.08,0,0a.94.94,0,0,1-.1-.1,1.17,1.17,0,0,1-.27-.41,1,1,0,0,1-.07-.45.93.93,0,0,1,0-.23c0,.08,0,0,0,0s.11-.15,0-.06c.2-.22.17-.5-.15-.57a1.15,1.15,0,0,0-1,.28Z"/><path class="cls-4" d="M142.43,93.61a1.88,1.88,0,0,0,1,2.18A2.64,2.64,0,0,0,145,96a3.66,3.66,0,0,0,1.67-.71,1.94,1.94,0,0,0,.63-2.44c-.55-.9-1.8-.85-2.7-.62A4.11,4.11,0,0,0,143,93c-.4.34-.73,1-.26,1.43.23.21.71.09.95,0s.63-.31.4-.53a.42.42,0,0,1-.12-.36.52.52,0,0,1,.07-.21s0,0,0,0a.27.27,0,0,0,.07-.08s0,0,0,0l.09-.07,0,0a1.71,1.71,0,0,1,.23-.12s-.15.07,0,0l.11,0,.11,0-.08,0,.09,0,.12,0c.07,0,.12,0,0,0a.91.91,0,0,0,.23,0c.16,0-.16,0,0,0h.12a.62.62,0,0,1,.13,0l.13,0c-.11,0,0,0,0,0l.21.09c.07,0-.07,0,0,0l.1.08.17.17a1.19,1.19,0,0,1,.19.88,1.66,1.66,0,0,1-.39.86c-.1.11.07-.06,0,0l-.07.07-.12.09c.1-.08,0,0,0,0s-.09.07-.13.07l.07,0-.06,0c-.14.06,0,0,0,0a1.24,1.24,0,0,0-.16,0c-.11,0,.19,0,0,0h0c-.07,0-.06,0,0,0s-.29,0-.13,0l-.24,0c.08,0,0,0,0,0l-.18-.07a1.54,1.54,0,0,1-.68-.72,1.41,1.41,0,0,1-.08-1c.09-.29-.46-.28-.61-.26s-.74.16-.83.47Z"/><path class="cls-4" d="M145.61,92.05a3.14,3.14,0,0,0,.12,1.72,1.77,1.77,0,0,0,1,.88,2.89,2.89,0,0,0,3.24-1,2.12,2.12,0,0,0-.22-2.7,2.68,2.68,0,0,0-3.22-.3,2,2,0,0,0-1,2.56c.15.26.57.19.81.12a1.47,1.47,0,0,0,.49-.23c.06,0,.2-.18.15-.28a1.29,1.29,0,0,1-.16-.9,1.62,1.62,0,0,1,.42-.82c.09-.1-.08.06,0,0l.07-.06h0l.12-.06s-.16.09,0,0-.17,0,0,0c-.21.05-.09,0,0,0s0,0,0,0h.1c-.15,0,0,0,0,0l.1,0,.07,0,.11,0a1.67,1.67,0,0,1,.46.28,1.79,1.79,0,0,1,.54,2,1.36,1.36,0,0,1-.22.41l-.1.12-.06.07-.06,0-.09.07c.07,0,.07,0,0,0s-.09.06-.1,0l.07,0,.06,0s-.19,0-.05,0,0,0,0,0h0l-.14,0L148,94s0,0,0,0a1.23,1.23,0,0,1-.81-.65,2.78,2.78,0,0,1-.13-1.54c0-.29-.41-.28-.61-.24a1.62,1.62,0,0,0-.55.18c-.09,0-.26.15-.28.27Z"/><path class="cls-2" d="M125.17,100.7l-5.68-.11c-1.56,0-3.95-.36-4.88,1.25a11.44,11.44,0,0,0-.66,2.08,18.23,18.23,0,0,1-.93,2.24,17.15,17.15,0,0,1-2.89,4.13.34.34,0,0,0,0,.49c1,1.3,3.34.55,4.52,0a17.74,17.74,0,0,0,4.43-3.07l-2.77.27c-.05.64-.11,1.29-.16,1.94a3.16,3.16,0,0,0,0,1.3c.37,1,1.82.82,2.64.55,2.09-.69,3.52-3.17,4.54-5l-2.8.75c.42.35.3,1,.49,1.42a1.34,1.34,0,0,0,1.21.84,3.57,3.57,0,0,0,3.49-1.92c.12-.24.18-.5.28-.74a2.49,2.49,0,0,1,.22-.43q.67-.78-1.26.27a2.51,2.51,0,0,0,1.94.26,4.14,4.14,0,0,0,3.13-2.56c.24-.55-1-.47-1.2-.44-.54.09-1.42.32-1.68.88a4.22,4.22,0,0,1-.34.67,3,3,0,0,1-.22.28c-.35.37,0,.32,1.11-.14a1.87,1.87,0,0,0-1.09-.38,3.58,3.58,0,0,0-3,1.16,4.27,4.27,0,0,0-.59,1.09,4.8,4.8,0,0,1-.24.63c-.25.43-.67.47.47.14.94-.28.75,0,.59-.57,0-.19-.06-.39-.11-.58a1.58,1.58,0,0,0-.5-.94c-.68-.56-2.42.07-2.8.75a16,16,0,0,1-1.32,2,5.76,5.76,0,0,1-1.55,1.7l1.1-.36-.25,0,.94,0c-.81-.18-.24-2.56-.19-3.15.1-1.11-2.42,0-2.77.27a14.39,14.39,0,0,1-2.29,1.74c-.26.15-.76.57-1,.57.25,0-.1-.18-.24-.38l0,.48a19.23,19.23,0,0,0,3-4.23,18.21,18.21,0,0,0,1-2.36c.13-.4.26-.81.37-1.22,0-.16.08-.33.13-.49s.29-.46,0-.31l-1.1.35a9.32,9.32,0,0,1,1.75,0l2,0,4,.08a2.59,2.59,0,0,0,1.92-.74c.38-.55-.32-.64-.73-.65Z"/><path class="cls-2" d="M153.79,86.31l2.52-7.92-2.35.92a30.56,30.56,0,0,0,8,.4,1.47,1.47,0,0,1,.81,0c.4.22.26.71,0,1a4.21,4.21,0,0,1-2.57.79,2.56,2.56,0,0,0-1.92.75c-.39.55.34.68.74.69a3,3,0,0,1,2.08,1.18l.21-.7a6,6,0,0,1-3.68,1.22,2.88,2.88,0,0,0-1.73.56c-.29.23-.48.63,0,.8a3,3,0,0,1,1.07.58c.3.31.23.54.26.92s.42-.36.66-.28a3.13,3.13,0,0,0-.93.16l-1.64.27c-.47.08-1.55.32-1.66.91s.89.53,1.21.48l2.57-.43a3.78,3.78,0,0,0,2.47-1.16c.95-1.31-.62-2.33-1.68-2.73l-1.75,1.37a12,12,0,0,0,7.14-2.35c.23-.17.44-.44.22-.7a4.76,4.76,0,0,0-3.61-1.54L159,82.94a11.16,11.16,0,0,0,5.09-1.31,3.73,3.73,0,0,0,1.73-1.53,1.15,1.15,0,0,0-.51-1.54,3.7,3.7,0,0,0-1.89-.32c-.82,0-1.63.12-2.45.13a26.38,26.38,0,0,1-5.17-.47c-.65-.13-2.12.17-2.35.91l-2.52,7.93c-.26.83,2.6.45,2.88-.43Z"/></svg>