<svg id="レイヤー_1" data-name="レイヤー 1" xmlns="http://www.w3.org/2000/svg" viewBox="0 0 125.89 112.19"><defs><style>.cls-1{fill:#fff;}.cls-2{fill:#1578db;}.cls-3{fill:#7db4eb;}.cls-4{fill:#f4b0a9;}</style></defs><path class="cls-1" d="M1.86,71.75c-3.2-21.91,12.57-43.46,21-46.87a6.38,6.38,0,0,0,3.69-2.82c.61-1.17,3.3-8.71,3.46-21.2,4.51,6.93,9.59,9.77,10.76,10.31s29.83-4.37,48.8-.6c14,2.78,30.4,14.15,33.59,32,3.73,20.86,0,45.89-20.53,58.4-18.35,11.19-31.12,10.51-50.8,10.43C40,111.34,6.53,103.73,1.86,71.75Z"/><path class="cls-1" d="M3.31,71.36C1.54,58.79,5.75,45.77,13,35.51c2.47-3.51,5.42-7.16,9.14-9.41,1.95-1.17,4.28-1.64,5.59-3.7a12.49,12.49,0,0,0,1.23-3.06A68.69,68.69,0,0,0,31.46.47l-2.8.94c2.66,4,6.16,8,10.51,10.21,1.64.86,4.09.18,5.84,0A236.1,236.1,0,0,1,74.72,10,71.22,71.22,0,0,1,91,11.86a45.2,45.2,0,0,1,13.79,6.32,43.07,43.07,0,0,1,11.37,11.19,37.64,37.64,0,0,1,5.93,15.83c1.57,10.39,1.26,21.26-2,31.31a46.36,46.36,0,0,1-7.18,14,43.41,43.41,0,0,1-13.19,11.26,64.06,64.06,0,0,1-17.29,7,80.7,80.7,0,0,1-16.76,1.82c-8,.17-15.93.43-23.74-1.35C25.65,105.53,10.37,95.29,5,78.81a46.26,46.26,0,0,1-1.72-7.45c-.14-.9-3-.24-2.9.78A42.8,42.8,0,0,0,13.78,97.59a56,56,0,0,0,21.43,11.83,65.87,65.87,0,0,0,9.8,2.23,74.86,74.86,0,0,0,10.48.53c12.08.06,24.09-.22,35.51-4.59,11.26-4.32,21.66-11.2,27.76-21.83,5.39-9.38,7.34-20.32,7.11-31.05a63.5,63.5,0,0,0-2.1-16.12,37.59,37.59,0,0,0-8.34-14.65A46.93,46.93,0,0,0,88.14,9.41C76.92,7.64,65.35,8.28,54.08,9.27c-3.73.32-7.44.77-11.17,1.09-.65.06-.4,0-1,.07-.08,0-.32,0-.39,0,.15-.09.55.2.13,0a29.27,29.27,0,0,1-4.16-2.91A34.57,34.57,0,0,1,31.36.31c-.52-.78-2.78.07-2.8.94A69.12,69.12,0,0,1,26.25,19a15.93,15.93,0,0,1-1.1,3.2c-1,1.9-3.46,2.31-5.16,3.4A35.69,35.69,0,0,0,10.66,35a58.92,58.92,0,0,0-8,15.49A47.31,47.31,0,0,0,.41,72.14C.54,73,3.45,72.39,3.31,71.36Z"/><path class="cls-2" d="M41.07,64.34V66.2l-5.28,0v1.41a2.45,2.45,0,0,1-.23,1.17,1.37,1.37,0,0,1-.77.62,9,9,0,0,1-2.83.28,6.5,6.5,0,0,0-.79-2c.52,0,1.24,0,2.17,0a.41.41,0,0,0,.28,0,.21.21,0,0,0,.08-.19V66.14l-5.25,0,0-1.86,5.24,0v-.83h.89a7.76,7.76,0,0,0,.69-.52l-4.23,0,0-1.75,6,0,.44-.09,1.26,1a13.3,13.3,0,0,1-2.53,2.22ZM30.51,60.27v1.81H28.58l0-3.6,1.78,0a10.81,10.81,0,0,0-.84-1.28l1.74-.75a6.39,6.39,0,0,1,1.23,1.8L32,58.5h1.85A9.76,9.76,0,0,0,33,56.92l1.8-.66a7,7,0,0,1,1.07,2l-.77.28,1.93,0a10.28,10.28,0,0,0,1.08-2.06l2.23.65c-.44.6-.79,1.08-1.07,1.42l1.7,0,0,3.59H39V60.33Z"/><path class="cls-2" d="M43.16,58.39l4.32,0,0,2.12h0a10.09,10.09,0,0,0-1,1.1A5.77,5.77,0,0,0,45.58,63a4.19,4.19,0,0,0-.36,1.42,3,3,0,0,0,.34,1.75,1.56,1.56,0,0,0,1.27.64,1.66,1.66,0,0,0,1.51-.57,3.82,3.82,0,0,0,.59-2.36,15.07,15.07,0,0,0-.22-2.53c-.15-.82-.27-1.5-.38-2s-.16-.82-.17-.85H49.8s.12.22.31.56.44.73.73,1.15a7.56,7.56,0,0,0,.65.82c.23.26.52.55.87.88l0,2.79a10.78,10.78,0,0,1-1-1,5.64,5.64,0,0,1-.7-1c.06.27.11.53.15.8a4.93,4.93,0,0,1,.06.75,7.25,7.25,0,0,1-.18,1.39,5.46,5.46,0,0,1-.6,1.58,3.59,3.59,0,0,1-1.24,1.27,3.63,3.63,0,0,1-2,.47,3.46,3.46,0,0,1-1.72-.51,4,4,0,0,1-1.12-1.13,3.53,3.53,0,0,1-.55-1.44,7.14,7.14,0,0,1-.09-1.43,6.06,6.06,0,0,1,1.77-3.86H43.14Zm7.41,1.3,0-2h.94v2Zm1.48,0v-2H53l0,2Z"/><path class="cls-2" d="M62.27,63.22a3.74,3.74,0,0,0-.47-1.82,1.8,1.8,0,0,0-1.33-.9c0,.89-.1,1.78-.19,2.68a11.66,11.66,0,0,1-.53,2.49,5.47,5.47,0,0,1-1,1.79,1.77,1.77,0,0,1-1.46.64,2.46,2.46,0,0,1-1.22-.43,3,3,0,0,1-1-1.3,6.1,6.1,0,0,1-.4-2.45,6.65,6.65,0,0,1,.63-2.75,5.4,5.4,0,0,1,1.59-2,4.25,4.25,0,0,1,2.24-.87,5.16,5.16,0,0,1,2.46.41,4.07,4.07,0,0,1,1.84,1.66,6,6,0,0,1,.78,3A6.83,6.83,0,0,1,63.85,66a4.21,4.21,0,0,1-2.64,2.61,5,5,0,0,1-1.47.26v-2a2.23,2.23,0,0,0,1.84-.94A4.41,4.41,0,0,0,62.27,63.22Zm-4.89,2.72c.21,0,.38-.17.53-.53a7.11,7.11,0,0,0,.35-1.4c.09-.57.16-1.17.21-1.78s.06-1.19.06-1.7a2,2,0,0,0-1,.77,4.56,4.56,0,0,0-.63,1.29,5.9,5.9,0,0,0-.25,1.34,3.52,3.52,0,0,0,.17,1.5Q57,65.91,57.38,65.94Z"/><path class="cls-2" d="M79.56,64l-5.51,0c-.07.13-.16.29-.29.49l5.55,0c0,.3,0,.52,0,.67-.1,1.31-.21,2.29-.33,2.93a3,3,0,0,1-.48,1.29,1.58,1.58,0,0,1-1,.52,7.52,7.52,0,0,1-1.45,0,4,4,0,0,0-.32-1.36A6.83,6.83,0,0,1,74.29,70a5.28,5.28,0,0,0-1.43-1.13A7.2,7.2,0,0,0,75.39,66h-.5a10.61,10.61,0,0,1-3.23,3.34,5.57,5.57,0,0,0-1.32-1.2A8,8,0,0,0,73,66h-.5A8,8,0,0,1,71,67.21a12.89,12.89,0,0,0-1-1c-1.13.57-2.18,1.08-3.16,1.55L66.1,65.7c.21-.06.75-.26,1.64-.59l0-3.69H66.48V59.48h1.29l0-2.68,1.89,0,0,2.68h1.17v1.93H69.65l0,2.93,1-.39.3,1.22a6.93,6.93,0,0,0,1.17-1.28H70.67V62.21l8.89.06Zm-.89-7,0,4.87-6.79,0,0-4.87Zm-1.9,3.49v-.42l-3.13,0v.43Zm0-1.71v-.42l-3.13,0v.43ZM77.33,66h-.24a12.57,12.57,0,0,1-1.28,2.34l.64,0a.48.48,0,0,0,.41-.18A5.13,5.13,0,0,0,77.33,66Z"/><path class="cls-2" d="M90.4,58.65v2.09a5.79,5.79,0,0,0-2.35.7,6.61,6.61,0,0,0-1.67,1.33,3.79,3.79,0,0,0-.86,1.45,2,2,0,0,0,0,1.48,1.77,1.77,0,0,0,.79.81,2.39,2.39,0,0,0,1,.29,9.24,9.24,0,0,0,1,0l.9-.07.4,0,0,2.18a11.46,11.46,0,0,1-1.32.1c-.39,0-.78,0-1.19,0a5.56,5.56,0,0,1-1.34-.27,4.23,4.23,0,0,1-1.38-.76,3.24,3.24,0,0,1-.95-1.36,4.35,4.35,0,0,1-.17-2.09,5.39,5.39,0,0,1,.54-1.57,6.13,6.13,0,0,1,.83-1.18,9.87,9.87,0,0,1,.76-.74,2.22,2.22,0,0,1,.35-.25l-4.32,0V58.58Zm-2.47,4.93,0-2h.94v2Zm1.48,0v-2h1l0,2Z"/><path class="cls-2" d="M93.35,58.37h1.88c-.08.64-.16,1.22-.21,1.73s-.11,1.07-.16,1.67-.07,1.18-.07,1.74,0,1.33,0,2,.11,1.25.17,1.8.14,1.16.24,1.84l-1.94,0C93.16,68,93.06,67,93,66.2s-.09-1.71-.08-2.62,0-1.67.12-2.46S93.2,59.42,93.35,58.37ZM95.66,60l2.87,0V58.27l1.86,0v1.78h1.5v2.1h-1.51v2.2a16.74,16.74,0,0,1,1.58.71l0,2.11c-.33-.23-.62-.42-.85-.56a4.5,4.5,0,0,0-.73-.36v.85a2.69,2.69,0,0,1-.34,1.46,1.64,1.64,0,0,1-.87.67,3.53,3.53,0,0,1-1,.17,3.34,3.34,0,0,1-1.26-.21,2,2,0,0,1-1-.8,2.78,2.78,0,0,1-.38-1.58,2.83,2.83,0,0,1,.79-2.08,2.76,2.76,0,0,1,2.24-.64v-2l-2.87,0Zm2.44,7.51a.29.29,0,0,0,.29-.17.88.88,0,0,0,.09-.44v-1a1.24,1.24,0,0,0-1,.14,1,1,0,0,0-.39.72.69.69,0,0,0,.24.65A1.08,1.08,0,0,0,98.1,67.55Z"/><path class="cls-2" d="M22.4,80.14l.33,1.94L18,83.59l-.44-2.06,1.62-.43,0-3H17.89l0-1.86h1.31V74.1H17.8V72.22l4.8,0v1.88H21.17v2.14h1.18l0,1.86H21.14v2.42Zm5.34,2.45,3.27,0v1.85l-9-.07V82.54l3.65,0v-1l-2.72,0V79.73l2.72,0v-1l-2.68,0,.05-6.7,7.45,0-.05,6.7-2.68,0v1l2.82,0v1.82l-2.82,0Zm-2.89-6.36v.85H25.9v-.85Zm0-2.43v.85h1.06v-.85Zm3.67,3.31v-.85H27.6v.84Zm0-2.43v-.85h-.94v.85Z"/><path class="cls-2" d="M38.92,77v-.89a12.34,12.34,0,0,1-1.07.73,8.2,8.2,0,0,0-.69-1.31l-4.74,0V73.91l5.1,0v.83a8.78,8.78,0,0,0,1.66-1.44,9,9,0,0,0,1.25-1.66h1.81a12.25,12.25,0,0,0,1.73,2,7.11,7.11,0,0,0,2,1.35,8.61,8.61,0,0,0-1.08,1.76,11.51,11.51,0,0,1-1-.71V77Zm-1.87,2.87,0,4.32-2.45,0v.53H32.94l0-4.85Zm-4-.5V77.85l4,0V79.4ZM37,76v1.5l-4,0v-1.5ZM37,72v1.52l-3.84,0V72Zm-1.63,9.38h-.79V82.6h.79Zm9.7-3.74,0,5.61a3.18,3.18,0,0,1-.11.87.87.87,0,0,1-.37.49,2.55,2.55,0,0,1-1.37.26,5.12,5.12,0,0,0-.33-1.26v1.18H41.54l0-2.72h-.41l0,2.72h-1.3l0-2.72h-.38l0,2.76H37.76l.06-7.2Zm-5.6,2.83h.38V79.22h-.38Zm.32-5.15,3.22,0a10.44,10.44,0,0,1-1.63-1.9A11.78,11.78,0,0,1,39.8,75.35Zm1.36,5.16h.41V79.23h-.41Zm1.71,1.59v1.3h.31c.09,0,.13-.05.13-.16V82.1Zm.46-2.86h-.44v1.29h.44Z"/><path class="cls-2" d="M56.29,73.91l3.83,0c0,.44,0,.74,0,.89-.11,3.26-.22,5.53-.35,6.81a5.49,5.49,0,0,1-.62,2.45,1.82,1.82,0,0,1-.64.61,3,3,0,0,1-.84.27,13.45,13.45,0,0,1-2.27,0,4.3,4.3,0,0,0-.21-1,4.12,4.12,0,0,0-.45-1c.6.06,1.3.1,2.11.1a.81.81,0,0,0,.61-.24,4.38,4.38,0,0,0,.48-2q.16-1.64.27-5.16l-2.66,0a14.05,14.05,0,0,1-1.21,2.09A8.75,8.75,0,0,0,53.18,77l0,6.67-3.66,0v1l-1.83,0L47.71,74h1.58a17.34,17.34,0,0,0,.33-2.28l2.23.33c-.16.44-.4,1.1-.73,2l2.08,0V75.9a14.84,14.84,0,0,0,1.7-4.09l2,.47C56.74,72.64,56.55,73.19,56.29,73.91Zm-6.81,7.91h1.83l0-2.4-1.83,0Zm1.86-4.14,0-1.9-1.84,0v1.9Zm6.33,2.72-1.73,1a36.81,36.81,0,0,0-1.81-3.28l1.59-.87C56.85,79,57.5,80.07,57.67,80.4Z"/><path class="cls-2" d="M62.18,76.58l0-2.06h1.72c.08-.41.13-.75.16-1s0-.4,0-.41l1.92,0c-.13.69-.22,1.16-.25,1.42h1.74v2.06H65.46q-1,4.24-1.41,5.55h-2c.82-2.82,1.3-4.67,1.47-5.56Zm5.92-2.07a14.71,14.71,0,0,1,1.6-.06c.5,0,.92,0,1.25,0a3.17,3.17,0,0,1,.5,0v2.1l-.45,0c-.28,0-.66,0-1.11-.05l0,2.72a9.53,9.53,0,0,1,1.1.48,4.81,4.81,0,0,1,.52.29l0,2.23c-.33-.24-.63-.44-.88-.6a4.25,4.25,0,0,0-.74-.37v.88a3,3,0,0,1-.36,1.57,1.76,1.76,0,0,1-.85.7,2.89,2.89,0,0,1-1,.18,3.37,3.37,0,0,1-1.29-.22,2.22,2.22,0,0,1-1.07-.84,2.8,2.8,0,0,1-.44-1.7,3,3,0,0,1,.89-2.2A3,3,0,0,1,68.08,79Zm-.46,8.21a.35.35,0,0,0,.31-.2,1.07,1.07,0,0,0,.11-.51V80.85A1.45,1.45,0,0,0,67,81a1,1,0,0,0-.43.79.79.79,0,0,0,.28.73A1.23,1.23,0,0,0,67.64,82.72Z"/><path class="cls-2" d="M78.81,74.33V75.9l-5.3,0V74.29Zm6,9.07H85a.13.13,0,0,0,.11-.06.88.88,0,0,0,.08-.27,5.45,5.45,0,0,0,.05-.58c0-.25,0-.58,0-1a4.38,4.38,0,0,0,1.69.77,5.5,5.5,0,0,1-.51,2.31,1.34,1.34,0,0,1-1.23.61h-.78a1.57,1.57,0,0,1-1.35-.49,3.33,3.33,0,0,1-.33-1.79l0-3.34h-.44c-.06.66-.14,1.23-.23,1.71a10.15,10.15,0,0,1-.45,1.51,4.68,4.68,0,0,1-.87,1.41,5.86,5.86,0,0,1-1.36,1.12,4.83,4.83,0,0,0-1.12-1.49v.92l-2.59,0v.51l-1.7,0,0-4.85,4.28,0,0,3.16a3.35,3.35,0,0,0,1.47-1.6,8.11,8.11,0,0,0,.51-2.4H79.17l0-5.06h.94a9.13,9.13,0,0,0-.82-1.88L81.14,72a7.28,7.28,0,0,1,1,2.2l-.67.24,2.61,0-.76-.22A11.89,11.89,0,0,0,84.11,72l2.1.53c-.58,1.24-.89,1.92-1,2h1.09l0,5.06H84.72l0,3.32C84.69,83.23,84.74,83.4,84.83,83.4ZM74.15,79.84V78.33l4.1,0v1.52Zm4.13-3.46v1.51l-4.11,0,0-1.52Zm.06-4,0,1.52-4,0V72.31Zm-1.71,10.8V82h-.87v1.19Zm7.6-5.28V76.24l-3.08,0v1.61Z"/><path class="cls-2" d="M93.76,81.51l-3.21,0v1.17l-1.89,0,.08-9.9,5.1,0Zm-3.2-1.87H91.9V78H90.57Zm1.38-5H90.6v1.6h1.34Zm9.21-1.94-.07,10.53a3.35,3.35,0,0,1-.19,1.19,1.32,1.32,0,0,1-.64.66,6.21,6.21,0,0,1-2.6.35,5.71,5.71,0,0,0-.26-1,6.37,6.37,0,0,0-.42-1c.3,0,.89,0,1.75,0a.29.29,0,0,0,.33-.33l0-2.11-2.83,0a7.1,7.1,0,0,1-2.74,4.47,5.92,5.92,0,0,0-.72-.74,5.86,5.86,0,0,0-.82-.63,5.58,5.58,0,0,0,1.41-1.37,5.2,5.2,0,0,0,.8-1.68,10.69,10.69,0,0,0,.32-1.64,13.9,13.9,0,0,0,.09-1.69l0-5.11Zm-4.64,6.53,2.57,0V77.76l-2.51,0C96.57,78.25,96.55,78.73,96.51,79.18Zm2.61-4.66-2.52,0v1.42l2.52,0Z"/><path class="cls-2" d="M103.18,76.55V74.66l2.94,0c.11-.32.22-.69.34-1.1h2.06a1.9,1.9,0,0,0-.08.3c0,.2-.13.47-.25.81l3.11,0v1.89l-4,0a1.82,1.82,0,0,1-.17.34c-.11.2-.2.39-.29.56l.16-.12a1,1,0,0,1,.24-.13,1.6,1.6,0,0,1,1.43,0,1.62,1.62,0,0,1,.68,1c.52-.27,1-.5,1.45-.68s1-.38,1.49-.58l0,2.21-.42.14-1.07.36c-.43.15-.87.32-1.32.52,0,.53,0,1,0,1.34v.58l-1.88,0s0-.1,0-.29v-.69l-.13.09-.2.11c-.39.33-.56.63-.5.91s.4.44,1,.46a17.33,17.33,0,0,0,1.81-.1c.57-.07,1-.13,1.4-.2a4.13,4.13,0,0,0,.56-.11v2.26a7.6,7.6,0,0,1-1,.12c-.68.06-1.63.08-2.86.07a3.28,3.28,0,0,1-1.77-.54,2.17,2.17,0,0,1-.89-1.23,2.29,2.29,0,0,1,.15-1.57,3.93,3.93,0,0,1,1.36-1.53l.57-.36.57-.35a.47.47,0,0,0-.12-.34.5.5,0,0,0-.41-.06,2.35,2.35,0,0,0-.66.31,7.8,7.8,0,0,0-.81.61c-.29.24-.55.47-.8.69q-.68.73-1.17,1.2l-.51.48,0-2.54.33-.29a7.2,7.2,0,0,0,.74-.82q.42-.54.87-1.23a3.29,3.29,0,0,0,.2-.38l.12-.25Z"/><path class="cls-2" d="M36.21,87l2,.59a13.37,13.37,0,0,1-1.06,2,9.8,9.8,0,0,1-1.31,1.66,10,10,0,0,0-1.6-1.39,6.19,6.19,0,0,0,1.12-1.28A8,8,0,0,0,36.21,87Zm9.08,4.09v1.26a8.84,8.84,0,0,0,.65,3.23,6.29,6.29,0,0,0,2.14,2.87,14,14,0,0,0-1.26,1.8,5.56,5.56,0,0,1-1.71-2.14,8.75,8.75,0,0,1-.84-2.5,7.63,7.63,0,0,1-1,2.46,6.62,6.62,0,0,1-2,2.14c-.09-.17-.28-.49-.59-1l-3.3,0V100H35.56l0-4.66h0a6.16,6.16,0,0,0-.6-.82,5.69,5.69,0,0,0-.72-.7A9.3,9.3,0,0,0,37.38,90h1.81a19.36,19.36,0,0,1,1.6,1.73,8.09,8.09,0,0,0,.92-2.08l-1.53.93a12.1,12.1,0,0,0-1.67-2.72l1.56-.9a13.46,13.46,0,0,1,1.71,2.43,20.33,20.33,0,0,0,.48-2.47l2.08.33c-.11.71-.24,1.39-.39,2l2.32,0,.29-.07,1.37.36a37.91,37.91,0,0,1-.8,4l-1.57-.48c.1-.62.19-1.28.28-2Zm-8.4,3,3.11,0a10.87,10.87,0,0,0-1.43-2.13A16.56,16.56,0,0,1,36.89,94.16Zm2,3.32V96l-1.45,0v1.51Zm1.91-3.06,0,3.66a6.61,6.61,0,0,0,1.91-2.73,8.76,8.76,0,0,0,.61-3v-1a10,10,0,0,1-1,2c-.15-.12-.4-.29-.72-.51a5.53,5.53,0,0,1,.28.55Z"/><path class="cls-2" d="M52.3,88.27l-.06,7.63a2.19,2.19,0,0,0,.26,1.19,1,1,0,0,0,.83.43,3.82,3.82,0,0,0,1.52-.34,11.87,11.87,0,0,0,1.58-.82c.52-.32,1.12-.74,1.79-1.25v2.5a16.36,16.36,0,0,1-1.54,1,10,10,0,0,1-1.61.72,6.44,6.44,0,0,1-1.87.33,2.84,2.84,0,0,1-2.31-1,4,4,0,0,1-.69-2.53l.06-8Z"/><path class="cls-2" d="M60.74,92.2l3.54,0v-.77l-3.78,0v-1.9l3.79,0V88.39h2v1.18l2.89,0,0,1.9-2.88,0v.76l2.65,0v1.86l-2.65,0v1a7.23,7.23,0,0,1,1.22.6c.42.25.76.47,1,.67a4.47,4.47,0,0,1,.4.32V99l-.41-.36c-.26-.24-.59-.51-1-.83A9.59,9.59,0,0,0,66.22,97v.42A2.4,2.4,0,0,1,65.75,99a2,2,0,0,1-1,.66,5.07,5.07,0,0,1-1.24.12A4.08,4.08,0,0,1,62,99.5a2.33,2.33,0,0,1-1.08-.82,2.29,2.29,0,0,1-.41-1.31,2.18,2.18,0,0,1,.52-1.5,3,3,0,0,1,1.41-.81,7.51,7.51,0,0,1,1.85-.25v-.72l-3.54,0ZM63.48,98a.9.9,0,0,0,.51-.15.61.61,0,0,0,.25-.46v-.86a2.28,2.28,0,0,0-1.38.15c-.35.17-.53.36-.54.56a.73.73,0,0,0,.22.54A1.42,1.42,0,0,0,63.48,98Z"/><path class="cls-2" d="M71.24,91.68l0-1.94,5.28,0V88.37h1.94v1.41l2,0,0,1.94-2.05,0,0,2.68a5.89,5.89,0,0,1,.39,1.65,6.41,6.41,0,0,1-.21,2,6.86,6.86,0,0,1-.83,1.82l-2.1,0a5,5,0,0,0,.55-1,10.2,10.2,0,0,0,.33-1,3.29,3.29,0,0,0,.11-.44,3.22,3.22,0,0,1-.77.73,2,2,0,0,1-1,.26A2.34,2.34,0,0,1,73.58,98a2.57,2.57,0,0,1-.94-1.13,3.9,3.9,0,0,1-.31-1.74,3.5,3.5,0,0,1,.42-1.57,2.55,2.55,0,0,1,1-1.09,3.23,3.23,0,0,1,1.62-.37,2.65,2.65,0,0,1,.67.14,2.37,2.37,0,0,1,.44.2v-.75Zm5.41,3.53a2.59,2.59,0,0,0-.12-.58,1.5,1.5,0,0,0-.31-.47,1.31,1.31,0,0,0-1.8.08,1.57,1.57,0,0,0-.28.89,1.45,1.45,0,0,0,.35,1.07,1.07,1.07,0,0,0,.93.27,1.26,1.26,0,0,0,.78-.39,1.63,1.63,0,0,0,.35-.57C76.62,95.32,76.64,95.22,76.65,95.21Z"/><path class="cls-2" d="M87.44,89l2.85,0-.4,7-2.16,0Zm.13,10.23,0-2.11,2.43,0,0,2.11Z"/><path class="cls-3" d="M60.55,23.58h0a4.28,4.28,0,0,1,1.8,5c-.17.4,0,.48,0,.92s-.4.93-.22,1.25a3.85,3.85,0,0,1-.65,4.53,2.8,2.8,0,0,1,1.79,2.87,4.24,4.24,0,0,1-1.86,3c.45.82,1.79,2.26,1.87,3.19a2.48,2.48,0,0,1-1.39,2.32c1.23,1.67,1.53,4.13,0,5.56-1.33,1.25-4.56,1.14-6.39.82a15.09,15.09,0,0,1-5.07-2.17c-2.25-1.35-4.65-3.25-4.68-5.82a2.86,2.86,0,0,0-.09-1,3.32,3.32,0,0,0-.85-1,3.67,3.67,0,0,1-.75-3.59,4.06,4.06,0,0,1,2.07-2.54,3.65,3.65,0,0,1-.47-3.71c.59-1.09,2.44-2.83,3.71-2.78-.89-1,.38-3.77,1.39-4.64s3.29-1,4.64-.92c-.71-.07-.11-.93.37-1.18A4.78,4.78,0,0,1,60.55,23.58Z"/><path class="cls-4" d="M70.47,23.61h0a4.31,4.31,0,0,0-1.84,4.94c.18.41,0,.49,0,.93s.4.92.21,1.25a3.84,3.84,0,0,0,.62,4.53,2.82,2.82,0,0,0-1.82,2.85,4.27,4.27,0,0,0,1.84,3c-.45.82-1.8,2.25-1.89,3.17A2.46,2.46,0,0,0,69,46.63c-1.25,1.67-1.56,4.12,0,5.57,1.32,1.26,4.55,1.17,6.38.86a15.37,15.37,0,0,0,5.09-2.12c2.26-1.35,4.67-3.22,4.73-5.79a2.68,2.68,0,0,1,.09-1,3.29,3.29,0,0,1,.86-1,3.65,3.65,0,0,0,.77-3.59,4,4,0,0,0-2-2.55,3.67,3.67,0,0,0,.49-3.71c-.58-1.1-2.41-2.85-3.69-2.81.9-1-.35-3.77-1.36-4.65s-3.28-1.07-4.63-1c.71-.06.12-.93-.36-1.18A4.78,4.78,0,0,0,70.47,23.61Z"/><path class="cls-2" d="M62.34,52.61a4.25,4.25,0,0,0,.1-6.14l-.08.43a3.77,3.77,0,0,0,0-6l-.22.54a3.76,3.76,0,0,0,0-6.59l-.12.61a3.06,3.06,0,0,0,1.22-4.09c-.35-.68-.62-.74-.26-1.68a6.18,6.18,0,0,0,.47-1.33,5.16,5.16,0,0,0-.62-3.19,5,5,0,0,0-4.43-2.78,4,4,0,0,0-3.81,2.75l1-.52c-3.5-.46-8.38,1.83-7.11,6.1l.82-.62c-3.75.25-6.27,4.25-3.8,7.46l.21-.53a4.84,4.84,0,0,0,.61,8.78l-.11-.4a3.22,3.22,0,0,0,.61,4.33A6,6,0,0,0,49.18,51a15.67,15.67,0,0,0,1.68.36,3.33,3.33,0,0,1,1.71.91,8.45,8.45,0,0,0,10.09.19c.79-.57-.43-.83-.92-.48A6.23,6.23,0,0,1,57,53a6.92,6.92,0,0,1-2.17-.76c-.69-.39-1.17-1-1.83-1.41-1.21-.75-2.89-.51-4.18-1.24s-2.4-2.7-1.26-4.15a.26.26,0,0,0-.1-.39,4.21,4.21,0,0,1-.84-7.57c.17-.11.36-.33.21-.53-1.69-2.2-.8-5.81,2.28-6,.24,0,.92-.26.81-.63a3.72,3.72,0,0,1,.83-3.63A4.78,4.78,0,0,1,55,25.49,1,1,0,0,0,56,25c.57-2,2.81-2,4.2-.81A5.11,5.11,0,0,1,62,28.35c-.12,1.2-1.24,1.9-.5,3s1,2.83-.41,3.6c-.23.12-.41.44-.12.61A3.1,3.1,0,0,1,61.22,41c-.12.07-.42.37-.21.53a3.19,3.19,0,0,1,.17,5.13c-.11.1-.21.31-.08.43a3.68,3.68,0,0,1,.07,5.28c-.62.59.8.64,1.17.28Z"/><path class="cls-2" d="M61.72,27.58a2.51,2.51,0,0,0-2.59-.83,3.38,3.38,0,0,0-2.3,1.88A4.11,4.11,0,0,0,58,33.52c.46.37,1.75-.3,1.13-.8a3.48,3.48,0,0,1-1.1-3.6,2.17,2.17,0,0,1,1.11-1.4c-.1,0,.11,0,.12,0h.11a.72.72,0,0,1,.28,0,1.2,1.2,0,0,1,.7.49c.35.49,1.74,0,1.33-.62Z"/><path class="cls-2" d="M59.16,32.81a2,2,0,0,0-2.64.72A3.77,3.77,0,0,0,56,36.17a6.11,6.11,0,0,0,3.08,4.16,1,1,0,0,0,1-.09c.23-.17.39-.54.08-.73a5.78,5.78,0,0,1-2.54-2.85,3.68,3.68,0,0,1-.17-2c0-.16.34-1.18.57-1.06a1,1,0,0,0,1-.09c.22-.16.4-.55.08-.73Z"/><path class="cls-2" d="M55.5,39.07a3.59,3.59,0,0,0,.12,3.18A3.7,3.7,0,0,0,57.94,44a1.42,1.42,0,0,0,1-.16c.13-.07.49-.39.14-.48A3.22,3.22,0,0,1,57,41.8a3.33,3.33,0,0,1-.1-2.95c.13-.28-.49-.25-.6-.23-.29,0-.71.16-.84.45Z"/><path class="cls-2" d="M61.81,46.58l-.11,0h0l-.16,0h.06l-.12,0-.16,0h0l-.17,0h-.27a4,4,0,0,1-1.31-.24,1.49,1.49,0,0,0-.93.09,1.25,1.25,0,0,0-.41.22s-.13.14,0,.18a6.2,6.2,0,0,0,4.1-.07c.09,0,.62-.23.44-.4a.66.66,0,0,0-.37,0,2.68,2.68,0,0,0-.56.13Z"/><path class="cls-2" d="M62.19,51.51a3.78,3.78,0,0,1-4.68-1.76c-.18-.31-.73-.22-1-.1s-.53.41-.35.72a5.22,5.22,0,0,0,6.64,2c.25-.11.56-.44.35-.72s-.7-.22-1-.09Z"/><path class="cls-2" d="M54.67,40.17c-2.14-.28-2.93,2.71-2.56,4.33a4.35,4.35,0,0,0,3.52,3.24,1.31,1.31,0,0,0,1-.27c.21-.2.17-.46-.14-.52a3.74,3.74,0,0,1-2.82-2.34,3.81,3.81,0,0,1-.17-2,3.48,3.48,0,0,1,.32-1,2.82,2.82,0,0,1,.26-.44l.15-.21c.25-.3.09.08-.48,0a1.31,1.31,0,0,0,1-.27c.21-.19.18-.47-.14-.52Z"/><path class="cls-2" d="M54,38.77a2.43,2.43,0,0,1-.11-3.71,3.27,3.27,0,0,1,.54-.4,2.21,2.21,0,0,1,.24-.13l.18-.08.11,0c.18-.06.7-.21.64-.5s-.66-.15-.81-.11a4.59,4.59,0,0,0-3,2.33,2.82,2.82,0,0,0,.81,3.17c.22.21.71.07.95,0s.63-.31.4-.51Z"/><path class="cls-2" d="M54.76,33.86c-.18,0-.44-.29-.52-.4a1.88,1.88,0,0,1-.3-.64,2.85,2.85,0,0,1,0-1.3,2.79,2.79,0,0,1,1.5-2s.45-.23.28-.31c-.49-.24-.4-.9-.25-1.32a4.08,4.08,0,0,1,1-1.53c.23-.22-.21-.21-.33-.2a1.91,1.91,0,0,0-1,.33A4.39,4.39,0,0,0,54,28.27c-.16.49-.2,1.16.34,1.41l.27-.31a3.54,3.54,0,0,0-2.14,2.56c-.22,1.15.26,2.62,1.65,2.46.28,0,.8-.1,1-.34s-.16-.21-.33-.19Z"/><path class="cls-2" d="M51.31,28.25a3.9,3.9,0,0,0-1,4.12l.28-.4a5.92,5.92,0,0,0-3,3.68,3.65,3.65,0,0,0,1.6,3.9c.4.24,1.73-.34,1.15-.7A3.21,3.21,0,0,1,49,35.46a4.87,4.87,0,0,1,2.49-3.07c.12-.07.34-.24.28-.41a3.34,3.34,0,0,1,.68-3.5c.21-.22.16-.43-.14-.51a1.22,1.22,0,0,0-1,.28Z"/><path class="cls-2" d="M49.42,38.8A3.59,3.59,0,0,0,47.07,42a3.37,3.37,0,0,0,2.21,3.16L49,44.56c-.68,1.42.1,2.86.81,4.09a10.23,10.23,0,0,0,2.74,3.41c.53.38,1.79-.35,1.12-.84a9,9,0,0,1-2.34-2.86c-.6-1-1.53-2.41-.94-3.63a.42.42,0,0,0-.28-.58,2.42,2.42,0,0,1,0-4.49c.28-.11.53-.47.34-.75s-.7-.22-1-.11Z"/><path class="cls-2" d="M59.9,30.17l.26.07-.13,0a2.73,2.73,0,0,1,.7.36l-.1-.07a2.74,2.74,0,0,1,.78.88l0-.1.1.2c.13.29.57.26.83.18a1.09,1.09,0,0,0,.48-.24c.07-.08.19-.21.14-.33a3.09,3.09,0,0,0-2.13-1.72,1.23,1.23,0,0,0-.54,0,1.27,1.27,0,0,0-.49.25c-.07.08-.18.2-.14.33a.4.4,0,0,0,.29.21Z"/><path class="cls-2" d="M69.47,52.21a3.7,3.7,0,0,1-.06-5.3c.1-.09.23-.29.09-.41a3.2,3.2,0,0,1,0-5.15.28.28,0,0,0,0-.49,3.12,3.12,0,0,1,0-5.39c.22-.12.42-.42.12-.58a2.5,2.5,0,0,1-.66-3.53c.22-.35.52-.59.52-1,0-.7-.71-1.31-.81-2.05A4.91,4.91,0,0,1,70.46,24a2.6,2.6,0,0,1,4.28,1.29c.06.24.44.25.63.22,3-.36,6.48,1.78,5.44,5.19-.08.25.28.33.44.34a3.87,3.87,0,0,1,2.59,6.32c-.11.14,0,.29.1.38,2.9,1.75,2.86,6.26-.49,7.5-.21.07-.58.34-.39.59,1.19,1.53,0,3.5-1.51,4.18-1.27.55-2.89.32-4,1.16-1.34,1-2.39,1.86-4.14,2a6.78,6.78,0,0,1-4.47-1.34c-.39-.28-1.73.3-1.15.72,3.2,2.32,7.42,1.72,10.39-.63.86-.68,2-.63,3.06-1a6.35,6.35,0,0,0,2.46-1.27,3.27,3.27,0,0,0,.72-4.42l-.38.6c3.92-1.45,4.79-6.58,1.06-8.84l.11.38c2.35-3,.26-6.93-3.39-7.21l.45.34a4.37,4.37,0,0,0-1.6-4.73,7,7,0,0,0-5.1-1.12l.63.23a3.59,3.59,0,0,0-3.91-2.47,5.64,5.64,0,0,0-4.37,3.05,5.36,5.36,0,0,0-.64,2.77,5.79,5.79,0,0,0,.38,1.47c.16.47.56.47.3,1.22,0,.15-.25.32-.34.46a3,3,0,0,0,1,4.16l.12-.58a3.74,3.74,0,0,0-.3,6.56v-.49a3.76,3.76,0,0,0-.22,6l.08-.41a4.22,4.22,0,0,0-.11,6.12c.37.37,1.74-.18,1.34-.57Z"/><path class="cls-2" d="M70.29,28.12a1.26,1.26,0,0,1,.24-.26.69.69,0,0,1,.27-.1s0,0,0,0h.29a1.36,1.36,0,0,1,.37.1,2.43,2.43,0,0,1,1.18,1.5,3.32,3.32,0,0,1-1,3.5c-.23.18-.38.52-.08.73a1,1,0,0,0,1-.09,4.24,4.24,0,0,0,1.36-4.93,3,3,0,0,0-2.15-1.81,2.78,2.78,0,0,0-2.71,1c-.53.74.83.94,1.21.41Z"/><path class="cls-2" d="M72.65,33.28l-.56.15a.53.53,0,0,1,.12,0,1.15,1.15,0,0,1,.23.1,1.52,1.52,0,0,1,.34.33,2.58,2.58,0,0,1,.39.88,3.72,3.72,0,0,1-.08,2.14,5.74,5.74,0,0,1-2.62,3c-.23.14-.18.28.08.3a1.94,1.94,0,0,0,1-.28,6.07,6.07,0,0,0,3.11-4,3.34,3.34,0,0,0-.49-2.49,2,2,0,0,0-2.65-.2c-.25.13-.17.28.08.3a1.94,1.94,0,0,0,1-.28Z"/><path class="cls-2" d="M73.71,39.22a3.41,3.41,0,0,1,0,2.88,3.29,3.29,0,0,1-.79,1,3,3,0,0,1-.47.32l-.14.06-.13.05c.15-.05-.07,0-.08,0s-.71.19-.67.4.7,0,.77,0a4.44,4.44,0,0,0,2.79-1.86,3.54,3.54,0,0,0,.22-3.24c-.09-.2-.63,0-.78,0s-.75.21-.67.39Z"/><path class="cls-2" d="M68.14,47.26a5.65,5.65,0,0,0,3.72,0,1,1,0,0,0,.47-.29.52.52,0,0,0,.11-.43.68.68,0,0,0-.87-.34,3.41,3.41,0,0,1-.76.2h0l-.17,0-.39,0H70l-.37,0-.39-.08c.15,0,0,0,0,0L69,46.24a1,1,0,0,0-1,.27.47.47,0,0,0,.21.75Z"/><path class="cls-2" d="M67.37,52.18A5.78,5.78,0,0,0,74.45,50c.14-.24-.52-.17-.59-.16a1.2,1.2,0,0,0-.84.4,3.86,3.86,0,0,1-1.75,1.6,3.33,3.33,0,0,1-2.53-.16,1.33,1.33,0,0,0-.94.07c-.06,0-.67.32-.43.43Z"/><path class="cls-2" d="M76.36,41.21c-.22,0-.13-.09,0,0a1.39,1.39,0,0,0,.15.19c.1.14.19.29.28.44a3.89,3.89,0,0,1,.33.94A3.52,3.52,0,0,1,77,44.75a3.3,3.3,0,0,1-2.57,2.13c-.31,0-.68.39-.59.73s.56.39.87.33a4.81,4.81,0,0,0,3.79-3.29A4.58,4.58,0,0,0,78.39,42c-.27-.82-.88-2-1.92-1.9-.33.05-.76.23-.79.62s.37.55.68.51Z"/><path class="cls-2" d="M77.86,39.45A3.2,3.2,0,0,0,78.94,36a4.1,4.1,0,0,0-2.65-2.34,1,1,0,0,0-1,.28.41.41,0,0,0,.19.69,3.18,3.18,0,0,1,2,1.7,2.23,2.23,0,0,1-.57,2.43c-.22.2-.39.52-.08.74a1,1,0,0,0,1-.09Z"/><path class="cls-2" d="M75.66,34.47a2.61,2.61,0,0,0,2.1-.7,2.37,2.37,0,0,0,.54-1.68,3.25,3.25,0,0,0-1.9-2.81l-.27.31a1.15,1.15,0,0,0,.66-1.48,4.07,4.07,0,0,0-1.17-1.85c-.18-.17-.74,0-.93.1s-.61.21-.44.37a4.11,4.11,0,0,1,1,1.51,1.83,1.83,0,0,1,.15.7.83.83,0,0,1-.05.35c0,.11-.22.25,0,.16,0,0-.46.23-.28.31a3,3,0,0,1,1.68,1.91,3.14,3.14,0,0,1,.13,1.22,2.3,2.3,0,0,1-.17.65,1.9,1.9,0,0,1-.2.34.53.53,0,0,1-.12.14c-.24.18-.07.16.51-.08a2.05,2.05,0,0,0-1,.19c-.1,0-.52.3-.19.34Z"/><path class="cls-2" d="M78.17,28.74a3.43,3.43,0,0,1,.75,3.64c0,.11.06.2.14.25a5.2,5.2,0,0,1,2.57,3.1,3.12,3.12,0,0,1-1.17,3.38c-.22.14-.4.37-.13.55s.79,0,1-.14a3.81,3.81,0,0,0,1.78-3.89,5.59,5.59,0,0,0-2.92-3.69l.14.25a3.81,3.81,0,0,0-.84-4c-.34-.35-1.71.18-1.35.56Z"/><path class="cls-2" d="M80.22,39.59a2.91,2.91,0,0,1,1.87,2.3,2.66,2.66,0,0,1-1.42,2.72c-.06,0-.55.19-.48.34.62,1.32-.23,2.67-.89,3.8a9.44,9.44,0,0,1-2.5,3c-.28.2.24.22.33.22a2.05,2.05,0,0,0,1-.34,9.78,9.78,0,0,0,2.63-3.19c.67-1.15,1.55-2.57.91-3.92l-.47.35a3.47,3.47,0,0,0,2.37-2.71,3,3,0,0,0-2-3.1,1.43,1.43,0,0,0-.93.09s-.65.31-.44.4Z"/><path class="cls-2" d="M70.3,29.46a3.59,3.59,0,0,0-2.49,1.94c0,.1.06.2.14.23a.84.84,0,0,0,.47,0,1.06,1.06,0,0,0,.83-.47l0-.1,0,.1a2.43,2.43,0,0,1,.3-.46l.09-.11s.1-.1,0,0l0,0,.22-.19.11-.09c.06,0-.14.1,0,0l.06,0,.12-.07s.18-.09,0,0,0,0,.06,0l.13-.05-.1,0,.07,0,.15,0A1.19,1.19,0,0,0,71,29.9c.07-.06.19-.19.15-.3-.1-.28-.6-.19-.81-.14Z"/><path class="cls-2" d="M42.37,22.9l.82.41-.18-.1a10.8,10.8,0,0,1,1.76,1.25,1.19,1.19,0,0,0,.76.17,3,3,0,0,0,1.14-.24,1.78,1.78,0,0,0,.79-.5c.11-.15.2-.35,0-.5a11.31,11.31,0,0,0-2.77-1.76,1.88,1.88,0,0,0-.94,0,3.1,3.1,0,0,0-1.1.36l-.27.17a.75.75,0,0,0-.3.36c0,.22.07.33.27.42Z"/><path class="cls-2" d="M47.66,18.71l1.17,2.18a.81.81,0,0,0,.34.24,1.13,1.13,0,0,0,.47.12A2.12,2.12,0,0,0,50.78,21a1.51,1.51,0,0,0,.76-.65l.09-.25a.63.63,0,0,0-.13-.48l-1.18-2.18a.63.63,0,0,0-.34-.24,1.06,1.06,0,0,0-.47-.13,2.37,2.37,0,0,0-1.14.21,1.53,1.53,0,0,0-.75.65l-.09.26a.6.6,0,0,0,.13.48Z"/><path class="cls-2" d="M54.58,16.41l.33,3.43c0,.27.39.5.61.57a1.87,1.87,0,0,0,1.1,0,1.85,1.85,0,0,0,1-.56l.17-.25a.79.79,0,0,0,.07-.54l-.34-3.44c0-.27-.39-.49-.6-.57a2,2,0,0,0-1.1,0,1.92,1.92,0,0,0-1,.56l-.18.26a.72.72,0,0,0-.06.54Z"/></svg>