<svg id="レイヤー_1" data-name="レイヤー 1" xmlns="http://www.w3.org/2000/svg" viewBox="0 0 149.6 103.29"><defs><style>.cls-1{fill:#1578db;}.cls-2{font-size:13px;fill:#fff;font-family:Corporate-Logo-Bold, Corporate Logo Bold;font-weight:700;letter-spacing:0.05em;}.cls-3{font-size:17px;letter-spacing:0.05em;}</style></defs><path class="cls-1" d="M18,.88h0c4.37,2,19.77,12.56,20.73,12.56,16.14,0,34.84-4.79,54.84-2.88,21.07,2,38.05,9.16,47.15,22.13,7.16,10.21,9.85,28.69,4.81,40.41-2.67,6.21-9.75,15-15.39,18.28-22.78,13.08-45.08,12.51-70.7,8.65-11.91-1.79-24-4.3-34.56-10.33S5.11,73.61,2.34,61.12C-1.39,44.33,7,30.76,18.51,20.18,18.51,20.18,18.51.94,18,.88Z"/><path class="cls-1" d="M19.44.49h0L16.85,1.62c4.09,1.88,7.86,4.6,11.64,7,2,1.28,4,2.57,6,3.83a12.19,12.19,0,0,0,3.3,1.8,19.53,19.53,0,0,0,4.89-.06c2-.08,4-.22,5.91-.39,4-.34,8-.8,11.94-1.24A188,188,0,0,1,86.29,11c14.43.4,29.85,3.41,42,11.56a40,40,0,0,1,12.61,13.13,47.65,47.65,0,0,1,5.58,19.41c.53,6.53-.07,13.54-3.07,19.46a47.23,47.23,0,0,1-5.76,8.59,35.73,35.73,0,0,1-7.45,7.08,59.81,59.81,0,0,1-10.54,5.31,76.86,76.86,0,0,1-11.07,3.59,91.61,91.61,0,0,1-22.81,2.39,182.9,182.9,0,0,1-23.94-2.12C53.53,98.21,45.18,96.72,37.2,94,23.16,89.14,10.08,79.43,5,65a35.73,35.73,0,0,1-.83-21.36A45.66,45.66,0,0,1,14.6,25.58C15.78,24.27,17,23,18.3,21.77c.59-.57,1.53-1.12,1.67-2a25.32,25.32,0,0,0,0-4c0-4.31,0-8.62-.23-12.92,0-.59.16-2.44-.58-2.75a2.25,2.25,0,0,0-2.06.24c-.37.25-.9.94-.23,1.23-.38-.17-.16-.39-.19,0a4.65,4.65,0,0,0,.08.74c.06.78.09,1.56.12,2.34.08,2.22.12,4.43.14,6.65s.05,4.3.05,6.45c0,.64,0,1.29,0,1.93a2.09,2.09,0,0,1,0,.5s0,.08,0,.11c.16-.39-.46.25-.56.34A57.54,57.54,0,0,0,3.65,37.59,36.9,36.9,0,0,0,.31,58.28c2,14.83,12.81,26.81,25.79,33.44C33.71,95.61,42,97.9,50.4,99.49a229.69,229.69,0,0,0,24.93,3.38c15.75,1.24,31.65-.09,46.32-6.31a60.06,60.06,0,0,0,10.66-5.5,38.72,38.72,0,0,0,7.43-7c4.35-5.14,7.89-10.86,9.14-17.56a49.34,49.34,0,0,0-.91-20.8,40.11,40.11,0,0,0-8.69-17.12C130.21,18.38,116.64,13.31,103.49,11A116,116,0,0,0,77.84,9.38c-8.55.39-17,1.55-25.53,2.4-3.88.38-7.77.71-11.67.77a4.49,4.49,0,0,0-1.37,0c.11-.07.36.08.35.07s-.49-.25-.62-.32c-.69-.38-1.37-.8-2-1.21C32.62,8.42,28.38,5.58,24,2.91A47.92,47.92,0,0,0,19.14.15c-.59-.28-3,0-2.6,1.12h0C16.94,2.36,19.81,1.53,19.44.49Z"/><text class="cls-2" transform="translate(64.26 39.17)">目標<tspan class="cls-3"><tspan x="-42.23" y="22.44">新たなビジョンを</tspan><tspan x="-33.24" y="41.44">見つけたい！</tspan></tspan></text></svg>