<svg id="レイヤー_1" data-name="レイヤー 1" xmlns="http://www.w3.org/2000/svg" xmlns:xlink="http://www.w3.org/1999/xlink" viewBox="0 0 151.32 128.42"><defs><style>.cls-1{fill:none;}.cls-2{fill:#fff;}.cls-3{fill:#fabec8;}.cls-4{fill:#d2ffff;}.cls-5{fill:#ffffbe;}.cls-6{fill:#50b4e6;}.cls-7{fill:#ffe6f0;}.cls-8{fill:#fffa96;}.cls-9{fill:#8ce6fa;}.cls-10{fill:#8cdbf0;}.cls-11{fill:#2fb4b3;}.cls-12{font-size:16px;font-family:Corporate-Logo-Bold, Corporate Logo Bold;font-weight:700;letter-spacing:0.05em;}.cls-12,.cls-18{fill:#1578db;}.cls-13{font-size:22px;letter-spacing:0.05em;}.cls-14{letter-spacing:0.3em;}.cls-15{font-size:14px;letter-spacing:0.05em;}.cls-16{fill:url(#新規パターンスウォッチ_70);}.cls-17{fill:#cacaca;}.cls-19{fill:#e04748;}</style><pattern id="新規パターンスウォッチ_70" data-name="新規パターンスウォッチ 70" width="283.46" height="283.46" patternTransform="translate(985.68 362.09) rotate(-3.32) scale(0.4)" patternUnits="userSpaceOnUse" viewBox="0 0 283.46 283.46"><rect class="cls-1" width="283.46" height="283.46"/><polygon class="cls-2" points="0 0 0 35.43 35.43 35.43 0 0"/><polygon class="cls-3" points="35.43 0 0 0 35.43 35.43 35.43 0"/><polygon class="cls-4" points="70.87 0 70.87 35.43 35.43 35.43 70.87 0"/><polygon class="cls-5" points="35.43 0 70.87 0 35.43 35.43 35.43 0"/><polygon class="cls-6" points="0 70.87 0 35.43 35.43 35.43 0 70.87"/><polygon class="cls-5" points="35.43 70.87 0 70.87 35.43 35.43 35.43 70.87"/><polygon class="cls-2" points="70.87 70.87 70.87 35.43 35.43 35.43 70.87 70.87"/><polygon class="cls-6" points="35.43 70.87 70.87 70.87 35.43 35.43 35.43 70.87"/><polygon class="cls-2" points="70.87 0 70.87 35.43 106.3 35.43 70.87 0"/><polygon class="cls-3" points="106.3 0 70.87 0 106.3 35.43 106.3 0"/><polygon class="cls-7" points="141.73 0 141.73 35.43 106.3 35.43 141.73 0"/><polygon class="cls-2" points="106.3 0 141.73 0 106.3 35.43 106.3 0"/><polygon class="cls-8" points="70.87 70.87 70.87 35.43 106.3 35.43 70.87 70.87"/><polygon class="cls-2" points="106.3 70.87 70.87 70.87 106.3 35.43 106.3 70.87"/><polygon class="cls-2" points="141.73 70.87 141.73 35.43 106.3 35.43 141.73 70.87"/><polygon class="cls-9" points="106.3 70.87 141.73 70.87 106.3 35.43 106.3 70.87"/><polygon class="cls-2" points="141.73 0 141.73 35.43 177.16 35.43 141.73 0"/><polygon class="cls-5" points="177.16 0 141.73 0 177.16 35.43 177.16 0"/><polygon class="cls-4" points="212.6 0 212.6 35.43 177.16 35.43 212.6 0"/><polygon class="cls-2" points="177.16 0 212.6 0 177.16 35.43 177.16 0"/><polygon class="cls-10" points="141.73 70.87 141.73 35.43 177.16 35.43 141.73 70.87"/><polygon class="cls-4" points="177.16 70.87 141.73 70.87 177.16 35.43 177.16 70.87"/><polygon class="cls-9" points="212.6 70.87 212.6 35.43 177.16 35.43 212.6 70.87"/><polygon class="cls-2" points="177.16 70.87 212.6 70.87 177.16 35.43 177.16 70.87"/><polygon class="cls-2" points="212.6 0 212.6 35.43 248.03 35.43 212.6 0"/><polygon class="cls-4" points="248.03 0 212.6 0 248.03 35.43 248.03 0"/><polygon class="cls-4" points="283.46 0 283.46 35.43 248.03 35.43 283.46 0"/><polygon class="cls-5" points="248.03 0 283.46 0 248.03 35.43 248.03 0"/><polygon class="cls-4" points="212.6 70.87 212.6 35.43 248.03 35.43 212.6 70.87"/><polygon class="cls-5" points="248.03 70.87 212.6 70.87 248.03 35.43 248.03 70.87"/><polygon class="cls-3" points="283.46 70.87 283.46 35.43 248.03 35.43 283.46 70.87"/><polygon class="cls-2" points="248.03 70.87 283.46 70.87 248.03 35.43 248.03 70.87"/><polygon class="cls-3" points="0 70.87 0 106.3 35.43 106.3 0 70.87"/><polygon class="cls-2" points="35.43 70.87 0 70.87 35.43 106.3 35.43 70.87"/><polygon class="cls-4" points="70.87 70.87 70.87 106.3 35.43 106.3 70.87 70.87"/><polygon class="cls-4" points="35.43 70.87 70.87 70.87 35.43 106.3 35.43 70.87"/><polygon class="cls-2" points="0 141.73 0 106.3 35.43 106.3 0 141.73"/><polygon class="cls-7" points="35.43 141.73 0 141.73 35.43 106.3 35.43 141.73"/><polygon class="cls-5" points="70.87 141.73 70.87 106.3 35.43 106.3 70.87 141.73"/><polygon class="cls-4" points="35.43 141.73 70.87 141.73 35.43 106.3 35.43 141.73"/><polygon class="cls-2" points="70.87 70.87 70.87 106.3 106.3 106.3 70.87 70.87"/><polygon class="cls-9" points="106.3 70.87 70.87 70.87 106.3 106.3 106.3 70.87"/><polygon class="cls-5" points="141.73 70.87 141.73 106.3 106.3 106.3 141.73 70.87"/><polygon class="cls-4" points="106.3 70.87 141.73 70.87 106.3 106.3 106.3 70.87"/><polygon class="cls-7" points="70.87 141.73 70.87 106.3 106.3 106.3 70.87 141.73"/><polygon class="cls-2" points="106.3 141.73 70.87 141.73 106.3 106.3 106.3 141.73"/><polygon class="cls-2" points="141.73 141.73 141.73 106.3 106.3 106.3 141.73 141.73"/><polygon class="cls-9" points="106.3 141.73 141.73 141.73 106.3 106.3 106.3 141.73"/><polygon class="cls-2" points="141.73 70.87 141.73 106.3 177.16 106.3 141.73 70.87"/><polygon class="cls-9" points="177.16 70.87 141.73 70.87 177.16 106.3 177.16 70.87"/><polygon class="cls-2" points="212.6 70.87 212.6 106.3 177.16 106.3 212.6 70.87"/><polygon class="cls-4" points="177.16 70.87 212.6 70.87 177.16 106.3 177.16 70.87"/><polygon class="cls-9" points="141.73 141.73 141.73 106.3 177.16 106.3 141.73 141.73"/><polygon class="cls-2" points="177.16 141.73 141.73 141.73 177.16 106.3 177.16 141.73"/><polygon class="cls-9" points="212.6 141.73 212.6 106.3 177.16 106.3 212.6 141.73"/><polygon class="cls-8" points="177.16 141.73 212.6 141.73 177.16 106.3 177.16 141.73"/><polygon class="cls-4" points="212.6 70.87 212.6 106.3 248.03 106.3 212.6 70.87"/><polygon class="cls-9" points="248.03 70.87 212.6 70.87 248.03 106.3 248.03 70.87"/><polygon class="cls-2" points="283.46 70.87 283.46 106.3 248.03 106.3 283.46 70.87"/><polygon class="cls-10" points="248.03 70.87 283.46 70.87 248.03 106.3 248.03 70.87"/><polygon class="cls-2" points="212.6 141.73 212.6 106.3 248.03 106.3 212.6 141.73"/><polygon class="cls-4" points="248.03 141.73 212.6 141.73 248.03 106.3 248.03 141.73"/><polygon class="cls-3" points="283.46 141.73 283.46 106.3 248.03 106.3 283.46 141.73"/><polygon class="cls-2" points="248.03 141.73 283.46 141.73 248.03 106.3 248.03 141.73"/><polygon class="cls-2" points="0 141.73 0 177.16 35.43 177.16 0 141.73"/><polygon class="cls-3" points="35.43 141.73 0 141.73 35.43 177.16 35.43 141.73"/><polygon class="cls-9" points="70.87 141.73 70.87 177.16 35.43 177.16 70.87 141.73"/><polygon class="cls-2" points="35.43 141.73 70.87 141.73 35.43 177.16 35.43 141.73"/><polygon class="cls-5" points="0 212.6 0 177.16 35.43 177.16 0 212.6"/><polygon class="cls-3" points="35.43 212.6 0 212.6 35.43 177.16 35.43 212.6"/><polygon class="cls-2" points="70.87 212.6 70.87 177.16 35.43 177.16 70.87 212.6"/><polygon class="cls-10" points="35.43 212.6 70.87 212.6 35.43 177.16 35.43 212.6"/><polygon class="cls-2" points="70.87 141.73 70.87 177.16 106.3 177.16 70.87 141.73"/><polygon class="cls-4" points="106.3 141.73 70.87 141.73 106.3 177.16 106.3 141.73"/><polygon class="cls-8" points="141.73 141.73 141.73 177.16 106.3 177.16 141.73 141.73"/><polygon class="cls-3" points="106.3 141.73 141.73 141.73 106.3 177.16 106.3 141.73"/><polygon class="cls-3" points="70.87 212.6 70.87 177.16 106.3 177.16 70.87 212.6"/><polygon class="cls-2" points="106.3 212.6 70.87 212.6 106.3 177.16 106.3 212.6"/><polygon class="cls-2" points="141.73 212.6 141.73 177.16 106.3 177.16 141.73 212.6"/><polygon class="cls-6" points="106.3 212.6 141.73 212.6 106.3 177.16 106.3 212.6"/><polygon class="cls-2" points="141.73 141.73 141.73 177.16 177.16 177.16 141.73 141.73"/><polygon class="cls-4" points="177.16 141.73 141.73 141.73 177.16 177.16 177.16 141.73"/><polygon class="cls-2" points="212.6 141.73 212.6 177.16 177.16 177.16 212.6 141.73"/><polygon class="cls-6" points="177.16 141.73 212.6 141.73 177.16 177.16 177.16 141.73"/><polygon class="cls-4" points="141.73 212.6 141.73 177.16 177.16 177.16 141.73 212.6"/><polygon class="cls-9" points="177.16 212.6 141.73 212.6 177.16 177.16 177.16 212.6"/><polygon class="cls-4" points="212.6 212.6 212.6 177.16 177.16 177.16 212.6 212.6"/><polygon class="cls-2" points="177.16 212.6 212.6 212.6 177.16 177.16 177.16 212.6"/><polygon class="cls-4" points="212.6 141.73 212.6 177.16 248.03 177.16 212.6 141.73"/><polygon class="cls-5" points="248.03 141.73 212.6 141.73 248.03 177.16 248.03 141.73"/><polygon class="cls-11" points="283.46 141.73 283.46 177.16 248.03 177.16 283.46 141.73"/><polygon class="cls-4" points="248.03 141.73 283.46 141.73 248.03 177.16 248.03 141.73"/><polygon class="cls-9" points="212.6 212.6 212.6 177.16 248.03 177.16 212.6 212.6"/><polygon class="cls-5" points="248.03 212.6 212.6 212.6 248.03 177.16 248.03 212.6"/><polygon class="cls-9" points="283.46 212.6 283.46 177.16 248.03 177.16 283.46 212.6"/><polygon class="cls-6" points="248.03 212.6 283.46 212.6 248.03 177.16 248.03 212.6"/><polygon class="cls-5" points="0 212.6 0 248.03 35.43 248.03 0 212.6"/><polygon class="cls-9" points="35.43 212.6 0 212.6 35.43 248.03 35.43 212.6"/><polygon class="cls-8" points="70.87 212.6 70.87 248.03 35.43 248.03 70.87 212.6"/><polygon class="cls-2" points="35.43 212.6 70.87 212.6 35.43 248.03 35.43 212.6"/><polygon class="cls-2" points="0 283.46 0 248.03 35.43 248.03 0 283.46"/><polygon class="cls-7" points="35.43 283.46 0 283.46 35.43 248.03 35.43 283.46"/><polygon class="cls-2" points="70.87 283.46 70.87 248.03 35.43 248.03 70.87 283.46"/><polygon class="cls-4" points="35.43 283.46 70.87 283.46 35.43 248.03 35.43 283.46"/><polygon class="cls-2" points="70.87 212.6 70.87 248.03 106.3 248.03 70.87 212.6"/><polygon class="cls-4" points="106.3 212.6 70.87 212.6 106.3 248.03 106.3 212.6"/><polygon class="cls-9" points="141.73 212.6 141.73 248.03 106.3 248.03 141.73 212.6"/><polygon class="cls-2" points="106.3 212.6 141.73 212.6 106.3 248.03 106.3 212.6"/><polygon class="cls-9" points="70.87 283.46 70.87 248.03 106.3 248.03 70.87 283.46"/><polygon class="cls-5" points="106.3 283.46 70.87 283.46 106.3 248.03 106.3 283.46"/><polygon class="cls-2" points="141.73 283.46 141.73 248.03 106.3 248.03 141.73 283.46"/><polygon class="cls-4" points="106.3 283.46 141.73 283.46 106.3 248.03 106.3 283.46"/><polygon class="cls-5" points="141.73 212.6 141.73 248.03 177.16 248.03 141.73 212.6"/><polygon class="cls-7" points="177.16 212.6 141.73 212.6 177.16 248.03 177.16 212.6"/><polygon class="cls-2" points="212.6 212.6 212.6 248.03 177.16 248.03 212.6 212.6"/><polygon class="cls-8" points="177.16 212.6 212.6 212.6 177.16 248.03 177.16 212.6"/><polygon class="cls-4" points="141.73 283.46 141.73 248.03 177.16 248.03 141.73 283.46"/><polygon class="cls-2" points="177.16 283.46 141.73 283.46 177.16 248.03 177.16 283.46"/><polygon class="cls-4" points="212.6 283.46 212.6 248.03 177.16 248.03 212.6 283.46"/><polygon class="cls-5" points="177.16 283.46 212.6 283.46 177.16 248.03 177.16 283.46"/><polygon class="cls-4" points="212.6 212.6 212.6 248.03 248.03 248.03 212.6 212.6"/><polygon class="cls-11" points="248.03 212.6 212.6 212.6 248.03 248.03 248.03 212.6"/><polygon class="cls-6" points="283.46 212.6 283.46 248.03 248.03 248.03 283.46 212.6"/><polygon class="cls-2" points="248.03 212.6 283.46 212.6 248.03 248.03 248.03 212.6"/><polygon class="cls-2" points="212.6 283.46 212.6 248.03 248.03 248.03 212.6 283.46"/><polygon class="cls-7" points="248.03 283.46 212.6 283.46 248.03 248.03 248.03 283.46"/><polygon class="cls-4" points="283.46 283.46 283.46 248.03 248.03 248.03 283.46 283.46"/><polygon class="cls-2" points="248.03 283.46 283.46 283.46 248.03 248.03 248.03 283.46"/></pattern></defs><path class="cls-2" d="M81.42,127.46c-22,1.43-47-2.86-65-17.16-7-5.57-15-17.16-15-32.89,0-10.61,5.81-32.84,22-44.33,19.16-13.59,71.83-8.29,78-10.3C110,20,117,10.18,123.58.72c-.24,9.89-2.36,24,3.43,28.48,23.41,18.18,27.41,51.07,18.41,66.8C131,121.28,107,125.8,81.42,127.46Z"/><path class="cls-2" d="M82,126.77C60.38,128.14,37.07,124.2,19.36,111A41.11,41.11,0,0,1,4.28,88.21C2.13,79.89,2.73,71.54,5,63.34A59.66,59.66,0,0,1,17.77,39.27a36,36,0,0,1,9.77-7.86A45.61,45.61,0,0,1,37,27.92,123.86,123.86,0,0,1,60.8,24.57c7.86-.48,15.73-.56,23.6-.55,5,0,10.22.28,15.25-.3a19.08,19.08,0,0,0,8.69-3.83c4.52-3.25,8.15-7.65,11.47-12.08,1.76-2.34,3.43-4.73,5.1-7.13l-2.77.43c-.17,6.2-.94,12.44-.42,18.64a18.41,18.41,0,0,0,1.9,7.51c1.3,2.33,3.7,3.74,5.63,5.51a60.37,60.37,0,0,1,17.57,30.68C149,73,149.34,83.69,145.59,92.9a48.84,48.84,0,0,1-10,14.66,52.4,52.4,0,0,1-14.39,10.68c-10.68,5.41-22.8,7.23-34.61,8.19-1.53.13-3.06.24-4.6.34-.55,0-1.63.19-1.93.74s.25.68.74.65c12.41-.82,25-2.24,36.69-6.87A57.88,57.88,0,0,0,145.84,97.5c5.25-8.58,6.25-18.87,5-28.71a62,62,0,0,0-14.31-32.37,56.55,56.55,0,0,0-6.86-6.72,13.16,13.16,0,0,1-2.76-2.61,11.44,11.44,0,0,1-1.52-3.51c-1.63-6-.87-12.56-.54-18.66.09-1.53.16-3.06.2-4.59,0-.81-2.52.07-2.77.44a121.14,121.14,0,0,1-11,14.27A33.87,33.87,0,0,1,105,20.35,18.08,18.08,0,0,1,101.86,22l-.77.28c-.44.15.25,0-.13,0a41.66,41.66,0,0,1-5.27.31c-2.91,0-5.83,0-8.74,0-16.11,0-32.61,0-48.37,3.68C31.24,28,24.35,30.77,18.67,35.83c-7.06,6.3-12,14.69-15.14,23.56C.87,66.93-.65,75,.27,83a43,43,0,0,0,12.39,25.73A56.34,56.34,0,0,0,25,117.39a82.5,82.5,0,0,0,15.25,6.38,110.89,110.89,0,0,0,32.63,4.65c2.65,0,5.29-.1,7.94-.26.54,0,1.62-.2,1.92-.74S82.5,126.74,82,126.77Z"/><text class="cls-12" transform="translate(18.82 78.45)">悩み<tspan class="cls-13"><tspan x="0" y="24.16">恋</tspan><tspan class="cls-14" x="23.1" y="24.16">愛</tspan><tspan class="cls-15" x="51.7" y="25.28">&amp;</tspan><tspan x="68.85" y="24.16">結婚</tspan></tspan></text><polygon class="cls-16" points="67.89 58.78 63.75 56.29 55.14 58.31 57.77 62.52 56.54 66.84 65.78 64.9 67.89 58.78"/><polygon class="cls-17" points="121.06 41.88 132.17 42.52 120.43 52.68 120.74 45.69 121.06 41.88"/><path class="cls-3" d="M84.11,64.42A24.45,24.45,0,0,1,75.5,49.89c-.73-4-.37-8.32,1.79-11.76a12.44,12.44,0,0,1,20.44-.92c4.46-2,10.7-4,15.32-2.55,5.29,1.71,7.4,8,6.88,13.5-.43,4.63-3.15,8.78-6.49,12s-7.32,5.73-11.06,8.49h0c-1.37,1-2.93,3.34-4.44,4-1.71.68-2.93-1-4.28-2C90.54,68.47,87.08,66.82,84.11,64.42Z"/><path class="cls-18" d="M92,69c-7.59-4.07-14.51-10.44-16-19.32a16.39,16.39,0,0,1,2.41-11.9c2-3,5.26-5.5,9-5.36A10.92,10.92,0,0,1,97,38.77c.36.83,3.19-.09,2.9-.77-3.49-8.11-14.43-8.63-20.76-3.72-7.9,6.11-7.71,17.2-2.48,25A34.17,34.17,0,0,0,89.24,70,2.37,2.37,0,0,0,91.12,70c.16-.06,1.35-.69.83-1Z"/><path class="cls-18" d="M99.25,38.89c3-3.15,7.33-4.94,11.65-3.85a11.26,11.26,0,0,1,8.27,8.67,15.94,15.94,0,0,1-2.61,12.16c-2.43,3.68-6,6.28-9.53,8.74-3.8,2.6-7.59,5.25-10.14,9.17l2.22-.8a25.08,25.08,0,0,1-4.54-2.36c-1-.64-3.58.74-2.25,1.6a27.47,27.47,0,0,0,5.09,2.61A2,2,0,0,0,99.64,74c2.62-4,6.86-6.52,10.71-9.22s7.58-6,9.89-10.25a16.47,16.47,0,0,0,1.29-13.45,13,13,0,0,0-10-8.16,16.46,16.46,0,0,0-14.67,5.17.77.77,0,0,0,.35,1.31,2.1,2.1,0,0,0,2-.55Z"/><path class="cls-18" d="M60.27,62.89q16.56-3.64,33-7.87c.92-.24,2.79-1.07,2.49-2.31s-2.49-1-3.31-.76q-16.41,4.23-33,7.87c-.92.21-2.78,1.09-2.48,2.31s2.48.94,3.3.76Z"/><path class="cls-18" d="M120.34,43a69,69,0,0,1,11.48.83l-.46-1.7-5.58,4.59L123,49l-1.38,1.13-.73.6-.36.3q-.31.24.06,0l.76-.07-.14,0,.61.21.09.29c.15-1.47-2.8-1.07-2.94.23a1.32,1.32,0,0,0,1.3,1.37,3.06,3.06,0,0,0,2.36-.85l3.57-2.94,7-5.79c.78-.65.56-1.55-.45-1.7a73.68,73.68,0,0,0-12.23-.85c-.63,0-1.52.48-1.6,1.17s.78.95,1.34.94Z"/><path class="cls-18" d="M121,46.9l.91-.14-1-1a7.09,7.09,0,0,0-1.71,2.67.45.45,0,0,0,.3.51,1.71,1.71,0,0,0,.95.1,2.81,2.81,0,0,0,1.1-.37,1.21,1.21,0,0,0,.55-.61c.08-.21.16-.42.26-.62l-.1.2a6.31,6.31,0,0,1,1-1.46l-.19.2s.1-.11.16-.16c.21-.22.44-.51.19-.8a1.41,1.41,0,0,0-1.15-.22l-.91.14a3,3,0,0,0-1.09.37A1.12,1.12,0,0,0,120,46a.64.64,0,0,0-.2.31v.21a.5.5,0,0,0,.3.3,1.81,1.81,0,0,0,1,.1Z"/><path class="cls-18" d="M93,51.75l.45,4.1c0,.19.41.24.52.25A3.46,3.46,0,0,0,95.05,56a3.06,3.06,0,0,0,1-.42c.16-.12.36-.25.33-.47L95.92,51c0-.19-.41-.23-.52-.24a3.15,3.15,0,0,0-1.06.12,3.24,3.24,0,0,0-1,.43c-.15.11-.35.25-.33.46Z"/><path class="cls-18" d="M59.08,60.63a15.7,15.7,0,0,1-4.4-2.92l-1.11,1.44,10.1-2.78-1.36-.08c1.74,1,3.48,1.92,5.19,2.93A2.09,2.09,0,0,0,69.56,59c.44-.3.82-.93.21-1.28-1.38-.82-2.79-1.6-4.2-2.38a6.05,6.05,0,0,0-1.26-.66,2.73,2.73,0,0,0-1.44.12l-7.3,2-2.45.67c-.33.09-1.8.85-1.11,1.44a18.15,18.15,0,0,0,5.34,3.46,2.21,2.21,0,0,0,2-.55c.46-.49.28-1-.32-1.19Z"/><path class="cls-18" d="M57.44,61a17.55,17.55,0,0,0-1.9,4c-.39,1-.76,2-1.1,3-.29.86,1.32.8,1.68.7l7.29-2c1.09-.3,2.19-.58,3.27-.89a2,2,0,0,0,1.35-1c.28-.54.51-1.12.76-1.67l1.74-3.82c.64-1.39-2.27-1.21-2.73-.2l-2.57,5.66,1.14-.76L55.67,67l1.68.71c.31-.9.63-1.79,1-2.68a17.46,17.46,0,0,1,1.86-3.9c.42-.57-.37-1-.84-1a2.2,2.2,0,0,0-1.9.84Z"/><path class="cls-19" d="M93.39,58.48l-1.33,3.09a6,6,0,0,0-.64,2.27,1.81,1.81,0,1,0,3.59.48,5,5,0,0,0-.38-3.18A9.1,9.1,0,0,1,93.76,58Z"/><path class="cls-18" d="M92.69,58.39c-.58,1.34-1.25,2.68-1.72,4.06a3.18,3.18,0,0,0,.47,3.4,2.49,2.49,0,0,0,3.2,0,3.3,3.3,0,0,0,1.17-3.32c-.25-1.57-1.27-3-1.31-4.56,0-.69-1-.57-1.35-.18l-.37.46A.44.44,0,0,0,93,59a1,1,0,0,0,1-.27l.37-.46L93,58.07c0,1.51.8,2.79,1.19,4.22a3.31,3.31,0,0,1,0,2.13,1.46,1.46,0,0,1-.93.9c-.43.09-.79-.3-1-.65a2.51,2.51,0,0,1-.07-1.77,17,17,0,0,1,.83-2.08l1-2.25C94.42,57.8,93,57.77,92.69,58.39Z"/><path class="cls-19" d="M98.77,62.24c.46,1.24-1.63,2.77-1.27,4.06a1.46,1.46,0,0,0,2.2.71,2.26,2.26,0,0,0,.36-2.58A14.79,14.79,0,0,1,99,61.86Z"/><path class="cls-18" d="M98,62.43c.25.71-.33,1.45-.67,2s-.89,1.5-.51,2.25a2.36,2.36,0,0,0,3.9-.15,2.47,2.47,0,0,0,.24-1.42c-.12-1.26-1.06-2.24-1.3-3.47,0-.23-.47-.22-.63-.2a1.06,1.06,0,0,0-.77.38l-.21.37c-.15.29.14.42.4.43s.8-.11,1-.4l.21-.37-1.4.18a28.52,28.52,0,0,0,1.17,2.8,2.73,2.73,0,0,1,.12,1.2,1.43,1.43,0,0,1-.14.5,1.56,1.56,0,0,1-.17.25s0,0,0,0l-.06.05s0,0,0,0,.12-.1,0,0c0,0,.14-.09,0,0h0c.06,0,0,0,0,0s.09,0,0,0-.05,0,0,0l-.12,0-.2-.08a1.08,1.08,0,0,1-.6-.72c-.14-.62.34-1.28.64-1.78s.91-1.45.64-2.23c-.1-.29-.59-.22-.82-.16S97.94,62.14,98,62.43Z"/><path class="cls-19" d="M90.25,74.19h0a2.39,2.39,0,0,0-.3,1.07c0,.88,1,1.45,1.92,1.46a2.15,2.15,0,0,0,1.66-.64,2.18,2.18,0,0,0,.47-1.6,5.29,5.29,0,0,0-.46-1.64c-.3-.72-1-3.17-2-2.47-.41.31-.33,1.26-.45,1.71A13.88,13.88,0,0,1,90.25,74.19Z"/><path class="cls-18" d="M89.57,74.15a2,2,0,0,0-.09,2,2.42,2.42,0,0,0,1.62,1c1.57.28,3.49-.55,3.63-2.31a5,5,0,0,0-.5-2.23c-.16-.42-.31-.84-.49-1.26a3.36,3.36,0,0,0-.76-1.2A1.48,1.48,0,0,0,91.3,70c-.69.36-.75,1-.83,1.73a7.6,7.6,0,0,1-.9,2.39c-.31.67,1.14.54,1.36.07s.59-1.21.82-1.84A8,8,0,0,0,92,71c0-.08.09-.46.14-.45l-.11.07a1.12,1.12,0,0,1-.35.06c-.22,0,0,0,0,0s-.07-.07,0,0c-.06,0,.08.08.09.09a1.22,1.22,0,0,1,.15.17,2.48,2.48,0,0,1,.27.47,17.19,17.19,0,0,1,.91,2.28c.28.86.37,2.45-.83,2.54A1.61,1.61,0,0,1,91,75.81a1.3,1.3,0,0,1-.08-1.59C91.24,73.56,89.79,73.68,89.57,74.15Z"/></svg>