<svg id="レイヤー_1" data-name="レイヤー 1" xmlns="http://www.w3.org/2000/svg" xmlns:xlink="http://www.w3.org/1999/xlink" viewBox="0 0 123.34 104.48"><defs><style>.cls-1{fill:none;}.cls-2{fill:#fff;}.cls-3{fill:#fabec8;}.cls-4{fill:#d2ffff;}.cls-5{fill:#ffffbe;}.cls-6{fill:#50b4e6;}.cls-7{fill:#ffe6f0;}.cls-8{fill:#fffa96;}.cls-9{fill:#8ce6fa;}.cls-10{fill:#8cdbf0;}.cls-11{fill:#2fb4b3;}.cls-12{fill:#1578db;}.cls-13{fill:url(#新規パターンスウォッチ_70);}.cls-14{fill:#cacaca;}.cls-15{fill:#e04748;}</style><pattern id="新規パターンスウォッチ_70" data-name="新規パターンスウォッチ 70" width="283.46" height="283.46" patternTransform="translate(733.87 321.68) rotate(-3.32) scale(0.3)" patternUnits="userSpaceOnUse" viewBox="0 0 283.46 283.46"><rect class="cls-1" width="283.46" height="283.46"/><polygon class="cls-2" points="0 0 0 35.43 35.43 35.43 0 0"/><polygon class="cls-3" points="35.43 0 0 0 35.43 35.43 35.43 0"/><polygon class="cls-4" points="70.87 0 70.87 35.43 35.43 35.43 70.87 0"/><polygon class="cls-5" points="35.43 0 70.87 0 35.43 35.43 35.43 0"/><polygon class="cls-6" points="0 70.87 0 35.43 35.43 35.43 0 70.87"/><polygon class="cls-5" points="35.43 70.87 0 70.87 35.43 35.43 35.43 70.87"/><polygon class="cls-2" points="70.87 70.87 70.87 35.43 35.43 35.43 70.87 70.87"/><polygon class="cls-6" points="35.43 70.87 70.87 70.87 35.43 35.43 35.43 70.87"/><polygon class="cls-2" points="70.87 0 70.87 35.43 106.3 35.43 70.87 0"/><polygon class="cls-3" points="106.3 0 70.87 0 106.3 35.43 106.3 0"/><polygon class="cls-7" points="141.73 0 141.73 35.43 106.3 35.43 141.73 0"/><polygon class="cls-2" points="106.3 0 141.73 0 106.3 35.43 106.3 0"/><polygon class="cls-8" points="70.87 70.87 70.87 35.43 106.3 35.43 70.87 70.87"/><polygon class="cls-2" points="106.3 70.87 70.87 70.87 106.3 35.43 106.3 70.87"/><polygon class="cls-2" points="141.73 70.87 141.73 35.43 106.3 35.43 141.73 70.87"/><polygon class="cls-9" points="106.3 70.87 141.73 70.87 106.3 35.43 106.3 70.87"/><polygon class="cls-2" points="141.73 0 141.73 35.43 177.16 35.43 141.73 0"/><polygon class="cls-5" points="177.16 0 141.73 0 177.16 35.43 177.16 0"/><polygon class="cls-4" points="212.6 0 212.6 35.43 177.16 35.43 212.6 0"/><polygon class="cls-2" points="177.16 0 212.6 0 177.16 35.43 177.16 0"/><polygon class="cls-10" points="141.73 70.87 141.73 35.43 177.16 35.43 141.73 70.87"/><polygon class="cls-4" points="177.16 70.87 141.73 70.87 177.16 35.43 177.16 70.87"/><polygon class="cls-9" points="212.6 70.87 212.6 35.43 177.16 35.43 212.6 70.87"/><polygon class="cls-2" points="177.16 70.87 212.6 70.87 177.16 35.43 177.16 70.87"/><polygon class="cls-2" points="212.6 0 212.6 35.43 248.03 35.43 212.6 0"/><polygon class="cls-4" points="248.03 0 212.6 0 248.03 35.43 248.03 0"/><polygon class="cls-4" points="283.46 0 283.46 35.43 248.03 35.43 283.46 0"/><polygon class="cls-5" points="248.03 0 283.46 0 248.03 35.43 248.03 0"/><polygon class="cls-4" points="212.6 70.87 212.6 35.43 248.03 35.43 212.6 70.87"/><polygon class="cls-5" points="248.03 70.87 212.6 70.87 248.03 35.43 248.03 70.87"/><polygon class="cls-3" points="283.46 70.87 283.46 35.43 248.03 35.43 283.46 70.87"/><polygon class="cls-2" points="248.03 70.87 283.46 70.87 248.03 35.43 248.03 70.87"/><polygon class="cls-3" points="0 70.87 0 106.3 35.43 106.3 0 70.87"/><polygon class="cls-2" points="35.43 70.87 0 70.87 35.43 106.3 35.43 70.87"/><polygon class="cls-4" points="70.87 70.87 70.87 106.3 35.43 106.3 70.87 70.87"/><polygon class="cls-4" points="35.43 70.87 70.87 70.87 35.43 106.3 35.43 70.87"/><polygon class="cls-2" points="0 141.73 0 106.3 35.43 106.3 0 141.73"/><polygon class="cls-7" points="35.43 141.73 0 141.73 35.43 106.3 35.43 141.73"/><polygon class="cls-5" points="70.87 141.73 70.87 106.3 35.43 106.3 70.87 141.73"/><polygon class="cls-4" points="35.43 141.73 70.87 141.73 35.43 106.3 35.43 141.73"/><polygon class="cls-2" points="70.87 70.87 70.87 106.3 106.3 106.3 70.87 70.87"/><polygon class="cls-9" points="106.3 70.87 70.87 70.87 106.3 106.3 106.3 70.87"/><polygon class="cls-5" points="141.73 70.87 141.73 106.3 106.3 106.3 141.73 70.87"/><polygon class="cls-4" points="106.3 70.87 141.73 70.87 106.3 106.3 106.3 70.87"/><polygon class="cls-7" points="70.87 141.73 70.87 106.3 106.3 106.3 70.87 141.73"/><polygon class="cls-2" points="106.3 141.73 70.87 141.73 106.3 106.3 106.3 141.73"/><polygon class="cls-2" points="141.73 141.73 141.73 106.3 106.3 106.3 141.73 141.73"/><polygon class="cls-9" points="106.3 141.73 141.73 141.73 106.3 106.3 106.3 141.73"/><polygon class="cls-2" points="141.73 70.87 141.73 106.3 177.16 106.3 141.73 70.87"/><polygon class="cls-9" points="177.16 70.87 141.73 70.87 177.16 106.3 177.16 70.87"/><polygon class="cls-2" points="212.6 70.87 212.6 106.3 177.16 106.3 212.6 70.87"/><polygon class="cls-4" points="177.16 70.87 212.6 70.87 177.16 106.3 177.16 70.87"/><polygon class="cls-9" points="141.73 141.73 141.73 106.3 177.16 106.3 141.73 141.73"/><polygon class="cls-2" points="177.16 141.73 141.73 141.73 177.16 106.3 177.16 141.73"/><polygon class="cls-9" points="212.6 141.73 212.6 106.3 177.16 106.3 212.6 141.73"/><polygon class="cls-8" points="177.16 141.73 212.6 141.73 177.16 106.3 177.16 141.73"/><polygon class="cls-4" points="212.6 70.87 212.6 106.3 248.03 106.3 212.6 70.87"/><polygon class="cls-9" points="248.03 70.87 212.6 70.87 248.03 106.3 248.03 70.87"/><polygon class="cls-2" points="283.46 70.87 283.46 106.3 248.03 106.3 283.46 70.87"/><polygon class="cls-10" points="248.03 70.87 283.46 70.87 248.03 106.3 248.03 70.87"/><polygon class="cls-2" points="212.6 141.73 212.6 106.3 248.03 106.3 212.6 141.73"/><polygon class="cls-4" points="248.03 141.73 212.6 141.73 248.03 106.3 248.03 141.73"/><polygon class="cls-3" points="283.46 141.73 283.46 106.3 248.03 106.3 283.46 141.73"/><polygon class="cls-2" points="248.03 141.73 283.46 141.73 248.03 106.3 248.03 141.73"/><polygon class="cls-2" points="0 141.73 0 177.16 35.43 177.16 0 141.73"/><polygon class="cls-3" points="35.43 141.73 0 141.73 35.43 177.16 35.43 141.73"/><polygon class="cls-9" points="70.87 141.73 70.87 177.16 35.43 177.16 70.87 141.73"/><polygon class="cls-2" points="35.43 141.73 70.87 141.73 35.43 177.16 35.43 141.73"/><polygon class="cls-5" points="0 212.6 0 177.16 35.43 177.16 0 212.6"/><polygon class="cls-3" points="35.43 212.6 0 212.6 35.43 177.16 35.43 212.6"/><polygon class="cls-2" points="70.87 212.6 70.87 177.16 35.43 177.16 70.87 212.6"/><polygon class="cls-10" points="35.43 212.6 70.87 212.6 35.43 177.16 35.43 212.6"/><polygon class="cls-2" points="70.87 141.73 70.87 177.16 106.3 177.16 70.87 141.73"/><polygon class="cls-4" points="106.3 141.73 70.87 141.73 106.3 177.16 106.3 141.73"/><polygon class="cls-8" points="141.73 141.73 141.73 177.16 106.3 177.16 141.73 141.73"/><polygon class="cls-3" points="106.3 141.73 141.73 141.73 106.3 177.16 106.3 141.73"/><polygon class="cls-3" points="70.87 212.6 70.87 177.16 106.3 177.16 70.87 212.6"/><polygon class="cls-2" points="106.3 212.6 70.87 212.6 106.3 177.16 106.3 212.6"/><polygon class="cls-2" points="141.73 212.6 141.73 177.16 106.3 177.16 141.73 212.6"/><polygon class="cls-6" points="106.3 212.6 141.73 212.6 106.3 177.16 106.3 212.6"/><polygon class="cls-2" points="141.73 141.73 141.73 177.16 177.16 177.16 141.73 141.73"/><polygon class="cls-4" points="177.16 141.73 141.73 141.73 177.16 177.16 177.16 141.73"/><polygon class="cls-2" points="212.6 141.73 212.6 177.16 177.16 177.16 212.6 141.73"/><polygon class="cls-6" points="177.16 141.73 212.6 141.73 177.16 177.16 177.16 141.73"/><polygon class="cls-4" points="141.73 212.6 141.73 177.16 177.16 177.16 141.73 212.6"/><polygon class="cls-9" points="177.16 212.6 141.73 212.6 177.16 177.16 177.16 212.6"/><polygon class="cls-4" points="212.6 212.6 212.6 177.16 177.16 177.16 212.6 212.6"/><polygon class="cls-2" points="177.16 212.6 212.6 212.6 177.16 177.16 177.16 212.6"/><polygon class="cls-4" points="212.6 141.73 212.6 177.16 248.03 177.16 212.6 141.73"/><polygon class="cls-5" points="248.03 141.73 212.6 141.73 248.03 177.16 248.03 141.73"/><polygon class="cls-11" points="283.46 141.73 283.46 177.16 248.03 177.16 283.46 141.73"/><polygon class="cls-4" points="248.03 141.73 283.46 141.73 248.03 177.16 248.03 141.73"/><polygon class="cls-9" points="212.6 212.6 212.6 177.16 248.03 177.16 212.6 212.6"/><polygon class="cls-5" points="248.03 212.6 212.6 212.6 248.03 177.16 248.03 212.6"/><polygon class="cls-9" points="283.46 212.6 283.46 177.16 248.03 177.16 283.46 212.6"/><polygon class="cls-6" points="248.03 212.6 283.46 212.6 248.03 177.16 248.03 212.6"/><polygon class="cls-5" points="0 212.6 0 248.03 35.43 248.03 0 212.6"/><polygon class="cls-9" points="35.43 212.6 0 212.6 35.43 248.03 35.43 212.6"/><polygon class="cls-8" points="70.87 212.6 70.87 248.03 35.43 248.03 70.87 212.6"/><polygon class="cls-2" points="35.43 212.6 70.87 212.6 35.43 248.03 35.43 212.6"/><polygon class="cls-2" points="0 283.46 0 248.03 35.43 248.03 0 283.46"/><polygon class="cls-7" points="35.43 283.46 0 283.46 35.43 248.03 35.43 283.46"/><polygon class="cls-2" points="70.87 283.46 70.87 248.03 35.43 248.03 70.87 283.46"/><polygon class="cls-4" points="35.43 283.46 70.87 283.46 35.43 248.03 35.43 283.46"/><polygon class="cls-2" points="70.87 212.6 70.87 248.03 106.3 248.03 70.87 212.6"/><polygon class="cls-4" points="106.3 212.6 70.87 212.6 106.3 248.03 106.3 212.6"/><polygon class="cls-9" points="141.73 212.6 141.73 248.03 106.3 248.03 141.73 212.6"/><polygon class="cls-2" points="106.3 212.6 141.73 212.6 106.3 248.03 106.3 212.6"/><polygon class="cls-9" points="70.87 283.46 70.87 248.03 106.3 248.03 70.87 283.46"/><polygon class="cls-5" points="106.3 283.46 70.87 283.46 106.3 248.03 106.3 283.46"/><polygon class="cls-2" points="141.73 283.46 141.73 248.03 106.3 248.03 141.73 283.46"/><polygon class="cls-4" points="106.3 283.46 141.73 283.46 106.3 248.03 106.3 283.46"/><polygon class="cls-5" points="141.73 212.6 141.73 248.03 177.16 248.03 141.73 212.6"/><polygon class="cls-7" points="177.16 212.6 141.73 212.6 177.16 248.03 177.16 212.6"/><polygon class="cls-2" points="212.6 212.6 212.6 248.03 177.16 248.03 212.6 212.6"/><polygon class="cls-8" points="177.16 212.6 212.6 212.6 177.16 248.03 177.16 212.6"/><polygon class="cls-4" points="141.73 283.46 141.73 248.03 177.16 248.03 141.73 283.46"/><polygon class="cls-2" points="177.16 283.46 141.73 283.46 177.16 248.03 177.16 283.46"/><polygon class="cls-4" points="212.6 283.46 212.6 248.03 177.16 248.03 212.6 283.46"/><polygon class="cls-5" points="177.16 283.46 212.6 283.46 177.16 248.03 177.16 283.46"/><polygon class="cls-4" points="212.6 212.6 212.6 248.03 248.03 248.03 212.6 212.6"/><polygon class="cls-11" points="248.03 212.6 212.6 212.6 248.03 248.03 248.03 212.6"/><polygon class="cls-6" points="283.46 212.6 283.46 248.03 248.03 248.03 283.46 212.6"/><polygon class="cls-2" points="248.03 212.6 283.46 212.6 248.03 248.03 248.03 212.6"/><polygon class="cls-2" points="212.6 283.46 212.6 248.03 248.03 248.03 212.6 283.46"/><polygon class="cls-7" points="248.03 283.46 212.6 283.46 248.03 248.03 248.03 283.46"/><polygon class="cls-4" points="283.46 283.46 283.46 248.03 248.03 248.03 283.46 283.46"/><polygon class="cls-2" points="248.03 283.46 283.46 283.46 248.03 248.03 248.03 283.46"/></pattern></defs><path class="cls-2" d="M66.35,103.58c-17.85,1.16-38.14-2.32-52.75-13.93C7.91,85.13,1.43,75.73,1.43,63c0-8.61,4.71-26.66,17.85-36,15.55-11,58.29-6.73,63.3-8.36,7-2.26,12.65-10.22,18-17.9-.2,8-1.92,19.47,2.78,23.12,19,14.75,22.25,41.44,14.94,54.21C106.55,98.57,87.13,102.23,66.35,103.58Z"/><path class="cls-2" d="M67,102.89C49.49,104,30.7,100.83,16.37,90.21A33.28,33.28,0,0,1,4.08,71.88,38.2,38.2,0,0,1,4.6,51.56,48.38,48.38,0,0,1,15,31.89a28.65,28.65,0,0,1,7.79-6.23,36,36,0,0,1,7.74-2.81c12.41-3.2,25.62-3.1,38.35-3.09a97.38,97.38,0,0,0,12.32-.27,16.15,16.15,0,0,0,7.17-3.19,44.6,44.6,0,0,0,9.27-9.73c1.45-1.93,2.84-3.91,4.22-5.89l-2.78.43c-.14,5-.75,10.05-.35,15.06a15.17,15.17,0,0,0,1.57,6.21c1,1.83,2.9,2.93,4.43,4.32a48.94,48.94,0,0,1,14.36,24.91c1.82,7.76,2.08,16.46-1,24a39.43,39.43,0,0,1-8,11.75A42,42,0,0,1,98.58,96c-9.73,5-20.89,6.19-31.63,6.9-.55,0-1.63.19-1.93.73s.25.69.73.65c10.11-.66,20.39-1.82,29.88-5.57a47.29,47.29,0,0,0,23.08-19.16C123.07,72.49,124,64.16,123,56a50.35,50.35,0,0,0-11.54-26.32A46.37,46.37,0,0,0,105,23.54a9.1,9.1,0,0,1-3-5.92c-1-5.68-.08-11.57.08-17.29,0-.81-2.53.07-2.78.44a95.48,95.48,0,0,1-8.95,11.57,26.78,26.78,0,0,1-5.06,4.32,13.66,13.66,0,0,1-2.53,1.28l-.46.16c-.33.12.33,0-.06,0a13.21,13.21,0,0,1-1.64.16c-.89,0-1.79.06-2.68.08-2.42,0-4.84,0-7.26,0-13.12,0-26.58,0-39.4,3.09-6.06,1.46-11.66,3.8-16.32,8A46.18,46.18,0,0,0,2.78,48.62,43,43,0,0,0,.25,67.87,34.86,34.86,0,0,0,10.54,88.7c6.08,5.76,14.31,9.58,22.23,12a89.9,89.9,0,0,0,26.43,3.76c2.19,0,4.37-.07,6.55-.21.55,0,1.63-.19,1.93-.73S67.43,102.86,67,102.89Z"/><path class="cls-12" d="M19.51,59.71l-1.13.53A7.91,7.91,0,0,0,18,59v7.89H16.34V59a7.55,7.55,0,0,1-.53,2.53L14.68,61a7.89,7.89,0,0,0,.54-3.2l1.12.16V55.42H18v2.33l.62-.26A7.13,7.13,0,0,1,19.51,59.71Zm1.86-.88-1.6.61a11.73,11.73,0,0,0-1-2.89L20.25,56A11.11,11.11,0,0,1,21.37,58.83Zm2.84,3.83V60h1.73v6.71H24.21v-.58H20.66v.6H19V60h1.67v1.27l.72-.95.77.56a11,11,0,0,0,.35-1.19L24,60a14.37,14.37,0,0,1-.62,1.86A9.25,9.25,0,0,1,24.21,62.66Zm-3.55-1v1.93a6.74,6.74,0,0,0,.87-1.25L21.11,62Zm0,2.14v.79h1A8.83,8.83,0,0,0,20.66,63.77Zm2.67-5.17-1.48.45a14,14,0,0,0-.75-3l1.52-.44a14.5,14.5,0,0,1,.83,2.73,11.05,11.05,0,0,0,.89-2.57l1.81.4A13.62,13.62,0,0,1,24.65,60a8.3,8.3,0,0,0-1.71-.77C23.05,59.06,23.18,58.85,23.33,58.6Zm-1.43,6h2.31V63l-.78,1.14a8.79,8.79,0,0,0-.73-.81A8.4,8.4,0,0,1,21.9,64.56Z"/><path class="cls-12" d="M28.21,58.82V56.94h4.42v.48c0,.31,0,.73-.06,1.25s-.09,1.1-.17,1.74a8.6,8.6,0,0,1,1,.4c0-.34.07-.69.09-1s0-.71,0-1.08h1.55v.38c0,.25,0,.58,0,1S35,61,34.91,61.5c.3.15.54.27.7.37l.27.15v2.11l-.35-.21-.91-.52a14.68,14.68,0,0,1-.38,1.52,7.74,7.74,0,0,1-.55,1.39H31.81s.07-.16.22-.45.32-.72.52-1.26a19.71,19.71,0,0,0,.57-2l-.53-.24-.51-.21v0a8.48,8.48,0,0,1-.57,1.59,5.27,5.27,0,0,1-.89,1.39,1.73,1.73,0,0,1-1.17.61A1.48,1.48,0,0,1,28.07,65a3.58,3.58,0,0,1-.3-2.2,2.67,2.67,0,0,1,.6-1.36,3.82,3.82,0,0,1,1.13-.92,3.41,3.41,0,0,1,1.37-.37c0-.25.05-.48.07-.71s0-.43,0-.59Zm1.28,5.09a.57.57,0,0,0,.46-.32,3.23,3.23,0,0,0,.32-.7c.09-.27.15-.51.2-.71s.07-.32.07-.33a1.19,1.19,0,0,0-.68.2,1.39,1.39,0,0,0-.44.47,2.34,2.34,0,0,0-.21.48,1.14,1.14,0,0,0,0,.69C29.34,63.84,29.42,63.91,29.49,63.91Z"/><path class="cls-12" d="M16.78,84.91l-2-1.31a7,7,0,0,0,2.07-3.34L19,81A8.73,8.73,0,0,1,16.78,84.91Zm.34-10.84,2.12.81a9.58,9.58,0,0,1-1.16,1.94,6.89,6.89,0,0,1-1.43,1.43,9,9,0,0,0-1.52-1.48,5.21,5.21,0,0,0,1.13-1.16A6.66,6.66,0,0,0,17.12,74.07Zm5.3,9.32h1.79a.57.57,0,0,0,.56-.27A4,4,0,0,0,25,81.83a5.26,5.26,0,0,0,2.07.82,3.83,3.83,0,0,1-.73,2.2,2.55,2.55,0,0,1-1.88.56H22.11a3.38,3.38,0,0,1-2.25-.53,2.7,2.7,0,0,1-.58-2V80.53h2l-.21-.17,1.55-1.09a7.7,7.7,0,0,0-.6-1.55l1.29,0c.16,0,.25-.08.25-.23V73.39h-1.2v.68a13.59,13.59,0,0,1-.08,1.5,11.49,11.49,0,0,1-.31,1.5,5.3,5.3,0,0,1-.74,1.56A6,6,0,0,1,19.91,80a7.32,7.32,0,0,0-.88-.83,6.94,6.94,0,0,0-1-.7,4.5,4.5,0,0,0,1.67-2A6.76,6.76,0,0,0,20.11,74v-.61H15.37V71.25h6.18V69.72H24v1.53h6.24v2.14H25.83v4.19a3.32,3.32,0,0,1-.16,1.17,1.26,1.26,0,0,1-.63.64,4.27,4.27,0,0,1-1.71.35,10,10,0,0,1,1.56,1.73l-1.77,1.29a10.8,10.8,0,0,0-1.49-1.84v1.91c0,.25,0,.4.14.47A1.44,1.44,0,0,0,22.42,83.39Zm3.52-2.27L27.88,80a15.17,15.17,0,0,1,2.91,3.9l-2.15,1.26a10.3,10.3,0,0,0-1.09-1.94A20.42,20.42,0,0,0,25.94,81.12Zm.39-6.05,2-.95a14.06,14.06,0,0,1,2.22,3.37l-2.16,1.07A12.63,12.63,0,0,0,26.33,75.07Z"/><path class="cls-12" d="M43.6,79.45l1.5.94a8.51,8.51,0,0,1-2.31,2.41,33.77,33.77,0,0,0,5.08.55,7.26,7.26,0,0,0-1.38,2.13,21.74,21.74,0,0,1-6.35-1.31,25.62,25.62,0,0,1-6.24,1.34,6.5,6.5,0,0,0-.54-1,7.34,7.34,0,0,0-.7-.95,28.3,28.3,0,0,0,5-.66c-.13-.1-.49-.4-1.08-.91a18.2,18.2,0,0,1-1.91.83,12.8,12.8,0,0,0-1.6-1.57A11.56,11.56,0,0,0,38,78.76a1.45,1.45,0,0,1-.92-1.43,6.85,6.85,0,0,1-2,2.2l-1.65-1.32a5.41,5.41,0,0,0,1.66-1.49H33V73.58h2.72A9.49,9.49,0,0,0,35,72.34H33.87a5.62,5.62,0,0,0-.47-1.71A66.19,66.19,0,0,0,45,69.7l1.59,1.59c-.61.13-1.27.24-2,.34l1.36.42c-.58.83-1,1.34-1.1,1.53h2.48V77H45.83a6.77,6.77,0,0,1,1,1.11l-1.71,1.27a8.18,8.18,0,0,0-1.57-1.81,1.58,1.58,0,0,1-.61,1.06,2.6,2.6,0,0,1-1.41.29h-.89a4.92,4.92,0,0,1-.51.58h3.13ZM37.08,76h2c-.18-.1-.37-.19-.55-.27l.31-.33H35.27v1.13a5.85,5.85,0,0,0,.34-.59l1.47.64Zm.42-2.41h1.85a11.32,11.32,0,0,0-.65-1.39l-1.31.07A4.83,4.83,0,0,1,38,73.39Zm4.13,7.54H38.46a7.35,7.35,0,0,0,1.68.9A6.93,6.93,0,0,0,41.63,81.12ZM45,76.25v-.86H41.43l.62.42-1.2,1.31a8.21,8.21,0,0,0-1.57-1v.79c0,.19,0,.31.11.36a1.21,1.21,0,0,0,.49.06h1.34a.48.48,0,0,0,.37-.1.88.88,0,0,0,.15-.48,5.15,5.15,0,0,0,1.39.52,5.26,5.26,0,0,0-.6-.51l1.6-1.14A10.61,10.61,0,0,1,45,76.25Zm-4.3-2.67h1.84a13.4,13.4,0,0,0,.92-1.79c-1,.12-1.86.2-2.5.26a6,6,0,0,1,.55,1.24Z"/><path class="cls-12" d="M56.92,76.94a3.25,3.25,0,0,1,1.93.49,1.57,1.57,0,0,1,.65,1.36,1.79,1.79,0,0,1-.39,1.08A5.43,5.43,0,0,1,57.79,81L58.88,82a4.29,4.29,0,0,0,.28-1.22h1.71A4.87,4.87,0,0,1,60,83.15l1.65,1.59H59.76l-.67-.63a3.93,3.93,0,0,1-2.34.74c-1.9,0-2.85-.66-2.85-2a1.71,1.71,0,0,1,.37-1,5,5,0,0,1,1.24-1.08,4.76,4.76,0,0,1-.91-1,1.85,1.85,0,0,1-.25-1A1.57,1.57,0,0,1,55,77.46,3.11,3.11,0,0,1,56.92,76.94Zm1.13,6.2-1.53-1.43c-.53.36-.8.7-.8,1,0,.51.37.77,1.11.77A2.09,2.09,0,0,0,58.05,83.14ZM56.79,80a4.07,4.07,0,0,0,.83-.61.72.72,0,0,0,.19-.46.68.68,0,0,0-.23-.54.9.9,0,0,0-.63-.19,1.07,1.07,0,0,0-.65.18.62.62,0,0,0-.23.48.84.84,0,0,0,.13.46A4.11,4.11,0,0,0,56.79,80Z"/><path class="cls-12" d="M82.42,74H78.94v1.44H82v2.17H73.62a11.1,11.1,0,0,1,.33,1.1l-1.81.84c-.07-.34-.13-.62-.2-.84l-.64,0V80l1.47-.47a20.35,20.35,0,0,1,1,3.11L72,83.3a22,22,0,0,0-.66-2.39v4.55H69.18V80.34a13.53,13.53,0,0,1-.89,4,9.42,9.42,0,0,0-1.81-.88,11.43,11.43,0,0,0,.76-3.81l1.94.34V78.88l-2.33.17L66.64,77l1.31,0,.58-.78a14.23,14.23,0,0,0-1.89-2.21l1.12-1.68.34.29a19.34,19.34,0,0,0,1.06-2.78l2.12.72c-.88,1.66-1.51,2.79-1.89,3.38a1.75,1.75,0,0,0,.18.22l.17.22a26.5,26.5,0,0,0,1.39-2.55l2,.84c-.86,1.27-1.59,2.33-2.22,3.18l1.54-.68a15.92,15.92,0,0,1,1.13,2.41V75.39H76.5V74H73.17V71.77H76.5v-2h2.44v2h3.48ZM70.1,76.85l1.15,0c-.2-.46-.33-.77-.41-.91C70.54,76.3,70.29,76.62,70.1,76.85Zm4,8.6V78.74h7.6v6.71H79.39v-.63H76.31v.63Zm5.28-4.58H76.31v1.81h3.08Z"/><path class="cls-12" d="M99.67,74.89H97.31A4.58,4.58,0,0,0,97.73,76c.16.29.31.42.45.41s.29-.39.32-1.18a4.19,4.19,0,0,0,1.64.94,4.39,4.39,0,0,1-.44,1.54,1.39,1.39,0,0,1-.81.66v7H96.53v-.52H93.45v.58H91.2V78.37h6.08c-1-.4-1.71-1.56-2.17-3.48H93.3V76l1.11-.12.85-.12.08,1.93-4.93.72-.21-1.5a20.07,20.07,0,0,1-.83,3.65,14.12,14.12,0,0,1,1.52,1.7l-1.55,1.92a14.82,14.82,0,0,0-1-1.32,8.67,8.67,0,0,1-2.74,2.65,7.61,7.61,0,0,0-1.37-1.94,6,6,0,0,0,2.44-2.42l-.47-.46-.1.39L84.18,79.9c.35-1.46.66-3,.94-4.73h-1V73h1.32c.22-1.49.36-2.57.44-3.23l2.29.22c-.1.72-.27,1.73-.5,3h1l.4,0,1.39.14c0,1.31-.13,2.37-.22,3.2l.82-.08V70.28l1.25.36a20.41,20.41,0,0,0,5.15-.94l1.65,1.55a17.11,17.11,0,0,1-2.26.59c0,.26,0,.65.08,1.18h2.7Zm-11.46.28h-.89c-.22,1.15-.42,2.16-.62,3l.86.71A19.83,19.83,0,0,0,88.21,75.17ZM93.3,73h1.5c0-.19,0-.47-.06-.86l-1.44.15Zm3.23,7.19H93.45v.63h3.08Zm-3.08,2.86h3.08v-.61H93.45Z"/><polygon class="cls-13" points="51.44 50.92 48.32 49.05 41.84 50.57 43.82 53.73 42.89 56.98 49.84 55.52 51.44 50.92"/><polygon class="cls-14" points="91.44 38.2 99.8 38.68 90.96 46.33 91.2 41.07 91.44 38.2"/><path class="cls-3" d="M63.64,55.16a18.38,18.38,0,0,1-6.48-10.93,12.51,12.51,0,0,1,1.34-8.85,9.38,9.38,0,0,1,15.39-.69c3.35-1.47,8-3,11.53-1.92,4,1.29,5.56,6,5.17,10.16-.33,3.48-2.37,6.61-4.89,9a78.31,78.31,0,0,1-8.31,6.39h0c-1,.76-2.2,2.52-3.34,3s-2.2-.78-3.22-1.49C68.48,58.21,65.87,57,63.64,55.16Z"/><path class="cls-12" d="M69.88,58.51c-7-3.75-13.87-11-11.88-19.59.72-3.15,3.17-7.08,6.61-7.71s7,1.72,8.37,4.75c.3.68,3.11-.28,2.9-.77-2.72-6.21-11-6.34-16-2.85-6.22,4.41-6.28,12.89-2.37,18.87a25.85,25.85,0,0,0,9.6,8.28A2.62,2.62,0,0,0,69,59.31c.13-.05,1.31-.57.87-.8Z"/><path class="cls-12" d="M75.44,35.56a8.17,8.17,0,0,1,5.82-2.91,8.86,8.86,0,0,1,5.51,2.07c3.2,2.69,3.81,7.42,2.48,11.2-1.41,4-4.51,6.83-7.89,9.19-3.12,2.17-6.38,4.21-8.5,7.44l2.79-.74A21.38,21.38,0,0,1,72,59.94c-.48-.31-1.39,0-1.87.16-.16.06-1.29.55-.86.83a20.63,20.63,0,0,0,3.62,1.86,2.87,2.87,0,0,0,2.8-.75c2-3.08,5.21-5,8.17-7.06a22.7,22.7,0,0,0,7.43-7.76A11.92,11.92,0,0,0,91.94,37a9.56,9.56,0,0,0-8-5.5,14,14,0,0,0-11.07,4.27c-.45.46.39.49.68.47a3.23,3.23,0,0,0,1.94-.69Z"/><path class="cls-12" d="M45.81,54.39q12.45-2.74,24.81-5.92c.92-.24,2.78-1.07,2.48-2.31s-2.49-1-3.3-.76Q57.44,48.58,45,51.32c-.92.21-2.77,1.09-2.48,2.31s2.48.94,3.31.76Z"/><path class="cls-12" d="M90.84,39.2a52.7,52.7,0,0,1,8.55.64L99,38.32l-4.2,3.46-2.07,1.69-1,.85-.55.46-.27.22c-.21.16-.14.13.22-.07l.76-.07-.11,0,.6.17.13.32c.14-1.36-2.79-.89-2.92.28-.07.72.55,1.07,1.19,1.15A2.93,2.93,0,0,0,92.86,46l2.69-2.21,5.3-4.36c.28-.23.62-.54.51-1s-.56-.51-.92-.56a55.51,55.51,0,0,0-9.29-.63c-.58,0-1.52.44-1.62,1.09s.82.82,1.31.81Z"/><path class="cls-12" d="M91.34,42.17l.69-.11-1-1a6,6,0,0,0-.82,1,5.74,5.74,0,0,0-.53,1.12.28.28,0,0,0,0,.29.36.36,0,0,0,.24.21,1,1,0,0,0,.42.1,1.57,1.57,0,0,0,.53,0,2.71,2.71,0,0,0,1.1-.37,1.24,1.24,0,0,0,.55-.6,4.73,4.73,0,0,1,.2-.47l-.1.21a4.81,4.81,0,0,1,.77-1.13l-.19.21.1-.11a.93.93,0,0,0,.29-.41.39.39,0,0,0-.1-.37.81.81,0,0,0-.46-.21,2,2,0,0,0-.69,0l-.68.1a3,3,0,0,0-1.1.37,1.28,1.28,0,0,0-.36.29.67.67,0,0,0-.19.31v.2a.5.5,0,0,0,.29.31,1.91,1.91,0,0,0,1,.09Z"/><path class="cls-12" d="M70,45.73l.33,3.08c0,.23.39.35.55.38A2.46,2.46,0,0,0,72,49.12a2.33,2.33,0,0,0,1-.48.7.7,0,0,0,.3-.6L72.88,45c0-.22-.39-.34-.55-.37a2.46,2.46,0,0,0-1.08.07,2.33,2.33,0,0,0-1,.48.68.68,0,0,0-.29.6Z"/><path class="cls-12" d="M45.33,52.33A11.84,11.84,0,0,1,41.85,50l-1.2,1.14,7.6-2.09-1.33,0c1.25.68,2.5,1.37,3.72,2.1a2.3,2.3,0,0,0,1.9-.06c.17-.07,1.34-.7.81-1-1.09-.65-2.19-1.26-3.3-1.87a7.59,7.59,0,0,0-.79-.44,2.57,2.57,0,0,0-1.57.11l-5.47,1.5L40.33,50c-.2.05-1.77.64-1.19,1.13A13,13,0,0,0,43,53.6a2.72,2.72,0,0,0,2-.31c.32-.18.94-.73.3-1Z"/><path class="cls-12" d="M43.25,52.59a14,14,0,0,0-1.49,3.15c-.28.73-.55,1.46-.8,2.2s1.36.63,1.65.55L48.13,57c.81-.22,1.62-.43,2.43-.67a1.93,1.93,0,0,0,1.4-1c.19-.4.37-.81.56-1.22l1.32-2.92c.1-.21-.13-.44-.29-.52a1.85,1.85,0,0,0-1-.1,2,2,0,0,0-1.64,1L49,55.73l1.25-.91-8,2.21,1.64.55c.24-.7.49-1.4.76-2.09A11.83,11.83,0,0,1,46,52.66c.41-.56-.35-.85-.78-.86a2.43,2.43,0,0,0-1.92.79Z"/><path class="cls-15" d="M70.62,50.69l-1,2.33a4.35,4.35,0,0,0-.48,1.7,1.36,1.36,0,1,0,2.7.37,3.75,3.75,0,0,0-.29-2.39,7.05,7.05,0,0,1-.65-2.35Z"/><path class="cls-12" d="M69.92,50.6c-.43,1-.94,2-1.29,3.06A2.49,2.49,0,0,0,69,56.35a2.11,2.11,0,0,0,2.66,0,2.63,2.63,0,0,0,.94-2.64c-.19-1.16-1-2.2-1-3.39,0-.69-1-.58-1.35-.18l-.28.34a.46.46,0,0,0,.19.74,1,1,0,0,0,1-.28l.28-.34-1.34-.18a13.47,13.47,0,0,0,.9,3.21,2.43,2.43,0,0,1,0,1.53,1.26,1.26,0,0,1-.26.39l-.16.13c-.09,0-.09,0,0,0l-.11,0s-.06,0,0,0c-.18-.06,0,.05-.13,0a.89.89,0,0,1-.38-.41A1.82,1.82,0,0,1,70,54a12.27,12.27,0,0,1,.63-1.55l.72-1.69c.15-.33-.13-.6-.45-.64A.92.92,0,0,0,69.92,50.6Z"/><path class="cls-15" d="M74.67,53.52c.35.94-1.23,2.09-1,3.06a1.11,1.11,0,0,0,1.66.54,1.71,1.71,0,0,0,.27-1.95,10.86,10.86,0,0,1-.82-1.93Z"/><path class="cls-12" d="M73.94,53.72a1.21,1.21,0,0,1,0,.18c0,.12,0,0,0,0a.31.31,0,0,1,0,.1,1.42,1.42,0,0,1,0,.2s-.08.21,0,.12a8.36,8.36,0,0,1-.46.83c-.3.51-.68,1.17-.38,1.77a1.79,1.79,0,0,0,2.14.72,1.83,1.83,0,0,0,1.14-.86,2,2,0,0,0,.19-1.14c-.09-.95-.8-1.69-1-2.61,0-.25-.46-.27-.64-.25a1.06,1.06,0,0,0-.77.4l-.15.29c-.16.29.14.47.4.48a1.12,1.12,0,0,0,1-.41l.15-.28-1.4.15A19.54,19.54,0,0,0,75,55.54a2,2,0,0,1,.09.87,1.06,1.06,0,0,1-.1.34l-.06.09s-.08.09,0,0l-.08.08.06,0c-.06,0,0,0,0,0s0,0,0,0,.19-.06.06,0h0l-.1,0c-.06,0,.07.05,0,0l-.1,0,0,0,0,0-.08-.08a.5.5,0,0,1-.14-.29s0-.16,0-.08a.76.76,0,0,1,0-.15c0-.07,0-.13,0-.18l0-.09a.14.14,0,0,1,0-.06s0,0,0,0a6.44,6.44,0,0,1,.4-.73,2.19,2.19,0,0,0,.49-1.74c-.1-.31-.58-.28-.83-.21S73.83,53.4,73.94,53.72Z"/><path class="cls-15" d="M68.26,62.51h0a1.7,1.7,0,0,0-.22.81c0,.66.77,1.09,1.44,1.1a1.61,1.61,0,0,0,1.25-.49,1.65,1.65,0,0,0,.35-1.2,3.92,3.92,0,0,0-.35-1.23c-.23-.55-.75-2.39-1.47-1.86-.3.23-.24,1-.33,1.28A9.71,9.71,0,0,1,68.26,62.51Z"/><path class="cls-12" d="M67.58,62.48a1.55,1.55,0,0,0-.07,1.58,2,2,0,0,0,1.28.76c1.26.22,2.91-.42,3-1.86a3.88,3.88,0,0,0-.38-1.71c-.12-.32-.23-.64-.37-1a2.65,2.65,0,0,0-.58-.93A1.34,1.34,0,0,0,69,59.31c-.57.3-.65.81-.71,1.4a6,6,0,0,1-.67,1.77c-.31.66,1.14.54,1.36.07a14.88,14.88,0,0,0,.62-1.42,6,6,0,0,0,.19-1,1.14,1.14,0,0,1,.06-.25s0,0,0,0,.07,0,0,0a.91.91,0,0,1-.56.17c-.16,0-.12,0-.07,0-.16,0,0,0,0,0l0,0,.11.13a2.08,2.08,0,0,1,.2.33,14.3,14.3,0,0,1,.68,1.72,1.93,1.93,0,0,1,.05,1.34,1.38,1.38,0,0,1-.2.32s-.08,0,0,0a.38.38,0,0,1-.13.06c.12,0,0,0,0,0h-.09s-.14,0,0,0-.2,0-.09,0l-.24-.06a1,1,0,0,1-.42-.26.91.91,0,0,1-.06-1.11C69.25,61.88,67.8,62,67.58,62.48Z"/></svg>