<svg id="レイヤー_1" data-name="レイヤー 1" xmlns="http://www.w3.org/2000/svg" viewBox="0 0 91.72 52.57"><defs><style>.cls-1{fill:#1578db;}.cls-2{font-size:20px;fill:#fff;font-family:Corporate-Logo-Bold, Corporate Logo Bold;font-weight:700;letter-spacing:0.05em;}</style></defs><path class="cls-1" d="M2.27,31c-2.71-7.23.54-24.16,28-29,17-3,30,0,42,10,9,7.46,8,15.39,9,18l9,6s-11.3,2.31-12,3c-3.89,3.85-9.45,5.88-16.46,8.89C38.27,58,8.27,47,2.27,31Z"/><path class="cls-1" d="M3.72,30.56c-1.6-4.35-.61-9.41,1.6-13.36,3.9-7,11.39-10.95,18.84-13.07,10.51-3,22.37-3.69,32.76.13a47.4,47.4,0,0,1,13.56,7.89,23.15,23.15,0,0,1,8.3,12.7c.36,1.58.48,3.21.85,4.8.25,1.08,1.06,1.39,1.94,2l7.55,5,.95-1.46A82.71,82.71,0,0,0,78.44,38,8,8,0,0,0,76,39.71a25.77,25.77,0,0,1-4.53,3,114.42,114.42,0,0,1-11.62,5.12c-13.52,5.28-29.78,3.72-42.43-3.19-5.76-3.15-11.28-7.77-13.69-14-.39-1-3.26-.19-2.9.78C3,36.92,7.45,41.22,12.39,44.41a52.19,52.19,0,0,0,20.23,7.44,55.92,55.92,0,0,0,23.21-1.12,88.31,88.31,0,0,0,12-4.6,42.16,42.16,0,0,0,10.22-5.7c.38-.31.78-.64,1.13-1s.2-.2.06-.1c-.46.33-.11,0-.06,0A8.82,8.82,0,0,0,80.26,39c1.35-.38,2.73-.7,4.1-1,2-.46,4.07-.91,6.11-1.32.58-.12,1.82-.89,1-1.47l-7-4.64-1.56-1c-.12-.09-.27-.16-.39-.26l-.07-.05c.46.53.15,0,.15-.16a30.93,30.93,0,0,0-.72-4.16A23.36,23.36,0,0,0,74.34,12,48.26,48.26,0,0,0,60.21,3.22C49.47-1,37.5-.65,26.4,2c-8.49,2-17.35,5.87-22.55,13.21-3.19,4.5-5,10.8-3,16.18C1.21,32.37,4.08,31.53,3.72,30.56Z"/><text class="cls-2" transform="translate(19.53 33.71)">未婚</text></svg>