<svg id="レイヤー_1" data-name="レイヤー 1" xmlns="http://www.w3.org/2000/svg" viewBox="0 0 106.67 69.12"><defs><style>.cls-1{fill:#fff;}.cls-2{fill:#1578db;}.cls-3{fill:#39b34a;}</style></defs><path class="cls-1" d="M15.09,23.81S24.27.86,61,.86c21,0,46.81,14.69,44.06,37.64C103.91,48,98.62,56.86,88.53,62.36,76.09,69.15,63,69.71,49.25,66.08c-11.44-3-21.16-10.79-28.72-19.9-5.35-6.45-10.48-13.87-19.06-16C4.79,29.85,13.57,26.82,15.09,23.81Z"/><path class="cls-1" d="M16.55,23.65c-.18.44,0,0,.07-.16l.51-1A29.85,29.85,0,0,1,19.39,19a38.13,38.13,0,0,1,10.5-9.55A51.88,51.88,0,0,1,51,2.33,57.43,57.43,0,0,1,76.56,4.45c14.92,5,29.3,17.6,27,34.72a30.28,30.28,0,0,1-14.85,22.1C78.92,67,67.4,68.49,56.34,66.6a51.29,51.29,0,0,1-15.27-4.91,57.19,57.19,0,0,1-12.54-9A112.07,112.07,0,0,1,18.61,41.6c-2.91-3.54-6-7-9.92-9.52a22.28,22.28,0,0,0-6.35-2.75l-1,1.7a30.09,30.09,0,0,0,8.4-2.43c2.35-1,5.47-2.36,6.76-4.72.7-1.26-2.22-1-2.71-.13-1,1.88-3.66,2.88-5.53,3.65a24.2,24.2,0,0,1-6.56,1.9C.94,29.37-1,30.6.59,31,10.66,33.63,16,43.64,22.68,50.7c7.47,7.89,16.62,14,27.26,16.61C61.26,70.05,73.13,69.87,84,65.45c9.47-3.85,17.53-10.6,21-20.46a28.66,28.66,0,0,0-2.21-24.21C98.52,13.64,91.47,8.4,84,5A56.39,56.39,0,0,0,58.63,0C49.78.32,40.84,2,32.82,5.84,25.2,9.51,17.51,15.52,13.89,23.4c-.09.19-.17.38-.25.58-.26.64.93.73,1.27.7A1.9,1.9,0,0,0,16.55,23.65Z"/><path class="cls-2" d="M45.16,50.64v-1a16,16,0,0,1-2.29,1.32,6.38,6.38,0,0,0-1.21-1.71,13.25,13.25,0,0,0,3.25-2,11.74,11.74,0,0,0,2.34-2.55h2.16a11.46,11.46,0,0,0,5.82,4.26,10.14,10.14,0,0,0-1.32,1.86,17.46,17.46,0,0,1-2.25-1.28v1.15Zm9.11,2.72H51.38a23,23,0,0,1,1.69,1.73,12.18,12.18,0,0,1,1.26,1.68l-1.9,1.15c0-.09-.21-.36-.51-.82l-9,.45-.28-2,2.15-.07a16.49,16.49,0,0,0,.82-2.12h-3V51.48H54.27Zm-8-4.58h4.39a11.12,11.12,0,0,1-2.24-2.18A12.91,12.91,0,0,1,46.26,48.78Zm4.6,4.58H48.14c-.09.16-.2.38-.34.66l-.39.77c-.12.22-.23.43-.34.62l3.42-.12c-.38-.41-.75-.79-1.11-1.15Z"/><path class="cls-2" d="M62.88,52.56l-1.23,1.65c-.18-.25-.5-.66-1-1.24v5h-2V53.42a11.31,11.31,0,0,1-1.49,1.11,6.32,6.32,0,0,0-.42-1.05,5.76,5.76,0,0,0-.52-.91,8.65,8.65,0,0,0,2.06-1.5,9.21,9.21,0,0,0,1.62-2H56.77V47.2h1.88V44.64h2V47.2H61l.35-.07,1.14.74a13.77,13.77,0,0,1-1.56,3C61.8,51.56,62.46,52.14,62.88,52.56Zm4.15,3h2.85v2h-8v-2h3.06V50.78H62.45v-2h2.48v-4H67v4h2.49v2H67Z"/><path class="cls-2" d="M83,55.43H81.28c1.19.36,2.28.73,3.27,1.09l-1.82,1.42a33.89,33.89,0,0,0-4.56-1.6l1.28-.91H75.92l1.15.82a16.87,16.87,0,0,1-4.36,1.67,13.36,13.36,0,0,0-1.54-1.45,15.67,15.67,0,0,0,3.24-1H72.55V49.08H83ZM82.55,45v3.72H73.2V45Zm-8,5.43v.37H80.9v-.37Zm0,1.62v.37H80.9v-.37Zm0,1.63v.38H80.9v-.38Zm5.81-6.52v-.6H75.25v.6Z"/><path class="cls-3" d="M78.13,35.41h0a22.08,22.08,0,0,1-.34-5.9,6.16,6.16,0,0,0,.11-1.6,12.93,12.93,0,0,1-.35-1.73,3.66,3.66,0,0,1,1.6-2.5A3.56,3.56,0,0,1,81,22.62a2.19,2.19,0,0,1,1.89.91,3.89,3.89,0,0,1,.69,2A5.36,5.36,0,0,0,83.79,27c.27.75,1,1.25,1.38,1.94A3,3,0,0,1,85,32c-.29.45-1,.72-1.08,1.28s.47,1.15.53,1.73c.29,3-3.12,3.21-4.73,1.5C78.8,37.36,78.25,36.22,78.13,35.41Z"/><path class="cls-2" d="M78.55,26.09a1.15,1.15,0,0,1,.63-.29c.46-.05,1.27-.35,1.22-.94a4.78,4.78,0,0,1,0-1.51c0-.14.1-.47.23-.56s.2,0,.43.12c.75.38,2,1.83,1.93,2.72,0,.44-.48.74-.34,1.22a5.61,5.61,0,0,0,.91,1.26c.57.8,1.42,2,1.16,3s-1.53.64-1.81,1.67.8,1.62.74,2.59a1.49,1.49,0,0,1-2,1.33c-.53-.26-.79-.69-1.4-.79a3,3,0,0,0-1.72.27c-.33.14-.87.52-.57.93s1.1.21,1.45.05c-.25.11-.26-.1-.14.14s.29.24.4.32a2.17,2.17,0,0,0,.56.3,3.81,3.81,0,0,0,1.74.19,5.09,5.09,0,0,0,3-1.33A2.53,2.53,0,0,0,85.68,34c-.1-.22-.24-.41-.36-.62a5.19,5.19,0,0,1-.23-.62s-.66.23,0,0a2.92,2.92,0,0,0,.38-.14,2.69,2.69,0,0,0,.77-.48c1.79-1.62.11-4-1-5.49-.23-.3-.29-.29-.17-.64a2.68,2.68,0,0,0,.22-.73,2.73,2.73,0,0,0-.56-1.57,4.68,4.68,0,0,0-2.26-2.07,3.39,3.39,0,0,0-3.5.75,3.78,3.78,0,0,0-.66,3.07l1.22-.94a4.37,4.37,0,0,0-2.27.86c-1.17.89.65,1.27,1.37.72Z"/><path class="cls-2" d="M80.58,37.78a13.14,13.14,0,0,0,0,2.08c.07.66.17,1.3.23,2,0,.16.3.25.42.27A1.8,1.8,0,0,0,82,42c.35-.1,1-.33,1-.79a27.08,27.08,0,0,1-.27-2.83v.14c0-.35,0-.71,0-1.06a.32.32,0,0,0-.21-.36,1.32,1.32,0,0,0-.71-.06,2,2,0,0,0-.83.28c-.14.08-.41.24-.42.43Z"/><path class="cls-3" d="M71,35.41h0a21.67,21.67,0,0,1-.33-5.9,6.63,6.63,0,0,0,.11-1.6,13,13,0,0,1-.36-1.73,3.66,3.66,0,0,1,1.6-2.5,3.55,3.55,0,0,1,1.88-1.05,2.19,2.19,0,0,1,1.88.91,3.89,3.89,0,0,1,.69,2A5.82,5.82,0,0,0,76.65,27c.27.75,1,1.25,1.38,1.94A3,3,0,0,1,77.86,32c-.28.45-1,.72-1.08,1.28s.47,1.15.53,1.73c.29,3-3.12,3.21-4.73,1.5C71.67,37.36,71.11,36.22,71,35.41Z"/><path class="cls-2" d="M43.89,18.05c-.24,7.92-.67,15.84-.73,23.77,0,.45,2.17.11,2.18-.58,0-7.93.49-15.85.72-23.78,0-.43-2.15-.12-2.17.59Z"/><path class="cls-2" d="M44.1,18.62q13.35.54,26.7.29l-1-.63C70,22.2,70,26.11,69.94,30a103.54,103.54,0,0,0,.86,11.79c.08.89,2.26.38,2.17-.58a96.37,96.37,0,0,1-.83-11.5c.1-3.89,0-7.77-.13-11.66,0-.54-.52-.63-1-.62Q58,17.7,44.88,17.17c-.45,0-1.23.14-1.42.64s.16.79.64.81Z"/><path class="cls-1" d="M49.79,22.57a7.08,7.08,0,0,0,0,3.27"/><path class="cls-2" d="M48.7,22.68a7.73,7.73,0,0,0,0,3.45.64.64,0,0,0,.45.38,1.63,1.63,0,0,0,.82,0c.38-.12,1-.45.91-1a6.47,6.47,0,0,1-.19-1.32v.18a7,7,0,0,1,.18-1.93.46.46,0,0,0-.25-.48,1.14,1.14,0,0,0-.73-.13c-.47.06-1.09.3-1.21.82Z"/><path class="cls-1" d="M50,22.25,52.39,22a.83.83,0,0,1,1.06,1l.16,2.88a.72.72,0,0,1-.08.46.68.68,0,0,1-.55.21,11.44,11.44,0,0,1-2.19-.09"/><path class="cls-2" d="M49.88,22.8l1.26-.12.64-.06.36,0c.28,0-.18,0,0,0s.1,0,0,0h0c-.07-.07,0,.05.06.06s0,.06,0,0,0,.07,0,.11a1.21,1.21,0,0,1,0,.18,8.62,8.62,0,0,1,.08,1.14l.07,1.26,0,.63a2.81,2.81,0,0,1,0,.29s0,.16,0,.12a.7.7,0,0,1,.41-.27c.42-.1.53-.13.33-.1.35,0,0,0-.07,0H52l-.18,0-.35,0a2,2,0,0,0-1.53.41c-.12.11-.28.26-.23.43a.48.48,0,0,0,.41.27,12.84,12.84,0,0,0,2.63.08,2.54,2.54,0,0,0,1.76-.72,1.52,1.52,0,0,0,.17-1.15c0-.83-.09-1.65-.14-2.48a1.59,1.59,0,0,0-.23-.88,1.4,1.4,0,0,0-1.18-.47c-.49,0-1,.08-1.47.12l-1.45.14a2.33,2.33,0,0,0-.82.27c-.15.09-.38.25-.42.43-.12.47.68.42.92.4Z"/><path class="cls-1" d="M56.52,23a12.16,12.16,0,0,0,.17,3,.8.8,0,0,0,.19.46.82.82,0,0,0,.51.16,8,8,0,0,0,2.39-.21L60.06,23a.64.64,0,0,0-.06-.41c-.13-.2-.43-.2-.67-.17l-1.86.23"/><path class="cls-2" d="M55.43,23.07a13.09,13.09,0,0,0,0,2c0,.3.06.6.11.9a1.82,1.82,0,0,0,.27.88c.43.61,1.44.52,2.09.51A9.46,9.46,0,0,0,60,27.06c.33-.08.88-.37.91-.77L61,24.41l.08-1a4.6,4.6,0,0,0,0-1c-.11-.78-1.09-.87-1.71-.8l-1.85.23a1.84,1.84,0,0,0-.82.29.85.85,0,0,0-.39.54c0,.51.57.67,1,.62l1.57-.2.34,0c.09,0,.24,0-.06,0,.13,0-.06,0-.09,0,.12,0-.08,0-.11-.07a.1.1,0,0,1-.06-.09V23c0-.1,0,0,0,.05s0,.14,0,.2l-.27,3.26.92-.77a2.59,2.59,0,0,0-.4.09c.07,0,.21,0,.06,0l-.2,0a6.31,6.31,0,0,1-.76.07h-.2l-.38,0c-.13,0,0,0,.07,0-.19-.06.1.07,0,0l0,0,0-.05,0,.05a.17.17,0,0,1,0-.1,7.42,7.42,0,0,1-.2-1.49c0-.13,0-.12,0-.26v-.41c0-.27,0-.54,0-.82,0-.51-.57-.67-1-.62a1.8,1.8,0,0,0-.82.29.82.82,0,0,0-.39.54Z"/><path class="cls-1" d="M63.51,22.4l.25,4a17.87,17.87,0,0,0,2.07,0,.75.75,0,0,0,.84-.93l.18-2.78a.61.61,0,0,0-.11-.5.64.64,0,0,0-.51-.11l-2.28.2"/><path class="cls-2" d="M62.41,22.48l.25,4a.62.62,0,0,0,.19.46.88.88,0,0,0,.53.23,17.77,17.77,0,0,0,2.42,0,2.3,2.3,0,0,0,1.57-.67,1.77,1.77,0,0,0,.4-1.05c.06-.75.1-1.5.14-2.26a3.24,3.24,0,0,0,0-1.12,1.17,1.17,0,0,0-1.13-.77,11.43,11.43,0,0,0-1.43.08l-1.31.12a1.56,1.56,0,0,0-.81.29.94.94,0,0,0-.39.57c0,.54.56.74,1,.7.78-.07,1.57-.1,2.34-.2.12,0,.08,0-.09,0a.58.58,0,0,1-.25-.09s-.15-.22-.09-.09,0,.08,0,0a.49.49,0,0,1,0,.12c0,.08,0,.17,0,.25l-.08,1.22-.08,1.18c0,.16,0,.31,0,.47s0,0,0-.06a1.17,1.17,0,0,1,0,.11.52.52,0,0,1,.17-.19.68.68,0,0,1,.21-.1.5.5,0,0,1,.24-.06H66l-.27,0h-1l-.62,0,.72.69-.25-4a.57.57,0,0,0-.26-.53,1.13,1.13,0,0,0-.74-.16,1.56,1.56,0,0,0-.81.29c-.16.13-.4.35-.39.57Z"/><path class="cls-1" d="M49.79,28.72a7,7,0,0,0,0,3.26"/><path class="cls-2" d="M48.7,28.83a7.73,7.73,0,0,0,0,3.45.64.64,0,0,0,.45.38,1.63,1.63,0,0,0,.82,0c.38-.12,1-.45.91-1a6.47,6.47,0,0,1-.19-1.32v.18a7,7,0,0,1,.18-1.93.46.46,0,0,0-.25-.48,1.14,1.14,0,0,0-.73-.13c-.47.06-1.09.3-1.21.82Z"/><path class="cls-1" d="M50,28.4l2.35-.22a1.18,1.18,0,0,1,.7.08,1.13,1.13,0,0,1,.36.93l.16,2.88a.54.54,0,0,1-.63.67,11.44,11.44,0,0,1-2.19-.09"/><path class="cls-2" d="M49.88,29l1.26-.12.64-.06.36,0c.28,0-.18,0,0,0h0c-.07-.07,0,.05.06.06s0,.06,0,0,0,.07,0,.11a1.21,1.21,0,0,1,0,.18,8.59,8.59,0,0,1,.08,1.13l.07,1.27,0,.63a2.71,2.71,0,0,1,0,.29s0,.16,0,.12a.71.71,0,0,1,.41-.28q.63-.14.33-.09c.35,0,0,0-.07,0H52c.06,0,0,0,0,0l-.18,0-.35,0a2,2,0,0,0-1.53.41c-.12.11-.28.25-.23.43a.45.45,0,0,0,.41.26,12.17,12.17,0,0,0,2.63.09,2.54,2.54,0,0,0,1.76-.72,1.53,1.53,0,0,0,.17-1.15c0-.83-.09-1.65-.14-2.48a1.59,1.59,0,0,0-.23-.88,1.4,1.4,0,0,0-1.18-.47c-.49,0-1,.08-1.47.12l-1.45.14a2.15,2.15,0,0,0-.82.27c-.15.09-.38.25-.42.43-.12.47.68.42.92.4Z"/><path class="cls-1" d="M56.52,29.12a12.18,12.18,0,0,0,.17,3,.83.83,0,0,0,.19.46.82.82,0,0,0,.51.16,8,8,0,0,0,2.39-.21l.28-3.43a.62.62,0,0,0-.06-.4c-.13-.21-.43-.2-.67-.17l-1.86.23"/><path class="cls-2" d="M55.43,29.22a13.09,13.09,0,0,0,0,2c0,.3.06.6.11.89a1.85,1.85,0,0,0,.27.89c.43.61,1.44.52,2.09.51A9.46,9.46,0,0,0,60,33.21c.33-.08.88-.37.91-.77L61,30.56l.08-1a4.7,4.7,0,0,0,0-1c-.11-.77-1.09-.86-1.71-.79l-1.85.23a1.72,1.72,0,0,0-.82.29.83.83,0,0,0-.39.54c0,.51.57.67,1,.62l1.57-.2.34,0c.09,0,.24,0-.06,0,.13,0-.06,0-.09,0,.12,0-.08,0-.11-.07a.1.1,0,0,1-.06-.09v.06c0-.1,0,0,0,.05s0,.14,0,.2l-.27,3.26.92-.77a2.59,2.59,0,0,0-.4.09c.07,0,.21,0,.06,0l-.2,0a6.31,6.31,0,0,1-.76.07h-.2l-.38,0c-.13,0,0,0,.07,0-.19-.06.1.07,0,0s0,0,0,0l0-.06,0,.06a.17.17,0,0,1,0-.1,7.52,7.52,0,0,1-.2-1.49c0-.13,0-.12,0-.26v-.41c0-.27,0-.55,0-.82,0-.51-.57-.67-1-.62a1.8,1.8,0,0,0-.82.29.82.82,0,0,0-.39.54Z"/><path class="cls-1" d="M63.51,28.55l.25,4a20.42,20.42,0,0,0,2.07,0,.75.75,0,0,0,.84-.93l.18-2.78a.61.61,0,0,0-.11-.5.64.64,0,0,0-.51-.11l-2.28.2"/><path class="cls-2" d="M62.41,28.63l.25,4a.62.62,0,0,0,.19.46.88.88,0,0,0,.53.23,19.54,19.54,0,0,0,2.42,0,2.3,2.3,0,0,0,1.57-.67,1.77,1.77,0,0,0,.4-1.05c.06-.75.1-1.51.14-2.26a3.24,3.24,0,0,0,0-1.12,1.17,1.17,0,0,0-1.13-.77,9.8,9.8,0,0,0-1.43.08l-1.31.11a1.66,1.66,0,0,0-.81.3.92.92,0,0,0-.39.57c0,.54.56.73,1,.7.78-.07,1.57-.1,2.34-.2H66.1a.75.75,0,0,1-.25-.09s-.15-.22-.09-.09,0,.08,0,0a.49.49,0,0,1,0,.12c0,.08,0,.17,0,.25l-.08,1.22-.08,1.18c0,.16,0,.31,0,.47s0,0,0-.06l0,.11a.52.52,0,0,1,.17-.19.68.68,0,0,1,.21-.1.5.5,0,0,1,.24-.06H66l-.27,0h-1l-.62,0,.72.69-.25-4a.57.57,0,0,0-.26-.53,1.13,1.13,0,0,0-.74-.16,1.56,1.56,0,0,0-.81.29c-.16.13-.4.35-.39.57Z"/><path class="cls-1" d="M49.79,34.87a7,7,0,0,0,0,3.26"/><path class="cls-2" d="M48.7,35a7.68,7.68,0,0,0,0,3.44.65.65,0,0,0,.45.39,1.52,1.52,0,0,0,.82,0c.38-.11,1-.44.91-.95a6.57,6.57,0,0,1-.19-1.32v.18a7,7,0,0,1,.18-1.93.46.46,0,0,0-.25-.48,1.14,1.14,0,0,0-.73-.13c-.47.05-1.09.29-1.21.82Z"/><path class="cls-1" d="M50,34.55l2.35-.22a1.11,1.11,0,0,1,.7.08,1.13,1.13,0,0,1,.36.93l.16,2.88a.72.72,0,0,1-.08.46.75.75,0,0,1-.55.21,12.31,12.31,0,0,1-2.19-.09"/><path class="cls-2" d="M49.88,35.1,51.14,35l.64-.06.36,0c.28,0-.18,0,0,0s.1,0,0,0-.08,0,0,0l.06.06c0,.05,0,.06,0,0s0,.07,0,.11a1.21,1.21,0,0,1,0,.18,8.59,8.59,0,0,1,.08,1.13l.07,1.27,0,.63a2.71,2.71,0,0,1,0,.29s0,.16,0,.11a.74.74,0,0,1,.41-.27q.63-.14.33-.09c.35,0,0,0-.07,0H52.1c-.1,0-.12,0-.06,0s0,0,0,0h-.18l-.35,0a2,2,0,0,0-1.53.41c-.12.11-.28.25-.23.43s.26.24.41.26a12.84,12.84,0,0,0,2.63.09,2.54,2.54,0,0,0,1.76-.72,1.53,1.53,0,0,0,.17-1.15c0-.83-.09-1.65-.14-2.48a1.59,1.59,0,0,0-.23-.88,1.4,1.4,0,0,0-1.18-.47c-.49,0-1,.08-1.47.12L50.2,34a2.15,2.15,0,0,0-.82.27c-.15.09-.38.25-.42.43-.12.47.68.42.92.4Z"/><path class="cls-1" d="M56.52,35.26a12.13,12.13,0,0,0,.17,3,.86.86,0,0,0,.19.47.82.82,0,0,0,.51.16,8,8,0,0,0,2.39-.21l.28-3.43a.62.62,0,0,0-.06-.4c-.13-.21-.43-.2-.67-.17l-1.86.23"/><path class="cls-2" d="M55.43,35.37a13.09,13.09,0,0,0,0,2c0,.3.06.6.11.89a1.89,1.89,0,0,0,.27.89c.43.61,1.44.52,2.09.51A9.46,9.46,0,0,0,60,39.36c.33-.08.88-.37.91-.77L61,36.71l.08-1a4.7,4.7,0,0,0,0-1C61,34,60.06,33.9,59.44,34l-1.85.23a1.72,1.72,0,0,0-.82.29.84.84,0,0,0-.39.53c0,.52.57.68,1,.63l1.57-.2.34,0c.09,0,.24,0-.06,0,.13,0-.06,0-.09,0,.12,0-.08,0-.11-.07a.1.1,0,0,1-.06-.1v.07c0-.1,0,0,0,0s0,.14,0,.2l-.27,3.26L59.6,38a2.59,2.59,0,0,0-.4.09c.07,0,.21,0,.06,0l-.2,0a6.31,6.31,0,0,1-.76.07h-.2l-.38,0c-.13,0,0,0,.07,0-.19-.06.1.07,0,0s0,0,0,0l0-.06,0,.06a.19.19,0,0,1,0-.1,7.52,7.52,0,0,1-.2-1.49c0-.13,0-.12,0-.26V36c0-.27,0-.55,0-.82,0-.51-.57-.67-1-.62a1.69,1.69,0,0,0-.82.29.82.82,0,0,0-.39.54Z"/><path class="cls-1" d="M63.51,34.7l.25,4a20.42,20.42,0,0,0,2.07,0,.75.75,0,0,0,.84-.93L66.85,35a.64.64,0,0,0-.11-.51.68.68,0,0,0-.51-.1L64,34.55"/><path class="cls-2" d="M62.41,34.78l.25,4a.62.62,0,0,0,.19.46.88.88,0,0,0,.53.23,19.54,19.54,0,0,0,2.42,0,2.26,2.26,0,0,0,1.57-.68,1.72,1.72,0,0,0,.4-1c.06-.75.1-1.51.14-2.26a3.24,3.24,0,0,0,0-1.12,1.17,1.17,0,0,0-1.13-.77,8.58,8.58,0,0,0-1.43.08l-1.31.11a1.66,1.66,0,0,0-.81.3.92.92,0,0,0-.39.57c0,.54.56.73,1,.7.78-.07,1.57-.11,2.34-.2.12,0,.08,0-.09,0a.73.73,0,0,1-.25-.08s-.15-.22-.09-.09,0,.08,0,0a.57.57,0,0,1,0,.13c0,.08,0,.16,0,.25l-.08,1.22-.08,1.18c0,.16,0,.31,0,.47s0,0,0-.06l0,.11a.52.52,0,0,1,.17-.19.51.51,0,0,1,.21-.1.5.5,0,0,1,.24-.06H66l-.27,0h-1l-.62,0,.72.69-.25-4a.57.57,0,0,0-.26-.53,1.2,1.2,0,0,0-.74-.17,1.66,1.66,0,0,0-.81.3c-.16.13-.4.35-.39.57Z"/><path class="cls-2" d="M71.41,26.09A1.18,1.18,0,0,1,72,25.8c.46-.05,1.28-.35,1.22-.94a5.09,5.09,0,0,1,0-1.51c0-.14.11-.47.23-.56s.2,0,.43.12c.75.38,2,1.83,1.93,2.72,0,.44-.48.74-.33,1.22a5.05,5.05,0,0,0,.91,1.26c.56.8,1.41,2,1.16,3s-1.54.64-1.82,1.67.81,1.62.74,2.59a1.49,1.49,0,0,1-2,1.33c-.52-.26-.79-.69-1.4-.79a3,3,0,0,0-1.72.27c-.33.14-.87.52-.57.93s1.11.21,1.45.05c-.24.11-.26-.1-.14.14s.29.24.4.32a2.07,2.07,0,0,0,.57.3,3.75,3.75,0,0,0,1.73.19,5.09,5.09,0,0,0,3-1.33A2.55,2.55,0,0,0,78.55,34c-.11-.22-.25-.41-.37-.62s-.13-.41-.23-.62c0,0-.66.23,0,0a2.46,2.46,0,0,0,.38-.14,2.69,2.69,0,0,0,.77-.48c1.79-1.62.11-4-1-5.49-.23-.3-.28-.29-.17-.64a2.68,2.68,0,0,0,.22-.73,2.72,2.72,0,0,0-.55-1.57,4.77,4.77,0,0,0-2.26-2.07,3.41,3.41,0,0,0-3.51.75,3.82,3.82,0,0,0-.66,3.07l1.22-.94a4.37,4.37,0,0,0-2.27.86c-1.17.89.65,1.27,1.37.72Z"/><path class="cls-2" d="M73.45,37.78a13.14,13.14,0,0,0,0,2.08c.07.66.18,1.3.24,2,0,.16.29.25.41.27a1.85,1.85,0,0,0,.81-.06c.34-.1,1-.33,1-.79a24.6,24.6,0,0,1-.26-2.83v.14c0-.35,0-.71,0-1.06a.31.31,0,0,0-.21-.36,1.32,1.32,0,0,0-.71-.06,2,2,0,0,0-.82.28c-.15.08-.41.24-.42.43Z"/><path class="cls-2" d="M43.56,9.51c.08,1.49.1,3,0,4.49,0,.52.55.74,1,.69s1.19-.33,1.2-.87c0-1.49,0-3-.05-4.49a.59.59,0,0,0-.26-.53,1.13,1.13,0,0,0-.74-.16,1.55,1.55,0,0,0-.82.3c-.16.12-.39.34-.38.57Z"/><path class="cls-2" d="M43.75,9.68c2,.69,4.49.43,6.6.49l7.11.22,14.48.44-.65-.43a30.54,30.54,0,0,0-.35,5.65c0,.61,2.19.21,2.17-.58a29.15,29.15,0,0,1,.35-5.36c.05-.37-.39-.42-.65-.43l-13.5-.41-6.62-.2L49.25,9a13.5,13.5,0,0,1-3.76-.28A1.88,1.88,0,0,0,44,8.9c-.23.15-.72.61-.21.78Z"/><path class="cls-2" d="M44.66,15.07q13.5.78,27,.94c.43,0,1.24-.14,1.43-.61s-.15-.69-.6-.69q-13.53-.17-27-.94c-.88,0-2.3,1.22-.83,1.3Z"/><path class="cls-2" d="M52.8,15.11l-.25,2.82a.31.31,0,0,0,.21.36,1.43,1.43,0,0,0,.71.05,2.25,2.25,0,0,0,.83-.27c.14-.09.4-.25.42-.44L55,14.82a.31.31,0,0,0-.21-.36,1.43,1.43,0,0,0-.71-.05,2.15,2.15,0,0,0-.82.27c-.15.09-.41.25-.42.43Z"/><path class="cls-2" d="M62.4,15.49a10.11,10.11,0,0,0,.22,3.2c0,.15.29.19.4.21a2.17,2.17,0,0,0,.8-.09,2.22,2.22,0,0,0,.74-.32c.11-.09.28-.22.24-.38a9.6,9.6,0,0,1-.24-3v.06c0-.17,0-.23-.19-.29a1.51,1.51,0,0,0-.7,0,2.76,2.76,0,0,0-.83.26l-.2.13a.56.56,0,0,0-.23.25Z"/><path class="cls-2" d="M51,10.81a2.42,2.42,0,0,0-1.25-.15,2.76,2.76,0,0,0-.89.26,1.82,1.82,0,0,0-.52.39,1,1,0,0,0-.2.94,1.23,1.23,0,0,0,.67.76,2.42,2.42,0,0,0,1.48.13,2.09,2.09,0,0,0,.55-.18c.08-.05.27-.15.29-.26.06-.28-.46-.25-.6-.22l-.13,0c-.09,0,.11,0,.1,0h-.23s-.1,0,0,0,0,0,0,0h-.05l-.24-.1.09.05a1.11,1.11,0,0,1-.36-.32l0,.07a1,1,0,0,1-.17-.64v.08a.85.85,0,0,1,.11-.34l-.06.09a1.71,1.71,0,0,1,.11-.14l0,0,0,0,0,0c.06-.05-.08,0-.08,0l0,0-.11,0,0,0-.13,0h.05c.08,0-.15,0-.13,0s.16,0,0,0,0,0,0,0h0l.19,0h0l.09,0,.18.07a1.06,1.06,0,0,0,.47,0,1.55,1.55,0,0,0,.55-.18c.09,0,.26-.14.28-.26s0-.15-.13-.2Z"/><path class="cls-2" d="M51.34,11.41a1.93,1.93,0,0,0-.43.78A1,1,0,0,0,51,13a1.27,1.27,0,0,0,.54.46,2.15,2.15,0,0,0,1,.19,1.82,1.82,0,0,0,1.57-1,1.05,1.05,0,0,0,0-.76,1.12,1.12,0,0,0-.49-.6,2.35,2.35,0,0,0-2.2.05.8.8,0,0,0-.38.32.33.33,0,0,0,0,.37.88.88,0,0,0,1,.07l.14-.06s.11,0,0,0,0,0,0,0l.14,0c.1,0-.1,0-.1,0h.08s.19,0,.06,0h.07l-.09,0,.06,0,.12,0L52.46,12a1.28,1.28,0,0,1,.25.15l-.1-.08a.88.88,0,0,1,.19.24l-.06-.11a.69.69,0,0,1,.08.28v-.13a.8.8,0,0,1,0,.31l0-.13a1,1,0,0,1-.12.23l.09-.12a.43.43,0,0,1-.09.1s-.09,0,.05,0l-.05,0c-.1.07.06,0,.07,0l-.06,0c-.08,0,.2-.06.09,0l-.08,0,.1,0h-.07c-.06,0-.11-.05,0,0l-.07,0-.15-.05.14.06a1.45,1.45,0,0,1-.26-.17l.1.09a.88.88,0,0,1-.19-.24l0,.11a.6.6,0,0,1-.07-.27v.12A1.07,1.07,0,0,1,52.4,12l0,.13a1.51,1.51,0,0,1,.2-.35l-.09.12.07-.09a.43.43,0,0,0,.13-.38.42.42,0,0,0-.3-.26,1.1,1.1,0,0,0-.54,0,1,1,0,0,0-.48.27Z"/><path class="cls-2" d="M54.28,11.66a4.79,4.79,0,0,0,.08,1.73c.08.33.6.31.84.24s.67-.29.61-.63c0,0,0-.19,0-.11s0-.12,0-.18a1.67,1.67,0,0,1,.08-.32l0-.09c0-.05.07-.1.1-.16s0,0,0,0l.06-.07c0-.05,0,0,0,0l.07-.06c-.08.05-.09.05,0,0a.5.5,0,0,1-.38,0,.18.18,0,0,1-.19-.05l.06.06s0,0,0,0a1.46,1.46,0,0,1,.07.19,2.41,2.41,0,0,1,.07.8l1.45-.15a2.21,2.21,0,0,1,.08-.37s0,0,0,0a1.17,1.17,0,0,1,.05-.11l.1-.17,0,0,0,0,.06-.07s.09-.09,0,0,0,0,0,0L57.7,12c.07-.06-.12,0,0,0s0-.05-.27,0a.26.26,0,0,1-.33,0s.1.14.07.08a.49.49,0,0,1,.06.17c0,.13,0,.25.07.38a1.81,1.81,0,0,0,.27.81.56.56,0,0,0,.4.17,1.11,1.11,0,0,0,.57-.1c.24-.12.57-.38.37-.67,0,0-.07-.13,0,0a.49.49,0,0,1,0-.11,2.27,2.27,0,0,1-.06-.25c0-.16,0-.33-.07-.5a1.24,1.24,0,0,0-.23-.51,1,1,0,0,0-.87-.28,2.2,2.2,0,0,0-1.8,1.91c0,.33.38.43.64.39s.78-.2.81-.54a2.43,2.43,0,0,0-.15-1.25.82.82,0,0,0-.5-.48,1.48,1.48,0,0,0-1.09.12,2,2,0,0,0-1.12,2.07L55.81,13a3.93,3.93,0,0,1-.07-1.49c.08-.66-1.39-.43-1.46.15Z"/><path class="cls-2" d="M58.57,11.78A10,10,0,0,0,58.65,14c0,.12.19.18.28.21a1.14,1.14,0,0,0,.55,0c.24-.07.67-.25.62-.57a9.51,9.51,0,0,1-.1-1.31v.11a6.77,6.77,0,0,1,0-.78c0-.32-.39-.36-.63-.33a1.34,1.34,0,0,0-.55.19c-.1.07-.26.18-.27.32Z"/><path class="cls-2" d="M59.72,12.06h0l-.16.1a.66.66,0,0,1,.19-.09l-.19.07.17-.05-.2,0,.17,0h-.18a.65.65,0,0,1,.19,0l-.17,0a1,1,0,0,1,.16.06l-.14-.07a.57.57,0,0,1,.18.12l-.1-.09a.6.6,0,0,1,.16.22l-.06-.12a.43.43,0,0,1,.06.22v-.13a.76.76,0,0,1,0,.21l0-.13a1.42,1.42,0,0,1-.08.18l.08-.13a.32.32,0,0,1-.11.12l.13-.11-.09.06.16-.09-.1,0,.19-.07-.1,0,.19,0h.08l-.14,0,.16,0-.13-.05.14.07a.56.56,0,0,1-.15-.1l.1.09,0,0a.68.68,0,0,0-.41-.19,1,1,0,0,0-.57.1.75.75,0,0,0-.37.33.36.36,0,0,0,0,.39,1.15,1.15,0,0,0,.49.33,1.44,1.44,0,0,0,.65.07,1.54,1.54,0,0,0,1.22-.75.7.7,0,0,0,.08-.2.59.59,0,0,0,.05-.23,1.37,1.37,0,0,0,0-.28,1.19,1.19,0,0,0-.11-.26,1,1,0,0,0-.31-.34.67.67,0,0,0-.14-.09,2.36,2.36,0,0,0-.28-.12,2.07,2.07,0,0,0-1.65.3.6.6,0,0,0-.26.38.36.36,0,0,0,.17.35.78.78,0,0,0,.49.1l.2,0a1.14,1.14,0,0,0,.35-.17Z"/><path class="cls-2" d="M63.52,12.16a.63.63,0,0,0-.36-.48,1.4,1.4,0,0,0-.57-.17,2,2,0,0,0-1.29.24.93.93,0,0,0-.36.35,1.43,1.43,0,0,0-.14.34,1,1,0,0,0,.21,1,1.26,1.26,0,0,0,1,.19,1.94,1.94,0,0,0,1.08-.51,2.52,2.52,0,0,0,.66-1.47c0-.31-.41-.33-.62-.3s-.71.17-.83.49a1.88,1.88,0,0,0-.16,1,1.25,1.25,0,0,0,.2.4,1,1,0,0,0,.5.28,1.1,1.1,0,0,0,.54,0,1.49,1.49,0,0,0,.49-.24c.07-.08.18-.19.14-.31s-.16-.16-.28-.19h0l.13,0a.34.34,0,0,1-.12-.06l.09.06a.58.58,0,0,1-.17-.18l0,.08a.93.93,0,0,1-.12-.43v.1a2.24,2.24,0,0,1,.18-.72l-1.45.19a2.58,2.58,0,0,1-.25.86l.05-.1a1.39,1.39,0,0,1-.25.38l.1-.1-.11.1c-.06.05.13-.08,0,0s.17-.08.07,0,.18,0,.1,0,.21,0,.1,0h.13l.13,0-.14-.07.1.07a.52.52,0,0,1-.14-.16l0,.09a.73.73,0,0,1-.09-.38v.1a1.53,1.53,0,0,1,.13-.56l0,.1a1,1,0,0,1,.08-.11l-.09.1s0,0-.07.05l-.12.06-.13,0-.14,0c.11,0-.19,0-.08,0h.08c.1,0-.16,0-.06,0h.06l.14,0-.14,0a.94.94,0,0,1,.23.1l-.1-.06a.53.53,0,0,1,.13.13l0-.09a.34.34,0,0,1,0,.17c0,.12.2.18.28.2a1.24,1.24,0,0,0,.54,0,1.21,1.21,0,0,0,.48-.24.37.37,0,0,0,.15-.3Z"/><path class="cls-2" d="M63.59,11.78a7.35,7.35,0,0,1,.09,1.62c0,.08.23.09.26.09a1.27,1.27,0,0,0,.43-.05,1.83,1.83,0,0,0,.45-.15c.09,0,.28-.11.3-.22a2.22,2.22,0,0,1,.45-1l.05,0A.3.3,0,0,1,65.7,12l.06-.05c-.06,0-.06,0,0,0s-.17.08-.15.07a1.43,1.43,0,0,1-.41.09c-.1,0-.13,0-.06,0h0c-.08,0,0,0,0,0a.6.6,0,0,1,.08.08l0-.05a.82.82,0,0,1,.12.41,2.33,2.33,0,0,0,.08.36.75.75,0,0,0,.55.51,1.19,1.19,0,0,0,.46,0,2.19,2.19,0,0,0,.55-.17c.12-.06.5-.3.18-.37l0,0s0,0,0,0l-.07,0-.11-.11,0,.06a2.17,2.17,0,0,1-.25-.83c-.11-.49-.73-.49-1.13-.42a2.59,2.59,0,0,0-1,.38,2.13,2.13,0,0,0-.46.44,2.33,2.33,0,0,0-.45,1L65.13,13A7.35,7.35,0,0,0,65,11.39c0-.08-.2-.09-.25-.1a1.89,1.89,0,0,0-.53.08,1.54,1.54,0,0,0-.5.2c-.07,0-.18.11-.17.21Z"/><path class="cls-2" d="M66.7,12.47a2.84,2.84,0,0,0,1.25,1,.86.86,0,0,0,.55,0,.66.66,0,0,0,.27-.12.55.55,0,0,0,.2-.17.47.47,0,0,0,.11-.44.52.52,0,0,0-.31-.32l-.23-.11.14.08a2.41,2.41,0,0,1-.54-.41l.11.11a2,2,0,0,1-.23-.27.61.61,0,0,0-.42-.23.66.66,0,0,0-.28,0,.75.75,0,0,0-.29.09.72.72,0,0,0-.37.36.47.47,0,0,0,0,.43Z"/><path class="cls-2" d="M68.66,12.21c-.16.17-.32.33-.49.48l-.13.12h0a.46.46,0,0,1-.07.07l-.27.23a12.86,12.86,0,0,1-1.12.82c-.06.05-.18.16-.16.26s.19.13.27.14a1.67,1.67,0,0,0,1-.27A14.15,14.15,0,0,0,70,12.16a.15.15,0,0,0,0-.23.56.56,0,0,0-.38-.08,1.52,1.52,0,0,0-1,.36Z"/></svg>