<svg id="レイヤー_1" data-name="レイヤー 1" xmlns="http://www.w3.org/2000/svg" viewBox="0 0 134.71 120.12"><defs><style>.cls-1{fill:#fff;}.cls-2{font-size:13px;font-family:Corporate-Logo-Bold, Corporate Logo Bold;font-weight:700;letter-spacing:0.05em;}.cls-2,.cls-6{fill:#1578db;}.cls-3{font-size:15px;letter-spacing:0.05em;}.cls-4{fill:#7db4eb;}.cls-5{fill:#f4b0a9;}</style></defs><path class="cls-1" d="M1.89,76.84c-3.43-23.48,13.47-46.58,22.5-50.23a6.84,6.84,0,0,0,4-3C29,22.33,31.89,14.25,32.06.86c4.83,7.43,10.27,10.47,11.53,11.05s32-4.68,52.3-.64c15,3,32.58,15.17,36,34.27,4,22.36,0,49.18-22,62.59-19.66,12-33.36,11.26-54.44,11.18C42.81,119.27,6.89,111.11,1.89,76.84Z"/><path class="cls-1" d="M3.34,76.45C1.45,63,5.92,49.11,13.6,38.12c2.66-3.81,5.86-7.76,9.88-10.21,2-1.23,4.48-1.72,5.91-3.83a12.6,12.6,0,0,0,1.41-3.46A73.29,73.29,0,0,0,33.51.47l-2.8.94c2.84,4.32,6.56,8.44,11.18,10.9,1.76.94,4.31.23,6.19,0,10.55-1.09,21.13-2,31.76-1.81a77.86,77.86,0,0,1,17.48,2,48.53,48.53,0,0,1,14.86,6.76,46,46,0,0,1,12.37,12.18,40.16,40.16,0,0,1,6.27,16.7c1.71,11.21,1.38,22.94-2.11,33.79a49.86,49.86,0,0,1-7.83,15.13A46.67,46.67,0,0,1,107,108.93a68.74,68.74,0,0,1-18.74,7.63,86.82,86.82,0,0,1-18,2c-8.52.19-17,.47-25.39-1.41a63.35,63.35,0,0,1-22.51-9.76A45.24,45.24,0,0,1,5.22,84.54a50,50,0,0,1-1.88-8.09c-.14-.9-3-.24-2.9.78a45.77,45.77,0,0,0,14.13,27.08,59.86,59.86,0,0,0,23,12.79,71.78,71.78,0,0,0,10.63,2.44,78.68,78.68,0,0,0,11,.57c12.92.07,25.8-.18,38-4.82s23.37-12,29.94-23.45c5.78-10.07,7.86-21.81,7.6-33.32A66.93,66.93,0,0,0,132.36,41a40.5,40.5,0,0,0-9-15.54A50.36,50.36,0,0,0,94,10C82,8.2,69.61,8.88,57.57,10c-3.92.34-7.82.81-11.74,1.15-.69.06-.48,0-1.12.07-.23,0-.46-.12-.11,0-.18-.07.15.05.15,0s-.23-.1-.29-.13a32.92,32.92,0,0,1-4.52-3.19A36.73,36.73,0,0,1,33.41.31c-.52-.78-2.79.07-2.8.94A74.81,74.81,0,0,1,28.2,20,21.94,21.94,0,0,1,27,23.64a6.1,6.1,0,0,1-3.14,2.42,17.28,17.28,0,0,0-2.3,1.19c-4,2.51-7.29,6.25-10,10.06A63.21,63.21,0,0,0,2.87,54,50.58,50.58,0,0,0,.44,77.23C.57,78.13,3.48,77.47,3.34,76.45Z"/><text class="cls-2" transform="matrix(1, 0.01, -0.01, 1, 32.46, 73.78)">学びの場では<tspan class="cls-3"><tspan x="-16.38" y="18.72">理論的な説明を</tspan><tspan x="1.75" y="35.72">欲します！</tspan></tspan></text><path class="cls-4" d="M62.08,23.94h0c1.77,1.13,2.84,3.63,2,5.51-.2.46,0,.55,0,1s-.46,1-.25,1.39a4.28,4.28,0,0,1-.73,5,3.15,3.15,0,0,1,2,3.2A4.72,4.72,0,0,1,63,43.46c.5.92,2,2.52,2.09,3.56a2.75,2.75,0,0,1-1.55,2.58c1.37,1.86,1.7,4.6,0,6.2-1.48,1.39-5.08,1.26-7.12.9a16.67,16.67,0,0,1-5.64-2.4c-2.52-1.52-5.19-3.63-5.23-6.49a3.06,3.06,0,0,0-.09-1.09,3.81,3.81,0,0,0-1-1.14,4.08,4.08,0,0,1-.83-4A4.48,4.48,0,0,1,46,38.75a4,4,0,0,1-.52-4.13c.65-1.22,2.71-3.15,4.13-3.1-1-1.09.43-4.2,1.55-5.17s3.67-1.16,5.17-1c-.79-.07-.12-1,.41-1.31A5.3,5.3,0,0,1,62.08,23.94Z"/><path class="cls-5" d="M73.14,24h0c-1.77,1.12-2.86,3.61-2,5.5.19.45,0,.54,0,1s.45,1,.24,1.4A4.27,4.27,0,0,0,72,37a3.14,3.14,0,0,0-2,3.18A4.72,4.72,0,0,0,72,43.49c-.51.92-2,2.51-2.11,3.54a2.75,2.75,0,0,0,1.53,2.6c-1.39,1.85-1.74,4.58,0,6.19,1.47,1.41,5.07,1.31,7.11,1a16.77,16.77,0,0,0,5.66-2.36c2.53-1.5,5.22-3.59,5.27-6.45a3.26,3.26,0,0,1,.11-1.08,3.59,3.59,0,0,1,1-1.14,4.08,4.08,0,0,0,.86-4,4.55,4.55,0,0,0-2.28-2.84,4.08,4.08,0,0,0,.55-4.13C89,33.56,87,31.61,85.54,31.65c1-1.08-.4-4.2-1.51-5.17s-3.66-1.2-5.16-1.08c.79-.06.13-1-.4-1.31A5.32,5.32,0,0,0,73.14,24Z"/><path class="cls-6" d="M63.92,56.48A4.87,4.87,0,0,0,64,49.34l-.07.78a4.35,4.35,0,0,0,0-7l-.07.78a4.28,4.28,0,0,0-.08-7.44l-.23.88a3.52,3.52,0,0,0,1.56-4.5c-.21-.5-.61-.83-.59-1.37s.45-1,.61-1.61a5.57,5.57,0,0,0-.32-3.62A5.85,5.85,0,0,0,60,22.56a4.32,4.32,0,0,0-4.49,3.08l1-.6a7.75,7.75,0,0,0-6.09,1.5,5.14,5.14,0,0,0-1.69,5.34l.79-.75c-4.2.27-6.82,4.88-4.11,8.39l.34-.78a5.52,5.52,0,0,0,.71,10.06l-.19-.73A3.68,3.68,0,0,0,46.71,53a6.45,6.45,0,0,0,3,1.57c1.3.36,2.48.37,3.53,1.29a9.23,9.23,0,0,0,11.21.34c.8-.58-.37-1.13-1-.7a7.5,7.5,0,0,1-9.38-.74c-1.26-1.09-3-.89-4.49-1.49-1.73-.69-3.58-2.87-2.11-4.7a.45.45,0,0,0-.2-.73c-3.47-1.31-4.23-6.18-.89-8.16.25-.15.57-.47.34-.77-2-2.51-.75-6.42,2.66-6.64.33,0,.91-.31.78-.74a4.09,4.09,0,0,1,1.14-4.18A5.67,5.67,0,0,1,56,26.13a.87.87,0,0,0,1-.59c.59-2.17,3.12-2.25,4.65-1.08a5.5,5.5,0,0,1,2.16,4.7c-.13,1.25-1.38,2.14-.64,3.35s1.34,3.08-.27,4c-.27.15-.66.64-.23.88a3.36,3.36,0,0,1,.22,5.88.47.47,0,0,0-.07.78A3.41,3.41,0,0,1,63,49.42a.48.48,0,0,0-.07.78A4,4,0,0,1,63,55.78c-.72.67.42,1.22,1,.7Z"/><path class="cls-6" d="M63.37,28.55a2.47,2.47,0,0,0-2.59-.81,3.75,3.75,0,0,0-2.69,1.86,4.26,4.26,0,0,0,1.14,5.21c.21.17.72,0,.93-.09s.63-.24.44-.39a4.17,4.17,0,0,1-1.4-4.19,3,3,0,0,1,1.3-1.89c.1-.05,0,0,0,0a1.57,1.57,0,0,1,.49.06,1.69,1.69,0,0,1,.92.65c.24.33,1.55-.26,1.45-.39Z"/><path class="cls-6" d="M60.47,34.27a2.15,2.15,0,0,0-2.8.77,4.18,4.18,0,0,0-.6,2.91,6.76,6.76,0,0,0,3.43,4.61.92.92,0,0,0,1-.08c.24-.18.39-.56.08-.75a6.51,6.51,0,0,1-2.85-3.19,4.16,4.16,0,0,1-.19-2.21c0-.22.39-1.45.78-1.23a1,1,0,0,0,1-.08c.22-.17.4-.57.08-.75Z"/><path class="cls-6" d="M56.58,41a4.19,4.19,0,0,0,.12,3.75,4.26,4.26,0,0,0,2.7,2,1.06,1.06,0,0,0,1-.27.37.37,0,0,0-.17-.65,3.43,3.43,0,0,1-2.18-1.67A3.49,3.49,0,0,1,58,41.14c.32-.72-1.13-.67-1.37-.13Z"/><path class="cls-6" d="M63.66,49.35l-.43.13-.18,0c-.17,0,.11,0,0,0s-.29,0-.44.06h-.29a4.63,4.63,0,0,1-1.47-.25,1.15,1.15,0,0,0-1,.13.57.57,0,0,0-.28.31.25.25,0,0,0,.16.27,6.37,6.37,0,0,0,4.2,0c.22-.08.71-.26.62-.57s-.62-.26-.82-.19Z"/><path class="cls-6" d="M64,55.3a4.37,4.37,0,0,1-5.32-2c-.23-.4-1.61.12-1.45.39A5.27,5.27,0,0,0,60,56a6.3,6.3,0,0,0,4.5-.26c.14-.06.6-.24.41-.46s-.77,0-.94,0Z"/><path class="cls-6" d="M55.64,42.6c-2.33-.31-3.25,2.71-2.9,4.51a4.63,4.63,0,0,0,3.76,3.58,2,2,0,0,0,1-.2c.11-.05.51-.28.19-.34a4.35,4.35,0,0,1-3.53-5,4.4,4.4,0,0,1,.7-1.72,2,2,0,0,1,.17-.23c.34-.42.2.09-.6,0a2,2,0,0,0,1-.2c.1,0,.52-.29.19-.34Z"/><path class="cls-6" d="M54.65,40.86a2.75,2.75,0,0,1-.87-2.93,2.91,2.91,0,0,1,.78-1.12,3.59,3.59,0,0,1,.63-.45,6.63,6.63,0,0,1,.63-.27c.24-.08.7-.28.61-.61s-.6-.3-.83-.23a4.94,4.94,0,0,0-3.18,2.58,3.24,3.24,0,0,0,.9,3.63.88.88,0,0,0,1,0c.18-.08.63-.41.37-.65Z"/><path class="cls-6" d="M55.38,35.31c.06,0-.13-.08-.17-.11a1.23,1.23,0,0,1-.25-.26,1.85,1.85,0,0,1-.32-.68,3,3,0,0,1,0-1.44,2.92,2.92,0,0,1,1.57-2.07c.19-.08.7-.42.29-.61s-.3-1-.16-1.34a4.28,4.28,0,0,1,1.06-1.58c.22-.21.16-.42-.13-.49a1.3,1.3,0,0,0-1,.28,5.12,5.12,0,0,0-1.4,2.11,1.32,1.32,0,0,0,.5,1.7l.29-.62a4.06,4.06,0,0,0-2.49,3c-.22,1.38.4,3,2,2.83.25,0,.77-.18.83-.48s-.44-.3-.62-.28Z"/><path class="cls-6" d="M51.78,29.34a4.14,4.14,0,0,0-1,4.38l.17-.2a6.28,6.28,0,0,0-3.25,3.9,3.91,3.91,0,0,0,1.64,4.17c.24.14.7,0,.93-.1.07,0,.64-.26.44-.39a3.75,3.75,0,0,1-1.58-4,5.69,5.69,0,0,1,2.92-3.62s.2-.12.17-.2a4,4,0,0,1,.85-4.13c.22-.22-.2-.21-.33-.2a1.73,1.73,0,0,0-1,.34Z"/><path class="cls-6" d="M49.81,41.25A3.82,3.82,0,0,0,47.22,44a3.15,3.15,0,0,0,.32,2.09A4.16,4.16,0,0,0,49,47.49c.32.24.17.35.1.73a3,3,0,0,0,.07,1.3,9.37,9.37,0,0,0,1.07,2.29,11.2,11.2,0,0,0,2.92,3.63c.31.22,1.52-.36,1.37-.47a10.75,10.75,0,0,1-2.79-3.45c-.72-1.24-1.68-2.8-1-4.25,0,0,0-.07,0-.1a3.24,3.24,0,0,1-2-2.6,3,3,0,0,1,1.66-3.06c.14,0,.57-.18.45-.37s-.82.07-.93.11Z"/><path class="cls-6" d="M61.26,31.14a2.61,2.61,0,0,1,.66.24l-.09-.05a3,3,0,0,1,1.14,1l0-.06a2.46,2.46,0,0,1,.25.45.32.32,0,0,0,.27.14,1.35,1.35,0,0,0,.53-.06,1.45,1.45,0,0,0,.49-.22c.06,0,.21-.15.16-.25a3.28,3.28,0,0,0-2.19-1.8,1.57,1.57,0,0,0-1,.17c-.1.06-.25.13-.29.25s0,.17.13.2Z"/><path class="cls-6" d="M71.83,55.73a4,4,0,0,1,0-5.59c.24-.22.37-.53.07-.77A3.4,3.4,0,0,1,71.94,44c.24-.18.38-.59.07-.78a3.33,3.33,0,0,1,0-5.78c.26-.15.67-.64.23-.88a2.64,2.64,0,0,1-.71-3.83c.3-.45.63-.75.52-1.34s-.73-1.27-.86-2a5.33,5.33,0,0,1,2.24-5A2.94,2.94,0,0,1,78,25.86a.6.6,0,0,0,.66.36,6.07,6.07,0,0,1,4.71,1.1,4.2,4.2,0,0,1,1.42,4.4.47.47,0,0,0,.44.64,4.15,4.15,0,0,1,3,6.76.45.45,0,0,0,0,.66c3.11,1.87,3.24,6.8-.45,8.15-.29.11-.83.46-.53.84,1.51,1.92-.32,4.07-2.19,4.71-1.52.52-3.08.34-4.34,1.42a7.45,7.45,0,0,1-9.38.5c-.54-.39-1.79.36-1.11.86a9.24,9.24,0,0,0,11.34-.54c.94-.84,2.21-.75,3.4-1.09a7.18,7.18,0,0,0,2.86-1.48,3.78,3.78,0,0,0,.75-5l-.53.85c4.41-1.62,5.57-7.47,1.29-10l.06.66a5.09,5.09,0,0,0-3.69-8.31l.45.64a5,5,0,0,0-1.42-5.2,7.39,7.39,0,0,0-6-1.59l.67.36a4.11,4.11,0,0,0-4.5-2.85,6.2,6.2,0,0,0-4.82,3.94,5.56,5.56,0,0,0-.35,3.32,10.2,10.2,0,0,0,.64,1.47c.23.6-.17.87-.44,1.36a3.44,3.44,0,0,0,1.14,4.65l.23-.88c-3,1.64-3.41,5.63-.43,7.54l.07-.78a4.35,4.35,0,0,0-.22,7l.07-.77a4.87,4.87,0,0,0-.1,7.14c.49.46,1.73-.27,1.11-.86Z"/><path class="cls-6" d="M73,28.64a1.53,1.53,0,0,1,.37-.35c.09-.07,0,0,0,0a1.77,1.77,0,0,1,1,.31,3.23,3.23,0,0,1,1.32,1.94,4.11,4.11,0,0,1-1.39,4.16c-.26.2.23.22.33.21a1.86,1.86,0,0,0,1-.34,4.3,4.3,0,0,0,1.23-5.22,2.86,2.86,0,0,0-2.28-1.61,3.46,3.46,0,0,0-3,1.18c-.14.2.53.12.58.11a1.39,1.39,0,0,0,.85-.38Z"/><path class="cls-6" d="M75.28,35.17c.12-.07.07,0,0,0a.35.35,0,0,1,.17,0,1.1,1.1,0,0,1,.31.26,2.58,2.58,0,0,1,.44,1,3.85,3.85,0,0,1-.09,2.23,6.25,6.25,0,0,1-2.86,3.24.45.45,0,0,0-.08.75,1,1,0,0,0,1-.09,7,7,0,0,0,3.51-4.58,4.25,4.25,0,0,0-.43-2.82,2,2,0,0,0-2.69-.81c-.26.14-.55.44-.34.75a.86.86,0,0,0,1,.11Z"/><path class="cls-6" d="M76.83,41.34a3.56,3.56,0,0,1-.07,3.09,3.23,3.23,0,0,1-.81,1l-.29.2a1.3,1.3,0,0,1-.21.12l-.18.08s-.17.07-.06,0l-.38.11c-.26.06-.69.32-.6.65s.59.32.85.26a4.75,4.75,0,0,0,3-2.16A4.16,4.16,0,0,0,78.28,41a.69.69,0,0,0-.85-.27c-.21.06-.74.34-.6.65Z"/><path class="cls-6" d="M70.42,50.11a6.58,6.58,0,0,0,4.4,0c.2-.07.59-.36.38-.6s-.71-.12-1,0l-.08,0-.21.05-.18,0H73.7l-.4,0H73a4.34,4.34,0,0,1-1.44-.23,1.18,1.18,0,0,0-1,.13.55.55,0,0,0-.27.31.24.24,0,0,0,.15.27Z"/><path class="cls-6" d="M69.86,55.83a6.22,6.22,0,0,0,7.63-2.44c.15-.25-.51-.2-.59-.19a1.14,1.14,0,0,0-.84.43,4.3,4.3,0,0,1-2,1.81,3.88,3.88,0,0,1-3-.22,1.41,1.41,0,0,0-1,.17c-.18.09-.46.31-.16.44Z"/><path class="cls-6" d="M79.44,43.23c-.12,0,0,.06.08.1a1.31,1.31,0,0,1,.23.24,3.17,3.17,0,0,1,.32.49,4.19,4.19,0,0,1,.45,1.07,4.5,4.5,0,0,1,0,2.36,3.83,3.83,0,0,1-2.73,2.76c-.2,0-.78.15-.86.38s.5.12.58.11a5.43,5.43,0,0,0,4.38-3.35,4.65,4.65,0,0,0,0-2.81,4.4,4.4,0,0,0-.65-1.3,1.15,1.15,0,0,0-1.19-.59c-.27,0-.79.1-1,.34s.16.22.33.2Z"/><path class="cls-6" d="M81.43,41.42a3.38,3.38,0,0,0,1-3.61,4.49,4.49,0,0,0-2.9-2.49,1.13,1.13,0,0,0-1,.28c-.23.24-.14.49.16.59a3.64,3.64,0,0,1,2.31,2,2.64,2.64,0,0,1-.79,2.9.33.33,0,0,0,.16.59,1.17,1.17,0,0,0,1-.27Z"/><path class="cls-6" d="M79.14,36.15a2.43,2.43,0,0,0,2.63-2.82,3.73,3.73,0,0,0-2.21-3.11l-.3.62c1.77-.83.52-3-.48-3.93-.35-.33-1.71.21-1.34.56A4.39,4.39,0,0,1,78.5,29a2.66,2.66,0,0,1,.21.73,1.2,1.2,0,0,1,0,.33c0,.12-.17.32,0,.23-.17.08-.72.44-.3.62a3.3,3.3,0,0,1,1.9,3.41,2.19,2.19,0,0,1-.17.62,1.35,1.35,0,0,1-.19.33.64.64,0,0,1-.1.13c-.17.12-.11.13.19,0a1.33,1.33,0,0,0-1,.27c-.2.19-.19.45.13.48Z"/><path class="cls-6" d="M81.79,29.62a4,4,0,0,1,.85,4.15.08.08,0,0,0,0,.11,6,6,0,0,1,3,3.57,3.69,3.69,0,0,1-1.43,4c-.25.15-.17.25.08.28a1.86,1.86,0,0,0,1-.27,4.2,4.2,0,0,0,.87-6.24A6.73,6.73,0,0,0,84.94,34c-.19-.15-.69-.36-.78-.58s.12-.59.15-.82a4.06,4.06,0,0,0-1.16-3.45c-.24-.25-1.56.28-1.36.48Z"/><path class="cls-6" d="M84.08,41.74c2.43.94,3,4.69.29,5.73-.05,0-.37.15-.32.26.7,1.47-.25,3-1,4.24a10.5,10.5,0,0,1-2.8,3.41c-.27.19.24.19.33.18a2,2,0,0,0,1-.33,10.93,10.93,0,0,0,2.91-3.53c.75-1.28,1.73-2.86,1-4.36l-.31.26a3.67,3.67,0,0,0,2.43-3,3.33,3.33,0,0,0-2.17-3.35,1.5,1.5,0,0,0-.93.1s-.64.29-.44.37Z"/><path class="cls-6" d="M73,30.59a3.92,3.92,0,0,0-2.71,2.07c-.05.09,0,.16.13.19a1,1,0,0,0,.46,0,2.16,2.16,0,0,0,.56-.18.57.57,0,0,0,.28-.25l.21-.38-.05.08a2.72,2.72,0,0,1,.34-.42l.09-.1,0,0,0,0h0l.06-.05.11-.08.1-.07.07,0-.06,0,.13-.06s.1-.07.12-.06l-.08,0,.07,0,.12,0-.09,0,.06,0,.15,0a1.26,1.26,0,0,0,.49-.21c.06-.05.19-.15.16-.26s-.18-.13-.26-.13a1.65,1.65,0,0,0-.54.05Z"/><path class="cls-6" d="M42,23.11c.31.14.62.3.92.47l-.19-.11a11.45,11.45,0,0,1,2,1.39,1.22,1.22,0,0,0,.77.17,3.17,3.17,0,0,0,1.13-.23,1.89,1.89,0,0,0,.79-.51c.11-.15.2-.35,0-.5a12.78,12.78,0,0,0-3.07-1.95,1.87,1.87,0,0,0-.94,0,3.1,3.1,0,0,0-1.1.36c-.19.11-.52.29-.57.53s.08.33.27.42Z"/><path class="cls-6" d="M47.88,18.45l1.3,2.42a.69.69,0,0,0,.35.24,1.06,1.06,0,0,0,.47.13A2.37,2.37,0,0,0,51.14,21a1.53,1.53,0,0,0,.75-.65l.09-.26a.64.64,0,0,0-.13-.48l-1.31-2.43A.76.76,0,0,0,50.2,17a1.21,1.21,0,0,0-.47-.12,2.15,2.15,0,0,0-1.14.21,1.45,1.45,0,0,0-.75.65l-.09.25a.63.63,0,0,0,.13.49Z"/><path class="cls-6" d="M55.6,15.91,56,19.73c0,.28.39.5.61.58a2,2,0,0,0,1.1,0,1.87,1.87,0,0,0,1-.55,1.05,1.05,0,0,0,.24-.8l-.38-3.83c0-.27-.39-.49-.6-.57a2,2,0,0,0-1.1,0,1.92,1.92,0,0,0-.95.56,1,1,0,0,0-.24.8Z"/></svg>