<svg id="レイヤー_1" data-name="レイヤー 1" xmlns="http://www.w3.org/2000/svg" viewBox="0 0 95 64.03"><defs><style>.cls-1{fill:#1578db;}.cls-2{font-size:40px;letter-spacing:-0.03em;}.cls-2,.cls-4{fill:#fff;font-family:Corporate-Logo-Bold, Corporate Logo Bold;font-weight:700;}.cls-3{letter-spacing:0.05em;}.cls-4{font-size:14px;letter-spacing:0.05em;}</style></defs><path class="cls-1" d="M2.8,24.11h0c3-8.78,10.4-15.64,18.91-19.33S39.76.29,49,1c9.57.75,19.18,3.14,27.3,8.25S91,22.41,93,31.8a21.52,21.52,0,0,1-.11,10.37c-2.13,7.39-9.09,12.34-16.12,15.46A67.13,67.13,0,0,1,43.25,63C31.8,61.92,20,57.89,9.1,61.6c.42-.14.17-9.71-.11-10.57-.88-2.67-3.37-4.61-4.72-7.11A25.34,25.34,0,0,1,2.8,24.11Z"/><path class="cls-1" d="M4.25,23.91C8.73,11.37,20.8,4,33.53,2.13a69.09,69.09,0,0,1,21.95.52A53.72,53.72,0,0,1,75.28,10a38.69,38.69,0,0,1,13,13.64c3.17,5.75,5.06,13,2.9,19.44-2,6-7.22,10.1-12.62,12.9A60.85,60.85,0,0,1,58.34,62.1,64,64,0,0,1,46,62.47c-4.17-.29-8.29-1-12.4-1.7C25.4,59.43,17,58.32,8.93,61l1.31.79c.91-.67.53-3,.53-3.92,0-2,0-4.06-.19-6.08-.19-2.38-1.86-4.18-3.29-6a20.76,20.76,0,0,1-4.06-9.73,25.56,25.56,0,0,1,1-12.15c.28-.85-2.59-.48-2.89.41a26.51,26.51,0,0,0-1,12.93,23.83,23.83,0,0,0,2,6.32,29,29,0,0,0,3.38,4.84,7.67,7.67,0,0,1,1.82,3.67c.12,1.11.14,2.23.18,3.34,0,1.34.07,2.69,0,4,0,.52,0,1,0,1.54a1.67,1.67,0,0,0-.05.49c.07.26-.38.37.19,0-1.07.8.78,1,1.31.8,7.77-2.57,16-1.09,23.86.21s15.36,2.07,23.2,1.26a69,69,0,0,0,22.16-6.11c5.61-2.65,11.19-6.38,14.27-11.92,3.52-6.33,2.51-14-.36-20.42a38.08,38.08,0,0,0-12.5-15C67.94,1.57,51.76-1,37.32.31,23.77,1.52,9.81,7.74,3.15,20.21a31.92,31.92,0,0,0-1.79,4.11C1.07,25.14,3.93,24.79,4.25,23.91Z"/><text class="cls-2" transform="translate(14.05 47.34)">3<tspan class="cls-3" x="24.82" y="0">3</tspan></text><text class="cls-4" transform="translate(67.76 45.04)">歳</text></svg>