<svg id="レイヤー_1" data-name="レイヤー 1" xmlns="http://www.w3.org/2000/svg" viewBox="0 0 126.22 81.81"><defs><style>.cls-1{fill:#fff;}.cls-2{font-size:16px;font-family:Corporate-Logo-Bold, Corporate Logo Bold;font-weight:700;letter-spacing:0.05em;}.cls-2,.cls-4{fill:#1578db;}.cls-3{fill:#39b34a;}</style></defs><path class="cls-1" d="M17.66,28.13S28.57.86,72.21.86c25,0,55.64,17.45,52.36,44.72C123.21,56.92,116.94,67.4,104.94,74,90.15,82,74.54,82.67,58.26,78.36c-13.6-3.6-25.16-12.82-34.14-23.65-6.35-7.66-12.46-16.48-22.65-19C5.42,35.31,15.85,31.71,17.66,28.13Z"/><path class="cls-1" d="M19.12,28c-.18.43,0-.09.11-.24.2-.42.41-.83.63-1.24a34.16,34.16,0,0,1,2.64-4.11A45.51,45.51,0,0,1,35,11,62,62,0,0,1,60.22,2.45,68.67,68.67,0,0,1,90.9,5C100,8,108.72,13.09,115,20.41a32.79,32.79,0,0,1,8.07,25.68,36.14,36.14,0,0,1-17.3,26.36c-11.58,7-25.39,8.94-38.64,6.8a61.89,61.89,0,0,1-18.35-5.72,68,68,0,0,1-15-10.61A124.86,124.86,0,0,1,21.93,49.8c-3.56-4.36-7.34-8.7-12.14-11.73a26,26,0,0,0-7.45-3.22l-1,1.7a35.21,35.21,0,0,0,9.82-2.84C13.85,32.54,17.52,31,19,28.19c.69-1.26-2.22-1-2.71-.13-1.24,2.28-4.43,3.51-6.68,4.45a29.69,29.69,0,0,1-8,2.31c-.71.07-2.61,1.3-1.06,1.7C12.67,39.65,19,51.68,27.06,60.12c8.82,9.26,19.6,16.49,32.11,19.53,13.5,3.28,27.68,3.06,40.62-2.3,11-4.56,20.36-12.47,24.4-24a34,34,0,0,0-2.61-28.78c-5-8.5-13.44-14.71-22.33-18.73A67.15,67.15,0,0,0,69,0C58.66.41,48.19,2.38,38.8,6.92A52,52,0,0,0,22.26,19.2a35.39,35.39,0,0,0-5.78,8.47c-.1.21-.19.41-.27.62-.26.64.93.74,1.27.71A1.91,1.91,0,0,0,19.12,28Z"/><text class="cls-2" transform="translate(49.91 67.09)">会社員</text><path class="cls-3" d="M92.57,41.91h0a25.91,25.91,0,0,1-.39-7,7.6,7.6,0,0,0,.13-1.9,16.39,16.39,0,0,1-.43-2.06c0-1.21,1-2.17,1.91-3A4.21,4.21,0,0,1,96,26.71a2.6,2.6,0,0,1,2.23,1.09,4.54,4.54,0,0,1,.83,2.42,6.51,6.51,0,0,0,.23,1.65c.32.89,1.15,1.49,1.64,2.3a3.54,3.54,0,0,1-.21,3.74c-.34.53-1.16.86-1.28,1.52s.56,1.37.63,2.06c.34,3.52-3.71,3.81-5.62,1.78C93.38,44.23,92.72,42.88,92.57,41.91Z"/><path class="cls-4" d="M93,30.89a1.62,1.62,0,0,1,.9-.39c.58-.06,1.25-.41,1.19-1.07-.07-.83-.21-3.05,1.19-2.41.9.4,2.47,2.16,2.33,3.22-.06.53-.56.86-.38,1.44a6.1,6.1,0,0,0,1.07,1.51c.67.93,1.71,2.34,1.38,3.56-.18.68-.62.61-1.18.88a1.76,1.76,0,0,0-1,1.12c-.29,1.19,1,1.92.88,3.07a2.11,2.11,0,0,1-2.71,1.68c-.63-.26-1-.82-1.66-1a3,3,0,0,0-1.85.26c-.4.18-.83.66-.52,1.1s1.06.32,1.47.14c0,0,.7.59.74.61a2.63,2.63,0,0,0,.68.32,4.37,4.37,0,0,0,2,.13,5.27,5.27,0,0,0,3.26-1.69,3,3,0,0,0,.47-3.34c-.14-.27-.35-.51-.48-.79,0-.08-.13-.65-.24-.44.06-.11.72-.23.89-.33a2.72,2.72,0,0,0,.76-.6,3.11,3.11,0,0,0,.49-3.16,8.39,8.39,0,0,0-.91-1.76,14.8,14.8,0,0,1-1.23-1.69c-.14-.33-.14-.15,0-.52a2.16,2.16,0,0,0,.23-.86,3.32,3.32,0,0,0-.66-1.88,5.9,5.9,0,0,0-2.62-2.47,3.53,3.53,0,0,0-3.89.8A4.72,4.72,0,0,0,92.9,30L94.09,29a5,5,0,0,0-2.55,1c-1.17.9.6,1.6,1.44,1Z"/><path class="cls-4" d="M95.68,44.63a16.31,16.31,0,0,0,0,2.52c.09.78.21,1.55.28,2.32,0,.22.3.41.47.48a1.38,1.38,0,0,0,.83,0,1,1,0,0,0,.87-1.08c-.07-.77-.18-1.53-.27-2.29,0-.06,0-.11,0-.16,0,.32,0,.09,0,0V46c0-.51,0-1,0-1.52s-.54-.82-1-.77-1.16.35-1.19.91Z"/><path class="cls-3" d="M84.09,41.91h0a25.91,25.91,0,0,1-.39-7,7.6,7.6,0,0,0,.13-1.9,16.39,16.39,0,0,1-.43-2.06c0-1.21,1-2.17,1.91-3a4.17,4.17,0,0,1,2.23-1.25,2.6,2.6,0,0,1,2.23,1.09,4.72,4.72,0,0,1,.83,2.42,7,7,0,0,0,.22,1.65c.32.89,1.15,1.49,1.64,2.3a3.51,3.51,0,0,1-.2,3.74c-.34.53-1.16.86-1.28,1.52s.56,1.37.62,2.06C92,45,87.9,45.3,86,43.27,84.9,44.23,84.23,42.88,84.09,41.91Z"/><path class="cls-4" d="M52.07,21c-.28,9.42-.8,18.83-.86,28.25,0,1.19,2.2.91,2.21-.14.06-9.42.58-18.83.86-28.25,0-1.18-2.18-.91-2.21.14Z"/><path class="cls-4" d="M52.22,21.86q15.83.64,31.68.35l-1-.68c.17,4.66.26,9.29.14,13.95s.59,9.38,1,14c.08,1,2.26.44,2.17-.58-.41-4.51-1.11-9.13-1-13.67s0-9.24-.14-13.87c0-.55-.51-.69-1-.68Q68.54,21,53,20.33c-.47,0-1.23.14-1.42.66a.65.65,0,0,0,.66.87Z"/><path class="cls-1" d="M58.9,26.66a8.3,8.3,0,0,0,0,3.87"/><path class="cls-4" d="M57.81,26.76a9,9,0,0,0,0,4.07.64.64,0,0,0,.45.38,1.63,1.63,0,0,0,.82,0c.38-.12,1-.45.91-1a8.26,8.26,0,0,1-.23-1.57v.18a8.51,8.51,0,0,1,.22-2.3.5.5,0,0,0-.25-.48,1.31,1.31,0,0,0-.73-.13c-.47.06-1.09.3-1.21.82Z"/><path class="cls-1" d="M59.19,26.27,62,26a1.27,1.27,0,0,1,.82.1,1.3,1.3,0,0,1,.43,1.1l.19,3.43a.77.77,0,0,1-.09.54.81.81,0,0,1-.66.25,15.08,15.08,0,0,1-2.6-.1"/><path class="cls-4" d="M59,26.82l1.51-.14.75-.07.43,0c.14,0,.15,0,0,0h.1c-.06,0,0,0,0,0a.7.7,0,0,1,.09.09,1.07,1.07,0,0,1,.15.4,12.26,12.26,0,0,1,.1,1.35l.08,1.5,0,.75a2.11,2.11,0,0,1,0,.35s0,.15,0,.18a1.87,1.87,0,0,0,.38-.24c.39-.08.48-.11.29-.08.31,0-.08,0-.14,0h-.73a10.54,10.54,0,0,1-1.37-.11,2.11,2.11,0,0,0-1.54.42c-.12.1-.27.26-.22.43s.26.24.41.26a14.81,14.81,0,0,0,3.05.1,2.61,2.61,0,0,0,1.84-.75,1.79,1.79,0,0,0,.2-1.31c-.06-1-.11-2-.17-3a1.93,1.93,0,0,0-.27-1,1.51,1.51,0,0,0-1.29-.53,16,16,0,0,0-1.69.14l-1.73.16c-.38,0-1.13.27-1.24.7s.69.43.92.4Z"/><path class="cls-1" d="M66.9,27.13a14.25,14.25,0,0,0,.19,3.57,1,1,0,0,0,.24.56.92.92,0,0,0,.59.18,9.41,9.41,0,0,0,2.85-.24l.33-4.08a.83.83,0,0,0-.06-.47c-.16-.25-.52-.25-.81-.21l-2.2.28"/><path class="cls-4" d="M65.8,27.23a16.33,16.33,0,0,0,0,2.32c0,.36.07.71.12,1.06a2.38,2.38,0,0,0,.31,1c.48.67,1.61.57,2.32.56a11.76,11.76,0,0,0,2.37-.32c.34-.08.89-.37.92-.78L72,28.86l.1-1.14a5.38,5.38,0,0,0,0-1.13c-.11-.86-1.17-.95-1.84-.87s-1.47.18-2.21.27c-.44.06-1.13.3-1.21.83s.6.67,1,.62l1.87-.23.4-.05c.08,0,.28,0,0,0,.12,0,0,0-.06,0,.13,0,0,0-.08-.05s0-.1,0,0c0-.08,0,.07,0,.09a1.94,1.94,0,0,0,0,.24l-.32,3.88.92-.77c-.16,0-.32.08-.47.1.1,0,.13,0,0,0l-.23,0a9.06,9.06,0,0,1-.91.07H68.7l-.45,0c-.12,0,0,0,0,0-.2-.06.09,0,0,0h0l0-.06c0,.08,0,0,0-.08A9.65,9.65,0,0,1,68,28.82,13.52,13.52,0,0,1,68,27c0-.51-.56-.67-1-.62s-1.18.31-1.22.83Z"/><path class="cls-1" d="M75.21,26.45l.29,4.72a22.44,22.44,0,0,0,2.46,0,1.16,1.16,0,0,0,.67-.18,1.19,1.19,0,0,0,.33-.92l.22-3.31a.57.57,0,0,0-.74-.72l-2.71.23"/><path class="cls-4" d="M74.11,26.54l.29,4.72a.62.62,0,0,0,.19.46.88.88,0,0,0,.53.23,22.12,22.12,0,0,0,2.82,0,2.48,2.48,0,0,0,1.68-.72,2,2,0,0,0,.44-1.17c.07-.89.11-1.79.17-2.68a4.05,4.05,0,0,0,0-1.3,1.24,1.24,0,0,0-1.2-.82,10.09,10.09,0,0,0-1.65.1l-1.56.13c-.47,0-1.14.33-1.2.87s.58.73,1,.69c.92-.08,1.86-.12,2.78-.23.12,0,.1,0-.06,0a.48.48,0,0,1-.2-.07.14.14,0,0,1-.09-.11l0,.07c0,.09,0,.09,0,0v.14c0,.1,0,.2,0,.3L78,28.61,77.87,30c0,.18-.05.37-.05.55s0,.05,0,0a.31.31,0,0,1-.06.13c0-.09.27-.22.32-.24a.54.54,0,0,1,.21-.05h-.16l-.32,0-.69,0h-.51l-.74,0,.72.7-.29-4.73a.61.61,0,0,0-.26-.53,1.14,1.14,0,0,0-.74-.16,1.52,1.52,0,0,0-.82.3c-.16.12-.4.34-.38.57Z"/><path class="cls-1" d="M58.9,34a8.3,8.3,0,0,0,0,3.87"/><path class="cls-4" d="M57.81,34.07a9,9,0,0,0,0,4.06.65.65,0,0,0,.45.39,1.52,1.52,0,0,0,.82,0c.38-.11,1-.44.91-1A8.38,8.38,0,0,1,59.77,36v.18a8.51,8.51,0,0,1,.22-2.3.5.5,0,0,0-.25-.48,1.23,1.23,0,0,0-.73-.13c-.47.06-1.09.3-1.21.82Z"/><path class="cls-1" d="M59.19,33.58l2.8-.26a1.27,1.27,0,0,1,.82.1,1.3,1.3,0,0,1,.43,1.1L63.43,38a.78.78,0,0,1-.09.54.84.84,0,0,1-.66.25,15.08,15.08,0,0,1-2.6-.1"/><path class="cls-4" d="M59,34.13,60.54,34l.75-.07.43,0c.14,0,.15,0,0,0h.1c-.06,0,0,0,0,0L62,34a1.07,1.07,0,0,1,.15.4,12.08,12.08,0,0,1,.1,1.35l.08,1.5,0,.75a2,2,0,0,1,0,.35s0,.15,0,.17a1.48,1.48,0,0,0,.38-.23c.39-.09.48-.12.29-.09h-.87a9,9,0,0,1-1.37-.1,2.11,2.11,0,0,0-1.54.41c-.12.11-.27.26-.22.44s.26.24.41.26a14.81,14.81,0,0,0,3.05.1,2.61,2.61,0,0,0,1.84-.75,1.8,1.8,0,0,0,.2-1.31c-.06-1-.11-2-.17-2.95a1.93,1.93,0,0,0-.27-1,1.51,1.51,0,0,0-1.29-.53,16,16,0,0,0-1.69.14L59.35,33c-.38,0-1.13.26-1.24.7s.69.42.92.4Z"/><path class="cls-1" d="M66.9,34.43A14.31,14.31,0,0,0,67.09,38a1,1,0,0,0,.24.55.87.87,0,0,0,.59.19,9.41,9.41,0,0,0,2.85-.25l.33-4.07A.87.87,0,0,0,71,34c-.16-.24-.52-.24-.81-.2L68,34"/><path class="cls-4" d="M65.8,34.54a16.35,16.35,0,0,0,0,2.32c0,.35.07.71.12,1.06a2.43,2.43,0,0,0,.31,1c.48.67,1.61.57,2.32.55a11.07,11.07,0,0,0,2.37-.31c.34-.08.89-.37.92-.78L72,36.17l.1-1.15a5.32,5.32,0,0,0,0-1.13C72.08,33,71,33,70.35,33s-1.47.18-2.21.27c-.44.06-1.13.3-1.21.83s.6.67,1,.62l1.87-.23.4-.05c.08,0,.28,0,0,0,.12,0,0,0-.06,0,.13,0,0,0-.08,0s0-.1,0,0c0-.09,0,.07,0,.09a1.94,1.94,0,0,0,0,.24l-.32,3.88.92-.78a4.52,4.52,0,0,1-.47.11c.1,0,.13,0,0,0l-.23,0A9.06,9.06,0,0,1,69,38H68.7l-.45,0c-.12,0,0,0,0,0-.2-.06.09,0,0,0h0l0-.06c0,.08,0,0,0-.08A9.65,9.65,0,0,1,68,36.13a13.52,13.52,0,0,1,0-1.8c0-.51-.56-.67-1-.62s-1.18.31-1.22.83Z"/><path class="cls-1" d="M75.21,33.76l.29,4.72a22.44,22.44,0,0,0,2.46,0,1.24,1.24,0,0,0,.67-.18,1.21,1.21,0,0,0,.33-.92l.22-3.31a.78.78,0,0,0-.14-.6.73.73,0,0,0-.6-.12l-2.71.23"/><path class="cls-4" d="M74.11,33.84l.29,4.73a.62.62,0,0,0,.19.46.88.88,0,0,0,.53.23,22.11,22.11,0,0,0,2.82,0,2.43,2.43,0,0,0,1.68-.71,2,2,0,0,0,.44-1.18c.07-.89.11-1.78.17-2.67a4.05,4.05,0,0,0,0-1.3,1.26,1.26,0,0,0-1.2-.83,11.34,11.34,0,0,0-1.65.11l-1.56.13c-.47,0-1.14.33-1.2.87s.58.73,1,.69c.92-.08,1.86-.12,2.78-.23.12,0,.1,0-.06,0a.48.48,0,0,1-.2-.07.16.16,0,0,1-.09-.11l0,.06c0,.09,0,.1,0,0v.15c0,.1,0,.2,0,.3L78,35.92l-.09,1.41c0,.18-.05.37-.05.55s0,0,0,0a.38.38,0,0,1-.06.13c0-.09.27-.22.32-.24a.41.41,0,0,1,.21-.05h-.16l-.32,0-.69,0h-.51l-.74,0,.72.69-.29-4.72a.61.61,0,0,0-.26-.53,1.14,1.14,0,0,0-.74-.16,1.59,1.59,0,0,0-.82.29c-.16.13-.4.35-.38.57Z"/><path class="cls-1" d="M58.9,41.27a8.34,8.34,0,0,0,0,3.88"/><path class="cls-4" d="M57.81,41.38a9,9,0,0,0,0,4.06.62.62,0,0,0,.45.38,1.52,1.52,0,0,0,.82,0c.38-.11,1-.44.91-1a8.36,8.36,0,0,1-.23-1.58v.19a8.48,8.48,0,0,1,.22-2.3.49.49,0,0,0-.25-.48,1.16,1.16,0,0,0-.73-.13c-.47.06-1.09.3-1.21.82Z"/><path class="cls-1" d="M59.19,40.89l2.8-.26a1.27,1.27,0,0,1,.82.1,1.3,1.3,0,0,1,.43,1.1l.19,3.42a.8.8,0,0,1-.09.55.83.83,0,0,1-.66.24,13.32,13.32,0,0,1-2.6-.1"/><path class="cls-4" d="M59,41.44l1.51-.14.75-.07.43,0c.14,0,.15,0,0,0h.08c.11,0,.12,0,0,0l0,0a.7.7,0,0,1,.09.09,1,1,0,0,1,.15.4,12.08,12.08,0,0,1,.1,1.35l.08,1.5,0,.75a2,2,0,0,1,0,.35s0,.15,0,.17a1.83,1.83,0,0,0,.38-.23c.39-.09.48-.12.29-.09h-.87a10.52,10.52,0,0,1-1.37-.1,2.06,2.06,0,0,0-1.54.41c-.12.1-.27.26-.22.43s.26.25.41.27a14.81,14.81,0,0,0,3.05.1,2.7,2.7,0,0,0,1.84-.75,1.8,1.8,0,0,0,.2-1.31c-.06-1-.11-2-.17-2.95a1.9,1.9,0,0,0-.27-1A1.46,1.46,0,0,0,62.77,40a13.75,13.75,0,0,0-1.69.14l-1.73.16c-.38,0-1.13.26-1.24.7s.69.42.92.4Z"/><path class="cls-1" d="M66.9,41.74a14.31,14.31,0,0,0,.19,3.58,1,1,0,0,0,.24.55.87.87,0,0,0,.59.19,9.41,9.41,0,0,0,2.85-.25l.33-4.07a.87.87,0,0,0-.06-.48c-.16-.25-.52-.24-.81-.2l-2.2.27"/><path class="cls-4" d="M65.8,41.84a16.47,16.47,0,0,0,0,2.33c0,.35.07.7.12,1.06a2.47,2.47,0,0,0,.31,1c.48.67,1.61.57,2.32.55a10.49,10.49,0,0,0,2.37-.32c.34-.08.89-.37.92-.77L72,43.47l.1-1.14a5.35,5.35,0,0,0,0-1.13c-.11-.85-1.17-.94-1.84-.87l-2.21.28c-.44.06-1.13.3-1.21.83s.6.66,1,.62l1.87-.24.4,0h0c.12,0,0,0-.06,0,.13,0,0,0-.08,0s0-.11,0,0c0-.08,0,.08,0,.1A1.94,1.94,0,0,0,70,42l-.32,3.88.92-.78a2.83,2.83,0,0,1-.47.1c.1,0,.13,0,0,0l-.23,0a9,9,0,0,1-.91.08H68.7l-.45,0c-.12,0,0,0,0,0-.2-.06.09,0,0,0h0l0-.06c0,.08,0,0,0-.08A9.65,9.65,0,0,1,68,43.44a13.52,13.52,0,0,1,0-1.8c0-.51-.56-.67-1-.62s-1.18.3-1.22.82Z"/><path class="cls-1" d="M75.21,41.06l.29,4.73a22.44,22.44,0,0,0,2.46,0,1.24,1.24,0,0,0,.67-.18A1.21,1.21,0,0,0,79,44.7l.22-3.31a.78.78,0,0,0-.14-.6.73.73,0,0,0-.6-.12l-2.71.23"/><path class="cls-4" d="M74.11,41.15l.29,4.72a.6.6,0,0,0,.19.46.83.83,0,0,0,.53.23,20.42,20.42,0,0,0,2.82,0,2.4,2.4,0,0,0,1.68-.72,2,2,0,0,0,.44-1.17c.07-.89.11-1.78.17-2.68a4,4,0,0,0,0-1.29,1.26,1.26,0,0,0-1.2-.83,12.94,12.94,0,0,0-1.65.1l-1.56.14c-.47,0-1.14.33-1.2.86s.58.73,1,.7c.92-.08,1.86-.12,2.78-.24h-.06a.48.48,0,0,1-.2-.07.19.19,0,0,1-.09-.11l0,.06c0,.09,0,.1,0,0v.15c0,.1,0,.2,0,.3L78,43.23l-.09,1.4c0,.19-.05.37-.05.56s0,0,0,0a.49.49,0,0,1-.06.13c0-.09.27-.23.32-.25a.8.8,0,0,1,.21,0l-.16,0-.32,0h-1.2l-.74,0,.72.69L76.31,41a.61.61,0,0,0-.26-.53,1.21,1.21,0,0,0-.74-.17,1.6,1.6,0,0,0-.82.3c-.16.13-.4.35-.38.57Z"/><path class="cls-4" d="M84.65,30.58a1.14,1.14,0,0,1,.7-.26c.42,0,1.29-.33,1.24-.89a6.3,6.3,0,0,1,0-1.84,1.82,1.82,0,0,1,.28-.71c.21-.14.24-.21.1-.19a1.61,1.61,0,0,1,.65.17,5.13,5.13,0,0,1,2.41,3c.13.66-.46,1.06-.36,1.68s.61.94.9,1.33c.76,1,1.81,2.44,1.6,3.79-.12.78-.41.8-1,1.06a1.83,1.83,0,0,0-1.14,1c-.34,1.16,1,1.91.88,3.06a2,2,0,0,1-2.73,1.72c-.6-.33-.89-.8-1.62-.91a3.35,3.35,0,0,0-1.84.31c-.29.13-.87.48-.58.87s1.12.16,1.44,0c-.18.09,1,.84,1.24.92a4.26,4.26,0,0,0,1.91.18,5.85,5.85,0,0,0,3.36-1.48,2.87,2.87,0,0,0,.78-3.23c-.23-.47-.69-.91-.71-1.45,0-.29-.49.09.12-.21.12-.06.26-.09.39-.14a3.15,3.15,0,0,0,.84-.51c2.11-1.84,0-4.7-1.25-6.36-.28-.36-.4-.43-.21-.89a2.52,2.52,0,0,0,.25-.76,3,3,0,0,0-.64-1.84A5.51,5.51,0,0,0,89,25.67a3.85,3.85,0,0,0-3.86.83c-.9.93-.86,2.32-.75,3.52l1.23-.89a5.29,5.29,0,0,0-2.74,1.1c-.39.3-.2.66.2.77a2,2,0,0,0,1.54-.42Z"/><path class="cls-4" d="M87.2,44.62a16.44,16.44,0,0,0,0,2.53c.08.78.21,1.55.28,2.32,0,.22.29.42.47.49a1.38,1.38,0,0,0,.83,0,1.43,1.43,0,0,0,.71-.44.9.9,0,0,0,.16-.66c-.07-.77-.19-1.53-.27-2.29,0-.06,0-.11,0-.16,0,.33,0,.1,0,0s0-.29,0-.43c0-.51,0-1,0-1.53s-.54-.83-1-.78-1.16.35-1.18.91Z"/><path class="cls-4" d="M51.7,11.11q.15,2.67.06,5.34c0,.52.55.74,1,.69s1.19-.33,1.2-.87c.06-1.78,0-3.56-.06-5.33a.62.62,0,0,0-.26-.54,1.26,1.26,0,0,0-.74-.16,1.57,1.57,0,0,0-.81.3c-.16.13-.4.34-.39.57Z"/><path class="cls-4" d="M51.89,11.24c2.27.83,5.1.49,7.49.56l8.73.27,17.19.52-.65-.42a35.54,35.54,0,0,0-.41,6.68c0,.62,2.19.21,2.17-.58a33.43,33.43,0,0,1,.41-6.4c.06-.36-.39-.42-.65-.43L70,11l-8-.25-4-.12a14.54,14.54,0,0,1-4.38-.34,1.91,1.91,0,0,0-1.54.22c-.23.15-.71.6-.2.78Z"/><path class="cls-4" d="M52.88,17.62q16,.91,32.11,1.11c.43,0,1.24-.14,1.43-.6s-.15-.7-.6-.7q-16.06-.2-32.11-1.11c-.88-.05-2.3,1.22-.83,1.3Z"/><path class="cls-4" d="M62.68,17.77l-.3,3.34a.31.31,0,0,0,.21.36,1.43,1.43,0,0,0,.71.05,2.19,2.19,0,0,0,.83-.27c.14-.09.4-.24.42-.43l.29-3.35a.31.31,0,0,0-.21-.36,1.43,1.43,0,0,0-.71-.05,2.15,2.15,0,0,0-.82.27c-.15.09-.41.25-.42.44Z"/><path class="cls-4" d="M74.09,18.21A11.72,11.72,0,0,0,74.36,22c0,.15.28.19.39.21a2.37,2.37,0,0,0,.8-.09,2.05,2.05,0,0,0,.74-.33c.11-.08.28-.21.24-.37a11.18,11.18,0,0,1-.28-3.6v.05c0-.16,0-.22-.19-.28a1.65,1.65,0,0,0-.7,0,2.69,2.69,0,0,0-.83.27c-.13.07-.42.21-.43.38Z"/><path class="cls-4" d="M60.17,12.74a2.68,2.68,0,0,0-1.4-.18,2.38,2.38,0,0,0-1.53.71A1.17,1.17,0,0,0,57,14.35a1.44,1.44,0,0,0,.76.88,2.69,2.69,0,0,0,1.68.15A2.09,2.09,0,0,0,60,15.2c.08,0,.26-.15.29-.26.05-.28-.46-.24-.6-.21l-.16,0c-.09,0,.09,0,.09,0h-.31s-.11,0,0,0,0,0,0,0l-.06,0a1.69,1.69,0,0,1-.28-.12l.09.05a1.31,1.31,0,0,1-.43-.38l0,.07a1.3,1.3,0,0,1-.22-.76v.08a.9.9,0,0,1,.13-.41l-.06.09c0-.06.09-.11.13-.16s0,0,0,0l0,0,0,0c.07-.05-.06,0-.07,0l0,0c.07,0-.1,0-.1,0l.05,0-.12,0h.05c.09,0-.12,0-.12,0s.19,0,0,0,0,0,0,0h0l.22,0h0l.11,0,.21.08a.94.94,0,0,0,.47,0A1.78,1.78,0,0,0,60,13.2c.18-.1.46-.32.16-.46Z"/><path class="cls-4" d="M60.85,13.42a1.56,1.56,0,0,0-.35,1.79,1.42,1.42,0,0,0,.63.53,2.21,2.21,0,0,0,1.13.2A2,2,0,0,0,64,14.81,1.24,1.24,0,0,0,64,14a1.27,1.27,0,0,0-.56-.67,2.6,2.6,0,0,0-2.45.06.74.74,0,0,0-.38.32.32.32,0,0,0,0,.36.88.88,0,0,0,1,.07l.22-.09-.06,0,.1,0L62,14c-.18.06-.12,0,0,0h.14l.17,0,0,0,.09.05.15.11-.1-.09a.92.92,0,0,1,.23.29l-.05-.11a.89.89,0,0,1,.08.33v-.13a1,1,0,0,1-.06.36l0-.12a1.51,1.51,0,0,1-.11.22c0,.09.1-.11,0,0l-.06.06c-.07.08.14-.1,0,0l-.06,0,.07,0c-.18.07.15,0,0,0h0c.15,0,0,0,0,0h0l-.14,0c.11,0,.13,0,.06,0H62.3l-.11,0,0,0-.06,0a1.07,1.07,0,0,1-.22-.15l.1.09a1,1,0,0,1-.23-.28l.06.11a1,1,0,0,1-.09-.33v.13a1.2,1.2,0,0,1,.07-.42l0,.13a1.23,1.23,0,0,1,.12-.26s.09-.11.08-.13-.06.08,0,0l0-.06a.42.42,0,0,0,.12-.37.4.4,0,0,0-.29-.26,1,1,0,0,0-.55,0,1.09,1.09,0,0,0-.48.27Z"/><path class="cls-4" d="M64.37,13.67a5.6,5.6,0,0,0,.1,2c.08.32.6.31.84.24s.67-.29.61-.63a1.5,1.5,0,0,1,.07-.75s0,0,0,0l0-.1.11-.19c0,.08,0,0,0-.05s.19-.17.07-.08l.09-.07c-.07,0-.07,0,0,0s-.5.12-.49,0,.07.1.08.11,0,.16.08.23a2.88,2.88,0,0,1,.08,1l1.46-.15a1.45,1.45,0,0,1,.27-.8s.07-.09,0-.06l0,0,.07-.08,0,0,0,0,.1-.07c.07-.05-.11,0,0,0s0-.05-.24,0-.22.07-.28,0a.46.46,0,0,0,.09.12,1.72,1.72,0,0,1,.07.21,3.54,3.54,0,0,1,.08.45,2.13,2.13,0,0,0,.31.95c.33.47,1.73,0,1.34-.61a.51.51,0,0,1-.1-.21,2.21,2.21,0,0,1-.07-.3c0-.19-.05-.39-.09-.58a1.37,1.37,0,0,0-.26-.59,1,1,0,0,0-.93-.3,2.46,2.46,0,0,0-2,2.16c-.06.67,1.4.42,1.46-.15a2.91,2.91,0,0,0-.18-1.46.93.93,0,0,0-.55-.53,1.59,1.59,0,0,0-1.15.13,2.24,2.24,0,0,0-1.25,2.36l1.45-.39a4.9,4.9,0,0,1-.09-1.79c.08-.66-1.39-.44-1.46.14Z"/><path class="cls-4" d="M69.47,13.81a12.36,12.36,0,0,0,.09,2.58c0,.12.19.19.29.21a1.23,1.23,0,0,0,.54,0c.24-.08.67-.25.62-.58a13.31,13.31,0,0,1-.12-1.55v.11c0-.31,0-.62,0-.92s-.39-.37-.63-.33a1.34,1.34,0,0,0-.55.19c-.1.06-.26.18-.27.31Z"/><path class="cls-4" d="M70.61,14.11l0,0-.16.1.23-.11-.19.07.2-.05-.2,0,.2,0h-.18a.83.83,0,0,1,.22,0l-.16,0,.19.07-.14-.07a1.64,1.64,0,0,1,.22.14l-.11-.09a.86.86,0,0,1,.2.26l-.06-.12a.77.77,0,0,1,.07.27v-.14a1.09,1.09,0,0,1,0,.26l0-.14a.88.88,0,0,1-.1.22l.09-.13a.93.93,0,0,1-.13.15l.12-.12a.39.39,0,0,1-.1.08l.16-.1-.12.06.19-.07-.12,0,.19,0h.06l-.17,0,.17,0L71,14.6l.14.07L71,14.55l.11.09,0,0a.64.64,0,0,0-.41-.2,1.11,1.11,0,0,0-.57.1.72.72,0,0,0-.37.34.37.37,0,0,0,0,.39,1.66,1.66,0,0,0,2.55-.38,1.17,1.17,0,0,0,.15-.48,1.05,1.05,0,0,0-.15-.6,1.29,1.29,0,0,0-.82-.62,2.11,2.11,0,0,0-1,0,2.34,2.34,0,0,0-.8.33.61.61,0,0,0-.25.38.35.35,0,0,0,.17.35.83.83,0,0,0,.49.11l.2,0a1.11,1.11,0,0,0,.35-.16Z"/><path class="cls-4" d="M75.07,14.31c0-.48-.65-.69-1-.73a2.17,2.17,0,0,0-1.37.25,1.23,1.23,0,0,0-.54.77,1.14,1.14,0,0,0,.24,1.19,1.37,1.37,0,0,0,1.08.22,2.08,2.08,0,0,0,1.15-.56,2.88,2.88,0,0,0,.76-1.71c0-.31-.4-.33-.62-.3s-.71.17-.82.49a2.12,2.12,0,0,0-.19,1.19,1.05,1.05,0,0,0,.23.46,1,1,0,0,0,.54.32,1.23,1.23,0,0,0,.54,0,1.18,1.18,0,0,0,.49-.24c.07-.07.19-.19.14-.3s-.16-.16-.28-.19c.17,0,0,0,0-.05l.1.07a.66.66,0,0,1-.21-.23l0,.09a1,1,0,0,1-.14-.51v.1a2.85,2.85,0,0,1,.21-.86l-1.44.19a3.47,3.47,0,0,1-.3,1l0-.11a2.29,2.29,0,0,1-.18.31l0,.07s-.08.09,0,0l0,0-.08.06s.14-.1,0,0,.16-.07.06,0,.17,0,.08,0,.2,0,.09,0h.15s0,0,0,0h0l-.07-.05.09.07a.63.63,0,0,1-.17-.19l0,.09a1,1,0,0,1-.1-.45v.1a1.73,1.73,0,0,1,.16-.67l0,.1,0-.07s.08-.06,0,0a.62.62,0,0,1-.19.11l-.14.05h0c-.07,0-.09,0,0,0h0c.08,0-.16,0-.06,0l.12,0,.07,0c.07,0,0,0-.06,0a.53.53,0,0,1,.24.11l-.1-.06a.57.57,0,0,1,.16.15l-.05-.08a.66.66,0,0,1,.06.2c0,.11.2.18.27.19a1.1,1.1,0,0,0,.54,0c.26-.08.65-.23.63-.55Z"/><path class="cls-4" d="M75.44,13.8a8.72,8.72,0,0,1,.1,1.91c0,.09.23.1.26.1a1.58,1.58,0,0,0,.43-.05,1.83,1.83,0,0,0,.45-.15c.09,0,.28-.12.3-.22a2.65,2.65,0,0,1,.54-1.15,1.41,1.41,0,0,1,.17-.18l.06-.05h0c.11-.07-.12.05-.12.05a2.34,2.34,0,0,1-.38.09h0c-.12,0,0,0,0,0s0,0,.07,0l.1.1,0-.05a1.12,1.12,0,0,1,.14.48,2.23,2.23,0,0,0,.1.43.91.91,0,0,0,.62.6,1.19,1.19,0,0,0,.46,0,2.07,2.07,0,0,0,.55-.17c.13-.06.5-.29.18-.37h0l-.08,0a.86.86,0,0,1-.14-.13l0,.05a2.53,2.53,0,0,1-.29-1c-.13-.54-.79-.56-1.24-.48a2.45,2.45,0,0,0-1.57.9,2.71,2.71,0,0,0-.54,1.15L77,15.32a8.72,8.72,0,0,0-.1-1.91c0-.09-.21-.1-.26-.1a1.61,1.61,0,0,0-.53.07,1.63,1.63,0,0,0-.49.2c-.07.05-.19.12-.17.22Z"/><path class="cls-4" d="M79.12,14.59a3.31,3.31,0,0,0,1.44,1.12.95.95,0,0,0,1-.27.51.51,0,0,0,.11-.44.52.52,0,0,0-.31-.32l-.28-.13.14.08a3,3,0,0,1-.64-.49l.11.11a2.69,2.69,0,0,1-.27-.32A.61.61,0,0,0,80,13.7a1,1,0,0,0-.57.09.78.78,0,0,0-.37.37.44.44,0,0,0,0,.43Z"/><path class="cls-4" d="M81.45,14.34c-.19.2-.38.39-.58.57l-.16.14s0,0,0,0l-.09.07-.32.28a16.28,16.28,0,0,1-1.33,1c-.06,0-.18.16-.15.25s.18.14.26.15a1.66,1.66,0,0,0,1-.28,16.65,16.65,0,0,0,2.67-2.22.17.17,0,0,0,0-.24.62.62,0,0,0-.38-.07,1.47,1.47,0,0,0-1,.36Z"/></svg>