<svg id="レイヤー_1" data-name="レイヤー 1" xmlns="http://www.w3.org/2000/svg" viewBox="0 0 69.73 39.97"><defs><style>.cls-1{fill:#1578db;}.cls-2{fill:#fff;}</style></defs><path class="cls-1" d="M2.07,23.49c-2-5.43.4-18.17,21.07-21.82,12.79-2.25,22.57,0,31.6,7.53,6.74,5.61,6,11.58,6.77,13.54l6.77,4.51s-8.5,1.74-9,2.26c-2.92,2.9-7.11,4.42-12.39,6.69C29.16,43.81,6.59,35.53,2.07,23.49Z"/><path class="cls-1" d="M3.52,23.1a12.3,12.3,0,0,1,1.15-9.9C7.58,8,13.19,5,18.79,3.45,26.6,1.27,35.38.78,43.08,3.66c7,2.63,14.5,7.78,16.23,15.49.26,1.17.32,2.39.62,3.55.21.78.88,1.05,1.53,1.49L67.13,28l1-1.46a59,59,0,0,0-8.82,2.12,5.06,5.06,0,0,0-1.66,1.08,17.4,17.4,0,0,1-3.42,2.34,81.34,81.34,0,0,1-8.59,3.82C35.45,40,23.15,38.77,13.64,33.53,9.38,31.18,5.31,27.75,3.52,23.1c-.4-1-3.27-.18-2.9.78C4.24,33.26,15.54,38,24.78,39.44a43,43,0,0,0,17.35-.8,65.09,65.09,0,0,0,9.35-3.54,33.42,33.42,0,0,0,7.68-4.23c.27-.21.52-.42.77-.64l.49-.46c-.46.26-.58.33-.34.22a3,3,0,0,1,.77-.23c1-.28,2-.51,2.94-.74,1.56-.36,3.13-.7,4.69-1,.58-.12,1.82-.88,1-1.46L64.18,23,63,22.24a1.67,1.67,0,0,1-.28-.18c-.1-.09.07.06.08.08.18.37,0-.19,0-.22a18.68,18.68,0,0,0-.57-3.3c-1.7-8-9.3-13.45-16.55-16.26C37.55-.8,28.49-.48,20.09,1.51,13.65,3,7,6,3,11.51.52,15-.88,19.76.62,23.88,1,24.92,3.88,24.08,3.52,23.1Z"/><path class="cls-2" d="M29.43,20.75H24.71A13.12,13.12,0,0,0,27,22.92a14.67,14.67,0,0,0,2.81,1.64,8.36,8.36,0,0,0-.85.89,9.63,9.63,0,0,0-.75,1,15.36,15.36,0,0,1-4.48-3.74V27H21.43V22.81a15.63,15.63,0,0,1-4.53,3.63,9.42,9.42,0,0,0-1.61-1.89,14.59,14.59,0,0,0,2.84-1.64,12.82,12.82,0,0,0,2.33-2.16H15.85V18.6h5.58V17.05H17V14.9h4.43V12.74h2.33V14.9h4.52v2.15H23.76V18.6h5.67Z"/><path class="cls-2" d="M45.32,17.41H43.18a4.21,4.21,0,0,0,.39,1c.14.26.28.38.41.37s.26-.36.29-1.07a3.71,3.71,0,0,0,1.48.85,3.87,3.87,0,0,1-.4,1.39,1.2,1.2,0,0,1-.73.6v6.32H42.48v-.47h-2.8V27h-2V20.56h5.51c-.89-.36-1.55-1.41-2-3.15H39.55v1l1-.12.76-.1.08,1.74-4.47.66-.19-1.36A18.82,18.82,0,0,1,36,22.53a11.89,11.89,0,0,1,1.38,1.54L36,25.81a12.69,12.69,0,0,0-.93-1.2A7.9,7.9,0,0,1,32.55,27a7,7,0,0,0-1.25-1.76,5.39,5.39,0,0,0,2.22-2.2l-.43-.41L33,23l-1.71-1c.31-1.33.6-2.76.85-4.3h-.86v-2h1.2c.19-1.35.32-2.32.39-2.93L35,13c-.1.65-.25,1.56-.45,2.72h.89l.37,0,1.26.13c-.05,1.19-.12,2.15-.21,2.9l.75-.07V13.24l1.13.32a18.37,18.37,0,0,0,4.67-.85l1.49,1.41a16.69,16.69,0,0,1-2.05.53c0,.23,0,.59.08,1.07h2.44Zm-10.38.25h-.81c-.19,1.05-.38,2-.56,2.74l.78.65A18.12,18.12,0,0,0,34.94,17.66Zm4.61-1.94h1.36c0-.17,0-.43,0-.78l-1.31.13Zm2.93,6.51h-2.8v.58h2.8Zm-2.8,2.6h2.8v-.56h-2.8Z"/></svg>