<svg id="レイヤー_1" data-name="レイヤー 1" xmlns="http://www.w3.org/2000/svg" viewBox="0 0 113.32 78.11"><defs><style>.cls-1{fill:#1578db;}.cls-2{fill:#fff;}</style></defs><path class="cls-1" d="M13.89.84h0c3.29,1.49,14.87,9.45,15.6,9.45,12.14,0,26.21-3.61,41.26-2.17C86.6,9.64,99.38,15,106.22,24.77c5.39,7.68,7.42,21.58,3.62,30.41-2,4.67-7.33,11.31-11.58,13.75-17.14,9.84-33.91,9.41-53.19,6.51-9-1.35-18-3.23-26-7.77S4.2,55.56,2.11,46.17C-.69,33.53,5.6,23.32,14.28,15.36,14.28,15.36,14.28.88,13.89.84Z"/><path class="cls-1" d="M15.34.45h0L12.75,1.57a76.61,76.61,0,0,1,8.76,5.29c1.53,1,3,2,4.6,2.93a9.36,9.36,0,0,0,2.47,1.33,13.24,13.24,0,0,0,3.5,0c1.5-.06,3-.16,4.49-.28,3-.25,6-.6,9-.93a144.28,144.28,0,0,1,19.38-1.2c10.87.26,22.5,2.52,31.68,8.65a29.9,29.9,0,0,1,9.49,9.92,35.62,35.62,0,0,1,4.14,14.52c.39,4.84,0,10.06-2.26,14.44a31.89,31.89,0,0,1-9.62,11.59,42.26,42.26,0,0,1-7.78,4,57.6,57.6,0,0,1-8.51,2.79,68.57,68.57,0,0,1-17.19,1.78,136.18,136.18,0,0,1-18-1.62,100.73,100.73,0,0,1-18.31-4.08C17.9,67,8,59.56,4.34,48.58A26.73,26.73,0,0,1,4,32.41a34.88,34.88,0,0,1,8-13.29c.86-.93,1.74-1.83,2.66-2.7.46-.44,1-.78,1.11-1.42a20.31,20.31,0,0,0,0-3.12c0-3.21,0-6.43-.18-9.64,0-.57.11-1.8-.51-2.14-.9-.47-3.55.81-2.29,1.47-.53-.28-.17-.37-.21,0a3.29,3.29,0,0,0,.05.54c.05.61.07,1.22.1,1.83.06,1.73.08,3.47.1,5.2,0,1.56,0,3.13,0,4.69v1.34a.94.94,0,0,1,0,.29c.12-.31-.66.49-.83.64C4.25,23.58-1.36,33.46.29,44.54,2,55.79,10.37,64.77,20.31,69.67a70.28,70.28,0,0,0,18.16,5.65,174.17,174.17,0,0,0,19,2.52c11.87.87,23.82-.24,34.84-5a45.14,45.14,0,0,0,7.83-4.08,29.62,29.62,0,0,0,5.65-5.31c3.2-3.78,5.84-8,6.83-12.9,1.95-9.63-.38-21.12-6.85-28.65C99.09,14.11,88.9,10.17,79,8.32A85.75,85.75,0,0,0,60,7c-6.59.25-13.12,1.12-19.68,1.79-2.94.3-5.9.57-8.87.63-.32,0-.66,0-1,0-.8.05-.22,0,0,.1l-.4-.2c-.51-.29-1-.58-1.49-.89-3.32-2-6.55-4.21-9.87-6.24A36.67,36.67,0,0,0,15,.1c-.6-.27-3,0-2.6,1.13h0C12.83,2.31,15.71,1.48,15.34.45Z"/><path class="cls-2" d="M48,20h8.79V30.62H54.92v-.7H49.77v.7H48Zm6.92,1.7H49.77v1h5.15Zm0,2.68H49.77v1.12h5.15ZM49.77,28.2h5.15V27.13H49.77Z"/><path class="cls-2" d="M63.84,26.07,63,27.3c0-.08-.2-.5-.52-1.26v4.74H60.86V26.86a9.11,9.11,0,0,1-.9,1.85,8.73,8.73,0,0,0-.75-1.55,10.41,10.41,0,0,0,1.52-3.74H59.52V21.81h1.34V19.38h1.57v2.43h1.1v1.61h-1.1v.4c.15.22.4.6.74,1.14S63.73,25.88,63.84,26.07ZM64.69,28l1.33.71a7.13,7.13,0,0,1-1.85,1.93,5.73,5.73,0,0,0-1.05-1.05A5.8,5.8,0,0,0,64.69,28Zm6,0H68v1.38a2.4,2.4,0,0,1-.11.8.84.84,0,0,1-.41.46,3.64,3.64,0,0,1-1.52.22,5.41,5.41,0,0,0-.45-1.38,4.46,4.46,0,0,0,.72,0c.11,0,.16,0,.16-.14V27.93H63.59V26.56h7.13Zm-5.14-6.3v-.41H63.64V19.85h7v1.37h-2v.41h1.73v3.16H64V21.63Zm4.47,4.68H64.38V25.08h5.67Zm-4.66-3.45v.7h.36v-.7Zm1.92,0H66.9v.7h.41Zm0-1.23v-.41h-.4v.41ZM68,28.76l1.22-.8a9.48,9.48,0,0,1,1.57,1.73l-1.31.9A9.84,9.84,0,0,0,68,28.76Zm.84-5.2v-.7h-.43v.7Z"/><path class="cls-2" d="M19.71,43.69l-1.17,1.44a2.84,2.84,0,0,0-.34-.39l-.37-.41V47h-2V44.65a8.77,8.77,0,0,1-1.45,1.56,7,7,0,0,0-1.31-1.45,8.09,8.09,0,0,0,2.38-2.45H13.54v-1.7h2.32v-.84H13.5V38.11h1.13a4.88,4.88,0,0,0-.35-1.25l.75-.18H13.66V35h2.2V33.85h2V35H20v1.64H18.9l.6.11-.29.67c-.14.31-.23.53-.3.65h1.21v1.66H17.83v.84H20v1.7H17.83l.61.43.79.59Zm-2.06-7H15.92A4.9,4.9,0,0,1,16.3,38l-.61.16h2.39L17.23,38C17.44,37.38,17.58,37,17.65,36.68Zm4.76-.08v1.66h4.2v1.89H25.42v6.77h-2V40.15h-1q-.09,4.66-2.13,6.85a3.47,3.47,0,0,0-.64-.77,3.89,3.89,0,0,0-.82-.61,5.68,5.68,0,0,0,.9-1.35,6.28,6.28,0,0,0,.51-1.59,14.47,14.47,0,0,0,.21-1.5c0-.45,0-1,0-1.52v-4.9l1.11.32A15.68,15.68,0,0,0,25,33.83l1.61,1.47A22.84,22.84,0,0,1,22.41,36.6Z"/><path class="cls-2" d="M28.54,38.51V36.57h1.89c0-.48.08-.84.1-1.11s0-.4,0-.41h1.89c0,.52-.07,1-.12,1.52h1.94v1.67c1.27,0,2.44,0,3.48,0v2c-.52,0-1.1,0-1.73,0s-1.49,0-2.59,0l0-1.71H32.12c-.2,1.57-.41,2.92-.64,4.05s-.42,2-.56,2.62-.22.93-.23.93H28.61c.39-1.35.72-2.68,1-4s.46-2.52.6-3.6Zm4.14,3.29h1.9A3,3,0,0,0,34,43.45c0,.43.45.64,1.28.65.51,0,1,0,1.33,0S37.44,44,38,44V46.1l-1.6.09c-.48,0-1,0-1.67,0a3.2,3.2,0,0,1-1.57-.4,2,2,0,0,1-.81-.89,2.62,2.62,0,0,1-.23-1.1,3.66,3.66,0,0,1,.15-1A5.18,5.18,0,0,1,32.68,41.8Z"/><path class="cls-2" d="M40.22,38.45V36.39h1.72c.07-.41.13-.75.16-1s0-.4,0-.41h1.91c-.13.69-.2,1.17-.23,1.42h1.73v2.06H43.5c-.65,2.84-1.1,4.69-1.37,5.57h-2c.79-2.83,1.27-4.68,1.42-5.57Zm5.9-2.11a12.62,12.62,0,0,1,1.6-.07l1.25,0,.5,0v2.1l-.44,0-1.11,0v2.72a7.57,7.57,0,0,1,1.1.47l.52.28v2.23a10.41,10.41,0,0,0-.89-.59,4.18,4.18,0,0,0-.73-.37V44a2.86,2.86,0,0,1-.35,1.56,1.84,1.84,0,0,1-.84.72,2.89,2.89,0,0,1-1,.18,3.35,3.35,0,0,1-1.29-.2,2.32,2.32,0,0,1-1.08-.84,2.76,2.76,0,0,1-.45-1.69,2.92,2.92,0,0,1,.87-2.21,3,3,0,0,1,2.36-.71Zm-.39,8.21a.35.35,0,0,0,.31-.2,1.22,1.22,0,0,0,.1-.51V42.68a1.49,1.49,0,0,0-1.12.18,1,1,0,0,0-.43.79.77.77,0,0,0,.3.72A1.2,1.2,0,0,0,45.73,44.55Z"/><path class="cls-2" d="M52.4,35.21h2.09V37h5.86v2.15H54.49v3.54a1.19,1.19,0,0,0,.34.82,1.68,1.68,0,0,0,1.15.35c.81,0,1.52,0,2.15-.05s1.37-.14,2.22-.28v2.19c-.82.09-1.58.16-2.26.2s-1.44.05-2.27,0a4.08,4.08,0,0,1-2.42-.78,2.92,2.92,0,0,1-1-2.28ZM58,36.53v-2h.95v2Zm1.48,0v-2h.94v2Z"/><path class="cls-2" d="M62.73,37.51V35.36h4v2.15Zm9.09.32A12.71,12.71,0,0,1,70,41.9a10.23,10.23,0,0,1-2.39,2.43A8.85,8.85,0,0,1,63.45,46c-.47,0-.71.06-.72,0V43.77a3,3,0,0,0,.56,0,6.34,6.34,0,0,0,1.4-.28,5.79,5.79,0,0,0,1.8-.94,8.61,8.61,0,0,0,1.74-1.77,10.52,10.52,0,0,0,1.42-2.93Zm-9.09,3V38.69h4v2.14Zm6.79-3.54v-2h1v2Zm1.48,0v-2h.94v2Z"/><path class="cls-2" d="M74,39V37.2h7.25v8.62H74V44h5.38V42.32h-5.1V40.63h5.1V39Z"/><path class="cls-2" d="M83.73,37.66V35.53H88v2.13Zm9.1.17A12.5,12.5,0,0,1,91,41.9a10.21,10.21,0,0,1-2.38,2.43,9.24,9.24,0,0,1-2.35,1.21,9,9,0,0,1-1.81.41c-.47,0-.71.06-.72,0V43.77a3,3,0,0,0,.56,0,6.3,6.3,0,0,0,1.41-.28,5.86,5.86,0,0,0,1.79-.94,8.91,8.91,0,0,0,1.75-1.77,10.53,10.53,0,0,0,1.41-2.93Z"/><path class="cls-2" d="M94.77,38.11V36.23h2.94L98,35.12h2.06a1.9,1.9,0,0,0-.08.3c0,.2-.13.47-.25.81h3.12v1.88h-4a1.46,1.46,0,0,1-.16.34c-.11.21-.21.39-.29.57l.16-.12a.72.72,0,0,1,.24-.13,1.58,1.58,0,0,1,1.43,0,1.63,1.63,0,0,1,.69,1c.51-.27,1-.5,1.44-.7s.94-.38,1.48-.58v2.21l-.42.14-1.06.37c-.43.15-.88.33-1.32.53v1.91H99.19v-1l-.13.09-.2.11c-.39.33-.56.64-.49.92s.39.43,1,.45,1.25,0,1.81-.11,1-.14,1.41-.21l.56-.12v2.26a8.42,8.42,0,0,1-1,.13,27.39,27.39,0,0,1-2.86.09,3.28,3.28,0,0,1-1.77-.52,2.2,2.2,0,0,1-.9-1.22A2.31,2.31,0,0,1,96.71,43a3.79,3.79,0,0,1,1.34-1.53c.19-.13.38-.26.57-.37l.57-.36a.45.45,0,0,0-.13-.34.58.58,0,0,0-.41-.06,2.64,2.64,0,0,0-.65.33,6.6,6.6,0,0,0-.81.61c-.28.24-.55.47-.79.69-.45.49-.84.9-1.16,1.21s-.49.48-.51.49V41.09a2.72,2.72,0,0,0,.33-.29,5.93,5.93,0,0,0,.73-.83,14.25,14.25,0,0,0,.87-1.23,3.35,3.35,0,0,0,.19-.38l.12-.25Z"/><path class="cls-2" d="M30.5,59.26h1.12a.43.43,0,0,0,.43-.32,7.39,7.39,0,0,0,.15-1.51,4.94,4.94,0,0,0,1.86.8,4.66,4.66,0,0,1-.62,2.33,1.91,1.91,0,0,1-1.62.61H30.19a2.42,2.42,0,0,1-1.83-.52,2.88,2.88,0,0,1-.48-1.93v-1.9H26.54a6.6,6.6,0,0,1-.34,1.56,4.16,4.16,0,0,1-.73,1.23,4,4,0,0,1-1.39,1,11,11,0,0,1-2.23.72,4.54,4.54,0,0,0-.47-.94,4.37,4.37,0,0,0-.66-.87,8,8,0,0,0,2.19-.65A2.59,2.59,0,0,0,24,58.05a3.49,3.49,0,0,0,.39-1.23H22.74V48.39h9.4v8.43H30v1.89a.73.73,0,0,0,.09.46A.71.71,0,0,0,30.5,59.26Zm-5.8-9.11v.55h5.37v-.55Zm0,2.18v.54h5.37v-.54Zm0,2.18v.55h5.37v-.55Z"/><path class="cls-2" d="M35.93,51.14a15.55,15.55,0,0,1,2.44-.76,11.33,11.33,0,0,1,2.37-.25,5.85,5.85,0,0,1,2.36.48A3.67,3.67,0,0,1,44.75,52a4.44,4.44,0,0,1,.64,2.3,4.71,4.71,0,0,1-1.8,4.28Q41.67,60,37.62,60V58A10.09,10.09,0,0,0,41,57.56a3.26,3.26,0,0,0,1.78-1.28,3.41,3.41,0,0,0,.49-1.93,1.9,1.9,0,0,0-.61-1.45,3.25,3.25,0,0,0-2.06-.66,6.51,6.51,0,0,0-1.53.15c-.5.12-1,.26-1.48.43s-.87.31-1.17.44a2.9,2.9,0,0,0-.45.2Z"/><path class="cls-2" d="M49.07,49.66h2c-.14,1.06-.24,2-.3,2.77s-.1,1.6-.11,2.43,0,1.73.13,2.54.21,1.75.37,2.82h-2.1c-.15-1-.26-1.95-.33-2.75s-.11-1.65-.12-2.56,0-1.69.11-2.49S48.93,50.71,49.07,49.66Zm2.5,4.06V51.63h2.8V49.3h2.05v2.33h1.49v2.09H56.42v1.9a11.07,11.07,0,0,1-.37,2.84A6.31,6.31,0,0,1,55,60.57H52.7a7.07,7.07,0,0,0,.88-1.42,10.29,10.29,0,0,0,.53-1.55,7.77,7.77,0,0,0,.26-2V53.72Z"/><path class="cls-2" d="M60.17,52.8V50.86h1.89c0-.47.08-.84.1-1.1l0-.41h1.89c0,.52-.07,1-.12,1.51H65.9v1.67c1.28,0,2.44,0,3.49,0v2c-.53,0-1.11-.05-1.74-.05l-2.58,0,0-1.71H63.75c-.2,1.57-.41,2.92-.64,4.05s-.41,2-.56,2.63-.22.93-.23.93H60.24c.39-1.35.72-2.69,1-4s.46-2.52.61-3.6Zm4.14,3.3h1.9a3,3,0,0,0-.58,1.65c0,.42.45.64,1.28.65.51,0,1,0,1.33,0l1.34-.08v2.1c-.58,0-1.11.08-1.6.09s-1,0-1.67,0A3.09,3.09,0,0,1,64.74,60a2,2,0,0,1-.81-.88,2.83,2.83,0,0,1-.23-1.11,3.29,3.29,0,0,1,.16-1A4.47,4.47,0,0,1,64.31,56.1Z"/><path class="cls-2" d="M72.41,49.77h2s0,.22,0,.61,0,.88-.05,1.48,0,1.23,0,1.9,0,1.26,0,1.82a11.87,11.87,0,0,0,.1,1.75c.07.45.22.68.44.71a2,2,0,0,0,.87-.29,9.93,9.93,0,0,0,.86-.56l.39-.3v2.27l-.29.24a3.62,3.62,0,0,1-.79.49,3.9,3.9,0,0,1-1.21.34,1.71,1.71,0,0,1-1.77-.95,6.74,6.74,0,0,1-.59-3.19c0-.59,0-1.24,0-2s0-1.41,0-2.07,0-1.2,0-1.63S72.41,49.79,72.41,49.77Zm5.51,0H80s.1.37.29,1.1a29.37,29.37,0,0,1,.52,3.36A47.62,47.62,0,0,1,81.06,60h-2s0-.26,0-.73,0-1.09,0-1.85-.07-1.61-.15-2.52-.2-1.81-.35-2.7A14.86,14.86,0,0,0,77.92,49.77Z"/><path class="cls-2" d="M88.66,49.73H91.5l-.34,7H89ZM88.86,60V57.85h2.43V60Z"/></svg>