<svg id="レイヤー_1" data-name="レイヤー 1" xmlns="http://www.w3.org/2000/svg" viewBox="0 0 115.29 72.23"><defs><style>.cls-1{fill:#fff;}.cls-2{fill:#1578db;}</style></defs><path class="cls-1" d="M66.49,67.44c-15,3.52-31,6-45.48,1C11.72,65.19,3,57.91,1.63,48.16c-1.21-8.91,4-17.47,10.11-24C30.63,4,61.21-4.27,87.68,3.6c6.56,1.95,13,4.89,18,9.58s8.42,11.33,8.18,18.18c-.39,11.61-10.6,20.36-20.74,26-2.75,1.53-5.65,3-7.58,5.52s-2.57,6.31-.53,8.71a43.58,43.58,0,0,0-12.45-5.87"/><path class="cls-1" d="M66.35,66.91c-10.17,2.38-20.66,4.33-31.15,3.55C26.11,69.78,16.84,67,10.09,60.6a22.76,22.76,0,0,1-6.5-10.36,21.29,21.29,0,0,1,1-13.5c3.29-8.33,10.13-15.2,17.18-20.52A74.34,74.34,0,0,1,69.38,1.37a65.25,65.25,0,0,1,26,6.22c8.2,4.06,15.46,11.16,16.85,20.56,1.31,8.93-3.81,16.78-10.32,22.37A66,66,0,0,1,91,57.82c-3.61,2-7.73,4.56-8.55,9a6.4,6.4,0,0,0,1.2,5.33l2.72-1a45.68,45.68,0,0,0-12.63-6,2.92,2.92,0,0,0-2,.34c-.28.15-1,.67-.32.86a44.23,44.23,0,0,1,12.27,5.79c.55.37,3.31-.29,2.72-1a6.43,6.43,0,0,1-.51-6.53,11.91,11.91,0,0,1,5-5.13c3.94-2.47,8-4.54,11.71-7.43,6.72-5.26,12.65-12.52,12.77-21.44.14-9.86-6.85-18.17-15-22.83C92.36,3.23,83.07,1,74,.25a81.15,81.15,0,0,0-50.5,13C9.9,22.16-8.15,40.92,4,57.83,9.44,65.34,18.4,69.35,27.28,71c10.45,1.91,21.22.74,31.56-1.31,2.6-.52,5.2-1.1,7.79-1.71.32-.07,1.44-.42,1.31-.91s-1.32-.21-1.59-.14Z"/><path class="cls-2" d="M28.94,32H24.81v9H22.55V26.38h6.39Zm-2.17-4h-2v.5h2Zm-2,2.44h2v-.53h-2Zm11.47-4V38.66a4,4,0,0,1-.15,1.23,1.28,1.28,0,0,1-.57.71,4.42,4.42,0,0,1-2.28.41,6.58,6.58,0,0,0-.42-1.7,5.35,5.35,0,0,0-.67,1,5.4,5.4,0,0,1-2.8-1.81,6.42,6.42,0,0,1-2.95,1.76,5.87,5.87,0,0,0-1.36-1.46,4.66,4.66,0,0,0,2.77-1.63H25.44V35.54H28.2v-.61H25.66V33.35h1a4.35,4.35,0,0,0-.43-.89L28,32a5,5,0,0,1,.68,1.37h1.44A10.41,10.41,0,0,0,30.53,32h-.75V26.38Zm-3,10.8H30.61a4.69,4.69,0,0,0,2.81,1.5l-.2.22h.55c.15,0,.23-.09.23-.27V32H30.74l1.93.5-.59.83h1.09v1.58h-2.9v.61h3ZM34,28H32v.5h2Zm-2,1.91v.58h2v-.58Z"/><path class="cls-2" d="M52.11,36.16h-3a14,14,0,0,0,4.83,2.71,8.31,8.31,0,0,0-1.68,2,14.61,14.61,0,0,1-4.87-3.49V41H44.91v-3.5a14.14,14.14,0,0,1-4.78,3.36,9.57,9.57,0,0,0-1.59-2,13.46,13.46,0,0,0,4.71-2.75h-2.9V29.87h4.56V29.2H39V27h5.87V25.81h2.44V27h6V29.2h-6v.67h4.76Zm-9.48-4.59v.64h2.28v-.64Zm0,2.22v.66h2.28v-.66Zm7.09-2.22H47.35v.64h2.37Zm0,2.88v-.66H47.35v.66Z"/><path class="cls-2" d="M29,46h7.58v2.22H28.1a19.46,19.46,0,0,1-1.85,3.12v7.75H23.91V53.83a11.57,11.57,0,0,1-1.19.91,12,12,0,0,0-1.11-2.28,11.29,11.29,0,0,0,3.83-4.28H22.19V46h4.28c.25-.68.47-1.38.66-2.11l2.42.58c-.06.19-.16.48-.29.85S29.05,45.88,29,46ZM33,53.35V56.5h3.56v2.16H26.94V56.5h3.69V53.35H27.55V51.19h3.08V48.78H33v2.41h3v2.16Z"/><path class="cls-2" d="M42.05,43.91l2.16.7a30.14,30.14,0,0,1-1.42,3V59H40.58V50.91a13.3,13.3,0,0,1-1.09,1.22A10,10,0,0,0,39,50.91a11.08,11.08,0,0,0-.67-1.2,15.22,15.22,0,0,0,2.13-2.61A16,16,0,0,0,42.05,43.91ZM49.9,56.38h3.93V58.6H43.46V56.38h4.06v-2.7H44.3V51.49h3.22V49.11H43.79v-2.2h4c-.76-.53-1.5-1-2.21-1.41l1.53-1.67a19.27,19.27,0,0,1,3.7,2.3l-.7.78H53.6v2.2H49.9v2.38h3.26v2.19H49.9Z"/><path class="cls-2" d="M74.38,20.61c.65.85,1.19.79,1.08,1.93-.08.81-.45,1.51-.11,2.28a4.22,4.22,0,0,0,1.56,1.58c1.2.83,2.58,1.13,3.06,2.25a2.23,2.23,0,0,1,.61.58,39.27,39.27,0,0,0,3.49-2.67,18.09,18.09,0,0,1,3.12-2.84c1.2-.7,2.06-1.63,1.56-3.22-.13-.42-.51-.76-.66-1.16a7.67,7.67,0,0,1-.19-1.47c-.14-.71-.54-1.16-.55-1.92s.24-1.72,1.07-1.82a19.79,19.79,0,0,1-.63-1.93C87.23,11,86,9.58,84.52,9.73a9.22,9.22,0,0,0-3.17.94c-.71.39-1.18,1.18-1.79,1.7-1.33,1.12-3.13,1.44-4.53,2.49a10.29,10.29,0,0,0-1.47,1.27l0,0a7.84,7.84,0,0,1,.75,2.16C74.44,19.28,73.76,19.79,74.38,20.61Z"/><path class="cls-1" d="M80.49,29.92l-.3-.38a2,2,0,0,0-.46-.45L79.58,29l-.07-.16a3.15,3.15,0,0,0-1.64-1.31,12.61,12.61,0,0,1-1.25-.73A4.58,4.58,0,0,1,74.9,25a2.84,2.84,0,0,1-.05-1.88c0-.21.09-.43.11-.65a.8.8,0,0,0-.36-.92,4.57,4.57,0,0,1-.61-.66h0a1.79,1.79,0,0,1-.28-1.7,1.81,1.81,0,0,0,.07-.8,7.23,7.23,0,0,0-.69-2l-.15-.3.22-.25a10.4,10.4,0,0,1,1.57-1.38A11.55,11.55,0,0,1,77,13.24,9,9,0,0,0,79.24,12a7.68,7.68,0,0,0,.63-.64,4.73,4.73,0,0,1,1.24-1.11,9.89,9.89,0,0,1,3.36-1c1.66-.16,3.09,1.27,3.77,2.77a4.94,4.94,0,0,1,.31,1,3,3,0,0,0,.31.91l.38.66-.76.09c-.63.07-.63,1.19-.63,1.31a2.57,2.57,0,0,0,.25.94,4.54,4.54,0,0,1,.29.9,4.48,4.48,0,0,1,.07.7,2,2,0,0,0,.09.67,3,3,0,0,0,.26.44,3.25,3.25,0,0,1,.42.76,3.14,3.14,0,0,1-1.78,3.8A10.2,10.2,0,0,0,85.32,26c-.3.32-.6.63-.91.93a24.52,24.52,0,0,1-2.58,2l-1,.69Zm-.13-1.61a2.31,2.31,0,0,1,.29.24l.6-.42a24.56,24.56,0,0,0,2.48-1.93c.3-.29.58-.59.87-.89a11.07,11.07,0,0,1,2.34-2c1.3-.76,1.68-1.52,1.33-2.64a2.09,2.09,0,0,0-.28-.49,3.58,3.58,0,0,1-.37-.64,2.92,2.92,0,0,1-.16-1,2.77,2.77,0,0,0-.29-1.26,3.59,3.59,0,0,1-.32-1.3,2.34,2.34,0,0,1,.9-2.12,5.11,5.11,0,0,1-.18-.64,3.45,3.45,0,0,0-.24-.79c-.51-1.13-1.61-2.3-2.76-2.18a8.69,8.69,0,0,0-3,.88,4,4,0,0,0-1,.89,6.44,6.44,0,0,1-.73.75,9.78,9.78,0,0,1-2.49,1.41,10.65,10.65,0,0,0-2.06,1.1,10.41,10.41,0,0,0-1.2,1,7.53,7.53,0,0,1,.64,2,2.89,2.89,0,0,1-.08,1.18c-.09.4-.14.58.09.88a3.14,3.14,0,0,0,.5.52A1.79,1.79,0,0,1,76,22.59c0,.26-.08.51-.13.76a2,2,0,0,0,0,1.27A3.77,3.77,0,0,0,77.19,26a12.13,12.13,0,0,0,1.15.66A4.23,4.23,0,0,1,80.36,28.31Z"/><path class="cls-2" d="M71.86,14c-.47-.39-1.57-1.66-2.23-1.28-.29.17-.66,1.31-.85,1.64a12,12,0,0,1-.71,1.09,8.63,8.63,0,0,1-3.67,2.77,4.84,4.84,0,0,1-.51.14h0a6.54,6.54,0,0,0-2.2.66,7.52,7.52,0,0,0-1.48,2c-.31.42-1.49,1.53-1.49,2,0,.76,1.25.88,1.65,1.2a19.92,19.92,0,0,1,2.54,2.4c1.12,1.32.57,3.05,1.32,4.35.44.74.71.74.6,1.78a6.6,6.6,0,0,0-.09,2.08,5.21,5.21,0,0,0,.35,1c.09-.17-.2-.32-.19-.47a6.67,6.67,0,0,1,.24-2.24c.45-1.44,2.78-2.31,3.8-3.37a7.4,7.4,0,0,1,2.67-2c1-.35,1.25,0,2.22.31a11.89,11.89,0,0,0,3.06.62c1,.05,2.16-.5,3.06,0h0c-.48-1.12-1.86-1.42-3.06-2.25a4.22,4.22,0,0,1-1.56-1.58c-.34-.77,0-1.47.11-2.28.11-1.14-.43-1.08-1.08-1.93s.06-1.33-.1-2.28a7.84,7.84,0,0,0-.75-2.16h0a8.3,8.3,0,0,0-.84-1.35h0A5.32,5.32,0,0,0,71.86,14Z"/><path class="cls-1" d="M65.06,37,64.64,36c-.06-.12-.1-.23-.15-.34a.62.62,0,0,1-.08-.24,4.33,4.33,0,0,1-.16-.56,5,5,0,0,1,0-1.73c0-.17,0-.33.07-.5a1.06,1.06,0,0,0-.23-1c-.09-.13-.19-.28-.31-.48a5.24,5.24,0,0,1-.55-2.08,3.93,3.93,0,0,0-.72-2.2,19.89,19.89,0,0,0-2.47-2.33,3.54,3.54,0,0,0-.45-.2c-.56-.21-1.4-.53-1.39-1.39,0-.48.46-1,1.17-1.82a6.16,6.16,0,0,0,.42-.48c.14-.19.26-.41.39-.63a4.36,4.36,0,0,1,1.21-1.49,4.43,4.43,0,0,1,1.82-.62l.54-.11.06,0a2.5,2.5,0,0,0,.39-.11,8.22,8.22,0,0,0,3.45-2.59c.24-.33.46-.68.68-1a4.12,4.12,0,0,0,.21-.48c.3-.71.5-1.16.82-1.34.86-.49,1.84.43,2.49,1l.31.27a6.34,6.34,0,0,1,.9.95,9.16,9.16,0,0,1,.9,1.43,8.12,8.12,0,0,1,.79,2.31,2.89,2.89,0,0,1-.08,1.18c-.09.4-.14.58.09.88a3.14,3.14,0,0,0,.5.52A1.79,1.79,0,0,1,76,22.59c0,.26-.08.51-.13.76a2,2,0,0,0,0,1.27A3.77,3.77,0,0,0,77.19,26a12.13,12.13,0,0,0,1.15.66,4.08,4.08,0,0,1,2.09,1.81L81,29.83l-1.3-.74a2.66,2.66,0,0,0-1.62,0,5.78,5.78,0,0,1-1.24.11,13.58,13.58,0,0,1-3.18-.64,5.74,5.74,0,0,1-.65-.24,1.39,1.39,0,0,0-1.26-.08,7,7,0,0,0-2.44,1.86,9.22,9.22,0,0,1-1.6,1.22c-.93.61-1.88,1.23-2.11,2a3.67,3.67,0,0,0-.2,1.33c0,.18,0,.4,0,.67a.75.75,0,0,1,.13.8ZM64,18.8l-.59.12a3.76,3.76,0,0,0-1.44.47,3.41,3.41,0,0,0-.9,1.17c-.15.25-.29.49-.45.71a6,6,0,0,1-.49.56A6,6,0,0,0,59.21,23c0,.13.46.3.76.42a2.84,2.84,0,0,1,.72.35,21.42,21.42,0,0,1,2.6,2.47A4.68,4.68,0,0,1,64.24,29a4.29,4.29,0,0,0,.42,1.69,4.89,4.89,0,0,0,.27.41,2.13,2.13,0,0,1,.39.8,10.2,10.2,0,0,1,1.86-1.44,8.75,8.75,0,0,0,1.41-1.05,7.77,7.77,0,0,1,2.85-2.14,2.43,2.43,0,0,1,2,.1,4.91,4.91,0,0,0,.57.22,12.33,12.33,0,0,0,2.93.59,4.84,4.84,0,0,0,1-.1c.23,0,.47-.07.71-.09-.24-.15-.5-.29-.78-.43a12.61,12.61,0,0,1-1.25-.73A4.58,4.58,0,0,1,74.9,25a2.84,2.84,0,0,1-.05-1.88c0-.21.09-.43.11-.65a.8.8,0,0,0-.36-.92,4.57,4.57,0,0,1-.61-.66,1.79,1.79,0,0,1-.28-1.7,1.81,1.81,0,0,0,.07-.8,7.23,7.23,0,0,0-.69-2,8.33,8.33,0,0,0-.8-1.27,5.2,5.2,0,0,0-.75-.79h0a4.47,4.47,0,0,1-.35-.32c-1-.93-1.25-.94-1.31-.9a6.57,6.57,0,0,0-.39.85,6.2,6.2,0,0,1-.28.6c-.23.4-.48.78-.73,1.14a9.15,9.15,0,0,1-3.91,2.94l-.27.08h0l-.24.06H64Zm-.23-1Z"/><path class="cls-2" d="M80,28.65h0c-.9-.48-2.08.07-3.06,0A11.89,11.89,0,0,1,73.83,28c-1-.31-1.23-.66-2.22-.31a7.4,7.4,0,0,0-2.67,2c-1,1.06-3.13,2-3.79,3.33a3.4,3.4,0,0,0-.27,2.22,2.85,2.85,0,0,0,.21.53l.3.63a2.25,2.25,0,0,0,1.36.36,6.28,6.28,0,0,0,.72-.12,3.18,3.18,0,0,1,.52-1,4,4,0,0,1,2.44-.82,4.32,4.32,0,0,1,3.2.73A13.47,13.47,0,0,0,75.74,37c1.49.59,3.28-.64,4.84-.8a13.9,13.9,0,0,1,4.22.24,5.77,5.77,0,0,0-1-2.5,10.07,10.07,0,0,1-1-1.14,4,4,0,0,1-.25-1.18h0a1.69,1.69,0,0,0-.14-.45c-.24-.42-.91-.81-1.27-1.19-.18-.19-.37-.46-.57-.71Z"/><path class="cls-1" d="M76.62,37.62a2.8,2.8,0,0,1-1.06-.19A7.46,7.46,0,0,1,74,36.49c-.22-.16-.43-.32-.64-.46a3.84,3.84,0,0,0-2.86-.65l-.33,0a3.1,3.1,0,0,0-1.81.61,2.38,2.38,0,0,0-.42.83l-.1.27-.29.06c-.27.05-.48.09-.76.12a2.79,2.79,0,0,1-1.65-.42L65,36.81l-.07-.14c-.11-.21-.21-.43-.3-.64a2.33,2.33,0,0,1-.25-.67,3.89,3.89,0,0,1,.31-2.5,7,7,0,0,1,2.46-2.35,10.82,10.82,0,0,0,1.43-1.12,7.77,7.77,0,0,1,2.85-2.14,2.43,2.43,0,0,1,2,.1,4.91,4.91,0,0,0,.57.22,12.33,12.33,0,0,0,2.93.59,4.84,4.84,0,0,0,1-.1,3.53,3.53,0,0,1,2.24.14l.52.29-.07.1.29.27.27.33a3.5,3.5,0,0,0,.32.4A4.51,4.51,0,0,0,82,30a3.48,3.48,0,0,1,.89.91,2,2,0,0,1,.2.6c0,.13,0,.26.06.38a1.79,1.79,0,0,0,.14.66,2.47,2.47,0,0,0,.46.56c.16.17.32.34.45.51a6.21,6.21,0,0,1,1.13,2.72l.12.75-.74-.19a13.63,13.63,0,0,0-4-.22,8.14,8.14,0,0,0-1.69.44A7.41,7.41,0,0,1,76.62,37.62Zm-5.44-3.3a4.86,4.86,0,0,1,2.72.87c.23.15.47.32.7.49a6.6,6.6,0,0,0,1.32.82,4.26,4.26,0,0,0,2.71-.35,9.25,9.25,0,0,1,1.91-.49,15.82,15.82,0,0,1,3.6.1,5.36,5.36,0,0,0-.78-1.57c-.11-.14-.24-.27-.36-.4a3.31,3.31,0,0,1-.64-.8,3,3,0,0,1-.25-1,3.11,3.11,0,0,0,0-.32.83.83,0,0,0-.09-.29,3.17,3.17,0,0,0-.64-.62,7,7,0,0,1-.55-.47,4.37,4.37,0,0,1-.4-.5l-.2-.25c-.21-.19-.37-.34-.49-.47l0,0a2.85,2.85,0,0,0-1.57,0,5.78,5.78,0,0,1-1.24.11,13.58,13.58,0,0,1-3.18-.64,5.74,5.74,0,0,1-.65-.24,1.39,1.39,0,0,0-1.26-.08,7,7,0,0,0-2.44,1.86,10.4,10.4,0,0,1-1.6,1.27,6.39,6.39,0,0,0-2.13,2,3,3,0,0,0-.22,1.93,3.29,3.29,0,0,0,.16.38l.22.48a1.57,1.57,0,0,0,.93.23l.41-.06a3.29,3.29,0,0,1,.51-.88,3.76,3.76,0,0,1,2.44-.94l.31,0A4.7,4.7,0,0,1,71.18,34.32Z"/><path class="cls-2" d="M77.49,40.71c-1.88,1.15-2.56-.55-4.47-1.05a4.94,4.94,0,0,0-1.91-.1,3.19,3.19,0,0,1,.31.44c.65,1.21-.32,2.83-.83,3.93a4.58,4.58,0,0,1-1.68,1.8c.88.7-.35,2.82.61,3.86.27.3.61.25.89.49s.43.62.69.88l.32.28c0-.13.12-.27.18-.44.19-.48.22-1,.42-1.44.65-1.5,1.87-1.38,3.26-2a3.63,3.63,0,0,1,3.52.29,3,3,0,0,1,1.31,1.63c.1.37,0,1.43.62,1.37a1.55,1.55,0,0,0,1.39-1.78,2.46,2.46,0,0,0-.37-1.3c-.39-.48-1-.93-1.12-1.56a3.44,3.44,0,0,1,.72-2.36A6.3,6.3,0,0,0,82,42.27a16.71,16.71,0,0,1-1.49-1.05C79.22,40.3,78.9,39.84,77.49,40.71Z"/><path class="cls-1" d="M71.64,52l-.54-.33-.35-.31a2.89,2.89,0,0,1-.39-.51,2.39,2.39,0,0,0-.27-.35.7.7,0,0,0-.26-.12,1.58,1.58,0,0,1-.68-.41,3.08,3.08,0,0,1-.45-2.51c0-.56.11-1.13-.1-1.3l-.51-.41.62-.46a3.83,3.83,0,0,0,1.43-1.53c.06-.14.14-.3.22-.47.48-1,1.07-2.18.62-3a2.26,2.26,0,0,0-.26-.37l-.56-.68.88-.13a5.3,5.3,0,0,1,2.1.12A6.16,6.16,0,0,1,75,40c.85.53,1.32.82,2.27.24,1.49-.91,2.09-.55,3.19.27l.73.55a11.44,11.44,0,0,0,1.07.74l.36.21-.24.66A4.53,4.53,0,0,1,81.76,44a3,3,0,0,0-.65,2,2.54,2.54,0,0,0,.65.94,4.73,4.73,0,0,1,.38.41,2.93,2.93,0,0,1,.48,1.57,2.06,2.06,0,0,1-1.85,2.33c-1,.07-1.07-1-1.11-1.46a1.7,1.7,0,0,0,0-.28,2.43,2.43,0,0,0-1.09-1.35,3.19,3.19,0,0,0-3.06-.24,8.23,8.23,0,0,1-1.12.38c-.89.27-1.49.45-1.87,1.33a4.06,4.06,0,0,0-.2.67,7,7,0,0,1-.21.75l-.16.38Zm-2-6.12a3.49,3.49,0,0,1,.09,1.68c-.07.67-.14,1.36.2,1.73a.56.56,0,0,0,.28.15,1.62,1.62,0,0,1,.57.31,2.48,2.48,0,0,1,.45.54.43.43,0,0,0,0,.07c0-.1,0-.21.08-.31a4.79,4.79,0,0,1,.25-.85,3.33,3.33,0,0,1,2.51-1.89,8,8,0,0,0,1-.34,4.15,4.15,0,0,1,4,.33,3.4,3.4,0,0,1,1.51,1.92,2.34,2.34,0,0,1,.06.45,2,2,0,0,0,.12.6,1.14,1.14,0,0,0,.85-1.29,2.07,2.07,0,0,0-.26-1c-.09-.12-.21-.24-.32-.36a3,3,0,0,1-.9-1.41,3.88,3.88,0,0,1,.8-2.75,3.44,3.44,0,0,0,.42-.91c-.28-.18-.55-.39-.81-.59l-.73-.53c-.95-.72-1.09-.83-2.07-.23h0c-1.47.91-2.41.32-3.32-.24a5.39,5.39,0,0,0-1.54-.75A4.74,4.74,0,0,0,72,40c.49,1.22-.2,2.63-.71,3.68l-.22.45A4.38,4.38,0,0,1,69.6,45.84Z"/><path class="cls-2" d="M84.8,36.4a13.9,13.9,0,0,0-4.22-.24c-1.56.16-3.35,1.39-4.84.8a13.47,13.47,0,0,1-2.11-1.35,4.32,4.32,0,0,0-3.2-.73A4,4,0,0,0,68,35.7a3.18,3.18,0,0,0-.52,1c.55-.1.75-.08,1.38.76s1.62,1.34,2.26,2.11a4.94,4.94,0,0,1,1.91.1c1.91.5,2.59,2.2,4.47,1.05,1.41-.87,1.73-.41,3,.51A16.71,16.71,0,0,0,82,42.27a4.17,4.17,0,0,1,.29-.65,5.39,5.39,0,0,1,1.52-1.41c.4-.32.67-.75,1.06-1A12.36,12.36,0,0,0,84.8,36.4Z"/><path class="cls-1" d="M82.23,43l-.51-.3a12.14,12.14,0,0,1-1.17-.81l-.73-.53c-.95-.72-1.09-.83-2.07-.23-1.48.91-2.41.32-3.32-.24a5.39,5.39,0,0,0-1.54-.75,4.47,4.47,0,0,0-1.71-.09l-.28,0-.18-.21a6.69,6.69,0,0,0-1-.94,7.41,7.41,0,0,1-1.25-1.19c-.48-.64-.51-.63-.89-.56l-.84.15.28-.81a3.59,3.59,0,0,1,.61-1.16,3.76,3.76,0,0,1,2.44-.94l.31,0a4.75,4.75,0,0,1,3.54.8c.23.15.47.32.7.49a6.6,6.6,0,0,0,1.32.82,4.26,4.26,0,0,0,2.71-.35,9.25,9.25,0,0,1,1.91-.49,14.27,14.27,0,0,1,4.38.25l.31.08.06.33a11.88,11.88,0,0,1,0,2.91v.23l-.19.14a3.3,3.3,0,0,0-.48.45,4.86,4.86,0,0,1-.56.55l-.41.32a3.34,3.34,0,0,0-1,.95,4.11,4.11,0,0,0-.25.57Zm-3.52-3.26a3,3,0,0,1,1.71.81l.73.55.59.43.09-.16a4.17,4.17,0,0,1,1.25-1.26l.39-.29a4.78,4.78,0,0,0,.45-.45,4.56,4.56,0,0,1,.44-.44,12.53,12.53,0,0,0,0-2.12,14,14,0,0,0-3.72-.15,8.14,8.14,0,0,0-1.69.44,4.92,4.92,0,0,1-3.38.33A7.46,7.46,0,0,1,74,36.49c-.22-.16-.43-.32-.64-.46a3.84,3.84,0,0,0-2.86-.65l-.33,0a3.1,3.1,0,0,0-1.81.61,1.17,1.17,0,0,0-.14.19,2.49,2.49,0,0,1,1,.92,6.63,6.63,0,0,0,1.08,1,9,9,0,0,1,1,.87,5.13,5.13,0,0,1,1.83.15A6.16,6.16,0,0,1,75,40c.85.53,1.32.82,2.27.24A2.89,2.89,0,0,1,78.71,39.74Z"/><path class="cls-2" d="M93.88,33.39c-1-1-1.82-.58-3.12-.24-2,.52-4.13.66-5.74-.83a2.77,2.77,0,0,0-2.46-.74,4,4,0,0,0,.25,1.18,10.07,10.07,0,0,0,1,1.14,5.77,5.77,0,0,1,1,2.5h0a12.36,12.36,0,0,1,0,2.79,1.37,1.37,0,0,1,.5-.24,1.4,1.4,0,0,1,1.38.46,7.15,7.15,0,0,1,1,1c.42.71-.07.79-.53,1.12-.85.61-1,1.71-1.85,2.31A3.8,3.8,0,0,0,83.82,47a8.1,8.1,0,0,1,.08,1.63,11.05,11.05,0,0,0-.41,1.65,19,19,0,0,0,.43,3.36c.12.63-.12,1.15.53,1.37,1.79.62,1.71-2.55,2.59-3.24a6.29,6.29,0,0,1,2.62-1.15,4.32,4.32,0,0,0,2.73-1.52,3,3,0,0,0,1.11-2.52c0-.63-.54-1.12-.4-1.77a12.2,12.2,0,0,1,1-1.85,13.34,13.34,0,0,1,1.62-2.9c.68-.8,1.67-1.84,2.75-1.92.42,0,3.31.5,2.46-.68-.35-.16-1-.22-1.24-.53a1.34,1.34,0,0,1-.11-.14c-1-.38-1.93-.84-2.88-1.28A10.43,10.43,0,0,1,93.88,33.39Z"/><path class="cls-1" d="M84.88,55.58a1.89,1.89,0,0,1-.6-.1,1.25,1.25,0,0,1-.82-1.33,3.19,3.19,0,0,0,0-.42A19.28,19.28,0,0,1,83,50.27a3.31,3.31,0,0,1,.24-1.12,2.74,2.74,0,0,0,.18-.6,4.12,4.12,0,0,0,0-1c0-.18,0-.37-.05-.55a4.28,4.28,0,0,1,1.74-3.61,2.76,2.76,0,0,0,.79-1,3.84,3.84,0,0,1,1.05-1.3l.28-.18.2-.12s0-.07-.09-.15a3,3,0,0,0-.57-.56l-.35-.32a.9.9,0,0,0-.92-.33.93.93,0,0,0-.32.15l-.88.63.09-1.07a12.36,12.36,0,0,0,0-2.36l-.17,0,.1-.4a5.3,5.3,0,0,0-.92-2.15c-.11-.14-.24-.27-.36-.4a3.31,3.31,0,0,1-.64-.8,3,3,0,0,1-.25-1,3.11,3.11,0,0,0,0-.32L82,31.16l.52-.07a3.25,3.25,0,0,1,2.86.86c1.21,1.13,2.84,1.35,5.28.71l.37-.1c1.1-.29,2.15-.58,3.22.47a9.72,9.72,0,0,0,2.65,2l.52.24c.76.35,1.55.72,2.33,1l.15.06.09.14a1.33,1.33,0,0,0,.64.31l.51.18.11.06.07.1a.91.91,0,0,1,.16,1c-.35.61-1.32.57-2.57.46l-.41,0c-.89.06-1.8,1-2.4,1.74a8.85,8.85,0,0,0-1.24,2.12l-.32.68c-.1.18-.23.41-.38.66a5.24,5.24,0,0,0-.55,1.08,1.14,1.14,0,0,0,.16.71,2.76,2.76,0,0,1,.25.92,3.51,3.51,0,0,1-1.25,2.89,4.81,4.81,0,0,1-3,1.68,5.55,5.55,0,0,0-2.4,1,3.31,3.31,0,0,0-.55,1.19c-.27.82-.58,1.74-1.3,2.09A1.31,1.31,0,0,1,84.88,55.58Zm.79-17.17a2,2,0,0,1,1.4.65l.3.27a3.31,3.31,0,0,1,.78.81,1,1,0,0,1-.45,1.64l-.21.13a2.86,2.86,0,0,0-.77,1,4,4,0,0,1-1.09,1.34A3.26,3.26,0,0,0,84.32,47a3.89,3.89,0,0,0,0,.49,4.72,4.72,0,0,1,0,1.25,3.89,3.89,0,0,1-.23.79,2.26,2.26,0,0,0-.18.78,18.56,18.56,0,0,0,.42,3.26,3.13,3.13,0,0,1,0,.59c0,.36,0,.36.15.41a.51.51,0,0,0,.45,0c.35-.17.59-.91.79-1.5a3.49,3.49,0,0,1,.88-1.67,6.71,6.71,0,0,1,2.84-1.25A3.77,3.77,0,0,0,92,48.75a2.55,2.55,0,0,0,1-2.15,1.8,1.8,0,0,0-.18-.59,2.13,2.13,0,0,1-.21-1.32,5.54,5.54,0,0,1,.67-1.37c.13-.22.26-.43.34-.59l.31-.66a9.91,9.91,0,0,1,1.38-2.34c.78-.93,1.84-2,3.1-2.1a5,5,0,0,1,.57,0,8.75,8.75,0,0,0,1.15.06,1.94,1.94,0,0,1-.84-.46l-.05-.07c-.77-.3-1.53-.65-2.26-1L96.46,36a10.78,10.78,0,0,1-2.93-2.2h0c-.64-.63-1.12-.53-2.25-.22l-.39.1c-1.74.45-4.28.85-6.21-.94A2.21,2.21,0,0,0,83.13,32a1.36,1.36,0,0,0,.12.49,2.47,2.47,0,0,0,.46.56c.16.17.32.34.45.51A6.15,6.15,0,0,1,85.23,36l.17,0-.09.42a11.08,11.08,0,0,1,.08,2Z"/><path class="cls-2" d="M90.23,15.4c-.61-.39-.94-1.29-1.69-1.28h-.12s0,0,0,0,0,0,0,0h0c-.83.1-1.08,1-1.07,1.82s.41,1.21.55,1.92a7.67,7.67,0,0,0,.19,1.47c.15.4.53.74.66,1.16.5,1.59-.36,2.52-1.56,3.22a18.09,18.09,0,0,0-3.12,2.84,39.27,39.27,0,0,1-3.49,2.67c.2.25.39.52.57.71.36.38,1,.77,1.27,1.19a1.69,1.69,0,0,1,.14.45,2.77,2.77,0,0,1,2.46.74c1.61,1.49,3.74,1.35,5.74.83,1.3-.34,2.15-.71,3.12.24a10.43,10.43,0,0,0,2.79,2.11c1,.44,1.9.9,2.88,1.28a8.57,8.57,0,0,1-.43-1.12,11.94,11.94,0,0,0-1.9-2.54,7.44,7.44,0,0,1-1.64-6,23,23,0,0,1,.6-3.43c.28-1.14-.13-2.39.18-3.43S97.54,18.4,98,17.42a12.35,12.35,0,0,0,.56-2c-1-.4-1.86-1.18-3-1.26C93.62,14,91.93,16.47,90.23,15.4Z"/><path class="cls-1" d="M100.82,37.8l-1.45-.55c-.81-.32-1.62-.69-2.39-1.06L96.46,36a10.78,10.78,0,0,1-2.93-2.2c-.64-.63-1.12-.53-2.25-.22l-.39.1c-1.74.45-4.28.85-6.21-.94a2.29,2.29,0,0,0-2.05-.61l-.47.06-.09-.47a.83.83,0,0,0-.09-.29,3.17,3.17,0,0,0-.64-.62,7,7,0,0,1-.55-.47,4.37,4.37,0,0,1-.4-.5l-.52-.66.41-.31,1-.69a24.56,24.56,0,0,0,2.48-1.93c.3-.29.58-.59.87-.89a11.07,11.07,0,0,1,2.34-2c1.3-.76,1.68-1.52,1.33-2.64a2.09,2.09,0,0,0-.28-.49,3.58,3.58,0,0,1-.37-.64,2.92,2.92,0,0,1-.16-1,2.77,2.77,0,0,0-.29-1.26,3.59,3.59,0,0,1-.32-1.3,2.35,2.35,0,0,1,.85-2.08l-.09-.16,1.16-.16,0,.08a2.22,2.22,0,0,1,1.2.85,2.82,2.82,0,0,0,.49.49h0c.68.43,1.37.09,2.42-.5a4.93,4.93,0,0,1,2.62-.86,5.14,5.14,0,0,1,2.18.8,7.68,7.68,0,0,0,1,.49l.42.16-.12.44c-.05.21-.1.42-.14.63a7.76,7.76,0,0,1-.44,1.48,7.76,7.76,0,0,1-.77,1.28,5.53,5.53,0,0,0-.82,1.47,4.87,4.87,0,0,0-.08,1.55,6.16,6.16,0,0,1-.1,1.86,23.94,23.94,0,0,0-.59,3.36,7,7,0,0,0,1.53,5.65l.22.25a11.24,11.24,0,0,1,1.74,2.4,2.31,2.31,0,0,1,.2.54,2.34,2.34,0,0,0,.21.52Zm-8.3-5.51a2.35,2.35,0,0,1,1.71.74,9.72,9.72,0,0,0,2.65,2l.52.24,1.26.58a10.06,10.06,0,0,0-1.59-2.17l-.23-.25A8,8,0,0,1,95.08,27a24.71,24.71,0,0,1,.61-3.5A5.41,5.41,0,0,0,95.76,22a5.47,5.47,0,0,1,.13-1.89,6,6,0,0,1,1-1.74,7.06,7.06,0,0,0,.68-1.13,6.54,6.54,0,0,0,.37-1.28l.06-.26c-.25-.12-.49-.25-.72-.38a4.41,4.41,0,0,0-1.77-.67,4.21,4.21,0,0,0-2.07.74c-1,.58-2.21,1.23-3.43.46h0a3.31,3.31,0,0,1-.72-.67c-.27-.31-.45-.51-.65-.53l-.36.16,0,0a1.82,1.82,0,0,0-.36,1.19,2.57,2.57,0,0,0,.25.94,4.54,4.54,0,0,1,.29.9,4.48,4.48,0,0,1,.07.7,2,2,0,0,0,.09.67,3,3,0,0,0,.26.44,3.25,3.25,0,0,1,.42.76,3.14,3.14,0,0,1-1.78,3.8A10.2,10.2,0,0,0,85.32,26c-.3.32-.6.63-.91.93a24.52,24.52,0,0,1-2.58,2l-.54.39a1.43,1.43,0,0,0,.22.26A4.51,4.51,0,0,0,82,30a3.48,3.48,0,0,1,.89.91l.08.16a3.2,3.2,0,0,1,2.43.9c1.21,1.13,2.84,1.35,5.28.71l.37-.1A5.79,5.79,0,0,1,92.52,32.29Z"/></svg>