<svg id="レイヤー_1" data-name="レイヤー 1" xmlns="http://www.w3.org/2000/svg" viewBox="0 0 181.3 118.81"><defs><style>.cls-1{fill:#1578db;}.cls-2{font-size:15px;font-family:Corporate-Logo-Bold, Corporate Logo Bold;font-weight:700;}.cls-2,.cls-6{fill:#fff;}.cls-2,.cls-4{letter-spacing:0.3em;}.cls-3{letter-spacing:0.05em;}.cls-5{fill:#c7bb7d;}.cls-7{fill:#736424;}</style></defs><path class="cls-1" d="M76.66,106.08h0C57.18,103,38,94.84,24.27,80.48,15.9,71.74,7.83,48.77,27.57,35,49.19,20,65.58,21.26,95,19.21a11.12,11.12,0,0,0,4.54-.94C101.29,17.32,116,.76,116.27.89c-.25-.13,5.49,17.31,9.06,18.78,10.14,4.19,27.92,11.82,40.63,23.61,17.55,16.29,18.71,46.11-11.84,58.29C138,108,107.87,111.84,76.66,106.08Z"/><path class="cls-1" d="M77.53,105.24c-17.19-2.75-34.18-9.38-47.37-21-4.6-4.05-8.34-8.41-10.7-14.11a31.84,31.84,0,0,1-2.25-17.81C18.54,45.11,23,39.29,29,35.19a72.93,72.93,0,0,1,19.86-9.84,99.27,99.27,0,0,1,20.67-3.63c8.34-.72,16.71-1,25-1.62,2.83-.2,5.3-.63,7.38-2.6,1.6-1.51,3.1-3.13,4.61-4.73,3.35-3.55,6.59-7.2,10-10.72l.57-.58c.37-.39.18-.1-.25.08l-1.14.22h0L116.45,0h0c-.6.1-1.45.37-1.63,1a2.73,2.73,0,0,0,.29,1.28c.28.91.59,1.81.91,2.71.92,2.6,1.92,5.19,3.06,7.71a26,26,0,0,0,3.69,6.51,5.27,5.27,0,0,0,2.14,1.44c1.51.63,3,1.26,4.5,1.91a162.79,162.79,0,0,1,21.49,11c6.7,4.15,13.44,9,18.29,15.28,7.11,9.25,10,21.95,5.45,33-5.5,13.31-19.34,19.43-32.51,22.54-18.33,4.32-37.8,4.6-56.42,2.14-2.73-.36-5.46-.8-8.17-1.29a2.35,2.35,0,0,0-2,.55c-.4.42-.35,1,.31,1.13a169.1,169.1,0,0,0,60.07.45c14.17-2.56,29.66-7.28,38.33-19.67,7-10,7.08-23.15,1.55-33.87-3.23-6.26-8-11.16-13.54-15.46a124.63,124.63,0,0,0-22.7-13.69c-3.34-1.61-6.73-3.11-10.14-4.55a16.93,16.93,0,0,1-3.29-1.42,8,8,0,0,1-1.83-2.3,65.66,65.66,0,0,1-6.17-14.6c-.09-.3-.17-.61-.27-.9s0-.46-.08-.18l-1.64,1h0c.53-.08,1.41-.32,1.59-.92s-.35-.84-.86-.84c-1.62,0-2.61,1.43-3.61,2.5-1.72,1.83-3.42,3.68-5.13,5.53-1.89,2-3.77,4.07-5.69,6.07-.78.81-1.56,1.61-2.36,2.39-.28.27-.55.54-.84.8l-.34.3c-.25.22.08,0-.1.08-1.61.9-4,.7-5.8.82-2.37.15-4.74.3-7.1.43-4.16.25-8.32.47-12.48.77a123.45,123.45,0,0,0-21.9,3.19A75.15,75.15,0,0,0,31,31.7c-6.62,4.07-12.56,9-15.42,16.42C11.42,58.93,15,72.58,22.79,80.93,35.07,94,52.25,102,69.6,105.75q3.08.68,6.19,1.17a2.36,2.36,0,0,0,2-.55C78.23,106,78.19,105.34,77.53,105.24Z"/><text class="cls-2" transform="translate(74.96 48.68)">1<tspan class="cls-3" x="14.26" y="0">年の</tspan><tspan class="cls-3"><tspan x="-52.75" y="19">引き寄せジプシー経験有</tspan><tspan x="-30.3" y="38">2</tspan><tspan class="cls-4" x="-19.79" y="38">5</tspan><tspan x="-5.54" y="38">万円散財！</tspan></tspan></text><path class="cls-5" d="M21.22,21.09h0a4.39,4.39,0,0,1,1.26-1.41A3.91,3.91,0,0,1,24,19.22,21.55,21.55,0,0,1,43.6,26.87a24.9,24.9,0,0,0,3.19,3.74,4.68,4.68,0,0,0,4.58,1,51.19,51.19,0,0,1-9,13.76,2,2,0,0,1-.64.51,1.79,1.79,0,0,1-.86,0,8.84,8.84,0,0,1-2-.42,6.85,6.85,0,0,1-3.28-3.25c-.76-1.37-1.33-2.86-2.22-4.15a12,12,0,0,0-6-4.31A24.21,24.21,0,0,0,20,32.66c-2.55-.06-6.32.35-4.32-3.14C17.3,26.62,19.37,23.88,21.22,21.09Z"/><path class="cls-6" d="M21.91,21.16c1.6-2.43,6.1-1.77,8.61-1.31a21.34,21.34,0,0,1,8.22,3.44c2.52,1.75,4.14,4,6.09,6.33,1.66,1.94,4.07,3.4,6.66,2.49l-.81-.55a51.7,51.7,0,0,1-6.64,11,18.21,18.21,0,0,1-2,2.32c-1,.84-2.36.47-3.41-.18-1.76-1.09-2.59-3.16-3.47-4.93A12.85,12.85,0,0,0,26.9,33a26,26,0,0,0-6.45-.88,13.68,13.68,0,0,1-3.84-.22c-1.94-.65.3-3.36.9-4.31,1.41-2.19,2.95-4.3,4.4-6.47.42-.65-1.05-.65-1.38-.14-1.45,2.17-3,4.27-4.4,6.47-.69,1.08-2.33,3-1.64,4.44.48,1,1.89,1.14,2.85,1.2,2.05.12,4.08,0,6.12.32a15.06,15.06,0,0,1,7.05,2.68c2,1.49,2.95,3.53,4.06,5.69a8,8,0,0,0,3.75,4.09,7.28,7.28,0,0,0,2.84.57,2.83,2.83,0,0,0,2.12-1.21,51.31,51.31,0,0,0,8.78-13.56c.22-.5-.47-.67-.82-.55-3.65,1.28-6-3.61-8-5.75a22,22,0,0,0-7.18-5,22.33,22.33,0,0,0-8.63-1.89,16.85,16.85,0,0,0-4.19.36A4.5,4.5,0,0,0,20.53,21C20.1,21.66,21.57,21.66,21.91,21.16Z"/><path class="cls-7" d="M26.5,24.37l-2.14,3.95c-.17.31.15.57.44.59a1,1,0,0,0,.94-.44l2.14-3.95c.17-.31-.15-.56-.43-.59a1,1,0,0,0-.95.44Z"/><path class="cls-7" d="M31.53,26.64a3.15,3.15,0,0,0-3.12.86A2.1,2.1,0,0,0,27.8,29a2,2,0,0,0,.69,1.38,3.53,3.53,0,0,0,3.16.7,2.64,2.64,0,0,0,2.07-2.35A1.88,1.88,0,0,0,33,27.2a2.09,2.09,0,0,0-1.83-.42c-.31.06-.68.38-.59.72s.57.4.87.34c-.16,0,0,0,0,0s.11,0,0,0l.12,0s-.1,0,0,0a.72.72,0,0,1,.33.2.92.92,0,0,1,.24.29.45.45,0,0,1,.06.15,2,2,0,0,1,0,.24v.18s0,.2,0,.17a1.29,1.29,0,0,1-.07.21l-.06.12s-.08.13,0,.06a1.24,1.24,0,0,1-.14.18s-.1.11-.05.06l0,0s-.24.16-.11.09l-.13.07-.11.05h0l-.15,0c-.14,0-.05,0,0,0l-.14,0a1.37,1.37,0,0,1-.49,0,2.2,2.2,0,0,1-.81-.33,1,1,0,0,1-.39-1.45l.15-.19s.09-.09,0,0l.12-.1.08-.06c.15-.11-.12.06.05,0l.23-.11c-.14.06,0,0,0,0l.15-.05.1,0c-.18,0,0,0,.05,0h.09c.08,0-.09,0,0,0l.12,0s.21,0,.08,0a1,1,0,0,0,1-.28.47.47,0,0,0-.2-.75Z"/><path class="cls-7" d="M35.19,28.67a2.35,2.35,0,0,0-2,.3,2.15,2.15,0,0,0-1,1.39,3.84,3.84,0,0,0-.09.83,4.14,4.14,0,0,0,0,.86,1.53,1.53,0,0,0,1.12,1.13A3.77,3.77,0,0,0,37,32.57a1.93,1.93,0,0,0,.65-1.45,2,2,0,0,0-.56-1.23,5.41,5.41,0,0,0-1.34-1,1.4,1.4,0,0,0-1-.16c-.38.05-1,.26-1,.74,0,.11.2.17.28.18a1.23,1.23,0,0,0,.54,0c.24-.07.66-.23.63-.54a.16.16,0,0,1-.08.16l-.3.17a.91.91,0,0,1-.49.07c.13,0,0,0,0,0a2.25,2.25,0,0,1,.21.12,4.78,4.78,0,0,1,.42.26,3.83,3.83,0,0,1,.77.68,1.35,1.35,0,0,1,.08,1.73l-.08.09,0,0-.11.1c-.08.06.07,0,0,0l-.12.07h0s-.12.05,0,0l-.08,0-.14,0s-.14,0,0,0H35a2.74,2.74,0,0,1-.56-.11,1.22,1.22,0,0,1-.8-.54,2.43,2.43,0,0,1-.12-1.2,2.43,2.43,0,0,1,.34-1.24A.55.55,0,0,1,34,29.4l.11-.1c-.1.07.07,0,0,0s.19-.06-.06,0h0a1.29,1.29,0,0,0,1-.14c.16-.1.46-.42.13-.54Z"/><path class="cls-7" d="M37.56,31a2.71,2.71,0,0,0-1.71,2.69,2.82,2.82,0,0,0,2,2.35,3.16,3.16,0,0,0,3.4-1A3.15,3.15,0,0,0,41,31.53a2.13,2.13,0,0,0-1.66-.89,2,2,0,0,0-1.92,1c-.18.31.15.58.44.6a1,1,0,0,0,.94-.44l0-.05h0s.11-.06,0,0l.08-.06c-.16.12,0,0,0,0s-.11.1,0,0h0s.17,0,0,0l.16,0h0l.16,0c-.1,0,.08.05.12.07a1.55,1.55,0,0,1,.4.44,3.36,3.36,0,0,1,.46,1.16A1.69,1.69,0,0,1,40,34.68c.05-.08,0,0,0,0l-.1.11s-.12.11,0,0l-.09.07s-.19.12,0,0l-.1.06-.11,0c-.14.06.12,0-.07,0l-.15,0c-.13,0,0,0,0,0l-.3,0c.14,0,0,0,0,0l-.18,0-.12,0c.12,0-.05,0-.07,0l-.29-.1c.08,0,0,0,0,0l-.16-.09a2.1,2.1,0,0,1-.41-.33,1.85,1.85,0,0,1-.5-1,1.79,1.79,0,0,1,.17-1.09.54.54,0,0,0,.07-.13c.09-.14-.06.07,0-.06l.07-.09.1-.11c-.07.06.07-.06.06-.06l.15-.1c-.12.08,0,0,0,0l.21-.09c.27-.1.55-.46.35-.74s-.69-.21-1-.1Z"/><path class="cls-7" d="M39.61,35.47c-.37,1-.71,2.19,0,3.13s2.15.83,3.1.36a3.35,3.35,0,0,0,1.86-2.4,2.15,2.15,0,0,0-1-2.29,2.66,2.66,0,0,0-3.16.42.33.33,0,0,0,.16.59,1.11,1.11,0,0,0,1-.27l.1-.1c.09-.09,0,0,0,0s.1,0,.11-.07-.14.06,0,0,.14,0,0,0l.08,0c.11,0,.1,0,0,0l.13,0H42c-.11,0,0,0,.05,0l.22.06c.13,0-.06,0,0,0a.61.61,0,0,0,.14.07l.19.12h0l.1.09a1.65,1.65,0,0,1,.27.35,1.85,1.85,0,0,1,.19,1,2.4,2.4,0,0,1-.32,1l-.15.23c-.06.09,0,0,0,0a.69.69,0,0,1-.11.13l-.19.19c-.09.08,0,0,0,0l-.17.12-.1.06c.15-.09,0,0,0,0l-.1,0c-.17.08.16,0,0,0l-.1,0H41.7a.76.76,0,0,1-.15,0h0l-.15,0c-.1,0,0,0,0,0a.85.85,0,0,1-.41-.3c-.64-.77-.23-1.89.07-2.73,0-.12-.07-.25-.15-.31a.83.83,0,0,0-.49-.07.91.91,0,0,0-.81.53Z"/><path class="cls-6" d="M19.89,22.72A62,62,0,0,0,16,17.51a4.73,4.73,0,0,0-5.43-1.69,59.18,59.18,0,0,0-6.34,2.43C2.68,18.92,0,19.83,0,21.9a.94.94,0,0,0,1,.92c2.21,0,4.41,0,6.62-.14L6.51,21.23,3.2,25c-.71.82.22,1.56,1.07,1.45l5.61-.73L8.81,24.32a30.41,30.41,0,0,0-2.67,3.11c-.35.47-.35,1.2.37,1.36A8.52,8.52,0,0,0,9.4,29a8.47,8.47,0,0,0,1.4-.28c.22-.06.44-.14.65-.22l.41-.17c.39-.15.16-.18-.69-.1l-.33-.43c.1.23-.12.5-.17.75a1.81,1.81,0,0,0,.05.95,2.35,2.35,0,0,0,1.15,1.27c1.44.8,3.16.2,4.53-.45.53-.24,1.09-.87.69-1.45s-1.43-.45-2-.2-1.53.77-1.55-.21c0-.33.26-.64.26-1a1.16,1.16,0,0,0-.58-1,2.88,2.88,0,0,0-2.54.14,4.22,4.22,0,0,1-2.53.27l.37,1.36a30.2,30.2,0,0,1,2.66-3.1c.78-.8-.26-1.55-1.07-1.45l-5.61.73,1.08,1.44,3.3-3.81c.74-.85-.24-1.49-1.07-1.44-2,.11-3.92.17-5.88.15l1,.91c0-.6.41-.79.91-1,.79-.38,1.59-.72,2.4-1.06a48.6,48.6,0,0,1,4.84-1.83,1.48,1.48,0,0,1,1.73.44A16.51,16.51,0,0,1,14.28,20c1,1.31,2,2.66,3,4,.72,1.06,3.49,0,2.66-1.26Z"/><path class="cls-6" d="M50.16,37.26A21.54,21.54,0,0,0,55.6,36a8.18,8.18,0,0,0,1.1-.45c-.29.16-.43-.17-.14.16a3.64,3.64,0,0,0,.6.43L59.74,38l2.42,1.72c.42.31,1.44.92.58,1.38-1.36.73-3.39-1.13-4.34-1.88S55,39.54,56,40.66c.13.16.26.33.38.5a1,1,0,0,1,.22.54l1.18-.28-.6-.33L55,39.94c-.71-.38-3,0-2.56,1.23a1.11,1.11,0,0,1,.1.51c0,.09-.17.36-.16.41s-.17.14,0,.08,0-.1-.13-.25a10.77,10.77,0,0,0-2-1.66,6.13,6.13,0,0,0-5.43-.11c-.55.24-1.08.9-.68,1.49s1.41.45,2,.21c2.21-1,3.37,2,5.32,2.37s4.73-1.58,3.88-3.83l-2.56,1.22c1.5.82,3.47,2.48,5.25,1.68a2.4,2.4,0,0,0,1.39-1.59,2.74,2.74,0,0,0-.84-2.31l-2.44,1.47c2,1.56,4.25,2.93,6.87,2.26a4.12,4.12,0,0,0,2.77-2c.55-1.15,0-2.07-1-2.76-1.15-.85-2.33-1.66-3.48-2.49a17.41,17.41,0,0,0-3.31-2.25c-1.3-.51-2.49.22-3.68.65a16.34,16.34,0,0,1-4,.89c-.63.06-1.52.44-1.59,1.17s.76,1,1.33.94Z"/><path class="cls-5" d="M141.81,113.83a16.42,16.42,0,0,1,5.1-3c9.15-4.16,17.23-10.32,26.08-15.07l-10.41-8.49a55.17,55.17,0,0,1-7.88,4.41h0c-4.94,2.48-22.9,13.68-22.9,13.68l3.58,2.25S141.7,113.94,141.81,113.83Z"/><path class="cls-6" d="M142.41,114c2.08-2,5.12-2.87,7.65-4.16s5.12-2.77,7.6-4.27c5.21-3.15,10.28-6.54,15.65-9.43.31-.17.6-.52.24-.82l-10.41-8.49a1,1,0,0,0-1,.09c-2.79,2-5.94,3.33-8.94,5-1.94,1-3.84,2.18-5.74,3.3-4.38,2.6-8.72,5.26-13,7.94l-3.05,1.89a.43.43,0,0,0-.08.72c1,.67,2.1,1.34,3.16,2,.44.26.24.11.5.35s.77.77,1.15,1.15c1.12,1.11,2.24,2.22,3.38,3.32.46.45,1.39,1.74,2.12,1.76s1.49-1,.51-1c.41,0,.24.15.06-.08a4.41,4.41,0,0,0-.51-.46l-1.52-1.47-3.19-3.16a24.73,24.73,0,0,0-4.54-3.2l-.08.73c7-4.36,14-8.79,21.2-12.77,3.2-1.76,6.58-3.19,9.58-5.32l-1,.09,10.41,8.49.24-.82c-5.47,3-10.64,6.4-16,9.62-2.7,1.63-5.45,3.2-8.28,4.58-2.5,1.22-5.19,2.13-7.23,4.08C140.56,114.25,142,114.46,142.41,114Z"/><path class="cls-7" d="M141,103.47l1.49,3,.36.71a1.87,1.87,0,0,0,.42.65,1.09,1.09,0,0,0,1.67-.3c.3-.8-1.15-.83-1.39-.19l.28-.25.38-.1a.68.68,0,0,1,.2,0c.07,0,.07,0,0,0h0a.47.47,0,0,1-.06-.09c-.11-.19-.2-.4-.3-.6l-.57-1.14-1.17-2.34c-.06-.13-.29-.2-.42-.22a.94.94,0,0,0-.57.1c-.31.16-.5.44-.33.77Z"/><path class="cls-7" d="M145.69,101.56a3.49,3.49,0,0,0,.34,2.6c.82,1.1,2.36.75,3.39.2a4,4,0,0,0,1.4-1,1.69,1.69,0,0,0,.28-1.59,3,3,0,0,0-2.78-1.72,2.8,2.8,0,0,0-2.06.59,1.58,1.58,0,0,0-.55,1.7.69.69,0,0,0,.86.31c.25-.07.73-.35.59-.69,0,0,0-.11,0-.16s0-.1,0,0a.74.74,0,0,1,0-.26c0,.09,0-.08.05-.12s.1-.15,0,0a.69.69,0,0,0,.11-.13c-.07.09,0,0,0,0s.16-.11.06,0,.08,0,.08,0,0,0,0,0l.16,0c.11,0-.18,0,0,0h.13c.16,0-.07,0,.08,0l.32,0,.16,0c.12,0-.14,0,.06,0a3.33,3.33,0,0,1,.6.22l0,0,.16.1a1.56,1.56,0,0,1,.2.16l.07.08.07.09a.61.61,0,0,1,.07.1.62.62,0,0,1,.06.12,1,1,0,0,1,.1.46s0,.08,0,.12,0,.16,0,.1-.05.11,0,.1-.1.15,0,.07l-.09.11s-.12.12,0,0a1.84,1.84,0,0,1-.22.17l-.22.16c.12-.08,0,0,0,0l-.17.09a6.27,6.27,0,0,1-.58.29c.12-.06,0,0,0,0l-.2.05s-.14,0,0,0l-.2,0c-.18,0,.07,0,0,0s-.16,0-.05,0l-.12,0c-.18-.06,0,0,0,0a1.09,1.09,0,0,1-.17-.13c.08.07,0,0,0,0l-.1-.12a.56.56,0,0,0-.05-.08s-.06-.13,0,0c0-.09-.07-.18-.09-.27a4,4,0,0,1-.09-.49,7.86,7.86,0,0,1,.08-1.15c.06-.35-.39-.51-.67-.48s-.74.22-.79.59Z"/><path class="cls-7" d="M150,99.69a1.82,1.82,0,0,0,.57,2.75c1.28.75,3,.11,4.08-.74s1.9-2.13,1.18-3.36-2.45-1.46-3.69-1.12a3.17,3.17,0,0,0-2.45,3.33c0,.33.63.3.84.24s.65-.28.61-.63a2.06,2.06,0,0,1,.26-1.24,1.8,1.8,0,0,1,.33-.45l.1-.09c.16-.15,0,0,.06,0l.14-.1c.17-.11-.07,0,.11-.06l.14-.06c-.14.06.09,0,.1,0l.14,0c-.11,0,0,0,0,0a2.1,2.1,0,0,1,.56,0,2,2,0,0,1,1.17.61,1.67,1.67,0,0,1-.34,2.28,3.54,3.54,0,0,1-1.09.75s-.13.06,0,0l-.19.06-.19,0h0a1.29,1.29,0,0,1-.57-.06,1.25,1.25,0,0,1-.39-.28,1.54,1.54,0,0,1-.32-.49,1.18,1.18,0,0,1-.09-.54.36.36,0,0,1,0-.11s0-.15,0-.09l.06-.12.05-.07,0,0a.35.35,0,0,0-.17-.61,1.1,1.1,0,0,0-1,.28Z"/><path class="cls-7" d="M154,97.14a2.11,2.11,0,0,0,1.09,2.46,3,3,0,0,0,1.82.21,4,4,0,0,0,1.84-.76,2.17,2.17,0,0,0,.75-2.76c-.65-1-2-.92-3-.66a4.86,4.86,0,0,0-1.87.87,1.34,1.34,0,0,0-.54.77.84.84,0,0,0,.23.78c.08.07.29.06.38.06a1.83,1.83,0,0,0,.56-.13c.12,0,.63-.25.42-.44a.69.69,0,0,1,.13-1,1.21,1.21,0,0,1,.38-.24l.12-.06c.1,0-.15.06,0,0l.13,0c.18-.06-.11,0,0,0l.14,0c.07,0,.13-.07,0,0,.05,0,.32,0,.15,0,0,0,.29,0,.17,0h.23a1.4,1.4,0,0,1,.88.53,1.78,1.78,0,0,1-.22,2.15,1.75,1.75,0,0,1-.39.33c-.15.1.1,0-.06,0l-.08,0-.08,0c.26,0-.14,0,0,0h-.08c.17,0,0,0,0,0s-.11,0,0,0h-.17a2.31,2.31,0,0,1-.5-.15,1.92,1.92,0,0,1-1-2.17c.08-.27-.47-.2-.59-.18a2.09,2.09,0,0,0-.55.18c-.1,0-.26.13-.29.24Z"/><path class="cls-7" d="M157.73,95.24a4,4,0,0,0,.15,2.06,2.32,2.32,0,0,0,1.29,1.15,3,3,0,0,0,3.5-1.21,2.63,2.63,0,0,0-.33-3.26,2.91,2.91,0,0,0-3.62-.44,2.46,2.46,0,0,0-1,3.21c.17.29.73.21,1,.09s.53-.41.35-.72a.69.69,0,0,1-.09-.22,2.27,2.27,0,0,1-.06-.25c0-.16,0,0,0-.05v-.13a1.55,1.55,0,0,1,0-.31,1.72,1.72,0,0,1,.49-.85c-.11.11.09-.06.12-.08s-.13,0,0,0l.1,0,.05,0c.07,0,.06,0,0,0s.13,0,.15,0-.16,0,0,0,.28,0,.11,0h.12s.21,0,.07,0a1.61,1.61,0,0,1,.29.09s.17.08.08,0l.1.06a2.35,2.35,0,0,1,.32.23,2,2,0,0,1,.57,2.14,1.71,1.71,0,0,1-.29.51.34.34,0,0,1-.08.09s-.15.15,0,.06l-.09.08s-.25.14-.1.07a.61.61,0,0,0-.14.07c-.1,0,.17,0,0,0l-.16,0c.15,0,.07,0,0,0h-.21l-.11,0c-.07,0-.07,0,0,0l-.11,0-.11,0s-.22-.09-.12,0a1.75,1.75,0,0,1-.29-.18.74.74,0,0,1-.17-.18,1.07,1.07,0,0,1-.19-.28,3.23,3.23,0,0,1-.1-1.72c.08-.71-1.4-.5-1.47.12Z"/><path class="cls-6" d="M133.39,105.46l-6.69-.14c-1.72,0-4.28-.48-5.32,1.31a10.91,10.91,0,0,0-.71,2.25,19,19,0,0,1-1.1,2.73,20.85,20.85,0,0,1-3.34,4.87c-.24.25-.41.52-.18.84,1.06,1.43,3.38.88,4.75.26a19.49,19.49,0,0,0,5.15-3.53l-2.62-.09a12,12,0,0,0-.19,3.72c.3,1.19,1.68,1.28,2.67,1a6.13,6.13,0,0,0,2.87-2.31A22.14,22.14,0,0,0,131,113l-2.7.53c.49.41.37,1.09.58,1.65a1.63,1.63,0,0,0,1.15,1,3.48,3.48,0,0,0,3.79-1.92,8.6,8.6,0,0,0,.33-.84,2.79,2.79,0,0,1,.24-.53c.37-.47.06-.48-.92,0,.31.5,1.56.49,2,.43a4.37,4.37,0,0,0,3.37-2.79c.59-1.31-2.3-1-2.7-.1-.22.47-.58.86-.8,1.31-.14.27.92,0,.37-.29a2,2,0,0,0-.76-.22,3.33,3.33,0,0,0-3,1.18,4.4,4.4,0,0,0-.64,1.14c-.1.25-.17.53-.29.77l-.13.24q-.62.69,1,0a7.05,7.05,0,0,0-.3-1.08,1.84,1.84,0,0,0-.59-1.12,2.1,2.1,0,0,0-2.7.53,20.78,20.78,0,0,1-2.6,3.71c-.12.12-.23.25-.35.38-.33.28-.09.31.7.06a4,4,0,0,0-.06-.73c0-.89.15-1.79.23-2.67.11-1.24-2.17-.51-2.62-.09a18,18,0,0,1-2.84,2.16c-.58.36-1.5,1.19-2,.47l-.18.84a22.83,22.83,0,0,0,3.57-5,23.62,23.62,0,0,0,1.17-2.68c.17-.47.33-1,.46-1.44.08-.27.14-1.11.4-1.24l-1.1.37a10.83,10.83,0,0,1,2.13,0l2.37,0,4.72.09a2.21,2.21,0,0,0,1.91-.8c.33-.59-.28-.89-.8-.9Z"/><path class="cls-6" d="M167,89l3-9.33-1.88.9a35.19,35.19,0,0,0,9.33.48c.6-.05,1.54-.06.53.57a7.13,7.13,0,0,1-3.71,1c-.65,0-1.52.5-1.59,1.21s.76,1,1.36,1A3.1,3.1,0,0,1,176.08,86l.35-1.36a8.59,8.59,0,0,1-5.29,1.69c-1.06,0-2.4,1.57-.94,2.13a2.59,2.59,0,0,1,1.12.6c.15.18.09.16.18.37s0,.32.19,0c.21-.13.2-.15,0-.07l-.47.08-.83.14-1.92.33c-.61.1-1.35.76-1.17,1.43s1.13.76,1.73.66c1-.17,2-.32,3-.51A2.9,2.9,0,0,0,174.28,90c.78-1.8-1-3-2.43-3.55l-.94,2.13A12.44,12.44,0,0,0,178.38,86c.37-.28.72-.93.35-1.36a6,6,0,0,0-4.55-2.06L174,84.84a11.15,11.15,0,0,0,5.46-1.54,3.58,3.58,0,0,0,1.84-2.11,1.79,1.79,0,0,0-1-2c-1.51-.81-3.56-.26-5.17-.25a31.19,31.19,0,0,1-6.1-.56,1.81,1.81,0,0,0-1.88.9l-3,9.33c-.51,1.63,2.38,1.69,2.79.39Z"/></svg>