<svg id="レイヤー_1" data-name="レイヤー 1" xmlns="http://www.w3.org/2000/svg" viewBox="0 0 376 101.36"><defs><style>.cls-1{fill:#1578db;}</style></defs><path class="cls-1" d="M100.33,16.58a11.52,11.52,0,0,1-2.09,4.36c.78.37,1.56.76,2.21,1.15a.9.9,0,0,1,.5.81,1.18,1.18,0,0,1-.17.59,1,1,0,0,1-.89.59,1.22,1.22,0,0,1-.51-.14,27.07,27.07,0,0,0-2.6-1.48,16.47,16.47,0,0,1-6.27,3.44,1.68,1.68,0,0,1-.37.06,1,1,0,0,1-1-.73,2.06,2.06,0,0,1-.06-.39.88.88,0,0,1,.73-.87,15,15,0,0,0,5.07-2.35,25.72,25.72,0,0,0-3.08-1.12,1.17,1.17,0,0,1-.95-1.12,1.69,1.69,0,0,1,.45-1.1,16.54,16.54,0,0,0,1.23-1.7H89.67c-.51,0-.76-.37-.76-.93s.25-.89.76-.89H93.5c.23-.48.45-1,.65-1.49a.78.78,0,0,1,.78-.59,2,2,0,0,1,.42.06c.48.11.78.36.78.7a.6.6,0,0,1-.08.31,9.56,9.56,0,0,1-.45,1h6.56c.5,0,.78.36.78.89s-.28.93-.78.93ZM102,5.71c.45,0,.73.39.73.9a.76.76,0,0,1-.73.84H98.07a10.59,10.59,0,0,0,2.66,2.35.84.84,0,0,1,.42.73,1.18,1.18,0,0,1-.14.5.93.93,0,0,1-.73.45,1.16,1.16,0,0,1-.59-.2,10.6,10.6,0,0,1-2.8-3.19A13,13,0,0,1,97,9.86v1.93c0,.47-.36.73-1,.73s-1-.26-1-.73v-2a9.25,9.25,0,0,1,.17-1.68,14.84,14.84,0,0,1-4.71,5,1.09,1.09,0,0,1-.59.17.9.9,0,0,1-.81-.5,1.35,1.35,0,0,1-.14-.51.81.81,0,0,1,.48-.72,13.73,13.73,0,0,0,4.39-4.09H89.72c-.44,0-.7-.37-.7-.84s.26-.9.7-.9H95.1v-5c0-.48.36-.73,1-.73s1,.25,1,.73v5ZM91.29.76a.86.86,0,0,1,.67.3,13.64,13.64,0,0,1,1.57,2.8.77.77,0,0,1,0,.26,1,1,0,0,1-.51.78A1.54,1.54,0,0,1,92.5,5a.68.68,0,0,1-.65-.34,13.52,13.52,0,0,0-1.48-2.63.71.71,0,0,1-.14-.42.84.84,0,0,1,.42-.7A1.18,1.18,0,0,1,91.29.76Zm3.39,15.82a13.72,13.72,0,0,1-1.26,1.84.88.88,0,0,0-.25.42c0,.14.14.23.45.31.86.25,1.84.62,2.85,1a9.34,9.34,0,0,0,1.91-3.58Zm7.42-15A1,1,0,0,1,102,2a14.5,14.5,0,0,1-1.81,2.85.79.79,0,0,1-.65.34,1.16,1.16,0,0,1-.62-.2.82.82,0,0,1-.42-.67.77.77,0,0,1,.17-.45,12.88,12.88,0,0,0,1.63-2.69.73.73,0,0,1,.7-.44,1.23,1.23,0,0,1,.53.11A.77.77,0,0,1,102.1,1.62Zm10.67,5.52c-.26,4.12-1,8.26-3.19,11.84a21.78,21.78,0,0,0,5.31,4.76,1,1,0,0,1,.42.82,1.32,1.32,0,0,1-.27.81,1.13,1.13,0,0,1-.9.47,1.32,1.32,0,0,1-.64-.19,24.14,24.14,0,0,1-5.19-4.9,21.81,21.81,0,0,1-5.71,4.9,1.14,1.14,0,0,1-.67.19,1,1,0,0,1-.89-.47,1.12,1.12,0,0,1-.2-.67.94.94,0,0,1,.5-.87,17.75,17.75,0,0,0,5.8-4.85,23.76,23.76,0,0,1-2.94-8.37A20.46,20.46,0,0,1,102.74,13a1,1,0,0,1-.78.45,1.09,1.09,0,0,1-.67-.25.89.89,0,0,1-.4-.7,1.14,1.14,0,0,1,.26-.68,25.78,25.78,0,0,0,4.51-11,.83.83,0,0,1,.92-.78,1.67,1.67,0,0,1,.31,0c.56.09.86.4.86.87a1.42,1.42,0,0,1,0,.28,32.52,32.52,0,0,1-1.1,4h7.59c.51,0,.82.39.82,1s-.29.95-.79.95Zm-6.86,0a8.17,8.17,0,0,1-.4.9,27.86,27.86,0,0,0,2.83,9,22.57,22.57,0,0,0,2.36-9.94Z"/><path class="cls-1" d="M132.54,23.24c0,1.82-1.12,2.58-3.34,2.58a18,18,0,0,1-3.33-.31.93.93,0,0,1-.73-1,1.68,1.68,0,0,1,.06-.37.93.93,0,0,1,.92-.84.77.77,0,0,1,.26,0,11.58,11.58,0,0,0,2.66.28c1.06,0,1.37-.19,1.37-1.15V17.05H119.77c-.51,0-.79-.45-.79-1s.26-1,.76-1h10.67V13.3c0-.5.39-.81,1-.81a3.37,3.37,0,0,1,.48,0,18.68,18.68,0,0,0,4.51-2.43c.11-.09.17-.17.17-.25s-.09-.14-.26-.14H123.71c-.5,0-.81-.42-.81-1s.31-1,.81-1h14.37a1.4,1.4,0,0,1,1.59,1.37,1.69,1.69,0,0,1-.58,1.23,24.16,24.16,0,0,1-6.55,3.78V15H143.2c.51,0,.82.42.82,1s-.28,1-.79,1H132.54ZM141.19,3c1.68,0,2.43.73,2.43,2.36V8.29c0,.56-.45.84-1.12.84s-1.12-.28-1.12-.81V5.8c0-.65-.3-.82-.86-.82h-18c-.59,0-.89.17-.89.82V8.32c0,.53-.48.81-1.12.81s-1.12-.28-1.12-.84V5.38c0-1.63.75-2.36,2.46-2.36h8.37V1c0-.59.39-.93,1.09-.93s1.1.34,1.1.93V3Z"/><path class="cls-1" d="M165.21,5.07a30.73,30.73,0,0,1-3.5.5c-4,.34-7.92.7-11.48,1h-.14a1.08,1.08,0,0,1-1.2-1.06V5.38a1.14,1.14,0,0,1,1-1.18c6.83-.53,14.23-1,21-1.32H171a1.09,1.09,0,0,1,1.2,1.1v.08a1.08,1.08,0,0,1-1.09,1.2c-.48.06-.93.12-1.57.23-6.05,1-10.28,5-10.28,9.55a5.65,5.65,0,0,0,3.59,5.4,13,13,0,0,0,5.23,1,1.11,1.11,0,0,1,1.24,1.14v.14A1.22,1.22,0,0,1,168,24a14.92,14.92,0,0,1-6.3-1.28,8.05,8.05,0,0,1-4.81-7.51c0-4.23,3-8.06,8.37-10Zm2.35,4.06a.9.9,0,0,1,.73.31,17,17,0,0,1,2.41,3.13,1.5,1.5,0,0,1,.19.73.85.85,0,0,1-.92.78.75.75,0,0,1-.73-.47,18.27,18.27,0,0,0-2.21-3,1,1,0,0,1-.28-.68A.82.82,0,0,1,167.56,9.13Zm3.08-1.79a1.06,1.06,0,0,1,.76.33,16.33,16.33,0,0,1,2.29,3.05,1.47,1.47,0,0,1,.17.7.85.85,0,0,1-.86.79.78.78,0,0,1-.73-.45,17.64,17.64,0,0,0-2.1-3,.87.87,0,0,1-.34-.73A.84.84,0,0,1,170.64,7.34Z"/><path class="cls-1" d="M186.13,4.54a20.77,20.77,0,0,1-6.33.92c-.62,0-1-.36-1-1.09V4.31a1,1,0,0,1,1-1.06,49.92,49.92,0,0,0,7.95-.79,3,3,0,0,1,.42,0,1.17,1.17,0,0,1,1.12.67,1.39,1.39,0,0,1,.17.67,1.19,1.19,0,0,1-.53,1C184.31,8,182,12,182,16c0,4.23,2.6,6.3,5.79,6.3,4.76,0,7.31-3.14,7.31-9.52a26.68,26.68,0,0,0-1.51-8.88,1.4,1.4,0,0,1-.08-.42c0-.47.31-.78.84-1a2.28,2.28,0,0,1,.44-.05,1.14,1.14,0,0,1,1,.67,26.08,26.08,0,0,0,6.92,9.49,1.25,1.25,0,0,1,.47,1,1.35,1.35,0,0,1-.3.81,1.18,1.18,0,0,1-.87.39,1.22,1.22,0,0,1-.87-.39,19.94,19.94,0,0,1-4.9-7l-.17.06a20.5,20.5,0,0,1,1.15,6.22c0,6.94-3.36,11-9.41,11-4.53,0-8.18-2.86-8.18-8.71,0-4.11,2.44-8.23,6.5-11.23Z"/><path class="cls-1" d="M218.89,12.57a41,41,0,0,0,4.34-.19h.19a.92.92,0,0,1,1,.95v.17a1,1,0,0,1-1,1.09,44.58,44.58,0,0,1-4.56.19c-.87,0-1.76,0-2.69,0a22.93,22.93,0,0,0-.31,3.61,3.84,3.84,0,0,0,1.29,3.08,6.93,6.93,0,0,0,4.45,1.18c4.12,0,6.58-1.8,6.58-4.74a6.76,6.76,0,0,0-1.7-4.39,1.07,1.07,0,0,1-.26-.67,1.15,1.15,0,0,1,.51-.9,1.17,1.17,0,0,1,1.62.31,9,9,0,0,1,2.19,5.54c0,4.54-3.5,7.09-8.85,7.09a9.5,9.5,0,0,1-6-1.63c-1.35-1.06-2-2.6-2-4.95a26.83,26.83,0,0,1,.29-3.64,45.13,45.13,0,0,1-4.65-.62,1,1,0,0,1-.87-1.06.61.61,0,0,1,0-.23,1,1,0,0,1,1-.92.64.64,0,0,1,.22,0c1.37.25,2.94.44,4.62.58.22-1.54.5-3.16.81-4.67-1.76-.11-3.41-.31-5-.56a1,1,0,0,1-.81-1,1.06,1.06,0,0,1,0-.25,1,1,0,0,1,1-.87h.19c1.37.2,3,.39,5,.5.23-1.26.51-2.57.73-3.8a1.08,1.08,0,0,1,1.32-.9,1,1,0,0,1,.92,1,.92.92,0,0,1,0,.28c-.25,1.15-.5,2.35-.72,3.53h1.14c1.6,0,3.28-.06,5-.23h.12a1,1,0,0,1,1,1V6.5c0,.61-.25,1.06-.86,1.12-1.6.14-3.22.22-4.85.22-.67,0-1.37,0-2,0-.31,1.54-.59,3.19-.81,4.71C217.23,12.54,218.07,12.57,218.89,12.57Z"/><path class="cls-1" d="M239.58,18.82V19a24.8,24.8,0,0,1-1.34,6.27,1,1,0,0,1-1,.67,1.78,1.78,0,0,1-.47-.08,1,1,0,0,1-.65-.93,1.06,1.06,0,0,1,.09-.42,20.21,20.21,0,0,0,1.34-5.82c.2-2.13.28-5.1.28-9.3a2.12,2.12,0,0,1,0-.45,1.23,1.23,0,0,1-.64.17,1,1,0,0,1-.65-.19,1,1,0,0,1-.33-.7,1,1,0,0,1,.25-.65,18.52,18.52,0,0,0,3.67-6.8A.84.84,0,0,1,241,.08a2.06,2.06,0,0,1,.39.06c.5.11.78.31.78.67a3.11,3.11,0,0,1-.05.34c-.09.25-.17.53-.28.78h3a1.42,1.42,0,0,1,1.62,1.4,1.74,1.74,0,0,1-.11.65A19.68,19.68,0,0,1,245,7h1.12c1.43,0,2.07.64,2.07,2.27V23.52c0,1.62-.95,2.21-2.77,2.21a9.51,9.51,0,0,1-2.18-.22.82.82,0,0,1-.62-.87.89.89,0,0,1,0-.28.8.8,0,0,1,.79-.76.58.58,0,0,1,.22,0,9.48,9.48,0,0,0,1.45.17c1,0,1.24-.11,1.24-.78v-4.2Zm1.54-15.07a25.2,25.2,0,0,1-1.79,3.31A3.87,3.87,0,0,1,240,7H243a16,16,0,0,0,1.29-2.72.73.73,0,0,0,.06-.22c0-.2-.14-.31-.4-.31Zm-1.37,10c0,1.12,0,2.21-.06,3.33h2.41V13.72Zm.75-4.93c-.47,0-.75.11-.75.65V12h2.35V8.79ZM243.92,12h2.41V9.44c0-.54-.25-.65-.76-.65h-1.65Zm2.41,1.71h-2.41v3.33h2.41Zm3.41-10.61c-.5,0-.81-.39-.81-.95s.31-.9.81-.9h8.93c1.63,0,2.33.84,2.3,2.21a15.32,15.32,0,0,1-.5,3.87c-.34,1.12-1,1.87-2.92,1.87A10.57,10.57,0,0,1,255.46,9a.84.84,0,0,1-.71-.84,1.28,1.28,0,0,1,.06-.34c.11-.5.39-.73.7-.73a.54.54,0,0,1,.2,0,7.28,7.28,0,0,0,1.48.2c.87,0,1.2-.26,1.4-1a10.81,10.81,0,0,0,.31-2.57c0-.56-.2-.7-.78-.7h-3.2A8.89,8.89,0,0,1,250.44,10a1.18,1.18,0,0,1-.59.17,1,1,0,0,1-.84-.48,1.19,1.19,0,0,1-.16-.59.91.91,0,0,1,.5-.81,6.36,6.36,0,0,0,3.53-5.15Zm2,11.62a16.82,16.82,0,0,1-.9,1.85,1,1,0,0,1-.86.5,1.27,1.27,0,0,1-.51-.11.93.93,0,0,1-.53-.81,1,1,0,0,1,.14-.48,14,14,0,0,0,1.76-4.34.8.8,0,0,1,.84-.7,1,1,0,0,1,.29,0,.86.86,0,0,1,.78.81.89.89,0,0,1,0,.28c-.08.34-.2.7-.31,1.06h2.33v-2c0-.56.39-.84,1-.84s1,.28,1,.84v2h4c.5,0,.78.37.78.93s-.28,1-.78,1h-4V18h4.76c.54,0,.79.36.79.95s-.25,1-.79,1h-4.76v5.37c0,.54-.45.84-1,.84s-1-.3-1-.84V19.91h-5c-.47,0-.78-.42-.78-1s.31-.95.78-.95h5V14.73Z"/><path class="cls-1" d="M284.69,2.18a1.28,1.28,0,0,1-.45,1,78.31,78.31,0,0,1-10.78,8.31c-.64.42-.78.7-.78,1.09s.22.65,1,1.12a93.18,93.18,0,0,1,11.56,8.94,1.44,1.44,0,0,1,.17,2,1.23,1.23,0,0,1-.95.48,1.35,1.35,0,0,1-1-.45A93.76,93.76,0,0,0,271.7,15.2c-1.29-.86-1.71-1.59-1.71-2.63s.5-1.93,1.82-2.8A73.62,73.62,0,0,0,282.42,1.4a1.38,1.38,0,0,1,.92-.39,1.6,1.6,0,0,1,.93.33A1.09,1.09,0,0,1,284.69,2.18Z"/><path class="cls-1" d="M20.55,36.94a1.18,1.18,0,0,1,1.26,1.33,1.21,1.21,0,0,1-1.26,1.37H16.14A1.07,1.07,0,0,0,15,40.83v14a1.27,1.27,0,0,1-1.44,1.26c-.91,0-1.43-.49-1.43-1.26V40c0-2.17.84-3.08,3.11-3.08Z"/><path class="cls-1" d="M30.62,57.63c-.28,5-.8,8.36-1.85,11.09a1.18,1.18,0,0,1-1.09.88,1.57,1.57,0,0,1-.63-.14,1.26,1.26,0,0,1-.87-1.09,1.31,1.31,0,0,1,.14-.63c1.71-4.23,2-9.48,2-20.4V40.93c0-2.06.91-2.83,2.9-2.83h3.4c2,0,2.87.77,2.87,2.83V66.69c0,1.89-.88,2.66-3,2.66a10.17,10.17,0,0,1-2.17-.21A1.08,1.08,0,0,1,31.5,68a2,2,0,0,1,0-.42c.14-.53.46-.88.91-.88a.3.3,0,0,1,.18,0,10.85,10.85,0,0,0,1.29.14c.84,0,1.05-.21,1.05-1V57.63Zm.18-8.51c0,1.82,0,3.68-.07,5.5,0,.21,0,.45,0,.66H35V49.12ZM35,41.42c0-.73-.31-.91-.94-.91H31.74c-.63,0-.94.18-.94.91v5.36H35Zm6-2.52a1.19,1.19,0,0,1,1.08.74,47.64,47.64,0,0,1,3,6.58,1.92,1.92,0,0,1,.1.59,1.18,1.18,0,0,1-.84,1.12,1.78,1.78,0,0,1-.73.18,1.16,1.16,0,0,1-1.16-.84,43.22,43.22,0,0,0-2.66-6.16,2.11,2.11,0,0,1-.31-1,1.12,1.12,0,0,1,.7-1A1.69,1.69,0,0,1,41,38.9ZM39.86,51.12c0-.67.49-1,1.23-1s1.29.35,1.29,1V65.5c0,.74.35.91,1.09.91H54.71c.7,0,1-.17,1-.91V51.12c0-.63.49-1,1.29-1s1.23.39,1.23,1V65.85c0,2.14-.91,3-3,3H42.87c-2.1,0-3-.84-3-3ZM44.38,54a1.31,1.31,0,0,1-.35-.84,1.08,1.08,0,0,1,.31-.77,1.3,1.3,0,0,1,.91-.42,1.08,1.08,0,0,1,.77.31c1.09,1,2.24,2.21,3.4,3.47a25.43,25.43,0,0,0,2-5,1,1,0,0,1,.94-.74,1.44,1.44,0,0,1,.53.11c.59.17.84.49.84,1a2,2,0,0,1-.07.42,32.92,32.92,0,0,1-2.63,6C52.29,59,53.52,60.46,54.64,62a1.23,1.23,0,0,1,.17.63,1.27,1.27,0,0,1-.49,1,1.3,1.3,0,0,1-.87.35.93.93,0,0,1-.77-.38c-.88-1.26-1.89-2.59-3-3.92a28.64,28.64,0,0,1-4.17,4.86,1.12,1.12,0,0,1-.81.35,1.13,1.13,0,0,1-.94-.52,1.28,1.28,0,0,1-.28-.77,1.22,1.22,0,0,1,.42-.91,24.11,24.11,0,0,0,4.23-4.8C46.9,56.51,45.6,55.14,44.38,54Zm2.83-16.24a1.17,1.17,0,0,1,1.09.7,38.76,38.76,0,0,1,2.62,6.44,1.86,1.86,0,0,1,.11.63,1,1,0,0,1-.84,1,1.86,1.86,0,0,1-.7.14,1.12,1.12,0,0,1-1.08-.91A42.18,42.18,0,0,0,46,39.6a1.45,1.45,0,0,1-.21-.73,1.09,1.09,0,0,1,.87-1A1.79,1.79,0,0,1,47.21,37.75ZM58.87,39.5a1.75,1.75,0,0,1-.1.56,39.39,39.39,0,0,1-4.27,8.22,1.39,1.39,0,0,1-1.12.7,1.56,1.56,0,0,1-.81-.24,1.11,1.11,0,0,1-.56-1,1.7,1.7,0,0,1,.32-.91,31.7,31.7,0,0,0,3.92-7.77,1.07,1.07,0,0,1,1-.87,1.51,1.51,0,0,1,.66.14A1.13,1.13,0,0,1,58.87,39.5Z"/><path class="cls-1" d="M74.65,67.18c0,.95-.66,1.33-1.54,1.33s-1.54-.38-1.54-1.33V40c0-1,.6-1.33,1.54-1.33S74.65,39,74.65,40v9a105.16,105.16,0,0,1,17.09,6.26,1.54,1.54,0,0,1,.94,1.47,2,2,0,0,1-.14.77,1.5,1.5,0,0,1-1.4,1,1.78,1.78,0,0,1-.73-.18,97,97,0,0,0-15.76-6.23Z"/><path class="cls-1" d="M106.33,40.79a1.59,1.59,0,0,1,3.15,0l-.14,21.07c0,1.4.52,2,1.64,2a2,2,0,0,0,.46,0,23.59,23.59,0,0,0,16.49-11,1.46,1.46,0,0,1,1.29-.84,1.65,1.65,0,0,1,.84.28,1.49,1.49,0,0,1,.67,1.26,2.22,2.22,0,0,1-.25.91A26.17,26.17,0,0,1,111.4,67l-.94,0a4.49,4.49,0,0,1-2.94-.91,4.35,4.35,0,0,1-1.3-3.5Z"/><path class="cls-1" d="M138.91,70.26a1.16,1.16,0,0,1-1.26-1.33c0-.77.35-1.36,1.26-1.36h4.38a1.08,1.08,0,0,0,1.22-1.19v-14A1.27,1.27,0,0,1,146,51.08c.91,0,1.43.49,1.43,1.26V67.18c0,2.17-.84,3.08-3.11,3.08Z"/><path class="cls-1" d="M184.38,41.91c2.7,0,4,1.47,4,4.27V61.41c0,2.8-1.29,4.23-4,4.23H164.53a1.32,1.32,0,0,1-1.33-1.5c0-1,.42-1.47,1.37-1.47H183.5c1.37,0,1.72-.39,1.72-1.65V46.5c0-1.26-.35-1.61-1.72-1.61H165.13c-.91,0-1.33-.53-1.33-1.44s.42-1.54,1.36-1.54Z"/><path class="cls-1" d="M224.14,64.8a1.41,1.41,0,0,1,1,1.4,2.31,2.31,0,0,1-.07.49,1.4,1.4,0,0,1-1.33,1.19,1.7,1.7,0,0,1-.56-.1,136.74,136.74,0,0,0-22.62-5.39,1.3,1.3,0,0,1-1.12-1.33,3.21,3.21,0,0,1,.07-.53,1.42,1.42,0,0,1,1.4-1.12h.25A149.94,149.94,0,0,1,224.14,64.8ZM222,53a1.35,1.35,0,0,1,1,1.37,1.71,1.71,0,0,1,0,.45,1.3,1.3,0,0,1-1.33,1.19,1.62,1.62,0,0,1-.56-.1A116.35,116.35,0,0,0,203,52.17,1.17,1.17,0,0,1,202,50.91a2,2,0,0,1,.07-.49,1.35,1.35,0,0,1,1.4-1.19h.24A143.51,143.51,0,0,1,222,53Zm1.26-9.8a1.38,1.38,0,0,1,1,1.4,1.79,1.79,0,0,1,0,.46A1.26,1.26,0,0,1,223,46.22a2,2,0,0,1-.63-.11,122.71,122.71,0,0,0-18.7-3.71,1.24,1.24,0,0,1-1.12-1.33,1.71,1.71,0,0,1,0-.45A1.45,1.45,0,0,1,204,39.46h.25A123.31,123.31,0,0,1,223.3,43.24Z"/><path class="cls-1" d="M260.3,64c.73,0,1.08.56,1.08,1.29s-.35,1.4-1.08,1.4H238.49a1.28,1.28,0,0,1-1.16-1.4A1.18,1.18,0,0,1,238.49,64h13a85.31,85.31,0,0,0,2.17-12.46v-.32c0-.63-.24-.84-1.12-.84H241.08A1.17,1.17,0,0,1,240,49.09c0-.77.42-1.4,1.09-1.4h12.63a2.77,2.77,0,0,1,2.21.84,3,3,0,0,1,.7,2.1,2.28,2.28,0,0,1,0,.52A104.78,104.78,0,0,1,254.42,64Z"/><path class="cls-1" d="M299.46,62a1.43,1.43,0,0,1,1.3,1.57c0,.84-.46,1.61-1.26,1.61H273.07a1.63,1.63,0,0,1,0-3.18Zm-2.9-19.36a1.46,1.46,0,0,1,1.29,1.58,1.41,1.41,0,0,1-1.26,1.57H276a1.41,1.41,0,0,1-1.3-1.57,1.46,1.46,0,0,1,1.3-1.58Z"/><path class="cls-1" d="M309.33,52c-.81,0-1.23-.63-1.23-1.43a1.23,1.23,0,0,1,1.26-1.37h27.31a1.21,1.21,0,0,1,1.26,1.37c0,.8-.39,1.43-1.23,1.43H325.6a18.63,18.63,0,0,1-2.73,10.33,14.06,14.06,0,0,1-8.43,5.91,3.17,3.17,0,0,1-.77.11,1.3,1.3,0,0,1-1.3-.84,2,2,0,0,1-.1-.63,1.39,1.39,0,0,1,1-1.4,11.4,11.4,0,0,0,7.11-5,16,16,0,0,0,2.1-8.51Zm24.29-11.62c.88,0,1.26.63,1.26,1.44a1.33,1.33,0,0,1-1.26,1.47H312.34a1.33,1.33,0,0,1-1.26-1.47c0-.81.42-1.44,1.26-1.44Z"/><path class="cls-1" d="M359.48,67.36A1.39,1.39,0,0,1,358,68.58a1.31,1.31,0,0,1-1.4-1.26V55.07A50.25,50.25,0,0,1,347,59.66a2.3,2.3,0,0,1-.66.1,1.17,1.17,0,0,1-1.19-.84,2,2,0,0,1-.11-.63A1.3,1.3,0,0,1,346,57a49.52,49.52,0,0,0,10.64-5.18,34,34,0,0,0,7.56-6.44,1.11,1.11,0,0,1,.91-.46,1.75,1.75,0,0,1,1.05.46,1.44,1.44,0,0,1,.49,1,1.71,1.71,0,0,1-.38,1,47.18,47.18,0,0,1-6.8,6.05Z"/><path class="cls-1" d="M114.62,90.7c0-.39.28-.57.67-.57s.66.18.66.57v9.62a.78.78,0,0,1-.84.89c-.6,0-.83-.24-1.18-.8l-3.71-6a31.87,31.87,0,0,1-1.58-3c.08.9.19,2.84.19,4.9v4.3a.58.58,0,0,1-.65.58c-.4,0-.68-.2-.68-.58V91a.8.8,0,0,1,.89-.84,1.16,1.16,0,0,1,1.13.67l3.53,5.73a37.16,37.16,0,0,1,1.79,3.33c-.08-.87-.22-2.9-.22-4.91Z"/><path class="cls-1" d="M131.91,95.67c0,3.45-1.88,5.68-4.87,5.68s-4.91-2.22-4.91-5.69S124,90,127,90,131.91,92.21,131.91,95.67Zm-8.39,0c0,2.71,1.37,4.46,3.52,4.46s3.48-1.72,3.48-4.54c0-2.65-1.35-4.38-3.48-4.38S123.52,93,123.52,95.67Z"/><path class="cls-1" d="M138,90.7c0-.39.28-.57.69-.57s.66.18.66.57v6.36c0,2.06,1,3.08,2.9,3.08s2.94-1,2.94-3.09V90.7c0-.39.28-.57.67-.57s.67.18.67.57v6.4c0,2.78-1.49,4.26-4.27,4.26S138,99.92,138,97.1Z"/><path class="cls-1" d="M152.79,91.44a.55.55,0,0,1-.54-.6.56.56,0,0,1,.53-.63h7.72a.57.57,0,0,1,.53.63.56.56,0,0,1-.53.6h-3.18v9.19a.59.59,0,0,1-.67.58c-.38,0-.68-.2-.68-.58V91.44Z"/><path class="cls-1" d="M176.08,95.67c0,3.45-1.88,5.68-4.87,5.68s-4.91-2.22-4.91-5.69S168.19,90,171.21,90,176.08,92.21,176.08,95.67Zm-8.39,0c0,2.71,1.37,4.46,3.52,4.46s3.48-1.72,3.48-4.54c0-2.65-1.36-4.38-3.48-4.38S167.69,93,167.69,95.67Z"/><path class="cls-1" d="M190.56,100.38a.93.93,0,0,1,0,.24.56.56,0,0,1-.47.54,1,1,0,0,1-.3,0,.57.57,0,0,1-.55-.37l-.35-.89c-1-2.74-1.4-3.73-2.8-3.73h-2.58v4.4a.57.57,0,0,1-.64.59c-.4,0-.67-.2-.67-.61V91.72c0-1.08.43-1.51,1.42-1.51h3.28c2,0,3.15,1.08,3.15,2.8a2.57,2.57,0,0,1-2.21,2.73c.84.26,1.29,1.19,2.33,3.81Zm-3.79-5.31a1.81,1.81,0,0,0,2-1.86,1.67,1.67,0,0,0-1.89-1.84H184c-.29,0-.46.16-.46.49v3.21Z"/><path class="cls-1" d="M197.83,99.46c0,.32.21.44.52.44h5a.54.54,0,0,1,.55.61.55.55,0,0,1-.55.61h-5.43c-1,0-1.42-.43-1.42-1.5v-7.9c0-1.08.43-1.51,1.42-1.51h5.3a.54.54,0,0,1,.56.6.56.56,0,0,1-.56.62h-4.93c-.34,0-.48.15-.48.49v2.9h4.78a.53.53,0,0,1,.54.6.55.55,0,0,1-.54.59h-4.78Z"/><path class="cls-1" d="M218.63,91.72c0-1.08.44-1.51,1.43-1.51h2.5c3.09,0,4.91,2,4.91,5.34s-1.85,5.57-4.91,5.57h-2.5c-1,0-1.43-.43-1.43-1.5ZM220,99.43a.41.41,0,0,0,.45.47h2.08c2.27,0,3.6-1.61,3.6-4.34s-1.25-4.14-3.56-4.14h-2.1a.43.43,0,0,0-.47.46Z"/><path class="cls-1" d="M234.22,100.81a.56.56,0,0,1-.55.4.92.92,0,0,1-.28,0,.61.61,0,0,1-.49-.57.71.71,0,0,1,0-.24l3.81-9.56a1,1,0,0,1,1-.66,1,1,0,0,1,1,.66l3.81,9.59a.41.41,0,0,1,.06.24.6.6,0,0,1-.5.56.78.78,0,0,1-.26,0,.59.59,0,0,1-.57-.39l-1.11-2.9h-4.85Zm5.5-4.06-1.55-4.07a13.17,13.17,0,0,1-.44-1.34,10.17,10.17,0,0,1-.43,1.35l-1.58,4.06Z"/><path class="cls-1" d="M248.16,91.44a.55.55,0,0,1-.55-.6.57.57,0,0,1,.54-.63h7.71a.57.57,0,0,1,.54.63.56.56,0,0,1-.54.6h-3.18v9.19c0,.38-.29.58-.67.58s-.67-.2-.67-.58V91.44Z"/><path class="cls-1" d="M262.72,100.81a.56.56,0,0,1-.55.4,1,1,0,0,1-.28,0,.61.61,0,0,1-.49-.57.74.74,0,0,1,.05-.24l3.81-9.56a.94.94,0,0,1,1-.66,1,1,0,0,1,1,.66l3.81,9.59a.49.49,0,0,1,.05.24.6.6,0,0,1-.5.56.73.73,0,0,1-.25,0,.59.59,0,0,1-.58-.39l-1.1-2.9H263.8Zm5.51-4.06-1.56-4.07a13.21,13.21,0,0,1-.43-1.34,11.87,11.87,0,0,1-.44,1.35l-1.58,4.06Z"/><rect class="cls-1" y="94.25" width="91" height="3"/><rect class="cls-1" x="285" y="94.25" width="91" height="3"/></svg>