<svg id="レイヤー_1" data-name="レイヤー 1" xmlns="http://www.w3.org/2000/svg" viewBox="0 0 204.85 37.36"><path d="M0,4.16s3.18,0,9.56.14c0,0,0,4.2-.18,10.12a92.92,92.92,0,0,1-9.38,0V11.88s2.54-.06,7,.16c-.1-2.46-.16-4.62-.2-6C2.34,6.16,0,6.2,0,6.2ZM17.1,11.1s3.06.42,7.58,1.2l-.16,2.24c-4.16-.26-7.64-.64-7.64-.64Zm7-5.68s-2.56-.24-6.7-.78l0-1.26c4.58.1,6.72.24,6.72.24ZM17.64,8.78l.08-1.28c4.58.3,6.2.5,6.2.5l-.1,1.82Zm20.08,3.16c0-1.7.08-3.34.12-4.48l-4.38.16V5.9s1.44,0,6.78.12c0,0-.14,2.86-.44,6,.46,0,1,0,1.46,0v1.9c-4.88.24-9,.3-9,.3V11.88S34.38,11.88,37.72,11.94Zm20,2.12c-5.4.28-9.92.36-9.92.36v-2.8s4,0,9.92.18Zm-.6-9.78v2.8S53.82,7,48.42,6.72V4.46C54.34,4.28,57.14,4.28,57.14,4.28ZM63.76,5.9H72.2l.8-.78.78.78v.8H70.6c-.24,8.14-5.52,8.3-5.52,8.3s2.56-2.34,2.72-8.3h-4Zm.58-2.16v-.8h7l.78-.8.8.8v.8ZM80,8.58A9.84,9.84,0,0,0,86.82,4.5L88.7,5.9a8.09,8.09,0,0,1-2.4,2.2C86.2,9.22,86,11.8,86,15h-1.3c-.34-2.52-.54-4.72-.64-6.06A7.68,7.68,0,0,1,80,8.58Zm20.22-.06a7.13,7.13,0,0,0-2.68-.64,4.35,4.35,0,0,1,3.1-1.36A22.26,22.26,0,0,0,101,2.88h2.8a22.16,22.16,0,0,1-.34,4.06,12.21,12.21,0,0,1,1.74.74l-1.26,2.5-1.2-.6c-2,5.34-6.3,5.42-6.3,5.42S99,13.28,100.26,8.52ZM114.92,6.6a9,9,0,0,0-3.48-1.08l0-2.08C115.08,3.64,114.92,6.6,114.92,6.6Zm6.2-.38s1.8,5.24-9.06,8.36l-.62-2.72C119.2,9.72,121.12,6.22,121.12,6.22Zm5.18,7.62s2.88-3.1,2.88-9.6H132C132,13.56,126.3,13.84,126.3,13.84Zm10.88-8.72s.42,3.52.88,8.12l-2.24.32C135,9.2,134.4,5.5,134.4,5.5Zm-.74-2a1.79,1.79,0,0,1-.34,1.62,4.63,4.63,0,0,0-1.18-1.44l.92-1a2.41,2.41,0,0,1,.52.66l.86-1a1.71,1.71,0,0,1,.26,2.48A4.59,4.59,0,0,0,136.44,3.14Zm7,5.52s3.72.06,10.6.26v1.84c-7.58.14-10.6.14-10.6.14ZM160.22,13a13.72,13.72,0,0,0,1.14-4.24h-1.14V6h1.4c.06-.86.06-1.78.06-2.82l2.8.4a20.7,20.7,0,0,1-.16,2.62c3.38,1.12,4.44,6.56,0,8.84,1.06-2.18,1.4-4.88-.66-5.86C162.44,12.66,160.22,13,160.22,13Zm6.62-6.78,1.34-2.46c3.78,2.74,2.24,6,2.24,6A7.27,7.27,0,0,0,166.84,6.22Zm2.28-2.8.92-1a2.5,2.5,0,0,1,.52.66l.86-1a1.68,1.68,0,0,1,.24,2.46,4.52,4.52,0,0,0-1-1.32,1.74,1.74,0,0,1-.36,1.62A4.57,4.57,0,0,0,169.12,3.42Zm6.34,1.16h5.26l.8-.8.8.8v1h-6.86ZM182.18,15h-2.74v-.18h-1a.55.55,0,0,1,0,.18h-2.3c-.22-2.5-.28-4.2-.28-4.2h2.74V11h1v-.2h2.32C182.12,13.3,182.18,15,182.18,15ZM179.92,2.48l.8-.8.8.8v1h-5.26v-1Zm-3.66,5.18v-1h3.66l.8-.8.8.8v1Zm0,1.12h3.66l.8-.8.8.8v1h-5.26Zm3.26,3.2h-.92c0,.48,0,1.1-.08,1.86h.94Zm6.94-10.2c0,.3,0,.9-.06,2.12h.9l0-.16h2.54s0,.38-.12,3.74l.42-.42.8.8v1h-8v-1h1.26c0-1.2-.08-2.18-.12-3h-1.14v-1H184c0-1.18-.08-1.82-.08-2.12h-1V.8h6.4l.8-.8.8.8v1Zm4,14.58H187.7V16.1H186v.26H183.7c-.22-3.7-.28-6.22-.28-6.22h2.74v.24h1.66c0-.08,0-.16,0-.24h2.32C190.36,13.84,190.42,16.36,190.42,16.36Zm-2.62-5h-1.66c0,.84,0,2.1-.08,3.76h1.64C187.72,14.28,187.74,13,187.8,11.36Zm-1.42-6.48c0,.8,0,1.78-.06,3h1.2c-.06-1.4-.12-2.34-.16-3Zm15.5,7.06a1.72,1.72,0,0,0-.06-1.7c-1.24-1.88-4.82-.6-4.82-.6a28,28,0,0,1,.1-5.4h-2.36v-.8H200a22,22,0,0,0-1,4.24s3.46-1.1,5,.54c2.38,2.58-.2,6.78-4.76,6.78-3.48,0-2.88-3.88,0-3.88A5.56,5.56,0,0,1,201.88,11.94Zm-2.7,1.9a2.79,2.79,0,0,0,1.64-.62,2.52,2.52,0,0,0-1.62-.8C198,12.42,197.86,13.84,199.18,13.84ZM20,25.18a2.72,2.72,0,0,1,3.12,1.72l-1.8.8A6.85,6.85,0,0,0,20,25.18Zm.14-2.46a22.54,22.54,0,0,0,7.72-2l1.36,1.88C23.42,24.72,20.1,22.72,20.1,22.72Zm7.76,5.9.8.8v1H25.88c0,1.58,0,3.88-.1,6.84H23.72c-.06-1.58-.1-3-.14-4.3-1.1,3.16-3.4,2.7-3.4,2.7a10.63,10.63,0,0,0,1.56-4.82l1.8.24c0-.24,0-.46,0-.66h-2.7v-1H23.5c0-1.1,0-1.72,0-1.72H25.9v1.72h1.16ZM26,26.26l-1.8.8a7,7,0,0,0-1.3-2.52A2.7,2.7,0,0,1,26,26.26Zm3.58,7.58L28,35.52a4.9,4.9,0,0,1-1.64-4.72A20.74,20.74,0,0,0,29.6,33.84ZM33.14,21l2.24,1.66c-2.64,3-5.42,2.66-6.24,2.48a3.07,3.07,0,0,1-2.84,2.06A8.55,8.55,0,0,0,27.46,24l1.9.46a2.11,2.11,0,0,1-.1.38A14.33,14.33,0,0,0,33.14,21ZM36,32.6c-3.9,4.64-7.82,3.16-7.82,3.16a16,16,0,0,0,5.58-4.82Zm-2.4-6.72,2.26,1.68c-3.14,3.56-6.48,2.4-6.48,2.4A13.5,13.5,0,0,0,33.6,25.88ZM45,24h2.36v-.2h2.32c.2,4.34.26,7.3.26,7.3H47.18v-.2H45c-.12.2-.24.36-.34.54h4.46a13.07,13.07,0,0,1-2.1,3,20.91,20.91,0,0,0,3.26.64l-1,2.26a11.11,11.11,0,0,1-3.94-1.5,9.08,9.08,0,0,1-5.74,1.5,16.31,16.31,0,0,0,4.28-2.7,5.63,5.63,0,0,1-1-1.48A3,3,0,0,1,40,33.2a5.69,5.69,0,0,0,2.36-2.08h-2.1c-.2-4.34-.26-7.3-.26-7.3h2.72V24h.52a3.84,3.84,0,0,0,.58-1.28H38.68v-1h11l.8-.8.8.8v1H46.1A2,2,0,0,1,45,24ZM47.2,29H42.66c0,.3,0,.64,0,1h4.54C47.18,29.66,47.2,29.34,47.2,29Zm0-2H42.7c0,.3,0,.64,0,1h4.54C47.22,27.66,47.22,27.34,47.24,27Zm-4.5-2c0,.28,0,.62,0,1h4.54c0-.32,0-.66,0-1Zm1.06,7.44a4.94,4.94,0,0,1-.54.42,12.91,12.91,0,0,0,1.58.78,9.21,9.21,0,0,0,.94-1.2Zm16.7-1.22h2.8c0,2.9.64,4,2.38,4.76C61.94,36.18,60.5,34.82,60.5,31.22Zm4.5-3.7H61.46v-.8H64.8A22.44,22.44,0,0,0,64,24.24l2.7-.76a20.1,20.1,0,0,1,.5,3.24h.72l.8-.8.78.8v.8H67.22c.06,4-1.6,5.48-1.6,5.48A22.77,22.77,0,0,0,65,27.52ZM86.26,33.1s-.8,2.9-3.2,2.9c-3.08,0-3-3.34-5.14-3.56C76.36,35.82,74.1,36,74.1,36s2.5-3.42,2.5-12.12h2.8a25,25,0,0,1-.78,6.66,2.53,2.53,0,0,1,2.7.92C83.2,33.86,84,34.7,86.26,33.1ZM97.7,35.42c1.56-2,.7-5.6-5.62-3.7l-.72-2.26c4-1.38,7.7-1.26,8.64,1.64C101,34.2,97.7,35.42,97.7,35.42ZM116.76,25c-2.82,4-6.44,7.66-1.66,11-7.38,0-5.72-5.88-1.8-8.68a27.83,27.83,0,0,1-5.7.76v-2.8C112.16,25.28,116.76,25,116.76,25Zm16.64,9.52s-1,.74-6.64.74c-4.18,0-3.16-4.08-3.16-4.08s.7,1.28,3.16,1.28c5.28,0,6.42-.74,6.42-.74Zm-1.46-7a48.83,48.83,0,0,0-7.06-.44v-2.2a56.43,56.43,0,0,1,7.46.44Zm18.32,5.58s-.8,2.9-3.2,2.9c-3.08,0-3-3.34-5.14-3.56C140.36,35.82,138.1,36,138.1,36s2.5-3.42,2.5-12.12h2.8a25,25,0,0,1-.78,6.66,2.53,2.53,0,0,1,2.7.92C147.2,33.86,148,34.7,150.26,33.1Zm4.06-2a11,11,0,0,0,1.32-4.84h-1.1v-.8h1.16c0-.5,0-1,0-1.62h2.8a13.72,13.72,0,0,1-.08,1.62h2.06l.8-.8.8.8v.8h-3.78C157.5,30.88,154.32,31.14,154.32,31.14Zm8.56-3a28.21,28.21,0,0,1-.16,3.58c.6.16,1.12.3,1.48.42l-.64,2.46c-.4-.2-.88-.42-1.38-.62a3.42,3.42,0,0,1-3.52,2c-3.18,0-2.76-4.46,0-4.72a7.71,7.71,0,0,1,1.36,0c.06-.84.1-1.88.1-3.14Zm-3.14,5a4.93,4.93,0,0,0-1-.16.74.74,0,0,0,0,1.48C159.16,34.5,159.5,34.2,159.74,33.18Zm3.3-5.92,2-2c2.48,2.52,0,5.24,0,5.24A7.28,7.28,0,0,0,163,27.26ZM170.16,37s4.52-3,4.52-15.62h2.8C177.48,37.36,170.16,37,170.16,37Zm6.9-7.5a12.48,12.48,0,0,0,6,5.14L181.52,37C176,33.4,177.06,29.5,177.06,29.5Z"/></svg>