<svg id="レイヤー_1" data-name="レイヤー 1" xmlns="http://www.w3.org/2000/svg" viewBox="0 0 410.56 16.78"><defs><style>.cls-1{fill:none;stroke:#000;stroke-miterlimit:10;stroke-width:2px;}</style></defs><path d="M0,4.48s3.18,0,9.56.14c0,0,0,4.2-.18,10.12a92.92,92.92,0,0,1-9.38,0V12.2s2.54-.06,7,.16c-.1-2.46-.16-4.62-.2-6-4.46.14-6.8.18-6.8.18Z"/><path d="M17.1,11.42s3.06.42,7.58,1.2l-.16,2.24c-4.16-.26-7.64-.64-7.64-.64Zm7-5.68S21.54,5.5,17.4,5l0-1.26c4.58.1,6.72.24,6.72.24ZM17.64,9.1l.08-1.28c4.58.3,6.2.5,6.2.5l-.1,1.82Z"/><path d="M37.72,12.26c0-1.7.08-3.34.12-4.48l-4.38.16V6.22s1.44,0,6.78.12c0,0-.14,2.86-.44,6,.46,0,1,0,1.46,0v1.9c-4.88.24-9,.3-9,.3V12.2S34.38,12.2,37.72,12.26Z"/><path d="M57.74,14.38c-5.4.28-9.92.36-9.92.36v-2.8s4,0,9.92.18Zm-.6-9.78V7.4S53.82,7.32,48.42,7V4.78C54.34,4.6,57.14,4.6,57.14,4.6Z"/><path d="M63.76,6.22H72.2l.8-.78.78.78V7H70.6c-.24,8.14-5.52,8.3-5.52,8.3S67.64,13,67.8,7h-4Zm.58-2.16v-.8h7l.78-.8.8.8v.8Z"/><path d="M80,8.9a9.84,9.84,0,0,0,6.78-4.08l1.88,1.4a8.09,8.09,0,0,1-2.4,2.2c-.1,1.12-.26,3.7-.26,6.9h-1.3c-.34-2.52-.54-4.72-.64-6.06A7.68,7.68,0,0,1,80,8.9Z"/><path d="M100.26,8.84a7.13,7.13,0,0,0-2.68-.64,4.35,4.35,0,0,1,3.1-1.36A22.26,22.26,0,0,0,101,3.2h2.8a22.16,22.16,0,0,1-.34,4.06,12.21,12.21,0,0,1,1.74.74l-1.26,2.5-1.2-.6c-2,5.34-6.3,5.42-6.3,5.42S99,13.6,100.26,8.84Z"/><path d="M114.92,6.92a9,9,0,0,0-3.48-1.08l0-2.08C115.08,4,114.92,6.92,114.92,6.92Zm6.2-.38s1.8,5.24-9.06,8.36l-.62-2.72C119.2,10,121.12,6.54,121.12,6.54Z"/><path d="M126.3,14.16s2.88-3.1,2.88-9.6H132C132,13.88,126.3,14.16,126.3,14.16Zm10.88-8.72s.42,3.52.88,8.12l-2.24.32c-.82-4.36-1.42-8.06-1.42-8.06Zm-.74-2a1.79,1.79,0,0,1-.34,1.62,4.63,4.63,0,0,0-1.18-1.44l.92-1a2.41,2.41,0,0,1,.52.66l.86-1a1.71,1.71,0,0,1,.26,2.48A4.59,4.59,0,0,0,136.44,3.46Z"/><path d="M143.48,9s3.72.06,10.6.26v1.84c-7.58.14-10.6.14-10.6.14Z"/><path d="M160.22,13.32a13.72,13.72,0,0,0,1.14-4.24h-1.14V6.28h1.4c.06-.86.06-1.78.06-2.82l2.8.4a20.7,20.7,0,0,1-.16,2.62c3.38,1.12,4.44,6.56,0,8.84,1.06-2.18,1.4-4.88-.66-5.86C162.44,13,160.22,13.32,160.22,13.32Zm6.62-6.78,1.34-2.46c3.78,2.74,2.24,6,2.24,6A7.27,7.27,0,0,0,166.84,6.54Zm2.28-2.8.92-1a2.5,2.5,0,0,1,.52.66l.86-1a1.68,1.68,0,0,1,.24,2.46,4.52,4.52,0,0,0-1-1.32,1.74,1.74,0,0,1-.36,1.62A4.57,4.57,0,0,0,169.12,3.74Z"/><path d="M175.46,4.9h5.26l.8-.8.8.8v1h-6.86Zm6.72,10.42h-2.74v-.18h-1a.55.55,0,0,1,0,.18h-2.3c-.22-2.5-.28-4.2-.28-4.2h2.74v.2h1v-.2h2.32C182.12,13.62,182.18,15.32,182.18,15.32ZM179.92,2.8l.8-.8.8.8v1h-5.26v-1ZM176.26,8V7h3.66l.8-.8.8.8V8Zm0,1.12h3.66l.8-.8.8.8v1h-5.26Zm3.26,3.2h-.92c0,.48,0,1.1-.08,1.86h.94Zm6.94-10.2c0,.3,0,.9-.06,2.12h.9l0-.16h2.54s0,.38-.12,3.74l.42-.42.8.8v1h-8v-1h1.26c0-1.2-.08-2.18-.12-3h-1.14v-1H184c0-1.18-.08-1.82-.08-2.12h-1v-1h6.4l.8-.8.8.8v1Zm4,14.58H187.7v-.26H186v.26H183.7c-.22-3.7-.28-6.22-.28-6.22h2.74v.24h1.66c0-.08,0-.16,0-.24h2.32C190.36,14.16,190.42,16.68,190.42,16.68Zm-2.62-5h-1.66c0,.84,0,2.1-.08,3.76h1.64C187.72,14.6,187.74,13.34,187.8,11.68ZM186.38,5.2c0,.8,0,1.78-.06,3h1.2c-.06-1.4-.12-2.34-.16-3Z"/><path d="M201.88,12.26a1.72,1.72,0,0,0-.06-1.7C200.58,8.68,197,10,197,10a28,28,0,0,1,.1-5.4h-2.36v-.8H200A22,22,0,0,0,199,8s3.46-1.1,5,.54c2.38,2.58-.2,6.78-4.76,6.78-3.48,0-2.88-3.88,0-3.88A5.56,5.56,0,0,1,201.88,12.26Zm-2.7,1.9a2.79,2.79,0,0,0,1.64-.62,2.52,2.52,0,0,0-1.62-.8C198,12.74,197.86,14.16,199.18,14.16Z"/><path d="M215.82,0l2.94.86c-.12.62-.26,1.22-.42,1.76h4.92l.8-.8.78.8v1H218a13,13,0,0,1-.92,2.1H219V6h3.76V5.7h2.32c.2,6.42.26,10.8.26,10.8-2.42.22-4.46.28-4.46.28v-2.2s.58,0,1.74,0c0-.42,0-.9,0-1.46h-3.72c0,1,0,2.12-.08,3.34h-2.3c-.16-4.38-.22-7.82-.26-9.56a7.15,7.15,0,0,1-4.48,3S213.62,8.08,215,3.6h-3.06v-1h3.34C215.46,1.82,215.66,1,215.82,0Zm3.1,12.18h3.74c0-.64,0-1.34,0-2.12H219C218.94,10.7,218.94,11.4,218.92,12.18Zm0-3.1h3.74c0-.66,0-1.36,0-2.12H219C219,7.5,219,8.2,219,9.08Z"/><path d="M229.24,10.92l1.46.28c0-.3,0-.54,0-.76l-1.54.32-.38-2.16L230,8.48c.18-.26.38-.6.6-1a14.87,14.87,0,0,0-2.34-1.74l1.3-1.58.36.34A15,15,0,0,0,231,2l2.26.94a7.76,7.76,0,0,1-2.42,2.68,4.83,4.83,0,0,1,.42.74c.26-.44.52-.92.8-1.46l2.1,1.26a12.35,12.35,0,0,1-1.94,2.06l.9-.12a3,3,0,0,0,0-.42l1.6,0c.34,1.7.52,2.88.52,2.88l-1.88.08s0-.24-.08-.72l-.32.08c0,.28,0,.7,0,1.32a3.65,3.65,0,0,1,2.54,2.24l-2,1a17.11,17.11,0,0,0-.6-2.12c0,.88,0,2-.08,3.48h-1.92c0-1.06-.08-2-.1-2.7A3.84,3.84,0,0,1,228,14.82,9.74,9.74,0,0,0,229.24,10.92Zm6.14-9.42h3.86V1.42h2.34s0,.66-.16,6.82h-1.9a.3.3,0,0,1,0-.14h-1.2c0,.92,0,2.6-.08,5.58.84-.06,1.56-.08,2.12-.12.16-.74.24-1.2.24-1.2l2.18.56s-.3,1.16-1,3.32c0,0-1.9,0-5.52-.14C236.06,8.62,236,7,236,7h2.32v.12h1.14c-.08-2.36-.14-3.78-.18-4.64h-3.9Z"/><path d="M250.7,10.54h2.8c0,2.9.64,4,2.38,4.76C252.14,15.5,250.7,14.14,250.7,10.54Zm4.5-3.7h-3.54V6H255a22.44,22.44,0,0,0-.82-2.48l2.7-.76a20.1,20.1,0,0,1,.5,3.24h.72l.8-.8.78.8v.8h-2.26c.06,4-1.6,5.48-1.6,5.48A22.77,22.77,0,0,0,255.2,6.84Z"/><path d="M276.46,12.42s-.8,2.9-3.2,2.9c-3.08,0-3-3.34-5.14-3.56-1.56,3.38-3.82,3.56-3.82,3.56s2.5-3.42,2.5-12.12h2.8a25,25,0,0,1-.78,6.66,2.53,2.53,0,0,1,2.7.92C273.4,13.18,274.2,14,276.46,12.42Z"/><path d="M287.9,14.74c1.56-2,.7-5.6-5.62-3.7l-.72-2.26c4-1.38,7.7-1.26,8.64,1.64C291.2,13.52,287.9,14.74,287.9,14.74Z"/><path d="M307,4.36c-2.82,4-6.44,7.66-1.66,11-7.38,0-5.72-5.88-1.8-8.68a27.83,27.83,0,0,1-5.7.76V4.6C302.36,4.6,307,4.36,307,4.36Z"/><path d="M323.6,13.88s-1,.74-6.64.74c-4.18,0-3.16-4.08-3.16-4.08s.7,1.28,3.16,1.28c5.28,0,6.42-.74,6.42-.74Zm-1.46-7a48.83,48.83,0,0,0-7.06-.44V4.2a56.43,56.43,0,0,1,7.46.44Z"/><path d="M340.46,12.42s-.8,2.9-3.2,2.9c-3.08,0-3-3.34-5.14-3.56-1.56,3.38-3.82,3.56-3.82,3.56s2.5-3.42,2.5-12.12h2.8a25,25,0,0,1-.78,6.66,2.53,2.53,0,0,1,2.7.92C337.4,13.18,338.2,14,340.46,12.42Z"/><path d="M344.52,10.46a11,11,0,0,0,1.32-4.84h-1.1v-.8h1.16c0-.5,0-1,0-1.62h2.8a13.72,13.72,0,0,1-.08,1.62h2.06l.8-.8.8.8v.8h-3.78C347.7,10.2,344.52,10.46,344.52,10.46Zm8.56-3a28.21,28.21,0,0,1-.16,3.58c.6.16,1.12.3,1.48.42l-.64,2.46c-.4-.2-.88-.42-1.38-.62a3.42,3.42,0,0,1-3.52,2c-3.18,0-2.76-4.46,0-4.72a7.71,7.71,0,0,1,1.36,0c.06-.84.1-1.88.1-3.14Zm-3.14,5a4.93,4.93,0,0,0-1-.16.74.74,0,0,0,0,1.48C349.36,13.82,349.7,13.52,349.94,12.5Zm3.3-5.92,2-2c2.48,2.52,0,5.24,0,5.24A7.28,7.28,0,0,0,353.24,6.58Z"/><path d="M360.36,16.32s4.52-3,4.52-15.62h2.8C367.68,16.68,360.36,16.32,360.36,16.32Zm6.9-7.5a12.48,12.48,0,0,0,6,5.14l-1.5,2.36C366.2,12.72,367.26,8.82,367.26,8.82Z"/><polyline class="cls-1" points="390.17 2.83 396.5 9.33 390.17 15.83"/><polyline class="cls-1" points="396.5 2.83 402.83 9.33 396.5 15.83"/><polyline class="cls-1" points="402.83 2.83 409.17 9.33 402.83 15.83"/></svg>