<svg id="レイヤー_1" data-name="レイヤー 1" xmlns="http://www.w3.org/2000/svg" viewBox="0 0 410.56 16.36"><defs><style>.cls-1{fill:none;stroke:#000;stroke-miterlimit:10;stroke-width:2px;}</style></defs><path d="M0,4.16s3.18,0,9.56.14c0,0,0,4.2-.18,10.12a92.92,92.92,0,0,1-9.38,0V11.88s2.54-.06,7,.16c-.1-2.46-.16-4.62-.2-6C2.34,6.16,0,6.2,0,6.2Z"/><path d="M17.1,11.1s3.06.42,7.58,1.2l-.16,2.24c-4.16-.26-7.64-.64-7.64-.64Zm7-5.68s-2.56-.24-6.7-.78l0-1.26c4.58.1,6.72.24,6.72.24ZM17.64,8.78l.08-1.28c4.58.3,6.2.5,6.2.5l-.1,1.82Z"/><path d="M37.72,11.94c0-1.7.08-3.34.12-4.48l-4.38.16V5.9s1.44,0,6.78.12c0,0-.14,2.86-.44,6,.46,0,1,0,1.46,0v1.9c-4.88.24-9,.3-9,.3V11.88S34.38,11.88,37.72,11.94Z"/><path d="M57.74,14.06c-5.4.28-9.92.36-9.92.36v-2.8s4,0,9.92.18Zm-.6-9.78v2.8S53.82,7,48.42,6.72V4.46C54.34,4.28,57.14,4.28,57.14,4.28Z"/><path d="M63.76,5.9H72.2l.8-.78.78.78v.8H70.6c-.24,8.14-5.52,8.3-5.52,8.3s2.56-2.34,2.72-8.3h-4Zm.58-2.16v-.8h7l.78-.8.8.8v.8Z"/><path d="M80,8.58A9.84,9.84,0,0,0,86.82,4.5L88.7,5.9a8.09,8.09,0,0,1-2.4,2.2C86.2,9.22,86,11.8,86,15h-1.3c-.34-2.52-.54-4.72-.64-6.06A7.68,7.68,0,0,1,80,8.58Z"/><path d="M100.26,8.52a7.13,7.13,0,0,0-2.68-.64,4.35,4.35,0,0,1,3.1-1.36A22.26,22.26,0,0,0,101,2.88h2.8a22.16,22.16,0,0,1-.34,4.06,12.21,12.21,0,0,1,1.74.74l-1.26,2.5-1.2-.6c-2,5.34-6.3,5.42-6.3,5.42S99,13.28,100.26,8.52Z"/><path d="M114.92,6.6a9,9,0,0,0-3.48-1.08l0-2.08C115.08,3.64,114.92,6.6,114.92,6.6Zm6.2-.38s1.8,5.24-9.06,8.36l-.62-2.72C119.2,9.72,121.12,6.22,121.12,6.22Z"/><path d="M126.3,13.84s2.88-3.1,2.88-9.6H132C132,13.56,126.3,13.84,126.3,13.84Zm10.88-8.72s.42,3.52.88,8.12l-2.24.32C135,9.2,134.4,5.5,134.4,5.5Zm-.74-2a1.79,1.79,0,0,1-.34,1.62,4.63,4.63,0,0,0-1.18-1.44l.92-1a2.41,2.41,0,0,1,.52.66l.86-1a1.71,1.71,0,0,1,.26,2.48A4.59,4.59,0,0,0,136.44,3.14Z"/><path d="M143.48,8.66s3.72.06,10.6.26v1.84c-7.58.14-10.6.14-10.6.14Z"/><path d="M160.22,13a13.72,13.72,0,0,0,1.14-4.24h-1.14V6h1.4c.06-.86.06-1.78.06-2.82l2.8.4a20.7,20.7,0,0,1-.16,2.62c3.38,1.12,4.44,6.56,0,8.84,1.06-2.18,1.4-4.88-.66-5.86C162.44,12.66,160.22,13,160.22,13Zm6.62-6.78,1.34-2.46c3.78,2.74,2.24,6,2.24,6A7.27,7.27,0,0,0,166.84,6.22Zm2.28-2.8.92-1a2.5,2.5,0,0,1,.52.66l.86-1a1.68,1.68,0,0,1,.24,2.46,4.52,4.52,0,0,0-1-1.32,1.74,1.74,0,0,1-.36,1.62A4.57,4.57,0,0,0,169.12,3.42Z"/><path d="M175.46,4.58h5.26l.8-.8.8.8v1h-6.86ZM182.18,15h-2.74v-.18h-1a.55.55,0,0,1,0,.18h-2.3c-.22-2.5-.28-4.2-.28-4.2h2.74V11h1v-.2h2.32C182.12,13.3,182.18,15,182.18,15ZM179.92,2.48l.8-.8.8.8v1h-5.26v-1Zm-3.66,5.18v-1h3.66l.8-.8.8.8v1Zm0,1.12h3.66l.8-.8.8.8v1h-5.26Zm3.26,3.2h-.92c0,.48,0,1.1-.08,1.86h.94Zm6.94-10.2c0,.3,0,.9-.06,2.12h.9l0-.16h2.54s0,.38-.12,3.74l.42-.42.8.8v1h-8v-1h1.26c0-1.2-.08-2.18-.12-3h-1.14v-1H184c0-1.18-.08-1.82-.08-2.12h-1V.8h6.4l.8-.8.8.8v1Zm4,14.58H187.7V16.1H186v.26H183.7c-.22-3.7-.28-6.22-.28-6.22h2.74v.24h1.66c0-.08,0-.16,0-.24h2.32C190.36,13.84,190.42,16.36,190.42,16.36Zm-2.62-5h-1.66c0,.84,0,2.1-.08,3.76h1.64C187.72,14.28,187.74,13,187.8,11.36Zm-1.42-6.48c0,.8,0,1.78-.06,3h1.2c-.06-1.4-.12-2.34-.16-3Z"/><path d="M201.88,11.94a1.72,1.72,0,0,0-.06-1.7c-1.24-1.88-4.82-.6-4.82-.6a28,28,0,0,1,.1-5.4h-2.36v-.8H200a22,22,0,0,0-1,4.24s3.46-1.1,5,.54c2.38,2.58-.2,6.78-4.76,6.78-3.48,0-2.88-3.88,0-3.88A5.56,5.56,0,0,1,201.88,11.94Zm-2.7,1.9a2.79,2.79,0,0,0,1.64-.62,2.52,2.52,0,0,0-1.62-.8C198,12.42,197.86,13.84,199.18,13.84Z"/><path d="M225.8,8.56a17.13,17.13,0,0,1,1.74.48L227,11.78s-.7-.2-1.74-.46c-1,3.5-2.94,3.68-2.94,3.68a26.64,26.64,0,0,0,.64-4.14,20.2,20.2,0,0,0-2.44-.26C220,13.76,218.9,15,217.62,15a2.53,2.53,0,0,1-2.82-2.54,4.42,4.42,0,0,1,3.4-4.16c0-1,0-2.3,0-3.82h-2V3.7H221c0,1.6,0,3-.14,4.24h.48c.6,0,1.2.08,1.76.14V6.72L225.9,7C225.88,7.54,225.84,8.06,225.8,8.56Zm-7.7,2.26c-1.52.54-1.74,1.86-.9,1.86C217.7,12.68,218,12.24,218.1,10.82Z"/><path d="M235.94,14.18s-4.66.24-4-9.06l2.78.34C234.08,11.48,235.94,14.18,235.94,14.18Zm7.4-2.4-2.76.46a11.27,11.27,0,0,0-2.14-5.16S241.66,6.44,243.34,11.78Z"/><path d="M252.7,10.22h2.8c0,2.9.64,4,2.38,4.76C254.14,15.18,252.7,13.82,252.7,10.22Zm4.5-3.7h-3.54v-.8H257a22.44,22.44,0,0,0-.82-2.48l2.7-.76a20.1,20.1,0,0,1,.5,3.24h.72l.8-.8.78.8v.8h-2.26c.06,4-1.6,5.48-1.6,5.48A22.77,22.77,0,0,0,257.2,6.52Z"/><path d="M278.46,12.1s-.8,2.9-3.2,2.9c-3.08,0-3-3.34-5.14-3.56C268.56,14.82,266.3,15,266.3,15s2.5-3.42,2.5-12.12h2.8a25,25,0,0,1-.78,6.66,2.53,2.53,0,0,1,2.7.92C275.4,12.86,276.2,13.7,278.46,12.1Z"/><path d="M289.9,14.42c1.56-2,.7-5.6-5.62-3.7l-.72-2.26c4-1.38,7.7-1.26,8.64,1.64C293.2,13.2,289.9,14.42,289.9,14.42Z"/><path d="M309,4c-2.82,4-6.44,7.66-1.66,11-7.38,0-5.72-5.88-1.8-8.68a27.83,27.83,0,0,1-5.7.76V4.28C304.36,4.28,309,4,309,4Z"/><path d="M325.6,13.56s-1,.74-6.64.74c-4.18,0-3.16-4.08-3.16-4.08s.7,1.28,3.16,1.28c5.28,0,6.42-.74,6.42-.74Zm-1.46-7a48.83,48.83,0,0,0-7.06-.44V3.88a56.43,56.43,0,0,1,7.46.44Z"/><path d="M342.46,12.1s-.8,2.9-3.2,2.9c-3.08,0-3-3.34-5.14-3.56C332.56,14.82,330.3,15,330.3,15s2.5-3.42,2.5-12.12h2.8a25,25,0,0,1-.78,6.66,2.53,2.53,0,0,1,2.7.92C339.4,12.86,340.2,13.7,342.46,12.1Z"/><path d="M346.52,10.14a11,11,0,0,0,1.32-4.84h-1.1V4.5h1.16c0-.5,0-1,0-1.62h2.8a13.72,13.72,0,0,1-.08,1.62h2.06l.8-.8.8.8v.8h-3.78C349.7,9.88,346.52,10.14,346.52,10.14Zm8.56-3a28.21,28.21,0,0,1-.16,3.58c.6.16,1.12.3,1.48.42l-.64,2.46c-.4-.2-.88-.42-1.38-.62a3.42,3.42,0,0,1-3.52,2c-3.18,0-2.76-4.46,0-4.72a7.71,7.71,0,0,1,1.36,0c.06-.84.1-1.88.1-3.14Zm-3.14,5a4.93,4.93,0,0,0-1-.16.74.74,0,0,0,0,1.48C351.36,13.5,351.7,13.2,351.94,12.18Zm3.3-5.92,2-2c2.48,2.52,0,5.24,0,5.24A7.28,7.28,0,0,0,355.24,6.26Z"/><path d="M362.36,16s4.52-3,4.52-15.62h2.8C369.68,16.36,362.36,16,362.36,16Zm6.9-7.5a12.48,12.48,0,0,0,6,5.14L373.72,16C368.2,12.4,369.26,8.5,369.26,8.5Z"/><polyline class="cls-1" points="390.17 2.51 396.5 9.01 390.17 15.51"/><polyline class="cls-1" points="396.5 2.51 402.83 9.01 396.5 15.51"/><polyline class="cls-1" points="402.83 2.51 409.17 9.01 402.83 15.51"/></svg>