<svg id="レイヤー_1" data-name="レイヤー 1" xmlns="http://www.w3.org/2000/svg" viewBox="0 0 204.85 37"><path d="M0,4.16s3.18,0,9.56.14c0,0,0,4.2-.18,10.12a92.92,92.92,0,0,1-9.38,0V11.88s2.54-.06,7,.16c-.1-2.46-.16-4.62-.2-6C2.34,6.16,0,6.2,0,6.2ZM17.1,11.1s3.06.42,7.58,1.2l-.16,2.24c-4.16-.26-7.64-.64-7.64-.64Zm7-5.68s-2.56-.24-6.7-.78l0-1.26c4.58.1,6.72.24,6.72.24ZM17.64,8.78l.08-1.28c4.58.3,6.2.5,6.2.5l-.1,1.82Zm20.08,3.16c0-1.7.08-3.34.12-4.48l-4.38.16V5.9s1.44,0,6.78.12c0,0-.14,2.86-.44,6,.46,0,1,0,1.46,0v1.9c-4.88.24-9,.3-9,.3V11.88S34.38,11.88,37.72,11.94Zm20,2.12c-5.4.28-9.92.36-9.92.36v-2.8s4,0,9.92.18Zm-.6-9.78v2.8S53.82,7,48.42,6.72V4.46C54.34,4.28,57.14,4.28,57.14,4.28ZM63.76,5.9H72.2l.8-.78.78.78v.8H70.6c-.24,8.14-5.52,8.3-5.52,8.3s2.56-2.34,2.72-8.3h-4Zm.58-2.16v-.8h7l.78-.8.8.8v.8ZM80,8.58A9.84,9.84,0,0,0,86.82,4.5L88.7,5.9a8.09,8.09,0,0,1-2.4,2.2C86.2,9.22,86,11.8,86,15h-1.3c-.34-2.52-.54-4.72-.64-6.06A7.68,7.68,0,0,1,80,8.58Zm20.22-.06a7.13,7.13,0,0,0-2.68-.64,4.35,4.35,0,0,1,3.1-1.36A22.26,22.26,0,0,0,101,2.88h2.8a22.16,22.16,0,0,1-.34,4.06,12.21,12.21,0,0,1,1.74.74l-1.26,2.5-1.2-.6c-2,5.34-6.3,5.42-6.3,5.42S99,13.28,100.26,8.52ZM114.92,6.6a9,9,0,0,0-3.48-1.08l0-2.08C115.08,3.64,114.92,6.6,114.92,6.6Zm6.2-.38s1.8,5.24-9.06,8.36l-.62-2.72C119.2,9.72,121.12,6.22,121.12,6.22Zm5.18,7.62s2.88-3.1,2.88-9.6H132C132,13.56,126.3,13.84,126.3,13.84Zm10.88-8.72s.42,3.52.88,8.12l-2.24.32C135,9.2,134.4,5.5,134.4,5.5Zm-.74-2a1.79,1.79,0,0,1-.34,1.62,4.63,4.63,0,0,0-1.18-1.44l.92-1a2.41,2.41,0,0,1,.52.66l.86-1a1.71,1.71,0,0,1,.26,2.48A4.59,4.59,0,0,0,136.44,3.14Zm7,5.52s3.72.06,10.6.26v1.84c-7.58.14-10.6.14-10.6.14ZM160.22,13a13.72,13.72,0,0,0,1.14-4.24h-1.14V6h1.4c.06-.86.06-1.78.06-2.82l2.8.4a20.7,20.7,0,0,1-.16,2.62c3.38,1.12,4.44,6.56,0,8.84,1.06-2.18,1.4-4.88-.66-5.86C162.44,12.66,160.22,13,160.22,13Zm6.62-6.78,1.34-2.46c3.78,2.74,2.24,6,2.24,6A7.27,7.27,0,0,0,166.84,6.22Zm2.28-2.8.92-1a2.5,2.5,0,0,1,.52.66l.86-1a1.68,1.68,0,0,1,.24,2.46,4.52,4.52,0,0,0-1-1.32,1.74,1.74,0,0,1-.36,1.62A4.57,4.57,0,0,0,169.12,3.42Zm6.34,1.16h5.26l.8-.8.8.8v1h-6.86ZM182.18,15h-2.74v-.18h-1a.55.55,0,0,1,0,.18h-2.3c-.22-2.5-.28-4.2-.28-4.2h2.74V11h1v-.2h2.32C182.12,13.3,182.18,15,182.18,15ZM179.92,2.48l.8-.8.8.8v1h-5.26v-1Zm-3.66,5.18v-1h3.66l.8-.8.8.8v1Zm0,1.12h3.66l.8-.8.8.8v1h-5.26Zm3.26,3.2h-.92c0,.48,0,1.1-.08,1.86h.94Zm6.94-10.2c0,.3,0,.9-.06,2.12h.9l0-.16h2.54s0,.38-.12,3.74l.42-.42.8.8v1h-8v-1h1.26c0-1.2-.08-2.18-.12-3h-1.14v-1H184c0-1.18-.08-1.82-.08-2.12h-1V.8h6.4l.8-.8.8.8v1Zm4,14.58H187.7V16.1H186v.26H183.7c-.22-3.7-.28-6.22-.28-6.22h2.74v.24h1.66c0-.08,0-.16,0-.24h2.32C190.36,13.84,190.42,16.36,190.42,16.36Zm-2.62-5h-1.66c0,.84,0,2.1-.08,3.76h1.64C187.72,14.28,187.74,13,187.8,11.36Zm-1.42-6.48c0,.8,0,1.78-.06,3h1.2c-.06-1.4-.12-2.34-.16-3Zm15.5,7.06a1.72,1.72,0,0,0-.06-1.7c-1.24-1.88-4.82-.6-4.82-.6a28,28,0,0,1,.1-5.4h-2.36v-.8H200a22,22,0,0,0-1,4.24s3.46-1.1,5,.54c2.38,2.58-.2,6.78-4.76,6.78-3.48,0-2.88-3.88,0-3.88A5.56,5.56,0,0,1,201.88,11.94Zm-2.7,1.9a2.79,2.79,0,0,0,1.64-.62,2.52,2.52,0,0,0-1.62-.8C198,12.42,197.86,13.84,199.18,13.84Zm-173.47,19c0,1.54-.78,3.14-4.42,3.14a8.77,8.77,0,0,1-3.48-.52l.88-2.84a8.6,8.6,0,0,0,2.6.38c2.12,0,1.94-1.52.64-1.52-2,0-3.18-1.14-3.18-2.64a3.08,3.08,0,0,1,3.4-3,10,10,0,0,1,2.5.34L24.19,28a10.22,10.22,0,0,0-2-.24c-1.48,0-1.34,1.52-.22,1.52A3.43,3.43,0,0,1,25.71,32.86Zm11.08,2.36-.1.78H33c-3.22,0-5.44-.66-5.26-4.36a5.21,5.21,0,0,1,5.38-5h2.48s-.06,2.06-.26,7A1.54,1.54,0,0,0,36.79,35.22ZM33.05,28.5a2.52,2.52,0,0,0-2.66,2.4c0,1.08.8,2.14,2.6,2.24C33,31,33,29.52,33.05,28.5ZM39.89,36c-.6-5.58-.7-12.12-.7-12.12H42s-.14,2.46-.24,5.52c2-1.72,2.82-2.42,2.82-2.42l1.3,1.58s-.8.7-2.84,2.18c2.44,1.86,4,3.14,4,3.14L45.19,36s-1.52-1.3-3.52-3.28c0,1.12,0,2.24,0,3.28ZM53,26.82s-3.14-.1-3.14-2.94h2.8A13.36,13.36,0,0,0,53,26.82Zm-2.8.9H53s0,3.78-.28,8.28H50.23C50.07,32.12,50.15,27.72,50.15,27.72Zm13.12,3.5h2.8c0,2.9.64,4,2.38,4.76C64.71,36.18,63.27,34.82,63.27,31.22Zm4.5-3.7H64.23v-.8h3.34a22.44,22.44,0,0,0-.82-2.48l2.7-.76a20.1,20.1,0,0,1,.5,3.24h.72l.8-.8.78.8v.8H70c.06,4-1.6,5.48-1.6,5.48A22.77,22.77,0,0,0,67.77,27.52ZM89,33.1s-.8,2.9-3.2,2.9c-3.08,0-3-3.34-5.14-3.56C79.13,35.82,76.87,36,76.87,36s2.5-3.42,2.5-12.12h2.8a25,25,0,0,1-.78,6.66,2.53,2.53,0,0,1,2.7.92C86,33.86,86.77,34.7,89,33.1Zm11.44,2.32c1.56-2,.7-5.6-5.62-3.7l-.72-2.26c4-1.38,7.7-1.26,8.64,1.64C103.77,34.2,100.47,35.42,100.47,35.42ZM119.53,25c-2.82,4-6.44,7.66-1.66,11-7.38,0-5.72-5.88-1.8-8.68a27.83,27.83,0,0,1-5.7.76v-2.8C114.93,25.28,119.53,25,119.53,25Zm16.64,9.52s-1,.74-6.64.74c-4.18,0-3.16-4.08-3.16-4.08s.7,1.28,3.16,1.28c5.28,0,6.42-.74,6.42-.74Zm-1.46-7a48.83,48.83,0,0,0-7.06-.44v-2.2a56.43,56.43,0,0,1,7.46.44ZM153,33.1s-.8,2.9-3.2,2.9c-3.08,0-3-3.34-5.14-3.56-1.56,3.38-3.82,3.56-3.82,3.56s2.5-3.42,2.5-12.12h2.8a25,25,0,0,1-.78,6.66,2.53,2.53,0,0,1,2.7.92C150,33.86,150.77,34.7,153,33.1Zm4.06-2a11,11,0,0,0,1.32-4.84h-1.1v-.8h1.16c0-.5,0-1,0-1.62h2.8a13.72,13.72,0,0,1-.08,1.62h2.06l.8-.8.8.8v.8h-3.78C160.27,30.88,157.09,31.14,157.09,31.14Zm8.56-3a28.21,28.21,0,0,1-.16,3.58c.6.16,1.12.3,1.48.42l-.64,2.46c-.4-.2-.88-.42-1.38-.62a3.42,3.42,0,0,1-3.52,2c-3.18,0-2.76-4.46,0-4.72a7.71,7.71,0,0,1,1.36,0c.06-.84.1-1.88.1-3.14Zm-3.14,5a4.93,4.93,0,0,0-1-.16.74.74,0,0,0,0,1.48C161.93,34.5,162.27,34.2,162.51,33.18Zm3.3-5.92,2-2c2.48,2.52,0,5.24,0,5.24A7.28,7.28,0,0,0,165.81,27.26ZM172.93,37s4.52-3,4.52-15.62h2.8C180.25,37.36,172.93,37,172.93,37Zm6.9-7.5a12.48,12.48,0,0,0,6,5.14L184.29,37C178.77,33.4,179.83,29.5,179.83,29.5Z"/></svg>