<svg id="レイヤー_1" data-name="レイヤー 1" xmlns="http://www.w3.org/2000/svg" viewBox="0 0 410.56 16.62"><defs><style>.cls-1{fill:none;stroke:#000;stroke-miterlimit:10;stroke-width:2px;}</style></defs><path d="M0,4.42s3.18,0,9.56.14c0,0,0,4.2-.18,10.12a92.92,92.92,0,0,1-9.38,0V12.14s2.54-.06,7,.16c-.1-2.46-.16-4.62-.2-6-4.46.14-6.8.18-6.8.18Z"/><path d="M17.1,11.36s3.06.42,7.58,1.2l-.16,2.24c-4.16-.26-7.64-.64-7.64-.64Zm7-5.68s-2.56-.24-6.7-.78l0-1.26c4.58.1,6.72.24,6.72.24ZM17.64,9l.08-1.28c4.58.3,6.2.5,6.2.5l-.1,1.82Z"/><path d="M37.72,12.2c0-1.7.08-3.34.12-4.48l-4.38.16V6.16s1.44,0,6.78.12c0,0-.14,2.86-.44,6,.46,0,1,0,1.46,0v1.9c-4.88.24-9,.3-9,.3V12.14S34.38,12.14,37.72,12.2Z"/><path d="M57.74,14.32c-5.4.28-9.92.36-9.92.36v-2.8s4,0,9.92.18Zm-.6-9.78v2.8S53.82,7.26,48.42,7V4.72C54.34,4.54,57.14,4.54,57.14,4.54Z"/><path d="M63.76,6.16H72.2l.8-.78.78.78V7H70.6c-.24,8.14-5.52,8.3-5.52,8.3S67.64,12.92,67.8,7h-4ZM64.34,4V3.2h7l.78-.8.8.8V4Z"/><path d="M80,8.84a9.84,9.84,0,0,0,6.78-4.08l1.88,1.4a8.09,8.09,0,0,1-2.4,2.2c-.1,1.12-.26,3.7-.26,6.9h-1.3c-.34-2.52-.54-4.72-.64-6.06A7.68,7.68,0,0,1,80,8.84Z"/><path d="M100.26,8.78a7.13,7.13,0,0,0-2.68-.64,4.35,4.35,0,0,1,3.1-1.36A22.26,22.26,0,0,0,101,3.14h2.8a22.16,22.16,0,0,1-.34,4.06,12.21,12.21,0,0,1,1.74.74l-1.26,2.5-1.2-.6c-2,5.34-6.3,5.42-6.3,5.42S99,13.54,100.26,8.78Z"/><path d="M114.92,6.86a9,9,0,0,0-3.48-1.08l0-2.08C115.08,3.9,114.92,6.86,114.92,6.86Zm6.2-.38s1.8,5.24-9.06,8.36l-.62-2.72C119.2,10,121.12,6.48,121.12,6.48Z"/><path d="M126.3,14.1s2.88-3.1,2.88-9.6H132C132,13.82,126.3,14.1,126.3,14.1Zm10.88-8.72s.42,3.52.88,8.12l-2.24.32c-.82-4.36-1.42-8.06-1.42-8.06Zm-.74-2A1.79,1.79,0,0,1,136.1,5a4.63,4.63,0,0,0-1.18-1.44l.92-1a2.41,2.41,0,0,1,.52.66l.86-1a1.71,1.71,0,0,1,.26,2.48A4.59,4.59,0,0,0,136.44,3.4Z"/><path d="M143.48,8.92s3.72.06,10.6.26V11c-7.58.14-10.6.14-10.6.14Z"/><path d="M160.22,13.26A13.72,13.72,0,0,0,161.36,9h-1.14V6.22h1.4c.06-.86.06-1.78.06-2.82l2.8.4a20.7,20.7,0,0,1-.16,2.62c3.38,1.12,4.44,6.56,0,8.84,1.06-2.18,1.4-4.88-.66-5.86C162.44,12.92,160.22,13.26,160.22,13.26Zm6.62-6.78L168.18,4c3.78,2.74,2.24,6,2.24,6A7.27,7.27,0,0,0,166.84,6.48Zm2.28-2.8.92-1a2.5,2.5,0,0,1,.52.66l.86-1a1.68,1.68,0,0,1,.24,2.46,4.52,4.52,0,0,0-1-1.32,1.74,1.74,0,0,1-.36,1.62A4.57,4.57,0,0,0,169.12,3.68Z"/><path d="M175.46,4.84h5.26l.8-.8.8.8v1h-6.86Zm6.72,10.42h-2.74v-.18h-1a.55.55,0,0,1,0,.18h-2.3c-.22-2.5-.28-4.2-.28-4.2h2.74v.2h1v-.2h2.32C182.12,13.56,182.18,15.26,182.18,15.26ZM179.92,2.74l.8-.8.8.8v1h-5.26v-1Zm-3.66,5.18v-1h3.66l.8-.8.8.8v1Zm0,1.12h3.66l.8-.8.8.8v1h-5.26Zm3.26,3.2h-.92c0,.48,0,1.1-.08,1.86h.94ZM186.46,2c0,.3,0,.9-.06,2.12h.9l0-.16h2.54s0,.38-.12,3.74l.42-.42.8.8v1h-8v-1h1.26c0-1.2-.08-2.18-.12-3h-1.14v-1H184c0-1.18-.08-1.82-.08-2.12h-1v-1h6.4l.8-.8.8.8V2Zm4,14.58H187.7v-.26H186v.26H183.7c-.22-3.7-.28-6.22-.28-6.22h2.74v.24h1.66c0-.08,0-.16,0-.24h2.32C190.36,14.1,190.42,16.62,190.42,16.62Zm-2.62-5h-1.66c0,.84,0,2.1-.08,3.76h1.64C187.72,14.54,187.74,13.28,187.8,11.62Zm-1.42-6.48c0,.8,0,1.78-.06,3h1.2c-.06-1.4-.12-2.34-.16-3Z"/><path d="M201.88,12.2a1.72,1.72,0,0,0-.06-1.7c-1.24-1.88-4.82-.6-4.82-.6a28,28,0,0,1,.1-5.4h-2.36V3.7H200a22,22,0,0,0-1,4.24s3.46-1.1,5,.54c2.38,2.58-.2,6.78-4.76,6.78-3.48,0-2.88-3.88,0-3.88A5.56,5.56,0,0,1,201.88,12.2Zm-2.7,1.9a2.79,2.79,0,0,0,1.64-.62,2.52,2.52,0,0,0-1.62-.8C198,12.68,197.86,14.1,199.18,14.1Z"/><path d="M213.36,4.44a2.72,2.72,0,0,1,3.12,1.72l-1.8.8A6.85,6.85,0,0,0,213.36,4.44ZM213.5,2a22.54,22.54,0,0,0,7.72-2l1.36,1.88C216.82,4,213.5,2,213.5,2Zm7.76,5.9.8.8v1h-2.78c0,1.58,0,3.88-.1,6.84h-2.06c-.06-1.58-.1-3-.14-4.3-1.1,3.16-3.4,2.7-3.4,2.7a10.63,10.63,0,0,0,1.56-4.82l1.8.24c0-.24,0-.46,0-.66h-2.7v-1h2.68c0-1.1,0-1.72,0-1.72h2.42V8.68h1.16Zm-1.84-2.36-1.8.8a7,7,0,0,0-1.3-2.52A2.7,2.7,0,0,1,219.42,5.52ZM223,13.1l-1.6,1.68a4.9,4.9,0,0,1-1.64-4.72A20.74,20.74,0,0,0,223,13.1ZM226.54.28l2.24,1.66c-2.64,3-5.42,2.66-6.24,2.48a3.07,3.07,0,0,1-2.84,2.06,8.55,8.55,0,0,0,1.16-3.18l1.9.46a2.11,2.11,0,0,1-.1.38A14.33,14.33,0,0,0,226.54.28Zm2.86,11.58c-3.9,4.64-7.82,3.16-7.82,3.16a16,16,0,0,0,5.58-4.82ZM227,5.14l2.26,1.68c-3.14,3.56-6.48,2.4-6.48,2.4A13.5,13.5,0,0,0,227,5.14Z"/><path d="M237.16,3.28h2.36v-.2h2.32c.2,4.34.26,7.3.26,7.3h-2.72v-.2H237.2c-.12.2-.24.36-.34.54h4.46a13.07,13.07,0,0,1-2.1,3,20.91,20.91,0,0,0,3.26.64l-1,2.26a11.11,11.11,0,0,1-3.94-1.5,9.08,9.08,0,0,1-5.74,1.5,16.31,16.31,0,0,0,4.28-2.7,5.63,5.63,0,0,1-1-1.48,3,3,0,0,1-2.82.06,5.69,5.69,0,0,0,2.36-2.08h-2.1c-.2-4.34-.26-7.3-.26-7.3h2.72v.2h.52A3.84,3.84,0,0,0,236,2h-5.16V1h11l.8-.8.8.8V2H238.3A2,2,0,0,1,237.16,3.28Zm2.24,4.94h-4.54c0,.3,0,.64,0,1h4.54C239.38,8.92,239.4,8.6,239.4,8.22Zm0-2H234.9c0,.3,0,.64,0,1h4.54C239.42,6.92,239.42,6.6,239.44,6.24Zm-4.5-2c0,.28,0,.62,0,1h4.54c0-.32,0-.66,0-1ZM236,11.7a4.94,4.94,0,0,1-.54.42,12.91,12.91,0,0,0,1.58.78,9.21,9.21,0,0,0,.94-1.2Z"/><path d="M250.7,10.48h2.8c0,2.9.64,4,2.38,4.76C252.14,15.44,250.7,14.08,250.7,10.48Zm4.5-3.7h-3.54V6H255a22.44,22.44,0,0,0-.82-2.48l2.7-.76a20.1,20.1,0,0,1,.5,3.24h.72l.8-.8.78.8v.8h-2.26c.06,4-1.6,5.48-1.6,5.48A22.77,22.77,0,0,0,255.2,6.78Z"/><path d="M276.46,12.36s-.8,2.9-3.2,2.9c-3.08,0-3-3.34-5.14-3.56-1.56,3.38-3.82,3.56-3.82,3.56s2.5-3.42,2.5-12.12h2.8a25,25,0,0,1-.78,6.66,2.53,2.53,0,0,1,2.7.92C273.4,13.12,274.2,14,276.46,12.36Z"/><path d="M287.9,14.68c1.56-2,.7-5.6-5.62-3.7l-.72-2.26c4-1.38,7.7-1.26,8.64,1.64C291.2,13.46,287.9,14.68,287.9,14.68Z"/><path d="M307,4.3c-2.82,4-6.44,7.66-1.66,11-7.38,0-5.72-5.88-1.8-8.68a27.83,27.83,0,0,1-5.7.76V4.54C302.36,4.54,307,4.3,307,4.3Z"/><path d="M323.6,13.82s-1,.74-6.64.74c-4.18,0-3.16-4.08-3.16-4.08s.7,1.28,3.16,1.28c5.28,0,6.42-.74,6.42-.74Zm-1.46-7a48.83,48.83,0,0,0-7.06-.44V4.14a56.43,56.43,0,0,1,7.46.44Z"/><path d="M340.46,12.36s-.8,2.9-3.2,2.9c-3.08,0-3-3.34-5.14-3.56-1.56,3.38-3.82,3.56-3.82,3.56s2.5-3.42,2.5-12.12h2.8a25,25,0,0,1-.78,6.66,2.53,2.53,0,0,1,2.7.92C337.4,13.12,338.2,14,340.46,12.36Z"/><path d="M344.52,10.4a11,11,0,0,0,1.32-4.84h-1.1v-.8h1.16c0-.5,0-1,0-1.62h2.8a13.72,13.72,0,0,1-.08,1.62h2.06l.8-.8.8.8v.8h-3.78C347.7,10.14,344.52,10.4,344.52,10.4Zm8.56-3a28.21,28.21,0,0,1-.16,3.58c.6.16,1.12.3,1.48.42l-.64,2.46c-.4-.2-.88-.42-1.38-.62a3.42,3.42,0,0,1-3.52,2c-3.18,0-2.76-4.46,0-4.72a7.71,7.71,0,0,1,1.36,0c.06-.84.1-1.88.1-3.14Zm-3.14,5a4.93,4.93,0,0,0-1-.16.74.74,0,0,0,0,1.48C349.36,13.76,349.7,13.46,349.94,12.44Zm3.3-5.92,2-2c2.48,2.52,0,5.24,0,5.24A7.28,7.28,0,0,0,353.24,6.52Z"/><path d="M360.36,16.26s4.52-3,4.52-15.62h2.8C367.68,16.62,360.36,16.26,360.36,16.26Zm6.9-7.5a12.48,12.48,0,0,0,6,5.14l-1.5,2.36C366.2,12.66,367.26,8.76,367.26,8.76Z"/><polyline class="cls-1" points="390.17 2.77 396.5 9.27 390.17 15.77"/><polyline class="cls-1" points="396.5 2.77 402.83 9.27 396.5 15.77"/><polyline class="cls-1" points="402.83 2.77 409.17 9.27 402.83 15.77"/></svg>