<svg id="レイヤー_1" data-name="レイヤー 1" xmlns="http://www.w3.org/2000/svg" viewBox="0 0 204.85 37.46"><path d="M0,4.16s3.18,0,9.56.14c0,0,0,4.2-.18,10.12a92.92,92.92,0,0,1-9.38,0V11.88s2.54-.06,7,.16c-.1-2.46-.16-4.62-.2-6C2.34,6.16,0,6.2,0,6.2ZM17.1,11.1s3.06.42,7.58,1.2l-.16,2.24c-4.16-.26-7.64-.64-7.64-.64Zm7-5.68s-2.56-.24-6.7-.78l0-1.26c4.58.1,6.72.24,6.72.24ZM17.64,8.78l.08-1.28c4.58.3,6.2.5,6.2.5l-.1,1.82Zm20.08,3.16c0-1.7.08-3.34.12-4.48l-4.38.16V5.9s1.44,0,6.78.12c0,0-.14,2.86-.44,6,.46,0,1,0,1.46,0v1.9c-4.88.24-9,.3-9,.3V11.88S34.38,11.88,37.72,11.94Zm20,2.12c-5.4.28-9.92.36-9.92.36v-2.8s4,0,9.92.18Zm-.6-9.78v2.8S53.82,7,48.42,6.72V4.46C54.34,4.28,57.14,4.28,57.14,4.28ZM63.76,5.9H72.2l.8-.78.78.78v.8H70.6c-.24,8.14-5.52,8.3-5.52,8.3s2.56-2.34,2.72-8.3h-4Zm.58-2.16v-.8h7l.78-.8.8.8v.8ZM80,8.58A9.84,9.84,0,0,0,86.82,4.5L88.7,5.9a8.09,8.09,0,0,1-2.4,2.2C86.2,9.22,86,11.8,86,15h-1.3c-.34-2.52-.54-4.72-.64-6.06A7.68,7.68,0,0,1,80,8.58Zm20.22-.06a7.13,7.13,0,0,0-2.68-.64,4.35,4.35,0,0,1,3.1-1.36A22.26,22.26,0,0,0,101,2.88h2.8a22.16,22.16,0,0,1-.34,4.06,12.21,12.21,0,0,1,1.74.74l-1.26,2.5-1.2-.6c-2,5.34-6.3,5.42-6.3,5.42S99,13.28,100.26,8.52ZM114.92,6.6a9,9,0,0,0-3.48-1.08l0-2.08C115.08,3.64,114.92,6.6,114.92,6.6Zm6.2-.38s1.8,5.24-9.06,8.36l-.62-2.72C119.2,9.72,121.12,6.22,121.12,6.22Zm5.18,7.62s2.88-3.1,2.88-9.6H132C132,13.56,126.3,13.84,126.3,13.84Zm10.88-8.72s.42,3.52.88,8.12l-2.24.32C135,9.2,134.4,5.5,134.4,5.5Zm-.74-2a1.79,1.79,0,0,1-.34,1.62,4.63,4.63,0,0,0-1.18-1.44l.92-1a2.41,2.41,0,0,1,.52.66l.86-1a1.71,1.71,0,0,1,.26,2.48A4.59,4.59,0,0,0,136.44,3.14Zm7,5.52s3.72.06,10.6.26v1.84c-7.58.14-10.6.14-10.6.14ZM160.22,13a13.72,13.72,0,0,0,1.14-4.24h-1.14V6h1.4c.06-.86.06-1.78.06-2.82l2.8.4a20.7,20.7,0,0,1-.16,2.62c3.38,1.12,4.44,6.56,0,8.84,1.06-2.18,1.4-4.88-.66-5.86C162.44,12.66,160.22,13,160.22,13Zm6.62-6.78,1.34-2.46c3.78,2.74,2.24,6,2.24,6A7.27,7.27,0,0,0,166.84,6.22Zm2.28-2.8.92-1a2.5,2.5,0,0,1,.52.66l.86-1a1.68,1.68,0,0,1,.24,2.46,4.52,4.52,0,0,0-1-1.32,1.74,1.74,0,0,1-.36,1.62A4.57,4.57,0,0,0,169.12,3.42Zm6.34,1.16h5.26l.8-.8.8.8v1h-6.86ZM182.18,15h-2.74v-.18h-1a.55.55,0,0,1,0,.18h-2.3c-.22-2.5-.28-4.2-.28-4.2h2.74V11h1v-.2h2.32C182.12,13.3,182.18,15,182.18,15ZM179.92,2.48l.8-.8.8.8v1h-5.26v-1Zm-3.66,5.18v-1h3.66l.8-.8.8.8v1Zm0,1.12h3.66l.8-.8.8.8v1h-5.26Zm3.26,3.2h-.92c0,.48,0,1.1-.08,1.86h.94Zm6.94-10.2c0,.3,0,.9-.06,2.12h.9l0-.16h2.54s0,.38-.12,3.74l.42-.42.8.8v1h-8v-1h1.26c0-1.2-.08-2.18-.12-3h-1.14v-1H184c0-1.18-.08-1.82-.08-2.12h-1V.8h6.4l.8-.8.8.8v1Zm4,14.58H187.7V16.1H186v.26H183.7c-.22-3.7-.28-6.22-.28-6.22h2.74v.24h1.66c0-.08,0-.16,0-.24h2.32C190.36,13.84,190.42,16.36,190.42,16.36Zm-2.62-5h-1.66c0,.84,0,2.1-.08,3.76h1.64C187.72,14.28,187.74,13,187.8,11.36Zm-1.42-6.48c0,.8,0,1.78-.06,3h1.2c-.06-1.4-.12-2.34-.16-3Zm15.5,7.06a1.72,1.72,0,0,0-.06-1.7c-1.24-1.88-4.82-.6-4.82-.6a28,28,0,0,1,.1-5.4h-2.36v-.8H200a22,22,0,0,0-1,4.24s3.46-1.1,5,.54c2.38,2.58-.2,6.78-4.76,6.78-3.48,0-2.88-3.88,0-3.88A5.56,5.56,0,0,1,201.88,11.94Zm-2.7,1.9a2.79,2.79,0,0,0,1.64-.62,2.52,2.52,0,0,0-1.62-.8C198,12.42,197.86,13.84,199.18,13.84ZM26.62,20.68l2.94.86c-.12.62-.26,1.22-.42,1.76h4.92l.8-.8.78.8v1H28.82a13,13,0,0,1-.92,2.1h1.9v.28h3.76v-.28h2.32c.2,6.42.26,10.8.26,10.8-2.42.22-4.46.28-4.46.28v-2.2s.58,0,1.74,0c0-.42,0-.9,0-1.46H29.72c0,1,0,2.12-.08,3.34h-2.3c-.16-4.38-.22-7.82-.26-9.56a7.15,7.15,0,0,1-4.48,3s1.82-1.86,3.18-6.34H22.72v-1h3.34C26.26,22.5,26.46,21.64,26.62,20.68Zm3.1,12.18h3.74c0-.64,0-1.34,0-2.12H29.76C29.74,31.38,29.74,32.08,29.72,32.86Zm0-3.1H33.5c0-.66,0-1.36,0-2.12H29.78C29.78,28.18,29.78,28.88,29.76,29.76ZM40.84,31.6l1.46.28c0-.3,0-.54,0-.76l-1.54.32-.38-2.16,1.24-.12c.18-.26.38-.6.6-1a14.87,14.87,0,0,0-2.34-1.74l1.3-1.58.36.34a15,15,0,0,0,1.1-2.52l2.26.94a7.76,7.76,0,0,1-2.42,2.68,4.83,4.83,0,0,1,.42.74c.26-.44.52-.92.8-1.46l2.1,1.26a12.35,12.35,0,0,1-1.94,2.06l.9-.12a3,3,0,0,0,0-.42l1.6,0c.34,1.7.52,2.88.52,2.88l-1.88.08s0-.24-.08-.72l-.32.08c0,.28,0,.7,0,1.32A3.65,3.65,0,0,1,47,34.2l-2,1a17.11,17.11,0,0,0-.6-2.12c0,.88,0,2-.08,3.48H42.48c0-1.06-.08-2-.1-2.7a3.84,3.84,0,0,1-2.76,1.64A9.74,9.74,0,0,0,40.84,31.6ZM47,22.18h3.86V22.1h2.34s0,.66-.16,6.82h-1.9a.3.3,0,0,1,0-.14H49.9c0,.92,0,2.6-.08,5.58.84-.06,1.56-.08,2.12-.12.16-.74.24-1.2.24-1.2l2.18.56s-.3,1.16-1,3.32c0,0-1.9,0-5.52-.14-.2-7.48-.26-9.1-.26-9.1h2.32v.12h1.14c-.08-2.36-.14-3.78-.18-4.64H47Zm11.32,9h2.8c0,2.9.64,4,2.38,4.76C59.74,36.18,58.3,34.82,58.3,31.22Zm4.5-3.7H59.26v-.8H62.6a22.44,22.44,0,0,0-.82-2.48l2.7-.76a20.1,20.1,0,0,1,.5,3.24h.72l.8-.8.78.8v.8H65c.06,4-1.6,5.48-1.6,5.48A22.77,22.77,0,0,0,62.8,27.52ZM84.06,33.1s-.8,2.9-3.2,2.9c-3.08,0-3-3.34-5.14-3.56C74.16,35.82,71.9,36,71.9,36s2.5-3.42,2.5-12.12h2.8a25,25,0,0,1-.78,6.66,2.53,2.53,0,0,1,2.7.92C81,33.86,81.8,34.7,84.06,33.1ZM95.5,35.42c1.56-2,.7-5.6-5.62-3.7l-.72-2.26c4-1.38,7.7-1.26,8.64,1.64C98.8,34.2,95.5,35.42,95.5,35.42ZM114.56,25c-2.82,4-6.44,7.66-1.66,11-7.38,0-5.72-5.88-1.8-8.68a27.83,27.83,0,0,1-5.7.76v-2.8C110,25.28,114.56,25,114.56,25Zm16.64,9.52s-1,.74-6.64.74c-4.18,0-3.16-4.08-3.16-4.08s.7,1.28,3.16,1.28c5.28,0,6.42-.74,6.42-.74Zm-1.46-7a48.83,48.83,0,0,0-7.06-.44v-2.2a56.43,56.43,0,0,1,7.46.44Zm18.32,5.58s-.8,2.9-3.2,2.9c-3.08,0-3-3.34-5.14-3.56C138.16,35.82,135.9,36,135.9,36s2.5-3.42,2.5-12.12h2.8a25,25,0,0,1-.78,6.66,2.53,2.53,0,0,1,2.7.92C145,33.86,145.8,34.7,148.06,33.1Zm4.06-2a11,11,0,0,0,1.32-4.84h-1.1v-.8h1.16c0-.5,0-1,0-1.62h2.8a13.72,13.72,0,0,1-.08,1.62h2.06l.8-.8.8.8v.8h-3.78C155.3,30.88,152.12,31.14,152.12,31.14Zm8.56-3a28.21,28.21,0,0,1-.16,3.58c.6.16,1.12.3,1.48.42l-.64,2.46c-.4-.2-.88-.42-1.38-.62a3.42,3.42,0,0,1-3.52,2c-3.18,0-2.76-4.46,0-4.72a7.71,7.71,0,0,1,1.36,0c.06-.84.1-1.88.1-3.14Zm-3.14,5a4.93,4.93,0,0,0-1-.16.74.74,0,0,0,0,1.48C157,34.5,157.3,34.2,157.54,33.18Zm3.3-5.92,2-2c2.48,2.52,0,5.24,0,5.24A7.28,7.28,0,0,0,160.84,27.26ZM168,37s4.52-3,4.52-15.62h2.8C175.28,37.36,168,37,168,37Zm6.9-7.5a12.48,12.48,0,0,0,6,5.14L179.32,37C173.8,33.4,174.86,29.5,174.86,29.5Z"/></svg>