<svg id="レイヤー_1" data-name="レイヤー 1" xmlns="http://www.w3.org/2000/svg" viewBox="0 0 204.85 37"><path d="M0,4.16s3.18,0,9.56.14c0,0,0,4.2-.18,10.12a92.92,92.92,0,0,1-9.38,0V11.88s2.54-.06,7,.16c-.1-2.46-.16-4.62-.2-6C2.34,6.16,0,6.2,0,6.2ZM17.1,11.1s3.06.42,7.58,1.2l-.16,2.24c-4.16-.26-7.64-.64-7.64-.64Zm7-5.68s-2.56-.24-6.7-.78l0-1.26c4.58.1,6.72.24,6.72.24ZM17.64,8.78l.08-1.28c4.58.3,6.2.5,6.2.5l-.1,1.82Zm20.08,3.16c0-1.7.08-3.34.12-4.48l-4.38.16V5.9s1.44,0,6.78.12c0,0-.14,2.86-.44,6,.46,0,1,0,1.46,0v1.9c-4.88.24-9,.3-9,.3V11.88S34.38,11.88,37.72,11.94Zm20,2.12c-5.4.28-9.92.36-9.92.36v-2.8s4,0,9.92.18Zm-.6-9.78v2.8S53.82,7,48.42,6.72V4.46C54.34,4.28,57.14,4.28,57.14,4.28ZM63.76,5.9H72.2l.8-.78.78.78v.8H70.6c-.24,8.14-5.52,8.3-5.52,8.3s2.56-2.34,2.72-8.3h-4Zm.58-2.16v-.8h7l.78-.8.8.8v.8ZM80,8.58A9.84,9.84,0,0,0,86.82,4.5L88.7,5.9a8.09,8.09,0,0,1-2.4,2.2C86.2,9.22,86,11.8,86,15h-1.3c-.34-2.52-.54-4.72-.64-6.06A7.68,7.68,0,0,1,80,8.58Zm20.22-.06a7.13,7.13,0,0,0-2.68-.64,4.35,4.35,0,0,1,3.1-1.36A22.26,22.26,0,0,0,101,2.88h2.8a22.16,22.16,0,0,1-.34,4.06,12.21,12.21,0,0,1,1.74.74l-1.26,2.5-1.2-.6c-2,5.34-6.3,5.42-6.3,5.42S99,13.28,100.26,8.52ZM114.92,6.6a9,9,0,0,0-3.48-1.08l0-2.08C115.08,3.64,114.92,6.6,114.92,6.6Zm6.2-.38s1.8,5.24-9.06,8.36l-.62-2.72C119.2,9.72,121.12,6.22,121.12,6.22Zm5.18,7.62s2.88-3.1,2.88-9.6H132C132,13.56,126.3,13.84,126.3,13.84Zm10.88-8.72s.42,3.52.88,8.12l-2.24.32C135,9.2,134.4,5.5,134.4,5.5Zm-.74-2a1.79,1.79,0,0,1-.34,1.62,4.63,4.63,0,0,0-1.18-1.44l.92-1a2.41,2.41,0,0,1,.52.66l.86-1a1.71,1.71,0,0,1,.26,2.48A4.59,4.59,0,0,0,136.44,3.14Zm7,5.52s3.72.06,10.6.26v1.84c-7.58.14-10.6.14-10.6.14ZM160.22,13a13.72,13.72,0,0,0,1.14-4.24h-1.14V6h1.4c.06-.86.06-1.78.06-2.82l2.8.4a20.7,20.7,0,0,1-.16,2.62c3.38,1.12,4.44,6.56,0,8.84,1.06-2.18,1.4-4.88-.66-5.86C162.44,12.66,160.22,13,160.22,13Zm6.62-6.78,1.34-2.46c3.78,2.74,2.24,6,2.24,6A7.27,7.27,0,0,0,166.84,6.22Zm2.28-2.8.92-1a2.5,2.5,0,0,1,.52.66l.86-1a1.68,1.68,0,0,1,.24,2.46,4.52,4.52,0,0,0-1-1.32,1.74,1.74,0,0,1-.36,1.62A4.57,4.57,0,0,0,169.12,3.42Zm6.34,1.16h5.26l.8-.8.8.8v1h-6.86ZM182.18,15h-2.74v-.18h-1a.55.55,0,0,1,0,.18h-2.3c-.22-2.5-.28-4.2-.28-4.2h2.74V11h1v-.2h2.32C182.12,13.3,182.18,15,182.18,15ZM179.92,2.48l.8-.8.8.8v1h-5.26v-1Zm-3.66,5.18v-1h3.66l.8-.8.8.8v1Zm0,1.12h3.66l.8-.8.8.8v1h-5.26Zm3.26,3.2h-.92c0,.48,0,1.1-.08,1.86h.94Zm6.94-10.2c0,.3,0,.9-.06,2.12h.9l0-.16h2.54s0,.38-.12,3.74l.42-.42.8.8v1h-8v-1h1.26c0-1.2-.08-2.18-.12-3h-1.14v-1H184c0-1.18-.08-1.82-.08-2.12h-1V.8h6.4l.8-.8.8.8v1Zm4,14.58H187.7V16.1H186v.26H183.7c-.22-3.7-.28-6.22-.28-6.22h2.74v.24h1.66c0-.08,0-.16,0-.24h2.32C190.36,13.84,190.42,16.36,190.42,16.36Zm-2.62-5h-1.66c0,.84,0,2.1-.08,3.76h1.64C187.72,14.28,187.74,13,187.8,11.36Zm-1.42-6.48c0,.8,0,1.78-.06,3h1.2c-.06-1.4-.12-2.34-.16-3Zm15.5,7.06a1.72,1.72,0,0,0-.06-1.7c-1.24-1.88-4.82-.6-4.82-.6a28,28,0,0,1,.1-5.4h-2.36v-.8H200a22,22,0,0,0-1,4.24s3.46-1.1,5,.54c2.38,2.58-.2,6.78-4.76,6.78-3.48,0-2.88-3.88,0-3.88A5.56,5.56,0,0,1,201.88,11.94Zm-2.7,1.9a2.79,2.79,0,0,0,1.64-.62,2.52,2.52,0,0,0-1.62-.8C198,12.42,197.86,13.84,199.18,13.84ZM35,29.56a17.13,17.13,0,0,1,1.74.48l-.52,2.74s-.7-.2-1.74-.46c-1,3.5-2.94,3.68-2.94,3.68a26.64,26.64,0,0,0,.64-4.14,20.2,20.2,0,0,0-2.44-.26C29.16,34.76,28.1,36,26.82,36A2.53,2.53,0,0,1,24,33.48a4.42,4.42,0,0,1,3.4-4.16c0-1,0-2.3,0-3.82h-2v-.8h4.8c0,1.6,0,3-.14,4.24h.48c.6,0,1.2.08,1.76.14V27.72L35.1,28C35.08,28.54,35,29.06,35,29.56Zm-7.7,2.26c-1.52.54-1.74,1.86-.9,1.86C26.9,33.68,27.16,33.24,27.3,31.82Zm17.84,3.36s-4.66.24-4-9.06l2.78.34C43.28,32.48,45.14,35.18,45.14,35.18Zm7.4-2.4-2.76.46a11.27,11.27,0,0,0-2.14-5.16S50.86,27.44,52.54,32.78Zm5.36-1.56h2.8c0,2.9.64,4,2.38,4.76C59.34,36.18,57.9,34.82,57.9,31.22Zm4.5-3.7H58.86v-.8H62.2a22.44,22.44,0,0,0-.82-2.48l2.7-.76a20.1,20.1,0,0,1,.5,3.24h.72l.8-.8.78.8v.8H64.62C64.68,31.54,63,33,63,33A22.77,22.77,0,0,0,62.4,27.52ZM83.66,33.1s-.8,2.9-3.2,2.9c-3.08,0-3-3.34-5.14-3.56C73.76,35.82,71.5,36,71.5,36S74,32.58,74,23.88h2.8A25,25,0,0,1,76,30.54a2.53,2.53,0,0,1,2.7.92C80.6,33.86,81.4,34.7,83.66,33.1ZM95.1,35.42c1.56-2,.7-5.6-5.62-3.7l-.72-2.26c4-1.38,7.7-1.26,8.64,1.64C98.4,34.2,95.1,35.42,95.1,35.42ZM114.16,25c-2.82,4-6.44,7.66-1.66,11-7.38,0-5.72-5.88-1.8-8.68a27.83,27.83,0,0,1-5.7.76v-2.8C109.56,25.28,114.16,25,114.16,25Zm16.64,9.52s-1,.74-6.64.74c-4.18,0-3.16-4.08-3.16-4.08s.7,1.28,3.16,1.28c5.28,0,6.42-.74,6.42-.74Zm-1.46-7a48.83,48.83,0,0,0-7.06-.44v-2.2a56.43,56.43,0,0,1,7.46.44Zm18.32,5.58s-.8,2.9-3.2,2.9c-3.08,0-3-3.34-5.14-3.56C137.76,35.82,135.5,36,135.5,36s2.5-3.42,2.5-12.12h2.8a25,25,0,0,1-.78,6.66,2.53,2.53,0,0,1,2.7.92C144.6,33.86,145.4,34.7,147.66,33.1Zm4.06-2A11,11,0,0,0,153,26.3h-1.1v-.8h1.16c0-.5,0-1,0-1.62h2.8a13.72,13.72,0,0,1-.08,1.62h2.06l.8-.8.8.8v.8h-3.78C154.9,30.88,151.72,31.14,151.72,31.14Zm8.56-3a28.21,28.21,0,0,1-.16,3.58c.6.16,1.12.3,1.48.42L161,34.6c-.4-.2-.88-.42-1.38-.62a3.42,3.42,0,0,1-3.52,2c-3.18,0-2.76-4.46,0-4.72a7.71,7.71,0,0,1,1.36,0c.06-.84.1-1.88.1-3.14Zm-3.14,5a4.93,4.93,0,0,0-1-.16.74.74,0,0,0,0,1.48C156.56,34.5,156.9,34.2,157.14,33.18Zm3.3-5.92,2-2c2.48,2.52,0,5.24,0,5.24A7.28,7.28,0,0,0,160.44,27.26ZM167.56,37s4.52-3,4.52-15.62h2.8C174.88,37.36,167.56,37,167.56,37Zm6.9-7.5a12.48,12.48,0,0,0,6,5.14L178.92,37C173.4,33.4,174.46,29.5,174.46,29.5Z"/></svg>