<svg id="レイヤー_1" data-name="レイヤー 1" xmlns="http://www.w3.org/2000/svg" viewBox="0 0 241.36 65.98"><defs><style>.cls-1{fill:#f0908a;}</style></defs><path class="cls-1" d="M80.47,4.55s-2.49,0-5.6-.14c-.14,6.55-.42,20-.42,26.6l-2.56.18c-.87-9.77-1-30.88-1-30.88C76.3,0,80.47,0,80.47,0Zm4.58,25.59s1.86-6.16,1.51-22H91v.45h1V8.16h4.41s0,1.5-.25,21.35C92.82,29.89,90,30,90,30V26.15s.77,0,2.38.07l-.1-4.69H89.81C88.06,29.33,85.05,30.14,85.05,30.14Zm5.08-10.33h2.13c0-1.47,0-2.73-.07-3.88H90.65C90.51,17.36,90.34,18.66,90.13,19.81Zm.66-5.6h1.37c0-1.71-.07-3-.11-3.88H91C90.93,11.73,90.9,13,90.79,14.21Zm9.52-3.32a19.59,19.59,0,0,0-3.11-5.5s3.64-.94,6.75,4Zm9.52,1.85h4.1s0,1.75-.25,18.13h-3.36c0-.38,0-.77,0-1.15h-9c0,.38,0,.77,0,1.15H97.9c-.35-14.91-.46-18.13-.46-18.13h4.06s0,1.54-.21,15.26h9C109.94,15.54,109.83,12.74,109.83,12.74Zm0,.84a26.33,26.33,0,0,1-2.13,5.18,16.52,16.52,0,0,1,2.13,2.52l-2.76,2A17,17,0,0,0,106,21.32,10.27,10.27,0,0,1,101.36,25a29.31,29.31,0,0,0,3.19-5.64,24.27,24.27,0,0,0-3-3.29,7.87,7.87,0,0,1,3.89,1.12,42.32,42.32,0,0,0,1.68-5.84ZM108.5,8.47l-3.74,1.3A19.1,19.1,0,0,0,102,4.1S105.74,3.36,108.5,8.47Zm2.7-5.39,3.85,1c-2.07,6.05-7.35,6.16-7.35,6.16A17.27,17.27,0,0,0,111.2,3.08ZM127.89,28.6H124c-.49-9.45-.63-21.21-.63-21.21h4.9S128.24,18.2,127.89,28.6Zm7.46-7c-6.2,0-6.51-6.44-6.51-6.44a12.91,12.91,0,0,0,6.51,1.54Zm23.73-3.25s-.7,7.59-9.8,10.29h-4c-.49-9.45-.63-20.58-.63-20.58h4.9s0,7.21-.17,15.68A15.52,15.52,0,0,0,159.08,18.31Zm18.44,12.88c-5.39.31-9.55.31-9.55.31V27s2.48,0,5.6.1c.14-6.54.42-20,.42-26.6l2.55-.18C177.42,10.12,177.52,31.19,177.52,31.19ZM19.36,60.45v4.9c-8.12,0-12-1.86-13.76-3.33a8.84,8.84,0,0,1-4.34,2.8,15.72,15.72,0,0,0,2.52-7.66,8.84,8.84,0,0,1-2.41,1.43,17,17,0,0,0,1.08-5H0V51.84H6.34A6.55,6.55,0,0,1,4.27,56.7H7.35a8.46,8.46,0,0,1-.91,4A40.92,40.92,0,0,0,19.36,60.45Zm-12.29-12-2.62,2.2A19.23,19.23,0,0,0,1,46.27,6.07,6.07,0,0,1,7.07,48.48Zm11.52-4c0,.63,0,1.33,0,2.13h1.16a2.43,2.43,0,0,1,0-.45h4c.38,5.95.49,10,.49,10h-4.8a3.6,3.6,0,0,1,0-.46H18.41c0,.67,0,1.37,0,2.07h3.08l1.4-1.4,1.4,1.4V59.5H18.34v.81H14.28c0-.28,0-.53,0-.81H8.12V57.79h6.09c0-.7-.07-1.4-.07-2.07H12.67v.46H8.61c-.38-6-.49-10-.49-10h4.8v.45h1c0-.8,0-1.5,0-2.13h-4V42.84H6.34c-.35-3.74-.46-4.55-.46-4.55h4.41v.56h12a3.26,3.26,0,0,0,0-.56H26c.39,3.75.49,4.55.49,4.55h-4v1.65Zm0-3.12v1.4h1.12l1.4-1.4,1,1c0-.35,0-.88.11-1.82h-12c0,.59-.07,1.29-.14,2.2h3.78c0-.91,0-1.4,0-1.4ZM14.11,54c0-.67-.07-1.33-.07-2H12.81c0,.63,0,1.3-.07,2ZM12.85,50.3H14c0-.7,0-1.33-.07-2h-1C12.88,48.9,12.88,49.56,12.85,50.3ZM19.53,52H18.48c0,.67,0,1.3,0,2H19.5C19.5,53.45,19.53,52.78,19.53,52Zm-1-3.67v2H19.6c0-.6,0-1.26,0-2Zm34.19,8c.39,5.74.49,9.66.49,9.66H48.41v-.42H41.06V66H37c-.35-5.74-.46-9.66-.46-9.66H41.3v.35h0a17.77,17.77,0,0,0,1.71-3H41.79a2.17,2.17,0,0,0,0,.46H37.7c-.21-2.59-.32-4.73-.39-6.09H34.06c-.39-5-.49-6.09-.49-6.09h3.29a11.73,11.73,0,0,0-2.31-3.64s3.18-2.21,6.54,3.43l-1.4.7h4.73a11.45,11.45,0,0,0-2.56-4.13s3.22-2.21,6.55,3.43l-1.4.7h3.43a20,20,0,0,0,2.24-5.11l3.85,1A5.84,5.84,0,0,1,54,42h2.17c.39,5,.49,6.09.49,6.09H52.19s0-.42.17-3.89H37.91c0,.6,0,1.33-.11,2.24H42v.46h6v-.46H52c.39,4.59.49,7.74.49,7.74H47.71v-.46h-.46a5.31,5.31,0,0,1-3.08,3h4.48v-.35Zm-4.27,7.52.14-5.46H41.3c0,1.26-.07,3.08-.17,5.46ZM41.86,52h5.88l.11-3.4H42C42,49.46,41.9,50.58,41.86,52Zm23.52,12.6c-.38-13.86-.49-23.31-.49-23.31h4.45v.42h5.77V40.25h4.62c0-1.89,0-2.9,0-2.9h4.09s0,1,0,2.9h1.82l1.4-1.4,1.36,1.4V42H83.76v2.9h1.12v-.35h3c.38,7.7.45,12.95.45,12.95H84.63V57h-1c0,.84,0,1.64,0,2.52h2l1.4-1.4,1.36,1.4v1.71H83.58c0,1.47,0,3-.07,4.66H80.19l-.11-4.66h-5V59.54h4.94c0-.88,0-1.68,0-2.52h-1.4v.45h-3c-.28-5.81-.42-10.25-.45-12a9.24,9.24,0,0,1-3.43,5c4.13,3.29,5.81,9.14-2,10.71l-.49-2.9-.11,6.37Zm3.82-7.91c3.36-1.19,1.19-3.47.07-4.45C69.23,53.59,69.23,55.06,69.2,56.67Zm.07-5.88a20.42,20.42,0,0,0,2.17-7.39h-2.1C69.34,45,69.3,47.46,69.27,50.79Zm6.09-6.27h3.5v.35h.94c0-1.08,0-2,0-2.9h-4.1A13.79,13.79,0,0,1,75.36,44.52Zm4.55,7.28H78.75l-.1,3.5H80C79.94,54.11,79.91,52.92,79.91,51.8Zm-.11-5.21h-1c0,.87,0,2.06,0,3.5h1.08C79.84,48.86,79.84,47.67,79.8,46.59Zm3.85,8.71h1c0-.87,0-2.06.07-3.5h-1C83.69,52.92,83.65,54.08,83.65,55.3Zm.07-5.21h1c0-1.05,0-2.21.07-3.5H83.72Zm13.44-6.86s3.75,0,14.91.24C112.07,63,99.23,63.6,99.23,63.6s6.89-4.06,7.84-17.12c-7.28.28-9.91.35-9.91.35Zm17.08-3.12a2.59,2.59,0,1,1-2.59-2.59A2.58,2.58,0,0,1,114.24,40.11Zm-1.4,0a1.19,1.19,0,0,0-2.38,0,1.19,1.19,0,1,0,2.38,0Zm9.84,4.52s5.91,0,17.08.24c0,0,0,7.35-.32,17.71-9.45.49-16.17.14-16.17.14C122.78,53.24,122.68,44.63,122.68,44.63Zm4.69,13.58c2,0,4.62.14,7.94.24-.21-4.3-.31-8.12-.38-10.57-3.08.07-5.53.14-7.39.21C127.54,50.23,127.47,53.69,127.37,58.21Zm37.2-14.74c0,19.57-12.88,20.13-12.88,20.13s6.9-4.06,7.84-17.12c-7.24.28-9.87.35-9.87.35v-3.6S153.41,43.23,164.57,43.47Zm6.65,8.89a17.23,17.23,0,0,0,11.87-7.14l3.29,2.45a14.16,14.16,0,0,1-4.2,3.85c-.18,2-.46,6.48-.46,12.08h-2.27c-.6-4.41-.95-8.26-1.12-10.61A13.41,13.41,0,0,1,171.22,52.36Zm22.12.14s6.51.11,18.55.46v3.22c-13.26.24-18.55.24-18.55.24Zm29.33-4.41h4.9c0,15.51-7.7,15.51-7.7,15.51S222.67,60.17,222.67,48.09Zm11.8,10.57a15.34,15.34,0,0,0,6.89-3.43s-.28,7.25-7,8.37h-4c-.49-9.45-.63-20.58-.63-20.58h4.9S234.68,50.23,234.47,58.66Z"/></svg>