<svg id="レイヤー_1" data-name="レイヤー 1" xmlns="http://www.w3.org/2000/svg" viewBox="0 0 494.4 43.2"><defs><style>.cls-1{fill:#f0908a;}</style></defs><path class="cls-1" d="M13.11,6.24s-3.41,0-7.69-.19c-.19,9-.57,27.46-.57,36.48l-3.51.24C.14,29.38,0,.43,0,.43,7.39,0,13.11,0,13.11,0Zm6.28,35.09s2.54-8.45,2.06-30.14h6.1v.62h1.39v-.62H35s0,2.06-.33,29.28c-4.61.53-8.45.67-8.45.67V35.86s1.05,0,3.26.1l-.14-6.44H25.92C23.52,40.23,19.39,41.33,19.39,41.33Zm7-14.16h2.93c0-2-.05-3.74-.1-5.33H27.07Q26.78,24.8,26.35,27.17Zm.91-7.68h1.88c-.05-2.35-.1-4.08-.15-5.33H27.5C27.46,16.08,27.41,17.86,27.26,19.49Zm13.06-4.56a26.83,26.83,0,0,0-4.27-7.54s5-1.29,9.26,5.43Zm13.06,2.54H59s0,2.4-.33,24.87H54.05c0-.53,0-1.06,0-1.58H41.66c0,.52,0,1.05,0,1.58H37c-.48-20.45-.63-24.87-.63-24.87H42s0,2.12-.29,20.93H54C53.52,21.31,53.38,17.47,53.38,17.47Zm0,1.16a36.79,36.79,0,0,1-2.93,7.1,21.62,21.62,0,0,1,2.93,3.46l-3.8,2.69a24.14,24.14,0,0,0-1.48-2.65c-3.27,4.13-6.34,5-6.34,5a39.61,39.61,0,0,0,4.37-7.73A32.83,32.83,0,0,0,42.05,22a10.64,10.64,0,0,1,5.33,1.53,57.56,57.56,0,0,0,2.3-8Zm-1.83-7-5.13,1.77a26.41,26.41,0,0,0-3.75-7.77S47.76,4.61,51.55,11.62Zm3.7-7.4,5.28,1.4c-2.83,8.3-10.08,8.45-10.08,8.45A23.62,23.62,0,0,0,55.25,4.22Zm22.89,35H72.77c-.67-13-.87-29.09-.87-29.09h6.72S78.62,25,78.14,39.22Zm10.23-9.65c-8.5,0-8.93-8.83-8.93-8.83a17.74,17.74,0,0,0,8.93,2.11Zm32.54-4.46s-1,10.41-13.44,14.11h-5.42c-.67-13-.87-28.23-.87-28.23h6.72s0,9.89-.24,21.51A21.2,21.2,0,0,0,120.91,25.11Zm25.3,17.66c-7.4.43-13.11.43-13.11.43V37s3.41,0,7.68.15c.2-9,.58-27.46.58-36.49l3.5-.24C146.06,13.87,146.21,42.77,146.21,42.77Zm43.73-7.87v6.72c-11.14,0-16.42-2.54-18.87-4.56a12.23,12.23,0,0,1-5.95,3.84,21.62,21.62,0,0,0,3.45-10.51,12,12,0,0,1-3.31,2,23.55,23.55,0,0,0,1.49-6.91h-3.36V23.09h8.69a9.06,9.06,0,0,1-2.83,6.67h4.22a11.55,11.55,0,0,1-1.25,5.52A55.68,55.68,0,0,0,189.94,34.9ZM173.09,18.48l-3.6,3a26.27,26.27,0,0,0-4.71-6.05A8.33,8.33,0,0,1,173.09,18.48ZM188.88,13c0,.86,0,1.82,0,2.93h1.59a3.61,3.61,0,0,1,0-.63H196c.53,8.16.68,13.73.68,13.73h-6.58a5.27,5.27,0,0,1,0-.62h-1.49c0,.91,0,1.87,0,2.83h4.23l1.92-1.92,1.92,1.92V33.6h-8.12v1.11H183c0-.39,0-.72,0-1.11h-8.4V31.25h8.35c0-1-.1-1.92-.1-2.83h-2V29H175.2c-.53-8.16-.67-13.73-.67-13.73h6.57v.63h1.35c0-1.11,0-2.07,0-2.93h-5.47V10.75h-4.85c-.48-5.13-.63-6.24-.63-6.24h6.05v.77H194a3.74,3.74,0,0,0,.05-.77h5.08c.53,5.14.68,6.24.68,6.24h-5.52V13Zm0-4.27v1.92h1.54l1.92-1.92,1.39,1.39c0-.48.05-1.2.14-2.5H177.36c-.05.82-.1,1.78-.19,3h5.18c0-1.25,0-1.92,0-1.92Zm-6.14,17.33c-.05-.92-.1-1.83-.1-2.74H181c-.05.86-.05,1.78-.1,2.74ZM181,21h1.58c-.05-1-.05-1.83-.09-2.69h-1.44C181.06,19.06,181.06,20,181,21Zm9.17,2.35h-1.44c0,.91-.05,1.78-.05,2.74h1.44C190.13,25.3,190.18,24.39,190.18,23.33Zm-1.4-5V21h1.49c0-.82,0-1.73,0-2.69Zm46.9,10.94c.53,7.88.67,13.25.67,13.25h-6.57v-.57H219.7v.57h-5.57c-.48-7.87-.63-13.25-.63-13.25H220v.48h.05a23.92,23.92,0,0,0,2.35-4.08H220.7a3.13,3.13,0,0,0,0,.63h-5.57c-.29-3.55-.44-6.48-.53-8.35h-4.47c-.52-6.87-.67-8.36-.67-8.36h4.52a16.39,16.39,0,0,0-3.17-5s4.36-3,9,4.71l-1.92,1h6.48a15.76,15.76,0,0,0-3.5-5.67s4.42-3,9,4.71l-1.92,1h4.7a26.6,26.6,0,0,0,3.07-7l5.28,1.44a8,8,0,0,1-3.5,4.89h3c.52,6.87.67,8.36.67,8.36H235s0-.58.24-5.33H215.38c0,.81,0,1.82-.15,3.07H221v.62h8.16v-.62h5.57c.53,6.29.67,10.61.67,10.61h-6.57v-.63h-.63A7.28,7.28,0,0,1,224,29.71h6.14v-.48Zm-5.86,10.33.2-7.49H220c-.05,1.72-.09,4.22-.24,7.49Zm-9-16.28h8.06l.15-4.65h-8.07C220.94,19.83,220.85,21.36,220.8,23.28Zm32.25,17.28c-.52-19-.67-32-.67-32h6.1v.58h7.92v-2h6.34c-.05-2.59-.05-4-.05-4h5.61s0,1.34,0,4h2.49l1.92-1.92,1.88,1.92V9.55h-6.29v4h1.53v-.48h4.13c.53,10.56.63,17.76.63,17.76h-5.09v-.63h-1.35c0,1.16,0,2.26,0,3.46h2.68l1.92-1.92,1.88,1.92V36H278c0,2,0,4.18-.1,6.39h-4.56L273.22,36H266.4V33.65h6.77c-.05-1.2-.05-2.3-.05-3.46H271.2v.63h-4.13c-.38-8-.57-14.07-.62-16.51a12.65,12.65,0,0,1-4.71,6.81c5.67,4.51,8,12.53-2.78,14.69l-.67-4-.15,8.73Zm5.24-10.85c4.61-1.63,1.63-4.75.09-6.09C258.33,25.49,258.33,27.51,258.29,29.71Zm.09-8.06a27.81,27.81,0,0,0,3-10.13h-2.88C258.48,13.73,258.43,17.09,258.38,21.65Zm8.36-8.59h4.8v.48h1.29c-.05-1.49-.05-2.79-.05-4h-5.61A19.14,19.14,0,0,1,266.74,13.06ZM273,23h-1.59l-.14,4.8h1.82C273,26.21,273,24.58,273,23Zm-.15-7.15h-1.34c0,1.2,0,2.83-.05,4.8h1.49C272.88,19,272.88,17.38,272.83,15.89Zm5.28,12h1.35c.05-1.2.05-2.83.09-4.8h-1.39C278.16,24.58,278.11,26.16,278.11,27.84Zm.1-7.15h1.39c0-1.44,0-3,.1-4.8h-1.49Zm18.43-9.41s5.14,0,20.45.34c0,26.83-17.62,27.6-17.62,27.6s9.46-5.57,10.75-23.47c-10,.38-13.58.48-13.58.48ZM320.07,7a3.56,3.56,0,1,1-3.56-3.55A3.55,3.55,0,0,1,320.07,7Zm-1.92,0a1.64,1.64,0,0,0-3.27,0,1.64,1.64,0,0,0,3.27,0Zm13.48,6.19s8.11,0,23.43.34c0,0,0,10.08-.44,24.29-13,.67-22.17.19-22.17.19C331.77,25,331.63,13.2,331.63,13.2Zm6.43,18.63c2.69.05,6.34.19,10.9.33-.29-5.9-.43-11.13-.53-14.49-4.22.09-7.58.19-10.13.28C338.3,20.88,338.21,25.63,338.06,31.83Zm51-20.21c0,26.83-17.67,27.6-17.67,27.6s9.46-5.57,10.76-23.47c-9.94.38-13.54.48-13.54.48v-5S373.78,11.28,389.09,11.62Zm9.12,12.19s9.31-.48,16.27-9.79L419,17.38a19.3,19.3,0,0,1-5.76,5.28c-.24,2.69-.62,8.88-.62,16.56h-3.12c-.82-6-1.3-11.33-1.54-14.55A18.43,18.43,0,0,1,398.21,23.81Zm30.33.19s8.93.15,25.45.63V29c-18.2.34-25.45.34-25.45.34ZM468.77,18h6.72c0,21.27-10.56,21.27-10.56,21.27S468.77,34.52,468.77,18Zm16.17,14.5c5.09-.77,9.46-4.7,9.46-4.7s-.38,9.93-9.6,11.47h-5.42c-.68-13-.87-28.23-.87-28.23h6.72S485.23,20.88,484.94,32.45Z"/></svg>