<svg id="レイヤー_1" data-name="レイヤー 1" xmlns="http://www.w3.org/2000/svg" viewBox="0 0 680.94 40.97"><defs><style>.cls-1{fill:#f0908a;}</style></defs><path class="cls-1" d="M1,24l.05-3.12c3.74-.09,5.42-1.77,5.28-3.45S4.22,14.16.67,14.16L1,7.44c9.12.48,13.83,3.89,13,10.61a5.27,5.27,0,0,1-3.12,4.61,7.2,7.2,0,0,1,4.47,6.57c0,3.75-4.52,7.06-15,7.06L0,29.57C8.88,29.57,8.83,24,1,24Zm21.07,0s.86-8.88.86-16.8c0,0,5.81.1,11.52.58l.1,5.42a64,64,0,0,1-6.67.38c.38,3.13.62,5.77.77,7.59,5.32,1.06,7.68,4.46,7.68,8.06s-4.56,7.06-15,7.06L21,29.57C29.9,29.57,29.86,24,22.08,24Zm41.33-.57c.09,6.67-3.12,12.86-11.14,12.86S41,30.05,41.14,23.38c.14-7.68,4.65-15.94,11.13-15.94S63.27,15.75,63.41,23.43Zm-5-1.44c-.05-3.89-2.16-7.83-6.15-7.83s-6.09,3.89-6.14,7.78,1.92,7.63,6.14,7.63S58.42,25.78,58.42,22Zm17.8,2.46a12.28,12.28,0,0,0-3.17-2.92,5.13,5.13,0,0,1,5.19.58,30.48,30.48,0,0,0,3.34-5.26H77.12C72.76,23.15,67.87,23,67.87,23A30.26,30.26,0,0,0,74.53,11.2l4.61,2.09c-.29.65-.62,1.22-.94,1.8h9.86c-3.6,7.49-7.63,11.52-11.12,13.68v.47h6.84v-.51H88c.4,7.27.51,12.24.51,12.24H83.53v-.65H76.72c0,.22,0,.43,0,.65H72.51c-.21-4.46-.36-8.06-.43-10.19a9.75,9.75,0,0,1-4.21.22A35.46,35.46,0,0,0,76.22,24.45Zm.54,14.11h6.8c0-1.69.07-4.21.18-7.56h-6.8C76.9,32.66,76.87,35.18,76.76,38.56Zm20-3c1.15-.29,2.2-.62,3.13-.94-.36-9.76-.43-16.34-.43-16.34h4.9s0,5-.18,14.47a16.38,16.38,0,0,0,2.88-1.84s0,6.66-9,9.54Zm15.3-8.46-4.86,1.33a20.81,20.81,0,0,0-2.41-8.28A9.48,9.48,0,0,1,112.11,27.08ZM119,12c0,9.68-1.4,16-3.24,20.19,2.09.33,4.79,1.55,7.06,5.22l-4.75,2.92a22.81,22.81,0,0,0-3.5-5.8c-3.23,5.4-7,5.58-7,5.58S114,33.45,114,12Zm7.2,26.49V36.76h8.54c-.47-9.79-.58-25-.58-25h5s0,5.29-.07,11.84h6.33l1.44-1.44,1.44,1.44v1.76h-9.25c0,3.78-.11,7.81-.21,11.45h9.35l1.41-1.44,1.44,1.44v1.76Zm52.22-14c-.38-5.18-5.42-8.54-11.9-5.66-4.9,2.2-5.48,10-2.21,10.36,2.4.29,4.56-3.5,5.37-9.6l6.1.77c-1.1,8.59-5.86,14.35-10.22,14.35-4.71,0-7.64-4.22-7.64-8.88a14.35,14.35,0,0,1,12.58-14.35c9.55-1.2,15.51,7,14.4,14.69-1.1,7.3-6,11-14.64,10.08C174.65,34.51,178.92,30.72,178.44,24.53Zm13.2-2.21s5.42-6.09,6.34-13.1l5.71.91a16.56,16.56,0,0,1-1.25,4.27,12.21,12.21,0,0,0,6.1,2.5l-1.78,5.42a7.8,7.8,0,0,1-5.47-5.85A13.89,13.89,0,0,1,191.64,22.32Zm28-19.78,1.87,1.92V6.82H195.33V4.46h10.28c-.34-2.49-.43-4.12-.43-4.12h6.52s0,1.44-.19,4.12h6.24ZM195.33,26h9.89c0-1.58,0-2.45,0-2.45h6.52V26h6.05l1.92-1.92L221.54,26v2.35h-9.88c0,2.64-.15,6.43-.29,11.33H205.8c-.24-4.65-.38-8.54-.48-11.33h-10Zm27.51-3.65c-4.17-1.49-5.33-4.41-5.57-6.53a13.73,13.73,0,0,1-10.08,6.53s5.43-6.09,6.34-13.1l5.71.91a17,17,0,0,1-1.1,4,12.7,12.7,0,0,0,6.48,2.79Zm16,6.82h-6.05V26.79h11c-.05-1.2-.05-2.31-.1-3.36h-9.41V21.07h9.36c0-1.44,0-2.54-.09-3.31H232.82v-2.4h6.92a18.72,18.72,0,0,0-3.46-5.09,9.09,9.09,0,0,1,8.88,4.08l-2.06,1h7.1a17.34,17.34,0,0,0,2.5-5.76H232.82V7.25h3.6a18.46,18.46,0,0,0-3.6-5.43A9.2,9.2,0,0,1,241.7,5.9l-2.64,1.35h3c-.43-5.67-.58-7-.58-7h5.14s0,.72-.29,7h1.15l.34-7h4.13c.24,3.74.43,5.81.53,7h.62A17.76,17.76,0,0,0,254.57,1l5.33.91a9,9,0,0,1-4.23,5.38H257l1.92-1.92,1.92,1.92V9.6h-7.39l4.46,1.58a9.39,9.39,0,0,1-4.18,4.18H257l1.92-1.87,1.92,1.87v2.4H250.06v3.31h5.47l1.92-1.92,1.92,1.92v2.36H250c0,1,0,2.16,0,3.36h7l1.92-1.92,1.92,1.92v2.35h-9.12a45.4,45.4,0,0,0,11.42,4.37l-3.26,4.8c-7.44-3.22-8.88-7.59-9.17-9.17H250c-.05,3-.14,6.48-.24,10.51H244.2c-.14-2.88-.24-5.52-.29-8a19.36,19.36,0,0,1-13.73,6.63A35,35,0,0,0,238.87,29.14Zm38.45-8.4c-4.7-1.73-6.43-1.54-6.43-1.54a10.45,10.45,0,0,1,7.44-3.26A53.75,53.75,0,0,0,279,7.2h6.72A53.07,53.07,0,0,1,284.9,17a28.71,28.71,0,0,1,4.18,1.77l-3,6q-1.51-.79-2.88-1.44c-4.85,12.82-15.12,13-15.12,13S274.3,32.16,277.32,20.74Zm31.34-4.61s-4.56-2.55-8.35-2.59l.05-5C309.05,9,308.66,16.13,308.66,16.13Zm14.88-.91s4.33,12.57-21.74,20.06l-1.49-6.53C318.94,23.62,323.54,15.22,323.54,15.22Zm4.75,18.29s6.92-7.44,6.92-23h6.72C341.93,32.83,328.29,33.51,328.29,33.51Zm26.12-20.93s1,8.45,2.11,19.49l-5.37.76c-2-10.46-3.41-19.34-3.41-19.34Zm-1.78-4.76a4.29,4.29,0,0,1-.81,3.89A11.13,11.13,0,0,0,349,8.26l2.21-2.5a5.74,5.74,0,0,1,1.25,1.58L354.51,5a4.11,4.11,0,0,1,.62,6A11.17,11.17,0,0,0,352.63,7.82Zm14,13.25s8.93.15,25.44.63v4.41c-18.19.34-25.44.34-25.44.34Zm54.67,3.46c-.38-5.18-5.42-8.54-11.9-5.66-4.9,2.2-5.48,10-2.21,10.36,2.4.29,4.56-3.5,5.37-9.6l6.1.77c-1.1,8.59-5.86,14.35-10.22,14.35-4.71,0-7.64-4.22-7.64-8.88A14.35,14.35,0,0,1,413.4,11.52c9.55-1.2,15.51,7,14.4,14.69-1.1,7.3-6,11-14.64,10.08C417.53,34.51,421.8,30.72,421.32,24.53Zm14.78-.34h12.82c-.05-1-.05-1.92-.05-2.83h-9.31V19h9.26c0-1.2,0-2.3,0-3.36h-3.51v.53h-4.13c-.48-7.49-.62-9.12-.62-9.12h5.09v.52h3c0-.91-.05-1.77-.05-2.49H437.06V2.74h11.48c0-2-.05-2.74-.05-2.74h6.1l0,2.74H463L465,.82l1.92,1.92V5.09H454.54V7.58h3.79c0-.14.05-.33.05-.52h4.13c.48,7.48.62,9.12.62,9.12H458v-.53h-3.6V19h3.41l-.05-.86h6.05l-.1,6H464l1.92-1.92,1.92,1.92v2.36h-4.12c0,1.63-.1,3.6-.2,5.9h-5.08v-.72H454.3c0,2.35-.05,4.85-.05,7.54-7.15.52-11,.67-11,.67V34.47s1.72,0,5.8.14c0-1,0-1.92,0-2.88h-9.46V29.38H449V26.55H436.1ZM448.73,13.3c0-1.2-.05-2.31-.05-3.36h-3.17c0,.86-.05,2-.14,3.36Zm5.62,16.08h4l-.14-2.83h-3.84Zm0-5.19h3.7L458,21.36h-3.56Zm.1-10.89h3.65c0-.87.05-1.92.09-3.36h-3.74Zm23.9,9a12.88,12.88,0,0,1-5.47,2.45,41.25,41.25,0,0,0,7.73-18.48l5.85,2c-1.63,7.1-4.6,11.13-7.39,13.44H483l.57,14.59h-5.52S478.05,34.9,478.39,22.27Zm7.2,17.09a39,39,0,0,0,7.73-14A21.3,21.3,0,0,0,489,20.74,10.6,10.6,0,0,1,484.1,23,35.7,35.7,0,0,0,489.48,4.9h-2.83V2.54h10L498.6.62l1.92,1.92V4.9h-5.47a28.92,28.92,0,0,1-.63,6.19h6.24C500.66,37,485.59,39.36,485.59,39.36ZM494.71,20a53.63,53.63,0,0,0,.82-6.53H493.8a16.21,16.21,0,0,1-3.12,5.67A11,11,0,0,1,494.71,20ZM502,29.14c-.53-18.82-.67-22.9-.67-22.9h5.61s0,2.21-.38,22.9ZM508.25.38h5.57s0,3.8-.34,39c-4.85.48-9.79.63-9.79.63v-4.9s2.11,0,5.14.1C508.39,6.72,508.25.38,508.25.38ZM524.9,31.49s1.68-3,2.74-10.18H524.9V14.59h3.36c.15-2.06.15-4.27.15-6.77l6.72,1a49.51,49.51,0,0,1-.39,6.28c8.12,2.69,10.66,15.75,0,21.22,2.55-5.23,3.36-11.71-1.58-14.06C530.23,30.67,524.9,31.49,524.9,31.49Zm15.89-16.27L544,9.31c9.07,6.58,5.38,14.45,5.38,14.45S547.47,18.53,540.79,15.22Zm5.48-6.72,2.2-2.45a6,6,0,0,1,1.25,1.58l2.07-2.3a4,4,0,0,1,.57,5.9,11,11,0,0,0-2.45-3.17,4.2,4.2,0,0,1-.86,3.89A11,11,0,0,0,546.27,8.5Zm12.09,20.25s4.46-5.56,5.76-15.74h-3.36V11.09h3.55a32.81,32.81,0,0,0,.19-3.89h6.73a31.93,31.93,0,0,1-.25,3.89h6.1L579,9.17l1.92,1.92V13H570.7C568.34,26,558.36,28.75,558.36,28.75Zm16.95.82c5.61,0,8.49-1.2,8.49-1.2l.43,6.72s-1.2,1.2-8.92,1.2c-8.74,0-6.63-9.79-6.63-9.79S570.12,29.57,575.31,29.57Zm-3.17-7-.34-4.7c8.4-.82,10.37.05,10.37.05l-.38,4.75S580,21.79,572.14,22.56ZM607.66,34.9c3.74-4.8,1.68-13.44-13.49-8.88l-1.73-5.43c9.55-3.31,18.48-3,20.74,3.94C615.58,32,607.66,34.9,607.66,34.9Zm24.52-10.27a17.91,17.91,0,0,0-4.08,8.2l-6.53-1.48C623.49,23.09,632.18,24.63,632.18,24.63Zm12,5.08c0,3.8-2,6.63-5.76,6.63a18.5,18.5,0,0,1-7.15-1.44l2.16-6.72c2,1,4.18,1.73,4.9-.15,1.15-2.78-7.73-7-.72-13a16.83,16.83,0,0,1-6.43-5.32l5.71-3.51a26.64,26.64,0,0,0,9.6,9.31,11.4,11.4,0,0,1-7.39.1C636.41,21.89,644.18,22.75,644.18,29.71Zm11.43,1.64L649,32.83a17.59,17.59,0,0,0-4-8.2S653.69,23.09,655.61,31.35ZM650.28,23a3.56,3.56,0,1,1,3.55-3.56A3.54,3.54,0,0,1,650.28,23Zm0-1.92a1.65,1.65,0,0,0,1.63-1.64,1.61,1.61,0,1,0-3.21,0A1.64,1.64,0,0,0,650.28,21Zm19.1-11.81c-1.53,10.94-.24,16.17-.24,16.17s-8-.72-6.43-16.85Zm11.43,1.87C682.59,38.4,666,36.29,666,36.29s9.93-5.37,8.11-25.2Z"/></svg>