<svg id="レイヤー_1" data-name="レイヤー 1" xmlns="http://www.w3.org/2000/svg" viewBox="0 0 263.79 96.57"><defs><style>.cls-1{fill:#f0908a;}</style></defs><path class="cls-1" d="M51.68,17.57l0-2.27c2.73-.07,4-1.3,3.85-2.52S54,10.4,51.43,10.4l.21-4.9c6.65.35,10.08,2.83,9.45,7.73a3.84,3.84,0,0,1-2.27,3.36,5.27,5.27,0,0,1,3.25,4.8c0,2.73-3.29,5.14-10.92,5.14l-.21-4.9C57.42,21.63,57.38,17.57,51.68,17.57Zm15.36,0s.63-6.47.63-12.25c0,0,4.24.07,8.4.42l.07,4a47.11,47.11,0,0,1-4.86.28c.28,2.27.45,4.2.56,5.53,3.88.77,5.6,3.25,5.6,5.88s-3.33,5.14-10.92,5.14l-.25-4.9C72.75,21.63,72.71,17.57,67,17.57Zm30.14-.42c.07,4.87-2.28,9.38-8.12,9.38S80.87,22,80.94,17.12C81,11.52,84.33,5.5,89.06,5.5S97.07,11.55,97.18,17.15Zm-3.64-1c0-2.83-1.58-5.7-4.48-5.7s-4.45,2.83-4.48,5.67,1.4,5.56,4.48,5.56S93.54,18.87,93.54,16.1Zm18.9-3.22a12,12,0,0,0-3.08-2.83,5,5,0,0,1,5,.56,29.53,29.53,0,0,0,3.25-5.11h-4.34c-4.23,6.12-9,6-9,6A29.31,29.31,0,0,0,110.79,0l4.48,2a19.14,19.14,0,0,1-.91,1.75H124c-3.5,7.28-7.42,11.2-10.81,13.3v.46h6.65v-.49h4.06c.38,7.07.49,11.9.49,11.9h-4.8v-.63h-6.61c0,.21,0,.42,0,.63h-4.06c-.21-4.34-.35-7.84-.42-9.91a9.48,9.48,0,0,1-4.09.21A34.35,34.35,0,0,0,112.44,12.88ZM113,26.6h6.62c0-1.64.07-4.09.17-7.35h-6.61C113.1,20.86,113.07,23.31,113,26.6Zm19.5-2.94c1.12-.28,2.13-.59,3-.91-.35-9.48-.42-15.89-.42-15.89h4.76s0,4.83-.17,14.07a15.77,15.77,0,0,0,2.8-1.78s0,6.47-8.79,9.27Zm14.87-8.22-4.72,1.29a20.34,20.34,0,0,0-2.35-8A9.22,9.22,0,0,1,147.33,15.44ZM154.05.8c0,9.42-1.36,15.58-3.15,19.64,2,.32,4.66,1.51,6.86,5.08l-4.62,2.83a22.3,22.3,0,0,0-3.39-5.63c-3.15,5.25-6.86,5.42-6.86,5.42s6.26-6.51,6.26-27.34Zm7,25.77V24.85h8.3c-.46-9.52-.56-24.36-.56-24.36h4.9s0,5.15-.07,11.52h6.16l1.4-1.4,1.4,1.4v1.71h-9c0,3.68-.1,7.6-.21,11.13h9.11l1.36-1.4,1.4,1.4v1.72ZM204.42,18c-.28-3.78-4-6.23-8.68-4.13-3.57,1.61-4,7.28-1.61,7.56,1.75.21,3.32-2.56,3.92-7l4.45.56c-.81,6.26-4.28,10.46-7.46,10.46-3.43,0-5.57-3.08-5.57-6.47a10.47,10.47,0,0,1,9.17-10.47,9.32,9.32,0,0,1,10.51,10.71c-.81,5.32-4.38,8.05-10.68,7.35C201.65,25.24,204.77,22.47,204.42,18ZM0,51.35s4-4.45,4.62-9.56l4.17.67a12.43,12.43,0,0,1-.91,3.11,8.84,8.84,0,0,0,4.44,1.82l-1.29,4a5.68,5.68,0,0,1-4-4.27A10.14,10.14,0,0,1,0,51.35ZM20.44,36.92l1.37,1.41V40H2.7V38.33h7.49c-.25-1.83-.32-3-.32-3h4.76s0,1.06-.14,3H19ZM2.7,54H9.91c0-1.16,0-1.79,0-1.79h4.76V54H19l1.4-1.4L21.81,54v1.71H14.6c0,1.93-.11,4.69-.21,8.26H10.33c-.18-3.39-.28-6.23-.35-8.26H2.7Zm20.05-2.66a5.6,5.6,0,0,1-4.06-4.76,10,10,0,0,1-7.35,4.76s4-4.45,4.62-9.56l4.17.67a12.65,12.65,0,0,1-.81,2.9,9.29,9.29,0,0,0,4.73,2Zm11.69,5H30V54.6h8c0-.87,0-1.68-.07-2.45H31.08V50.44h6.83c0-1,0-1.86-.07-2.42H30V46.27h5a13.36,13.36,0,0,0-2.52-3.71,6.62,6.62,0,0,1,6.48,3l-1.51.73H42.7a12.52,12.52,0,0,0,1.82-4.2H30V40.36h2.63a13.65,13.65,0,0,0-2.63-4,6.71,6.71,0,0,1,6.48,3l-1.93,1h2.17c-.31-4.14-.42-5.08-.42-5.08h3.75s0,.52-.21,5.08h.84L41,35.28h3c.18,2.73.32,4.24.39,5.08h.45a12.94,12.94,0,0,0,1.09-4.59l3.88.66a6.52,6.52,0,0,1-3.08,3.93h1L49,39l1.4,1.4v1.71H45.05l3.25,1.16a6.8,6.8,0,0,1-3,3h2.38L49,44.91l1.4,1.36V48H42.6v2.42h4L48,49l1.4,1.4v1.71H42.56c0,.74,0,1.58,0,2.45h5.11L49,53.2l1.4,1.4v1.72H43.79a32.66,32.66,0,0,0,8.33,3.18L49.74,63c-5.43-2.34-6.48-5.53-6.69-6.68h-.52c0,2.17-.11,4.72-.18,7.66h-4c-.11-2.1-.18-4-.21-5.81A14.14,14.14,0,0,1,28.1,63,25.4,25.4,0,0,0,34.44,56.32Zm28-6.13c-3.43-1.26-4.69-1.12-4.69-1.12a7.6,7.6,0,0,1,5.42-2.38,38.36,38.36,0,0,0,.49-6.37h4.9A39.31,39.31,0,0,1,68,47.43a20.7,20.7,0,0,1,3,1.29l-2.2,4.38q-1.11-.59-2.1-1.05c-3.54,9.34-11,9.48-11,9.48S60.27,58.52,62.48,50.19Zm22.85-3.36a15.8,15.8,0,0,0-6.09-1.89l0-3.64C85.61,41.65,85.33,46.83,85.33,46.83Zm10.85-.66s3.15,9.17-15.85,14.63L79.24,56C92.82,52.29,96.18,46.17,96.18,46.17ZM99.65,59.5s5-5.42,5-16.8h4.9C109.59,59,99.65,59.5,99.65,59.5Zm19-15.26s.73,6.16,1.54,14.21l-3.92.56c-1.44-7.63-2.49-14.1-2.49-14.1Zm-1.3-3.46a3.1,3.1,0,0,1-.59,2.83,8.25,8.25,0,0,0-2.07-2.52l1.61-1.82a4.21,4.21,0,0,1,.91,1.16l1.51-1.68a3,3,0,0,1,.45,4.34A8,8,0,0,0,117.39,40.78Zm10.22,9.66s6.51.1,18.55.45v3.22c-13.26.25-18.55.25-18.55.25ZM167.48,53c-.28-3.78-4-6.23-8.68-4.13-3.57,1.61-4,7.28-1.61,7.56,1.75.21,3.32-2.56,3.92-7l4.44.56c-.8,6.26-4.27,10.46-7.45,10.46-3.43,0-5.57-3.08-5.57-6.47a10.47,10.47,0,0,1,9.17-10.47,9.31,9.31,0,0,1,10.5,10.71c-.8,5.32-4.37,8-10.67,7.35C164.71,60.24,167.83,57.47,167.48,53Zm10.78-.25h9.34c0-.7,0-1.4,0-2.06h-6.79V48.93h6.75c0-.87,0-1.68,0-2.45h-2.56v.39h-3c-.35-5.46-.45-6.65-.45-6.65h3.71v.38h2.2c0-.66,0-1.29,0-1.82H179V37.07h8.36c0-1.48,0-2,0-2h4.44l0,2h6.19l1.4-1.4,1.4,1.4v1.71h-9V40.6h2.76c0-.1,0-.24,0-.38h3c.35,5.46.45,6.65.45,6.65h-3.71v-.39h-2.62v2.45h2.48l0-.63h4.41l-.07,4.41h.17l1.4-1.4,1.4,1.4v1.72h-3c0,1.19-.07,2.62-.14,4.3h-3.71v-.52h-3c0,1.71,0,3.53,0,5.49-5.22.39-8,.49-8,.49v-4s1.26,0,4.24.11c0-.7,0-1.4,0-2.1h-6.89V56.49h6.86V54.43h-9.38Zm9.2-7.94c0-.88,0-1.68,0-2.45h-2.31c0,.63,0,1.43-.11,2.45Zm4.1,11.72h2.9l-.1-2.06h-2.8Zm0-3.78h2.7l-.11-2.06h-2.59Zm.07-7.94h2.66c0-.63,0-1.4.07-2.45h-2.73Zm17.43,6.54a9.34,9.34,0,0,1-4,1.79,30.07,30.07,0,0,0,5.64-13.48L215,41.09c-1.19,5.18-3.36,8.12-5.39,9.8h2.83l.42,10.64h-4S208.85,60.52,209.09,51.31Zm5.25,12.46A28.52,28.52,0,0,0,220,53.55a15.78,15.78,0,0,0-3.19-3.36,7.71,7.71,0,0,1-3.53,1.68,26.08,26.08,0,0,0,3.92-13.23h-2.07V36.92h7.32l1.4-1.4,1.4,1.4v1.72h-4a21.4,21.4,0,0,1-.46,4.52h4.55C225.33,62,214.34,63.77,214.34,63.77ZM221,49.63a40.14,40.14,0,0,0,.6-4.76h-1.26A11.68,11.68,0,0,1,218.05,49,8.29,8.29,0,0,1,221,49.63Zm5.29,6.69c-.39-13.72-.49-16.7-.49-16.7h4.09s0,1.61-.28,16.7Zm4.58-21h4.06s0,2.77-.24,28.42c-3.54.35-7.14.46-7.14.46V60.66s1.54,0,3.74.07C231,40,230.86,35.35,230.86,35.35ZM243,58s1.22-2.2,2-7.42h-2v-4.9h2.45c.1-1.5.1-3.11.1-4.93l4.9.7a35.18,35.18,0,0,1-.28,4.58c5.92,2,7.77,11.48,0,15.47,1.85-3.81,2.45-8.54-1.16-10.25C246.89,57.44,243,58,243,58Zm11.58-11.86,2.35-4.31c6.61,4.8,3.92,10.54,3.92,10.54A12.7,12.7,0,0,0,254.59,46.17Zm4-4.9,1.61-1.79a4.4,4.4,0,0,1,.91,1.16L262.61,39a2.94,2.94,0,0,1,.42,4.3A8.09,8.09,0,0,0,261.24,41a3,3,0,0,1-.63,2.84A8,8,0,0,0,258.58,41.27ZM84.7,91S88,87,88.9,79.56H86.45v-1.4H89a23.8,23.8,0,0,0,.14-2.84h4.9a25.36,25.36,0,0,1-.17,2.84h4.44l1.4-1.4,1.4,1.4v1.4H93.7C92,89,84.7,91,84.7,91Zm12.36.59a17.65,17.65,0,0,0,6.19-.87l.32,4.9s-.88.87-6.51.87c-6.37,0-4.83-7.14-4.83-7.14S93.28,91.63,97.06,91.63Zm-2.31-5.11-.25-3.43c6.13-.59,7.56,0,7.56,0l-.28,3.46S100.45,86,94.75,86.52Zm25.9,9c2.73-3.5,1.22-9.8-9.84-6.48l-1.26-4c7-2.42,13.48-2.21,15.12,2.87C126.42,93.38,120.65,95.52,120.65,95.52ZM138.53,88a13,13,0,0,0-3,6l-4.77-1.08C132.2,86.91,138.53,88,138.53,88Zm8.75,3.71c0,2.76-1.43,4.83-4.2,4.83a13.49,13.49,0,0,1-5.21-1l1.57-4.9c1.47.73,3.05,1.26,3.57-.11.84-2-5.63-5.11-.52-9.45a12.18,12.18,0,0,1-4.69-3.88L142,74.62a19.38,19.38,0,0,0,7,6.79,8.3,8.3,0,0,1-5.39.07C141.61,86,147.28,86.66,147.28,91.74Zm8.33,1.19L150.82,94a12.8,12.8,0,0,0-2.94-6S154.21,86.91,155.61,92.93Zm-3.88-6.13a2.59,2.59,0,1,1,2.59-2.59A2.58,2.58,0,0,1,151.73,86.8Zm0-1.4a1.21,1.21,0,0,0,1.19-1.19,1.18,1.18,0,1,0-2.35,0A1.2,1.2,0,0,0,151.73,85.4Zm13.93-8.61c-1.12,8-.18,11.8-.18,11.8s-5.81-.53-4.69-12.29ZM174,78.16c1.29,19.91-10.82,18.37-10.82,18.37s7.25-3.92,5.92-18.37Z"/></svg>