<svg id="レイヤー_1" data-name="レイヤー 1" xmlns="http://www.w3.org/2000/svg" viewBox="0 0 336.29 155.86"><defs><style>.cls-1{fill:#fff;}.cls-2{fill:none;stroke:#efe4dc;stroke-linecap:round;stroke-linejoin:round;stroke-width:29px;}</style></defs><path class="cls-1" d="M232.7,127.42h0a35.89,35.89,0,0,1,21.71,18.19c4.74-2.28,10.2-2.72,15.43-2.15a85.4,85.4,0,0,1,15.33,3.62A166.16,166.16,0,0,1,297,119.34a2.38,2.38,0,0,0,.41-1.9,2.25,2.25,0,0,0-.89-1,30.4,30.4,0,0,0-29-3.24c1-.41-4.88-9.54-5.53-10.34a28.29,28.29,0,0,0-9.49-7.69c-4-1.85-4.91,1.19-6.48,4.46l-6.24,13Z"/><path d="M251.3,95A30.17,30.17,0,0,1,268,112.76c.13.39.76.24,1,.14a28.11,28.11,0,0,1,21.67.95,26.53,26.53,0,0,1,4.46,2.66c.66.48.62.69.29,1.39-.2.43-.41.87-.61,1.31-.51,1.08-1,2.18-1.51,3.27q-2.6,5.74-5,11.59Q285.52,141,283,148l1.29-.44c-9.36-3.93-20.36-7.9-29.84-2l1.18.05a27.4,27.4,0,0,0-19.4-16.93l.24.45,14.63-31.41c.31-.66-1.14-.53-1.36-.07L235.16,129c-.11.23,0,.4.24.45a26.65,26.65,0,0,1,18.82,16.48c.16.44.91.22,1.18.05,8.77-5.41,19.21-1.32,27.79,2.28a1,1,0,0,0,1.3-.45,325.83,325.83,0,0,1,12.8-30.94c0-.09.1-.25,0-.33a29.86,29.86,0,0,0-28.88-4.31l1,.14a30.75,30.75,0,0,0-17-18.07c-.47-.2-1.78.46-1.15.73Z"/><path d="M266.16,117.65a175.63,175.63,0,0,1-10,24.15c-.32.63,1.13.49,1.35,0a177.11,177.11,0,0,0,10.14-24.37c.17-.51-1.29-.33-1.45.17Z"/><path d="M257.42,148.06c1.25-1.35,3.29-1.33,5-1.37a35.42,35.42,0,0,1,5.45.28,37.37,37.37,0,0,1,10.61,3c.56.26,1.67-.56.84-.93a38.11,38.11,0,0,0-12.54-3.27,35.27,35.27,0,0,0-6.08,0,6.76,6.76,0,0,0-4.48,1.9c-.61.66.78.83,1.2.38Z"/><path d="M259.52,149.73a22.43,22.43,0,0,1,15.65,2.8c.44.27,1.76-.36,1.14-.73a24.11,24.11,0,0,0-17-2.86c-.23,0-.7.29-.62.59s.61.25.83.2Z"/><path d="M251.85,144.94A19.7,19.7,0,0,0,236,131.41c-.69-.11-1.48.88-.51,1a18.71,18.71,0,0,1,14.89,12.9c.19.64,1.64.25,1.45-.39Z"/><path d="M234,134.88a16.07,16.07,0,0,1,14.68,11.42c.2.68,1.65.3,1.45-.39a17.19,17.19,0,0,0-16-12.12c-.84,0-1.1,1.06-.12,1.09Z"/><path d="M250.35,148.44a45.34,45.34,0,0,0,5.37,2.29,1.21,1.21,0,0,0,1-.13c.17-.11.46-.47.12-.59a43.74,43.74,0,0,1-5.37-2.29,1.18,1.18,0,0,0-1,.13c-.2.13-.43.43-.12.59Z"/><path d="M234.38,102.67c2.91-2.51,1.71-6.33,0-9.36,2,.49,4.24.55,5.26-1.53a5.34,5.34,0,0,0-.12-3.87c-.18-.63-.4-1.26-.64-1.88,1.94,1.39,4.09,3.06,6.41,1.92s2-3.65,1.68-5.94c.89,1.78,1.93,3.49,3.91,4.11,2.19.67,4-.73,5.29-2.37a16.79,16.79,0,0,0,2,6.24c.17.31.6.81,1,.48s.1-1.11-.09-1.44a13.33,13.33,0,0,1-1.63-7.16,1.89,1.89,0,0,0-.39-1.3c-.15-.19-.6-.57-.82-.25-1.13,1.73-2.88,4.23-5.28,3.79s-3.25-3.71-4.38-5.6c-.24-.4-1.07-1-1.13-.11a34.6,34.6,0,0,0,.42,4.42A2.9,2.9,0,0,1,244.29,86c-2.63,1-5-1.81-7-2.95-.86-.48-.55,1.18-.39,1.49a20.46,20.46,0,0,1,1.29,3.06c.29.92.74,2,.07,2.88-1.36,1.73-3.85,1-5.56.35-1-.37-.5,1.36-.25,1.72,1.64,2.38,3.69,5.84.9,8.25C232.74,101.27,233.68,103.28,234.38,102.67Z"/><path d="M315.92,125.44a3.06,3.06,0,0,0-1.81-.35,4.77,4.77,0,0,0-2.09.6,2.33,2.33,0,0,0-1,1,1.77,1.77,0,0,0-.05,1.22,2.2,2.2,0,0,0,1,1.19,2.63,2.63,0,0,0,1.3.31,5.9,5.9,0,0,0,.93-.11l.21-.05.24,0a2.48,2.48,0,0,0,2-1.7A1.86,1.86,0,0,0,315.92,125.44Zm-2.13,2.26c.11-.07.36-.21.31-.38a1,1,0,0,1,0-.25,1.51,1.51,0,0,1,.1.7,1.35,1.35,0,0,1-.14.35,1.73,1.73,0,0,1-.31-.35v0Z"/><path d="M321,105.43c-1.51-.43-3.39-1.34-4.91-.53a1.8,1.8,0,0,0-.89,1.65c-.09.94-.17,1.9-.25,2.85q-.46,5.41-.76,10.84a.27.27,0,0,0,.08.23c0,.91,2.22.47,2.51-.22A85.19,85.19,0,0,0,321.44,106C321.51,105.69,321.26,105.51,321,105.43Z"/><path d="M335.27,121.48a2.6,2.6,0,0,0,.87-1.44.34.34,0,0,0,.14-.35,3,3,0,0,0-.17-.37A2,2,0,0,0,336,119l-.07-.11a5.65,5.65,0,0,0-.34-.51l-.06-.09a8.18,8.18,0,0,0-1.88-1.83c-1.68-1.43-3.8-2.85-6.08-2.84-2,0-5.11,1.59-3.83,4a.53.53,0,0,0,.13.13,1,1,0,0,0,.05.24c.12.37.71.41,1,.38a2.31,2.31,0,0,0,2-1.09,1.76,1.76,0,0,0,.13-.5,1.25,1.25,0,0,0,.28-.15,2.17,2.17,0,0,1,.35-.2l0,0h0l.17,0,.53.26a11.43,11.43,0,0,1,2.39,1.4,6.53,6.53,0,0,1,.62.56,4,4,0,0,1,.25,1l0,.66a13.62,13.62,0,0,1-2.59,1.22c-1.11.39-2.44.48-3.38,1.25-.07.06-.13.13-.19.19a2.66,2.66,0,0,0-1,.68,7.12,7.12,0,0,0-1.07,3,23,23,0,0,0-.52,3.31h0a.78.78,0,0,0,0,.16c0,.19.11.31.33.36.44.42,2.22.17,2.41-.48s.41-1.44.61-2.17l.82-1.92c.17-.39.33-.79.49-1.19,1-.3,1.92-.63,2.86-1A9.28,9.28,0,0,0,335.27,121.48Z"/><path d="M324.17,134.34a2,2,0,0,0-1.28-.32l-.3,0a2.42,2.42,0,0,0-.47,0,3.08,3.08,0,0,0-.75.1,2.15,2.15,0,0,0-1.17.68,1.37,1.37,0,0,0-.27.57,1.2,1.2,0,0,0,.05.65.43.43,0,0,1,0,.07,1.65,1.65,0,0,0,.53,1.14v0c.08.32.45.42.74.45a1.7,1.7,0,0,0,.39,0,3.23,3.23,0,0,0,1.83-.31,2.42,2.42,0,0,0,1.15-1.19,1.71,1.71,0,0,0,.06-1.18A1.63,1.63,0,0,0,324.17,134.34Z"/><path d="M308.4,139.23a2.09,2.09,0,0,0-1.49.61l-1.3,1.61.19-2.86c0-.32-.88-.27-1-.26a2.56,2.56,0,0,0-1.39.48c-.66.53-1.29,1.09-1.91,1.66.14-1.73.26-3.46.32-5.2,0-.52-2.51-.29-2.54.48q-.13,3.76-.52,7.51c0,.32.89.28,1,.27a2.38,2.38,0,0,0,1.39-.48c.64-.68,1.3-1.33,2-2-.08,1.29-.16,2.59-.25,3.88,0,.37,1,.26,1.19.24a2,2,0,0,0,1.32-.59q2-2.49,4-5C309.7,139.24,308.52,139.22,308.4,139.23Z"/><path d="M317.64,143.73a6.71,6.71,0,0,0-5.91-1.35c-.44.11-1.09.42-1.1,1a3.58,3.58,0,0,0-1.76,2.91,3.89,3.89,0,0,0,2.83,3.62,6,6,0,0,0,5.69-1.33,3.92,3.92,0,0,0,1.42-2.36A2.89,2.89,0,0,0,317.64,143.73Zm-5.24.75-.11,0A.17.17,0,0,1,312.4,144.48Zm3.5,2.63a2.64,2.64,0,0,1-.36.39l-.17.15s0,0,0,0h0l-.38.26-.2.11v0l-.06,0-.46.17h0l-.22,0-.09,0h-.48l-.2,0-.1,0-.11,0-.19-.08-.18-.09h0a4,4,0,0,1-.41-.31,2.43,2.43,0,0,1-.73-1.2,1.52,1.52,0,0,1-.06-.42v-.06a2.4,2.4,0,0,1,0-.28,2.23,2.23,0,0,1,.13-.46c-.05.12.11-.2.13-.24s.07-.11.1-.16,0,0,0,0l0,0,.13-.14s.26-.2,0-.06l.16-.1,0,0h0l0,0,.16,0a1.59,1.59,0,0,0,.93-.5l.16,0,.44.1.16,0,.14,0,.42.18.2.1.14.08a2.83,2.83,0,0,1,1.19,1.21A1.54,1.54,0,0,1,315.9,147.11Z"/><path d="M331.59,151.62a4.41,4.41,0,0,0-2.12.81l-1.78,1.08a22.68,22.68,0,0,1,.55-3.38c.16-.66-1-.65-1.37-.56A21.15,21.15,0,0,0,323,151c.37-1.34.73-2.69,1.1-4,.25-.91-2.28-.69-2.5.13-.53,1.91-1.05,3.82-1.58,5.74-.11.41.41.56.71.59a2.38,2.38,0,0,0,1.52-.39,16.08,16.08,0,0,1,3.22-1.66,23.46,23.46,0,0,0-.42,4.1c0,.3.53.4.73.42a2.23,2.23,0,0,0,1.27-.24l2.46-1.49,1.23-.75.26-.16c.76.16,2.08-.23,2-.89S332.08,151.59,331.59,151.62Zm-1,1.14-.06,0Z"/><path class="cls-2" d="M69.44,19.05s-2.49,0-5.6-.15c-.16,6.54-.47,20-.48,26.6l-2.56.17c-.85-9.77-.91-30.88-.91-30.88,5.39-.3,9.56-.29,9.56-.29Z"/><path class="cls-2" d="M76.06,44.65s1.87-6.15,1.56-22h4.44v.46h1v-.45h4.41s0,1.51-.29,21.36c-3.36.37-6.16.47-6.16.47V40.67s.77,0,2.38.08l-.09-4.69H80.84C79.08,43.85,76.06,44.65,76.06,44.65Zm5.1-10.31H83.3c0-1.47,0-2.73-.06-3.88H81.7C81.55,31.89,81.37,33.18,81.16,34.34Zm.68-5.6H83.2c0-1.71-.06-3-.09-3.88H82C82,26.25,82,27.55,81.84,28.74Zm9.53-3.31a19.78,19.78,0,0,0-3.11-5.5s3.65-.94,6.75,4Zm9.51,1.88H105s0,1.75-.28,18.13h-3.36c0-.38,0-.77,0-1.15l-9,0a11,11,0,0,0,0,1.15H88.91c-.32-14.92-.42-18.14-.42-18.14h4.06s0,1.54-.24,15.26l9,0C101,30.11,100.88,27.31,100.88,27.31Zm0,.84a26.31,26.31,0,0,1-2.14,5.18,16.12,16.12,0,0,1,2.13,2.52L98.1,37.8A18.69,18.69,0,0,0,97,35.88a10.33,10.33,0,0,1-4.63,3.63,29,29,0,0,0,3.19-5.63,24,24,0,0,0-3-3.3,7.78,7.78,0,0,1,3.88,1.13,42.27,42.27,0,0,0,1.69-5.84ZM99.56,23l-3.75,1.28a19.21,19.21,0,0,0-2.71-5.67S96.81,17.92,99.56,23Zm2.71-5.39,3.85,1c-2.08,6-7.37,6.15-7.37,6.15A17.16,17.16,0,0,0,102.27,17.65Z"/><path class="cls-2" d="M121,43.21h-3.92c-.47-9.45-.59-21.21-.59-21.21h4.9S121.38,32.81,121,43.21Zm7.47-7c-6.2,0-6.5-6.46-6.5-6.46a13,13,0,0,0,6.51,1.56Z"/><path class="cls-2" d="M151.52,33s-.72,7.6-9.83,10.27h-3.95c-.47-9.45-.59-20.58-.59-20.58h4.9s0,7.21-.21,15.68A15.49,15.49,0,0,0,151.52,33Z"/><path class="cls-2" d="M167.83,45.9c-5.39.3-9.55.29-9.55.29V41.68s2.48,0,5.6.11c.15-6.54.46-20,.47-26.6l2.56-.17C167.77,24.83,167.83,45.9,167.83,45.9Z"/><path class="cls-2" d="M14.5,77.38a21.86,21.86,0,0,0,11.59-17c-5,.2-8.37.19-8.37.19V57s6.16,0,13.47.28c0,6.19-1.59,10.46-3.77,13.43,2-.31,5.39-.1,9.23,3.31l-3.54,3.42a27.76,27.76,0,0,0-6.64-5.58A17.35,17.35,0,0,1,14.5,77.38Z"/><path class="cls-2" d="M55.63,57.38h4.91c0,20.16-11.91,20.13-11.91,20.13s3.53-1.81,5.58-8.84A14,14,0,0,0,49,67.23l.08-3.53a7.89,7.89,0,0,1-4.59,3.38S46,64.81,46,56.66H51a12.69,12.69,0,0,1-1.77,6.92c3.4.22,4.86,1.87,5.49,3.31a39.84,39.84,0,0,0,.93-7.77H51.75v-1.4h3.88Z"/><path class="cls-2" d="M71.61,66.41s6.51.12,18.55.49v3.22c-13.26.22-18.55.21-18.55.21Z"/><path class="cls-2" d="M108.69,77.58h-3.92c-.47-9.45-.59-21.21-.59-21.21h4.9S109.06,67.19,108.69,77.58Zm7.47-7c-6.2,0-6.5-6.45-6.5-6.45a13,13,0,0,0,6.51,1.55Z"/><path class="cls-2" d="M139.31,60.53c-7.24.27-9.87.33-9.87.33V57.25s3.71,0,14.87.28c0,19.57-12.88,20.1-12.88,20.1S138.34,73.59,139.31,60.53Zm6.14-4.08a7.51,7.51,0,0,0-1.82-2.28A3,3,0,0,1,143,57,8.6,8.6,0,0,0,141,54.44l1.61-1.78a3.7,3.7,0,0,1,.91,1.16L145,52.14A3,3,0,0,1,145.45,56.45Z"/><path class="cls-2" d="M158.07,61.13h3.05a31.79,31.79,0,0,0,.72,6.37S158.06,67.75,158.07,61.13Zm11,2.58h4.09c0,14-12.56,14-12.56,14S169,73.27,169.06,63.71Zm-6.33-2.57h3.08a33.52,33.52,0,0,0,.68,6.37S162.71,67.76,162.73,61.14Z"/><path class="cls-2" d="M191.33,56.9c0,9.2-6.46,10.45-6.46,10.45s1.54-2.27,1.56-10.46ZM189,77.75s6.51-3.31,7-18.39H192.1V58H196v-.35h4.9C200.88,77.78,189,77.75,189,77.75Z"/><path class="cls-2" d="M32.75,105.2s0-.45,0-1.36H30c0,3-.08,6.44-.16,10.26H26.18c-.09-3.71-.16-7.17-.19-10.25H22.88c0,.42,0,.87,0,1.36H19.48c-.33-8.89-.42-14.6-.42-14.6h4.06v.35h2.69l-.06-5.46H30.2s0,1.82-.05,5.46H33a.94.94,0,0,1,0-.35h3.32c.37,8.85.46,14.59.46,14.59ZM26,102.11c-.06-3.71-.09-6.9-.12-9.45H23.11c0,1.86-.08,5-.19,9.45Zm6.83,0c0-2.1.08-5.25.19-9.45H30.15c0,2.48,0,5.63-.13,9.45Z"/><path class="cls-2" d="M52.67,85.4l4.3.85a8.06,8.06,0,0,1-2.49,3.07h4.34v-.28h4.06c.1,3.89.16,7.46.22,10.61.36-.35.74-.74,1.09-1.12l2.06,3.78q-1.57,1.68-3,3l.09,8.15c-3.86.34-7.08.48-7.08.48v-3.5c-7,3.94-11.8,3-11.8,3a62.82,62.82,0,0,0,11.92-7.82,36.85,36.85,0,0,1-10.61,1.77l-.45-4.13h2.38C47.33,94.8,47.24,89,47.24,89h3.85A13.83,13.83,0,0,0,52.67,85.4Zm6,14.43H51.83l-.11,3.39c2.94-.13,5.25-.3,6.9-.47C58.62,101.83,58.62,100.85,58.66,99.83Zm0-4.62H51.91c0,.87,0,1.82,0,2.9l6.79,0C58.7,97.17,58.7,96.23,58.7,95.21ZM52,91c0,.67,0,1.47,0,2.45l6.79,0c0-.81,0-1.61,0-2.45Zm6.54,18a17.42,17.42,0,0,1-1.68,1.08c.39,0,.95,0,1.68.08Z"/><path class="cls-2" d="M86,102.59c-2.36,9.37-8.59,9.33-8.59,9.33s2.66-2.1,3.94-9.34l-7.39,0v-1.4l7.59,0c.14-1.09.25-2.28.36-3.61-4.1,1.18-5.7-1.09-5.7-1.09s4.55-1,9.18-6.46l3.46,3.51c-.7.56-1.33,1-2,1.5a37.73,37.73,0,0,1-.57,6.16h2.17l1.4-1.36,1.4,1.37v1.4Z"/><path class="cls-2" d="M101.47,95.38s2.87,0,14,.27c0,17.5-12.88,16.32-12.88,16.32s6.69-2.93,7.83-13.32l-9,.3Zm13.69-2.5-12.63,0v-1.4l9.84,0,1.4-1.4,1.4,1.4Z"/><path class="cls-2" d="M127.84,104.71c-.32-10.54-.41-17.75-.41-17.75h4.76v.42l8.62,0V87h4.06c.36,10.53.41,17.74.41,17.74h-4.16c0,.94,0,2.48-.12,4.65l2.38-.1c.25-1.36.43-2.13.43-2.13l3.78,1s-.5,2-1.7,5.81c0,0-2.9,0-8.4-.26-.27-4.83-.4-8.44-.43-9.59h-1.68c-.37,8.65-7.76,10.14-7.76,10.14a22.34,22.34,0,0,0,3.24-9.52Zm4.14-2.34,8.54,0c0-.84,0-2,0-3.26H132C132,100.13,132,101.22,132,102.37Zm.08-5,8.54,0c0-1,0-2.1,0-3.29l-8.5,0C132.1,95.09,132.1,96.21,132.06,97.4Zm.08-5,8.54,0c0-1,0-2.13.08-3.29l-8.58,0C132.18,90,132.18,91.06,132.14,92.39Z"/><path class="cls-2" d="M157.08,98.36H153V97h4l-.16-4.16,4.9-.17.17,4.34h4.2V90.89H171V97h2.17l1.4-1.4L176,97v1.4H171v4h-4.9v-4H162l.17,4.45c.26,6.41,4.81,7.5,10.48,6.78-2.7,3.14-14.92,4.55-15.35-6.58Z"/><path class="cls-2" d="M192,105.79h-3c-.65-7.45-1-14.84-1-14.84h4.9S192.43,99.35,192,105.79Zm-1.61,2.06a2.16,2.16,0,0,0-2.18,2.13,2.17,2.17,0,1,0,4.34,0A2.15,2.15,0,0,0,190.35,107.85Z"/><path d="M69.44,19.05s-2.49,0-5.6-.15c-.16,6.54-.47,20-.48,26.6l-2.56.17c-.85-9.77-.91-30.88-.91-30.88,5.39-.3,9.56-.29,9.56-.29Z"/><path d="M76.06,44.65s1.87-6.15,1.56-22h4.44v.46h1v-.45h4.41s0,1.51-.29,21.36c-3.36.37-6.16.47-6.16.47V40.67s.77,0,2.38.08l-.09-4.69H80.84C79.08,43.85,76.06,44.65,76.06,44.65Zm5.1-10.31H83.3c0-1.47,0-2.73-.06-3.88H81.7C81.55,31.89,81.37,33.18,81.16,34.34Zm.68-5.6H83.2c0-1.71-.06-3-.09-3.88H82C82,26.25,82,27.55,81.84,28.74Zm9.53-3.31a19.78,19.78,0,0,0-3.11-5.5s3.65-.94,6.75,4Zm9.51,1.88H105s0,1.75-.28,18.13h-3.36c0-.38,0-.77,0-1.15l-9,0a11,11,0,0,0,0,1.15H88.91c-.32-14.92-.42-18.14-.42-18.14h4.06s0,1.54-.24,15.26l9,0C101,30.11,100.88,27.31,100.88,27.31Zm0,.84a26.31,26.31,0,0,1-2.14,5.18,16.12,16.12,0,0,1,2.13,2.52L98.1,37.8A18.69,18.69,0,0,0,97,35.88a10.33,10.33,0,0,1-4.63,3.63,29,29,0,0,0,3.19-5.63,24,24,0,0,0-3-3.3,7.78,7.78,0,0,1,3.88,1.13,42.27,42.27,0,0,0,1.69-5.84ZM99.56,23l-3.75,1.28a19.21,19.21,0,0,0-2.71-5.67S96.81,17.92,99.56,23Zm2.71-5.39,3.85,1c-2.08,6-7.37,6.15-7.37,6.15A17.16,17.16,0,0,0,102.27,17.65Z"/><path d="M121,43.21h-3.92c-.47-9.45-.59-21.21-.59-21.21h4.9S121.38,32.81,121,43.21Zm7.47-7c-6.2,0-6.5-6.46-6.5-6.46a13,13,0,0,0,6.51,1.56Z"/><path d="M151.52,33s-.72,7.6-9.83,10.27h-3.95c-.47-9.45-.59-20.58-.59-20.58h4.9s0,7.21-.21,15.68A15.49,15.49,0,0,0,151.52,33Z"/><path d="M167.83,45.9c-5.39.3-9.55.29-9.55.29V41.68s2.48,0,5.6.11c.15-6.54.46-20,.47-26.6l2.56-.17C167.77,24.83,167.83,45.9,167.83,45.9Z"/><path d="M14.5,77.38a21.86,21.86,0,0,0,11.59-17c-5,.2-8.37.19-8.37.19V57s6.16,0,13.47.28c0,6.19-1.59,10.46-3.77,13.43,2-.31,5.39-.1,9.23,3.31l-3.54,3.42a27.76,27.76,0,0,0-6.64-5.58A17.35,17.35,0,0,1,14.5,77.38Z"/><path d="M55.63,57.38h4.91c0,20.16-11.91,20.13-11.91,20.13s3.53-1.81,5.58-8.84A14,14,0,0,0,49,67.23l.08-3.53a7.89,7.89,0,0,1-4.59,3.38S46,64.81,46,56.66H51a12.69,12.69,0,0,1-1.77,6.92c3.4.22,4.86,1.87,5.49,3.31a39.84,39.84,0,0,0,.93-7.77H51.75v-1.4h3.88Z"/><path d="M71.61,66.41s6.51.12,18.55.49v3.22c-13.26.22-18.55.21-18.55.21Z"/><path d="M108.69,77.58h-3.92c-.47-9.45-.59-21.21-.59-21.21h4.9S109.06,67.19,108.69,77.58Zm7.47-7c-6.2,0-6.5-6.45-6.5-6.45a13,13,0,0,0,6.51,1.55Z"/><path d="M139.31,60.53c-7.24.27-9.87.33-9.87.33V57.25s3.71,0,14.87.28c0,19.57-12.88,20.1-12.88,20.1S138.34,73.59,139.31,60.53Zm6.14-4.08a7.51,7.51,0,0,0-1.82-2.28A3,3,0,0,1,143,57,8.6,8.6,0,0,0,141,54.44l1.61-1.78a3.7,3.7,0,0,1,.91,1.16L145,52.14A3,3,0,0,1,145.45,56.45Z"/><path d="M158.07,61.13h3.05a31.79,31.79,0,0,0,.72,6.37S158.06,67.75,158.07,61.13Zm11,2.58h4.09c0,14-12.56,14-12.56,14S169,73.27,169.06,63.71Zm-6.33-2.57h3.08a33.52,33.52,0,0,0,.68,6.37S162.71,67.76,162.73,61.14Z"/><path d="M191.33,56.9c0,9.2-6.46,10.45-6.46,10.45s1.54-2.27,1.56-10.46ZM189,77.75s6.51-3.31,7-18.39H192.1V58H196v-.35h4.9C200.88,77.78,189,77.75,189,77.75Z"/><path d="M32.75,105.2s0-.45,0-1.36H30c0,3-.08,6.44-.16,10.26H26.18c-.09-3.71-.16-7.17-.19-10.25H22.88c0,.42,0,.87,0,1.36H19.48c-.33-8.89-.42-14.6-.42-14.6h4.06v.35h2.69l-.06-5.46H30.2s0,1.82-.05,5.46H33a.94.94,0,0,1,0-.35h3.32c.37,8.85.46,14.59.46,14.59ZM26,102.11c-.06-3.71-.09-6.9-.12-9.45H23.11c0,1.86-.08,5-.19,9.45Zm6.83,0c0-2.1.08-5.25.19-9.45H30.15c0,2.48,0,5.63-.13,9.45Z"/><path d="M52.67,85.4l4.3.85a8.06,8.06,0,0,1-2.49,3.07h4.34v-.28h4.06c.1,3.89.16,7.46.22,10.61.36-.35.74-.74,1.09-1.12l2.06,3.78q-1.57,1.68-3,3l.09,8.15c-3.86.34-7.08.48-7.08.48v-3.5c-7,3.94-11.8,3-11.8,3a62.82,62.82,0,0,0,11.92-7.82,36.85,36.85,0,0,1-10.61,1.77l-.45-4.13h2.38C47.33,94.8,47.24,89,47.24,89h3.85A13.83,13.83,0,0,0,52.67,85.4Zm6,14.43H51.83l-.11,3.39c2.94-.13,5.25-.3,6.9-.47C58.62,101.83,58.62,100.85,58.66,99.83Zm0-4.62H51.91c0,.87,0,1.82,0,2.9l6.79,0C58.7,97.17,58.7,96.23,58.7,95.21ZM52,91c0,.67,0,1.47,0,2.45l6.79,0c0-.81,0-1.61,0-2.45Zm6.54,18a17.42,17.42,0,0,1-1.68,1.08c.39,0,.95,0,1.68.08Z"/><path d="M86,102.59c-2.36,9.37-8.59,9.33-8.59,9.33s2.66-2.1,3.94-9.34l-7.39,0v-1.4l7.59,0c.14-1.09.25-2.28.36-3.61-4.1,1.18-5.7-1.09-5.7-1.09s4.55-1,9.18-6.46l3.46,3.51c-.7.56-1.33,1-2,1.5a37.73,37.73,0,0,1-.57,6.16h2.17l1.4-1.36,1.4,1.37v1.4Z"/><path d="M101.47,95.38s2.87,0,14,.27c0,17.5-12.88,16.32-12.88,16.32s6.69-2.93,7.83-13.32l-9,.3Zm13.69-2.5-12.63,0v-1.4l9.84,0,1.4-1.4,1.4,1.4Z"/><path d="M127.84,104.71c-.32-10.54-.41-17.75-.41-17.75h4.76v.42l8.62,0V87h4.06c.36,10.53.41,17.74.41,17.74h-4.16c0,.94,0,2.48-.12,4.65l2.38-.1c.25-1.36.43-2.13.43-2.13l3.78,1s-.5,2-1.7,5.81c0,0-2.9,0-8.4-.26-.27-4.83-.4-8.44-.43-9.59h-1.68c-.37,8.65-7.76,10.14-7.76,10.14a22.34,22.34,0,0,0,3.24-9.52Zm4.14-2.34,8.54,0c0-.84,0-2,0-3.26H132C132,100.13,132,101.22,132,102.37Zm.08-5,8.54,0c0-1,0-2.1,0-3.29l-8.5,0C132.1,95.09,132.1,96.21,132.06,97.4Zm.08-5,8.54,0c0-1,0-2.13.08-3.29l-8.58,0C132.18,90,132.18,91.06,132.14,92.39Z"/><path d="M157.08,98.36H153V97h4l-.16-4.16,4.9-.17.17,4.34h4.2V90.89H171V97h2.17l1.4-1.4L176,97v1.4H171v4h-4.9v-4H162l.17,4.45c.26,6.41,4.81,7.5,10.48,6.78-2.7,3.14-14.92,4.55-15.35-6.58Z"/><path d="M192,105.79h-3c-.65-7.45-1-14.84-1-14.84h4.9S192.43,99.35,192,105.79Zm-1.61,2.06a2.16,2.16,0,0,0-2.18,2.13,2.17,2.17,0,1,0,4.34,0A2.15,2.15,0,0,0,190.35,107.85Z"/></svg>