<svg id="レイヤー_1" data-name="レイヤー 1" xmlns="http://www.w3.org/2000/svg" viewBox="0 0 284.6 231.99"><defs><style>.cls-1{fill:#fff;}.cls-2{fill:none;stroke:#efe4dc;stroke-linecap:round;stroke-linejoin:round;stroke-width:29px;}</style></defs><path class="cls-1" d="M167.16,226.54h0a48.17,48.17,0,0,1,37.67-4.87c2.07-6.74,6.6-12.53,11.92-17.16s11.44-8.25,17.52-11.83a223.6,223.6,0,0,1-16.61-36.88,3.23,3.23,0,0,0-1.5-2.14,3,3,0,0,0-1.76,0,40.77,40.77,0,0,0-29.56,25.63c.48-1.34-13.84-3.87-15.23-3.95a37.78,37.78,0,0,0-16.21,2.36c-5.45,2.25-3.29,5.92-1.5,10.44l7.14,18Z"/><path d="M152.6,178.18a39.79,39.79,0,0,1,32.09-.28,1.05,1.05,0,0,0,1.3-.45c4.83-12,16-21.18,28.78-23.12l-.63-.24A435.54,435.54,0,0,0,233.07,195l.43-.52c-12,5.48-26,12.55-28.76,26.87l1.29-.45a37.33,37.33,0,0,0-34.88,3.77l1.18,0-17.66-43c-.22-.54-1.66-.11-1.45.39l17.66,43c.18.42.91.24,1.19,0a35,35,0,0,1,32.82-3.53c.37.16,1.21.05,1.3-.44,2.64-13.93,16.23-20.72,27.9-26,.13-.06.54-.31.43-.53a435.54,435.54,0,0,1-18.93-40.92c-.1-.23-.42-.27-.64-.24a39.68,39.68,0,0,0-30.42,24.15l1.3-.45a41.92,41.92,0,0,0-33.82.36c-.91.41-.08,1,.59.66Z"/><path d="M187.8,184.07a233.47,233.47,0,0,1,14.75,32c.2.52,1.63.1,1.45-.39a233.47,233.47,0,0,0-14.75-32c-.28-.5-1.68,0-1.45.39Z"/><path d="M210,221.16c-.24-2.72,1.81-5,3.49-6.87a49.2,49.2,0,0,1,17.82-12.8c.92-.38.1-1.1-.62-.79a50.86,50.86,0,0,0-13.57,8.44,52.12,52.12,0,0,0-5.54,5.58c-1.65,2-3.27,4.14-3,6.83.06.62,1.51.28,1.45-.39Z"/><path d="M213.74,220.16A30.19,30.19,0,0,1,230.81,207c.86-.26.66-1.06-.22-.8a32,32,0,0,0-18.2,13.88c-.38.61,1.08.51,1.35.07Z"/><path d="M201.94,224.07a26.8,26.8,0,0,0-28,3.22c-.76.62.41,1.07,1,.63a24.78,24.78,0,0,1,25.95-3c.55.26,1.83-.48,1.13-.82Z"/><path d="M175.78,231.75a21.38,21.38,0,0,1,24.55-4.15c.61.31,1.66-.58.83-1a23.29,23.29,0,0,0-26.6,4.7c-.63.65.76.93,1.22.45Z"/><path d="M204.39,227.67a60.74,60.74,0,0,0,7.31-3.3c.23-.12.4-.42.12-.58s-.75,0-1,.13a59.72,59.72,0,0,1-7,3.13c-.22.08-.58.34-.39.59s.73.11,1,0Z"/><path d="M145.76,228.59c-3-4.2-8.24-3.08-12.5-1.21.91-2.59,1.27-5.59-1.37-7.22-1.57-1-3.48-.65-5.19-.33-.87.17-1.74.38-2.59.62,2.1-2.41,4.6-5.07,3.37-8.32s-4.62-3.11-7.72-3c2.49-1,4.91-2.14,6-4.71,1.18-2.83-.47-5.37-2.49-7.35a22.93,22.93,0,0,0,8.59-1.88c.44-.19,1.15-.71.75-1.24s-1.46-.27-1.93-.07a17.87,17.87,0,0,1-9.77,1.28,2.53,2.53,0,0,0-1.78.34c-.27.18-.84.74-.43,1.07,2.16,1.74,5.28,4.39,4.38,7.54-.94,3.32-5.36,3.87-8,5.14-.56.27-1.45,1.3-.29,1.49,2,.31,4-.05,6,0,1.69,0,3.5.68,4,2.48,1,3.64-3,6.39-4.83,9-.74,1.09,1.52.89,2,.72a25.56,25.56,0,0,1,4.25-1.34c1.27-.28,2.8-.73,3.85.27,2.14,2,.8,5.26-.23,7.47-.62,1.33,1.75.84,2.27.55,3.38-1.88,8.26-4.18,11.12-.16C143.68,230.61,146.48,229.61,145.76,228.59Z"/><path d="M261.47,180.32a3.61,3.61,0,0,0-2.13-.24A5.59,5.59,0,0,0,257,181a2.55,2.55,0,0,0-1,1.23,2,2,0,0,0,0,1.41,2.14,2.14,0,0,0,.3.51,2,2,0,0,0,1,.78,3,3,0,0,0,1.54.24,6.39,6.39,0,0,0,1.06-.2l.24-.07.28-.09a2.86,2.86,0,0,0,2.14-2.14A2.16,2.16,0,0,0,261.47,180.32Zm-2.27,2.82c.12-.09.4-.28.33-.47a1,1,0,0,1-.07-.28,1.3,1.3,0,0,1,.05,1.22,2.11,2.11,0,0,1-.4-.39v0A.53.53,0,0,1,259.2,183.14Z"/><path d="M265.58,156.66c-1.79-.36-4-1.25-5.74-.17a2.07,2.07,0,0,0-.89,2c0,1.11,0,2.22,0,3.33q0,6.31.09,12.65a.36.36,0,0,0,.11.26c.07,1,2.62.35,2.9-.48a98.85,98.85,0,0,0,4.13-16.95C266.2,156.91,265.9,156.73,265.58,156.66Z"/><path d="M283.56,174a3,3,0,0,0,.89-1.73.42.42,0,0,0,.13-.43c-.06-.14-.16-.27-.23-.41a2.87,2.87,0,0,0-.19-.4,1.27,1.27,0,0,1-.1-.12c-.13-.19-.28-.38-.43-.56l-.08-.1a9.51,9.51,0,0,0-2.35-1.95c-2.08-1.51-4.66-3-7.31-2.75-2.26.18-5.78,2.29-4.08,5a.54.54,0,0,0,.16.14,2.76,2.76,0,0,0,.08.27c.17.43.86.41,1.23.35a2.65,2.65,0,0,0,2.27-1.45,1.86,1.86,0,0,0,.1-.58,2.49,2.49,0,0,0,.32-.2,3.17,3.17,0,0,1,.39-.27l0,0h0l.19-.08.64.25a13.93,13.93,0,0,1,2.9,1.42c.26.18.52.38.77.59a5.34,5.34,0,0,1,.38,1.17l0,.76a15.63,15.63,0,0,1-2.89,1.65c-1.26.55-2.79.77-3.81,1.74-.08.08-.14.17-.21.25a2.91,2.91,0,0,0-1.09.87,8.33,8.33,0,0,0-1,3.54,26.72,26.72,0,0,0-.31,3.89h0c0,.06,0,.12,0,.19,0,.23.16.35.41.39.56.45,2.6,0,2.76-.78s.34-1.71.52-2.56.51-1.54.77-2.31c.16-.47.31-.94.47-1.42,1.09-.44,2.17-.9,3.22-1.42A10.79,10.79,0,0,0,283.56,174Z"/><path d="M271.84,189.92a2.36,2.36,0,0,0-1.52-.26l-.35.05a3.35,3.35,0,0,0-.54.08,3.57,3.57,0,0,0-.86.19,2.54,2.54,0,0,0-1.29.89,1.46,1.46,0,0,0-.26.69,1.33,1.33,0,0,0,.11.74.56.56,0,0,0,.05.08,1.92,1.92,0,0,0,.72,1.28v0c.13.36.57.45.9.46a1.71,1.71,0,0,0,.45,0,3.89,3.89,0,0,0,2.1-.53,2.75,2.75,0,0,0,1.22-1.48,1.9,1.9,0,0,0,0-1.37A1.86,1.86,0,0,0,271.84,189.92Z"/><path d="M254,197a2.46,2.46,0,0,0-1.68.84c-.46.66-.91,1.33-1.36,2l0-3.34c0-.37-1.05-.24-1.2-.21a2.93,2.93,0,0,0-1.57.68c-.72.67-1.4,1.38-2.07,2.09,0-2,0-4-.1-6,0-.61-2.93-.12-2.9.77.13,2.92.15,5.85.07,8.77,0,.37,1.06.24,1.2.21a2.69,2.69,0,0,0,1.57-.67c.69-.85,1.4-1.66,2.13-2.46l.06,4.52c0,.43,1.22.21,1.39.17a2.35,2.35,0,0,0,1.49-.79l4.19-6.15C255.49,196.88,254.11,197,254,197Z"/><path d="M265.1,201.39a7.78,7.78,0,0,0-7-1c-.51.17-1.23.58-1.2,1.21a4.19,4.19,0,0,0-1.77,3.53,4.52,4.52,0,0,0,3.6,3.95,7,7,0,0,0,6.49-2,4.53,4.53,0,0,0,1.43-2.86A3.37,3.37,0,0,0,265.1,201.39Zm-6,1.33-.12.05A.28.28,0,0,1,259.08,202.72Zm4.3,2.75a4.45,4.45,0,0,1-.38.48c-.06.06-.12.13-.19.19l0,0h0q-.21.18-.42.33l-.22.15,0,0-.06,0-.52.24h0l-.25.08-.1,0-.15,0-.26,0h-.15l-.23,0h-.12l-.13,0-.23-.07-.22-.09h0a3.27,3.27,0,0,1-.5-.32,2.74,2.74,0,0,1-1-1.33,2.4,2.4,0,0,1-.1-.48.56.56,0,0,0,0-.07c0-.11,0-.22,0-.33a3.22,3.22,0,0,1,.1-.54c-.05.15.11-.24.14-.29l.1-.2v0l0,0c0-.05.09-.11.14-.17s.28-.25.05-.07l.17-.13,0,0h0l.06,0,.18,0a1.86,1.86,0,0,0,1-.67l.18,0a4.35,4.35,0,0,1,.52.06l.2,0,.17.05.5.16.24.1.16.08a3.22,3.22,0,0,1,1.49,1.3A1.76,1.76,0,0,1,263.38,205.47Z"/><path d="M282,209.3a5.21,5.21,0,0,0-2.38,1.13l-2,1.41a26.37,26.37,0,0,1,.34-4c.13-.78-1.24-.66-1.64-.53a25.19,25.19,0,0,0-4.33,1.94c.3-1.59.61-3.18.92-4.76.21-1.08-2.71-.61-2.89.37l-1.32,6.79c-.1.49.53.61.88.62a2.69,2.69,0,0,0,1.72-.58,18.94,18.94,0,0,1,3.59-2.21,28.38,28.38,0,0,0-.13,4.79c0,.35.66.42.89.42a2.59,2.59,0,0,0,1.46-.39l2.72-2,1.36-1,.28-.21c.89.11,2.39-.45,2.27-1.22S282.55,209.23,282,209.3Zm-1.1,1.42-.08,0Z"/><path class="cls-2" d="M65.89,63.39s-3.24,1.06-7.33,2.31c2.73,8.56,8.37,26.16,11.3,34.7l-3.24,1.36c-5.48-12.28-15-39.61-15-39.61,6.85-2.81,12.25-4.66,12.25-4.66Z"/><path class="cls-2" d="M86,93.61s-.34-8.82-7.84-29.19l5.77-2,.2.59,1.32-.45L85.2,62l5.72-2s.67,1.95,9.19,27.8c-4.19,2-7.78,3.38-7.78,3.38l-1.71-5s1-.34,3.12-1l-2.23-6-3.22,1.11C89.49,91.22,86,93.61,86,93.61Zm.35-23.22,1.77-.61c-.81-2.21-1.41-3.82-1.86-5l-1.41.48C85.38,67.11,85.91,68.8,86.3,70.39ZM87.93,78l2.77-1c-.65-1.91-1.26-3.52-1.82-5l-2,.69Q87.57,75.56,87.93,78Zm9.24-16.11a26.75,26.75,0,0,0-6.48-5.74s4.3-2.85,10.52,2.12ZM110.35,60l5.31-1.83s.78,2.28,7.76,23.63l-4.36,1.5c-.18-.5-.39-1-.56-1.48l-11.67,4a12.6,12.6,0,0,0,.47,1.51l-4.36,1.5c-7.09-19.19-8.66-23.32-8.66-23.32l5.26-1.8s.69,2,6.52,19.89l11.63-4C111.73,63.59,110.35,60,110.35,60Zm-3.63-4.95-4.28,3.35a26.28,26.28,0,0,0-6.07-6.14S100.86,49.66,106.72,55.06Zm4,6a36.36,36.36,0,0,1-.46,7.67,21.81,21.81,0,0,1,3.89,2.32l-2.71,3.77a23.66,23.66,0,0,0-2.27-2c-1.74,5-4.37,6.77-4.37,6.77a39.52,39.52,0,0,0,1.62-8.72,33.73,33.73,0,0,0-5.32-3,10.69,10.69,0,0,1,5.54-.27,57.4,57.4,0,0,0-.43-8.33Zm-2.9-14.23,5.44-.4c0,8.77-6.79,11.26-6.79,11.26A23.56,23.56,0,0,0,107.82,46.87Z"/><path class="cls-2" d="M143.56,71.6l-5.09,1.75c-4.84-12-10.26-27.24-10.26-27.24l6.36-2.18S139.38,58,143.56,71.6Zm6.54-12.45c-8,2.76-11.32-5.45-11.32-5.45a17.77,17.77,0,0,0,9.13-.9Z"/><path class="cls-2" d="M178.52,44.68s2.47,10.16-8.13,17.71l-5.13,1.76c-4.84-12-10-26.42-10-26.42l6.35-2.18s3.21,9.36,6.76,20.42A21.2,21.2,0,0,0,178.52,44.68Z"/><path class="cls-2" d="M205.46,54.11c-6.86,2.81-12.26,4.66-12.26,4.66l-2-5.85s3.23-1.11,7.31-2.36c-2.73-8.55-8.37-26.16-11.3-34.69l3.24-1.37C195.94,26.82,205.46,54.11,205.46,54.11Z"/><path class="cls-2" d="M19.45,159.66a30,30,0,0,0,7.4-27.26c-6.4,2.5-10.76,4-10.76,4l-1.59-4.63s8-2.74,17.59-5.68c2.76,8,2.62,14.27,1.12,19.1,2.45-1.3,6.95-2.54,13.46.15l-3.06,6C40,149.05,35,147.68,32.5,147.11A23.82,23.82,0,0,1,19.45,159.66Z"/><path class="cls-2" d="M63.81,115.3l6.36-2.18c9,26.15-6.42,31.43-6.42,31.43s3.78-3.93,3.28-14a19,19,0,0,0-7.36.45l-1.48-4.62a10.92,10.92,0,0,1-4.44,6.44s.94-3.62-2.69-14.2l6.35-2.18a17.4,17.4,0,0,1,.82,9.77c4.5-1.24,7.14.24,8.59,1.82a53.31,53.31,0,0,0-2.28-10.48l-5,1.71-.62-1.81,5-1.73Z"/><path class="cls-2" d="M88.56,119.85s8.49-2.76,24.27-7.67l1.43,4.18c-17.1,6.22-24,8.58-24,8.58Z"/><path class="cls-2" d="M141.63,117.72l-5.09,1.75c-4.84-12-10.26-27.23-10.26-27.23l6.36-2.19S137.45,104.08,141.63,117.72Zm6.54-12.44c-8,2.76-11.32-5.46-11.32-5.46a17.64,17.64,0,0,0,9.13-.9Z"/><path class="cls-2" d="M173.69,81.9C164.41,85.49,161,86.75,161,86.75l-1.61-4.67s4.82-1.66,19.41-6.31c8.71,25.38-7.7,31.83-7.7,31.83S178.27,99.26,173.69,81.9Zm6.12-8a10.27,10.27,0,0,0-3.38-2.14,4.17,4.17,0,0,1,.48,3.9,11.82,11.82,0,0,0-3.8-2.35l1.29-3a5.14,5.14,0,0,1,1.7,1.09l1.2-2.85A4.06,4.06,0,0,1,179.81,73.86Z"/><path class="cls-2" d="M198.27,74.28l3.95-1.36A43.63,43.63,0,0,0,206,80.86S201.21,82.86,198.27,74.28Zm6-2.07,4-1.38a46.46,46.46,0,0,0,3.75,8S207.25,80.79,204.31,72.21Zm9.35.49L219,70.88c6.23,18.16-10,23.74-10,23.74S217.92,85.1,213.66,72.7Z"/><path class="cls-2" d="M239.48,53.89c4.1,11.94-3.69,16.44-3.69,16.44s1-3.63-2.66-14.26ZM245.77,82s7-7.21.84-27l-5,1.72L241,54.91,246,53.16l-.16-.45,6.36-2.18C261.21,76.68,245.77,82,245.77,82Z"/><path class="cls-2" d="M54.21,183.6s-.2-.59-.56-1.79L50.06,183c1.31,4,2.78,8.39,4.39,13.37L49.68,198c-1.79-4.76-3.42-9.23-4.84-13.21l-4,1.39c.19.55.39,1.14.56,1.79L37,189.5c-4.41-11.37-7.08-18.73-7.08-18.73L35.18,169l.16.46,3.49-1.2-2.52-7.05,5.77-2s.81,2.36,2.38,7.1L48.19,165a1.51,1.51,0,0,1-.11-.47l4.31-1.48c4.44,11.32,7.14,18.71,7.14,18.71Zm-10.18-1c-1.74-4.78-3.2-8.89-4.39-12.19l-3.54,1.21c.83,2.41,2.14,6.53,4,12.34Zm8.86-3c-.89-2.74-2.25-6.85-4-12.34l-3.68,1.26c1.06,3.24,2.46,7.33,4.07,12.31Z"/><path class="cls-2" d="M71.16,149l6-.82a11.19,11.19,0,0,1-1.85,5.1l5.63-1.94-.12-.36L86,149.17c1.87,5,3.55,9.6,5,13.65.3-.61.63-1.28.91-1.93l4.36,4c-.86,1.92-1.73,3.69-2.59,5.31l3.77,10.53c-4.84,2.17-9,3.78-9,3.78L87,180c-7.36,8.26-14,9.16-14,9.16s5.41-5.11,12-15.47a50.79,50.79,0,0,1-13,7l-2.43-5.16,3.09-1.06c-4.25-10.87-7-18.32-7-18.32l5-1.71A18.67,18.67,0,0,0,71.16,149Zm1.65,7.61c.3.86.61,1.92,1,3.19l8.8-3c-.36-1.05-.67-2.11-1-3.19ZM83.38,159l-8.81,3c.39,1.14.77,2.38,1.25,3.79l8.81-3C84.25,161.56,83.83,160.34,83.38,159Zm2,6-8.85,3,1.38,4.45c3.75-1.49,6.67-2.75,8.72-3.71C86.24,167.63,85.8,166.36,85.39,165Zm4,12a26.91,26.91,0,0,1-1.7,2.15c.51-.12,1.24-.37,2.21-.65Z"/><path class="cls-2" d="M122,156.37c1.13,13.21-7,15.94-7,15.94s2.52-3.91.93-13.87l-9.58,3.29-.63-1.81,9.86-3.39c-.31-1.47-.7-3.06-1.16-4.83-4.78,3.37-7.88,1.13-7.88,1.13s5.47-3.29,9-12.48l6.06,3c-.66,1-1.26,2-1.87,2.82a52.4,52.4,0,0,1,2,8.24l2.82-1,1.2-2.4,2.43,1.15.62,1.82Z"/><path class="cls-2" d="M155.52,130.71l-16.39,5.62-.62-1.81,12.76-4.38,1.19-2.44,2.44,1.19Zm-16.63,9.36s3.72-1.28,18.32-5.93c7.79,22.7-9.39,26.92-9.39,26.92s7.36-6.79,4.19-20.77l-11.53,4.41Z"/><path class="cls-2" d="M177.25,140.35c-5.14-13.51-8.49-22.81-8.49-22.81l6.18-2.12.18.54,11.17-3.83-.18-.55,5.26-1.8c5.19,13.49,8.49,22.81,8.49,22.81l-5.4,1.86c.42,1.22,1.06,3.24,1.94,6.08l3-1.19c-.29-1.88-.41-3-.41-3l5.34-.41s.25,2.8.41,8.28c0,0-3.77,1.3-11,3.42-2.51-6.14-4.3-10.75-4.86-12.23l-2.18.75c3.4,11.36-5.51,16.61-5.51,16.61a30.81,30.81,0,0,0-.06-13.79Zm.06-17.88,11.07-3.8c-.4-1.34-.9-2.79-1.37-4.3l-11.12,3.82C176.28,119.32,176.76,120.73,177.31,122.47Zm2.13,6.52,11.08-3.8c-.45-1.32-.89-2.74-1.42-4.28l-11,3.78C178.46,126,179,127.43,179.44,129Zm2.13,6.48,11.07-3.8c-.37-1.09-.82-2.56-1.4-4.24l-11.08,3.8C180.61,132.55,181.05,134,181.57,135.47Z"/><path class="cls-2" d="M212.31,119,207,120.86l-.62-1.82,5.22-1.79-2.09-5.33,6.28-2.41,2.16,5.56,5.45-1.87-2.71-7.91,6.36-2.18,2.71,7.9,2.81-1,1.2-2.44,2.39,1.21.62,1.81-6.4,2.2,1.76,5.13-6.35,2.18L224,115l-5.35,1.84,2.2,5.69c3.22,8.18,9.6,7.57,16.63,4.09-2.09,5.28-17.3,12.58-22.84-1.65Z"/><path class="cls-2" d="M260.85,113l-4,1.36C252.71,105,249,95.59,249,95.59l6.36-2.18S258.57,104.47,260.85,113Zm-1.17,3.4a2.94,2.94,0,0,0-1.87,3.73,3,3,0,1,0,5.63-1.93A3,3,0,0,0,259.68,116.43Z"/><path d="M65.89,63.39s-3.24,1.06-7.33,2.31c2.73,8.56,8.37,26.16,11.3,34.7l-3.24,1.36c-5.48-12.28-15-39.61-15-39.61,6.85-2.81,12.25-4.66,12.25-4.66Z"/><path d="M86,93.61s-.34-8.82-7.84-29.19l5.77-2,.2.59,1.32-.45L85.2,62l5.72-2s.67,1.95,9.19,27.8c-4.19,2-7.78,3.38-7.78,3.38l-1.71-5s1-.34,3.12-1l-2.23-6-3.22,1.11C89.49,91.22,86,93.61,86,93.61Zm.35-23.22,1.77-.61c-.81-2.21-1.41-3.82-1.86-5l-1.41.48C85.38,67.11,85.91,68.8,86.3,70.39ZM87.93,78l2.77-1c-.65-1.91-1.26-3.52-1.82-5l-2,.69Q87.57,75.56,87.93,78Zm9.24-16.11a26.75,26.75,0,0,0-6.48-5.74s4.3-2.85,10.52,2.12ZM110.35,60l5.31-1.83s.78,2.28,7.76,23.63l-4.36,1.5c-.18-.5-.39-1-.56-1.48l-11.67,4a12.6,12.6,0,0,0,.47,1.51l-4.36,1.5c-7.09-19.19-8.66-23.32-8.66-23.32l5.26-1.8s.69,2,6.52,19.89l11.63-4C111.73,63.59,110.35,60,110.35,60Zm-3.63-4.95-4.28,3.35a26.28,26.28,0,0,0-6.07-6.14S100.86,49.66,106.72,55.06Zm4,6a36.36,36.36,0,0,1-.46,7.67,21.81,21.81,0,0,1,3.89,2.32l-2.71,3.77a23.66,23.66,0,0,0-2.27-2c-1.74,5-4.37,6.77-4.37,6.77a39.52,39.52,0,0,0,1.62-8.72,33.73,33.73,0,0,0-5.32-3,10.69,10.69,0,0,1,5.54-.27,57.4,57.4,0,0,0-.43-8.33Zm-2.9-14.23,5.44-.4c0,8.77-6.79,11.26-6.79,11.26A23.56,23.56,0,0,0,107.82,46.87Z"/><path d="M143.56,71.6l-5.09,1.75c-4.84-12-10.26-27.24-10.26-27.24l6.36-2.18S139.38,58,143.56,71.6Zm6.54-12.45c-8,2.76-11.32-5.45-11.32-5.45a17.77,17.77,0,0,0,9.13-.9Z"/><path d="M178.52,44.68s2.47,10.16-8.13,17.71l-5.13,1.76c-4.84-12-10-26.42-10-26.42l6.35-2.18s3.21,9.36,6.76,20.42A21.2,21.2,0,0,0,178.52,44.68Z"/><path d="M205.46,54.11c-6.86,2.81-12.26,4.66-12.26,4.66l-2-5.85s3.23-1.11,7.31-2.36c-2.73-8.55-8.37-26.16-11.3-34.69l3.24-1.37C195.94,26.82,205.46,54.11,205.46,54.11Z"/><path d="M19.45,159.66a30,30,0,0,0,7.4-27.26c-6.4,2.5-10.76,4-10.76,4l-1.59-4.63s8-2.74,17.59-5.68c2.76,8,2.62,14.27,1.12,19.1,2.45-1.3,6.95-2.54,13.46.15l-3.06,6C40,149.05,35,147.68,32.5,147.11A23.82,23.82,0,0,1,19.45,159.66Z"/><path d="M63.81,115.3l6.36-2.18c9,26.15-6.42,31.43-6.42,31.43s3.78-3.93,3.28-14a19,19,0,0,0-7.36.45l-1.48-4.62a10.92,10.92,0,0,1-4.44,6.44s.94-3.62-2.69-14.2l6.35-2.18a17.4,17.4,0,0,1,.82,9.77c4.5-1.24,7.14.24,8.59,1.82a53.31,53.31,0,0,0-2.28-10.48l-5,1.71-.62-1.81,5-1.73Z"/><path d="M88.56,119.85s8.49-2.76,24.27-7.67l1.43,4.18c-17.1,6.22-24,8.58-24,8.58Z"/><path d="M141.63,117.72l-5.09,1.75c-4.84-12-10.26-27.23-10.26-27.23l6.36-2.19S137.45,104.08,141.63,117.72Zm6.54-12.44c-8,2.76-11.32-5.46-11.32-5.46a17.64,17.64,0,0,0,9.13-.9Z"/><path d="M173.69,81.9C164.41,85.49,161,86.75,161,86.75l-1.61-4.67s4.82-1.66,19.41-6.31c8.71,25.38-7.7,31.83-7.7,31.83S178.27,99.26,173.69,81.9Zm6.12-8a10.27,10.27,0,0,0-3.38-2.14,4.17,4.17,0,0,1,.48,3.9,11.82,11.82,0,0,0-3.8-2.35l1.29-3a5.14,5.14,0,0,1,1.7,1.09l1.2-2.85A4.06,4.06,0,0,1,179.81,73.86Z"/><path d="M198.27,74.28l3.95-1.36A43.63,43.63,0,0,0,206,80.86S201.21,82.86,198.27,74.28Zm6-2.07,4-1.38a46.46,46.46,0,0,0,3.75,8S207.25,80.79,204.31,72.21Zm9.35.49L219,70.88c6.23,18.16-10,23.74-10,23.74S217.92,85.1,213.66,72.7Z"/><path d="M239.48,53.89c4.1,11.94-3.69,16.44-3.69,16.44s1-3.63-2.66-14.26ZM245.77,82s7-7.21.84-27l-5,1.72L241,54.91,246,53.16l-.16-.45,6.36-2.18C261.21,76.68,245.77,82,245.77,82Z"/><path d="M54.21,183.6s-.2-.59-.56-1.79L50.06,183c1.31,4,2.78,8.39,4.39,13.37L49.68,198c-1.79-4.76-3.42-9.23-4.84-13.21l-4,1.39c.19.55.39,1.14.56,1.79L37,189.5c-4.41-11.37-7.08-18.73-7.08-18.73L35.18,169l.16.46,3.49-1.2-2.52-7.05,5.77-2s.81,2.36,2.38,7.1L48.19,165a1.51,1.51,0,0,1-.11-.47l4.31-1.48c4.44,11.32,7.14,18.71,7.14,18.71Zm-10.18-1c-1.74-4.78-3.2-8.89-4.39-12.19l-3.54,1.21c.83,2.41,2.14,6.53,4,12.34Zm8.86-3c-.89-2.74-2.25-6.85-4-12.34l-3.68,1.26c1.06,3.24,2.46,7.33,4.07,12.31Z"/><path d="M71.16,149l6-.82a11.19,11.19,0,0,1-1.85,5.1l5.63-1.94-.12-.36L86,149.17c1.87,5,3.55,9.6,5,13.65.3-.61.63-1.28.91-1.93l4.36,4c-.86,1.92-1.73,3.69-2.59,5.31l3.77,10.53c-4.84,2.17-9,3.78-9,3.78L87,180c-7.36,8.26-14,9.16-14,9.16s5.41-5.11,12-15.47a50.79,50.79,0,0,1-13,7l-2.43-5.16,3.09-1.06c-4.25-10.87-7-18.32-7-18.32l5-1.71A18.67,18.67,0,0,0,71.16,149Zm1.65,7.61c.3.86.61,1.92,1,3.19l8.8-3c-.36-1.05-.67-2.11-1-3.19ZM83.38,159l-8.81,3c.39,1.14.77,2.38,1.25,3.79l8.81-3C84.25,161.56,83.83,160.34,83.38,159Zm2,6-8.85,3,1.38,4.45c3.75-1.49,6.67-2.75,8.72-3.71C86.24,167.63,85.8,166.36,85.39,165Zm4,12a26.91,26.91,0,0,1-1.7,2.15c.51-.12,1.24-.37,2.21-.65Z"/><path d="M122,156.37c1.13,13.21-7,15.94-7,15.94s2.52-3.91.93-13.87l-9.58,3.29-.63-1.81,9.86-3.39c-.31-1.47-.7-3.06-1.16-4.83-4.78,3.37-7.88,1.13-7.88,1.13s5.47-3.29,9-12.48l6.06,3c-.66,1-1.26,2-1.87,2.82a52.4,52.4,0,0,1,2,8.24l2.82-1,1.2-2.4,2.43,1.15.62,1.82Z"/><path d="M155.52,130.71l-16.39,5.62-.62-1.81,12.76-4.38,1.19-2.44,2.44,1.19Zm-16.63,9.36s3.72-1.28,18.32-5.93c7.79,22.7-9.39,26.92-9.39,26.92s7.36-6.79,4.19-20.77l-11.53,4.41Z"/><path d="M177.25,140.35c-5.14-13.51-8.49-22.81-8.49-22.81l6.18-2.12.18.54,11.17-3.83-.18-.55,5.26-1.8c5.19,13.49,8.49,22.81,8.49,22.81l-5.4,1.86c.42,1.22,1.06,3.24,1.94,6.08l3-1.19c-.29-1.88-.41-3-.41-3l5.34-.41s.25,2.8.41,8.28c0,0-3.77,1.3-11,3.42-2.51-6.14-4.3-10.75-4.86-12.23l-2.18.75c3.4,11.36-5.51,16.61-5.51,16.61a30.81,30.81,0,0,0-.06-13.79Zm.06-17.88,11.07-3.8c-.4-1.34-.9-2.79-1.37-4.3l-11.12,3.82C176.28,119.32,176.76,120.73,177.31,122.47Zm2.13,6.52,11.08-3.8c-.45-1.32-.89-2.74-1.42-4.28l-11,3.78C178.46,126,179,127.43,179.44,129Zm2.13,6.48,11.07-3.8c-.37-1.09-.82-2.56-1.4-4.24l-11.08,3.8C180.61,132.55,181.05,134,181.57,135.47Z"/><path d="M212.31,119,207,120.86l-.62-1.82,5.22-1.79-2.09-5.33,6.28-2.41,2.16,5.56,5.45-1.87-2.71-7.91,6.36-2.18,2.71,7.9,2.81-1,1.2-2.44,2.39,1.21.62,1.81-6.4,2.2,1.76,5.13-6.35,2.18L224,115l-5.35,1.84,2.2,5.69c3.22,8.18,9.6,7.57,16.63,4.09-2.09,5.28-17.3,12.58-22.84-1.65Z"/><path d="M260.85,113l-4,1.36C252.71,105,249,95.59,249,95.59l6.36-2.18S258.57,104.47,260.85,113Zm-1.17,3.4a2.94,2.94,0,0,0-1.87,3.73,3,3,0,1,0,5.63-1.93A3,3,0,0,0,259.68,116.43Z"/></svg>