<svg id="レイヤー_1" data-name="レイヤー 1" xmlns="http://www.w3.org/2000/svg" viewBox="0 0 192.75 63.63"><defs><style>.cls-1{fill:#f0908a;}</style></defs><path class="cls-1" d="M12.92,26.25c5.7-2.41,7.45-6.61,4.62-9.24a4.69,4.69,0,0,0-3.61-1c-.77,7.81-2.55,8.16-4.69,8.16-5.11,0-6.19-4.76-2.73-7.91a15,15,0,0,1,3.15-2.07c0-1.36,0-3-.1-5H6.93V7.84H9.52C9.49,7,9.49,6,9.45,5h4.9c0,1,0,1.93,0,2.84h2.24L18,6.44l1.4,1.4v1.4H14.28l-.1,3.54a9.22,9.22,0,0,1,5,.38C26.57,16.24,24.22,26.25,12.92,26.25ZM9.66,17.4a6.06,6.06,0,0,0-2,1.71c-.7,1.09-.31,2.17.88,2.17C9.14,21.28,9.56,21.49,9.66,17.4ZM24.5,15.61a11.34,11.34,0,0,0-5-4.48L21.6,7.46C27.37,11.34,24.5,15.61,24.5,15.61Zm23.35,6.58v-.38H44.07c0,2.1,0,4.3-.07,6.68H40.29c-.07-2.34-.11-4.55-.14-6.68H36v.38H32.24c-.39-10.85-.49-18.27-.49-18.27h4.44V4.3h3.68L39.8,0h4.44s0,1.43,0,4.3h3.88c0-.13,0-.24,0-.38H51.8c.39,10.85.49,18.27.49,18.27Zm-7.74-2.1L40,13.93H36.09L36,20.09Zm-4-7.87H40L39.87,6H36.16C36.16,7.42,36.16,9.49,36.12,12.22Zm11.76,7.87c0-1.36,0-3.43.07-6.16H44.14c0,1.86,0,3.92,0,6.16Zm-3.71-7.87H48L48.06,6H44.21C44.21,7.74,44.17,9.8,44.17,12.22ZM65.87,5h4.9c-2.34,16.77.18,19.4,5.64,17.51a5.55,5.55,0,0,1-5.18,3.71C65.28,26.22,64.16,18.83,65.87,5ZM87.82,16.17H85.37V14.46h6.37a6.55,6.55,0,0,1-2.07,4.86h3.08a8.46,8.46,0,0,1-.91,4,40.92,40.92,0,0,0,12.92-.28V28c-8.12,0-12-1.86-13.76-3.33a8.84,8.84,0,0,1-4.34,2.8,15.72,15.72,0,0,0,2.52-7.66,8.84,8.84,0,0,1-2.41,1.43A18.05,18.05,0,0,0,87.82,16.17Zm4.62-5.07-2.59,2.2a19.23,19.23,0,0,0-3.43-4.41A6,6,0,0,1,92.44,11.1Zm18.2,9.66s-5.53-.49-8.72-8.09a14,14,0,0,1-5.81,8.54L93.63,17.5a22.46,22.46,0,0,0,7.42-7.38,32.36,32.36,0,0,1-1.16-6.94H96.71V1.47h7.84C104.55,15.12,110.64,20.76,110.64,20.76ZM134.09,15a30.09,30.09,0,0,1,3,.84l-.91,4.79s-1.22-.35-3-.8c-1.79,6.12-5.15,6.44-5.15,6.44A46,46,0,0,0,129.15,19a34.36,34.36,0,0,0-4.27-.45c-1,5.53-2.87,7.73-5.11,7.73-2.76,0-4.94-1.54-4.94-4.44,0-2.28,1.3-5.81,6-7.28,0-1.82,0-4,0-6.69h-3.5V6.44h8.4c0,2.8-.07,5.29-.24,7.42h.84c1.05,0,2.1.14,3.08.25V11.73l4.86.42C134.23,13.16,134.16,14.07,134.09,15ZM120.61,18.9c-2.66,1-3,3.26-1.57,3.26C119.91,22.16,120.37,21.39,120.61,18.9Zm32.27,7.32c1.89-3.82,2.49-8.54-1.15-10.26-2.17,6.16-6.06,6.76-6.06,6.76s1.26-2.21,2-7.42h-2V10.4h2.49c.07-1.51.1-3.12.07-4.94l4.9.7a44.88,44.88,0,0,1-.25,4.59C158.8,12.71,160.62,22.23,152.88,26.22Zm10.68-9.14a12.72,12.72,0,0,0-6.3-6.23l2.38-4.31C166.25,11.34,163.56,17.08,163.56,17.08Zm20.51,3c-2.21-3.26-7.32.17-7.32.17a89,89,0,0,1,0-14.24h4.9s-1,7-1.47,10.78c0,0,4.73-2.91,7.6-.28,3.92,3.57.38,9.31-7.49,9.73C182.84,24.78,185.43,22.05,184.07,20.06ZM182.74,8.65l2.31-4.35c5.46,2.91,2.73,8.76,2.73,8.76A13.21,13.21,0,0,0,182.74,8.65ZM0,45.43a32,32,0,0,0,4.8-2.27A4.78,4.78,0,0,1,.31,40.78l3.3-2.07A10.7,10.7,0,0,0,6.69,42a29.56,29.56,0,0,0,5-4.14H6.13V36.12h7l3.26,2.59a11.22,11.22,0,0,0,3.5-3.57l3.29,2.1a4.92,4.92,0,0,1-6.27,2C7.6,47.81,0,45.43,0,45.43Zm8.26,7.91A52.06,52.06,0,0,0,8.75,48H5.92V46.27h12.7l1.4-1.4,1.4,1.4V48H19.18c0,.8,0,2.38-.07,5.35h1.33l1.4-1.4,1.4,1.4v1.72H19.08c0,1.12,0,2.38-.07,3.81.35,0,.66,0,1-.07.24-1.33.42-2.13.42-2.13l3.81,1s-.52,2-1.71,5.81c0,0-2.52,0-7.28-.25L15,55.06h-2.9c-2.52,8.71-7.67,8.5-7.67,8.5S6.65,61.64,8,55.06H4.1V53.34Zm4.24,0H15c-.07-2.87-.14-4.51-.18-5.35h-1.5A40,40,0,0,1,12.5,53.34ZM24.05,38.71l3.25,2.07a5,5,0,0,1-2,1.89,11.89,11.89,0,0,0,2,.24l-.66,4.83c-9.31-3-9.42-7.8-9.42-7.8a30,30,0,0,0,4.13,1.75A12.39,12.39,0,0,0,24.05,38.71Zm6.47,10.75h6.37a6.59,6.59,0,0,1-2.06,4.86h3.08a8.46,8.46,0,0,1-.91,4,40.86,40.86,0,0,0,12.91-.28V63c-8.12,0-12-1.86-13.75-3.33a8.84,8.84,0,0,1-4.34,2.8,15.72,15.72,0,0,0,2.52-7.66,9,9,0,0,1-2.42,1.43,17.63,17.63,0,0,0,1-5H30.52ZM35,48.3a18.93,18.93,0,0,0-3.43-4.41,6,6,0,0,1,6,2.21Zm13.13-7.14h1.33l1.4-1.4,1.4,1.4v1.72H47.39a29.65,29.65,0,0,1-.45,4.62h2.52l1.4-1.4,1.4,1.4v1.71H46.55c-2.17,7.95-7.66,8.65-7.66,8.65a23.29,23.29,0,0,0,3.53-8.65H38.33V47.5h4.44a43.49,43.49,0,0,0,.42-4.62H38.33V41.16H42a12.38,12.38,0,0,0-2-4.52s3.57-.31,5.25,4.1l-1.43.42h2.38a18.35,18.35,0,0,0,1.92-5.46l3.47.91A8.6,8.6,0,0,1,48.13,41.16ZM53.52,54,51,57.68a8.9,8.9,0,0,1-3.85-8A20,20,0,0,0,53.52,54Zm14.84-1c.1-.88.17-1.86.24-3H61.15v-1.4h7.49V44.24H61.08v-1.4h7.56V40h4.9v2.84h2l1.4-1.4,1.36,1.4v1.4H73.54v4.31h2l1.4-1.4,1.4,1.4V50H73.5a37.47,37.47,0,0,1-.28,3.85c1.47.35,2.84.77,4,1.12l-1.12,4.3c-1.26-.52-2.55-1-3.81-1.47-1.23,2.63-3.43,3.5-7.28,3.5-5.57,0-4.87-7.63-.11-8.26A16,16,0,0,1,68.36,53Zm-.7,3.43A11.4,11.4,0,0,0,65.28,56c-2.1,0-2.14,2.63,0,2.63C66.08,58.63,67,58.28,67.66,56.39ZM100,46a48.7,48.7,0,0,1-10,1.33v-4.9c7.94,0,16-.42,16-.42-4.93,7-11.23,13.4-2.87,19.18C90.2,61.22,93.1,50.93,100,46Zm8.33,3.57a7.74,7.74,0,0,0-1.78-2.31,3.06,3.06,0,0,1-.63,2.83,8,8,0,0,0-2-2.52l1.61-1.78a4.36,4.36,0,0,1,.91,1.15l1.5-1.68A3,3,0,0,1,108.29,49.6Zm22.4,3c-.28-3.78-4-6.23-8.68-4.13-3.57,1.61-4,7.28-1.61,7.56,1.75.21,3.33-2.55,3.92-7l4.45.56C128,55.9,124.5,60.1,121.31,60.1c-3.43,0-5.57-3.08-5.57-6.48a10.46,10.46,0,0,1,9.18-10.46,9.31,9.31,0,0,1,10.5,10.71c-.81,5.32-4.38,8.05-10.68,7.35C127.93,59.92,131,57.16,130.69,52.64ZM148,47.81s-3.32,3-7.53-.77l2.39-3.46A28.39,28.39,0,0,0,148,47.81Zm-.66,2.91s3.6,5.39-3.57,12l-2.94-3.46A31.83,31.83,0,0,0,147.32,50.72ZM149,41.51s-3.71,2.42-7.35-2l2.8-3A29.61,29.61,0,0,0,149,41.51ZM151,49.74h4.2c-.95,14.14-7.49,13.89-7.49,13.89S151,59.47,151,49.74Zm2.8-9.84h-4.48V38.18h6.44c-.28-1.92-.35-3.18-.35-3.18h4.79s0,1.08-.17,3.18h3.46l1.4-1.39,1.4,1.39V39.9h-8.26a12.41,12.41,0,0,1-3.18,4.48c1.68-.1,3.74-.24,6.12-.42-.24-.66-.52-1.36-.77-2.1l2.63-1c1.75,3.57,3.32,7.14,3.32,7.14l-3.08,1.19s-.35-.8-.84-2.06c-7,.94-11.72,1.47-11.72,1.47l-.91-4s.84,0,2.41-.14A23.62,23.62,0,0,0,153.83,39.9Zm5.32,10.64L159.53,62H156s0-1.12.21-11.41Zm9.1,6.62s-.53,2-1.72,5.81c0,0-2,0-5.84-.25-.32-10.67-.42-13-.42-13h3.6s0,.91-.14,8.64H164c.25-1.4.42-2.2.42-2.2Zm24.5,2s-.53,2-3.61,2c-4.06,0-2-5-2.87-8-.56-1.79-2.38-2.31-4.13-1.75a19.81,19.81,0,0,0-4.06,1.82c0,2.55,0,5.25.07,7.91h-2.73c-.21-1.79-.42-3.71-.59-5.64a19.91,19.91,0,0,0-2.31,2.28l-1-1.75a30.44,30.44,0,0,1,3.05-4.1c-.21-2.9-.39-5.63-.49-7.77h-2.8v-1.4H174L173.88,40h4.9s-.1,1.06-.24,2.84h.8l1.4-1.4,1.4,1.4v1.4h-3.67c-.11,1.23-.18,2.7-.25,4.34a11.84,11.84,0,0,1,4.24-2.13c4.93-1.09,7.73,2.17,7.91,5.77C190.65,57,188.58,59.75,192.75,59.19Z"/></svg>