<svg id="レイヤー_1" data-name="レイヤー 1" xmlns="http://www.w3.org/2000/svg" viewBox="0 0 526.97 39.27"><defs><style>.cls-1{fill:#f0908a;}</style></defs><path class="cls-1" d="M11.54,36c7.82-3.31,10.23-9.07,6.34-12.67A6.39,6.39,0,0,0,12.93,22c-1,10.7-3.5,11.18-6.43,11.18-7,0-8.5-6.53-3.74-10.85a20.07,20.07,0,0,1,4.32-2.83c0-1.87,0-4.13-.15-6.82H3.33V10.75H6.88c0-1.2,0-2.49-.09-3.88h6.72c0,1.34,0,2.63,0,3.88h3.07l1.92-1.92,1.92,1.92v1.92h-7l-.14,4.85a12.73,12.73,0,0,1,6.86.53C30.26,22.27,27.05,36,11.54,36ZM7.08,23.86a8.23,8.23,0,0,0-2.79,2.35c-1,1.49-.43,3,1.2,3C6.36,29.19,6.93,29.47,7.08,23.86Zm20.35-2.45a15.51,15.51,0,0,0-6.82-6.14l2.84-5C31.37,15.55,27.43,21.41,27.43,21.41Z"/><path class="cls-1" d="M59.44,30.43v-.52H54.26c0,2.88,0,5.9-.1,9.17H49.08c-.1-3.22-.15-6.25-.2-9.17H43.12v.52H38c-.53-14.88-.68-25-.68-25h6.1v.53h5L48.4,0h6.1s0,2,0,5.91h5.33c0-.2,0-.34,0-.53h5c.53,14.88.67,25.05.67,25.05Zm-10.6-2.88-.15-8.44H43.32l-.15,8.44Zm-5.48-10.8h5.28L48.5,8.26H43.41C43.41,10.18,43.41,13,43.36,16.75Zm16.13,10.8c0-1.87,0-4.7.1-8.44H54.36c0,2.54,0,5.37,0,8.44ZM54.4,16.75h5.19l.14-8.49H54.45C54.45,10.61,54.4,13.44,54.4,16.75Z"/><path class="cls-1" d="M84.16,6.87h6.72c-3.21,23,.24,26.59,7.73,24A7.6,7.6,0,0,1,91.51,36C83.35,36,81.81,25.83,84.16,6.87Z"/><path class="cls-1" d="M114.26,22.18H110.9V19.83h8.74a9,9,0,0,1-2.84,6.67H121A11.58,11.58,0,0,1,119.78,32a55.4,55.4,0,0,0,17.71-.39v6.73c-11.13,0-16.41-2.55-18.86-4.57a12.2,12.2,0,0,1-5.95,3.85,21.63,21.63,0,0,0,3.45-10.52,12.25,12.25,0,0,1-3.31,2A24.71,24.71,0,0,0,114.26,22.18Zm6.34-7-3.56,3a26.35,26.35,0,0,0-4.7-6A8.27,8.27,0,0,1,120.6,15.22Zm25,13.25s-7.59-.68-11.95-11.09a19.32,19.32,0,0,1-8,11.71L122.23,24c4.89-2.73,8.3-7.25,10.17-10.13a44.45,44.45,0,0,1-1.58-9.5h-4.37V2h10.76C137.21,20.74,145.56,28.47,145.56,28.47Z"/><path class="cls-1" d="M177.72,20.5a39.54,39.54,0,0,1,4.17,1.15l-1.24,6.58s-1.68-.48-4.18-1.11C174,35.52,169.41,36,169.41,36A64.1,64.1,0,0,0,171,26a48.57,48.57,0,0,0-5.86-.63C163.7,33,161.16,36,158.08,36c-3.79,0-6.76-2.11-6.76-6.09,0-3.12,1.77-8,8.16-10,0-2.49,0-5.52,0-9.17h-4.8V8.83h11.52c0,3.84-.09,7.25-.33,10.18h1.15c1.44,0,2.88.19,4.23.34V16.08l6.67.58C177.91,18.05,177.81,19.3,177.72,20.5Zm-18.48,5.42c-3.65,1.3-4.18,4.47-2.16,4.47C158.28,30.39,158.9,29.33,159.24,25.92Z"/><path class="cls-1" d="M203.49,36c2.59-5.24,3.41-11.72-1.58-14.07-3,8.45-8.31,9.27-8.31,9.27s1.73-3,2.74-10.18H193.6V14.26H197c.1-2.07.15-4.27.1-6.77l6.72,1a62,62,0,0,1-.34,6.29C211.61,17.43,214.1,30.48,203.49,36Zm14.64-12.53s-1.92-5.24-8.64-8.55L212.76,9C221.83,15.55,218.13,23.43,218.13,23.43Z"/><path class="cls-1" d="M246.26,27.51c-3-4.47-10,.24-10,.24a121.14,121.14,0,0,1,0-19.54H243s-1.35,9.55-2,14.78c0,0,6.48-4,10.42-.38,5.38,4.9.53,12.77-10.27,13.35C244.58,34,248.13,30.24,246.26,27.51Zm-1.82-15.65,3.16-5.95c7.49,4,3.75,12,3.75,12A18.13,18.13,0,0,0,244.44,11.86Z"/><path class="cls-1" d="M262.63,14.31a44.24,44.24,0,0,0,6.57-3.12,6.53,6.53,0,0,1-6.14-3.27l4.51-2.83a14.58,14.58,0,0,0,4.23,4.46,40.56,40.56,0,0,0,6.86-5.66H271V1.54h9.65l4.46,3.55a15.27,15.27,0,0,0,4.8-4.9l4.51,2.88c-2.69,4.18-6.67,3.41-8.59,2.69C273,17.57,262.63,14.31,262.63,14.31ZM274,25.15c.28-2.11.57-4.56.67-7.34h-3.89V15.46h17.42l1.92-1.92L292,15.46v2.35h-3.07c0,1.1-.05,3.26-.09,7.34h1.82l1.92-1.92,1.92,1.92v2.36h-5.71c-.05,1.53-.05,3.26-.1,5.23.48-.05.91-.05,1.35-.1.33-1.82.57-2.93.57-2.93l5.24,1.35s-.73,2.73-2.36,8c0,0-3.45,0-10-.34l-.34-11.18h-4c-3.46,12-10.52,11.66-10.52,11.66s3.08-2.64,4.85-11.66h-5.28V25.15Zm5.8,0h3.36c-.09-3.93-.19-6.19-.24-7.34h-2.06A53.66,53.66,0,0,1,279.76,25.15ZM295.61,5.09l4.46,2.83a6.92,6.92,0,0,1-2.74,2.59,16.55,16.55,0,0,0,2.74.34l-.91,6.62c-12.77-4.17-12.92-10.7-12.92-10.7a41.09,41.09,0,0,0,5.67,2.4A16.84,16.84,0,0,0,295.61,5.09Z"/><path class="cls-1" d="M304.48,19.83h8.74a9,9,0,0,1-2.83,6.67h4.22A11.58,11.58,0,0,1,313.36,32a55.46,55.46,0,0,0,17.72-.39v6.73c-11.14,0-16.42-2.55-18.87-4.57a12.16,12.16,0,0,1-5.95,3.85,21.7,21.7,0,0,0,3.46-10.52,12.37,12.37,0,0,1-3.32,2,24.28,24.28,0,0,0,1.44-6.91h-3.36Zm6.15-1.59a26.23,26.23,0,0,0-4.71-6,8.27,8.27,0,0,1,8.26,3Zm18-9.79h1.82l1.92-1.92,1.92,1.92V10.8h-6.67a41.52,41.52,0,0,1-.62,6.34h3.45l1.92-1.92,1.92,1.92v2.35h-7.82c-3,10.9-10.51,11.86-10.51,11.86s3.16-4.13,4.84-11.86h-5.61V17.14h6.09a60,60,0,0,0,.58-6.34h-6.67V8.45h5.09a16.8,16.8,0,0,0-2.74-6.19s4.9-.44,7.2,5.61l-2,.58H326A25.4,25.4,0,0,0,328.68,1l4.75,1.25A11.76,11.76,0,0,1,328.63,8.45ZM336,26.07l-3.45,5a12.21,12.21,0,0,1-5.29-11A27.55,27.55,0,0,0,336,26.07Z"/><path class="cls-1" d="M356.37,24.63c.15-1.2.24-2.55.34-4.13H346.48V18.58h10.28V12.67H346.39V10.75h10.37V6.87h6.72v3.88h2.68l1.92-1.92L370,10.75v1.92h-6.48v5.91h2.73l1.92-1.92,1.92,1.92V20.5h-6.62a51.4,51.4,0,0,1-.39,5.28c2,.48,3.89,1,5.48,1.53L367,33.22c-1.73-.72-3.5-1.39-5.23-2-1.68,3.6-4.71,4.8-10,4.8-7.63,0-6.67-10.46-.14-11.33A22,22,0,0,1,356.37,24.63Zm-1,4.7a16.27,16.27,0,0,0-3.26-.53c-2.88,0-2.93,3.6,0,3.6C353.25,32.4,354.5,31.92,355.41,29.33Z"/><path class="cls-1" d="M399.72,15.12A66.81,66.81,0,0,1,386,17V10.23c10.9,0,21.94-.58,21.94-.58C401.2,19.25,392.56,28,404,36,386.32,36,390.31,21.84,399.72,15.12ZM411.14,20a10.85,10.85,0,0,0-2.45-3.17,4.2,4.2,0,0,1-.86,3.89A11.07,11.07,0,0,0,405,17.28l2.21-2.45a6,6,0,0,1,1.25,1.59l2.07-2.31A4,4,0,0,1,411.14,20Z"/><path class="cls-1" d="M441.86,24.19c-.38-5.18-5.42-8.54-11.9-5.66-4.9,2.21-5.48,10-2.21,10.37,2.4.29,4.56-3.51,5.37-9.6l6.1.77c-1.1,8.59-5.86,14.35-10.22,14.35-4.71,0-7.64-4.22-7.64-8.88a14.34,14.34,0,0,1,12.58-14.35c9.55-1.2,15.51,7,14.4,14.69-1.1,7.29-6,11-14.64,10.08C438.07,34.18,442.34,30.39,441.86,24.19Z"/><path class="cls-1" d="M465.57,17.57S461,21.7,455.25,16.51l3.26-4.75A39.48,39.48,0,0,0,465.57,17.57Zm-.91,4S469.6,29,459.76,38l-4-4.75A43.52,43.52,0,0,0,464.66,21.55Zm2.26-12.62s-5.09,3.31-10.09-2.79L460.67,2A41.16,41.16,0,0,0,466.92,8.93Zm2.83,11.28h5.76c-1.3,19.39-10.28,19.06-10.28,19.06S469.75,33.56,469.75,20.21Zm3.84-13.49h-6.15V4.37h8.84C475.89,1.73,475.8,0,475.8,0h6.57s0,1.49-.24,4.37h4.76l1.92-1.92,1.92,1.92V6.72H479.4A17.22,17.22,0,0,1,475,12.87c2.3-.15,5.13-.34,8.4-.58-.34-.91-.72-1.87-1.06-2.88L486,8.07c2.4,4.89,4.56,9.79,4.56,9.79l-4.22,1.63s-.48-1.1-1.15-2.83c-9.6,1.29-16.08,2-16.08,2l-1.25-5.42s1.15-.05,3.31-.19A32.75,32.75,0,0,0,473.59,6.72Zm7.29,14.59L481.41,37h-4.89s0-1.53.28-15.65Zm12.49,9.08s-.72,2.78-2.36,8c0,0-2.73,0-8-.34-.43-14.64-.58-17.81-.58-17.81h4.94s0,1.25-.19,11.86h.39c.33-1.92.57-3,.57-3Z"/><path class="cls-1" d="M527,33.17S526.25,36,522,36c-5.57,0-2.69-6.87-3.94-10.95-.76-2.45-3.26-3.17-5.66-2.4a27.45,27.45,0,0,0-5.57,2.5c-.05,3.5-.05,7.2.1,10.85H503.2c-.28-2.45-.57-5.09-.81-7.73a26.72,26.72,0,0,0-3.17,3.12L497.83,29A41.51,41.51,0,0,1,502,23.33c-.28-4-.52-7.73-.67-10.66h-3.84V10.75h3.74l-.14-3.88h6.72s-.14,1.43-.33,3.88h1.1l1.92-1.92,1.92,1.92v1.92h-5c-.14,1.68-.24,3.7-.34,6a16.1,16.1,0,0,1,5.81-2.93c6.77-1.49,10.61,3,10.85,7.92C524.09,30.1,521.25,33.94,527,33.17Z"/></svg>