<svg id="レイヤー_1" data-name="レイヤー 1" xmlns="http://www.w3.org/2000/svg" viewBox="0 0 417.22 68"><defs><style>.cls-1{fill:#dcdcdc;}.cls-1,.cls-2{stroke:#fff;stroke-miterlimit:10;stroke-width:2px;}.cls-2{fill:#f9d7d4;}</style></defs><polygon class="cls-1" points="385.43 67 257.29 67 257.29 1 385.43 1 415.86 34 385.43 67"/><polygon class="cls-1" points="257.29 67 129.15 67 129.15 1 257.29 1 287.71 34 257.29 67"/><polygon class="cls-2" points="129.15 67 1 67 1 1 129.15 1 159.57 34 129.15 67"/><path d="M44.58,39.25c0,2.69-1.68,4.42-5.11,4.42-.36,0-.85-.05-1.29-.09l.07-2.28a7.55,7.55,0,0,0,1.27.09c2,0,2.63-.67,2.63-2.16s-.95-2.38-3.07-2.38a8.54,8.54,0,0,0-2,.26v3.5c0,2.06-.85,3.12-2.78,3.12-2.4,0-3.87-1.24-3.87-2.81,0-2.09,1.7-4,4.23-5.15V33.06H30.78V30.85h3.86V28.29h2.42v2.56h3.79v2.21H37.06V35a12.64,12.64,0,0,1,2.48-.25C42.9,34.76,44.58,36.44,44.58,39.25Zm-9.94-1.13c-1.2.74-2,1.68-2,2.46,0,.49.41.94,1.19.94.61,0,.81-.32.81-1Zm6.52-6.37,1.49-1.61A21.44,21.44,0,0,1,46,33l-1.68,1.61A14.26,14.26,0,0,0,41.16,31.75Z"/><path d="M64.15,30.07V40.21H61.78v-.78H58.1v4.85H55.68V39.43H52.19v.78H49.91V30.07h5.77V27.76H58.1v2.31Zm-12,2.07v1.61h3.49V32.14Zm3.49,5.26V35.72H52.19V37.4Zm2.42-5.26v1.61h3.68V32.14Zm3.68,5.26V35.72H58.1V37.4Z"/><path d="M83.77,37.77c-1.79,4.68-4.12,6-7.07,6-3.79,0-5.47-2.14-5.47-6.37,0-1.66.11-5.13.16-8.88h2.67c-.28,3.73-.37,7.2-.37,8.83,0,2.93.9,4,3.08,4s3.52-1.08,4.68-4.66Z"/><path d="M104.3,41.82,103.87,44c-2.17,0-6.59,0-8.73,0a5,5,0,0,1-4-1.68c-1,.81-1.89,1.45-2.72,2l-1-2.32A26.55,26.55,0,0,0,89.9,40.6V36.85H87.78V34.74h4.37v5.61a4.1,4.1,0,0,0,3.36,1.56C97.44,42,102,41.94,104.3,41.82ZM87.9,29.19l1.7-1.26a15.47,15.47,0,0,1,2.9,3l-2,1.32A13,13,0,0,0,87.9,29.19Zm9.75,3.13-.34-1.94H94.23V28.23h5c.43,5.88,2,9.34,5,11L102.63,41a11.45,11.45,0,0,1-4.31-6.21A10.18,10.18,0,0,1,93.83,41l-1.51-1.53c3.2-1.59,4.05-4.86,4.41-7.19Z"/><path d="M122.51,38.58c-.62-.23-1.24-.46-1.88-.65a8.29,8.29,0,0,1-4.81,5.9l-1.52-1.91a6.16,6.16,0,0,0,4.1-4.61,22.43,22.43,0,0,0-3.43-.59c-.3.87-.6,1.68-.88,2.37-1,2.34-2,3.28-3.5,3.28-1.72,0-2.69-1.54-2.69-3.37,0-2.33,1.54-4.36,5.39-4.5.34-1.12.64-2.25.89-3.26-1.15.11-3.19.28-4.78.39l-.21-2.3a49,49,0,0,0,6.29-.41l1.68,1c-.44,1.22-1,2.94-1.5,4.63,1,.11,2,.27,3.08.48.05-.85.07-1.79.07-2.79l2.44,0c0,1.19-.09,2.28-.21,3.29.78.2,1.55.41,2.31.66Zm-10.6-.19a17.42,17.42,0,0,0,.64-1.63c-2,.23-2.51,1-2.51,2.12,0,.6.19,1,.56,1S111.4,39.54,111.91,38.39Z"/><path d="M196.26,39.25c0,2.69-1.68,4.42-5.11,4.42-.36,0-.85-.05-1.3-.09l.07-2.28a7.66,7.66,0,0,0,1.28.09c2,0,2.63-.67,2.63-2.16s-1-2.38-3.07-2.38a8.47,8.47,0,0,0-2,.26v3.5c0,2.06-.85,3.12-2.78,3.12-2.4,0-3.87-1.24-3.87-2.81,0-2.09,1.7-4,4.23-5.15V33.06h-3.86V30.85h3.86V28.29h2.42v2.56h3.78v2.21h-3.78V35a12.64,12.64,0,0,1,2.48-.25C194.58,34.76,196.26,36.44,196.26,39.25Zm-9.94-1.13c-1.21.74-2,1.68-2,2.46,0,.49.41.94,1.18.94.62,0,.82-.32.82-1Zm6.52-6.37,1.49-1.61a21.44,21.44,0,0,1,3.31,2.9L196,34.65A14.26,14.26,0,0,0,192.84,31.75Z"/><path d="M215.65,44.26a23.07,23.07,0,0,1-6.9-2.62,23.34,23.34,0,0,1-7,2.64l-1.45-2a21.61,21.61,0,0,0,6.46-2.07,14.17,14.17,0,0,1-3.1-3.57l1.45-.59h-2.91V33.81h5.25V31.93h-7V29.74h7v-2h2.47v2H217v2.19h-7.1v1.88h2.94l1.89.67a12.84,12.84,0,0,1-3.89,5.67,21.76,21.76,0,0,0,6.39,1.93Zm-6.92-5.38A9.69,9.69,0,0,0,211.14,36h-5A10.32,10.32,0,0,0,208.73,38.88Z"/><path d="M224.89,37.64V41.8c0,1.89-.69,2.48-2.55,2.48-.42,0-.93,0-1.32,0l-.5-2.39c.37,0,.87.05,1.29.05s.69-.1.69-.51V38.3l-2.19.56-.58-2.38c.71-.13,1.71-.32,2.77-.55v-3h-2.45V30.76h2.45v-3h2.39v3H227v2.18h-2.09v2.48l2.19-.54.18,2.07Zm9.23,6.64c-.09-.54-.23-1.08-.37-1.63-2.4.39-5.62.85-7.6,1.09l-.59-2.38,1.38-.11a134,134,0,0,0,2.69-13.42l2.49.35c-.68,3.75-1.69,8.47-2.86,12.86l3.89-.41a37.9,37.9,0,0,0-1.73-4.08l2.1-.67a31.69,31.69,0,0,1,3,7.53Z"/><path d="M246.32,37.68l2.05.92c-.67,3-1.8,4.42-3.27,4.42-2.09,0-4.51-2.69-4.51-8.6a39,39,0,0,1,.18-4l2.56.23a29,29,0,0,0-.28,3.75c0,3.71,1,5.89,1.94,5.89C245.52,40.26,246,39.25,246.32,37.68Zm9.11,2.09-2.67.23c0-4.09-.76-6.3-3.08-8.71L251.77,30C254.45,32.8,255.27,35.66,255.43,39.77Z"/><path d="M328.21,40.3l2.21.35c-.21,3-.65,3.36-2.56,3.36H326c-2.19,0-2.69-.62-2.69-3.36v-1.4h-2c-.32,1.91-1.64,3.61-4.9,5.06l-1.68-1.63c2.73-1,3.89-2.12,4.25-3.43h-4v-2h4.12v-1.7h-1.06v-.53a13,13,0,0,1-2.76,1.63l-1.4-1.61a11.05,11.05,0,0,0,3.38-1.93,14.34,14.34,0,0,0-1.87-1.66l1.32-1.22a15.3,15.3,0,0,1,1.91,1.45,8.32,8.32,0,0,0,.92-1.56h-4.05V28.23h5.27l1.51.43a11.86,11.86,0,0,1-2.67,5h5.74a14,14,0,0,1-2.93-5.24l2-.69a11.25,11.25,0,0,0,.8,2,16.82,16.82,0,0,0,2.06-1.86l1.51,1.36a25.5,25.5,0,0,1-2.62,2c.2.26.41.51.62.74A17.67,17.67,0,0,0,329,30.16l1.56,1.43a22.5,22.5,0,0,1-2.3,1.72A10.7,10.7,0,0,0,331,34.74l-1.5,1.86A13.16,13.16,0,0,1,326.89,35v.56h-1.22v1.7h4.17v2h-4.17v1.4c0,1,.1,1.15.58,1.15h1.45C328.14,41.8,328.2,41.69,328.21,40.3Zm-4.86-3v-1.7h-1.91v1.7Z"/><path d="M366.24,41.87,365.82,44c-2.21,0-6.79.09-9,0a4.89,4.89,0,0,1-3.91-1.67,28.9,28.9,0,0,1-2.61,2l-1-2.33a25.06,25.06,0,0,0,2.37-1.42V36.85h-2V34.74h4.25v5.64a4,4,0,0,0,3.3,1.56C359.19,42,363.94,42,366.24,41.87Zm-16.5-12.68,1.72-1.26a15.3,15.3,0,0,1,2.88,3l-2,1.32A13,13,0,0,0,349.74,29.19Zm8.93,7.32h-4.21v-2h4.48V32.71h-4.18V30.76H357a8.49,8.49,0,0,0-.94-2.35l2-.71a9.06,9.06,0,0,1,1.06,2.62l-1.29.44H361a23.84,23.84,0,0,0,1.24-3l2.33.62c-.33.71-.81,1.58-1.31,2.42h2.44v1.95h-4.44v1.84H366v2h-4.27A6.48,6.48,0,0,0,366,39.69l-1.38,1.93a8.37,8.37,0,0,1-4.35-3.3,9.73,9.73,0,0,1-4.09,3.32L354.48,40C357,39,358.18,37.8,358.67,36.51Z"/></svg>