<svg id="レイヤー_1" data-name="レイヤー 1" xmlns="http://www.w3.org/2000/svg" viewBox="0 0 383.69 71.9"><defs><style>.cls-1{fill:#4d4d4d;}</style></defs><path class="cls-1" d="M79.51,42.08l-.84,8.15c-.14,1.36-.28,2.72-.41,4.08-.1.94,0,1.84,1.07,2a6.74,6.74,0,0,0,3.08-.67c1.17-.4,2.33-.83,3.47-1.31A54.78,54.78,0,0,0,92.64,51c.25-.15.38-.44.11-.63a1.06,1.06,0,0,0-1,.12,51.94,51.94,0,0,1-5.86,3q-1.5.65-3,1.2c-.49.18-1,.34-1.47.5a2.86,2.86,0,0,1-1.33.32c-.52-.13-.36-.89-.32-1.27.06-.55.11-1.09.17-1.64L80.24,49,81,41.93c.06-.65-1.4-.4-1.46.15Z"/><path class="cls-1" d="M96.55,51.5a8.81,8.81,0,0,0,3.15-.83,3.26,3.26,0,0,0,1.82-2,2.45,2.45,0,0,0-.44-2.14,2.3,2.3,0,0,0-2.63-.43,4.09,4.09,0,0,0-2.54,4.52A3.71,3.71,0,0,0,97,52.86a3.2,3.2,0,0,0,2.21.81c1.8,0,4.17-1,4.29-3.07,0-.2-1.42,0-1.44.39a2.31,2.31,0,0,1-.76,1.55,2.07,2.07,0,0,1-.58.4.93.93,0,0,1-.22.09c-.24.07.13,0-.11,0l-.2,0a2.85,2.85,0,0,1-2.7-2.1,4.18,4.18,0,0,1,.66-3.89,3.12,3.12,0,0,1,.45-.44l.2-.14c.26-.16,0,.06,0,0l.29.05a1.63,1.63,0,0,1,.4.24,2.18,2.18,0,0,1,.68,1.62,2.26,2.26,0,0,1-1,1.86,3.89,3.89,0,0,1-2,.64,1.6,1.6,0,0,0-1,.35c-.2.23.17.24.34.23Z"/><path class="cls-1" d="M106.78,46.85a37,37,0,0,0,6.57-2.64c.27-.14.55-.48.33-.78a.83.83,0,0,0-1-.13,35.36,35.36,0,0,1-6.19,2.51c-.3.08-.68.35-.59.71s.58.42.87.33Z"/><path class="cls-1" d="M109.15,41.18c0,2.26-.12,4.52-.12,6.78a1.81,1.81,0,0,0,3.31,1.33c.32-.59-1.13-.43-1.35,0s.18-.11.25,0-.21-.07-.24-.1a1.19,1.19,0,0,1-.44-.73,9.31,9.31,0,0,1,0-2.3l.08-5.15c0-.58-1.43-.28-1.44.19Z"/><path class="cls-1" d="M120.66,38.86,119.72,44c-.09.51,1.36.26,1.45-.2l.93-5.09c.1-.51-1.36-.27-1.44.2Z"/><path class="cls-1" d="M131.11,41.82c.29,0,1.63-.56.95-.56-.29,0-1.63.56-.95.56Z"/><path class="cls-1" d="M131.32,41.36c-1.21.58-2.64,1.3-3.17,2.63a2.36,2.36,0,0,0,.87,3c.57.3,1.54.09,1.41,1a7.43,7.43,0,0,1-1,2.2,21.78,21.78,0,0,1-3.07,4.14.4.4,0,0,0,.18.68,1,1,0,0,0,1-.27A22.66,22.66,0,0,0,130.41,51a18.57,18.57,0,0,0,1.13-2.11,2.28,2.28,0,0,0,.27-1.86c-.29-.64-.93-.66-1.52-.8a1.26,1.26,0,0,1-.87-1.21c-.13-1.49,1.39-2.24,2.53-2.79.89-.43.09-1.17-.63-.82Z"/><path class="cls-1" d="M156.24,43.06a6,6,0,0,0-5.43-.29,2.85,2.85,0,0,0-1.45,3.71c.73,1.34,2.57,1.11,3.72.52,2.14-1.1,2.32-3.52,3.61-5.31l-1.38.13-1.44,8.79a19.85,19.85,0,0,1-.77,3.92,3.46,3.46,0,0,1-.49,1c-.27.3-1.29,1.05-1,.34A8.39,8.39,0,0,1,153,54.2q5.63-6.64,11-13.47l-1.39.21c-.07,1.43-.1,3.09,1.09,4.1a2.84,2.84,0,0,0,2.94.36c2.61-1,4.56-4,5.55-6.51l-1.44.23c-.46,2.27-.26,5.3,2.81,5s4-2.79,4.62-5.34l-1.45.31c.27,2.89,3.9,3.29,6,2.31a7.71,7.71,0,0,0,3.22-3c.7-1.1,1.6-2.58.67-3.79-.23-.3-1.16,0-1.34.29-1.67,2.17-4.05,6.58-.46,8.35,2.89,1.41,5.95-.83,7.66-3,.34-.42-1.08-.26-1.33.05-.85,1.08-1.94,2.39-3.39,2.62a2.84,2.84,0,0,1-3.09-1.85c-.87-2.3.59-4.47,1.94-6.22l-1.35.29c1.2,1.55-1.23,4.5-2.45,5.44a2.88,2.88,0,0,1-4.66-1.85c0-.39-1.36,0-1.44.3-.34,1.48-1.27,5.41-3.62,4.24-1.57-.77-1.21-3-.93-4.36.09-.45-1.3-.13-1.44.23a12.82,12.82,0,0,1-3.59,5.1,1.68,1.68,0,0,1-2.83-.72,6.65,6.65,0,0,1-.27-2.94c0-.41-1.26,0-1.39.21q-6.3,8-12.89,15.68a.17.17,0,0,0,.07.29c2.57.94,4.51-1.31,5-3.6.78-3.81,1.27-7.7,1.89-11.54.09-.5-1.22-.08-1.38.14-.67.94-2.73,6.87-4.5,4.42a2.24,2.24,0,0,1,0-2.24c.85-1.64,2.95-.88,4.23-.24.34.18,1.68-.37,1.17-.62Z"/><path class="cls-1" d="M161.56,37.38h0l.16-.1,0,0,.19-.07h0l.2,0h.08l.17,0-.07,0,.14.07-.09,0,.11.09a.27.27,0,0,1-.07-.08l.07.12a.12.12,0,0,1,0-.09v.14a.17.17,0,0,1,0-.07l0,.13s0,0,0-.05l-.08.13,0,0-.12.11,0,0-.16.1.05,0-.19.07H162l-.19,0s0,0,.06,0h-.12l-.17,0,.07,0-.14-.06.05,0-.1-.1a.16.16,0,0,1,0,.07l-.06-.13h0a.25.25,0,0,0,.11.17.39.39,0,0,0,.19.12.48.48,0,0,0,.26,0,.7.7,0,0,0,.29,0l.19-.07a.86.86,0,0,0,.29-.21l.08-.13a.39.39,0,0,0,0-.28.75.75,0,0,0-.1-.17.67.67,0,0,0-.15-.14.85.85,0,0,0-.41-.15,1.46,1.46,0,0,0-.51,0,1.2,1.2,0,0,0-.46.21.92.92,0,0,0-.29.33.64.64,0,0,0-.06.18.74.74,0,0,0,0,.21.14.14,0,0,0,0,.07.82.82,0,0,0,.09.19,1.92,1.92,0,0,0,.15.14.18.18,0,0,0,.07.05.68.68,0,0,0,.21.1,1.31,1.31,0,0,0,.69,0,1.2,1.2,0,0,0,.41-.2.58.58,0,0,0,.17-.18.4.4,0,0,0,.09-.21.28.28,0,0,0,0-.2.31.31,0,0,0-.14-.16l-.14-.07a.82.82,0,0,0-.35,0l-.2,0a1.14,1.14,0,0,0-.35.17Z"/><path class="cls-1" d="M205.54,43.34a37.71,37.71,0,0,0,3.7-8.64l-1.44.22c-.39,2-.75,4.79,1.49,5.84,1.75.82,3.72-.31,4.91-1.58A26.19,26.19,0,0,0,218.06,33a38.55,38.55,0,0,0,2.79-7.56l-1.43.21c-.48,2.34-.89,4.68-1.21,7-.24,1.69-.94,4.13.35,5.56,2.39,2.65,6.36.2,8.12-1.84.35-.41-1.06-.28-1.33,0-1,1.21-2.44,2.57-4.17,2.06s-2-1.93-1.86-3.44a84.45,84.45,0,0,1,1.53-9.62c.1-.45-1.33-.2-1.43.21a39,39,0,0,1-4.52,10.68c-.73,1.17-2.52,4.56-4.31,3.83-2.13-.87-1.7-3.74-1.35-5.49.09-.46-1.32-.19-1.44.22a37.71,37.71,0,0,1-3.7,8.64c-.17.28,1.2.18,1.44-.22Z"/><path class="cls-1" d="M214.07,33.54q6.24-1.72,12.33-3.92c.25-.09.55-.41.36-.68s-.71-.16-1-.06q-5.9,2.11-11.95,3.78c-.25.07-.69.3-.6.63s.59.32.84.25Z"/><path class="cls-1" d="M207.24,30.89l.47-.47a.15.15,0,0,0,0-.14.1.1,0,0,0,0-.12.3.3,0,0,0-.16-.08.53.53,0,0,0-.22,0h-.18a1.86,1.86,0,0,0-.39.1l-.16.08a.71.71,0,0,0-.23.19l-.46.46a.2.2,0,0,0-.06.14.14.14,0,0,0,.05.13.33.33,0,0,0,.16.07.83.83,0,0,0,.22,0l.19,0a1.26,1.26,0,0,0,.38-.1l.17-.08a.76.76,0,0,0,.22-.18Z"/><path class="cls-1" d="M241.75,40.61a39,39,0,0,0,5-15.94c0-.26-1.35,0-1.44.32a16,16,0,0,0-.34,7.72c.36,1.79,1.23,5.45,3.39,5.9,1.77.35,3.78-1.07,5-2.15a11.12,11.12,0,0,0,3.58-6l-.84.41a2.51,2.51,0,0,1,2.52,1.2c.53.8.32,1.37.42,2.24.13,1.19,1.23,1.21,2.18.92,2.73-.81,4.79-4,5.78-6.52l-1.43.25c-.34,2.39.29,5,3.27,4.25s5.28-3.43,6.58-6l-1.43.24-1.69,10.09a22.35,22.35,0,0,1-.83,4.22c-.28.76-1,2-2,1.27a2,2,0,0,1-.6-1.87c.2-1.47,1.62-2.43,2.68-3.3l4.05-3.35,8.09-6.69c.32-.26-1-.14-1.31.1l-10.41,8.59c-1.33,1.11-3.05,2.18-4,3.64-.69,1-.89,2.67.28,3.46a3.13,3.13,0,0,0,3.1-.21A4.4,4.4,0,0,0,273.32,40c.79-4.27,1.44-8.57,2.15-12.85.07-.41-1.28,0-1.43.24a11.72,11.72,0,0,1-4.32,4.78c-2.64,1.6-2.91-1.82-2.67-3.54.06-.4-1.3-.07-1.43.25a13.23,13.23,0,0,1-2.21,3.72A13.79,13.79,0,0,1,262,34.07c-.26.44-.58.54-1,.29-.38,0-.54-.13-.47-.48a4.64,4.64,0,0,1,0-.91c-.11-2.1-2.32-3.11-4.16-2.71-.2,0-.79.15-.85.41a10.7,10.7,0,0,1-2.41,4.84A10,10,0,0,1,251,37.36c-1.49,1-2.33.44-3.09-.91a15.53,15.53,0,0,1-1.15-11.71l-1.44.32a38.8,38.8,0,0,1-5,15.8c-.12.21,1.22.13,1.43-.25Z"/><path class="cls-1" d="M236.87,32.51q12.07-4.23,23.72-9.55c.91-.42.09-1-.6-.71q-11.44,5.24-23.34,9.42c-.85.3-.65,1.15.22.84Z"/><path class="cls-1" d="M300.54,33.08a11.06,11.06,0,0,1-6.42-8.3,6,6,0,0,1,.14-3c.38-1,1.48-1.86,2.42-1s1,2.51,2.51,2.9a1,1,0,0,0,1-.27,36.12,36.12,0,0,0,2-3.59,4.06,4.06,0,0,1,2.64-2.33,1.77,1.77,0,0,1,2.25,1.84,12.33,12.33,0,0,1-1.21,4.14,27.6,27.6,0,0,1-10.45,12.64c-.82.53.38,1,1,.64a28.86,28.86,0,0,0,10.11-11.44A26.83,26.83,0,0,0,308,21.8c.37-1.14.88-2.47.46-3.66-.68-1.89-3.06-1.95-4.65-1.31-2.68,1.07-3.23,4.08-4.78,6.22l1-.28c-.91-.24-1.19-1.36-1.65-2.07a2.61,2.61,0,0,0-2.17-1.29c-2.36-.05-3.68,2.08-3.67,4.22A11.76,11.76,0,0,0,299.7,34c.59.26,1.68-.59.84-1Z"/><path class="cls-1" d="M14.14,31.54c-1.31,7,3.35,13.42,9.28,16.57a31.55,31.55,0,0,0,11.13,3.21c3.59.44,7.71,1,11.22-.14,2.57-.82,5.4-3.39,4.53-6.4-.76-2.62-4-3.28-6.31-2.54-2.81.89-4.3,3.79-4.27,6.6.05,3.75,2.51,7.19,4.76,10a38.61,38.61,0,0,0,19.71,13c.42.12,1.69-.52.89-.75A37.41,37.41,0,0,1,49.53,62.3a38.19,38.19,0,0,1-5.79-6.89c-1.72-2.62-3.16-5.77-2.3-9A5.17,5.17,0,0,1,44.07,43a3.78,3.78,0,0,1,4.09,1c2.42,2.68-.63,6.2-3.39,6.82a19.61,19.61,0,0,1-5.19.18c-1.81-.1-3.62-.25-5.41-.52A30.28,30.28,0,0,1,25,47.64c-5.91-3-10.67-9.42-9.37-16.3.09-.51-1.36-.27-1.45.2Z"/><path class="cls-1" d="M299.47,71a78.76,78.76,0,0,0,23.68-10.42,68.3,68.3,0,0,0,10.21-8c2.48-2.43,4.78-5.88,3.19-9.43-1.52-3.38-5.17-3.31-8-1.66s-6.48,4.89-4,8.33c2.2,3,6.51,3.91,10,3.57,4.08-.39,7.77-2.45,11-4.83a73.16,73.16,0,0,0,19.51-21.79c.34-.59-1.11-.46-1.35,0a73.39,73.39,0,0,1-13.86,17.09c-5.2,4.72-12.57,10.92-20.13,8.17a8,8,0,0,1-4.09-3c-1.12-1.83-.28-3.7,1.13-5.06s3.75-3.17,5.86-2.62a4.35,4.35,0,0,1,2.78,3.35c.85,3.62-2,6.6-4.45,8.82a74.2,74.2,0,0,1-8.94,6.84,76.44,76.44,0,0,1-22.8,10c-.87.22-.68,1,.2.74Z"/><path class="cls-1" d="M6.37,9.7l.3,2.73c0,.11.2.18.29.21a1.24,1.24,0,0,0,.54,0c.25-.08.66-.25.62-.57l-.3-2.73c0-.12-.2-.19-.28-.21a1.14,1.14,0,0,0-.55,0c-.25.07-.66.24-.62.57Z"/><path class="cls-1" d="M9.15,14.42a11.6,11.6,0,0,0,3.36-3.15c.2-.28-.17-.46-.4-.47a1.16,1.16,0,0,0-1,.41l-.31.42-.09.1s-.07.1,0,0a1.63,1.63,0,0,0-.17.2c-.24.26-.48.51-.74.75l-.39.35-.21.17-.08.07c.1-.09,0,0,0,0a9.31,9.31,0,0,1-.89.61c-.21.13-.42.46-.11.62a1.15,1.15,0,0,0,1-.13Z"/><path class="cls-1" d="M9.23,17.13a14.38,14.38,0,0,1,3.59,1.69,1.13,1.13,0,0,0,.95,0c.1-.05.67-.35.4-.52a15.19,15.19,0,0,0-3.77-1.8,1.36,1.36,0,0,0-1,.15c-.15.09-.48.39-.15.5Z"/><path class="cls-1" d="M6.68,20l.88,4.25c.07.34.6.36.85.28s.67-.31.6-.66l-.88-4.25c-.07-.34-.59-.36-.85-.28s-.67.31-.6.66Z"/><path class="cls-1" d="M4.25,19,1.48,22c-.07.08.08.12.11.13a1.19,1.19,0,0,0,.46,0,1.56,1.56,0,0,0,.85-.37l2.77-3c.07-.08-.07-.12-.11-.13a1.13,1.13,0,0,0-.45,0,1.56,1.56,0,0,0-.86.37Z"/><path class="cls-1" d="M.15,13.82l4.54,2.75a1.06,1.06,0,0,0,1-.12c.22-.14.41-.44.11-.62L1.3,13.08a1.06,1.06,0,0,0-1,.12c-.23.14-.41.44-.12.62Z"/><path class="cls-1" d="M371.12,11.23a15.21,15.21,0,0,0-1.32-3.9l-1.4.45a5.9,5.9,0,0,0,3,2.3c.31.11,1.19,0,1.3-.43a33.61,33.61,0,0,0,1.45-9.5c0-.32-1.44-.09-1.45.38a31.65,31.65,0,0,0,.25,5c.15,1.1.18,3,.92,3.89,1.41,1.68,4.17-1.54,5-2.42l-1.38.14a18.77,18.77,0,0,0-1.63,3.84c-.05.16.14.2.26.22a17.06,17.06,0,0,0,6.93-.37l-.51-.42c-2.11,1-4.86.79-6.47,2.76A2.3,2.3,0,0,0,377.21,17c.19,0,1.5-.36,1.13-.6A13.15,13.15,0,0,0,375,14.79c-.33-.1-1.29.05-1.31.51-.12,2.83-.16,5.67-.1,8.5,0,.33,1.44.08,1.45-.38a23.85,23.85,0,0,0-1.33-8.12c-.12-.35-1-.06-1.15,0a16.66,16.66,0,0,0-3.85,3.14l1.38-.14c.46-1.19,1.75-4,.34-5a7.38,7.38,0,0,0-2.49-.73,23.49,23.49,0,0,0-3.43-.44l-.76.67,2.22,0c.46,0,1.57-.67.61-.68l-2.23,0c-.32,0-1.51.63-.76.67a15.79,15.79,0,0,1,5.28.94c1.5.65.22,3.62-.22,4.74-.17.44,1.23,0,1.38-.14a14.71,14.71,0,0,1,3.39-2.8l-1.16,0a23.55,23.55,0,0,1,1.33,8.11l1.45-.38c-.06-2.84,0-5.68.1-8.51l-1.31.5A12.18,12.18,0,0,1,377,16.88l1.13-.59a1.78,1.78,0,0,1-1.23-1.75,2.61,2.61,0,0,1,1.61-2.32c1.53-.77,3.34-.81,4.9-1.57.73-.35-.12-.52-.5-.42a14.13,14.13,0,0,1-5.86.26l.25.22a19.05,19.05,0,0,1,1.64-3.83c.2-.37-1.21,0-1.38.14s-1.8,2.13-2.24,2-.68-2.34-.75-2.76a31.68,31.68,0,0,1-.42-6.07l-1.45.38a32.92,32.92,0,0,1-1.44,9.35l1.31-.42a5.66,5.66,0,0,1-2.81-2.2c-.2-.3-1.55.15-1.4.46a14.89,14.89,0,0,1,1.32,3.89c.08.38,1.54,0,1.45-.38Z"/></svg>