<svg id="レイヤー_1" data-name="レイヤー 1" xmlns="http://www.w3.org/2000/svg" viewBox="0 0 95.22 21"><defs><style>.cls-1{fill:none;stroke:#000;stroke-miterlimit:10;}</style></defs><path d="M35.9,7.48c0-.07,0-.38,0-.7s0-.36,0-.59-.16-.38-.21-.65a1.1,1.1,0,0,0-.45-.7.67.67,0,0,0-.22,0,2.21,2.21,0,0,0-.77.16,2.61,2.61,0,0,0-.8.88.57.57,0,0,0-.09.35c0,.23.08.5.08.81a1,1,0,0,0,.18.73c.1.17.07.56.16.81s.16.22.57.49a8.88,8.88,0,0,1,1.28,1.17A4.45,4.45,0,0,1,37,11.73a5.59,5.59,0,0,1,.36,1.78,6.3,6.3,0,0,1-.16,1.26c-.09.36-.22.65-.27.87a2.5,2.5,0,0,1-.44.83,2,2,0,0,1-.55.54c-.26.21-1,.61-1.34.83A1,1,0,0,1,34,18c-.2,0-.38,0-.56,0a3.55,3.55,0,0,1-1-.26,2,2,0,0,1-.76-.81,4.52,4.52,0,0,1-.25-1.24c0-.31-.13-.95-.13-1.37a.62.62,0,0,1,0-.21.68.68,0,0,1,.65-.56c.21,0,.56.18.56.45s-.18.39-.26.63a1.91,1.91,0,0,0-.1.54,1.54,1.54,0,0,0,.05.39,2.26,2.26,0,0,0,.36,1,2.9,2.9,0,0,0,.9.68.94.94,0,0,0,.4.07,1,1,0,0,0,.66-.21,1.6,1.6,0,0,0,.6-.74.62.62,0,0,1,.19-.43,2.7,2.7,0,0,0,.29-.7,1.56,1.56,0,0,0,.07-.56,5.34,5.34,0,0,0-.05-.81,1.3,1.3,0,0,1,0-.18,3.09,3.09,0,0,0-.41-1.1c-.18-.41-.49-.56-.69-.83l-.64-.79a11.65,11.65,0,0,0-.94-.85,3,3,0,0,1-.67-.72c-.07-.18-.07-.41-.23-.57a1.31,1.31,0,0,1-.32-.87,1.93,1.93,0,0,1,0-.23,3.69,3.69,0,0,1,.47-1.59c.31-.36.27-.52.49-.81a1.53,1.53,0,0,1,.65-.64,2.72,2.72,0,0,1,1.17-.51,3.94,3.94,0,0,1,1.17.24,2.09,2.09,0,0,1,.86.75,1.76,1.76,0,0,1,.18.78c0,.45.09.73.09.9s-.16.88-.39.86S35.9,7.59,35.9,7.48Z"/><path d="M39.94,5.29c0-.29,0-.45.2-.45.33,0,.47,0,.49-.08a.73.73,0,0,1,.5-.23,5.52,5.52,0,0,0,1.1-.13,2.39,2.39,0,0,1,.85-.07l.79,0a1.42,1.42,0,0,1,.32,0c.22,0,.43.2.43.4s-.12.3-.3.47a1,1,0,0,1-.32.14c-.11,0-.17,0-.19-.09s-.14-.11-.35-.16a1.27,1.27,0,0,0-.29,0l-.94,0a.44.44,0,0,0-.29.09c-.18.14-.32.18-.32.47s.18,1.2.18,2.12a2.82,2.82,0,0,1,0,.42c-.05.77-.07,1.06-.07,1.24s0,.36,0,.5,0,.26,0,.38,0,.22,0,.47c0,.07,0,.14,0,.23s0,.44,0,.62a.87.87,0,0,0,.14.61.63.63,0,0,0,.42.11c.57,0,.73,0,.93,0a3.18,3.18,0,0,1,.54-.09c.38,0,.45.11.52.34a.22.22,0,0,1,0,.11c0,.14-.12.2-.45.21h-.54a4.39,4.39,0,0,0-.86,0,1.3,1.3,0,0,1-.36,0,.3.3,0,0,0-.24.09,1.45,1.45,0,0,0-.25.87c0,.48.06.84.06,1.18v.2c0,.34-.09.81-.09,1.1,0,.07,0,.13,0,.29s0,.25,0,.34,0,.13,0,.14a2.71,2.71,0,0,0,.83.11c.2,0,.43.05.65.05a.8.8,0,0,0,.23,0A1.77,1.77,0,0,0,44,17c.23-.18.34-.21.48-.34a.43.43,0,0,1,.16-.07c.09,0,.17.09.18.27s.09.41.09.56,0,.11,0,.12a2.84,2.84,0,0,1-.71.26,2.28,2.28,0,0,1-.5,0,5.17,5.17,0,0,0-.83,0,1.73,1.73,0,0,1-.32,0c-.25,0-.51,0-.74,0a6,6,0,0,0-1,0,2.72,2.72,0,0,1-.43.08.27.27,0,0,1-.18,0c-.14-.07-.11-.32-.22-.61a.45.45,0,0,1,0-.11c0-.18.23-.16.23-.31a6.51,6.51,0,0,0-.09-.65A8.62,8.62,0,0,1,40,15.08c0-.14,0-.27,0-.41s0-.51,0-.69a1.07,1.07,0,0,0,0-.43,1.63,1.63,0,0,1-.23-.58.15.15,0,0,1,0-.07c.08-.14.27-.29.27-.38,0-.32-.07-.66-.07-1a1.68,1.68,0,0,1,.06-.45,5.65,5.65,0,0,0,.09-1.36,3.5,3.5,0,0,0,0-.66,5.87,5.87,0,0,1,0-1V7.7c0-.27,0-.7,0-.92s0-.7,0-1.1Z"/><path d="M47.36,5.29c0-.29,0-.45.2-.45.32,0,.47,0,.48-.08a.76.76,0,0,1,.51-.23,5.61,5.61,0,0,0,1.1-.13,2.32,2.32,0,0,1,.84-.07l.8,0a1.47,1.47,0,0,1,.32,0c.22,0,.43.2.43.4s-.12.3-.3.47a1,1,0,0,1-.33.14c-.11,0-.16,0-.18-.09s-.14-.11-.36-.16a1.12,1.12,0,0,0-.29,0l-.93,0a.44.44,0,0,0-.29.09c-.18.14-.33.18-.33.47s.18,1.2.18,2.12c0,.15,0,.29,0,.42-.06.77-.08,1.06-.08,1.24s.06.36.06.5-.06.26-.06.38.06.22.06.47c0,.07,0,.14,0,.23s0,.44,0,.62a.86.86,0,0,0,.15.61.62.62,0,0,0,.41.11c.58,0,.74,0,.94,0a3.18,3.18,0,0,1,.54-.09c.38,0,.45.11.52.34a.22.22,0,0,1,0,.11c0,.14-.13.2-.45.21h-.54a4.67,4.67,0,0,0-.87,0,1.21,1.21,0,0,1-.36,0,.27.27,0,0,0-.23.09,1.38,1.38,0,0,0-.25.87c0,.48,0,.84,0,1.18v.2c0,.34-.09.81-.09,1.1,0,.07,0,.13,0,.29s0,.25,0,.34a.19.19,0,0,0,0,.14,2.61,2.61,0,0,0,.83.11c.19,0,.43.05.64.05a.88.88,0,0,0,.24,0,1.73,1.73,0,0,0,.7-.22c.24-.18.34-.21.49-.34a.33.33,0,0,1,.16-.07c.09,0,.16.09.18.27s.09.41.09.56a.17.17,0,0,1,0,.12,2.89,2.89,0,0,1-.7.26,2.33,2.33,0,0,1-.5,0,5.17,5.17,0,0,0-.83,0,1.84,1.84,0,0,1-.33,0c-.25,0-.5,0-.73,0a5.89,5.89,0,0,0-1,0,2.94,2.94,0,0,1-.43.08.26.26,0,0,1-.18,0c-.15-.07-.11-.32-.22-.61a.23.23,0,0,1,0-.11c0-.18.24-.16.24-.31a6.51,6.51,0,0,0-.09-.65,8.62,8.62,0,0,1-.09-1.22c0-.14,0-.27,0-.41s0-.51,0-.69a1.4,1.4,0,0,0,0-.43,1.47,1.47,0,0,1-.24-.58.08.08,0,0,1,0-.07c.07-.14.27-.29.27-.38,0-.32-.07-.66-.07-1a2.22,2.22,0,0,1,0-.45,5.65,5.65,0,0,0,.09-1.36,4.64,4.64,0,0,0,0-.66,4.9,4.9,0,0,1-.06-1V7.7c0-.27,0-.7,0-.92s0-.7,0-1.1Z"/><path d="M59.92,4.39a.75.75,0,0,1,.35-.18c.14,0,.32.1.46.39a7.88,7.88,0,0,1,.65,1.55c.08.34.36,1.15.45,1.44s.11.29.11.32a3.9,3.9,0,0,0,.09.9c.11.31.14.19.27.56a1.49,1.49,0,0,1,.11.49.22.22,0,0,1,0,.09s.25.27.29.45.18.61.22.85.18.75.3,1.26.52,1.2.54,1.42a4.33,4.33,0,0,0,.2.81,2,2,0,0,0,.52-1c.13-.49.25-.9.29-1.14s.27-.52.29-.83a4.94,4.94,0,0,1,.16-1,5.29,5.29,0,0,1,.31-1c.07,0,.14-.66.23-.66s0-.11,0-.22a.27.27,0,0,0,0-.13A2.92,2.92,0,0,1,66,8a3.12,3.12,0,0,1,.3-.61,2.3,2.3,0,0,0,.15-.69,2.31,2.31,0,0,1,.16-.54,1.54,1.54,0,0,0,.23-.63c0-.05,0-.1,0-.14a3.44,3.44,0,0,0,0-.36.22.22,0,0,1,0-.14,2.18,2.18,0,0,1,.65-.64h0c.2,0,.42.34.52.74a3.65,3.65,0,0,1,.17,1.15,3.32,3.32,0,0,0,.12,1,4.67,4.67,0,0,1,.11.81,5.45,5.45,0,0,1,.11,1.08c0,.6.09,1.25.09,1.75a2.39,2.39,0,0,1,0,.42,1.58,1.58,0,0,0,0,.28,3,3,0,0,0,.12.58c0,.23.15.22.15.65,0,.07,0,.18,0,.29a3.46,3.46,0,0,0,0,.45c0,.38,0,.64,0,1.17,0,.34.09.45.09.81s0,.63,0,.79v.41c0,.22.14.49.14.67s-.5.81-.77.81A.63.63,0,0,1,68,18c-.3-.24-.27-.43-.34-.76a3.4,3.4,0,0,1,0-.74c-.06-1.46-.2-1.89-.2-2.19v-.69a7.09,7.09,0,0,0-.07-1.29,4.31,4.31,0,0,1-.08-.9c0-.31,0-.58,0-.69s-.16-1.55-.16-1.85c0-.13,0-.26,0-.38s0-.25,0-.4a8.38,8.38,0,0,0,0-.84c0-.09-.3.82-.46,1.13s-.35.38-.36.67a1.75,1.75,0,0,1-.11.73c-.13.26-.27.83-.38,1.14a12,12,0,0,1-.27,1.28c-.2.5-.38,1-.49,1.38a12,12,0,0,1-.32,1.28c-.14.36-.25.85-.36,1.12a.22.22,0,0,0,0,.11c0,.16.16.27.16.48V17a.39.39,0,0,1-.21.39c-.31.24-.43.47-.69.47s-.5,0-.61-.72a21.83,21.83,0,0,0-.66-2.41c-.06-.11-.27-.67-.35-.85s-.09-.52-.16-.74-.11-.47-.2-.74a4.91,4.91,0,0,1-.25-1,2.84,2.84,0,0,1,0-.38.19.19,0,0,0-.09-.16c-.18-.16-.06-.38-.2-.65s-.2-.9-.31-1.17a5.71,5.71,0,0,1-.18-1,5.37,5.37,0,0,0-.32-.8s0,0-.06,0-.19.63-.27,1a6.47,6.47,0,0,0-.1,1.28V10a1.3,1.3,0,0,1,0,.37,4.13,4.13,0,0,0-.14.87c0,.34,0,.57,0,.75a5,5,0,0,1-.13,1.21,3.1,3.1,0,0,0-.12.7,1.14,1.14,0,0,0,0,.25v.2a1.74,1.74,0,0,1-.05.47c-.11.43-.2,1-.26,1.42s-.1.85-.14,1.3,0,.41-.18.61a.47.47,0,0,1-.31.16c-.09,0-.16-.05-.18-.19s0-.24,0-.38a3.59,3.59,0,0,1,.11-.88,5.54,5.54,0,0,0,.09-1V15.6c0-.21.1-.59.1-.93a1.55,1.55,0,0,0,0-.22,1,1,0,0,1,0-.23c0-.26.09-.4.12-.71a5.87,5.87,0,0,0,.22-1,.44.44,0,0,0,0-.16.47.47,0,0,1,0-.18c0-.67.31-2.75.33-3.22s.11-.85.11-1.17.12-.81.14-1.19A14.68,14.68,0,0,1,59.6,5,1,1,0,0,1,59.92,4.39Z"/><path d="M76.14,4.29a1.43,1.43,0,0,1,.87.24,7.22,7.22,0,0,1,.84.94c.15.27.26.59.38.81a2.3,2.3,0,0,1,.33,1c.07,1,.1,1.8.1,2.43a11.09,11.09,0,0,1-.12,1.75,15.07,15.07,0,0,1-.16,1.92,7.26,7.26,0,0,0-.31,1.26,5.1,5.1,0,0,1-1,2.15c-.54.61-.68.41-.84.62s-.18.28-.44.4a1.69,1.69,0,0,1-1,.34,3.3,3.3,0,0,1-1.09-.32,3.19,3.19,0,0,1-1-.76,1.68,1.68,0,0,1-.49-.79,9.4,9.4,0,0,1-.41-1c-.06-.34-.08-.89-.18-1.28a5,5,0,0,1-.17-.92c0-.29,0-.76,0-1.15a1.64,1.64,0,0,1,0-.54l.11-.36a5.31,5.31,0,0,1,0-.67c0-.09,0-.16,0-.23a4.11,4.11,0,0,1,.21-.87,13,13,0,0,1,.42-1.6,3.39,3.39,0,0,1,.79-1.39,4.48,4.48,0,0,1,1-.86,1.78,1.78,0,0,0,.65-.45,2.86,2.86,0,0,1,1.33-.58A1.23,1.23,0,0,1,76.14,4.29Zm-.68,1c-.13,0-.23-.06-.43-.06a.47.47,0,0,0-.38.15,6.29,6.29,0,0,0-.76,1.08,5.72,5.72,0,0,0-.39,1.29,11.08,11.08,0,0,1-.22,1.35,3.43,3.43,0,0,0-.14,1.28,8.5,8.5,0,0,0,.1,1.19,8.24,8.24,0,0,0,.24,1.51,12.67,12.67,0,0,0,.21,1.3c.11.34.17.92.22,1.08a3.53,3.53,0,0,0,.68,1c.35.27.45.69,1,.69a.83.83,0,0,0,.29-.06,1.4,1.4,0,0,0,.52-.48c.14-.2.23-.22.3-.22s.2-.41.26-.6.43-.66.46-.89,0-.29,0-.46a.59.59,0,0,1,.1-.41c.17-.16.26-.18.33-.74a7.13,7.13,0,0,0,0-.79,5.1,5.1,0,0,1,0-.77,4.22,4.22,0,0,0,0-.49c0-.22,0-.42,0-.61a2.42,2.42,0,0,1,0-.38c0-.4.1-.49.1-.72a1.48,1.48,0,0,0,0-.2c-.06-.41-.13-1.55-.2-1.76a6.18,6.18,0,0,1-.29-.87A.93.93,0,0,0,77.1,6c-.18-.16-.4-.55-.61-.72A1,1,0,0,0,76,5.14C75.77,5.14,75.64,5.29,75.46,5.29Z"/><path d="M81.52,4.24a2.94,2.94,0,0,1,.56,0,9.77,9.77,0,0,0,1.14.09,1.89,1.89,0,0,0,.36,0,3.22,3.22,0,0,1,.74,0,5.38,5.38,0,0,0,.84.14c.06,0,.11,0,.29,0a3,3,0,0,1,1.1.33c.41,0,1.17,1.2,1.2,1.58a3.46,3.46,0,0,1,0,.45A7,7,0,0,1,87.66,8a3.43,3.43,0,0,1-.39,1,2.82,2.82,0,0,0-.51.86,5.11,5.11,0,0,1-.68,1.34,2.81,2.81,0,0,1-.54.68c-.27.27-.23.41-.47.63s-.32.29-.32.34,1,.79,1.24,1.08.52.94.7,1.07a2.59,2.59,0,0,1,.63.7,8.24,8.24,0,0,1,.63,1,1.43,1.43,0,0,1,.13.38,2.93,2.93,0,0,1-.11.52.59.59,0,0,1-.41.47c-.13,0-.47-.32-.71-.52-.59-.51-.34-.52-.73-1.06-.09-.13-.47-.35-.67-.65a3.31,3.31,0,0,0-.5-.62c-.26-.26-.36-.55-.6-.75a2.74,2.74,0,0,1-.63-.81,1.05,1.05,0,0,1-.09-.38.42.42,0,0,1,.09-.27c.16-.22.49-.92.63-.95a.44.44,0,0,0,.36-.33,2,2,0,0,1,.18-.68,8.82,8.82,0,0,0,.65-1.37c.09-.31.29-.34.29-.6s.2-.82.27-1.24a9,9,0,0,0,.07-1,1.49,1.49,0,0,0,0-.4c0-.12-.14-.81-.46-1.06A2,2,0,0,0,84.33,5H84.1c-.4,0-.68.2-1,.2,0,0-.07.07-.13.45a9.76,9.76,0,0,0,0,1c0,.4,0,.81,0,1.24,0,.63,0,1.23,0,1.8V10c0,.54.11.72.11,1s0,.74,0,1.15a2.91,2.91,0,0,1,0,.47c0,.22-.09,1.62-.09,2.33v.44c0,.29,0,.55,0,.78s0,.47,0,.65a1.58,1.58,0,0,1-.11.68,1.29,1.29,0,0,1-.88.54c-.2,0-.31-.14-.38-.43s0-.43-.15-.83a2.11,2.11,0,0,1,0-.21c0-.22.11-.33.11-.6s0-.63,0-1v-.34a3.75,3.75,0,0,1,.18-1,.63.63,0,0,0,0-.25c0-.31-.06-.85-.06-1.28a14.13,14.13,0,0,0-.09-2,13.72,13.72,0,0,1-.18-1.89c0-.47.07-1,.07-1.37s0-.27,0-.36,0-.52,0-.74,0-.12,0-.18c0-.37-.34-.63-.34-1a.39.39,0,0,1,0-.21A.28.28,0,0,1,81.52,4.24Z"/><path d="M90.25,5.29c0-.29,0-.45.2-.45.33,0,.47,0,.49-.08a.73.73,0,0,1,.5-.23,5.52,5.52,0,0,0,1.1-.13,2.39,2.39,0,0,1,.85-.07l.79,0a1.42,1.42,0,0,1,.32,0c.22,0,.44.2.44.4s-.13.3-.31.47a1,1,0,0,1-.32.14c-.11,0-.17,0-.19-.09s-.14-.11-.35-.16a1.27,1.27,0,0,0-.29,0l-.94,0a.44.44,0,0,0-.29.09c-.18.14-.32.18-.32.47s.18,1.2.18,2.12a2.82,2.82,0,0,1,0,.42C92,8.94,92,9.23,92,9.41s0,.36,0,.5,0,.26,0,.38,0,.22,0,.47c0,.07,0,.14,0,.23s0,.44,0,.62a.87.87,0,0,0,.14.61.65.65,0,0,0,.42.11,9.29,9.29,0,0,0,.93,0,3.18,3.18,0,0,1,.54-.09c.38,0,.45.11.53.34a.41.41,0,0,1,0,.11c0,.14-.12.2-.45.21H93.6a4.49,4.49,0,0,0-.86,0,1.25,1.25,0,0,1-.36,0,.3.3,0,0,0-.24.09,1.45,1.45,0,0,0-.25.87c0,.48.06.84.06,1.18v.2c0,.34-.09.81-.09,1.1,0,.07,0,.13,0,.29s0,.25,0,.34,0,.13,0,.14a2.71,2.71,0,0,0,.83.11c.2,0,.43.05.65.05a.8.8,0,0,0,.23,0,1.77,1.77,0,0,0,.71-.22c.23-.18.34-.21.48-.34a.43.43,0,0,1,.16-.07c.09,0,.17.09.18.27s.09.41.09.56,0,.11,0,.12a2.89,2.89,0,0,1-.7.26,2.43,2.43,0,0,1-.51,0,5.17,5.17,0,0,0-.83,0,1.73,1.73,0,0,1-.32,0c-.25,0-.5,0-.74,0a6,6,0,0,0-1,0,2.72,2.72,0,0,1-.43.08.27.27,0,0,1-.18,0c-.14-.07-.11-.32-.22-.61a.45.45,0,0,1,0-.11c0-.18.23-.16.23-.31a6.51,6.51,0,0,0-.09-.65,8.62,8.62,0,0,1-.09-1.22c0-.14,0-.27,0-.41s0-.51,0-.69a1.07,1.07,0,0,0,0-.43,1.63,1.63,0,0,1-.23-.58.15.15,0,0,1,0-.07c.08-.14.27-.29.27-.38,0-.32-.07-.66-.07-1a1.68,1.68,0,0,1,.06-.45,5.65,5.65,0,0,0,.09-1.36,3.5,3.5,0,0,0,0-.66,5.87,5.87,0,0,1,0-1V7.7c0-.27,0-.7,0-.92s0-.7,0-1.1Z"/><circle class="cls-1" cx="10.5" cy="10.5" r="10"/><path d="M13.84,10.24v1h-3v3h-1v-3h-3v-1h3v-3h1v3Z"/></svg>