<svg id="レイヤー_1" data-name="レイヤー 1" xmlns="http://www.w3.org/2000/svg" viewBox="0 0 186.38 63.67"><defs><style>.cls-1{fill:#f0908a;}</style></defs><path class="cls-1" d="M53.41,4.55s-2.48,0-5.6-.14c-.14,6.55-.42,20-.42,26.6l-2.55.18c-.88-9.77-1-30.88-1-30.88C49.25,0,53.41,0,53.41,0ZM58,30.14s1.85-6.16,1.5-22H64v.45h1V8.16h4.41s0,1.5-.24,21.35C65.77,29.89,63,30,63,30V26.15s.77,0,2.38.07l-.11-4.69H62.76C61,29.33,58,30.14,58,30.14Zm5.07-10.33h2.14c0-1.47,0-2.73-.07-3.88H63.6C63.46,17.36,63.28,18.66,63.07,19.81Zm.67-5.6H65.1c0-1.71-.07-3-.1-3.88H63.91C63.88,11.73,63.84,13,63.74,14.21Zm9.52-3.32a19.49,19.49,0,0,0-3.12-5.5s3.64-.94,6.76,4Zm9.52,1.85h4.09s0,1.75-.24,18.13H83.27c0-.38,0-.77,0-1.15h-9a11,11,0,0,0,0,1.15H70.84c-.35-14.91-.45-18.13-.45-18.13h4.06s0,1.54-.21,15.26h9C82.88,15.54,82.78,12.74,82.78,12.74Zm0,.84a26.31,26.31,0,0,1-2.14,5.18,16.54,16.54,0,0,1,2.14,2.52l-2.77,2a17,17,0,0,0-1.08-1.92A10.27,10.27,0,0,1,74.31,25a29,29,0,0,0,3.18-5.64,24.65,24.65,0,0,0-3-3.29,7.83,7.83,0,0,1,3.88,1.12,41,41,0,0,0,1.68-5.84ZM81.45,8.47,77.7,9.77A19.1,19.1,0,0,0,75,4.1S78.68,3.36,81.45,8.47Zm2.69-5.39L88,4.1c-2.06,6.05-7.35,6.16-7.35,6.16A17.14,17.14,0,0,0,84.14,3.08Zm16.7,25.52H96.92c-.49-9.45-.63-21.21-.63-21.21h4.9S101.19,18.2,100.84,28.6Zm7.45-7c-6.19,0-6.51-6.44-6.51-6.44a13,13,0,0,0,6.51,1.54ZM132,18.31s-.7,7.59-9.8,10.29h-4c-.49-9.45-.63-20.58-.63-20.58h4.9s0,7.21-.18,15.68A15.48,15.48,0,0,0,132,18.31Zm18.45,12.88c-5.39.31-9.56.31-9.56.31V27s2.49,0,5.6.1c.14-6.54.42-20,.42-26.6l2.56-.18C150.36,10.12,150.47,31.19,150.47,31.19ZM0,63.6A21.85,21.85,0,0,0,11.55,46.55c-5,.21-8.36.21-8.36.21V43.19s6.16,0,13.47.25c0,6.19-1.57,10.46-3.74,13.44,2-.32,5.39-.11,9.24,3.29L18.62,63.6A27.48,27.48,0,0,0,12,58,17.37,17.37,0,0,1,0,63.6ZM41.09,43.51H46c0,20.16-11.86,20.16-11.86,20.16s3.53-1.82,5.56-8.86a13.86,13.86,0,0,0-5.18-1.43l.07-3.54A8,8,0,0,1,30,53.24S31.5,51,31.5,42.81h4.9a12.69,12.69,0,0,1-1.75,6.93c3.4.21,4.87,1.85,5.5,3.29a39.21,39.21,0,0,0,.91-7.77H37.21v-1.4h3.88Zm16,9s6.51.11,18.55.46v3.22c-13.27.24-18.55.24-18.55.24Zm37.1,11.1H90.27c-.49-9.45-.63-21.21-.63-21.21h4.9S94.54,53.2,94.19,63.6Zm7.45-7c-6.19,0-6.51-6.44-6.51-6.44a13,13,0,0,0,6.51,1.54Zm23.14-10.08c-7.25.28-9.87.35-9.87.35v-3.6s3.71,0,14.87.24c0,19.57-12.84,20.13-12.84,20.13S123.83,59.54,124.78,46.48Zm6.12-4.09a7.31,7.31,0,0,0-1.82-2.28,3,3,0,0,1-.59,2.8,8.69,8.69,0,0,0-2.07-2.52L128,38.6a3.81,3.81,0,0,1,.91,1.16l1.51-1.68A3,3,0,0,1,130.9,42.39ZM143.54,47h3a31.82,31.82,0,0,0,.74,6.37S143.54,53.66,143.54,47Zm11,2.56h4.09c0,14-12.53,14-12.53,14S154.53,59.15,154.53,49.6ZM148.19,47h3.08a33.55,33.55,0,0,0,.7,6.37S148.19,53.66,148.19,47Zm28.6-4.3c0,9.2-6.44,10.46-6.44,10.46s1.54-2.27,1.54-10.46ZM174.48,63.6s6.51-3.33,7-18.41h-3.88v-1.4h3.92v-.35h4.9C186.38,63.6,174.48,63.6,174.48,63.6Z"/></svg>