<svg id="レイヤー_1" data-name="レイヤー 1" xmlns="http://www.w3.org/2000/svg" viewBox="0 0 422.5 43.2"><defs><style>.cls-1{fill:#f0908a;}</style></defs><path class="cls-1" d="M13.11,6.24s-3.41,0-7.69-.19c-.19,9-.57,27.46-.57,36.48l-3.51.24C.14,29.38,0,.43,0,.43,7.39,0,13.11,0,13.11,0Zm6.28,35.09s2.54-8.45,2.06-30.14h6.1v.62h1.39v-.62H35s0,2.06-.33,29.28c-4.61.53-8.45.67-8.45.67V35.86s1.05,0,3.26.1l-.14-6.44H25.92C23.52,40.23,19.39,41.33,19.39,41.33Zm7-14.16h2.93c0-2-.05-3.74-.1-5.33H27.07Q26.78,24.8,26.35,27.17Zm.91-7.68h1.88c-.05-2.35-.1-4.08-.15-5.33H27.5C27.46,16.08,27.41,17.86,27.26,19.49Zm13.06-4.56a26.83,26.83,0,0,0-4.27-7.54s5-1.29,9.26,5.43Zm13.06,2.54H59s0,2.4-.33,24.87H54.05c0-.53,0-1.06,0-1.58H41.66c0,.52,0,1.05,0,1.58H37c-.48-20.45-.63-24.87-.63-24.87H42s0,2.12-.29,20.93H54C53.52,21.31,53.38,17.47,53.38,17.47Zm0,1.16a36.79,36.79,0,0,1-2.93,7.1,21.62,21.62,0,0,1,2.93,3.46l-3.8,2.69a24.14,24.14,0,0,0-1.48-2.65c-3.27,4.13-6.34,5-6.34,5a39.61,39.61,0,0,0,4.37-7.73A32.83,32.83,0,0,0,42.05,22a10.64,10.64,0,0,1,5.33,1.53,57.56,57.56,0,0,0,2.3-8Zm-1.83-7-5.13,1.77a26.41,26.41,0,0,0-3.75-7.77S47.76,4.61,51.55,11.62Zm3.7-7.4,5.28,1.4c-2.83,8.3-10.08,8.45-10.08,8.45A23.62,23.62,0,0,0,55.25,4.22Zm22.89,35H72.77c-.67-13-.87-29.09-.87-29.09h6.72S78.62,25,78.14,39.22Zm10.23-9.65c-8.5,0-8.93-8.83-8.93-8.83a17.74,17.74,0,0,0,8.93,2.11Zm32.54-4.46s-1,10.41-13.44,14.11h-5.42c-.67-13-.87-28.23-.87-28.23h6.72s0,9.89-.24,21.51A21.2,21.2,0,0,0,120.91,25.11Zm25.3,17.66c-7.4.43-13.11.43-13.11.43V37s3.41,0,7.68.15c.2-9,.58-27.46.58-36.49l3.5-.24C146.06,13.87,146.21,42.77,146.21,42.77Zm20.68-3.55a30,30,0,0,0,15.85-23.38c-6.87.29-11.48.29-11.48.29v-4.9s8.45,0,18.48.34c0,8.5-2.16,14.35-5.13,18.43,2.73-.43,7.39-.14,12.67,4.52l-4.85,4.7c-2.64-3.36-7-6.29-9.12-7.63A23.86,23.86,0,0,1,166.89,39.22Zm56.36-27.55H230c0,27.65-16.27,27.65-16.27,27.65s4.84-2.5,7.63-12.15a19.11,19.11,0,0,0-7.11-2l.1-4.85A10.89,10.89,0,0,1,208,25s2.07-3.12,2.07-14.3h6.72a17.41,17.41,0,0,1-2.4,9.5c4.65.29,6.67,2.54,7.53,4.51a53.34,53.34,0,0,0,1.25-10.65h-5.28V12.15h5.33ZM245.18,24s8.93.15,25.45.63V29c-18.2.34-25.45.34-25.45.34Zm50.88,15.22h-5.37c-.67-13-.87-29.09-.87-29.09h6.73S296.55,25,296.06,39.22Zm10.23-9.65c-8.5,0-8.93-8.83-8.93-8.83a17.74,17.74,0,0,0,8.93,2.11ZM338,15.75c-9.94.38-13.54.48-13.54.48v-5s5.09,0,20.4.34c0,26.83-17.62,27.6-17.62,27.6S336.72,33.65,338,15.75Zm8.4-5.62A10.16,10.16,0,0,0,343.92,7a4.17,4.17,0,0,1-.82,3.84,11.75,11.75,0,0,0-2.83-3.46l2.21-2.45a5.12,5.12,0,0,1,1.25,1.59l2.06-2.31A4.07,4.07,0,0,1,346.42,10.13Zm17.32,6.38h4.18a43.85,43.85,0,0,0,1,8.74S363.74,25.59,363.74,16.51ZM378.82,20h5.61c0,19.2-17.18,19.2-17.18,19.2S378.82,33.12,378.82,20Zm-8.69-3.51h4.22a46,46,0,0,0,1,8.74S370.13,25.59,370.13,16.51Zm39.21-5.9c0,12.62-8.83,14.35-8.83,14.35s2.11-3.12,2.11-14.35Zm-3.16,28.61s8.92-4.56,9.55-25.25H410.4V12.05h5.38v-.48h6.72C422.5,39.22,406.18,39.22,406.18,39.22Z"/></svg>