<svg id="レイヤー_1" data-name="レイヤー 1" xmlns="http://www.w3.org/2000/svg" viewBox="0 0 69.17 39.22"><defs><style>.cls-1{fill:#f0908a;}</style></defs><path class="cls-1" d="M18.48,39.22v-.58H6.24v.58H.67C.14,16.71,0,1.3,0,1.3H6.58v.81H18.77a4.46,4.46,0,0,0,.05-.81h5.57c.48,22.56.62,37.92.62,37.92Zm0-2.93c0-2,0-5,.05-9H6.38c0,2.78,0,5.81-.09,9Zm-12-11.38h12.1c0-2.68,0-5.66.1-9.07H6.48C6.48,18.53,6.43,21.55,6.43,24.91Zm.1-11.42h12.1l.14-9H6.58C6.58,6.53,6.53,9.5,6.53,13.49Z"/><path class="cls-1" d="M36.38,5.33a83.35,83.35,0,0,0,6.29,7.58s-3.89,2.31-10.89-2.68Zm-.09,29.42-4.13-5.28c7.06-5.56,9.36-10.32,9.36-10.32S45.31,26,36.29,34.75ZM48.38,0l6.53,1.49c-.29,1.73-.67,3.31-1,4.75H69.17c-1.34,12.48-9,13.73-9,13.73S62.07,16,62.4,8.59H53.14C49.3,19.68,43.3,20,43.3,20S46.56,12.87,48.38,0ZM59.23,12.24C57.75,38.31,45,39.17,45,39.17s8.25-9.74,8.25-26.93ZM64,39.17c-8.2-8.59-4.94-15.46-4.94-15.46s2.11,4.66,8.54,10.08Z"/></svg>