<svg xmlns="http://www.w3.org/2000/svg" viewBox="0 0 422.87 114.45"><defs><style>.svg_about_noutore_header3-1{fill:none;stroke:#f0908a;stroke-miterlimit:10;stroke-width:3px;}.svg_about_noutore_header3-2{fill:#f0908a;}.about_noutore_header03-3{fill:#fff;}</style></defs><g id="レイヤー_2" data-name="レイヤー 2"><g id="レイヤー_1-2" data-name="レイヤー 1"><path d="M132.88,26.53l2.79,0s.05,4,0,11.64l8.8-.11.87-.89.89.87v1.08l-10.58.13c0,.26,0,.52,0,.79l-2.31,0C133,32,132.88,26.53,132.88,26.53Zm.27-3,6.91-.09c.08-.48.14-1,.18-1.56l2.36.32-.19,1.22,1.89,0,.87-.89.89.87,0,1.08-3.92.05a6,6,0,0,1-1.59,2.88l1.62,0v-.24l2.33,0c.31,5.36.42,9,.42,9l-2.79,0v-.28l-3.19,0v.29l-2.34,0c-.28-5.37-.39-9-.39-9l2.77,0v.25h.25a22.42,22.42,0,0,0,.65-2.87l-6.74.08Zm9,9.88-3.14,0c0,.44,0,.9,0,1.39l3.19,0Zm0-2.49L139,31c0,.42,0,.9,0,1.39l3.14,0C142.16,31.92,142.16,31.46,142.15,31ZM139,28.51c0,.37,0,.85,0,1.4l3.15,0c0-.47,0-.93,0-1.41Z"/><path d="M156.64,30.17a6.83,6.83,0,0,1-.84,1.52c0,1.81,0,4,0,6.61-2,.28-3.74.37-3.74.37l0-2.38,1.37,0-.1-2.37a8.68,8.68,0,0,1-1.79.74l-.65-2.54a10.16,10.16,0,0,0,2.37-.47c-.06-1.25-.09-2.35-.1-3.28l-1.94,0V27.35l1.91,0-.1-2.78,2.8,0v2.73l.83-.85.89.87v1.08l-1.72,0c0,.66,0,1.41,0,2.25Zm8.61,2.38a11.66,11.66,0,0,1-.67,2.87h.68l.87-.89.89.87v1.08l-3,0a6.16,6.16,0,0,1-4.3,3.16,10.2,10.2,0,0,0,1.73-3.13l-1.23,0c0,.11,0,.24,0,.37l-2.62-.16c.06-1.74.14-3.11.19-4.12l-1.45,0,0-1.08,1.52,0,.06-.86,3.1.18s0,.2-.08.64l4.29-.05.87-.89.89.87,0,1.08Zm-8.32-3.88,2,0a8.64,8.64,0,0,0-1.06-2.78A3,3,0,0,1,161.32,28l-1.58.59,2.25,0a9.48,9.48,0,0,0,1-3.23l2.45.35c-.73,1.83-1.64,2.59-2.37,2.86h1.59l.87-.87.89.84v1.1l-9.46.12Zm.6-4.79,2.93,0c-.15-1.25-.2-2.09-.2-2.09l2.64,0s0,.73-.07,2.09h1.08l.87-.89.89.87,0,1.08-8.15.09Zm4.68,8.71h-1.43c-.1.71-.22,1.66-.38,2.87l1.43,0A12.08,12.08,0,0,0,162.21,32.59Z"/><path d="M180.37,33.16c0,1.79,0,3.83,0,6.12-3.07.3-5.67.42-5.67.42l0-2.84s1,0,3.08.08c-.06-1.35-.1-2.6-.13-3.74l-6,.07v-1.1l6-.07-.1-3.46-5.24.07V27.63l5.21-.06c0-1,0-1.79-.07-2.38-3.17.17-4.57-.87-4.57-.87a18.49,18.49,0,0,0,9.12-3.58l1.83,2.9a25.85,25.85,0,0,1-3.39,1.1c0,.59,0,1.54,0,2.79l3,0,.87-.9.89.87v1.08l-4.77.06c0,1,0,2.15,0,3.45l3.71,0,.88-.87.88.85,0,1.1Z"/><path d="M202.76,34l.52,3c-9.08,2.66-12.05-2.74-6.72-6.28a4,4,0,0,0-1.4-.47,11.66,11.66,0,0,0,.85-2.49l-1.91,0V27l2.11,0a13.14,13.14,0,0,0,.19-2.44l3.08,0a6.84,6.84,0,0,1-.41,2.45h.77l.87-.89.89.87v.88l-2.92,0a7.28,7.28,0,0,1-1.28,1.75,3.3,3.3,0,0,1,1,.27c.42-.18.85-.36,1.34-.52l.45.9a6,6,0,0,0-.77.34l.83.89-1.83,1.47a5.68,5.68,0,0,0-.7-1.11C195.93,33.62,196.61,35.74,202.76,34Z"/><path d="M218.23,30.6a11.92,11.92,0,0,1,2.34,6.62l-.85.32a15.76,15.76,0,0,0-5.19-6.48A39.15,39.15,0,0,0,218,23.78l3.29,1.5A54.94,54.94,0,0,1,218.23,30.6Z"/><path d="M231.75,33.94a15.37,15.37,0,0,0,2.56-7.25l-1.54,0v-.88l1.65,0c0-.57.05-1.17,0-1.78l3.08,0a14.69,14.69,0,0,1-.09,1.79l2.8,0,.87-.89.89.87v.88l-4.67.06C236.31,32.61,231.75,33.94,231.75,33.94Zm7.81,3.36c-4,.05-3.09-4.45-3.09-4.45s.68,1.4,3.05,1.37a11,11,0,0,0,3.89-.59l.24,3.07S243.1,37.26,239.56,37.3Zm3.05-8.24-.15,2s-.84-.39-4.43,0l-.17-1.94C241.7,28.67,242.61,29.06,242.61,29.06Zm.53-5.16a1.91,1.91,0,0,1-.37,1.77,5.14,5.14,0,0,0-1.3-1.57l1-1.13a2.45,2.45,0,0,1,.58.71l.93-1.06a1.84,1.84,0,0,1,.3,2.7A4.83,4.83,0,0,0,243.14,23.9Z"/><path d="M253,31.88l3.08,0c0,3.19.76,4.35,2.68,5.2C254.65,37.32,253.05,35.84,253,31.88Zm4.91-4.12-3.9,0v-.88l3.67,0a25,25,0,0,0-.93-2.72l3-.87a22.67,22.67,0,0,1,.59,3.56h.79L262,26l.86.87v.88l-2.48,0c.12,4.42-1.69,6.05-1.69,6.05A25.09,25.09,0,0,0,257.91,27.76Z"/><path d="M277.18,26.21l-6.64.08v-.88l6.42-.08-.46-1.73,3-.52a21.75,21.75,0,0,1,.56,2.21h1.38l.87-.89.89.87v.88l-3,0a11.84,11.84,0,0,1,0,4.4,4.59,4.59,0,0,1,.11,2c-.52,4.17-3.43,4.31-3.43,4.31a5.87,5.87,0,0,0,1.37-3.67,2.88,2.88,0,0,1-4.5-2.34,2.72,2.72,0,0,1,2.64-2.72,5.86,5.86,0,0,1,1.16.12C277.51,27.61,277.34,26.89,277.18,26.21Zm.5,4.59a1.55,1.55,0,0,0-1.31-.58.85.85,0,1,0,.15,1.69C277.18,31.91,277.53,31.48,277.68,30.8Zm4.1-8.39.93-1.07a1.86,1.86,0,0,1,.32,2.71,5.43,5.43,0,0,0-1.16-1.44,1.94,1.94,0,0,1-.37,1.79,4.88,4.88,0,0,0-1.3-1.57l1-1.16A2.59,2.59,0,0,1,281.78,22.41Z"/><path d="M301.15,36.38c-5.86,1.36-8.35-2.94-4.62-7.67-1.24-.39-3.32-1.53-4-5l3-.82A16.06,16.06,0,0,0,297,28.11a19,19,0,0,1,2.76-2.44l2.14,2.22C293.29,34.11,301.15,36.38,301.15,36.38Z"/><path d="M314.39,26.78l-2.64,0v-.88l2.71,0c.05-.88.15-1.83.25-2.82l3.08,0c-.12,1-.22,2-.29,2.82l1.4,0,.87-.86.89.84v.88l-3.25,0c-.08,1.06-.11,2-.1,2.78l1.65,0,.87-.89.89.87v.88l-3.39,0c.25,3.93,1.75,4.46,4.11,3.6a3.44,3.44,0,0,1-3.22,2.37c-2.49,0-3.66-2-3.88-5.94l-2.53,0v-.88l2.51,0C314.31,28.72,314.32,27.79,314.39,26.78Z"/><path d="M329.76,35l-.7-3a13.16,13.16,0,0,0,1.72-.26c-.06-1.23-.12-2.35-.15-3.34h-1.39V27.28h1.34c-.06-1.41-.1-2.44-.1-3l-1.28,0V23.17l3.81,0,.87-.87.89.84v1.08l-2,0c0,.57,0,1.58,0,3H333l.87-.89.89.87,0,1.08-2,0c0,.81,0,1.76,0,2.8a14.32,14.32,0,0,0,2.06-.95S335.05,33.73,329.76,35Zm14-2.41,2.39.59s-.32,1.28-1,3.68c0,0-1.59,0-4.58-.12-.2-3.36-.3-5-.34-5.76h-.79c-.73,6.7-5.22,6.62-5.22,6.62s2.23-1.35,2.63-6.41h-1.14c-.32-6.51-.44-10.93-.44-10.93l3,0v.2l3.15,0v-.19l2.55,0c.32,6.49.44,10.94.44,10.94l-1.67,0c0,.52,0,1.4,0,2.88a7.8,7.8,0,0,1,.8,0Zm-2.38-4.79-3.11,0c0,.66,0,1.37,0,2.09l3.13,0C341.35,29.32,341.35,28.62,341.34,27.76Zm0-3.15-3.1,0c0,.61,0,1.32,0,2.07l3.13,0C341.34,26.06,341.35,25.36,341.34,24.61Zm0-3.17-3.15,0,0,2.09,3.1,0C341.37,22.87,341.36,22.17,341.37,21.44Z"/><path d="M349.9,24.93c-.25-3.15-.33-3.83-.33-3.83l2.77,0v.33l3.34,0-.24-1.91,2.79,0s0,.21-.08,1.91l3.27,0V21l2.33,0c.28,3.15.36,3.83.36,3.83l-2.67,0,.45.46v1.08l-3.61,0c-.05.59-.16,1.17-.26,1.72l2.15,0,.87-.89.87.87,0,1.08-4.14.05a16.36,16.36,0,0,1-.51,1.7l4-.05.87-.87.87.85v1.1l-4.69.06a17.41,17.41,0,0,0,5,2.58l-1.48,2.7A9.41,9.41,0,0,1,357.42,32h-.55c-2.18,5-5.81,5.4-5.81,5.4A14.2,14.2,0,0,0,354.12,32L351,32v-1.1l3.47,0c.15-.53.3-1.1.42-1.7l-2.81,0,0-1.08,3,0c.08-.55.16-1.12.22-1.72l-3.28,0V25.36l3.37,0c0-.68.05-1.38,0-2.11l3.08,0c0,.73-.05,1.44-.09,2.12l1.74,0,.87-.89.29.28c0-.22,0-.81.06-2.29l-9.06.11-.09,2.42Z"/><path d="M371.74,33.54a14.94,14.94,0,0,0,1.2-4.68h-1.25l0-3.08,1.54,0c.06-.94,0-2,0-3.1l3.09.4a23.18,23.18,0,0,1-.15,2.89c3.74,1.19,5,7.16.14,9.72,1.14-2.41,1.48-5.38-.8-6.43C374.18,33.13,371.74,33.54,371.74,33.54Zm7.2-7.55,1.44-2.72c4.19,3,2.54,6.59,2.54,6.59A8,8,0,0,0,378.94,26Zm2.47-3.11,1-1.13a3.06,3.06,0,0,1,.58.72l.93-1.07a1.85,1.85,0,0,1,.3,2.7,5,5,0,0,0-1.14-1.44,1.92,1.92,0,0,1-.38,1.79A5,5,0,0,0,381.41,22.88Z"/><path d="M397.73,33.49s-.48,2.78-9.25,3.57l0-2.42c1.14,0,2.24,0,3.25-.13,0-.31,0-.79,0-1.56l-2.81,0V31.9l2.81,0c0-.44,0-.95,0-1.5h-.53a1.42,1.42,0,0,0,0,.29l-2.11,0c-.28-5.06-.36-6.16-.36-6.16l2.55,0v.33h.49l0-1.15-3.32,0V22.64l3.34,0V22l1.89,0a3.89,3.89,0,0,0,0,.59l1.62,0,.88-.89.89.87v1.08l-3.37,0c0,.4,0,.77,0,1.14h.72v-.33l2.11,0c.28,5.06.36,6.16.36,6.16l-2.55,0v-.29h-.47c0,.55.06,1,.07,1.49h1.23l.87-.89.87.87v1.08l-2.95,0c0,.57,0,1,.06,1.3A29.84,29.84,0,0,0,397.73,33.49Zm-9-12.79a14.3,14.3,0,0,0,6.13-2.62l1.41,2C390.78,23.17,388.75,20.7,388.75,20.7Zm3,8.57c0-.35,0-.72,0-1.14h-.52c0,.36,0,.73,0,1.15Zm-.48-3.36c0,.31,0,.68,0,1.15h.48c0-.37,0-.75,0-1.14Zm2.51,0c0,.4,0,.77,0,1.15h.61c0-.35,0-.73,0-1.15Zm.61,3.36c0-.31,0-.68,0-1.14h-.57c0,.42,0,.8,0,1.15Zm7.45-4.91,2.77,0s.05,3.81,0,11.05c-2,.33-3.69.44-3.69.44l0-3.08s.46,0,1.28,0c-.13-3.15-.22-5.61-.26-7h-.59c-.59,10.24-3.94,11.18-3.94,11.18a55.38,55.38,0,0,0,1.14-11.15h-.92l0-1.08h1c0-1,0-2,0-3l2.86,0c0,1.08,0,2.09,0,3h.5Z"/><path d="M416.21,28.26a11.84,11.84,0,0,1,2.35,6.61l-.86.32a15.73,15.73,0,0,0-5.18-6.47,39.16,39.16,0,0,0,3.5-7.28l3.3,1.5A56,56,0,0,1,416.21,28.26Z"/><path d="M185.25,50.87s-2.13,0-4.8-.06c0,5.61-.16,17.16-.09,22.8l-2.19.18c-.85-8.36-1.15-26.45-1.15-26.45,4.61-.32,8.18-.37,8.18-.37Z"/><path d="M188.84,72.76s1.53-5.29,1.07-18.85l3.81,0v.4l.87,0v-.39l3.78,0s0,1.29,0,18.3c-2.87.36-5.27.48-5.27.48l0-3.3s.66,0,2,0l-.14-4-2.13,0C191.41,72,188.84,72.76,188.84,72.76Zm4.24-8.9,1.83,0c0-1.26,0-2.34-.1-3.33l-1.32,0C193.39,61.76,193.25,62.87,193.08,63.86Zm.52-4.8,1.17,0c-.05-1.47-.09-2.55-.13-3.33h-.93C193.69,56.92,193.67,58,193.6,59.06Zm8.12-3A16.81,16.81,0,0,0,199,51.43s3.11-.84,5.83,3.32Zm8.18,1.49,3.51,0s0,1.5,0,15.54l-2.88,0c0-.33,0-.66,0-1l-7.71.09c0,.33,0,.66,0,1l-2.88,0c-.46-12.77-.58-15.53-.58-15.53l3.48,0s0,1.32,0,13.08l7.68-.09C210,60,209.9,57.6,209.9,57.6Zm0,.72a22.08,22.08,0,0,1-1.78,4.46A14.07,14.07,0,0,1,210,64.92l-2.35,1.71a16.34,16.34,0,0,0-.95-1.64,8.87,8.87,0,0,1-3.92,3.17,25.53,25.53,0,0,0,2.67-4.86,20.26,20.26,0,0,0-2.59-2.79,6.67,6.67,0,0,1,3.35.92,37,37,0,0,0,1.38-5ZM208.72,54l-3.2,1.14a16.36,16.36,0,0,0-2.4-4.83S206.3,49.6,208.72,54ZM211,49.31l3.31.83a7.22,7.22,0,0,1-6.23,5.35A14.68,14.68,0,0,0,211,49.31Z"/><path d="M228.54,71l-3.36,0c-.51-8.09-.75-18.17-.75-18.17l4.2-.05S228.74,62.06,228.54,71Zm6.32-6.1c-5.31.06-5.65-5.46-5.65-5.46a11.09,11.09,0,0,0,5.6,1.26Z"/><path d="M255.76,61.83s-.52,6.52-8.29,8.92l-3.39,0c-.52-8.1-.75-17.63-.75-17.63l4.2,0s.07,6.18,0,13.44A13.28,13.28,0,0,0,255.76,61.83Z"/><path d="M272.9,72.67c-4.61.32-8.18.36-8.18.36l-.05-3.87s2.13,0,4.8,0c.06-5.61.16-17.17.09-22.8l2.19-.18C272.6,54.61,272.9,72.67,272.9,72.67Z"/><path d="M295.76,69.31c2.3-3,.95-8.42-8.5-5.45l-1.12-3.38c5.95-2.14,11.53-2,13,2.31C300.68,67.42,295.76,69.31,295.76,69.31Z"/><path d="M322.36,53.42c-4.16,6-9.52,11.6-2.29,16.47-11.07.13-8.69-8.72-2.86-13a41.88,41.88,0,0,1-8.53,1.24l-.05-4.2C315.47,53.86,322.36,53.42,322.36,53.42Z"/><path d="M333.31,61a9.12,9.12,0,0,1-3.73,1.57,24.66,24.66,0,0,0,5.2-11.61l4,1.22c-1,4.45-3.07,7-5,8.45l2.67,0c.41,7.5.52,9.12.52,9.12l-3.8,0S333.19,68.86,333.31,61Zm11.14,2.9V62.64l-1.92,0c0,.39,0,.81,0,1.23l-3.18,0c-.43-8.1-.54-9.86-.54-9.86l3.81,0,0,.87,1.95,0a8.61,8.61,0,0,1,0-.87l3.15,0c.42,8.12.53,9.86.53,9.86Zm8.62-16.36,1.22,1.18v1.47l-1.71,0c0,2,0,7.32,0,20.7-3,.4-6.14.52-6.14.52l-.05-3.68s1.2,0,2.91,0c-.3-10.65-.45-15.53-.54-17.51l-9.66.11V48.87l12.75-.15Zm-8.6,13.63.07-4.8-2,0c0,1,0,2.61,0,4.8Z"/><path d="M364.82,64.08a6.77,6.77,0,0,1,1.5-4.79c.77-.94,1.55-1.46,1.53-2.51s-2-2.47-4.71-.63l-1.49-3.59c3.31-2,6.55-1.72,8.37-.22A4.45,4.45,0,0,1,371.49,57a7,7,0,0,1-2.21,3.38,4.87,4.87,0,0,0-1.37,3.74Zm3.34,3.38a1.86,1.86,0,1,1-3.72,0,1.86,1.86,0,0,1,3.72,0Z"/><path d="M140.32,93.12a19.12,19.12,0,0,1-1.48,3h8.52v7.32H146v-.68h-7.24v.68h-1.31V98.16a19.37,19.37,0,0,1-2.49,2.56l-1-1a16.33,16.33,0,0,0,4.91-6.55h-4.72V91.86h5.19a22.87,22.87,0,0,0,.78-3.14l1.35.27c-.2,1-.44,2-.72,2.87h8.13v1.26ZM146,97.4h-7.24v4.13H146Z"/><path d="M154.22,89.55a28.9,28.9,0,0,0-.9,7.3,15.36,15.36,0,0,0,.87,5.7l-1.43.42a18.59,18.59,0,0,1-.84-6.09,35.07,35.07,0,0,1,.86-7.58Zm9.72,10.94v1.36c-1,.09-2.13.16-3.09.16-2.85,0-5-.47-5-2.07a6,6,0,0,1,.73-2.45l1.24.24a4.38,4.38,0,0,0-.6,1.81c0,.91,1.28,1.18,3.56,1.18A20.61,20.61,0,0,0,163.94,100.49ZM156.12,93,156,91.71c1.51-.12,3.43-.22,5.17-.22.84,0,1.7,0,2.37.05l0,1.29c-.78,0-1.77-.08-2.74-.08C159.26,92.75,157.49,92.85,156.12,93Z"/><path d="M180.05,102.09l-1.28.89a34.1,34.1,0,0,0-4.61-4.8,20,20,0,0,1-6,4.79l-.93-1.17c4.33-2,7.9-6.31,8.93-9.72h-7.91V90.79H177l1,.57a19.77,19.77,0,0,1-3,5.75A48.43,48.43,0,0,1,180.05,102.09Z"/><path d="M195.46,91.35c-.34,5.74-2.55,9.44-7.43,11.54l-.9-1.22c4.76-1.92,6.52-5.15,6.74-9.57h-8.48v4H184V90.75h10.42Z"/><path d="M206.73,94.08V103h-1.48V95.14a30.68,30.68,0,0,1-5.51,3L199,96.84c3.74-1.29,9-5,11-7.59l1.14.89A25.29,25.29,0,0,1,206.73,94.08Z"/><path d="M226.14,91.22l1.12.61c-1.15,5.1-3.76,8.94-8.78,11.12l-1-1.17a12.41,12.41,0,0,0,8.07-9.22h-9.86V91.22Zm3.35-1.43a1.65,1.65,0,0,1-1.65,1.65,1.65,1.65,0,0,1,0-3.3A1.65,1.65,0,0,1,229.49,89.79Zm-.51,0a1.16,1.16,0,0,0-1.14-1.13,1.14,1.14,0,0,0,0,2.27A1.17,1.17,0,0,0,229,89.79Z"/><path d="M243.79,97.56c-1.47,4.16-3.54,5.41-6.19,5.41-3.12,0-4.5-1.8-4.5-5.24,0-1.55.06-4.88.1-8.34h1.52c-.18,3.46-.23,6.76-.23,8.31,0,2.82,1,3.87,3.14,3.87s3.71-1.1,4.83-4.65Z"/><path d="M258.24,101.46l-.18,1.38c-4.41-.18-7.1-1.89-7.1-5.06,0-2.16,1.34-4.15,3.44-5.6-1.78.16-5.27.38-7.38.48l-.1-1.33c2.18-.06,7-.37,8.49-.5,1.23-.09,2.78-.25,3.89-.38l.16,1.38a23.52,23.52,0,0,0-2.45.27,3.63,3.63,0,0,0-1.22.53c-2,1.29-3.41,3.05-3.41,5.09C252.38,99.94,254.32,101.27,258.24,101.46Z"/><path d="M268.65,97.94l1.19.53c-.63,2.46-1.49,3.79-2.71,3.79-1.74,0-3.76-2.67-3.76-7.5,0-1.08,0-2.31.13-3.61l1.46.13a33.58,33.58,0,0,0-.2,3.43c0,3.68,1.25,6,2.31,6C267.72,100.72,268.29,99.57,268.65,97.94Zm7.75,1.46-1.52.12c0-3.52-.77-5.81-2.9-7.89l1.17-.78C275.49,93.22,276.29,95.8,276.4,99.4Z"/><path d="M290.37,98.08c0,2.8-1.94,4.53-6.79,4.63l-.24-1.26c4.18,0,5.71-1.25,5.71-3.3,0-1.62-1.08-2.64-3.07-2.64a26.7,26.7,0,0,0-5.66,1.13L280,95.36a37.56,37.56,0,0,1,6.19-1.1C288.73,94.26,290.37,95.73,290.37,98.08Z"/><path d="M306.24,101.46l-.18,1.38c-4.41-.18-7.1-1.89-7.1-5.06,0-2.16,1.34-4.15,3.44-5.6-1.78.16-5.27.38-7.38.48l-.1-1.33c2.18-.06,7-.37,8.49-.5,1.23-.09,2.78-.25,3.89-.38l.16,1.38a23.52,23.52,0,0,0-2.45.27,3.63,3.63,0,0,0-1.22.53c-2,1.29-3.41,3.05-3.41,5.09C300.38,99.94,302.32,101.27,306.24,101.46Z"/><path d="M325,100.85l-.82,1a8.38,8.38,0,0,0-1-1c-.48,1.51-1.44,2.1-3.21,2.1-1.92,0-3.1-.93-3.1-2.19s1.2-2.18,3.14-2.18a5.93,5.93,0,0,1,2.17.37c0-.43,0-1,0-1.51,0-3.34-.59-4.17-2.24-4.17-1.26,0-3.17,1-4.95,3,0,2.74-.06,5.44,0,6.72h-1.38c0-1.09,0-3,.06-5-.67.9-1.44,2-2.09,3l-1.08-.81a36.91,36.91,0,0,0,2.77-4.29,10.22,10.22,0,0,0,.45-1l0-1.46-2.86.32-.16-1.3c.67,0,2-.16,3-.3,0-1.22.05-2.26.05-2.88h1.37L315.17,92l.55.44c-.2.56-.43,1.34-.6,2,0,.06,0,.14,0,.21a7.86,7.86,0,0,1,5.27-2.79c2.29,0,3.21,1.2,3.21,5.59a16.64,16.64,0,0,1-.11,2.13A9.85,9.85,0,0,1,325,100.85Zm-3-.73a4.69,4.69,0,0,0-2.05-.5c-1.25,0-1.95.48-1.95,1.14s.77,1.09,1.85,1.09A1.87,1.87,0,0,0,322.08,100.12Z"/><polyline class="svg_about_noutore_header3-1" points="331.62 90.06 338.62 97.06 331.62 104.06"/><polyline class="svg_about_noutore_header3-1" points="340.62 90.06 347.62 97.06 340.62 104.06"/><polyline class="svg_about_noutore_header3-1" points="349.62 90.06 356.62 97.06 349.62 104.06"/><path class="svg_about_noutore_header3-2" d="M56.16,104.92h0c-6.54.46-13.24.9-19.52-1C31,102.23,26,98.7,21.56,94.71,5.46,80.1-3.82,56,4.58,36c3.25-7.77,8.82-14.36,15-20.09S32.48,5.25,40.33,2.69c17.3-5.62,36.25,1.48,51.52,11.38,5.81,3.76,11.42,8,15.67,13.48,11.48,14.8,9.19,37,.06,52.58C96.76,98.55,75.9,103.54,56.16,104.92Z"/><path class="svg_about_noutore_header3-2" d="M56.37,104.16c-6.43.46-13.16.92-19.38-1.15-5.56-1.86-10.38-5.4-14.63-9.36A62.53,62.53,0,0,1,5.45,67.34c-3.15-9.72-3.62-20.35,0-30,4-10.87,12.75-19.92,21.87-26.77a44.76,44.76,0,0,1,16.06-8A42.81,42.81,0,0,1,60.4,2.13C72.19,4,83.25,9.61,93,16.3a57.31,57.31,0,0,1,13.14,11.81,36.33,36.33,0,0,1,6.48,13.78c2.39,10,1.08,20.7-2.58,30.23S100.19,89.78,91.36,95c-8.44,5-18.2,7.3-27.87,8.46-2.36.29-4.74.5-7.12.67-.43,0-1.63.38-1.65,1s.79.6,1.23.57c10.42-.75,21-2.41,30.63-6.56s17.75-10.77,22.88-19.91a56,56,0,0,0,7.17-31,40.64,40.64,0,0,0-4-15.1,41.89,41.89,0,0,0-11-13.46A96.24,96.24,0,0,0,86,9.23,83.16,83.16,0,0,0,69,2.14C57.15-1.2,44.64-.85,33.55,4.75A66.36,66.36,0,0,0,18.42,15.66,69.89,69.89,0,0,0,6.74,29.26a44,44,0,0,0-6,31.63A61.27,61.27,0,0,0,15,89.87a56.5,56.5,0,0,0,13.23,11.44,35.14,35.14,0,0,0,18.25,4.79c3.18,0,6.35-.2,9.52-.42.44,0,1.63-.38,1.66-1S56.81,104.13,56.37,104.16Z"/><path class="about_noutore_header03-3" d="M27.1,46.61a.51.51,0,0,1,0-.2c0-.1.05-.2.06-.27a.86.86,0,0,1,.1-.34l3.57-.93.42-.84-2.93-11.3a.65.65,0,0,0-.5-.47,1.27,1.27,0,0,0-.69-.08c-.09,0-.27,0-.51.1l-.8.11c-.3,0-.54.11-.82.15l-.5.13a.73.73,0,0,1-.55-.52,6.6,6.6,0,0,1-.23-.77,3.89,3.89,0,0,1-.14-.91,1.27,1.27,0,0,1,.35-.83c.72-.43,1.43-.87,2.21-1.39a16.8,16.8,0,0,0,2.09-1.63l3.18-.82a.61.61,0,0,1,.55.14.94.94,0,0,1,.34.46l4.27,16.48s.07,0,.17,0,.14.06.17,0a.57.57,0,0,1,.25.09.68.68,0,0,0,.22.11L40,42.51c.08,0,.26,0,.46.19a.83.83,0,0,1,.32.36l.66,2.56a.8.8,0,0,0,0,.2.72.72,0,0,1-.08.27s-.05.08-.06.15a.27.27,0,0,0-.07.08L28.3,49.67l-.48-.29Z"/><path class="about_noutore_header03-3" d="M53.84,42.22q.49-.47,1.2-1.26c.46-.54,1-1.17,1.51-1.89A15.11,15.11,0,0,0,58,36.78a11,11,0,0,0,.88-2.49,5.28,5.28,0,0,0,0-2.5,5.12,5.12,0,0,0-.19-.49.36.36,0,0,0-.45-.27l-3,.77a.53.53,0,0,1-.5-.09l-.39-.37a1.81,1.81,0,0,0-.4-.34.46.46,0,0,0-.44-.11,1.12,1.12,0,0,0-.63.51,2.47,2.47,0,0,1-.57.62.14.14,0,0,1-.08.06,2.47,2.47,0,0,1-1,0A6,6,0,0,1,50,31.51a4.19,4.19,0,0,1-1.06-.77,1.85,1.85,0,0,1-.58-.87,3.08,3.08,0,0,1,.26-.73c.15-.39.4-.9.67-1.44s.61-1.21,1-1.91.67-1.31,1-1.94.61-1.21.85-1.75.4-.89.5-1.14a4.33,4.33,0,0,0,.23-1.05A8.75,8.75,0,0,1,53,18.66a3.92,3.92,0,0,1,.38-1.11,1.14,1.14,0,0,1,.77-.61c.26-.07.6-.13,1-.2a5.1,5.1,0,0,1,1.23-.06,3.86,3.86,0,0,1,1.09.19,1,1,0,0,1,.61.64c0,.08,0,.18,0,.3a31.34,31.34,0,0,1-1,4.3c-.43,1.38-.9,2.77-1.42,4.17a.91.91,0,0,0,0,.31,1.41,1.41,0,0,0,.1.29c0,.15.12.19.24.16l12.7-3.29c.12,0,.16-.11.12-.25s0-.25,0-.31,0-.18-.08-.3c-.35-.26-.88-.69-1.58-1.21S65.75,20.56,65.05,20s-1.36-1.23-2-1.84A3.8,3.8,0,0,1,62,16.58a.87.87,0,0,1,.27-.8,5.5,5.5,0,0,1,.82-.75,10.31,10.31,0,0,1,1-.62,4.86,4.86,0,0,1,.78-.29,1.73,1.73,0,0,1,1.36.34,13.1,13.1,0,0,1,1.59,1.24c.54.5,1,1,1.57,1.53a8.62,8.62,0,0,0,1.34,1.11c.19.14.53.37,1,.69s1.06.64,1.59,1,1.12.66,1.62,1,.87.54,1,.65l.16.59-.2.34c-.1.25-.25.51-.42.84l-.48.95c-.21.31-.35.6-.49.82s-.21.41-.3.56a.92.92,0,0,1-.26.35,1.14,1.14,0,0,1-.46.15,2.71,2.71,0,0,1-.79.05l-.1.44c.18,1,.44,1.95.71,3s.5,2.06.69,3.06a21.16,21.16,0,0,1,.36,2.95,7.51,7.51,0,0,1-.33,2.66,4.79,4.79,0,0,1-1.45,2.12,7.33,7.33,0,0,1-2.94,1.4L69.4,42l-.56.15-.57.14-.38.1a2.77,2.77,0,0,1-.78-.56,4.47,4.47,0,0,1-.69-.8,5.67,5.67,0,0,1-.51-.89,3.86,3.86,0,0,1-.3-.78,1.2,1.2,0,0,1,0-.3c0-.13,0-.2.13-.23L68.88,38a1,1,0,0,0,.67-.72,4.11,4.11,0,0,0,.16-1.44,11.39,11.39,0,0,0-.11-1.78c-.1-.64-.19-1.25-.3-1.79s-.24-1.05-.38-1.46l-.21-.8-.17-.65c-.08-.3-.11-.45-.11-.45l-.53-.31-4.16,1.08c-.06,0-.12.28-.15.8s-.06,1.09-.09,1.7,0,1.25,0,1.82a9.42,9.42,0,0,1,0,1.06,15.92,15.92,0,0,1-.73,2.82,24.14,24.14,0,0,1-1.48,3.24,13.67,13.67,0,0,1-2,2.77,5.09,5.09,0,0,1-2.4,1.55,1.42,1.42,0,0,1-.88-.22,7.05,7.05,0,0,1-1.11-.73,9.68,9.68,0,0,1-1-1,2.2,2.2,0,0,1-.49-.79S53.51,42.53,53.84,42.22Z"/><path class="about_noutore_header03-3" d="M26.3,68.5a13.07,13.07,0,0,1,.24-1.65c.09-.51.2-1,.29-1.38a1.89,1.89,0,0,0,.07-.91.07.07,0,0,0,0,0,.55.55,0,0,0-.15-.11l-.29.06-.29.07a11.38,11.38,0,0,0-1.32.45c-.44.19-.88.39-1.31.6l-1.27.58a12.93,12.93,0,0,1-1.33.44.63.63,0,0,1-.61-.09,1.12,1.12,0,0,1-.36-.49,3.06,3.06,0,0,1-.2-.7,6.24,6.24,0,0,0-.15-.67.65.65,0,0,1,.35-.78c.27-.12.68-.26,1.26-.45s1.21-.44,1.92-.68,1.47-.51,2.28-.78,1.55-.52,2.27-.79,1.38-.48,1.94-.66l1.27-.43c.41-.15.86-.31,1.33-.45s.94-.29,1.4-.4l.22-.06a1.15,1.15,0,0,1,.26,0,.38.38,0,0,1,.26.06c.07,0,.11.11.14.2l.52,2-.18.31a22.15,22.15,0,0,0-2.39,1,7.4,7.4,0,0,0-2,1.38,4.59,4.59,0,0,0-1.24,2,4.66,4.66,0,0,0,0,2.67,3.55,3.55,0,0,0,1,1.77,3.7,3.7,0,0,0,1.56.89,7.26,7.26,0,0,0,1.9.28,16.73,16.73,0,0,0,2-.07c.11,0,.17,0,.21.17l.06.25a6,6,0,0,1,.13.72,4.14,4.14,0,0,1,0,.86,2.25,2.25,0,0,1-.25.77.79.79,0,0,1-.55.45,7.66,7.66,0,0,1-2.74.18,8,8,0,0,1-2.63-.8,7.92,7.92,0,0,1-2.13-1.65,5.68,5.68,0,0,1-1.27-2.37A4.91,4.91,0,0,1,26.3,68.5ZM32,65.34a.42.42,0,0,1,0-.29,1.14,1.14,0,0,1,.21-.3,1,1,0,0,1,.32-.2,1.5,1.5,0,0,1,.29-.12.72.72,0,0,1,.55.1A2.92,2.92,0,0,1,34,65a2.35,2.35,0,0,1,.5.54,1.32,1.32,0,0,1,.27.48.63.63,0,0,1-.23.67,1.7,1.7,0,0,1-.68.37l-.19,0s-.09,0-.15-.1-.16-.14-.3-.29-.3-.29-.44-.45l-.44-.46c-.17-.16-.25-.26-.31-.31A.86.86,0,0,1,32,65.34Zm2-1.79.25-.25a1,1,0,0,1,.3-.19,1.49,1.49,0,0,1,.26-.11,1.36,1.36,0,0,1,.29-.06.36.36,0,0,1,.27.06s.13.1.27.23l.48.38.47.47a1.32,1.32,0,0,1,.28.44.54.54,0,0,1-.07.3,1.14,1.14,0,0,1-.27.35,2,2,0,0,1-.32.25.57.57,0,0,1-.25.15.86.86,0,0,1-.6-.11,5.59,5.59,0,0,1-.61-.47c-.19-.2-.36-.4-.52-.6a1.76,1.76,0,0,1-.29-.56A.37.37,0,0,1,33.92,63.55Z"/><path class="about_noutore_header03-3" d="M37.82,60.25a2,2,0,0,1,0-.33,1,1,0,0,1,0-.3.28.28,0,0,1,.23-.18l6-1.54s.09,0,.21.1a2.46,2.46,0,0,1,.27.18l0,.06,0,.07a2.74,2.74,0,0,0,0,.32c0,.13.05.27.06.39s0,.23,0,.33a1.13,1.13,0,0,0,0,.14l-.18.31-6.1,1.58a.19.19,0,0,1-.2-.09A1.73,1.73,0,0,1,38,61c0-.14-.09-.25-.11-.34s0-.13,0-.15S37.84,60.34,37.82,60.25Zm.3-3.07a1.83,1.83,0,0,1,0-.19l.18-.31L43,55.46,43.35,57l0,.07s0,.07-.06.07-.06.08-.11.13a.3.3,0,0,1-.11.07l-4.19,1.09a.33.33,0,0,1-.32-.06,1.39,1.39,0,0,1-.17-.3,1,1,0,0,1-.11-.34c0-.11-.06-.21-.07-.26A1.09,1.09,0,0,1,38.12,57.18Zm1.25,5.39,0-.21.2-.32,4.68-1.21a.18.18,0,0,1,.21.09.89.89,0,0,1,.15.26c0,.1.07.21.09.28s0,.16.05.18,0,.13.06.24a1.17,1.17,0,0,1,0,.32,1,1,0,0,1,0,.25.31.31,0,0,1-.22.18l-4.46,1.15a.31.31,0,0,1-.3-.06.92.92,0,0,1-.19-.28,1,1,0,0,1-.11-.35c0-.12-.06-.21-.07-.27A1,1,0,0,1,39.37,62.57ZM40,65l.28-.47,4.46-1.16.48.28.29,1.14-.2.32-4.69,1.21-.33-.17Zm7.53,6.32-.06,0a2.59,2.59,0,0,0-.28.23c-.16.12-.24.21-.27.23l-2.42.63-.09.11a.36.36,0,0,0-.11.15.64.64,0,0,0-.15.24,1.3,1.3,0,0,1-.13.23l-1.79.47-1.58-6.09.05-.08.06-.07a.29.29,0,0,1,.11-.11l.1-.09,4.32-1.12h.19l.23,0a.21.21,0,0,0,.13,0l.09,0,1,3.69c0,.08.09.14.21.21a.46.46,0,0,0,.32.06,1.54,1.54,0,0,0,1-.69,4,4,0,0,0,.5-1.19A5.35,5.35,0,0,0,49,66.89a5.48,5.48,0,0,0-.15-1.18,1.71,1.71,0,0,0-.1-.32c0-.15-.07-.26-.08-.32a.72.72,0,0,0-.5,0,5.9,5.9,0,0,1-.73.15,3.78,3.78,0,0,1-.71.07.37.37,0,0,1-.38-.27l-.75-2.91c0-.06,0-.15.15-.29s.19-.21.24-.22L55.81,59l.13,0a.88.88,0,0,1,.15,0l.11,0s0,0,0,0l.83,3.18a.14.14,0,0,0,0,.05.39.39,0,0,1-.08.1.53.53,0,0,1-.12.15l-.07.1L55,63.24a.12.12,0,0,0,0,.08c0,.07,0,.11,0,.14s0,.11,0,.17a.23.23,0,0,0,0,.13l1,3.67c0,.08.1.16.23.27a.86.86,0,0,0,.28.15c.22,0,.34-.11.35-.32a2.82,2.82,0,0,0,0-.7,3.68,3.68,0,0,1-.07-.73c0-.24.08-.39.27-.44a2,2,0,0,1,.5,0,3.36,3.36,0,0,1,.62.11,2.37,2.37,0,0,1,.56.26.7.7,0,0,1,.31.41,6.52,6.52,0,0,1,.14.88,9.32,9.32,0,0,1,0,1.06,2.79,2.79,0,0,1-.3,1,1,1,0,0,1-.71.57l-2.28.59a1.25,1.25,0,0,1-.72,0,1.59,1.59,0,0,1-.61-.39,2.1,2.1,0,0,1-.45-.57,3.06,3.06,0,0,1-.27-.66l-1.38-5.33a.58.58,0,0,1,.08-.31c.07-.14.13-.21.18-.23l1.79-.46.08-.16a.62.62,0,0,0,.09-.23l0-.06a.5.5,0,0,0-.19-.27.32.32,0,0,0-.31-.09L48.83,63a.34.34,0,0,0-.21.2.32.32,0,0,0-.07.28.46.46,0,0,0,.21.25c.12.09.21.13.29.11l1.65-.43.33.24a1.53,1.53,0,0,1,.08.23l.07.28a11.66,11.66,0,0,1,.23,1.26,12.79,12.79,0,0,1,.1,1.56,15.13,15.13,0,0,1-.1,1.67A6.15,6.15,0,0,1,51,70.21a3.32,3.32,0,0,1-.72,1.22,2.31,2.31,0,0,1-1.15.71.42.42,0,0,1-.41-.08l-.39-.32a1.63,1.63,0,0,0-.37-.33.43.43,0,0,0-.39-.11A.17.17,0,0,1,47.54,71.34ZM43.6,70.19a.53.53,0,0,0,.57.14.47.47,0,0,0,.36-.4,1.18,1.18,0,0,0,0-.59,1.21,1.21,0,0,0-.28-.52.45.45,0,0,0-.51-.17.48.48,0,0,0-.29.22,1.58,1.58,0,0,0-.18.33s0,.1,0,.21a1.41,1.41,0,0,0,0,.24A1.36,1.36,0,0,0,43.6,70.19Zm2.28-11.3.16-.37,2.29-.59a.21.21,0,0,0,.18-.25,2,2,0,0,0,0-.31,1.26,1.26,0,0,0-.08-.23c0-.11-.08-.16-.16-.14l-2.91.76a.37.37,0,0,1-.14,0L45,57.63s-.1-.07-.2-.13a.48.48,0,0,1-.15-.18L44.46,56l.17-.37,2.91-.76a.3.3,0,0,0,.25-.27,2.11,2.11,0,0,0,0-.44,1.72,1.72,0,0,1,0-.46.38.38,0,0,1,.28-.28L49.89,53a.33.33,0,0,1,.32.12,3.52,3.52,0,0,1,.24.38,3.15,3.15,0,0,0,.24.38A.27.27,0,0,0,51,54l3.18-.83.11,0a.5.5,0,0,1,.18.1s.07,0,.11,0l.06.05L55,54.9s0,0,0,.09a.19.19,0,0,1-.08.08.4.4,0,0,1-.12.15.22.22,0,0,1-.08.1l-3.18.83a.24.24,0,0,0-.17.2,1.37,1.37,0,0,0,0,.31.55.55,0,0,0,.23.24.32.32,0,0,0,.29.11l2.67-.69c.07,0,.14,0,.21.11s.11.19.16.32.08.24.11.34,0,.17,0,.17a1,1,0,0,1,0,.15,1.67,1.67,0,0,1,.07.35,1.93,1.93,0,0,1,0,.34.18.18,0,0,1-.14.18l-8.75,2.27Z"/><path class="about_noutore_header03-3" d="M68.89,64.1l0-.17a.16.16,0,0,1,.1-.17,14.59,14.59,0,0,0,1.72-1A6.19,6.19,0,0,0,72,61.46a4,4,0,0,0,.77-1.6,4.33,4.33,0,0,0-.1-2,6.29,6.29,0,0,0-.4-1.06,6.58,6.58,0,0,0-.71-1.09,2.94,2.94,0,0,0-.93-.76,1.51,1.51,0,0,0-1.15-.12.61.61,0,0,0-.23.1.3.3,0,0,0-.13.28c0,.27-.09.67-.21,1.23s-.22,1.13-.33,1.73-.18,1.16-.25,1.69a3.4,3.4,0,0,0,0,1.1.52.52,0,0,0,.15.27c.08.06.16.14.26.21l.24.21a.63.63,0,0,1,.15.26v.06a6.12,6.12,0,0,1-.56.9,3.58,3.58,0,0,1-.49.47c-.17.12-.36.25-.57.37a8.18,8.18,0,0,0-.78.51,3.41,3.41,0,0,0-.71.65,7.41,7.41,0,0,1-.6.64c-.22.2-.44.38-.67.56a2.78,2.78,0,0,1-.9.4,3.11,3.11,0,0,1-1.51,0,3,3,0,0,1-1.23-.59,4,4,0,0,1-.93-1.1,5.35,5.35,0,0,1-.57-1.4,7.11,7.11,0,0,1-.23-2.3,14.68,14.68,0,0,1,.41-2.28,1.45,1.45,0,0,1,.22-.56c.09-.19.2-.38.3-.57a4.08,4.08,0,0,0,.23-.6,1,1,0,0,0,0-.58,2,2,0,0,0-.33-.7c-.17-.2-.33-.43-.5-.63s-.33-.42-.49-.64a2.19,2.19,0,0,1-.35-.7.64.64,0,0,1,.14-.55,2.08,2.08,0,0,1,.52-.44,6.33,6.33,0,0,1,.68-.36l.6-.19a1.25,1.25,0,0,1,.29-.06.33.33,0,0,1,.27.2l.24.51a6.49,6.49,0,0,0,.33.64,1.74,1.74,0,0,0,.45.51.64.64,0,0,0,.58.12,3.19,3.19,0,0,0,.39-.14l.25-.15a3,3,0,0,0,.31-.2l.55-.33a8.65,8.65,0,0,0,1.35-.9,2.13,2.13,0,0,0,.54-.73.83.83,0,0,0,0-.56,3.13,3.13,0,0,0-.21-.48,1.76,1.76,0,0,1-.12-.39c0-.14.07-.27.24-.39l.39-.1.38-.1.43-.13A4.91,4.91,0,0,1,68,49.5a4.38,4.38,0,0,1,.5,0,.85.85,0,0,1,.43.09,1.23,1.23,0,0,1,.06.17c0,.11,0,.17,0,.2a3.61,3.61,0,0,1,.13.8,3.61,3.61,0,0,0,.13.8c0,.14.21.28.56.45a11.52,11.52,0,0,0,1.2.48l1.29.5a7,7,0,0,1,1,.46,4.77,4.77,0,0,1,.86.75,5.6,5.6,0,0,1,.68,1,8.66,8.66,0,0,1,.48,1.08,10.1,10.1,0,0,1,.34,1.07,7.23,7.23,0,0,1,.17,2.59,8.09,8.09,0,0,1-.75,2.55,7,7,0,0,1-1.59,2.1,5.52,5.52,0,0,1-2.33,1.26,1.07,1.07,0,0,1-.67-.09,2.79,2.79,0,0,1-.63-.47,3.48,3.48,0,0,1-.55-.53c-.17-.2-.3-.31-.36-.39A.47.47,0,0,1,68.89,64.1Zm-6.31-.8a.92.92,0,0,0,.87.14,1.7,1.7,0,0,0,.85-.57,1.53,1.53,0,0,0,.25-.45,1,1,0,0,0,0-.53l0-.15c0-.05,0-.07,0-.07l-1.74-2c-.05-.06-.11-.11-.14-.1a.31.31,0,0,0-.16,0c-.17,0-.3.2-.37.46a4.24,4.24,0,0,0-.12.88,8.71,8.71,0,0,0,.06.92,4.6,4.6,0,0,0,.1.63A1.45,1.45,0,0,0,62.58,63.3Zm1.94-5.85c.11.18.22.35.34.52a3.64,3.64,0,0,0,.4.45,1,1,0,0,0,.46.2c.15,0,.28-.09.36-.35a5.6,5.6,0,0,0,.2-.93c0-.33.07-.67.08-1a3,3,0,0,0,0-.55l0-.06a.32.32,0,0,0-.09-.12s-.08-.08-.11-.09L66,55.6a.51.51,0,0,0-.19,0,2,2,0,0,0-.46.18,2.89,2.89,0,0,0-.51.31,1.61,1.61,0,0,0-.38.41.57.57,0,0,0-.06.48A2.93,2.93,0,0,0,64.52,57.45Z"/><path class="about_noutore_header03-3" d="M83.06,58a3.11,3.11,0,0,1,.55-1.18,3.76,3.76,0,0,1,1-.92,3.9,3.9,0,0,1,1.26-.55,3.4,3.4,0,0,1,1.79,0,5.88,5.88,0,0,1,1.47.6,11.3,11.3,0,0,1,1.08.71c.3.23.51.32.62.29a.6.6,0,0,0,.4-.33,2.09,2.09,0,0,0,.16-.57,2.66,2.66,0,0,0,0-.63,3.14,3.14,0,0,0-.07-.51,2.29,2.29,0,0,0-.69-1.16,2.58,2.58,0,0,0-1.14-.58A4.83,4.83,0,0,0,88.09,53a6.25,6.25,0,0,0-1.29.19,6.17,6.17,0,0,0-1.79.77,7.79,7.79,0,0,0-1.44,1.19,10.64,10.64,0,0,0-1.18,1.48c-.37.53-.72,1.08-1.06,1.64l-.38.1-1.75-1s-.08-.06-.13-.11L79,57.09A.36.36,0,0,1,79,57c0-.09,0-.13.06-.16s.08-.14.18-.31a1.23,1.23,0,0,1,.2-.31l5.09-7,.18-.27a.68.68,0,0,0,0-.26c0-.17-.12-.25-.26-.24l-.43.07c-.61.16-1.21.36-1.81.55a16.4,16.4,0,0,1-1.81.55l-.26.07-.2,0-.31-.18-.56-2.15.21-.2c1.39-.36,2.83-.79,4.27-1.27s2.9-.87,4.33-1.24a.83.83,0,0,1,.56,0A1.9,1.9,0,0,1,89,45a2.51,2.51,0,0,1,.48.44,3.24,3.24,0,0,1,.33.49.62.62,0,0,1-.14.56,5.13,5.13,0,0,1-.61.79c-.25.27-.53.59-.86.89l-.87.94a5.84,5.84,0,0,0-.62.85.84.84,0,0,0-.17.67.89.89,0,0,0,.07.19A15.43,15.43,0,0,1,89,50.62a7.83,7.83,0,0,1,2.24.35A4.45,4.45,0,0,1,93,52.06a4.55,4.55,0,0,1,1.12,2.13,4.9,4.9,0,0,1,0,2.57,5.22,5.22,0,0,1-1.09,2.05,7,7,0,0,1-1.91,1.47,10.87,10.87,0,0,1-2.37.92,10.63,10.63,0,0,1-1.65.29,5.06,5.06,0,0,1-1.7-.07A3.72,3.72,0,0,1,84,60.78a2.37,2.37,0,0,1-.9-1.44A2.75,2.75,0,0,1,83.06,58Zm2.89.88a.93.93,0,0,0,.42.21,1.45,1.45,0,0,0,.5,0,2.41,2.41,0,0,0,.49-.07,1.13,1.13,0,0,0,.26-.09l.25-.06a.39.39,0,0,0,.19-.27,1,1,0,0,0,0-.29,1.09,1.09,0,0,0-.61-.78,1.41,1.41,0,0,0-1-.09l-.24.06a1.48,1.48,0,0,0-.24.11c-.19.13-.28.25-.29.38a1.42,1.42,0,0,0,.05.43A.85.85,0,0,0,86,58.83Z"/><path class="about_noutore_header03-3" d="M38.73,88.34c.07-.12.17-.29.28-.5s.24-.42.36-.64a4,4,0,0,1,.44-.58,1,1,0,0,1,.49-.33,1.28,1.28,0,0,1,.92.11c.3.16.59.33.88.52a5.87,5.87,0,0,0,.89.52,1.24,1.24,0,0,0,.9.11,1.15,1.15,0,0,0,.47-.4c.18-.23.39-.53.61-.87s.41-.74.63-1.16.41-.84.58-1.23a5.87,5.87,0,0,0,.35-1,1.52,1.52,0,0,0,.11-.69,1,1,0,0,0-.07-.17.13.13,0,0,0-.16-.1L35.63,84.67l-.13,0a.53.53,0,0,1-.17,0l-.1-.06,0,0-.63-2.42s0,0,0-.09l.06-.07a.46.46,0,0,1,.14-.1l.09-.09,14-3.61a1.12,1.12,0,0,1,.59.07,3.92,3.92,0,0,1,.77.32,4.36,4.36,0,0,1,.69.46,1,1,0,0,1,.35.41.33.33,0,0,1,0,.14c0,.06,0,.1,0,.12a40.26,40.26,0,0,1-1.9,4.82c-.74,1.53-1.55,3.06-2.43,4.57,0,0,0,.08,0,.14a1.38,1.38,0,0,0,.45.64,6.41,6.41,0,0,0,.77.55l.9.48a4.14,4.14,0,0,1,.74.43.8.8,0,0,0,.05.11.85.85,0,0,0,.06.13,1.06,1.06,0,0,1-.13.62,3.32,3.32,0,0,1-.46.79,4.28,4.28,0,0,1-.61.71,1.57,1.57,0,0,1-.59.4,4.32,4.32,0,0,1-.77-.39l-1.75-1c-.69-.41-1.44-.85-2.25-1.31s-1.54-.92-2.21-1.34-1.25-.73-1.69-1-.68-.44-.69-.45A1.38,1.38,0,0,1,38.73,88.34Z"/><path class="about_noutore_header03-3" d="M55.06,77.61l0-.13a2.91,2.91,0,0,0,.22-.49,6.74,6.74,0,0,1,.31-.69,3.42,3.42,0,0,1,.43-.62,1,1,0,0,1,.52-.35l.13,0,.14,0c.61.24,1.22.49,1.84.76s1.22.54,1.82.85l.39.24a3.57,3.57,0,0,1,.48.28c.17.08.29.15.41.22a.58.58,0,0,1,.16.1l.1.38-1.32,2.26-.5.13a1.71,1.71,0,0,0-.33-.18c-.18-.08-.35-.18-.54-.27l-.51-.27a3.67,3.67,0,0,1-.36-.2,6,6,0,0,0-.75-.31,10,10,0,0,1-1.07-.43,6.59,6.59,0,0,1-1-.52,1.16,1.16,0,0,1-.53-.57S55.07,77.67,55.06,77.61Zm2.16,11a.77.77,0,0,1,0-.2c0-.07,0-.12.1-.16a26.31,26.31,0,0,0,3.19-1.89,19.49,19.49,0,0,0,2.66-2.17,20.51,20.51,0,0,0,2.24-2.59,26.31,26.31,0,0,0,2-3.13,4,4,0,0,0,.27-.76c.09-.35.19-.7.28-1a7.06,7.06,0,0,1,.33-.92c.13-.28.27-.44.46-.49a.71.71,0,0,1,.59.22,8.67,8.67,0,0,1,.7.67,8.1,8.1,0,0,1,.61.8,2.56,2.56,0,0,1,.32.59,3.45,3.45,0,0,1-.31,2.11,13.82,13.82,0,0,1-1.47,2.63,31.39,31.39,0,0,1-2.25,2.76,33.11,33.11,0,0,1-2.59,2.58,21.66,21.66,0,0,1-2.49,2,7.25,7.25,0,0,1-2,1,1,1,0,0,1-.73-.16,4.27,4.27,0,0,1-.79-.59,5.13,5.13,0,0,1-.66-.66c-.19-.21-.31-.35-.36-.39A.49.49,0,0,1,57.22,88.63Z"/><path class="about_noutore_header03-3" d="M75.49,84.85l.29-.44c.21-.28.44-.66.72-1.12s.57-1,.88-1.63a15,15,0,0,0,.82-1.94,12.18,12.18,0,0,0,.47-2,4.65,4.65,0,0,0-.08-1.87,1.18,1.18,0,0,0-.19-.44c-.09-.1-.23-.12-.48-.06l-3.81,1-.33-.18L73.22,74l.2-.32,4.19-1.08a.55.55,0,0,0,.26-.25.68.68,0,0,0,.1-.39l-.62-2.4a.35.35,0,0,1,.06-.3.44.44,0,0,1,.22-.18l2.29-.59a.33.33,0,0,1,.27,0c.12.08.18.14.2.24l.66,2.53c0,.08.12.13.27.18a2.49,2.49,0,0,0,.34.07l.31-.08.45-.12.46-.12a1.29,1.29,0,0,0,.31-.06s.15,0,.41-.08l.83-.22a3.76,3.76,0,0,0,.79-.34c.23-.13.33-.27.29-.45l0-.11,0-.07-1.36-1.56,0-.11a.63.63,0,0,1,0-.38.84.84,0,0,1,.24-.3,1.83,1.83,0,0,1,.35-.25,1,1,0,0,1,.32-.15.79.79,0,0,1,.61.13c.2.15.4.32.62.51a3.44,3.44,0,0,1,.48.62,1.72,1.72,0,0,1,.25.49.44.44,0,0,1-.06.38,2.14,2.14,0,0,1-.32.28c-.11.09-.21.2-.31.29a.4.4,0,0,0-.08.39.52.52,0,0,0,.32.36,2.88,2.88,0,0,0,.5.15,1.68,1.68,0,0,1,.53.21.85.85,0,0,1,.36.54l.39,1.5c.17.65.34,1.4.49,2.21s.31,1.67.44,2.55a15.53,15.53,0,0,1,.1,2.51,6,6,0,0,1-.41,2,2,2,0,0,1-1.15,1.21l-.26.07-.4.1-.4.11-.27.07c-.55.14-1,.24-1.39.3a1.43,1.43,0,0,1-.91-.07,1.34,1.34,0,0,1-.6-.62,6.12,6.12,0,0,1-.47-1.34.58.58,0,0,1,0-.39c0-.11.13-.18.29-.22a7.4,7.4,0,0,1,.89-.17,4.14,4.14,0,0,0,.89-.15,1.22,1.22,0,0,0,.82-.6,2.51,2.51,0,0,0,.35-1.08,6.89,6.89,0,0,0,0-1.36,10.71,10.71,0,0,0-.2-1.43,13,13,0,0,0-.3-1.29c-.09-.38-.17-.68-.23-.89l-.09-.36a1,1,0,0,0-.17-.35A.74.74,0,0,0,85,73.6a.6.6,0,0,0-.4,0l-2.53.66a.6.6,0,0,0-.39.24,1.5,1.5,0,0,0-.13.44c0,1,0,2,0,2.86a15.6,15.6,0,0,1-.37,2.57,15,15,0,0,1-.81,2.45A18,18,0,0,1,79,85.36a4.64,4.64,0,0,1-.32.43.87.87,0,0,1-.42.31,1.22,1.22,0,0,1-.69-.06,5,5,0,0,1-.78-.33c-.25-.14-.49-.28-.74-.44l-.54-.37S75.49,84.87,75.49,84.85Zm10.76-18a.86.86,0,0,0,0-.13.64.64,0,0,1,.23-.69,1.51,1.51,0,0,1,.67-.38.81.81,0,0,1,.52.13,4.58,4.58,0,0,1,.66.48c.19.2.38.39.54.59a1.72,1.72,0,0,1,.28.48.47.47,0,0,1-.05.36.83.83,0,0,1-.26.31,3.69,3.69,0,0,1-.34.25,1.31,1.31,0,0,1-.31.14.73.73,0,0,1-.59-.13,2.18,2.18,0,0,1-.56-.45,5.57,5.57,0,0,1-.48-.52l-.23-.33S86.27,66.88,86.25,66.82Z"/><path class="svg_about_noutore_header3-2" d="M385.36,96.31c.12-3.08-.62-7.13-4.48-7.2A10.66,10.66,0,0,0,376,90.6a19.85,19.85,0,0,0-4,2.49c-2,1.7-3.3,4.38-2,6.92,1.44,2.9,5.12,2.32,7.49,1,3.38-1.89,6-5.29,7.88-8.62l-2.87.46c-1.91,3.56-2.64,7.54-4,11.32-1.12,3.19-3,6.82-6.13,8.42-.81.42-1.86.79-2.42-.2a2.33,2.33,0,0,1-.05-2c.67-1.67,3-2,4.51-2.55a67,67,0,0,0,11.36-5.45c.38-.23.86-.56.33-.88s-1.62.09-2,.34a62.78,62.78,0,0,1-11.1,5.3c-2.32.84-6.89,2.09-6.09,5.5s6.42,1,8.22-.12a16.06,16.06,0,0,0,5.81-7.58c1.67-4.14,2.31-8.62,4.44-12.58.28-.52-1-.42-1.19-.39a2.34,2.34,0,0,0-1.68.85,21.89,21.89,0,0,1-6.15,7.24c-.72.51-1.37.92-2.24.46A3,3,0,0,1,373,99.47a4.68,4.68,0,0,1-.51-3.22c.53-2.78,3.42-4.24,5.72-5.35.77-.37,1.27-.62,2.08-.18a3.89,3.89,0,0,1,1.46,1.47,9.12,9.12,0,0,1,.76,4.9c0,.57,2.86.16,2.89-.78Z"/><path class="svg_about_noutore_header3-2" d="M395.26,91.68c-4.53,1.11-9.55,4.58-10.39,9.49-.33,1.91,0,4.19,1.83,5.22,2.42,1.35,5.72.17,7.95-1a15.41,15.41,0,0,0,5.46-5c1.27-1.93,2.72-5,1.08-7.1-2.74-3.55-10.34-.69-8.72,4,.94,2.72,4.35,2.79,6.67,2.19,3.19-.82,5.29-3.26,8-4.9.52-.31.3-.67-.2-.74a3.28,3.28,0,0,0-2.05.55c-1.78,1.06-3.23,2.61-5,3.63a3.15,3.15,0,0,1-4-.63,3.42,3.42,0,0,1,.19-4.23,1.18,1.18,0,0,1,.28-.22c-.33.24-.25,0-.06.06s.65.11.95.25A3,3,0,0,1,398.82,95c.65,1.88-.43,4-1.43,5.61a12.9,12.9,0,0,1-3.87,3.88c-1.43.93-3.27,1.78-4.74.43a4.66,4.66,0,0,1-1-4.21c.65-3.82,4.12-7.07,7.8-8,.31-.08,1.44-.42,1.31-.91s-1.32-.21-1.59-.14Z"/><path class="svg_about_noutore_header3-2" d="M420.08,85.14a143,143,0,0,0-8.65,13.4c-.61,1.09,2.25.72,2.68,0a141.56,141.56,0,0,1,8.64-13.4c.39-.54-.33-.73-.75-.73a2.58,2.58,0,0,0-1.92.76Z"/><path class="svg_about_noutore_header3-2" d="M409.68,106.48v0l0,.28a1.4,1.4,0,0,1,.06-.5l-.09.27a2.22,2.22,0,0,1,.18-.38l-.17.25a2.75,2.75,0,0,1,.22-.26l-.25.23.18-.14-2.07.18a.27.27,0,0,1,.08.07l-.21-.2a.86.86,0,0,1,.2.27l-.12-.25a1,1,0,0,1,.1.37l0-.28a1.4,1.4,0,0,1-.06.5l.08-.27a1.42,1.42,0,0,1-.2.41l.18-.26a2.25,2.25,0,0,1-.21.24l.25-.24a.79.79,0,0,1-.18.14l.32-.19-.16.07.38-.13-.15,0,.39-.07h.22l-.18,0,.82.4a1.4,1.4,0,0,1-.1-.16l.13.24a1.59,1.59,0,0,1-.17-.6l0,.28a2,2,0,0,1,.09-.69l-.09.27a2,2,0,0,1,.25-.51l-.18.26a2,2,0,0,1,.27-.31l-.25.23a1.35,1.35,0,0,1,.27-.2l-.32.19.23-.11-.38.14.09,0-1.59-.34a1.43,1.43,0,0,1,.16.24l-.13-.25a1.62,1.62,0,0,1,.16.57l0-.27a1.6,1.6,0,0,1-.08.65l.09-.27a1.9,1.9,0,0,1-.21.43l.18-.26a2.17,2.17,0,0,1-.24.29l.25-.24a1.24,1.24,0,0,1-.23.17l.32-.19-.14.07a1.58,1.58,0,0,0-.74.68.75.75,0,0,0,.05.79,1.72,1.72,0,0,0,2,.21,3.05,3.05,0,0,0,1.1-.85,2.94,2.94,0,0,0,.56-1.15,2.54,2.54,0,0,0,0-1,2,2,0,0,0-.1-.35,3,3,0,0,0-.31-.55,1.54,1.54,0,0,0-1.59-.34,3.41,3.41,0,0,0-2.09,1.66,2.64,2.64,0,0,0-.22,1.89,2.74,2.74,0,0,0,.23.53,1.23,1.23,0,0,0,1,.56,3.09,3.09,0,0,0,1.64-.3,2.85,2.85,0,0,0,1-.78,2.9,2.9,0,0,0,.5-1,1.32,1.32,0,0,0,0-.34,1.87,1.87,0,0,0-.05-.58,1.77,1.77,0,0,0-.67-.94,1.64,1.64,0,0,0-1-.21,2.35,2.35,0,0,0-1.09.39A2.9,2.9,0,0,0,407,106a2.8,2.8,0,0,0-.2.64,2.43,2.43,0,0,0,0,.66c0,.27.4.5.61.57a1.87,1.87,0,0,0,1.1,0,1.78,1.78,0,0,0,.95-.56l.18-.25a.81.81,0,0,0,.06-.55Z"/><path class="svg_about_noutore_header3-2" d="M138.86,13.09a1.89,1.89,0,0,1-.06-.47v.23a1.8,1.8,0,0,1,.13-.69l-.1.23c0-.09.09-.18.14-.27l-.77.6c.16-.07-.44.17-.18.06,0,0-.45.08-.28.06s-.38,0-.22,0-.34-.08-.13,0l.17.05-.27-.1a1.82,1.82,0,0,1,.36.2l-.2-.15a1.63,1.63,0,0,1,.43.51l-.11-.2a1.39,1.39,0,0,1,.18.62v-.22a1.07,1.07,0,0,1-.07.39l.1-.23a1.14,1.14,0,0,1-.1.19l1.54-.81c-.29,0,.36,0,.15,0s-.24-.07.16,0a2.76,2.76,0,0,1-.27-.08l.27.1a1.88,1.88,0,0,1-.44-.24l.2.15a2,2,0,0,1-.54-.65l.1.2a2.15,2.15,0,0,1-.24-.89v.22a1.52,1.52,0,0,1,.11-.6l-.09.23a1.3,1.3,0,0,1,.14-.26l-.44.42c.12-.07.05,0-.21.11l-.24.08-.31.06h-.23c.14,0,.14,0-.15,0l.18,0-.27-.1a1.41,1.41,0,0,1,.38.21l-.2-.15a1.42,1.42,0,0,1,.41.47l-.11-.2a2,2,0,0,1,.21.89v-.22a5.81,5.81,0,0,1-.17,1.31l.86-.83c-.28.12.38-.1.17,0h-.05l.26-.05-.14,0c-.21,0,.42,0,.17,0h-.16l.14,0-.3-.09.27.1a2.14,2.14,0,0,1-.57-.32l.2.15a1.89,1.89,0,0,1-.51-.58l.11.2a1.7,1.7,0,0,1-.21-.76v.22a2,2,0,0,1,.14-.73l-.09.23a2.11,2.11,0,0,1,.31-.52l-.18.22.17-.19.1-.08c.11-.1-.28.2-.12.09l.1-.07c.1-.06.24-.09-.17.09l.12-.06c.12,0,.26-.06-.22.07l.1,0c.22-.06-.42.07-.2,0h.1c.22,0-.32,0-.19,0h.13c-.37,0-.28,0-.17,0l.25.07-.27-.1a1.88,1.88,0,0,1,.44.24l-.2-.15a2.32,2.32,0,0,1,.58.67l-.11-.2a2.07,2.07,0,0,1,.26.93V12.5a1.76,1.76,0,0,1-.11.64c-.08.23.14.47.31.57a1.71,1.71,0,0,0,1,.13,1.9,1.9,0,0,0,1.63-1,2.44,2.44,0,0,0-.74-2.58,3,3,0,0,0-1.81-.72,4.39,4.39,0,0,0-2.54.69,2.77,2.77,0,0,0-1.4,3A2.92,2.92,0,0,0,137.85,15a3.94,3.94,0,0,0,1.08-.08c.66-.12,1.57-.39,1.79-1.1a5.22,5.22,0,0,0,.15-.88,3.63,3.63,0,0,0,0-1,2.1,2.1,0,0,0-1-1.39,3,3,0,0,0-2.7-.06,1.91,1.91,0,0,0-1.06.93,2.16,2.16,0,0,0-.21.71,2.48,2.48,0,0,0,.35,1.43,2.84,2.84,0,0,0,3.38,1.12,1.76,1.76,0,0,0,1-.77,2.58,2.58,0,0,0,.18-.46,1.59,1.59,0,0,0,0-.72,2,2,0,0,0-.68-1.07,2.77,2.77,0,0,0-2-.56,2.59,2.59,0,0,0-1.85.9,2.14,2.14,0,0,0-.34.91,2.34,2.34,0,0,0,.06.95.74.74,0,0,0,.57.45,2.37,2.37,0,0,0,1.09,0,2.18,2.18,0,0,0,1-.51.74.74,0,0,0,.27-.67Z"/><path class="svg_about_noutore_header3-2" d="M159.58,12.26c-.16.09.38-.17.22-.1l.29-.1.14,0,.14,0,.29,0h-.1l.32,0-.17,0,.26.08a1.35,1.35,0,0,1-.3-.14l.19.13a1.41,1.41,0,0,1-.44-.47l.1.17a1.14,1.14,0,0,1-.16-.57v.2a.81.81,0,0,1,.08-.34l-.1.21a1,1,0,0,1,.14-.21l-.19.21a.74.74,0,0,1,.13-.12l-.26.19.06,0c.09-.07-.36.17-.26.13s-.33.1-.28.09l-.12,0-.13,0c.19,0-.29,0-.26,0h.14l-.32,0a1.19,1.19,0,0,1,.26.05L159,11.5a1.39,1.39,0,0,1,.35.16l-.19-.12a1.21,1.21,0,0,1,.39.39l-.1-.17a.9.9,0,0,1,.13.45V12a.85.85,0,0,1,0,.23l2-1h-.08l.33,0-.22,0,.26.08a1.26,1.26,0,0,1-.26-.13l.19.13a1.38,1.38,0,0,1-.39-.41l.1.17a1.22,1.22,0,0,1-.16-.6v.2a.83.83,0,0,1,0-.22l-.56.6c.16-.09-.35.16-.22.11s.18-.07-.1,0l-.1,0c.18-.05-.43.07-.27.06h.07c.14,0-.43,0-.25,0h.17l-.32,0,.27.05-.27-.08a1.78,1.78,0,0,1,.44.21l-.19-.13a1.6,1.6,0,0,1,.42.44l-.1-.17a1.22,1.22,0,0,1,.16.62V12a1.25,1.25,0,0,1-.14.56l.1-.21a1.21,1.21,0,0,1-.24.35l.19-.2a1.51,1.51,0,0,1-.23.21l.26-.19-.16.11.24-.12-.06,0c-.18.08.41-.12.25-.08l-.09,0s.47-.08.26-.05.41,0,.23,0H161l.32,0h0l.46.21a7.48,7.48,0,0,1-.56-.79l.1.17a2.24,2.24,0,0,1-.36-1.18V11a1.19,1.19,0,0,1,.1-.46l-.1.2a1.19,1.19,0,0,1,.16-.23l-.18.2a1.29,1.29,0,0,1,.17-.16l-.26.19c.06,0,.3-.17,0,0s-.12.06,0,0-.46.14-.27.09l.08,0-.31.06h0c.18,0-.42,0-.25,0h.11l-.33,0,.16,0-.27-.08a.51.51,0,0,1,.18.09l-.19-.13a.77.77,0,0,1,.18.18l-.11-.17a.69.69,0,0,1,.07.15.71.71,0,0,0,.56.38,2.48,2.48,0,0,0,1.08-.07,2.33,2.33,0,0,0,1-.48c.15-.15.37-.37.29-.61a1.5,1.5,0,0,0-1.52-.86,4.22,4.22,0,0,0-1.57.31,3.21,3.21,0,0,0-1,.59,1.93,1.93,0,0,0-.57.78,1.87,1.87,0,0,0-.06.88,3.82,3.82,0,0,0,.87,1.68,1.58,1.58,0,0,0,.12.15,1,1,0,0,0,.68.27,4,4,0,0,0,.84,0,4,4,0,0,0,1.63-.58,3,3,0,0,0,.9-.83,1.86,1.86,0,0,0,.33-.81,1.65,1.65,0,0,0-.57-1.47A2.68,2.68,0,0,0,161,9.7a3.9,3.9,0,0,0-2.11.63,1,1,0,0,0-.45.6c0,.11,0,.23,0,.35a1,1,0,0,0,.07.38,1.62,1.62,0,0,0,.52.74,2.34,2.34,0,0,0,1.4.45,2.8,2.8,0,0,0,1.3-.31,1.25,1.25,0,0,0,.72-.67A1.35,1.35,0,0,0,162,10.5a2.75,2.75,0,0,0-2.17-.51,3.36,3.36,0,0,0-1.77.76,1.63,1.63,0,0,0-.55.9,1.62,1.62,0,0,0,.56,1.41,3,3,0,0,0,3.34,0,1.11,1.11,0,0,0,.55-.6.45.45,0,0,0-.29-.5,2.56,2.56,0,0,0-2,.28Z"/><path class="svg_about_noutore_header3-2" d="M178.32,12.16c-.13.06,0,0,.26-.09-.09,0-.05,0,.12,0a1.08,1.08,0,0,1,.44,0h-.08l.34.06a.66.66,0,0,1-.2-.06l.28.12a1,1,0,0,1-.22-.14l.21.18a1.13,1.13,0,0,1-.24-.3l.12.22a.85.85,0,0,1-.09-.32V12a.67.67,0,0,1,0-.24l-.09.25a.76.76,0,0,1,.09-.18l-.18.25a.86.86,0,0,1,.13-.14l-.25.22.06,0c.14-.11-.32.17-.21.12s-.44.16-.17.07c0,0-.45.06-.28,0h.08s-.43,0-.23,0h.09l-.33-.06.23.07-.28-.12a.82.82,0,0,1,.2.12l-.2-.17a.82.82,0,0,1,.2.25l-.12-.23a1,1,0,0,1,.1.38v-.25a1.29,1.29,0,0,1-.07.43l.09-.26a1.54,1.54,0,0,1-.17.31l.18-.24a1.66,1.66,0,0,1-.18.19l.25-.21c-.05,0-.24.15,0,0s.16-.09.08-.05-.05,0,.25-.08l1.37.1-.11-.09.2.18a2.19,2.19,0,0,1-.46-.59l.11.22a1.76,1.76,0,0,1-.19-.64v.25a1.14,1.14,0,0,1,.06-.4l-.09.26a.92.92,0,0,1,.13-.24l-.18.24a1.14,1.14,0,0,1,.11-.11l-.26.22c.11-.08.2-.08-.21.11a1.52,1.52,0,0,1-.63.17c.18,0-.42,0-.24,0h.09l-.33-.06a.6.6,0,0,1,.19.06l-.27-.12a1,1,0,0,1,.25.16l-.2-.18a1.16,1.16,0,0,1,.2.24L178,12a.47.47,0,0,1,.06.2V12a.27.27,0,0,1,0,.13l.09-.25a.41.41,0,0,1,0,.09l.18-.24-.07.06.26-.21-.05,0,1.46-.4h-.07l.33.07-.16,0,.28.12a.76.76,0,0,1-.19-.12l.2.18a1,1,0,0,1-.2-.28l.11.23a1.41,1.41,0,0,1-.12-.49v.25a1.75,1.75,0,0,1,.08-.55l-.09.26a1.3,1.3,0,0,1,.16-.31l-.18.24a1.29,1.29,0,0,1,.16-.17l-.25.21.06,0c.14-.12-.22.12-.22.12l.08,0c.09-.05-.44.15-.23.09s-.27,0-.26,0h.12c.15,0-.4,0-.21,0h.14l-.33-.06a1.89,1.89,0,0,1,.36.11l-.27-.12a2.66,2.66,0,0,1,.45.29l-.2-.17a2.44,2.44,0,0,1,.49.62l-.12-.22a1.55,1.55,0,0,1,.18.51.83.83,0,0,0,.6.52,1.93,1.93,0,0,0,1.09,0c.54-.16,1.35-.59,1.21-1.28a2.78,2.78,0,0,0-1.89-2,3.17,3.17,0,0,0-3.59,1.25,2,2,0,0,0,.06,2.09,1.85,1.85,0,0,0,1.33.68c.85.08,2.25-.5,2.2-1.56a1.37,1.37,0,0,0-.64-1,2.42,2.42,0,0,0-1.57-.37,2.5,2.5,0,0,0-2,1.23,1.79,1.79,0,0,0-.06,1.45,2.77,2.77,0,0,0,.91,1.2,2,2,0,0,0,2,0,2.66,2.66,0,0,0,.92-.68,2.07,2.07,0,0,0,.52-1.52,1.46,1.46,0,0,0-.75-1.11,2.91,2.91,0,0,0-2.17-.19,2.37,2.37,0,0,0-1.76,1.55,1.51,1.51,0,0,0,.63,1.48,2.53,2.53,0,0,0,2.55.11,1.61,1.61,0,0,0,.76-.65.67.67,0,0,0,0-.73,1.75,1.75,0,0,0-2-.14Z"/><path class="svg_about_noutore_header3-2" d="M197.55,10.92a.85.85,0,0,1,0-.23l-.08.28a1.51,1.51,0,0,1,.12-.26l-.17.27a1.06,1.06,0,0,1,.17-.2l-.25.24a.86.86,0,0,1,.18-.14l-.32.2.21-.11-.38.14.23-.06-.4.07h-.2l.2,0-.34-.08.19.07-.62-.61a2,2,0,0,1,.08.43l0-.29a2.35,2.35,0,0,1-.07.7l.08-.29a1.82,1.82,0,0,1-.2.45l.17-.26a1.18,1.18,0,0,1-.23.27l.25-.23-.19.15.32-.2a1.34,1.34,0,0,1-.24.12l.38-.14a1,1,0,0,1-.23.06l.39-.07a.93.93,0,0,1-.29,0l.38,0-.29,0,.33.08-.26-.1.28.14a1.06,1.06,0,0,1-.26-.17l.22.2a1.09,1.09,0,0,1-.21-.27l.13.26a1.11,1.11,0,0,1-.08-.3l0,.28a.93.93,0,0,1,0-.33l-.08.28a1.43,1.43,0,0,1,.13-.28l-.17.27a1,1,0,0,1,.18-.22l-.25.24a1.58,1.58,0,0,1,.15-.12l-.31.2a.61.61,0,0,1,.14-.07l-.37.14.12,0-.39.07h-.1l-.34-.08a.39.39,0,0,1,.15.06l-.28-.15a.71.71,0,0,1,.14.1l-.22-.21a.85.85,0,0,1,.14.19l-.13-.26a.94.94,0,0,1,.08.32l0-.29a1,1,0,0,1,0,.35l.08-.28a.68.68,0,0,1-.1.21l.17-.27a.31.31,0,0,1-.09.11l.25-.24-.09.08.32-.2-.07,0,.37-.14-.1,0,.4-.06h-.09a2,2,0,0,0-1.09.41,1.23,1.23,0,0,0-.5.79.82.82,0,0,0,.35.75,1.66,1.66,0,0,0,1,.24,2.49,2.49,0,0,0,1.43-.53,2,2,0,0,0,.61-.82,2,2,0,0,0,.1-1,1.47,1.47,0,0,0-.27-.66,1.67,1.67,0,0,0-.8-.58,2.62,2.62,0,0,0-.92-.12l-.31,0-.32.07a2.9,2.9,0,0,0-1.33.86,2.26,2.26,0,0,0-.49,1,1.27,1.27,0,0,0,0,.28,1.63,1.63,0,0,0,.08.53,1.83,1.83,0,0,0,.66.87,2.53,2.53,0,0,0,1.1.44,3.12,3.12,0,0,0,1.29,0,3,3,0,0,0,2-1.48,2.9,2.9,0,0,0,.3-.87,2.7,2.7,0,0,0,0-.94,1.07,1.07,0,0,0-.4-.77,1.94,1.94,0,0,0-.86-.31,3.05,3.05,0,0,0-1.71.26,2.75,2.75,0,0,0-1.05.8,2,2,0,0,0-.45,1.11.62.62,0,0,0,.09.42.63.63,0,0,0,.27.33,1.58,1.58,0,0,0,1,.24,2,2,0,0,0,1.09-.4,1.15,1.15,0,0,0,.5-.79Z"/><path class="svg_about_noutore_header3-2" d="M219.07,10.63a1.77,1.77,0,0,1,0-.32v.24a1.7,1.7,0,0,1,.1-.59l-.09.24a1.58,1.58,0,0,1,.2-.36l-2.5.67.25.16-.2-.16a1.47,1.47,0,0,1,.36.46l-.11-.21a1.75,1.75,0,0,1,.19.71v-.24a1.85,1.85,0,0,1-.09.58l.09-.24a1.3,1.3,0,0,1-.14.26L219,11l-.09,0,.33.06L219,11l.27.11a1.44,1.44,0,0,1-.31-.19l.2.16a1.67,1.67,0,0,1-.38-.46l.12.21a2,2,0,0,1-.23-.86v.25a1.63,1.63,0,0,1,.1-.66l-.09.24a1.48,1.48,0,0,1,.19-.35l-.18.24a1.29,1.29,0,0,1,.19-.21l-.25.21.17-.11-.33.17.18-.08-.37.13.19,0-.39.07.19,0h-.37l.26,0-.33-.06a2,2,0,0,1,.32.1l-.28-.12a2.35,2.35,0,0,1,.46.28l-.2-.16a1.94,1.94,0,0,1,.49.61l-.11-.22a1.56,1.56,0,0,1,.18.67v-.24a1.16,1.16,0,0,1-.08.48l.09-.25a1.06,1.06,0,0,1-.18.33l.18-.24a1,1,0,0,1-.21.21l.26-.21c-.07.06-.14.1-.21.15l.32-.18-.23.1.38-.13-.2.05.39-.07h.21l-.21,0,.33.06-.19,0,.27.11a1,1,0,0,1-.24-.15l.2.17a1.26,1.26,0,0,1-.25-.31l.12.21a1,1,0,0,1-.12-.44v.24a.79.79,0,0,1,0-.3l-.09.24a.81.81,0,0,1,.1-.18.6.6,0,0,0,0-.7,1.16,1.16,0,0,0-.81-.33,2.3,2.3,0,0,0-1.13.21l-.33.18a1.42,1.42,0,0,0-.44.44,1.53,1.53,0,0,0,.1,1.79,2.51,2.51,0,0,0,2.62.58,3.49,3.49,0,0,0,1.51-.82,2.17,2.17,0,0,0,.56-.75,2.13,2.13,0,0,0,.16-1,1.6,1.6,0,0,0-.15-.57,2.75,2.75,0,0,0-1.07-1.22A3.23,3.23,0,0,0,218,8a3.07,3.07,0,0,0-1.93,1.29,2.19,2.19,0,0,0-.32,1.3,2.45,2.45,0,0,0,.47,1.4,2.41,2.41,0,0,0,1.71.87,2.26,2.26,0,0,0,1.14-.22,1.76,1.76,0,0,0,.76-.62A2.21,2.21,0,0,0,219,9a1.93,1.93,0,0,0-1.36-.09,2.23,2.23,0,0,0-.7.32,1.32,1.32,0,0,0-.44.44,2.14,2.14,0,0,0-.34,1.77.82.82,0,0,0,.59.49,2.12,2.12,0,0,0,1.09,0,2.16,2.16,0,0,0,1-.53.82.82,0,0,0,.26-.72Z"/><path class="svg_about_noutore_header3-2" d="M238.45,11.58l-.08,0,.27.11-.08-.05.2.16a.21.21,0,0,1-.06-.08l.11.2a.33.33,0,0,1,0-.17V12a.62.62,0,0,1,.06-.26l-.1.24a.82.82,0,0,1,.12-.2l-.18.23a.52.52,0,0,1,.1-.11l-.26.21.06,0-.32.18.06,0-.38.13h0l-.39.08h-.27l-.32-.05h.06l-.27-.1.08.05-.2-.16,0,0-.11-.43a.43.43,0,0,1,0,.19l.1-.23-.06.1.18-.23-.07.08.26-.21-.08.05.33-.18-.09,0,.38-.14-.09,0,.39-.08-.13,0h.19l.33,0-.27-.07.27.1a1,1,0,0,1-.26-.15l.2.16a.91.91,0,0,1-.2-.24l.11.2a.59.59,0,0,1-.08-.32v.24a1.4,1.4,0,0,1,.1-.54l-.09.23a2.14,2.14,0,0,1,.32-.52l-.19.23a6,6,0,0,1,.73-.7l-.25.21.07,0-2.26.08a1.5,1.5,0,0,1,.3.4l-.11-.21a2,2,0,0,1,.2.78V10.8a1.79,1.79,0,0,1-.13.76l.1-.23a2,2,0,0,1-.25.43l.18-.22-.16.16a.77.77,0,0,0-.27.7.76.76,0,0,0,.58.46,2.36,2.36,0,0,0,2-.54,2.5,2.5,0,0,0,.81-1.73A2.27,2.27,0,0,0,239,8.87a1.28,1.28,0,0,0-1-.31,2.27,2.27,0,0,0-1.28.39,4.23,4.23,0,0,0-1.71,2.14,1.43,1.43,0,0,0,.18,1.14,1.84,1.84,0,0,0,.91.61,2.78,2.78,0,0,0,1.25.11,2.65,2.65,0,0,0,1.89-1,1.17,1.17,0,0,0,.17-.45.59.59,0,0,0-.11-.51.86.86,0,0,0-.3-.23,2,2,0,0,0-1.14-.16,2.76,2.76,0,0,0-1.51.66,1.64,1.64,0,0,0-.55,1,1,1,0,0,0,.85,1.06,2.36,2.36,0,0,0,1.09,0,2.1,2.1,0,0,0,1-.52c.16-.17.36-.43.27-.69a.79.79,0,0,0-.58-.47Z"/><path class="svg_about_noutore_header3-2" d="M257.48,11.54l.08.06-.21-.21.06.08-.13-.26a.66.66,0,0,1,0,.15l0-.29a.77.77,0,0,1,0,.15l.08-.28a.65.65,0,0,1-.08.17l.18-.28-.09.1.25-.24-.06.05.32-.2-.07,0,.38-.14-.05,0,.4-.07h-.08l.38,0h0l.33.08h0l.62.62a1.58,1.58,0,0,1-.11-.44l0,.29a1.29,1.29,0,0,1,0-.44l-.08.28a1.76,1.76,0,0,1,.17-.37l-.17.27.12-.16-2.33.4.22.16-.21-.2a1.46,1.46,0,0,1,.27.38l-.12-.26a1.84,1.84,0,0,1,.16.61l0-.29a2,2,0,0,1-.07.64l.08-.28a1.89,1.89,0,0,1-.19.44l.17-.27a1.64,1.64,0,0,1-.21.25l.25-.24a1.2,1.2,0,0,1-.21.17l.32-.2-.16.09,1.48-.12-.08,0,.28.15-.16-.12.21.21a.76.76,0,0,1-.18-.26l.12.26a1,1,0,0,1-.1-.39l0,.29a1.2,1.2,0,0,1,0-.38l-.08.29a.87.87,0,0,1,.1-.24l-.17.27a1,1,0,0,1,.13-.16l-.25.24.13-.1-.32.2.06,0a1.57,1.57,0,0,0,.73-.71.84.84,0,0,0-.06-.84,1.66,1.66,0,0,0-2-.24,2.44,2.44,0,0,0-1.08,1.05,2.09,2.09,0,0,0-.16.5,1.36,1.36,0,0,0,0,.29,2,2,0,0,0,.28,1.05,1.73,1.73,0,0,0,.84.69,1.77,1.77,0,0,0,1.16.06,3,3,0,0,0,1-.54,3.13,3.13,0,0,0,.74-.92,2.64,2.64,0,0,0,.24-1.68,2.19,2.19,0,0,0-1-1.51,1.9,1.9,0,0,0-2.33.4,2.32,2.32,0,0,0-.42.69,2.29,2.29,0,0,0-.17.73,2.12,2.12,0,0,0,.09.75c0,.08.07.15.1.23a.91.91,0,0,0,.59.49,2,2,0,0,0,.81.11,2.47,2.47,0,0,0,1.28-.5,1.78,1.78,0,0,0,.57-.76,1.35,1.35,0,0,0,.08-.82,1.14,1.14,0,0,0-.51-.68.91.91,0,0,0-.45-.19,1.22,1.22,0,0,0-.54-.06,2.05,2.05,0,0,0-1.09.41,1.19,1.19,0,0,0-.5.79.8.8,0,0,0,.36.76Z"/><path class="svg_about_noutore_header3-2" d="M276.93,11v0l-.09-.13a.27.27,0,0,1,0,.18V11a.35.35,0,0,1-.06.17L277,11a.13.13,0,0,1-.06.07l.2-.16,0,0,.27-.16,0,0,.33-.14h0l.38-.12h0l.39-.08h0l.36,0h.25l.26.05-.06,0,.18.09a.27.27,0,0,1-.11-.1l.09.13a.42.42,0,0,1-.07-.24v.15a.21.21,0,0,1,.05-.13l-.11.16,0,0-.2.17.06-.05-.27.16.08,0-.34.15.07,0-.38.13.07,0-.39.08H278l-.36,0h-.11l-.26,0a.9.9,0,0,1,.23.08l-.18-.09a1.26,1.26,0,0,1,.46.4l-.09-.13a1,1,0,0,1,.2.65v-.16a.68.68,0,0,1-.11.32l.11-.16-.08.1,1.18-.6h0l.39-.09-.37.07.36,0h.07a.78.78,0,0,1-.22,0l.25,0a.63.63,0,0,1-.23-.08l.18.09a.59.59,0,0,1-.24-.2l.09.13a.43.43,0,0,1-.07-.25v.16a.64.64,0,0,1,.11-.3l-.11.17a.32.32,0,0,1,.11-.12l-.2.16.06,0-.27.16,0,0-.33.15h0l-.38.12h0l-.39.08h0l-.36,0h-.25l-.26-.05.06,0-.18-.09a.39.39,0,0,1,.1.08.48.48,0,0,0,.3.11,1.14,1.14,0,0,0,.45,0,2.61,2.61,0,0,0,.55-.08,3,3,0,0,0,.58-.17l.33-.14a1.67,1.67,0,0,0,.47-.33l.11-.17a.22.22,0,0,0-.08-.28.66.66,0,0,0-.29-.17,1.5,1.5,0,0,0-.29-.06h-.38a3.87,3.87,0,0,0-1.54.41,2.19,2.19,0,0,0-.59.4,1.15,1.15,0,0,0-.28.42,1,1,0,0,0-.05.23.65.65,0,0,0,0,.24.75.75,0,0,0,.33.39,2,2,0,0,0,.85.25,6.12,6.12,0,0,0,1.13-.06l.22-.05c.15,0,.29,0,.43-.09l.38-.12a2.43,2.43,0,0,0,.6-.31,1.79,1.79,0,0,0,.25-.22,1,1,0,0,0,.25-.45,1.19,1.19,0,0,0,0-.46,1.53,1.53,0,0,0-.4-.71,1.39,1.39,0,0,0-.27-.21,3,3,0,0,0-.31-.15,2,2,0,0,0-.41-.09,3.58,3.58,0,0,0-1.34.12,3.61,3.61,0,0,0-1.25.56,1.23,1.23,0,0,0-.35.37.18.18,0,0,0,0,.1.61.61,0,0,0,0,.33.64.64,0,0,0,.18.28,1,1,0,0,0,.59.2,2.61,2.61,0,0,0,.74,0,3.58,3.58,0,0,0,1.16-.37,2.23,2.23,0,0,0,.44-.29,1.14,1.14,0,0,0,.16-.15,1.64,1.64,0,0,0,.16-.26,1.81,1.81,0,0,0,0-.23.53.53,0,0,0-.15-.32.64.64,0,0,0-.31-.11,1.29,1.29,0,0,0-.44,0,2,2,0,0,0-.55.08,2.94,2.94,0,0,0-.58.16l-.33.15a1.54,1.54,0,0,0-.47.33l-.11.16a.22.22,0,0,0,.07.28Z"/><path class="svg_about_noutore_header3-2" d="M299.13,11.45l.83-.88-2.69.57a1.71,1.71,0,0,0,.11.14l-.1-.13a2.49,2.49,0,0,1,.4,1.55v-.16a2.47,2.47,0,0,1-.36,1.12l.11-.17a1,1,0,0,0-.08.11l2.69-.58a2.82,2.82,0,0,1-.77-.73l.09.14a1.16,1.16,0,0,1-.22-.69v.16a.81.81,0,0,1,.12-.37l-.11.17a1.46,1.46,0,0,1,.16-.19l-.19.17s.08,0,.11-.09l-.21.13-.24.11-.12,0a2.11,2.11,0,0,1-.48.12,2,2,0,0,1-.55,0h.06l-.26,0,.12,0-.18-.09.11.08.82-1a1.81,1.81,0,0,1,.64-.15c.33,0,.43-.06.28-.05h.18l.26,0a.49.49,0,0,1-.17-.06l.18.1a.94.94,0,0,1-.33-.3l.1.14a.71.71,0,0,1-.13-.44v.16a.62.62,0,0,1,.09-.26l-.11.18a1.27,1.27,0,0,1,.1-.12l-.19.18c.16-.14-.25.13-.14.08s-.4.16-.25.11l-.32.1-.13,0c-.42.09.11,0-.28,0s.08,0-.25,0-.06,0,0,0l-.26-.06a.9.9,0,0,1,.21.08l-.19-.1a.64.64,0,0,1,.23.2l-.09-.13.06.11c.08.21.33.26.53.29a3,3,0,0,0,1.07-.11,2.89,2.89,0,0,0,1-.44c.13-.11.4-.32.32-.52a1.29,1.29,0,0,0-1.19-.69,4.22,4.22,0,0,0-1.79.29,2.47,2.47,0,0,0-1.06.7,1,1,0,0,0,.07,1.32,1.29,1.29,0,0,0,.59.34,3.55,3.55,0,0,0,2.06-.2,1.94,1.94,0,0,0,.79-.5c.11-.15.2-.32,0-.47a1.27,1.27,0,0,0-.75-.29,3.67,3.67,0,0,0-1.7.27,2.41,2.41,0,0,0-1.42,1.17,1.17,1.17,0,0,0,.13,1.07,3.14,3.14,0,0,0,.88.9,1.77,1.77,0,0,0,1.32.09,3.76,3.76,0,0,0,.74-.24,1.7,1.7,0,0,0,.63-.42,2.9,2.9,0,0,0,.56-1.8,2.58,2.58,0,0,0-.6-1.61l-.18-.1-.26-.05a2.55,2.55,0,0,0-.87.07,2.61,2.61,0,0,0-1.37.65l-.83.89a.32.32,0,0,0,0,.47,1.16,1.16,0,0,0,.75.16,3.09,3.09,0,0,0,1.13-.24,2.27,2.27,0,0,0,.8-.49Z"/><path class="svg_about_noutore_header3-2" d="M318.49,11.45h.1l.25,0-.33-.09.18.07a1.39,1.39,0,0,1-.51-.39l.09.11-.1-.15-.14.29a1.07,1.07,0,0,1,.19-.18l-.21.15.15-.1-.27.15.07,0c.14-.07-.38.15-.25.1s-.45.13-.22.07-.45.09-.3.07h.06c-.31,0-.41.05-.29,0h0l-.25,0a1.16,1.16,0,0,1,.32.08l-.17-.07a1.23,1.23,0,0,1,.47.35l-.08-.11a1.32,1.32,0,0,1,.23.95l0-.14a1.37,1.37,0,0,1-.27.66l.12-.16a1.26,1.26,0,0,1-.2.2l.2-.15-.13.09,2.48-.45a.89.89,0,0,1-.3-.24l.09.11a1.16,1.16,0,0,1-.2-.81V12a1,1,0,0,1,.19-.48l-.11.15a.93.93,0,0,1,.14-.14l-.2.15.08,0-2.3.52.07,0L317,12.1a.94.94,0,0,1,.35.27l-.08-.11a1,1,0,0,1,.2.76l0-.14a.76.76,0,0,1-.16.39l.12-.15-.14.14.2-.15-.13.08.28-.15-.05,0,.27-.11c-.18.06.47-.14.27-.09l.28-.06.28,0h.09l.25,0-.22,0,.18.07a1,1,0,0,1-.31-.21.53.53,0,0,0-.3-.09,1.3,1.3,0,0,0-.44,0,4,4,0,0,0-1.13.25l-.33.14a1.72,1.72,0,0,0-.48.31l-.11.15a.18.18,0,0,0,.06.25,1.23,1.23,0,0,0,.63.32,3.33,3.33,0,0,0,1.37,0,4.24,4.24,0,0,0,2-.83A1.14,1.14,0,0,0,320,11.3a1.73,1.73,0,0,0-1.65-.23,2.76,2.76,0,0,0-1.76,1,1.22,1.22,0,0,0-.17.56,1.2,1.2,0,0,0,0,.5,1.24,1.24,0,0,0,.31.5.85.85,0,0,0,.19.14,1.69,1.69,0,0,0,1.13.07,3.8,3.8,0,0,0,1.42-.52,1.86,1.86,0,0,0,.86-1.16,1.63,1.63,0,0,0,0-.66,1.18,1.18,0,0,0-.26-.54,2.08,2.08,0,0,0-1.8-.61,5.21,5.21,0,0,0-1.82.43,2.85,2.85,0,0,0-1.09.72.3.3,0,0,0-.13.29,1.51,1.51,0,0,0,.6.6,2.49,2.49,0,0,0,1.37.24,3.63,3.63,0,0,0,1.13-.25,2,2,0,0,0,.47-.21,1.36,1.36,0,0,0,.34-.23c.1-.12.23-.28.05-.4l-.18-.08a2.09,2.09,0,0,0-.56,0Z"/><path class="svg_about_noutore_header3-2" d="M339,12.06a1,1,0,0,1-.16-.66l0,.15a1.38,1.38,0,0,1,.26-.65l-.12.16a2.08,2.08,0,0,1,.32-.34l-.19.16.1-.08s.2-.12,0,0-.08,0,0,0l-.25.11.06,0c.06,0-.47.14-.31.1s.19,0-.13,0l-.12,0c.15,0-.34,0-.28,0H338l-.26,0,.24.07-.18-.08a1,1,0,0,1,.38.31l-.08-.12a1.16,1.16,0,0,1,.19.81l0-.15a1.68,1.68,0,0,1-.31.81l.11-.16a1.37,1.37,0,0,1-.26.28l.2-.16-.15.11s.33-.18.21-.13l0,0c-.13.07.33-.14.27-.11h0c-.08,0,0,0,.15,0s.2-.06.13,0a1.94,1.94,0,0,0,.33-.07c-.19,0,.42,0,.24,0s.37,0,.2,0h-.11l.25,0h-.07l.18.08-.08-.1.09.12a1.81,1.81,0,0,1-.3-1.21v.14a1.65,1.65,0,0,1,.31-.82l-.12.16.21-.24L339,11l.05,0a3.9,3.9,0,0,1-.67.18,2.27,2.27,0,0,1-.58,0h.05l-.26,0,.13,0-.18-.08a.81.81,0,0,1,.28.24l-.09-.12a1.75,1.75,0,0,1,.29,1.15v-.12a.17.17,0,0,0,0,.21.27.27,0,0,0,.22.14,2.09,2.09,0,0,0,.93,0,3.82,3.82,0,0,0,1.1-.35l.27-.16a.89.89,0,0,0,.32-.32,1.93,1.93,0,0,0-.4-1.5,1.24,1.24,0,0,0-.86-.35,4.07,4.07,0,0,0-1.62.28,2.33,2.33,0,0,0-1,.64,2.24,2.24,0,0,0-.5,1.63,1.71,1.71,0,0,0,.23.69,1.77,1.77,0,0,0,.16.22.36.36,0,0,0,.28.19,3.13,3.13,0,0,0,.81.07,5.15,5.15,0,0,0,1.88-.5,2.91,2.91,0,0,0,.85-.62,2,2,0,0,0,.55-1.27,1.27,1.27,0,0,0-.43-1.06,1.76,1.76,0,0,0-.9-.35,4,4,0,0,0-1.55.16,3.67,3.67,0,0,0-2.23,1.48,1.31,1.31,0,0,0,0,1.35.24.24,0,0,0,.18.16.66.66,0,0,0,.34.08,3.15,3.15,0,0,0,1.06-.13,3,3,0,0,0,1-.42l.2-.16a.33.33,0,0,0,.13-.31Z"/><path class="svg_about_noutore_header3-2" d="M356.12,11.38l1,1.34a.2.2,0,0,0,.17.12.75.75,0,0,0,.33.06,3.78,3.78,0,0,0,1.06-.16,3.41,3.41,0,0,0,1-.39c.11-.07.41-.24.35-.41l-.51-1.34-.14.26.07,0-.2.14,0,0c.11-.07-.24.12-.2.11s-.31.12-.26.1l-.33.1-.14,0a3.4,3.4,0,0,1-.53.08c-.26,0-.08,0,0,0l-.25,0a.87.87,0,0,1,.22.05l-.17-.06a.72.72,0,0,1,.27.15l-.08-.1a1.15,1.15,0,0,1,0,.19l0-.13a.93.93,0,0,1-.21.42l.12-.14a1.62,1.62,0,0,1-.19.18l.2-.15-.09.06,0,0,.21-.11,0,0,.26-.1h0c-.12,0,.48-.14.32-.09l.26-.06c-.11,0,.46-.06.25,0h.07l.25,0-.25-.05.17.06a1,1,0,0,1-.39-.26l.08.09a1,1,0,0,1-.08-.11l-2.08.94,1.28-.09a4,4,0,0,0,1.13-.26,2.76,2.76,0,0,0,.47-.2,1.33,1.33,0,0,0,.34-.22c.1-.09.24-.24.07-.35l-.18-.06a2.09,2.09,0,0,0-.56,0l-1.28.08a4.28,4.28,0,0,0-1.46.4,2.15,2.15,0,0,0-.49.28.31.31,0,0,0-.14.26,1.22,1.22,0,0,0,.86.57,3.15,3.15,0,0,0,.92,0,6.71,6.71,0,0,0,1.46-.33,3,3,0,0,0,1.51-1,.83.83,0,0,0,.16-.4.66.66,0,0,0,0-.24c0-.1-.22-.2-.3-.23a2.9,2.9,0,0,0-1.6-.08,5.74,5.74,0,0,0-1.34.4,2.86,2.86,0,0,0-.71.43.28.28,0,0,0-.14.26l.5,1.34,2.9-.78-1-1.34a.2.2,0,0,0-.16-.12.78.78,0,0,0-.34-.05,3.7,3.7,0,0,0-1.05.15,3.61,3.61,0,0,0-1,.4l-.2.14a.28.28,0,0,0-.14.26Z"/><path class="svg_about_noutore_header3-2" d="M376,11.28,377,9.37l-2.89.6-.1,2.91c0,.2.43.3.54.32a2.64,2.64,0,0,0,1.08-.1,2.53,2.53,0,0,0,1-.45l.19-.19a.4.4,0,0,0,.12-.36l.1-2.91c0-.2-.43-.3-.54-.32a2.6,2.6,0,0,0-.88.06,2,2,0,0,0-1.47.86l-.93,1.92c-.1.2.12.37.27.43a1.88,1.88,0,0,0,.94,0,3,3,0,0,0,1.1-.36,1.26,1.26,0,0,0,.57-.55Z"/><path class="svg_about_noutore_header3-2" d="M398.57,11.79a.72.72,0,0,1-.21-.25l.11.2a.88.88,0,0,1-.11-.39v.23a1.43,1.43,0,0,1,.09-.5l-.09.23a1.38,1.38,0,0,1,.2-.33l-.18.22a.91.91,0,0,1,.17-.17l-.26.21.13-.09-.32.17.11-.05-.37.14a.34.34,0,0,1,.12,0l-.4.08h-.13l-.32,0h0l-.57-.45a.87.87,0,0,1,.1.39v-.23a1.1,1.1,0,0,1-.08.4l.09-.23a1.11,1.11,0,0,1-.17.3l.18-.22-.17.17.26-.21-.15.09.33-.17-.12.05.38-.13a.5.5,0,0,1-.13,0l.4-.07h.19a2.79,2.79,0,0,0-1.14.22,1.62,1.62,0,0,0-.45.28,1,1,0,0,0-.31.32.54.54,0,0,0,0,.66,1.1,1.1,0,0,0,.79.3,3.15,3.15,0,0,0,2.7-1.27,2.23,2.23,0,0,0,.21-.44,1.34,1.34,0,0,0,.07-.27,1.42,1.42,0,0,0-.08-.71l-.13-.24a1,1,0,0,0-.49-.26,1.93,1.93,0,0,0-.42-.05,3.45,3.45,0,0,0-1,.1,3.73,3.73,0,0,0-.56.2,3.13,3.13,0,0,0-.75.49,2.12,2.12,0,0,0-.71,1.2,1.55,1.55,0,0,0,0,.71,1.24,1.24,0,0,0,.38.6.63.63,0,0,0,.33.2,1.06,1.06,0,0,0,.46.1,1.81,1.81,0,0,0,.57,0,1.88,1.88,0,0,0,.57-.17l.33-.17a1.39,1.39,0,0,0,.44-.43l.09-.23a.46.46,0,0,0-.11-.43Z"/><path class="svg_about_noutore_header3-2" d="M415.08,13.29a4.48,4.48,0,0,0,.64-.09l.25-.07a4.07,4.07,0,0,0,.58-.22,4.6,4.6,0,0,0,.53-.31,3.31,3.31,0,0,0,.62-.56,3.11,3.11,0,0,0,.31-.43c.05-.08.1-.16.14-.24a.8.8,0,0,0-.06-.79.75.75,0,0,0-.35-.26,1,1,0,0,0-.47-.14,2,2,0,0,0-1.14.2,1.65,1.65,0,0,0-.75.68l-.67,1.22a.6.6,0,0,0-.08.41.53.53,0,0,0,.13.38.75.75,0,0,0,.35.26,1,1,0,0,0,.47.14,2.07,2.07,0,0,0,1.15-.2,1.62,1.62,0,0,0,.74-.68l.68-1.22-2.77-.31a1.71,1.71,0,0,1-.13.23l.17-.25a1.69,1.69,0,0,1-.28.32l.25-.23a1.39,1.39,0,0,1-.31.23l.32-.19a1.77,1.77,0,0,1-.31.15l.38-.14-.31.08.39-.07-.2,0a1.65,1.65,0,0,0-.58.14,1.37,1.37,0,0,0-.51.26,1,1,0,0,0-.34.36.8.8,0,0,0-.17.4l0,.27a.73.73,0,0,0,.33.44,1.61,1.61,0,0,0,1,.21Z"/><path class="svg_about_noutore_header3-2" d="M315.56,12.66l-.05,0,.33-.16,0,0,.38-.13,0,0,.39-.08h0l.36,0h-.07l.32,0H317l.26.06a.47.47,0,0,1-.15-.06l.18.11a1,1,0,0,1-.25-.25l.1.15a.84.84,0,0,1-.13-.44v.18a.44.44,0,0,1,.07-.24L317,12l.1-.12-.2.18L317,12l-.27.18.09,0-.33.15.07,0-.38.13.1,0-.39.08H316l-.37,0h.14l-.32,0,.19,0-.26-.07a1.36,1.36,0,0,1,.28.11l-.19-.11a1.15,1.15,0,0,1,.3.28l-.1-.15a1.13,1.13,0,0,1,.16.62V13a1.42,1.42,0,0,1-.2.67l.11-.18a3,3,0,0,1-.27.35l2.78-.41a3.3,3.3,0,0,1-.37-1.37v.18a1.47,1.47,0,0,1,.13-.54l-.1.19a.61.61,0,0,1,.12-.16l-.19.18.13-.1-.27.18.13-.07-.33.15.11,0-.38.12.12,0-.4.08.14,0-.36,0h.14l-.32,0,.13,0-.26-.06a.67.67,0,0,1,.18.07l-.19-.11a.55.55,0,0,1,.18.16l-.1-.15a1.07,1.07,0,0,1,.07.19c0,.21.38.3.54.33a2.57,2.57,0,0,0,1.07-.1,2.51,2.51,0,0,0,1-.45c.16-.15.35-.32.3-.56a.93.93,0,0,0-.6-.66,2.42,2.42,0,0,0-.84-.13,3.56,3.56,0,0,0-1,.14,3.24,3.24,0,0,0-1.65.92A1.6,1.6,0,0,0,315,13a3.59,3.59,0,0,0,.38,1.23.51.51,0,0,0,.41.29,2,2,0,0,0,.81,0,5.16,5.16,0,0,0,.77-.21,2.22,2.22,0,0,0,.79-.52,2,2,0,0,0,.57-1.53,1.33,1.33,0,0,0-.91-1.11A3.07,3.07,0,0,0,316.4,11a3.66,3.66,0,0,0-1.74.68,1.37,1.37,0,0,0-.36.36,1,1,0,0,0-.18.4.89.89,0,0,0,.1.64,1.18,1.18,0,0,0,.65.59,2.14,2.14,0,0,0,.79.12,3.68,3.68,0,0,0,1.65-.46c.19-.1.51-.31.57-.55a.38.38,0,0,0-.28-.44,1.87,1.87,0,0,0-.94-.06,3.47,3.47,0,0,0-1.1.36Z"/><path class="svg_about_noutore_header3-2" d="M336,12.09a.44.44,0,0,1,.18.12l-.08-.09a.56.56,0,0,1,.11.47l0-.13a.55.55,0,0,1-.12.24l.12-.14a.23.23,0,0,1-.07.07l.2-.14c-.09.06,0,0,.22-.12l2.2-.32a1.06,1.06,0,0,1-.35-.28l.08.1a1.36,1.36,0,0,1-.29-1.08l0,.13a1.16,1.16,0,0,1,.26-.56l-.12.14a.93.93,0,0,1,.18-.16l-.21.14.08-.05c.17-.1-.31.16-.16.09s-.43.16-.23.09-.48.14-.26.09l-.32.07-.29,0h0l-.25,0,.31.07L337,10.8a1.21,1.21,0,0,1,.52.34l-.08-.09a1.18,1.18,0,0,1,.23,1l0-.12a1.4,1.4,0,0,1-.3.64l.12-.14a1,1,0,0,1-.21.19l.2-.14c-.05,0-.22.12,0,0l.11,0h0c-.14.07.41-.15.25-.1a2.49,2.49,0,0,0-.47.21,1.29,1.29,0,0,0-.35.22c-.09.09-.22.25-.06.36l.18.06a2.09,2.09,0,0,0,.56,0,4.8,4.8,0,0,0,1.12-.26,2.89,2.89,0,0,0,1.52-1,1.59,1.59,0,0,0,.25-.9,1.22,1.22,0,0,0-.38-.84,1.54,1.54,0,0,0-.9-.42,3.78,3.78,0,0,0-.95,0,6.52,6.52,0,0,0-1.78.48,2.24,2.24,0,0,0-1.15,1,1.46,1.46,0,0,0,.36,1.73A.85.85,0,0,0,336,13a1.3,1.3,0,0,0,.78.09,4.52,4.52,0,0,0,1.48-.4c.29-.14.7-.35.8-.69a.81.81,0,0,0,0-.51.64.64,0,0,0-.34-.38A1.67,1.67,0,0,0,338,11a4.8,4.8,0,0,0-1.12.26l-.34.14a2.31,2.31,0,0,0-.48.28c-.07.08-.25.29-.06.37Z"/><path class="svg_about_noutore_header3-2" d="M357.78,11.81a.35.35,0,0,1-.07.12l.18-.21a.47.47,0,0,1-.1.1l.26-.2-.07.05.32-.17-.08,0,.38-.13-.11,0,.39-.08h-.08l.36,0h-.08l.32,0-.11,0,.27.09-.11,0,.2.14a1.1,1.1,0,0,1-.14-.18l.11.18a.74.74,0,0,1-.11-.41v.21a1.25,1.25,0,0,1,.11-.5l-.1.22a1.59,1.59,0,0,1,.22-.35l-.19.21a1.9,1.9,0,0,1,.21-.19l-.27.2.17-.11-.32.17.13-.05-.38.13.12,0-.39.08h-.1l-.33,0,.18,0L358.3,11a.94.94,0,0,1,.22.12l-.19-.14a.92.92,0,0,1,.28.31l-.1-.18a1.38,1.38,0,0,1,.17.66V11.6a1.45,1.45,0,0,1-.13.59l.1-.21a1.45,1.45,0,0,1-.17.26l.18-.21a.67.67,0,0,1-.15.14l.27-.19-.14.08.32-.17-.11,0,.38-.13-.14,0,.39-.08-.13,0,.36,0h-.19l.32,0-.21-.05.27.09a1.35,1.35,0,0,1-.38-.19l.2.14a1.59,1.59,0,0,1-.44-.49l.11.18a1.31,1.31,0,0,1-.18-.61v.21a1,1,0,0,1,.08-.42l-.1.21.1-.17-.18.22.06-.07-.26.19.06,0-.33.16.06,0-.38.13h0l-.39.08H358l-.36,0h.06l-.32,0,.06,0-.27-.09a.51.51,0,0,1,.15.07l-.2-.14a1.35,1.35,0,0,1,.37.42l-.11-.18a1.93,1.93,0,0,1,.24.87v-.21a1,1,0,0,1-.08.42l.1-.21a.57.57,0,0,1-.08.13l.18-.21-.07.06.26-.19,0,0,.32-.17-.05,0,.38-.13-.06,0,.39-.08h.23l.59.12a1.71,1.71,0,0,1-.23-.13l.19.13a1.61,1.61,0,0,1-.46-.51l.11.18a1.64,1.64,0,0,1-.22-.81V11a1.47,1.47,0,0,1,.11-.59c.09-.22-.13-.45-.3-.54a1.66,1.66,0,0,0-1-.1,2.62,2.62,0,0,0-1.09.37l-.27.19a1,1,0,0,0-.28.43,2,2,0,0,0-.08,1.1,1.69,1.69,0,0,0,.15.43,2.14,2.14,0,0,0,.35.55,2.39,2.39,0,0,0,.52.42,2,2,0,0,0,1.45.14,2.19,2.19,0,0,0,1.78-1.28,1.35,1.35,0,0,0,.06-.35,2.78,2.78,0,0,0-.05-.58,2.3,2.3,0,0,0-.45-.93,1.55,1.55,0,0,0-.81-.49,2.32,2.32,0,0,0-.87,0,3.08,3.08,0,0,0-1.24.44,1.72,1.72,0,0,0-.76,1,1.41,1.41,0,0,0-.05.61,1.75,1.75,0,0,0,.42.95,2.26,2.26,0,0,0,1.12.69,2.5,2.5,0,0,0,.72.1,4.33,4.33,0,0,0,1.47-.3,2.61,2.61,0,0,0,1.24-1,1.88,1.88,0,0,0,.29-.88,1.91,1.91,0,0,0-.15-.88,1.52,1.52,0,0,0-.76-.76,3,3,0,0,0-2.16,0,3.15,3.15,0,0,0-1.51,1,2.16,2.16,0,0,0-.29.54,1.36,1.36,0,0,0-.1.36,1.31,1.31,0,0,0,.3,1,.78.78,0,0,0,.33.24A2.52,2.52,0,0,0,358,13a3.56,3.56,0,0,0,.92-.11,3.41,3.41,0,0,0,.86-.36,2,2,0,0,0,.4-.29,1.26,1.26,0,0,0,.31-.38.37.37,0,0,0,.09-.32.3.3,0,0,0-.1-.29,1.18,1.18,0,0,0-.79-.26,2.59,2.59,0,0,0-1.13.22l-.33.17a1.44,1.44,0,0,0-.45.4Z"/><path class="svg_about_noutore_header3-2" d="M374.59,11.25l.18-.05-.4.07h-.2l.23,0-.33-.07.29.1-.27-.13a2,2,0,0,1,.38.26l-.2-.18a2,2,0,0,1,.41.54l-.12-.23a1.57,1.57,0,0,1,.18.64V12a1.4,1.4,0,0,1-.06.45l.09-.26a1.3,1.3,0,0,1-.16.31l.18-.25,0,.05,2.33-.43a1.92,1.92,0,0,1-.42-.28l.21.18a1.78,1.78,0,0,1-.45-.57l.12.23a1.43,1.43,0,0,1-.16-.57l0,.26a1,1,0,0,1,0-.39l-.08.26a.91.91,0,0,1,.13-.26l-.18.25a.86.86,0,0,1,.18-.2l-.25.22.19-.13-.32.18.19-.09-.38.14.2-.05-.4.07h0l-.33-.06.16.05-.28-.13a.76.76,0,0,1,.19.12l-.2-.18a1,1,0,0,1,.19.27l-.12-.23A2.87,2.87,0,0,1,375.5,12v-.26a2.15,2.15,0,0,1-.06.67l.08-.26a.84.84,0,0,1-.13.27l.18-.24-.1.11.25-.23-.11.08.33-.18-.1,0,.37-.13-.13,0,.4-.07-.16,0h.37l-.13,0,.33.07-.15,0L377,12a.36.36,0,0,1-.12-.08l.2.18L377,12l.12.23a.33.33,0,0,1,0-.14c0-.27-.38-.47-.6-.54a2,2,0,0,0-1.1,0,1.93,1.93,0,0,0-.95.54.9.9,0,0,0-.25.76.74.74,0,0,0,.1.26.91.91,0,0,0,.15.23,1.55,1.55,0,0,0,.72.42,3,3,0,0,0,2.35-.41,2,2,0,0,0,.9-1.39,4.52,4.52,0,0,0-.06-1.27,2.17,2.17,0,0,0-.13-.5,3.29,3.29,0,0,0-.21-.42,1.72,1.72,0,0,0-.34-.32,1.5,1.5,0,0,0-.56-.29,2.93,2.93,0,0,0-1-.09,2.85,2.85,0,0,0-2.6,1.95,2,2,0,0,0,0,.76,2.28,2.28,0,0,0,.3.7,1.92,1.92,0,0,0,.36.44,3,3,0,0,0,.65.49,1.78,1.78,0,0,0,1.18.16,1.9,1.9,0,0,0,1.15-.58,2.17,2.17,0,0,0,.51-1.12,2.14,2.14,0,0,0-.13-1,2.5,2.5,0,0,0-.53-.83,2.7,2.7,0,0,0-1.05-.67,2.34,2.34,0,0,0-.7-.13,3.36,3.36,0,0,0-1.14.13,2.06,2.06,0,0,0-1,.54.84.84,0,0,0-.25.76c.22.65,1.14.71,1.69.54Z"/><path class="svg_about_noutore_header3-2" d="M397.9,11.28h.35l-.17,0,.33.07-.19-.07.27.12a1.4,1.4,0,0,1-.26-.16l.21.17a1.36,1.36,0,0,1-.3-.38l.12.22a1.33,1.33,0,0,1-.15-.55v.25a1,1,0,0,1,.06-.43l-.09.26a.9.9,0,0,1,.12-.24l-.17.24.13-.14-.26.22.13-.09-.32.18a.84.84,0,0,1,.14-.06l-.37.13a.5.5,0,0,1,.13,0l-.4.07.18,0H397l.21,0L396.9,11a1.4,1.4,0,0,1,.29.09l-.28-.12a1.08,1.08,0,0,1,.34.21l-.2-.18a1.57,1.57,0,0,1,.3.38l-.12-.23a1.09,1.09,0,0,1,.11.39l0-.26a.85.85,0,0,1,0,.32l.09-.25a1.23,1.23,0,0,1-.14.25l.18-.24-.17.18.26-.22-.18.12.32-.18-.19.09.38-.14-.19.05.4-.07-.21,0h.37l-.19,0,.33.06a.66.66,0,0,1-.2-.06l.27.12a1.06,1.06,0,0,1-.26-.17l.2.18a1.31,1.31,0,0,1-.25-.33l.11.22a1.32,1.32,0,0,1-.13-.48l0,.26a.92.92,0,0,1,0-.37l-.09.26s0,0,0,0l-1.14.78.11,0-.39.07h-.21a.55.55,0,0,1,.18,0l-.33-.07.23.07-.28-.12a1.32,1.32,0,0,1,.32.2l-.2-.17a1.35,1.35,0,0,1,.28.35l-.12-.22a1,1,0,0,1,.11.4v-.25a.86.86,0,0,1,0,.16.69.69,0,0,0,.34.66,1.63,1.63,0,0,0,1,.19,2.39,2.39,0,0,0,1.1-.39,1.21,1.21,0,0,0,.52-.73,1.81,1.81,0,0,0-.87-1.7,2.54,2.54,0,0,0-1.17-.36,3.19,3.19,0,0,0-1,.1,1.78,1.78,0,0,0-1.17.82,2.43,2.43,0,0,0-.13.38,2,2,0,0,0,0,.55,1.3,1.3,0,0,0,.07.33,2,2,0,0,0,.24.46,2,2,0,0,0,.41.42,2.19,2.19,0,0,0,1.14.41,3.52,3.52,0,0,0,1.69-.29,2.7,2.7,0,0,0,1-.76,2,2,0,0,0,.32-.49,1.67,1.67,0,0,0,.15-.54,1.87,1.87,0,0,0,0-.47,1.71,1.71,0,0,0-.21-.48,1.9,1.9,0,0,0-.55-.58,2.08,2.08,0,0,0-.75-.36,3.06,3.06,0,0,0-1.59,0,2.91,2.91,0,0,0-1.37.76,2,2,0,0,0-.5.89,1.76,1.76,0,0,0,0,.79,2.27,2.27,0,0,0,.32.75,1.82,1.82,0,0,0,.58.56,2.08,2.08,0,0,0,.53.23,2.77,2.77,0,0,0,1,.09,1.88,1.88,0,0,0,.58-.13,1.54,1.54,0,0,0,.51-.26,1,1,0,0,0,.35-.34.73.73,0,0,0,.17-.38.67.67,0,0,0-.33-.66l-.27-.12a1.89,1.89,0,0,0-.71-.06Z"/><path class="svg_about_noutore_header3-2" d="M415.91,13a1.83,1.83,0,0,0,.54-.72,2.45,2.45,0,0,0,.1-.54,2.23,2.23,0,0,1,.17-1l-.11.18a.39.39,0,0,1,.08-.1l-.19.18s.13-.09-.08,0l-.11.07-.27.13a4.16,4.16,0,0,1-.67.18,1.82,1.82,0,0,1-.4,0c-.13,0-.15,0-.06,0l-.26-.06a1.39,1.39,0,0,1,.28.12l-.19-.1a2.1,2.1,0,0,1,.77.71l-.09-.14a1.64,1.64,0,0,1,.27.94v-.17a1.18,1.18,0,0,1-.17.54l.11-.18a1.14,1.14,0,0,1-.26.32l.2-.18-.14.12c-.11.08.3-.18.14-.1l.21-.1c-.07,0,0,0,.13,0a1.09,1.09,0,0,1,.31-.08q.25,0,.12,0l.28,0h.08l.26,0a.65.65,0,0,1-.21-.07l.18.1a.9.9,0,0,1-.28-.27l.09.14a1.1,1.1,0,0,1-.17-.64v.18a.76.76,0,0,1,.11-.36l-.11.18a.45.45,0,0,1,.11-.13l-.2.18c.16-.14-.31.17-.12.07s.51-.31.57-.53a.34.34,0,0,0-.26-.42,2,2,0,0,0-.94,0,3.47,3.47,0,0,0-1.1.36,1.58,1.58,0,0,0-.94,1.09,1.35,1.35,0,0,0,.28,1,1.78,1.78,0,0,0,1.48.48,4,4,0,0,0,2.66-1.12,1.71,1.71,0,0,0,.47-1.3,2,2,0,0,0-.54-1.16,2.32,2.32,0,0,0-1.39-.78,3.54,3.54,0,0,0-.86,0,3.87,3.87,0,0,0-1.19.39A1.8,1.8,0,0,0,414,11a1.94,1.94,0,0,0-.27,1,2,2,0,0,1-.19.91l.11-.18a.75.75,0,0,1-.14.17l.2-.18,0,0c-.13.11-.37.31-.31.53s.37.29.54.31a2.76,2.76,0,0,0,1.07-.11,2.49,2.49,0,0,0,1-.44Z"/><path class="svg_about_noutore_header3-2" d="M279.82,10.5h-.05l.27.08a.31.31,0,0,1-.13-.06l.19.13a.57.57,0,0,1-.13-.14l.1.17a.67.67,0,0,1-.09-.34v.21a.6.6,0,0,1,.07-.3l-.1.21a.38.38,0,0,1,.09-.13l-.19.21a.27.27,0,0,1,.08-.07l-.27.19.09-.05-.33.17.09,0-.38.13.09,0-.39.08h.09l-.37,0h.13l-.32,0,.19,0-.27-.09a1.34,1.34,0,0,1,.27.13l-.2-.13a1,1,0,0,1,.3.32l-.11-.18a1.41,1.41,0,0,1,.17.69v-.2a2.62,2.62,0,0,1-.09.56l.29-.42-.07.06.26-.19-.12.07.33-.16-.14,0,.38-.13-.14,0,.39-.08-.17,0,.36,0h-.18l.33,0a1.36,1.36,0,0,1-.29-.06l.26.09a1.3,1.3,0,0,1-.31-.16l.19.14a1.29,1.29,0,0,1-.32-.34l.1.18a1.14,1.14,0,0,1-.13-.51v.21a1.41,1.41,0,0,1,.12-.49l-.1.21a1.26,1.26,0,0,1,.21-.32l-.19.21.18-.17-.26.19.16-.1-.33.17a.47.47,0,0,1,.15-.06l-.38.13.12,0-.39.08.12,0-.36,0h0l-.78-.25a1.2,1.2,0,0,1,.34.37l-.1-.18a1.47,1.47,0,0,1,.18.71V11.1a1.81,1.81,0,0,1-.16.73l.1-.21a1.46,1.46,0,0,1-.22.33l.19-.21a1.12,1.12,0,0,1-.2.18l.27-.19-.16.1.33-.17-.15.06.38-.13-.06,0,1.54.15a3.31,3.31,0,0,1-.5-.62l.1.18a1.39,1.39,0,0,1-.21-.65v.21a1.15,1.15,0,0,1,.07-.36l-.1.21a.76.76,0,0,1,.08-.11l-.19.21a.6.6,0,0,1,.08-.08l-.26.2a.47.47,0,0,1,.09-.06l-.33.16.09,0-.38.13.11,0-.39.08.11,0-.36,0h.13l-.32,0,.15,0-.27-.08a.53.53,0,0,1,.17.08l-.19-.14a.69.69,0,0,1,.11.13l-.1-.18a.32.32,0,0,1,0,.14V11a.25.25,0,0,1,0,.12.48.48,0,0,0,.3.52,1.82,1.82,0,0,0,.95.1,2.81,2.81,0,0,0,1.1-.37,1.17,1.17,0,0,0,.55-.61.9.9,0,0,0,0-.23.71.71,0,0,0,0-.21.88.88,0,0,0-.43-.48,2.37,2.37,0,0,0-1.44-.2,3.58,3.58,0,0,0-1,.26,2.44,2.44,0,0,0-.79.51,1.3,1.3,0,0,0-.41.69,1.38,1.38,0,0,0,0,.67,2.27,2.27,0,0,0,.36.69,3.23,3.23,0,0,0,.41.49,1,1,0,0,0,.62.23,2.38,2.38,0,0,0,.92-.08,3,3,0,0,0,1.9-1.32,2.19,2.19,0,0,0,.26-1.46,1.67,1.67,0,0,0-.29-.67,1,1,0,0,0-.16-.2l-.1-.09-.14-.1a1.21,1.21,0,0,0-.72-.18,3.47,3.47,0,0,0-1,.14,3.67,3.67,0,0,0-.95.42,2.65,2.65,0,0,0-.86.84,1.76,1.76,0,0,0-.25.89,1.34,1.34,0,0,0,.26.83,1.73,1.73,0,0,0,.63.51,2.77,2.77,0,0,0,1.13.25,3.72,3.72,0,0,0,1.65-.33,3,3,0,0,0,.79-.48,1.08,1.08,0,0,0,.38-.75,2.11,2.11,0,0,0-.08-1,1.56,1.56,0,0,0-.71-.81,2.54,2.54,0,0,0-1.58-.23,3.43,3.43,0,0,0-1.35.49,1.67,1.67,0,0,0-.62.59,1.21,1.21,0,0,0-.13.95,1.19,1.19,0,0,0,.93.73,2.47,2.47,0,0,0,1.08-.07,2.29,2.29,0,0,0,1-.48c.16-.15.38-.39.29-.63a.67.67,0,0,0-.56-.39Z"/><path class="svg_about_noutore_header3-2" d="M298,12c1.67,0,2.21-2.17.24-2.17-1.67,0-2.21,2.17-.24,2.17Z"/><path class="svg_about_noutore_header3-2" d="M317.81,11.17l.09-.09-.2.17.07-.05c.14-.11-.25.13-.15.08l-.08,0-.11,0-.28.09s-.45.09-.27.06-.41,0-.24,0-.31,0-.17,0h.1l-.26,0a.94.94,0,0,1,.24.06l-.27-.21a1,1,0,0,1,.08.51v-.15a1.09,1.09,0,0,1-.21.55l.11-.16a1.15,1.15,0,0,1-.21.23l.2-.16-.11.08.18-.11.26-.12.13,0a1.68,1.68,0,0,1,.32-.09l.14,0c-.14,0,.39,0,.25,0s.32,0,.2,0h-.09l.25.05a1.06,1.06,0,0,1-.25-.09l.18.09a1.32,1.32,0,0,1-.44-.37l.09.12a1.06,1.06,0,0,1-.21-.71l0,.15a.9.9,0,0,1,.16-.42l-.12.16a1.1,1.1,0,0,1,.21-.22l-.2.16.08-.06c.1-.06.19-.06-.16.09.13,0,.2,0-.21.09.13,0,.28-.07-.25.08.19,0-.45.08-.25.05l-.3,0h.07s-.37,0-.2,0l.12,0-.25-.05.22.07-.18-.08a1.07,1.07,0,0,1,.41.35l-.09-.12a2.32,2.32,0,0,1,.36,1.52v-.15a1.49,1.49,0,0,1-.23.71l.11-.16a1,1,0,0,1-.17.18l.2-.16-.09.06.21-.12a2.26,2.26,0,0,1,.43-.17,1.66,1.66,0,0,1,.49-.11c.35,0,.45-.06.3-.05,0,0,.38,0,.2,0l.25,0a.66.66,0,0,1-.2-.06l.18.08a.84.84,0,0,1-.31-.25l.09.12a.55.55,0,0,1-.11-.33v.15a.49.49,0,0,1,.06-.17l-.11.16,0-.05c.12-.13.2-.3,0-.44a1.23,1.23,0,0,0-.75-.13,3.43,3.43,0,0,0-1.13.25,1.91,1.91,0,0,0-.8.47.73.73,0,0,0-.2.75,1,1,0,0,0,.47.5,2.54,2.54,0,0,0,1.72.12,4.39,4.39,0,0,0,1.22-.46,2.32,2.32,0,0,0,.56-.43,2.08,2.08,0,0,0,.42-1.62,2,2,0,0,0-.73-1.43,1.87,1.87,0,0,0-1-.29,5,5,0,0,0-2.24.49,2.54,2.54,0,0,0-.92.67,1.32,1.32,0,0,0-.32.85,1.44,1.44,0,0,0,1,1.27,1.68,1.68,0,0,0,.55.11,3.94,3.94,0,0,0,1.32-.14,3.8,3.8,0,0,0,1.62-.83,1.57,1.57,0,0,0,.47-.75,1,1,0,0,0-.08-.88c-.14-.2-.57-.26-.79-.28a3.89,3.89,0,0,0-1,.06,4,4,0,0,0-2.15,1c-.12.13-.19.31,0,.44a1.24,1.24,0,0,0,.75.14,4,4,0,0,0,1.13-.25,2.15,2.15,0,0,0,.8-.47Z"/><path class="svg_about_noutore_header3-2" d="M238.36,10.3l-.07,0,.17.06a.35.35,0,0,1-.15-.12l.08.1a.5.5,0,0,1-.08-.34l0,.13a.36.36,0,0,1,.07-.17l-.12.14s.13-.11,0,0-.08.06,0,0l-.2.11a3.46,3.46,0,0,1-.69.22,1.47,1.47,0,0,1-.29.05c-.15,0-.18,0-.09,0h-.17c.16,0-.18,0-.09,0a2.1,2.1,0,0,1,.24.06l-.17-.06a1.12,1.12,0,0,1,.47.34l-.08-.11a1,1,0,0,1,.2.8l0-.12a1.17,1.17,0,0,1-.27.56l.12-.14s-.12.17-.17.17l.12-.09c-.07,0,0,0,.05,0l.08,0c-.21.1,0,0,.56-.2a4.86,4.86,0,0,1,.55-.1c.22,0,.28,0,.19,0s0,0,0,0,0,0,0,0l-.14,0,.18.06a1.59,1.59,0,0,1-.64-.48l.09.1a3.22,3.22,0,0,1-.72-2.28l0,.13a1.29,1.29,0,0,1,.25-.59l-.12.14a1.36,1.36,0,0,1,.12-.12c.11-.12-.11.07-.15.09a2.86,2.86,0,0,1-.58.21,2.7,2.7,0,0,1-.39.08c-.14,0-.16,0-.06,0-.06,0-.3,0-.1,0s-.23-.05-.07,0l.3.08-.18-.06a1.88,1.88,0,0,1,.82.6l-.09-.1a1.92,1.92,0,0,1,.44,1.47l0-.13a1.82,1.82,0,0,1-.36.8l.11-.14a1.29,1.29,0,0,1-.16.17l-.11.1c-.1.09.06,0,.08-.06l-.12.08c-.13.09.13-.08.15-.07l-.07,0,.22-.09c-.07,0-.23.08.05,0l.12,0,.27-.06c-.06,0-.23,0,0,0h0s.34,0,.14,0-.14-.05.08,0l-.12,0-.25-.08.17.07-.09,0a1.5,1.5,0,0,0-.73-.08,4.31,4.31,0,0,0-1.13.25,2.38,2.38,0,0,0-.82.43c-.08.09-.25.29,0,.38a3.15,3.15,0,0,0,1.49.22,6,6,0,0,0,2.2-.56,2.73,2.73,0,0,0,1.69-1.69,2.07,2.07,0,0,0-.57-1.93,2.92,2.92,0,0,0-2.73-.58,3.92,3.92,0,0,0-2.35,1.17,1.62,1.62,0,0,0-.28,1.05,3.4,3.4,0,0,0,.77,2,1.78,1.78,0,0,0,.92.62,3.93,3.93,0,0,0,2.39-.25,2.94,2.94,0,0,0,1.48-1,1.39,1.39,0,0,0,.21-1,1.23,1.23,0,0,0-.64-.79,2.92,2.92,0,0,0-1.89-.16,5.6,5.6,0,0,0-1.54.52,1.58,1.58,0,0,0-.71.59.64.64,0,0,0,.52.89,2.58,2.58,0,0,0,.92,0A3.8,3.8,0,0,0,238,11c.2-.1.51-.22.6-.44s-.08-.26-.24-.29Z"/><path class="svg_about_noutore_header3-2" d="M179.31,12.51l.1,0-.26-.07a.88.88,0,0,1,.2.09l-.19-.13a.84.84,0,0,1,.25.28l-.1-.17a1.11,1.11,0,0,1,.16.64V13a1.43,1.43,0,0,1-.13.54l.1-.2a1.37,1.37,0,0,1-.15.21l.19-.2a.43.43,0,0,1-.12.11l.26-.19-.09.06.33-.16-.11,0,.38-.12-.11,0,.39-.08-.11,0,.37,0h-.14l.33,0-.18,0,.27.07a1,1,0,0,1-.26-.12l.19.13a1.52,1.52,0,0,1-.41-.43l.1.16a1.3,1.3,0,0,1-.19-.67v.19a1.17,1.17,0,0,1,.1-.41l-.1.2.07-.11a.43.43,0,0,0,0-.57,1.2,1.2,0,0,0-.78-.23,2.93,2.93,0,0,0-1.13.23,1.88,1.88,0,0,0-.78.55,1.47,1.47,0,0,0-.15,1.5,1.71,1.71,0,0,0,.47.63,2,2,0,0,0,.94.42,3,3,0,0,0,.94,0,3.72,3.72,0,0,0,1-.27,3,3,0,0,0,.77-.47,1.65,1.65,0,0,0,.34-.36,1.59,1.59,0,0,0,.27-.66,1.78,1.78,0,0,0,0-.69,1.37,1.37,0,0,0-.33-.63,1.74,1.74,0,0,0-.38-.29l-.13-.05a1.82,1.82,0,0,0-.4-.11,2.58,2.58,0,0,0-1.07.07,2.6,2.6,0,0,0-.55.21,1.68,1.68,0,0,0-.42.27c-.15.13-.39.36-.3.59a.68.68,0,0,0,.55.37Z"/><path class="svg_about_noutore_header3-2" d="M158.78,13.14c.51,0,1.66-.22,1.94-.71s-.26-.56-.71-.56-1.65.22-1.93.71.26.56.7.56Z"/><path class="svg_about_noutore_header3-2" d="M258.19,12.44a2.75,2.75,0,0,1-.33-1.46v.17a2.69,2.69,0,0,1,.13-.64l-.31.34.06,0-.18.11c.12-.06.28-.09-.18.08.25-.09-.42.12-.22.06l-.24,0-.21,0h-.14l.27,0-.25-.06a2.22,2.22,0,0,1,.49.18l-.19-.1a1.59,1.59,0,0,1,.58.51l-.09-.14a1.23,1.23,0,0,1,.21.77v-.17a1,1,0,0,1-.17.51l.11-.17a1.69,1.69,0,0,1-.28.32l.2-.17-.12.09-.05,0c-.11.08.31-.18.17-.1s-.26.12,0,0,.15-.07.09-.05-.29.07.27-.08l-.06,0a2.49,2.49,0,0,0,.29-.07l-.08,0c-.12,0,.39,0,.27,0h-.08s.36,0,.22,0l-.15,0,.25,0a1.34,1.34,0,0,1-.26-.09l.18.09a1.09,1.09,0,0,1-.39-.35l.09.13a2.64,2.64,0,0,1-.34-1.56l0,.16a2.24,2.24,0,0,1,.3-1l-.11.18a1.21,1.21,0,0,1,.25-.3L258,10l.11-.09c.17-.13-.25.13-.13.08l0,0-.22.1h0l-.26.08-.24.05c.2,0-.39,0-.2,0s-.33,0-.16,0l.15,0-.26,0a1.06,1.06,0,0,1,.25.09l-.18-.1a1.1,1.1,0,0,1,.25.19l-.09-.14.16.81c0,.2.38.26.53.28a3.38,3.38,0,0,0,2.05-.55c.15-.12.36-.29.32-.51L260,9.64a.86.86,0,0,0,0-.23.58.58,0,0,0-.23-.26,2.33,2.33,0,0,0-1.34-.33,4.81,4.81,0,0,0-2.07.53,2.64,2.64,0,0,0-1,.78,2.26,2.26,0,0,0-.43,1,3.62,3.62,0,0,0,0,1,2.34,2.34,0,0,0,.31.92,1.57,1.57,0,0,0,.74.63,2.51,2.51,0,0,0,1.09.14,5,5,0,0,0,1.66-.37,2.93,2.93,0,0,0,1.7-1.44,1.41,1.41,0,0,0-.26-1.43,2.29,2.29,0,0,0-1.51-.77,4.24,4.24,0,0,0-1.7.13,4.45,4.45,0,0,0-1,.37,1.65,1.65,0,0,0-.82.65,2.87,2.87,0,0,0-.13,1.2,2.57,2.57,0,0,0,.32,1.05.6.6,0,0,0,.53.28,3,3,0,0,0,1.07-.11,2.71,2.71,0,0,0,1-.44c.12-.09.42-.32.32-.5Z"/><path class="svg_about_noutore_header3-2" d="M278.37,11.39l-.06,1.21.54-.68c.26-.13.32-.17.2-.11.31-.1.39-.13.25-.09.32-.06.4-.07.26-.06h.25c-.24,0,.33.08.13,0l-.17,0,.27.11a1.51,1.51,0,0,1-.37-.22l.2.16a1.53,1.53,0,0,1-.37-.43l.11.21a2.75,2.75,0,0,1-.27-1.17v.24a3.44,3.44,0,0,1,.1-1.28l-.09.24a1,1,0,0,1,.1-.17l-.18.23c.11-.12-.15.1-.15.11s.05,0-.08,0a.88.88,0,0,1-.26.12c-.38.13.16,0-.24.06s-.11,0-.05,0-.39,0-.22,0-.18,0-.19,0a.88.88,0,0,0,.23.07L278,9.82a1.74,1.74,0,0,1,.4.23l-.2-.16a1.71,1.71,0,0,1,.38.47l-.11-.21a1.57,1.57,0,0,1,.19.67v-.24a1.37,1.37,0,0,1-.09.49l.1-.24a1.45,1.45,0,0,1-.2.34l.18-.23-.13.15a.27.27,0,0,0-.08.07s.28-.21.15-.13l-.09.06c-.1.07.36-.18.18-.1l-.08,0c-.18.09.4-.12.24-.08l-.09,0c-.12,0,.45-.06.24,0h-.08c-.2,0,.37,0,.21,0h-.09c-.14,0,.36.07.18,0l-.21-.07a2,2,0,0,0-1.09,0,2.2,2.2,0,0,0-1,.52c-.16.18-.36.44-.26.7s.32.38.58.48a2.65,2.65,0,0,0,.84.15,3.89,3.89,0,0,0,1.23-.17,3.61,3.61,0,0,0,1.9-1.3,1.94,1.94,0,0,0,.3-1.48,2.23,2.23,0,0,0-.89-1.3,2.7,2.7,0,0,0-2-.42c-1,.14-2.11.66-2.25,1.75a5.57,5.57,0,0,0,0,1.63,2.2,2.2,0,0,0,.68,1.37,2.51,2.51,0,0,0,1,.55,3.13,3.13,0,0,0,1.58,0,3.08,3.08,0,0,0,.93-.4,1.24,1.24,0,0,0,.53-.58.87.87,0,0,0,.06-.32l0-1a.6.6,0,0,0-.32-.6,1.61,1.61,0,0,0-1-.15,2.27,2.27,0,0,0-1.09.38c-.21.15-.52.39-.53.67Z"/><path class="svg_about_noutore_header3-2" d="M300.54,11c.17-.1-.37.17-.19.1s0,0-.27.09l-.12,0c-.18,0-.22,0-.13,0h-.14l-.32,0a1.41,1.41,0,0,1,.22.06l-.26-.09a1.3,1.3,0,0,1,.31.16l-.2-.14a1.19,1.19,0,0,1,.34.37l-.1-.18a1.19,1.19,0,0,1,.13.49v-.21a1.1,1.1,0,0,1-.1.47l.1-.22a1.56,1.56,0,0,1-.25.38l.19-.21-.24.22.26-.2-.25.16.22-.11-.06,0c-.25.1.36-.12.22-.08l-.13,0,.29,0H300c-.19,0,.45,0,.19,0H300l.33,0L300.1,12l.27.09A1.29,1.29,0,0,1,300,12l.19.14a1.72,1.72,0,0,1-.46-.51l.11.18a2.19,2.19,0,0,1-.26-1V11a2.49,2.49,0,0,1,.21-1l-.1.22a1.72,1.72,0,0,1,.33-.51l-.19.21s0,0,.05,0l-2.05.54.09,0-.27-.09a.93.93,0,0,1,.2.1l-.2-.14a.94.94,0,0,1,.27.29l-.11-.18a.59.59,0,0,1,.09.24c.05.25.37.37.57.42a2.2,2.2,0,0,0,1.08-.06,2.35,2.35,0,0,0,1-.49.71.71,0,0,0,.28-.64,1.51,1.51,0,0,0-1.2-1.08,2.24,2.24,0,0,0-1.09.06,2,2,0,0,0-1,.49,3.14,3.14,0,0,0-.74,1.19,2.87,2.87,0,0,0-.12,1.13,2.22,2.22,0,0,0,1.2,1.8,3.06,3.06,0,0,0,1.74.21,4.27,4.27,0,0,0,1.86-.68,2.82,2.82,0,0,0,1-1,1.6,1.6,0,0,0,.14-1.23,1.74,1.74,0,0,0-1-1,3.34,3.34,0,0,0-2.9.35,1.13,1.13,0,0,0-.54.62.49.49,0,0,0,.3.54,1.81,1.81,0,0,0,.95.11,2.83,2.83,0,0,0,1.1-.38Z"/></g></g></svg>