<svg id="レイヤー_1" data-name="レイヤー 1" xmlns="http://www.w3.org/2000/svg" viewBox="0 0 264.62 70.74"><defs><style>.cls-1{fill:#f0908a;}</style></defs><path class="cls-1" d="M10.92,5.2s-2.84,0-6.4-.16C4.36,12.52,4,27.92,4,35.43l-2.92.2C.12,24.48,0,.36,0,.36,6.16,0,10.92,0,10.92,0Zm3.64,29.23s2.12-7,1.72-25.11h5.08v.52h1.16V9.32h5s0,1.72-.28,24.39c-3.84.44-7,.56-7,.56V29.88s.88,0,2.72.08l-.12-5.36H20C18,33.51,14.56,34.43,14.56,34.43Zm5.8-11.79H22.8c0-1.68,0-3.12-.08-4.44H21Q20.72,20.66,20.36,22.64Zm.76-6.4h1.56c0-2-.08-3.4-.12-4.44H21.32C21.28,13.4,21.24,14.88,21.12,16.24ZM32,12.44a22.35,22.35,0,0,0-3.56-6.28s4.16-1.08,7.72,4.52Zm10.88,2.12h4.68s0,2-.28,20.71H43.44c0-.44,0-.88,0-1.32H33.12c0,.44,0,.88,0,1.32H29.24c-.4-17-.52-20.71-.52-20.71h4.64s0,1.76-.24,17.43H43.36C43,17.76,42.88,14.56,42.88,14.56Zm0,1a30.08,30.08,0,0,1-2.44,5.92,18.35,18.35,0,0,1,2.44,2.88l-3.16,2.24a19.53,19.53,0,0,0-1.24-2.2c-2.72,3.44-5.28,4.16-5.28,4.16a33.15,33.15,0,0,0,3.64-6.44,28,28,0,0,0-3.4-3.76,8.9,8.9,0,0,1,4.44,1.28,47.9,47.9,0,0,0,1.92-6.68ZM41.36,9.68l-4.28,1.48A21.92,21.92,0,0,0,34,4.68S38.2,3.84,41.36,9.68Zm3.08-6.16,4.4,1.16c-2.36,6.92-8.4,7-8.4,7A19.66,19.66,0,0,0,44.44,3.52ZM63.52,32.67H59c-.56-10.79-.72-24.23-.72-24.23h5.6S63.92,20.8,63.52,32.67Zm8.52-8c-7.08,0-7.44-7.36-7.44-7.36A14.78,14.78,0,0,0,72,19Zm25.52-3.72s-.8,8.68-11.2,11.75H81.84c-.56-10.79-.72-23.51-.72-23.51h5.6s0,8.24-.2,17.92A17.69,17.69,0,0,0,97.56,20.92Zm17.08,14.71c-6.16.36-10.92.36-10.92.36V30.83s2.84,0,6.4.13c.16-7.48.48-22.88.48-30.4l2.92-.2C114.52,11.56,114.64,35.63,114.64,35.63Zm13.72-5.28s5.52-3.91,6.72-13.31l5.44,1.32C138.08,31.15,128.36,30.35,128.36,30.35Zm22.72-17.07v1.6h-4.92c-.2,5-.44,12-.44,17.79h-3.48c-.68-6.19-1-13-1.2-17.79H131v-1.6h10l-.12-4.84h5.6s-.12,1.92-.24,4.84h1.68l1.6-1.6ZM168,15.88s-3.8-2.12-7-2.16l0-4.16C168.32,10,168,15.88,168,15.88Zm12.4-.76S184,25.6,162.28,31.83L161,26.4C176.56,22.12,180.4,15.12,180.4,15.12Zm8.92-1.4s3.28,0,16,.28c0,20-14.68,18.67-14.68,18.67s7.64-3.36,8.92-15.23l-10.28.36ZM205,10.84H190.52V9.24h11.24l1.6-1.6,1.6,1.6Zm9.88,6.56S224,16.92,231,7.68L235.44,11a19.72,19.72,0,0,1-5.72,5.24c-.2,2.64-.6,8.8-.6,16.39H226c-.76-6-1.24-11.23-1.52-14.43A18.29,18.29,0,0,1,214.84,17.4ZM252,15.88s-3.8-2.12-7-2.16l0-4.16C252.32,10,252,15.88,252,15.88Zm12.4-.76S268,25.6,246.28,31.83L245,26.4C260.56,22.12,264.4,15.12,264.4,15.12ZM58,58.92s-.8,8.68-11.2,11.75H42.24c-.56-10.79-.72-23.51-.72-23.51h5.6s0,8.24-.2,17.92A17.69,17.69,0,0,0,58,58.92Zm7.16-7.16H68.6A36.6,36.6,0,0,0,69.44,59S65.12,59.32,65.12,51.76Zm12.56,2.92h4.68c0,16-14.32,16-14.32,16S77.68,65.6,77.68,54.68Zm-7.24-2.92H74a38.34,38.34,0,0,0,.8,7.28S70.44,59.32,70.44,51.76ZM88.28,70.67a24.94,24.94,0,0,0,13.2-19.47c-5.72.24-9.56.24-9.56.24V47.36s7,0,15.4.28c0,7.08-1.8,12-4.28,15.36,2.28-.36,6.16-.12,10.56,3.76l-4,3.91a31.74,31.74,0,0,0-7.6-6.35A19.89,19.89,0,0,1,88.28,70.67ZM129.2,53.88s-3.8-2.12-7-2.16l0-4.16C129.52,48,129.2,53.88,129.2,53.88Zm12.4-.76s3.6,10.48-18.12,16.71l-1.24-5.43C137.76,60.12,141.6,53.12,141.6,53.12Zm26.6,17.19c-10.68,2.36-15.12-5.51-8.24-14-2.24-.72-6-2.84-7.12-9.2l5.4-1.44a29.09,29.09,0,0,0,2.64,9.56A33.7,33.7,0,0,1,166,50.84l3.84,4.08C154,66,168.2,70.31,168.2,70.31Zm15.36-20.63c0,9.24.4,13.44.4,13.44s-6-.32-6-13.44Zm18.16-1.6,1.6,1.6v1.6H199V55a65.65,65.65,0,0,1-.28,7.16c1.2.32,2.2.6,3,.84l-1.28,4.92c-.8-.4-1.76-.84-2.76-1.24-1.16,2.55-3.24,4-7,4-6.36,0-5.52-8.91-.08-9.43a15.43,15.43,0,0,1,2.72,0c.12-1.68.16-3.76.16-6.28V51.28h-7.28v-1.6h7.28V46.44H199v3.24h1.12Zm-9,17a9.85,9.85,0,0,0-2-.32,1.48,1.48,0,0,0,0,3C191.6,67.68,192.28,67.08,192.76,65Zm25.76-1.4c0-3.44,1-5.16,2.08-6.36s2.08-1.92,2.08-3.32-2.56-3.32-6.28-.92l-1.92-4.8c4.44-2.64,8.76-2.2,11.16-.16a5.89,5.89,0,0,1,1.88,6.2c-.6,2.28-1.84,3.28-3,4.48a6.51,6.51,0,0,0-1.88,5Zm4.4,4.55a2.48,2.48,0,1,1-5,0,2.48,2.48,0,0,1,5,0Z"/></svg>