<svg xmlns="http://www.w3.org/2000/svg" viewBox="0 0 412.12 42.75"><defs><style>.about_noutore_header1{fill:#f6beba;}.about_noutore_header2{fill:#231815;}</style></defs><g id="レイヤー_2" data-name="レイヤー 2"><g id="見出し"><path class="about_noutore_header1" d="M254.73,20.27a13.8,13.8,0,0,1,6.92,2.31,7.09,7.09,0,0,1,2.58,2.75A3.6,3.6,0,0,1,264,29a5.22,5.22,0,0,1-2.56,1.59A30.93,30.93,0,0,1,255.39,32a.71.71,0,0,0-.49.21.73.73,0,0,0-.09.44,16.18,16.18,0,0,0,.4,3.18,3.33,3.33,0,0,0,.55,1.33,3.16,3.16,0,0,0,2,1,13.63,13.63,0,0,0,7.3-.87,12.15,12.15,0,0,0,6.77-5.89,12.45,12.45,0,0,0,1-4.13c.24-2.68-.16-5.58-1.9-7.63-2.33-2.74-9.38-4-9.38-4L261.13,9l7.64.61.53-.2a2.66,2.66,0,0,0,.21-.56l.84-6.43h0c-2.8.52-8.48.77-8.48.77l-6.74.16S254.32,20.25,254.73,20.27Z"/><path class="about_noutore_header1" d="M298.37,14.82c-.32-2.8-1.06-5.76-3.24-7.67a10.8,10.8,0,0,0-6.21-2.3,11.52,11.52,0,0,0-7.27,1.42A5.44,5.44,0,0,0,280,7.91a7.85,7.85,0,0,0-.95,3.37,81.46,81.46,0,0,0-.44,13.88c.16,3,.54,6.14,2.37,8.59A10.09,10.09,0,0,0,287,37.46a12,12,0,0,0,5.61-.27c1.59-.45,2.89-.42,3.77-2h0a9,9,0,0,0,.83-2.63A57.65,57.65,0,0,0,298.37,14.82Zm-4.43,10.55c0,1.63-.26,4.17-2.1,5a7.8,7.8,0,0,1-5.24.09,4.39,4.39,0,0,1-1.86-1.86,12.92,12.92,0,0,1-1.38-5.25,28.18,28.18,0,0,1,.16-7.51A6.59,6.59,0,0,1,285.24,12a4.37,4.37,0,0,1,6.22.3,7.08,7.08,0,0,1,1.33,3A37.59,37.59,0,0,1,293.94,25.37Z"/><path class="about_noutore_header1" d="M228.42,8.45a11.24,11.24,0,0,1,5,1.43,3.84,3.84,0,0,1,1.86,1.87,4.09,4.09,0,0,1-.48,3.07,16.82,16.82,0,0,1-5.3,6.27c3.42.31,6.07,3.85,5.78,7.27a8.37,8.37,0,0,1-6.51,7.09l2.34,5.64c3.33-1.45,7.31-1.59,10.06-4A9,9,0,0,0,244,29.87a12.71,12.71,0,0,0-3.1-7.32,1.7,1.7,0,0,1-.44-.75c-.1-.5.28-1,.62-1.34a17.53,17.53,0,0,0,4.37-7.67,9,9,0,0,0-2.06-8.3c-1.9-1.88-4.66-2.54-7.27-3.11h0c-1.56-.34-6.58-2.13-7.34-1C228.37,1,228.55,8.45,228.42,8.45Z"/><path class="about_noutore_header2" d="M37.62,19.14l8.13-1.54a3.48,3.48,0,0,0,.83-.26c.09,0,.42-.18.46-.3.08-.34-.73-.18-.86-.16L38,18.42a4,4,0,0,0-.83.25c-.08,0-.42.19-.45.31-.08.34.73.18.86.16Z"/><path class="about_noutore_header2" d="M40.77,18.79,42.06,30.9c.1,1,2.28.47,2.17-.58L43,18.21c-.11-1-2.29-.47-2.18.58Z"/><path class="about_noutore_header2" d="M38.72,25.71l6.19-1.4c.38-.09,1-.46.91-.95s-.89-.44-1.26-.36l-6.19,1.4c-.38.09-1,.46-.91,1s.89.44,1.26.36Z"/><path class="about_noutore_header2" d="M39.07,31.9l6.21-1.32c.33-.07,1-.41.93-.85s-.92-.35-1.24-.28l-6.21,1.32c-.33.07-1,.41-.93.86s.92.34,1.24.27Z"/><path class="about_noutore_header2" d="M50.33,14.35a25.33,25.33,0,0,0,1.34,9.38c.27.79,2.43.18,2.17-.58a24.65,24.65,0,0,1-1.33-9c0-.49-.57-.55-.95-.51s-1.21.29-1.23.76Z"/><path class="about_noutore_header2" d="M53,14.39a17.11,17.11,0,0,1,5.51-2.52l-1.18,0a41.27,41.27,0,0,1,.32,10.82c0,.29,2.11.08,2.17-.58a41.27,41.27,0,0,0-.31-10.82c-.06-.34-1.05-.09-1.18-.06a21.61,21.61,0,0,0-7,3.14c-.34.23-.28.45.13.48A2.6,2.6,0,0,0,53,14.39Z"/><path class="about_noutore_header2" d="M52,17.69a35.44,35.44,0,0,0,7.31-2.43c.35-.16.87-.61.54-1S58.8,14,58.4,14.13a31.08,31.08,0,0,1-6.75,2.23c-.38.08-1,.47-.9,1s.88.45,1.26.37Z"/><path class="about_noutore_header2" d="M52.6,21.14l6-1.8c.38-.12,1-.45.91-1s-.9-.48-1.26-.37l-6,1.81c-.38.11-1,.45-.91.95s.9.48,1.26.37Z"/><path class="about_noutore_header2" d="M53,24.62,58.55,23c.43-.12,1-.5.89-1s-.87-.57-1.29-.45l-5.56,1.6c-.43.13-1,.51-.89,1s.87.57,1.29.45Z"/><path class="about_noutore_header2" d="M53.42,25.53l-4,5.6c-.31.42.25.69.6.7a1.76,1.76,0,0,0,1.43-.61l4-5.61c.3-.42-.25-.68-.6-.69a1.72,1.72,0,0,0-1.43.61Z"/><path class="about_noutore_header2" d="M70.17,16a38.5,38.5,0,0,0-3.43,5.22c-.08.15-.14.28,0,.42a.86.86,0,0,0,.58.17,2.05,2.05,0,0,0,.85-.17,1.24,1.24,0,0,0,.59-.41A37.64,37.64,0,0,1,72.19,16c.31-.4-.27-.6-.58-.59a1.93,1.93,0,0,0-1.44.58Z"/><path class="about_noutore_header2" d="M72.69,18.69c-1.44,2.13-2.8,4.32-4.08,6.55-.25.45.23.75.63.77a1.58,1.58,0,0,0,1.42-.63q1.92-3.35,4.08-6.55c.3-.43-.25-.75-.62-.77a1.67,1.67,0,0,0-1.43.63Z"/><path class="about_noutore_header2" d="M71.34,22.44A41.6,41.6,0,0,0,72.91,35c.13.44,2.3-.16,2.18-.58a41.3,41.3,0,0,1-1.58-12.56c0-.26-2.15,0-2.17.58Z"/><path class="about_noutore_header2" d="M76.72,15l.59,6.23c0,.18.29.29.42.33a1.75,1.75,0,0,0,.82,0c.39-.12,1-.38.93-.87l-.58-6.24c0-.18-.3-.29-.43-.32a1.71,1.71,0,0,0-.81,0c-.4.11-1,.37-.94.87Z"/><path class="about_noutore_header2" d="M78.75,25.59a28.2,28.2,0,0,1,6.49-1.3l-.85-.59a39.65,39.65,0,0,1-5.7,8c-.36.39.3.6.58.61a1.9,1.9,0,0,0,1.44-.59,38.68,38.68,0,0,0,5.69-8c.31-.58-.47-.62-.85-.59a30.56,30.56,0,0,0-7.08,1.42c-.31.1-1,.36-.94.81s1,.32,1.22.23Z"/><path class="about_noutore_header2" d="M78.3,28.7a41.63,41.63,0,0,0,9.81,3.46,2.68,2.68,0,0,0,1.52-.28c.18-.09.75-.42.28-.53A40.57,40.57,0,0,1,80.35,28a2,2,0,0,0-1.39.14c-.09,0-1,.42-.66.58Z"/><path class="about_noutore_header2" d="M108.76,29.84c-1.35.09-2.39-1.2-3.12-2.18-1-1.31-1.83-2.71-2.67-4.1s-1.61-2.83-2.3-4.3a4.75,4.75,0,0,1-.59-3.38,2.44,2.44,0,0,1,.28-.49l-.36.09.14,0c.1.08.28.13.39.21a2.14,2.14,0,0,1,.85,1.84c-.1,1.58-1.42,2.73-2.41,3.81a5.58,5.58,0,0,0-1.76,3.39,2.53,2.53,0,0,0,1.71,2.68,6.14,6.14,0,0,0,4.46-.73,13.74,13.74,0,0,0,3.9-3c.35-.39-.3-.55-.57-.55a2,2,0,0,0-1.44.57,9.12,9.12,0,0,1-3.74,2.7c-1.5.46-2.31-1.07-2.12-2.36.44-2.92,4.76-4.32,4.11-7.61-.55-2.74-5-2.7-5.66-.08a5.47,5.47,0,0,0,.64,3.49,48.28,48.28,0,0,0,2.44,4.54,41,41,0,0,0,3,4.56,4.69,4.69,0,0,0,3.92,2c.45,0,1.18-.14,1.44-.57s-.21-.57-.57-.55Z"/><path class="about_noutore_header2" d="M114.7,16.09l17.11-1.46c.41,0,1.16-.3,1.21-.8s-.59-.61-1-.57L115,14.72c-.42,0-1.17.3-1.22.79s.59.61,1,.58Z"/><path class="about_noutore_header2" d="M114.9,29.54,132.23,26c.38-.08,1.05-.46.92-.93s-.9-.42-1.26-.34l-17.33,3.55c-.37.08-1,.46-.92.93s.9.41,1.26.34Z"/><path class="about_noutore_header2" d="M123,21.33l1.44,15.44c.09,1,2.27.44,2.18-.59l-1.45-15.43c-.09-1-2.27-.44-2.17.58Z"/><path class="about_noutore_header2" d="M136.16,19a80.78,80.78,0,0,0,14.67-2.33c.42-.11,1-.5.9-1s-.89-.53-1.28-.43a77.17,77.17,0,0,1-14.08,2.23c-.46,0-1.14.33-1.2.86s.58.71,1,.68Z"/><path class="about_noutore_header2" d="M138.61,24.32l11.87-2.57c.42-.09,1-.5.89-1s-.88-.5-1.28-.42L138.23,22.9c-.42.09-1,.5-.89,1s.88.51,1.27.42Z"/><path class="about_noutore_header2" d="M138.63,27.11l11-2.21c.32-.07,1.16-.22,1.27-.61s-.72-.27-.88-.24l-11,2.21c-.32.07-1.16.22-1.27.61s.72.27.88.24Z"/><path class="about_noutore_header2" d="M138.55,30.58q6-.66,11.89-1.84c.38-.07,1.15-.24,1.24-.72s-.65-.48-.93-.42c-3.94.78-7.9,1.4-11.89,1.83-.38.05-1.16.27-1.24.72s.65.46.93.43Z"/><path class="about_noutore_header2" d="M143.46,22.53a84.08,84.08,0,0,0,.75,13.64c.08.59,2.27.12,2.17-.58a85.28,85.28,0,0,1-.75-13.65c0-.5-2.16-.16-2.17.59Z"/><path class="about_noutore_header2" d="M143.8,29.48l-5.66,6.42a.66.66,0,0,0,.29,1.08,1.48,1.48,0,0,0,1.54-.41l5.66-6.41a.66.66,0,0,0-.3-1.09,1.46,1.46,0,0,0-1.53.41Z"/><path class="about_noutore_header2" d="M144,30.24a15.79,15.79,0,0,0,7.65,4.14,2.44,2.44,0,0,0,1.52-.27c.18-.09.75-.47.26-.58a15.24,15.24,0,0,1-7.38-4c-.11-.1-.44-.08-.56-.07a3.4,3.4,0,0,0-.84.18c-.18.07-.93.36-.65.64Z"/><path class="about_noutore_header2" d="M157.54,23a35.94,35.94,0,0,0,11.19,2.15,1.8,1.8,0,0,0,1.43-.58c.27-.43-.22-.57-.57-.58a33,33,0,0,1-10.31-2,1.88,1.88,0,0,0-1.53.22c-.25.14-.7.61-.21.79Z"/><path class="about_noutore_header2" d="M164.51,17.32a52.39,52.39,0,0,1-7,15.72c-.22.35.79.26.88.24a1.92,1.92,0,0,0,1.27-.61,52.39,52.39,0,0,0,7-15.72c.12-.5-2-.2-2.15.37Z"/><path class="about_noutore_header2" d="M173.5,19.81l2.12,2.89a1.23,1.23,0,0,0,1.48.17c.39-.2.84-.68.51-1.13l-2.12-2.9a1.24,1.24,0,0,0-1.48-.17c-.38.21-.84.68-.51,1.14Z"/><path class="about_noutore_header2" d="M174.76,31.19a18.18,18.18,0,0,0,8.93-5.88c.33-.4-.28-.6-.58-.61a1.92,1.92,0,0,0-1.44.59,15.14,15.14,0,0,1-3.28,3,14.86,14.86,0,0,1-3.91,1.86c-.31.09-1,.36-.95.81s1,.3,1.23.22Z"/><path class="about_noutore_header2" d="M187.88,19.31c1.26,1.44.42,3.67,0,5.27-.6,2.16-1.25,4.3-1.94,6.44-.17.52,2,.25,2.15-.35q1.11-3.42,2.07-6.89c.47-1.69,1.09-3.76-.21-5.24-.4-.45-2.45.31-2,.77Z"/><path class="about_noutore_header2" d="M193.67,24.21a12.13,12.13,0,0,0,5.5,6.84,1.43,1.43,0,0,0,1.55-.13c.34-.25.6-.85.12-1.12a11,11,0,0,1-5-6.18c-.16-.5-.84-.58-1.28-.45s-1.06.51-.89,1Z"/><path class="about_noutore_header2" d="M196.55,14.88,197.81,20c.11.45.92.34,1.23.25s1.05-.38.94-.83l-1.25-5.07c-.11-.44-.93-.33-1.23-.24s-1.06.37-.95.82Z"/><path class="about_noutore_header2" d="M201.8,14.92l.71,4.66c0,.16.3.22.41.23a2,2,0,0,0,.8-.07c.29-.08,1-.32,1-.74L204,14.34c0-.16-.29-.22-.4-.24a2.19,2.19,0,0,0-.81.08c-.29.08-1,.31-1,.74Z"/><path class="about_noutore_header2" d="M224.85,2.61a39.49,39.49,0,0,1-.17,8.06.34.34,0,0,0,.22.38c2.52,1,6.94.76,8.09,3.81.6,1.58-.47,3.35-1.33,4.61a12.34,12.34,0,0,1-3.45,3.38c-.3.2-.65.59-.2.84,2.72,1.48,6.06,3.41,6.17,6.92s-4.63,5.82-7.58,6.52c-.35.09-1,.37-.94.83l.61,4.48c0,.26.47.32.66.31,5.26-.06,11.1-2,14.52-6.22,3.12-3.81,2-10.22-1.67-13.37l-.14.6c4.31-3.85,6.26-11.45,3-16.51C239.23,2,231.92,1.7,226.3,1.82c-.41,0-1.26.14-1.44.59s.14.64.59.63c5.16-.11,11.65,0,15,4.73a10.67,10.67,0,0,1,1.19,9,12.71,12.71,0,0,1-3.69,6.68c-.15.14-.35.42-.14.6,3,2.56,4.51,8.12,2.33,11.58-2.52,4-7.79,5.89-12.31,5.95l.66.31-.61-4.47-.94.82a17.06,17.06,0,0,0,5.86-2.6c1.51-1.06,3.13-2.44,3.52-4.34.88-4.25-3.38-6.91-6.52-8.61l-.2.84a14.7,14.7,0,0,0,3.79-3.5c1-1.35,2.22-3.3,2-5-.53-4-6-3.79-8.7-4.93l.22.38A41.06,41.06,0,0,0,227,2c-.05-.69-2.24-.24-2.18.59Z"/><path class="about_noutore_header2" d="M289.76,35.43c-3,.9-5.72.22-8.45-1.13a5.13,5.13,0,0,1-2.71-3.14,15.64,15.64,0,0,1-.89-3.94,54.32,54.32,0,0,1,.11-8.46c.17-3.06.32-6.15.66-9.19a5.89,5.89,0,0,1,1.14-3.41c.93-1,2.5-1,3.75-1.06,2.44-.2,5.1-.35,7.39.68,2.44,1.1,3.54,3.46,4,6a49.09,49.09,0,0,1,.55,8.39,33,33,0,0,1-1.24,9.93c-.47,1.53-1,3.11-2.34,4.07-.72.51-1.48,1-2.23,1.4-1.25.75-.11,2,1,1.36.79-.47,1.57-1,2.34-1.46a6.9,6.9,0,0,0,2.74-3.4,29.38,29.38,0,0,0,1.92-10.24A57.45,57.45,0,0,0,297,11.73c-.42-2.85-1.58-5.58-4.18-7s-5.69-1.5-8.55-1.31c-2.71.19-5.78.41-7.18,3.12a9.74,9.74,0,0,0-.86,3.57c-.2,2-.33,4.11-.46,6.17a81.11,81.11,0,0,0-.33,10.57c.21,3,.91,7.08,3.84,8.63,3.45,1.82,7.07,2.73,10.9,1.58C291.52,36.6,291.11,35,289.76,35.43Z"/><path class="about_noutore_header2" d="M289.13,28.24c-2.58.85-5.94.43-6.4-2.74a34.22,34.22,0,0,1-.16-5c0-1.68.05-3.37.14-5q.06-1.22.15-2.43c.06-.78.06-1.42.86-1.73,1.45-.57,2.84-.72,4,.47a7,7,0,0,1,1.64,3.94c.23,1.54.35,3.1.45,4.65a27.33,27.33,0,0,1-.17,5.79,3.13,3.13,0,0,1-.58,1.79c-.21.24-.44.45-.66.67a.54.54,0,0,0,.25.94,1.63,1.63,0,0,0,1.54-.41,4.48,4.48,0,0,0,1.56-2.64,30.22,30.22,0,0,0,.27-6.16,37.93,37.93,0,0,0-.67-6.19A6.31,6.31,0,0,0,288.7,10a5.91,5.91,0,0,0-4.92-.18,6.15,6.15,0,0,0-2.13,1,3.14,3.14,0,0,0-1,2.44q-.24,3.17-.28,6.35a50.43,50.43,0,0,0,.13,6.15c.47,4.39,5.52,4.95,9,3.8.38-.12,1-.44.91-1S289.5,28.12,289.13,28.24Z"/><path class="about_noutore_header2" d="M302.42,32.86l3,2.29a1.18,1.18,0,0,0,.74.14A1.65,1.65,0,0,0,307,35a.84.84,0,0,0,.39-.55.5.5,0,0,0-.25-.49l-3-2.3a1.2,1.2,0,0,0-.74-.14,1.74,1.74,0,0,0-.82.3.85.85,0,0,0-.39.54.57.57,0,0,0,.25.5Z"/><path class="about_noutore_header2" d="M305.85,35.22a31.77,31.77,0,0,0,.41,6.08c.09.55.91.54,1.29.47l2.86-.57,1.46-.29a4.42,4.42,0,0,0,1.27-.38,1.55,1.55,0,0,0,.89-1.32,11.38,11.38,0,0,0-.14-1.42l-.33-2.91c0-.44-.67-.52-1-.52l-5.52,0c-.47,0-1.14.37-1.19.89s.57.73,1,.73l5.52,0-1-.52.28,2.51c.05.41.09.81.14,1.22,0,.09,0,.34,0,.34s.27-.26.28-.27c-.16.12.19,0,0,0-.79.13-1.58.32-2.37.48l-2.57.51,1.29.47a29.76,29.76,0,0,1-.37-5.66c0-.53-.54-.77-1-.73s-1.18.34-1.2.89Z"/><path class="about_noutore_header2" d="M323.25,21.23l6.62-.3a2.25,2.25,0,0,0,1.45-.53c.34-.36-.3-.4-.53-.39l-6.62.29a2.31,2.31,0,0,0-1.45.53c-.34.37.3.41.53.4Z"/><path class="about_noutore_header2" d="M326.3,21.74v10.6c0,.48.56.53.94.48s1.23-.29,1.23-.74v-1c0-.48-.56-.52-.94-.47s-1.23.28-1.23.74v1l2.17-.26V21.47c0-.48-.56-.52-.94-.48s-1.23.29-1.23.75Z"/><path class="about_noutore_header2" d="M328.56,28.42a6.46,6.46,0,0,1,.6-.27s.35-.14.21-.09.19-.06.22-.07a10.19,10.19,0,0,1,1.23-.35l.32-.07s.35-.07.08,0l.65-.08a9.87,9.87,0,0,1,1.33-.06c.46,0,1.17-.39,1.19-.91s-.54-.76-1-.76a13.24,13.24,0,0,0-5.8,1.32c-.39.19-.84.74-.5,1.17a1.25,1.25,0,0,0,1.49.19Z"/><path class="about_noutore_header2" d="M323.56,33.11a45.79,45.79,0,0,1,11.26,1,1.73,1.73,0,0,0,1.54-.41c.31-.33.25-.78-.24-.88a49.83,49.83,0,0,0-12.3-1.09c-.42,0-1.15.31-1.22.79s.61.57,1,.56Z"/><path class="about_noutore_header2" d="M334.54,17.76c1.22-.34,2.45-.66,3.69-.93.62-.14,1.24-.27,1.87-.39l.93-.18.47-.08.21,0c0-.07-.23-.15-.28-.1s0,.31,0,.37l0,1c0,.64-.09,1.28-.16,1.92s-.17,1.27-.28,1.91a2.33,2.33,0,0,1-.11.46l-.1.12c.06-.05.06-.05,0,0s-.05.05.05,0a.94.94,0,0,1,1.05.24,1,1,0,0,0-1.3-.5c-.37.1-1.1.58-.87,1.08.64,1.4,2.43.68,3.08-.33a4.76,4.76,0,0,0,.52-1.9c.11-.69.19-1.38.25-2.07s.09-1.34.1-2-.07-1.4-.81-1.69a3.94,3.94,0,0,0-2.15.07c-.67.12-1.35.25-2,.4-1.53.32-3,.69-4.54,1.12-.45.12-1,.54-.88,1.08s.86.63,1.3.5Z"/><path class="about_noutore_header2" d="M335.51,25.05V29a.38.38,0,0,0,.23.41,1.27,1.27,0,0,0,.72.09,2,2,0,0,0,.82-.28c.14-.1.41-.28.41-.47V27.37a.4.4,0,0,0-.23-.41,1.36,1.36,0,0,0-.72-.08,2,2,0,0,0-.82.28c-.15.1-.41.27-.41.47V29a.38.38,0,0,0,.23.41,1.27,1.27,0,0,0,.72.09,2,2,0,0,0,.82-.28c.14-.1.41-.28.41-.47V24.79a.4.4,0,0,0-.23-.41,1.36,1.36,0,0,0-.72-.08,2,2,0,0,0-.82.28c-.15.1-.41.27-.41.47Z"/><path class="about_noutore_header2" d="M352.24,16.48a12.5,12.5,0,0,0,4.24,4.77,1.23,1.23,0,0,0,.73.09,1.87,1.87,0,0,0,.82-.28c.34-.23.6-.61.17-.9a11.69,11.69,0,0,1-2.15-1.88,11.5,11.5,0,0,1-1.64-2.38c-.22-.43-.83-.41-1.24-.29a1.57,1.57,0,0,0-.72.38c-.11.11-.3.32-.21.49Z"/><path class="about_noutore_header2" d="M349.89,26.33a25,25,0,0,0,7.37-.31l-.81-.41a105.9,105.9,0,0,0-8,9.52c-.52.71,1.41.27,1.64.15l2.48-1.35,1.19-.65c.07,0,.55-.24.59-.33-.48,0-.61,0-.4.09a.72.72,0,0,1,.21.12c1.22.87.61,2.81,1.63,3.85s2.76.82,4,.39a7.38,7.38,0,0,0,3.49-3c.28-.38-.24-.45-.53-.44a2.19,2.19,0,0,0-1.45.54,10.64,10.64,0,0,1-1.44,1.76c-.37.35-.66.59-1.17.47-1.58-.36-1.26-2.23-1.77-3.38-.63-1.44-2.09-1.5-3.4-1a25.46,25.46,0,0,0-2.31,1.22l-2.38,1.3,1.64.14a105.78,105.78,0,0,1,8-9.53c.44-.46-.62-.44-.81-.41a20.81,20.81,0,0,1-6.35.26,2.33,2.33,0,0,0-1.54.42c-.33.25-.3.51.15.56Z"/><path class="about_noutore_header2" d="M376.27,12.15q-1.41,7.2-3.13,14.34c-.26,1.06,2,.81,2.2-.16q1.73-7.14,3.14-14.34c.21-1.09-2-.82-2.21.16Z"/><path class="about_noutore_header2" d="M373.36,34.35a1.56,1.56,0,0,1-.25-.38l.09.2a2.2,2.2,0,0,1-.16-.61l0,.22a1.75,1.75,0,0,1,0-.46l-.89.86.09,0-.3.05h-.16l.14,0-.26-.06a.44.44,0,0,1,.16.06l-.21-.12.18.14-.16-.16a1.19,1.19,0,0,1,.22.33l-.09-.2a1.3,1.3,0,0,1,.11.43l0-.22a1,1,0,0,1,0,.34l.06-.22a1.15,1.15,0,0,1-.14.32l.13-.21a1.68,1.68,0,0,1-.24.29l.19-.18a2.38,2.38,0,0,1-.4.31l.24-.15a6,6,0,0,1-1,.47l1.32,0a.92.92,0,0,1-.22-.17l.16.16a1.55,1.55,0,0,1-.24-.33l.1.2a1.61,1.61,0,0,1-.14-.52l0,.22a1.67,1.67,0,0,1,0-.5l-.06.21a2.07,2.07,0,0,1,.15-.34l-.12.21a.92.92,0,0,1,.17-.22l-.19.18.18-.14-.24.15a1.24,1.24,0,0,1,.2-.1l-.28.11a.84.84,0,0,1,.24-.07l-.3,0a1.32,1.32,0,0,1,.28,0h-.28a1.77,1.77,0,0,1,.32.05l-.26-.07a1.62,1.62,0,0,1,.33.13l-.21-.12a1.59,1.59,0,0,1,.33.25l-.16-.16a1.24,1.24,0,0,1,.23.32l-.09-.2a1.08,1.08,0,0,1,.1.35l0-.22a1.53,1.53,0,0,1,0,.3l.06-.22a.84.84,0,0,1-.13.27l.13-.2a1.12,1.12,0,0,1-.19.24l.18-.18a1.55,1.55,0,0,1-.24.19l.24-.15a1.15,1.15,0,0,1-.25.12l.28-.1-.21.06.3,0h.08l-.15,0,.25.06-.15-.06.21.12-.14-.11.16.16a.44.44,0,0,1-.12-.15.94.94,0,0,0-.63-.34,1.4,1.4,0,0,0-.85.15c-.44.23-.8.69-.5,1.18a1.83,1.83,0,0,0,2,.61,2.66,2.66,0,0,0,1.68-1.25,1.61,1.61,0,0,0-.08-1.7,2.37,2.37,0,0,0-1.66-.94,2.71,2.71,0,0,0-2.32.84,2.17,2.17,0,0,0-.48,1.8,2.07,2.07,0,0,0,.33.78,2.47,2.47,0,0,0,.35.37l.13.09a1.16,1.16,0,0,0,.49.2,1.8,1.8,0,0,0,.86-.14,5,5,0,0,0,1.63-.93,2.74,2.74,0,0,0,.49-.58,2,2,0,0,0,.26-.64,1.59,1.59,0,0,0-.07-.94,1.8,1.8,0,0,0-.64-.85,2,2,0,0,0-1.6-.23,1.19,1.19,0,0,0-.89.87,2.37,2.37,0,0,0,.49,1.88,1.24,1.24,0,0,0,1.49.19,1.11,1.11,0,0,0,.55-.54.64.64,0,0,0-.05-.64Z"/><path class="about_noutore_header2" d="M116.42,19.83a10.63,10.63,0,0,1-.53,2.49c-.06.19-.13.38-.2.57s0,.09,0,0l-.06.13a2.4,2.4,0,0,1-.11.23c-.09.16-.19.31-.29.46s-.06.07,0,0l-.1.1-.21.19a.45.45,0,0,0,.22.84,1.87,1.87,0,0,0,1.54-.41A4.84,4.84,0,0,0,118,22.23a11.29,11.29,0,0,0,.58-2.65c.05-.49-.59-.57-.95-.52a2,2,0,0,0-.82.28c-.16.12-.39.28-.41.49Z"/><path class="about_noutore_header2" d="M116.46,22.66a5.61,5.61,0,0,0,3,1.6,1.85,1.85,0,0,0,.81-.05,2,2,0,0,0,.73-.36c.11-.1.29-.27.22-.44a.47.47,0,0,0-.41-.27l-.38-.1.2.06a5.25,5.25,0,0,1-1.32-.6l.14.09a5.17,5.17,0,0,1-.92-.76.86.86,0,0,0-.58-.17,2.05,2.05,0,0,0-.85.17,1.24,1.24,0,0,0-.59.41.32.32,0,0,0,0,.42Z"/><path class="about_noutore_header2" d="M127.54,19l.08.09c0-.07,0-.07,0,0a2.17,2.17,0,0,1,.07.24l0,.24v.15a4.63,4.63,0,0,1-.12,1.05,4.13,4.13,0,0,1-.15.5c0-.15,0,.1-.06.13a2.56,2.56,0,0,1-.11.24,4.12,4.12,0,0,1-.27.45c0,.07-.09.15-.15.22l-.07.08a.57.57,0,0,0-.2.53.61.61,0,0,0,.44.37,1.68,1.68,0,0,0,1.53-.41,5.4,5.4,0,0,0,1.22-2.33,4.46,4.46,0,0,0,.13-1.15,1.93,1.93,0,0,0-.35-1.3c-.33-.39-1.06-.28-1.46-.09s-.89.58-.55,1Z"/><path class="about_noutore_header2" d="M128.18,21a5.43,5.43,0,0,0,3.38,2.25,1.75,1.75,0,0,0,.82,0,1.48,1.48,0,0,0,.72-.4.51.51,0,0,0-.25-.92,4.79,4.79,0,0,1-.89-.27l.2.09a5,5,0,0,1-1.23-.75l.15.12a4.82,4.82,0,0,1-.9-1,.84.84,0,0,0-.6-.25,1.77,1.77,0,0,0-.85.16c-.37.18-.84.56-.55,1Z"/><path class="about_noutore_header2" d="M121.75,9.69l.37,5.17c0,.17.3.26.41.28a1.84,1.84,0,0,0,.81-.06c.36-.1,1-.33,1-.8l-.37-5.18c0-.16-.3-.25-.42-.27a1.8,1.8,0,0,0-.8.06c-.36.1-1,.33-1,.8Z"/><path class="about_noutore_header2" d="M138.24,20.22a6.18,6.18,0,0,0,.83,1.37,5.81,5.81,0,0,0,1.17,1.1,1.17,1.17,0,0,0,.73.14,1.84,1.84,0,0,0,.82-.29.87.87,0,0,0,.4-.54.54.54,0,0,0-.25-.49c-.12-.08-.23-.17-.34-.26l.16.13a5.59,5.59,0,0,1-1.29-1.62l.08.16-.13-.28a.41.41,0,0,0-.17-.24.48.48,0,0,0-.28-.15,1.68,1.68,0,0,0-1.54.41c-.11.14-.27.37-.19.56Z"/><path class="about_noutore_header2" d="M148,18.33c0,.13,0,.25-.05.38l0-.1A5.92,5.92,0,0,1,147,21c-.08.12.1.2.18.22a1.79,1.79,0,0,0,.69,0,3.45,3.45,0,0,0,.83-.25,1.11,1.11,0,0,0,.44-.33,5.94,5.94,0,0,0,1-2.82c0-.13-.34-.14-.37-.15a2.72,2.72,0,0,0-.8.12,2.5,2.5,0,0,0-.74.3c-.12.08-.24.15-.26.31Z"/><path class="about_noutore_header2" d="M140.92,13c.16.83.29,1.65.38,2.49,0,.4.08.8.1,1.2,0,.22,0,.44,0,.65a1,1,0,0,0,.14.64c.41.48,1.26.19,1.7-.05h0c.14-.08.4-.34.4-.52v0c0-.4-.33-.55-.69-.59h0a1.55,1.55,0,0,0-1.43.63c-.23.47.21.72.63.77h0l-.7-.59v0l.4-.51h0l1.69,0c0,.17.06.19,0,.05a1.77,1.77,0,0,1,0-.23c0-.11,0-.22,0-.33l0-.55c0-.41-.06-.81-.11-1.21-.09-.8-.21-1.6-.36-2.39,0-.19-.28-.32-.44-.37a1.63,1.63,0,0,0-.82,0c-.39.12-1,.43-.92.93Z"/><path class="about_noutore_header2" d="M144.38,12.24c.09.85.16,1.69.2,2.54,0,.42,0,.85.06,1.27a3.45,3.45,0,0,0,.11,1.2c.14.37.93.18,1.19.11a2.47,2.47,0,0,0,.74-.33c.09-.06.3-.22.24-.36a3.45,3.45,0,0,1-.11-1.2c0-.42,0-.85-.05-1.27,0-.85-.12-1.7-.21-2.54,0-.14-.3-.18-.39-.19a2.19,2.19,0,0,0-.8.09c-.27.08-1,.28-1,.68Z"/><path class="about_noutore_header2" d="M136.91,14.25a2.82,2.82,0,0,0,.62.87,2.73,2.73,0,0,0,.94.57.8.8,0,0,0,.31,0,1.7,1.7,0,0,0,.39,0,2.09,2.09,0,0,0,.43-.11,1.68,1.68,0,0,0,.39-.16l.21-.12a.72.72,0,0,0,.23-.26v-.12a.25.25,0,0,0-.2-.17l-.24-.11.13.07a2.33,2.33,0,0,1-.89-.79l.07.1a2.71,2.71,0,0,1-.21-.37.48.48,0,0,0-.4-.21,1.53,1.53,0,0,0-.37,0,2,2,0,0,0-.43.07,2.47,2.47,0,0,0-.74.33L137,14a.27.27,0,0,0-.1.25Z"/><path class="about_noutore_header2" d="M148.8,11.91a4.55,4.55,0,0,1-.43,1.4l.08-.15a4.45,4.45,0,0,1-.56.87.31.31,0,0,0,0,.43.78.78,0,0,0,.58.18,1.89,1.89,0,0,0,1.44-.58A5,5,0,0,0,151,11.63c.07-.47-.62-.49-.93-.44a2,2,0,0,0-.82.28c-.16.09-.39.24-.42.44Z"/><path class="about_noutore_header2" d="M56.38,23.39c0,1.14,0,2.28.08,3.42,0,.57.06,1.14.1,1.71a2.06,2.06,0,0,0,.4,1.37,2.22,2.22,0,0,0,1.38.52,9.12,9.12,0,0,0,1.81-.09,35.48,35.48,0,0,0,3.54-.64c.26-.06,1-.32,1-.71l-.26-1.31c-.08-.38-1-.19-1.2-.12s-1.05.3-1,.7l.25,1.32,1-.71c-.43.09-.84.18-1.36.27s-.93.15-1.4.21a3.23,3.23,0,0,1-1.16.06.84.84,0,0,1-.71-.61,6.9,6.9,0,0,1-.14-1.36c0-.51-.06-1-.09-1.52q-.06-1.54-.06-3.09c0-.47-2.16-.13-2.17.58Z"/><path class="about_noutore_header2" d="M78.69,15.55a40.05,40.05,0,0,1,4.68-1.42l-1.2-.28a13.85,13.85,0,0,0-.24,3.46,1.91,1.91,0,0,0,1.52,2,8.89,8.89,0,0,0,3.49-.45c.49-.11,1.34-.33,1.44-.93a3,3,0,0,0-.09-.88l-.15-1c-.09-.59-2.28-.11-2.17.58l.13.88c0,.14.19.69.1.78l.59-.37c.2-.1-.21,0-.26.05l-.58.12a5.82,5.82,0,0,1-.79.16.91.91,0,0,1-.92-.76,5.33,5.33,0,0,1-.15-1.69,13.35,13.35,0,0,1,.24-2.27c.1-.54-1-.34-1.2-.28a45.3,45.3,0,0,0-5.24,1.61c-.25.09-.9.41-.62.75s1.13.06,1.42,0Z"/><path class="about_noutore_header2" d="M206.59,25.21a106.66,106.66,0,0,1,11.86-.11l1.4-.92-.42,0a2.59,2.59,0,0,0-1.54.41c-.31.23-.32.5.14.52h.42a2.52,2.52,0,0,0,1.54-.41c.32-.23.31-.49-.14-.51a107.9,107.9,0,0,0-12.33.11,2.24,2.24,0,0,0-1.46.53c-.29.37.26.41.53.39Z"/><path class="about_noutore_header2" d="M325,11.78c0,2.84.15,5.67.37,8.51,0,.51.95.46,1.26.37.46-.12,1-.43.91-1-.21-2.7-.33-5.42-.35-8.13,0-.52-.53-.66-1-.62s-1.21.32-1.21.83Z"/><path class="about_noutore_header2" d="M302.26,29.12a14.93,14.93,0,0,0,2.36,1.28c.39.16.79.31,1.2.44a4.87,4.87,0,0,1,1.18.31l-.24-.32c.11.35-.2,1-.31,1.33s-.3.79-.47,1.17a15,15,0,0,1-1.29,2.28,19.52,19.52,0,0,1-3.57,3.86c-.34.28-.58.75-.13,1.07a1.46,1.46,0,0,0,1.55-.15,19.81,19.81,0,0,0,5.51-6.85,13.28,13.28,0,0,0,.74-2.06c.22-.76.36-1.48-.56-1.76-.73-.22-1.45-.37-2.16-.66A12.1,12.1,0,0,1,304,27.9c-.75-.51-2.68.54-1.69,1.22Z"/><path class="about_noutore_header2" d="M302.17,28.77a19.76,19.76,0,0,1-2.4,4.85c-.28.41.24.6.57.59a1.86,1.86,0,0,0,1.44-.58,21.17,21.17,0,0,0,2.56-5.15c.15-.45-.69-.46-.93-.42-.42.07-1.09.25-1.24.71Z"/><path class="about_noutore_header2" d="M321.76,26.72c0,2.84,0,6.08-2.12,8.26a.55.55,0,0,0,.26,1,1.6,1.6,0,0,0,1.53-.41c2.32-2.42,2.56-5.83,2.52-9,0-.52-.53-.67-1-.63s-1.22.32-1.21.83Z"/><path class="about_noutore_header2" d="M321.88,17c2.84-.22,5.67-.56,8.48-1,.48-.08,1.14-.31,1.2-.88s-.57-.78-1-.71c-2.82.45-5.64.78-8.48,1-.48,0-1.14.34-1.2.88s.58.74,1,.71Z"/><path class="about_noutore_header2" d="M337,16.35a59.57,59.57,0,0,1-3.65,6.15c-.22.33.79.24.88.23a2,2,0,0,0,1.27-.61A58.45,58.45,0,0,0,339.13,16c.19-.36-.75-.25-.87-.23-.38.08-1.07.22-1.27.61Z"/><path class="about_noutore_header2" d="M337.46,25.69l.2-.06h0l.3-.09.66-.18.31-.08s.35-.07.12,0l.67-.14a17.32,17.32,0,0,1,2.5-.29l-.36-.46a1.28,1.28,0,0,0-.6.9c-.08.4-.13.8-.22,1.2s-.19.8-.31,1.2c-.06.19-.12.39-.19.58s-.09.23-.12.34,0,.17-.05.25l.44-.33,0,0,1.65-.23,0,0,.05.18v0l-1.28.59h0a3.63,3.63,0,0,0,.83-.26c.11,0,.4-.19.44-.33.13-.36-.74-.22-.86-.2h0a3.48,3.48,0,0,0-.83.26c-.12.06-.42.17-.45.33a.21.21,0,0,0,.07.24c.13.14.52.06.68,0a3.58,3.58,0,0,0,1-.27c.28-.13.48-.25.54-.55a3.42,3.42,0,0,1,.18-.54q.21-.61.36-1.23c.1-.4.18-.81.25-1.21a4.5,4.5,0,0,1,.08-.51,1.34,1.34,0,0,1,.09-.26s.1-.15,0-.09c.11-.08.32-.19.22-.35s-.44-.11-.58-.1a25.09,25.09,0,0,0-6.41,1.24c-.15.05-.94.35-.65.6.12.11.42.08.55.06a3.6,3.6,0,0,0,.85-.19Z"/><path class="about_noutore_header2" d="M336,30a30.81,30.81,0,0,1,5.35-.12,1.62,1.62,0,0,0,1.43-.62c.26-.45-.22-.71-.62-.74a37.52,37.52,0,0,0-5.9.14c-.42.05-1.13.29-1.22.79s.63.59,1,.55Z"/><path class="about_noutore_header1" d="M9.07,31.91s-4-3.2-4.8-7.2C3.19,19.31,1.9,15.05,1.38,9.57c3,.64,6.09.74,10.09,2.34,4.61,1.85,7,3.7,10.4,8.8,3.2,4.8,6,12.91,0,15.2A18.36,18.36,0,0,1,9.07,31.91Z"/><path class="about_noutore_header2" d="M23.23,38.38l-.7-2c-.08-.23-.44-.26-.64-.25-3.22.2-6.61.4-9.73-.58a10.81,10.81,0,0,1-6.81-6.36C2.65,22.74,4.45,15.5,2.19,9l-2.1.7C2.45,12.19,5.88,12.92,9,14.1a23.82,23.82,0,0,1,8.13,5.11,18.74,18.74,0,0,1,5,8c.91,3,1.32,7.39-1.52,9.5-.39.29-.21.53.17.64a2.07,2.07,0,0,0,1.53-.41c2.78-2.07,3-5.8,2.34-8.94a18.27,18.27,0,0,0-4.5-8.5,24.24,24.24,0,0,0-8.08-5.76c-3.38-1.51-7.34-2-10-4.83-.36-.39-2.32.07-2.1.69,2.41,7,.16,14.92,3.8,21.54,3.48,6.34,10.8,6.49,17.18,6.1l-.64-.25.7,2c.22.64,2.38,0,2.17-.59Z"/><path class="about_noutore_header2" d="M6.28,17.79l9.73,14c.48.68,2.58-.08,2-.89l-9.73-14c-.48-.68-2.58.08-2,.89Z"/><path class="about_noutore_header2" d="M13.48,19.73l-.69,6.87c-.11,1.1,2.1.8,2.2-.17l.69-6.87c.11-1.1-2.1-.8-2.2.17Z"/><path class="about_noutore_header2" d="M7.68,27.46A53.19,53.19,0,0,1,14.24,30a2,2,0,0,0,1.53-.25c.27-.15.68-.48.24-.68a51.15,51.15,0,0,0-6.57-2.52,2.13,2.13,0,0,0-1.52.24c-.22.12-.73.53-.24.68Z"/><path class="about_noutore_header2" d="M6.12,21.67l3.45.53a1.66,1.66,0,0,0,.85-.16,1.21,1.21,0,0,0,.57-.48A.47.47,0,0,0,11,21a.92.92,0,0,0-.61-.26l-3.45-.52a1.72,1.72,0,0,0-.86.16,1.17,1.17,0,0,0-.56.47.48.48,0,0,0,0,.54,1,1,0,0,0,.61.25Z"/><path class="about_noutore_header1" d="M403.07,32.71s4-3.2,4.8-7.2c1.08-5.4,2.36-9.66,2.88-15.14-3,.64-6.08.74-10.08,2.34-4.62,1.85-7,3.7-10.4,8.8-3.2,4.8-6,12.91,0,15.2A18.36,18.36,0,0,0,403.07,32.71Z"/><path class="about_noutore_header2" d="M391.06,39.29l.7-2-1.77.65c6.4.39,14.12.22,17.94-5.86,4.17-6.65,1.7-15,4.17-22.18.2-.57-1.84,0-2.06.26-2.54,2.72-6.48,3.22-9.75,4.68a24.91,24.91,0,0,0-8.17,5.78,18.43,18.43,0,0,0-4.61,8.46c-.67,3.05-.62,6.86,2.12,8.9.49.37,2.39-.49,2.05-.75-2.85-2.11-2.67-6.31-1.81-9.38a18.46,18.46,0,0,1,5-8.15,23.15,23.15,0,0,1,8.52-5.25c3.07-1.08,6.36-2,8.66-4.44l-2.06.26c-2.19,6.31-.59,13.23-2.89,19.51A10.51,10.51,0,0,1,401,36.36c-3,1.1-6.47.83-9.63.63-.43,0-1.6.14-1.78.65l-.7,2c-.14.43,1.95.2,2.15-.37Z"/><path class="about_noutore_header2" d="M403.83,18.07l-9.74,14c-.31.44.27.73.62.76a1.62,1.62,0,0,0,1.43-.62l9.74-14c.3-.44-.27-.73-.63-.76a1.61,1.61,0,0,0-1.42.62Z"/><path class="about_noutore_header2" d="M396.47,20.74l.68,6.86c0,.19.3.3.44.34a1.59,1.59,0,0,0,.81,0c.41-.12,1-.39.93-.89l-.69-6.86c0-.19-.29-.31-.43-.34a1.63,1.63,0,0,0-.82,0c-.4.12-1,.39-.92.89Z"/><path class="about_noutore_header2" d="M403.45,27.35A52.53,52.53,0,0,0,396.6,30c-.22.1-.92.42-.61.75s1.12.1,1.42,0c1-.48,2.11-.94,3.18-1.35s2.09-.77,3.1-1.08c.27-.08,1.06-.32,1-.74s-1-.23-1.21-.16Z"/><path class="about_noutore_header2" d="M405.83,21.39l-3.45.52a3.32,3.32,0,0,0-.83.25c-.12.06-.39.18-.45.32-.15.34.78.19.86.17l3.45-.52a3.45,3.45,0,0,0,.83-.25c.12-.06.39-.18.45-.32.15-.34-.78-.18-.86-.17Z"/><path class="about_noutore_header2" d="M251.54,5q-.73,9-1,18.14c0,.26.8.14.89.13,4-.61,9.41.29,9.87,5.21s-5.21,4.23-8.34,4.85c-.26,0-1.32.27-1.29.71a27.52,27.52,0,0,0,.3,3.86c.27,1.16,1.3,1.22,2.32,1.3a28,28,0,0,0,7-.13c4.54-.77,8.06-3.52,9.21-8.08,1.11-4.37.41-10.25-4-12.53-1.82-.93-3.7-.41-5.55-1-1.32-.42-1.5-1.49-1.45-2.75,0-.71.09-1.43.13-2.14,0-.28,0-.57.06-.86.07-.77-.36-.61.33-.71a47.34,47.34,0,0,1,4.91-.24,11.11,11.11,0,0,0,4.06-.54,2,2,0,0,0,1.27-2.1c0-1.66,0-3.33,0-5,0-.2-.53-.17-.62-.16-5.47.46-10.94.84-16.36,1.76-.25,0-1.24.24-1.27.6s.65.27.88.23c5.24-.88,10.52-1.24,15.81-1.69l-.62-.16,0,3.64a16.26,16.26,0,0,1,0,1.71c-.08.85-.51.73-1.23.76l-3.93.19a17.54,17.54,0,0,0-3.55.28,2.5,2.5,0,0,0-1.65,1,7.87,7.87,0,0,0-.33,3c-.12,2-.15,3.67,2.06,4.17,1.82.41,3.61,0,5.32,1a8.07,8.07,0,0,1,3.63,5.09c1.05,4,.25,9.32-3.05,12.13-2.09,1.77-4.87,1.91-7.48,1.82-1,0-3.32.2-3.69-.94a18.56,18.56,0,0,1-.33-4l-1.29.71c3.62-.71,10.73-.35,10.93-5.63A6.1,6.1,0,0,0,260,23.05c-2.53-1.21-5.45-1-8.14-.63l.89.13q.24-9.09,1-18.15c0-.32-2.12-.08-2.18.59Z"/></g></g></svg>