<svg xmlns="http://www.w3.org/2000/svg" viewBox="0 0 556.97 43.2"><defs><style>.cls-1{fill:#f0908a;}</style></defs><g id="レイヤー_2" data-name="レイヤー 2"><g id="見出し"><path class="cls-1" d="M13.11,6.24s-3.41,0-7.69-.19c-.19,9-.57,27.46-.57,36.48l-3.51.24C.14,29.38,0,.43,0,.43,7.39,0,13.11,0,13.11,0Z"/><path class="cls-1" d="M17.47,41.33S20,32.88,19.53,11.19h6.1v.62H27v-.62h6.05s0,2.06-.33,29.28c-4.61.53-8.45.67-8.45.67V35.86s1.05,0,3.26.1l-.14-6.44H24C21.6,40.23,17.47,41.33,17.47,41.33Zm7-14.16h2.93c0-2-.05-3.74-.1-5.33H25.15Q24.87,24.8,24.43,27.17Zm.91-7.68h1.88c0-2.35-.1-4.08-.15-5.33H25.58C25.54,16.08,25.49,17.86,25.34,19.49ZM38.4,14.93a26.83,26.83,0,0,0-4.27-7.54s5-1.29,9.26,5.43Zm13.06,2.54h5.61s0,2.4-.33,24.87H52.13c0-.53-.05-1.06-.05-1.58H39.74c0,.52,0,1.05,0,1.58H35.09c-.48-20.45-.63-24.87-.63-24.87H40s0,2.12-.29,20.93H52C51.6,21.31,51.46,17.47,51.46,17.47Zm0,1.16a36.79,36.79,0,0,1-2.93,7.1,21.62,21.62,0,0,1,2.93,3.46l-3.79,2.69a26,26,0,0,0-1.49-2.65c-3.27,4.13-6.34,5-6.34,5a39.61,39.61,0,0,0,4.37-7.73A32.83,32.83,0,0,0,40.13,22a10.64,10.64,0,0,1,5.33,1.53,57.56,57.56,0,0,0,2.3-8Zm-1.83-7L44.5,13.39a26.41,26.41,0,0,0-3.75-7.77S45.84,4.61,49.63,11.62Zm3.7-7.4,5.28,1.4c-2.83,8.3-10.08,8.45-10.08,8.45A23.62,23.62,0,0,0,53.33,4.22Z"/><path class="cls-1" d="M76.22,39.22H70.85c-.67-13-.87-29.09-.87-29.09H76.7S76.7,25,76.22,39.22Zm10.23-9.65c-8.5,0-8.93-8.83-8.93-8.83a17.74,17.74,0,0,0,8.93,2.11Z"/><path class="cls-1" d="M117.07,25.11s-1,10.41-13.44,14.11H98.21c-.67-13-.87-28.23-.87-28.23h6.72s0,9.89-.24,21.51A21.2,21.2,0,0,0,117.07,25.11Z"/><path class="cls-1" d="M137.57,42.77c-7.4.43-13.11.43-13.11.43V37s3.41,0,7.68.15c.19-9,.58-27.46.58-36.49l3.5-.24C137.42,13.87,137.57,42.77,137.57,42.77Z"/><path class="cls-1" d="M154,36.44s6.63-4.71,8.07-16L168.62,22C165.7,37.4,154,36.44,154,36.44Zm27.27-20.5v1.92h-5.91c-.24,6-.53,14.45-.53,21.36h-4.17c-.82-7.44-1.25-15.6-1.44-21.36H157.2V15.94h12L169,10.13h6.72s-.15,2.3-.29,5.81h2L179.38,14Z"/><path class="cls-1" d="M201.6,19.06s-4.56-2.55-8.35-2.59l0-5C202,12,201.6,19.06,201.6,19.06Zm14.88-.91s4.32,12.57-21.75,20.06l-1.48-6.53C211.87,26.55,216.48,18.15,216.48,18.15Z"/><path class="cls-1" d="M227.18,16.47s3.94,0,19.25.33c0,24-17.62,22.42-17.62,22.42s9.17-4,10.71-18.29l-12.34.43ZM246,13H228.62V11.09h13.49L244,9.17,246,11.09Z"/><path class="cls-1" d="M257.81,20.88s11-.57,19.34-11.66l5.38,4a23.56,23.56,0,0,1-6.87,6.29c-.24,3.17-.72,10.56-.72,19.68H271.2c-.91-7.2-1.49-13.49-1.82-17.33A21.93,21.93,0,0,1,257.81,20.88Z"/><path class="cls-1" d="M302.4,19.06s-4.56-2.55-8.35-2.59l.05-5C302.78,12,302.4,19.06,302.4,19.06Zm14.88-.91s4.32,12.57-21.75,20.06l-1.48-6.53C312.67,26.55,317.28,18.15,317.28,18.15Z"/><path class="cls-1" d="M353.23,25.11s-1,10.41-13.44,14.11h-5.42c-.68-13-.87-28.23-.87-28.23h6.72s0,9.89-.24,21.51A21.2,21.2,0,0,0,353.23,25.11Z"/><path class="cls-1" d="M361.82,16.51H366a43.85,43.85,0,0,0,1,8.74S361.82,25.59,361.82,16.51ZM376.9,20h5.61c0,19.2-17.18,19.2-17.18,19.2S376.9,33.12,376.9,20Zm-8.69-3.51h4.22a46,46,0,0,0,1,8.74S368.21,25.59,368.21,16.51Z"/><path class="cls-1" d="M389.61,39.22a30,30,0,0,0,15.85-23.38c-6.87.29-11.48.29-11.48.29v-4.9s8.45,0,18.48.34c0,8.5-2.16,14.35-5.13,18.43,2.73-.43,7.39-.14,12.67,4.52l-4.85,4.7c-2.64-3.36-7-6.29-9.12-7.63A23.86,23.86,0,0,1,389.61,39.22Z"/><path class="cls-1" d="M438.72,19.06s-4.56-2.55-8.35-2.59l.05-5C439.1,12,438.72,19.06,438.72,19.06Zm14.88-.91s4.32,12.57-21.75,20.06l-1.48-6.53C449,26.55,453.6,18.15,453.6,18.15Z"/><path class="cls-1" d="M485.52,38.79c-12.82,2.83-18.15-6.63-9.89-16.85-2.69-.87-7.2-3.41-8.54-11l6.48-1.73a34.71,34.71,0,0,0,3.17,11.47,40.17,40.17,0,0,1,6.09-5.23l4.61,4.9C468.43,33.65,485.52,38.79,485.52,38.79Z"/><path class="cls-1" d="M504,14c0,11.09.48,16.13.48,16.13s-7.2-.39-7.2-16.13Zm21.79-1.92L527.66,14v1.92h-5.18v4.41a78.41,78.41,0,0,1-.34,8.6c1.44.38,2.64.72,3.56,1l-1.54,5.91c-1-.48-2.11-1-3.31-1.49-1.39,3.07-3.89,4.85-8.45,4.85-7.63,0-6.63-10.71-.1-11.33a17.84,17.84,0,0,1,3.27,0c.14-2,.19-4.51.19-7.54V15.94H507V14h8.74V10.13h6.72V14h1.34ZM515,32.45a11.76,11.76,0,0,0-2.45-.38,1.78,1.78,0,0,0,0,3.55C513.6,35.62,514.42,34.9,515,32.45Z"/><path class="cls-1" d="M545.9,30.77c.05-4.13,1.25-6.19,2.5-7.63s2.5-2.31,2.5-4-3.08-4-7.54-1.1l-2.3-5.76c5.32-3.17,10.51-2.64,13.39-.19a7.06,7.06,0,0,1,2.25,7.44c-.72,2.73-2.2,3.93-3.6,5.37a7.87,7.87,0,0,0-2.25,6Zm5.28,5.47a3,3,0,1,1-3-2.93A3,3,0,0,1,551.18,36.24Z"/></g></g></svg>