<svg id="レイヤー_1" data-name="レイヤー 1" xmlns="http://www.w3.org/2000/svg" viewBox="0 0 311.22 138.47"><defs><style>.cls-1{fill:none;stroke:#f0908a;stroke-miterlimit:10;stroke-width:3px;}.cls-2{fill:#f0908a;}.cls-3{fill:#ee8e88;}.cls-4{fill:#fff;}</style></defs><path d="M105.5,14.94l3,0s0,4.37,0,12.7l9.6-.11.95-1,1,.95,0,1.18-11.55.14a8.26,8.26,0,0,1,0,.86l-2.52,0C105.64,20.91,105.5,14.94,105.5,14.94Zm.3-3.25,7.53-.09a16.55,16.55,0,0,0,.2-1.7l2.57.35-.2,1.32,2.06,0,1-1,1,.95,0,1.17-4.27.05a6.44,6.44,0,0,1-1.74,3.14l1.77,0v-.26l2.54,0c.34,5.85.46,9.86.46,9.86l-3,0v-.32l-3.48,0v.32l-2.54,0c-.31-5.86-.43-9.86-.43-9.86l3,0v.26h.27a22.82,22.82,0,0,0,.7-3.13l-7.34.09Zm9.8,10.79-3.43,0c0,.48,0,1,0,1.51l3.48,0Zm0-2.72-3.43,0c0,.46,0,1,0,1.52l3.43,0C115.63,20.82,115.62,20.31,115.61,19.76Zm-3.41-2.67c0,.41,0,.94,0,1.54l3.43,0c0-.51,0-1,0-1.54Z"/><path d="M131.42,18.9a6.85,6.85,0,0,1-.92,1.67c0,2,0,4.35,0,7.2-2.22.32-4.07.41-4.07.41l0-2.59s.48,0,1.49,0L127.77,23a9.31,9.31,0,0,1-2,.81l-.7-2.77a11.65,11.65,0,0,0,2.59-.51c-.07-1.37-.11-2.57-.12-3.58l-2.11,0V15.83l2.08,0-.1-3,3,0v3l.91-.92,1,.95v1.17l-1.87,0c0,.72,0,1.53,0,2.44Zm9.39,2.6a12.34,12.34,0,0,1-.73,3.13h.75l.94-1,1,1v1.18l-3.24,0a6.7,6.7,0,0,1-4.69,3.44,11.22,11.22,0,0,0,1.88-3.41l-1.34,0c0,.12,0,.26-.05.4l-2.85-.18c.07-1.89.15-3.38.21-4.49l-1.59,0V20.44l1.65,0,.07-.93,3.38.2s0,.21-.09.69l4.68-.05.95-1,1,.95,0,1.17Zm-9.07-4.23,2.23,0a9.12,9.12,0,0,0-1.17-3,3.24,3.24,0,0,1,3.73,2.38l-1.72.64,2.45,0a10.11,10.11,0,0,0,1.06-3.52l2.67.38c-.79,2-1.79,2.83-2.58,3.13l1.73,0,1-1,1,.93v1.19l-10.32.13Zm.66-5.22,3.19,0c-.16-1.36-.22-2.27-.22-2.27l2.88,0s0,.79-.07,2.28h1.18l.94-1,1,.95v1.17l-8.88.11Zm5.1,9.49-1.56,0c-.11.77-.24,1.81-.42,3.13l1.56,0A13.17,13.17,0,0,0,137.5,21.54Z"/><path d="M157.31,22.17c0,1.95,0,4.18,0,6.68-3.35.32-6.18.45-6.18.45l0-3.09s1.1,0,3.36.08c-.07-1.47-.11-2.83-.14-4.08l-6.53.08,0-1.2,6.51-.08-.12-3.77-5.71.07,0-1.18,5.69-.06c0-1.08,0-2-.08-2.6-3.45.19-5-.94-5-.94A20.24,20.24,0,0,0,159,8.62l2,3.16a27.17,27.17,0,0,1-3.71,1.2c0,.65,0,1.68,0,3.05l3.28,0,1-1,1,1,0,1.17-5.21.06c0,1.08,0,2.36,0,3.77l4,0,1-.94,1,.92,0,1.2Z"/><path d="M181.73,23.11l.57,3.3c-9.91,2.91-13.14-3-7.33-6.85a4.4,4.4,0,0,0-1.52-.51,13.23,13.23,0,0,0,.93-2.72l-2.09,0v-1l2.3,0a14.76,14.76,0,0,0,.21-2.67l3.36,0a7.54,7.54,0,0,1-.45,2.67h.84l1-1,1,1v1l-3.19,0a8,8,0,0,1-1.39,1.91,3.61,3.61,0,0,1,1.06.3,15.12,15.12,0,0,1,1.45-.57l.5,1a7.11,7.11,0,0,0-.84.37l.9,1-2,1.61a5.77,5.77,0,0,0-.76-1.22C174.28,22.67,175,25,181.73,23.11Z"/><path d="M198.61,19.38a13,13,0,0,1,2.56,7.22l-.94.35a17.23,17.23,0,0,0-5.65-7.07,42.51,42.51,0,0,0,3.82-7.94L202,13.58A60.49,60.49,0,0,1,198.61,19.38Z"/><path d="M213.36,23a16.76,16.76,0,0,0,2.79-7.9l-1.68,0v-1l1.8,0c0-.62.06-1.27.05-1.94l3.36,0a15.07,15.07,0,0,1-.1,1.94l3.05,0,.95-1,1,.94v1l-5.09.06C218.34,21.57,213.36,23,213.36,23Zm8.52,3.67c-4.37,0-3.37-4.86-3.37-4.86s.74,1.53,3.33,1.5a12.09,12.09,0,0,0,4.24-.65l.26,3.36S225.74,26.64,221.88,26.69Zm3.33-9L225,19.83s-.92-.42-4.83,0L220,17.73C224.22,17.28,225.21,17.7,225.21,17.7Zm.58-5.63a2.08,2.08,0,0,1-.41,1.93A5.51,5.51,0,0,0,224,12.29l1.09-1.24a3.08,3.08,0,0,1,.63.78l1-1.16a2,2,0,0,1,.32,2.95A5.14,5.14,0,0,0,225.79,12.07Z"/><path d="M236.55,20.78l3.36,0c0,3.48.82,4.74,2.92,5.68C238.34,26.71,236.6,25.1,236.55,20.78Zm5.34-4.51-4.25.05v-1l4,0a26.18,26.18,0,0,0-1-3l3.23-.95a23.92,23.92,0,0,1,.65,3.88h.86l.95-1,.95.95v1l-2.71,0c.13,4.83-1.84,6.6-1.84,6.6A27.57,27.57,0,0,0,241.89,16.27Z"/><path d="M262.92,14.58l-7.25.09v-1l7-.08-.5-1.89,3.31-.57a24,24,0,0,1,.6,2.42l1.51,0,1-1,1,1v1l-3.26,0a12.91,12.91,0,0,1,0,4.8,4.91,4.91,0,0,1,.12,2.18c-.57,4.54-3.74,4.7-3.74,4.7a6.43,6.43,0,0,0,1.49-4,3.14,3.14,0,0,1-4.9-2.56,2.94,2.94,0,0,1,2.87-3,5.57,5.57,0,0,1,1.27.12C263.28,16.12,263.1,15.33,262.92,14.58Zm.54,5A1.65,1.65,0,0,0,262,19a.93.93,0,1,0,.16,1.85C262.93,20.8,263.3,20.34,263.46,19.59Zm4.48-9.15,1-1.16a2,2,0,0,1,.34,3A5.71,5.71,0,0,0,268,10.66a2.1,2.1,0,0,1-.41,1.95,5.26,5.26,0,0,0-1.41-1.71l1.09-1.26A3,3,0,0,1,267.94,10.44Z"/><path d="M289.07,25.68c-6.39,1.49-9.11-3.21-5-8.37-1.35-.42-3.62-1.66-4.34-5.47l3.23-.9a17.72,17.72,0,0,0,1.65,5.72,20.41,20.41,0,0,1,3-2.66l2.33,2.42C280.5,23.21,289.07,25.68,289.07,25.68Z"/><path d="M303.52,15.21l-2.88,0v-1l2.95,0c.06-1,.17-2,.27-3.08l3.36,0c-.13,1.13-.23,2.14-.32,3.08l1.54,0,.95-.95,1,.93v1l-3.55,0c-.09,1.15-.12,2.16-.11,3l1.8,0,.95-1,1,.95v1l-3.7,0c.27,4.3,1.91,4.88,4.49,3.94a3.76,3.76,0,0,1-3.52,2.58c-2.71,0-4-2.18-4.23-6.48l-2.76,0v-1l2.73,0C303.42,17.32,303.43,16.31,303.52,15.21Z"/><path d="M158.66,57.05l-.76-3.28a15.55,15.55,0,0,0,1.87-.29c-.07-1.34-.13-2.57-.17-3.64h-1.51V48.68l1.46,0c-.06-1.54-.1-2.66-.11-3.31l-1.39,0V44.19l4.15,0,.95-1,1,.93v1.17l-2.13,0c0,.62,0,1.73,0,3.31h.26l1-1,1,1,0,1.17-2.21,0c0,.89,0,1.92,0,3a14.76,14.76,0,0,0,2.25-1S164.43,55.71,158.66,57.05Zm15.23-2.63,2.6.64s-.34,1.4-1.1,4c0,0-1.73,0-5-.13-.21-3.67-.32-5.47-.36-6.29h-.86c-.8,7.31-5.7,7.22-5.7,7.22s2.43-1.46,2.87-7h-1.25c-.35-7.1-.48-11.92-.48-11.92l3.29,0v.22l3.44,0v-.22l2.79,0c.35,7.07.47,11.92.47,11.92l-1.82,0c0,.58,0,1.54,0,3.15.31,0,.6-.06.86-.06Zm-2.6-5.23-3.39,0c0,.72,0,1.49,0,2.28l3.41,0C171.31,50.9,171.3,50.13,171.29,49.19Zm0-3.43-3.39,0c0,.67,0,1.44,0,2.26l3.41,0C171.29,47.34,171.3,46.58,171.3,45.76Zm0-3.46-3.44,0,0,2.28,3.39,0C171.32,43.86,171.31,43.1,171.33,42.3Z"/><path d="M180.64,46.11c-.29-3.43-.37-4.18-.37-4.18l3,0v.36l3.65,0-.26-2.08,3,0s0,.24-.09,2.09l3.57,0v-.36l2.54,0c.31,3.43.39,4.17.39,4.17l-2.91,0,.49.49v1.18l-3.93,0c-.07.65-.18,1.27-.29,1.87l2.35,0,.95-1,.95,1v1.18l-4.51,0a16.39,16.39,0,0,1-.56,1.86l4.4-.06,1-.94.94.92,0,1.2-5.12.06a18.81,18.81,0,0,0,5.41,2.82l-1.62,2.95a10.27,10.27,0,0,1-4.84-5.75h-.6c-2.39,5.46-6.34,5.89-6.34,5.89a15.78,15.78,0,0,0,3.34-5.85l-3.41,0v-1.2l3.79-.05c.16-.57.32-1.2.46-1.85l-3.08,0V49.63l3.31,0c.09-.6.18-1.22.24-1.87l-3.57,0,0-1.18,3.68,0c0-.75,0-1.51,0-2.31l3.36,0c0,.8-.05,1.56-.09,2.31l1.89,0,1-1,.32.3c0-.24,0-.88.07-2.49l-9.89.11-.09,2.65Z"/><path d="M204.46,55.5a16.69,16.69,0,0,0,1.31-5.11l-1.37,0,0-3.36L206,47c.06-1,.05-2.14,0-3.39l3.37.44a25.27,25.27,0,0,1-.16,3.15c4.07,1.3,5.42,7.81.15,10.61,1.24-2.63,1.61-5.88-.87-7C207.12,55.06,204.46,55.5,204.46,55.5Zm7.85-8.23,1.57-3c4.58,3.23,2.77,7.19,2.77,7.19A8.69,8.69,0,0,0,212.31,47.27Zm2.69-3.4,1.09-1.23a3.14,3.14,0,0,1,.64.78l1-1.16a2,2,0,0,1,.33,3,5.28,5.28,0,0,0-1.25-1.57,2.09,2.09,0,0,1-.4,2A5.56,5.56,0,0,0,215,43.87Z"/><path d="M232.81,55.45s-.52,3-10.09,3.89l0-2.64c1.25,0,2.45-.06,3.55-.14,0-.34,0-.87,0-1.71l-3.08,0V53.72l3.07,0c0-.48,0-1,0-1.63h-.58a1.72,1.72,0,0,0,0,.32l-2.3,0c-.31-5.51-.4-6.71-.4-6.71l2.79,0V46h.53V44.75l-3.63,0V43.62l3.65,0v-.64l2.06,0c0,.22,0,.43,0,.65l1.78,0,.95-1,1,.94v1.18l-3.67,0c0,.44,0,.84,0,1.25h.79V45.6l2.3,0c.31,5.52.39,6.72.39,6.72l-2.78,0V52h-.51c0,.6.06,1.15.07,1.63l1.34,0,.95-1,.95,1v1.18l-3.21,0c0,.62,0,1.08.06,1.41A34.2,34.2,0,0,0,232.81,55.45Zm-9.8-14a15.65,15.65,0,0,0,6.69-2.86l1.54,2.14C225.23,44.19,223,41.5,223,41.5Zm3.24,9.35c0-.39,0-.8,0-1.25h-.57c0,.39,0,.8,0,1.25Zm-.53-3.67c0,.34,0,.74,0,1.25h.53c0-.41,0-.81,0-1.25Zm2.74,0c0,.43,0,.84,0,1.24h.67c0-.39,0-.8,0-1.25Zm.67,3.66c0-.33,0-.74,0-1.25h-.63c0,.46,0,.86,0,1.25Zm8.12-5.35,3,0s0,4.16,0,12c-2.18.37-4,.48-4,.48l0-3.36s.5,0,1.39,0c-.13-3.43-.24-6.11-.28-7.65h-.65c-.63,11.17-4.29,12.2-4.29,12.2A59.91,59.91,0,0,0,233.59,47l-1,0,0-1.18h1.06c0-1.06,0-2.14,0-3.31l3.12,0c0,1.17,0,2.28,0,3.31h.55Z"/><path d="M253,49.74A12.92,12.92,0,0,1,255.53,57l-.93.34a17.2,17.2,0,0,0-5.66-7.06,42.17,42.17,0,0,0,3.82-7.94l3.6,1.64A59.24,59.24,0,0,1,253,49.74Z"/><path d="M117.4,70.22s-2.13,0-4.8-.06c-.06,5.61-.16,17.16-.09,22.8l-2.19.18c-.85-8.36-1.15-26.45-1.15-26.45,4.61-.32,8.18-.37,8.18-.37Z"/><path d="M121,92.11s1.53-5.3,1.07-18.85l3.8-.05v.39h.87V73.2l3.78,0s0,1.29,0,18.3c-2.88.36-5.27.48-5.27.48l0-3.3s.66,0,2,0l-.14-4-2.13,0C123.56,91.39,121,92.11,121,92.11Zm4.24-8.9,1.83,0c0-1.26,0-2.34-.1-3.33l-1.32,0C125.54,81.11,125.4,82.22,125.23,83.21Zm.52-4.81h1.17c0-1.47-.09-2.55-.13-3.33h-.93C125.84,76.27,125.82,77.38,125.75,78.4Zm8.12-2.94a16.81,16.81,0,0,0-2.72-4.68s3.11-.85,5.83,3.32ZM142.05,77l3.51,0s0,1.5,0,15.54l-2.88,0c0-.33,0-.66,0-1l-7.71.1c0,.33,0,.66,0,1l-2.87,0c-.46-12.77-.58-15.53-.58-15.53l3.48,0s0,1.33,0,13.09l7.67-.1C142.17,79.35,142.05,77,142.05,77Zm0,.72a22.32,22.32,0,0,1-1.78,4.46,13.6,13.6,0,0,1,1.86,2.14L139.79,86a16.34,16.34,0,0,0-.95-1.64,8.86,8.86,0,0,1-3.93,3.17,25.1,25.1,0,0,0,2.68-4.87A21,21,0,0,0,135,79.85a6.76,6.76,0,0,1,3.34.92,35,35,0,0,0,1.39-5Zm-1.19-4.37-3.2,1.15a16.36,16.36,0,0,0-2.4-4.83S138.44,69,140.87,73.3Zm2.25-4.64,3.31.83a7.22,7.22,0,0,1-6.24,5.35A14.62,14.62,0,0,0,143.12,68.66Z"/><path d="M160.69,90.32l-3.36,0c-.52-8.09-.75-18.17-.75-18.17l4.19,0S160.88,81.41,160.69,90.32Zm6.32-6.1c-5.31.06-5.65-5.46-5.65-5.46A11.09,11.09,0,0,0,167,80Z"/><path d="M187.91,81.18s-.52,6.51-8.29,8.92l-3.39,0c-.52-8.1-.75-17.64-.75-17.64l4.2,0s.07,6.18,0,13.44A13.25,13.25,0,0,0,187.91,81.18Z"/><path d="M205.05,92c-4.61.33-8.18.37-8.18.37l-.05-3.87s2.13,0,4.8,0c.06-5.62.16-17.17.09-22.81l2.19-.17C204.75,74,205.05,92,205.05,92Z"/><path d="M227.91,88.65c2.3-3,1-8.41-8.5-5.45l-1.12-3.37c5.94-2.14,11.53-2,13,2.3C232.83,86.76,227.91,88.65,227.91,88.65Z"/><path d="M254.51,72.77c-4.16,6-9.52,11.6-2.3,16.47-11.07.13-8.68-8.72-2.85-13a41.9,41.9,0,0,1-8.54,1.24l0-4.2C247.61,73.21,254.51,72.77,254.51,72.77Z"/><path d="M265.46,80.32a9.12,9.12,0,0,1-3.73,1.57,24.83,24.83,0,0,0,5.2-11.61l4,1.21c-1,4.46-3.07,7-5,8.46l2.66,0c.42,7.5.53,9.11.53,9.11l-3.81,0S265.34,88.21,265.46,80.32Zm11.13,2.9,0-1.23-1.92,0c0,.39,0,.81,0,1.23l-3.18,0c-.42-8.1-.53-9.87-.53-9.87l3.81,0,0,.87,1.95,0a6.57,6.57,0,0,1,0-.88l3.15,0c.42,8.12.53,9.86.53,9.86Zm8.63-16.37L286.43,68l0,1.47-1.71,0c0,2,0,7.32,0,20.7-3,.4-6.15.52-6.15.52l0-3.69s1.2,0,2.91,0c-.31-10.65-.45-15.54-.54-17.52l-9.66.12V68.22L284,68.07Zm-8.6,13.64.07-4.81-1.95,0c0,1.05,0,2.61,0,4.8Z"/><path d="M297,83.43a6.77,6.77,0,0,1,1.5-4.79c.77-.94,1.54-1.46,1.53-2.51s-1.95-2.47-4.72-.64l-1.48-3.58c3.31-2,6.55-1.73,8.37-.22a4.43,4.43,0,0,1,1.46,4.64,6.92,6.92,0,0,1-2.21,3.38,4.9,4.9,0,0,0-1.36,3.74Zm3.34,3.37a1.86,1.86,0,1,1-3.72,0,1.86,1.86,0,0,1,3.72,0Z"/><path d="M27.27,118.27A15.65,15.65,0,0,1,26,120.9h7.45v6.41H32.24v-.59H25.91v.59H24.76v-4.63a17.74,17.74,0,0,1-2.18,2.25l-.86-.93a14.23,14.23,0,0,0,4.3-5.73H21.89v-1.11h4.54a20,20,0,0,0,.69-2.74l1.17.24a19,19,0,0,1-.63,2.5h7.12v1.11Zm5,3.74H25.91v3.62h6.33Z"/><path d="M39.44,115.15a25.13,25.13,0,0,0-.79,6.39,13.41,13.41,0,0,0,.76,5l-1.25.37a16.18,16.18,0,0,1-.74-5.33,30.56,30.56,0,0,1,.76-6.64Zm8.5,9.57v1.19c-.88.08-1.86.14-2.71.14-2.49,0-4.34-.41-4.34-1.81a5.35,5.35,0,0,1,.63-2.14l1.1.2a3.8,3.8,0,0,0-.54,1.59c0,.8,1.12,1,3.13,1A19.3,19.3,0,0,0,47.94,124.72Zm-6.84-6.56L41,117c1.32-.11,3-.2,4.53-.2.73,0,1.48,0,2.07,0l0,1.14c-.68,0-1.55-.07-2.39-.07A40.75,40.75,0,0,0,41.1,118.16Z"/><path d="M62,126.12l-1.12.78a30.67,30.67,0,0,0-4-4.2,17.44,17.44,0,0,1-5.25,4.19l-.81-1a15.49,15.49,0,0,0,7.81-8.5H51.71v-1.13h7.66l.89.5a17.31,17.31,0,0,1-2.64,5A41.43,41.43,0,0,1,62,126.12Z"/><path d="M75.52,116.72c-.3,5-2.23,8.26-6.5,10.1l-.79-1.07c4.16-1.68,5.71-4.51,5.9-8.38H66.71v3.51H65.45V116.2h9.12Z"/><path d="M85.39,119.11v7.79H84.08V120a26.35,26.35,0,0,1-4.82,2.6l-.65-1.12a25.59,25.59,0,0,0,9.62-6.64l1,.79A22.54,22.54,0,0,1,85.39,119.11Z"/><path d="M102.37,116.6l1,.54c-1,4.46-3.29,7.83-7.69,9.73l-.87-1a10.85,10.85,0,0,0,7.06-8.07H93.22V116.6Zm2.93-1.24a1.44,1.44,0,0,1-1.45,1.44,1.44,1.44,0,0,1,0-2.88A1.44,1.44,0,0,1,105.3,115.36Zm-.45,0a1,1,0,0,0-1-1,1,1,0,1,0,1,1Z"/><path d="M117.81,122.15c-1.29,3.64-3.09,4.74-5.42,4.74-2.73,0-3.93-1.57-3.93-4.59,0-1.35.05-4.27.08-7.29h1.33c-.15,3-.2,5.91-.2,7.27,0,2.46.84,3.39,2.75,3.39s3.25-1,4.23-4.08Z"/><path d="M130.45,125.57l-.15,1.2c-3.87-.15-6.22-1.65-6.22-4.42a6.22,6.22,0,0,1,3-4.91c-1.55.15-4.61.34-6.46.42l-.08-1.16c1.91,0,6.11-.32,7.42-.43,1.08-.09,2.44-.23,3.41-.34l.14,1.21a21.18,21.18,0,0,0-2.15.23,3.42,3.42,0,0,0-1.06.47c-1.76,1.13-3,2.67-3,4.45C125.33,124.24,127,125.4,130.45,125.57Z"/><path d="M139.56,122.49l1,.46c-.54,2.16-1.3,3.32-2.37,3.32-1.52,0-3.29-2.34-3.29-6.57,0-.94,0-2,.11-3.15l1.28.11c-.11,1.08-.17,2.12-.17,3,0,3.22,1.09,5.27,2,5.27C138.75,124.93,139.24,123.92,139.56,122.49Zm6.78,1.27-1.33.11c0-3.08-.67-5.08-2.53-6.9l1-.69C145.55,118.35,146.25,120.61,146.34,123.76Z"/><path d="M158.57,122.61c0,2.45-1.7,4-5.94,4l-.21-1.11c3.65,0,5-1.09,5-2.88,0-1.41-1-2.31-2.69-2.31a23.39,23.39,0,0,0-5,1l-.28-1.12a33,33,0,0,1,5.42-1C157.14,119.27,158.57,120.55,158.57,122.61Z"/><path d="M172.45,125.57l-.15,1.2c-3.87-.15-6.22-1.65-6.22-4.42a6.22,6.22,0,0,1,3-4.91c-1.55.15-4.61.34-6.46.42l-.08-1.16c1.91,0,6.11-.32,7.42-.43,1.08-.09,2.44-.23,3.41-.34l.14,1.21a21.18,21.18,0,0,0-2.15.23,3.42,3.42,0,0,0-1.06.47c-1.76,1.13-3,2.67-3,4.45C167.33,124.24,169,125.4,172.45,125.57Z"/><path d="M188.9,125l-.71.85a7,7,0,0,0-.88-.85c-.42,1.31-1.26,1.83-2.8,1.83s-2.72-.81-2.72-1.92,1.05-1.9,2.74-1.9a5.39,5.39,0,0,1,1.91.32c0-.38,0-.83,0-1.32,0-2.92-.52-3.65-2-3.65-1.11,0-2.77.88-4.33,2.62,0,2.39-.05,4.76,0,5.88H179c0-1,0-2.59.05-4.38-.59.78-1.26,1.76-1.83,2.63l-.94-.72a32.6,32.6,0,0,0,2.42-3.75,7.12,7.12,0,0,0,.39-.91l0-1.27-2.51.28-.14-1.14c.59,0,1.77-.14,2.67-.27,0-1.06,0-2,0-2.52h1.2l-.07,2.47.49.38c-.18.49-.38,1.17-.53,1.73,0,.06,0,.13,0,.19a6.82,6.82,0,0,1,4.6-2.44c2,0,2.82,1,2.82,4.89a14.48,14.48,0,0,1-.1,1.86A8,8,0,0,1,188.9,125Zm-2.59-.65a4,4,0,0,0-1.79-.43c-1.09,0-1.71.42-1.71,1s.67,1,1.63,1A1.62,1.62,0,0,0,186.31,124.39Z"/><polyline class="cls-1" points="207.42 114.08 214.42 121.08 207.42 128.08"/><polyline class="cls-1" points="216.42 114.08 223.42 121.08 216.42 128.08"/><polyline class="cls-1" points="225.42 114.08 232.42 121.08 225.42 128.08"/><path class="cls-2" d="M45.13,88.4h0c-5.22.37-10.58.72-15.59-.78a32,32,0,0,1-12-7.37C4.65,68.59-2.76,49.35,3.94,33.34c2.6-6.2,7.05-11.46,12-16S26.22,8.84,32.49,6.8C46.3,2.3,61.43,8,73.62,15.88c4.64,3,9.12,6.39,12.5,10.76,9.17,11.82,7.34,29.57,0,42C77.53,83.32,60.88,87.3,45.13,88.4Z"/><path class="cls-3" d="M45.34,87.65c-5,.35-10.2.72-15-.83a32.3,32.3,0,0,1-11.72-7.37A50.07,50.07,0,0,1,5,58.57c-2.57-7.76-3-16.27-.16-24,3.13-8.63,10-15.79,17.22-21.25A35.63,35.63,0,0,1,34.49,6.94a33.71,33.71,0,0,1,13.75-.46C57.55,8,66.3,12.34,74,17.61a46.68,46.68,0,0,1,10.47,9.25,28.83,28.83,0,0,1,5.35,11c2,8,1,16.65-2,24.32A35.48,35.48,0,0,1,73,80.44c-6.67,4-14.39,5.76-22,6.68-1.88.22-3.77.39-5.66.53-.44,0-1.63.38-1.66.95s.8.59,1.24.56C61.31,88,79.21,83.33,87.87,68a44.7,44.7,0,0,0,5.81-25.07,32.26,32.26,0,0,0-3.34-12.32,34,34,0,0,0-8.82-10.55,72.49,72.49,0,0,0-26.35-14c-9.51-2.62-19.53-2.19-28.4,2.32a53.42,53.42,0,0,0-12,8.69,55.65,55.65,0,0,0-9.46,11A35.32,35.32,0,0,0,.6,53.4,49,49,0,0,0,12.2,76.78a45,45,0,0,0,10.49,9A28.36,28.36,0,0,0,37.38,89.5c2.51,0,5-.16,7.54-.34.43,0,1.62-.38,1.65-1S45.78,87.62,45.34,87.65Z"/><path class="cls-4" d="M22.39,41.8a.66.66,0,0,1,0-.16,1.3,1.3,0,0,1,0-.21.39.39,0,0,0,0-.15.49.49,0,0,0,0-.11l2.79-.73.33-.65L23.38,31a.52.52,0,0,0-.39-.37,1,1,0,0,0-.54-.06c-.07,0-.22,0-.4.08l-.62.09c-.24,0-.43.08-.64.11l-.4.1A.59.59,0,0,1,20,30.5c-.07-.2-.13-.41-.18-.59a3.08,3.08,0,0,1-.11-.72,1,1,0,0,1,.28-.64c.56-.34,1.11-.69,1.73-1.09a13.31,13.31,0,0,0,1.63-1.27l2.48-.64a.45.45,0,0,1,.43.11.72.72,0,0,1,.27.35l3.33,12.87.14,0c.08,0,.11,0,.13,0a.68.68,0,0,1,.19.08l.17.08,2-.53a.57.57,0,0,1,.37.16c.15.11.22.19.24.28l.52,2a.85.85,0,0,0,0,.15.52.52,0,0,1-.07.22s0,.06,0,.11a.28.28,0,0,0-.06.06L23.34,44.19,23,44Z"/><path class="cls-4" d="M43.27,38.37a13.36,13.36,0,0,0,.94-1c.36-.42.75-.92,1.18-1.47a12.39,12.39,0,0,0,1.1-1.8,8.78,8.78,0,0,0,.68-1.94,4,4,0,0,0,0-1.95,2.28,2.28,0,0,0-.15-.39c-.07-.18-.18-.25-.35-.2l-2.32.6a.45.45,0,0,1-.39-.07l-.3-.3a1.59,1.59,0,0,0-.32-.26.37.37,0,0,0-.34-.09.88.88,0,0,0-.49.4,2,2,0,0,1-.45.49s0,0-.06,0a1.87,1.87,0,0,1-.8,0,4.58,4.58,0,0,1-.95-.4,3.39,3.39,0,0,1-.83-.6,1.58,1.58,0,0,1-.44-.68,1.91,1.91,0,0,1,.19-.57c.12-.31.32-.7.53-1.13l.76-1.49c.26-.51.52-1,.79-1.52s.48-.94.67-1.36.31-.7.38-.89a2.83,2.83,0,0,0,.19-.82,5.51,5.51,0,0,1,.14-1,3.07,3.07,0,0,1,.3-.87.86.86,0,0,1,.59-.47c.21-.06.47-.1.78-.16a4.42,4.42,0,0,1,1,0,3.4,3.4,0,0,1,.85.15.77.77,0,0,1,.48.5c0,.07,0,.15,0,.24a25.2,25.2,0,0,1-.8,3.35c-.34,1.08-.7,2.17-1.11,3.27a.8.8,0,0,0,0,.24,1.25,1.25,0,0,0,.08.22c0,.12.09.15.18.13L54.93,24c.1,0,.13-.09.1-.2s0-.19,0-.24a1.31,1.31,0,0,0-.06-.23c-.27-.2-.68-.54-1.23-1S52.58,21.46,52,21a17.8,17.8,0,0,1-1.53-1.44,3.1,3.1,0,0,1-.84-1.19.69.69,0,0,1,.21-.63,5.46,5.46,0,0,1,.65-.59c.27-.19.53-.33.79-.48a5.57,5.57,0,0,1,.61-.23,1.36,1.36,0,0,1,1.06.27,9,9,0,0,1,1.24,1c.42.39.82.78,1.23,1.2a7.44,7.44,0,0,0,1,.87l.81.53c.39.25.83.5,1.24.77s.88.52,1.27.76.67.42.82.51l.12.46L60.6,23c-.08.19-.2.39-.33.65s-.25.49-.38.74-.27.47-.38.65-.16.31-.23.43a.79.79,0,0,1-.2.27.85.85,0,0,1-.37.12,1.89,1.89,0,0,1-.61,0l-.08.34c.14.76.34,1.53.55,2.34s.39,1.61.55,2.39a17.64,17.64,0,0,1,.27,2.31,5.89,5.89,0,0,1-.25,2.07A3.77,3.77,0,0,1,58,37a5.75,5.75,0,0,1-2.29,1.09l-.28.07-.44.11-.44.12-.31.08a2.33,2.33,0,0,1-.61-.44,3.68,3.68,0,0,1-.53-.63,4.4,4.4,0,0,1-.4-.69,2.58,2.58,0,0,1-.23-.61.75.75,0,0,1,0-.24c0-.1,0-.15.1-.17L55,35.08a.75.75,0,0,0,.52-.55,3.19,3.19,0,0,0,.13-1.13A8.73,8.73,0,0,0,55.58,32c-.07-.5-.15-1-.23-1.4s-.19-.82-.3-1.14-.14-.53-.16-.63-.08-.3-.13-.51L54.67,28l-.41-.24L51,28.59s-.09.22-.11.62,0,.86-.07,1.33,0,1,0,1.42,0,.72,0,.83a12,12,0,0,1-.57,2.2,17.46,17.46,0,0,1-1.16,2.53,10.21,10.21,0,0,1-1.57,2.17,3.87,3.87,0,0,1-1.87,1.2,1.09,1.09,0,0,1-.69-.17,6,6,0,0,1-.86-.56,9.09,9.09,0,0,1-.77-.75,1.68,1.68,0,0,1-.38-.62A1.69,1.69,0,0,1,43.27,38.37Z"/><path class="cls-4" d="M22.45,59.15a11.38,11.38,0,0,1,.18-1.25c.07-.39.15-.74.23-1a1.62,1.62,0,0,0,.05-.7.07.07,0,0,0,0,0,.59.59,0,0,0-.11-.08l-.22,0-.22.05a8,8,0,0,0-1,.34l-1,.46-1,.44a9.22,9.22,0,0,1-1,.34.5.5,0,0,1-.47-.07.83.83,0,0,1-.27-.38,2.24,2.24,0,0,1-.15-.53c0-.19-.08-.37-.12-.51a.5.5,0,0,1,.27-.6l1-.34L20,54.76c.56-.17,1.13-.38,1.74-.59s1.18-.4,1.73-.6L25,53.06l1-.33,1-.34c.36-.11.72-.22,1.07-.31l.18,0a.58.58,0,0,1,.19,0,.42.42,0,0,1,.2,0c.05,0,.08.09.1.16l.4,1.55L29,54a18.77,18.77,0,0,0-1.82.74,5.72,5.72,0,0,0-1.55,1,3.34,3.34,0,0,0-.93,3.53,2.66,2.66,0,0,0,.73,1.34,2.91,2.91,0,0,0,1.19.69,5.58,5.58,0,0,0,1.45.21,13,13,0,0,0,1.53-.06c.09,0,.13,0,.16.13a1.47,1.47,0,0,0,.05.19,4.5,4.5,0,0,1,.09.55,2.82,2.82,0,0,1,0,.65,1.64,1.64,0,0,1-.19.59.62.62,0,0,1-.42.35,5.67,5.67,0,0,1-2.09.13,5.9,5.9,0,0,1-2-.61,6,6,0,0,1-1.63-1.25,4.28,4.28,0,0,1-1-1.81A3.44,3.44,0,0,1,22.45,59.15Zm4.32-2.4a.32.32,0,0,1,0-.23A.73.73,0,0,1,27,56.3a.78.78,0,0,1,.24-.16l.22-.09a.65.65,0,0,1,.43.08,2.52,2.52,0,0,1,.44.33,2.1,2.1,0,0,1,.38.41,1,1,0,0,1,.21.37.47.47,0,0,1-.18.51,1.41,1.41,0,0,1-.51.29l-.15,0s-.07,0-.11-.08l-.23-.22c-.11-.11-.23-.22-.34-.35L27,57.08l-.23-.23A.44.44,0,0,0,26.77,56.75Zm1.49-1.36a1.89,1.89,0,0,1,.2-.2.86.86,0,0,1,.22-.15,2.05,2.05,0,0,1,.2-.08.78.78,0,0,1,.22,0,.28.28,0,0,1,.21,0l.2.18.37.29.36.36a.9.9,0,0,1,.21.33.44.44,0,0,1-.05.23.79.79,0,0,1-.21.27,1.64,1.64,0,0,1-.25.19.54.54,0,0,1-.19.11.63.63,0,0,1-.45-.08,4.23,4.23,0,0,1-.47-.36,5.58,5.58,0,0,1-.39-.46,1.42,1.42,0,0,1-.22-.42A.23.23,0,0,1,28.26,55.39Z"/><path class="cls-4" d="M31.23,52.86a1,1,0,0,1,0-.25.52.52,0,0,1,0-.22.2.2,0,0,1,.18-.14l4.54-1.18.16.08a1.87,1.87,0,0,1,.21.14v.1c0,.06,0,.13,0,.24s0,.2,0,.3a2.42,2.42,0,0,1,0,.25.66.66,0,0,0,0,.11l-.14.23-4.65,1.21a.18.18,0,0,1-.16-.07l-.12-.23c0-.1-.06-.19-.08-.26l0-.12Zm.23-2.33a.85.85,0,0,0,0-.15l.14-.24,3.59-.93.3,1.17,0,0s0,.06-.05.06,0,.06-.08.1l-.08,0L32,51.47a.26.26,0,0,1-.25,0,1.16,1.16,0,0,1-.14-.23,1,1,0,0,1-.08-.25l-.05-.21A1.13,1.13,0,0,1,31.46,50.53Zm1,4.1a.57.57,0,0,1,0-.16l.15-.24,3.57-.92a.14.14,0,0,1,.16.06.68.68,0,0,1,.11.21c0,.07.06.15.07.21l0,.13.05.19a1.75,1.75,0,0,1,0,.24.58.58,0,0,1,0,.19.22.22,0,0,1-.17.14L33,55.56a.23.23,0,0,1-.23-.05.8.8,0,0,1-.15-.21A1.07,1.07,0,0,1,32.5,55l0-.2S32.43,54.72,32.42,54.63Zm.48,1.88.22-.37,3.4-.88.36.22.23.87-.16.24-3.57.92-.25-.13Zm5.74,4.81,0,0s-.1.07-.22.18l-.2.17-1.84.48a.3.3,0,0,0-.07.08s-.08.08-.08.11a.73.73,0,0,0-.13.19l-.09.18-1.36.35L33.4,58.44l0-.06,0-.06.09-.08.07-.07,3.3-.85h.14a.44.44,0,0,1,.18,0l.1,0,.06,0,.73,2.81a.33.33,0,0,0,.17.16.42.42,0,0,0,.24.05,1.2,1.2,0,0,0,.73-.53,3.09,3.09,0,0,0,.39-.91,4.16,4.16,0,0,0,.1-1,4.42,4.42,0,0,0-.11-.9,1.28,1.28,0,0,0-.08-.24l-.06-.25a.52.52,0,0,0-.38,0,5,5,0,0,1-.56.11,2.65,2.65,0,0,1-.54,0,.27.27,0,0,1-.29-.2l-.57-2.22c0-.05,0-.12.11-.22a.51.51,0,0,1,.19-.17L45,51.94l.1,0a.42.42,0,0,1,.11,0l.09,0s0,0,0,0l.63,2.42,0,0a.2.2,0,0,1-.06.07.94.94,0,0,1-.09.12l-.06.08-1.36.35a.1.1,0,0,0,0,.07s0,.08,0,.1a.42.42,0,0,0,0,.13c0,.05,0,.09,0,.1l.72,2.8a.8.8,0,0,0,.39.32c.17,0,.26-.08.27-.24a2.43,2.43,0,0,0,0-.53,2.77,2.77,0,0,1,0-.56c0-.19.06-.3.2-.34a1.59,1.59,0,0,1,.39,0,4.63,4.63,0,0,1,.47.08,1.62,1.62,0,0,1,.42.2.52.52,0,0,1,.24.31,6.23,6.23,0,0,1,.11.67,5.44,5.44,0,0,1,0,.81,1.9,1.9,0,0,1-.23.73.77.77,0,0,1-.53.43l-1.75.45a1,1,0,0,1-.54,0,1.18,1.18,0,0,1-.47-.3,1.48,1.48,0,0,1-.34-.44,1.67,1.67,0,0,1-.21-.5l-1-4.06c0-.05,0-.13.06-.24s.1-.16.14-.17l1.36-.36a.33.33,0,0,0,.06-.12.32.32,0,0,0,.07-.17v-.05a.52.52,0,0,0-.15-.21.24.24,0,0,0-.23-.06l-3.88,1a.29.29,0,0,0-.16.15.24.24,0,0,0,0,.22.35.35,0,0,0,.15.19c.1.07.17.1.23.08l1.26-.32.25.18s0,.07.06.17,0,.16.05.22a7.92,7.92,0,0,1,.18,1A9,9,0,0,1,41.67,58a8.85,8.85,0,0,1-.07,1.27,5.19,5.19,0,0,1-.28,1.19,2.7,2.7,0,0,1-.55.93,1.77,1.77,0,0,1-.88.54.31.31,0,0,1-.31-.06l-.3-.25a2.1,2.1,0,0,0-.28-.25.31.31,0,0,0-.3-.07Zm-3-.88a.38.38,0,0,0,.43.11.34.34,0,0,0,.28-.3.86.86,0,0,0,0-.45,1,1,0,0,0-.21-.4.34.34,0,0,0-.39-.13.34.34,0,0,0-.22.17.75.75,0,0,0-.13.25.69.69,0,0,0,0,.16c0,.09,0,.15,0,.18A1,1,0,0,0,35.64,60.44Zm1.74-8.61.13-.28,1.74-.45c.1,0,.15-.09.13-.19a.78.78,0,0,0,0-.24.49.49,0,0,0-.06-.17c0-.09-.06-.13-.12-.11L37,51s-.05,0-.1,0l-.14-.06-.15-.1a.32.32,0,0,1-.11-.14l-.15-1,.12-.28,2.23-.58a.23.23,0,0,0,.19-.2,1.87,1.87,0,0,0,0-.34,1,1,0,0,1,0-.35.27.27,0,0,1,.21-.21l1.35-.35a.22.22,0,0,1,.24.09,2,2,0,0,1,.18.29c.06.11.14.22.19.3s.14.12.21.1l2.42-.63.09,0a.91.91,0,0,1,.14.07l.08,0,0,0,.3,1.17,0,.06a.11.11,0,0,1-.06.06.31.31,0,0,1-.09.12l-.06.08-2.43.63a.16.16,0,0,0-.12.15.54.54,0,0,0,0,.23c0,.06.08.12.17.19a.24.24,0,0,0,.22.08l2-.52s.11,0,.16.08.08.15.12.25a1,1,0,0,1,.08.25l0,.13,0,.12a2,2,0,0,1,0,.26,2.44,2.44,0,0,1,0,.27.13.13,0,0,1-.11.13L37.7,53.09Z"/><path class="cls-4" d="M54.93,55.8a.68.68,0,0,1,0-.13c0-.06,0-.11.08-.12a13.12,13.12,0,0,0,1.31-.81,4.83,4.83,0,0,0,1-1,2.93,2.93,0,0,0,.58-1.22A3.32,3.32,0,0,0,57.84,51a4.81,4.81,0,0,0-.3-.8,5.28,5.28,0,0,0-.55-.84,2.41,2.41,0,0,0-.7-.58,1.16,1.16,0,0,0-.88-.09l-.18.07a.23.23,0,0,0-.1.22c0,.2-.07.51-.16.94s-.16.86-.25,1.31-.14.89-.19,1.29a2.17,2.17,0,0,0,0,.85.37.37,0,0,0,.11.2c.06,0,.12.11.2.16l.18.16a.44.44,0,0,1,.11.2v0a5.71,5.71,0,0,1-.42.69,2.55,2.55,0,0,1-.38.36c-.13.09-.27.19-.43.28l-.6.39a3.23,3.23,0,0,0-.54.5c-.15.17-.3.34-.46.49s-.33.28-.51.42a1.94,1.94,0,0,1-.68.3,2.39,2.39,0,0,1-1.15,0,2.18,2.18,0,0,1-.94-.46,3.06,3.06,0,0,1-.72-.83,4.52,4.52,0,0,1-.43-1.07,5.65,5.65,0,0,1-.17-1.75A10.66,10.66,0,0,1,48,51.77a1.34,1.34,0,0,1,.16-.43l.23-.43a3.93,3.93,0,0,0,.18-.46.74.74,0,0,0,0-.44,1.65,1.65,0,0,0-.25-.54c-.13-.15-.25-.32-.39-.47l-.37-.5a1.63,1.63,0,0,1-.26-.53.45.45,0,0,1,.11-.42,1.44,1.44,0,0,1,.39-.33,3.74,3.74,0,0,1,.52-.28l.45-.15a1.11,1.11,0,0,1,.23,0,.26.26,0,0,1,.2.15c.05.1.11.22.18.39s.16.33.25.49a1.49,1.49,0,0,0,.35.39.5.5,0,0,0,.44.09l.3-.11a.93.93,0,0,0,.19-.11l.24-.16.41-.24a6.62,6.62,0,0,0,1-.69,1.68,1.68,0,0,0,.41-.56A.7.7,0,0,0,53,46c-.06-.14-.1-.25-.16-.36a1.14,1.14,0,0,1-.09-.3c0-.11,0-.2.18-.3l.29-.07.29-.08a1.73,1.73,0,0,0,.33-.1l.37-.08.38,0a.7.7,0,0,1,.33.07s0,.06,0,.13L55,45a3.1,3.1,0,0,1,.09.61,3.23,3.23,0,0,0,.1.61c0,.1.16.21.43.34s.57.25.91.37l1,.38a5.93,5.93,0,0,1,.74.35,4.5,4.5,0,0,1,.66.57,4.64,4.64,0,0,1,.51.74,6.53,6.53,0,0,1,.37.81c.1.29.19.56.26.82a5.7,5.7,0,0,1,.12,2,6.17,6.17,0,0,1-.56,2,5.73,5.73,0,0,1-1.21,1.6,4.14,4.14,0,0,1-1.79,1,.77.77,0,0,1-.51-.06,4.53,4.53,0,0,1-.89-.76L55,56A.33.33,0,0,1,54.93,55.8Zm-4.81-.61a.67.67,0,0,0,.66.11,1.31,1.31,0,0,0,.36-.17,1.24,1.24,0,0,0,.29-.26,1.48,1.48,0,0,0,.19-.35.68.68,0,0,0,0-.4s0-.06,0-.12l0,0-1.32-1.52s-.08-.08-.11-.08l-.12,0c-.13,0-.23.15-.28.35a2.52,2.52,0,0,0-.09.67,5.43,5.43,0,0,0,0,.71,3.34,3.34,0,0,0,.08.47A1.06,1.06,0,0,0,50.12,55.19Zm1.48-4.46c.08.14.16.27.25.4a3.49,3.49,0,0,0,.31.34.84.84,0,0,0,.35.16c.11,0,.21-.07.27-.27a4.39,4.39,0,0,0,.16-.71,6.57,6.57,0,0,0,.05-.74,1.72,1.72,0,0,0,0-.42v-.05a.3.3,0,0,0-.07-.09l-.08-.07-.14,0a.73.73,0,0,0-.15,0,1.81,1.81,0,0,0-.35.14,2.14,2.14,0,0,0-.39.24,1.21,1.21,0,0,0-.29.31.47.47,0,0,0,0,.37A3.13,3.13,0,0,0,51.6,50.73Z"/><path class="cls-4" d="M65.73,51.11a2.31,2.31,0,0,1,.42-.9,3.15,3.15,0,0,1,.75-.7,3.27,3.27,0,0,1,1-.42,2.51,2.51,0,0,1,1.36,0,4.37,4.37,0,0,1,1.12.45,8,8,0,0,1,.83.55c.23.17.39.24.47.21A.46.46,0,0,0,72,50a1.43,1.43,0,0,0,.12-.43,2.57,2.57,0,0,0,0-.48,3.14,3.14,0,0,0,0-.39,1.73,1.73,0,0,0-.53-.88,2,2,0,0,0-.87-.44,3.29,3.29,0,0,0-1.05-.1,4.3,4.3,0,0,0-1,.14,4.63,4.63,0,0,0-1.36.59,5.93,5.93,0,0,0-1.1.9,8.27,8.27,0,0,0-.9,1.13c-.28.4-.55.83-.81,1.25l-.29.08-1.33-.79s-.06,0-.1-.08a.34.34,0,0,0,0-.08.4.4,0,0,1,0-.11c0-.07,0-.1,0-.12l.13-.24a1.16,1.16,0,0,1,.16-.24l3.88-5.34L67,44.2a.92.92,0,0,0,0-.2c0-.13-.1-.19-.21-.18s-.22,0-.32.06c-.47.12-.92.27-1.38.42s-.92.3-1.38.42l-.2.05-.15,0-.24-.14L62.67,43l.17-.15c1.06-.27,2.15-.6,3.25-1s2.21-.66,3.3-.94a.64.64,0,0,1,.43,0,1.59,1.59,0,0,1,.43.22,2.31,2.31,0,0,1,.36.34,1.6,1.6,0,0,1,.25.37.47.47,0,0,1-.1.43,3.69,3.69,0,0,1-.47.6c-.19.21-.41.45-.65.69s-.47.49-.67.71a4.76,4.76,0,0,0-.47.65.63.63,0,0,0-.13.51.39.39,0,0,0,0,.14,12.1,12.1,0,0,1,1.8-.12,5.94,5.94,0,0,1,1.71.27,3.18,3.18,0,0,1,2.23,2.46,3.72,3.72,0,0,1,0,2,3.92,3.92,0,0,1-.84,1.57,5.26,5.26,0,0,1-1.46,1.12,8.39,8.39,0,0,1-1.8.7,7.67,7.67,0,0,1-1.26.22,4,4,0,0,1-1.3-.05,2.68,2.68,0,0,1-1.1-.49,1.84,1.84,0,0,1-.69-1.09A2.17,2.17,0,0,1,65.73,51.11Zm2.21.67a.71.71,0,0,0,.32.17,1.23,1.23,0,0,0,.38,0,1.38,1.38,0,0,0,.37,0,1,1,0,0,0,.2-.07l.19,0a.32.32,0,0,0,.15-.21,1.7,1.7,0,0,0,0-.22.88.88,0,0,0-.47-.6,1.09,1.09,0,0,0-.76-.06l-.19.05-.18.07a.46.46,0,0,0-.22.29,1.4,1.4,0,0,0,0,.33A.58.58,0,0,0,67.94,51.78Z"/><path class="cls-4" d="M32.12,75a3.79,3.79,0,0,0,.21-.38c.09-.16.18-.33.28-.49a2.23,2.23,0,0,1,.34-.44.64.64,0,0,1,.36-.25,1,1,0,0,1,.71.08,6.58,6.58,0,0,1,.67.4,5.91,5.91,0,0,0,.68.39,1,1,0,0,0,.69.09.81.81,0,0,0,.35-.31c.14-.18.3-.4.47-.66s.31-.57.48-.89.31-.64.44-.93a5.8,5.8,0,0,0,.27-.8,1.16,1.16,0,0,0,.08-.53.3.3,0,0,0,0-.13A.1.1,0,0,0,38,70.1l-8.22,2.13-.1,0-.13,0-.08,0,0,0-.48-1.84s0,0,0-.07a.13.13,0,0,0,.05-.06l.11-.07.07-.07,10.64-2.76a1,1,0,0,1,.45.06,2.75,2.75,0,0,1,.59.25,2.83,2.83,0,0,1,.53.34.87.87,0,0,1,.27.32.8.8,0,0,1,0,.11s0,.07,0,.09a31.48,31.48,0,0,1-1.45,3.67c-.57,1.17-1.18,2.34-1.86,3.49,0,0,0,.06,0,.11a1,1,0,0,0,.35.48,4.85,4.85,0,0,0,.58.42L40,77a2.85,2.85,0,0,1,.56.33.56.56,0,0,1,0,.08.64.64,0,0,0,0,.1.73.73,0,0,1-.09.47,2.57,2.57,0,0,1-.36.61,3,3,0,0,1-.46.54,1.13,1.13,0,0,1-.45.3,3.14,3.14,0,0,1-.59-.3l-1.33-.77-1.71-1-1.69-1c-.51-.31-1-.56-1.29-.79l-.52-.34A.8.8,0,0,1,32.12,75Z"/><path class="cls-4" d="M44.57,66.85l0-.11a1.52,1.52,0,0,0,.17-.36,3.1,3.1,0,0,1,.24-.53,2.29,2.29,0,0,1,.32-.47.74.74,0,0,1,.4-.27l.1,0,.1,0c.47.19.94.37,1.41.58s.93.41,1.39.64a2.28,2.28,0,0,0,.3.19,2.46,2.46,0,0,1,.36.22l.31.16a.46.46,0,0,1,.13.08l.07.29-1,1.72-.37.1a1.38,1.38,0,0,0-.26-.14l-.41-.2-.39-.21-.27-.15a4.65,4.65,0,0,0-.57-.24,8.78,8.78,0,0,1-.82-.33,4.39,4.39,0,0,1-.75-.39.92.92,0,0,1-.41-.44S44.58,66.89,44.57,66.85Zm1.65,8.4a.54.54,0,0,1,0-.15c0-.06,0-.09.07-.13a19.44,19.44,0,0,0,2.43-1.43,15.87,15.87,0,0,0,2-1.66,15.3,15.3,0,0,0,1.7-2A21.21,21.21,0,0,0,54,67.52a3.15,3.15,0,0,0,.2-.58l.21-.8a5.14,5.14,0,0,1,.26-.7c.1-.22.2-.34.35-.37a.53.53,0,0,1,.44.16,5.12,5.12,0,0,1,.54.51,5,5,0,0,1,.47.61,1.73,1.73,0,0,1,0,2.06,10.28,10.28,0,0,1-1.12,2,23.58,23.58,0,0,1-1.71,2.1,26.14,26.14,0,0,1-2,2A17.86,17.86,0,0,1,49.72,76a5.63,5.63,0,0,1-1.51.77.81.81,0,0,1-.56-.12,3.48,3.48,0,0,1-.6-.45,4.76,4.76,0,0,1-.5-.51l-.28-.3A.78.78,0,0,1,46.22,75.25Z"/><path class="cls-4" d="M60.15,72.37s.08-.11.22-.34.33-.5.55-.85.44-.78.67-1.25a11.21,11.21,0,0,0,.63-1.47,9.53,9.53,0,0,0,.36-1.54,3.71,3.71,0,0,0-.06-1.42,1.06,1.06,0,0,0-.15-.34c-.07-.07-.18-.09-.37,0l-2.9.75-.25-.14-.43-1.65.15-.24,3.2-.83a.39.39,0,0,0,.2-.19.49.49,0,0,0,.07-.3l-.47-1.83a.26.26,0,0,1,0-.23.26.26,0,0,1,.16-.13l1.75-.46a.28.28,0,0,1,.21,0,.31.31,0,0,1,.15.18l.5,1.93c0,.06.09.1.21.13a.73.73,0,0,0,.26.06l.23-.06.35-.09.35-.09a1.4,1.4,0,0,0,.23,0l.31-.06.64-.17a2.53,2.53,0,0,0,.6-.26c.18-.09.26-.21.22-.34l0-.09s0,0,0,0l-1-1.19,0-.08a.58.58,0,0,1,0-.29.59.59,0,0,1,.19-.23,1,1,0,0,1,.26-.19.93.93,0,0,1,.25-.12.68.68,0,0,1,.46.1l.47.39a2.69,2.69,0,0,1,.37.48,1.17,1.17,0,0,1,.19.37.33.33,0,0,1,0,.29,1.7,1.7,0,0,1-.24.22c-.09.07-.16.15-.23.21a.29.29,0,0,0-.07.3.46.46,0,0,0,.25.28l.38.11a1.2,1.2,0,0,1,.4.16.67.67,0,0,1,.28.41c.06.26.16.64.29,1.15s.26,1.06.38,1.68.23,1.27.33,2a11.44,11.44,0,0,1,.08,1.91,4.75,4.75,0,0,1-.31,1.56,1.6,1.6,0,0,1-.88.92l-.2,0-.3.08-.31.08-.2,0a10,10,0,0,1-1.06.23,1.07,1.07,0,0,1-.7,0,1,1,0,0,1-.46-.47,5.77,5.77,0,0,1-.36-1,.51.51,0,0,1,0-.3c0-.09.1-.14.22-.17a6.83,6.83,0,0,1,.68-.13,3.71,3.71,0,0,0,.68-.11.94.94,0,0,0,.63-.46,2,2,0,0,0,.26-.83,5.9,5.9,0,0,0,0-1,9.21,9.21,0,0,0-.16-1.09c-.06-.36-.14-.68-.22-1s-.14-.53-.18-.69,0-.17-.07-.27a.63.63,0,0,0-.13-.26.57.57,0,0,0-.2-.18.47.47,0,0,0-.31,0l-1.93.5a.48.48,0,0,0-.3.18,1.22,1.22,0,0,0-.1.34c0,.79,0,1.5,0,2.18a12.51,12.51,0,0,1-.29,2,10.74,10.74,0,0,1-.61,1.87,15.33,15.33,0,0,1-1,1.94,3.67,3.67,0,0,1-.25.32.61.61,0,0,1-.32.24.88.88,0,0,1-.52,0,3.33,3.33,0,0,1-.6-.25,6.32,6.32,0,0,1-.56-.33,4.29,4.29,0,0,0-.42-.28Zm8.21-13.75,0-.1a.5.5,0,0,1,.18-.53,1,1,0,0,1,.51-.28.6.6,0,0,1,.4.09,4,4,0,0,1,.5.37c.14.15.29.3.41.45a1.63,1.63,0,0,1,.22.36.4.4,0,0,1,0,.28.73.73,0,0,1-.2.24l-.26.19a.88.88,0,0,1-.24.1.53.53,0,0,1-.44-.1,1.54,1.54,0,0,1-.43-.34,4.49,4.49,0,0,1-.37-.4l-.17-.25S68.37,58.66,68.36,58.62Z"/><path class="cls-2" d="M261.16,120.33c.12-3.08-.62-7.13-4.48-7.2a10.7,10.7,0,0,0-4.9,1.49,19,19,0,0,0-4,2.49c-2,1.7-3.3,4.38-2,6.92,1.44,2.9,5.12,2.32,7.49,1,3.38-1.88,6-5.28,7.88-8.61l-2.87.46c-1.91,3.56-2.64,7.53-4,11.31-1.12,3.2-3,6.83-6.13,8.43-.81.41-1.86.78-2.42-.2a2.42,2.42,0,0,1-.05-2c.68-1.66,3-2,4.51-2.54a68.24,68.24,0,0,0,11.37-5.45c.37-.23.86-.56.32-.88s-1.62.09-2,.34a62.45,62.45,0,0,1-11.1,5.3c-2.32.84-6.89,2.09-6.09,5.5s6.42,1,8.22-.12a16.06,16.06,0,0,0,5.81-7.58c1.67-4.14,2.32-8.62,4.44-12.58.28-.52-1-.42-1.19-.39a2.34,2.34,0,0,0-1.68.85,21.76,21.76,0,0,1-6.15,7.23c-.72.52-1.37.93-2.24.47a3,3,0,0,1-1.09-1.08,4.68,4.68,0,0,1-.51-3.22c.53-2.78,3.42-4.24,5.72-5.35.77-.37,1.27-.62,2.08-.18a3.86,3.86,0,0,1,1.46,1.46,9.16,9.16,0,0,1,.76,4.91c0,.57,2.86.16,2.89-.78Z"/><path class="cls-2" d="M271.06,115.7c-4.53,1.11-9.55,4.58-10.39,9.49-.33,1.91,0,4.19,1.84,5.22,2.42,1.35,5.71.17,7.94-1a15.33,15.33,0,0,0,5.46-5c1.27-1.93,2.72-5,1.08-7.1-2.74-3.55-10.34-.7-8.71,4,.93,2.72,4.34,2.79,6.66,2.19,3.2-.83,5.29-3.26,8-4.9.52-.31.3-.67-.2-.74a3.29,3.29,0,0,0-2,.54c-1.79,1.07-3.24,2.62-5.05,3.64a3.14,3.14,0,0,1-4-.63,3.4,3.4,0,0,1,.18-4.23,1.56,1.56,0,0,1,.28-.23c-.33.25-.25,0-.06.06s.66.12.95.25a3.06,3.06,0,0,1,1.62,1.73c.65,1.88-.43,4-1.43,5.61a12.87,12.87,0,0,1-3.86,3.88c-1.44.92-3.28,1.77-4.75.43a4.7,4.7,0,0,1-1-4.21c.65-3.82,4.13-7.07,7.8-8,.31-.08,1.44-.43,1.31-.92s-1.32-.2-1.59-.13Z"/><path class="cls-2" d="M295.88,109.16a139.61,139.61,0,0,0-8.64,13.4c-.62,1.08,2.25.71,2.67,0a139.7,139.7,0,0,1,8.65-13.4c.39-.54-.34-.73-.76-.73a2.55,2.55,0,0,0-1.92.76Z"/><path class="cls-2" d="M285.48,130.5v0l0,.27a1.35,1.35,0,0,1,.06-.49l-.09.27a2,2,0,0,1,.19-.39l-.18.26a1.86,1.86,0,0,1,.23-.26l-.26.23.19-.15-2.08.19.08.06-.2-.19a1,1,0,0,1,.19.26l-.12-.24a1,1,0,0,1,.1.36l0-.27a1.43,1.43,0,0,1-.06.5l.08-.28a1.4,1.4,0,0,1-.19.41l.17-.25a1.51,1.51,0,0,1-.21.23l.26-.23a1.33,1.33,0,0,1-.19.14l.32-.19-.16.07.38-.14-.15,0,.4-.06h.22a.58.58,0,0,1-.19,0l.82.41a.91.91,0,0,1-.09-.17l.12.25a1.41,1.41,0,0,1-.16-.6v.27a2,2,0,0,1,.09-.68l-.09.27a2,2,0,0,1,.25-.51l-.18.26a1.63,1.63,0,0,1,.27-.31l-.25.23a1.05,1.05,0,0,1,.27-.2L285,130a1,1,0,0,1,.23-.11l-.38.14.09,0-1.59-.34a1.88,1.88,0,0,1,.16.23l-.12-.24a1.85,1.85,0,0,1,.15.57l0-.27a1.6,1.6,0,0,1-.08.65l.09-.27a1.9,1.9,0,0,1-.21.43l.18-.26a1.61,1.61,0,0,1-.24.28l.25-.23a1.24,1.24,0,0,1-.23.17l.32-.19-.14.07a1.58,1.58,0,0,0-.74.68.75.75,0,0,0,0,.79,1.72,1.72,0,0,0,2,.21,3.05,3.05,0,0,0,1.1-.85,2.81,2.81,0,0,0,.56-1.15,2.36,2.36,0,0,0,0-1,2,2,0,0,0-.1-.35,2.69,2.69,0,0,0-.31-.55,1.54,1.54,0,0,0-1.59-.34,3.38,3.38,0,0,0-2.09,1.66,2.62,2.62,0,0,0-.22,1.88,2.58,2.58,0,0,0,.23.54,1.23,1.23,0,0,0,1,.56,3.09,3.09,0,0,0,1.64-.3,2.69,2.69,0,0,0,1.48-1.82,1.86,1.86,0,0,0,0-.34,2.17,2.17,0,0,0-.06-.57,1.72,1.72,0,0,0-.67-.94,1.56,1.56,0,0,0-1-.21,2.35,2.35,0,0,0-1.09.39,2.92,2.92,0,0,0-.93,1.07,2.8,2.8,0,0,0-.2.64,2.91,2.91,0,0,0,0,.66c0,.27.4.5.61.57a1.87,1.87,0,0,0,1.1,0,1.85,1.85,0,0,0,.95-.56l.18-.26a.72.72,0,0,0,.06-.54Z"/><path class="cls-3" d="M114.66,4.1a1.76,1.76,0,0,1-.06-.46v.22a2,2,0,0,1,.13-.68l-.09.22a1.58,1.58,0,0,1,.13-.26l-.77.6c.16-.07-.44.17-.18.06,0,0-.45.08-.27.06s-.38,0-.23,0-.34-.07-.13,0l.17,0-.27-.1a1.58,1.58,0,0,1,.36.2l-.2-.15a1.63,1.63,0,0,1,.43.51l-.1-.2a1.47,1.47,0,0,1,.17.62V4.56a1.36,1.36,0,0,1-.08.39l.1-.23a1.62,1.62,0,0,1-.1.18l1.54-.8c-.28,0,.36,0,.16,0s-.24-.07.16,0l-.28-.07.27.1a1.88,1.88,0,0,1-.44-.24l.2.15a2.11,2.11,0,0,1-.54-.65l.1.2a2.15,2.15,0,0,1-.24-.89v.22a1.52,1.52,0,0,1,.11-.6l-.09.22a1.23,1.23,0,0,1,.14-.25l-.44.42c.12-.07,0,0-.2.11l-.25.08-.31.06c.14,0,.06,0-.23,0,.14,0,.14.06-.15,0l.18,0-.27-.1a1.41,1.41,0,0,1,.38.21l-.2-.15a1.42,1.42,0,0,1,.41.47l-.1-.2a2.1,2.1,0,0,1,.2.89V3.9a5.88,5.88,0,0,1-.17,1.31l.87-.83c-.29.12.38-.1.16,0h0l.26,0-.13,0c-.22,0,.41,0,.16,0a.86.86,0,0,0-.16,0s.36.06.15,0l-.31-.09.27.1a2.45,2.45,0,0,1-.57-.32l.2.15a2,2,0,0,1-.51-.58l.11.2a1.7,1.7,0,0,1-.21-.76v.22A2,2,0,0,1,114,2.5l-.09.22a2.67,2.67,0,0,1,.31-.51l-.18.22.17-.19.1-.08c.11-.1-.28.19-.12.09l.1-.07c.11-.06.24-.09-.17.08l.12,0c.12,0,.26-.06-.22.07l.1,0c.22-.06-.42.06-.2,0h.1c.22,0-.32,0-.19,0H114c-.37,0-.27,0-.16,0l.24.08-.27-.1a1.88,1.88,0,0,1,.44.24L114,2.34a2.31,2.31,0,0,1,.57.67l-.11-.2a2,2,0,0,1,.26.93V3.52a1.67,1.67,0,0,1-.1.63c-.09.23.13.48.3.57a1.71,1.71,0,0,0,1,.14,1.92,1.92,0,0,0,1.63-1,2.46,2.46,0,0,0-.74-2.59A3,3,0,0,0,115,.53a4.24,4.24,0,0,0-2.54.69,2.78,2.78,0,0,0-1.4,3,2.89,2.89,0,0,0,2.62,1.82A3.58,3.58,0,0,0,114.73,6c.66-.12,1.57-.39,1.79-1.1a5.4,5.4,0,0,0,.15-.88,3.63,3.63,0,0,0,0-1,2.07,2.07,0,0,0-1-1.39,3,3,0,0,0-2.7-.06,1.87,1.87,0,0,0-1.06.93,2.16,2.16,0,0,0-.21.71,2.49,2.49,0,0,0,.36,1.43,2.82,2.82,0,0,0,3.37,1.11,1.72,1.72,0,0,0,1-.77,2.49,2.49,0,0,0,.18-.45,1.74,1.74,0,0,0,0-.72,2,2,0,0,0-.69-1.07,2.68,2.68,0,0,0-2-.56,2.62,2.62,0,0,0-1.86.89,2.33,2.33,0,0,0-.28,1.87.74.74,0,0,0,.57.45,2.24,2.24,0,0,0,1.09,0,2.16,2.16,0,0,0,1-.5.72.72,0,0,0,.27-.68Z"/><path class="cls-3" d="M135.38,3.28c-.16.09.38-.17.22-.11.33-.1.43-.14.29-.1l.14,0,.14,0,.29,0h-.1l.32,0-.17,0,.26.08a1.35,1.35,0,0,1-.3-.14l.2.13a1.35,1.35,0,0,1-.45-.47l.1.17a1.17,1.17,0,0,1-.16-.57v.2a1,1,0,0,1,.08-.34l-.1.2a.9.9,0,0,1,.14-.2l-.19.2a.69.69,0,0,1,.13-.11l-.26.19.06,0c.09-.07-.36.17-.26.12l-.28.1-.12,0-.12,0-.27,0h.14l-.32,0a1.22,1.22,0,0,1,.26.06l-.27-.08a1.39,1.39,0,0,1,.35.16l-.19-.13a1.35,1.35,0,0,1,.39.4l-.1-.18a.94.94,0,0,1,.13.46V3a.62.62,0,0,1,0,.23l2-1h-.07l.32,0-.22,0,.26.08a2.1,2.1,0,0,1-.26-.13l.19.13a1.38,1.38,0,0,1-.39-.41l.11.17a1.16,1.16,0,0,1-.17-.6v.2a.78.78,0,0,1,0-.22l-.55.59c.15-.08-.36.17-.22.11l-.11,0c-.3.1-.16,0-.1,0s-.43.07-.27,0H136c.14,0-.43,0-.25,0h.17l-.32,0,.27,0-.27-.08a1.78,1.78,0,0,1,.44.21l-.19-.13a1.47,1.47,0,0,1,.42.44l-.1-.17a1.18,1.18,0,0,1,.16.61V3a1.19,1.19,0,0,1-.14.56l.11-.2a1.72,1.72,0,0,1-.25.35l.19-.2a1.51,1.51,0,0,1-.23.21l.26-.19-.16.11.24-.12-.06,0c-.18.08.41-.13.25-.08l-.09,0s.47-.09.26-.06.41,0,.23,0h-.12l.32,0h0l.45.21a8.68,8.68,0,0,1-.56-.79l.1.17a2.24,2.24,0,0,1-.36-1.18v.2a1.27,1.27,0,0,1,.09-.47l-.1.21a1.31,1.31,0,0,1,.17-.24l-.19.21a1.29,1.29,0,0,1,.17-.16l-.26.19c.07-.05.3-.17,0,0s-.12.07-.05,0-.46.14-.27.09l.08,0c-.34.06-.45.08-.3.06h0c.18,0-.42,0-.25,0h.11l-.33,0,.16,0-.27-.08a.75.75,0,0,1,.18.08l-.19-.12a.52.52,0,0,1,.18.18l-.1-.18a.76.76,0,0,1,.06.16.71.71,0,0,0,.56.38,2.47,2.47,0,0,0,1.08-.07,2.33,2.33,0,0,0,1-.48c.15-.15.37-.37.29-.61A1.49,1.49,0,0,0,137,.35a4.22,4.22,0,0,0-1.57.31,3.18,3.18,0,0,0-1,.58,2,2,0,0,0-.56.78,1.79,1.79,0,0,0-.06.89,3.91,3.91,0,0,0,.86,1.68l.12.15a1,1,0,0,0,.68.27,4,4,0,0,0,.84,0A4,4,0,0,0,138,4.41a3.1,3.1,0,0,0,.9-.83,1.9,1.9,0,0,0,.33-.82,1.63,1.63,0,0,0-.57-1.46,2.74,2.74,0,0,0-1.83-.59,3.93,3.93,0,0,0-2.11.64,1,1,0,0,0-.44.6,1.94,1.94,0,0,0,0,.34,1.68,1.68,0,0,0,.07.39,1.64,1.64,0,0,0,.52.73,2.28,2.28,0,0,0,1.4.46,2.8,2.8,0,0,0,1.3-.31,1.24,1.24,0,0,0,.72-.68,1.34,1.34,0,0,0-.46-1.36A2.75,2.75,0,0,0,135.59,1a3.36,3.36,0,0,0-1.77.76,1.54,1.54,0,0,0-.54.89,1.59,1.59,0,0,0,.56,1.42,3,3,0,0,0,3.33,0,1.11,1.11,0,0,0,.55-.6.44.44,0,0,0-.29-.5,2.52,2.52,0,0,0-2.05.28Z"/><path class="cls-3" d="M154.12,3.17c-.13.07,0,0,.26-.08l.12,0A1.13,1.13,0,0,1,155,3h-.08l.33.06A1.52,1.52,0,0,1,155,3l.28.12a1.1,1.1,0,0,1-.21-.14l.2.18a1.13,1.13,0,0,1-.24-.3l.12.22a.9.9,0,0,1-.09-.32V3a.67.67,0,0,1,0-.24l-.09.25a.76.76,0,0,1,.09-.18l-.18.24a.8.8,0,0,1,.13-.13l-.25.21.06,0c.14-.12-.32.17-.21.12s-.44.16-.17.06c0,0-.45.06-.28.06h.08s-.43,0-.23,0h.1l-.34-.06a.88.88,0,0,1,.23.07l-.28-.12a.67.67,0,0,1,.2.12l-.2-.17a.82.82,0,0,1,.2.25l-.12-.23a1,1,0,0,1,.1.38V3.38a1.25,1.25,0,0,1-.07.43l.09-.25a1.34,1.34,0,0,1-.17.31l.18-.24-.18.19L154,3.6s-.24.16,0,0,.16-.09.08,0,0,0,.25-.09l1.37.11-.11-.09.2.17a2.14,2.14,0,0,1-.46-.58l.11.22a1.76,1.76,0,0,1-.19-.64v.25a1.34,1.34,0,0,1,.06-.4l-.09.26a1.19,1.19,0,0,1,.13-.25l-.18.25.11-.11-.26.22c.11-.09.2-.08-.21.11a1.69,1.69,0,0,1-.62.17c.17,0-.43,0-.25,0h.1l-.34-.06a.6.6,0,0,1,.19.06l-.27-.12a1,1,0,0,1,.25.16l-.2-.18a1.16,1.16,0,0,1,.2.24L153.82,3a.42.42,0,0,1,.06.21V3a.32.32,0,0,1,0,.13l.09-.26a.31.31,0,0,1-.05.1l.18-.24-.06.06.25-.22,0,0,1.46-.39h-.07l.33.06a.58.58,0,0,1-.16,0l.28.13a1.22,1.22,0,0,1-.19-.12l.21.17a.71.71,0,0,1-.21-.27l.11.23a1.41,1.41,0,0,1-.12-.49l0,.25a1.46,1.46,0,0,1,.07-.55l-.08.25a1.2,1.2,0,0,1,.15-.3l-.18.24.16-.18-.25.22.06-.05c.14-.12-.22.12-.22.12l.08,0c.09-.05-.44.14-.23.09s-.27,0-.26,0h.12c.16,0-.4,0-.2,0l.14,0-.34-.06a1.58,1.58,0,0,1,.37.11L155,1.9a2.16,2.16,0,0,1,.45.29l-.2-.17a2.14,2.14,0,0,1,.49.62l-.12-.22a1.55,1.55,0,0,1,.18.51.85.85,0,0,0,.6.52,1.92,1.92,0,0,0,1.09,0c.54-.16,1.35-.59,1.21-1.28a2.78,2.78,0,0,0-1.89-2,3.17,3.17,0,0,0-3.59,1.25,2,2,0,0,0,.06,2.09,1.87,1.87,0,0,0,1.33.68c.85.08,2.25-.5,2.2-1.56a1.37,1.37,0,0,0-.64-1,2.35,2.35,0,0,0-1.57-.37,2.47,2.47,0,0,0-2,1.23,1.79,1.79,0,0,0-.06,1.45,3,3,0,0,0,.91,1.2,2,2,0,0,0,2,0,2.69,2.69,0,0,0,.92-.68,2,2,0,0,0,.52-1.52,1.46,1.46,0,0,0-.75-1.11,2.87,2.87,0,0,0-2.17-.19,2.37,2.37,0,0,0-1.76,1.55,1.49,1.49,0,0,0,.64,1.47,2.48,2.48,0,0,0,2.55.11,1.67,1.67,0,0,0,.75-.64.65.65,0,0,0,0-.73,1.77,1.77,0,0,0-1.95-.15Z"/><path class="cls-3" d="M177.35,3.94a1.57,1.57,0,0,1,0-.23L177.3,4a1.23,1.23,0,0,1,.12-.26l-.17.27a1.06,1.06,0,0,1,.17-.2l-.25.24a.86.86,0,0,1,.18-.14l-.32.19.21-.1-.38.14a1,1,0,0,1,.23-.06l-.4.07.17,0h-.37l.2,0-.34-.08a.62.62,0,0,1,.19.07l-.62-.61a2.07,2.07,0,0,1,.08.42l0-.28a2.38,2.38,0,0,1-.07.7l.08-.29a1.82,1.82,0,0,1-.2.45l.17-.27a1,1,0,0,1-.23.28l.25-.24-.19.16.32-.2-.24.12.38-.14-.23.06.4-.07a1.51,1.51,0,0,1-.3,0h.38a.92.92,0,0,1-.29,0l.33.09-.26-.1.28.14a.88.88,0,0,1-.25-.18l.21.21a1,1,0,0,1-.2-.28l.12.26a.73.73,0,0,1-.07-.29l0,.28a.93.93,0,0,1,0-.33l-.08.28a1.39,1.39,0,0,1,.12-.28l-.17.26a1.24,1.24,0,0,1,.18-.21l-.25.24a.61.61,0,0,1,.16-.12l-.32.19.14-.07-.37.14.13,0-.4.06h-.24l.14,0-.34-.08.15.05L175,4.3a.45.45,0,0,1,.14.1l-.21-.21a1.27,1.27,0,0,1,.13.19l-.13-.26a.72.72,0,0,1,.08.32l0-.29a1,1,0,0,1,0,.35l.08-.28a.67.67,0,0,1-.1.21l.17-.27a.31.31,0,0,1-.09.11l.26-.24-.1.07.32-.19-.07,0,.37-.14a.29.29,0,0,1-.1,0l.4-.07H176a2,2,0,0,0-1.09.4,1.25,1.25,0,0,0-.5.8.84.84,0,0,0,.36.75,1.68,1.68,0,0,0,1,.24,2.5,2.5,0,0,0,1.43-.54,1.88,1.88,0,0,0,.71-1.78,1.47,1.47,0,0,0-.27-.66,1.56,1.56,0,0,0-.8-.58,2.41,2.41,0,0,0-.92-.12c-.1,0-.2,0-.31,0a1.83,1.83,0,0,0-.32.07,2.82,2.82,0,0,0-1.33.86,2.26,2.26,0,0,0-.49,1,.86.86,0,0,0,0,.28,1.61,1.61,0,0,0,.07.53,1.83,1.83,0,0,0,.66.87,2.58,2.58,0,0,0,1.1.44,3.29,3.29,0,0,0,1.29,0,3.07,3.07,0,0,0,1.19-.54,2.88,2.88,0,0,0,.83-.94,2.64,2.64,0,0,0,.3-.87,3,3,0,0,0,0-.94,1.08,1.08,0,0,0-.41-.78,2.17,2.17,0,0,0-.86-.31,3.06,3.06,0,0,0-1.71.27,2.75,2.75,0,0,0-1,.8,2,2,0,0,0-.45,1.11.58.58,0,0,0,.09.41.61.61,0,0,0,.27.34,1.58,1.58,0,0,0,1,.24,2,2,0,0,0,1.09-.4,1.18,1.18,0,0,0,.5-.79Z"/><path class="cls-3" d="M198.87,3.65a1.77,1.77,0,0,1-.05-.32v.24a1.66,1.66,0,0,1,.1-.59l-.09.24a1.31,1.31,0,0,1,.21-.36l-2.51.67a1.32,1.32,0,0,1,.25.16l-.2-.16A1.47,1.47,0,0,1,197,4l-.11-.22a1.83,1.83,0,0,1,.19.72V4.25a1.64,1.64,0,0,1-.09.58l.09-.24a2.1,2.1,0,0,1-.13.26l1.9-.84h-.09l.32.06a1.21,1.21,0,0,1-.25-.08l.28.12a1.69,1.69,0,0,1-.32-.19l.2.16a1.74,1.74,0,0,1-.38-.47l.12.22a2,2,0,0,1-.23-.86V3.2a1.69,1.69,0,0,1,.1-.66l-.09.25a1.48,1.48,0,0,1,.19-.35l-.18.23a1.8,1.8,0,0,1,.19-.2l-.25.21.17-.12-.33.18.18-.08-.37.13.19,0-.39.07.19,0h-.37a1.1,1.1,0,0,1,.26,0l-.33-.06a1.92,1.92,0,0,1,.32.09l-.28-.11a2,2,0,0,1,.46.28l-.2-.16a2.22,2.22,0,0,1,.5.6l-.12-.21a1.55,1.55,0,0,1,.18.66V3.67a1.1,1.1,0,0,1-.08.48l.1-.24a1.29,1.29,0,0,1-.19.32l.18-.23a1,1,0,0,1-.21.21l.26-.21-.21.15.33-.18-.23.1.37-.13-.2.05.4-.07h.2l-.2,0,.32.06a1.39,1.39,0,0,1-.19-.06l.27.12a1,1,0,0,1-.24-.15l.2.16a1.21,1.21,0,0,1-.25-.3l.12.21a1.11,1.11,0,0,1-.12-.44v.24a.79.79,0,0,1,.05-.3l-.09.24a.52.52,0,0,1,.1-.18.6.6,0,0,0,0-.7,1.21,1.21,0,0,0-.8-.34,2.45,2.45,0,0,0-1.14.22l-.33.18a1.29,1.29,0,0,0-.43.44,1.45,1.45,0,0,0-.24,1,1.53,1.53,0,0,0,.33.77,2.5,2.5,0,0,0,2.62.59,3.6,3.6,0,0,0,1.51-.82,2.17,2.17,0,0,0,.56-.75,2,2,0,0,0,.16-1,1.66,1.66,0,0,0-.15-.58,2.67,2.67,0,0,0-1.07-1.21,3.28,3.28,0,0,0-2.36-.3,3.1,3.1,0,0,0-1.92,1.29,2.16,2.16,0,0,0-.33,1.31A2.45,2.45,0,0,0,196,5a2.44,2.44,0,0,0,1.71.87,2.37,2.37,0,0,0,1.14-.22,1.83,1.83,0,0,0,.76-.62A2.21,2.21,0,0,0,198.81,2a1.88,1.88,0,0,0-1.36-.09,2.33,2.33,0,0,0-.7.32,1.32,1.32,0,0,0-.44.44A2.12,2.12,0,0,0,196,4.42a.81.81,0,0,0,.59.5,2.12,2.12,0,0,0,1.09,0,2.05,2.05,0,0,0,1-.52.82.82,0,0,0,.26-.72Z"/><path class="cls-3" d="M222.25,4.6l-.08,0,.27.1-.08,0,.2.15-.06-.08.11.21a.35.35,0,0,1,0-.17V5a.58.58,0,0,1,.06-.26l-.1.23a1.22,1.22,0,0,1,.12-.19l-.18.22.1-.1-.26.21.06,0-.32.18.06,0-.38.13h0l-.39.07h-.27l-.32-.05.06,0-.27-.1.08.05-.2-.16,0,0-.11-.44a.45.45,0,0,1,0,.2l.1-.23a.47.47,0,0,1-.06.09l.19-.22-.08.07.26-.2-.08,0,.33-.17-.09,0,.38-.13-.09,0,.39-.08-.12,0h.18l.33,0a1.38,1.38,0,0,1-.27-.08l.28.11a1.17,1.17,0,0,1-.27-.15l.2.16a.91.91,0,0,1-.2-.24l.11.2a.59.59,0,0,1-.08-.32v.23a1.47,1.47,0,0,1,.1-.54l-.09.24a2.14,2.14,0,0,1,.32-.52l-.18.23a4.41,4.41,0,0,1,.73-.7l-.26.21.07-.06-2.26.08a1.9,1.9,0,0,1,.3.4l-.11-.2a1.92,1.92,0,0,1,.2.78V3.82a1.79,1.79,0,0,1-.13.76l.1-.23a2.3,2.3,0,0,1-.25.43l.18-.23a1.29,1.29,0,0,1-.16.17.76.76,0,0,0-.27.7.76.76,0,0,0,.58.46,2.33,2.33,0,0,0,2.05-.55,2.44,2.44,0,0,0,.81-1.72,2.27,2.27,0,0,0-.62-1.72,1.24,1.24,0,0,0-1-.31,2.27,2.27,0,0,0-1.28.39,4.19,4.19,0,0,0-1.71,2.14,1.39,1.39,0,0,0,.19,1.14,1.72,1.72,0,0,0,.91.6A3,3,0,0,0,223.1,5a1,1,0,0,0,.18-.45.62.62,0,0,0-.12-.51.86.86,0,0,0-.3-.23,1.86,1.86,0,0,0-1.14-.16,2.76,2.76,0,0,0-1.51.66,1.64,1.64,0,0,0-.55,1,1,1,0,0,0,.85,1.06,2.36,2.36,0,0,0,1.09,0,2.2,2.2,0,0,0,1-.52c.16-.17.36-.43.27-.69a.79.79,0,0,0-.58-.47Z"/><path class="cls-3" d="M241.28,4.56l.09.06-.22-.21.06.08-.13-.26a.37.37,0,0,1,0,.14l0-.29a.78.78,0,0,1,0,.16l.08-.29a.87.87,0,0,1-.07.17l.17-.27a.43.43,0,0,1-.09.1l.25-.24-.06,0,.32-.2-.06,0,.37-.14h-.05l.4-.06h.25l.33.08h0l.62.62a1.67,1.67,0,0,1-.11-.44l0,.29a1.71,1.71,0,0,1,0-.45l-.08.29a1.56,1.56,0,0,1,.17-.37l-.17.27.13-.17-2.34.4a1.84,1.84,0,0,1,.22.17l-.21-.21a2.14,2.14,0,0,1,.28.39L241.35,4a1.84,1.84,0,0,1,.16.61l0-.29a2.28,2.28,0,0,1-.06.64l.07-.29a1.34,1.34,0,0,1-.19.44l.17-.27a1.33,1.33,0,0,1-.21.26l.25-.24a.83.83,0,0,1-.21.16l.32-.19-.16.08L243,4.81a.2.2,0,0,1-.08,0l.28.15a.91.91,0,0,1-.16-.11l.21.2a.88.88,0,0,1-.18-.25l.12.26a1.32,1.32,0,0,1-.1-.39l0,.29a1.58,1.58,0,0,1,0-.38l-.08.28a1.6,1.6,0,0,1,.1-.23l-.17.27a1,1,0,0,1,.13-.16l-.25.24.13-.1-.31.19,0,0a1.62,1.62,0,0,0,.74-.7.87.87,0,0,0-.07-.84,1.66,1.66,0,0,0-2-.24,2.52,2.52,0,0,0-1.08,1,2.42,2.42,0,0,0-.16.5,1.53,1.53,0,0,0,0,.3,2,2,0,0,0,.28,1.05,1.77,1.77,0,0,0,2,.74,2.68,2.68,0,0,0,.47-.18,3.9,3.9,0,0,0,.54-.36,2.89,2.89,0,0,0,.74-.92,2.67,2.67,0,0,0,.25-1.67,2.23,2.23,0,0,0-1-1.51,1.88,1.88,0,0,0-2.34.4,2.32,2.32,0,0,0-.42.69,2.29,2.29,0,0,0-.17.73,2.41,2.41,0,0,0,.09.75c0,.08.07.15.1.23a1,1,0,0,0,.59.49,2,2,0,0,0,.81.1,2.38,2.38,0,0,0,1.28-.49,1.8,1.8,0,0,0,.58-.76,1.47,1.47,0,0,0,.07-.83,1.2,1.2,0,0,0-.51-.68,1,1,0,0,0-.45-.19,1.38,1.38,0,0,0-.54,0,2,2,0,0,0-1.09.4,1.23,1.23,0,0,0-.5.8.82.82,0,0,0,.36.76Z"/><path class="cls-3" d="M260.73,4.06h0L260.66,4a.34.34,0,0,1,0,.18V4a.29.29,0,0,1-.06.17l.12-.17a.23.23,0,0,1-.07.07l.2-.17,0,0,.27-.16a.05.05,0,0,1,0,0l.33-.14h0l.38-.12h0l.39-.09h0l.36,0h.25l.26,0-.06,0,.18.09a.52.52,0,0,1-.11-.1l.09.13A.42.42,0,0,1,263,3.3v.15a.39.39,0,0,1,.05-.14l-.11.17a.08.08,0,0,1,0,0l-.2.16.06,0-.27.16.08,0-.33.15.06,0-.38.12h.07l-.39.08h.06l-.36,0h-.23l.12,0L261,4a.88.88,0,0,1,.23.07L261.07,4a1.33,1.33,0,0,1,.46.39l-.09-.12a1,1,0,0,1,.2.65V4.73a.62.62,0,0,1-.11.32l.11-.16-.08.1,1.18-.6h0l.39-.09a2.2,2.2,0,0,1-.37.06l.36,0-.25,0h.32l-.22,0,.25,0A.9.9,0,0,1,263,4.3l.18.09a.66.66,0,0,1-.24-.2l.09.13a.37.37,0,0,1-.06-.25l0,.15a.65.65,0,0,1,.11-.29l-.11.17A.45.45,0,0,1,263,4l-.2.17.06,0-.27.16,0,0-.33.14h0L262,4.5h0l-.39.08h0l-.36,0H261l-.26-.05.06,0-.18-.09a.39.39,0,0,1,.1.08.55.55,0,0,0,.3.11,1.71,1.71,0,0,0,.45,0,3.31,3.31,0,0,0,.55-.08,3,3,0,0,0,.58-.17l.33-.14a2.21,2.21,0,0,0,.47-.33l.11-.17a.23.23,0,0,0-.07-.28.72.72,0,0,0-.29-.17,1.59,1.59,0,0,0-.3-.06h-.38a4.11,4.11,0,0,0-1.54.42,2.19,2.19,0,0,0-.59.4,1.11,1.11,0,0,0-.28.42.59.59,0,0,0,0,.23.49.49,0,0,0,0,.24.72.72,0,0,0,.34.39,1.87,1.87,0,0,0,.84.25,5.37,5.37,0,0,0,1.13-.07l.22,0c.15,0,.29,0,.43-.09l.38-.12A2.69,2.69,0,0,0,264,5a2.5,2.5,0,0,0,.24-.22,1,1,0,0,0,.25-.46,1.35,1.35,0,0,0,0-.45,1.5,1.5,0,0,0-.41-.71,1.39,1.39,0,0,0-.27-.21,1.77,1.77,0,0,0-.31-.15,2,2,0,0,0-.41-.09,3.58,3.58,0,0,0-1.34.12,3.59,3.59,0,0,0-1.25.55,1.26,1.26,0,0,0-.35.38.36.36,0,0,0,0,.09.65.65,0,0,0,0,.34.71.71,0,0,0,.18.28,1,1,0,0,0,.59.2,3,3,0,0,0,.74,0,3.84,3.84,0,0,0,1.16-.37,2.23,2.23,0,0,0,.44-.29.81.81,0,0,0,.16-.16,1.07,1.07,0,0,0,.16-.25,1.81,1.81,0,0,0,0-.23.53.53,0,0,0-.15-.32.64.64,0,0,0-.3-.11,1.71,1.71,0,0,0-.45,0,3.31,3.31,0,0,0-.55.08,3.86,3.86,0,0,0-.58.17l-.33.14a2.21,2.21,0,0,0-.47.33l-.11.17a.23.23,0,0,0,.07.28Z"/><path class="cls-3" d="M284.93,4.47l.83-.89-2.69.58.11.14-.1-.14a2.48,2.48,0,0,1,.4,1.56V5.56a2.51,2.51,0,0,1-.36,1.12l.11-.18a.44.44,0,0,1-.08.11L285.85,6a3,3,0,0,1-.77-.73l.09.14a1.16,1.16,0,0,1-.22-.7v.17a.77.77,0,0,1,.12-.37l-.11.17a1.56,1.56,0,0,1,.16-.2l-.19.18.11-.09-.21.13c.12-.06,0,0-.23.11.08,0,0,0-.13,0A4.21,4.21,0,0,1,284,5a2,2,0,0,1-.55,0h.06l-.26,0,.12,0-.18-.1.11.08.83-1a2.23,2.23,0,0,1,.63-.15c.33,0,.43-.05.28-.05h.18l.26.05a.49.49,0,0,1-.17-.06l.18.1a1,1,0,0,1-.33-.3l.1.14a.79.79,0,0,1-.13-.45v.17a.58.58,0,0,1,.09-.26l-.11.17a.57.57,0,0,1,.11-.11l-.2.17c.16-.13-.25.14-.14.08s-.4.17-.25.12l-.32.1-.13,0c-.42.09.11,0-.28,0s.08,0-.24,0-.07,0,0,0l-.26-.05.21.07-.19-.09a.56.56,0,0,1,.23.2l-.09-.14a.67.67,0,0,1,.06.12.62.62,0,0,0,.53.28,2.75,2.75,0,0,0,1.07-.1,2.81,2.81,0,0,0,1-.44c.13-.11.4-.32.32-.52a1.32,1.32,0,0,0-1.19-.7,4.22,4.22,0,0,0-1.79.3,2.45,2.45,0,0,0-1.06.69,1,1,0,0,0,.07,1.33,1.41,1.41,0,0,0,.59.34,3.47,3.47,0,0,0,2.06-.21,1.91,1.91,0,0,0,.8-.49c.11-.15.19-.32,0-.48a1.33,1.33,0,0,0-.75-.28,3.67,3.67,0,0,0-1.7.27,2.37,2.37,0,0,0-1.42,1.17,1.2,1.2,0,0,0,.13,1.07,3.05,3.05,0,0,0,.89.9,1.75,1.75,0,0,0,1.31.08,3.2,3.2,0,0,0,.74-.24,1.57,1.57,0,0,0,.63-.41,3,3,0,0,0,.57-1.8,2.71,2.71,0,0,0-.6-1.61L285.6,3l-.25,0a2.6,2.6,0,0,0-.88.06,2.71,2.71,0,0,0-1.37.66l-.82.88a.32.32,0,0,0,0,.48,1.16,1.16,0,0,0,.75.16A3.42,3.42,0,0,0,284.14,5a2.23,2.23,0,0,0,.79-.49Z"/><path class="cls-3" d="M306.29,4.46h.1l.25,0a1.16,1.16,0,0,1-.32-.08l.17.07a1.39,1.39,0,0,1-.51-.39l.09.11A1.3,1.3,0,0,1,306,4l-.14.29.19-.19-.2.16a.56.56,0,0,1,.15-.1l-.28.15.07,0c.15-.08-.38.15-.25.1s-.45.13-.22.07-.45.09-.3.07h.06l-.29,0h-.2l.21,0-.25,0,.33.09-.18-.07a1.1,1.1,0,0,1,.47.35l-.08-.11a1.31,1.31,0,0,1,.23.94l0-.13a1.33,1.33,0,0,1-.27.65l.12-.15a1.26,1.26,0,0,1-.2.2l.2-.15a.57.57,0,0,1-.13.08l2.48-.44a.85.85,0,0,1-.29-.24l.08.11a1.12,1.12,0,0,1-.19-.81l0,.14a1,1,0,0,1,.19-.48l-.11.15a.93.93,0,0,1,.14-.14l-.2.15.08,0-2.3.52.07,0-.18-.07a.85.85,0,0,1,.35.27l-.08-.11a1.09,1.09,0,0,1,.21.76V5.9a.83.83,0,0,1-.16.39l.12-.15-.14.14.2-.16-.13.09.28-.16-.05,0,.27-.11c-.18.06.47-.14.27-.09l.28-.06.28,0h.09l.25,0a.9.9,0,0,1-.22-.06l.18.08a1,1,0,0,1-.31-.21.53.53,0,0,0-.3-.09,1.3,1.3,0,0,0-.44,0,3.7,3.7,0,0,0-1.13.25l-.33.14a1.88,1.88,0,0,0-.48.31l-.11.15a.17.17,0,0,0,.06.24,1.17,1.17,0,0,0,.63.33,3.33,3.33,0,0,0,1.37,0,4.43,4.43,0,0,0,2-.83,1.17,1.17,0,0,0,.39-.56,1.19,1.19,0,0,0-.32-1.2,1.76,1.76,0,0,0-1.65-.24,2.76,2.76,0,0,0-1.76,1,1.26,1.26,0,0,0-.17.57,1.2,1.2,0,0,0,0,.5,1.24,1.24,0,0,0,.31.5,1.33,1.33,0,0,0,.19.14,1.69,1.69,0,0,0,1.13.07,3.92,3.92,0,0,0,1.42-.52,1.83,1.83,0,0,0,.86-1.16,1.63,1.63,0,0,0,0-.66,1.18,1.18,0,0,0-.26-.54,2.08,2.08,0,0,0-1.8-.61,5.1,5.1,0,0,0-1.81.43,2.79,2.79,0,0,0-1.1.71.34.34,0,0,0-.13.29,1.47,1.47,0,0,0,.6.61,2.58,2.58,0,0,0,1.37.24,3.57,3.57,0,0,0,1.13-.25,1.84,1.84,0,0,0,.47-.22A1.13,1.13,0,0,0,307,5c.1-.11.23-.28,0-.4l-.17-.07a1.82,1.82,0,0,0-.57,0Z"/><path class="cls-3" d="M168.77,36.08a1,1,0,0,1-.16-.66l0,.14a1.38,1.38,0,0,1,.26-.64l-.11.16a1.47,1.47,0,0,1,.32-.34l-.2.16.1-.08s.2-.12,0,0-.08.05,0,0l-.25.11.06,0a1.8,1.8,0,0,0-.31.09l-.12,0-.13,0c.15,0-.34,0-.28,0h0l-.26,0a1,1,0,0,1,.24.07l-.18-.08a1,1,0,0,1,.38.31l-.08-.12a1.15,1.15,0,0,1,.19.81l0-.15a1.71,1.71,0,0,1-.31.81l.11-.16a1.37,1.37,0,0,1-.26.28l.2-.16-.15.1s.33-.17.21-.12l0,0c-.13.07.33-.14.27-.12h0l.15,0c.3-.1.2-.07.13,0a1.94,1.94,0,0,0,.33-.07c-.18,0,.43,0,.24,0s.37,0,.2,0h-.11l.25,0h-.07l.18.08-.08-.1.09.12a1.82,1.82,0,0,1-.3-1.22v.15a1.71,1.71,0,0,1,.31-.82l-.12.15a2.39,2.39,0,0,1,.22-.23l-.81.46.05,0a3.9,3.9,0,0,1-.67.18,2.24,2.24,0,0,1-.58,0h0l-.26,0,.13,0-.18-.08a.72.72,0,0,1,.28.24l-.09-.12a1.72,1.72,0,0,1,.29,1.15l0-.15v0a.17.17,0,0,0,0,.21.31.31,0,0,0,.22.14,2.24,2.24,0,0,0,.93,0,3.29,3.29,0,0,0,1.1-.35l.28-.15a1,1,0,0,0,.31-.32,1.88,1.88,0,0,0-.4-1.5,1.19,1.19,0,0,0-.86-.35,3.9,3.9,0,0,0-1.62.28,2.3,2.3,0,0,0-1,.64,2.23,2.23,0,0,0-.5,1.63,1.88,1.88,0,0,0,.23.69c0,.07.1.15.16.22a.41.41,0,0,0,.28.19,2.75,2.75,0,0,0,.81.06,4.78,4.78,0,0,0,1.88-.5,2.71,2.71,0,0,0,.85-.61,2,2,0,0,0,.55-1.27,1.19,1.19,0,0,0-.43-1.06,1.73,1.73,0,0,0-.9-.35,3.86,3.86,0,0,0-1.55.16,3.63,3.63,0,0,0-2.23,1.48,1.31,1.31,0,0,0,0,1.35.24.24,0,0,0,.18.16.77.77,0,0,0,.34.08,3.24,3.24,0,0,0,1.07-.13,3.16,3.16,0,0,0,1-.42l.2-.16a.35.35,0,0,0,.13-.31Z"/><path class="cls-3" d="M185.92,35.4l1,1.34a.21.21,0,0,0,.17.12.62.62,0,0,0,.33,0,3.77,3.77,0,0,0,1.06-.15,3.43,3.43,0,0,0,1-.4c.11-.07.41-.23.35-.4l-.5-1.34-.15.26.07-.05L189,35l0,0c.11-.07-.23.12-.2.1a2.24,2.24,0,0,0-.26.11l-.33.1c.09,0,0,0-.13,0a3.71,3.71,0,0,1-.54.08c-.26,0-.08,0,0,0l-.25,0,.22,0-.17-.06a.92.92,0,0,1,.27.16l-.08-.1a1.09,1.09,0,0,1,0,.18l0-.12a.84.84,0,0,1-.21.42l.12-.14a1,1,0,0,1-.19.17l.2-.14-.08.05-.05,0,.21-.11,0,0c-.11,0,.41-.16.26-.11l0,0c-.13,0,.47-.14.31-.1s.48-.1.26-.06.46,0,.25,0h.08l.24,0-.25,0,.17,0a.9.9,0,0,1-.39-.25l.09.09a.38.38,0,0,1-.09-.12l-2.08.94,1.28-.08a4,4,0,0,0,1.13-.26,2.46,2.46,0,0,0,.47-.2,1.59,1.59,0,0,0,.35-.22c.09-.09.23-.25.06-.35l-.17-.06a2.11,2.11,0,0,0-.56,0l-1.29.08a4.33,4.33,0,0,0-1.46.39,1.92,1.92,0,0,0-.48.29.29.29,0,0,0-.15.26,1.28,1.28,0,0,0,.86.57,3.54,3.54,0,0,0,.92,0,6.71,6.71,0,0,0,1.46-.33,3.09,3.09,0,0,0,1.52-1,1.09,1.09,0,0,0,.16-.4.69.69,0,0,0,0-.25c0-.09-.22-.19-.3-.22a2.81,2.81,0,0,0-1.6-.08,5.74,5.74,0,0,0-1.34.4,3.06,3.06,0,0,0-.71.43.28.28,0,0,0-.14.26l.5,1.34,2.9-.78-1-1.34a.21.21,0,0,0-.17-.12.66.66,0,0,0-.34,0,3.7,3.7,0,0,0-1.05.15,3.59,3.59,0,0,0-1,.39l-.2.15a.28.28,0,0,0-.14.26Z"/><path class="cls-3" d="M209.82,35.3l.93-1.91-2.89.6-.1,2.91c0,.2.43.3.54.32a2.64,2.64,0,0,0,1.08-.1,2.69,2.69,0,0,0,1-.45l.2-.19a.43.43,0,0,0,.11-.36l.1-2.91c0-.2-.43-.31-.54-.32a2.61,2.61,0,0,0-.88,0,2,2,0,0,0-1.47.87l-.93,1.91c-.1.2.13.38.27.44a2,2,0,0,0,.94.05,3.24,3.24,0,0,0,1.1-.36,1.26,1.26,0,0,0,.57-.55Z"/><path class="cls-3" d="M230.37,35.81a.72.72,0,0,1-.21-.25l.11.2a.78.78,0,0,1-.1-.39v.22a1.37,1.37,0,0,1,.09-.49l-.09.23a1.68,1.68,0,0,1,.2-.34l-.18.23.17-.17-.26.21a.51.51,0,0,1,.13-.09l-.32.17.11-.05-.37.13.12,0-.4.08.11,0-.37,0h.13l-.32,0h0l-.58-.45a.87.87,0,0,1,.1.39v-.23a1.1,1.1,0,0,1-.08.4l.09-.23a1.11,1.11,0,0,1-.17.3l.18-.22a1.29,1.29,0,0,1-.17.16l.26-.2a.75.75,0,0,1-.15.09l.33-.17-.12,0,.38-.13-.12,0,.39-.07h.19a2.59,2.59,0,0,0-1.13.22,1.64,1.64,0,0,0-.46.27,1.08,1.08,0,0,0-.31.33.54.54,0,0,0,0,.66,1.19,1.19,0,0,0,.79.3,3.15,3.15,0,0,0,2.7-1.27,2.23,2.23,0,0,0,.21-.44,1.34,1.34,0,0,0,.07-.27,1.32,1.32,0,0,0-.08-.71l-.13-.24a1,1,0,0,0-.49-.26,1.93,1.93,0,0,0-.42-.05,3.11,3.11,0,0,0-1,.1,3.73,3.73,0,0,0-.56.2,3.13,3.13,0,0,0-.75.49,2.09,2.09,0,0,0-.71,1.2,1.55,1.55,0,0,0,0,.71,1.24,1.24,0,0,0,.38.6.63.63,0,0,0,.33.2,1.07,1.07,0,0,0,.47.1,2.09,2.09,0,0,0,.56,0,1.88,1.88,0,0,0,.57-.17l.33-.17a1.39,1.39,0,0,0,.44-.43l.1-.23a.48.48,0,0,0-.12-.43Z"/><path class="cls-3" d="M303.36,5.68l-.05,0,.33-.16,0,0,.37-.13h0l.39-.08h-.05l.36,0h-.07l.32,0h-.09l.26.06a.51.51,0,0,1-.15-.07l.18.12a1,1,0,0,1-.25-.25l.1.15a.84.84,0,0,1-.13-.44v.18a.55.55,0,0,1,.07-.24l-.11.19a.64.64,0,0,1,.1-.13l-.19.19a.39.39,0,0,1,.1-.08l-.27.18.09,0-.33.15.07,0-.38.13.1,0-.39.08h.11l-.36,0h.13l-.32,0,.19,0-.26-.06a1,1,0,0,1,.28.11l-.19-.11a.89.89,0,0,1,.3.28l-.1-.15a1,1,0,0,1,.16.62V6a1.45,1.45,0,0,1-.2.67l.11-.19a2.42,2.42,0,0,1-.27.36L306,6.43a3.3,3.3,0,0,1-.37-1.37v.18a1.43,1.43,0,0,1,.13-.54l-.1.19a.7.7,0,0,1,.13-.17l-.2.19.13-.1-.27.17.13-.07-.33.16.11,0-.38.12.12,0-.39.08.14,0-.37,0h.14l-.32,0,.13,0-.26-.06a.64.64,0,0,1,.18.06l-.19-.11a.73.73,0,0,1,.18.17l-.1-.15a.45.45,0,0,1,.07.18c0,.22.38.31.54.33a2.42,2.42,0,0,0,1.07-.09,2.53,2.53,0,0,0,1-.46c.16-.14.35-.31.31-.55a.94.94,0,0,0-.61-.66,2.69,2.69,0,0,0-.84-.14,4.48,4.48,0,0,0-1,.14,3.39,3.39,0,0,0-1.65.92A1.63,1.63,0,0,0,302.76,6a3.52,3.52,0,0,0,.38,1.23.56.56,0,0,0,.41.3,1.85,1.85,0,0,0,.81,0,4.15,4.15,0,0,0,.77-.2,2.22,2.22,0,0,0,.79-.52,2,2,0,0,0,.58-1.53,1.34,1.34,0,0,0-.91-1.11A3,3,0,0,0,304.2,4a3.7,3.7,0,0,0-1.74.68,1.75,1.75,0,0,0-.36.36.91.91,0,0,0-.18.4.94.94,0,0,0,.1.64,1.25,1.25,0,0,0,.65.59,2.13,2.13,0,0,0,.79.11,3.64,3.64,0,0,0,1.65-.45c.19-.1.51-.32.57-.55a.38.38,0,0,0-.28-.44,1.87,1.87,0,0,0-.94-.06,3.55,3.55,0,0,0-1.1.36Z"/><path class="cls-3" d="M165.76,36.1a.5.5,0,0,1,.19.13l-.09-.09a.56.56,0,0,1,.11.47l0-.13a.66.66,0,0,1-.11.24l.12-.14-.08.07.2-.15c-.09.06,0,0,.23-.11l2.19-.32a1.06,1.06,0,0,1-.35-.28l.08.1a1.36,1.36,0,0,1-.28-1.08l0,.12a1.17,1.17,0,0,1,.26-.55l-.12.14a.93.93,0,0,1,.18-.16l-.2.14.08,0c.17-.1-.31.15-.17.09s-.43.16-.23.09-.48.14-.26.08c-.35.08-.46.1-.32.08s0,0-.29,0h0l-.25,0a1.73,1.73,0,0,1,.31.07l-.18-.06a1.21,1.21,0,0,1,.52.34l-.08-.1a1.2,1.2,0,0,1,.23,1l0-.13a1.34,1.34,0,0,1-.3.65l.12-.14a1,1,0,0,1-.21.19l.2-.14s-.22.12,0,0l.11-.06,0,0c-.14.07.41-.16.25-.1a2.18,2.18,0,0,0-.47.21,1.3,1.3,0,0,0-.34.21c-.1.09-.23.26-.06.36l.17.06a1.75,1.75,0,0,0,.56,0,5,5,0,0,0,1.13-.25,2.9,2.9,0,0,0,1.51-1,1.59,1.59,0,0,0,.25-.9,1.26,1.26,0,0,0-.38-.85,1.53,1.53,0,0,0-.9-.41,3.36,3.36,0,0,0-.95,0,6.18,6.18,0,0,0-1.78.48,2.19,2.19,0,0,0-1.15.95,1.47,1.47,0,0,0,.36,1.73,1.33,1.33,0,0,0,.19.14,1.3,1.3,0,0,0,.78.09,4.46,4.46,0,0,0,1.48-.4c.29-.14.7-.35.81-.69a1,1,0,0,0,0-.51.66.66,0,0,0-.35-.38,1.64,1.64,0,0,0-.73-.07,4.32,4.32,0,0,0-1.13.26l-.34.13a2.36,2.36,0,0,0-.48.29c-.07.08-.25.29-.06.36Z"/><path class="cls-3" d="M187.58,35.83a.47.47,0,0,1-.07.12l.18-.21-.1.1.26-.2-.07,0,.32-.17-.07,0,.37-.13a.2.2,0,0,1-.11,0l.4-.07h-.09l.37,0h-.09l.32,0-.11,0,.27.09-.1,0,.19.13a1.15,1.15,0,0,1-.14-.17l.11.18a.87.87,0,0,1-.11-.41v.21a1.22,1.22,0,0,1,.11-.5l-.1.21a1.79,1.79,0,0,1,.22-.34l-.18.21a1.21,1.21,0,0,1,.2-.19l-.26.2a.91.91,0,0,1,.16-.11l-.32.17.13-.06-.38.13.12,0-.39.08.12,0-.37,0h.15l-.33,0,.18,0-.27-.09.23.11-.2-.13a.92.92,0,0,1,.28.31l-.1-.19a1.45,1.45,0,0,1,.17.67v-.21a1.37,1.37,0,0,1-.13.59l.1-.22a1.24,1.24,0,0,1-.17.27l.18-.21a.67.67,0,0,1-.15.14l.27-.2-.14.09.33-.17-.12.05.38-.13-.14,0,.4-.08-.14,0,.36,0h-.19l.33,0-.22,0,.27.09a1.43,1.43,0,0,1-.37-.19l.19.14a1.71,1.71,0,0,1-.44-.49l.11.18a1.22,1.22,0,0,1-.17-.61v.21a1,1,0,0,1,.08-.42l-.1.21a1,1,0,0,1,.1-.17l-.18.21.07-.06-.27.19.06,0-.33.17.06,0-.38.13h0l-.39.07h-.24l-.32,0h.06l-.27-.09a.71.71,0,0,1,.15.08L187,35.2a1.46,1.46,0,0,1,.36.42l-.11-.18a1.89,1.89,0,0,1,.24.87V36.1a1,1,0,0,1-.08.42l.1-.21-.08.13.18-.21-.07.06.26-.19,0,0L188,36l0,0,.38-.13-.06,0,.39-.08h-.09l.37,0h0l.59.13a1.09,1.09,0,0,1-.23-.14l.19.14a1.57,1.57,0,0,1-.45-.51l.1.18a1.75,1.75,0,0,1-.22-.81V35a1.43,1.43,0,0,1,.11-.58c.09-.23-.13-.45-.3-.54a1.74,1.74,0,0,0-1-.11,2.68,2.68,0,0,0-1.09.38l-.26.19a.89.89,0,0,0-.29.43,2,2,0,0,0-.08,1.1,1.69,1.69,0,0,0,.15.43,2.38,2.38,0,0,0,.35.54,2.09,2.09,0,0,0,.52.42,2,2,0,0,0,1.45.15,2.21,2.21,0,0,0,1.78-1.28,1,1,0,0,0,.06-.35,2.35,2.35,0,0,0,0-.59,2.26,2.26,0,0,0-.45-.92,1.64,1.64,0,0,0-.81-.5,2.55,2.55,0,0,0-.87,0,3.08,3.08,0,0,0-1.24.44,1.77,1.77,0,0,0-.76,1,1.57,1.57,0,0,0,0,.61,1.75,1.75,0,0,0,.42.94,2.25,2.25,0,0,0,1.12.7,2.19,2.19,0,0,0,.72.09,4.19,4.19,0,0,0,1.48-.29,2.6,2.6,0,0,0,1.23-1,1.8,1.8,0,0,0,.29-.87,1.77,1.77,0,0,0-.15-.88,1.58,1.58,0,0,0-.76-.77,3,3,0,0,0-2.16,0,3.2,3.2,0,0,0-1.51,1,2.29,2.29,0,0,0-.29.53,1.61,1.61,0,0,0-.1.36,1.33,1.33,0,0,0,.3,1,.81.81,0,0,0,.34.24,2.13,2.13,0,0,0,.75.15,2.87,2.87,0,0,0,.92-.11,3.38,3.38,0,0,0,.86-.35,1.5,1.5,0,0,0,.4-.3,1.23,1.23,0,0,0,.31-.37.38.38,0,0,0,.09-.32.3.3,0,0,0-.1-.29,1.19,1.19,0,0,0-.79-.27,2.75,2.75,0,0,0-1.13.23l-.33.17a1.44,1.44,0,0,0-.45.4Z"/><path class="cls-3" d="M208.39,35.26l.18,0-.4.07H208a.9.9,0,0,1,.23,0l-.33-.07a1.42,1.42,0,0,1,.29.1l-.27-.13a2,2,0,0,1,.38.26l-.2-.18a1.68,1.68,0,0,1,.41.54l-.12-.23a1.57,1.57,0,0,1,.18.64V36a1.3,1.3,0,0,1-.06.44l.09-.25a1.08,1.08,0,0,1-.16.3l.18-.24,0,.05,2.33-.43a2.36,2.36,0,0,1-.42-.28l.21.18a1.78,1.78,0,0,1-.45-.57l.12.23a1.43,1.43,0,0,1-.16-.57l0,.25a1.23,1.23,0,0,1,0-.38l-.08.26a.91.91,0,0,1,.13-.26l-.18.24a1.07,1.07,0,0,1,.18-.19L210,35a1.33,1.33,0,0,1,.19-.14l-.32.19a1.11,1.11,0,0,1,.19-.09l-.38.14.2,0-.4.07.17,0h-.37l.17,0-.34-.07.16,0L209,35a.62.62,0,0,1,.19.12l-.2-.18a1,1,0,0,1,.19.27l-.11-.24a3.39,3.39,0,0,1,.22,1.13l0-.26a2.15,2.15,0,0,1-.06.67l.09-.26a1.15,1.15,0,0,1-.14.27l.18-.24a.47.47,0,0,1-.1.1l.25-.22-.1.08.32-.19-.1,0,.38-.14-.14,0,.4-.07h.08l.33.07-.15-.05.28.13-.12-.08.2.18a.44.44,0,0,1-.08-.11l.11.23a.74.74,0,0,1,0-.14c0-.27-.38-.47-.6-.54a2.12,2.12,0,0,0-2.05.55.93.93,0,0,0-.25.76,1.17,1.17,0,0,0,.1.26.91.91,0,0,0,.15.23,1.6,1.6,0,0,0,.72.42,3,3,0,0,0,2.36-.41A2,2,0,0,0,212.2,36a4.16,4.16,0,0,0-.06-1.27,2.15,2.15,0,0,0-.12-.5,2.41,2.41,0,0,0-.22-.42,2.06,2.06,0,0,0-.33-.33,1.52,1.52,0,0,0-.57-.28,2.52,2.52,0,0,0-1-.09,2.82,2.82,0,0,0-2.59,1.95,1.73,1.73,0,0,0,0,.75,2.34,2.34,0,0,0,.3.71A1.92,1.92,0,0,0,208,37a3,3,0,0,0,.64.49,1.78,1.78,0,0,0,1.18.16,1.93,1.93,0,0,0,1.15-.58,2.17,2.17,0,0,0,.51-1.13,2.1,2.1,0,0,0-.13-1,2.5,2.5,0,0,0-.53-.83,2.7,2.7,0,0,0-1-.67,2.07,2.07,0,0,0-.7-.13,3.39,3.39,0,0,0-1.14.12,2.13,2.13,0,0,0-1,.55.84.84,0,0,0-.25.76c.22.65,1.15.71,1.69.53Z"/><path class="cls-3" d="M229.7,35.3h.35l-.17,0,.33.06a.7.7,0,0,1-.19-.06l.27.12a1.06,1.06,0,0,1-.26-.17l.21.18a1.27,1.27,0,0,1-.3-.39l.12.23a1.33,1.33,0,0,1-.15-.56V35a1,1,0,0,1,.06-.43l-.09.25a.76.76,0,0,1,.13-.23l-.18.24a.86.86,0,0,1,.13-.14l-.26.22.13-.09-.32.18.15-.07-.38.14.13,0-.39.07h-.2l.21,0-.33-.06a1.52,1.52,0,0,1,.28.09l-.27-.13a1.46,1.46,0,0,1,.33.22l-.2-.18a1.4,1.4,0,0,1,.3.38l-.12-.23a1,1,0,0,1,.11.39v-.26a1.13,1.13,0,0,1,0,.32l.09-.26a1.08,1.08,0,0,1-.14.26l.18-.24-.17.17.26-.22-.18.13.32-.19a.66.66,0,0,1-.19.09l.38-.13-.18,0,.39-.07-.21,0H230l-.19,0,.33.06a.66.66,0,0,1-.2-.06l.27.12a1.06,1.06,0,0,1-.26-.17l.2.18a1.31,1.31,0,0,1-.25-.33l.11.22a1.14,1.14,0,0,1-.12-.48V35a.92.92,0,0,1,0-.37l-.09.26a.08.08,0,0,1,0-.05l-1.13.78.1,0-.39.07.16,0h-.19l-.33-.06.23.07-.28-.12a1.16,1.16,0,0,1,.32.2l-.2-.18a1.4,1.4,0,0,1,.28.36l-.12-.23a.87.87,0,0,1,.11.41v-.25a.86.86,0,0,1,0,.16.7.7,0,0,0,.34.66,1.56,1.56,0,0,0,1,.18,2.18,2.18,0,0,0,1.1-.39,1.19,1.19,0,0,0,.52-.72,1.81,1.81,0,0,0-.87-1.7,2.54,2.54,0,0,0-1.16-.36,3.22,3.22,0,0,0-1,.1,1.74,1.74,0,0,0-1.17.82A1.68,1.68,0,0,0,227,35a1.64,1.64,0,0,0,0,.54,1.28,1.28,0,0,0,.07.34,2,2,0,0,0,.24.46,2,2,0,0,0,.41.41,2.12,2.12,0,0,0,1.14.42,3.5,3.5,0,0,0,1.69-.29,2.7,2.7,0,0,0,1-.76,2.17,2.17,0,0,0,.33-.5,1.88,1.88,0,0,0,.14-.53,1.86,1.86,0,0,0,0-.47,1.74,1.74,0,0,0-.22-.48,1.79,1.79,0,0,0-.55-.58,2.19,2.19,0,0,0-.75-.37,3.29,3.29,0,0,0-1.59,0,3,3,0,0,0-1.37.77,2,2,0,0,0-.5.88,1.8,1.8,0,0,0,0,.8,2.13,2.13,0,0,0,.31.75,1.86,1.86,0,0,0,.59.56,2,2,0,0,0,.52.23,3,3,0,0,0,1,.09,1.59,1.59,0,0,0,.58-.14,1.35,1.35,0,0,0,.51-.25,1,1,0,0,0,.35-.34.84.84,0,0,0,.18-.38.69.69,0,0,0-.34-.66l-.27-.12a1.7,1.7,0,0,0-.71-.06Z"/><path class="cls-3" d="M252.88,37.31a4.48,4.48,0,0,0,.64-.09l.25-.07a4.12,4.12,0,0,0,.58-.23,3.5,3.5,0,0,0,.53-.31,3,3,0,0,0,.62-.55,2.69,2.69,0,0,0,.31-.44,1.38,1.38,0,0,0,.14-.24.73.73,0,0,0-.06-.78.77.77,0,0,0-.35-.27,1.07,1.07,0,0,0-.47-.14,2.13,2.13,0,0,0-1.14.2,1.7,1.7,0,0,0-.75.68l-.67,1.23a.6.6,0,0,0-.08.41.58.58,0,0,0,.13.38.81.81,0,0,0,.35.26,1.12,1.12,0,0,0,.48.14,2.15,2.15,0,0,0,1.14-.2,1.68,1.68,0,0,0,.74-.68l.68-1.23-2.77-.31a1.36,1.36,0,0,1-.13.24l.17-.26a1.75,1.75,0,0,1-.28.33l.25-.23a1.78,1.78,0,0,1-.31.23l.32-.19a1.23,1.23,0,0,1-.31.14l.38-.13-.31.08.4-.07-.21,0a1.65,1.65,0,0,0-.58.14,1.54,1.54,0,0,0-.51.26,1.07,1.07,0,0,0-.34.36.8.8,0,0,0-.17.4l0,.27a.81.81,0,0,0,.33.44,1.68,1.68,0,0,0,1,.21Z"/><path class="cls-3" d="M253.71,37a1.65,1.65,0,0,0,.54-.71,2.56,2.56,0,0,0,.1-.54,2.38,2.38,0,0,1,.17-1l-.11.18a.43.43,0,0,1,.09-.1l-.2.18s.13-.09-.08,0-.15.1-.1.07,0,0-.28.13a3.9,3.9,0,0,1-.67.18,1.79,1.79,0,0,1-.4,0c-.12,0-.14,0-.06,0l-.26-.06a1.39,1.39,0,0,1,.28.12l-.19-.11a2.22,2.22,0,0,1,.77.72l-.09-.15a1.68,1.68,0,0,1,.27.94v-.17a1.3,1.3,0,0,1-.16.55l.1-.18a1.31,1.31,0,0,1-.25.32l.19-.18-.14.12c-.11.08.3-.18.14-.1,0,0,.4-.18.21-.1l.13,0A1.09,1.09,0,0,1,254,37c.17,0,.21,0,.12,0l.28,0h.2l-.12,0,.26.06a.76.76,0,0,1-.21-.08l.18.11a1,1,0,0,1-.28-.27l.09.14a1,1,0,0,1-.16-.64v.17a.76.76,0,0,1,.11-.35l-.11.18a.69.69,0,0,1,.11-.13l-.2.18c.16-.14-.31.17-.12.07s.51-.31.57-.53a.34.34,0,0,0-.26-.42,2,2,0,0,0-.94,0,3.55,3.55,0,0,0-1.1.36,1.58,1.58,0,0,0-.94,1.09,1.29,1.29,0,0,0,.29,1,1.72,1.72,0,0,0,1.47.49,4,4,0,0,0,2.66-1.12,1.71,1.71,0,0,0,.47-1.3,2,2,0,0,0-.54-1.16,2.32,2.32,0,0,0-1.39-.78,2.76,2.76,0,0,0-.86,0,3.87,3.87,0,0,0-1.19.39,1.8,1.8,0,0,0-.66.53,1.94,1.94,0,0,0-.27,1,2.07,2.07,0,0,1-.19.91l.11-.18a.75.75,0,0,1-.14.17l.2-.18h0c-.14.12-.37.32-.32.54s.37.28.54.3a2.75,2.75,0,0,0,1.07-.1,2.37,2.37,0,0,0,1-.45Z"/><path class="cls-3" d="M263.62,3.52l-.05,0,.27.09-.13-.07.19.14a.64.64,0,0,1-.13-.15l.1.18a.78.78,0,0,1-.09-.34v.21a.82.82,0,0,1,.07-.31l-.1.22a.38.38,0,0,1,.09-.13l-.19.21a.27.27,0,0,1,.08-.07l-.27.19.09,0-.33.16.09,0-.38.13.09,0-.39.08h.09l-.36,0h.12l-.32,0,.19,0-.27-.08a1,1,0,0,1,.27.13l-.2-.13a.92.92,0,0,1,.3.32l-.1-.18a1.52,1.52,0,0,1,.16.69v-.2a2.72,2.72,0,0,1-.09.56l.29-.42a.18.18,0,0,1-.07,0l.26-.19-.12.08.33-.17-.14.06.38-.13-.14,0,.39-.08-.17,0,.36,0h-.17l.32,0a1.36,1.36,0,0,1-.29-.06l.26.09a1.3,1.3,0,0,1-.31-.16l.19.13a1.12,1.12,0,0,1-.32-.33l.11.17a1.07,1.07,0,0,1-.14-.5v.21a1.36,1.36,0,0,1,.12-.49l-.1.21a1.11,1.11,0,0,1,.21-.32l-.19.21a1.54,1.54,0,0,1,.19-.17l-.27.19.16-.1-.32.17a.61.61,0,0,1,.14-.07l-.38.13.12,0-.39.08.13,0-.37,0h0l-.78-.25a1.17,1.17,0,0,1,.34.36l-.1-.17a1.44,1.44,0,0,1,.18.71V4.12a1.69,1.69,0,0,1-.16.73l.1-.21a1.46,1.46,0,0,1-.22.33l.19-.21a1.12,1.12,0,0,1-.2.18l.27-.19-.16.09.33-.16-.15.06.38-.13-.06,0,1.54.15a3.31,3.31,0,0,1-.5-.62l.1.17a1.34,1.34,0,0,1-.2-.64V3.9a.85.85,0,0,1,.06-.36l-.1.21a.76.76,0,0,1,.08-.11l-.19.21.08-.08-.26.19.09,0-.33.16.09,0-.38.13a.23.23,0,0,1,.11,0l-.39.07h.11l-.36,0h.13l-.32,0,.15,0-.26-.08a.6.6,0,0,1,.16.08l-.19-.14.11.12-.1-.17a.32.32,0,0,1,0,.14V4a.53.53,0,0,1,0,.13.46.46,0,0,0,.29.52,1.85,1.85,0,0,0,1,.1,2.68,2.68,0,0,0,1.09-.38,1.19,1.19,0,0,0,.55-.6.9.9,0,0,0,0-.23.53.53,0,0,0,0-.22.9.9,0,0,0-.43-.47,2.34,2.34,0,0,0-1.43-.2,3.56,3.56,0,0,0-1,.26,2.44,2.44,0,0,0-.79.51,1.26,1.26,0,0,0-.41.69,1.39,1.39,0,0,0,0,.67,2.4,2.4,0,0,0,.36.69,3.15,3.15,0,0,0,.41.48,1,1,0,0,0,.62.24,2.37,2.37,0,0,0,.92-.08,3.06,3.06,0,0,0,1.9-1.33A2.18,2.18,0,0,0,265,3.28a1.69,1.69,0,0,0-.29-.66.83.83,0,0,0-.16-.21l-.1-.08-.14-.1a1.3,1.3,0,0,0-.72-.19,3.37,3.37,0,0,0-1,.15,3.73,3.73,0,0,0-1,.42,2.65,2.65,0,0,0-.86.84,1.72,1.72,0,0,0-.25.88,1.42,1.42,0,0,0,.26.84,1.73,1.73,0,0,0,.63.51,2.79,2.79,0,0,0,1.14.25,3.85,3.85,0,0,0,1.64-.33,3,3,0,0,0,.79-.48,1.08,1.08,0,0,0,.38-.76,2.08,2.08,0,0,0-.08-1,1.59,1.59,0,0,0-.71-.82A2.59,2.59,0,0,0,263,2.33a3.42,3.42,0,0,0-1.35.48,2,2,0,0,0-.62.6,1.2,1.2,0,0,0-.13.94,1.15,1.15,0,0,0,.93.73A2.46,2.46,0,0,0,262.93,5a2.39,2.39,0,0,0,1-.48c.15-.15.37-.39.28-.63a.66.66,0,0,0-.56-.39Z"/><path class="cls-3" d="M305.61,4.19l.09-.09-.2.17.07,0c.14-.11-.25.13-.15.08s.17-.08-.08,0l-.11,0-.28.09s-.45.09-.27.06c0,0-.41,0-.24,0s-.3,0-.17,0h.1l-.25-.05.23.07-.27-.21a1,1,0,0,1,.08.51l0-.15a1.21,1.21,0,0,1-.22.55l.12-.16a2.39,2.39,0,0,1-.22.23l.2-.17-.11.08s.31-.17.18-.11l.27-.11.12,0a1.68,1.68,0,0,1,.32-.09l.14,0,.25,0c-.12,0,.32,0,.2,0h-.09l.25,0a.73.73,0,0,1-.25-.08l.18.09a1.32,1.32,0,0,1-.44-.37l.09.12a1.09,1.09,0,0,1-.21-.72l0,.16a.94.94,0,0,1,.16-.43l-.12.17a1.15,1.15,0,0,1,.21-.23l-.2.17.08-.06c.1-.07.19-.07-.16.09.13-.06.2,0-.2.09.13-.05.27-.07-.25.08.18-.06-.46.08-.26,0l-.3,0H304s-.36,0-.2,0h.12l-.25,0,.22.07L303.68,4a1.07,1.07,0,0,1,.41.35L304,4.24a2.32,2.32,0,0,1,.36,1.52V5.61a1.53,1.53,0,0,1-.23.71l.11-.17a1,1,0,0,1-.17.19l.2-.17-.09.07.21-.12a2.3,2.3,0,0,1,.43-.18,2.11,2.11,0,0,1,.5-.1c.34,0,.44-.06.3-.06s.38,0,.19,0l.25,0a.48.48,0,0,1-.2-.07l.18.09a.84.84,0,0,1-.31-.25l.09.12a.57.57,0,0,1-.11-.33v.15a.45.45,0,0,1,.07-.18l-.12.17,0,0c.12-.14.2-.3,0-.44A1.16,1.16,0,0,0,305,4.9a3.68,3.68,0,0,0-1.13.24,2,2,0,0,0-.8.47.75.75,0,0,0-.2.76,1,1,0,0,0,.47.5,2.54,2.54,0,0,0,1.72.11,4.07,4.07,0,0,0,1.22-.45,2.37,2.37,0,0,0,.56-.44,2,2,0,0,0,.42-1.61,2,2,0,0,0-.73-1.43,1.84,1.84,0,0,0-1-.29,5,5,0,0,0-2.24.49,2.54,2.54,0,0,0-.92.67,1.32,1.32,0,0,0-.32.85,1.45,1.45,0,0,0,1,1.27,1.68,1.68,0,0,0,.55.11A3.91,3.91,0,0,0,304.92,6a3.8,3.8,0,0,0,1.62-.83,1.65,1.65,0,0,0,.48-.76,1.09,1.09,0,0,0-.09-.88c-.14-.2-.57-.25-.79-.27a3.89,3.89,0,0,0-1,.06,4,4,0,0,0-2.15,1c-.12.13-.19.31,0,.44a1.16,1.16,0,0,0,.75.13,3.56,3.56,0,0,0,1.13-.24,2.29,2.29,0,0,0,.8-.47Z"/><path class="cls-3" d="M222.17,3.32l-.08,0,.17.06a.57.57,0,0,1-.15-.12l.08.1a.56.56,0,0,1-.08-.34l0,.13a.4.4,0,0,1,.07-.18L222,3.1s.13-.11,0,0l0,0-.2.1a3,3,0,0,1-.69.23l-.29.05h-.26c.16,0-.18,0-.09,0l.24.07-.17-.06a1.18,1.18,0,0,1,.47.33l-.08-.1a1,1,0,0,1,.2.8l0-.13a1.25,1.25,0,0,1-.27.57l.12-.14s-.12.16-.17.17l.12-.09c-.07,0-.05,0,.06,0l.07,0c-.21.09,0,0,.56-.2a5.3,5.3,0,0,1,.55-.1c.22,0,.28,0,.19,0h.05c.17,0,0,0,0,0l-.14,0,.18.06a1.69,1.69,0,0,1-.64-.48l.09.1a3.21,3.21,0,0,1-.71-2.28l0,.13a1.25,1.25,0,0,1,.25-.59l-.12.14.12-.12c.12-.12-.11.06-.15.08a2.89,2.89,0,0,1-.58.22,1.78,1.78,0,0,1-.39.07h-.06c-.06,0-.3,0-.1,0s-.23-.05-.07,0l.3.08-.18-.06a2,2,0,0,1,.82.59l-.08-.1a2,2,0,0,1,.43,1.48l0-.13a1.82,1.82,0,0,1-.36.8l.12-.15a1.49,1.49,0,0,1-.17.18l-.11.1.08-.06-.12.08c-.13.08.14-.08.15-.08l-.07,0c-.1,0,0,0,.22-.08-.06,0-.23.08,0,0l.12,0,.27-.06c-.06,0-.23,0,0,0s.17,0,.11,0h-.08s.35,0,.14,0-.14-.05.09,0l-.12,0a1.11,1.11,0,0,1-.26-.07l.17.06-.09,0a1.39,1.39,0,0,0-.73-.08,4.31,4.31,0,0,0-1.13.25,2.18,2.18,0,0,0-.81.43c-.08.09-.26.29-.06.38a3.15,3.15,0,0,0,1.49.22,6.21,6.21,0,0,0,2.2-.56,2.78,2.78,0,0,0,1.7-1.7,2.08,2.08,0,0,0-.58-1.92A2.89,2.89,0,0,0,220.9.79,3.86,3.86,0,0,0,218.55,2a1.62,1.62,0,0,0-.28,1A3.37,3.37,0,0,0,219,5a1.84,1.84,0,0,0,.92.63,4,4,0,0,0,2.39-.25,3,3,0,0,0,1.49-1,1.41,1.41,0,0,0,.2-1,1.28,1.28,0,0,0-.64-.8,3,3,0,0,0-1.89-.15A5.6,5.6,0,0,0,220,3a1.63,1.63,0,0,0-.71.59.63.63,0,0,0,.52.88,2.58,2.58,0,0,0,.92,0,4.14,4.14,0,0,0,1.1-.34c.2-.1.51-.23.6-.44s-.08-.26-.23-.29Z"/><path class="cls-3" d="M155.12,3.53l.09,0L155,3.47a.93.93,0,0,1,.2.1L155,3.44a1,1,0,0,1,.26.28l-.1-.17a1.27,1.27,0,0,1,.16.64V4a1.43,1.43,0,0,1-.13.54l.1-.21a1.64,1.64,0,0,1-.14.22l.19-.2-.13.11.27-.19-.1.06.33-.16-.11,0,.38-.13-.11,0,.4-.08-.12,0,.37,0h-.14l.33,0-.18,0,.27.08A1.23,1.23,0,0,1,156.5,4l.19.12a1.4,1.4,0,0,1-.41-.43l.1.17a1.37,1.37,0,0,1-.19-.68v.2a1.17,1.17,0,0,1,.1-.41l-.1.2.08-.12a.43.43,0,0,0,0-.56,1.13,1.13,0,0,0-.77-.23,2.77,2.77,0,0,0-1.14.23,1.86,1.86,0,0,0-.78.54,1.49,1.49,0,0,0-.15,1.51,1.8,1.8,0,0,0,.47.63,2,2,0,0,0,.94.42,3.36,3.36,0,0,0,.95,0,4.19,4.19,0,0,0,1-.27,3,3,0,0,0,.77-.47,1.92,1.92,0,0,0,.34-.36,1.65,1.65,0,0,0,.27-.66,1.78,1.78,0,0,0,0-.69,1.45,1.45,0,0,0-.33-.64,1.78,1.78,0,0,0-.38-.28l-.13-.06a2.79,2.79,0,0,0-.39-.1,2.61,2.61,0,0,0-1.08.07,2.31,2.31,0,0,0-.55.21,1.54,1.54,0,0,0-.42.26c-.15.14-.38.37-.3.6a.68.68,0,0,0,.56.37Z"/><path class="cls-3" d="M134.59,4.16c.51,0,1.65-.22,1.93-.71s-.26-.56-.71-.56-1.65.22-1.93.71.26.56.71.56Z"/><path class="cls-3" d="M242,5.46A2.74,2.74,0,0,1,241.67,4l0,.16a2.91,2.91,0,0,1,.13-.64l-.31.35.06,0-.18.11c.12-.06.28-.09-.18.07.25-.09-.42.12-.22.07l-.24,0-.21,0h-.14l.27,0-.25,0a2.19,2.19,0,0,1,.49.17l-.19-.09a1.53,1.53,0,0,1,.59.51l-.1-.14a1.22,1.22,0,0,1,.21.76l0-.16a1.16,1.16,0,0,1-.18.51l.11-.17a2.08,2.08,0,0,1-.27.32l.19-.18a.87.87,0,0,1-.11.09l-.06,0c-.1.08.31-.18.17-.1s-.26.12,0,0,.15-.07.09,0-.29.06.27-.08h-.06c-.16.05.34-.07.29-.06h-.07c-.13,0,.38,0,.26,0h.14l-.15,0,.26.06a1.22,1.22,0,0,1-.27-.09l.19.09a1.13,1.13,0,0,1-.4-.35l.09.13a2.64,2.64,0,0,1-.34-1.56v.16a2.1,2.1,0,0,1,.29-1l-.11.17a1.42,1.42,0,0,1,.25-.3l-.2.18.11-.09c.17-.13-.25.13-.13.08l0,0-.22.1,0,0-.27.09-.23,0c.19,0-.4,0-.21,0s-.33,0-.16,0l.15,0-.25,0,.25.09-.19-.1a.79.79,0,0,1,.25.19l-.09-.14.16.81c0,.2.38.26.53.28a2.78,2.78,0,0,0,1.07-.12,2.69,2.69,0,0,0,1-.43c.15-.12.36-.29.32-.51l-.12-.58a1.85,1.85,0,0,0,0-.23.72.72,0,0,0-.24-.25,2.33,2.33,0,0,0-1.34-.33,4.68,4.68,0,0,0-2.07.53,2.64,2.64,0,0,0-1,.78,2.26,2.26,0,0,0-.43,1,3.56,3.56,0,0,0,0,1,2.33,2.33,0,0,0,.31.93,1.5,1.5,0,0,0,.74.62,2.53,2.53,0,0,0,1.09.15,5,5,0,0,0,1.66-.37A3,3,0,0,0,244.2,5a1.45,1.45,0,0,0-.27-1.44,2.32,2.32,0,0,0-1.51-.76,4.44,4.44,0,0,0-1.7.12,5.7,5.7,0,0,0-1,.37c-.27.13-.7.37-.81.66a2.82,2.82,0,0,0,.18,2.25.64.64,0,0,0,.53.28,3,3,0,0,0,1.07-.11,2.81,2.81,0,0,0,1-.44c.12-.09.42-.32.32-.5Z"/><path class="cls-3" d="M262.17,4.41l-.06,1.21.54-.68c.26-.13.32-.17.2-.11.31-.1.39-.14.25-.1.32-.05.41-.07.26-.05.29,0,.37,0,.26,0s.32.08.12,0l-.17,0,.27.1a1.53,1.53,0,0,1-.37-.21l.2.16a1.53,1.53,0,0,1-.37-.43l.11.21a2.78,2.78,0,0,1-.27-1.17v.23a3.4,3.4,0,0,1,.1-1.27l-.09.24a1.62,1.62,0,0,1,.1-.18l-.18.23c.11-.12-.15.11-.15.11s.05,0-.08,0a1,1,0,0,1-.26.12c-.38.13.16,0-.24.06s-.11,0-.05,0-.39,0-.22,0-.18,0-.18,0,.15,0,.22.07l-.27-.11a1.9,1.9,0,0,1,.39.23l-.2-.16a1.71,1.71,0,0,1,.38.47l-.11-.21a1.57,1.57,0,0,1,.19.66V3.6a1.37,1.37,0,0,1-.09.49l.1-.24a1.68,1.68,0,0,1-.2.34l.18-.23a.86.86,0,0,1-.13.14l-.08.08s.28-.21.15-.13l-.09.06c-.1.07.37-.18.19-.11l-.09,0c-.18.09.4-.12.24-.08l-.09,0c-.12,0,.45-.06.24,0h-.08c-.19,0,.37,0,.21,0h-.08c-.15,0,.35.07.17,0a.83.83,0,0,1-.21-.06,2,2,0,0,0-1.09,0,2.1,2.1,0,0,0-1,.52c-.16.18-.35.44-.26.7a.83.83,0,0,0,.58.48,2.39,2.39,0,0,0,.84.14,3.78,3.78,0,0,0,3.13-1.46,1.94,1.94,0,0,0,.3-1.48,2.23,2.23,0,0,0-.89-1.3,2.7,2.7,0,0,0-2-.42c-1,.14-2.1.66-2.25,1.75a5.93,5.93,0,0,0,0,1.63A2.22,2.22,0,0,0,261,5.86a2.51,2.51,0,0,0,1,.55,3,3,0,0,0,1.58,0,3,3,0,0,0,.94-.39,1.27,1.27,0,0,0,.52-.58.91.91,0,0,0,.06-.32l0-1a.59.59,0,0,0-.32-.61,1.67,1.67,0,0,0-1-.15,2.43,2.43,0,0,0-1.1.39c-.21.15-.52.39-.53.67Z"/><path class="cls-3" d="M286.34,4c.17-.11-.36.17-.19.1s.05,0-.27.09c.09,0,.05,0-.12,0s-.22,0-.13,0h-.14l-.32,0a.79.79,0,0,1,.22.06l-.26-.09a1.3,1.3,0,0,1,.31.16l-.2-.14a1.09,1.09,0,0,1,.34.37l-.1-.18a1.05,1.05,0,0,1,.13.49V4.67a1.06,1.06,0,0,1-.1.46l.1-.21a1.56,1.56,0,0,1-.25.38l.19-.21-.24.22.26-.2-.25.16c.27-.13.35-.17.23-.12l-.07,0c-.25.1.36-.11.22-.07l-.13,0,.29,0h-.08c-.19,0,.45,0,.19,0h-.14l.32,0-.25-.05.27.09a1.71,1.71,0,0,1-.33-.17l.2.14a1.67,1.67,0,0,1-.47-.52l.11.19a2.19,2.19,0,0,1-.26-1V4a2.27,2.27,0,0,1,.2-1l-.1.22a1.94,1.94,0,0,1,.33-.51l-.19.21.05-.06-2.05.55.09,0-.27-.09a.62.62,0,0,1,.2.1l-.2-.14a.94.94,0,0,1,.27.29l-.1-.19a1.06,1.06,0,0,1,.09.25c.05.24.36.37.56.42a2.32,2.32,0,0,0,1.08-.06,2.29,2.29,0,0,0,1-.49.72.72,0,0,0,.28-.64,1.5,1.5,0,0,0-1.2-1.08,2.19,2.19,0,0,0-1.08,0,2.15,2.15,0,0,0-1,.5,3.07,3.07,0,0,0-.74,1.19,3.07,3.07,0,0,0-.12,1.13,2.22,2.22,0,0,0,1.2,1.8,3.06,3.06,0,0,0,1.74.21A4.42,4.42,0,0,0,287.33,6a2.82,2.82,0,0,0,1-1,1.6,1.6,0,0,0,.13-1.23,1.74,1.74,0,0,0-1-1,3.37,3.37,0,0,0-2.9.34,1.16,1.16,0,0,0-.54.63.47.47,0,0,0,.3.53,1.63,1.63,0,0,0,.95.11,2.66,2.66,0,0,0,1.1-.37Z"/></svg>