<svg id="レイヤー_1" data-name="レイヤー 1" xmlns="http://www.w3.org/2000/svg" viewBox="0 0 202.12 63.16"><defs><style>.cls-1{fill:#f6beba;}.cls-2{fill:#231815;}</style></defs><path class="cls-1" d="M9.07,55.21s-4-3.2-4.8-7.2c-1.08-5.4-2.36-9.66-2.88-15.14,3,.64,6.08.74,10.08,2.34,4.61,1.85,7,3.7,10.4,8.8,3.2,4.8,6,12.91,0,15.2A18.36,18.36,0,0,1,9.07,55.21Z"/><path class="cls-2" d="M23.24,61.68l-.7-2c-.12-.36-.65-.32-.94-.3-3.24.2-6.69.39-9.81-.69A10.79,10.79,0,0,1,5.28,52.3c-2.6-6.4-.84-13.56-3.08-20L.1,33C2.47,35.51,5.88,36.25,9,37.44a23.62,23.62,0,0,1,8.13,5.09,18.73,18.73,0,0,1,5,7.92c.91,3,1.3,7.34-1.54,9.46-.4.29-.18.63.2.74a1.9,1.9,0,0,0,1.53-.41c2.78-2.07,3-5.86,2.33-9a18.37,18.37,0,0,0-4.51-8.51A24.4,24.4,0,0,0,12.09,37c-3.37-1.5-7.35-2-10-4.82-.4-.43-2.35,0-2.1.71,2.43,7,.14,15.06,3.89,21.71,3.57,6.33,11,6.38,17.39,6l-.94-.29.7,2c.26.74,2.42.12,2.18-.58Z"/><path class="cls-2" d="M6.28,41.09l9.74,14c.48.69,2.58-.08,2-.9l-9.74-14c-.48-.69-2.57.08-2,.9Z"/><path class="cls-2" d="M13.51,43.12,12.82,50c0,.42.63.35.89.3a3,3,0,0,0,.83-.26c.13-.07.42-.22.43-.38l.69-6.87c0-.42-.63-.34-.89-.3a2.69,2.69,0,0,0-.83.27c-.13.07-.42.21-.43.38Z"/><path class="cls-2" d="M7.69,50.77a53.19,53.19,0,0,1,6.56,2.53,2,2,0,0,0,1.53-.24c.28-.15.68-.51.23-.72a51.58,51.58,0,0,0-6.56-2.52,2.05,2.05,0,0,0-1.53.24c-.23.12-.73.56-.23.71Z"/><path class="cls-2" d="M6.15,45.09l3.45.52a1.5,1.5,0,0,0,.86-.15,1.15,1.15,0,0,0,.56-.53c.19-.52-.19-.9-.68-1l-3.46-.52a1.47,1.47,0,0,0-.85.15,1.15,1.15,0,0,0-.56.53c-.19.52.18.9.68,1Z"/><path class="cls-1" d="M193.07,55s4-3.2,4.8-7.2c1.08-5.4,2.37-9.66,2.89-15.14-3,.64-6.09.74-10.09,2.34-4.61,1.85-7,3.7-10.4,8.8-3.2,4.8-6,12.91,0,15.2A18.36,18.36,0,0,0,193.07,55Z"/><path class="cls-2" d="M181.07,61.59l.7-2L180,60.2c6.4.4,14.12.23,17.94-5.85,4.18-6.65,1.7-15,4.18-22.18.2-.58-1.84,0-2.06.26-2.54,2.72-6.48,3.22-9.75,4.68a25.05,25.05,0,0,0-8.18,5.78,18.36,18.36,0,0,0-4.6,8.46c-.67,3-.62,6.86,2.12,8.9.49.36,2.38-.5,2-.75-2.84-2.12-2.66-6.32-1.81-9.38a18.57,18.57,0,0,1,5-8.15,23.15,23.15,0,0,1,8.52-5.25c3.07-1.09,6.35-2,8.65-4.44l-2.06.26c-2.18,6.31-.59,13.23-2.88,19.51A10.5,10.5,0,0,1,191,58.66c-3,1.1-6.47.83-9.63.63-.42,0-1.6.14-1.77.64l-.7,2c-.15.43,2,.2,2.15-.37Z"/><path class="cls-2" d="M193.83,40.37l-9.73,14c-.31.44.26.73.62.77a1.59,1.59,0,0,0,1.42-.63l9.74-14c.31-.44-.26-.73-.62-.77a1.63,1.63,0,0,0-1.43.63Z"/><path class="cls-2" d="M186.47,43l.69,6.87c0,.18.29.3.43.34a1.75,1.75,0,0,0,.82,0c.4-.12,1-.39.92-.89l-.68-6.87c0-.18-.3-.3-.44-.34a1.59,1.59,0,0,0-.81,0c-.4.11-1,.38-.93.88Z"/><path class="cls-2" d="M193.45,49.65a54.39,54.39,0,0,0-6.84,2.61c-.22.1-.93.43-.61.76s1.12.1,1.42,0q1.56-.73,3.18-1.35c1.09-.43,2.08-.77,3.1-1.08.27-.09,1.06-.33,1-.74s-1-.23-1.21-.16Z"/><path class="cls-2" d="M195.84,43.69l-3.46.52a3.6,3.6,0,0,0-.83.25c-.11.06-.38.18-.45.32-.14.34.78.18.86.17l3.46-.52a3.6,3.6,0,0,0,.83-.25c.11-.06.38-.18.45-.32.14-.34-.79-.19-.86-.17Z"/><path class="cls-1" d="M66.89,45.17A11.13,11.13,0,0,1,72.43,47a5.65,5.65,0,0,1,2.06,2.2,2.89,2.89,0,0,1-.17,2.9,4.09,4.09,0,0,1-2,1.27,25.29,25.29,0,0,1-4.85,1.2.56.56,0,0,0-.39.16.54.54,0,0,0-.08.35,12.12,12.12,0,0,0,.33,2.55,2.48,2.48,0,0,0,.43,1.06,2.58,2.58,0,0,0,1.61.79,10.91,10.91,0,0,0,5.84-.7,9.7,9.7,0,0,0,5.42-4.71,10.1,10.1,0,0,0,.8-3.3,8.24,8.24,0,0,0-1.52-6.11c-1.86-2.19-7.5-3.23-7.5-3.23L72,36.12l6.11.48.43-.16a2.06,2.06,0,0,0,.16-.45l.67-5.14h0a66.37,66.37,0,0,1-6.78.61l-5.39.13S66.56,45.15,66.89,45.17Z"/><path class="cls-1" d="M101.8,40.81c-.26-2.24-.84-4.61-2.59-6.14a8.71,8.71,0,0,0-5-1.84A9.21,9.21,0,0,0,88.43,34a4.26,4.26,0,0,0-1.36,1.31A6.15,6.15,0,0,0,86.3,38,65.34,65.34,0,0,0,86,49.08c.13,2.4.43,4.91,1.9,6.87a8,8,0,0,0,4.87,3,9.61,9.61,0,0,0,4.49-.21c1.27-.37,2.31-.34,3-1.6h0a7.36,7.36,0,0,0,.67-2.1A45.87,45.87,0,0,0,101.8,40.81Zm-3.55,8.44c0,1.3-.2,3.34-1.67,4a6.28,6.28,0,0,1-4.19.07,3.46,3.46,0,0,1-1.49-1.49,10.41,10.41,0,0,1-1.11-4.2,22.81,22.81,0,0,1,.13-6,5.23,5.23,0,0,1,1.38-3.06,3.46,3.46,0,0,1,2.54-.92,3.42,3.42,0,0,1,2.43,1.16,5.72,5.72,0,0,1,1.07,2.38A29.82,29.82,0,0,1,98.25,49.25Z"/><path class="cls-1" d="M45.84,35.71a9.07,9.07,0,0,1,4,1.15,3.08,3.08,0,0,1,1.49,1.49,3.32,3.32,0,0,1-.39,2.46,13.53,13.53,0,0,1-4.23,5,5.47,5.47,0,0,1,4.62,5.81,6.71,6.71,0,0,1-5.21,5.68L48,61.82c2.67-1.15,5.85-1.27,8-3.16a7.18,7.18,0,0,0,2.3-5.81A10.17,10.17,0,0,0,55.83,47a1.36,1.36,0,0,1-.35-.6c-.08-.4.22-.76.5-1.07a14,14,0,0,0,3.49-6.13,7.2,7.2,0,0,0-1.64-6.64c-1.52-1.51-3.73-2-5.82-2.49h0c-1.25-.28-5.26-1.7-5.87-.82C45.8,29.73,46,35.71,45.84,35.71Z"/><path class="cls-2" d="M30.8,8.26,37.31,7a3.13,3.13,0,0,0,.66-.2c.07,0,.34-.15.36-.25.07-.27-.58-.14-.68-.12L31.14,7.69a3,3,0,0,0-.66.2c-.07,0-.34.15-.37.25-.06.27.59.14.69.12Z"/><path class="cls-2" d="M33.32,8l1,9.69c.08.79,1.83.37,1.74-.47l-1-9.69c-.08-.8-1.83-.37-1.74.47Z"/><path class="cls-2" d="M31.68,13.52l5-1.12c.31-.07.84-.37.73-.76s-.71-.35-1-.29l-5,1.13c-.3.07-.83.37-.73.75s.72.36,1,.29Z"/><path class="cls-2" d="M32,18.48l5-1.06c.26-.06.84-.33.74-.69s-.73-.27-1-.22l-5,1.06c-.26.06-.84.33-.74.69s.73.27,1,.22Z"/><path class="cls-2" d="M41,4.44A20.37,20.37,0,0,0,42,11.94c.22.63,2,.14,1.74-.47a19.77,19.77,0,0,1-1.07-7.24c0-.39-.46-.44-.76-.4s-1,.23-1,.61Z"/><path class="cls-2" d="M43.07,4.47a13.64,13.64,0,0,1,4.4-2l-.94,0a33.48,33.48,0,0,1,.26,8.66c0,.23,1.68.06,1.73-.47a33.05,33.05,0,0,0-.25-8.66c0-.27-.84-.06-.94,0a17.24,17.24,0,0,0-5.6,2.51c-.27.18-.22.36.11.38a2.07,2.07,0,0,0,1.23-.32Z"/><path class="cls-2" d="M42.31,7.11a27.92,27.92,0,0,0,5.85-1.95c.28-.13.7-.49.44-.82s-.86-.23-1.17-.08A25.14,25.14,0,0,1,42,6c-.31.07-.83.38-.73.77s.71.36,1,.3Z"/><path class="cls-2" d="M42.79,9.87l4.8-1.45c.3-.09.83-.36.72-.76s-.71-.39-1-.3L42.5,8.81c-.3.09-.83.36-.72.76s.71.39,1,.3Z"/><path class="cls-2" d="M43.09,12.65l4.46-1.28c.34-.1.82-.41.71-.83s-.7-.46-1-.36l-4.45,1.28c-.34.1-.83.41-.71.83s.69.46,1,.36Z"/><path class="cls-2" d="M43.44,13.38l-3.22,4.48c-.24.33.21.55.48.55a1.38,1.38,0,0,0,1.15-.48l3.22-4.48c.24-.34-.21-.55-.49-.56a1.38,1.38,0,0,0-1.14.49Z"/><path class="cls-2" d="M56.84,5.71A31,31,0,0,0,54.1,9.89c-.07.12-.11.23,0,.34a.65.65,0,0,0,.47.13,1.59,1.59,0,0,0,.68-.14,1,1,0,0,0,.47-.32,29.85,29.85,0,0,1,2.75-4.18c.25-.32-.22-.47-.46-.47a1.55,1.55,0,0,0-1.16.46Z"/><path class="cls-2" d="M58.86,7.91q-1.72,2.55-3.27,5.24c-.2.35.18.6.5.61a1.27,1.27,0,0,0,1.14-.5c1-1.79,2.12-3.53,3.27-5.24.23-.35-.2-.6-.5-.62a1.3,1.3,0,0,0-1.14.51Z"/><path class="cls-2" d="M57.78,10.91A32.76,32.76,0,0,0,59,21c.1.35,1.83-.12,1.74-.46a32.82,32.82,0,0,1-1.26-10c0-.21-1.73,0-1.74.47Z"/><path class="cls-2" d="M62.08,4.92l.47,5c0,.14.23.23.34.26a1.43,1.43,0,0,0,.65,0c.32-.1.78-.3.75-.7l-.47-5c0-.14-.23-.23-.34-.26a1.59,1.59,0,0,0-.65,0c-.31.1-.78.3-.75.7Z"/><path class="cls-2" d="M63.71,13.43a22.45,22.45,0,0,1,5.19-1l-.69-.47a31.18,31.18,0,0,1-4.55,6.43c-.29.31.24.48.46.49a1.58,1.58,0,0,0,1.15-.47,32.17,32.17,0,0,0,4.56-6.43c.25-.46-.38-.5-.69-.47a24.39,24.39,0,0,0-5.66,1.13c-.24.09-.84.29-.75.65s.77.26,1,.19Z"/><path class="cls-2" d="M63.35,15.91a33.34,33.34,0,0,0,7.85,2.78,2.15,2.15,0,0,0,1.21-.24c.14-.06.6-.33.22-.41A32.76,32.76,0,0,1,65,15.34a1.62,1.62,0,0,0-1.12.11c-.07,0-.78.34-.52.46Z"/><path class="cls-2" d="M87.72,16.83c-1.08.06-1.92-1-2.5-1.75-.77-1.05-1.47-2.16-2.14-3.28a37.85,37.85,0,0,1-1.84-3.44,3.86,3.86,0,0,1-.47-2.71A2.13,2.13,0,0,1,81,5.27l-.28.07.11,0c.08.06.22.1.31.17A1.72,1.72,0,0,1,81.81,7c-.08,1.27-1.13,2.19-1.93,3.05a4.46,4.46,0,0,0-1.41,2.71,2,2,0,0,0,1.37,2.14,4.92,4.92,0,0,0,3.57-.58,11,11,0,0,0,3.12-2.44c.28-.31-.24-.43-.45-.44a1.65,1.65,0,0,0-1.16.46,7.23,7.23,0,0,1-3,2.16c-1.2.37-1.85-.85-1.69-1.89.34-2.33,3.8-3.45,3.28-6.08-.44-2.19-4-2.16-4.52-.07a4.25,4.25,0,0,0,.51,2.79,38.52,38.52,0,0,0,1.95,3.64,32.84,32.84,0,0,0,2.42,3.64A3.76,3.76,0,0,0,87,17.72c.35,0,.94-.11,1.15-.45s-.17-.46-.45-.44Z"/><path class="cls-2" d="M92.47,5.82l13.68-1.16c.33,0,.93-.25,1-.64s-.47-.49-.77-.46L92.67,4.73c-.33,0-.93.24-1,.63s.48.49.78.46Z"/><path class="cls-2" d="M92.63,16.59l13.86-2.85c.3-.06.84-.36.74-.74s-.72-.33-1-.27L92.35,15.57c-.29.06-.83.36-.73.74s.72.34,1,.28Z"/><path class="cls-2" d="M99.07,10l1.16,12.35c.07.77,1.81.35,1.74-.47L100.81,9.55c-.07-.77-1.81-.35-1.74.47Z"/><path class="cls-2" d="M109.63,8.18a63.8,63.8,0,0,0,11.74-1.86c.34-.09.82-.4.72-.81s-.71-.42-1-.34A61.27,61.27,0,0,1,109.8,7c-.37,0-.91.27-1,.69s.46.57.79.54Z"/><path class="cls-2" d="M111.6,12.41l9.49-2.06c.33-.07.81-.4.71-.8s-.7-.41-1-.34l-9.49,2.06c-.34.07-.81.4-.72.8s.71.41,1,.34Z"/><path class="cls-2" d="M111.61,14.64l8.81-1.77c.26,0,.93-.17,1-.49s-.58-.21-.7-.19L111.92,14c-.26.06-.93.18-1,.49s.57.22.7.19Z"/><path class="cls-2" d="M111.54,17.42c3.19-.35,6.37-.84,9.52-1.47.3-.06.92-.2,1-.58s-.52-.38-.75-.34c-3.14.63-6.32,1.12-9.51,1.47-.3,0-.92.21-1,.58s.52.36.74.34Z"/><path class="cls-2" d="M115.47,11a68.7,68.7,0,0,0,.6,10.91c.07.47,1.82.09,1.74-.46a68.76,68.76,0,0,1-.6-10.92c0-.4-1.73-.13-1.74.47Z"/><path class="cls-2" d="M115.74,16.54l-4.52,5.13a.53.53,0,0,0,.23.87,1.19,1.19,0,0,0,1.23-.33l4.53-5.13a.53.53,0,0,0-.24-.87,1.19,1.19,0,0,0-1.23.33Z"/><path class="cls-2" d="M115.94,17.15a12.68,12.68,0,0,0,6.12,3.31,1.9,1.9,0,0,0,1.21-.22c.15-.07.6-.38.21-.46a12.27,12.27,0,0,1-5.9-3.23c-.09-.09-.35-.07-.45-.06a2.24,2.24,0,0,0-.67.15c-.14.05-.74.28-.52.51Z"/><path class="cls-2" d="M126.74,11.35a28.2,28.2,0,0,0,9,1.72,1.45,1.45,0,0,0,1.15-.46c.21-.34-.18-.46-.46-.47a26.15,26.15,0,0,1-8.25-1.6,1.53,1.53,0,0,0-1.23.18c-.2.12-.56.49-.16.63Z"/><path class="cls-2" d="M132.31,6.81a41.65,41.65,0,0,1-5.6,12.57c-.18.28.63.21.7.2a1.57,1.57,0,0,0,1-.49A42.12,42.12,0,0,0,134,6.52c.1-.4-1.6-.17-1.72.29Z"/><path class="cls-2" d="M139.51,8.8l1.69,2.32a1,1,0,0,0,1.18.13c.31-.16.68-.54.41-.91L141.1,8a1,1,0,0,0-1.18-.14c-.31.17-.68.55-.41.91Z"/><path class="cls-2" d="M140.51,17.91a14.53,14.53,0,0,0,7.15-4.71c.26-.32-.23-.48-.47-.48a1.48,1.48,0,0,0-1.15.47,11.79,11.79,0,0,1-2.63,2.4,11.72,11.72,0,0,1-3.12,1.49c-.25.07-.84.29-.76.65s.77.24,1,.18Z"/><path class="cls-2" d="M151,8.4c1,1.15.33,2.94,0,4.22q-.74,2.58-1.56,5.15c-.14.42,1.57.2,1.72-.28.59-1.83,1.15-3.66,1.66-5.51.37-1.36.87-3-.17-4.2-.32-.36-2,.25-1.63.62Z"/><path class="cls-2" d="M155.64,12.32A9.73,9.73,0,0,0,160,17.8a1.14,1.14,0,0,0,1.24-.11c.27-.2.48-.68.1-.9a8.69,8.69,0,0,1-4-4.94c-.13-.4-.68-.46-1-.36s-.84.41-.71.83Z"/><path class="cls-2" d="M158,4.86l1,4.05c.09.36.74.27,1,.2s.85-.3.76-.66l-1-4c-.09-.36-.74-.27-1-.2s-.84.3-.75.66Z"/><path class="cls-2" d="M162.14,4.89l.58,3.73c0,.12.23.17.32.18a1.72,1.72,0,0,0,.64-.05c.23-.07.83-.26.77-.6l-.57-3.73c0-.12-.23-.17-.32-.18a1.6,1.6,0,0,0-.65.06c-.23.06-.82.25-.77.59Z"/><path class="cls-2" d="M43,31a32.34,32.34,0,0,1-.14,6.45.28.28,0,0,0,.17.31c2,.83,5.56.61,6.48,3,.48,1.26-.38,2.68-1.07,3.69a9.89,9.89,0,0,1-2.76,2.71c-.23.15-.52.47-.15.67,2.17,1.18,4.84,2.73,4.93,5.53s-3.71,4.66-6.07,5.22c-.28.07-.8.3-.75.66l.49,3.58c0,.21.38.26.53.26,4.21,0,8.88-1.63,11.62-5,2.49-3,1.56-8.18-1.34-10.7l-.11.48c3.45-3.07,5-9.16,2.39-13.21-2.72-4.22-8.57-4.44-13.07-4.34-.32,0-1,.11-1.15.47s.12.52.47.51c4.14-.09,9.33,0,12,3.78a8.54,8.54,0,0,1,1,7.17,10.29,10.29,0,0,1-3,5.35c-.12.1-.28.33-.12.47,2.36,2.05,3.61,6.5,1.86,9.26-2,3.19-6.23,4.72-9.84,4.76l.53.26-.49-3.59-.76.67a13.61,13.61,0,0,0,4.7-2.09A6.16,6.16,0,0,0,52.12,54c.7-3.41-2.7-5.53-5.22-6.9l-.15.67a12,12,0,0,0,3-2.79c.81-1.08,1.77-2.64,1.59-4.05-.42-3.18-4.77-3-7-3.94l.18.31a34.1,34.1,0,0,0,.14-6.7c0-.55-1.79-.19-1.74.47Z"/><path class="cls-2" d="M94.92,57.3a9,9,0,0,1-6.77-.9A4.13,4.13,0,0,1,86,53.88a12.21,12.21,0,0,1-.72-3.15A43.73,43.73,0,0,1,85.36,44c.14-2.45.26-4.92.53-7.35a4.71,4.71,0,0,1,.91-2.73c.74-.78,2-.76,3-.85a12.08,12.08,0,0,1,5.91.55c2,.88,2.83,2.76,3.19,4.77a39.73,39.73,0,0,1,.44,6.72,26.62,26.62,0,0,1-1,7.94,5.78,5.78,0,0,1-1.88,3.26c-.57.4-1.18.75-1.78,1.11-1,.61-.09,1.62.79,1.09.63-.38,1.26-.76,1.87-1.16a5.47,5.47,0,0,0,2.19-2.73,23.33,23.33,0,0,0,1.54-8.19,45.15,45.15,0,0,0-.37-8,7.34,7.34,0,0,0-3.34-5.65c-2.05-1.16-4.55-1.2-6.84-1s-4.62.33-5.74,2.49a7.86,7.86,0,0,0-.7,2.86c-.16,1.64-.26,3.29-.36,4.94a64.49,64.49,0,0,0-.26,8.45c.16,2.43.73,5.67,3.07,6.91,2.76,1.45,5.65,2.18,8.71,1.26C96.32,58.24,96,57,94.92,57.3Z"/><path class="cls-2" d="M94.41,51.54c-2.07.69-4.75.35-5.12-2.19a27.54,27.54,0,0,1-.13-4c0-1.35,0-2.7.11-4,0-.64.08-1.29.13-1.94s0-1.13.68-1.38a2.71,2.71,0,0,1,3.22.38,5.54,5.54,0,0,1,1.3,3.14c.19,1.23.29,2.49.37,3.73a22.42,22.42,0,0,1-.14,4.63,2.46,2.46,0,0,1-.46,1.43c-.17.19-.36.36-.53.54a.43.43,0,0,0,.2.75,1.3,1.3,0,0,0,1.23-.33,3.63,3.63,0,0,0,1.25-2.11,24.62,24.62,0,0,0,.22-4.93,30.35,30.35,0,0,0-.54-5A5.07,5.07,0,0,0,94.07,37a4.71,4.71,0,0,0-3.94-.15,4.62,4.62,0,0,0-1.7.78,2.47,2.47,0,0,0-.79,2c-.13,1.69-.2,3.39-.22,5.08a40.37,40.37,0,0,0,.1,4.92c.37,3.51,4.41,4,7.18,3,.3-.1.83-.35.72-.76S94.7,51.45,94.41,51.54Z"/><path class="cls-2" d="M105,55.24l2.39,1.83a.9.9,0,0,0,.58.12,1.32,1.32,0,0,0,.66-.24.68.68,0,0,0,.31-.43.43.43,0,0,0-.2-.4l-2.38-1.84a1,1,0,0,0-.59-.11,1.29,1.29,0,0,0-.65.24.69.69,0,0,0-.32.43.46.46,0,0,0,.2.4Z"/><path class="cls-2" d="M107.79,57.13a25.46,25.46,0,0,0,.32,4.86c.08.45.73.44,1,.38l2.28-.46,1.17-.23a3.63,3.63,0,0,0,1-.3,1.26,1.26,0,0,0,.71-1.06,10.8,10.8,0,0,0-.11-1.13L114,56.86c0-.35-.54-.42-.8-.42l-4.41,0a1,1,0,0,0-1,.71c0,.46.46.59.81.59l4.41,0-.79-.42.22,2c0,.32.08.65.11,1,0,.06,0,.27,0,.27s.22-.21.23-.22.15,0,0,0c-.63.1-1.27.26-1.9.38l-2.05.41,1,.38a23.64,23.64,0,0,1-.3-4.52c0-.43-.43-.63-.81-.59s-.94.27-.95.71Z"/><path class="cls-2" d="M121.7,45.94l5.3-.24a1.85,1.85,0,0,0,1.16-.42c.27-.29-.24-.33-.42-.32l-5.3.24a1.82,1.82,0,0,0-1.16.42c-.27.29.24.33.42.32Z"/><path class="cls-2" d="M124.14,46.34v8.49c0,.38.45.42.76.38s1-.23,1-.6V53.8c0-.39-.45-.42-.75-.39s-1,.23-1,.6v.82l1.74-.22V46.13c0-.38-.45-.42-.75-.38s-1,.23-1,.59Z"/><path class="cls-2" d="M126,51.69l.48-.22.17-.07c-.11.05.15,0,.17-.06a9.1,9.1,0,0,1,1-.27L128,51h.06l.52-.07a9.51,9.51,0,0,1,1.06,0c.38,0,.94-.31,1-.73s-.44-.6-.82-.61a10.65,10.65,0,0,0-4.64,1.06c-.31.15-.67.59-.4.94a1,1,0,0,0,1.19.15Z"/><path class="cls-2" d="M122,55.44a36.8,36.8,0,0,1,9,.82,1.35,1.35,0,0,0,1.23-.33.39.39,0,0,0-.19-.7,40.16,40.16,0,0,0-9.84-.87c-.34,0-.92.25-1,.63s.49.46.77.45Z"/><path class="cls-2" d="M130.74,43.17c1-.28,2-.53,2.95-.75l1.49-.32.75-.13.38-.07a.89.89,0,0,0,.17,0s-.19-.12-.23-.08,0,.25,0,.3l0,.77c0,.52-.06,1-.12,1.54s-.14,1-.23,1.53a1.36,1.36,0,0,1-.09.37l-.07.1s0,0,0,0,0,0,0,0a.74.74,0,0,1,.83.19.83.83,0,0,0-1-.4c-.3.08-.89.46-.7.87.51,1.11,1.94.54,2.46-.27a3.79,3.79,0,0,0,.42-1.52c.08-.55.15-1.1.19-1.65S138,42.52,138,42s0-1.12-.64-1.36a3.24,3.24,0,0,0-1.72.06c-.54.1-1.08.2-1.62.32-1.22.25-2.43.55-3.63.89-.36.11-.82.44-.7.87s.68.51,1,.41Z"/><path class="cls-2" d="M131.51,49v3.15a.32.32,0,0,0,.18.33,1.15,1.15,0,0,0,.58.07,1.68,1.68,0,0,0,.66-.23c.11-.08.32-.22.32-.38V50.85a.31.31,0,0,0-.18-.33,1,1,0,0,0-.57-.06,1.52,1.52,0,0,0-.66.22c-.12.08-.33.22-.33.38v1.09a.32.32,0,0,0,.18.33,1.15,1.15,0,0,0,.58.07,1.68,1.68,0,0,0,.66-.23c.11-.08.32-.22.32-.38V48.79a.31.31,0,0,0-.18-.33,1,1,0,0,0-.57-.07,1.53,1.53,0,0,0-.66.23c-.12.07-.33.22-.33.38Z"/><path class="cls-2" d="M144.89,42.14a10.07,10.07,0,0,0,3.4,3.81,1,1,0,0,0,.58.08,1.41,1.41,0,0,0,.66-.23c.27-.18.48-.49.14-.72a8.64,8.64,0,0,1-1.73-1.51,9,9,0,0,1-1.31-1.9c-.17-.34-.66-.32-1-.23a1.4,1.4,0,0,0-.58.3c-.08.09-.23.26-.17.4Z"/><path class="cls-2" d="M143,50a20.07,20.07,0,0,0,5.89-.25l-.64-.33a83.3,83.3,0,0,0-6.43,7.62c-.43.57,1.12.21,1.3.12l2-1.09,1-.51c.06,0,.44-.19.47-.26-.38,0-.49,0-.31.07a.51.51,0,0,1,.16.09c1,.7.49,2.25,1.31,3.08s2.2.65,3.17.32a6,6,0,0,0,2.8-2.42c.22-.31-.2-.36-.43-.35a1.69,1.69,0,0,0-1.16.43A9.2,9.2,0,0,1,150.94,58c-.3.27-.53.47-.94.37-1.27-.28-1-1.79-1.41-2.71-.51-1.14-1.67-1.19-2.73-.76a18,18,0,0,0-1.84,1l-1.9,1,1.3.12a83.55,83.55,0,0,1,6.43-7.62c.36-.38-.49-.36-.64-.33a17,17,0,0,1-5.08.21,1.79,1.79,0,0,0-1.23.33c-.27.2-.24.41.12.45Z"/><path class="cls-2" d="M164.12,38.67q-1.12,5.76-2.51,11.47c-.2.85,1.58.65,1.77-.13q1.38-5.7,2.51-11.47c.17-.86-1.61-.65-1.77.13Z"/><path class="cls-2" d="M161.79,56.44a1.49,1.49,0,0,1-.2-.31l.08.16a1.69,1.69,0,0,1-.13-.49l0,.18a1.14,1.14,0,0,1,0-.37l-.72.69.08,0-.24,0h0l-.2,0,.12,0-.17-.09.15.11-.13-.13a1.51,1.51,0,0,1,.18.26l-.08-.16a1.06,1.06,0,0,1,.09.35v-.18a.92.92,0,0,1,0,.28l.05-.18a.8.8,0,0,1-.11.25l.1-.16a2.11,2.11,0,0,1-.19.23l.15-.15a1.54,1.54,0,0,1-.32.25l.2-.12a5.3,5.3,0,0,1-.8.38l1.06,0a.86.86,0,0,1-.18-.14l.13.12a1,1,0,0,1-.19-.26l.08.16a1.19,1.19,0,0,1-.11-.42v.18a1.07,1.07,0,0,1,0-.4l-.05.17a.83.83,0,0,1,.12-.27l-.1.16a1.1,1.1,0,0,1,.14-.18l-.15.15.14-.11-.19.12.15-.08-.22.08.19,0-.24,0a.89.89,0,0,1,.23,0h-.23a1.17,1.17,0,0,1,.26,0l-.21-.06a1.19,1.19,0,0,1,.26.11l-.17-.1a1.35,1.35,0,0,1,.27.2l-.13-.13a1,1,0,0,1,.19.26l-.08-.16a.69.69,0,0,1,.08.28V56.8a1,1,0,0,1,0,.24l0-.18a.88.88,0,0,1-.1.22l.1-.16a.9.9,0,0,1-.15.19l.15-.14a1,1,0,0,1-.2.15l.19-.12-.2.1.23-.08-.17,0,.24,0a.43.43,0,0,1-.16,0h.11l.2,0-.13,0,.17.09L161,57l.13.12A.4.4,0,0,1,161,57a.78.78,0,0,0-.5-.27,1.15,1.15,0,0,0-.68.12c-.35.18-.64.55-.4.94a1.48,1.48,0,0,0,1.62.5,2.2,2.2,0,0,0,1.34-1A1.25,1.25,0,0,0,162.3,56a1.84,1.84,0,0,0-1.33-.76,2.18,2.18,0,0,0-1.85.67,1.75,1.75,0,0,0-.38,1.44A1.65,1.65,0,0,0,159,58a1.92,1.92,0,0,0,.28.29l.11.08a.78.78,0,0,0,.39.15,1.36,1.36,0,0,0,.69-.11,4,4,0,0,0,1.3-.74,2.5,2.5,0,0,0,.39-.47,1.77,1.77,0,0,0,.21-.51,1.28,1.28,0,0,0-.06-.75,1.39,1.39,0,0,0-.51-.68,1.56,1.56,0,0,0-1.28-.18.94.94,0,0,0-.71.69,1.88,1.88,0,0,0,.39,1.5,1,1,0,0,0,1.19.16.88.88,0,0,0,.44-.43.51.51,0,0,0,0-.51Z"/><path class="cls-2" d="M93.84,8.82a8.5,8.5,0,0,1-.42,2c0,.15-.11.3-.17.45s0,.08,0,0l0,.1a1.14,1.14,0,0,1-.1.19,3.48,3.48,0,0,1-.22.36h0L92.8,12l-.17.15a.44.44,0,0,0-.16.4.42.42,0,0,0,.34.27A1.49,1.49,0,0,0,94,12.52a3.85,3.85,0,0,0,1.08-1.78,9.15,9.15,0,0,0,.47-2.12c0-.39-.48-.46-.77-.42a1.54,1.54,0,0,0-.65.23c-.13.09-.31.22-.33.39Z"/><path class="cls-2" d="M93.87,11.08a4.57,4.57,0,0,0,2.36,1.28,1.42,1.42,0,0,0,.65,0,1.56,1.56,0,0,0,.58-.28c.09-.09.23-.22.18-.36a.4.4,0,0,0-.33-.22l-.3-.07.16,0A4.21,4.21,0,0,1,96.11,11l.12.07a3.59,3.59,0,0,1-.74-.61.72.72,0,0,0-.47-.13,1.76,1.76,0,0,0-.68.14,1.1,1.1,0,0,0-.47.32.27.27,0,0,0,0,.34Z"/><path class="cls-2" d="M102.74,8.14l.06.08h0a1.05,1.05,0,0,1,0,.19c0,.06,0,.13,0,.19s0,.07,0,0a.34.34,0,0,1,0,.1,4.6,4.6,0,0,1-.1.84l-.12.41c0-.13,0,.07,0,.1l-.09.19a3.35,3.35,0,0,1-.21.36,1.09,1.09,0,0,1-.13.17c.12-.13,0,0-.05.07a.46.46,0,0,0-.16.42.48.48,0,0,0,.35.3,1.38,1.38,0,0,0,1.23-.33,4.31,4.31,0,0,0,1-1.87,3.14,3.14,0,0,0,.1-.91,1.5,1.5,0,0,0-.28-1.05c-.26-.3-.84-.22-1.16-.06s-.71.46-.44.78Z"/><path class="cls-2" d="M103.25,9.79a4.29,4.29,0,0,0,2.7,1.79,1.34,1.34,0,0,0,.66,0,1.16,1.16,0,0,0,.57-.32c.1-.11.22-.27.16-.43a.45.45,0,0,0-.35-.3,3.53,3.53,0,0,1-.72-.22l.17.07a4.15,4.15,0,0,1-1-.6l.12.1a4,4,0,0,1-.72-.81.67.67,0,0,0-.48-.2,1.42,1.42,0,0,0-.68.12c-.3.15-.67.45-.44.81Z"/><path class="cls-2" d="M98.1.7l.3,4.14c0,.14.24.21.33.22a1.58,1.58,0,0,0,.65,0c.28-.08.79-.27.76-.64L99.84.24c0-.14-.24-.2-.33-.22a1.59,1.59,0,0,0-.65,0c-.28.09-.79.27-.76.64Z"/><path class="cls-2" d="M111.3,9.13a4.94,4.94,0,0,0,.66,1.1,5.24,5.24,0,0,0,.94.88,1,1,0,0,0,.58.11,1.43,1.43,0,0,0,.66-.24.68.68,0,0,0,.31-.43.4.4,0,0,0-.2-.39A1.71,1.71,0,0,1,114,10l.12.11a4.62,4.62,0,0,1-1-1.3l.07.13a1.63,1.63,0,0,1-.11-.23.3.3,0,0,0-.13-.18.41.41,0,0,0-.23-.13,1.23,1.23,0,0,0-.66,0,1.16,1.16,0,0,0-.57.32c-.09.11-.22.29-.15.45Z"/><path class="cls-2" d="M119.11,7.62c0,.1,0,.2,0,.3V7.84a4.78,4.78,0,0,1-.74,1.88c-.07.1.07.16.14.18a1.46,1.46,0,0,0,.55,0,2.83,2.83,0,0,0,.66-.21.88.88,0,0,0,.36-.26,4.73,4.73,0,0,0,.79-2.26c0-.1-.27-.11-.3-.11a1.92,1.92,0,0,0-.63.09,1.84,1.84,0,0,0-.6.24c-.1.06-.19.12-.2.25Z"/><path class="cls-2" d="M113.44,3.32c.13.66.23,1.32.3,2,0,.32.07.64.09,1l0,.52a.68.68,0,0,0,.11.5c.33.39,1,.16,1.36,0h0a.75.75,0,0,0,.32-.42v0c0-.33-.27-.44-.56-.47h0a1.21,1.21,0,0,0-1.14.5c-.19.38.16.58.5.61h0L113.92,7V7l.31-.41h0l1.36,0c0,.14.05.16,0,0a1.09,1.09,0,0,1,0-.18c0-.09,0-.17,0-.26l0-.44c0-.33,0-.65-.09-1-.07-.64-.17-1.28-.29-1.91,0-.16-.22-.26-.35-.3a1.3,1.3,0,0,0-.65,0c-.32.09-.81.34-.74.74Z"/><path class="cls-2" d="M116.21,2.75c.07.67.12,1.35.16,2,0,.34,0,.68,0,1a2.83,2.83,0,0,0,.09,1c.12.29.75.14,1,.08a1.93,1.93,0,0,0,.59-.26c.07,0,.24-.17.19-.29a2.83,2.83,0,0,1-.09-1c0-.34,0-.68,0-1,0-.68-.09-1.35-.16-2,0-.11-.25-.15-.32-.15a1.91,1.91,0,0,0-.63.07c-.22.06-.82.23-.79.55Z"/><path class="cls-2" d="M110.24,4.35a2,2,0,0,0,.49.7,2.3,2.3,0,0,0,.75.46,1,1,0,0,0,.25,0,1.1,1.1,0,0,0,.31,0,1.5,1.5,0,0,0,.35-.09,1.66,1.66,0,0,0,.31-.12l.16-.1a.55.55,0,0,0,.19-.21V4.91a.21.21,0,0,0-.16-.14.88.88,0,0,1-.2-.09l.11.06a2,2,0,0,1-.71-.63l0,.08a2.19,2.19,0,0,1-.16-.3.4.4,0,0,0-.32-.17,1,1,0,0,0-.3,0,1.86,1.86,0,0,0-.34.06,1.74,1.74,0,0,0-.59.26l-.12.1a.23.23,0,0,0-.07.2Z"/><path class="cls-2" d="M119.75,2.48a3.65,3.65,0,0,1-.35,1.12l.07-.12a4.64,4.64,0,0,1-.45.7.26.26,0,0,0,0,.35.72.72,0,0,0,.47.14,1.5,1.5,0,0,0,1.15-.47,4,4,0,0,0,.85-1.94c.06-.38-.49-.39-.74-.36a1.68,1.68,0,0,0-.66.23c-.12.08-.31.19-.33.35Z"/><path class="cls-2" d="M45.8,11.52c0,1,0,1.92.07,2.88,0,.46.05.92.09,1.37a1.82,1.82,0,0,0,.3,1.12c.61.69,1.74.6,2.56.5a28.66,28.66,0,0,0,2.89-.51c.31-.07.8-.36.73-.75l-.21-1c-.07-.39-.73-.36-1-.28s-.82.34-.74.75l.21,1.05.73-.75a19.82,19.82,0,0,1-2.2.39,4.4,4.4,0,0,1-1,.08.49.49,0,0,1-.47-.3,4,4,0,0,1-.11-1c0-.42-.05-.84-.07-1.26,0-.8-.05-1.59-.05-2.38,0-.41-.43-.52-.77-.48s-1,.25-1,.65Z"/><path class="cls-2" d="M63.51,5.74a33.7,33.7,0,0,1,4-1.21L66.42,4a10.83,10.83,0,0,0-.17,2.84,1.84,1.84,0,0,0,1.31,1.77,6.24,6.24,0,0,0,2.77-.29c.47-.11,1.06-.38,1.1-.95a8,8,0,0,0-.21-1.54c-.07-.44-.72-.49-1-.4a.82.82,0,0,0-.7.86l.1.7a1.86,1.86,0,0,1,.06.61l.15-.34-.06.06L70.07,7c.17-.08-.17,0-.21,0l-.47.1c-.23,0-.47.11-.69.14a.47.47,0,0,1-.61-.36A4.1,4.1,0,0,1,68,5.62a12,12,0,0,1,.2-1.78c.11-.56-.7-.65-1-.57a34.33,34.33,0,0,0-4,1.22c-.35.13-.82.41-.7.86s.69.52,1,.39Z"/><path class="cls-2" d="M166.22,13.21a82.94,82.94,0,0,1,9.46-.07l.69-1H176a1.41,1.41,0,0,0-1.15.47c-.21.34.18.46.46.47l.34,0a1.44,1.44,0,0,0,1.15-.47c.21-.35-.18-.46-.46-.48a88.38,88.38,0,0,0-9.9.11c-.3,0-.93.22-1,.57s.52.36.74.34Z"/><path class="cls-2" d="M123.12,38.37q0,3.42.3,6.81c0,.41.75.37,1,.3s.76-.35.72-.76c-.16-2.17-.26-4.34-.27-6.51,0-.41-.43-.53-.79-.5s-1,.26-1,.66Z"/><path class="cls-2" d="M104.92,52.25a11,11,0,0,0,1.88,1,9.94,9.94,0,0,0,1,.35,4.73,4.73,0,0,1,.95.25l-.2-.25c.09.27-.16.8-.25,1.06s-.23.63-.37.94a12,12,0,0,1-1,1.82A15.84,15.84,0,0,1,104,60.53c-.27.22-.46.6-.1.85a1.14,1.14,0,0,0,1.24-.11,16,16,0,0,0,4.4-5.48,12,12,0,0,0,.6-1.65c.17-.61.29-1.19-.45-1.41-.58-.18-1.16-.3-1.73-.53a8.43,8.43,0,0,1-1.69-.93c-.61-.4-2.15.44-1.35,1Z"/><path class="cls-2" d="M104.84,52a15.6,15.6,0,0,1-1.92,3.88c-.23.33.19.48.46.47a1.49,1.49,0,0,0,1.15-.46,16.32,16.32,0,0,0,2-4.12c.12-.36-.55-.37-.74-.34s-.87.2-1,.57Z"/><path class="cls-2" d="M120.51,50.33c0,2.27,0,4.86-1.69,6.6a.44.44,0,0,0,.2.77,1.27,1.27,0,0,0,1.23-.33c1.86-1.93,2-4.66,2-7.2,0-.41-.43-.54-.79-.5s-1,.25-1,.66Z"/><path class="cls-2" d="M120.61,42.56c2.27-.18,4.54-.44,6.79-.8.37-.06.9-.25.95-.7s-.46-.62-.8-.57c-2.25.36-4.51.62-6.78.8-.38,0-.91.27-1,.7s.46.6.8.57Z"/><path class="cls-2" d="M132.7,42A48.61,48.61,0,0,1,129.78,47c-.18.27.63.2.7.18a1.56,1.56,0,0,0,1-.48,46.74,46.74,0,0,0,2.91-4.92c.15-.29-.6-.2-.7-.18-.3.06-.85.17-1,.48Z"/><path class="cls-2" d="M133.07,49.51l.16,0h0l.24-.08.53-.14.25-.06.09,0,.54-.11a15,15,0,0,1,2-.24l-.29-.36a1,1,0,0,0-.48.72c-.06.32-.11.64-.18,1s-.15.64-.24,1c0,.16-.1.32-.16.47a2.29,2.29,0,0,0-.09.28c0,.06,0,.13,0,.19l.35-.26,0,0L137,51.6l0,0,0,.14v0l-1,.47h0a3,3,0,0,0,.67-.2c.08,0,.32-.15.35-.27.1-.28-.59-.18-.69-.16h0a3,3,0,0,0-.67.2c-.09.05-.33.15-.35.27s0,.12.05.19.42.05.55,0a3.55,3.55,0,0,0,.77-.22c.23-.11.38-.2.43-.44a3.12,3.12,0,0,1,.15-.43c.11-.33.2-.66.28-1s.15-.64.2-1c0-.13,0-.27.07-.4a1.72,1.72,0,0,1,.07-.21s.08-.12,0-.07c.09-.06.25-.16.18-.28s-.36-.09-.47-.08a19.5,19.5,0,0,0-5.13,1c-.12,0-.75.28-.52.48s.34.06.44,0a3.18,3.18,0,0,0,.68-.15Z"/><path class="cls-2" d="M131.9,52.93a24.45,24.45,0,0,1,4.28-.1,1.3,1.3,0,0,0,1.14-.49c.21-.37-.18-.57-.49-.59a28.61,28.61,0,0,0-4.72.11c-.34,0-.91.23-1,.63s.5.47.77.44Z"/><path class="cls-2" d="M64.34,32.94q-.6,7.25-.79,14.52c0,.21.64.11.71.1,3.18-.49,7.53.24,7.9,4.17S68,55.12,65.49,55.61c-.21,0-1.06.21-1,.57a19.91,19.91,0,0,0,.24,3.09c.21.93,1,1,1.86,1a22.41,22.41,0,0,0,5.61-.11,8.66,8.66,0,0,0,7.37-6.46c.89-3.5.33-8.21-3.22-10-1.45-.75-3-.34-4.44-.81-1.06-.33-1.2-1.19-1.16-2.19,0-.58.07-1.15.11-1.72,0-.23,0-.46,0-.68.06-.62-.28-.49.27-.58a36.68,36.68,0,0,1,3.93-.18,8.86,8.86,0,0,0,3.24-.44,1.62,1.62,0,0,0,1-1.67c0-1.34,0-2.68,0-4,0-.16-.42-.13-.49-.13-4.38.37-8.75.68-13.08,1.41-.21,0-1,.2-1,.48s.52.22.7.19c4.19-.71,8.42-1,12.65-1.35l-.5-.13,0,2.91c0,.45,0,.92,0,1.36-.07.69-.41.59-1,.61l-3.14.15a14.92,14.92,0,0,0-2.84.23A2,2,0,0,0,69.3,38,6.05,6.05,0,0,0,69,40.32c-.1,1.57-.12,2.94,1.64,3.34,1.46.33,2.89,0,4.25.79a6.45,6.45,0,0,1,2.91,4.07c.84,3.21.2,7.46-2.44,9.7-1.67,1.42-3.89,1.53-6,1.46-.82,0-2.66.16-3-.75a14.35,14.35,0,0,1-.27-3.22l-1,.57c2.9-.57,8.58-.28,8.75-4.5a4.87,4.87,0,0,0-2.83-4.38,11.13,11.13,0,0,0-6.51-.51l.71.1q.19-7.26.79-14.51c0-.26-1.7-.07-1.74.46Z"/></svg>