<svg id="レイヤー_1" data-name="レイヤー 1" xmlns="http://www.w3.org/2000/svg" viewBox="0 0 296.11 38.89"><defs><style>.cls-1{fill:#f6beba;}.cls-2{fill:#231815;}</style></defs><path class="cls-1" d="M48.18,2.34l3.14,2.24-2.4,2.49A16.21,16.21,0,0,0,45.27,5a12,12,0,0,1,2.57-2.4"/><path class="cls-1" d="M47.5,2.8,50.64,5l0-.65-2.4,2.5,1.39-.27A17,17,0,0,0,46,4.5l0,.66A11.64,11.64,0,0,1,48.4,2.88c.26-.18.48-.56.12-.78a1.26,1.26,0,0,0-1.24.14,13.07,13.07,0,0,0-2.72,2.53c-.15.18-.28.52,0,.65a16.83,16.83,0,0,1,3.65,2.11c.36.28,1.11,0,1.39-.26L52,4.77a.39.39,0,0,0,0-.65L48.86,1.88c-.53-.38-2.11.39-1.36.92Z"/><path class="cls-1" d="M60.93,1.41,58.05,3.34c-.12.08-.25.17-.26.31A.46.46,0,0,0,58,4a19.94,19.94,0,0,0,1.71,1.73.91.91,0,0,0,.45.27.93.93,0,0,0,.61-.2l2.85-1.71c.1-.07.22-.14.24-.26a.46.46,0,0,0-.16-.35L61.1.67"/><path class="cls-1" d="M60.34,1,58.76,2.06a11.23,11.23,0,0,0-1.51,1,1,1,0,0,0-.33.87,1.55,1.55,0,0,0,.47.69c.41.46.84.89,1.29,1.31a1.87,1.87,0,0,0,1.67.69A5.27,5.27,0,0,0,62,5.81l1.63-1c.5-.3,1.29-.73,1-1.45a3.06,3.06,0,0,0-.58-.72l-.72-.79L61.89.27A1,1,0,0,0,60.71.13c-.29.14-.71.59-.41.93.86.94,1.75,1.86,2.57,2.83A1.47,1.47,0,0,1,63,4c.23-.39.26-.52.09-.38l-.08,0-.2.12L62,4.3l-1.58,1a2.14,2.14,0,0,0-.3.17.51.51,0,0,1,.45,0l-.14-.1c-.22-.19-.42-.39-.63-.59s-.39-.39-.57-.58l-.3-.33s-.2-.29-.25-.3c.25,0-.36.5.08.2l.4-.27.79-.53,1.59-1.07A.56.56,0,0,0,61.59.9,1.12,1.12,0,0,0,60.34,1Z"/><path class="cls-1" d="M53.05.68,52.6,8.94a12.71,12.71,0,0,1-6.78-.38l-.18,3.56A20.69,20.69,0,0,1,50,12a17.08,17.08,0,0,1-5,3.51l1.41,2.58A18.25,18.25,0,0,0,53,14.63v3.24l3.71-.19-.19-3.41A29.8,29.8,0,0,0,63.33,17a23.38,23.38,0,0,1,1.61-2.95,45.22,45.22,0,0,1-7-2.64,12.46,12.46,0,0,0,3.45,0,2.58,2.58,0,0,0,1-.31c.9-.56.87-1.86.73-2.92a28.15,28.15,0,0,1-6.8.2L56.85.61,53.69.7"/><path class="cls-1" d="M52.18.77,51.73,9l.74-.6A11.83,11.83,0,0,1,46.34,8C46,7.92,45,8.13,45,8.66l-.19,3.55c0,.4.46.5.78.46a21.4,21.4,0,0,1,4.16-.13l-.39-.74a16.79,16.79,0,0,1-4.6,3.28c-.31.15-.64.42-.45.78l1.42,2.57c.15.27.72.22.94.15a20.28,20.28,0,0,0,7-3.63l-1.43-.23V18c0,.41.44.47.78.45l3.71-.19c.41,0,1-.3,1-.78L57.4,14l-1.56.68a32,32,0,0,0,7,2.84,1.29,1.29,0,0,0,1.34-.47,25.53,25.53,0,0,1,1.61-2.95c.17-.27-.05-.5-.3-.57A45.1,45.1,0,0,1,58.62,11l-1,1c1.6.22,3.8.41,5.25-.46,1.27-.75,1.3-2.2,1.14-3.52,0-.3-.56-.34-.77-.31a29.56,29.56,0,0,1-6.58.19l.55.46L57.72.52c0-.42-.46-.46-.77-.45L53.79.16c-.92,0-1.39,1.12-.2,1.09l3.16-.09L56,.7l-.52,7.84c0,.32.28.44.55.46a31.11,31.11,0,0,0,7-.2l-.77-.31c.09.77.26,2.08-.63,2.41a7.66,7.66,0,0,1-3.37,0c-.38-.05-1.79.64-1,1a48.44,48.44,0,0,0,7.17,2.71l-.3-.57A27.14,27.14,0,0,0,62.51,17l1.34-.47a30.18,30.18,0,0,1-6.64-2.71c-.49-.27-1.59,0-1.55.69l.19,3.42,1-.78-3.71.19.77.45V14.54c0-.66-1.09-.51-1.43-.23a17.69,17.69,0,0,1-6.11,3.26l.94.15-1.42-2.58-.44.78a19.29,19.29,0,0,0,5.3-3.74c.37-.37,0-.72-.39-.74a22.82,22.82,0,0,0-4.6.14l.77.45.19-3.56-1.4.61a14.45,14.45,0,0,0,7.44.36c.24,0,.72-.29.74-.59L53.93.58c0-.79-1.72-.48-1.75.19Z"/><path class="cls-1" d="M49.63,18.61c-.24.68-1.13,2.76-1.13,2.76a45.57,45.57,0,0,1-6.21.27,10.42,10.42,0,0,1-.67,3H48l-2.11,4.23L51.13,30l-2.47,3.7,2.17,1.55L54.31,31l4,.92,1.66-2s-2.69-.51-3.66-1.48a22,22,0,0,0,1.39-3.84l4,0s1.06-3.17,1.48-2.76a16.09,16.09,0,0,0-3.59-.37A12.57,12.57,0,0,1,60,19.14l-2.53.23-1.06,2.12a34.43,34.43,0,0,1-4.4-.25l.34-2L49.51,19"/><path class="cls-1" d="M48.77,18.77c-.33.93-.73,1.84-1.12,2.75L48.88,21a32,32,0,0,1-6,.26c-.3,0-1.43.15-1.43.58a8.84,8.84,0,0,1-.66,2.95c-.07.17.18.19.29.19H47.4l-.3-.19L45,29.05c-.05.1.06.16.14.17l2.23.45a19.09,19.09,0,0,0,2.9.58c.3,0-.06,0,0-.13a1,1,0,0,1-.16.24,6.55,6.55,0,0,0-.83,1.24l-1.47,2.21a.09.09,0,0,0,0,.13L50,35.5c.39.28,1.41-.13,1.67-.45l3.48-4.2-1.57.49,4,.92a2,2,0,0,0,1.5-.4l1.66-2c.1-.12.12-.22-.07-.26-.74-.14-3.37-.61-3.42-1.49,0-.27.35-.77.45-1s.27-.75.4-1.14.31-1,.44-1.47l-1.42.5,4,0c.32,0,1.29-.11,1.42-.51s.27-.78.43-1.16.22-.55.35-.82.15-.25.21-.39.33-.31,0-.16l-1.06.25-.14,0,1.54-.63a19.64,19.64,0,0,0-3.75-.39l.31.12a10.16,10.16,0,0,1,.4-2.32c.06-.23-.36-.19-.48-.18a12.76,12.76,0,0,0-3.21.38c-.9.35-1.21,1.66-1.61,2.46l1.42-.5c-.71,0-1.41,0-2.12-.05-.5,0-1,0-1.49-.09s-.36,0-.44-.31a5.45,5.45,0,0,1,.27-1.57c0-.1,0-.16-.14-.17l-2.85-.31a2.21,2.21,0,0,0-1.21.23c-.11.05-.63.39-.22.43l1.6.18c.18,0,.91,0,1,.11s-.21,1.54-.26,1.8c0,.11,0,.16.14.18a26.73,26.73,0,0,0,4.56.27c.38,0,1.22-.11,1.42-.51l1.06-2.11-1.24.49,2.53-.23-.48-.18a10.83,10.83,0,0,0-.42,2.46c0,.1.27.12.3.12a17.23,17.23,0,0,1,3.44.35c.27.06,1.85-.43,1.54-.62-.7-.43-1.79.23-2.17.83a11.25,11.25,0,0,0-1,2.38l1.42-.51-4,0c-.31,0-1.32.11-1.42.5a18.54,18.54,0,0,1-1.39,3.84.1.1,0,0,0,0,.14,8.07,8.07,0,0,0,3.77,1.51L59.23,30l-1.66,2,1.5-.4-4-.92a1.85,1.85,0,0,0-1.57.48L50,35.36l1.68-.45-1.5-1.08c-.12-.08-.59-.32-.65-.46.08.19.19-.14.3-.3L52,29.79c.07-.1-.07-.16-.14-.17-1.71-.34-3.53-.53-5.19-1-.19-.06,0,.16.07.11s.12-.26.19-.38l.7-1.4,1.2-2.41c.08-.16-.2-.19-.29-.19H42.18l.29.19a9.18,9.18,0,0,0,.69-3.09L41.72,22a34.41,34.41,0,0,0,6.41-.28c.29,0,1.09-.16,1.23-.5.39-.91.79-1.82,1.12-2.76.11-.29-1.55-.12-1.71.32Z"/><path class="cls-1" d="M52.13,24.89a3.36,3.36,0,0,1-.45,1.48l1.45.47.44,0a1.8,1.8,0,0,0,.34-.48c.18-.62.34-1.24.48-1.87l-2.15,0"/><path class="cls-1" d="M51.26,25.12c0,.15,0,.29,0,.43v-.08a3.46,3.46,0,0,1-.4,1.07c-.06.1.07.14.14.16l.94.29a3.16,3.16,0,0,0,.52.17,2.92,2.92,0,0,0,1.65-.2,1.36,1.36,0,0,0,.74-.91c.17-.56.31-1.12.43-1.69a.09.09,0,0,0,0-.13.55.55,0,0,0-.25,0l-2.15,0a2.35,2.35,0,0,0-.64.09,2.13,2.13,0,0,0-.59.23c-.07.05-.24.14-.21.24s.23.1.3.1l2.15,0-.29-.17c-.11.5-.23,1-.37,1.49a1.86,1.86,0,0,1-.21.57l-.14.18s-.11.12,0,0l0,0,1.5-.4-.41,0a1,1,0,0,1-.23-.07l-1.25-.4.14.16A3.67,3.67,0,0,0,53,24.66c0-.1-.28-.1-.3-.1a2.18,2.18,0,0,0-.63.09,2.09,2.09,0,0,0-.6.24c-.09.05-.2.11-.21.23Z"/><path class="cls-1" d="M68.76,4a22.08,22.08,0,0,1-3.3,10.09l3.18,1.75,1.42-3.39,5.77.12a17.58,17.58,0,0,1-3.31,5.12,9.89,9.89,0,0,0-2.75-2.83L67.4,18.3l2.25,2.92A1.27,1.27,0,0,1,70,22c0,.34-6.1,9.08-6.1,9.08l3.61,1.44L73,25.88l4.87,7,4-2.48s-6-8-6-7.51c0,.27-.43-.38-.47-.65a1.24,1.24,0,0,1,.26-.75l4.69-7.35a1.93,1.93,0,0,1,.63-.7,2,2,0,0,1,1-.16l3.18.06A37.21,37.21,0,0,0,85.33,9l-14,.24L73.16,5a18.56,18.56,0,0,0-4.58-1.16"/><path class="cls-1" d="M67.9,4.13a22.67,22.67,0,0,1-3.24,10c-.11.18-.08.29.11.39l3.17,1.75a1.4,1.4,0,0,0,1.57-.52l1.42-3.39-1.22.57,5.77.11L75,12.69a18.12,18.12,0,0,1-3.24,5l1.61-.33a10.73,10.73,0,0,0-2.75-2.83,1.42,1.42,0,0,0-1.61.34L66.6,18.31a.24.24,0,0,0,0,.32l1.27,1.64c.32.42,1.16,1.14,1.22,1.67,0,.32-.11.47-.29.76-.66,1.06-1.38,2.09-2.08,3.12-1.19,1.76-2.4,3.51-3.61,5.25a.23.23,0,0,0,.11.38l3.6,1.44a1.53,1.53,0,0,0,1.51-.4l5.44-6.62-1.61.34,4.87,7c.23.32,1.11,0,1.34-.12l4-2.48c.18-.11.45-.31.28-.54-1.07-1.41-2.14-2.81-3.23-4.21-.68-.86-1.35-1.73-2-2.57-.41-.48-.7-.95-1.39-.85-.3,0-.91.21-1,.56l0,0,1.61-.33c-.92-.83.63-2.41,1.13-3.19l1.82-2.86,1-1.63c.2-.31.41-.89.7-1.08.44-.3,1.18-.13,1.68-.12l1.82,0c.27,0,1.18-.18,1.21-.57a41.56,41.56,0,0,0,.17-4.46c0-.2-.41-.22-.52-.22l-14,.24.51.33L74,4.82c0-.12-.07-.23-.17-.27a21.38,21.38,0,0,0-4.74-1.19c-.49-.07-2,.74-1.08.87.64.08,1.27.19,1.91.33.38.09,2,.36,2.14.78s-.54,1.49-.7,1.87l-.91,2.14c-.11.27.38.33.52.33l14-.24-.52-.22a40,40,0,0,1-.16,4.24l1.22-.57a15.34,15.34,0,0,0-4.44.09c-1.34.38-1.89,1.71-2.58,2.8l-2.87,4.5c-.57.89-1.67,2-.62,3,.35.32,1.36,0,1.61-.34a.59.59,0,0,0,.11-.19l-1,.55c-.69.11-.68-.17-.24.32.25.28.48.57.72.87.7.85,1.38,1.73,2.06,2.6l2.78,3.63.28-.53-4,2.48,1.33-.11-4.87-7c-.29-.42-1.37,0-1.61.33L66.71,32.5l1.5-.4L64.6,30.67l.11.38q2.3-3.3,4.55-6.64c.44-.65,1.47-1.71,1.6-2.53s-1.31-2.17-1.8-2.81c-.66-.85-.67-1-.07-1.92l1.58-2.3L69,15.19A10.69,10.69,0,0,1,71.71,18c.28.43,1.36-.06,1.61-.33a18.94,18.94,0,0,0,3.37-5.24c.12-.27-.38-.32-.51-.32L70.41,12c-.38,0-1,.17-1.21.57L67.78,16l1.56-.52L66.16,13.7l.11.38a23.25,23.25,0,0,0,3.36-10.2c.05-.62-1.69-.28-1.73.25Z"/><path class="cls-1" d="M98.57,2.8l0,5a39.51,39.51,0,0,1-8.05.56l-1.27,6.86,4.48.18A18.6,18.6,0,0,0,93.8,12q8.69-.13,17.37,0l-1.46,3.57,4.5.51A1.17,1.17,0,0,0,115,16a1.24,1.24,0,0,0,.41-.79l1.63-7.06a103.94,103.94,0,0,1-14.86-.7,19,19,0,0,1,.67-4.49,16.17,16.17,0,0,0-4.66,0"/><path class="cls-1" d="M97.7,3l0,5,1-.63A41,41,0,0,1,90.85,8c-.27,0-1.16.17-1.23.54l-1.26,6.86c0,.19.15.27.31.27l4.48.19c.31,0,1.37-.09,1.41-.54a21.8,21.8,0,0,0,.11-3.52l-1.23.64q8.69-.13,17.37,0l-.5-.28-1.46,3.57c-.08.19.18.26.31.27,1.49.17,3,.42,4.5.52a2.94,2.94,0,0,0,2.1-.48c.82-.69.85-2.32,1.07-3.29L117.92,8c.06-.27-.34-.28-.5-.28A107.32,107.32,0,0,1,102.75,7l.32.17a20.34,20.34,0,0,1,.66-4.39c0-.2-.16-.25-.31-.27a19.13,19.13,0,0,0-5.07,0c-.76.1-1.51.93-.29.78a16.42,16.42,0,0,1,4.26,0L102,3.08a21.55,21.55,0,0,0-.67,4.58c0,.12.27.17.32.18a109.68,109.68,0,0,0,15,.7l-.5-.28-1.47,6.36c0,.08-.34,1.44,0,1.05a4.93,4.93,0,0,1-1.35-.16l-3.15-.36.31.27L112,11.86c.1-.27-.38-.28-.51-.28q-8.69-.11-17.37,0c-.32,0-1.25.18-1.23.64a20.56,20.56,0,0,1-.09,3.33L94.25,15l-4.48-.19.32.27,1.26-6.85-1.22.54a43.26,43.26,0,0,0,8.27-.58c.29-.05,1-.21,1-.62l0-5c0-.39-1.73-.11-1.73.46Z"/><path class="cls-1" d="M97.56,14.78,97,17.91a18.33,18.33,0,0,1,5.12-.27,19.18,19.18,0,0,1-4.93,4.09,4.09,4.09,0,0,1,2.43,4.44,47,47,0,0,1-9-.39,19,19,0,0,0-.06,3.85q3.8.15,7.59.12c-.57,1.61-3.43,3.63-3.43,3.63l4.86,2s2.79-3,3.52-4.9a47.12,47.12,0,0,0,9.27-.52l.45-3.24-7.47-1.26a3.17,3.17,0,0,1-1.13-.35,2.26,2.26,0,0,1-.66-2.7,9.88,9.88,0,0,1,1.72-2.47,13,13,0,0,0,2.32-4.56l-10-.26"/><path class="cls-1" d="M96.68,14.86,96.12,18c-.1.54.72.49,1,.44a17.78,17.78,0,0,1,4.66-.23l-.39-.78a19.39,19.39,0,0,1-4.79,4c-.25.15-.5.63-.11.81a3.76,3.76,0,0,1,2.23,4.05l1-.65a46.34,46.34,0,0,1-8.81-.4c-.37-.05-1.14.19-1.19.66a21.39,21.39,0,0,0-.06,4c0,.23.37.34.55.34q3.8.15,7.59.12l-.5-.64A8.74,8.74,0,0,1,94.12,33c-.39.29-.42.69,0,.88L99,35.87a1.31,1.31,0,0,0,1.23-.33,17.8,17.8,0,0,0,3.62-5l-1.14.51a51.19,51.19,0,0,0,9.5-.52c.34,0,.91-.23,1-.65l.45-3.25c0-.33-.3-.44-.56-.48l-5.4-.91C106.24,25,104,25,104.24,23c.15-1.42,1.48-2.47,2.26-3.58a14,14,0,0,0,1.93-4.12c.09-.3-.33-.48-.55-.49l-10-.26c-.37,0-1,.11-1.14.5s.12.63.5.64l10,.27-.56-.49a14.5,14.5,0,0,1-2.8,5.05c-.88,1.09-1.77,2.42-1.28,3.89s2.11,1.57,3.43,1.79l6.44,1.09-.56-.49L111.46,30l1-.66a48.1,48.1,0,0,1-9.05.52c-.37,0-1,.11-1.14.5a16.49,16.49,0,0,1-3.41,4.76l1.23-.33-4.86-2,0,.88a10.23,10.23,0,0,0,3.68-3.91c.14-.36-.12-.64-.5-.64q-3.81,0-7.6-.11l.56.34a20.91,20.91,0,0,1,.07-3.71l-1.2.66a49.41,49.41,0,0,0,9.26.38c.34,0,.91-.25,1-.65a4.53,4.53,0,0,0-2.64-4.82l-.11.81a21.28,21.28,0,0,0,5.09-4.22c.33-.39.06-.74-.4-.78a21.77,21.77,0,0,0-5.58.32l1,.44.57-3.14c.14-.78-1.63-.53-1.76.17Z"/><path d="M122.62,19l6.19.34-.56-.53A14.68,14.68,0,0,0,124,28a3.21,3.21,0,0,0,2.12,3.47,8.73,8.73,0,0,0,4.8-.29c.27-.08,1.08-.34,1-.75s-1-.24-1.22-.18a4.41,4.41,0,0,1-3.31,0c-1.29-.73-1.3-2.41-1.09-3.7a14.68,14.68,0,0,1,4-7.89c.38-.39-.33-.52-.56-.53l-6.18-.34a1.88,1.88,0,0,0-1.44.56c-.28.43.24.51.55.53Z"/><path d="M131.14,14.06a14.7,14.7,0,0,0,1.79,5.46c.31.55,2.37-.25,2.17-.59a14.78,14.78,0,0,1-1.79-5.45c0-.14-.31-.16-.38-.16a2.38,2.38,0,0,0-.8.1,2.42,2.42,0,0,0-.74.31c-.11.07-.27.18-.25.33Z"/><path d="M136.49,13a14.79,14.79,0,0,0,1.8,5.45c.31.56,2.36-.24,2.17-.58a14.6,14.6,0,0,1-1.79-5.45c0-.14-.31-.16-.39-.17a2.65,2.65,0,0,0-.79.11,2.42,2.42,0,0,0-.74.31c-.11.07-.27.18-.26.33Z"/><path d="M146.33,15.63a4,4,0,0,0,3,3.09,8.73,8.73,0,0,0,5.73-.89L153.75,17c-2.77,3.41-7.54,12.82-.85,15a7.31,7.31,0,0,0,7-1.65c2.1-2,2.84-4.93,2.85-7.72,0-1-2.16-.67-2.19.21a5.13,5.13,0,0,0,5,5.23,1.52,1.52,0,0,0,1.42-.63c.21-.46-.18-.79-.63-.81a3.91,3.91,0,0,1-3.6-4l-2.19.21a9.89,9.89,0,0,1-1.88,6.38,4.12,4.12,0,0,1-4.89,1.27c-2.26-1.06-2.23-3.86-1.73-6a17.62,17.62,0,0,1,3.5-7c.75-.93-.75-1.11-1.36-.83a5.13,5.13,0,0,1-3.76.59,2.79,2.79,0,0,1-1.91-2.24c-.14-.9-2.32-.37-2.18.58Z"/><path d="M177.63,15.8a45.61,45.61,0,0,0-2.2,8.58c-.32,2.15-1,5.12.82,6.81,1.51,1.44,4,1.32,5.8.59a6.88,6.88,0,0,0,4-5.13c.12-.6-2-.25-2.15.35-.31,1.53-1.21,3.76-2.89,4.25s-3.28-1-3.64-2.5a9,9,0,0,1,0-3.11c.13-1.12.3-2.24.52-3.36a46.4,46.4,0,0,1,1.89-6.83c.18-.5-1.94-.25-2.15.35Z"/><path d="M172,18.38a25.13,25.13,0,0,0,9,.54,2.42,2.42,0,0,0,1.45-.52c.32-.34-.28-.37-.51-.34a22.77,22.77,0,0,1-8.14-.52,2.53,2.53,0,0,0-1.52.28c-.19.09-.74.44-.26.56Z"/><path d="M197.33,7l-2,2.28a.63.63,0,0,0-.2.53.6.6,0,0,0,.44.36,1.63,1.63,0,0,0,.82,0,1.46,1.46,0,0,0,.72-.39l2-2.28a.62.62,0,0,0,.2-.53.59.59,0,0,0-.44-.35,1.53,1.53,0,0,0-.82,0,1.46,1.46,0,0,0-.71.39Z"/><path d="M199.77,7.36l4.34.24-.64-.26c.08,1.83-1.94,3.07-2.76,4.54a14.71,14.71,0,0,0-1.4,5.53L197.6,31.69c-.1.76,2,.33,2.16-.31l.52-2.79c.14-.72-2-.36-2.16.31l-.52,2.79,2.16-.31c.59-4.91,1.16-9.81,1.77-14.71.24-2,.53-4.11,1.8-5.74,1-1.31,2.39-2.37,2.31-4.17,0-.26-.5-.26-.65-.27l-4.34-.25c-.76,0-2.34,1-.88,1.12Z"/><path d="M199.16,13.61a37.44,37.44,0,0,0,10.09-1.44l-1.18,0-.4,21,2.17-.58-1-2.3c-.21-.5-2.33.2-2.17.58l.95,2.3c.19.47,2.16-.08,2.17-.58l.41-20.95c0-.3-1.11-.05-1.18,0a31.27,31.27,0,0,1-8.49,1.21,2.68,2.68,0,0,0-1.54.41c-.28.23-.35.46.12.46Z"/><path d="M200.33,19.6q3.43-.78,6.93-1.22a2.7,2.7,0,0,0,1.46-.5c.33-.32-.3-.31-.5-.28a75.55,75.55,0,0,0-7.46,1.3,4.16,4.16,0,0,0-.83.25c-.08,0-.42.18-.45.3-.09.33.72.18.85.15Z"/><path d="M199.07,25.71a29.16,29.16,0,0,0,9.52-2.15c.23-.1.9-.4.61-.74s-1.13-.06-1.41.06A24,24,0,0,1,200,24.67a2,2,0,0,0-1.44.56c-.29.39.25.5.55.48Z"/><path d="M203.85,13.11l-.46,10.73c0,1,2.15.59,2.19-.23L206,12.88c0-1-2.15-.59-2.19.23Z"/><path d="M215.53,9.4l6.78-.69-.62-.13a14.93,14.93,0,0,1-2.38,6.47c-.21.32.78.2.86.19a2.08,2.08,0,0,0,1.28-.58A15.32,15.32,0,0,0,223.87,8c0-.18-.56-.14-.61-.13l-6.79.69a2.5,2.5,0,0,0-1.45.51c-.35.33.32.35.51.33Z"/><path d="M217.08,10.42a5.33,5.33,0,0,1-.13,1.15q-.07.31-.18.63l-.12.3s0,.1,0,0l-.07.16a6.12,6.12,0,0,1-.67,1.06l-.09.11c.07-.09,0,0,0,0l-.2.21a5.47,5.47,0,0,1-.51.45.52.52,0,0,0-.21.49.52.52,0,0,0,.42.31,1.87,1.87,0,0,0,1.54-.41,6.39,6.39,0,0,0,2.44-5.1c0-.18-.31-.29-.43-.32a1.71,1.71,0,0,0-.81,0c-.43.12-.94.36-.94.86Z"/><path d="M214.49,20.09a5.44,5.44,0,0,1,.08,2V22a5.28,5.28,0,0,1-.71,2c-.08.13.09.21.18.23a1.61,1.61,0,0,0,.69,0,3.08,3.08,0,0,0,.83-.26,1,1,0,0,0,.44-.33,5.52,5.52,0,0,0,.65-4c0-.13-.3-.15-.38-.15a2.6,2.6,0,0,0-.79.1,2.76,2.76,0,0,0-.75.31c-.09.07-.28.18-.25.32Z"/><path d="M215.62,22a36,36,0,0,0,7.94-.93c.21-.05,1.06-.29,1-.62s-1-.06-1.18,0a29.47,29.47,0,0,1-6.34.71,3.06,3.06,0,0,0-1.54.41c-.09.06-.29.18-.26.32s.29.14.38.14Z"/><path d="M215.84,27.59a30.47,30.47,0,0,0,6.81-1.24c.34-.1,1-.4.93-.88s-.93-.4-1.25-.3a26,26,0,0,1-6.22,1.12c-.42,0-1.14.3-1.23.77s.64.55,1,.53Z"/><path d="M218.11,19.72V32.25c0,.4,2.17.08,2.17-.58V19.14c0-.4-2.17-.08-2.17.58Z"/><path d="M238.21,13.67a28.88,28.88,0,0,1-8.76,8.64c-.19.12-.62.53-.33.78a102.1,102.1,0,0,1,10.93,10.48c.52.58,2.6-.21,2-.86a101.07,101.07,0,0,0-10.92-10.48l-.33.77a31.19,31.19,0,0,0,9.43-9.26c.56-.86-1.63-.69-2-.07Z"/><path d="M172.05,24.73a27.51,27.51,0,0,0,9.41-1.26c.29-.09,1.06-.33,1-.76s-1-.26-1.21-.19a24,24,0,0,1-8.28,1.09,1.86,1.86,0,0,0-1.44.57c-.29.42.25.53.56.55Z"/><path class="cls-2" d="M259.56,9.84a103.62,103.62,0,0,1-5,14.76c-.48,1.15,1.7,1.16,2.08.26a108.23,108.23,0,0,0,5.09-15.18c.13-.54-.63-.74-1-.72a1.27,1.27,0,0,0-1.2.88Z"/><path class="cls-2" d="M252.24,31.31a1.6,1.6,0,0,1,.2,1.21l0-.09a1.82,1.82,0,0,1-.27.64l-.09.13c-.07.09.05-.05,0,0l-.06.07a.76.76,0,0,1-.14.11s.15-.09.06,0l0,0,.13-.06,1.7-.19a1.32,1.32,0,0,1-.09-.81v.09a1.57,1.57,0,0,1,.25-.58l0-.05s.06-.06,0,0,0,0,0,0a.12.12,0,0,0,0-.05s0,0,.06,0-.15.09-.06.05.14-.08,0,0l-.06,0-.16.06-1.27.2.14,0s-.13,0,0,0l.06,0a1.2,1.2,0,0,1,.21.17l-.06-.06a1.22,1.22,0,0,1,.24,1l0-.09a1.2,1.2,0,0,1-.15.37l0,0,0,0-.06,0c-.12.11.14-.09,0,0l.14-.07c.21-.08.27-.1.17-.07l1.08-.2c.23,0,0,0-.09,0,.12,0,0,0,0,0L254.1,33a1.34,1.34,0,0,1-.39-.32l.06.07a1.26,1.26,0,0,1-.33-1.06l0,.09a1.15,1.15,0,0,1,.24-.48c.07-.09-.09.08,0,0l.11-.09c.1-.09-.14.08,0,0s-.19.08-.05,0l-.16.07a2.62,2.62,0,0,1-.33.09c-.12,0-.14,0-.07,0l-.17,0h-.21l.11,0h0l.06,0,.1,0,.19.16-.06-.07a1.14,1.14,0,0,1,.23.94l0-.09a.91.91,0,0,1-.17.39c-.08.12.06,0,0,0l-.07.05.08-.05a1.28,1.28,0,0,1,.24-.11,2.33,2.33,0,0,1,.83-.18c-.16,0,.12,0,0,0l-.15,0h0l0,0-.12-.06a1.44,1.44,0,0,1-.39-.31l.06.07a1.46,1.46,0,0,1-.35-1.2l0,.09a1.18,1.18,0,0,1,.1-.3l.07-.11.05-.06c0-.05-.07.06,0,0l.11-.1c.08-.06-.07.06-.08.05l.07,0-.12.07c.1-.05-.28.1-.15,0l-.19.06c.14,0-.31.07-.18,0l-.18,0s.13,0,0,0,0,0,0,0h0a.74.74,0,0,0,.14,0s-.11,0,0,0l.07,0,.11,0a1.45,1.45,0,0,1,.23.19l-.06-.07a.9.9,0,0,1,.21.77l0-.09a1.33,1.33,0,0,1-.21.47l-.06.08,0,0s0,0,0,.05l-.08.07c-.09.08.17-.11,0,0s0,0,.12,0c-.07,0,0,0,.06,0a3.18,3.18,0,0,1,.75-.19h.22l-.1,0h0l-.06,0-.07,0a.7.7,0,0,1-.16-.14l.06.07a1,1,0,0,1-.19-.88l0,.09a1,1,0,0,1,.19-.44l0,0s-.08.07,0,0,.07-.08.09-.08l-.09.06-.13.07a2.66,2.66,0,0,1-1.07.25l-.37-.12a.84.84,0,0,1,.12.64l0-.09a1.33,1.33,0,0,1-.13.35c0,.06-.07.11-.1.16s0,0,0,0l-.07.07-.08.06c-.08.08.14-.08.06,0l-.07,0,.12-.06.19-.08a3.09,3.09,0,0,1,.67-.15c-.15,0,.24,0,.1,0,.06,0,.18,0,.06,0h0a1.27,1.27,0,0,0-.55,0,3.43,3.43,0,0,0-.84.2,1.47,1.47,0,0,0-.61.31c-.06.05-.2.2,0,.25a2.61,2.61,0,0,0,1.61,0,3.26,3.26,0,0,0,1.35-.65,1.29,1.29,0,0,0,.46-1.33,1,1,0,0,0-.07-.15c-.1-.15-.26-.14-.42-.15a3.93,3.93,0,0,0-1.27.25,2.12,2.12,0,0,0-1,.65,1.29,1.29,0,0,0-.21,1.14c.19.62.86.73,1.43.67a4,4,0,0,0,1.79-.58,2,2,0,0,0,.65-.67,1,1,0,0,0-.23-1.33,2.31,2.31,0,0,0-1.92-.25,4.11,4.11,0,0,0-1.65.67,1.27,1.27,0,0,0-.46.59,1.43,1.43,0,0,0,.25,1.4,1.53,1.53,0,0,0,.59.48,2.55,2.55,0,0,0,1.52.08,4.14,4.14,0,0,0,1.28-.44,1.67,1.67,0,0,0,.42-.32,1.17,1.17,0,0,0,.29-.66,1.12,1.12,0,0,0-.55-1.14,2.08,2.08,0,0,0-1.26-.1,4.2,4.2,0,0,0-1.69.58,1.4,1.4,0,0,0-.74,1.52,1.62,1.62,0,0,0,1.29,1.12,2.89,2.89,0,0,0,1.45-.18,2.94,2.94,0,0,0,.79-.4,1.15,1.15,0,0,0,.39-.51,1.36,1.36,0,0,0-.08-1.15,1,1,0,0,0-.43-.4,1.5,1.5,0,0,0-.36-.11,2.86,2.86,0,0,0-1.26.2,3.51,3.51,0,0,0-.6.26,1.83,1.83,0,0,0-1,1.38,1.26,1.26,0,0,0,.11.71c.08.18.46.12.6.11a3.21,3.21,0,0,0,1.1-.3,2.22,2.22,0,0,0,1.28-1.32,1.72,1.72,0,0,0-.15-1.45c-.07-.12-.25-.12-.37-.12a3,3,0,0,0-.79.11,3.27,3.27,0,0,0-.75.3c-.06,0-.33.19-.26.29Z"/><path class="cls-1" d="M9.06,31.67s-4-3.2-4.8-7.2c-1.08-5.4-2.37-9.66-2.89-15.15,3,.64,6.09.75,10.09,2.35,4.61,1.84,7,3.7,10.4,8.8,3.2,4.8,6,12.91,0,15.2A18.36,18.36,0,0,1,9.06,31.67Z"/><path class="cls-2" d="M23.22,38.14l-.7-2c-.06-.19-.47-.13-.61-.12-3.23.19-6.61.36-9.74-.64a10.94,10.94,0,0,1-6.83-6.43c-2.7-6.43-.9-13.67-3.16-20.2L.07,9.37C2.49,12,6,12.62,9.18,13.87a24,24,0,0,1,8.06,5.19,18.56,18.56,0,0,1,5,8.19c.85,3.06,1.09,7.26-1.75,9.37-.41.31.36.33.5.33a2.92,2.92,0,0,0,1.46-.51c2.69-2,2.84-5.72,2.22-8.74a18.23,18.23,0,0,0-4.62-8.59,23.92,23.92,0,0,0-8.32-5.77c-3.3-1.38-7.07-2-9.61-4.7C1.84,8.35-.14,8.89,0,9.3c2.41,7,.16,14.92,3.8,21.55,3.47,6.31,10.81,6.36,17.15,6l-.61-.13.7,2c.16.47,2.31-.17,2.17-.58Z"/><path class="cls-2" d="M6.27,17.55l9.74,14c.5.72,2.59-.07,2-.92l-9.74-14c-.5-.73-2.59.06-2,.91Z"/><path class="cls-2" d="M13.48,19.69l-.68,6.87c0,.29,1,.06,1.17,0,.29-.08,1-.24,1-.62l.69-6.86c0-.3-1.06-.07-1.18,0-.28.08-1,.23-1,.61Z"/><path class="cls-2" d="M7.93,27.48A51.58,51.58,0,0,1,14.49,30,1.46,1.46,0,0,0,16,29.59c.36-.42.18-.83-.28-1A52.58,52.58,0,0,0,9.18,26a1.48,1.48,0,0,0-1.53.42.61.61,0,0,0,.28,1Z"/><path class="cls-2" d="M6.11,21.45,9.56,22a1.7,1.7,0,0,0,.86-.16,1.21,1.21,0,0,0,.57-.48.52.52,0,0,0,0-.56.93.93,0,0,0-.61-.27L6.9,20a1.6,1.6,0,0,0-.86.16,1.21,1.21,0,0,0-.57.48.5.5,0,0,0,0,.55,1,1,0,0,0,.61.28Z"/><path class="cls-1" d="M287.06,31.67s4-3.2,4.8-7.2c1.08-5.4,2.36-9.66,2.88-15.15-3,.64-6.08.75-10.08,2.35-4.61,1.84-7,3.7-10.4,8.8-3.2,4.8-6,12.91,0,15.2A18.36,18.36,0,0,0,287.06,31.67Z"/><path class="cls-2" d="M275.05,38.24l.7-2-1.77.64c6.4.39,14.12.23,17.94-5.86,4.18-6.65,1.7-15,4.17-22.18.2-.57-1.84,0-2.06.26-2.54,2.72-6.48,3.23-9.75,4.68a24.79,24.79,0,0,0-8.17,5.79A18.35,18.35,0,0,0,271.5,28c-.67,3.05-.62,6.86,2.12,8.9.49.37,2.39-.49,2.05-.75-2.84-2.11-2.67-6.31-1.81-9.38a18.39,18.39,0,0,1,5-8.15,23.11,23.11,0,0,1,8.51-5.25c3.07-1.08,6.36-2,8.66-4.44L294,9.19c-2.19,6.32-.59,13.23-2.89,19.51A10.49,10.49,0,0,1,285,35.31c-3,1.1-6.47.83-9.63.64-.43,0-1.6.14-1.77.64l-.7,2c-.15.44,1.94.2,2.14-.37Z"/><path class="cls-2" d="M287.82,17l-9.74,14c-.31.44.27.73.62.76a1.6,1.6,0,0,0,1.43-.62l9.74-14c.3-.45-.27-.74-.63-.77a1.6,1.6,0,0,0-1.42.63Z"/><path class="cls-2" d="M280.46,19.69l.69,6.87c0,.18.29.3.43.33a1.59,1.59,0,0,0,.81,0c.41-.12,1-.38.93-.89l-.69-6.86c0-.19-.29-.3-.43-.34a1.63,1.63,0,0,0-.82,0c-.4.12-1,.39-.92.89Z"/><path class="cls-2" d="M287.44,26.3a54,54,0,0,0-6.85,2.62c-.21.1-.92.42-.61.76s1.12.09,1.42-.05q1.58-.72,3.18-1.35c1.1-.42,2.09-.76,3.1-1.08.28-.08,1.06-.32,1-.74s-1-.23-1.21-.16Z"/><path class="cls-2" d="M289.82,20.34l-3.45.52a3.08,3.08,0,0,0-.83.26c-.12.05-.39.17-.45.31-.15.35.78.19.86.18l3.45-.52a3.34,3.34,0,0,0,.83-.26c.12,0,.39-.18.45-.32.15-.34-.78-.18-.86-.17Z"/><path d="M46.44,3.86l3.15,2.23,0-.65L47.15,7.93l1.39-.26a17,17,0,0,0-3.65-2.11l0,.66a11.64,11.64,0,0,1,2.42-2.28c.26-.19.48-.57.12-.78a1.24,1.24,0,0,0-1.23.13A12.92,12.92,0,0,0,43.5,5.83c-.15.18-.28.52,0,.65a16.83,16.83,0,0,1,3.65,2.11c.37.28,1.11,0,1.39-.27L51,5.83a.39.39,0,0,0,0-.65L47.81,2.94c-.54-.38-2.11.39-1.37.92Z"/><path d="M59.29,2.05,57.7,3.11a12.24,12.24,0,0,0-1.51,1,1,1,0,0,0-.33.88,1.61,1.61,0,0,0,.47.69c.41.45.84.89,1.29,1.31a1.87,1.87,0,0,0,1.67.69A5.27,5.27,0,0,0,61,6.87l1.63-1c.5-.31,1.29-.73,1-1.45A2.83,2.83,0,0,0,63,3.72l-.72-.79-1.44-1.6a1,1,0,0,0-1.18-.15c-.29.15-.71.6-.4.93C60.1,3.06,61,4,61.81,5l.1.12c.23-.38.26-.51.09-.37l-.08,0-.2.12-.81.49-1.58.95c-.07,0-.25.1-.3.17a.5.5,0,0,1,.46,0l-.14-.11c-.23-.18-.43-.38-.64-.58l-.57-.59-.3-.32c0-.05-.2-.29-.25-.3.26.05-.36.49.08.2l.4-.27L58.86,4l1.59-1.07A.58.58,0,0,0,60.54,2a1.14,1.14,0,0,0-1.25.1Z"/><path d="M51.12,1.82l-.45,8.27.74-.6a11.94,11.94,0,0,1-6.13-.39c-.38-.12-1.36.09-1.39.61l-.19,3.56c0,.4.46.5.78.46a20.66,20.66,0,0,1,4.16-.13l-.39-.75a16.38,16.38,0,0,1-4.6,3.28c-.31.15-.64.42-.44.79l1.41,2.57c.15.27.72.21.94.15A20.31,20.31,0,0,0,52.51,16l-1.43-.22V19c0,.42.43.48.77.46l3.71-.19c.41,0,1-.31,1-.78l-.19-3.42-1.55.69a31.91,31.91,0,0,0,7,2.84,1.29,1.29,0,0,0,1.34-.47A27.14,27.14,0,0,1,64.7,15.2c.17-.27,0-.5-.3-.57a46.19,46.19,0,0,1-6.84-2.58l-1,1c1.6.21,3.8.4,5.25-.46,1.27-.76,1.3-2.2,1.14-3.52,0-.3-.56-.34-.77-.31A29.53,29.53,0,0,1,55.59,9l.56.46.52-7.84c0-.42-.47-.47-.78-.46l-3.16.09c-.91,0-1.39,1.13-.2,1.1l3.16-.09-.77-.46L54.4,9.6c0,.32.28.44.55.46a31.11,31.11,0,0,0,7-.2l-.77-.31c.09.76.26,2.08-.63,2.41a7.66,7.66,0,0,1-3.37,0c-.38-.06-1.79.63-1,1a48.44,48.44,0,0,0,7.17,2.71l-.29-.58A24.1,24.1,0,0,0,61.46,18l1.33-.46a30.68,30.68,0,0,1-6.64-2.71c-.49-.27-1.59,0-1.55.69L54.79,19l1-.77-3.71.19.77.45V15.6c0-.67-1.09-.51-1.43-.23a17.77,17.77,0,0,1-6.11,3.26l.94.15L44.81,16.2l-.44.78a19.14,19.14,0,0,0,5.3-3.74c.37-.38,0-.72-.39-.75a24.41,24.41,0,0,0-4.6.14l.77.46.19-3.56-1.39.61a14.41,14.41,0,0,0,7.43.36c.24-.05.72-.29.74-.6l.45-8.26c0-.79-1.71-.48-1.75.18Z"/><path d="M47.71,19.82c-.33.94-.73,1.85-1.12,2.76l1.24-.5a32.06,32.06,0,0,1-6,.27c-.31,0-1.44.15-1.44.58a8.73,8.73,0,0,1-.66,2.94c-.06.17.18.2.29.2h6.35l-.29-.2-2.12,4.24c0,.1.06.15.14.17l2.23.45a19.33,19.33,0,0,0,2.9.58c.3,0-.06,0,0-.14a.89.89,0,0,1-.16.25,6.24,6.24,0,0,0-.83,1.24l-1.47,2.2a.09.09,0,0,0,0,.14L49,36.56c.39.28,1.41-.13,1.68-.45l3.48-4.2-1.58.49,4,.92a1.92,1.92,0,0,0,1.5-.41l1.66-2c.1-.12.12-.23-.07-.26-.74-.15-3.37-.61-3.42-1.49,0-.27.35-.78.45-1s.28-.76.4-1.14.31-1,.44-1.47l-1.42.5,4,0c.33,0,1.29-.11,1.42-.51s.28-.78.43-1.16a8.5,8.5,0,0,1,.36-.82c.06-.13.15-.26.2-.39s.34-.31,0-.16l-1.06.24-.14,0,1.54-.62a18.15,18.15,0,0,0-3.75-.39l.31.11a10.17,10.17,0,0,1,.4-2.31c.06-.23-.36-.19-.48-.18a12.68,12.68,0,0,0-3.2.38c-.91.35-1.22,1.66-1.62,2.46l1.42-.5c-.7,0-1.41,0-2.12-.05-.49,0-1,0-1.49-.09s-.36,0-.43-.31a5.13,5.13,0,0,1,.27-1.57c0-.1,0-.16-.15-.17l-2.84-.31a2.15,2.15,0,0,0-1.22.22c-.11.06-.62.4-.22.44l1.6.17c.19,0,.91,0,1,.12s-.22,1.54-.26,1.8,0,.16.14.18a25.57,25.57,0,0,0,4.55.26c.38,0,1.22-.1,1.42-.5l1.06-2.12-1.24.5,2.53-.23-.47-.19a10.49,10.49,0,0,0-.43,2.47c0,.1.27.11.3.11a18.11,18.11,0,0,1,3.45.36c.26.06,1.84-.44,1.53-.62-.7-.43-1.79.23-2.16.83a11.43,11.43,0,0,0-1,2.37l1.42-.5-4,0c-.31,0-1.32.12-1.42.51a18.75,18.75,0,0,1-1.39,3.84.1.1,0,0,0,0,.14,8.07,8.07,0,0,0,3.77,1.51l-.07-.26-1.66,2,1.5-.41-4-.92a1.9,1.9,0,0,0-1.58.49l-3.48,4.2L50.59,36l-1.5-1.08c-.12-.08-.58-.32-.65-.46.09.19.2-.14.3-.3l2.19-3.28c.07-.1-.07-.16-.14-.17-1.7-.35-3.53-.53-5.19-1-.19-.06,0,.16.07.11l.19-.39.7-1.39,1.2-2.41c.08-.16-.2-.19-.29-.19H41.12l.29.19a9.18,9.18,0,0,0,.69-3.09l-1.44.58a35.21,35.21,0,0,0,6.41-.28c.29,0,1.09-.16,1.23-.5.39-.91.79-1.82,1.13-2.76.1-.29-1.56-.13-1.72.31Z"/><path d="M50.2,26.18a3,3,0,0,1-.05.42v-.07a3.3,3.3,0,0,1-.39,1.06c-.06.11.06.14.13.16l.94.3a4.51,4.51,0,0,0,.52.17A2.92,2.92,0,0,0,53,28a1.42,1.42,0,0,0,.75-.91c.16-.56.3-1.12.43-1.69a.09.09,0,0,0,0-.13.53.53,0,0,0-.25-.05l-2.15,0a2.24,2.24,0,0,0-.63.1,2.07,2.07,0,0,0-.6.23c-.07.05-.24.14-.21.24s.23.1.3.1l2.15,0-.29-.17c-.1.5-.23,1-.37,1.49a1.63,1.63,0,0,1-.21.57l-.13.18s-.11.12,0,0l0,0,1.5-.4-.4,0-.24-.06-1.25-.4.14.16a3.71,3.71,0,0,0,.46-1.55c0-.1-.28-.11-.3-.11a2.3,2.3,0,0,0-.63.1,2.57,2.57,0,0,0-.6.23c-.09.06-.2.12-.21.24Z"/><path d="M66.84,5.19a22.67,22.67,0,0,1-3.24,10c-.1.18-.07.28.11.38l3.18,1.75a1.41,1.41,0,0,0,1.56-.51l1.42-3.39L68.65,14l5.77.11-.52-.32a17.9,17.9,0,0,1-3.24,5l1.61-.33a10.73,10.73,0,0,0-2.75-2.83,1.42,1.42,0,0,0-1.61.34l-2.37,3.44a.24.24,0,0,0,0,.32l1.26,1.64C67.12,21.74,68,22.46,68,23c0,.32-.11.47-.29.76-.66,1.06-1.37,2.09-2.08,3.12-1.19,1.76-2.39,3.5-3.61,5.25a.23.23,0,0,0,.11.38L65.76,34a1.53,1.53,0,0,0,1.5-.41l5.45-6.61-1.62.33,4.87,7c.23.33,1.12,0,1.34-.11l4-2.48c.18-.11.46-.31.28-.54-1.07-1.41-2.14-2.82-3.23-4.21-.67-.87-1.35-1.73-2-2.57-.41-.48-.69-1-1.39-.85-.3.05-.91.2-1,.56l0,0,1.61-.34c-.92-.83.64-2.41,1.13-3.18l1.82-2.86,1-1.64c.19-.3.4-.88.69-1.08.45-.29,1.18-.12,1.68-.11l1.82,0c.27,0,1.18-.17,1.22-.57a41.37,41.37,0,0,0,.16-4.46c0-.19-.41-.21-.52-.21l-14,.24.51.32L73,5.88c0-.12-.07-.23-.16-.27a21.06,21.06,0,0,0-4.75-1.19c-.49-.07-2,.74-1.08.86.64.09,1.28.19,1.91.34.38.09,2,.36,2.14.78s-.54,1.49-.7,1.87l-.91,2.14c-.11.27.38.33.52.32l14-.24-.52-.21a40,40,0,0,1-.15,4.24L84.46,14A15.7,15.7,0,0,0,80,14c-1.34.39-1.88,1.72-2.58,2.81l-2.87,4.49c-.57.9-1.67,2.06-.62,3,.36.32,1.37,0,1.61-.34a.72.72,0,0,0,.11-.19l-1,.55c-.69.1-.68-.17-.24.31.25.28.49.58.72.87.7.86,1.38,1.74,2.06,2.61.93,1.2,1.86,2.42,2.78,3.63l.28-.53-4,2.48,1.34-.12-4.87-7c-.29-.41-1.38.05-1.62.34l-5.45,6.61,1.51-.4-3.61-1.44.1.39q2.3-3.3,4.55-6.64c.44-.66,1.47-1.72,1.6-2.53s-1.31-2.17-1.8-2.81c-.66-.85-.67-1-.06-1.93l1.57-2.29-1.61.33a10.73,10.73,0,0,1,2.75,2.83c.29.43,1.36-.06,1.61-.34a18.77,18.77,0,0,0,3.38-5.23c.11-.27-.38-.32-.52-.32l-5.77-.12c-.38,0-1,.17-1.21.57L66.72,17l1.56-.51-3.17-1.75.1.38a23.29,23.29,0,0,0,3.36-10.2c.05-.62-1.68-.28-1.73.25Z"/><path d="M96.64,4.09l0,5,1-.62A41.19,41.19,0,0,1,89.79,9c-.27,0-1.16.17-1.22.54L87.3,16.44c0,.19.15.26.32.27l4.47.19c.31,0,1.37-.09,1.42-.54a23.1,23.1,0,0,0,.1-3.53l-1.23.65q8.69-.13,17.38,0l-.51-.28-1.46,3.57c-.08.19.19.25.31.27,1.5.17,3,.42,4.5.52a3,3,0,0,0,2.1-.48c.82-.69.85-2.33,1.07-3.3l1.09-4.71c.06-.26-.33-.28-.5-.27a107.19,107.19,0,0,1-14.66-.7l.32.18a19.65,19.65,0,0,1,.65-4.39c0-.2-.16-.26-.31-.27a19.13,19.13,0,0,0-5.07,0c-.76.1-1.5.93-.28.78a15.92,15.92,0,0,1,4.25,0L101,4.13a20.94,20.94,0,0,0-.67,4.59c0,.12.26.17.32.17a107.92,107.92,0,0,0,15,.71l-.5-.28-1.47,6.36c0,.08-.33,1.43,0,1.05a4.93,4.93,0,0,1-1.35-.16l-3.15-.36.31.27L111,12.91c.11-.26-.38-.27-.5-.27q-8.7-.12-17.38,0c-.32,0-1.25.18-1.23.64a20.59,20.59,0,0,1-.09,3.33l1.41-.54-4.47-.19.31.27,1.26-6.86-1.22.55a44.09,44.09,0,0,0,8.27-.58c.29,0,1-.22,1-.62l0-5c0-.38-1.74-.11-1.74.47Z"/><path d="M95.63,15.92l-.57,3.13c-.1.55.73.5,1,.44a18.17,18.17,0,0,1,4.66-.22l-.4-.78a19.56,19.56,0,0,1-4.78,4c-.25.15-.51.63-.12.8a3.79,3.79,0,0,1,2.24,4.06l1-.66a47.17,47.17,0,0,1-8.81-.39c-.37-.05-1.14.19-1.19.66a22.27,22.27,0,0,0-.06,4c0,.23.38.33.55.34q3.8.15,7.59.11l-.5-.63a8.71,8.71,0,0,1-3.16,3.36c-.4.28-.43.68,0,.87l4.86,2a1.29,1.29,0,0,0,1.23-.33,18,18,0,0,0,3.62-5l-1.14.51a51.19,51.19,0,0,0,9.5-.52c.35-.06.91-.24,1-.66l.45-3.24c.05-.34-.3-.44-.56-.49l-5.39-.91c-1.47-.24-3.69-.19-3.47-2.23.15-1.42,1.48-2.48,2.26-3.59a14.09,14.09,0,0,0,1.94-4.11c.09-.31-.34-.48-.56-.49l-10-.27c-.36,0-1,.11-1.14.51s.12.63.51.64l10,.26-.56-.48a14.21,14.21,0,0,1-2.8,5c-.88,1.1-1.77,2.43-1.28,3.9S103.65,27,105,27.22l6.43,1.09-.56-.49-.45,3.24,1-.65a48.09,48.09,0,0,1-9.05.51c-.37,0-1,.12-1.14.51a16.63,16.63,0,0,1-3.41,4.76L99,35.86l-4.86-2,0,.87a10.13,10.13,0,0,0,3.68-3.9c.15-.36-.12-.64-.5-.64-2.53,0-5.06,0-7.59-.11l.55.34a20.89,20.89,0,0,1,.07-3.71l-1.19.65a48.48,48.48,0,0,0,9.25.39c.35,0,.91-.26,1-.65a4.53,4.53,0,0,0-2.63-4.82l-.12.8a21,21,0,0,0,5.09-4.21c.34-.39.06-.75-.4-.78a21.22,21.22,0,0,0-5.57.31l1,.44.57-3.13c.14-.78-1.63-.53-1.75.17Z"/></svg>