<svg xmlns="http://www.w3.org/2000/svg" xmlns:xlink="http://www.w3.org/1999/xlink" viewBox="0 0 1000 429.39"><defs><style>.cls-1{fill:none;}.cls-2{fill:#fff;}.cls-3{fill:#fabec8;}.cls-4{fill:#d2ffff;}.cls-5{fill:#ffffbe;}.cls-6{fill:#50b4e6;}.cls-7{fill:#ffe6f0;}.cls-8{fill:#fffa96;}.cls-9{fill:#8ce6fa;}.cls-10{fill:#8cdbf0;}.cls-11{fill:#2fb4b3;}.cls-12{isolation:isolate;}.cls-13{mix-blend-mode:multiply;fill:url(#新規パターンスウォッチ_70);}</style><pattern id="新規パターンスウォッチ_70" data-name="新規パターンスウォッチ 70" width="283.46" height="283.46" patternTransform="translate(547.55 90.21) scale(0.85 0.75)" patternUnits="userSpaceOnUse" viewBox="0 0 283.46 283.46"><rect class="cls-1" width="283.46" height="283.46"/><polygon class="cls-2" points="0 0 0 35.43 35.43 35.43 0 0"/><polygon class="cls-3" points="35.43 0 0 0 35.43 35.43 35.43 0"/><polygon class="cls-4" points="70.87 0 70.87 35.43 35.43 35.43 70.87 0"/><polygon class="cls-5" points="35.43 0 70.87 0 35.43 35.43 35.43 0"/><polygon class="cls-6" points="0 70.87 0 35.43 35.43 35.43 0 70.87"/><polygon class="cls-5" points="35.43 70.87 0 70.87 35.43 35.43 35.43 70.87"/><polygon class="cls-2" points="70.87 70.87 70.87 35.43 35.43 35.43 70.87 70.87"/><polygon class="cls-6" points="35.43 70.87 70.87 70.87 35.43 35.43 35.43 70.87"/><polygon class="cls-2" points="70.87 0 70.87 35.43 106.3 35.43 70.87 0"/><polygon class="cls-3" points="106.3 0 70.87 0 106.3 35.43 106.3 0"/><polygon class="cls-7" points="141.73 0 141.73 35.43 106.3 35.43 141.73 0"/><polygon class="cls-2" points="106.3 0 141.73 0 106.3 35.43 106.3 0"/><polygon class="cls-8" points="70.87 70.87 70.87 35.43 106.3 35.43 70.87 70.87"/><polygon class="cls-2" points="106.3 70.87 70.87 70.87 106.3 35.43 106.3 70.87"/><polygon class="cls-2" points="141.73 70.87 141.73 35.43 106.3 35.43 141.73 70.87"/><polygon class="cls-9" points="106.3 70.87 141.73 70.87 106.3 35.43 106.3 70.87"/><polygon class="cls-2" points="141.73 0 141.73 35.43 177.16 35.43 141.73 0"/><polygon class="cls-5" points="177.16 0 141.73 0 177.16 35.43 177.16 0"/><polygon class="cls-4" points="212.6 0 212.6 35.43 177.16 35.43 212.6 0"/><polygon class="cls-2" points="177.16 0 212.6 0 177.16 35.43 177.16 0"/><polygon class="cls-10" points="141.73 70.87 141.73 35.43 177.16 35.43 141.73 70.87"/><polygon class="cls-4" points="177.16 70.87 141.73 70.87 177.16 35.43 177.16 70.87"/><polygon class="cls-9" points="212.6 70.87 212.6 35.43 177.16 35.43 212.6 70.87"/><polygon class="cls-2" points="177.16 70.87 212.6 70.87 177.16 35.43 177.16 70.87"/><polygon class="cls-2" points="212.6 0 212.6 35.43 248.03 35.43 212.6 0"/><polygon class="cls-4" points="248.03 0 212.6 0 248.03 35.43 248.03 0"/><polygon class="cls-4" points="283.46 0 283.46 35.43 248.03 35.43 283.46 0"/><polygon class="cls-5" points="248.03 0 283.46 0 248.03 35.43 248.03 0"/><polygon class="cls-4" points="212.6 70.87 212.6 35.43 248.03 35.43 212.6 70.87"/><polygon class="cls-5" points="248.03 70.87 212.6 70.87 248.03 35.43 248.03 70.87"/><polygon class="cls-3" points="283.46 70.87 283.46 35.43 248.03 35.43 283.46 70.87"/><polygon class="cls-2" points="248.03 70.87 283.46 70.87 248.03 35.43 248.03 70.87"/><polygon class="cls-3" points="0 70.87 0 106.3 35.43 106.3 0 70.87"/><polygon class="cls-2" points="35.43 70.87 0 70.87 35.43 106.3 35.43 70.87"/><polygon class="cls-4" points="70.87 70.87 70.87 106.3 35.43 106.3 70.87 70.87"/><polygon class="cls-4" points="35.43 70.87 70.87 70.87 35.43 106.3 35.43 70.87"/><polygon class="cls-2" points="0 141.73 0 106.3 35.43 106.3 0 141.73"/><polygon class="cls-7" points="35.43 141.73 0 141.73 35.43 106.3 35.43 141.73"/><polygon class="cls-5" points="70.87 141.73 70.87 106.3 35.43 106.3 70.87 141.73"/><polygon class="cls-4" points="35.43 141.73 70.87 141.73 35.43 106.3 35.43 141.73"/><polygon class="cls-2" points="70.87 70.87 70.87 106.3 106.3 106.3 70.87 70.87"/><polygon class="cls-9" points="106.3 70.87 70.87 70.87 106.3 106.3 106.3 70.87"/><polygon class="cls-5" points="141.73 70.87 141.73 106.3 106.3 106.3 141.73 70.87"/><polygon class="cls-4" points="106.3 70.87 141.73 70.87 106.3 106.3 106.3 70.87"/><polygon class="cls-7" points="70.87 141.73 70.87 106.3 106.3 106.3 70.87 141.73"/><polygon class="cls-2" points="106.3 141.73 70.87 141.73 106.3 106.3 106.3 141.73"/><polygon class="cls-2" points="141.73 141.73 141.73 106.3 106.3 106.3 141.73 141.73"/><polygon class="cls-9" points="106.3 141.73 141.73 141.73 106.3 106.3 106.3 141.73"/><polygon class="cls-2" points="141.73 70.87 141.73 106.3 177.16 106.3 141.73 70.87"/><polygon class="cls-9" points="177.16 70.87 141.73 70.87 177.16 106.3 177.16 70.87"/><polygon class="cls-2" points="212.6 70.87 212.6 106.3 177.16 106.3 212.6 70.87"/><polygon class="cls-4" points="177.16 70.87 212.6 70.87 177.16 106.3 177.16 70.87"/><polygon class="cls-9" points="141.73 141.73 141.73 106.3 177.16 106.3 141.73 141.73"/><polygon class="cls-2" points="177.16 141.73 141.73 141.73 177.16 106.3 177.16 141.73"/><polygon class="cls-9" points="212.6 141.73 212.6 106.3 177.16 106.3 212.6 141.73"/><polygon class="cls-8" points="177.16 141.73 212.6 141.73 177.16 106.3 177.16 141.73"/><polygon class="cls-4" points="212.6 70.87 212.6 106.3 248.03 106.3 212.6 70.87"/><polygon class="cls-9" points="248.03 70.87 212.6 70.87 248.03 106.3 248.03 70.87"/><polygon class="cls-2" points="283.46 70.87 283.46 106.3 248.03 106.3 283.46 70.87"/><polygon class="cls-10" points="248.03 70.87 283.46 70.87 248.03 106.3 248.03 70.87"/><polygon class="cls-2" points="212.6 141.73 212.6 106.3 248.03 106.3 212.6 141.73"/><polygon class="cls-4" points="248.03 141.73 212.6 141.73 248.03 106.3 248.03 141.73"/><polygon class="cls-3" points="283.46 141.73 283.46 106.3 248.03 106.3 283.46 141.73"/><polygon class="cls-2" points="248.03 141.73 283.46 141.73 248.03 106.3 248.03 141.73"/><polygon class="cls-2" points="0 141.73 0 177.16 35.43 177.16 0 141.73"/><polygon class="cls-3" points="35.43 141.73 0 141.73 35.43 177.16 35.43 141.73"/><polygon class="cls-9" points="70.87 141.73 70.87 177.16 35.43 177.16 70.87 141.73"/><polygon class="cls-2" points="35.43 141.73 70.87 141.73 35.43 177.16 35.43 141.73"/><polygon class="cls-5" points="0 212.6 0 177.16 35.43 177.16 0 212.6"/><polygon class="cls-3" points="35.43 212.6 0 212.6 35.43 177.16 35.43 212.6"/><polygon class="cls-2" points="70.87 212.6 70.87 177.16 35.43 177.16 70.87 212.6"/><polygon class="cls-10" points="35.43 212.6 70.87 212.6 35.43 177.16 35.43 212.6"/><polygon class="cls-2" points="70.87 141.73 70.87 177.16 106.3 177.16 70.87 141.73"/><polygon class="cls-4" points="106.3 141.73 70.87 141.73 106.3 177.16 106.3 141.73"/><polygon class="cls-8" points="141.73 141.73 141.73 177.16 106.3 177.16 141.73 141.73"/><polygon class="cls-3" points="106.3 141.73 141.73 141.73 106.3 177.16 106.3 141.73"/><polygon class="cls-3" points="70.87 212.6 70.87 177.16 106.3 177.16 70.87 212.6"/><polygon class="cls-2" points="106.3 212.6 70.87 212.6 106.3 177.16 106.3 212.6"/><polygon class="cls-2" points="141.73 212.6 141.73 177.16 106.3 177.16 141.73 212.6"/><polygon class="cls-6" points="106.3 212.6 141.73 212.6 106.3 177.16 106.3 212.6"/><polygon class="cls-2" points="141.73 141.73 141.73 177.16 177.16 177.16 141.73 141.73"/><polygon class="cls-4" points="177.16 141.73 141.73 141.73 177.16 177.16 177.16 141.73"/><polygon class="cls-2" points="212.6 141.73 212.6 177.16 177.16 177.16 212.6 141.73"/><polygon class="cls-6" points="177.16 141.73 212.6 141.73 177.16 177.16 177.16 141.73"/><polygon class="cls-4" points="141.73 212.6 141.73 177.16 177.16 177.16 141.73 212.6"/><polygon class="cls-9" points="177.16 212.6 141.73 212.6 177.16 177.16 177.16 212.6"/><polygon class="cls-4" points="212.6 212.6 212.6 177.16 177.16 177.16 212.6 212.6"/><polygon class="cls-2" points="177.16 212.6 212.6 212.6 177.16 177.16 177.16 212.6"/><polygon class="cls-4" points="212.6 141.73 212.6 177.16 248.03 177.16 212.6 141.73"/><polygon class="cls-5" points="248.03 141.73 212.6 141.73 248.03 177.16 248.03 141.73"/><polygon class="cls-11" points="283.46 141.73 283.46 177.16 248.03 177.16 283.46 141.73"/><polygon class="cls-4" points="248.03 141.73 283.46 141.73 248.03 177.16 248.03 141.73"/><polygon class="cls-9" points="212.6 212.6 212.6 177.16 248.03 177.16 212.6 212.6"/><polygon class="cls-5" points="248.03 212.6 212.6 212.6 248.03 177.16 248.03 212.6"/><polygon class="cls-9" points="283.46 212.6 283.46 177.16 248.03 177.16 283.46 212.6"/><polygon class="cls-6" points="248.03 212.6 283.46 212.6 248.03 177.16 248.03 212.6"/><polygon class="cls-5" points="0 212.6 0 248.03 35.43 248.03 0 212.6"/><polygon class="cls-9" points="35.43 212.6 0 212.6 35.43 248.03 35.43 212.6"/><polygon class="cls-8" points="70.87 212.6 70.87 248.03 35.43 248.03 70.87 212.6"/><polygon class="cls-2" points="35.43 212.6 70.87 212.6 35.43 248.03 35.43 212.6"/><polygon class="cls-2" points="0 283.46 0 248.03 35.43 248.03 0 283.46"/><polygon class="cls-7" points="35.43 283.46 0 283.46 35.43 248.03 35.43 283.46"/><polygon class="cls-2" points="70.87 283.46 70.87 248.03 35.43 248.03 70.87 283.46"/><polygon class="cls-4" points="35.43 283.46 70.87 283.46 35.43 248.03 35.43 283.46"/><polygon class="cls-2" points="70.87 212.6 70.87 248.03 106.3 248.03 70.87 212.6"/><polygon class="cls-4" points="106.3 212.6 70.87 212.6 106.3 248.03 106.3 212.6"/><polygon class="cls-9" points="141.73 212.6 141.73 248.03 106.3 248.03 141.73 212.6"/><polygon class="cls-2" points="106.3 212.6 141.73 212.6 106.3 248.03 106.3 212.6"/><polygon class="cls-9" points="70.87 283.46 70.87 248.03 106.3 248.03 70.87 283.46"/><polygon class="cls-5" points="106.3 283.46 70.87 283.46 106.3 248.03 106.3 283.46"/><polygon class="cls-2" points="141.73 283.46 141.73 248.03 106.3 248.03 141.73 283.46"/><polygon class="cls-4" points="106.3 283.46 141.73 283.46 106.3 248.03 106.3 283.46"/><polygon class="cls-5" points="141.73 212.6 141.73 248.03 177.16 248.03 141.73 212.6"/><polygon class="cls-7" points="177.16 212.6 141.73 212.6 177.16 248.03 177.16 212.6"/><polygon class="cls-2" points="212.6 212.6 212.6 248.03 177.16 248.03 212.6 212.6"/><polygon class="cls-8" points="177.16 212.6 212.6 212.6 177.16 248.03 177.16 212.6"/><polygon class="cls-4" points="141.73 283.46 141.73 248.03 177.16 248.03 141.73 283.46"/><polygon class="cls-2" points="177.16 283.46 141.73 283.46 177.16 248.03 177.16 283.46"/><polygon class="cls-4" points="212.6 283.46 212.6 248.03 177.16 248.03 212.6 283.46"/><polygon class="cls-5" points="177.16 283.46 212.6 283.46 177.16 248.03 177.16 283.46"/><polygon class="cls-4" points="212.6 212.6 212.6 248.03 248.03 248.03 212.6 212.6"/><polygon class="cls-11" points="248.03 212.6 212.6 212.6 248.03 248.03 248.03 212.6"/><polygon class="cls-6" points="283.46 212.6 283.46 248.03 248.03 248.03 283.46 212.6"/><polygon class="cls-2" points="248.03 212.6 283.46 212.6 248.03 248.03 248.03 212.6"/><polygon class="cls-2" points="212.6 283.46 212.6 248.03 248.03 248.03 212.6 283.46"/><polygon class="cls-7" points="248.03 283.46 212.6 283.46 248.03 248.03 248.03 283.46"/><polygon class="cls-4" points="283.46 283.46 283.46 248.03 248.03 248.03 283.46 283.46"/><polygon class="cls-2" points="248.03 283.46 283.46 283.46 248.03 248.03 248.03 283.46"/></pattern></defs><g class="cls-12"><g id="レイヤー_1" data-name="レイヤー 1"><rect class="cls-13" width="1000" height="429.39"/></g></g></svg>