<svg id="レイヤー_1" data-name="レイヤー 1" xmlns="http://www.w3.org/2000/svg" viewBox="0 0 87 109.58"><defs><style>.cls-1{fill:#a4d3c6;}.cls-2{fill:#fff;}.cls-3{fill:#231815;}.cls-4{fill:#040000;}</style></defs><path class="cls-1" d="M5.43,93.45a1.42,1.42,0,0,1-1.34-1H0V98H70.11V41.86H0v5.46H4.09a1.42,1.42,0,1,1,0,.93H0v5.4H4.09a1.41,1.41,0,1,1,0,.92H0V60H4.09a1.41,1.41,0,1,1,0,.92H0v5.4H4.09a1.42,1.42,0,1,1,0,.92H0v5.4H4.09a1.42,1.42,0,1,1,0,.92H0v5.4H4.09a1.42,1.42,0,1,1,0,.92H0v5.4H4.09a1.42,1.42,0,1,1,0,.92H0v5.4H4.09a1.42,1.42,0,1,1,1.34,1.88Z"/><path class="cls-2" d="M45.85,41c-1.67-1.24-5.66-.39-6.87-1.69-.8-.87-1-3.21-1-5.16a5,5,0,1,0-5.83,0c0,2-.21,4.29-1,5.16-1.21,1.3-5.2.45-6.87,1.69s-.42,4-.42,4H46.27S47.5,42.25,45.85,41ZM35.05,28.53a1.55,1.55,0,1,1-1.54,1.55A1.55,1.55,0,0,1,35.05,28.53Z"/><path class="cls-3" d="M46.55,45.42h-23l-.12-.26c-.05-.12-1.34-3.06.56-4.49a7.37,7.37,0,0,1,3.76-.9c1.25-.1,2.55-.2,3-.74.32-.35.85-1.41.89-4.66a5.45,5.45,0,1,1,6.71,0c0,3.25.57,4.31.89,4.66.5.54,1.8.64,3.05.74a7.37,7.37,0,0,1,3.76.9h0c1.9,1.43.61,4.37.56,4.49Zm-22.42-.86H46c.23-.65.7-2.38-.39-3.2h0a7,7,0,0,0-3.3-.74c-1.49-.11-2.89-.22-3.62-1S37.56,37,37.54,34.16v-.22l.18-.13a4.59,4.59,0,1,0-5.33,0l.18.13v.22c0,2.83-.4,4.66-1.13,5.45s-2.13.9-3.62,1a7,7,0,0,0-3.3.74C23.42,42.18,23.9,43.91,24.13,44.56ZM35.05,32.05a2,2,0,1,1,2-2A2,2,0,0,1,35.05,32.05Zm0-3.09a1.12,1.12,0,1,0,1.12,1.12A1.12,1.12,0,0,0,35.05,29Z"/><path class="cls-3" d="M35.05,27.05a3,3,0,1,0,3,3A3,3,0,0,0,35.05,27.05Zm0,4.57a1.55,1.55,0,1,1,1.55-1.54A1.54,1.54,0,0,1,35.05,31.62Z"/><path class="cls-3" d="M18.48,53.88h-1.7a.31.31,0,0,0-.32.31l-.05,9.18c0,.26-.24.4-.52.4s-.54-.14-.54-.4l0-9.64a.92.92,0,0,1,.94-.93h2.15c.23,0,.39.25.39.54S18.7,53.89,18.48,53.88Z"/><path class="cls-3" d="M25.56,64.1h-.34a.5.5,0,0,1-.46-.54.44.44,0,0,1,.37-.46h.21c.48,0,.7-.41.71-.87v-2.1H24.38a4.1,4.1,0,0,1-.49,1.63.44.44,0,0,1-.37.19.43.43,0,0,1-.46-.41.51.51,0,0,1,0-.17,6.19,6.19,0,0,0,.43-2.91l0-4.5a.93.93,0,0,1,.95-.94h1.56A.93.93,0,0,1,27,54l0,8.5C26.94,63.44,26.46,64.11,25.56,64.1Zm.51-7H24.44v2.09h1.63Zm0-2.72a.29.29,0,0,0-.3-.31h-1a.29.29,0,0,0-.3.31v1.78h1.63ZM33,64l-4.34,0A.94.94,0,0,1,27.7,63l0-5.77a.48.48,0,0,1,.49-.4.46.46,0,0,1,.47.4l0,5.49a.31.31,0,0,0,.3.32h3.71a.3.3,0,0,0,.3-.31l0-5.55a.45.45,0,0,1,.47-.41.47.47,0,0,1,.48.42l0,5.83A.93.93,0,0,1,33,64Zm-4.53-9c-.25,0-.39-.36-.39-.6s.37-.39.59-.39.4.39.4.6S28.66,55,28.44,55Zm3.75,7.27a.35.35,0,0,1-.28-.13L31,60.88c-.22.28-1.27,1.34-1.61,1.34A.44.44,0,0,1,29,61.8a.4.4,0,0,1,.17-.31,4.58,4.58,0,0,0,1.39-1.24l-1.36-1.79a.29.29,0,0,1-.05-.17.44.44,0,0,1,.42-.42.33.33,0,0,1,.26.1l1.2,1.6a6.93,6.93,0,0,0,.8-2,.38.38,0,0,1,.37-.28.38.38,0,0,1,.4.36s0,0,0,.06a8.68,8.68,0,0,1-1.06,2.46l1,1.41a.24.24,0,0,1,.05.16A.44.44,0,0,1,32.19,62.22Zm-1.46-7.33c-.26,0-.37-.36-.37-.59s.36-.38.59-.38.37.36.37.59S31,54.89,30.73,54.89Zm3.48-1.62L33.58,56a.47.47,0,0,1-.48.35.48.48,0,0,1-.47-.43s0,0,0-.06l.65-2.78a.43.43,0,0,1,.43-.32.46.46,0,0,1,.5.42A.35.35,0,0,0,34.21,53.27Z"/><path class="cls-3" d="M43.09,59.6H43a14.58,14.58,0,0,1-3.7-1.28l0,5.57a.52.52,0,0,1-.56.46.51.51,0,0,1-.56-.46l0-10.34a.58.58,0,0,1,1.13,0l0,3.5a13.08,13.08,0,0,0,3.88,1.4.54.54,0,0,1,.37.55A.56.56,0,0,1,43.09,59.6Z"/><path class="cls-3" d="M54.32,61.44A8.35,8.35,0,0,1,48.42,64h-.33a.88.88,0,0,1-.94-.87l0-9.65a.56.56,0,0,1,.58-.46.55.55,0,0,1,.58.47l0,9a.27.27,0,0,0,.27.29,7.27,7.27,0,0,0,4.92-2.13.41.41,0,0,1,.34-.13.62.62,0,0,1,.6.61A.44.44,0,0,1,54.32,61.44Z"/><path class="cls-3" d="M59.48,64.23H57.32c-.22,0-.38-.25-.38-.54s.16-.52.39-.52H59a.31.31,0,0,0,.31-.31l.05-9.11c0-.26.24-.39.54-.39s.53.13.53.39l0,9.57A.91.91,0,0,1,59.48,64.23Z"/><path class="cls-3" d="M22.9,73.89l-7.67,0a.9.9,0,0,1-.8-1,.93.93,0,0,1,.81-1l7.67,0a.9.9,0,0,1,.8,1A.87.87,0,0,1,22.9,73.89ZM21,89.84l-4,0A1.8,1.8,0,0,1,15.24,88l0-3.91a1.8,1.8,0,0,1,1.83-1.81l4,0a1.8,1.8,0,0,1,1.81,1.83l0,3.91A1.8,1.8,0,0,1,21,89.84Zm.23-12.6-4.3,0a.79.79,0,0,1-.7-.81.8.8,0,0,1,.71-.82l4.3,0a.82.82,0,0,1,0,1.63Zm0,3.3-4.3,0a.72.72,0,0,1-.68-.76.75.75,0,0,1,.69-.82l4.29,0a.76.76,0,0,1,.68.83A.72.72,0,0,1,21.25,80.54Zm0-10.27-4.29,0a.74.74,0,0,1-.7-.8.75.75,0,0,1,.7-.8l4.3,0a.76.76,0,0,1,.7.8A.75.75,0,0,1,21.29,70.27ZM21,84.54a.58.58,0,0,0-.58-.61H17.71a.58.58,0,0,0-.59.6v3.11a.58.58,0,0,0,.58.61h2.74a.59.59,0,0,0,.59-.6ZM34.9,74c-.56,0-2.43-1.1-4.09-3-.27-.32-.49-.49-.56-.49s-.29.15-.54.46c-1.48,1.77-3.5,3-4.14,3a1,1,0,0,1-1-1,.81.81,0,0,1,.44-.77,9.74,9.74,0,0,0,3.73-2.92,1.8,1.8,0,0,1,1.53-.87,1.78,1.78,0,0,1,1.5.88,9.61,9.61,0,0,0,3.7,3,.83.83,0,0,1,.44.78A1,1,0,0,1,34.9,74Zm1.17,13.58a19.55,19.55,0,0,1-9.45,2.53h0a.89.89,0,0,1-.77-.93.94.94,0,0,1,.78-.92,21.11,21.11,0,0,0,8.85-2.38.46.46,0,0,1,.26-.07.88.88,0,0,1,.83.92A.92.92,0,0,1,36.07,87.55Zm-3.48-4.46a22.43,22.43,0,0,1-6,1.31.88.88,0,0,1-.78-.93,1,1,0,0,1,.79-.94,17.53,17.53,0,0,0,5.51-1.16.31.31,0,0,1,.17,0,.83.83,0,0,1,.8.88A.93.93,0,0,1,32.59,83.09Zm-1.31-5a21,21,0,0,1-4.66.93.85.85,0,0,1-.75-.86,1,1,0,0,1,.78-1,16.24,16.24,0,0,0,4.21-.85.62.62,0,0,1,.19,0,.84.84,0,0,1,.8.9A1,1,0,0,1,31.28,78.06Z"/><path class="cls-3" d="M50,88.42l-8.57,0a1.8,1.8,0,0,1-1.81-1.81l.07-16.12a1,1,0,0,1,1.9,0L41.5,86a.58.58,0,0,0,.58.61l7.91,0a.84.84,0,0,1,.77.88A.86.86,0,0,1,50,88.42ZM50,77.81H48.65a12.11,12.11,0,0,0,1.65,4.62.75.75,0,0,1,.12.39.77.77,0,0,1-.75.82.74.74,0,0,1-.56-.27,14.7,14.7,0,0,1-1.68-5.57h-.12l0,7.17a.78.78,0,0,1-.83.7.8.8,0,0,1-.82-.71l0-7.16h0a14.67,14.67,0,0,1-1.75,5.55.79.79,0,0,1-.59.26.74.74,0,0,1-.7-.8.76.76,0,0,1,.13-.44,11.61,11.61,0,0,0,1.69-4.58H43a.86.86,0,0,1-.8-.9A.87.87,0,0,1,43,76l2.69,0,0-4.91a.8.8,0,0,1,.83-.7.78.78,0,0,1,.82.71l0,4.9L50,76a.92.92,0,0,1,0,1.82Zm-6.2-3.21c-.41,0-.72-.64-.72-1s.66-.7,1-.69.65.63.65,1S44.22,74.6,43.83,74.6Zm5.37,0c-.34,0-1-.32-1-.73s.3-1,.68-1,1,.3,1,.74S49.63,74.6,49.2,74.6Zm11.2,2.65H59.33l-.06,12.53a.85.85,0,0,1-.9.8.89.89,0,0,1-.94-.81l.06-12.53H54.31V79.7a12.4,12.4,0,0,1-1.22,5.91.77.77,0,0,1-.73.39,1,1,0,0,1-1-.9.92.92,0,0,1,.1-.42,10.56,10.56,0,0,0,1-5l0-8.55a1.77,1.77,0,0,1,1.85-1.83,21.21,21.21,0,0,0,4.76-.44l.15,0a1,1,0,0,1,.87,1,.94.94,0,0,1-.54.8,18.25,18.25,0,0,1-4.59.51c-.39,0-.66.24-.66.61v3.49l6.09,0a.92.92,0,0,1,.8,1A1,1,0,0,1,60.4,77.25Z"/><polygon class="cls-2" points="65.34 104.23 58.36 99.34 72.33 79.79 79.31 83.98 65.34 104.23"/><path class="cls-3" d="M79.76,83.67,75.65,81.2a.52.52,0,0,0-.53.9L78,83.82a5,5,0,0,1-3.49-.3c-1.23-.76-1.45-2.43-1.36-3.75a.39.39,0,0,0,0-.15c0-.45-.51-.86-.86-.44A189.49,189.49,0,0,0,58,99.06c-.35.57.55,1.1.91.52A186.28,186.28,0,0,1,72.09,81a5.38,5.38,0,0,0,.53,1.9.53.53,0,0,0-.26.19L60.69,99.73c-.39.56.52,1.08.91.53l11.59-16.5a3.66,3.66,0,0,0,.68.62,3.47,3.47,0,0,0,.9.41q-6.18,8.43-11.64,17.36a.46.46,0,0,0-.06.37,10.64,10.64,0,0,1-2.56-2.12.52.52,0,0,0-.74.74,11.51,11.51,0,0,0,5.3,3.4c.65.2.92-.81.28-1a9.54,9.54,0,0,1-1.6-.64.44.44,0,0,0,.28-.21Q69.58,93.59,75.9,85a9.68,9.68,0,0,0,2.15-.14A25.43,25.43,0,0,0,76,87.61c-1.15,1.7-2.28,3.42-3.41,5.12l-6.87,10.32c-.37.56.54,1.09.91.53q3.33-5,6.67-10l3.27-4.92a21.75,21.75,0,0,1,3.33-4.14A.53.53,0,0,0,79.76,83.67Z"/><path class="cls-3" d="M63.6,105.65l-3.26,1.42a.55.55,0,0,0-.12-.21,1.61,1.61,0,0,0-.32-.25.86.86,0,0,0-.06-.23.73.73,0,0,0-.24-.31.71.71,0,0,0-.26-.13,1.76,1.76,0,0,0-1.21-.78,20.12,20.12,0,0,1,.62-2.18c.23-.64-.79-.91-1-.28a22.32,22.32,0,0,0-1.22,6.38.53.53,0,0,0,.79.45l6.82-3a.53.53,0,0,0,.19-.72A.54.54,0,0,0,63.6,105.65Zm-5.83,1.43.07.09c-.05.09-.09.18-.13.27C57.72,107.32,57.75,107.2,57.77,107.08Z"/><path class="cls-4" d="M46.75,8.32h0c3.36-5.27,9.82-8,16.07-8A24.77,24.77,0,0,1,84.76,14.14,15.55,15.55,0,0,1,86.43,21c-.12,5-3.63,9.51-7.94,12.13a22.87,22.87,0,0,1-16.12,2.9,29,29,0,0,0-4.68-.81,5.31,5.31,0,0,0-4.29,1.66c-.32-1.67.64-3.61-.34-5a5.45,5.45,0,0,0-1.53-1.24C44.78,26.05,42.38,15.18,46.75,8.32Z"/><path class="cls-2" d="M47.32,8.23c3.17-5,9.11-7.57,14.86-7.69A24.63,24.63,0,0,1,83.47,12.9c1.62,2.89,2.76,6.28,2.27,9.62-.91,6.15-6.35,10.68-12,12.57a21.87,21.87,0,0,1-11.43.63c-3.11-.66-7.08-1.6-9.48,1.22L54,36.76c-.2-1.22.18-2.41.1-3.63a3.28,3.28,0,0,0-1.84-2.57A14.83,14.83,0,0,1,48,26.22a18.49,18.49,0,0,1-2.8-11.7,14.69,14.69,0,0,1,2.11-6.29c.13-.2-.41-.17-.48-.16a.91.91,0,0,0-.66.34c-4.26,6.78-2.19,16.91,4,21.85,1,.79,2.4,1.33,2.7,2.69s-.27,2.75,0,4.12c.05.34,1,0,1.1-.18,1.24-1.45,3.12-1.5,4.88-1.22s3.59.81,5.44,1a24.37,24.37,0,0,0,10-1.22c5.74-1.94,11.47-6.43,12.62-12.7a15.17,15.17,0,0,0-2-9.79A24.24,24.24,0,0,0,79.28,6.1,25,25,0,0,0,63.06,0C56.61,0,49.74,2.82,46.18,8.41c-.13.2.41.17.47.17A1,1,0,0,0,47.32,8.23Z"/><path class="cls-2" d="M59.61,8.06a.37.37,0,0,1,0-.09c0-.13.14-.27.21-.47a2,2,0,0,0,0-.53c0-.18,0-.23-.17-.38a.49.49,0,0,0-.23-.13,1.15,1.15,0,0,0-.63,0,1.94,1.94,0,0,0-1,.69c-.1.12-.24.16-.31.39a1.48,1.48,0,0,1-.18.33c0,.1-.09.18-.25.66a4.19,4.19,0,0,1-.21.51c-.19.44-.38.89-.43,1a2.12,2.12,0,0,1-.12.39,1.21,1.21,0,0,0-.06.34,2.82,2.82,0,0,1-.08.65,6.59,6.59,0,0,0-.1,1.55,2.21,2.21,0,0,0,.21.66c.13.15.25.31.35.34a.61.61,0,0,0,.66-.07c.13-.07.3-.23.37-.27s.31-.39.38-.47.17-.26.29-.22.21.12.17.25,0,.09,0,.14a.38.38,0,0,1-.09.16c-.08.1-.16.26-.23.35s-.26.11-.38.21a1.69,1.69,0,0,1-.44.33,1.76,1.76,0,0,1-.4.08,1.38,1.38,0,0,1-.7,0L56,14.43a2,2,0,0,1-.56-.4c-.09-.12-.22-.24-.35-.42a2.44,2.44,0,0,1-.25-1,4.6,4.6,0,0,1,0-.49,6.27,6.27,0,0,1,.31-1.84c.21-.65.47-1.2.52-1.33a1.65,1.65,0,0,1,.2-.44,1.82,1.82,0,0,0,.25-.48.4.4,0,0,1,.2-.27c.09,0,.13-.22.27-.42a2.28,2.28,0,0,1,.4-.47,5.31,5.31,0,0,1,.42-.38,6.38,6.38,0,0,1,.57-.32,4.42,4.42,0,0,1,.48-.15c.14,0,.19.07.37,0a.82.82,0,0,1,.66,0c.26.08.28.18.39.26a1.81,1.81,0,0,1,.42.48,1.36,1.36,0,0,1,0,.55.18.18,0,0,1,0,.06c0,.09-.12.24-.14.32s-.1.3-.17.46-.12.26-.28.21S59.59,8.22,59.61,8.06Z"/><path class="cls-2" d="M62.78,7.24a.82.82,0,0,1,.4,0c.14,0,.15.44.13.55a4.67,4.67,0,0,1-.12.72c-.19.57-.24.73-.3.86s-.24.47-.3.66-.19.45-.24.61-.1.42-.22.76a2.19,2.19,0,0,1-.12.33c-.25.6-.45,1.06-.58,1.34s-.35.84-.41,1-.16.53-.22.71-.07.18-.1.26,0,.16,0,.21.16.11.41.25.54.21.67.29l.19.09a.42.42,0,0,0,.27,0,1.38,1.38,0,0,1,.53,0,.22.22,0,0,1,.18.29s0,0,0,.06-.14.14-.32.14A5.31,5.31,0,0,1,62,16.3l-.19,0c-.15-.05-.27-.13-.44-.19a1.76,1.76,0,0,0-.28-.07c-.18-.06-.34-.14-.64-.24l-.32-.08a.4.4,0,0,1-.16-.08c-.12-.1-.41-.17-.33-.4s.14-.41.22-.62.06-.21.08-.29A.9.9,0,0,1,60,14.1a8,8,0,0,1,.3-.76s0-.05,0-.08c.11-.26.23-.36.28-.53s0-.15.06-.2.11-.26.15-.39,0-.08.07-.25.33-.88.45-1.23a1.49,1.49,0,0,0,0-.21c0-.06,0-.12,0-.17a1.5,1.5,0,0,1,.28-.56,0,0,0,0,0,0,0c0-.05,0-.17,0-.25s.14-.27.18-.41a.23.23,0,0,0,0-.11,2.24,2.24,0,0,1,.11-.5,1.63,1.63,0,0,1,.1-.25c.13-.32.26-.65.31-.79S62.63,7.29,62.78,7.24Z"/><path class="cls-2" d="M67.43,8.84c.16,0,.23-.16.37-.16h0c.11,0,.19.18.16.43a2.18,2.18,0,0,1-.11.6l-.14.41a2.33,2.33,0,0,1-.24.57,4.12,4.12,0,0,0-.36.73,7.8,7.8,0,0,0-.22.77c0,.11-.17.63-.4,1.33-.13.4-.32.92-.42,1.22s-.12.46-.17.59a.59.59,0,0,1-.09.2,1.25,1.25,0,0,0-.12.27c0,.1-.06.21-.09.31s-.2.33-.23.43,0,.2-.06.27a.3.3,0,0,1-.07.15,1.15,1.15,0,0,1-.56.3c-.17.06-.22.12-.28.1s-.07-.38,0-.47l.08-.23c.1-.29.2-.66.26-.86s.45-1.24.52-1.42.07-.19.11-.29c.1-.33.1-.4.13-.46s.11-.22.14-.33.07-.31.13-.53l.06-.18c.13-.41.39-1.19.45-1.28a1,1,0,0,0,.12-.27c0-.11.07-.25.12-.39s.21-.34.27-.51,0-.31.07-.46a5.25,5.25,0,0,1,.24-.53C67.21,8.93,67.27,8.88,67.43,8.84Z"/><path class="cls-2" d="M72.57,12.34a.15.15,0,0,1,0-.09c0-.13.14-.27.21-.48a2,2,0,0,0,0-.52c0-.18,0-.23-.18-.38a.52.52,0,0,0-.22-.14,1.16,1.16,0,0,0-.63,0,1.79,1.79,0,0,0-1,.69c-.1.12-.24.16-.32.39a1.29,1.29,0,0,1-.17.33,5.26,5.26,0,0,0-.26.66,3.58,3.58,0,0,1-.2.5c-.2.44-.39.9-.44,1.05a1.8,1.8,0,0,1-.11.39.84.84,0,0,0-.06.33,3.9,3.9,0,0,1-.09.66,7.06,7.06,0,0,0-.09,1.54,2.18,2.18,0,0,0,.21.67c.12.15.25.31.35.34a.63.63,0,0,0,.66-.07c.12-.08.3-.23.36-.27a4.57,4.57,0,0,0,.38-.47c.07-.09.18-.26.29-.22s.21.12.17.24l0,.14a.65.65,0,0,1-.09.16c-.08.1-.16.27-.23.36s-.27.11-.39.21a1.56,1.56,0,0,1-.43.32,1.83,1.83,0,0,1-.41.08,1.27,1.27,0,0,1-.7,0,1.83,1.83,0,0,1-.25-.1,1.77,1.77,0,0,1-.56-.41,4.64,4.64,0,0,1-.36-.42,2.44,2.44,0,0,1-.25-.95,4.28,4.28,0,0,1,0-.49,6.45,6.45,0,0,1,.3-1.84c.22-.65.47-1.2.53-1.33s.09-.33.2-.44a1.54,1.54,0,0,0,.24-.48c0-.16.12-.24.21-.27s.12-.23.26-.42a2.62,2.62,0,0,1,.41-.47c.1-.07.29-.31.41-.38s.45-.27.58-.32a3,3,0,0,1,.48-.15c.13,0,.19.07.37,0a.87.87,0,0,1,1,.23,1.67,1.67,0,0,1,.42.48,1.52,1.52,0,0,1,0,.54s0,0,0,.06-.12.24-.15.32-.1.31-.16.47-.13.26-.29.21S72.55,12.5,72.57,12.34Z"/><path class="cls-2" d="M75.68,11.51a1.48,1.48,0,0,1,.53-.11c.11,0,.2.1.12.37l-.11.38c0,.12-.1.27-.16.45a4.1,4.1,0,0,0-.15.4l-.07.25c0,.1,0,.2-.08.3l-.17.47c-.11.28-.22.33-.32.62s-.07.42-.15.65a1.11,1.11,0,0,1-.07.16c-.11.27-.34.74-.47,1.12a1,1,0,0,0,0,.21,1.84,1.84,0,0,1-.24.44.15.15,0,0,0,0,.07,1.23,1.23,0,0,1-.07.61c-.1.31-.23.42-.3.63a.7.7,0,0,1,0,.12,6,6,0,0,1-.17.65l-.06.16a.71.71,0,0,1-.29.42.89.89,0,0,1-.6.09c-.11,0-.26-.12-.2-.29l.09-.26a1.29,1.29,0,0,0,0-.21,3.49,3.49,0,0,1,.11-.5c0-.14.12-.25.18-.43a5,5,0,0,1,.13-.54c0-.1.36-1,.56-1.58,0-.16.15-.47.24-.74a1.51,1.51,0,0,1,.17-.45.37.37,0,0,0,.07-.14,3.09,3.09,0,0,0,.08-.33c0-.09,0-.22.07-.33a.31.31,0,0,0,0-.1c.07-.13.4-1,.48-1.23s.14-.32.19-.47a.46.46,0,0,0,0-.19.29.29,0,0,1,0-.09c0-.1.11-.21.16-.37S75.55,11.57,75.68,11.51ZM79,12.4H79c.08,0,.18.1.15.2s-.23.29-.33.48a5.59,5.59,0,0,1-.61.75,7,7,0,0,1-1,1c-.19.09-.21.11-.26.2s0,.15-.24.33-.39.39-.52.52a2.14,2.14,0,0,0-.32.55.85.85,0,0,0,.06.49c.06.08.1,0,.1.28a1.92,1.92,0,0,0,0,.55c.07.1.13.55.19.67a5.58,5.58,0,0,1,0,.67c0,.1.08.5.15.7a2.3,2.3,0,0,1,.21,1,.64.64,0,0,1-.62.27.51.51,0,0,1-.39-.37,4.9,4.9,0,0,1-.2-.89,2,2,0,0,0-.23-.59c-.06-.15,0-.24-.09-.51s0-.41-.08-.51,0-.19-.13-.31,0-.42,0-.63-.15-.3-.09-.47a.27.27,0,0,1,0-.11,1.31,1.31,0,0,1,.42-.43,3.27,3.27,0,0,0,.37-.41c.14-.16.47-.43.61-.58s.21-.15.28-.3.15-.14.28-.32a6,6,0,0,1,.5-.66c.25-.3.23-.28.48-.56a4.22,4.22,0,0,0,.51-.66A1,1,0,0,1,79,12.4Z"/><path class="cls-2" d="M57.7,19s.17-.07.25,0,.18.14.22.35a5.3,5.3,0,0,1,.08,1.11c0,.24,0,.81,0,1a1.22,1.22,0,0,0,0,.23,2.3,2.3,0,0,0-.14.58c0,.22.06.15.06.41a1.55,1.55,0,0,1,0,.33l0,.06s.1.22.08.34,0,.43,0,.58,0,.52-.07.86.08.88,0,1a2.31,2.31,0,0,0,0,.55c.05,0,.35-.24.53-.51s.35-.51.42-.65.28-.28.35-.47a3.13,3.13,0,0,1,.32-.6,3.89,3.89,0,0,1,.39-.55s.23-.39.29-.37a.41.41,0,0,0,.07-.13s0-.06,0-.09a2.28,2.28,0,0,1,.29-.45,2.37,2.37,0,0,1,.32-.32,1.23,1.23,0,0,0,.23-.4,1.87,1.87,0,0,1,.22-.31c.1-.13.16-.11.28-.35l0-.09a1.67,1.67,0,0,0,0-.24.15.15,0,0,1,.07-.07,1.37,1.37,0,0,1,.54-.27s0,0,0,0,.19.3.17.58a2.28,2.28,0,0,1-.14.76,2.12,2.12,0,0,0-.13.68,4.77,4.77,0,0,1-.1.53,4.28,4.28,0,0,1-.16.71c-.12.37-.2.8-.31,1.12a1,1,0,0,1-.11.25l-.08.18a1.4,1.4,0,0,0,0,.39c0,.16,0,.17,0,.44l-.08.18c0,.1-.07.19-.1.28s-.11.42-.22.75,0,.3-.11.53a4.19,4.19,0,0,0-.18.5l-.09.26c0,.13,0,.34-.05.45s-.48.41-.65.35-.1-.07-.16-.17-.08-.33-.06-.55a1.91,1.91,0,0,1,.12-.47c.27-.94.27-1.24.33-1.43l.14-.44a4.22,4.22,0,0,0,.23-.83,3.83,3.83,0,0,1,.14-.59c.06-.19.13-.36.15-.43s.23-1,.29-1.2l.09-.24c0-.08,0-.16.07-.25a5.34,5.34,0,0,0,.16-.55c0-.05-.37.46-.54.62s-.29.17-.36.35-.09.31-.23.44-.34.47-.47.64a8.06,8.06,0,0,1-.44.76,8.22,8.22,0,0,0-.6.77,7.78,7.78,0,0,1-.47.74c-.17.2-.34.48-.46.63a.16.16,0,0,0,0,.07c0,.1,0,.2,0,.34l-.09.27a.28.28,0,0,1-.22.21c-.24.08-.37.2-.53.15s-.32-.13-.24-.58A14.66,14.66,0,0,0,57,26c0-.08,0-.48,0-.6s.05-.35.05-.51,0-.31,0-.5a2.88,2.88,0,0,1,.06-.71,1.46,1.46,0,0,1,.1-.23.14.14,0,0,0,0-.12c-.08-.14,0-.25,0-.45a7,7,0,0,1,0-.8,3.74,3.74,0,0,1,.09-.66,5.38,5.38,0,0,0,0-.57s0,0,0,0-.25.36-.38.59a4.7,4.7,0,0,0-.34.79l-.09.28a1.46,1.46,0,0,1-.1.23,2.36,2.36,0,0,0-.27.52c-.06.22-.09.38-.13.49a3.08,3.08,0,0,1-.33.74,1.67,1.67,0,0,0-.22.42.51.51,0,0,0-.07.15l0,.13a1.33,1.33,0,0,1-.13.28c-.16.25-.34.61-.46.85s-.24.51-.36.79-.06.27-.24.35a.41.41,0,0,1-.23,0c-.06,0-.09-.07-.07-.17a1.29,1.29,0,0,1,0-.24,3.29,3.29,0,0,1,.26-.54,3.06,3.06,0,0,0,.26-.62l0-.15c0-.13.19-.35.27-.57a.58.58,0,0,0,0-.14.66.66,0,0,1,0-.15c0-.16.14-.23.22-.42a3.06,3.06,0,0,0,.34-.57.29.29,0,0,0,0-.1s0-.07,0-.12c.14-.42.77-1.68.88-2s.24-.51.31-.72.25-.48.34-.72a10.52,10.52,0,0,1,.46-1A.67.67,0,0,1,57.7,19Z"/><path class="cls-2" d="M65,22c.07-.18.12-.28.22-.24s.3.07.32.05a.47.47,0,0,1,.37,0,3.85,3.85,0,0,0,.72.15,1.52,1.52,0,0,1,.55.13l.51.15.2.08a.32.32,0,0,1,.19.34c0,.13-.15.17-.29.24a.79.79,0,0,1-.24,0c-.07,0-.09-.06-.09-.09s-.07-.1-.2-.18L67,22.5l-.6-.18a.28.28,0,0,0-.2,0c-.14.05-.24,0-.3.23s-.14.8-.33,1.38a2,2,0,0,1-.1.26c-.19.47-.27.65-.3.77s0,.24-.08.33-.08.14-.11.22a2.24,2.24,0,0,1-.06.31L64.9,26a2.3,2.3,0,0,0-.15.38c-.06.18-.09.33,0,.41a.46.46,0,0,0,.24.16,5.94,5.94,0,0,0,.6.18,2.06,2.06,0,0,1,.36.06c.23.09.26.16.25.32a.11.11,0,0,1,0,.08c0,.09-.12.09-.33,0l-.34-.11a2.53,2.53,0,0,0-.55-.17,1.05,1.05,0,0,1-.23-.07.2.2,0,0,0-.17,0,1,1,0,0,0-.34.49c-.1.31-.14.55-.21.77l0,.12a7.27,7.27,0,0,0-.29.68.85.85,0,0,1,0,.18c0,.08-.06.16-.08.22a.12.12,0,0,0,0,.1,2.61,2.61,0,0,0,.5.24c.13,0,.27.12.4.17a.47.47,0,0,0,.16,0,1,1,0,0,0,.49,0c.18-.06.26-.06.38-.11s.08,0,.11,0,.09.09.06.2,0,.28-.06.38a.13.13,0,0,1,0,.07,1.83,1.83,0,0,1-.49,0,1.3,1.3,0,0,1-.33-.08,4,4,0,0,0-.53-.15.72.72,0,0,1-.21-.05l-.46-.17a3.76,3.76,0,0,0-.65-.19,1.41,1.41,0,0,1-.29-.05.13.13,0,0,1-.1-.06c-.08-.07,0-.22,0-.43a.08.08,0,0,1,0-.07c0-.11.18-.05.21-.15a4,4,0,0,0,.08-.42,6.13,6.13,0,0,1,.2-.8c0-.09.07-.16.1-.26l.15-.42a1,1,0,0,0,.07-.29.88.88,0,0,1,0-.41s0,0,0,0,.23-.13.25-.18c.06-.21.09-.44.16-.66a1.34,1.34,0,0,1,.13-.27,4,4,0,0,0,.34-.84,2.44,2.44,0,0,0,.12-.42,3.43,3.43,0,0,1,.16-.63l.08-.24a5.39,5.39,0,0,0,.17-.59c0-.1.13-.45.21-.7Z"/><path class="cls-2" d="M68.5,30.75c.08,0,.19,0,.32.07a.47.47,0,0,1,.26.18.69.69,0,0,1,0,.49.88.88,0,0,1-.23.39c-.12.1-.58.06-.72.07h0a.57.57,0,0,1-.34-.4.91.91,0,0,1,.05-.31c0-.15.11-.24.19-.24s.31-.27.46-.24ZM70.2,24a.59.59,0,0,1,.08-.16,2,2,0,0,1,.07-.42.32.32,0,0,1,.38-.23l.4.08c.2.07.48.21.41.43l-.09.25a2.15,2.15,0,0,1-.21.52c-.13.2-.33.92-.45,1.13a.68.68,0,0,0-.08.15c0,.13,0,.3-.11.47s0,.08-.06.14a1.27,1.27,0,0,0-.08.23l-.15.44a7.34,7.34,0,0,0-.39,1,3.36,3.36,0,0,0-.17.71,3.49,3.49,0,0,1-.11.5c0,.15-.11.28-.17.45-.1.33-.36.33-.57.29h-.05c-.19-.07-.49-.28-.44-.43l.06-.17a2.1,2.1,0,0,1,.25-.56.94.94,0,0,0,.1-.23c0-.13.07-.24.1-.35a1,1,0,0,0,0-.18.89.89,0,0,1,.06-.3l.09-.26c.06-.18.22-.49.33-.82,0-.13.07-.26.09-.36a3.29,3.29,0,0,1,.1-.37c0-.17.11-.31.16-.44l0-.16a.4.4,0,0,1,0-.11c0-.05.06-.06.11-.2s.14-.44.15-.5C70.16,24.26,70.17,24.13,70.2,24Z"/></svg>