<svg id="レイヤー_1" data-name="レイヤー 1" xmlns="http://www.w3.org/2000/svg" viewBox="0 0 138.6 178.17"><defs><style>.svg_diagnosis_button-1{fill:#fff}.svg_diagnosis_button-2{fill:#231815}</style></defs><path d="M7.78 155.07a2 2 0 01-1.92-1.37H0v7.81h100.41V81.18H0V89h5.86a2 2 0 110 1.32H0v7.74h5.86a2 2 0 110 1.32H0v7.73h5.86a2 2 0 110 1.32H0v7.73h5.86a2 2 0 110 1.32H0v7.74h5.86a2 2 0 110 1.32H0v7.73h5.86a2 2 0 110 1.32H0v7.73h5.86a2 2 0 110 1.32H0v7.74h5.86a2 2 0 111.92 2.69z" fill="#a6d5c8"/><path class="svg_diagnosis_button-1" d="M65.66 80c-2.39-1.79-8.1-.57-9.83-2.43-1.15-1.25-1.43-4.6-1.44-7.4a7.19 7.19 0 10-8.36 0c0 2.8-.3 6.15-1.45 7.4-1.72 1.86-7.44.64-9.83 2.43s-.61 5.69-.61 5.69h32.13S68 81.74 65.66 80zM50.21 62.09A2.22 2.22 0 1148 64.31a2.21 2.21 0 012.21-2.22z"/><path class="svg_diagnosis_button-2" d="M66.67 86.27H33.74l-.16-.36c-.08-.18-1.93-4.4.8-6.44 1.32-1 3.38-1.14 5.37-1.29 1.8-.14 3.66-.29 4.38-1.06.46-.49 1.22-2 1.28-6.67a7.8 7.8 0 119.59 0c.06 4.65.83 6.18 1.28 6.67.72.77 2.58.92 4.38 1.06 2 .15 4.06.31 5.37 1.29 2.73 2 .89 6.26.81 6.44zM34.56 85h31.29c.33-.93 1-3.41-.55-4.58-1-.77-2.92-.92-4.74-1.06-2.13-.16-4.14-.32-5.18-1.45s-1.58-3.75-1.61-7.8v-.32l.26-.19a6.57 6.57 0 10-7.65 0l.26.19v.32c0 4-.56 6.67-1.61 7.8S42 79.24 39.85 79.4c-1.82.14-3.7.29-4.73 1.06-1.58 1.18-.89 3.65-.56 4.54zm15.65-17.87A2.83 2.83 0 1153 64.31a2.83 2.83 0 01-2.79 2.82zm0-4.42a1.6 1.6 0 101.59 1.6 1.59 1.59 0 00-1.59-1.6z"/><path class="svg_diagnosis_button-2" d="M50.21 60a4.35 4.35 0 104.34 4.35A4.35 4.35 0 0050.21 60zm0 6.56a2.22 2.22 0 112.21-2.21 2.21 2.21 0 01-2.21 2.17zM26.45 98.39H24a.45.45 0 00-.46.45L23.49 112c0 .38-.34.57-.75.57s-.77-.2-.77-.57L22 98.18a1.32 1.32 0 011.34-1.34h3.08c.33 0 .56.36.56.78s-.21.78-.53.77zM36.6 113h-.49a.72.72 0 01-.66-.78.63.63 0 01.52-.66h.31c.68 0 1-.58 1-1.25v-3h-2.4a6 6 0 01-.69 2.35.65.65 0 01-.54.27.62.62 0 01-.66-.6.48.48 0 01.05-.23 9.1 9.1 0 00.61-4.18v-6.44A1.34 1.34 0 0135 97.14h2.3a1.34 1.34 0 011.34 1.35l-.06 12.17c-.01 1.43-.69 2.34-1.98 2.34zm.72-10H35v3h2.33zm0-3.89a.42.42 0 00-.43-.45h-1.45a.42.42 0 00-.43.45v2.55h2.33zm9.86 13.77h-6.21a1.33 1.33 0 01-1.34-1.33v-8.27a.68.68 0 01.7-.57.65.65 0 01.67.58v7.86a.44.44 0 00.43.45h5.31a.44.44 0 00.43-.45v-8a.64.64 0 01.68-.58.65.65 0 01.68.59v8.36a1.31 1.31 0 01-1.33 1.34zm-6.49-13c-.36 0-.55-.5-.55-.84s.52-.57.85-.57.57.56.57.86-.56.58-.85.58zm5.37 10.42a.49.49 0 01-.39-.18l-1.29-1.73c-.32.39-1.82 1.91-2.3 1.91a.63.63 0 01-.61-.6.58.58 0 01.24-.44 6.66 6.66 0 002-1.77l-1.95-2.58a.33.33 0 01-.07-.23.61.61 0 01.6-.61.44.44 0 01.37.15l1.72 2.28a9.55 9.55 0 001.14-2.79.56.56 0 01.54-.39.54.54 0 01.57.5v.09a12.21 12.21 0 01-1.52 3.53l1.5 2a.37.37 0 01.07.23.63.63 0 01-.6.66zM44 99.84c-.38 0-.54-.52-.54-.85s.52-.55.85-.55.53.52.53.85-.5.55-.84.55zm5-2.33l-.9 4a.69.69 0 01-.69.5.68.68 0 01-.67-.61v-.09l.94-4a.6.6 0 01.61-.46.67.67 0 01.72.59s-.01.04-.01.07zM61.7 106.58h-.07a20.78 20.78 0 01-5.31-1.84v8a.83.83 0 01-1.62 0l.07-14.81a.83.83 0 011.62 0v5a19 19 0 005.56 2 .79.79 0 01.53.79.8.8 0 01-.78.86zM77.79 109.22a12 12 0 01-8.46 3.67h-.48a1.24 1.24 0 01-1.34-1.24l.06-13.82a.8.8 0 01.83-.66.79.79 0 01.83.67l-.06 12.9a.39.39 0 00.39.42 10.44 10.44 0 007-3.06.64.64 0 01.48-.19.9.9 0 01.86.88.69.69 0 01-.11.43zM85.17 113.22h-3.09c-.32 0-.56-.36-.55-.77s.23-.75.56-.75h2.42a.44.44 0 00.45-.45l.06-13c0-.38.34-.56.77-.55s.77.18.77.56l-.06 13.71a1.31 1.31 0 01-1.33 1.25zM32.79 127.05h-11a1.28 1.28 0 01-1.14-1.36 1.3 1.3 0 011.15-1.35h11a1.28 1.28 0 011.14 1.36 1.26 1.26 0 01-1.15 1.35zm-2.68 22.84h-5.7a2.57 2.57 0 01-2.6-2.59v-5.6a2.57 2.57 0 012.62-2.59h5.7a2.56 2.56 0 012.59 2.61v5.6a2.59 2.59 0 01-2.61 2.57zm.32-18h-6.15a1.1 1.1 0 01-1-1.15 1.12 1.12 0 011-1.18h6.16a1.13 1.13 0 011 1.19 1.11 1.11 0 01-1.01 1.09zm0 4.73h-6.15a1 1 0 01-1-1.08 1.08 1.08 0 011-1.18h6.15a1.07 1.07 0 011 1.18 1 1 0 01-1.02 1.03zm.07-14.71h-6.15a1.07 1.07 0 01-1-1.15 1.1 1.1 0 011-1.15h6.15a1.09 1.09 0 011 1.16 1.06 1.06 0 01-1.02 1.09zm-.37 20.44a.83.83 0 00-.83-.87h-3.93a.82.82 0 00-.84.87v4.45a.83.83 0 00.83.87h3.93a.86.86 0 00.84-.86zM50 127.16c-.8 0-3.47-1.58-5.86-4.37-.38-.45-.69-.7-.8-.7s-.42.21-.77.66c-2.13 2.53-5 4.36-5.93 4.35a1.45 1.45 0 01-1.45-1.43 1.17 1.17 0 01.63-1.11 13.83 13.83 0 005.34-4.18 2.52 2.52 0 014.35 0 13.81 13.81 0 005.3 4.23 1.17 1.17 0 01.62 1.12 1.43 1.43 0 01-1.43 1.43zm1.68 19.45a28.22 28.22 0 01-13.55 3.63 1.29 1.29 0 01-1.13-1.33 1.34 1.34 0 011.12-1.32 30.18 30.18 0 0012.68-3.42.67.67 0 01.38-.1 1.26 1.26 0 011.18 1.33 1.32 1.32 0 01-.71 1.21zm-5-6.39a32.3 32.3 0 01-8.56 1.88 1.26 1.26 0 01-1.12-1.33 1.37 1.37 0 011.12-1.35 24.92 24.92 0 007.9-1.67.61.61 0 01.25 0 1.18 1.18 0 011.14 1.25 1.35 1.35 0 01-.74 1.22zM44.79 133a30 30 0 01-6.68 1.32 1.18 1.18 0 01-1.11-1.2 1.36 1.36 0 011.12-1.39 23.09 23.09 0 006-1.22.86.86 0 01.28 0 1.19 1.19 0 011.14 1.29 1.4 1.4 0 01-.75 1.2zM71.57 147.85l-12.27-.06a2.57 2.57 0 01-2.6-2.58l.11-23.09a1.37 1.37 0 012.71 0l-.1 22.26a.83.83 0 00.83.87l11.33.05a1.21 1.21 0 011.11 1.26 1.24 1.24 0 01-1.12 1.29zm.07-15.19h-2a17.37 17.37 0 002.36 6.6 1.14 1.14 0 01-.91 1.74 1 1 0 01-.8-.39 21.13 21.13 0 01-2.4-8h-.17v10.26a1.13 1.13 0 01-1.19 1 1.12 1.12 0 01-1.17-1v-10.25a21.07 21.07 0 01-2.51 8 1 1 0 01-1.85-.82 1 1 0 01.18-.62 16.66 16.66 0 002.43-6.56h-2.09a1.24 1.24 0 01-1.14-1.29 1.26 1.26 0 011.15-1.33h3.86v-7a1.2 1.2 0 012.36 0v7h3.89a1.32 1.32 0 010 2.61zm-8.88-4.6c-.59 0-1-.91-1-1.47s1-1 1.47-1 .93.91.93 1.4-.84 1.07-1.4 1.07zm7.69 0c-.49 0-1.39-.46-1.39-1 0-.42.42-1.42 1-1.42s1.46.42 1.46 1-.45 1.42-1.07 1.42zm16 3.79H85l-.09 17.94a1.21 1.21 0 01-1.29 1.14 1.26 1.26 0 01-1.35-1.15l.08-17.94H77.8v3.55a17.85 17.85 0 01-1.8 8.45 1.11 1.11 0 01-1.05.55 1.34 1.34 0 01-1.45-1.29 1.14 1.14 0 01.14-.59 15.49 15.49 0 001.46-7.23v-12.24a2.54 2.54 0 012.66-2.63 30.16 30.16 0 006.82-.63h.21a1.4 1.4 0 01.47 2.65c-1.53.65-5.67.7-6.57.73a.9.9 0 00-1 .87v5h8.73a1.31 1.31 0 011.14 1.43 1.34 1.34 0 01-1.06 1.39z"/><path class="svg_diagnosis_button-1" d="M93.58 170.51l-10-7 20-28 10 6-20 29z"/><path class="svg_diagnosis_button-2" d="M103.47 134.63a270.26 270.26 0 00-20.37 28.46c-.51.83.79 1.58 1.3.76a265.39 265.39 0 0120.13-28.16c.61-.74-.45-1.8-1.06-1.06zM107.59 138.81l5.89 3.54-.15-1.17a29.28 29.28 0 00-4.53 5.52q-2.46 3.66-4.88 7.34l-9.83 14.77c-.54.81.76 1.56 1.29.76l9.56-14.36 4.68-7a30.71 30.71 0 014.77-5.93.76.76 0 00-.16-1.18l-5.88-3.54a.75.75 0 00-.76 1.29zM85.6 166.08a16.39 16.39 0 007.59 4.92.75.75 0 00.4-1.45 15 15 0 01-6.93-4.55.75.75 0 00-1.06 0 .76.76 0 000 1.06zM82.7 168.31a32 32 0 00-1.7 9.13.76.76 0 001.13.65l9.77-4.26a.75.75 0 00.27-1 .77.77 0 00-1-.27l-9.77 4.27 1.12.64a30.63 30.63 0 011.69-8.73c.32-.91-1.12-1.3-1.44-.4z"/><path class="svg_diagnosis_button-2" d="M82.28 173.89l.55.37.07.05h-.05l.09.08.25.22a6.25 6.25 0 01.45.44c.07.08.15.16.22.25l.1.13v.06l.85-1.1-.33-.1.18.07a2.75 2.75 0 01-.38-.2l-.1-.07.1.07h-.05l-.16-.15-.13-.15c-.09-.11.11.15 0 0l-.06-.09a1.87 1.87 0 01-.22-.39l.08.18a2.19 2.19 0 01-.16-.57v.2a1.69 1.69 0 010-.55l-.75.75h.24-.2a2 2 0 01.42.11l-.18-.07a1.43 1.43 0 01.3.16h.06c.11.08-.11-.1-.06 0l.13.11.11.12c.08.1-.09-.12 0-.06v.07a2.28 2.28 0 01.17.3l-.08-.18a1.82 1.82 0 01.11.4v-.2a.88.88 0 010 .17.76.76 0 00.75.75.77.77 0 00.75-.75 2.55 2.55 0 00-2.51-2.42.77.77 0 00-.54.22.86.86 0 00-.21.53 2.88 2.88 0 00.51 1.95 3.06 3.06 0 001.76 1.25.76.76 0 00.94-.63.69.69 0 00-.09-.47 8.26 8.26 0 00-2.21-2.16.75.75 0 00-.76 1.3zM103.64 140.27l-16.72 23.8c-.55.79.75 1.54 1.3.75L104.94 141c.55-.79-.75-1.54-1.3-.75zM107.67 141.85q-9.18 12.45-17.26 25.67a.75.75 0 001.3.76q8.06-13.2 17.25-25.68c.58-.77-.72-1.52-1.29-.75z"/><path class="svg_diagnosis_button-2" d="M84.5 174.36v.19c0 .06 0 0 0 0l-.06.13c-.08.11 0 0 0 0s-.17.12-.09.07-.15 0-.08 0 .22-.05.06 0 0 0 .06 0h-.06.14c.08 0-.17-.09-.07 0h.07c.06 0-.14-.13-.06-.05.45.46.81 1.06 1.49 1.19l.2-1.47a2.41 2.41 0 01-.38 0h.07-.09l-.19-.05a.85.85 0 00-.17-.06s.15.06.06 0l-.1-.05-.32-.2s.13.1.05 0l-.06-.06-.13-.12-.08-.09s-.08-.1 0 0 0-.05 0-.08a1.62 1.62 0 01-.1-.18.2.2 0 010-.08c-.05-.09 0 0 0 .06 0-.13-.08-.25-.11-.38l-1.1.84a1.44 1.44 0 00.85.25h.28a.76.76 0 00.15 0h-.08a.34.34 0 01-.14-.09l-.08-.1s-.07-.2 0-.07 0-.21 0-.09v-.03a.61.61 0 01.87-.36l-.58 1.37h.33s-.16-.08 0 0a.75.75 0 01.2.11s-.12-.1 0 0l.11.1-.12-.91a.91.91 0 01-.11.16q-.08.1 0 0l-.06.07a3.58 3.58 0 01-.26.29l-.29.27-.07.06c-.07 0 0 0 0 0s-.11.09-.13.1a5.38 5.38 0 01-.66.38h-.09.05l-.18.06a2.72 2.72 0 01-.38.11l.93.93v-.13c0-.1 0 0 0 0a1.75 1.75 0 00.11-.24q.12-.24.27-.48l.15-.21s.07-.08.08-.11-.07.09 0 0a3.6 3.6 0 01.37-.41l-1.25-.73a1 1 0 00-.06.16v-.1a.25.25 0 010 .07c-.06.13.11-.12 0 0a.43.43 0 01.4-.13.6.6 0 01.5.43V174.91a.61.61 0 01-.15.27c-.78-.08-1 0-.79.12l-.37-.65-.13 1.29a.76.76 0 00.75.75.77.77 0 00.75-.75l.13-1.29a.76.76 0 00-.38-.65.84.84 0 00-1.17.31 1 1 0 00.08 1.1 1 1 0 001.25.2 1.53 1.53 0 00.61-.92.75.75 0 00-.34-.85.77.77 0 00-.91.12 6 6 0 00-1.41 2.22c-.21.56.41 1.05.92.92a5.16 5.16 0 003-2.15.77.77 0 00-.12-.91 2.22 2.22 0 00-1.24-.66.76.76 0 00-.89.43.75.75 0 00.31.94.9.9 0 001.24-.33 1.23 1.23 0 000-1.06 1.2 1.2 0 00-.35-.46 1.3 1.3 0 00-.69-.24h-.5l-.11-.07a.72.72 0 00-.83.06.76.76 0 00-.27.79 3 3 0 003.13 2.56.78.78 0 00.74-.65.75.75 0 00-.54-.83h-.12c-.06 0 0 0 0 0a.36.36 0 00-.1-.07c.09.07.12.09.07.06a3.81 3.81 0 01-.33-.36 2 2 0 00-1-.72 1.66 1.66 0 00-1.2.1 1.11 1.11 0 00-.58 1.25.77.77 0 00.93.53.79.79 0 00.52-.93z"/><path class="svg_diagnosis_button-2" d="M83.93 174.57a4.31 4.31 0 00-1.65 1.66l1.38.58a4.93 4.93 0 01.31-1l-.08.18a5.61 5.61 0 01.56-1 .78.78 0 00.08-.58.82.82 0 00-.35-.45.77.77 0 00-.58-.07.83.83 0 00-.44.34l-.25.36a.74.74 0 00-.08.58.81.81 0 00.34.45.74.74 0 00.58.07.81.81 0 00.45-.34l.25-.36-1.29-.76a6.13 6.13 0 00-1 2.21.75.75 0 001.37.57 4.53 4.53 0 01.3-.46l-.12.15a3.94 3.94 0 01.65-.64l-.16.12a4.17 4.17 0 01.44-.29.75.75 0 10-.76-1.29zM103.23 135.48c-.17 2.42.43 5.17 2.57 6.59s4.62.94 6.85.54a.74.74 0 00.52-.92.77.77 0 00-.92-.53c-1.79.33-3.94.71-5.58-.31s-2.07-3.49-1.94-5.37c.06-1-1.44-1-1.5 0z"/><path d="M62.81 15.67C69.13 5.74 81.3.53 93.07.51a46.63 46.63 0 0141.31 26.11 29.19 29.19 0 013.14 13c-.21 9.49-6.84 17.89-14.94 22.84a43.21 43.21 0 01-30.36 5.46c-2.93-.57-5.83-1.45-8.82-1.53s-6.19.8-8.06 3.13c-.62-3.15 1.2-6.81-.64-9.44a10.69 10.69 0 00-2.89-2.35c-12.72-8.67-17.24-29.14-9-42.06z" fill="#040000"/><path class="svg_diagnosis_button-1" d="M63.88 15.5C69.84 6.14 81 1.25 91.87 1a45.55 45.55 0 0129.87 11 45 45 0 0110.2 12.27c3.05 5.43 5.21 11.81 4.28 18.1-1.71 11.58-12 20.12-22.52 23.67a41.19 41.19 0 01-21.52 1.19c-5.85-1.24-13.33-3-17.84 2.29l2.08-.33c-.38-2.3.34-4.55.19-6.84s-1.61-3.6-3.47-4.84a27.92 27.92 0 01-8-8.17 34.82 34.82 0 01-5.28-22 27.72 27.72 0 014-11.85c.24-.38-.77-.33-.89-.31a1.72 1.72 0 00-1.26.65c-8 12.76-4.12 31.84 7.52 41.14 1.87 1.49 4.52 2.5 5.07 5.07s-.5 5.17-.07 7.75c.1.64 1.86-.08 2.08-.33 2.33-2.75 5.88-2.84 9.19-2.31s6.77 1.54 10.25 1.85a46 46 0 0018.74-2.28c10.81-3.65 21.61-12.12 23.76-23.92 1.17-6.39-.76-12.83-3.78-18.44a45.51 45.51 0 00-10.42-12.88A47.16 47.16 0 0093.52 0C81.37 0 68.43 5.32 61.73 15.84c-.24.38.78.32.89.31a1.81 1.81 0 001.26-.65z"/><path class="svg_diagnosis_button-1" d="M87.8 16.56a.59.59 0 010-.17c.07-.22.24-.47.36-.84a3.94 3.94 0 00.09-.93c0-.31-.07-.4-.32-.66a.9.9 0 00-.39-.24 2 2 0 00-1.11.06A3.22 3.22 0 0084.77 15c-.18.21-.43.28-.56.69a2.55 2.55 0 01-.31.59 10.71 10.71 0 00-.45 1.16 8.14 8.14 0 01-.36.89c-.35.78-.68 1.58-.77 1.84a4.16 4.16 0 01-.2.7 1.38 1.38 0 00-.11.59 5 5 0 01-.16 1.15 12.69 12.69 0 00-.16 2.73 4.27 4.27 0 00.37 1.18 2 2 0 00.62.6 1.07 1.07 0 001.16-.12 7.1 7.1 0 00.65-.47 10.09 10.09 0 00.68-.83c.12-.16.3-.46.51-.39s.37.21.3.43 0 .17-.06.25a.8.8 0 01-.16.28c-.15.18-.29.47-.41.63s-.47.2-.68.38a3.28 3.28 0 01-.77.57 3.13 3.13 0 01-.72.14A2.32 2.32 0 0182 28a4.61 4.61 0 01-.45-.2 3 3 0 01-1-.7c-.16-.21-.4-.42-.63-.75a4.49 4.49 0 01-.45-1.68c0-.31 0-.53.09-.87a10.82 10.82 0 01.54-3.26c.38-1.14.83-2.11.93-2.35a2.4 2.4 0 01.35-.77 2.67 2.67 0 00.43-.84.7.7 0 01.36-.49c.16-.06.22-.39.47-.74a4.72 4.72 0 01.72-.83c.17-.12.51-.54.73-.67a11.44 11.44 0 011-.56 6.64 6.64 0 01.86-.28c.23 0 .33.14.65 0a1.47 1.47 0 011.16-.06 1.5 1.5 0 01.69.47 3 3 0 01.75.85 2.35 2.35 0 01.06 1 .49.49 0 010 .11c0 .16-.21.42-.25.56-.11.32-.18.55-.3.82s-.22.46-.5.37-.43-.29-.41-.57zM93.39 15.1a1.38 1.38 0 01.71 0c.25.08.28.78.24 1a9.07 9.07 0 01-.22 1.26c-.33 1-.42 1.29-.52 1.53-.19.43-.43.84-.54 1.16-.19.58-.33.8-.43 1.09s-.18.74-.37 1.34c-.07.19-.13.39-.22.58-.44 1.06-.8 1.88-1 2.36s-.63 1.49-.73 1.79-.28.94-.39 1.26c-.05.16-.13.31-.17.46s-.08.28 0 .38.3.18.73.44 1 .36 1.19.5a1.68 1.68 0 00.33.16.89.89 0 00.48 0 2 2 0 01.94.07c.28.09.35.22.32.51v.1c-.07.2-.26.25-.58.26A10.45 10.45 0 0192 31.1a2.46 2.46 0 01-.33-.06c-.27-.09-.49-.23-.79-.33s-.39-.1-.49-.14c-.32-.1-.61-.24-1.13-.42a3.52 3.52 0 01-.56-.14.61.61 0 01-.29-.14c-.21-.18-.72-.3-.59-.7s.26-.72.39-1.1c.06-.21.11-.37.14-.51s.05-.21.09-.33a13.8 13.8 0 01.53-1.34c0-.07 0-.1.07-.16.2-.45.41-.62.51-.93a3 3 0 00.09-.34c.08-.23.2-.47.28-.7a3.07 3.07 0 01.12-.44c.17-.53.58-1.55.79-2.18 0-.16.07-.29.1-.37s0-.21.08-.31c.15-.46.4-1 .5-1s0-.3 0-.44.25-.48.33-.72a.71.71 0 000-.2 5 5 0 01.2-.88 2.94 2.94 0 01.17-.43c.23-.57.47-1.16.55-1.4s.38-.19.63-.29zM101.61 17.93c.29-.06.41-.29.65-.28h.09c.2.06.34.31.28.76a3.53 3.53 0 01-.19 1l-.24.73a4.41 4.41 0 01-.43 1 6.66 6.66 0 00-.64 1.28c-.19.56-.35 1.18-.39 1.37s-.3 1.1-.71 2.35c-.23.71-.56 1.63-.73 2.15s-.23.82-.3 1a1.23 1.23 0 01-.16.35 2.21 2.21 0 00-.22.48c-.06.18-.1.37-.16.55s-.35.58-.41.76 0 .36-.09.48a.78.78 0 01-.14.27c-.17.26-.59.38-1 .53s-.41.2-.5.16c-.31-.09-.12-.66-.07-.82l.13-.4c.18-.53.35-1.18.46-1.52s.79-2.2.92-2.51.13-.34.19-.52c.18-.59.19-.7.23-.82s.19-.38.26-.58.11-.55.22-.94l.1-.32c.24-.72.69-2.09.81-2.25a2.74 2.74 0 00.21-.47c.06-.2.12-.45.2-.69s.38-.61.48-.91.05-.55.13-.81.31-.66.42-.93.31-.38.6-.45zM110.68 24.11a.37.37 0 010-.16c.07-.23.24-.48.36-.84a3.51 3.51 0 00.08-.94c0-.3-.06-.4-.31-.66a1 1 0 00-.39-.24 2.15 2.15 0 00-1.11.06 3.33 3.33 0 00-1.7 1.22c-.18.21-.43.29-.56.69a2.37 2.37 0 01-.31.59 10.45 10.45 0 00-.45 1.17c-.06.16-.12.34-.36.88-.35.78-.68 1.59-.77 1.85a4.23 4.23 0 01-.2.69 1.38 1.38 0 00-.11.59 5 5 0 01-.16 1.15 12.74 12.74 0 00-.16 2.74 4.21 4.21 0 00.37 1.17c.22.27.44.55.62.61a1.12 1.12 0 001.16-.13c.22-.13.54-.41.65-.48s.56-.69.68-.83.3-.45.5-.39.38.22.31.44a1.83 1.83 0 00-.06.25 1.17 1.17 0 01-.16.28c-.15.17-.29.46-.41.62s-.47.2-.68.38a3.28 3.28 0 01-.77.57 3.23 3.23 0 01-.72.14 2.23 2.23 0 01-1.23 0l-.45-.19a3 3 0 01-1-.71c-.16-.21-.4-.42-.63-.74a4.48 4.48 0 01-.45-1.69c0-.31 0-.52.09-.86a10.78 10.78 0 01.54-3.26 25 25 0 01.93-2.35 2.47 2.47 0 01.35-.78 2.67 2.67 0 00.43-.84c.09-.28.2-.42.36-.48s.22-.4.47-.74a4 4 0 01.72-.83 9.73 9.73 0 01.73-.68c.22-.13.79-.47 1-.56a5.57 5.57 0 01.85-.27c.24 0 .34.13.66 0a1.47 1.47 0 011.16-.07 1.5 1.5 0 01.69.48 2.74 2.74 0 01.75.85 2.52 2.52 0 01.06 1v.1c0 .04-.21.43-.25.57-.11.32-.18.54-.3.81s-.22.47-.5.38-.35-.28-.32-.56zM116.18 22.65a2.31 2.31 0 01.94-.2c.18.06.34.18.21.65-.08.24-.12.44-.2.67s-.18.47-.28.79-.21.56-.26.72a3.49 3.49 0 00-.12.43 4.61 4.61 0 01-.15.53c-.08.24-.17.5-.3.84-.19.5-.4.58-.56 1.09s-.14.74-.28 1.16a.85.85 0 01-.11.27c-.2.47-.61 1.32-.83 2a1.59 1.59 0 00-.1.37 3.65 3.65 0 01-.41.78.19.19 0 000 .13 2.07 2.07 0 01-.13 1.07c-.18.54-.4.74-.53 1.12v.21a11.77 11.77 0 01-.31 1.15l-.09.28a1.28 1.28 0 01-.52.74 1.56 1.56 0 01-1 .17c-.2-.07-.47-.22-.37-.53l.16-.46a2.8 2.8 0 00.1-.37 6.23 6.23 0 01.19-.87c.09-.26.22-.44.32-.76a6.76 6.76 0 01.23-1c.08-.17.64-1.73 1-2.79.07-.29.25-.84.41-1.32a3.47 3.47 0 01.31-.79.53.53 0 00.12-.25 5.55 5.55 0 00.15-.58 3.88 3.88 0 01.13-.58.65.65 0 01.08-.17c.12-.23.7-1.8.85-2.18s.25-.56.34-.82a1.16 1.16 0 00.06-.34.47.47 0 010-.17c.06-.18.19-.36.28-.64s.49-.25.67-.35zm5.82 1.56a.5.5 0 01.12 0c.14 0 .33.17.27.35s-.4.52-.58.86a10.13 10.13 0 01-1.08 1.32 13 13 0 01-1.67 1.75c-.34.15-.38.18-.47.35s-.07.27-.42.58-.69.69-.93.92a5.19 5.19 0 00-.57 1 1.58 1.58 0 00.12.87c.11.15.18.08.17.5a3.37 3.37 0 00.1 1c.13.18.22 1 .33 1.18a10.6 10.6 0 01.1 1.19c.08.16.13.87.26 1.23a4.32 4.32 0 01.37 1.79 1.13 1.13 0 01-1.09.47.88.88 0 01-.7-.65 9.21 9.21 0 01-.35-1.57 3.33 3.33 0 00-.42-1.05c-.09-.26 0-.42-.15-.9s0-.72-.15-.9-.08-.34-.22-.54.09-.75-.1-1.13a1 1 0 01-.15-.83.65.65 0 01.09-.19 2.32 2.32 0 01.74-.76 5.55 5.55 0 00.66-.72c.25-.28.83-.75 1.08-1s.37-.25.49-.53.26-.25.49-.55a12.94 12.94 0 01.88-1.18c.44-.53.41-.49.86-1a9.93 9.93 0 00.9-1.16 1.76 1.76 0 011.02-.7zM84.88 34.41a.75.75 0 01.45-.08c.16.05.32.24.37.62a8.85 8.85 0 01.15 2v2.18a4.33 4.33 0 00-.23 1c0 .39.09.26.09.73a1.49 1.49 0 01-.06.58.39.39 0 010 .1s.18.39.16.6 0 .76-.07 1-.08.91-.13 1.52.14 1.54.08 1.79a5.6 5.6 0 00-.08 1c.1 0 .63-.42.95-.89s.61-.92.74-1.17.49-.48.62-.82a6 6 0 01.56-1.06 7.9 7.9 0 01.7-1c.09 0 .41-.69.51-.65a.54.54 0 00.12-.23.27.27 0 000-.15 4.07 4.07 0 01.51-.79 3.34 3.34 0 01.57-.57 2.58 2.58 0 00.41-.72 3.51 3.51 0 01.38-.54c.19-.23.29-.19.5-.62 0-.06.06-.11.07-.15a2.54 2.54 0 00.07-.42.49.49 0 01.12-.15 2.58 2.58 0 011-.46h.07c.22.07.34.53.31 1a4.63 4.63 0 01-.24 1.34 3.79 3.79 0 00-.24 1.2 5.48 5.48 0 01-.18.94 5.86 5.86 0 01-.28 1.25c-.22.67-.35 1.42-.54 2a3.39 3.39 0 01-.19.45 2.82 2.82 0 00-.15.31 2.88 2.88 0 00-.07.69c0 .27.08.29-.08.77 0 .08-.09.2-.13.32a3.34 3.34 0 00-.18.5c-.14.42-.2.73-.4 1.32-.12.38-.06.53-.19.94s-.26.69-.32.87l-.15.47c-.08.24 0 .59-.08.8s-.87.72-1.17.62c-.08 0-.16-.12-.28-.3-.26-.37-.14-.58-.1-1a3.68 3.68 0 01.21-.84c.48-1.66.47-2.19.59-2.53l.25-.77a7.83 7.83 0 00.3-1.41 5.58 5.58 0 01.25-1c.11-.34.23-.63.27-.75s.39-1.8.51-2.14c0-.14.11-.27.16-.41s.07-.29.12-.45.27-.83.27-1-.64.81-.94 1.09-.52.3-.65.61a2 2 0 01-.39.79c-.23.23-.61.83-.84 1.13a13.2 13.2 0 01-.78 1.33c-.4.49-.78 1-1.05 1.37s-.54 1-.83 1.31-.6.85-.82 1.11a.34.34 0 00-.06.12c-.06.18.08.36 0 .6l-.16.48a.48.48 0 01-.38.37c-.43.14-.66.36-.94.27s-.55-.23-.42-1a24.4 24.4 0 00.15-3c0-.14-.06-.84-.07-1.07s.09-.62.09-.88v-.9a5.24 5.24 0 01.1-1.24 3.33 3.33 0 01.18-.41.25.25 0 000-.22c-.14-.24.08-.44 0-.79s.11-1.08.09-1.43a7.18 7.18 0 01.16-1.15 6.11 6.11 0 00-.07-1v-.08s-.45.63-.68 1a7.59 7.59 0 00-.59 1.39l-.17.5a1.6 1.6 0 01-.18.41A4.53 4.53 0 0082 42c-.11.39-.15.66-.22.86a6.77 6.77 0 01-.58 1.31 3.19 3.19 0 00-.4.73 1.57 1.57 0 00-.12.28l-.07.22a2.1 2.1 0 01-.23.5c-.28.45-.6 1.08-.81 1.5s-.43.91-.64 1.4-.11.47-.43.61a.52.52 0 01-.4.07c-.1 0-.16-.12-.13-.29a3.21 3.21 0 01.1-.43 5 5 0 01.45-1 6.39 6.39 0 00.48-1.09l.09-.26c.08-.25.34-.63.46-1a.71.71 0 00.06-.25 1.5 1.5 0 01.07-.27 8.1 8.1 0 01.4-.74 7.56 7.56 0 00.6-1 .58.58 0 000-.19.48.48 0 01.05-.21c.24-.74 1.35-3 1.55-3.48s.43-.91.55-1.27.44-.86.6-1.27A16.5 16.5 0 0184.3 35a1.1 1.1 0 01.58-.59zM97.68 39.75c.13-.31.21-.49.39-.43.36.12.54.13.57.1a.84.84 0 01.65-.08 6.65 6.65 0 001.28.27 2.79 2.79 0 011 .23l.89.27.36.14c.22.12.41.38.33.6s-.25.3-.51.41a.84.84 0 01-.42.05c-.12 0-.17-.1-.17-.17s-.12-.18-.34-.32a1.86 1.86 0 00-.31-.14l-1.05-.33a.47.47 0 00-.35 0c-.26.09-.43.08-.54.4s-.24 1.42-.58 2.44c-.06.16-.11.32-.17.46-.35.84-.48 1.16-.54 1.36s-.08.42-.13.58-.15.27-.2.41 0 .26-.11.54c0 .08-.08.15-.11.25s-.2.47-.27.68a1 1 0 00-.06.73.75.75 0 00.42.28c.65.21.83.27 1.06.32a5 5 0 01.63.1c.42.16.47.29.46.58a.25.25 0 010 .12c0 .16-.21.18-.58.08l-.61-.2a6.2 6.2 0 00-1-.3 1.87 1.87 0 01-.41-.11.3.3 0 00-.29 0 1.67 1.67 0 00-.6.87c-.18.55-.25 1-.38 1.35l-.07.22c-.17.37-.4.88-.51 1.2 0 .08 0 .15-.09.33s-.11.27-.14.37a.31.31 0 000 .18A3.38 3.38 0 0096 54c.22.08.46.22.7.3a1 1 0 00.28 0 2.07 2.07 0 00.86 0c.33-.12.47-.12.67-.21a.4.4 0 01.21 0c.1 0 .15.16.1.37s0 .5-.1.66a.27.27 0 01-.09.13 3.88 3.88 0 01-.88 0 2.1 2.1 0 01-.57-.15 7.72 7.72 0 00-.94-.26 2.33 2.33 0 01-.38-.08c-.28-.09-.55-.23-.81-.31a6.79 6.79 0 00-1.14-.34 3.27 3.27 0 01-.51-.07.4.4 0 01-.19-.11c-.13-.13 0-.4 0-.77a.17.17 0 010-.12c.06-.2.32-.1.37-.26a5.3 5.3 0 00.14-.76 11.72 11.72 0 01.35-1.4c0-.16.12-.29.17-.45s.21-.56.28-.76a1.15 1.15 0 00.11-.5 1.9 1.9 0 010-.73v-.07c0-.01.41-.23.44-.33.12-.36.17-.77.3-1.15a2.3 2.3 0 01.22-.48 6.08 6.08 0 00.6-1.48 4.84 4.84 0 00.21-.76 6.1 6.1 0 01.3-1.1l.13-.43c.08-.3.26-.78.3-1s.22-.79.37-1.24zM104 55.25a4.43 4.43 0 01.56.12.85.85 0 01.46.31 1.14 1.14 0 010 .87 1.48 1.48 0 01-.41.69c-.21.18-1 .11-1.26.12a.1.1 0 01-.09 0 1 1 0 01-.61-.71 1.66 1.66 0 01.09-.55c.09-.26.21-.42.34-.42s.56-.47.81-.43zm3-11.86c0-.14.11-.21.14-.29a5 5 0 01.13-.74.55.55 0 01.67-.4l.71.14c.34.12.84.37.71.75l-.14.45a4.57 4.57 0 01-.38.92c-.22.35-.57 1.62-.79 2a1.63 1.63 0 00-.15.27c-.08.24-.09.53-.19.83 0 .06-.07.15-.1.25a3 3 0 00-.16.4l-.25.78a12.62 12.62 0 00-.69 1.74 5.41 5.41 0 00-.3 1.24 5.23 5.23 0 01-.2.89c-.09.27-.19.5-.29.8-.19.59-.63.57-1 .52h-.08c-.34-.11-.86-.49-.78-.75l.1-.3a3.91 3.91 0 01.44-1 1.35 1.35 0 00.18-.41c.08-.23.12-.43.18-.61a1.35 1.35 0 00.09-.33 1.78 1.78 0 01.1-.53l.16-.46c.1-.32.4-.87.59-1.46a4.48 4.48 0 00.16-.63c.06-.23.11-.46.17-.64s.21-.56.28-.78a1.11 1.11 0 00.07-.29 1.33 1.33 0 010-.2c0-.08.12-.09.21-.35l.26-.88c.04-.55.05-.77.15-.93z"/></svg>