<svg id="レイヤー_1" data-name="レイヤー 1" xmlns="http://www.w3.org/2000/svg" viewBox="0 0 406.66 40.66"><defs><style>.cls-1{fill:#c6a385;}</style></defs><path class="cls-1" d="M19.73,22.75s-1,10.42-13.44,14.12H.86C.19,23.91,0,8.64,0,8.64H6.72s0,9.89-.24,21.51A21.24,21.24,0,0,0,19.73,22.75Z"/><path class="cls-1" d="M37,14.16h4.18a44.27,44.27,0,0,0,1,8.74S37,23.23,37,14.16ZM52,17.67h5.62c0,19.2-17.19,19.2-17.19,19.2S52,30.77,52,17.67Zm-8.69-3.51h4.23a46,46,0,0,0,1,8.74S43.34,23.23,43.34,14.16Z"/><path class="cls-1" d="M70.51,36.87A30,30,0,0,0,86.35,13.49c-6.86.29-11.47.29-11.47.29V8.88s8.45,0,18.48.34c0,8.49-2.16,14.35-5.14,18.43,2.74-.43,7.4-.14,12.68,4.51l-4.85,4.71c-2.64-3.36-7-6.29-9.12-7.64A23.84,23.84,0,0,1,70.51,36.87Z"/><path class="cls-1" d="M118.66,16.71s-4.56-2.55-8.36-2.6l0-5C119,9.6,118.66,16.71,118.66,16.71Zm14.88-.92s4.32,12.58-21.75,20.07l-1.49-6.53C128.93,24.19,133.54,15.79,133.54,15.79Z"/><path class="cls-1" d="M172.66,24.34A15.49,15.49,0,0,1,164.83,16h-5.66c-5.47,8.44-11.81,8.35-11.81,8.35A52.12,52.12,0,0,0,152.69,16h-4.51V13.63h5.71c.43-.91.81-1.87,1.25-2.88-3.46.29-4.52.29-4.52.29l-.24-5.14s.39,0,2.55-.09A26,26,0,0,0,157.1,0l4.66,2.5a11.32,11.32,0,0,1-2.26,3.07c1.88-.1,4.08-.19,6.77-.29l-.81-1.39,4.61-2.21s.33.72,3.31,7.63l-3.75,1.83c-.33-.63-.62-1.16-.91-1.64-2.49.24-4.7.48-6.58.63a31.9,31.9,0,0,1-1.63,3.5h10.71l1.92-1.92,1.92,1.92V16h-7.2a74.84,74.84,0,0,0,7.77,3.26Zm-1.44,9.17c-11.67,10.36-21.8,5.23-21.8,5.23a37.88,37.88,0,0,0,18-8.69Zm-19-3.7s7.39-1.15,12.43-6.24L168.43,27C159.6,34.71,152.21,29.81,152.21,29.81Zm2.45-7.3a17.63,17.63,0,0,0,7.53-5.23L166,20.74C160.32,27,154.66,22.51,154.66,22.51Z"/><path class="cls-1" d="M190.13,33.84s1.34,0,3.65.1c-.29-10-.39-17.62-.48-21.46H191c-1.68,28.18-9.46,28.18-9.46,28.18s2.6-7.68,3.32-28.18h-2.65V10.13H185c0-2.83.1-5.86.1-9.17h6.24c0,3.31-.05,6.38-.19,9.17h2.16a2.07,2.07,0,0,0-.05-.48h6.09s0,10.37-.33,30.05c-4.85.67-8.88.86-8.88.86Zm21.12,5.52v-1h-4v1h-5.08c-.53-20.11-.68-24.43-.68-24.43h6.1v.82h4v-.82h5.09c.48,20.07.63,24.43.63,24.43Zm0-3.4.29-17.81h-4L207.31,36Z"/><path class="cls-1" d="M236.06,25.54c.15-1.2.24-2.55.34-4.13H226.18V19.49h10.27V13.58H226.08V11.67h10.37V7.78h6.72v3.89h2.69l1.92-1.93,1.87,1.93v1.91h-6.48v5.91h2.74l1.92-1.92,1.92,1.92v1.92h-6.63c-.05,2-.19,3.74-.38,5.28,2,.48,3.89,1.06,5.47,1.54l-1.54,5.9c-1.72-.72-3.5-1.39-5.23-2-1.68,3.59-4.7,4.8-10,4.8-7.64,0-6.68-10.47-.15-11.33A21.37,21.37,0,0,1,236.06,25.54Zm-1,4.7a16.27,16.27,0,0,0-3.26-.53c-2.88,0-2.93,3.6,0,3.6C232.94,33.31,234.19,32.83,235.1,30.24Z"/><path class="cls-1" d="M279.41,16a66.78,66.78,0,0,1-13.68,1.83V11.14c10.89,0,21.94-.58,21.94-.58-6.77,9.6-15.41,18.39-3.94,26.31C266,36.87,270,22.75,279.41,16Zm11.42,4.9a10.66,10.66,0,0,0-2.44-3.17,4.19,4.19,0,0,1-.87,3.89,10.91,10.91,0,0,0-2.78-3.46L287,15.75a5.76,5.76,0,0,1,1.24,1.58l2.07-2.3A4,4,0,0,1,290.83,20.93Z"/><path class="cls-1" d="M321.55,25.11c-.38-5.19-5.42-8.55-11.9-5.67-4.9,2.21-5.47,10-2.21,10.37,2.4.29,4.56-3.5,5.38-9.6l6.09.77c-1.1,8.59-5.85,14.35-10.22,14.35-4.71,0-7.63-4.22-7.63-8.88A14.33,14.33,0,0,1,313.63,12.1c9.56-1.2,15.51,7,14.4,14.69-1.1,7.29-6,11-14.64,10.08C317.76,35.09,322,31.3,321.55,25.11Z"/><path class="cls-1" d="M345.26,18.48s-4.56,4.13-10.32-1.05l3.27-4.76A39.24,39.24,0,0,0,345.26,18.48Zm-.91,4s4.95,7.39-4.89,16.46l-4-4.75A43.39,43.39,0,0,0,344.35,22.47Zm2.26-12.63s-5.09,3.31-10.08-2.78l3.84-4.13A40.88,40.88,0,0,0,346.61,9.84Zm2.83,11.28h5.76c-1.3,19.4-10.27,19.06-10.27,19.06S349.44,34.47,349.44,21.12Zm3.84-13.49h-6.14V5.28H356c-.39-2.64-.48-4.37-.48-4.37h6.58s0,1.49-.24,4.37h4.75l1.92-1.92,1.92,1.92V7.63H359.09a17.22,17.22,0,0,1-4.37,6.15c2.31-.15,5.14-.34,8.4-.58-.33-.91-.72-1.87-1.05-2.88L365.67,9c2.4,4.89,4.56,9.79,4.56,9.79L366,20.4s-.48-1.1-1.15-2.83c-9.6,1.3-16.08,2-16.08,2l-1.25-5.43s1.15-.05,3.31-.19A32.75,32.75,0,0,0,353.28,7.63Zm7.3,14.6.53,15.64h-4.9s0-1.53.29-15.64Zm12.48,9.07s-.72,2.78-2.35,8c0,0-2.74,0-8-.34-.43-14.64-.58-17.81-.58-17.81h4.95s0,1.25-.19,11.86h.38c.34-1.92.58-3,.58-3Z"/><path class="cls-1" d="M406.66,34.08s-.72,2.79-5,2.79c-5.56,0-2.68-6.87-3.93-10.95-.77-2.45-3.27-3.17-5.67-2.4a28,28,0,0,0-5.57,2.5c0,3.5,0,7.2.1,10.85H382.9c-.29-2.45-.58-5.09-.82-7.73a27.5,27.5,0,0,0-3.17,3.12l-1.39-2.4a42.51,42.51,0,0,1,4.18-5.62c-.29-4-.53-7.73-.68-10.66h-3.84V11.67h3.75l-.15-3.89h6.72s-.14,1.44-.33,3.89h1.1l1.92-1.93,1.92,1.93v1.91h-5c-.14,1.69-.24,3.7-.33,6a16.14,16.14,0,0,1,5.8-2.93c6.77-1.49,10.61,3,10.85,7.92C403.78,31,401,34.85,406.66,34.08Z"/></svg>