<svg id="レイヤー_1" data-name="レイヤー 1" xmlns="http://www.w3.org/2000/svg" viewBox="0 0 181.96 64.29"><defs><style>.cls-1{fill:#c6a385;}</style></defs><path class="cls-1" d="M54.64,11.76s-.8,8.68-11.2,11.76H38.92C38.36,12.72,38.2,0,38.2,0h5.6s0,8.24-.2,17.92A17.69,17.69,0,0,0,54.64,11.76Z"/><path class="cls-1" d="M69,4.6h3.48a36.6,36.6,0,0,0,.84,7.28S69,12.16,69,4.6ZM81.56,7.52h4.68c0,16-14.32,16-14.32,16S81.56,18.44,81.56,7.52ZM74.32,4.6h3.52a38.34,38.34,0,0,0,.8,7.28S74.32,12.16,74.32,4.6Z"/><path class="cls-1" d="M97,23.52A25,25,0,0,0,110.16,4c-5.72.24-9.56.24-9.56.24V.2s7,0,15.4.28c0,7.08-1.8,12-4.28,15.36,2.28-.36,6.16-.12,10.56,3.76l-4,3.92a31.58,31.58,0,0,0-7.6-6.36A19.87,19.87,0,0,1,97,23.52Z"/><path class="cls-1" d="M137.08,6.72s-3.8-2.12-7-2.16l0-4.16C137.4.8,137.08,6.72,137.08,6.72ZM149.48,6s3.6,10.48-18.12,16.72l-1.24-5.44C145.64,13,149.48,6,149.48,6Z"/><path class="cls-1" d="M5,36.64V37H6.36c.08-.52.16-1.08.2-1.6H0v-2H6.72c0-.64,0-1.28,0-2h4.76c0,.68,0,1.32-.08,2h2.32l-.12-2h5.08l0,2h1.88a2,2,0,0,1,0-.48h4.2c.44,5.2.56,6.36.56,6.36H20.28l0-.36H18.56c0,.68,0,1.48,0,2.32h1.8a.82.82,0,0,0,0-.32h5.08s0,.64-.28,6.36c-1.68.16-3.16.28-4.2.36.32,6.92.44,11.52.44,11.52h-2.8A16.8,16.8,0,0,0,25,63.84,11.93,11.93,0,0,1,15,62l2.48-2.84H15.84v-.52H9.68v.52H8.28L10.76,62a11.93,11.93,0,0,1-10,1.8A16.8,16.8,0,0,0,7.28,59.2H5c-.28-4.84-.4-8.76-.48-11.16A9.81,9.81,0,0,1,.68,49.52a16.52,16.52,0,0,0,3.84-5.88h-4c-.4-5.76-.52-7-.52-7ZM5,39c0,.6,0,1.36-.08,2.32H5.4c.2-.72.44-1.52.6-2.32Zm2.52,6.52H10v.44h6.16v-.44h3.32V44.24H20.6l-.12-1h-2c0,.56,0,1.12,0,1.76H14.2c0-.64,0-1.2-.08-1.76H9A16.8,16.8,0,0,1,7.48,45.48Zm8.4,9.6H9.8c0,.52,0,1.08-.08,1.64h6.16Zm.08-3.6H9.88c0,.52,0,1.08,0,1.64h6.08C16,52.6,16,52.08,16,51.48Zm-6-10.2H14c0-.84,0-1.64-.08-2.32H10.64A17.57,17.57,0,0,1,9.92,41.28Zm6.16,6.6H9.92v1.64H16C16,49,16,48.44,16.08,47.88ZM11.08,37h2.8c0-.6,0-1.12,0-1.6H11.28C11.24,36,11.16,36.48,11.08,37Zm7.52,0h1.8c0-.44,0-1,.08-1.6H18.64C18.64,35.88,18.64,36.4,18.6,37Z"/><path class="cls-1" d="M33.44,32.44h5.2v.36H51.92v-.36h5s0,10.72-.28,31.12c-3.84.44-7,.56-7,.56V59.68s.88,0,2.72.12l-.12-7.24h-5c0,3.12-.12,6.56-.16,10.4H42.84c-.08-3.72-.16-7.24-.2-10.4H36.92c-2.44,11.2-6.64,12-5.88,11.68C31,64.24,33.44,58.44,33.44,32.44ZM37.28,50.6H42.6c-.08-2.56-.12-4.88-.16-6.92H38.2A68.13,68.13,0,0,1,37.28,50.6Zm1.08-8.88h4.08c-.08-3.16-.08-5.52-.12-7H38.64C38.6,37.28,38.52,39.6,38.36,41.72Zm8.88,8.88h5l-.12-6.92H47.32C47.28,45.68,47.28,48,47.24,50.6Zm.08-8.88H52c0-3-.08-5.36-.08-7h-4.6C47.36,36.16,47.36,38.48,47.32,41.72Z"/><path class="cls-1" d="M66.64,39.52l5.6.56c-3,12.6-.76,20.76-.76,20.76S63.92,59.52,66.64,39.52ZM89.36,53.2l.36,5.6s-2.16,1.52-10,1.52c-6.32,0-4.76-8.2-4.76-8.2s1,2.6,4.76,2.6C86.6,54.72,89.36,53.2,89.36,53.2Zm-13-11.88a76.11,76.11,0,0,1,12.24.88L88,46.6a66.37,66.37,0,0,0-11.6-.88Z"/><path class="cls-1" d="M99,51.32l-1.68-5.4c9.48-3.28,18.36-3,20.6,3.92,2.4,7.4-5.48,10.32-5.48,10.32C116.12,55.36,114,46.8,99,51.32Z"/><path class="cls-1" d="M138.32,59.88s-9.32.48-8-18.12l5.56.68C134.6,54.48,138.32,59.88,138.32,59.88Zm14.8-4.8L147.6,56a22.55,22.55,0,0,0-4.28-10.32S149.76,44.4,153.12,55.08Z"/><path class="cls-1" d="M182,39.6c-5.64,8-12.88,15.32-3.32,21.92-14.76,0-11.44-11.76-3.6-17.36a55.67,55.67,0,0,1-11.4,1.52v-5.6C172.76,40.08,182,39.6,182,39.6Z"/></svg>