<svg id="レイヤー_1" data-name="レイヤー 1" xmlns="http://www.w3.org/2000/svg" viewBox="0 0 273.47 71.47"><defs><style>.cls-1{fill:#c6a385;}</style></defs><path class="cls-1" d="M16.44,19s-.8,8.68-11.2,11.75H.72C.16,19.92,0,7.2,0,7.2H5.6s0,8.24-.2,17.92A17.69,17.69,0,0,0,16.44,19Z"/><path class="cls-1" d="M30.8,11.8h3.48a36.6,36.6,0,0,0,.84,7.28S30.8,19.36,30.8,11.8Zm12.56,2.92H48c0,16-14.32,16-14.32,16S43.36,25.64,43.36,14.72ZM36.12,11.8h3.52a38.34,38.34,0,0,0,.8,7.28S36.12,19.36,36.12,11.8Z"/><path class="cls-1" d="M58.76,30.71A24.94,24.94,0,0,0,72,11.24c-5.72.24-9.56.24-9.56.24V7.4s7,0,15.4.28c0,7.08-1.8,12-4.28,15.36,2.28-.36,6.16-.12,10.56,3.76l-4,3.91a31.74,31.74,0,0,0-7.6-6.35A19.89,19.89,0,0,1,58.76,30.71Z"/><path class="cls-1" d="M98.88,13.92s-3.8-2.12-7-2.16L92,7.6C99.2,8,98.88,13.92,98.88,13.92Zm12.4-.76s3.6,10.48-18.12,16.72l-1.24-5.44C107.44,20.16,111.28,13.16,111.28,13.16Z"/><path class="cls-1" d="M143.88,20.28a12.89,12.89,0,0,1-6.52-7h-4.72c-4.56,7-9.84,7-9.84,7a43.21,43.21,0,0,0,4.44-7h-3.76v-2h4.76c.36-.76.68-1.56,1-2.4-2.88.24-3.76.24-3.76.24l-.2-4.28s.32,0,2.12-.08A21.7,21.7,0,0,0,130.92,0l3.88,2.08a9.44,9.44,0,0,1-1.88,2.56c1.56-.08,3.4-.16,5.64-.24l-.68-1.16,3.84-1.84s.28.6,2.76,6.36l-3.12,1.52c-.28-.52-.52-1-.76-1.36-2.08.2-3.92.4-5.48.52a28.64,28.64,0,0,1-1.36,2.92h8.92l1.6-1.6,1.6,1.6v2h-6A61,61,0,0,0,146.36,16Zm-1.2,7.64c-9.72,8.63-18.16,4.35-18.16,4.35a31.53,31.53,0,0,0,15-7.23Zm-15.84-3.08a20.83,20.83,0,0,0,10.36-5.2l3.16,2.88C133,28.92,126.84,24.84,126.84,24.84Zm2-6.08a14.76,14.76,0,0,0,6.28-4.36l3.2,2.88C133.6,22.52,128.88,18.76,128.88,18.76Z"/><path class="cls-1" d="M158.44,28.19s1.12,0,3,.08c-.24-8.31-.32-14.67-.4-17.87H159.2c-1.4,23.47-7.88,23.47-7.88,23.47s2.16-6.39,2.76-23.47h-2.2v-2h2.28c0-2.36.08-4.88.08-7.64h5.2c0,2.76,0,5.32-.16,7.64h1.8a1.81,1.81,0,0,0,0-.4h5.08s0,8.64-.28,25c-4,.56-7.4.72-7.4.72Zm17.6,4.6v-.88h-3.32v.88h-4.24c-.44-16.75-.56-20.35-.56-20.35H173v.68h3.32v-.68h4.24c.4,16.71.52,20.35.52,20.35ZM176,30l.24-14.83H173L172.76,30Z"/><path class="cls-1" d="M196.72,21.28c.12-1,.2-2.12.28-3.44h-8.52v-1.6H197V11.32H188.4V9.72H197V6.48h5.6V9.72h2.24l1.6-1.6L208,9.72v1.6h-5.4v4.92h2.28l1.6-1.6,1.6,1.6v1.6H202.6c0,1.64-.16,3.12-.32,4.4,1.68.4,3.24.88,4.56,1.28l-1.28,4.92c-1.44-.61-2.92-1.16-4.36-1.68-1.4,3-3.92,4-8.32,4-6.36,0-5.56-8.71-.12-9.43A18.56,18.56,0,0,1,196.72,21.28Zm-.8,3.92a13.21,13.21,0,0,0-2.72-.44c-2.4,0-2.44,3,0,3C194.12,27.76,195.16,27.35,195.92,25.2Z"/><path class="cls-1" d="M232.84,13.36a55.67,55.67,0,0,1-11.4,1.52V9.28c9.08,0,18.28-.48,18.28-.48-5.64,8-12.84,15.32-3.28,21.91C221.68,30.71,225,19,232.84,13.36Zm9.52,4.08a9,9,0,0,0-2-2.64A3.49,3.49,0,0,1,239.6,18a9.15,9.15,0,0,0-2.32-2.88l1.84-2a5,5,0,0,1,1,1.32l1.72-1.92A3.37,3.37,0,0,1,242.36,17.44Z"/><path class="cls-1" d="M268,20.92c-.32-4.32-4.52-7.12-9.92-4.72-4.08,1.84-4.56,8.32-1.84,8.64,2,.24,3.8-2.92,4.48-8l5.08.64c-.92,7.16-4.88,12-8.52,12-3.92,0-6.36-3.52-6.36-7.4a12,12,0,0,1,10.48-12c8-1,12.92,5.8,12,12.24-.92,6.08-5,9.19-12.2,8.39C264.8,29.23,268.36,26.08,268,20.92Z"/><path class="cls-1" d="M111.72,53.4s-3.8,3.44-8.6-.88l2.72-4A32.79,32.79,0,0,0,111.72,53.4ZM111,56.72s4.12,6.16-4.08,13.71l-3.36-4A36.23,36.23,0,0,0,111,56.72Zm1.88-10.52s-4.24,2.76-8.4-2.32l3.2-3.44A34.12,34.12,0,0,0,112.84,46.2Zm2.36,9.4H120c-1.08,16.15-8.56,15.87-8.56,15.87S115.2,66.71,115.2,55.6Zm3.2-11.24h-5.12v-2h7.36c-.32-2.2-.4-3.64-.4-3.64h5.48s0,1.24-.2,3.64h4l1.6-1.6,1.6,1.6v2h-9.44a14.29,14.29,0,0,1-3.64,5.12c1.92-.12,4.28-.28,7-.48-.28-.76-.6-1.56-.88-2.4l3-1.12c2,4.08,3.8,8.16,3.8,8.16L129,55s-.4-.92-1-2.36c-8,1.08-13.4,1.68-13.4,1.68l-1-4.52s1,0,2.76-.16A27.54,27.54,0,0,0,118.4,44.36Zm6.08,12.16.44,13h-4.08s0-1.28.24-13Zm10.4,7.56s-.6,2.32-2,6.63c0,0-2.28,0-6.68-.28-.36-12.19-.48-14.83-.48-14.83h4.12s0,1-.16,9.88H130c.28-1.6.48-2.52.48-2.52Z"/><path class="cls-1" d="M162.88,66.4s-.6,2.31-4.12,2.31c-4.64,0-2.24-5.71-3.28-9.11-.64-2-2.72-2.64-4.72-2a23.12,23.12,0,0,0-4.64,2.08c0,2.92,0,6,.08,9h-3.12c-.24-2-.48-4.23-.68-6.43a23.18,23.18,0,0,0-2.64,2.6l-1.16-2a35.18,35.18,0,0,1,3.48-4.68c-.24-3.32-.44-6.44-.56-8.88h-3.2v-1.6h3.12l-.12-3.24h5.6s-.12,1.2-.28,3.24h.92l1.6-1.6,1.6,1.6v1.6h-4.2c-.12,1.4-.2,3.08-.28,5a13.48,13.48,0,0,1,4.84-2.44c5.64-1.24,8.84,2.48,9,6.6C160.48,63.84,158.12,67,162.88,66.4Z"/></svg>