<svg id="レイヤー_1" data-name="レイヤー 1" xmlns="http://www.w3.org/2000/svg" viewBox="0 0 378.91 39.38"><defs><style>.cls-1{fill:#c6a385;}</style></defs><path class="cls-1" d="M19.73,21.94s-1,10.41-13.44,14.11H.86C.19,23.09,0,7.82,0,7.82H6.72s0,9.89-.24,21.51A21.2,21.2,0,0,0,19.73,21.94Z"/><path class="cls-1" d="M35,13.34h4.18a44.27,44.27,0,0,0,1,8.74S35,22.42,35,13.34Zm15.07,3.51h5.62c0,19.2-17.19,19.2-17.19,19.2S50.11,30,50.11,16.85Zm-8.69-3.51h4.23a46,46,0,0,0,1,8.74S41.42,22.42,41.42,13.34Z"/><path class="cls-1" d="M67.63,36.05A30,30,0,0,0,83.47,12.67C76.61,13,72,13,72,13V8.06s8.45,0,18.48.34c0,8.5-2.16,14.35-5.14,18.43,2.74-.43,7.4-.14,12.68,4.52l-4.85,4.7c-2.64-3.36-7-6.29-9.12-7.63A23.86,23.86,0,0,1,67.63,36.05Z"/><path class="cls-1" d="M113.86,15.89s-4.56-2.55-8.36-2.59l0-5C114.24,8.78,113.86,15.89,113.86,15.89ZM128.74,15S133.06,27.55,107,35l-1.49-6.53C124.13,23.38,128.74,15,128.74,15Z"/><path class="cls-1" d="M151.25,6.19v.43h1.58c.1-.62.19-1.29.24-1.92H145.2V2.35h8.06c.05-.77.05-1.53.05-2.35H159c0,.82,0,1.58-.09,2.35h2.78L161.57,0h6.1l0,2.35h2.25a2.2,2.2,0,0,1,0-.57h5c.53,6.24.67,7.63.67,7.63h-6.09l.05-.43h-2.12c0,.81,0,1.77,0,2.78h2.16a.9.9,0,0,0-.05-.38h6.09s0,.76-.33,7.63c-2,.19-3.79.34-5,.43.38,8.31.53,13.83.53,13.83h-3.36a20.11,20.11,0,0,0,7.82,5.56s-6.48,2-12-2.16l3-3.4h-2v-.63h-7.39v.63h-1.68l3,3.4c-5.52,4.18-12,2.16-12,2.16a20.1,20.1,0,0,0,7.83-5.56h-2.69c-.34-5.81-.48-10.52-.58-13.4A11.67,11.67,0,0,1,146,21.65a19.81,19.81,0,0,0,4.6-7.06h-4.8c-.48-6.91-.62-8.4-.62-8.4ZM151.15,9c-.05.72-.05,1.63-.09,2.78h.62c.24-.86.53-1.82.72-2.78Zm3,7.82h3v.53h7.39V16.8h4V15.31h1.39l-.14-1.2h-2.4c0,.68,0,1.35,0,2.11h-5.09c-.05-.76-.05-1.43-.09-2.11H156A21,21,0,0,1,154.18,16.8Zm10.08,11.52H157c-.05.63-.05,1.3-.1,2h7.4Zm.09-4.32h-7.29c-.05.62-.05,1.3-.05,2h7.3C164.35,25.35,164.35,24.72,164.35,24ZM157.1,11.76h5c0-1-.05-2-.1-2.78h-4A20.62,20.62,0,0,1,157.1,11.76Zm7.4,7.92h-7.4v2h7.3C164.45,21,164.45,20.35,164.5,19.68Zm-6-13.06h3.36c0-.72-.05-1.34-.05-1.92h-3.07C158.69,5.38,158.59,6,158.5,6.62Zm9,0h2.16c0-.52,0-1.2.1-1.92h-2.21C167.57,5.28,167.57,5.9,167.52,6.62Z"/><path class="cls-1" d="M190.13,1.15h6.24v.43h15.94V1.15h6s0,12.87-.33,37.35c-4.61.53-8.45.67-8.45.67V33.84s1.06,0,3.26.15l-.14-8.69h-6c-.05,3.74-.15,7.87-.19,12.48h-5.09c-.1-4.47-.19-8.69-.24-12.48H194.3c-2.92,13.44-8,14.4-7.05,14C187.25,39.31,190.13,32.35,190.13,1.15ZM194.74,23h6.38c-.1-3.08-.14-5.86-.19-8.31h-5.09A82.94,82.94,0,0,1,194.74,23ZM196,12.29h4.9c-.1-3.79-.1-6.63-.15-8.35h-4.41C196.32,7,196.22,9.74,196,12.29ZM206.69,23h5.95l-.14-8.31h-5.71C206.74,17,206.74,19.83,206.69,23Zm.1-10.66h5.66c0-3.6-.1-6.43-.1-8.35h-5.52C206.83,5.62,206.83,8.4,206.79,12.29Z"/><path class="cls-1" d="M236.69,9.65l6.72.67c-3.55,15.12-.91,24.91-.91,24.91S233.42,33.65,236.69,9.65ZM264,26.07l.44,6.72s-2.6,1.82-12,1.82c-7.59,0-5.72-9.84-5.72-9.84s1.25,3.12,5.72,3.12C260.64,27.89,264,26.07,264,26.07Zm-15.6-14.26A90.92,90.92,0,0,1,263,12.87l-.77,5.27a80,80,0,0,0-13.92-1.05Z"/><path class="cls-1" d="M275.47,23.81l-2-6.48c11.37-3.94,22-3.6,24.72,4.7,2.88,8.88-6.58,12.39-6.58,12.39C296.07,28.66,293.57,18.38,275.47,23.81Z"/><path class="cls-1" d="M322.7,34.08s-11.18.58-9.55-21.74l6.67.81C318.24,27.6,322.7,34.08,322.7,34.08Zm17.77-5.76-6.63,1.11A27.05,27.05,0,0,0,328.71,17S336.43,15.5,340.47,28.32Z"/><path class="cls-1" d="M378.91,9.74c-6.76,9.61-15.45,18.39-4,26.31-17.71,0-13.73-14.11-4.32-20.83A67.26,67.26,0,0,1,356.93,17V10.32C367.87,10.32,378.91,9.74,378.91,9.74Z"/></svg>