<svg xmlns="http://www.w3.org/2000/svg" viewBox="0 0 508.8 43.2"><defs><style>.cls-1{fill:#f0908a;}</style></defs><g id="レイヤー_2" data-name="レイヤー 2"><g id="見出し"><path class="cls-1" d="M13.11,6.24s-3.41,0-7.69-.19c-.19,9-.57,27.46-.57,36.48l-3.51.24C.14,29.38,0,.43,0,.43,7.39,0,13.11,0,13.11,0Z"/><path class="cls-1" d="M17.47,41.33S20,32.88,19.53,11.18h6.1v.63H27v-.63h6.05s0,2.07-.33,29.29c-4.61.53-8.45.67-8.45.67V35.86s1.05,0,3.26.1l-.14-6.44H24C21.6,40.23,17.47,41.33,17.47,41.33Zm7-14.16h2.93c0-2-.05-3.74-.1-5.33H25.15Q24.87,24.8,24.43,27.17Zm.91-7.68h1.88c0-2.35-.1-4.08-.15-5.33H25.58C25.54,16.08,25.49,17.86,25.34,19.49ZM38.4,14.93a26.83,26.83,0,0,0-4.27-7.54s5-1.29,9.26,5.43Zm13.06,2.54h5.61s0,2.4-.33,24.87H52.13c0-.53-.05-1.06-.05-1.58H39.74c0,.52,0,1.05,0,1.58H35.09c-.48-20.45-.63-24.87-.63-24.87H40s0,2.12-.29,20.93H52C51.6,21.31,51.46,17.47,51.46,17.47Zm0,1.16a36.79,36.79,0,0,1-2.93,7.1,21.62,21.62,0,0,1,2.93,3.46l-3.79,2.69a24.77,24.77,0,0,0-1.49-2.64c-3.27,4.12-6.34,5-6.34,5a39.61,39.61,0,0,0,4.37-7.73A32.83,32.83,0,0,0,40.13,22a10.64,10.64,0,0,1,5.33,1.53,57.32,57.32,0,0,0,2.3-8Zm-1.83-7L44.5,13.39a26.41,26.41,0,0,0-3.75-7.77S45.84,4.61,49.63,11.62Zm3.7-7.4,5.28,1.4c-2.83,8.3-10.08,8.45-10.08,8.45A23.62,23.62,0,0,0,53.33,4.22Z"/><path class="cls-1" d="M76.22,39.22H70.85c-.67-13-.87-29.09-.87-29.09H76.7S76.7,25,76.22,39.22Zm10.23-9.65c-8.5,0-8.93-8.83-8.93-8.83a17.74,17.74,0,0,0,8.93,2.11Z"/><path class="cls-1" d="M117.07,25.11s-1,10.41-13.44,14.11H98.21c-.67-13-.87-28.23-.87-28.23h6.72s0,9.89-.24,21.51A21.2,21.2,0,0,0,117.07,25.11Z"/><path class="cls-1" d="M137.57,42.77c-7.4.43-13.11.43-13.11.43V37s3.41,0,7.68.15c.19-9,.58-27.46.58-36.49l3.5-.24C137.42,13.87,137.57,42.77,137.57,42.77Z"/><path class="cls-1" d="M156.72,34.42s1.68-3,2.74-10.18h-2.74V17.52h3.36c.14-2.06.14-4.27.14-6.77l6.72,1a49.66,49.66,0,0,1-.38,6.29c8.11,2.69,10.66,15.75.05,21.22C169.15,34,170,27.51,165,25.15,162.05,33.6,156.72,34.42,156.72,34.42Zm15.89-16.27,3.21-5.91c9.08,6.58,5.38,14.45,5.38,14.45S179.28,21.46,172.61,18.15Zm5.47-6.73L180.29,9a6,6,0,0,1,1.25,1.58l2.06-2.3a4,4,0,0,1,.58,5.9A11,11,0,0,0,181.73,11a4.19,4.19,0,0,1-.87,3.89A10.91,10.91,0,0,0,178.08,11.42Z"/><path class="cls-1" d="M192.86,21.36a26.22,26.22,0,0,0,5.76-9.6l5,2.69C198.91,23.52,192.86,21.36,192.86,21.36ZM193.53,11V8.69h7.06c-.38-3.22-.48-5.38-.48-5.38h6.53s0,1.87-.24,5.38h3.46l1.92-1.92,1.92,1.92V11Zm14.36,18.77A32.44,32.44,0,0,1,212,35l-3.7,3.36c-1-1.63-2-3.16-3-4.61-5.37,6.73-11.18,5.72-11.18,5.72a38,38,0,0,0,7.78-10,58.6,58.6,0,0,0-4.57-4.8s2.5-.52,6.15,1.59a37.29,37.29,0,0,0,2.11-6l5.19,2.25A42.2,42.2,0,0,1,207.89,29.81Zm22-14.69s0,8.31-.33,24.1c-4.42.67-8.07.86-8.07.86V33.36s1,0,2.79.1c-.2-6.87-.34-12.24-.39-15.31h-1.29C221,40.47,213.7,42.44,213.7,42.44s2.16-7.88,2.78-24.29h-1.63c.09.14.19.33.29.52l-4,2.93a28.56,28.56,0,0,0-4.22-8.11,8.76,8.76,0,0,1,7.58,4V15.79h2.07c.09-2.11.09-4.27.09-6.62h6.24c0,2.35,0,4.56-.14,6.62h1.1v-.67Z"/><path class="cls-1" d="M268.66,41.43c-8.31-4.76-9.12-11.43-9.22-12.72h-1.2c-.05,4-.1,8.54-.19,13.58h-5.52c-.1-3.12-.15-6-.24-8.83a16.57,16.57,0,0,1-13.54,8,33.43,33.43,0,0,0,9.07-12.72h-9.07V26.35h13.39c0-1.29,0-2.59,0-3.79h-4.61V23h-5.57c-.48-11-.63-18.48-.63-18.48h6.53v.53h14.55V4.56h5.57c.53,11,.67,18.48.67,18.48H262v-.48h-3.74v3.79h9.41l1.92-1.92,1.92,1.92v2.36H259.68a56.72,56.72,0,0,0,12.24,8.64ZM252.05,20.21C252,18.29,252,16.56,252,15h-4.27c0,1.53-.05,3.31-.1,5.18Zm-4.32-7.54H252c0-2.4,0-4.17-.09-5.23h-4C247.82,8.74,247.78,10.51,247.73,12.67Zm10.61,7.54h3.74c0-1.3,0-3,.05-5.18h-3.75C258.34,16.56,258.34,18.29,258.34,20.21Zm0-7.54h3.8l.14-5.23h-3.94Z"/><path class="cls-1" d="M279,13.87h6v.82h3.84a4.52,4.52,0,0,1,.05-.82h5c.53,13.92.67,23.48.67,23.48h-6.09v-.72h-3.8a4.06,4.06,0,0,0,0,.72H279.6C279.12,23.38,279,13.87,279,13.87Zm6.29-8.69L290,6.58c-1.64,7.87-7.93,6.53-7.93,6.53A23.63,23.63,0,0,0,285.26,5.18Zm-.48,29.1h3.79c0-1.78.05-4.23.1-7.45h-3.79C284.88,29,284.83,31.49,284.78,34.28Zm.15-9.8h3.74l.14-7.44H285C285,18.82,285,21.31,284.93,24.48ZM315.55,8.54s0,3.17-.33,32.79c-6.77.63-12.39.77-12.39.77V36s2.35,0,7.2.2c-.24-13.78-.38-21.08-.48-24.63h-5.66c-3.55,6.72-8.45,7-8.45,7S298.7,12.77,299.9,3l6.63.68A32.89,32.89,0,0,1,305,9.22h4.51V8.54Zm-13,21.51a20.51,20.51,0,0,0-4.08-8.16s7.44-1.54,9.65,6.62Z"/><path class="cls-1" d="M325.44,27.55s2.35-3.36,3.17-11.61H326V14h2.78c.05-1.2.1-2.5.1-3.89h6.72a33.9,33.9,0,0,1-.19,3.89h4.94l1.92-1.92L344.16,14v1.92h-9.07C333.07,26.93,325.44,27.55,325.44,27.55ZM346,20.35a67.18,67.18,0,0,1-.38,8.6c1.44.38,2.69.72,3.55,1l-1.53,5.91c-1-.48-2.12-1-3.32-1.49-1.39,3.07-3.88,4.85-8.45,4.85-7.63,0-6.62-10.71-.09-11.33a17.73,17.73,0,0,1,3.26,0c.15-2,.24-4.51.24-7.54Zm-7.53,12.1a11.76,11.76,0,0,0-2.45-.38,1.78,1.78,0,0,0,0,3.55C337.06,35.62,337.87,34.9,338.45,32.45Zm7.92-14.21,4.8-4.75c5.95,6,0,12.58,0,12.58A17.56,17.56,0,0,0,346.37,18.24Z"/><path class="cls-1" d="M367.25,16.75c8.64.48,8.3,7.54,8.3,7.54s-4.56-2.5-8.4-2.54ZM392,18.15s4.37,12.57-21.75,20.06l-1.49-6.53C387.46,26.55,392,18.15,392,18.15Zm-11.48.91s-4.56-2.55-8.4-2.59l.1-5C380.88,12,380.54,19.06,380.54,19.06Zm8.31-2.35a9.94,9.94,0,0,0-2.5-3.17,4.24,4.24,0,0,1-.81,3.89A11.21,11.21,0,0,0,382.7,14l2.21-2.5a5.9,5.9,0,0,1,1.25,1.64l2.06-2.36A4.12,4.12,0,0,1,388.85,16.71Z"/><path class="cls-1" d="M408.58,21.31l4.36-.62c-.43-2.93-.67-4.8-.67-4.8l5.62-.62s.24,1.82.53,4.75c3-.39,6.62-.77,10.56-1.2.81,8.59-5.86,10.27-5.86,10.27a21.06,21.06,0,0,0,1-4.85l-5.19,1c.44,3.94.87,8.69,1.25,13.54l-4.56.48c-.67-4.37-1.39-9.07-2-13.11-2.73.53-4.32.77-4.32.77Z"/><path class="cls-1" d="M451.2,19.06s-4.56-2.55-8.35-2.59l0-5C451.58,12,451.2,19.06,451.2,19.06Zm14.88-.91s4.32,12.57-21.75,20.06l-1.48-6.53C461.47,26.55,466.08,18.15,466.08,18.15Z"/><path class="cls-1" d="M483.17,18h6.72c0,21.27-10.56,21.27-10.56,21.27S483.17,34.51,483.17,18Zm16.17,14.5c5.09-.77,9.46-4.7,9.46-4.7s-.38,9.93-9.6,11.47h-5.42c-.68-13-.87-28.23-.87-28.23h6.72S499.63,20.88,499.34,32.45Z"/></g></g></svg>