<svg id="レイヤー_1" data-name="レイヤー 1" xmlns="http://www.w3.org/2000/svg" viewBox="0 0 263.27 73.35"><defs><style>.cls-1{fill:#f0908a;}</style></defs><path class="cls-1" d="M63.4,5.2S60.56,5.16,57,5c-.16,7.48-.48,22.88-.48,30.39l-2.92.2C52.6,24.48,52.48.36,52.48.36,58.64,0,63.4,0,63.4,0ZM67,34.43s2.12-7,1.72-25.11h5.08v.52H75V9.32h5s0,1.72-.28,24.39c-3.84.44-7,.56-7,.56V29.88s.88,0,2.72.08l-.12-5.36H72.48C70.48,33.51,67,34.43,67,34.43Zm5.8-11.79h2.44c0-1.68,0-3.12-.08-4.44H73.44Q73.2,20.66,72.84,22.64Zm.76-6.4h1.56c0-2-.08-3.4-.12-4.44H73.8C73.76,13.4,73.72,14.88,73.6,16.24Zm10.88-3.8a22.35,22.35,0,0,0-3.56-6.28s4.16-1.08,7.72,4.52Zm10.88,2.12H100s0,2-.28,20.71H95.92c0-.44,0-.88,0-1.32H85.6c0,.44,0,.88,0,1.32H81.72c-.4-17-.52-20.71-.52-20.71h4.64s0,1.76-.24,17.43H95.84C95.48,17.76,95.36,14.56,95.36,14.56Zm0,1a30.08,30.08,0,0,1-2.44,5.92,18.35,18.35,0,0,1,2.44,2.88L92.2,26.56A19.53,19.53,0,0,0,91,24.36c-2.72,3.44-5.28,4.16-5.28,4.16a33.15,33.15,0,0,0,3.64-6.44,28,28,0,0,0-3.4-3.76,8.9,8.9,0,0,1,4.44,1.28,47.9,47.9,0,0,0,1.92-6.68ZM93.84,9.68l-4.28,1.48a21.92,21.92,0,0,0-3.12-6.48S90.68,3.84,93.84,9.68Zm3.08-6.16,4.39,1.16c-2.35,6.92-8.39,7-8.39,7A19.66,19.66,0,0,0,96.92,3.52ZM116,32.67h-4.48c-.56-10.79-.72-24.23-.72-24.23h5.6S116.4,20.8,116,32.67Zm8.52-8c-7.08,0-7.44-7.36-7.44-7.36A14.78,14.78,0,0,0,124.52,19ZM150,20.92s-.8,8.68-11.2,11.75h-4.52c-.56-10.79-.72-23.51-.72-23.51h5.6s0,8.24-.2,17.92A17.69,17.69,0,0,0,150,20.92Zm17.08,14.71C161,36,156.2,36,156.2,36V30.83s2.84,0,6.4.13c.16-7.48.48-22.88.48-30.4L166,.36C167,11.56,167.12,35.63,167.12,35.63Zm16-7s1.4-2.52,2.28-8.48h-2.28V14.6h2.8C186,12.88,186,11,186,9l5.6.8a41.4,41.4,0,0,1-.32,5.24c6.76,2.24,8.88,13.12,0,17.67,2.12-4.35,2.8-9.75-1.32-11.71C187.52,28,183.08,28.68,183.08,28.68Zm13.24-13.56L199,10.2c7.56,5.48,4.48,12,4.48,12A14.54,14.54,0,0,0,196.32,15.12Zm4.56-5.6,1.84-2a5,5,0,0,1,1,1.32l1.72-1.92A3.37,3.37,0,0,1,206,11.8a9,9,0,0,0-2-2.64,3.49,3.49,0,0,1-.72,3.24A9.15,9.15,0,0,0,200.88,9.52ZM0,55.8a21.84,21.84,0,0,0,4.8-8L9,50C5,57.6,0,55.8,0,55.8Zm.56-8.6v-2H6.44c-.32-2.68-.4-4.48-.4-4.48h5.44s0,1.56-.2,4.48h2.88l1.6-1.6,1.6,1.6v2Zm12,15.64A26.3,26.3,0,0,1,16,67.2L12.88,70c-.8-1.36-1.64-2.64-2.48-3.83-4.48,5.59-9.32,4.75-9.32,4.75a31.44,31.44,0,0,0,6.48-8.35,47.71,47.71,0,0,0-3.8-4s2.08-.44,5.12,1.32a31.78,31.78,0,0,0,1.76-5L15,56.76A34.25,34.25,0,0,1,12.52,62.84ZM30.83,50.6s0,6.92-.27,20.07c-3.68.56-6.72.72-6.72.72V65.8s.84,0,2.32.08c-.16-5.72-.28-10.2-.32-12.76H24.76c-1.32,18.59-7.4,20.23-7.4,20.23s1.8-6.55,2.32-20.23H18.32a4.36,4.36,0,0,1,.24.44L15.2,56a23.8,23.8,0,0,0-3.52-6.76A7.3,7.3,0,0,1,18,52.6V51.16h1.72c.08-1.76.08-3.56.08-5.52H25q0,2.94-.12,5.52h.92V50.6ZM63.16,72.51c-6.92-4-7.6-9.51-7.68-10.59h-1c0,3.36-.08,7.11-.16,11.31h-4.6c-.08-2.6-.12-5-.2-7.35a13.81,13.81,0,0,1-11.28,6.63A27.7,27.7,0,0,0,45.8,61.92H38.24V60H49.4c0-1.08,0-2.16,0-3.16H45.52v.4H40.88c-.4-9.16-.52-15.4-.52-15.4H45.8v.44H57.92V41.8h4.64c.44,9.16.56,15.4.56,15.4H57.64v-.4H54.52V60h7.84l1.6-1.6,1.6,1.6v2H55.68a46.76,46.76,0,0,0,10.2,7.19ZM49.32,54.84c0-1.6,0-3-.08-4.32H45.68c0,1.28,0,2.76-.08,4.32Zm-3.6-6.28h3.52c0-2,0-3.48-.08-4.36H45.8C45.8,45.28,45.76,46.76,45.72,48.56Zm8.84,6.28h3.12c0-1.08,0-2.52,0-4.32H54.6C54.56,51.8,54.56,53.24,54.56,54.84Zm0-6.28h3.16l.12-4.36H54.6Zm17.16,1h5v.68H80a3.88,3.88,0,0,1,0-.68h4.2c.44,11.6.56,19.55.56,19.55H79.72v-.59H76.56a2.74,2.74,0,0,0,0,.59H72.28C71.88,57.48,71.76,49.56,71.76,49.56ZM77,42.32l4,1.16c-1.36,6.56-6.6,5.44-6.6,5.44A19.78,19.78,0,0,0,77,42.32Zm-.4,24.24h3.16c0-1.48,0-3.52.08-6.2H76.68C76.68,62.2,76.64,64.24,76.6,66.56Zm.12-8.16h3.12L80,52.2H76.8C76.8,53.68,76.76,55.76,76.72,58.4Zm25.51-13.28s0,2.64-.27,27.31c-5.64.52-10.32.64-10.32.64V68s2,0,6,.15c-.2-11.47-.32-17.55-.4-20.51H92.52c-3,5.6-7,5.84-7,5.84a38.17,38.17,0,0,0,3.72-13l5.52.56a27.88,27.88,0,0,1-1.28,4.6H97.2v-.56ZM91.44,63a17,17,0,0,0-3.4-6.8s6.2-1.28,8,5.52Zm19-2.08s2-2.8,2.64-9.68h-2.2v-1.6h2.32c0-1,.08-2.08.08-3.24h5.6a27.45,27.45,0,0,1-.16,3.24h4.12l1.6-1.6,1.6,1.6v1.6h-7.56C116.84,60.44,110.48,61,110.48,61Zm17.12-6a56.42,56.42,0,0,1-.32,7.16c1.2.32,2.24.6,3,.84L129,67.88c-.8-.4-1.76-.84-2.76-1.24-1.16,2.55-3.24,4-7,4-6.36,0-5.52-8.91-.08-9.43a15.43,15.43,0,0,1,2.72,0c.12-1.68.2-3.76.2-6.28ZM121.32,65a9.85,9.85,0,0,0-2-.32,1.48,1.48,0,0,0,0,3C120.16,67.68,120.84,67.08,121.32,65Zm6.6-11.84,4-4c5,5,0,10.48,0,10.48A14.56,14.56,0,0,0,127.92,53.2ZM145.32,52c7.2.4,6.92,6.28,6.92,6.28s-3.8-2.08-7-2.12ZM166,53.12s3.64,10.48-18.12,16.71L146.6,64.4C162.16,60.12,166,53.12,166,53.12Zm-9.56.76s-3.8-2.12-7-2.16l.08-4.16C156.68,48,156.4,53.88,156.4,53.88Zm6.92-2a8.31,8.31,0,0,0-2.08-2.64,3.53,3.53,0,0,1-.68,3.24,9.26,9.26,0,0,0-2.36-2.88L160,47.56a4.93,4.93,0,0,1,1,1.36l1.72-2A3.43,3.43,0,0,1,163.32,51.92Zm16.44,3.84,3.64-.52c-.36-2.44-.56-4-.56-4l4.68-.52s.2,1.52.44,4c2.52-.32,5.52-.64,8.8-1,.68,7.16-4.88,8.56-4.88,8.56a17.5,17.5,0,0,0,.84-4l-4.32.8c.36,3.28.72,7.24,1,11.27l-3.8.4c-.56-3.63-1.16-7.55-1.64-10.91-2.28.44-3.6.64-3.6.64Zm35.52-1.88s-3.8-2.12-7-2.16l0-4.16C215.6,48,215.28,53.88,215.28,53.88Zm12.4-.76s3.59,10.48-18.12,16.71l-1.24-5.43C223.84,60.12,227.68,53.12,227.68,53.12ZM241.92,53h5.6c0,17.71-8.8,17.71-8.8,17.71S241.92,66.76,241.92,53ZM255.4,65a17.5,17.5,0,0,0,7.87-3.92s-.31,8.28-8,9.55h-4.52c-.56-10.79-.72-23.51-.72-23.51h5.6S255.64,55.4,255.4,65Z"/></svg>