<svg id="レイヤー_1" data-name="レイヤー 1" xmlns="http://www.w3.org/2000/svg" viewBox="0 0 161.5 65.04"><path d="M41.15,12.18C43.36,5.94,49.2,2.93,55.59,3c5.78.11,13.14,3,14.11,9.46.59,4-.35,9.42,4.26,11.41l-.69-1.7a63.94,63.94,0,0,1-2,6.81,24.64,24.64,0,0,1-1.24,2.89,11.5,11.5,0,0,0-.71,1.28c-.27.31-.27.38,0,.2l-.07,0c-1.12.57-2.66.48-3.87.81a3.36,3.36,0,0,0-2.59,3.1c-.28,2.09.7,4.11,1.73,5.86,1.19,2,2.39,4,3.41,6.16A27.85,27.85,0,0,1,71,62.92l1.5-1.5c-12.09.16-24.19-.14-36.27.62l1.5,1.5a18.79,18.79,0,0,1,3-11.24c2-3.31,4.83-6.13,6.38-9.75a9.54,9.54,0,0,0-.55-9.15c-1.8-2.93-4.16-5.35-5.29-8.67a19.68,19.68,0,0,1-.1-12.55c.61-1.84-2.28-2.63-2.89-.8a22.68,22.68,0,0,0-.66,11.27,23.85,23.85,0,0,0,4.7,9.91c1.88,2.54,3.42,4.82,2.34,8.06-1.27,3.78-4.32,6.68-6.41,10a21.61,21.61,0,0,0-3.48,12.93,1.52,1.52,0,0,0,1.5,1.5c12.08-.76,24.18-.46,36.27-.62a1.52,1.52,0,0,0,1.5-1.5,29.16,29.16,0,0,0-2.59-13.06,55.06,55.06,0,0,0-3.2-6.32c-.94-1.63-2.75-3.78-2.46-5.8a1.53,1.53,0,0,1,.13-.51c-.22.08-.24.08-.06,0a3.67,3.67,0,0,0,.57-.14c.68-.16,1.37-.26,2-.39,1.23-.23,2.44-.44,3.18-1.54,2.41-3.55,3.53-8,4.52-12.14a1.52,1.52,0,0,0-.69-1.69c-2-.86-2.46-3-2.57-4.95a24.05,24.05,0,0,0-.69-6.21,13.67,13.67,0,0,0-6.5-7.49C59.7-.69,51.46-1,45.42,2.46a16.33,16.33,0,0,0-7.16,8.92C37.61,13.2,40.51,14,41.15,12.18Z"/><path d="M123.24,11.38c-2.48-7-8.62-11-15.93-11.32-6.61-.3-14.64,2.4-17.53,8.86a16.83,16.83,0,0,0-1.14,6.52c-.07,2.22-.29,4.88-2.61,5.88A1.51,1.51,0,0,0,85.34,23c1,4.07,2.09,8.45,4.43,12,.78,1.2,1.93,1.44,3.28,1.69.68.13,1.37.23,2,.39a4,4,0,0,0,.57.14c.18.09.16.09-.06,0a1.33,1.33,0,0,1,.13.51c.3,2-1.51,4.17-2.46,5.8a55.8,55.8,0,0,0-3.11,6.12,29.49,29.49,0,0,0-2.68,13.26,1.53,1.53,0,0,0,1.5,1.5c12.09.16,24.2-.14,36.27.62a1.52,1.52,0,0,0,1.5-1.5,21.23,21.23,0,0,0-2.61-11.46c-1.88-3.47-4.75-6.28-6.55-9.79a7.8,7.8,0,0,1-1.07-4.93,9.79,9.79,0,0,1,1.9-3.73c2.14-3,4.16-5.81,5.13-9.43a22.47,22.47,0,0,0-.31-12.82c-.6-1.83-3.5-1-2.89.8a19.63,19.63,0,0,1,.36,11c-.92,3.56-3,6.22-5.06,9.16-1.85,2.63-2.74,5.51-1.79,8.68,1.12,3.76,3.8,6.7,6,9.85a19.56,19.56,0,0,1,3.88,12.64l1.5-1.5c-12.07-.76-24.18-.46-36.27-.62l1.5,1.5a28,28,0,0,1,3.09-13.56c1-2.13,2.21-4.14,3.4-6.16,1-1.75,2-3.77,1.73-5.86a3.36,3.36,0,0,0-2.59-3.1c-1.21-.33-2.74-.24-3.87-.81l-.07,0c.27.18.26.11,0-.2a13.38,13.38,0,0,0-.71-1.28A24.7,24.7,0,0,1,90.21,29a63.94,63.94,0,0,1-2-6.81l-.69,1.7c3.8-1.64,4-6.11,4.14-9.65a9.92,9.92,0,0,1,4-7.95A18.29,18.29,0,0,1,113.74,4.6a13.22,13.22,0,0,1,6.61,7.58C121,14,123.89,13.2,123.24,11.38Z"/><path d="M10.57,24.21l12,5.12,1.69.72a1.55,1.55,0,0,0,2.05-.54,1.51,1.51,0,0,0-.54-2.05l-12-5.12-1.69-.72a1.56,1.56,0,0,0-2.06.53,1.52,1.52,0,0,0,.54,2.06Z"/><path d="M6.35,22.81a1.5,1.5,0,0,0,0-3,1.5,1.5,0,0,0,0,3Z"/><path d="M1.5,39.19l13.42,1.07,1.93.16a1.5,1.5,0,0,0,0-3L3.43,36.34,1.5,36.19A1.51,1.51,0,0,0,0,37.69a1.53,1.53,0,0,0,1.5,1.5Z"/><path d="M21.56,38.91v.18a1.27,1.27,0,0,0,.13.58,1.17,1.17,0,0,0,.31.48,1.11,1.11,0,0,0,.49.31,1,1,0,0,0,.57.13l.4-.05a1.39,1.39,0,0,0,.66-.39l.24-.3a1.47,1.47,0,0,0,.2-.76v-.18a1.08,1.08,0,0,0-.13-.58,1.14,1.14,0,0,0-.31-.48,1.11,1.11,0,0,0-.48-.31,1.15,1.15,0,0,0-.58-.13l-.39.06a1.54,1.54,0,0,0-.67.38l-.23.31a1.42,1.42,0,0,0-.21.75Z"/><path d="M22.81,48.42,17,50.7,16.1,51a1.54,1.54,0,0,0-1,1.85,1.52,1.52,0,0,0,1.84,1l5.86-2.29.85-.33a1.53,1.53,0,0,0,1-1.85,1.51,1.51,0,0,0-1.84-1Z"/><path d="M10.85,53.09,6.48,54.84l-.63.25a1.65,1.65,0,0,0-.89.69,1.52,1.52,0,0,0-.15,1.16A1.48,1.48,0,0,0,6.65,58L11,56.24l.63-.25a1.67,1.67,0,0,0,.9-.69,1.52,1.52,0,0,0,.15-1.16,1.55,1.55,0,0,0-.69-.9,1.52,1.52,0,0,0-1.16-.15Z"/><path d="M149.42,21.62l-12,5.12-1.69.72a1.51,1.51,0,0,0-.54,2.05,1.54,1.54,0,0,0,2,.54l12-5.12,1.69-.72a1.52,1.52,0,0,0,.54-2.06,1.53,1.53,0,0,0-2.05-.53Z"/><path d="M155.15,22.81a1.5,1.5,0,0,0,0-3,1.5,1.5,0,0,0,0,3Z"/><path d="M160,36.19l-13.41,1.07-1.93.16a1.5,1.5,0,0,0,0,3l13.41-1.08,1.93-.15a1.53,1.53,0,0,0,1.5-1.5,1.5,1.5,0,0,0-1.5-1.5Z"/><path d="M136.94,38.91v.18a1.15,1.15,0,0,0,.13.58,1.08,1.08,0,0,0,.31.48,1.14,1.14,0,0,0,.48.31,1.06,1.06,0,0,0,.58.13l.4-.05a1.49,1.49,0,0,0,.66-.39l.24-.3a1.57,1.57,0,0,0,.2-.76v-.18a1.17,1.17,0,0,0-.13-.58,1.14,1.14,0,0,0-.31-.48,1.24,1.24,0,0,0-.48-.31,1.15,1.15,0,0,0-.58-.13l-.4.06a1.57,1.57,0,0,0-.66.38l-.24.31a1.5,1.5,0,0,0-.2.75Z"/><path d="M137.9,51.31l5.86,2.29.84.33a1.52,1.52,0,0,0,1.85-1,1.56,1.56,0,0,0-1-1.85l-5.86-2.28-.85-.33a1.5,1.5,0,0,0-1.84,1,1.54,1.54,0,0,0,1.05,1.85Z"/><path d="M155.65,55.09l-4.37-1.74-.63-.26a1.57,1.57,0,0,0-1.16.15,1.54,1.54,0,0,0-.68.9A1.51,1.51,0,0,0,149,55.3a1.75,1.75,0,0,0,.89.69l4.37,1.74.63.26a1.5,1.5,0,0,0,1.85-1.05,1.51,1.51,0,0,0-.15-1.16,1.82,1.82,0,0,0-.9-.69Z"/><path d="M46.5,21.92a9.51,9.51,0,0,0,8-2.37c2.08-1.93,3.2-5.15,1.91-7.83a2.94,2.94,0,0,0-4-1.55c-1.41.81-1.55,2.7-1,4.09a5.2,5.2,0,0,0,7,2.94A6,6,0,0,0,61,8.7c-.91-1.69-3.51-.18-2.59,1.52a3.13,3.13,0,0,1-.55,3.86,2.27,2.27,0,0,1-3.27-.2,3,3,0,0,1-.37-.67c0-.11-.05-.72-.06-.73s-.67.59-.58.34c0,0,.06,0,.09.1a2.4,2.4,0,0,1,.29.84,4.54,4.54,0,0,1-1.8,3.87A6.33,6.33,0,0,1,47.29,19a1.54,1.54,0,0,0-1.84,1,1.5,1.5,0,0,0,1,1.84Z"/><path d="M97,10.32a9.2,9.2,0,0,0,1.48,5.2,9.4,9.4,0,0,0,4.37,3.58,1.5,1.5,0,0,0,1.84-1.05,1.54,1.54,0,0,0-1-1.84c.38.15-.13-.07-.22-.12s-.31-.17-.46-.26-.33-.22-.49-.32.28.23,0,0l-.21-.17a7.59,7.59,0,0,1-.75-.75l-.17-.2c-.24-.28.18.26,0,0a4.27,4.27,0,0,1-.3-.44,7.1,7.1,0,0,1-.52-.93c0-.05-.12-.34,0-.12s0-.07,0-.12-.12-.33-.17-.5-.09-.35-.13-.52l-.06-.31,0-.12c0,.25,0-.09,0-.12s0-.17,0-.26,0-.39,0-.59a1.5,1.5,0,0,0-1.5-1.5,1.54,1.54,0,0,0-1.5,1.5Z"/><path d="M104.56,13.89a10.1,10.1,0,0,0,6.35,6.8,1.5,1.5,0,0,0,1.84-1.05,1.53,1.53,0,0,0-1-1.84l-.23-.09c-.14-.05-.28-.18,0,0-.13-.08-.28-.13-.42-.2a8.77,8.77,0,0,1-.84-.49c-.14-.1-.27-.21-.41-.3.09.06.25.2.07.05l-.19-.16A9,9,0,0,1,109,16l-.31-.35s-.23-.29-.07-.08,0,0,0,0a9.64,9.64,0,0,1-.55-.86c-.07-.14-.15-.27-.21-.41l-.09-.2a1,1,0,0,1-.07-.15l.08.2c-.1-.32-.23-.63-.32-1A1.51,1.51,0,0,0,105.61,12a1.53,1.53,0,0,0-1,1.85Z"/><path d="M66.51,24.4V24A1.72,1.72,0,0,0,66.07,23a1.24,1.24,0,0,0-.48-.31,1.27,1.27,0,0,0-.58-.13l-.4.06A1.57,1.57,0,0,0,64,23l-.24.31a1.5,1.5,0,0,0-.2.75v.36a1,1,0,0,0,.13.57,1.11,1.11,0,0,0,.31.49,1.17,1.17,0,0,0,.48.31,1.27,1.27,0,0,0,.58.13l.4-.06a1.57,1.57,0,0,0,.66-.38l.23-.31a1.42,1.42,0,0,0,.21-.75Z"/><path d="M94.3,23.52v.17a1.27,1.27,0,0,0,.13.58,1.34,1.34,0,0,0,.8.79,1,1,0,0,0,.57.13l.4-.05a1.39,1.39,0,0,0,.66-.39l.24-.3a1.54,1.54,0,0,0,.2-.76v-.17a1.06,1.06,0,0,0-.13-.58,1.36,1.36,0,0,0-.79-.79A1.06,1.06,0,0,0,95.8,22l-.4.05a1.49,1.49,0,0,0-.66.39l-.23.3a1.45,1.45,0,0,0-.21.76Z"/></svg>