<svg id="レイヤー_1" data-name="レイヤー 1" xmlns="http://www.w3.org/2000/svg" viewBox="0 0 75.8 68.45"><defs><style>.cls-1{fill:#231815;}</style></defs><path class="cls-1" d="M21.48,15.33,18.94,2.21A3,3,0,0,0,15.25.12a3.07,3.07,0,0,0-2.1,3.69L15.7,16.93A3,3,0,0,0,19.39,19a3.08,3.08,0,0,0,2.09-3.69Z"/><path class="cls-1" d="M3,20.9a79.63,79.63,0,0,0,14.64-.57,3.36,3.36,0,0,0,2.12-.88,3.08,3.08,0,0,0,.88-2.12c-.07-1.45-1.34-3.23-3-3A79.63,79.63,0,0,1,3,14.9a3,3,0,0,0-3,3,3.07,3.07,0,0,0,3,3Z"/><path class="cls-1" d="M35.11,25.86c-.22-1-.41-2.05-.57-3.08,0-.24-.08-.48-.11-.72-.12-.81.07.66,0-.16-.07-.51-.13-1-.18-1.55A59.93,59.93,0,0,1,34,14.21a3,3,0,0,0-3-3,3.06,3.06,0,0,0-3,3,61.42,61.42,0,0,0,1.36,13.24A3,3,0,0,0,33,29.55a3.08,3.08,0,0,0,2.1-3.69Z"/><path class="cls-1" d="M14.59,34.44Q23.91,32.39,33,29.55a3,3,0,1,0-1.59-5.79q-9.1,2.85-18.42,4.9a3,3,0,0,0-2.1,3.69,3.07,3.07,0,0,0,3.69,2.09Z"/><path class="cls-1" d="M48.27,38.28,47.21,25.17a3.06,3.06,0,0,0-3-3,3,3,0,0,0-3,3l1.06,13.11a3,3,0,0,0,6,0Z"/><path class="cls-1" d="M28.77,43.65l17.29-2.48c1.56-.22,2.55-2.28,2.1-3.69a3.1,3.1,0,0,0-3.69-2.09l-17.3,2.48a3,3,0,0,0-2.09,3.69,3.1,3.1,0,0,0,3.69,2.09Z"/><path class="cls-1" d="M54.69,37.59l.21,12.23a3,3,0,0,0,6,0l-.21-12.23a3,3,0,0,0-6,0Z"/><path class="cls-1" d="M42.7,55.67a139.91,139.91,0,0,0,15-1.78,3,3,0,0,0,2.09-3.69,3.09,3.09,0,0,0-3.69-2.1c-1.17.21-2.35.4-3.53.57l-.81.11c-.91.13.61-.07-.29,0L49.68,49c-2.32.28-4.65.48-7,.63a3,3,0,0,0,0,6Z"/><path class="cls-1" d="M57.16,68.38q3.35-.59,6.72-1.07c1.16-.17,1.47-.21,2.74-.37s2.36-.28,3.54-.41a3.13,3.13,0,0,0,3-3c-.06.47,0-.2,0-.28l.12-.78c.07-.51.16-1,.25-1.53.17-1,.37-2,.59-3.06q.65-3.06,1.53-6a3,3,0,0,0-2.1-3.69,3.06,3.06,0,0,0-3.69,2.09,88.54,88.54,0,0,0-2.74,13.29l3-3q-7.34.8-14.6,2.07a3,3,0,0,0-2.09,3.69,3.07,3.07,0,0,0,3.69,2.09Z"/></svg>