<svg id="レイヤー_1" data-name="レイヤー 1" xmlns="http://www.w3.org/2000/svg" viewBox="0 0 56.1 50.64"><defs><style>.cls-1{fill:#fff;}.cls-2{fill:#231815;}</style></defs><path class="cls-1" d="M13.39,3.78a241.59,241.59,0,0,1,30.44-.54C43,3.2,42,27.2,42.08,27c-.08.22,10.92,1.22,11,.89C53,28.2,28,47.63,27.53,47.65S3,28.2,3,28.2s11-1,11-1S13.23,3.8,13.39,3.78Z"/><path class="cls-2" d="M13.39,6.78a245.41,245.41,0,0,1,30.44-.54L43,.35C40.86.67,40.62,3.3,40.41,5c-.24,1.86-.37,3.74-.51,5.61-.31,4.44-.54,8.89-.72,13.35a16.44,16.44,0,0,0,0,3.84,3,3,0,0,0,2.1,2.09,3.14,3.14,0,0,0,2.92-.77h0l-5-1.32c.76,2,2.22,2.18,4,2.41,1.36.17,2.72.3,4.08.42s2.79.23,4.19.3S54.3,31,55.24,30l-4.71-3.64c.58-1,.57-.63.25-.4s-.37.31-.55.45l-1.87,1.51c-2,1.56-4,3.11-5.94,4.66l-3.61,2.8-1.69,1.31-.08.06-.4.31-1,.75-6.26,4.79-2.34,1.75c-.23.16-.47.32-.69.49-.41.32-.61.14.35-.08h1.6c1,.17.78.44.46.15-.17-.15-.37-.27-.55-.4l-.81-.61c-.54-.42.43.33.06,0l-.62-.48c-2-1.53-3.92-3.09-5.87-4.64Q14.54,33.67,8.1,28.48l-3-2.4.47,3.63h0L4.52,30.78c-.92.39-.83.34-.49.26-1.1.26-.57.07-.26,0l1.36-.13q1.86-.18,3.72-.33L14,30.2a3,3,0,0,0,3-3c-.22-6.72-.45-13.44-.59-20.16,0-.76,0-1.51,0-2.26,0-.22,0-.44,0-.66,0-.61,0,.23-.09.47l-.77,1.32h0a3.08,3.08,0,0,0,0-4.25,3,3,0,0,0-4.24,0c-1,1.22-.91,2.6-.89,4.08,0,1.83.08,3.66.13,5.49q.18,6.45.39,12.9c0,1,.07,2.05.1,3.07l3-3c-2,.15-4,.31-6,.48-2.34.2-6.1-.13-7.58,2a3,3,0,0,0,.47,3.63C8.14,36.18,15.4,42.06,22.76,47.79c1.13.88,2.51,2.35,4,2.75,1.81.5,3.22-.91,4.54-1.9,4.6-3.44,9.13-7,13.66-10.48,2.41-1.88,4.82-3.75,7.21-5.64,1.13-.9,2.82-1.85,3.57-3.14,1.66-2.88-2.39-6.23-4.71-3.63a2.68,2.68,0,0,1,1.92-.83h-.17a3.69,3.69,0,0,0-.47,0c-.4,0-.79,0-1.19,0-1.19-.06-2.38-.16-3.57-.26l-3.44-.33-.64-.08c-.82-.09.5.11.07,0-.6-.14-.75-.35.08.17L45,26.19h0a3.06,3.06,0,0,0-5-1.32h0l5,1.32c.2,1.07.1.76.12.1s0-1.13.06-1.69c.07-1.8.16-3.61.25-5.41.21-4.12.42-8.25.81-12.35,0-.43.08-.85.13-1.27,0-.17,0-.34.06-.51s-.13.78,0,.16c0-.24.1-.48.14-.72a1.82,1.82,0,0,0,.07-.25c0,.63-1.55,1.83-2,1.89a3,3,0,0,0,2.15-3.29,3,3,0,0,0-3-2.6A245.41,245.41,0,0,0,13.39.78a3.08,3.08,0,0,0-3,3A3,3,0,0,0,13.39,6.78Z"/></svg>