<svg id="レイヤー_1" data-name="レイヤー 1" xmlns="http://www.w3.org/2000/svg" viewBox="0 0 94.65 68.28"><defs><style>.cls-1{fill:#231815;}</style></defs><path class="cls-1" d="M18.62,62.21a36.85,36.85,0,0,1,9-26A36.3,36.3,0,0,1,52.84,24.16a37.12,37.12,0,0,1,6.92.27,32.48,32.48,0,0,1,3.51.69,5.27,5.27,0,0,1,1.39.45c.1.06.2.18.25.5a3.3,3.3,0,0,1-.38,1.61c-.12.19-.23.4-.37.58.08-.11.34-.38,0,0-.13.14-.26.26-.39.39-.47.47.25-.13-.25.22a9,9,0,0,1-1.21.69c.48-.22-.43.14-.61.19s-.46.12-.7.17-.75.11-.19.05a8.79,8.79,0,0,1-1.45.05l-.57,0c.55.06-.06,0-.2-.05a12.64,12.64,0,0,1-1.24-.36c.45.17,0,0-.08,0l-.62-.35c-.11-.06-.61-.42-.21-.11a8.3,8.3,0,0,1-.76-.69,8.24,8.24,0,0,1-2.08-4.59,11.15,11.15,0,0,1,.74-5.56,14.77,14.77,0,0,1,3.75-5c4-3.67,9.55-5.6,14.82-6.59A38.56,38.56,0,0,1,91,7.64c3.71,1.09,5.3-4.7,1.6-5.79-12.21-3.61-27-2.09-37.28,5.9-4.5,3.52-7.64,8.59-7.77,14.41-.13,5.58,2.78,11.25,8.21,13.23a12,12,0,0,0,13.47-3.88,8.44,8.44,0,0,0,1.16-8.06c-1.36-3.28-4.83-4.09-8-4.65A43,43,0,0,0,28,27.56a42.55,42.55,0,0,0-15.4,34.65,3.06,3.06,0,0,0,3,3,3,3,0,0,0,3-3Z"/><path class="cls-1" d="M.91,55.31a84.55,84.55,0,0,1,10,11.52,3.07,3.07,0,0,0,4.71.61,31.58,31.58,0,0,1,14-6.75A3,3,0,0,0,28,54.9,37.91,37.91,0,0,0,11.4,63.19l4.71.61a92.25,92.25,0,0,0-11-12.73c-2.78-2.68-7,1.56-4.24,4.24Z"/></svg>