<svg id="レイヤー_1" data-name="レイヤー 1" xmlns="http://www.w3.org/2000/svg" viewBox="0 0 240 153.5"><defs><style>.cls-1{fill:#fff;}.cls-2,.cls-3,.cls-5{fill:none;stroke:#000;stroke-linecap:round;stroke-linejoin:round;stroke-width:2px;}.cls-3{stroke-dasharray:0.3 7.04;}.cls-4{fill:#231815;}.cls-5{stroke-dasharray:0.29 6.84;}</style></defs><path class="cls-1" d="M152,22.5h72a15,15,0,0,1,15,15v100a15,15,0,0,1-15,15H16a15,15,0,0,1-15-15V37.5a15,15,0,0,1,15-15H87.5"/><line class="cls-2" x1="152.01" y1="22.5" x2="152.16" y2="22.5"/><path class="cls-3" d="M159.2,22.5H224a15,15,0,0,1,15,15v100a15,15,0,0,1-15,15H16a15,15,0,0,1-15-15V37.5a15,15,0,0,1,15-15H83.83"/><line class="cls-2" x1="87.35" y1="22.5" x2="87.5" y2="22.5"/><path class="cls-4" d="M93.52,78.07a3.71,3.71,0,0,0,.24-1.3c0-.22,0-.35-.11-.37a.89.89,0,0,0-.46-.07,9.6,9.6,0,0,0-2.07.24,10.8,10.8,0,0,1-2.11.22.79.79,0,0,1-.55-.17.91.91,0,0,1-.24-.49,2.48,2.48,0,0,1-.07-.63c0-.23,0-.45,0-.62v-.59c0-.07.27-.16.71-.27s.94-.26,1.54-.44,1.16-.35,1.76-.57a5.53,5.53,0,0,0,1.43-.77c.22-.18.51-.38.84-.62a8,8,0,0,0,1-.72,5.69,5.69,0,0,0,.8-.84,1.33,1.33,0,0,0,.35-.86c-.75,0-1.45,0-2.18.07s-1.41,0-2.13,0a1.89,1.89,0,0,1-.47-.06.41.41,0,0,1-.24-.4V66.52l.13-.16c1.57,0,3.13-.15,4.71-.33a43.36,43.36,0,0,1,4.69-.26,1.13,1.13,0,0,1,.62.24,3.82,3.82,0,0,1,.63.57,2.37,2.37,0,0,1,.47.71,1.39,1.39,0,0,1,.19.64.63.63,0,0,1-.22.44,3.8,3.8,0,0,1-.46.41c-.17.14-.35.25-.5.36l-.29.15c-.13.11-.37.31-.73.59s-.72.58-1.12.88-.75.6-1.1.88-.57.49-.72.6-.16.22-.14.26a.65.65,0,0,1,0,.29c1.07,0,2.15,0,3.21-.07s2.15-.06,3.23-.06l.51,0h.35l.29.28v2.21l-.29.37H99.92a3.22,3.22,0,0,0-1.25.26,4.45,4.45,0,0,0-1.08.75,4.06,4.06,0,0,0-.77,1.06,2.55,2.55,0,0,0-.28,1.18,1.72,1.72,0,0,0,.7,1.52,3.94,3.94,0,0,0,1.69.73,11.65,11.65,0,0,0,2,.22c.69,0,1.24,0,1.65.07.11,0,.16.06.16.17v.24c0,.18,0,.38,0,.64s0,.53-.09.79a6.12,6.12,0,0,1-.22.75,1,1,0,0,1-.42.49h-1.08l-.24,0a14.63,14.63,0,0,1-2.53-.24,8.11,8.11,0,0,1-2.36-.8A4.89,4.89,0,0,1,94,81.85a4.19,4.19,0,0,1-.68-2.44A4.59,4.59,0,0,1,93.52,78.07Z"/><path class="cls-4" d="M119.15,81.28a7.88,7.88,0,0,0,1.17-.46c.46-.2,1-.44,1.54-.75A6.21,6.21,0,0,0,123.38,79a6,6,0,0,0,1.16-1.56,4.68,4.68,0,0,0,.46-2.14,7.93,7.93,0,0,0-.19-1.63,6.07,6.07,0,0,0-.64-1.69,4.42,4.42,0,0,0-1.08-1.36,2.38,2.38,0,0,0-1.56-.55c-.2,0-.42.3-.6.94s-.41,1.41-.66,2.33-.52,2-.85,3a18.63,18.63,0,0,1-1.24,3.06,7.88,7.88,0,0,1-1.73,2.35,3.48,3.48,0,0,1-2.43.93,3.57,3.57,0,0,1-2.13-.62,5.49,5.49,0,0,1-1.41-1.58,7.22,7.22,0,0,1-.81-2.09,10.61,10.61,0,0,1-.24-2.18,8.85,8.85,0,0,1,.81-3.85,9.48,9.48,0,0,1,2.22-3,10.72,10.72,0,0,1,7.11-2.6,9.58,9.58,0,0,1,3.5.62,8.94,8.94,0,0,1,2.84,1.74,7.93,7.93,0,0,1,1.91,2.7,8.74,8.74,0,0,1,.7,3.54,8.57,8.57,0,0,1-.59,3.11,9.82,9.82,0,0,1-1.63,2.77,8.82,8.82,0,0,1-2.48,2,6.59,6.59,0,0,1-3.13.77,1,1,0,0,1-.64-.29,4.91,4.91,0,0,1-.66-.64,4.53,4.53,0,0,1-.5-.81,1.54,1.54,0,0,1-.2-.7C118.69,81.48,118.84,81.39,119.15,81.28Zm-6.45-4.62a5,5,0,0,0,.18,1,2.47,2.47,0,0,0,.42.77,1,1,0,0,0,.77.31,1.24,1.24,0,0,0,.9-.51,5.35,5.35,0,0,0,.79-1.26,15.27,15.27,0,0,0,.66-1.71c.2-.62.38-1.23.51-1.83a15.71,15.71,0,0,0,.33-1.63,10.66,10.66,0,0,0,.11-1.07.76.76,0,0,0-.07-.42c0-.07-.17-.09-.39-.09a2.79,2.79,0,0,0-1.7.59,5.3,5.3,0,0,0-1.34,1.48,7.79,7.79,0,0,0-.88,1.87,5.68,5.68,0,0,0-.33,1.78C112.66,76.09,112.68,76.35,112.7,76.66Z"/><path class="cls-4" d="M132.77,75.17a.8.8,0,0,1-.82-.07,2.55,2.55,0,0,1-.57-.64,3.77,3.77,0,0,1-.39-.84c-.11-.3-.2-.5-.27-.66v-.17c0-.09,0-.16,0-.2a3.31,3.31,0,0,1,.35-.77c.22-.42.53-.9.88-1.5s.75-1.21,1.15-1.87.79-1.25,1.14-1.8.64-1,.9-1.36l.35-.55c.2,0,.4,0,.64,0a2.52,2.52,0,0,1,.73.18,1.44,1.44,0,0,1,.57.35.82.82,0,0,1,.22.55,3.49,3.49,0,0,1-.26,1.32c-.18.42-.36.83-.58,1.25s-.39.86-.57,1.3a4.3,4.3,0,0,0-.24,1.41v.77a1.09,1.09,0,0,0,0,.17,1.45,1.45,0,0,0,.2.38.63.63,0,0,0,.37.09,2.49,2.49,0,0,0,.53-.09c.24-.07.46-.16.71-.24a2.18,2.18,0,0,0,.61-.38.6.6,0,0,0,.29-.48v-4l.37-.31h2.2l.35.31v2.48a.36.36,0,0,0,.27.36,1.23,1.23,0,0,0,.39.11A1.08,1.08,0,0,0,143,70a1,1,0,0,0,.36-.75v-4.4l.37-.29h1.91a.75.75,0,0,1,.31.16c.13.11.2.2.2.28v3.24a.25.25,0,0,0,.22.26c.15,0,.26,0,.35,0a1.21,1.21,0,0,0,.55-.14,4.13,4.13,0,0,0,.53-.24,2.46,2.46,0,0,1,.51-.26,1,1,0,0,1,.55-.13,3.07,3.07,0,0,1,.94.17,1.92,1.92,0,0,1,.82.57v.64c0,.31,0,.62,0,1V71.8q0,.92.06,2.07a8.26,8.26,0,0,1-.13,2.13,3.66,3.66,0,0,1-.79,1.7,2.43,2.43,0,0,1-1.94.7h-.59a2.06,2.06,0,0,1-.73-1l-.08,0c-.18,0-.27.14-.29.38s0,.53,0,.81a3.07,3.07,0,0,1,0,.82.41.41,0,0,1-.44.37h-1.91l-.37-.31V74.13a.5.5,0,0,0-.2-.44.8.8,0,0,0-.44-.15,1.39,1.39,0,0,0-.66.19.63.63,0,0,0-.38.56V81a1.15,1.15,0,0,0,1,1h4.7a.81.81,0,0,0,.75-.37,2.59,2.59,0,0,0,.33-.88c.07-.31.16-.6.22-.86s.24-.4.46-.4a2.72,2.72,0,0,1,.64.09,4.49,4.49,0,0,1,.75.29,2.17,2.17,0,0,1,.57.46,1,1,0,0,1,.24.62,4.78,4.78,0,0,1-.17,1.16,3.76,3.76,0,0,1-1.34,2.16,1.89,1.89,0,0,1-1.13.37h-7.34a2.13,2.13,0,0,1-1.06-.22,3.18,3.18,0,0,1-.75-.61,3.92,3.92,0,0,1-.51-.84c-.13-.31-.26-.64-.39-1V75.76c0-.11-.09-.18-.22-.24s-.33-.14-.53-.22a4.74,4.74,0,0,1-.66-.31,1.5,1.5,0,0,1-.57-.55,1,1,0,0,0-.2-.27.45.45,0,0,0-.26-.06.26.26,0,0,0-.14,0l-.22.59V84.85l-.08.06c-.05,0-.09.07-.14.09l-.13.07a.29.29,0,0,1-.15.06H135c-.22,0-.38,0-.44,0h-.31a1.79,1.79,0,0,1-.51,0,1.53,1.53,0,0,1-.5-.13.3.3,0,0,1-.22-.31V75.45Zm14.3-3.46a2,2,0,0,0-.37.15,2.44,2.44,0,0,0-.31.22.39.39,0,0,0-.13.29v2.95a.23.23,0,0,0,.11.2.39.39,0,0,0,.22.08.53.53,0,0,0,.22,0H147a.72.72,0,0,0,.62-.25,1.37,1.37,0,0,0,.26-.59,2.79,2.79,0,0,0,0-.77,5.63,5.63,0,0,1,0-.68V72.08a.6.6,0,0,0-.52-.44A1,1,0,0,0,147.07,71.71Z"/><path class="cls-4" d="M61.17,110.27l-.55.63c-3.85-1.58-6.38-4.85-7.61-10.36h-.1a11.94,11.94,0,0,1-1.9,1.52,9.8,9.8,0,0,1,3.06,7c0,2.81-1,3.38-2.75,3.38a15,15,0,0,1-1.56-.07l-.1-.71a12.24,12.24,0,0,0,1.5.08c1.43,0,2.19-.34,2.19-2.77a8.17,8.17,0,0,0-.25-2,20.35,20.35,0,0,1-8.41,4.54l-.48-.59c3.15-.82,6.8-2.51,8.7-4.63a9.87,9.87,0,0,0-.85-1.92,18.65,18.65,0,0,1-6.58,3.36l-.45-.55a17.3,17.3,0,0,0,6.7-3.33,8.74,8.74,0,0,0-1.29-1.52,24.52,24.52,0,0,1-5.24,2.27l-.46-.58A19.49,19.49,0,0,0,52,100.54H47.15v-.62h11v.62H53.69a17.94,17.94,0,0,0,1.65,4.6,30.07,30.07,0,0,0,4-3.12l.53.5a37.94,37.94,0,0,1-4.23,3.17A10.61,10.61,0,0,0,61.17,110.27Zm-15.5-9.84h-.74V97.16h7.24v-1.9H53v1.9h7.43v3.27h-.76V97.81H45.67Z"/><path class="cls-4" d="M67.6,112.47c-.4,0-1.08,0-1.58,0l-.06-.68c.5,0,1.14,0,1.54,0,.73,0,1-.21,1.24-9.1H65.89c-.25,3.74-.84,7.47-2.47,9.74l-.63-.38c2.17-3,2.47-8.56,2.55-13.18H63v-.68h3.53V95.26h.74v2.93h3.25v.68H66.06c0,1-.06,2.07-.11,3.13h3.53C69.21,112.11,68.89,112.47,67.6,112.47Zm2.77-11.17-.59-.36a14.41,14.41,0,0,0,2.59-5.68l.68.13a16.82,16.82,0,0,1-.72,2.38h7.9v.66H72A15.8,15.8,0,0,1,70.37,101.3Zm10,10.57-.52.6c-2-.89-3.55-2.64-4.42-5.62a7.8,7.8,0,0,1-4.79,5.6l-.53-.57a7.26,7.26,0,0,0,4.71-5.58H70.41v-.67h4.5a26,26,0,0,0,.34-3.51H72.71a14.1,14.1,0,0,1-1.46,2.53l-.63-.33A13.45,13.45,0,0,0,73,99.14l.69.13a13.8,13.8,0,0,1-.69,2.18h6.6v.67H76a27.59,27.59,0,0,1-.35,3.51h4.56v.67H76C76.76,109.3,78.33,111.07,80.33,111.87Z"/><path class="cls-4" d="M91.54,103.87a.92.92,0,1,1-.91-.91A.93.93,0,0,1,91.54,103.87Z"/><path class="cls-4" d="M118.29,111.73l-.51.74c-3.94-.42-6.77-1.75-8.27-5.26-.87,2.74-2.94,4.31-8.09,5.26l-.44-.68c4.94-.82,6.94-2.24,7.75-4.67h-7.52v-.65h7.71a13.42,13.42,0,0,0,.33-2.28H101v-.65h8.11v-2.29h-5.83v-.63h5.83V98.4H102v-.63h4.54a9.38,9.38,0,0,0-1.18-2.22l.67-.25a10.15,10.15,0,0,1,1.29,2.47h4.41a18.85,18.85,0,0,0,1.57-2.49l.8.21a22.89,22.89,0,0,1-1.56,2.28h4.75v.63h-7.35v2.22h6v.63h-6v2.29h8.28v.65H110a17.22,17.22,0,0,1-.34,2.28h8.38v.65h-7.79C111.68,110.27,114.47,111.45,118.29,111.73Z"/><path class="cls-4" d="M136.91,107.74a21.52,21.52,0,0,1-2.7-1.23v5.94h-.78v-.64H123.8v.64H123v-5.9a19.38,19.38,0,0,1-2.56,1.17l-.46-.62a17.45,17.45,0,0,0,8.17-5.85H129a19.21,19.21,0,0,0,8.4,5.85Zm-15.14-7.41H121V97.18h7.18V95.26H129v1.92h7.33v3.15h-.74V97.86H121.77Zm3.89-1.44.61.3a12.19,12.19,0,0,1-4.14,3.63l-.48-.57A11.12,11.12,0,0,0,125.66,98.89Zm7.87,7.22a21.37,21.37,0,0,1-5-4.2,19.87,19.87,0,0,1-4.77,4.2Zm-.1,5v-4.37H123.8v4.37Zm2.4-9-.48.55A14.74,14.74,0,0,1,131,99.19l.61-.32A13.67,13.67,0,0,0,135.83,102.16Z"/><path class="cls-4" d="M148.54,103.87a.92.92,0,1,1-.91-.91A.93.93,0,0,1,148.54,103.87Z"/><path class="cls-4" d="M161.36,99.88v12.59h-.74V101.36a31.61,31.61,0,0,1-2.41,3.72l-.51-.57a26.7,26.7,0,0,0,4.61-9.25l.74.17A26.31,26.31,0,0,1,161.36,99.88Zm13.85,2v.69H162.58v-.69h3.5V98.53h-2.89v-.69h2.89V95.26h.74v2.58H171V95.26h.74v2.58h3v.69h-3v3.34Zm-10.84,2.55h9.21v8h-.76v-.66h-7.71v.66h-.74Zm.74.66v2.62h7.71v-2.62Zm7.71,6v-2.79h-7.71v2.79Zm-6-9.25H171V98.53h-4.21Z"/><path class="cls-4" d="M194.42,101.51l-.47.67A21.9,21.9,0,0,1,185.51,96a20.5,20.5,0,0,1-8.19,6.2l-.47-.65a18.75,18.75,0,0,0,8.26-6.23h.8A20.53,20.53,0,0,0,194.42,101.51Zm-8.49,9.73h7.71v.68H177.57v-.68h7.58v-6.18h-6.88v-.68h6.88v-2.91H181v-.66h9.23v.66h-4.29v2.91H193v.68h-7.11ZM182.64,110l-.7.29a13.89,13.89,0,0,0-1.9-3.74l.61-.31A14.86,14.86,0,0,1,182.64,110Zm5.74.06a29.47,29.47,0,0,0,2.34-3.86l.7.31a37.11,37.11,0,0,1-2.45,3.85Z"/><path class="cls-4" d="M86.73,130.56v5.82H86v-5.89a14.47,14.47,0,0,1-3.72,4.5l-.52-.57a13.44,13.44,0,0,0,4.13-5.09H82.17v-.65H86V126H82v-.64h2.45a18.59,18.59,0,0,0-.76-3.38H82.44v-.65H86v-2.11h.74v2.11h3.61V122H89.18c-.26,1-.66,2.22-1.08,3.38h2.49V126H86.73v2.64h3.63v.65H86.73v.49c1.22,1,2.57,2.25,3.31,3l-.48.55C88.92,132.65,87.81,131.53,86.73,130.56Zm-1.58-5.16H87.4c.39-1.16.76-2.43,1-3.38h-4A17.77,17.77,0,0,1,85.15,125.4Zm7.32,4.92.7,0c-.3,2.88-1.18,4.92-4.37,6.09l-.49-.55C91.39,134.86,92.22,132.92,92.47,130.32ZM99.29,134c-.1,2.16-.27,2.35-1.22,2.35H96.31c-1,0-1.26-.28-1.26-1.48v-5h-3.8v-10h7v10H95.77v5c0,.63.14.76.61.76H98c.53,0,.59-.08.61-1.79Zm-7.32-11h5.59v-2.45H92ZM92,126h5.59v-2.48H92Zm0,3.12h5.59v-2.51H92Z"/><path class="cls-4" d="M118.21,128.08h-8.07v7.06c0,1.16-.46,1.47-1.82,1.47-.73,0-1.68,0-2.3,0l-.12-.78c.63,0,1.58.06,2.28.06.9,0,1.18-.14,1.18-.78v-7H101v-.71h8.34V124.9h.38a34.48,34.48,0,0,0,4.48-4H104v-.69h11.17l.52.31a42.88,42.88,0,0,1-5.51,5v1.92h8.07Z"/><path class="cls-4" d="M121.73,125.4v11.07H121V119.89h6.48v5.51Zm0-4.9v1.82h5V120.5Zm5,4.29v-1.9h-5v1.9Zm2,7.12c-.49,1.39-2,2.63-4.67,3.69l-.51-.53c2.73-1,4.19-2.23,4.55-3.56h-4.76v-.6h4.84v-2.23h-4.39v-.6h2.57a9.5,9.5,0,0,0-1.14-2l.6-.24a9.45,9.45,0,0,1,1.24,2.28h3a16.61,16.61,0,0,0,1.41-2.28l.68.19a18,18,0,0,1-1.35,2.09h2.7v.6h-4.56v2.23h5v.6h-4.66a6.16,6.16,0,0,0,4.64,3.27l-.44.59A6.72,6.72,0,0,1,128.72,131.91Zm7.58,3.19c0,1.09-.44,1.35-1.67,1.35-.48,0-1.12,0-1.56,0l-.07-.7c.43,0,1.08,0,1.52,0,.77,0,1-.1,1-.72V125.4h-5.93v-5.51h6.69Zm-5.94-14.6v1.82h5.18V120.5Zm5.18,4.29v-1.9h-5.18v1.9Z"/><path class="cls-4" d="M142.38,123.86v12.57h-.74V125.3a29.15,29.15,0,0,1-2.47,3.74l-.49-.6a26.5,26.5,0,0,0,4.69-9.2l.74.17A27.07,27.07,0,0,1,142.38,123.86Zm7.79,5.66v6.95h-.76v-6.91l-5.54.3-.14-.74,3.44-.13,1.44-1.54a24.09,24.09,0,0,0-4.4-3.57l.45-.5,1.54,1.05a30.07,30.07,0,0,0,2.62-3.31c-1.59.19-3.17.31-4.46.34l-.25-.68a51.12,51.12,0,0,0,11-1.5l.38.63a39.7,39.7,0,0,1-5.72,1.08,34.36,34.36,0,0,1-3.09,3.82,22.3,22.3,0,0,1,2.43,2.09,49.19,49.19,0,0,0,3.63-4.48l.66.34A62.24,62.24,0,0,1,148.1,129l6-.3a26,26,0,0,0-2.07-2.23l.55-.38a22.83,22.83,0,0,1,3.63,4.3l-.64.38c-.29-.48-.61-.95-1-1.47Zm-3.7,1.2.7.17a19.26,19.26,0,0,1-2.53,4.69l-.62-.36A17.22,17.22,0,0,0,146.47,130.72Zm6.61-.12a21.66,21.66,0,0,1,3,4.58l-.7.32a21.39,21.39,0,0,0-2.91-4.57Z"/><circle class="cls-1" cx="120.5" cy="26" r="25"/><circle class="cls-5" cx="120.5" cy="26" r="25"/><path d="M127.4,16.53a23.3,23.3,0,0,0-5.87-.89,14.56,14.56,0,0,0-5.37.7,6.51,6.51,0,0,0-3.85,3.33,4.8,4.8,0,0,0,.27,4.74,6.72,6.72,0,0,0,4,2.4c1.65.43,3.34.7,5,1.2a11.25,11.25,0,0,1,4.55,2.22c.94.92-.69,1.74-1.47,2.05A10,10,0,0,1,115,31a1.56,1.56,0,0,0-2.12,0,1.51,1.51,0,0,0,0,2.12,13.05,13.05,0,0,0,9.37,2.8c2.9-.31,8.06-2.07,7-6-.46-1.75-2.2-2.8-3.71-3.54a24.62,24.62,0,0,0-5.32-1.83,16.63,16.63,0,0,1-4.47-1.22,1.89,1.89,0,0,1-.43-3c1-1.38,3.09-1.63,4.67-1.71a20.38,20.38,0,0,1,6.59.76,1.5,1.5,0,0,0,.79-2.89Z"/><path d="M117.47,12.71q-.59,12.36-1.7,24.7c-.18,1.92,2.82,1.91,3,0q1.11-12.33,1.7-24.7c.09-1.93-2.91-1.93-3,0Z"/><path d="M121.5,11.76q0,14.1-.51,28.2c-.07,1.93,2.93,1.93,3,0q.54-14.08.51-28.2a1.5,1.5,0,0,0-3,0Z"/></svg>