<svg id="レイヤー_1" data-name="レイヤー 1" xmlns="http://www.w3.org/2000/svg" viewBox="0 0 240 153.5"><defs><style>.cls-1{fill:#fff;}.cls-2,.cls-3,.cls-5{fill:none;stroke:#000;stroke-linecap:round;stroke-linejoin:round;stroke-width:2px;}.cls-3{stroke-dasharray:0.3 7.04;}.cls-4{fill:#231815;}.cls-5{stroke-dasharray:0.29 6.84;}</style></defs><path class="cls-1" d="M152,22.5h72a15,15,0,0,1,15,15v100a15,15,0,0,1-15,15H16a15,15,0,0,1-15-15V37.5a15,15,0,0,1,15-15H87.5"/><line class="cls-2" x1="152.01" y1="22.5" x2="152.16" y2="22.5"/><path class="cls-3" d="M159.2,22.5H224a15,15,0,0,1,15,15v100a15,15,0,0,1-15,15H16a15,15,0,0,1-15-15V37.5a15,15,0,0,1,15-15H83.83"/><line class="cls-2" x1="87.35" y1="22.5" x2="87.5" y2="22.5"/><path class="cls-4" d="M77.11,78.51a4.38,4.38,0,0,1,.9-1.1,8.84,8.84,0,0,1,1.17-.9,12.14,12.14,0,0,0,1.14-.86,4.78,4.78,0,0,0,.9-1,2.25,2.25,0,0,0,.38-1.28v-.46a5.35,5.35,0,0,0,0-.55,1,1,0,0,0-.22-.48.58.58,0,0,0-.48-.2H77.92s-.06,0-.13-.13a.91.91,0,0,0-.18-.22.94.94,0,0,0-.06-.18.27.27,0,0,1-.07-.13V69.16l.29-.38h3.36s.07-.06.14-.15a1.31,1.31,0,0,0,.17-.22s0-.09.09-.15a.82.82,0,0,0,0-.14V65.64l.31-.31h2.64s.11.09.2.22a1.72,1.72,0,0,1,.09.22v.15a2.24,2.24,0,0,1,0,.31c0,.18,0,.38-.05.57a3.17,3.17,0,0,0-.06.58,1.48,1.48,0,0,0,0,.3.83.83,0,0,0,.09.31.5.5,0,0,0,.22.29h.51a4.22,4.22,0,0,0,1.19-.16A5.61,5.61,0,0,1,87.85,68a1.92,1.92,0,0,1,.3,0,.24.24,0,0,1,.18.27v2.33A.38.38,0,0,1,88,71a3,3,0,0,1-.7.14l-.9.06a3.93,3.93,0,0,0-.93.18,1.53,1.53,0,0,0-.72.44,1.2,1.2,0,0,0-.29.88,2.53,2.53,0,0,0,.11.68.51.51,0,0,0,.53.35,10.71,10.71,0,0,0,1.52-.09c.5,0,1-.08,1.54-.08a10.08,10.08,0,0,1,2.35.26,6.41,6.41,0,0,1,2,.84,4.37,4.37,0,0,1,2,3.82,5,5,0,0,1-.59,2.47,5.58,5.58,0,0,1-1.59,1.78,7.47,7.47,0,0,1-2.24,1.06,9.13,9.13,0,0,1-2.55.35,1,1,0,0,1-.73-.29,2,2,0,0,1-.48-.68,5.34,5.34,0,0,1-.27-.88,4.17,4.17,0,0,1-.08-.81.4.4,0,0,1,.06-.24c0-.07.11-.11.24-.18.42,0,.91-.07,1.5-.13a7.75,7.75,0,0,0,1.63-.38,4.37,4.37,0,0,0,1.32-.79,1.85,1.85,0,0,0,.55-1.43,1.69,1.69,0,0,0-.29-1,2.05,2.05,0,0,0-.75-.66,3.52,3.52,0,0,0-1-.35,4.36,4.36,0,0,0-1-.11l-.68,0c-.38,0-.8.06-1.24.11a4.39,4.39,0,0,0-1.16.26c-.36.11-.53.29-.53.51v5a1.89,1.89,0,0,1-.24.93,2.26,2.26,0,0,1-.58.7,2.64,2.64,0,0,1-.83.44,3.32,3.32,0,0,1-.9.15,6.1,6.1,0,0,1-1.79-.3,6,6,0,0,1-1.71-.88,4.76,4.76,0,0,1-1.3-1.35A3.18,3.18,0,0,1,76.73,80,3,3,0,0,1,77.11,78.51Zm3.12,2a1,1,0,0,0,.68.26,1.06,1.06,0,0,0,.44-.11.32.32,0,0,0,.22-.35V78.4a.13.13,0,0,0-.15-.15.56.56,0,0,0-.2,0c-.06,0-.13,0-.22,0-.33.28-.57.5-.77.7a1.17,1.17,0,0,0-.28.88A.84.84,0,0,0,80.23,80.49Zm9.68-11.11a5.08,5.08,0,0,1,.33-.66,3.77,3.77,0,0,1,.47-.64.65.65,0,0,1,.48-.26s.07,0,.07,0l1.1.48c.44.18.9.38,1.38.62a11.79,11.79,0,0,1,1.34.79,4.35,4.35,0,0,1,1,.88s0,0,0,.07a1.34,1.34,0,0,1-.16.55,4,4,0,0,1-.37.7,5.91,5.91,0,0,1-.46.64.74.74,0,0,1-.49.26.34.34,0,0,1-.15,0l-1-.55c-.51-.26-1.06-.55-1.59-.86s-1-.61-1.45-.92-.64-.51-.64-.66A1.91,1.91,0,0,1,89.91,69.38Z"/><path class="cls-4" d="M100.58,75.32l-.37-.31-.88.44c-.09,0-.2,0-.38-.28s-.35-.53-.52-.84-.36-.64-.51-1a2.53,2.53,0,0,1-.22-.66,2.3,2.3,0,0,1,.48-1c.31-.46.66-.92,1.08-1.45l1.17-1.47a7.94,7.94,0,0,0,.81-1.15,5.5,5.5,0,0,1,.27-.52c.11-.27.24-.53.37-.8s.29-.55.4-.79.22-.44.28-.53.13-.26.24-.28a2.75,2.75,0,0,1,.4,0c.18,0,.37,0,.64,0a5.24,5.24,0,0,1,.75.15,2,2,0,0,1,.66.31.64.64,0,0,1,.26.53.2.2,0,0,1,0,.09v.06s-.07.16-.13.33-.14.33-.16.4-.15.31-.28.62-.31.59-.47.92a10.26,10.26,0,0,1-.44,1c-.13.28-.24.48-.28.59l-.22.75V85h-2.58l-.35-.31Zm4.62,6.45a.36.36,0,0,1,.07-.07s0-.07.06-.09a1.4,1.4,0,0,1,.18-.13c.07-.07.11-.09.13-.09h4.1s0,0,.08-.09l.07-.13A.49.49,0,0,0,110,81l.06-.13V74.44l-.06-.13a.59.59,0,0,0-.09-.18l-.07-.13c0-.07-.06-.09-.08-.09h-4.69l-.13-.07a.8.8,0,0,1-.16-.15s-.06,0-.11-.07l0-.06V71h4.69a.76.76,0,0,0,.32-.11,1.12,1.12,0,0,0,.27-.26s.07-.09.13-.18a.33.33,0,0,0,.09-.11V65.2s0,0,.09-.09a.21.21,0,0,1,.13-.07.82.82,0,0,1,.18-.11l.11,0h2.06l.11,0A2.06,2.06,0,0,1,113,65a.42.42,0,0,1,.13.07c.07,0,.09.07.09.09v5a.91.91,0,0,0,.29.53A.72.72,0,0,0,114,71h4.1s0,0,.08.09a.46.46,0,0,0,.07.13,1.5,1.5,0,0,1,.09.18l.06.11v1.76a.42.42,0,0,1-.11.24.74.74,0,0,1-.19.2,1.23,1.23,0,0,1-.16.15l-.13.07H113.7c-.14,0-.25.09-.31.29a1,1,0,0,0-.13.37v6.16a1,1,0,0,0,.13.4.33.33,0,0,0,.31.26h3.67a.5.5,0,0,1,.11.09.7.7,0,0,1,.18.13,1.56,1.56,0,0,1,.17.18.44.44,0,0,1,.13.13v2l-.3.28H105.2Z"/><path class="cls-4" d="M125.73,83.2a.18.18,0,0,1,.15-.11,1.78,1.78,0,0,0,.33,0l.55,0,.53,0,.35,0a1.22,1.22,0,0,0,.38-.09.34.34,0,0,0,.19-.35.51.51,0,0,0-.15-.31.38.38,0,0,0-.28-.19h-5.42l-.31-.38V80.29l.31-.35h5.42c.15,0,.24,0,.28-.15a1.67,1.67,0,0,0,0-.29,1.27,1.27,0,0,0,0-.29c0-.11-.13-.15-.28-.15h-7.62a.16.16,0,0,1-.17-.15,1.79,1.79,0,0,1-.09-.4,2.65,2.65,0,0,1-.05-.38v-.46a2.71,2.71,0,0,1,.05-.37A.62.62,0,0,1,120,77a.27.27,0,0,1,.26-.13h7.49a.26.26,0,0,0,.26-.13.5.5,0,0,0,.06-.24.66.66,0,0,0-.06-.27.32.32,0,0,0-.26-.11h-5.29l-.28-.35V74.57l.28-.35h5.15a.52.52,0,0,0,.38-.11.66.66,0,0,0,.06-.31v-.26c0-.14-.06-.2-.15-.2h-5a.3.3,0,0,0-.06-.09.3.3,0,0,0-.07-.13c0-.05-.06-.11-.09-.18a.33.33,0,0,1-.06-.13V69.29a.7.7,0,0,1,.15-.31c.11-.13.2-.2.29-.2h4.84c.09,0,.13-.06.13-.15a1.13,1.13,0,0,0,0-.22.87.87,0,0,0,0-.2c0-.11,0-.15-.13-.15h-7a.4.4,0,0,1-.33-.2,1.32,1.32,0,0,1-.13-.44,2.75,2.75,0,0,1,0-.48,1.36,1.36,0,0,1,0-.27v-.35a.9.9,0,0,1,0-.24l.28-.38h7a.43.43,0,0,0,.3-.13,3,3,0,0,0,.22-.35c0-.11.11-.24.18-.37a.61.61,0,0,1,.17-.25.78.78,0,0,1,.18-.08.55.55,0,0,1,.13-.07h2a.41.41,0,0,1,.35.2,2,2,0,0,1,.18.44c.06.15.13.28.17.42a.35.35,0,0,0,.33.19h7.33l.29.38v1.6l-.07,0s-.07.06-.07.11a.54.54,0,0,0-.17.13c-.07.07-.11.09-.13.09H132c-.06,0-.11,0-.13.15a.87.87,0,0,0,0,.2,1.13,1.13,0,0,0,0,.22c0,.09.07.15.13.15h5s.06,0,.13.09a1.54,1.54,0,0,0,.17.13l.09.09.05.07V73l-.29.38H132c-.08,0-.13.06-.15.2a2,2,0,0,0,0,.26.43.43,0,0,0,.09.31c0,.06.15.11.37.11h5.28l.37.35v1.76l.51.44c.35,0,.66,0,.88,0a1.51,1.51,0,0,1,.55.15.82.82,0,0,1,.29.4,4.08,4.08,0,0,1,.06.79,2,2,0,0,1,0,.3v.23L140,79a2.06,2.06,0,0,1-.33,0,4.73,4.73,0,0,0-.68.09,1.77,1.77,0,0,0-.66.22.44.44,0,0,0-.31.42v2.77l-.37.31h-2.35a.39.39,0,0,1-.29-.13l-.22-.24-.22-.27a.52.52,0,0,0-.29-.11h-2.06a.35.35,0,0,0-.33.22c-.07.16-.16.35-.25.57a5.56,5.56,0,0,1-.35.75,2.42,2.42,0,0,1-.64.77,3.15,3.15,0,0,1-1.1.55,5.55,5.55,0,0,1-1.8.24h-.55a1.83,1.83,0,0,1-.33,0h-.22a1.35,1.35,0,0,1-.64-.77,2.17,2.17,0,0,1-.24-1Zm.13-11.86a.36.36,0,0,0,.31.15h1.61a.52.52,0,0,0,.28-.13c.11-.07.18-.16.18-.22s0-.07,0-.09a.74.74,0,0,1-.06-.18.46.46,0,0,1-.07-.11h-2.2a.14.14,0,0,0-.15.11v.18A.39.39,0,0,0,125.86,71.34Zm6,0a.35.35,0,0,0,.29.15h1.62a.35.35,0,0,0,.29-.15.41.41,0,0,0,.15-.29s0-.09,0-.18a.14.14,0,0,0-.13-.11h-2.2a.14.14,0,0,0-.13.11c0,.09,0,.14,0,.18A.35.35,0,0,0,131.89,71.34Zm0,8.34c0,.11,0,.17.15.17h2.34c.11,0,.15-.06.17-.17v-.2a.42.42,0,0,0,0-.24c0-.07-.11-.12-.27-.12h-2.06c-.16,0-.25,0-.27.12a.7.7,0,0,0,0,.24A1.09,1.09,0,0,0,131.89,79.68Zm0-3c0,.07.05.11.13.11h2.2c.14,0,.22,0,.27-.09a.43.43,0,0,0,0-.17.83.83,0,0,0,0-.2c0-.09-.07-.11-.15-.11H132c-.08,0-.13,0-.13.11a.62.62,0,0,0,0,.18A.59.59,0,0,0,131.91,76.66Z"/><path class="cls-4" d="M142.32,82.6c.19-.17.48-.39.79-.64l1-.79,1.06-.79c.33-.22.61-.42.86-.57a1.16,1.16,0,0,1,.41-.24,3.21,3.21,0,0,1,.66.08,5.08,5.08,0,0,1,.88.25,3.8,3.8,0,0,1,.73.41.58.58,0,0,1,.31.51v.07a3.79,3.79,0,0,1-.4.39c-.19.2-.42.42-.64.64s-.41.42-.59.62a5.11,5.11,0,0,1-.42.39c-.13.11-.28.29-.5.49s-.47.39-.71.57a6.53,6.53,0,0,1-.72.5,1.14,1.14,0,0,1-.62.22,1.34,1.34,0,0,1-.64-.22A6.88,6.88,0,0,1,143,84a9,9,0,0,1-.71-.62,1,1,0,0,1-.3-.52A3,3,0,0,1,142.32,82.6Zm7.61-3.76h-7.2a.43.43,0,0,1-.41-.26,1.67,1.67,0,0,1-.18-.62c0-.24,0-.48,0-.73s0-.41,0-.52v-.27a1.58,1.58,0,0,0,0-.24l.13-.16a1.06,1.06,0,0,1,.18-.13l.13-.08h3.65a1.84,1.84,0,0,0,.38-.09,2.28,2.28,0,0,0,.39-.27,2.59,2.59,0,0,0,.31-.35.51.51,0,0,0,.13-.33,1.07,1.07,0,0,0-.52-.9c-.38-.24-.77-.49-1.19-.71a9.76,9.76,0,0,1-1.17-.68,1,1,0,0,1-.53-.83,1.11,1.11,0,0,1,.47-1,3.09,3.09,0,0,1,1.1-.46c.39-.11.79-.24,1.18-.37a1.1,1.1,0,0,0,.77-.66.3.3,0,0,0,0-.16.35.35,0,0,0-.2-.33.76.76,0,0,0-.4-.11h-3.23a.45.45,0,0,1-.38-.28,2.28,2.28,0,0,1-.24-.68,4.78,4.78,0,0,1-.11-.73c0-.24,0-.42,0-.51v-.17c0-.09,0-.11,0-.11l.29-.16c.92,0,1.8-.06,2.62-.11s1.6-.06,2.37-.11,1.56-.08,2.36-.15,1.6-.13,2.48-.22a22.9,22.9,0,0,0,2.51-.35,14,14,0,0,1,2.53-.24,1.12,1.12,0,0,1,.64.22,2.93,2.93,0,0,1,.64.55,3.61,3.61,0,0,1,.5.7,1.23,1.23,0,0,1,.22.68c0,.22-.17.4-.5.53a7.78,7.78,0,0,1-1.32.29c-.55.06-1.15.13-1.78.17s-1.3.09-1.9.16a13.25,13.25,0,0,0-1.65.3,2.22,2.22,0,0,0-1.08.51,5.2,5.2,0,0,1-.48.53c-.24.24-.48.5-.75.79s-.53.53-.77.79l-.48.53a.58.58,0,0,1,0,.15v.16a.66.66,0,0,0,.24.53,1,1,0,0,0,.59.19,1,1,0,0,0,.68-.26c.2-.15.38-.31.56-.46s.37-.33.68-.64.68-.64,1-1,.68-.66,1-1,.53-.53.66-.64h.29a1.1,1.1,0,0,1,.44.18,5.92,5.92,0,0,1,.73.4c.26.15.5.33.74.48a2,2,0,0,1,.44.42v.06a1.23,1.23,0,0,1-.39.75,10.32,10.32,0,0,1-1,.9c-.42.33-.84.64-1.32,1s-.91.66-1.32,1-.73.62-1,.88a1.11,1.11,0,0,0-.42.71.87.87,0,0,0,0,.2.15.15,0,0,0,.15.1h2.93a1,1,0,0,0,.26-.1c.11-.09.18-.18.18-.25a1.07,1.07,0,0,0-.07-.39.81.81,0,0,1-.08-.38.7.7,0,0,1,.24-.5,2.08,2.08,0,0,1,.55-.44,3.69,3.69,0,0,1,.7-.33,2.26,2.26,0,0,1,.6-.11,1.4,1.4,0,0,1,.68.28,11.54,11.54,0,0,1,1,.71c.35.3.7.61,1.07,1a11.59,11.59,0,0,1,1,1,7.29,7.29,0,0,1,.71,1,1.35,1.35,0,0,1,.28.66.87.87,0,0,1-.26.55,3.94,3.94,0,0,1-.64.57,3.63,3.63,0,0,1-.75.42,1.62,1.62,0,0,1-.64.15.86.86,0,0,1-.52-.15,5.07,5.07,0,0,1-.44-.37,5.22,5.22,0,0,0-.47-.38,1.36,1.36,0,0,0-.63-.15c-.64,0-1.21,0-1.72,0s-1.14.07-1.87.11l-.15.07-.22.13-.2.13s-.09.09-.09.11v5.72l-.51.44h-2.35L150.7,85a.59.59,0,0,1-.18-.17,1.75,1.75,0,0,1-.15-.18l-.07-.11V79.12Zm5.26,1.65a4.45,4.45,0,0,1,.61-.51,3.92,3.92,0,0,1,.75-.41,1.5,1.5,0,0,1,.57-.16,2.19,2.19,0,0,1,1.08.4,12.62,12.62,0,0,1,1.39.94c.46.38.9.75,1.32,1.13a12.09,12.09,0,0,1,.9.92,1.71,1.71,0,0,1-.35.59,4.33,4.33,0,0,1-.62.58c-.24.17-.48.3-.72.44a1.62,1.62,0,0,1-.64.15,1.11,1.11,0,0,1-.51-.24c-.26-.16-.57-.38-.9-.62L157,82.87c-.37-.29-.72-.58-1-.84s-.55-.51-.77-.7-.31-.31-.31-.38A.69.69,0,0,1,155.19,80.49Z"/><path class="cls-4" d="M48.6,108.69v3.78h-.74v-3.78H44V108h3.84V106.2H44.74V99.78h3.12V98H44.21v-.67h3.65V95.26h.74v2.07h3.68V98H48.6v1.78h3.3v6.42H48.6V108h3.87v.66Zm-3.19-6H47.9v-2.24H45.41Zm0,2.89H47.9v-2.32H45.41Zm5.81-5.13H48.56v2.24h2.66Zm0,2.81H48.56v2.32h2.66Zm9.35,9.23c-.17-.55-.36-1.12-.61-1.73-2.41.33-6.06.75-8.07,1l-.21-.72,1.71-.17c.85-2.81,1.65-6,2.07-8.28H52.38v-.72h8.83v.72h-5c-.47,2.26-1.27,5.41-2.12,8.2l5.56-.6a27.78,27.78,0,0,0-2.09-4l.61-.28a28.28,28.28,0,0,1,3.06,6.31Zm-.21-15.54H53v-.7h7.39Z"/><path class="cls-4" d="M68.36,96.57v15.9h-.69v-3.61l-4.63,1-.19-.74,1.25-.23V96.57H63v-.7h6.5v.7Zm-.69,0H64.79v3.29h2.88Zm0,4H64.79V104h2.88Zm0,7.66v-3.55H64.79v4.12Zm12.68,1.5c-.18,2.22-.54,2.85-1.28,2.75s-1.5-1.4-2-3.51a16.68,16.68,0,0,1-3,3.49l-.58-.36a15.37,15.37,0,0,0,3.34-4,51.17,51.17,0,0,1-.72-5.8H68.74v-.62h2.15a15.93,15.93,0,0,0-.69-3l.59-.17a16.07,16.07,0,0,1,.74,3.19H73a28.29,28.29,0,0,0,.93-3.23l.65.19c-.23.85-.55,2-.93,3h2.45c-.13-2-.23-4.09-.27-6.27h.71c0,2.2.11,4.31.24,6.27h3.44v.62h-3.4c.14,1.83.34,3.48.57,4.87a17.58,17.58,0,0,0,1.39-4.24l.65.17a18,18,0,0,1-1.87,5.09c.44,2.21,1,3.55,1.68,3.61.28,0,.43-.44.51-2.22ZM72,97.52V95.26h.7v2.26h2.6v.61h-5.9v-.61Zm-1.35,13v1h-.66v-8h4.78v7Zm0-6.37v2.43H74v-2.43ZM74,109.87v-2.66H70.6v2.66Zm5.15-10.2a13.71,13.71,0,0,0-1.66-3.25l.52-.29a15,15,0,0,1,1.74,3.27Z"/><path class="cls-4" d="M91.54,103.87a.92.92,0,1,1-.91-.91A.93.93,0,0,1,91.54,103.87Z"/><path class="cls-4" d="M118.21,107h-5v5.43h-.78V107h-5.59v.27c0,2-1.12,3.74-3.79,5.18l-.57-.53c2.56-1.29,3.6-2.89,3.6-4.67V107h-5v-.64h5v-2.25a34,34,0,0,1-3.74.52l-.23-.59a31.54,31.54,0,0,0,7.94-1.58l.37.53a25.2,25.2,0,0,1-3.58,1v2.4h5.59v-3.63h.78v3.63h5Zm-2.16-5.09H103.24v-6h12.81Zm-.78-5.43H104v2.09h11.27Zm0,2.66H104v2.16h11.27Z"/><path class="cls-4" d="M123.61,101.72v10.75h-.76V102.23a27.9,27.9,0,0,1-2.72,6.37l-.45-.74a25.56,25.56,0,0,0,3.15-7.72H120v-.7h2.81V95.26h.76v4.18H126v.7h-2.34v.55c.74,1.2,1.58,2.7,2,3.58l-.45.6C124.83,104.08,124.22,102.84,123.61,101.72Zm13.47,4.69c-.53-.21-1.06-.41-1.58-.66v6.7h-.76v-.74h-6.63v.74h-.74v-6.72h8.11a16.77,16.77,0,0,1-4-2.77,20.09,20.09,0,0,1-5.85,3.59l-.54-.57a18.65,18.65,0,0,0,5.87-3.52,14.67,14.67,0,0,1-2.6-3.59,15.09,15.09,0,0,1-2,2.55l-.65-.42a13.75,13.75,0,0,0,3.52-5.76l.7.17a14.63,14.63,0,0,1-.74,1.94h5.43l.53.21a13,13,0,0,1-3.17,4.88,16.75,16.75,0,0,0,5.66,3.35ZM134.74,111v-4.62h-6.63V111ZM131.46,102a12.06,12.06,0,0,0,2.67-4h-5.31l-.06.11A13.33,13.33,0,0,0,131.46,102Z"/><path class="cls-4" d="M148.54,103.87a.92.92,0,1,1-.91-.91A.93.93,0,0,1,148.54,103.87Z"/><path class="cls-4" d="M161.78,98.68c1.24,2.26,1.27,4.52,1.27,6.8,0,4.77-.11,6.73-1.78,6.94a12.12,12.12,0,0,1-2.41,0l-.06-.71a10.36,10.36,0,0,0,2.22,0c1.29-.15,1.29-1.82,1.29-6.25,0-.61,0-1.21,0-1.8a14.49,14.49,0,0,1-4.08,4.37l-.51-.57a13.42,13.42,0,0,0,4.48-5,9.58,9.58,0,0,0-.91-3.21,18.67,18.67,0,0,1-2.85,2.53l-.55-.48a17.51,17.51,0,0,0,3.06-2.68,11.93,11.93,0,0,0-2.59-2.92l.57-.46a12.1,12.1,0,0,1,2.51,2.77,11.76,11.76,0,0,0,1.67-2.75l.69.17A13.65,13.65,0,0,1,161.78,98.68Zm12.92,13.75c-.21-.58-.46-1.19-.76-1.82-2.93.4-7.5.93-10,1.22l-.19-.78,5.43-.57v-4.85h-3.7v.93h-.72V99.12h4.42V95.26h.76v3.86h4.64v6.51h-4.64v4.77l3.69-.44a30.66,30.66,0,0,0-1.9-3l.61-.3a24.42,24.42,0,0,1,3.09,5.51ZM169.17,105V99.8h-3.7V105Zm.76-5.15V105h3.9V99.8Z"/><path class="cls-4" d="M194.14,110.63v.72h-17v-.72h9.72a85.33,85.33,0,0,0,3.21-9.86l.76.21a100.71,100.71,0,0,1-3.25,9.65ZM193.3,99.5H177.91v-.72h7.26V95.26H186v3.52h7.35Zm-12.75,1.61.71-.21a33.82,33.82,0,0,1,2,8.25l-.74.19A32,32,0,0,0,180.55,101.11Z"/><path class="cls-4" d="M45.25,134.8a39.35,39.35,0,0,0,4.54-.21v.82c-1.34.09-3.13.13-4.78.13-1.31,0-2.53,0-3.31,0-2.45-.14-3.87-1.13-3.87-3.75V120.55h.81v6.67a48.42,48.42,0,0,0,10.19-3.46l.43.69A59.18,59.18,0,0,1,38.64,128v3.74c0,2.06,1,2.83,3.1,3C42.44,134.76,43.81,134.8,45.25,134.8Zm4.94-12.1-.47.32a14.78,14.78,0,0,0-2.15-2.68L48,120A15.52,15.52,0,0,1,50.19,122.7Zm1.92-1.1-.49.32a14,14,0,0,0-2.15-2.68l.42-.34A16.72,16.72,0,0,1,52.11,121.6Z"/><path class="cls-4" d="M60,128.17a35.84,35.84,0,0,0-5.15-2.28l.34-.66a35.6,35.6,0,0,1,5.17,2.28Zm9-2.94.55.57a24.08,24.08,0,0,1-13.2,9.93L56,135A23.12,23.12,0,0,0,69,125.23Zm-7.1-1.2a31.64,31.64,0,0,0-5-2.39l.36-.67a35.12,35.12,0,0,1,5,2.41Zm3.81-2.91.42-.4a17.39,17.39,0,0,1,2.47,2.53l-.47.38A14.05,14.05,0,0,0,65.75,121.12Zm4.83.76-.44.38a14.89,14.89,0,0,0-2.43-2.52l.4-.36A15.36,15.36,0,0,1,70.58,121.88Z"/><path class="cls-4" d="M88,132.86a41.53,41.53,0,0,0-6.44-3.74v6.78h-.82v-6.63a30.36,30.36,0,0,1-6.55,3.65l-.44-.68c4.77-1.73,10.07-5.84,12.21-9H74.52v-.76h6.17v-2.7h.82v2.7h5.11l.53.42a25.25,25.25,0,0,1-5.4,5.53,46.25,46.25,0,0,1,6.75,3.81Z"/><path class="cls-4" d="M107.71,135.41l-.69.49a48.45,48.45,0,0,0-6.15-6.17,23.71,23.71,0,0,1-7.49,6.15l-.51-.64c5.28-2.55,9.9-8.28,11.23-12.69H94v-.74h10.58l.55.32a22.28,22.28,0,0,1-3.78,7A55.47,55.47,0,0,1,107.71,135.41Z"/><path class="cls-4" d="M120,127.87a.92.92,0,1,1-.91-.91A.93.93,0,0,1,120,127.87Z"/><path class="cls-4" d="M145.61,135c0,1.16-.46,1.42-1.77,1.42l-1.72,0-.12-.73c.5,0,1.22,0,1.73,0,.85,0,1.12-.11,1.12-.78v-14H131.38v15.55h-.76V120.19h15Zm-2-11H132.54v-.66h11.11Zm-2,8.34h-6.42v1.39h-.72v-7.2h7.14Zm-6.42-5.15v4.49h5.68v-4.49Z"/><path class="cls-4" d="M152.15,123.88v12.59h-.76V125.34a30.46,30.46,0,0,1-2.49,3.78l-.53-.57a26.7,26.7,0,0,0,4.75-9.29l.74.17A28.26,28.26,0,0,1,152.15,123.88Zm7.54,7.5v4.11c0,.76-.27,1-1.16,1-.47,0-1.16,0-1.59,0l-.08-.68c.42,0,1.06,0,1.54,0s.55-.1.55-.36v-4.05h-3.8v-4.73a11.55,11.55,0,0,1-1.61.82l-.5-.53a9.55,9.55,0,0,0,3-1.77,15.8,15.8,0,0,0-2-1.86l.48-.38a17.07,17.07,0,0,1,2,1.76,9.22,9.22,0,0,0,1.65-2.37h-4.48v-.65h4.77a14,14,0,0,0,.68-2.41l.74,0a17.38,17.38,0,0,1-.68,2.37h6.52v.65h-5.08a8.67,8.67,0,0,0,1.9,2.55,17.38,17.38,0,0,0,2-2l.57.34a20.14,20.14,0,0,1-2.17,2,10,10,0,0,0,3,1.65l-.47.57a9.85,9.85,0,0,1-1.73-.84v4.77Zm-2.49,1.14a11.31,11.31,0,0,1-3.28,3.17l-.55-.43a10.17,10.17,0,0,0,3.13-2.93Zm5.76-6.08h-7.09v1.88H163Zm-7.09,4.35H163v-1.94h-7.09Zm.38-5h6.35a9.41,9.41,0,0,1-2.72-3.51h-1A9.76,9.76,0,0,1,156.25,125.83Zm9.33,9.46-.66.37a23.82,23.82,0,0,0-3.5-3l.55-.36A26.91,26.91,0,0,1,165.58,135.29Z"/><path class="cls-4" d="M184.69,134.74v.73H167.54v-.73h7.71V119.26H176v6.14h7.22v.72H176v8.62Z"/><path class="cls-4" d="M202.14,134.88c0,1.29-.54,1.59-2,1.59-.64,0-1.5,0-2.09,0l-.09-.76c.59,0,1.46.06,2.07.06,1,0,1.35-.13,1.35-.95V121H187.74v-.7h14.4Zm-3-10.66H188.44v-.7h10.73Zm-1.55,8.42h-7.11v1.5h-.74v-7.3h7.85Zm-7.11-5.11V132h6.36v-4.42Z"/><circle class="cls-1" cx="120.5" cy="26" r="25"/><circle class="cls-5" cx="120.5" cy="26" r="25"/><path d="M111.47,31.64A144.78,144.78,0,0,1,125,12.5l-1.46.38a63.94,63.94,0,0,1,6.86,3.22l-.54-2.05q-4.14,6.35-8.6,12.47c-.72,1-1.45,2-2.19,3L117.92,31a7.29,7.29,0,0,0-1,1.38l-.19.23c.78,0,1-.14.56-.34-.11-.18-.53-.36-.71-.47l-1.6-1.06-3.2-2.12c-1.62-1.07-3.12,1.53-1.52,2.59l3.56,2.35c1,.65,2.31,1.93,3.57,1.86s2-1.3,2.64-2.21q1.32-1.72,2.61-3.46,5.14-7,9.88-14.21a1.52,1.52,0,0,0-.54-2.06A70.24,70.24,0,0,0,124.36,10a1.45,1.45,0,0,0-1.46.39,149.14,149.14,0,0,0-14,19.74,1.5,1.5,0,0,0,2.59,1.52Z"/><path d="M108.65,28.4A78.22,78.22,0,0,1,106,39.19c-.38,1.18,1.13,2.47,2.2,1.7,3.43-2.47,8-3.22,10.78-6.56a1.54,1.54,0,0,0,0-2.12,1.51,1.51,0,0,0-2.12,0A8.5,8.5,0,0,1,114.81,34a23,23,0,0,1-2.68,1.43,31.46,31.46,0,0,0-5.42,2.85l2.2,1.69a78.61,78.61,0,0,0,2.64-10.79,1.55,1.55,0,0,0-1-1.85,1.52,1.52,0,0,0-1.85,1Z"/><path d="M108.06,36.42a4,4,0,0,0,1.22,1.23,3.72,3.72,0,0,0,.78.37,2.17,2.17,0,0,0,.5.13l.4-2.95a1.71,1.71,0,0,1-.32,0l.4.05a1.62,1.62,0,0,1-.43-.12l.36.15a1.36,1.36,0,0,1-.37-.21l.3.23-.06,0-1.06,2.56,1.19,0,.4-.05a1.14,1.14,0,0,0,.51-.27.64.64,0,0,0,.27-.27,1.05,1.05,0,0,0,.27-.51l0-.4,0-.4a1.15,1.15,0,0,0-.27-.51,1,1,0,0,0-.42-.38,4.41,4.41,0,0,0-.59-.26,1.4,1.4,0,0,0-.28-.06,3.5,3.5,0,0,0-.65-.07h-.15a4.67,4.67,0,0,0-.52.08A1.13,1.13,0,0,0,109,35a1.18,1.18,0,0,0-.38.42,1.16,1.16,0,0,0-.18.56,1,1,0,0,0,0,.6,1.51,1.51,0,0,0,.69.9l.35.15a1.55,1.55,0,0,0,.8,0l.11,0-.4,0h.41l-.4,0a1.56,1.56,0,0,1,.37.1l-.36-.15.15.07.75-2.8-1.19,0-.4.06L109,35l-.31.23a1.21,1.21,0,0,0-.31.49.7.7,0,0,0-.1.38.65.65,0,0,0,0,.39.7.7,0,0,0,.1.38,1.21,1.21,0,0,0,.31.49,3.93,3.93,0,0,0,.57.41,3.55,3.55,0,0,0,.63.28,1.87,1.87,0,0,0,.32.08,3.5,3.5,0,0,0,.72.06,1.06,1.06,0,0,0,.58-.13,1.08,1.08,0,0,0,.48-.31l.24-.3a1.11,1.11,0,0,0,.17-.56.68.68,0,0,0,0-.4,1.08,1.08,0,0,0-.17-.55l-.24-.31a1.57,1.57,0,0,0-.66-.38,2.19,2.19,0,0,1-.57-.16l.36.15a2.62,2.62,0,0,1-.51-.3l.3.24a2.52,2.52,0,0,1-.4-.4l.24.3-.13-.18a1.55,1.55,0,0,0-.9-.69,1.22,1.22,0,0,0-.6,0,1.12,1.12,0,0,0-.55.18,1.52,1.52,0,0,0-.69.9l-.06.39a1.55,1.55,0,0,0,.21.76Z"/></svg>