<svg id="レイヤー_1" data-name="レイヤー 1" xmlns="http://www.w3.org/2000/svg" viewBox="0 0 240 153.5"><defs><style>.cls-1{fill:#fff;}.cls-2,.cls-3,.cls-5{fill:none;stroke:#000;stroke-linecap:round;stroke-linejoin:round;stroke-width:2px;}.cls-3{stroke-dasharray:0.3 7.04;}.cls-4{fill:#231815;}.cls-5{stroke-dasharray:0.29 6.84;}</style></defs><path class="cls-1" d="M152,22.5h72a15,15,0,0,1,15,15v100a15,15,0,0,1-15,15H16a15,15,0,0,1-15-15V37.5a15,15,0,0,1,15-15H87.5"/><line class="cls-2" x1="152.01" y1="22.5" x2="152.16" y2="22.5"/><path class="cls-3" d="M159.2,22.5H224a15,15,0,0,1,15,15v100a15,15,0,0,1-15,15H16a15,15,0,0,1-15-15V37.5a15,15,0,0,1,15-15H83.83"/><line class="cls-2" x1="87.35" y1="22.5" x2="87.5" y2="22.5"/><path class="cls-4" d="M21.14,81.5a5.26,5.26,0,0,1,.37-.64c.16-.19.29-.37.44-.57a2.7,2.7,0,0,0,.38-.57c.61-1.23,1.19-2.44,1.67-3.61a30.36,30.36,0,0,0,1.25-3.74,5.07,5.07,0,0,0,.14-.9,12.08,12.08,0,0,1,.22-1.5A7.49,7.49,0,0,1,26,68.59c.18-.4.37-.62.64-.62l.77,0a9.4,9.4,0,0,1,1,.14,2.9,2.9,0,0,1,.9.33.68.68,0,0,1,.38.59.22.22,0,0,1,0,.09c0,.11-.06.28-.11.53s-.11.52-.17.81-.11.55-.18.79-.09.42-.11.51c-.06.28-.2.79-.39,1.49s-.42,1.5-.71,2.38-.57,1.78-.9,2.73-.66,1.8-1,2.6A12.38,12.38,0,0,1,25,82.93c-.35.51-.68.75-1,.75a3.23,3.23,0,0,1-.75-.13c-.33-.11-.68-.24-1-.38a4.68,4.68,0,0,1-.88-.5c-.24-.18-.37-.35-.37-.53A1.56,1.56,0,0,1,21.14,81.5ZM34.85,76A74.43,74.43,0,0,0,32,69v-.06a.51.51,0,0,1,.11-.35,1,1,0,0,1,.33-.18l.44-.13.66-.24c.24-.09.46-.16.66-.22l.44-.14h.15c.25,0,.58.33,1,1A22.9,22.9,0,0,1,37,71.16c.42,1,.86,2.11,1.3,3.3s.84,2.31,1.19,3.37.64,2,.86,2.75A7.87,7.87,0,0,1,40.68,82a.81.81,0,0,1-.44.68,3.61,3.61,0,0,1-1,.46,8.63,8.63,0,0,1-1,.26,2.72,2.72,0,0,0-.66.14h-.07a1,1,0,0,1-.29-.09.73.73,0,0,1-.22-.2C36.37,80.75,35.64,78.33,34.85,76Zm1.89-10a2.54,2.54,0,0,1,.57-.79,2.07,2.07,0,0,1,.82-.53,2.49,2.49,0,0,1,1-.2,2.54,2.54,0,0,1,1,.22,2.72,2.72,0,0,1,.83.57,2.8,2.8,0,0,1,.55.86,2.69,2.69,0,0,1,.2,1,2.37,2.37,0,0,1-.2,1,2.48,2.48,0,0,1-.55.81,2.52,2.52,0,0,1-1.76.73A2.48,2.48,0,0,1,36.54,67,2.54,2.54,0,0,1,36.74,66Zm1.52,1.91a1.06,1.06,0,0,0,.75.27,1.36,1.36,0,0,0,.85-.25.85.85,0,0,0,.38-.81,1.2,1.2,0,0,0-1.19-1.19.87.87,0,0,0-.81.38,1.45,1.45,0,0,0-.25.88A1,1,0,0,0,38.26,67.88Z"/><path class="cls-4" d="M61.93,76.33l-.29.31H44.48a.38.38,0,0,1-.35-.2A.81.81,0,0,1,44,76V73.25a1.11,1.11,0,0,0,.05-.13c0-.07.06-.13.08-.16s0-.06.07-.08.07-.07.09-.07h17.6Z"/><path class="cls-4" d="M70.68,81.61V65.92l.07-.06.13-.09.16-.09.13,0H74l.44.44V71.2c0,.09.09.18.25.27l.33.17c.57.22,1.21.42,1.87.62s1.36.42,2,.64,1.39.48,2,.75a14.72,14.72,0,0,1,1.82.92.85.85,0,0,1,.29.26,1.29,1.29,0,0,1,0,.34,2.72,2.72,0,0,1-.13.63,4.8,4.8,0,0,1-.33,1,4.29,4.29,0,0,1-.48.93.75.75,0,0,1-.55.39.34.34,0,0,1-.14,0c-1.07-.48-2.17-1-3.25-1.43a30.39,30.39,0,0,0-3.35-1.21.83.83,0,0,1-.22.11c-.15.07-.22.13-.22.2v8l-.31.31H70.88c-.09,0-.15-.07-.17-.2s0-.22,0-.24Z"/><path class="cls-4" d="M90.75,81.9c.26-.2.59-.46,1-.82A15.3,15.3,0,0,0,93,79.87a11.38,11.38,0,0,0,1.3-1.54,10.06,10.06,0,0,0,1-1.8,5.25,5.25,0,0,0,.4-2v-.18c0-.09,0-.18,0-.26a.52.52,0,0,0-.08-.2.23.23,0,0,0-.2-.11H88v-3l.29-.28h6.88a.77.77,0,0,0,.36-.2c.17-.11.24-.2.24-.24V65.92s0,0,.07-.08a.5.5,0,0,1,.08-.07.68.68,0,0,0,.16-.09l.13,0H99a.46.46,0,0,1,.29.13.41.41,0,0,1,.15.31v4s.09.13.25.24a.68.68,0,0,0,.33.2h6a.41.41,0,0,1,.29.15.46.46,0,0,1,.15.29v2.33a.53.53,0,0,1-.06.13.74.74,0,0,1-.09.18l-.07.13c0,.07-.06.09-.08.09h-6.3c-.06,0-.13.13-.24.39s-.2.58-.33,1-.24.84-.39,1.32-.27,1-.4,1.41-.26.86-.37,1.21a2.51,2.51,0,0,1-.33.77c-.2.33-.47.75-.82,1.26a15.79,15.79,0,0,1-1.14,1.45,9.52,9.52,0,0,1-1.35,1.21,2.46,2.46,0,0,1-1.38.5,2.21,2.21,0,0,1-.79-.22c-.31-.15-.62-.33-.93-.52a4.55,4.55,0,0,1-.75-.69,1,1,0,0,1-.33-.63A3.21,3.21,0,0,1,90.75,81.9Z"/><path class="cls-4" d="M127.93,76.33l-.29.31H110.48a.38.38,0,0,1-.35-.2A.81.81,0,0,1,110,76V73.25a1.11,1.11,0,0,0,0-.13l.08-.16s0-.06.07-.08.07-.07.09-.07h17.6Z"/><path class="cls-4" d="M132,73.4v-.15a1.8,1.8,0,0,1,.15-.7,3.74,3.74,0,0,1,.4-.8,3.11,3.11,0,0,1,.59-.61,1,1,0,0,1,.64-.27.28.28,0,0,1,.13,0,.9.9,0,0,1,.16,0c.09,0,.22.13.44.24l.66.42q.36.19.66.39a2.53,2.53,0,0,1,.44.27,4.28,4.28,0,0,1,.46.24,5.26,5.26,0,0,1,.64.37,3.24,3.24,0,0,1,.57.47.74.74,0,0,1,.24.5,2.06,2.06,0,0,1-.15.73,3.2,3.2,0,0,1-.42.77,2.65,2.65,0,0,1-.55.64,1,1,0,0,1-.64.26l-.15,0h-.16a6,6,0,0,0-.63-.42c-.31-.18-.64-.4-1-.61l-1-.62c-.31-.2-.53-.33-.64-.42l-.17-.11-.29-.18-.26-.17-.16-.11A.69.69,0,0,0,132,73.4Zm1.36,7.71c.33-.14.77-.31,1.3-.51l1.7-.66,1.8-.66,1.54-.62a7.77,7.77,0,0,0,1-.41,17,17,0,0,0,2.79-1.94A25,25,0,0,0,146,74c.13-.16.31-.4.53-.73l.72-1a8.54,8.54,0,0,1,.8-.93,1,1,0,0,1,.68-.39c.17,0,.35.13.55.39s.37.55.55.88.31.68.42,1a2.8,2.8,0,0,1,.17.66,3.26,3.26,0,0,1-.92,2,15.67,15.67,0,0,1-2.36,2.27,32.08,32.08,0,0,1-3.21,2.29c-1.19.72-2.35,1.38-3.52,2a26.66,26.66,0,0,1-3.19,1.4,6.87,6.87,0,0,1-2.33.55,1,1,0,0,1-.66-.33,4.76,4.76,0,0,1-.64-.81,5.47,5.47,0,0,1-.48-1,2.8,2.8,0,0,1-.18-.77S133.05,81.26,133.38,81.11Zm2.23-13.58a3.48,3.48,0,0,1,.46-.77,4.27,4.27,0,0,1,.57-.68.76.76,0,0,1,.51-.31,3,3,0,0,1,1,.35c.51.27,1,.53,1.54.86s1,.66,1.39,1,.59.62.59.81a1.52,1.52,0,0,1-.17.66,4.64,4.64,0,0,1-.44.82,4.7,4.7,0,0,1-.6.66,1,1,0,0,1-.63.28,2.94,2.94,0,0,1-.34-.15c-.24-.11-.5-.26-.83-.44s-.71-.37-1.08-.59-.75-.47-1.08-.69a5.72,5.72,0,0,1-.83-.66.92.92,0,0,1-.31-.55A1.38,1.38,0,0,1,135.61,67.53Z"/><path class="cls-4" d="M155.47,72.59a.7.7,0,0,1,.35-.55,4.46,4.46,0,0,1,.82-.4,7.57,7.57,0,0,1,.83-.24,5.05,5.05,0,0,1,.53-.06c.2,0,.4.19.64.61s.44.86.66,1.37a12.54,12.54,0,0,1,.55,1.47,3.91,3.91,0,0,1,.22.9.62.62,0,0,1-.31.53,2.28,2.28,0,0,1-.72.4,6.08,6.08,0,0,1-.8.24,5.79,5.79,0,0,1-.59.09.78.78,0,0,1-.44-.09c-.09,0-.15-.18-.24-.37s-.16-.38-.29-.73-.28-.73-.44-1.12-.31-.75-.44-1.1-.24-.58-.31-.73S155.47,72.68,155.47,72.59Zm3.41,10c.29-.22.68-.46,1.15-.77l1.56-1q.85-.57,1.65-1.17a17.52,17.52,0,0,0,1.45-1.14,7.82,7.82,0,0,0,.93-1,4,4,0,0,0,.39-.84c.18-.37.35-.83.55-1.34s.4-1,.6-1.56.39-1,.55-1.5.33-.81.46-1.1.2-.44.24-.44l.15,0a2.13,2.13,0,0,0,.44.16c.2.06.44.13.66.22a5.86,5.86,0,0,1,.66.2,3.51,3.51,0,0,1,.44.15,1.36,1.36,0,0,1,.4.2.5.5,0,0,1,.2.39,6.79,6.79,0,0,1-.49,2.29,16.28,16.28,0,0,1-1.32,2.8,28.16,28.16,0,0,1-1.87,2.88,24.86,24.86,0,0,1-2.24,2.57,12.66,12.66,0,0,1-2.36,1.83,4.41,4.41,0,0,1-2.22.7l-.28,0a.75.75,0,0,1-.25-.13l-1.89-1.91s0,0,0-.07v-.13Zm1.74-11.31a.68.68,0,0,1,.31-.53,3.46,3.46,0,0,1,.75-.33,3.16,3.16,0,0,1,.81-.17,3.37,3.37,0,0,1,.57-.07.48.48,0,0,1,.38.15.89.89,0,0,1,.26.38,1.57,1.57,0,0,1,.18.44,3.32,3.32,0,0,0,.13.35,4.34,4.34,0,0,0,.18.46c.08.24.17.46.26.73l.26.7c.09.22.16.38.18.46a.77.77,0,0,0,0,.18v.2a2.3,2.3,0,0,1,0,.37c0,.13-.11.22-.29.29l-1,.42a2.55,2.55,0,0,1-1,.17c-.2,0-.33,0-.4-.11A.89.89,0,0,1,162,75c0-.13-.15-.35-.26-.68s-.27-.68-.4-1.06-.28-.72-.42-1.08-.19-.57-.24-.7A.9.9,0,0,1,160.62,71.27Z"/><path class="cls-4" d="M180,83.94a4.49,4.49,0,0,1-.51-.48c-.17-.18-.33-.35-.48-.48s-.24-.27-.31-.33-.33-.36-.44-.47a.57.57,0,0,1-.17-.48s.11-.11.35-.22l.9-.44c.35-.18.77-.37,1.23-.59s.88-.42,1.28-.62.79-.4,1.12-.57a5,5,0,0,0,.7-.42,13.16,13.16,0,0,0,1.63-1.41,13.55,13.55,0,0,0,1.52-1.83A11.61,11.61,0,0,0,188,73.54a5.52,5.52,0,0,0,.44-2.12v-.26a1.62,1.62,0,0,0,0-.24.46.46,0,0,0-.28-.22.68.68,0,0,0-.31-.09H176.48l-.31-.29V67.53l.31-.29h13.05c.24,0,.42-.15.57-.46s.31-.64.51-1a3.57,3.57,0,0,1,.77-1,1.87,1.87,0,0,1,1.38-.47,2.62,2.62,0,0,1,1.92.73,2.51,2.51,0,0,1,.72,1.89,1.93,1.93,0,0,1-.28,1.17,2.67,2.67,0,0,1-.68.66l-.88.53a2.34,2.34,0,0,0-.8.77,3.29,3.29,0,0,0-.52,1.12c-.14.44-.25.86-.36,1.32s-.19.88-.3,1.32a5.23,5.23,0,0,1-.44,1.21,16.86,16.86,0,0,1-1,1.78c-.44.69-.92,1.37-1.47,2.07a26.66,26.66,0,0,1-1.8,2,19,19,0,0,1-2,1.76,10.62,10.62,0,0,1-2.11,1.25,5.15,5.15,0,0,1-2.05.49h-.09a.4.4,0,0,0-.13-.09.71.71,0,0,1-.15-.07C180.24,84.19,180.13,84.1,180,83.94ZM192,67.62a1,1,0,0,0,.79.37,1,1,0,0,0,.86-.35,1.44,1.44,0,0,0,.26-.88,1,1,0,0,0-.26-.73,1,1,0,0,0-.73-.28,1.52,1.52,0,0,0-.88.26.87.87,0,0,0-.35.79A1.29,1.29,0,0,0,192,67.62Z"/><path class="cls-4" d="M197.32,82.6c.19-.17.48-.39.79-.64l1-.79,1.06-.79c.33-.22.61-.42.86-.57a1.16,1.16,0,0,1,.41-.24,3.21,3.21,0,0,1,.66.08,5.08,5.08,0,0,1,.88.25,3.8,3.8,0,0,1,.73.41.58.58,0,0,1,.31.51v.07a3.79,3.79,0,0,1-.4.39l-.64.64c-.19.22-.41.42-.59.62a5.11,5.11,0,0,1-.42.39c-.13.11-.28.29-.5.49s-.47.39-.71.57a6.53,6.53,0,0,1-.72.5,1.14,1.14,0,0,1-.62.22,1.34,1.34,0,0,1-.64-.22A6.88,6.88,0,0,1,198,84a9,9,0,0,1-.71-.62,1,1,0,0,1-.3-.52A3,3,0,0,1,197.32,82.6Zm7.61-3.76h-7.2a.43.43,0,0,1-.41-.26,1.67,1.67,0,0,1-.18-.62c0-.24,0-.48,0-.73s0-.41,0-.52v-.27a1.58,1.58,0,0,0,0-.24l.13-.16a1.06,1.06,0,0,1,.18-.13l.13-.08h3.65a1.84,1.84,0,0,0,.38-.09,2.28,2.28,0,0,0,.39-.27,2.59,2.59,0,0,0,.31-.35.51.51,0,0,0,.13-.33,1.07,1.07,0,0,0-.52-.9c-.38-.24-.77-.49-1.19-.71a9.76,9.76,0,0,1-1.17-.68,1,1,0,0,1-.53-.83,1.11,1.11,0,0,1,.47-1,3.09,3.09,0,0,1,1.1-.46c.39-.11.79-.24,1.18-.37a1.1,1.1,0,0,0,.77-.66.3.3,0,0,0,0-.16.35.35,0,0,0-.2-.33.76.76,0,0,0-.4-.11h-3.23a.45.45,0,0,1-.38-.28,2.28,2.28,0,0,1-.24-.68,4.78,4.78,0,0,1-.11-.73c0-.24,0-.42,0-.51v-.17c0-.09,0-.11,0-.11l.29-.16c.92,0,1.8-.06,2.62-.11s1.6-.06,2.37-.11,1.56-.08,2.36-.15,1.6-.13,2.48-.22a22.9,22.9,0,0,0,2.51-.35,14,14,0,0,1,2.53-.24,1.12,1.12,0,0,1,.64.22,2.93,2.93,0,0,1,.64.55,3.61,3.61,0,0,1,.5.7,1.23,1.23,0,0,1,.22.68c0,.22-.17.4-.5.53a7.78,7.78,0,0,1-1.32.29c-.55.06-1.15.13-1.78.17s-1.3.09-1.9.16a13.25,13.25,0,0,0-1.65.3,2.1,2.1,0,0,0-1.07.51c-.09.11-.25.29-.49.53s-.48.5-.75.79-.53.53-.77.79l-.48.53a.58.58,0,0,1,0,.15v.16a.66.66,0,0,0,.24.53,1,1,0,0,0,.59.19,1,1,0,0,0,.68-.26c.2-.15.38-.31.56-.46s.37-.33.68-.64.68-.64,1-1,.68-.66,1-1,.53-.53.66-.64h.29a1.1,1.1,0,0,1,.44.18,5.92,5.92,0,0,1,.73.4c.26.15.5.33.74.48a2,2,0,0,1,.44.42v.06a1.23,1.23,0,0,1-.39.75,10.32,10.32,0,0,1-1,.9c-.42.33-.84.64-1.32,1s-.91.66-1.32,1-.73.62-1,.88a1.13,1.13,0,0,0-.41.71.87.87,0,0,0,0,.2.14.14,0,0,0,.15.1h2.93a1,1,0,0,0,.26-.1c.11-.09.18-.18.18-.25a1.07,1.07,0,0,0-.07-.39.81.81,0,0,1-.08-.38.7.7,0,0,1,.24-.5,2.08,2.08,0,0,1,.55-.44,3.69,3.69,0,0,1,.7-.33,2.26,2.26,0,0,1,.6-.11,1.4,1.4,0,0,1,.68.28,11.54,11.54,0,0,1,1,.71c.35.3.7.61,1.07,1a11.59,11.59,0,0,1,1,1,7.29,7.29,0,0,1,.71,1,1.35,1.35,0,0,1,.28.66.87.87,0,0,1-.26.55,3.94,3.94,0,0,1-.64.57,3.63,3.63,0,0,1-.75.42,1.62,1.62,0,0,1-.64.15.86.86,0,0,1-.52-.15,5.07,5.07,0,0,1-.44-.37,5.22,5.22,0,0,0-.47-.38,1.36,1.36,0,0,0-.63-.15c-.64,0-1.21,0-1.72,0s-1.14.07-1.87.11l-.15.07-.22.13-.2.13s-.09.09-.09.11v5.72l-.51.44h-2.35a.92.92,0,0,1-.11-.11.59.59,0,0,1-.18-.17,1.75,1.75,0,0,1-.15-.18l-.07-.11V79.12Zm5.26,1.65a4.45,4.45,0,0,1,.61-.51,4.25,4.25,0,0,1,.75-.41,1.5,1.5,0,0,1,.57-.16,2.19,2.19,0,0,1,1.08.4,12.62,12.62,0,0,1,1.39.94c.46.38.9.75,1.32,1.13a12.09,12.09,0,0,1,.9.92,1.71,1.71,0,0,1-.35.59,4.33,4.33,0,0,1-.62.58c-.24.17-.48.3-.72.44a1.62,1.62,0,0,1-.64.15,1.11,1.11,0,0,1-.51-.24c-.26-.16-.57-.38-.9-.62L212,82.87c-.37-.29-.72-.58-1-.84s-.55-.51-.77-.7-.31-.31-.31-.38A.69.69,0,0,1,210.19,80.49Z"/><path class="cls-4" d="M37.27,106.75l.69.19a13.45,13.45,0,0,1-2.76,4.72l-.7-.33A12,12,0,0,0,37.27,106.75Zm14.44-9.44v.63H45.16v6c0,.78-.29,1-1.24,1-.49,0-1.17,0-1.63,0l-.08-.64c.42,0,1.11,0,1.58,0s.63-.1.63-.42V97.94H41.93c-.27,3.5-1,6.15-4.09,7.66l-.57-.48c3-1.39,3.71-3.93,3.94-7.18H34.54v-.63h8.19v-2h.78v2Zm-16.35,6.33-.65-.36a12.88,12.88,0,0,0,3.65-4l.66.27A14,14,0,0,1,35.36,103.64Zm11.55,5.6.74.16c-.14,2.52-.34,2.79-2,2.79H41.49c-1.5,0-2-.34-2-1.62v-4.08h.74v4.08c0,.72.3.9,1.31.9h4C46.77,111.47,46.87,111.29,46.91,109.24Zm-1.73-.4-.67.35a15.45,15.45,0,0,0-2.37-3.29l.57-.36A16.39,16.39,0,0,1,45.18,108.84Zm5.68-5.31a32.36,32.36,0,0,0-3.57-4l.59-.34a33.47,33.47,0,0,1,3.64,4Zm-2.21,3a22.37,22.37,0,0,1,3,4.71l-.74.29A21.38,21.38,0,0,0,48,106.81Z"/><path class="cls-4" d="M70.31,112.49a29.86,29.86,0,0,1-8.13-2.22A30.93,30.93,0,0,1,54,112.49l-.47-.62a30.64,30.64,0,0,0,7.9-2,13.12,13.12,0,0,1-3.38-2.45,20.86,20.86,0,0,1-3.93,2.66l-.59-.46a15.66,15.66,0,0,0,5.91-4.75l.81.1a13.08,13.08,0,0,1-1,1.29h6.82l.59.26A8.81,8.81,0,0,1,63,109.89a29,29,0,0,0,7.81,2ZM54.89,102.08h-.72V99.21h3.09a7.56,7.56,0,0,0-1-1.92l.62-.28A8.32,8.32,0,0,1,58,99.19l0,0H61.8a9,9,0,0,0-1-2.24l.61-.25c-2.3.18-4.61.27-6.44.27l-.25-.65a91.23,91.23,0,0,0,14-1.06l.34.61c-1.86.32-4.69.62-7.56.83a9.46,9.46,0,0,1,1.06,2.49h3.21l-.11,0a21.85,21.85,0,0,0,1.9-2.83l.68.28a24.32,24.32,0,0,1-1.8,2.6h3.69v2.87h-.77V99.82H54.89Zm2.18-.74.63.25a8.68,8.68,0,0,1-2.87,3l-.61-.38A7.73,7.73,0,0,0,57.07,101.34Zm5.15,8.21a8.53,8.53,0,0,0,3.27-2.62H58.63l0,0A11.84,11.84,0,0,0,62.22,109.55Zm-2.68-8.42v2.24c0,.55.23.69,1.12.69H64.2c1.06,0,1.14-.12,1.17-1.52l.67.15c-.11,1.78-.3,2-1.77,2H60.59c-1.35,0-1.73-.27-1.73-1.3v-2.24Zm1.1-.63.48-.39a12.44,12.44,0,0,1,2.7,2.07l-.57.38A12.9,12.9,0,0,0,60.64,100.5Zm9.29,3.67-.6.38a17.14,17.14,0,0,0-3.1-3l.51-.38A17.34,17.34,0,0,1,69.93,104.17Z"/><path class="cls-4" d="M82,103.87a.92.92,0,1,1-.91-.91A.93.93,0,0,1,82,103.87Z"/><path class="cls-4" d="M96.92,101.36a16.36,16.36,0,0,1,2.58,3.82l-.61.34a11.25,11.25,0,0,0-.61-1.18l-2.35.23v7.9h-.74v-7.82l-3.57.3-.18-.72,1.3-.08c.62-.78,1.27-1.59,1.86-2.39a19.73,19.73,0,0,0-2.91-3.23l.44-.49.93.87a27.56,27.56,0,0,0,2.28-3.65l.66.31a34.43,34.43,0,0,1-2.5,3.79c.58.63,1.12,1.28,1.52,1.81A46.41,46.41,0,0,0,97.71,97l.71.32a69.44,69.44,0,0,1-4.79,6.73l4.29-.33a16.15,16.15,0,0,0-1.57-2ZM93,106l.69.11a17.21,17.21,0,0,1-1.47,4.94l-.64-.27A15.36,15.36,0,0,0,93,106Zm5-.1a19.43,19.43,0,0,1,1.23,3.88l-.66.18a19,19,0,0,0-1.22-3.85Zm6.17-6.74v3.55h4v.7H99.42v-.7h4V99.16H98.76v-.69h4.63V95.26h.76v3.21h4.58v.69Zm-4.31,6.53h8v6.78h-.74v-.68h-6.52v.68h-.72Zm.72.69v4.71h6.52v-4.71Z"/><path class="cls-4" d="M117.17,110.52l-.59.49a22.5,22.5,0,0,0-2.07-2.45,11.46,11.46,0,0,1-3.4,3.89l-.55-.55a11,11,0,0,0,3.44-3.85c-.69-.69-1.47-1.39-2.3-2.07l-.25.77-.66-.3c.55-1.63,1.31-4.18,1.95-6.67h-2.22V99.1h2.39c.36-1.39.69-2.72.92-3.84l.74,0c-.25,1.12-.59,2.43-.93,3.8h2.88l.48.06a24.83,24.83,0,0,1-2.15,8.73A26.06,26.06,0,0,1,117.17,110.52Zm-2.83-3.14a23,23,0,0,0,1.88-7.6h-2.76c-.51,1.92-1.06,3.9-1.53,5.49C112.8,106,113.62,106.7,114.34,107.38Zm13.52-5.6c-.19,1.82-.51,2.31-1.32,2.26-1.49-.1-2.72-1.67-3.48-4.18h-4.12V103l4.29-.47,0,.61-6.14.74-.17-.69,1.24-.11V96.51h.64a50.49,50.49,0,0,0,8.08-1.21l.32.59a41.3,41.3,0,0,1-4.09.8,19.15,19.15,0,0,0,.48,2.54h4.08v.63h-3.89c.7,2.13,1.76,3.44,2.83,3.49.32,0,.49-.3.59-1.76Zm-9.63,2.89h8.61v7.78h-.74v-.66H119v.66h-.73Zm4.66-5.44a21.78,21.78,0,0,1-.48-2.43c-1.23.17-2.45.28-3.47.36v2.07Zm-3.93,6.1v2.51h7.14v-2.51Zm7.14,5.81v-2.69H119v2.69Z"/><path class="cls-4" d="M139,103.87a.92.92,0,1,1-.91-.91A.93.93,0,0,1,139,103.87Z"/><path class="cls-4" d="M165.69,111.75l-.53.7a10.82,10.82,0,0,1-8-7.29c-.76,2.83-3.08,5.34-8.1,7.26l-.49-.63c5.13-1.9,7.33-4.39,7.92-7.2h-7.86v-.72h8a8.1,8.1,0,0,0,.06-1V99.5h-6.76v-.72h6.76V95.26h.78v3.52h6.88v.72h-6.88v3.38a8.1,8.1,0,0,1-.06,1h8.29v.72h-7.91A10.17,10.17,0,0,0,165.69,111.75Z"/><path class="cls-4" d="M171.38,107.88a26.73,26.73,0,0,1,2.33,2.92l-.55.49a24.06,24.06,0,0,0-2.11-2.73,11.33,11.33,0,0,1-3.05,3.91l-.54-.55a11,11,0,0,0,3.12-3.91c-.61-.67-1.27-1.33-2-2l-.22.74-.65-.3c.53-1.65,1.25-4.24,1.86-6.74h-2V99h2.2c.33-1.37.63-2.66.84-3.78l.7,0c-.23,1.1-.51,2.39-.83,3.74h2.45l.47.06A27.35,27.35,0,0,1,171.38,107.88Zm-.5-.54a24.91,24.91,0,0,0,1.71-7.63h-2.33c-.48,2-1,4-1.47,5.58C169.55,106,170.26,106.68,170.88,107.34Zm13.47-4.5v2.66h-.7v-2H179.2v2h4.07v4.73c0,.69-.23.9-1,.9H181l-.06-.69c.32,0,.82,0,1.16,0s.44-.07.44-.3v-4H179.2v6.36h-.72v-6.36h-3.21v5.09h-.72v-5.76h3.93v-2h-4.25v2h-.71v-2.66Zm-.93-1.69h-9v-.61h8.26V98.7H175v-.59h7.71V96.34h-8.19v-.62h8.91Z"/><path class="cls-4" d="M188.25,101.87v10.6h-.76V95.89H194v6Zm0-5.37v2h5v-2Zm5,4.75V99.12h-5v2.13Zm-1.71,2.5h7.14V110H191.5Zm.72,2.81h5.7v-2.2h-5.7Zm0,2.84h5.7v-2.28h-5.7Zm10.56,1.52c0,1.25-.49,1.55-1.94,1.55-.58,0-1.4,0-2,0l-.1-.74c.55,0,1.37.06,1.94.06,1,0,1.29-.13,1.29-.91v-9h-5.91v-6h6.67ZM196.86,96.5v2H202v-2Zm5.16,4.75V99.12h-5.16v2.13Z"/><path class="cls-4" d="M47.17,126.23v10.24h-.74v-9.29a23.37,23.37,0,0,1-2.12,2.21l-.54-.54a17.88,17.88,0,0,0,4.28-5.45l.74.23A15.23,15.23,0,0,1,47.17,126.23Zm-2.66-2.31-.55-.5a17.15,17.15,0,0,0,3.95-4.16l.73.23A20.11,20.11,0,0,1,44.51,123.92Zm16.38,12.53a17.68,17.68,0,0,1-5.7-2.11,21,21,0,0,1-5.85,2.11l-.51-.62a21,21,0,0,0,5.71-1.9,10.46,10.46,0,0,1-2.73-2.74A16.33,16.33,0,0,1,49,133.45l-.55-.47a12.82,12.82,0,0,0,4.63-4.66H50.65v-5.09l-.85.91-.67-.36a13.43,13.43,0,0,0,3.06-4.52l.78.12a13.51,13.51,0,0,1-.7,1.5h8.94v.64H51.87a15.2,15.2,0,0,1-1.18,1.64h9.08v5.16H53.92a10.59,10.59,0,0,1-1,1.6h5.83l.57.21a8.41,8.41,0,0,1-3.4,3.8,17.12,17.12,0,0,0,5.49,1.86Zm-9.52-11H59v-1.71H51.37Zm0,2.28H59V126H51.37Zm3.88,5.8a8.1,8.1,0,0,0,3-3H52.38l-.08.09A9.47,9.47,0,0,0,55.25,133.53Z"/><path class="cls-4" d="M67.16,128.4v8h-.72v-8l-3.29.24L63,128l1.24-.06c.62-.81,1.25-1.67,1.84-2.5a19.32,19.32,0,0,0-2.91-3l.4-.51.91.8a26.54,26.54,0,0,0,2.07-3.46l.67.31a32.31,32.31,0,0,1-2.28,3.59,15.2,15.2,0,0,1,1.54,1.71A41.1,41.1,0,0,0,68.87,121l.67.3a62.73,62.73,0,0,1-4.49,6.54l3.67-.23a11.51,11.51,0,0,0-1.31-1.88l.55-.29a12.57,12.57,0,0,1,2,3.1l-.59.3-.29-.64Zm-2.75,1.46.64.1a17.68,17.68,0,0,1-1.44,4.9l-.63-.27A15.4,15.4,0,0,0,64.41,129.86Zm5.45,3.36-.65.18a16.66,16.66,0,0,0-.79-3.48l.62-.19A17.49,17.49,0,0,1,69.86,133.22Zm10.69,1.22L80,135c-2.3-1.58-4-4.6-4.92-9h-.19a9.34,9.34,0,0,1-1.31,1.27,9.06,9.06,0,0,1,2.55,6.27c0,2.47-.8,3-2.26,3-.42,0-.9,0-1.28-.05l-.07-.63a7.84,7.84,0,0,0,1.19.06c1.13,0,1.73-.31,1.73-2.42a7.9,7.9,0,0,0-.24-1.93,13.93,13.93,0,0,1-5.46,3.95l-.45-.53a12.79,12.79,0,0,0,5.7-4.17,7.57,7.57,0,0,0-.71-1.53A12.68,12.68,0,0,1,70.43,132l-.44-.52a11.55,11.55,0,0,0,4-2.81,7.35,7.35,0,0,0-.87-1.08,18.1,18.1,0,0,1-3.17,1.82l-.44-.51a15.21,15.21,0,0,0,4.6-3H69.33v-.63h8.2v-2.17h-6.3v-.62h6.3v-2.09H70.87v-.65h7.39v5.53h1.95V126H75.73a20,20,0,0,0,1,3.42,24,24,0,0,0,2.92-2.62l.55.47A27.72,27.72,0,0,1,77,130,9.89,9.89,0,0,0,80.55,134.44Z"/><path class="cls-4" d="M91.54,127.87a.92.92,0,1,1-.91-.91A.93.93,0,0,1,91.54,127.87Z"/><path class="cls-4" d="M105.1,127.24v9.21h-.76v-9.61a26.78,26.78,0,0,1-3.11,6.18l-.46-.73a23.32,23.32,0,0,0,3.48-7H101v-.68h3.32v-3.54a21.3,21.3,0,0,1-3,.63l-.32-.64a20.85,20.85,0,0,0,6.31-1.79l.47.55a17.48,17.48,0,0,1-2.72,1v3.74h2.84v.68H105.1v1c1,1.21,2,2.71,2.61,3.61l-.5.57C106.72,129.67,105.92,128.38,105.1,127.24Zm2.49,5.93-.64-.31a14,14,0,0,0,1.71-6.25l.68.12A16.21,16.21,0,0,1,107.59,133.17Zm8.06-.17.7.13c-.11,2.77-.28,3-1.56,3h-2.68c-1.17,0-1.61-.38-1.61-2v-.45a24.81,24.81,0,0,1-2.87,2.54l-.57-.49a24.4,24.4,0,0,0,3.44-3.12v-9.48h.74v8.63a23.79,23.79,0,0,0,4.83-10.3l.72.1a25.13,25.13,0,0,1-5.55,11.3v1.26c0,1,.25,1.29,1,1.29h2.53C115.55,135.45,115.61,135.33,115.65,133Zm-5.23-13.23.44-.49a20.57,20.57,0,0,1,3.9,3.25l-.54.49A19,19,0,0,0,110.42,119.77Zm7.94,12.94-.74.17a25.15,25.15,0,0,0-1.54-6.11l.65-.19A26,26,0,0,1,118.36,132.71Z"/><path class="cls-4" d="M123.88,124.94a11.28,11.28,0,0,1-3.08,4.16l-.63-.38a10.07,10.07,0,0,0,3-4Zm-2.09-.64h-.74v-3.14h7.1v-1.9h.78v1.9h7.37v3.14h-.76v-2.46H121.79Zm12.65,7.12h.76v5h-.76v-.83H122.83v.83h-.76v-5h.76v3.51h5.32v-4.54h.78v4.54h5.51Zm-11.67-.82a22.7,22.7,0,0,0,2.72-1.29c-.38-.23-.51-.61-.51-1.27v-3.78h.7V128c0,.49.15.72.63.82a15.52,15.52,0,0,0,5.72-5.91l.62.3a15.8,15.8,0,0,1-5.24,5.64H131c1.22,0,1.31-.13,1.35-1.91l.69.15c-.14,2.2-.35,2.45-2,2.45H126.9a4.35,4.35,0,0,1-.53,0,23.45,23.45,0,0,1-3,1.5Zm6.56-5.41a13.58,13.58,0,0,0-2.89-2.38l.46-.45a14.57,14.57,0,0,1,3,2.39Zm7.81,3.55-.69.32a14.61,14.61,0,0,0-2.73-4l.59-.35A15.63,15.63,0,0,1,137.14,128.74Z"/><path class="cls-4" d="M155.11,128.09c0,3.71-1.78,6.43-6.84,7.51l-.38-.76c4.81-.91,6.4-3.36,6.4-6.75,0-3.62-2.29-5.85-6.28-5.85H148c-.21,7.34-2.55,12.3-5,12.3-1.54,0-2.92-2.32-2.92-4.94a8,8,0,0,1,7.9-8.1C152.7,121.5,155.11,124.14,155.11,128.09Zm-7.94-5.81a7.19,7.19,0,0,0-6.38,7.3c0,2.07,1,4.12,2.18,4.12C144.78,133.7,147,129.25,147.17,122.28Z"/><path class="cls-4" d="M159.73,125.4v11.07H159V119.89h6.48v5.51Zm0-4.9v1.82h5V120.5Zm5,4.29v-1.9h-5v1.9Zm2,7.12c-.49,1.39-2,2.63-4.67,3.69l-.52-.53c2.74-1,4.2-2.23,4.56-3.56h-4.76v-.6h4.84v-2.23h-4.39v-.6h2.57a9.5,9.5,0,0,0-1.14-2l.6-.24a9.45,9.45,0,0,1,1.24,2.28h3a16.61,16.61,0,0,0,1.41-2.28l.68.19a18,18,0,0,1-1.35,2.09h2.7v.6h-4.56v2.23h5v.6h-4.66a6.16,6.16,0,0,0,4.64,3.27l-.44.59A6.72,6.72,0,0,1,166.72,131.91Zm7.58,3.19c0,1.09-.44,1.35-1.67,1.35-.48,0-1.12,0-1.56,0l-.07-.7c.43,0,1.08,0,1.52,0,.77,0,1-.1,1-.72V125.4h-5.93v-5.51h6.69Zm-5.94-14.6v1.82h5.18V120.5Zm5.18,4.29v-1.9h-5.18v1.9Z"/><path class="cls-4" d="M180.38,123.86v12.57h-.74V125.3a29.15,29.15,0,0,1-2.47,3.74l-.49-.6a26.5,26.5,0,0,0,4.69-9.2l.74.17A27.07,27.07,0,0,1,180.38,123.86Zm7.79,5.66v6.95h-.76v-6.91l-5.55.3-.13-.74,3.44-.13,1.44-1.54a24.09,24.09,0,0,0-4.4-3.57l.45-.5,1.54,1.05a30.07,30.07,0,0,0,2.62-3.31c-1.59.19-3.17.31-4.46.34l-.25-.68a51.12,51.12,0,0,0,11-1.5l.38.63a39.7,39.7,0,0,1-5.72,1.08,34.36,34.36,0,0,1-3.09,3.82,21.39,21.39,0,0,1,2.43,2.09,49.19,49.19,0,0,0,3.63-4.48l.66.34A63.6,63.6,0,0,1,186.1,129l6-.3a26,26,0,0,0-2.07-2.23l.55-.38a22.83,22.83,0,0,1,3.63,4.3l-.64.38c-.29-.48-.61-.95-1-1.47Zm-3.7,1.2.7.17a19.26,19.26,0,0,1-2.53,4.69l-.62-.36A17.22,17.22,0,0,0,184.47,130.72Zm6.61-.12a21.66,21.66,0,0,1,3,4.58l-.7.32a21.39,21.39,0,0,0-2.91-4.57Z"/><circle class="cls-1" cx="120.5" cy="26" r="25"/><circle class="cls-5" cx="120.5" cy="26" r="25"/><path d="M118.78,38.14c-3.47-3.89-9.14-7.64-9-13.47a5.17,5.17,0,0,1,10-2l2.36-1.82-.18-.2.44,1.06c0-.23,1.65-1.2,1.87-1.33a6.26,6.26,0,0,1,2.4-.95,5.84,5.84,0,0,1,4.12,1,5.78,5.78,0,0,1,1.43,7.81c-1.58,2.53-4.43,4-7,5.33-2.91,1.54-5.7,3.17-7.69,5.86-1.15,1.55,1.45,3,2.59,1.51,2-2.7,5.31-4,8.17-5.61,2.63-1.45,5.31-3.33,6.76-6,3.2-5.94-1.38-13.44-8.24-12.85-2.35.2-9.64,3.33-6.81,6.56,1.19,1.37,3-.37,2.35-1.82a8.25,8.25,0,0,0-7.78-4.77,8.35,8.35,0,0,0-7.39,5.69c-2.5,7.71,5.12,13.26,9.52,18.2,1.29,1.44,3.4-.69,2.12-2.13Z"/></svg>