<svg id="レイヤー_1" data-name="レイヤー 1" xmlns="http://www.w3.org/2000/svg" viewBox="0 0 567 212.21"><defs><style>.cls-1{fill:#fff;}.cls-2,.cls-3{fill:none;stroke:#000;stroke-linecap:round;stroke-linejoin:round;stroke-width:2px;}.cls-3{stroke-dasharray:0.3 7.01;}.cls-4{fill:#b3b3b3;}</style></defs><path class="cls-1" d="M350.05,12.21H560.33A5.69,5.69,0,0,1,566,17.88V205.55a5.68,5.68,0,0,1-5.67,5.66H6.67A5.68,5.68,0,0,1,1,205.55V17.88a5.69,5.69,0,0,1,5.67-5.67H214"/><line class="cls-2" x1="350.05" y1="12.21" x2="350.2" y2="12.21"/><path class="cls-3" d="M357.21,12.21H560.33A5.69,5.69,0,0,1,566,17.88V205.55a5.68,5.68,0,0,1-5.67,5.66H6.67A5.68,5.68,0,0,1,1,205.55V17.88a5.69,5.69,0,0,1,5.67-5.67H210.36"/><line class="cls-2" x1="213.87" y1="12.21" x2="214.02" y2="12.21"/><path class="cls-4" d="M243,.05h.46a4.94,4.94,0,0,0,.64,0l.75,0a2,2,0,0,1,.69.1,1.26,1.26,0,0,1,.56.26V.77a1.73,1.73,0,0,1-.17.77,1.69,1.69,0,0,0-.17.76,1.81,1.81,0,0,0,.05.36.29.29,0,0,0,.29.2h6.86l.34.38V22.3h-3a.86.86,0,0,0-.17-.17,1.81,1.81,0,0,0-.24-.24,1.81,1.81,0,0,0-.24-.24c-.07-.1-.12-.14-.14-.17l-.17-.09a.45.45,0,0,0-.17-.05h-9.27a.54.54,0,0,0-.38.14,1.08,1.08,0,0,0-.26.31c-.08.15-.15.24-.22.36a.36.36,0,0,1-.26.15H236l-.07-.07c-.05,0-.09-.08-.09-.1s-.08-.1-.12-.17l-.05-.14V3.58a.5.5,0,0,1,.05-.15.88.88,0,0,1,.12-.19A2.13,2.13,0,0,1,236,3l.12-.16h5.28a.49.49,0,0,0,.5-.41,4.83,4.83,0,0,0,.2-.89c0-.34.07-.65.11-1a.59.59,0,0,1,.32-.55Zm-3.77,7.7a.67.67,0,0,0,.62.29h9.27a.74.74,0,0,0,.38-.19c.17-.14.27-.24.27-.29V6.46s0,0-.07-.1l-.1-.07a.5.5,0,0,0-.17-.1.33.33,0,0,0-.14-.07h-9.77a.35.35,0,0,0-.22.12.71.71,0,0,0-.14.29,1.86,1.86,0,0,0-.1.31c0,.12,0,.19,0,.24A1.23,1.23,0,0,0,239.19,7.75Zm-.14,4.59a1.69,1.69,0,0,0,.09.31.93.93,0,0,0,.15.26.23.23,0,0,0,.19.1h9.94l.31-.31V11.57l-.31-.31h-9.94a.24.24,0,0,0-.19.09.87.87,0,0,0-.15.29,1.08,1.08,0,0,0-.09.29,1.33,1.33,0,0,0-.05.19A.91.91,0,0,0,239.05,12.34Zm0,5.06a1.25,1.25,0,0,0,.1.31.71.71,0,0,0,.14.29.35.35,0,0,0,.22.12h9.94l.31-.31V16.68c0-.05-.1-.14-.27-.29a.74.74,0,0,0-.38-.19h-9.27a.66.66,0,0,0-.62.31,1.23,1.23,0,0,0-.19.65C239,17.23,239,17.31,239,17.4Z"/><path class="cls-4" d="M260.12,18.94l.33-.41h7.83a.39.39,0,0,0,.24-.12.81.81,0,0,0,.21-.24,1.85,1.85,0,0,0,.13-.29.64.64,0,0,0,.07-.24v-2.4a.63.63,0,0,0-.07-.21,1.51,1.51,0,0,0-.13-.29,1.09,1.09,0,0,0-.21-.27.34.34,0,0,0-.24-.09h-5.43l-.33-.24V11.57l.33-.41h5.6a.36.36,0,0,0,.33-.26,2,2,0,0,0,.12-.6,4.7,4.7,0,0,0,.05-.63V9a5,5,0,0,0-.05-.62,2.2,2.2,0,0,0-.12-.63.36.36,0,0,0-.33-.26h-7l-.33-.41V4.68l.33-.38h7.52s.07,0,.14-.15a3,3,0,0,1,.17-.26.14.14,0,0,0,0-.07.56.56,0,0,0,0-.1,1.5,1.5,0,0,0-.07-.17l-.07-.14s-.13-.07-.32-.19a3.93,3.93,0,0,1-.6-.44,6.1,6.1,0,0,1-.62-.52.77.77,0,0,1-.27-.53.79.79,0,0,1,.27-.55,2.78,2.78,0,0,1,.62-.56,4.11,4.11,0,0,1,.75-.43,1.43,1.43,0,0,1,.65-.17A3.34,3.34,0,0,1,271,.41a5.8,5.8,0,0,1,1.39,1,4.88,4.88,0,0,1,1,1.3,2.06,2.06,0,0,1,.34,1.37l.31.24H280l.31.38v2.4l-.31.41h-6.72a.87.87,0,0,0-.15.09,1.26,1.26,0,0,0-.16.15.24.24,0,0,0-.1.1l-.07.07v2.88l.31.38h5.62l.12.15c.07.11.14.19.19.26a.52.52,0,0,1,.09.17l.08.14V13.8s0,.07-.08.15a.85.85,0,0,1-.09.19s-.05.07-.1.14-.05.1-.07.1h-5.59l-.15.07c-.07.07-.14.12-.16.17s-.08.05-.1.09l-.07,0v3.36s0,.05.07.1l.1.07.16.14a.62.62,0,0,1,.15.1h8a.25.25,0,0,1,.1.1c0,.07.07.12.07.14a1.57,1.57,0,0,1,.12.19.55.55,0,0,0,.05.12v2.09s0,.07-.05.14a.83.83,0,0,1-.12.17s-.05.07-.07.1a.33.33,0,0,1-.1.07H260.45l-.33-.31Z"/><path class="cls-4" d="M291.63,19.61c0-.19.07-.29.17-.29h3.05l.14-.09a.65.65,0,0,0,.17-.15l.09-.07.08-.07V16.85s0,0-.08-.05a.62.62,0,0,0-.09-.12.63.63,0,0,0-.17-.14l-.14-.1h-8l-.33-.38V14l.48-.55h8a.26.26,0,0,0,.23-.19,3.45,3.45,0,0,0,.25-.44,2.2,2.2,0,0,1,.26-.45.67.67,0,0,1,.36-.29,2.11,2.11,0,0,0,.34-.05,3.49,3.49,0,0,0,.43-.07,1,1,0,0,0,.36-.19.41.41,0,0,0,.17-.34.61.61,0,0,0,0-.21c0-.12-.07-.17-.14-.17h-5.76c-.08,0-.2-.07-.29-.24a.74.74,0,0,1-.19-.34V8.52l.31-.31L301.57,8a1.22,1.22,0,0,1,.6.17,4.05,4.05,0,0,1,.57.41c.2.14.36.31.53.45s.29.29.39.41v.17s-.05.07-.1.17a.54.54,0,0,1-.07.14c-.07.07-.27.26-.58.53s-.62.55-1,.86-.65.63-1,.94a2.33,2.33,0,0,0-.53.72v.17s.05.07.07.14.07.1.1.1h6.72l.12.07a.81.81,0,0,1,.19.17s.07.05.12.07a.16.16,0,0,0,.05.07v2.26l-.31.38h-8c-.1,0-.19.07-.29.24A1,1,0,0,0,299,17a16.81,16.81,0,0,1-.24,2.69,3.22,3.22,0,0,1-.72,1.68,2.94,2.94,0,0,1-1.54.84,13.31,13.31,0,0,1-2.69.24,3.35,3.35,0,0,1-.45,0h-.43a.57.57,0,0,1-.48-.31,4.28,4.28,0,0,1-.41-.77,8.73,8.73,0,0,1-.29-.86,1.84,1.84,0,0,1-.12-.6ZM287.48,3.74c.24,0,.5,0,.77,0a3.74,3.74,0,0,0,.69-.24.46.46,0,0,0,.31-.46.71.71,0,0,0-.09-.38,3.79,3.79,0,0,0-.22-.36,1.91,1.91,0,0,1-.24-.32.71.71,0,0,1-.09-.38.59.59,0,0,1,.28-.46,3.86,3.86,0,0,1,1.44-.64,1.67,1.67,0,0,1,.51-.1h.33a3.5,3.5,0,0,1,.77,1c.22.38.41.72.63,1.06a3.59,3.59,0,0,0,.67.84,1.5,1.5,0,0,0,1.05.36,1.22,1.22,0,0,0,.63-.15.48.48,0,0,0,.26-.5,1.65,1.65,0,0,0-.26-.89,1.53,1.53,0,0,1-.24-.86.66.66,0,0,1,.24-.53,1.78,1.78,0,0,1,.6-.39,3.72,3.72,0,0,1,.72-.16,3.66,3.66,0,0,1,.65-.08,1.16,1.16,0,0,1,.79.27,1.52,1.52,0,0,1,.45.65,3.76,3.76,0,0,1,.27.86,3.68,3.68,0,0,0,.31.86,1.9,1.9,0,0,0,.48.65,1.38,1.38,0,0,0,.86.27,1.56,1.56,0,0,0,1.25-.53A5.25,5.25,0,0,0,302,1.87c.19-.41.39-.79.58-1.15a.9.9,0,0,1,.82-.53.08.08,0,0,1,.07,0l.53.12c.21,0,.45.09.72.16a4,4,0,0,1,.72.22,3.76,3.76,0,0,1,.6.29l.14.14a.39.39,0,0,1,0,.17.82.82,0,0,1-.12.43,2.1,2.1,0,0,1-.31.41c-.09.12-.19.26-.29.38a1,1,0,0,0-.12.46.48.48,0,0,0,.29.46,2.45,2.45,0,0,0,.63.21,5.34,5.34,0,0,0,.69.05h.51l.14.34V9.17l-.31.31h-2.4l-.31-.31a1.82,1.82,0,0,1,0-.46c0-.19,0-.41,0-.65s-.05-.48-.1-.72a3.81,3.81,0,0,0-.19-.57.14.14,0,0,0-.07-.1l-.07-.07H290.21l-.4.34V9c0,.1-.08.19-.22.31a.75.75,0,0,1-.34.17h-2.08a.5.5,0,0,1-.34-.17.39.39,0,0,1-.14-.31V4.2a.32.32,0,0,1,.12-.24c.09-.1.14-.19.19-.24Z"/><path class="cls-4" d="M315.65,12.84l.32-.38h4.8s.09-.07.24-.22a1.71,1.71,0,0,0,.24-.36s0,0,0-.05v-.09a1.15,1.15,0,0,0,0-.24c0-.12-.1-.17-.17-.17h-2.23a.46.46,0,0,1-.43-.29c-.1-.19-.17-.41-.27-.65a4.24,4.24,0,0,0-.31-.64.66.66,0,0,0-.6-.29h-.17l-.14,0-2.72,1.13h-.14a1.09,1.09,0,0,0-.17,0,.77.77,0,0,1-.52-.21,1.43,1.43,0,0,1-.41-.53,3.58,3.58,0,0,1-.27-.65,1.58,1.58,0,0,1-.09-.55.66.66,0,0,1,.48-.65l.48-.14c.21-.07.45-.17.72-.24s.5-.2.72-.27l.48-.14s.09-.07.16-.15l.15-.16s0,0,0-.07a.75.75,0,0,0-.31-.65,4.16,4.16,0,0,0-.67-.46,3.64,3.64,0,0,1-.67-.43.73.73,0,0,1-.29-.62.88.88,0,0,1,.09-.46,1.27,1.27,0,0,0,.1-.48A.33.33,0,0,0,314,3.5l-.29-.19-.31-.14a1.2,1.2,0,0,1-.26-.24,4.11,4.11,0,0,1,0-.41V1.7a1,1,0,0,1,.05-.4A.85.85,0,0,1,313.3,1a.55.55,0,0,1,.43-.14h8.48a.63.63,0,0,1,.26.12.77.77,0,0,1,.22.22c0,.24,0,.67,0,1.29s0,1.27.05,2,.05,1.37.05,2,0,1.06.05,1.3v2.4a.56.56,0,0,0,.38.29,4.38,4.38,0,0,0,.5,0,2.23,2.23,0,0,0,.39,0c.12,0,.16-.12.16-.29a1.31,1.31,0,0,0-.09-.51,2.42,2.42,0,0,0-.24-.45c-.07-.17-.14-.31-.22-.48a1.31,1.31,0,0,1-.09-.51A.39.39,0,0,1,323.7,8c0-.08.12-.12.26-.22s.19-.07.38-.12a4.18,4.18,0,0,1,.6-.19c.2-.08.39-.12.58-.2l.36-.14a1.33,1.33,0,0,0,.43-.24.42.42,0,0,0,.24-.38.56.56,0,0,0-.29-.51l-.62-.36a6.34,6.34,0,0,1-.6-.36.6.6,0,0,1-.29-.52.83.83,0,0,1,.19-.51.6.6,0,0,0,.15-.48.87.87,0,0,0-.22-.43c-.12-.07-.21-.17-.33-.24a1.32,1.32,0,0,1-.32-.31,1.38,1.38,0,0,1-.12-.6V1.78a1.4,1.4,0,0,1,.1-.44.91.91,0,0,1,.22-.33.38.38,0,0,1,.36-.17h8.3a.72.72,0,0,1,.38.22c.17.12.27.21.27.26v8a1.5,1.5,0,0,1-.34,1,2.05,2.05,0,0,1-.84.58,4.89,4.89,0,0,1-1.05.26c-.39,0-.75,0-1.06,0h-1.2a1,1,0,0,1-.38-.55,5.19,5.19,0,0,1-.22-.7,2,2,0,0,0-.31-.6.76.76,0,0,0-.6-.27s-.17,0-.46.1l-1,.26a4.92,4.92,0,0,0-1,.37c-.29.14-.43.28-.43.43v1.75l.34.41h6.24c.14,0,.26.09.33.29a1,1,0,0,1,.15.43v8.64a1,1,0,0,1-.12.41.39.39,0,0,1-.36.21h-2.57c-.05-.05-.17-.12-.31-.24s-.29-.19-.34-.24a.84.84,0,0,0-.17-.07l-.14-.07h-8.64c-.05.05-.15.12-.31.24a4,4,0,0,0-.34.24.57.57,0,0,1-.17.07.33.33,0,0,1-.14.07H316l-.32-.31Zm2.57-6a2.23,2.23,0,0,1,.39.89c.05.31.09.62.12.88a.38.38,0,0,0,.43.41.61.61,0,0,0,.43-.24.61.61,0,0,0,.22-.38V4.06a1,1,0,0,0-.19-.39c-.12-.17-.22-.26-.29-.26h-2.4c-.1,0-.12,0-.15.12a1,1,0,0,0,0,.21v.15l.82.79a.3.3,0,0,0,0,.1V4.9a.65.65,0,0,1-.07.33c-.07.12-.12.22-.2.34a1.44,1.44,0,0,1-.19.31.77.77,0,0,0-.07.34,1,1,0,0,0,0,.24A1.22,1.22,0,0,1,318.22,6.82Zm.84,8.78c.05.1.07.12.1.12h9c.07,0,.14,0,.14-.12a.68.68,0,0,0,0-.19.39.39,0,0,0-.14-.31.5.5,0,0,0-.36-.17h-8.3a.5.5,0,0,0-.34.17.39.39,0,0,0-.14.31A.36.36,0,0,0,319.06,15.6Zm.1,3.51a.6.6,0,0,0,.34.14h8.3a.61.61,0,0,0,.36-.14.5.5,0,0,0,.14-.34.37.37,0,0,0-.21-.36,1,1,0,0,0-.43-.12h-8a1,1,0,0,0-.41.12.37.37,0,0,0-.21.36A.5.5,0,0,0,319.16,19.11ZM329.74,8.86H330c.24,0,.41-.15.53-.46a3.86,3.86,0,0,0,.19-1,9.3,9.3,0,0,0,0-1.18c0-.38,0-.65,0-.79V4.73a2.62,2.62,0,0,0,0-.41V4.06a2,2,0,0,0-.17-.39c-.12-.17-.21-.26-.31-.26h-2.06c-.1,0-.17,0-.17.12a.64.64,0,0,0,0,.21v.1a.06.06,0,0,1,0,.05,1.12,1.12,0,0,0,.29.33c.19.15.28.27.36.32V6a2.26,2.26,0,0,1,1.2.33,1.67,1.67,0,0,1,.4,1.35s0,.07,0,.07a.22.22,0,0,1-.07.12l-.17.21a2.43,2.43,0,0,0-.14.2l-.1.12a.34.34,0,0,0-.07.16.41.41,0,0,0-.07.15C329.58,8.79,329.62,8.86,329.74,8.86Z"/></svg>