<svg id="レイヤー_1" data-name="レイヤー 1" xmlns="http://www.w3.org/2000/svg" viewBox="0 0 498.41 88.08"><defs><style>.cls-1{fill:#f0908a;}</style></defs><path class="cls-1" d="M30.19,33.32s6.63-4.71,8.07-16l6.52,1.58C41.86,34.28,30.19,33.32,30.19,33.32Zm27.27-20.5v1.92H51.55c-.24,6-.53,14.45-.53,21.36H46.85C46,28.66,45.6,20.5,45.41,14.74h-12V12.82h12L45.17,7h6.72s-.15,2.3-.29,5.81h2l1.92-1.92Z"/><path class="cls-1" d="M77.76,15.94s-4.56-2.55-8.35-2.59l0-5C78.14,8.83,77.76,15.94,77.76,15.94ZM92.64,15S97,27.6,70.89,35.09l-1.48-6.53C88,23.43,92.64,15,92.64,15Z"/><path class="cls-1" d="M111,13.35s3.94,0,19.25.33c0,24-17.62,22.42-17.62,22.42s9.17-4,10.71-18.29L111,18.24Zm18.77-3.46H112.46V8H126l1.92-1.92L129.79,8Z"/><path class="cls-1" d="M145.49,17.76s11-.57,19.34-11.66l5.38,4a23.56,23.56,0,0,1-6.87,6.29c-.24,3.17-.72,10.56-.72,19.68h-3.74c-.91-7.2-1.49-13.49-1.82-17.33A21.93,21.93,0,0,1,145.49,17.76Z"/><path class="cls-1" d="M193,15.94s-4.56-2.55-8.35-2.59l0-5C193.34,8.83,193,15.94,193,15.94ZM207.84,15s4.32,12.57-21.75,20.06l-1.48-6.53C203.23,23.43,207.84,15,207.84,15Z"/><path class="cls-1" d="M247.63,22s-1,10.41-13.44,14.11h-5.42c-.67-13-.87-28.23-.87-28.23h6.72s0,9.89-.24,21.51A21.2,21.2,0,0,0,247.63,22Z"/><path class="cls-1" d="M264.86,13.39H269a43.85,43.85,0,0,0,1,8.74S264.86,22.47,264.86,13.39Zm15.08,3.51h5.61c0,19.2-17.18,19.2-17.18,19.2S279.94,30,279.94,16.9Zm-8.69-3.51h4.22a46,46,0,0,0,1,8.74S271.25,22.47,271.25,13.39Z"/><path class="cls-1" d="M298.41,36.1a30,30,0,0,0,15.84-23.38c-6.86.29-11.47.29-11.47.29V8.11s8.45,0,18.48.34c0,8.5-2.16,14.35-5.13,18.43,2.73-.43,7.39-.14,12.67,4.51L324,36.1c-2.64-3.36-7-6.29-9.12-7.63A23.86,23.86,0,0,1,298.41,36.1Z"/><path class="cls-1" d="M346.56,15.94s-4.56-2.55-8.35-2.59l0-5C346.94,8.83,346.56,15.94,346.56,15.94ZM361.44,15s4.32,12.57-21.75,20.06l-1.48-6.53C356.83,23.43,361.44,15,361.44,15Z"/><path class="cls-1" d="M372.05,32.16c1.53-.38,2.92-.81,4.17-1.24-.48-13-.57-21.8-.57-21.8h6.52s0,6.63-.24,19.3A21.27,21.27,0,0,0,385.77,26s0,8.88-12,12.72Zm20.4-11.28L386,22.66a27.86,27.86,0,0,0-3.22-11A12.64,12.64,0,0,1,392.45,20.88ZM401.66.82c0,12.91-1.87,21.36-4.32,26.93,2.79.43,6.39,2.06,9.41,7l-6.33,3.89a30.23,30.23,0,0,0-4.66-7.73c-4.32,7.2-9.41,7.44-9.41,7.44s8.59-8.93,8.59-37.49Z"/><path class="cls-1" d="M423.7,27.75a27.8,27.8,0,0,1-6.25,8c-3.64,3.08-6.48,3.08-6.48,3.08s4.85-4.56,9-16.28a41,41,0,0,0-6.34-4.36,7.65,7.65,0,0,1-3.5,2s2.5-6.53,5-20.16l6.19,1.44A50.88,50.88,0,0,1,420,6.82h10.61C428.74,16.37,426.24,23,423.7,27.75Zm-.24-18.58h-4.33a24.05,24.05,0,0,1-4.65,8.11,9.47,9.47,0,0,1,6.91.58C422.16,15.22,422.83,12.34,423.46,9.17Zm15.69,10.37a52.38,52.38,0,0,0,8.35,4.22l-3.21,5.91a39.86,39.86,0,0,1-5.23-3.84l-.15,13.39h-5.57c-.19-7.68-.28-14.59-.38-20.35a18.1,18.1,0,0,1-2.69-6,27.64,27.64,0,0,0,2.59,2.3c-.09-9.12-.19-14.55-.19-14.55h6.58S439.25,7.06,439.15,19.54Z"/><path class="cls-1" d="M468.91,15.27a67.1,67.1,0,0,1-13.68,1.82V10.37c10.9,0,21.94-.58,21.94-.58-6.77,9.6-15.41,18.39-3.94,26.31C455.52,36.1,459.5,22,468.91,15.27Zm11.43,4.89A11,11,0,0,0,477.89,17a4.19,4.19,0,0,1-.87,3.89,10.82,10.82,0,0,0-2.78-3.45L476.45,15a6.18,6.18,0,0,1,1.25,1.58l2.06-2.3A4,4,0,0,1,480.34,20.16Z"/><path class="cls-1" d="M13.11,51.12s-3.41,0-7.69-.19c-.19,9-.57,27.46-.57,36.48l-3.51.24C.14,74.26,0,45.31,0,45.31c7.39-.43,13.11-.43,13.11-.43Z"/><path class="cls-1" d="M20.35,86.21s2.54-8.45,2.06-30.15h6.1v.63H29.9v-.63H36s0,2.07-.33,29.29c-4.61.52-8.45.67-8.45.67V80.74s1,0,3.26.09l-.14-6.43H26.88C24.48,85.11,20.35,86.21,20.35,86.21Zm7-14.16h2.93c0-2,0-3.74-.1-5.33H28Q27.74,69.68,27.31,72.05Zm.91-7.68H30.1C30.05,62,30,60.29,30,59H28.46C28.42,61,28.37,62.74,28.22,64.37Zm13.06-4.56A26.83,26.83,0,0,0,37,52.27S42,51,46.27,57.7Zm13.06,2.54H60s0,2.4-.33,24.87H55c0-.53,0-1.06,0-1.58H42.62c0,.52,0,1,0,1.58H38c-.48-20.45-.63-24.87-.63-24.87h5.57s0,2.12-.29,20.93H54.91C54.48,66.19,54.34,62.35,54.34,62.35Zm0,1.16a36.79,36.79,0,0,1-2.93,7.1,21.62,21.62,0,0,1,2.93,3.46l-3.8,2.68a23.84,23.84,0,0,0-1.48-2.63c-3.27,4.12-6.34,5-6.34,5a39.61,39.61,0,0,0,4.37-7.73A32.83,32.83,0,0,0,43,66.87a10.64,10.64,0,0,1,5.33,1.53,57.32,57.32,0,0,0,2.3-8Zm-1.83-7-5.13,1.77a26.41,26.41,0,0,0-3.75-7.77S48.72,49.49,52.51,56.5Zm3.7-7.4,5.28,1.4C58.66,58.8,51.41,59,51.41,59A23.62,23.62,0,0,0,56.21,49.1Z"/><path class="cls-1" d="M79.1,84.1H73.73c-.67-13-.87-29.09-.87-29.09h6.72S79.58,69.84,79.1,84.1Zm10.23-9.65c-8.5,0-8.93-8.83-8.93-8.83a17.74,17.74,0,0,0,8.93,2.11Z"/><path class="cls-1" d="M120.91,70S120,80.4,107.47,84.1h-5.42c-.67-13-.87-28.23-.87-28.23h6.72s0,9.89-.24,21.51A21.2,21.2,0,0,0,120.91,70Z"/><path class="cls-1" d="M143.33,87.65c-7.39.43-13.11.43-13.11.43V81.89s3.41,0,7.68.15c.2-9,.58-27.46.58-36.49l3.5-.24C143.18,58.75,143.33,87.65,143.33,87.65Z"/><path class="cls-1" d="M183.55,76l1.06,6.62c-19.88,5.57-26.21-6.29-14.5-13.87a8.45,8.45,0,0,0-3-1.06A26.76,26.76,0,0,0,169,62.26h-4.18V60.34h4.61a30,30,0,0,0,.48-5.33h6.72a15,15,0,0,1-1,5.33h1.68l1.92-1.92,1.92,1.92v1.92h-6.38A15.64,15.64,0,0,1,172,66.05a7.7,7.7,0,0,1,2.12.62c.91-.38,1.87-.76,2.92-1.1l1,2a18.06,18.06,0,0,0-1.68.72l1.78,2-4,3.16A11.8,11.8,0,0,0,172.56,71C168.67,74.93,170.11,79.59,183.55,76Z"/><path class="cls-1" d="M202.27,65.14h-5.09c-.53-7.63-.67-9.27-.67-9.27h6.1v.67h20.73a3,3,0,0,0,0-.67h5.09c.48,7.64.63,9.27.63,9.27h-6.05s0-.67.19-6.24H202.51C202.46,60.29,202.37,62.26,202.27,65.14Zm3.46-11.38-5,2.11a15.9,15.9,0,0,0-4-6S201.17,47.28,205.73,53.76Zm18.43,20,1.92,1.92V78h-9.55c-.05,2.26-.15,5.09-.24,8.45-4.61.53-8.5.67-8.5.67V81.79s.91,0,2.69.1c0-1.44-.14-2.73-.19-3.89h-9.65V75.65h9.55c-.09-2.74-.09-4.32-.09-4.32h4.46a27.13,27.13,0,0,0,1.06-5.23H203.18V63.75h19.3c0,4.56-3.31,7.39-5.86,8.92,0,.68,0,1.68,0,3h5.66ZM206.83,49.82s4.37-2.54,9,3.94l-5,2.11A15.45,15.45,0,0,0,206.83,49.82ZM217.06,56a22.52,22.52,0,0,0,6.86-7.68l5,2.11C225.36,57.51,217.06,56,217.06,56Z"/><path class="cls-1" d="M243.12,64.85a7.7,7.7,0,0,1-5.57,2.35V60.48a18.06,18.06,0,0,0,9-2.11c-3,16.27,0,19.83,4.46,19,9.84-1.83,2.83-19.68,2.83-19.68l2.07-.72A18.06,18.06,0,0,0,264.82,59v6.72a7.78,7.78,0,0,1-5.72-2.49c4.47,11,1.4,20.16-7.82,20.83C241.73,84.82,238.56,75.94,243.12,64.85Zm21.55-8.21a10.1,10.1,0,0,0-2.49-3.17,4.23,4.23,0,0,1-.82,3.89,11.05,11.05,0,0,0-2.83-3.46l2.21-2.49A5,5,0,0,1,262,53l2.07-2.35A4.06,4.06,0,0,1,264.67,56.64Z"/><path class="cls-1" d="M275.61,76.56s4.47-5.57,5.76-15.74H278V58.9h3.56a35.08,35.08,0,0,0,.19-3.89h6.72a34.14,34.14,0,0,1-.24,3.89h6.1L296.26,57l1.92,1.92v1.92H288C285.6,73.78,275.61,76.56,275.61,76.56Zm16.95.82c5.62,0,8.5-1.2,8.5-1.2l.43,6.72s-1.2,1.2-8.93,1.2c-8.74,0-6.63-9.79-6.63-9.79S287.38,77.38,292.56,77.38Zm-3.17-7-.34-4.7c8.41-.82,10.37,0,10.37,0L299,70.47S297.22,69.6,289.39,70.37Z"/><path class="cls-1" d="M325,82.13s-11.19.58-9.56-21.75l6.68.82C320.54,75.65,325,82.13,325,82.13Zm17.76-5.76-6.63,1.1A27,27,0,0,0,331,65.09S338.74,63.55,342.77,76.37Z"/><path class="cls-1" d="M365.86,74.07s.38,7.77-11.19,10.32l-1.44-6.58a29.59,29.59,0,0,0,3.79-.53c-.09-3.89-.24-7.39-.29-10.41h-3V64.51h2.93c-.15-5.32-.19-8.49-.19-8.49h5.61s0,2.88-.09,8.49h0l1.92-1.92,1.93,1.92v2.36H362c-.05,2.59-.1,5.61-.2,9.07A28.66,28.66,0,0,0,365.86,74.07Zm24.24-9L392,67v2.35H376.75a14.31,14.31,0,0,1-1.05,2.26h14.69c.48,9.36.62,15.74.62,15.74-4.61.53-8.45.68-8.45.68V82.71s.62,0,2,.05c0-1.49.05-3.32.09-5.53-4.08,8-10.94,8-10.94,8s5.81-5.38,6.67-11.28h-.77c-3,7.82-10.22,7.58-10.22,7.58A18.32,18.32,0,0,0,374,74h-.15A10.85,10.85,0,0,1,366.48,77a18.08,18.08,0,0,0,4.66-7.68H367.2V67h21Zm-7.35,0v-.63h-6.86a2.9,2.9,0,0,0-.05.63h-5.57c-.48-9.36-.62-15.75-.62-15.75h6.53v.72H383a3.49,3.49,0,0,0,0-.72h5.57c.48,9.36.62,15.75.62,15.75Zm0-3c.05-1,.05-2.21.1-3.65H376c0,1.11,0,2.36-.09,3.65Zm-6.67-6h6.82c0-1.15,0-2.35.09-3.7h-6.81C376.13,53.47,376.13,54.67,376.08,56.16Z"/><path class="cls-1" d="M395.18,60.29s11.28-4,18-12.77l5.28,4.18C405.65,63.55,395.18,60.29,395.18,60.29Zm7.59,8.88h6.57v.77h10.08v-.77H425c.48,10.85.63,18.24.63,18.24h-6.53v-.86H409v.86h-5.57C402.91,76.56,402.77,69.17,402.77,69.17Zm1.15-3.55V63.27h16.75l1.92-1.92,1.92,1.92v2.35ZM409.1,84.2h10c.05-2.55.09-6.53.24-11.91h-10C409.29,74.79,409.25,78.77,409.1,84.2Zm9.65-31.45s6.77,3.7,13.87,4.08l-.91,6.63C418.94,59.28,418.75,52.75,418.75,52.75Z"/><path class="cls-1" d="M449.23,58.9c0,11.09.48,16.13.48,16.13s-7.2-.39-7.2-16.13ZM471,57l1.92,1.92v1.92h-5.18v4.41a78.41,78.41,0,0,1-.34,8.6c1.44.38,2.64.72,3.56,1l-1.54,5.91c-1-.48-2.11-1-3.31-1.49-1.39,3.07-3.89,4.85-8.45,4.85-7.63,0-6.63-10.71-.1-11.33a17.84,17.84,0,0,1,3.27,0c.14-2,.19-4.51.19-7.54V60.82H452.3V58.9H461V55h6.72V58.9h1.34ZM460.27,77.33a11.76,11.76,0,0,0-2.45-.38,1.78,1.78,0,0,0,0,3.55C458.88,80.5,459.7,79.78,460.27,77.33Z"/><path class="cls-1" d="M487.34,75.65c.05-4.13,1.25-6.19,2.5-7.63s2.5-2.31,2.5-4-3.08-4-7.54-1.1l-2.3-5.76C487.82,54,493,54.53,495.89,57a7.06,7.06,0,0,1,2.25,7.44c-.72,2.73-2.2,3.93-3.6,5.37a7.87,7.87,0,0,0-2.25,6Zm5.28,5.47a3,3,0,1,1-5.95,0,3,3,0,0,1,5.95,0Z"/></svg>