<svg id="レイヤー_1" data-name="レイヤー 1" xmlns="http://www.w3.org/2000/svg" viewBox="0 0 242 208.73"><defs><style>.cls-1{fill:#fff;}.cls-2,.cls-3{fill:none;stroke:#000;stroke-linecap:round;stroke-linejoin:round;stroke-width:2px;}.cls-3{stroke-dasharray:0.3 7.02;}.cls-4{fill:gray;}</style></defs><path class="cls-1" d="M204.9,8.73h30.43A5.68,5.68,0,0,1,241,14.4V202.06a5.68,5.68,0,0,1-5.67,5.67H6.67A5.68,5.68,0,0,1,1,202.06V14.4A5.68,5.68,0,0,1,6.67,8.73h33"/><line class="cls-2" x1="204.9" y1="8.73" x2="205.05" y2="8.73"/><path class="cls-3" d="M212.07,8.73h23.26A5.68,5.68,0,0,1,241,14.4V202.06a5.68,5.68,0,0,1-5.67,5.67H6.67A5.68,5.68,0,0,1,1,202.06V14.4A5.68,5.68,0,0,1,6.67,8.73H36"/><line class="cls-2" x1="39.53" y1="8.73" x2="39.68" y2="8.73"/><path class="cls-4" d="M54.16,10.56c.12-.12.29-.29.48-.5s.41-.44.62-.65a4.2,4.2,0,0,1,.7-.55,1.15,1.15,0,0,1,.67-.24,1.59,1.59,0,0,1,1.06.4c.31.29.6.58.89.89a6.74,6.74,0,0,0,.88.89,1.56,1.56,0,0,0,1,.41,1.41,1.41,0,0,0,.67-.34,10.39,10.39,0,0,0,1-.84c.36-.36.72-.74,1.11-1.17S64,8,64.31,7.58a8.75,8.75,0,0,0,.75-1.12,2,2,0,0,0,.33-.8,1.24,1.24,0,0,0,0-.21.16.16,0,0,0-.17-.17H51.61l-.14-.07a.65.65,0,0,1-.19-.1L51.18,5l0,0v-3s0,0,0-.1a.26.26,0,0,0,.1-.07.77.77,0,0,1,.19-.07l.14-.07h17.6a1.47,1.47,0,0,1,.67.26,5.28,5.28,0,0,1,.82.63,5.09,5.09,0,0,1,.67.74,1.21,1.21,0,0,1,.29.6.55.55,0,0,1,0,.17.88.88,0,0,1,0,.14,46.84,46.84,0,0,1-3.72,5.11c-1.35,1.59-2.76,3.15-4.27,4.66,0,.05,0,.1,0,.17a1.55,1.55,0,0,0,.34.89,7.72,7.72,0,0,0,.74.89c.31.28.6.57.91.84a4.79,4.79,0,0,1,.75.74.49.49,0,0,0,0,.14.89.89,0,0,0,0,.17,1.24,1.24,0,0,1-.34.7,4.22,4.22,0,0,1-.79.79,5.11,5.11,0,0,1-.94.65,1.77,1.77,0,0,1-.81.29,4.83,4.83,0,0,1-.8-.7c-.48-.46-1.05-1-1.75-1.73s-1.44-1.44-2.25-2.23S57.16,14,56.49,13.27,55.24,12,54.81,11.54a6.38,6.38,0,0,1-.68-.74A.66.66,0,0,1,54.16,10.56Z"/><path class="cls-4" d="M75.9,16.56a.81.81,0,0,1,0-.24c0-.09,0-.14.16-.17a31.66,31.66,0,0,0,4.35-1.24,24.59,24.59,0,0,0,3.82-1.76,24.94,24.94,0,0,0,3.43-2.37A33.35,33.35,0,0,0,91,7.68a5.69,5.69,0,0,0,.55-.82l.65-1.15a7.32,7.32,0,0,1,.67-1,.93.93,0,0,1,.69-.43c.2,0,.41.14.63.43a10.84,10.84,0,0,1,.62,1,8.77,8.77,0,0,1,.48,1.12,3.48,3.48,0,0,1,.19.8,4.12,4.12,0,0,1-1,2.4,17.92,17.92,0,0,1-2.55,2.66,39.73,39.73,0,0,1-3.5,2.57,42.53,42.53,0,0,1-3.84,2.26A28.48,28.48,0,0,1,81,19.13a8.86,8.86,0,0,1-2.64.58,1.22,1.22,0,0,1-.82-.41,5.08,5.08,0,0,1-.75-.94,5.61,5.61,0,0,1-.57-1l-.31-.58A.66.66,0,0,1,75.9,16.56Zm.82-13.68V2.71a4.08,4.08,0,0,0,.41-.5,7.17,7.17,0,0,1,.57-.72,4.29,4.29,0,0,1,.7-.6,1.26,1.26,0,0,1,.72-.27.48.48,0,0,1,.17,0h.17c.64.48,1.29,1,1.94,1.46s1.27,1,1.9,1.56a4.16,4.16,0,0,0,.38.41,4.34,4.34,0,0,1,.48.48,5.37,5.37,0,0,1,.41.38,1,1,0,0,1,.17.17v.48L82.48,7.85h-.62a2.31,2.31,0,0,0-.34-.31c-.19-.15-.36-.32-.55-.48s-.36-.34-.53-.48l-.36-.34a6.73,6.73,0,0,0-.79-.6c-.36-.24-.75-.53-1.13-.84a7.54,7.54,0,0,1-1-.91,1.39,1.39,0,0,1-.46-.84S76.72,3,76.72,2.88Z"/><path class="cls-4" d="M99,2.33a2.37,2.37,0,0,1,.87-.43,4.5,4.5,0,0,1,1-.24,4.48,4.48,0,0,1,.62-.08c.15,0,.34.15.53.39a5.37,5.37,0,0,1,.62,1,11.61,11.61,0,0,1,.68,1.32c.21.48.4.93.57,1.39s.29.86.39,1.2a2.33,2.33,0,0,1,.17.72.77.77,0,0,1-.46.62,4.46,4.46,0,0,1-1,.48c-.39.1-.73.2-1,.27a4.79,4.79,0,0,0-.57.14c-.27-.1-.53-.41-.84-.94a17.52,17.52,0,0,1-.92-1.84c-.26-.68-.5-1.35-.69-2a5.76,5.76,0,0,1-.29-1.41A.77.77,0,0,1,99,2.33Zm4.23,14.52c.31-.14.7-.36,1.15-.62s1-.58,1.51-.89,1.11-.63,1.61-.94l1.35-.84c.38-.26.67-.45.84-.6a16.19,16.19,0,0,0,3.09-3.86,18.37,18.37,0,0,0,1.85-4.61,5.28,5.28,0,0,0,.14-.84c0-.39.1-.79.17-1.18a3.81,3.81,0,0,1,.34-1.05.66.66,0,0,1,.62-.46,6.51,6.51,0,0,1,.82.07,7.37,7.37,0,0,1,1.13.27,4.63,4.63,0,0,1,1,.43.74.74,0,0,1,.44.6v.24q-.69,2.45-1.59,4.75a27.32,27.32,0,0,1-2.16,4.37,24.31,24.31,0,0,1-3,3.82,17.36,17.36,0,0,1-4,3c-.17.1-.39.22-.67.36s-.56.29-.82.44l-.72.36-.36.14h-.62l-2.57-2.57a.41.41,0,0,1,0-.14A2.2,2.2,0,0,1,103.24,16.85ZM105.4,1c0-.07.12-.15.29-.22l2.4-.79h.07a.7.7,0,0,1,.5.36,7.72,7.72,0,0,1,.6,1c.2.41.39.84.58,1.3s.34.91.48,1.34.26.79.36,1.13a2.52,2.52,0,0,1,.14.67.78.78,0,0,1-.36.62,3.73,3.73,0,0,1-.84.46,6.61,6.61,0,0,1-1,.29,3.46,3.46,0,0,1-.74.09c-.22,0-.48-.24-.77-.74a15.12,15.12,0,0,1-.84-1.75c-.26-.65-.5-1.32-.69-2a6.41,6.41,0,0,1-.27-1.42A.7.7,0,0,1,105.4,1Z"/><path class="cls-4" d="M142.65,11.35l-.31.34H123.61a.4.4,0,0,1-.38-.22,1,1,0,0,1-.1-.43V8a.51.51,0,0,0,.05-.14c0-.07.07-.14.1-.17s0-.07.07-.1.07-.07.1-.07h19.2Z"/><path class="cls-4" d="M150.16,10.56c.12-.12.29-.29.48-.5s.41-.44.62-.65a4.2,4.2,0,0,1,.7-.55,1.15,1.15,0,0,1,.67-.24,1.59,1.59,0,0,1,1.06.4c.31.29.6.58.89.89a6.74,6.74,0,0,0,.88.89,1.56,1.56,0,0,0,1,.41,1.41,1.41,0,0,0,.67-.34,10.39,10.39,0,0,0,1-.84c.36-.36.72-.74,1.11-1.17S160,8,160.31,7.58a8.75,8.75,0,0,0,.75-1.12,2,2,0,0,0,.33-.8,1.24,1.24,0,0,0,0-.21.16.16,0,0,0-.17-.17H147.61l-.14-.07a.65.65,0,0,1-.19-.1l-.1-.09-.05,0v-3s0,0,.05-.1a.26.26,0,0,0,.1-.07.77.77,0,0,1,.19-.07l.14-.07h17.6a1.47,1.47,0,0,1,.67.26,5.28,5.28,0,0,1,.82.63,5.09,5.09,0,0,1,.67.74,1.21,1.21,0,0,1,.29.6.55.55,0,0,1,0,.17.88.88,0,0,1,0,.14,46.84,46.84,0,0,1-3.72,5.11c-1.35,1.59-2.76,3.15-4.27,4.66,0,.05,0,.1,0,.17a1.55,1.55,0,0,0,.34.89,7.72,7.72,0,0,0,.74.89c.31.28.6.57.91.84a4.79,4.79,0,0,1,.75.74.49.49,0,0,0,0,.14.89.89,0,0,0,0,.17,1.24,1.24,0,0,1-.34.7,4.22,4.22,0,0,1-.79.79,5.11,5.11,0,0,1-.94.65,1.77,1.77,0,0,1-.81.29,4.83,4.83,0,0,1-.8-.7c-.48-.46-1-1-1.75-1.73s-1.44-1.44-2.25-2.23-1.54-1.56-2.21-2.26-1.25-1.24-1.68-1.73a6.38,6.38,0,0,1-.68-.74A.66.66,0,0,1,150.16,10.56Z"/><path class="cls-4" d="M171.9,16.56a.81.81,0,0,1,0-.24c0-.09,0-.14.16-.17a31.66,31.66,0,0,0,4.35-1.24,24.59,24.59,0,0,0,3.82-1.76,24.94,24.94,0,0,0,3.43-2.37A33.35,33.35,0,0,0,187,7.68a5.69,5.69,0,0,0,.55-.82l.65-1.15a7.32,7.32,0,0,1,.67-1,.93.93,0,0,1,.69-.43c.2,0,.41.14.63.43a10.84,10.84,0,0,1,.62,1,8.77,8.77,0,0,1,.48,1.12,3.48,3.48,0,0,1,.19.8,4.12,4.12,0,0,1-1,2.4,17.92,17.92,0,0,1-2.55,2.66,39.73,39.73,0,0,1-3.5,2.57,42.53,42.53,0,0,1-3.84,2.26A28.48,28.48,0,0,1,177,19.13a8.86,8.86,0,0,1-2.64.58,1.22,1.22,0,0,1-.82-.41,5.08,5.08,0,0,1-.75-.94,5.61,5.61,0,0,1-.57-1l-.31-.58A.66.66,0,0,1,171.9,16.56Zm.82-13.68V2.71a4.08,4.08,0,0,0,.41-.5,7.17,7.17,0,0,1,.57-.72,4.29,4.29,0,0,1,.7-.6,1.26,1.26,0,0,1,.72-.27.48.48,0,0,1,.17,0h.17c.64.48,1.29,1,1.94,1.46s1.27,1,1.9,1.56a4.16,4.16,0,0,0,.38.41,4.34,4.34,0,0,1,.48.48,5.37,5.37,0,0,1,.41.38,1,1,0,0,1,.17.17v.48l-2.26,2.26h-.62a2.31,2.31,0,0,0-.34-.31c-.19-.15-.36-.32-.55-.48s-.36-.34-.53-.48l-.36-.34a6.73,6.73,0,0,0-.79-.6c-.36-.24-.75-.53-1.13-.84a7.54,7.54,0,0,1-1-.91,1.39,1.39,0,0,1-.46-.84S172.72,3,172.72,2.88Z"/></svg>