<svg id="レイヤー_1" data-name="レイヤー 1" xmlns="http://www.w3.org/2000/svg" viewBox="0 0 242 555.05"><defs><style>.cls-1{fill:#fff;}.cls-2,.cls-3{fill:none;stroke:#000;stroke-linecap:round;stroke-linejoin:round;stroke-width:2px;}.cls-3{stroke-dasharray:0.3 6.99;}.cls-4{fill:gray;}</style></defs><path class="cls-1" d="M204.9,10.05h30.43A5.68,5.68,0,0,1,241,15.72V548.38a5.68,5.68,0,0,1-5.67,5.67H6.67A5.68,5.68,0,0,1,1,548.38V15.72a5.68,5.68,0,0,1,5.67-5.67h33"/><line class="cls-2" x1="204.9" y1="10.05" x2="205.05" y2="10.05"/><path class="cls-3" d="M212.05,10.05h23.28A5.68,5.68,0,0,1,241,15.72V548.38a5.68,5.68,0,0,1-5.67,5.67H6.67A5.68,5.68,0,0,1,1,548.38V15.72a5.68,5.68,0,0,1,5.67-5.67H36"/><line class="cls-2" x1="39.53" y1="10.05" x2="39.68" y2="10.05"/><path class="cls-4" d="M76.49.05H77c.2,0,.42,0,.67,0s.5,0,.78,0a2.41,2.41,0,0,1,.72.1,1.31,1.31,0,0,1,.58.28V.8a1.7,1.7,0,0,1-.18.8,1.83,1.83,0,0,0-.17.8,2,2,0,0,0,0,.37.3.3,0,0,0,.3.2h7.15l.35.4V23.22H84a.8.8,0,0,0-.17-.18c-.08-.07-.15-.17-.25-.25s-.18-.17-.25-.25l-.15-.17a2,2,0,0,0-.18-.1.77.77,0,0,0-.17-.05H73.22a.52.52,0,0,0-.4.15,1.19,1.19,0,0,0-.28.32c-.07.15-.15.25-.22.38a.39.39,0,0,1-.28.15H69.22l-.07-.08c-.05,0-.1-.07-.1-.1s-.08-.1-.13-.17a.51.51,0,0,0,0-.15v-19s0-.07,0-.15a1.74,1.74,0,0,1,.13-.2l.2-.22A1,1,0,0,0,69.37,3h5.5a.51.51,0,0,0,.52-.42,5.08,5.08,0,0,0,.2-.93c0-.35.08-.67.13-1A.6.6,0,0,1,76,.05Zm-3.92,8a.71.71,0,0,0,.65.3h9.65a.81.81,0,0,0,.4-.2c.17-.15.27-.25.27-.3V6.72s0,0-.07-.1l-.1-.07a.43.43,0,0,0-.18-.1A.36.36,0,0,0,83,6.37H72.87a.34.34,0,0,0-.23.13.84.84,0,0,0-.15.3,2,2,0,0,0-.1.32c0,.13,0,.2,0,.25A1.23,1.23,0,0,0,72.57,8.07Zm-.15,4.78a1.65,1.65,0,0,0,.1.32.94.94,0,0,0,.15.28.26.26,0,0,0,.2.1H83.22l.32-.33V12.05l-.32-.33H72.87a.26.26,0,0,0-.2.1.84.84,0,0,0-.15.3,1.18,1.18,0,0,0-.1.3,1.32,1.32,0,0,0,0,.2A1,1,0,0,0,72.42,12.85Zm0,5.27a1.43,1.43,0,0,0,.1.33,1.05,1.05,0,0,0,.15.3.37.37,0,0,0,.23.12H83.22l.32-.32V17.37c0-.05-.1-.15-.27-.3a.91.91,0,0,0-.4-.2H73.22a.67.67,0,0,0-.65.33,1.2,1.2,0,0,0-.2.67C72.37,18,72.39,18,72.39,18.12Z"/><path class="cls-4" d="M96.87,19.72l.35-.43h8.15a.39.39,0,0,0,.25-.12.88.88,0,0,0,.22-.25,1.94,1.94,0,0,0,.13-.3.53.53,0,0,0,.07-.25v-2.5a.53.53,0,0,0-.07-.22,1.94,1.94,0,0,0-.13-.3,1.18,1.18,0,0,0-.22-.28.4.4,0,0,0-.25-.1H99.72l-.35-.25V12.05l.35-.43h5.82a.39.39,0,0,0,.35-.27,2.52,2.52,0,0,0,.13-.63c0-.22,0-.45,0-.65v-.7c0-.2,0-.4,0-.65a2.78,2.78,0,0,0-.13-.65.39.39,0,0,0-.35-.27H98.22l-.35-.43V4.87l.35-.4H106s.08,0,.15-.15l.18-.27a.15.15,0,0,0,0-.08c0-.05,0-.07,0-.1a.91.91,0,0,0-.08-.17.51.51,0,0,0-.07-.15,3.84,3.84,0,0,0-.33-.2,4.35,4.35,0,0,1-.62-.45,7,7,0,0,1-.65-.55.79.79,0,0,1-.28-.55.83.83,0,0,1,.28-.58,3,3,0,0,1,.65-.57A4.39,4.39,0,0,1,106,.2a1.58,1.58,0,0,1,.68-.17,3.43,3.43,0,0,1,1.45.39,6.33,6.33,0,0,1,1.45,1,4.91,4.91,0,0,1,1.07,1.35A2.16,2.16,0,0,1,111,4.22l.33.25h6.17l.33.4v2.5l-.33.43h-7a.71.71,0,0,0-.15.1.92.92,0,0,0-.17.15.24.24,0,0,0-.1.1l-.08.07v3l.33.4h5.85a1.22,1.22,0,0,1,.12.15c.08.13.15.2.2.28a.38.38,0,0,1,.1.17l.08.15v2a.36.36,0,0,1-.08.15.53.53,0,0,1-.1.2l-.1.15c0,.08,0,.1-.07.1h-5.83l-.15.08c-.07.07-.15.12-.17.17s-.08,0-.1.1l-.08,0v3.5s0,.05.08.1.07.05.1.08a1.35,1.35,0,0,1,.17.15l.15.09h8.33a.35.35,0,0,1,.1.11c0,.07.07.12.07.14a1.93,1.93,0,0,1,.13.21.55.55,0,0,0,0,.12V22a1.26,1.26,0,0,1,0,.15.93.93,0,0,1-.13.18s-.05.07-.07.1a.33.33,0,0,1-.1.07H97.22l-.35-.32Z"/><path class="cls-4" d="M132.2,20.42c0-.2.07-.3.17-.3h3.17l.15-.1a.57.57,0,0,0,.18-.15s.07-.05.1-.08a.36.36,0,0,0,.07-.07V17.55s0,0-.07-.05-.08-.1-.1-.13a.57.57,0,0,0-.18-.15l-.15-.1h-8.32l-.35-.4V14.55l.5-.58h8.35a.28.28,0,0,0,.25-.2,4.3,4.3,0,0,0,.25-.45,2.73,2.73,0,0,1,.27-.47.73.73,0,0,1,.38-.3l.35-.05a2.36,2.36,0,0,0,.45-.08.88.88,0,0,0,.37-.2.4.4,0,0,0,.18-.35.7.7,0,0,0,0-.22c0-.13-.07-.18-.15-.18h-6a.4.4,0,0,1-.29-.25.71.71,0,0,1-.21-.35v-2l.33-.32,10.67-.18a1.24,1.24,0,0,1,.63.18,4.37,4.37,0,0,1,.6.42c.2.15.37.33.55.48s.3.3.4.42v.18s-.05.07-.1.17a.74.74,0,0,1-.08.15,5.67,5.67,0,0,1-.6.55l-1,.9c-.35.33-.68.65-1,1a2.34,2.34,0,0,0-.55.75v.17s0,.08.07.15.08.1.1.1h7l.13.08a.71.71,0,0,1,.2.17s.07,0,.12.08l0,.07v2.35l-.32.4h-8.35c-.1,0-.2.08-.3.25a.93.93,0,0,0-.2.35,16.83,16.83,0,0,1-.25,2.8,3.41,3.41,0,0,1-.75,1.75,3,3,0,0,1-1.6.87,13.61,13.61,0,0,1-2.8.25l-.48,0h-.45A.62.62,0,0,1,133,23a4.5,4.5,0,0,1-.42-.79,7.39,7.39,0,0,1-.3-.91,2,2,0,0,1-.12-.62ZM127.87,3.9c.25,0,.53,0,.8,0a3.7,3.7,0,0,0,.73-.25.48.48,0,0,0,.32-.48.7.7,0,0,0-.1-.4c-.08-.15-.15-.25-.22-.37a1.15,1.15,0,0,1-.25-.33.69.69,0,0,1-.11-.4.62.62,0,0,1,.31-.47,3.19,3.19,0,0,1,.72-.43,7.72,7.72,0,0,1,.78-.25,2,2,0,0,1,.52-.09h.35a3.67,3.67,0,0,1,.8,1c.22.39.42.74.65,1.09a3.72,3.72,0,0,0,.7.88,1.58,1.58,0,0,0,1.1.37,1.33,1.33,0,0,0,.65-.15.51.51,0,0,0,.27-.52,1.8,1.8,0,0,0-.27-.93,1.57,1.57,0,0,1-.25-.9.71.71,0,0,1,.25-.55,1.77,1.77,0,0,1,.62-.39A3.41,3.41,0,0,1,137,.1a3.9,3.9,0,0,1,.68-.07,1.18,1.18,0,0,1,.82.27A1.65,1.65,0,0,1,139,1a4.84,4.84,0,0,1,.27.91,4.15,4.15,0,0,0,.33.89,1.94,1.94,0,0,0,.5.68,1.44,1.44,0,0,0,.9.27,1.63,1.63,0,0,0,1.3-.55A5.4,5.4,0,0,0,143,2q.3-.64.6-1.2a.94.94,0,0,1,.85-.55.1.1,0,0,1,.07,0l.55.13c.23.05.48.1.75.18a4.25,4.25,0,0,1,.75.22,3.75,3.75,0,0,1,.63.3l.15.15a.39.39,0,0,1,0,.18,1,1,0,0,1-.12.44,2.73,2.73,0,0,1-.33.43c-.1.12-.2.27-.3.4a1.09,1.09,0,0,0-.12.47.49.49,0,0,0,.3.48,2.15,2.15,0,0,0,.65.22,5.81,5.81,0,0,0,.72.05h.53l.15.35V9.55l-.33.32H146l-.32-.32a2,2,0,0,1,0-.48c0-.2,0-.42,0-.67s0-.5-.1-.75a3.51,3.51,0,0,0-.2-.6.13.13,0,0,0-.08-.1l-.07-.08h-14.5l-.43.35V9.37c0,.1-.07.2-.22.33a.88.88,0,0,1-.35.17h-2.17a.52.52,0,0,1-.35-.17.44.44,0,0,1-.15-.33v-5a.34.34,0,0,1,.12-.25c.1-.1.15-.2.2-.25S127.62,3.9,127.87,3.9Z"/><path class="cls-4" d="M159.72,13.37,160,13h5s.1-.07.25-.22a1.73,1.73,0,0,0,.25-.38s0,0,0,0v-.1a.87.87,0,0,0,0-.25.18.18,0,0,0-.17-.17H163a.49.49,0,0,1-.45-.3c-.1-.2-.17-.43-.27-.68a3.8,3.8,0,0,0-.33-.67.69.69,0,0,0-.62-.3h-.17l-.16,0-2.82,1.18h-.15a.92.92,0,0,0-.17,0,.8.8,0,0,1-.55-.22,1.55,1.55,0,0,1-.43-.55,3.85,3.85,0,0,1-.27-.68,1.53,1.53,0,0,1-.1-.57.69.69,0,0,1,.5-.68,4.33,4.33,0,0,0,.5-.15c.22-.07.47-.17.75-.25s.52-.2.74-.27l.5-.15s.11-.08.18-.15.13-.15.15-.18,0,0,0-.07a.83.83,0,0,0-.33-.68,5.33,5.33,0,0,0-.7-.47,5.2,5.2,0,0,1-.7-.45.78.78,0,0,1-.3-.65,1,1,0,0,1,.1-.48,1.34,1.34,0,0,0,.1-.5.33.33,0,0,0-.12-.27,2.23,2.23,0,0,0-.3-.2l-.33-.15a1.29,1.29,0,0,1-.27-.25s0-.2,0-.43V1.77a1.13,1.13,0,0,1,0-.42.73.73,0,0,1,.2-.33.55.55,0,0,1,.45-.14h8.82a.56.56,0,0,1,.28.12,1.13,1.13,0,0,1,.22.22c0,.25,0,.7,0,1.35s0,1.33.05,2.05,0,1.43,0,2.08,0,1.1.05,1.35v2.5a.61.61,0,0,0,.4.3,4.57,4.57,0,0,0,.52.05,2.3,2.3,0,0,0,.4-.05c.13,0,.18-.13.18-.3a1.42,1.42,0,0,0-.1-.53,3.5,3.5,0,0,0-.25-.47l-.23-.5a1.42,1.42,0,0,1-.1-.53.63.63,0,0,1,.05-.25c0-.07.13-.12.28-.22a2.64,2.64,0,0,1,.4-.13,5.62,5.62,0,0,1,.62-.2c.2-.07.4-.12.6-.2l.38-.15a1.27,1.27,0,0,0,.45-.25.46.46,0,0,0,.25-.4.58.58,0,0,0-.3-.52c-.2-.13-.43-.25-.65-.38a7,7,0,0,1-.63-.37.64.64,0,0,1-.3-.55.92.92,0,0,1,.2-.53.57.57,0,0,0,.15-.5,1,1,0,0,0-.22-.45c-.13-.07-.23-.17-.35-.25a1.23,1.23,0,0,1-.33-.32,1.46,1.46,0,0,1-.12-.63V1.85a1.46,1.46,0,0,1,.1-.45,1,1,0,0,1,.22-.35.39.39,0,0,1,.38-.17h8.65a.83.83,0,0,1,.4.22c.17.12.27.23.27.28V9.72a1.58,1.58,0,0,1-.35,1.08,2.2,2.2,0,0,1-.87.6,5.36,5.36,0,0,1-1.1.27c-.4,0-.78.05-1.1.05h-1.25a1,1,0,0,1-.4-.57,5.65,5.65,0,0,1-.23-.73,2,2,0,0,0-.32-.62.77.77,0,0,0-.63-.28s-.17.05-.47.1l-1,.28a5.08,5.08,0,0,0-1,.37q-.45.23-.45.45v1.83l.35.42h6.5c.15,0,.27.1.35.3a1.15,1.15,0,0,1,.15.45v9a.86.86,0,0,1-.13.42.38.38,0,0,1-.37.23h-2.68c0-.05-.17-.13-.32-.25s-.3-.2-.35-.25-.08-.05-.18-.08l-.15-.07h-9c0,.05-.15.12-.32.25a4,4,0,0,0-.35.25l-.17.07a.44.44,0,0,1-.16.08H160l-.32-.33Zm2.67-6.27a2.44,2.44,0,0,1,.4.92c.05.33.1.65.13.93a.39.39,0,0,0,.45.42.63.63,0,0,0,.45-.25.65.65,0,0,0,.22-.4V4.22a1.06,1.06,0,0,0-.2-.4c-.12-.17-.22-.27-.3-.27H161c-.09,0-.12.05-.15.12a1.11,1.11,0,0,0,0,.23v.15l.85.82a.21.21,0,0,0,0,.1V5.1a.72.72,0,0,1-.08.35,4,4,0,0,0-.2.35,2.8,2.8,0,0,1-.2.32.81.81,0,0,0-.07.35,1,1,0,0,0,0,.25A1.3,1.3,0,0,1,162.39,7.1Zm.88,9.15c0,.1.07.12.1.12h9.35c.07,0,.15,0,.15-.12a.79.79,0,0,0,0-.2.44.44,0,0,0-.15-.33.52.52,0,0,0-.37-.17h-8.65a.52.52,0,0,0-.35.17.44.44,0,0,0-.15.33A.34.34,0,0,0,163.27,16.25Zm.1,3.65a.56.56,0,0,0,.35.14h8.65a.57.57,0,0,0,.37-.14.56.56,0,0,0,.15-.36.39.39,0,0,0-.22-.37,1.08,1.08,0,0,0-.45-.12h-8.35a1.08,1.08,0,0,0-.43.12.39.39,0,0,0-.22.37A.56.56,0,0,0,163.37,19.9Zm11-10.68h.25c.25,0,.43-.15.55-.47a4.16,4.16,0,0,0,.2-1.08,9.94,9.94,0,0,0,0-1.22c0-.4,0-.68,0-.83v-.7a2.75,2.75,0,0,0,0-.42V4.22c0-.07-.08-.2-.18-.4s-.22-.27-.32-.27h-2.15c-.1,0-.18.05-.18.12a1.11,1.11,0,0,0,0,.23V4a.08.08,0,0,1,0,0,1.88,1.88,0,0,0,.3.35c.2.15.3.27.38.32v1.5a2.38,2.38,0,0,1,1.25.35c.3.23.42.7.42,1.4,0,0,0,.08,0,.08a.26.26,0,0,1-.08.12c0,.08-.12.15-.17.23s-.1.12-.15.2l-.1.12a.43.43,0,0,0-.08.18.31.31,0,0,0-.07.15A.15.15,0,0,0,174.39,9.22Z"/></svg>