<svg id="レイヤー_1" data-name="レイヤー 1" xmlns="http://www.w3.org/2000/svg" viewBox="0 0 256.12 38.6"><defs><style>.cls-1{fill:#a3cf92;}.cls-2{fill:#231815;}</style></defs><polygon class="cls-1" points="121.77 2.7 125.86 3.38 123.91 11.79 130.44 14.24 128.4 18.33 121.52 14.86 117.09 18.6 114.7 16.9 119.47 10.76 121.77 2.7"/><polygon class="cls-1" points="124.93 8.72 129.02 5.99 131.06 8.04 127.66 11.45 124.93 8.72"/><polygon class="cls-1" points="113.34 7.36 116.75 3.95 119.47 7.36 116.06 9.4 113.34 7.36"/><polygon class="cls-1" points="121.77 19.07 125.86 19.75 123.91 28.15 130.2 31.1 128.15 35.19 121.52 31.22 117.09 34.97 114.7 33.26 119.47 27.13 121.77 19.07"/><polygon class="cls-1" points="124.93 24.4 129.02 21.67 131.06 23.72 127.66 27.13 124.93 24.4"/><polygon class="cls-1" points="111.97 23.72 115.38 20.31 118.11 23.72 114.7 25.76 111.97 23.72"/><path class="cls-1" d="M99,25.08v7.5l8.86.68v-7.5Zm5.45,4.77h-2.72v-2h2.72Z"/><polygon class="cls-1" points="102.03 0.61 106.81 1.29 106.52 5.99 111.29 5.99 111.29 10.08 97.66 8.72 98 5.65 102.43 5.31 102.03 0.61"/><rect class="cls-1" x="99.7" y="11.45" width="8.18" height="4.09"/><polygon class="cls-1" points="107.2 22.35 100.38 22.35 100.38 18.95 107.2 19.63 107.2 22.35"/><path class="cls-1" d="M68,3.26s-.68,25.91-.68,26.59l17,1.37L85,4ZM79.55,25.81l-6.1-.73V23l6.14.68Zm0-6.82-6.1-.73v-2l6.14.68Zm0-7.5-6.82-.68,0-2.09,6.82.68Z"/><polygon class="cls-1" points="50.92 13.64 44.78 14.32 44.59 8.04 51.63 8.04 51.6 0 57.05 0.68 56.34 8.04 60.46 7.5 61.14 12.27 57.73 12.95 63.38 20.57 61.83 23.86 57.05 19.77 57.73 33.41 53.64 34.09 52.42 21.35 46.94 25.27 45.37 22.92 50.92 13.64"/><path class="cls-2" d="M221.57,8.26a105.45,105.45,0,0,1-5,14.77c-.49,1.14,1.7,1.15,2.08.25A108.19,108.19,0,0,0,223.77,8.1c.14-.54-.63-.74-1-.72a1.27,1.27,0,0,0-1.2.88Z"/><path class="cls-2" d="M214.25,29.73a1.65,1.65,0,0,1,.2,1.21l0-.09a1.82,1.82,0,0,1-.27.64.64.64,0,0,1-.1.13c-.07.09.06-.05,0,0s0,0-.06.06a1.34,1.34,0,0,1-.14.11s.15-.09.06-.05l0,0,.12-.06,1.71-.19a1.32,1.32,0,0,1-.09-.81l0,.09a1.48,1.48,0,0,1,.26-.57l0-.06,0,0c-.07.05,0,0,0,0l.05,0,.06,0-.07,0h0l-.06,0c.08,0,0,0-.17.06l-1.26.2.14,0s-.13-.05,0,0l.06,0a1.18,1.18,0,0,1,.21.18l-.06-.07a1.26,1.26,0,0,1,.24,1l0-.09a1,1,0,0,1-.16.37l0,0,0,0,0,.05c-.12.11.14-.09,0,0l.14-.07.17-.06,1.08-.21c.23,0,0,0-.1,0,.12,0,0,0,0,0l-.13-.06a1.72,1.72,0,0,1-.4-.31l.06.06a1.28,1.28,0,0,1-.32-1.06l0,.09a1.15,1.15,0,0,1,.23-.47c.08-.1-.08.07,0,0l.11-.09c.1-.09-.15.08,0,0s-.18.08-.05,0l-.15.06a2,2,0,0,1-.33.09c-.12,0-.15,0-.07,0l-.17,0h-.11c.06,0,0,0,0,0l.06,0L215,30a.7.7,0,0,1,.19.15l-.06-.06a1.08,1.08,0,0,1,.24.93v-.09a1,1,0,0,1-.16.39c-.08.12.06,0,0,0l-.07.06.08-.06.24-.11a2.32,2.32,0,0,1,.82-.18c-.15,0,.13,0,0,0s-.14,0-.15,0h0l-.05,0L216,30.9a1.3,1.3,0,0,1-.39-.31l.06.07a1.46,1.46,0,0,1-.35-1.2l0,.09a1.18,1.18,0,0,1,.1-.3l.07-.11.05-.06s-.07.06,0,0l.11-.1-.08.06s.06,0,.07-.05-.21.11-.12.07-.29.1-.15.06-.22.06-.2.05-.3.07-.18.05l-.17,0h0c-.24,0,0,0,0,0h0a.74.74,0,0,0,.14,0s-.11,0,0,0l.07,0a.3.3,0,0,1,.11.06,1,1,0,0,1,.22.18l-.06-.07a.94.94,0,0,1,.22.77V30.2a1.18,1.18,0,0,1-.2.46l-.06.08c0,.05,0,0,0,0l-.05.05-.08.07c-.09.08.17-.11,0,0l.12-.06.07,0a2.74,2.74,0,0,1,.75-.18h.22l-.1,0h0l-.06,0-.07-.05a.43.43,0,0,1-.16-.14l.06.07a1,1,0,0,1-.19-.88l0,.09a1,1,0,0,1,.19-.44l0,0c0-.05-.08.07,0,0s.07-.08.09-.08l-.09.06-.14.07a2.58,2.58,0,0,1-1.06.25l-.37-.12a.9.9,0,0,1,.12.64l0-.08a1.48,1.48,0,0,1-.13.35l-.11.15c-.07.09,0,0,0,0l-.07.07-.08.06c-.09.08.13-.08.06,0l-.07,0,.12-.06.19-.08a3,3,0,0,1,.66-.15c-.14,0,.25,0,.11,0,0,0,.18,0,.06,0s-.14,0,0,0a1.14,1.14,0,0,0-.55-.05,3.43,3.43,0,0,0-.84.2,1.58,1.58,0,0,0-.62.31c0,.05-.19.2,0,.25a2.71,2.71,0,0,0,1.62,0,3.49,3.49,0,0,0,1.34-.65,1.29,1.29,0,0,0,.47-1.34.61.61,0,0,0-.07-.14c-.1-.16-.26-.15-.42-.16a3.93,3.93,0,0,0-1.27.25,2.22,2.22,0,0,0-1,.65,1.29,1.29,0,0,0-.2,1.14c.19.62.85.73,1.42.67a4.11,4.11,0,0,0,1.8-.58,2,2,0,0,0,.65-.67,1.05,1.05,0,0,0-.23-1.33,2.31,2.31,0,0,0-1.92-.25,4.11,4.11,0,0,0-1.65.67,1.27,1.27,0,0,0-.46.59,1.44,1.44,0,0,0,.24,1.4,1.78,1.78,0,0,0,.6.49,2.71,2.71,0,0,0,1.52.08,4.16,4.16,0,0,0,1.28-.45,1.62,1.62,0,0,0,.41-.32,1.15,1.15,0,0,0,.3-.66,1.12,1.12,0,0,0-.55-1.14,2.17,2.17,0,0,0-1.26-.1,4.3,4.3,0,0,0-1.7.58,1.42,1.42,0,0,0-.74,1.52,1.63,1.63,0,0,0,1.29,1.12,3.43,3.43,0,0,0,2.25-.58,1.15,1.15,0,0,0,.39-.51,1.33,1.33,0,0,0-.09-1.15,1,1,0,0,0-.42-.4,1.14,1.14,0,0,0-.36-.1,2.76,2.76,0,0,0-1.27.19,4.41,4.41,0,0,0-.59.26,1.82,1.82,0,0,0-1,1.38,1.33,1.33,0,0,0,.1.71c.09.18.47.12.61.11a3.28,3.28,0,0,0,1.1-.3,2.25,2.25,0,0,0,1.28-1.32,1.76,1.76,0,0,0-.15-1.45c-.08-.12-.25-.12-.37-.12a2.72,2.72,0,0,0-.8.12,2.78,2.78,0,0,0-.74.29c-.06,0-.33.19-.26.29Z"/><path class="cls-2" d="M41.81,10.35a20.16,20.16,0,0,1,.4,5.37c0,.38.35.54.68.55,2.09.06,4.19.05,6.28,0,.42,0,1.14-.31,1.23-.78s-.64-.55-1-.54c-1.83.06-3.84.05-5.73,0l.68.55A21.15,21.15,0,0,0,44,9.76c-.1-.47-.92-.41-1.25-.31s-1,.41-.92.9Z"/><path class="cls-2" d="M42.22,10.57c1.48.14,3,.24,4.45.26,1.22,0,2.79.22,3.88-.42s.83-2.22.9-3.32l.37-5.21-1.24.71a10.25,10.25,0,0,1,3.17-.1c.48.15.48.1.51.62s0,.95.05,1.42l.2,5.45c0,.25.5.3.66.29a16.51,16.51,0,0,0,4-.63l-1.23-.21a18.94,18.94,0,0,1,.77,5.08L60,13.65l-3.42.46c-.23,0-1.46.36-1.25.85A15,15,0,0,0,61.59,22l-.22-.36-.87,1.91c-.11.23-.27.91-.49,1.06.49-.33.26-.32-.15-.69L56.62,21c-.45-.4-2.2,0-2.1.71a119.09,119.09,0,0,1,1,13.73l1.25-.85a21.41,21.41,0,0,0-5.22,1.33L53,36a123.21,123.21,0,0,1-.54-13.31c0-.7-1.73,0-2,.14l-5.43,4.31L47,26.91A30.76,30.76,0,0,1,44.89,24l-.15.57a16.3,16.3,0,0,0,5.4-8.85c.17-.75-2-.41-2.17.29a15,15,0,0,1-5,8.25c-.2.17-.29.34-.15.57A30.85,30.85,0,0,0,45,27.74c.39.49,1.52,0,1.88-.26l5.43-4.31-2,.13a128.44,128.44,0,0,0,.54,13.31c0,.54,1.3.2,1.51.12a16.34,16.34,0,0,1,4.06-1c.43-.05,1.26-.31,1.25-.86a121.38,121.38,0,0,0-1-13.73l-2.09.7,2.89,2.63c.8.73,1.45,1.48,2.61,1.39,2.14-.18,2.7-2.87,3.44-4.49.08-.16-.1-.29-.21-.36a14.06,14.06,0,0,1-5.86-6.61l-1.25.86,3.42-.46c.43-.06,1.26-.3,1.25-.86a19.76,19.76,0,0,0-.77-5.07c-.12-.43-.95-.3-1.22-.22A11.71,11.71,0,0,1,56,9.1l.65.3-.14-3.79-.06-1.9A6.26,6.26,0,0,0,56.4,2c-.3-.74-1.11-.68-1.79-.71a35.29,35.29,0,0,0-3.71.14c-.32,0-1.21.28-1.24.71l-.25,3.48a16.37,16.37,0,0,0-.25,3.48c-.19.4-.11.58.25.52h-.47c-.62,0-1.25,0-1.87,0-1.17,0-2.34-.1-3.5-.21A2,2,0,0,0,42,9.85c-.27.28-.32.67.19.72Z"/><path class="cls-2" d="M65.23,6.35q-.44,13-.31,26.09a.25.25,0,0,0,.19.12A80.76,80.76,0,0,0,81,32.73c.32,0,1.58-.23,1.57-.71A228.6,228.6,0,0,1,83.4,6.24c0-.12-.35-.14-.38-.14A153.86,153.86,0,0,1,67,5.78a2.38,2.38,0,0,0-1.54.41c-.28.25-.35.41.12.45A151.35,151.35,0,0,0,81.61,7l-.38-.14a228.68,228.68,0,0,0-.8,25.78L82,31.88a75.35,75.35,0,0,1-10.19.23c-.81,0-1.62-.08-2.42-.14s-2.1.15-2.29-.86a15.2,15.2,0,0,1,0-2.7V26q0-10.1.33-20.18c0-.3-2.15,0-2.17.58Z"/><path class="cls-2" d="M68.77,11.22l.22,1.9c0,.32.45.5.72.54,2.19.28,4.39.47,6.6.55a1.3,1.3,0,0,0,1.47-.9l.36-1.92c.08-.41-.39-.73-.74-.76L70.56,10a1.37,1.37,0,0,0-1.41.68.73.73,0,0,0,.68,1l6.84.63-.74-.76-.36,1.92,1.47-.9c-2.21-.08-4.41-.27-6.6-.55l.72.53-.22-1.89c-.06-.54-.9-.62-1.29-.5a1,1,0,0,0-.88,1.08Z"/><path class="cls-2" d="M69.42,18.52l.28,1.74a.77.77,0,0,0,.47.46,24,24,0,0,0,6.29,1.1c.49,0,1.47-.2,1.47-.89V18.49a.75.75,0,0,0-.73-.74,60.73,60.73,0,0,1-6.47-.58,1.37,1.37,0,0,0-1.41.68c-.23.5.2.88.67.95a60.73,60.73,0,0,0,6.47.58l-.73-.74v2.44l1.47-.88a22.09,22.09,0,0,1-5.79-1l.47.47-.28-1.75c-.09-.53-.9-.6-1.3-.48s-1,.51-.88,1.07Z"/><path class="cls-2" d="M69.83,25.83c0,.51,0,1,0,1.53,0,.66.7.82,1.26.85,1,.05,2.07.09,3.1.12l1.52.05a3.89,3.89,0,0,0,1.76-.21,1.42,1.42,0,0,0,.92-1.34c0-.53,0-1.07,0-1.6s-.53-.67-1-.67a33,33,0,0,1-4.49-.29c-.87-.11-1.84-.37-2.6.23a1,1,0,0,0-.44,1c.14.51.71.63,1.18.61s1.14-.34,1.2-.85-.59-.69-1-.67h-.06l.53.05c1.13.4-1,.88-.64,1l.37.05.74.11c.53.07,1.07.13,1.61.17,1.12.09,2.25.12,3.38.11l-1-.67v1.11c0,.2,0,.4,0,.59s0,.17,0,.21l.55-.44h-.83l-1.2,0-2.27-.09-.63,0s-.18,0-.21,0c.18-.11.43.62.44.12l0-1.15c0-.52-.54-.72-1-.67s-1.2.32-1.21.85Z"/><path class="cls-2" d="M100,1.59l-.22,4.64,1.52-.7c-1.35.07-2.7.11-4.06.2-1.16.08-2.2.43-2.38,1.68-.12.88-.55,2.31.56,2.65a21.86,21.86,0,0,0,3.87.54,76.25,76.25,0,0,0,8.14.42c1,0,2.7.19,3.33-.77.27-.42.07-1,0-1.46a9.18,9.18,0,0,1,.2-2.28c.09-.45-.68-.39-.91-.36a17.67,17.67,0,0,1-1.92.12c-.36,0-.73,0-1.09,0a2.67,2.67,0,0,1-.85-.06c-.52-.26-.32-1.18-.28-1.68a10.53,10.53,0,0,1,.36-1.94c.11-.37.41-.89.22-1.27s-.73-.38-1.1-.4a24.44,24.44,0,0,0-3.92.16c-.33,0-1.19.25-1.25.67s.65.39.91.36C101.75,2,102.37,2,103,2a5,5,0,0,1,1.09,0c.33.09.28,0,.21.29a15.23,15.23,0,0,0-.61,3.62c0,.49,0,.92.47,1.19a3.72,3.72,0,0,0,1.59.25,23.57,23.57,0,0,0,3.94-.13l-.91-.36a10.08,10.08,0,0,0-.2,1.74q0,.4,0,.81c0,.2.19.85,0,1l.59-.38.42-.08h-2.18c-.87,0-1.73,0-2.59-.07-1.7-.08-3.38-.22-5.07-.42-.81-.1-1.62-.2-2.43-.33-.39-.06-.52-.11-.52-.53a10.2,10.2,0,0,1,.1-1.23A2.66,2.66,0,0,0,97,6.73c.06-.2,0-.2-.35,0-.46.09-.49.12-.1.08s.82,0,1.22-.06l2.57-.13c.3,0,1.5-.2,1.52-.7l.22-4.64c0-.76-2.13-.3-2.16.32Z"/><path class="cls-2" d="M97.36,13c0,.77,0,1.55,0,2.32s-.05,1.47.65,1.75a7.2,7.2,0,0,0,2.18.12,18.54,18.54,0,0,1,2.22.22c1.43.24,2.87.8,4.25,0,.7-.41.79-1,.87-1.76l.28-2.5c0-.25-.17-.4-.42-.42l-5.62-.62c-.92-.1-1.87-.27-2.79-.3a2.48,2.48,0,0,0-1.6.5c-.27.23-.48.64-.16.92s1,.17,1.43,0c.22-.09,1-.51.59-.83,0,.09,0,.08,0,0l-.22.3.06-.06-.44.26c-.74.05-.91.09-.52.12l.17,0,.51.06,1,.11,2.1.23,4.11.45-.41-.43-.21,1.92c0,.3-.07.61-.11.92a3.29,3.29,0,0,1,0,.44l0,.13c0,.08,0,.08,0,0s.4-.26.57-.2c-.07,0-.11,0-.2,0a6.69,6.69,0,0,1-.75-.16c-.59-.13-1.19-.23-1.78-.31s-1.26-.14-1.89-.17l-.9,0h-.5s-.24,0-.16,0,0,0,0-.12,0-.28,0-.43,0-.53-.07-.8c0-.65,0-1.3,0-1.95,0-.47-.58-.48-.93-.43s-1.23.27-1.24.72Z"/><path class="cls-2" d="M98,20.63l0,2.3c0,.4.33.49.68.53,1.62.19,3.25.32,4.89.38.92,0,2.34,0,2.57-1.13.16-.78.25-1.58.37-2.37,0-.27-.19-.44-.43-.49q-3.34-.69-6.74-1.09c-.54-.06-1.54.29-1.5.95a1,1,0,0,0,.39.73,1.44,1.44,0,0,0,1.45,0c.21-.1,1-.61.56-.93a.47.47,0,0,1-.23-.43l-1.5.94c2.1.25,4.18.6,6.25,1l-.43-.5-.2,1.28-.09.61c0,.11,0,.21,0,.31l0,.12q-.08.27.18-.09l.53-.23c.31,0,.38,0,.22,0h-.51l-.7,0-1.4-.08q-1.4-.11-2.79-.27l.68.53,0-2.3c0-.49-.55-.58-1-.52a2,2,0,0,0-.82.28c-.15.1-.41.29-.41.49Z"/><path class="cls-2" d="M96.15,26.31l.5,7.26c0,.49.82.54,1.14.48s1-.36,1-.85l0-1.08c0-1.12-2.16-.81-2.2.17l0,1.08L98.83,33l-.51-7.26c0-.2-.29-.38-.45-.44a1.38,1.38,0,0,0-.83,0c-.51.15-.93.48-.89,1Z"/><path class="cls-2" d="M96.68,26.72a54.31,54.31,0,0,1,8,.78c.18,0,.7,0,.83.16s0,.75,0,.91l-.07,2.09-.14,4.18,1.52-.72q-4.14-.21-8.26-.6a2.09,2.09,0,0,0-1.53.41c-.32.27-.29.66.18.7,2.91.28,5.83.49,8.74.64.33,0,1.5-.22,1.52-.72l.15-4.57c0-.76.06-1.52.08-2.28a1.19,1.19,0,0,0-.15-.87,1.71,1.71,0,0,0-1-.35,58.69,58.69,0,0,0-9.07-.91,1.86,1.86,0,0,0-1.44.57c-.28.43.24.57.57.58Z"/><path class="cls-2" d="M98.86,28.82l0,3.1a.28.28,0,0,0,.21.17,1.24,1.24,0,0,0,.43,0h1.64a7.24,7.24,0,0,0,2-.12,1.76,1.76,0,0,0,1.22-.8,2.44,2.44,0,0,0,0-.81l0-1.66c0-.23-.51-.22-.63-.22h-.39a.6.6,0,0,1-.19,0c-.23,0-.47,0-.71-.08l-.15,0c-.18,0,.1,0,0,0l-.37-.08c-.24-.07-.48-.14-.71-.23a1.5,1.5,0,0,0-.7,0,2.53,2.53,0,0,0-.83.27c-.23.13-.7.49-.23.67a8.48,8.48,0,0,0,3.42.51l-.63-.21,0,1.1c0,.35,0,.7,0,1v-.12a1.13,1.13,0,0,1,0,.18l0,.07a1.28,1.28,0,0,1,1.16-.48h-2.91l.64.21,0-3.1c0-.15-.33-.2-.4-.21a2.14,2.14,0,0,0-.8.08,2.36,2.36,0,0,0-.74.33.47.47,0,0,0-.24.38Z"/><path class="cls-2" d="M114.08,5.2a8.27,8.27,0,0,0,3.1,3.4l.15-1L115.06,9l-.19.12c.07,0,.06,0,0,0s-.1.06.24-.05h.28c.08,0,.08,0,0,0l-.11-.08c-.33-.27-.63-.57-.94-.85l-.45-.42a1.29,1.29,0,0,1-.16-.17c0,.07,0-.07,0,0s.09-.2.12-.24.27-.31.4-.46A25.05,25.05,0,0,1,116,5a.52.52,0,0,0-.25-.92,1.68,1.68,0,0,0-1.53.41,21.63,21.63,0,0,0-2.1,2.18c-.34.4-.75.91-.55,1.47s.68.8,1,1.11a7.59,7.59,0,0,0,1.18,1,2.28,2.28,0,0,0,2.11-.08c1-.51,1.94-1.14,2.9-1.71.36-.21.58-.73.15-1a7.08,7.08,0,0,1-2.63-2.82A1,1,0,0,0,115,4.26a1.49,1.49,0,0,0-.72.39c-.11.13-.29.37-.19.55Z"/><path class="cls-2" d="M126.29,6.83c-1.13.76-2.21,1.57-3.26,2.43-.1.09-.28.33-.21.48a7.16,7.16,0,0,0,2.26,2.9,1.63,1.63,0,0,0,1.88-.23l2-1.59a6.33,6.33,0,0,0,1.68-1.58,1.6,1.6,0,0,0-.29-1.9,4.1,4.1,0,0,0-2-1,1.77,1.77,0,0,0-1.54.41c-.35.32-.23.67.21.79a2.56,2.56,0,0,1,1.41.7,1.08,1.08,0,0,1,.27.64.92.92,0,0,1-.05.28l-.06.1s-.12.16-.05.08a14.2,14.2,0,0,1-1.51,1.26L125.21,12l1.88-.23A6.82,6.82,0,0,1,125,9.16l-.21.48a33.29,33.29,0,0,1,2.87-2.13c.29-.2.64-.63.18-.87a1.72,1.72,0,0,0-1.54.19Z"/><path class="cls-2" d="M118.6,3.66a19,19,0,0,1-7.28,13.53.2.2,0,0,0-.11.18,8,8,0,0,0,2.31,2.4c.4.28,1.68-.13,2-.46.7-.74,1.42-1.46,2.17-2.15l1.09-1,.56-.46c.17-.14.8-.45.18-.29l-1,.11a5,5,0,0,1,1.65.8l1.7.94,3.41,1.89a2.31,2.31,0,0,0,2.1-.56l2.08-3.77c0-.06,0-.11,0-.15a34.76,34.76,0,0,1-4.36-1.85c-.58-.3-1.83-.71-2-1.38a6.6,6.6,0,0,1,.11-2.38,13.59,13.59,0,0,1,.55-2.53,16.12,16.12,0,0,0,.7-1.94c.11-.72-.38-.89-1-1.07l-2.41-.76a2.31,2.31,0,0,0-1.39.15c-.07,0-1,.47-.66.56a22.77,22.77,0,0,1,2.8.89c.94.44.12,1.58-.12,2.29A15.73,15.73,0,0,0,121,9.38c-.06.45-.11.89-.13,1.34a5,5,0,0,0,0,1.49c.2.6,1.56,1.07,2.14,1.36.83.43,1.69.82,2.55,1.18.41.16.86.28,1.25.48.59.3.2.62-.08,1.12L125.27,19l2.1-.56-4-2.21c-1-.58-2.34-1.67-3.6-1.49a6.24,6.24,0,0,0-3.18,1.82,40,40,0,0,0-3,2.92l2-.46a7.47,7.47,0,0,1-1.84-1.75c-.37-.5-.21-.52.23-.88s.57-.49.84-.75a19.74,19.74,0,0,0,3-3.68,19.28,19.28,0,0,0,3-8.92c0-.22-2.13,0-2.17.58Z"/><path class="cls-2" d="M112.84,21.84a8.36,8.36,0,0,0,3.11,3.4l.15-1-2.27,1.35-.19.11c.07,0,.06,0,0,0s-.11.06.24,0h.28c.08,0,.08,0,0,0s-.19-.14-.12-.08c-.32-.27-.62-.57-.93-.85l-.45-.42-.17-.17c.06.06,0-.07,0,0s.08-.2.12-.25l.4-.46a24.91,24.91,0,0,1,1.77-1.79.52.52,0,0,0-.25-.92,1.68,1.68,0,0,0-1.53.41,22.74,22.74,0,0,0-2.11,2.17c-.34.41-.74.92-.54,1.48s.67.79,1,1.1a7.21,7.21,0,0,0,1.19,1,2.31,2.31,0,0,0,2.11-.08c1-.51,1.94-1.14,2.9-1.71.36-.21.58-.73.15-1A7.14,7.14,0,0,1,115,21.26a1,1,0,0,0-1.27-.37,1.53,1.53,0,0,0-.71.4c-.12.13-.29.37-.2.55Z"/><path class="cls-2" d="M126.29,22.24A38.29,38.29,0,0,0,123,24.67c-.1.08-.28.32-.21.48a7.29,7.29,0,0,0,2.26,2.9,1.63,1.63,0,0,0,1.88-.24l2-1.59a6.18,6.18,0,0,0,1.68-1.58,1.6,1.6,0,0,0-.29-1.9,4.18,4.18,0,0,0-2-1,1.84,1.84,0,0,0-1.54.41c-.35.33-.23.68.21.8a2.54,2.54,0,0,1,1.41.69,1.11,1.11,0,0,1,.27.65.81.81,0,0,1-.05.27l-.06.11s-.12.15-.05.08A13,13,0,0,1,126.94,26l-1.73,1.41,1.88-.24a6.79,6.79,0,0,1-2.1-2.62l-.21.48a33.4,33.4,0,0,1,2.87-2.14c.29-.2.64-.63.18-.87a1.72,1.72,0,0,0-1.54.2Z"/><path class="cls-2" d="M118.6,19.07a19,19,0,0,1-7.28,13.52.23.23,0,0,0-.11.19,8,8,0,0,0,2.31,2.4c.4.27,1.68-.13,2-.47.7-.74,1.42-1.45,2.17-2.14.36-.33.72-.65,1.09-1l.56-.47c.17-.14.8-.44.18-.29l-1,.11a5.15,5.15,0,0,1,1.65.8l1.7.95,3.41,1.89a2.36,2.36,0,0,0,2.1-.56l2.08-3.77a.1.1,0,0,0,0-.15,36.37,36.37,0,0,1-4.36-1.86c-.58-.29-1.83-.71-2-1.38a6.61,6.61,0,0,1,.11-2.38,13.76,13.76,0,0,1,.55-2.53,15.52,15.52,0,0,0,.7-1.94c.11-.72-.38-.88-1-1.07l-2.41-.76a2.32,2.32,0,0,0-1.39.16c-.07,0-1,.46-.66.56a22.73,22.73,0,0,1,2.8.88c.94.44.12,1.58-.12,2.3a15.51,15.51,0,0,0-.65,2.69c-.06.44-.11.89-.13,1.33a5,5,0,0,0,0,1.49c.2.6,1.56,1.07,2.14,1.37.83.42,1.69.81,2.55,1.17.41.17.86.29,1.25.48.59.3.2.62-.08,1.12l-1.49,2.7,2.1-.57-4-2.2c-1-.58-2.34-1.67-3.6-1.49A6.17,6.17,0,0,0,116.61,32a39.83,39.83,0,0,0-3,2.91l2-.46a7.43,7.43,0,0,1-1.84-1.74c-.37-.51-.21-.52.23-.89s.57-.49.84-.75a19.31,19.31,0,0,0,6-12.59c0-.22-2.13,0-2.17.58Z"/><path class="cls-2" d="M146.46,12.38c-.24,2.93-.58,5.88-.66,8.82-.05,2.17.12,4.51,1.42,6.34,2.85,4,9.74,2.68,11.41-1.77.18-.46-1.92-.23-2.15.36-.73,1.94-2.38,3.3-4.49,2.67a5.59,5.59,0,0,1-3.64-4.12,16.79,16.79,0,0,1-.31-5.43c.17-2.49.39-5,.59-7.45,0-.37-2.12-.11-2.17.58Z"/><path class="cls-2" d="M164.17,16.15l7.89-1.86c.23,0,1.06-.3,1-.65s-1-.12-1.19-.08L164,15.42c-.24.06-1.07.3-1,.66s1,.11,1.18.07Z"/><path class="cls-2" d="M167.48,11.88l-1.4,13c-.09.84,2.09.43,2.17-.28l1.4-13c.09-.83-2.09-.43-2.17.29Z"/><path class="cls-2" d="M174.51,18.92a18.63,18.63,0,0,1,2.21-.64,5.35,5.35,0,0,1,.55-.11c-.3,0,0,0,0,0l.3-.05c.38-.06.77-.11,1.16-.15l-.88-.71-1.1,1.66c-.28.43.25.7.61.71a1.65,1.65,0,0,0,1.43-.61l1.09-1.66a.39.39,0,0,0-.08-.55,1.13,1.13,0,0,0-.8-.16,21.84,21.84,0,0,0-4.87,1.07c-.34.12-1.05.4-.92.9s.92.42,1.25.31Z"/><path class="cls-2" d="M173.44,26.22a12.07,12.07,0,0,0,8.78-.95c.24-.13.7-.51.24-.68a2.16,2.16,0,0,0-1.53.25,6,6,0,0,1-.64.3c-.32.12-.41.15-.64.22l-.36.09c-.14,0-.16,0-.06,0l-.25.05-.64.09a8.54,8.54,0,0,1-3.14-.32,2.22,2.22,0,0,0-1.53.25c-.21.11-.73.53-.23.68Z"/><path class="cls-2" d="M191.32,14.7a56.87,56.87,0,0,0-1.25,13.89c0,.52,1.33.17,1.5.1a37.4,37.4,0,0,0,5.84-2.91c.29-.18.64-.53.21-.77a1.88,1.88,0,0,0-1.53.23,34.67,34.67,0,0,1-5.35,2.67l1.5.1a55.58,55.58,0,0,1,1.24-13.61c.16-.73-2-.38-2.16.3Z"/><path class="cls-2" d="M203.31,15.21l1.48,7.23,1.93-.88-.49-.38c-.67-.52-2.63.45-1.7,1.17l.49.38c.54.42,2.1-.06,1.94-.88l-1.48-7.23c-.1-.49-.9-.47-1.26-.37s-1,.44-.91,1Z"/><path class="cls-1" d="M9.06,31.29s-4-3.2-4.8-7.2C3.18,18.69,1.9,14.43,1.38,8.94c3,.64,6.08.75,10.08,2.35,4.62,1.84,7,3.7,10.4,8.8,3.2,4.8,6,12.91,0,15.2A18.36,18.36,0,0,1,9.06,31.29Z"/><path class="cls-2" d="M23.23,37.76l-.7-2c-.08-.23-.45-.24-.64-.23-3.23.2-6.6.4-9.73-.59a10.8,10.8,0,0,1-6.81-6.37c-2.7-6.43-.9-13.67-3.16-20.2L.08,9C2.45,11.55,5.87,12.29,9,13.46a24,24,0,0,1,8.14,5.12,18.83,18.83,0,0,1,5,8c.91,3,1.32,7.41-1.52,9.52-.39.29-.21.51.16.61a2.14,2.14,0,0,0,1.54-.41c2.77-2.07,3-5.79,2.34-8.93a18.33,18.33,0,0,0-4.5-8.49,24.39,24.39,0,0,0-8.08-5.76c-3.38-1.5-7.34-2-10-4.84-.35-.37-2.31.1-2.11.69,2.42,7,.17,14.92,3.81,21.55C7.29,36.8,14.62,36.94,21,36.54l-.64-.23.7,2c.21.62,2.37,0,2.17-.58Z"/><path class="cls-2" d="M6.29,17.2l9.73,14c.56.8,2.63,0,2-1l-9.73-14c-.56-.8-2.64,0-2,1Z"/><path class="cls-2" d="M13.48,19.1,12.79,26c-.12,1.14,2.1.86,2.2-.15l.69-6.87c.11-1.13-2.1-.85-2.2.16Z"/><path class="cls-2" d="M7.9,27a49.41,49.41,0,0,1,6.36,2.45,1.71,1.71,0,0,0,1.55-.19c.29-.19.65-.67.17-.9a52.61,52.61,0,0,0-6.76-2.59,1.74,1.74,0,0,0-1.54.41c-.35.34-.22.68.22.82Z"/><path class="cls-2" d="M5.84,20.9l3.45.52a2,2,0,0,0,.81-.05,1.73,1.73,0,0,0,.73-.36c.11-.1.28-.27.22-.45a.48.48,0,0,0-.42-.27l-3.45-.52a1.85,1.85,0,0,0-.81.05,1.64,1.64,0,0,0-.72.36c-.12.1-.29.27-.23.45a.49.49,0,0,0,.42.27Z"/><path class="cls-1" d="M247.06,31.29s4-3.2,4.8-7.2c1.08-5.4,2.37-9.66,2.89-15.15-3,.64-6.09.75-10.09,2.35-4.61,1.84-7,3.7-10.4,8.8-3.2,4.8-6,12.91,0,15.2A18.36,18.36,0,0,0,247.06,31.29Z"/><path class="cls-2" d="M235.06,37.86l.7-2-1.78.64c6.41.39,14.13.23,18-5.86,4.17-6.65,1.7-15,4.17-22.18.2-.57-1.84,0-2.06.26-2.54,2.73-6.48,3.23-9.75,4.68a25.08,25.08,0,0,0-8.18,5.79,18.42,18.42,0,0,0-4.6,8.45c-.67,3.05-.62,6.87,2.12,8.91.49.36,2.38-.5,2-.75-2.84-2.12-2.66-6.32-1.8-9.39a18.52,18.52,0,0,1,5-8.15A23,23,0,0,1,247.36,13c3.07-1.09,6.36-2,8.65-4.44l-2,.26c-2.19,6.31-.59,13.22-2.89,19.5A10.48,10.48,0,0,1,245,34.93c-3,1.1-6.46.83-9.62.64-.43,0-1.6.14-1.78.64l-.7,2c-.15.43,2,.19,2.15-.38Z"/><path class="cls-2" d="M247.83,16.65l-9.74,14c-.31.44.26.73.62.77a1.64,1.64,0,0,0,1.43-.63l9.73-14c.31-.44-.26-.73-.62-.77a1.59,1.59,0,0,0-1.42.63Z"/><path class="cls-2" d="M240.47,19.31l.68,6.87c0,.18.3.3.44.33a1.49,1.49,0,0,0,.81,0c.4-.11,1-.38.93-.89l-.69-6.86c0-.19-.29-.3-.43-.34a1.75,1.75,0,0,0-.82,0c-.4.12-1,.39-.92.89Z"/><path class="cls-2" d="M247.45,25.92a54,54,0,0,0-6.85,2.62c-.22.1-.92.42-.61.76s1.12.09,1.42-.05q1.58-.72,3.18-1.35c1.1-.42,2.09-.76,3.1-1.08.27-.08,1.06-.32,1-.74s-1-.23-1.21-.16Z"/><path class="cls-2" d="M249.83,20l-3.45.52a3,3,0,0,0-.83.26c-.12.05-.39.17-.45.31-.15.35.78.19.86.18l3.45-.52a3.08,3.08,0,0,0,.83-.26c.11-.05.39-.17.45-.32.15-.34-.78-.18-.86-.17Z"/></svg>