<svg id="レイヤー_1" data-name="レイヤー 1" xmlns="http://www.w3.org/2000/svg" viewBox="0 0 265.39 115.64"><defs><style>.cls-1{fill:#a1cd90;}.cls-2{fill:#39b34a;}.cls-3{fill:#231815;}</style></defs><polygon class="cls-1" points="122.5 2.16 125.77 2.71 124.2 9.43 129.43 11.39 127.8 14.66 122.29 11.88 118.75 14.88 116.84 13.52 120.66 8.61 122.5 2.16"/><polygon class="cls-1" points="125.02 6.97 128.29 4.79 129.93 6.43 127.2 9.16 125.02 6.97"/><polygon class="cls-1" points="115.75 5.88 118.47 3.16 120.66 5.88 117.93 7.52 115.75 5.88"/><polygon class="cls-1" points="122.5 15.25 125.77 15.8 124.2 22.52 129.23 24.88 127.6 28.15 122.29 24.97 118.75 27.97 116.84 26.61 120.66 21.7 122.5 15.25"/><polygon class="cls-1" points="125.02 19.52 128.29 17.34 129.93 18.97 127.2 21.7 125.02 19.52"/><polygon class="cls-1" points="114.66 18.97 117.38 16.25 119.56 18.97 116.84 20.61 114.66 18.97"/><path class="cls-1" d="M104.29,20.07v6l7.09.54v-6Zm4.37,3.81h-2.19V22.25h2.19Z"/><polygon class="cls-1" points="106.7 0.49 110.52 1.03 110.29 4.79 114.11 4.79 114.11 8.07 103.2 6.97 103.47 4.52 107.02 4.25 106.7 0.49"/><rect class="cls-1" x="104.84" y="9.16" width="6.55" height="3.27"/><polygon class="cls-1" points="110.84 17.88 105.38 17.88 105.38 15.16 110.84 15.7 110.84 17.88"/><path class="cls-1" d="M79.48,2.61s-.55,20.73-.55,21.27L92.57,25l.54-21.81Zm9.24,18-4.88-.58V18.43l4.91.54Zm0-5.46-4.88-.58V13l4.91.55Zm0-6-5.46-.54,0-1.68,5.46.55Z"/><polygon class="cls-1" points="65.81 10.91 60.9 11.45 60.74 6.43 66.39 6.43 66.36 0 70.72 0.55 70.14 6.43 73.45 6 73.99 9.82 71.27 10.36 75.78 16.46 74.54 19.09 70.72 15.82 71.27 26.73 67.99 27.27 67.01 17.08 62.63 20.22 61.37 18.34 65.81 10.91"/><path class="cls-2" d="M52.36,61.57s6.68-5.68,8.8-13.48l5.32,1.84C61,63,52.36,61.57,52.36,61.57Zm18.32-1.2c-2,6.24-4.4,10.15-6.6,12.67,2.8-.32,6.24-.64,10.28-1L73,67.77l4.92-1s1.2,4.23,3.24,12.39L77,80,75.88,76.6c-11.6,1.8-19.8,3-19.8,3L55.44,74s1.48-.2,4.24-.52A49.26,49.26,0,0,0,65.4,58.57Zm14.08,1.2S76.08,63,70.68,49.93L76,48.09C78.08,55.89,84.76,61.57,84.76,61.57Z"/><path class="cls-2" d="M92.48,74.2c-.24-4-.36-7-.4-8.47h-4.2v-2H99.12l1.6-1.6,1.56,1.6v2H97.52c0,1.32-.08,4-.2,7.83,3-.56,5.16-1.16,5.16-1.16s-2,5.2-13.48,7.32l-1.16-5.44A35.94,35.94,0,0,0,92.48,74.2Zm-4-18.71H103.2c-.2-2.36-.28-4.92-.28-7.72h5.6c0,2.8.08,5.36.2,7.72H114l1.6-1.6,1.6,1.6v2h-8.4c1.36,19.51,6.72,22.71,6.72,22.71s-10,.12-12.2-22.71H88.52Zm23.92-1.6a10.29,10.29,0,0,0-2.76-4.4s4.8-1.4,6.36,3.16Z"/><path class="cls-2" d="M134.56,53.37S134,63.65,133.88,73c8.44-.24,10.24-.24,10.24-.24v5.6s-3.28-.16-13.72-.72C129.2,66.45,129,53.37,129,53.37Z"/><path class="cls-2" d="M153.76,53.37h5.6s.16,12.92-.56,24.23h-4.88C153.64,66.53,153.76,53.37,153.76,53.37Z"/><path class="cls-2" d="M168.76,77.6c-1.2-11.15-1.4-24.23-1.4-24.23H173s5.28,6.16,9.68,12.48c.12-4.08.24-8.56.24-12.48h3.44c1.2,11.16,1.4,24.23,1.4,24.23h-5.6s.16-2.48.28-6.11c-3.12-4-7-8.8-9.72-12-.2,5-.48,12.27-.48,18.15Z"/><path class="cls-2" d="M196.36,77.6c-1.2-11.15-1.44-24.23-1.44-24.23,12.76-.28,17.16-.28,17.16-.28v4.08s-3.16-.08-11.72-.36c-.08,1.76-.16,4-.24,6.6,6.72-.2,10.16-.2,10.16-.2v4.08s-3.68-.08-10.28-.44c-.08,2-.12,4.11-.16,6.15,9.92-.28,12.72-.28,12.72-.28v5.6S208,78.16,196.36,77.6Z"/><path class="cls-2" d="M0,93.57s8.36,0,21.12.28c0,9.47-8.6,10.31-8.6,10.31s2.08-1.79,2.76-6.87c-9.2.28-15.28.36-15.28.36Zm1.68,22s4.72-3.76,4.72-14.71H12C12,114.68,1.68,115.6,1.68,115.6Z"/><path class="cls-2" d="M34,115.6s2.6-3.84,3.52-15.63c-1.76,0-2.64,0-2.64,0V95.93h2.88c0-1.4.08-2.92.08-4.56h5.6c0,1.64,0,3.2-.12,4.64,2.92,0,6.64.08,11.08.2,0,19.39-6,19.43-6,19.43s.32-7.83.36-16c-2.16,0-4.08.12-5.8.16C41,115.6,34,115.6,34,115.6Z"/><path class="cls-2" d="M70.84,103.89a34.65,34.65,0,0,1-1.4-8.48H75v.4h3.84A5.19,5.19,0,0,1,75.24,91H80a32.34,32.34,0,0,0,.36,4.8h1.68v-.4h5.6c0,20.51-13.56,20.19-13.56,20.19s7.32-3.44,7.92-18.19H74.92c-.08,1.6-.16,4-.16,6.48Z"/><path class="cls-2" d="M106.84,98.81s-3.8-2.12-7-2.16l0-4.16C107.16,92.89,106.84,98.81,106.84,98.81Zm12.4-.76s3.6,10.47-18.12,16.71l-1.24-5.44C115.4,105.05,119.24,98.05,119.24,98.05Z"/><path class="cls-2" d="M136.76,115.6h-4.48c-.56-10.79-.72-24.23-.72-24.23h5.6S137.16,103.73,136.76,115.6Zm8.52-8c-7.08,0-7.44-7.36-7.44-7.36a14.78,14.78,0,0,0,7.44,1.76Z"/><path class="cls-2" d="M162.8,94.61c0,9.24.4,13.43.4,13.43s-6-.31-6-13.43ZM181,93l1.6,1.6v1.6h-4.32v3.68a65.65,65.65,0,0,1-.28,7.16c1.2.31,2.2.6,3,.84l-1.28,4.91c-.8-.4-1.76-.84-2.76-1.24-1.16,2.56-3.24,4-7,4-6.36,0-5.52-8.91-.08-9.44a15.43,15.43,0,0,1,2.72,0c.12-1.67.16-3.75.16-6.27V96.21h-7.28v-1.6h7.28V91.37h5.6v3.24h1.12ZM172,110a9.71,9.71,0,0,0-2-.31,1.48,1.48,0,0,0,0,2.95C170.84,112.6,171.52,112,172,110Z"/><path class="cls-2" d="M213.8,112.72s-1.92,1.48-13.28,1.48c-8.36,0-6.32-8.15-6.32-8.15s1.4,2.55,6.32,2.55c10.56,0,12.84-1.48,12.84-1.48Zm-2.92-14.07a97.66,97.66,0,0,0-14.12-.88v-4.4a112.86,112.86,0,0,1,14.92.88Z"/><path class="cls-2" d="M227.36,96.21H223v-1.6h4.52c.16-1.4.24-2.76.32-4l5.56,1.24c-.16,1-.36,1.92-.6,2.8h3.84l1.56-1.6,1.6,1.6v1.6h-7.48a29.25,29.25,0,0,1-3.76,7.8s5.4-2.12,8.44.72c3.92,3.67,2.12,10.87-7.8,10.87,2.8-1.32,6.08-4.2,4.56-7.36-1.76-3.63-8.68-1.55-8.68-1.55A48.61,48.61,0,0,0,227.36,96.21Z"/><path class="cls-2" d="M259.32,108.57c-2.52-3.72-8.36.19-8.36.19a101,101,0,0,1,0-16.27h5.6s-1.12,8-1.68,12.32c0,0,5.4-3.32,8.68-.32,4.48,4.08.44,10.63-8.56,11.11C257.92,114,260.88,110.84,259.32,108.57Zm-1.52-13,2.64-5c6.24,3.32,3.12,10,3.12,10A15.09,15.09,0,0,0,257.8,95.53Z"/><path class="cls-3" d="M202.33,6.61a81.94,81.94,0,0,1-4,11.81c-.39.92,1.36.92,1.66.2A86.57,86.57,0,0,0,204.1,6.48c.11-.43-.51-.59-.81-.58a1,1,0,0,0-1,.71Z"/><path class="cls-3" d="M196.47,23.79a1.29,1.29,0,0,1,.17,1v-.07a1.67,1.67,0,0,1-.21.52l-.08.1c-.06.07,0,0,0,0a.12.12,0,0,1-.05.05.24.24,0,0,1-.11.09l.05,0,0,0,.1-.05,1.36-.15a1.12,1.12,0,0,1-.07-.65v.07a1.34,1.34,0,0,1,.2-.46l0-.05s0,0,0,0l0,0,0,0,0,0-.05,0s.12-.06,0,0-.07,0,0,0l-.13.05-1,.15s.11,0,.11,0-.11-.05,0,0l0,0a.55.55,0,0,1,.17.14l-.05-.06a1,1,0,0,1,.19.83l0-.07a.81.81,0,0,1-.12.29l0,0,0,0,0,0c-.1.09.11-.07,0,0s0,0,.11,0l.14-.06.86-.17c.19,0,0,0-.07,0s0,0,0,0l-.1-.05a1.31,1.31,0,0,1-.32-.25l0,.05a1,1,0,0,1-.26-.85l0,.07a1,1,0,0,1,.19-.38c0-.07-.07.06,0,0l.09-.08,0,0,0,0-.12.05-.26.08h-.07l-.13,0h-.16l.08,0h0l.05,0,.07,0a.44.44,0,0,1,.15.12l0,0a.9.9,0,0,1,.18.75l0-.07a.87.87,0,0,1-.14.31c-.06.09,0,0,0,0l-.06,0c.09-.06.11-.08.06,0l.2-.09a1.81,1.81,0,0,1,.66-.14c-.13,0,.1,0,0,0s-.11,0-.12,0,.07,0,0,0l0,0a.31.31,0,0,1-.1-.05,1.23,1.23,0,0,1-.31-.24l0,.05a1.16,1.16,0,0,1-.29-1v.07a1.13,1.13,0,0,1,.08-.24l.06-.09,0,0s-.05,0,0,0l.09-.08c.06-.05-.06.05-.06,0l.05,0-.1.05c.09,0-.22.08-.11.05s-.18.05-.16,0-.24.05-.15,0l-.13,0s.1,0,0,0,0,0,0,0-.16,0-.06,0h.06s.08,0,.11,0-.09,0,0,0l.06,0,.09.05a.65.65,0,0,1,.18.15l-.05-.06a.74.74,0,0,1,.17.62l0-.07a1,1,0,0,1-.17.37l-.05.07,0,0s0,0,0,0l-.06.05c-.08.06.13-.09,0,0l.09-.05c-.05,0,0,0,.05,0a3.29,3.29,0,0,1,.6-.15h.18l-.08,0h0l-.05,0-.06,0a.69.69,0,0,1-.13-.11l.05,0a.85.85,0,0,1-.15-.71l0,.07a1.19,1.19,0,0,1,.15-.35l0,0s-.06.06,0,0,.05-.06.07-.06l-.07,0-.11.06a2.46,2.46,0,0,1-.85.2l-.3-.1a.7.7,0,0,1,.1.51v-.07a.94.94,0,0,1-.1.28.62.62,0,0,1-.08.12c-.06.08,0,0,0,0l-.06.05-.06.05c-.07.06.11-.06,0,0l-.06,0,.1-.05.15-.06a2.53,2.53,0,0,1,.53-.12c-.11,0,.2,0,.09,0,0,0,.14,0,0,0h0a1,1,0,0,0-.43,0,2.59,2.59,0,0,0-.68.16,1.4,1.4,0,0,0-.49.24c0,.05-.16.17,0,.21a2.19,2.19,0,0,0,1.29,0,2.71,2.71,0,0,0,1.08-.52,1.05,1.05,0,0,0,.37-1.07.34.34,0,0,0-.06-.12c-.08-.12-.2-.11-.33-.12a3.24,3.24,0,0,0-1,.2,1.81,1.81,0,0,0-.83.52,1.05,1.05,0,0,0-.16.91c.15.5.68.59,1.14.54a3.23,3.23,0,0,0,1.44-.47,1.65,1.65,0,0,0,.52-.53.85.85,0,0,0-.19-1.07,1.83,1.83,0,0,0-1.53-.19,3.21,3.21,0,0,0-1.33.53,1,1,0,0,0-.36.47,1.16,1.16,0,0,0,.19,1.12,1.2,1.2,0,0,0,.48.39,2.08,2.08,0,0,0,1.21.06,3.07,3.07,0,0,0,1-.35,1.06,1.06,0,0,0,.33-.26.93.93,0,0,0,.24-.53.88.88,0,0,0-.44-.9,1.66,1.66,0,0,0-1-.09,3.45,3.45,0,0,0-1.36.47,1.13,1.13,0,0,0-.59,1.21,1.33,1.33,0,0,0,1,.9,2.46,2.46,0,0,0,1.17-.14,2.23,2.23,0,0,0,.63-.33.87.87,0,0,0,.31-.4,1.06,1.06,0,0,0-.07-.92.78.78,0,0,0-.33-.32l-.3-.09a2.36,2.36,0,0,0-1,.16,2.81,2.81,0,0,0-.47.21,1.44,1.44,0,0,0-.81,1.1,1.1,1.1,0,0,0,.08.57c.07.14.37.1.49.08a2.49,2.49,0,0,0,.88-.23,1.81,1.81,0,0,0,1-1.06,1.35,1.35,0,0,0-.12-1.16c-.06-.1-.2-.1-.3-.1a2.3,2.3,0,0,0-.63.1,2.19,2.19,0,0,0-.6.23c-.05,0-.26.15-.21.24Z"/><path class="cls-3" d="M58.52,8.28a15.89,15.89,0,0,1,.32,4.3c0,.3.28.43.55.44,1.67,0,3.35,0,5,0,.34,0,.92-.25,1-.63s-.5-.44-.76-.43c-1.47.05-3.07.05-4.59,0l.55.44a16.7,16.7,0,0,0-.33-4.57c-.08-.38-.73-.33-1-.25s-.82.32-.74.72Z"/><path class="cls-3" d="M58.85,8.45c1.19.12,2.37.2,3.56.21a6.18,6.18,0,0,0,3.11-.33c.87-.51.66-1.78.72-2.65l.29-4.18-1,.57A8,8,0,0,1,68.07,2c.39.12.39.08.41.5s0,.75,0,1.13L68.69,8c0,.2.39.24.52.24a12.88,12.88,0,0,0,3.2-.51l-1-.17a15.61,15.61,0,0,1,.62,4.07l1-.69-2.73.36c-.19,0-1.17.3-1,.69a12.06,12.06,0,0,0,5,5.64l-.18-.29-.7,1.53c-.08.19-.21.73-.39.85.39-.27.21-.26-.12-.56L70.37,16.8c-.36-.33-1.76-.05-1.68.56a98.52,98.52,0,0,1,.79,11l1-.69a17.24,17.24,0,0,0-4.18,1.07l1.2.09a102.2,102.2,0,0,1-.43-10.64c0-.56-1.38,0-1.56.11l-4.35,3.45,1.5-.21A25.79,25.79,0,0,1,61,19.17l-.12.45a13,13,0,0,0,4.32-7.08c.13-.6-1.61-.33-1.74.24a12.05,12.05,0,0,1-4,6.6c-.16.13-.24.27-.12.45A24.48,24.48,0,0,0,61,22.19c.31.39,1.22,0,1.5-.21l4.36-3.45-1.57.11a102.29,102.29,0,0,0,.44,10.65c0,.43,1,.16,1.2.09a13.12,13.12,0,0,1,3.25-.81c.34,0,1-.25,1-.69a98.69,98.69,0,0,0-.79-11l-1.68.57,2.32,2.1c.64.58,1.16,1.19,2.08,1.11,1.72-.14,2.17-2.3,2.76-3.59.06-.13-.08-.23-.17-.29a11.28,11.28,0,0,1-4.69-5.29l-1,.69,2.74-.37c.34,0,1-.24,1-.68a15.48,15.48,0,0,0-.62-4.06c-.1-.34-.76-.24-1-.18a9.3,9.3,0,0,1-2.29.38l.52.24-.11-3,0-1.51a4.66,4.66,0,0,0-.07-1.35c-.23-.59-.88-.54-1.43-.56a26.81,26.81,0,0,0-3,.11c-.25,0-1,.23-1,.57l-.2,2.78a13.1,13.1,0,0,0-.19,2.78c-.16.33-.09.47.19.42h-.37c-.5,0-1,0-1.5,0-.94,0-1.87-.08-2.8-.17a1.59,1.59,0,0,0-1.23.33c-.22.23-.25.53.15.57Z"/><path class="cls-3" d="M77.26,5.08Q76.91,15.52,77,26a.18.18,0,0,0,.16.09,63.81,63.81,0,0,0,12.74.14c.26,0,1.26-.18,1.25-.57A184.32,184.32,0,0,1,91.8,5c0-.1-.28-.11-.3-.11a122.85,122.85,0,0,1-12.87-.26A1.94,1.94,0,0,0,77.41,5c-.23.2-.29.33.09.36a122.61,122.61,0,0,0,12.86.26l-.3-.11a184.25,184.25,0,0,0-.64,20.62l1.25-.57a59.92,59.92,0,0,1-8.15.18c-.65,0-1.3-.07-1.94-.12s-1.68.13-1.83-.68a13,13,0,0,1,0-2.16v-2c0-5.38.09-10.77.27-16.14,0-.24-1.73,0-1.74.46Z"/><path class="cls-3" d="M80.09,9l.18,1.51c0,.26.36.41.57.43,1.75.24,3.52.38,5.28.45a1.05,1.05,0,0,0,1.18-.72l.29-1.54c.06-.33-.31-.58-.59-.61L81.52,8a1.09,1.09,0,0,0-1.12.54.59.59,0,0,0,.54.79l5.47.5-.59-.61-.29,1.54L86.71,10c-1.77-.06-3.53-.21-5.28-.44L82,10l-.17-1.52c0-.43-.72-.49-1-.4a.83.83,0,0,0-.7.87Z"/><path class="cls-3" d="M80.61,14.81l.23,1.4a.59.59,0,0,0,.37.37,19.1,19.1,0,0,0,5,.88c.39,0,1.17-.16,1.17-.71v-2a.6.6,0,0,0-.58-.59,49.82,49.82,0,0,1-5.18-.46,1.11,1.11,0,0,0-1.13.54c-.18.4.16.71.54.76a49.58,49.58,0,0,0,5.18.46l-.59-.59v2l1.18-.71a17.48,17.48,0,0,1-4.63-.79l.37.37-.23-1.39c-.06-.43-.71-.48-1-.39s-.78.41-.71.85Z"/><path class="cls-3" d="M80.94,20.67c0,.4,0,.82,0,1.22s.55.66,1,.68l2.48.1,1.21,0A3.25,3.25,0,0,0,87,22.54a1.18,1.18,0,0,0,.74-1.08c0-.42,0-.85,0-1.28s-.42-.53-.79-.53a27.86,27.86,0,0,1-3.6-.23,2.59,2.59,0,0,0-2.08.18.83.83,0,0,0-.35.83.85.85,0,0,0,.94.49c.37,0,.91-.27,1-.68s-.48-.55-.8-.54h0l.42.05c.9.31-.83.7-.52.76l.3,0,.6.08,1.28.14c.9.07,1.8.09,2.71.09l-.8-.54v.89a3.65,3.65,0,0,1,0,.47,1,1,0,0,0,0,.16l.44-.34c.11,0,.13,0,.06,0s.26,0-.06,0h-.66l-1,0L83,21.37l-.5,0s-.14,0-.17,0c.15-.09.34.5.35.1l0-.92c0-.42-.43-.58-.79-.54s-1,.26-1,.69Z"/><path class="cls-3" d="M105,1.27,104.86,5l1.22-.57c-1.08.06-2.17.09-3.25.17-.93.06-1.76.34-1.9,1.34-.1.7-.45,1.84.44,2.12a17,17,0,0,0,3.1.43,61.58,61.58,0,0,0,6.51.34c.79,0,2.16.15,2.67-.62.21-.33,0-.8,0-1.17a7.42,7.42,0,0,1,.15-1.82c.08-.36-.54-.31-.72-.29-.51.06-1,.09-1.53.1-.3,0-.59,0-.88,0A2.21,2.21,0,0,1,110,5c-.41-.21-.26-.94-.22-1.34a7.31,7.31,0,0,1,.29-1.55c.08-.3.32-.72.17-1s-.58-.3-.88-.32a19.24,19.24,0,0,0-3.13.13c-.27,0-1,.2-1,.54s.53.31.73.28c.5,0,1-.09,1.51-.1a4.12,4.12,0,0,1,.86,0c.27.08.24,0,.18.24A11.74,11.74,0,0,0,108,4.7c0,.39,0,.74.37,1a3,3,0,0,0,1.28.19,18.44,18.44,0,0,0,3.15-.1l-.73-.29a8.11,8.11,0,0,0-.16,1.39c0,.22,0,.43,0,.65s.15.68,0,.81l.48-.3.33-.07H111q-1,0-2.07-.06-2-.09-4-.33c-.65-.08-1.3-.16-2-.26-.31,0-.41-.09-.41-.43a7.93,7.93,0,0,1,.08-1,2.16,2.16,0,0,0,.07-.51c0-.15,0-.15-.28,0s-.39.09-.08.06.65,0,1-.05l2.06-.1c.24,0,1.2-.16,1.22-.56L106.77,1c0-.61-1.71-.24-1.73.25Z"/><path class="cls-3" d="M103,10.36q0,.95,0,1.86c0,.5,0,1.18.52,1.4a5.33,5.33,0,0,0,1.74.1,12.94,12.94,0,0,1,1.77.18c1.15.19,2.3.64,3.4,0,.57-.32.64-.8.7-1.4l.22-2c0-.2-.13-.32-.33-.34l-4.5-.49c-.73-.08-1.49-.22-2.23-.24a2,2,0,0,0-1.28.39c-.21.19-.38.52-.13.74s.83.14,1.15,0c.17-.07.76-.41.47-.67,0,.08,0,.07,0,0l-.18.24.05,0-.36.2c-.59,0-.72.08-.41.1h.14l.4,0,.81.09,1.68.18,3.29.36-.33-.34-.17,1.53c0,.25,0,.49-.08.74a2.11,2.11,0,0,1-.05.35l0,.11c0,.06,0,.06,0,0s.31-.22.45-.16c-.06,0-.09,0-.16,0a4.29,4.29,0,0,1-.6-.13c-.47-.1-1-.19-1.43-.25s-1-.11-1.5-.13l-.72,0H105s-.19,0-.13,0,0,0,0-.1,0-.23,0-.34l-.06-.65q0-.78,0-1.56c0-.37-.46-.38-.74-.34s-1,.22-1,.57Z"/><path class="cls-3" d="M103.49,16.5l0,1.85c0,.32.26.39.54.42,1.3.15,2.6.25,3.91.3.74,0,1.87,0,2.06-.9.13-.63.2-1.27.29-1.9,0-.22-.15-.35-.34-.39-1.79-.37-3.59-.65-5.39-.87-.44,0-1.23.23-1.2.76a.79.79,0,0,0,.31.58,1.15,1.15,0,0,0,1.16,0c.17-.08.78-.49.45-.74a.4.4,0,0,1-.18-.35l-1.2.76c1.67.2,3.34.47,5,.81l-.35-.4-.16,1-.07.49a2,2,0,0,0,0,.24l0,.1c0,.14,0,.11.15-.08l.42-.18q.38,0,.18,0h-.41l-.56,0L107,17.93c-.74-.05-1.49-.12-2.23-.21l.54.43,0-1.85c0-.39-.44-.46-.77-.41a1.62,1.62,0,0,0-.65.22c-.12.08-.33.23-.33.39Z"/><path class="cls-3" d="M102,21.05l.4,5.81c0,.38.65.43.91.38s.82-.29.84-.68l0-.86c0-.9-1.73-.65-1.76.13l0,.86,1.75-.3-.4-5.8c0-.17-.24-.31-.37-.36a1.14,1.14,0,0,0-.66,0c-.41.12-.74.39-.71.83Z"/><path class="cls-3" d="M102.42,21.38a43.34,43.34,0,0,1,6.43.62,2,2,0,0,1,.67.12c.09.09,0,.61,0,.73l-.06,1.68-.11,3.35,1.22-.58q-3.31-.18-6.61-.49a1.69,1.69,0,0,0-1.23.33c-.25.22-.23.53.15.56q3.5.35,7,.52c.26,0,1.2-.18,1.22-.58l.12-3.66.06-1.82a.9.9,0,0,0-.13-.7,1.39,1.39,0,0,0-.77-.28,47.63,47.63,0,0,0-7.26-.73,1.5,1.5,0,0,0-1.15.47c-.22.33.19.45.46.46Z"/><path class="cls-3" d="M104.17,23.06v2.48a.21.21,0,0,0,.17.13.78.78,0,0,0,.34,0H106a6,6,0,0,0,1.58-.09,1.42,1.42,0,0,0,1-.65,1.72,1.72,0,0,0,0-.64l0-1.34c0-.18-.41-.17-.51-.17h-.31a.75.75,0,0,1-.15,0l-.57-.06-.12,0c-.14,0,.08,0,0,0l-.29-.07a4.76,4.76,0,0,1-.57-.19,1.32,1.32,0,0,0-.56,0,2.42,2.42,0,0,0-.66.21c-.19.11-.57.4-.19.54a6.72,6.72,0,0,0,2.74.41l-.51-.17,0,.88c0,.28,0,.56,0,.84V25.1a.68.68,0,0,1,0,.14l0,.05a1.06,1.06,0,0,1,.93-.38h-2.33l.51.17,0-2.48c0-.12-.25-.16-.31-.17a1.94,1.94,0,0,0-.64.07,1.66,1.66,0,0,0-.59.26c-.11.09-.19.16-.19.31Z"/><path class="cls-3" d="M116.34,4.16a6.64,6.64,0,0,0,2.48,2.72l.12-.79-1.81,1.07-.15.09,0,0c-.15.06-.09,0,.19,0h.23c.06,0,.06,0,0,0s-.15-.11-.1-.06c-.25-.22-.49-.46-.74-.69l-.37-.33L116,6s0-.06,0,0,.06-.16.09-.2l.32-.37A19.16,19.16,0,0,1,117.84,4a.42.42,0,0,0-.2-.74,1.36,1.36,0,0,0-1.23.33,17.26,17.26,0,0,0-1.68,1.74c-.27.32-.59.73-.44,1.18s.54.63.82.88a5.16,5.16,0,0,0,.94.81,1.84,1.84,0,0,0,1.69-.06c.8-.41,1.55-.91,2.32-1.37.29-.17.47-.58.12-.8a5.69,5.69,0,0,1-2.1-2.25.82.82,0,0,0-1-.29,1.26,1.26,0,0,0-.58.31c-.09.11-.23.29-.15.44Z"/><path class="cls-3" d="M126.11,5.47c-.9.6-1.77,1.25-2.61,1.94-.08.07-.22.26-.17.39a6,6,0,0,0,1.81,2.32,1.29,1.29,0,0,0,1.5-.2l1.57-1.27a5,5,0,0,0,1.34-1.26,1.29,1.29,0,0,0-.23-1.52,3.36,3.36,0,0,0-1.64-.79,1.49,1.49,0,0,0-1.23.33c-.27.26-.18.54.17.64a2.06,2.06,0,0,1,1.13.56.8.8,0,0,1,.21.51.43.43,0,0,1,0,.22s0,.08,0,.09l0,.06a9.64,9.64,0,0,1-1.2,1l-1.39,1.13,1.51-.19a5.46,5.46,0,0,1-1.68-2.1l-.17.39A25.23,25.23,0,0,1,127.19,6c.24-.16.52-.51.15-.7a1.35,1.35,0,0,0-1.23.16Z"/><path class="cls-3" d="M120,2.93a15.14,15.14,0,0,1-5.82,10.82.16.16,0,0,0-.09.15,6.51,6.51,0,0,0,1.85,1.92c.33.22,1.35-.1,1.6-.37.56-.59,1.14-1.17,1.74-1.72l.87-.77.45-.37c.13-.11.64-.36.14-.23l-.78.08a4.11,4.11,0,0,1,1.33.65l1.36.75,2.73,1.52a1.88,1.88,0,0,0,1.67-.45l1.67-3a.08.08,0,0,0,0-.12,29,29,0,0,1-3.49-1.48c-.46-.24-1.46-.57-1.62-1.11a5.3,5.3,0,0,1,.09-1.9,10.81,10.81,0,0,1,.44-2,12.48,12.48,0,0,0,.56-1.55c.09-.57-.3-.71-.76-.86l-1.93-.6a1.84,1.84,0,0,0-1.11.12c-.06,0-.78.37-.54.45a16.69,16.69,0,0,1,2.24.71c.75.35.1,1.26-.09,1.83a12.36,12.36,0,0,0-.52,2.16c0,.35-.09.71-.11,1.06a4,4,0,0,0,0,1.2c.16.48,1.24.85,1.71,1.09.66.34,1.35.65,2,.94.33.13.68.23,1,.38.47.24.15.5-.07.9l-1.19,2.15,1.68-.45L123.79,13c-.84-.46-1.87-1.34-2.88-1.19a5,5,0,0,0-2.55,1.45,33.56,33.56,0,0,0-2.43,2.34l1.6-.37a6.11,6.11,0,0,1-1.47-1.4c-.29-.4-.17-.41.18-.71s.46-.39.68-.6a16.26,16.26,0,0,0,2.42-2.94,15.46,15.46,0,0,0,2.35-7.14c0-.17-1.7,0-1.74.47Z"/><path class="cls-3" d="M115.35,17.47a6.64,6.64,0,0,0,2.48,2.72l.12-.8-1.81,1.08-.15.09c.06,0,.05,0,0,0s-.08,0,.2,0h.22c.07,0,.06,0,0,0l-.09-.07c-.26-.21-.5-.45-.75-.68l-.36-.33-.13-.14c0,.05,0-.06,0,0s.07-.16.1-.2l.31-.37a19.16,19.16,0,0,1,1.42-1.43.42.42,0,0,0-.2-.74,1.33,1.33,0,0,0-1.22.33,17.36,17.36,0,0,0-1.69,1.74c-.27.32-.59.73-.43,1.18s.54.63.81.88a5.22,5.22,0,0,0,.95.81,1.84,1.84,0,0,0,1.69-.06c.79-.41,1.55-.91,2.31-1.37.29-.17.47-.58.12-.8a5.76,5.76,0,0,1-2.1-2.25.82.82,0,0,0-1-.29,1.18,1.18,0,0,0-.57.31c-.09.11-.23.29-.16.44Z"/><path class="cls-3" d="M126.11,17.79c-.9.6-1.77,1.25-2.61,1.94-.08.07-.22.26-.17.39a6,6,0,0,0,1.81,2.32,1.31,1.31,0,0,0,1.5-.19L128.21,21a5.07,5.07,0,0,0,1.34-1.27,1.29,1.29,0,0,0-.23-1.52,3.34,3.34,0,0,0-1.64-.78,1.43,1.43,0,0,0-1.23.33c-.27.26-.18.54.17.63a2.06,2.06,0,0,1,1.13.56.8.8,0,0,1,.21.51.45.45,0,0,1,0,.23.48.48,0,0,0,0,.08l0,.06a10.68,10.68,0,0,1-1.2,1l-1.39,1.12,1.51-.19a5.39,5.39,0,0,1-1.68-2.1l-.17.39a27.25,27.25,0,0,1,2.29-1.71c.24-.16.52-.51.15-.7a1.38,1.38,0,0,0-1.23.16Z"/><path class="cls-3" d="M120,15.25a15.12,15.12,0,0,1-5.82,10.82.18.18,0,0,0-.09.15,6.51,6.51,0,0,0,1.85,1.92c.33.22,1.35-.1,1.6-.37q.84-.89,1.74-1.71c.29-.27.58-.52.87-.77l.45-.38c.13-.11.64-.35.14-.23l-.78.09a4.09,4.09,0,0,1,1.33.64l1.36.76,2.73,1.51a1.85,1.85,0,0,0,1.67-.45l1.67-3c0-.06,0-.1,0-.13a29,29,0,0,1-3.49-1.48c-.46-.24-1.46-.57-1.62-1.1a5.35,5.35,0,0,1,.09-1.91,10.88,10.88,0,0,1,.44-2,12.62,12.62,0,0,0,.56-1.56c.09-.57-.3-.7-.76-.85l-1.93-.61a1.85,1.85,0,0,0-1.11.13c-.06,0-.78.37-.54.44a18.26,18.26,0,0,1,2.24.71c.75.35.1,1.27-.09,1.84a12.25,12.25,0,0,0-.52,2.15c0,.36-.09.71-.11,1.07a4,4,0,0,0,0,1.19c.16.48,1.24.86,1.71,1.09.66.34,1.35.66,2,.94.33.13.68.23,1,.39.47.24.15.49-.07.89l-1.19,2.16,1.68-.45-3.18-1.77c-.84-.46-1.87-1.33-2.88-1.19a5,5,0,0,0-2.55,1.46,31.42,31.42,0,0,0-2.43,2.33l1.6-.37a6.11,6.11,0,0,1-1.47-1.4c-.29-.4-.17-.41.18-.7l.68-.6a16,16,0,0,0,2.42-2.95,15.46,15.46,0,0,0,2.35-7.13c0-.18-1.7,0-1.74.46Z"/><path class="cls-3" d="M142.24,9.9c-.18,2.35-.46,4.71-.52,7.06A8.29,8.29,0,0,0,142.85,22c2.28,3.21,7.79,2.15,9.13-1.41.14-.37-1.54-.19-1.72.29-.58,1.54-1.9,2.63-3.59,2.13a4.45,4.45,0,0,1-2.91-3.3,13.19,13.19,0,0,1-.25-4.34c.13-2,.31-4,.47-6,0-.3-1.69-.09-1.74.46Z"/><path class="cls-3" d="M156.41,12.92l6.31-1.49c.19,0,.85-.24.79-.52s-.81-.09-.94-.06l-6.31,1.49c-.19,0-.85.24-.79.52s.81.09.94.06Z"/><path class="cls-3" d="M159.06,9.5l-1.12,10.44c-.07.67,1.67.34,1.73-.23L160.8,9.27c.07-.66-1.68-.34-1.74.23Z"/><path class="cls-3" d="M164.68,15.13a15.5,15.5,0,0,1,1.77-.5,3.93,3.93,0,0,1,.44-.1c-.23,0,0,0,0,0l.24,0,.93-.13-.71-.56-.87,1.33c-.23.34.19.56.49.57a1.34,1.34,0,0,0,1.14-.49l.87-1.33a.3.3,0,0,0-.07-.44.88.88,0,0,0-.63-.13,17.32,17.32,0,0,0-3.9.86c-.27.1-.84.32-.74.71s.74.34,1,.25Z"/><path class="cls-3" d="M163.83,21a9.58,9.58,0,0,0,7-.76c.19-.09.56-.4.19-.54a1.75,1.75,0,0,0-1.22.2c-.21.11-.32.16-.51.24a4.1,4.1,0,0,1-.52.18l-.28.07c-.11,0-.13,0,0,0l-.2,0-.51.08a6.85,6.85,0,0,1-2.51-.26,1.79,1.79,0,0,0-1.22.2c-.18.09-.59.43-.19.54Z"/><path class="cls-3" d="M178.13,11.76a45.58,45.58,0,0,0-1,11.11c0,.42,1.07.14,1.2.08A29.06,29.06,0,0,0,183,20.62c.24-.14.52-.42.17-.61a1.5,1.5,0,0,0-1.23.18,27,27,0,0,1-4.27,2.14l1.2.08a44.77,44.77,0,0,1,1-10.89c.13-.58-1.61-.31-1.73.24Z"/><path class="cls-3" d="M187.72,12.17,188.9,18l1.55-.7-.39-.31c-.54-.41-2.1.36-1.36.94l.39.3c.44.34,1.69-.05,1.55-.7l-1.18-5.78c-.08-.4-.72-.38-1-.3s-.81.35-.73.77Z"/><path class="cls-1" d="M30.58,27.6s-4-3.2-4.8-7.2C24.7,15,23.42,10.74,22.9,5.25,25.9,5.89,29,6,33,7.6c4.62,1.84,7,3.7,10.4,8.8,3.2,4.8,6,12.91,0,15.2A18.36,18.36,0,0,1,30.58,27.6Z"/><path class="cls-3" d="M44.75,34.07l-.7-2c-.07-.21-.47-.17-.62-.16-3.24.2-6.61.37-9.74-.62a10.91,10.91,0,0,1-6.83-6.41c-2.69-6.43-.89-13.67-3.15-20.2l-2.11.66C24,7.84,27.39,8.56,30.5,9.73a23.94,23.94,0,0,1,8.14,5.14,18.92,18.92,0,0,1,5,8c.9,3,1.33,7.46-1.51,9.58-.88.65,1.27.38,1.67.08,2.78-2.06,3-5.71,2.36-8.87a18.17,18.17,0,0,0-4.5-8.47,23.83,23.83,0,0,0-8.27-5.83c-3.34-1.43-7.19-2-9.78-4.77-.3-.32-2.27.19-2.11.67,2.41,7,.17,14.92,3.8,21.55,3.48,6.32,10.82,6.4,17.17,6l-.62-.16.7,2c.18.53,2.33-.12,2.17-.58Z"/><path class="cls-3" d="M27.8,13.48l9.73,14c.48.69,2.58-.08,2-.9l-9.74-14c-.48-.7-2.58.07-2,.9Z"/><path class="cls-3" d="M35,15.45l-.69,6.87c-.1.94,2.1.56,2.18-.25l.69-6.86c.09-.94-2.1-.56-2.18.24Z"/><path class="cls-3" d="M29.2,23.16a52.53,52.53,0,0,1,6.56,2.52,1.92,1.92,0,0,0,1.53-.23c.28-.16.68-.51.23-.72A53.19,53.19,0,0,0,31,22.2a2.06,2.06,0,0,0-1.53.24c-.23.12-.73.57-.23.72Z"/><path class="cls-3" d="M27.13,17.05l3.45.52a2.75,2.75,0,0,0,1.52-.29c.14-.07.38-.16.45-.31s-.06-.19-.17-.21l-3.45-.52a2.67,2.67,0,0,0-1.52.29c-.14.07-.38.16-.45.31s.06.19.17.21Z"/><path class="cls-1" d="M228.58,27.6s4-3.2,4.8-7.2c1.08-5.4,2.37-9.66,2.89-15.15-3,.64-6.09.75-10.09,2.35-4.61,1.84-7,3.7-10.4,8.8-3.2,4.8-6,12.91,0,15.2A18.36,18.36,0,0,0,228.58,27.6Z"/><path class="cls-3" d="M214.42,34.07l.7-2c.07-.21.46-.17.62-.16,3.24.2,6.6.37,9.74-.62a10.92,10.92,0,0,0,6.82-6.41c2.7-6.43.9-13.67,3.16-20.2l2.11.66c-2.36,2.53-5.79,3.25-8.9,4.42a23.94,23.94,0,0,0-8.14,5.14,18.82,18.82,0,0,0-5,8c-.91,3-1.33,7.46,1.5,9.58.88.65-1.27.38-1.67.08-2.77-2.06-3-5.71-2.36-8.87a18.26,18.26,0,0,1,4.5-8.47,24,24,0,0,1,8.28-5.83c3.34-1.43,7.19-2,9.77-4.77.3-.32,2.28.19,2.11.67-2.41,7-.16,14.92-3.8,21.55-3.47,6.32-10.81,6.4-17.16,6l.62-.16-.7,2c-.18.53-2.33-.12-2.17-.58Z"/><path class="cls-3" d="M231.37,13.48l-9.74,14c-.48.69-2.57-.08-2-.9l9.74-14c.48-.7,2.57.07,2,.9Z"/><path class="cls-3" d="M224.16,15.45l.69,6.87c.09.94-2.1.56-2.18-.25L222,15.21c-.09-.94,2.1-.56,2.18.24Z"/><path class="cls-3" d="M230,23.16a53.13,53.13,0,0,0-6.56,2.52,1.93,1.93,0,0,1-1.53-.23c-.27-.16-.67-.51-.22-.72a53.19,53.19,0,0,1,6.56-2.53,2.06,2.06,0,0,1,1.53.24c.22.12.72.57.22.72Z"/><path class="cls-3" d="M232,17.05l-3.45.52a2.73,2.73,0,0,1-1.51-.29c-.15-.07-.39-.16-.45-.31s0-.19.17-.21l3.45-.52a2.7,2.7,0,0,1,1.52.29c.14.07.38.16.45.31s-.06.19-.18.21Z"/></svg>