<svg xmlns="http://www.w3.org/2000/svg" viewBox="0 0 556.13 90.23"><defs><style>.svg_line_header01-1{fill:#a3cf92;}.svg_line_header01-2{fill:#39b54a;}.svg_line_header01-3{fill:#231815;}</style></defs><g id="レイヤー_2" data-name="レイヤー 2"><g id="見出し"><polygon class="svg_line_header01-1" points="282.65 2.7 286.74 3.38 284.78 11.79 291.32 14.24 289.27 18.33 282.39 14.86 277.96 18.6 275.58 16.9 280.35 10.76 282.65 2.7"/><polygon class="svg_line_header01-1" points="285.8 8.72 289.89 5.99 291.94 8.04 288.53 11.45 285.8 8.72"/><polygon class="svg_line_header01-1" points="274.21 7.36 277.62 3.95 280.35 7.36 276.94 9.4 274.21 7.36"/><polygon class="svg_line_header01-1" points="282.65 19.07 286.74 19.75 284.78 28.15 291.07 31.1 289.02 35.19 282.39 31.22 277.96 34.97 275.58 33.26 280.35 27.13 282.65 19.07"/><polygon class="svg_line_header01-1" points="285.8 24.4 289.89 21.67 291.94 23.72 288.53 27.13 285.8 24.4"/><polygon class="svg_line_header01-1" points="272.85 23.72 276.26 20.31 278.99 23.72 275.58 25.76 272.85 23.72"/><path class="svg_line_header01-1" d="M259.89,25.08v7.5l8.87.68v-7.5Zm5.46,4.77h-2.73v-2h2.73Z"/><polygon class="svg_line_header01-1" points="262.91 0.61 267.68 1.29 267.39 5.99 272.17 5.99 272.17 10.08 258.53 8.72 258.87 5.65 263.3 5.31 262.91 0.61"/><rect class="svg_line_header01-1" x="260.58" y="11.45" width="8.18" height="4.09"/><polygon class="svg_line_header01-1" points="268.08 22.35 261.26 22.35 261.26 18.95 268.08 19.63 268.08 22.35"/><path class="svg_line_header01-1" d="M228.87,3.26s-.68,25.91-.68,26.59l17.05,1.37L245.92,4Zm11.55,22.55-6.09-.73V23l6.13.68Zm0-6.82-6.09-.73v-2l6.13.68Zm0-7.5-6.81-.68,0-2.09,6.81.68Z"/><polygon class="svg_line_header01-1" points="211.79 13.64 205.66 14.32 205.46 8.04 212.51 8.04 212.47 0 217.93 0.68 217.21 8.04 221.34 7.5 222.02 12.27 218.61 12.95 224.26 20.57 222.7 23.86 217.93 19.77 218.61 33.41 214.52 34.09 213.29 21.35 207.81 25.27 206.24 22.92 211.79 13.64"/><path class="svg_line_header01-2" d="M0,67.91s8-6.82,10.56-16.18L17,53.94C10.42,69.64,0,67.91,0,67.91Zm22-1.44c-2.4,7.49-5.28,12.19-7.93,15.22,3.37-.39,7.49-.77,12.34-1.2l-1.63-5.14,5.9-1.2S32.11,79.24,34.56,89l-5,1.06L28.23,86C14.31,88.12,4.46,89.51,4.46,89.51L3.7,82.84s1.77-.24,5.08-.63a59,59,0,0,0,6.87-17.9Zm16.89,1.44S28.47,69.64,22,53.94l6.33-2.21C30.87,61.09,38.88,67.91,38.88,67.91Z"/><path class="svg_line_header01-2" d="M48.14,83.08c-.28-4.75-.43-8.4-.48-10.18h-5V70.55H56.11L58,68.63l1.88,1.92V72.9H54.19c0,1.58-.09,4.75-.24,9.41,3.65-.67,6.2-1.39,6.2-1.39S57.79,87.16,44,89.7l-1.39-6.53A43,43,0,0,0,48.14,83.08ZM43.39,60.61H61c-.24-2.83-.34-5.9-.34-9.26h6.72c0,3.36.1,6.43.24,9.26H74l1.92-1.92,1.92,1.92V63H67.78c1.63,23.43,8.06,27.27,8.06,27.27S63.84,90.38,61.2,63H43.39ZM72.1,58.69a12.38,12.38,0,0,0-3.31-5.28s5.76-1.68,7.63,3.79Z"/><path class="svg_line_header01-2" d="M98.64,58.07S98,70.4,97.82,81.59c10.13-.29,12.29-.29,12.29-.29V88s-3.93-.19-16.46-.86c-1.44-13.4-1.73-29.09-1.73-29.09Z"/><path class="svg_line_header01-2" d="M121.68,58.07h6.72s.19,15.5-.67,29.09h-5.86C121.54,73.86,121.68,58.07,121.68,58.07Z"/><path class="svg_line_header01-2" d="M139.68,87.16C138.24,73.76,138,58.07,138,58.07h6.72s6.34,7.39,11.62,15c.14-4.9.28-10.28.28-15h4.13c1.44,13.39,1.68,29.09,1.68,29.09h-6.72s.19-3,.34-7.35c-3.75-4.75-8.45-10.56-11.67-14.45-.24,6-.57,14.74-.57,21.8Z"/><path class="svg_line_header01-2" d="M172.8,87.16c-1.44-13.4-1.73-29.09-1.73-29.09,15.31-.34,20.59-.34,20.59-.34v4.9s-3.79-.1-14.06-.43c-.1,2.11-.19,4.85-.29,7.92,8.07-.24,12.19-.24,12.19-.24v4.89s-4.41-.09-12.33-.52c-.1,2.39-.15,4.94-.19,7.39,11.9-.34,15.26-.34,15.26-.34V88S186.72,87.83,172.8,87.16Z"/><path class="svg_line_header01-2" d="M213.65,60.71s10,0,25.34.33c0,11.38-10.32,12.39-10.32,12.39s2.5-2.16,3.31-8.26c-11,.34-18.33.43-18.33.43Zm2,26.45s5.67-4.51,5.67-17.67h6.72C228.05,86.05,215.66,87.16,215.66,87.16Z"/><path class="svg_line_header01-2" d="M254.4,87.16s3.12-4.61,4.22-18.77c-2.11,0-3.17,0-3.17,0v-4.9h3.46c0-1.68.1-3.5.1-5.47h6.72c0,2-.05,3.84-.15,5.57,3.51,0,8,.09,13.3.24,0,23.28-7.2,23.33-7.2,23.33s.38-9.41.43-19.21c-2.59,0-4.89.15-7,.2C262.9,87.16,254.4,87.16,254.4,87.16Z"/><path class="svg_line_header01-2" d="M298.65,73.09A42,42,0,0,1,297,62.92h6.73v.48h4.6c-1.87-.77-4.36-2.4-4.36-5.76h5.76a38.15,38.15,0,0,0,.43,5.76h2v-.48h6.72c0,24.62-16.27,24.24-16.27,24.24s8.79-4.13,9.51-21.84h-8.55c-.09,1.92-.19,4.75-.19,7.77Z"/><path class="svg_line_header01-2" d="M341.86,67s-4.57-2.55-8.36-2.6l.05-5C342.24,59.89,341.86,67,341.86,67Zm14.88-.92S361.06,78.66,335,86.15l-1.49-6.53C352.13,74.48,356.74,66.08,356.74,66.08Z"/><path class="svg_line_header01-2" d="M377.76,87.16h-5.38c-.67-13-.86-29.09-.86-29.09h6.72S378.24,72.9,377.76,87.16ZM388,77.51c-8.5,0-8.93-8.83-8.93-8.83A17.74,17.74,0,0,0,388,70.79Z"/><path class="svg_line_header01-2" d="M409,62c0,11.09.48,16.13.48,16.13s-7.2-.39-7.2-16.13ZM430.8,60,432.72,62v1.92h-5.18v4.41a78.11,78.11,0,0,1-.34,8.59c1.44.39,2.64.73,3.55,1l-1.53,5.91c-1-.48-2.12-1-3.32-1.49-1.39,3.07-3.88,4.85-8.44,4.85-7.64,0-6.63-10.71-.1-11.33a17.73,17.73,0,0,1,3.26,0c.15-2,.2-4.51.2-7.54V63.88h-8.74V62h8.74V58.07h6.72V62h1.34ZM420.05,80.39A11.76,11.76,0,0,0,417.6,80a1.78,1.78,0,0,0,0,3.55C418.66,83.56,419.47,82.84,420.05,80.39Z"/><path class="svg_line_header01-2" d="M475,83.7s-2.31,1.78-15.94,1.78c-10,0-7.58-9.79-7.58-9.79s1.68,3.07,7.58,3.07c12.67,0,15.41-1.78,15.41-1.78ZM471.5,66.8a117.68,117.68,0,0,0-16.94-1V60.47a136.12,136.12,0,0,1,17.9,1.05Z"/><path class="svg_line_header01-2" d="M499,63.88h-5.18V62h5.42c.19-1.68.29-3.32.38-4.85l6.68,1.49c-.2,1.15-.44,2.3-.72,3.36h4.6L512,60,513.94,62v1.92h-9a35.22,35.22,0,0,1-4.51,9.36s6.48-2.55,10.13.86c4.7,4.42,2.54,13.06-9.36,13.06,3.36-1.59,7.29-5,5.47-8.83-2.11-4.37-10.42-1.88-10.42-1.88A58.29,58.29,0,0,0,499,63.88Z"/><path class="svg_line_header01-2" d="M548.83,78.71c-3-4.46-10,.24-10,.24a121.14,121.14,0,0,1,0-19.54h6.72s-1.34,9.55-2,14.79c0,0,6.48-4,10.42-.39,5.38,4.9.53,12.77-10.27,13.35C547.15,85.19,550.7,81.45,548.83,78.71ZM547,63.06l3.17-6c7.49,4,3.74,12,3.74,12A18.13,18.13,0,0,0,547,63.06Z"/><path class="svg_line_header01-3" d="M382.45,8.26a105.49,105.49,0,0,1-5,14.77c-.48,1.14,1.7,1.15,2.08.25A108.23,108.23,0,0,0,384.65,8.1c.14-.54-.63-.74-1-.72a1.26,1.26,0,0,0-1.19.88Z"/><path class="svg_line_header01-3" d="M375.12,29.73a1.65,1.65,0,0,1,.21,1.21v-.09a1.65,1.65,0,0,1-.27.64l-.09.13c-.07.09,0-.05,0,0s0,0-.06.06a.53.53,0,0,1-.14.11s.15-.09.07-.05l-.05,0c-.06,0,0,0,.13-.06l1.7-.19a1.25,1.25,0,0,1-.08-.81l0,.09a1.46,1.46,0,0,1,.25-.57l.05-.06s.06-.06,0,0l0,0,.06,0,.05,0s-.15.1-.06,0,.14-.08,0,0l-.06,0c.08,0,0,0-.16.06l-1.27.2.14,0s-.13-.05,0,0l.06,0a.91.91,0,0,1,.21.18l-.06-.07a1.22,1.22,0,0,1,.24,1l0-.09a1,1,0,0,1-.15.37l0,0s0,0,0,0l-.06.05c-.12.11.14-.09.05,0l.13-.07.17-.06,1.08-.21c.23,0,0,0-.09,0h0l-.12-.06a1.53,1.53,0,0,1-.4-.31l.06.06a1.26,1.26,0,0,1-.33-1.06v.09a1.15,1.15,0,0,1,.23-.47c.07-.1-.08.07,0,0l.11-.09c.11-.09-.14.08,0,0s-.18.08-.05,0q-.3.1-.15.06a2,2,0,0,1-.33.09l-.08,0-.16,0h-.14l.07,0,.09.05a.9.9,0,0,1,.19.15L376,30a1.11,1.11,0,0,1,.23.93l0-.09a.91.91,0,0,1-.17.39c-.08.12.06,0,0,0l-.07.06c.11-.08.13-.1.07-.06l.24-.11a2.38,2.38,0,0,1,.83-.18c-.16,0,.13,0,0,0s-.14,0-.15,0h0l0,0a.31.31,0,0,1-.13-.06,1.26,1.26,0,0,1-.38-.31l.06.07a1.44,1.44,0,0,1-.36-1.2l0,.09a1.21,1.21,0,0,1,.11-.3l.06-.11.05-.06s-.07.06,0,0l.1-.1-.07.06s.06,0,.06-.05l-.12.07c.11-.05-.28.1-.15.06s-.22.06-.19.05-.31.07-.18.05l-.17,0h0c-.23,0,0,0,0,0h0l.14,0s-.1,0,0,0l.07,0a.24.24,0,0,1,.11.06,1,1,0,0,1,.23.18l-.06-.07a.9.9,0,0,1,.21.77l0-.08a1.34,1.34,0,0,1-.2.46l-.07.08c0,.05,0,0,0,0s0,0-.05.05a.46.46,0,0,0-.07.07c-.1.08.16-.11,0,0l.12-.06c-.06,0,0,0,.06,0a2.74,2.74,0,0,1,.75-.18h.22l-.1,0h0l-.06,0-.08-.05a.52.52,0,0,1-.16-.14l.06.07a1.05,1.05,0,0,1-.19-.88l0,.09a1.34,1.34,0,0,1,.19-.44l0,0c0-.05-.08.07,0,0s.06-.08.09-.08l-.09.06-.14.07a2.66,2.66,0,0,1-1.07.25l-.37-.12a.85.85,0,0,1,.12.64l0-.08a1.14,1.14,0,0,1-.13.35l-.1.15c-.07.09,0,0,0,0l-.07.07-.07.06c-.09.08.13-.08.06,0l-.08,0,.13-.06.19-.08a2.88,2.88,0,0,1,.66-.15c-.14,0,.24,0,.1,0,.06,0,.18,0,.06,0s-.13,0,0,0a1.11,1.11,0,0,0-.54-.05,3.4,3.4,0,0,0-.85.2,1.54,1.54,0,0,0-.61.31c-.06.05-.2.2-.05.25a2.68,2.68,0,0,0,1.61,0,3.53,3.53,0,0,0,1.35-.65,1.31,1.31,0,0,0,.46-1.34.37.37,0,0,0-.07-.14c-.1-.16-.26-.15-.42-.16a3.87,3.87,0,0,0-1.26.25,2.22,2.22,0,0,0-1,.65,1.33,1.33,0,0,0-.21,1.14c.2.62.86.73,1.43.67a4,4,0,0,0,1.79-.58,1.89,1.89,0,0,0,.65-.67,1,1,0,0,0-.23-1.33,2.29,2.29,0,0,0-1.91-.25,4.1,4.1,0,0,0-1.66.67,1.34,1.34,0,0,0-.46.59,1.45,1.45,0,0,0,.25,1.4,1.6,1.6,0,0,0,.6.49,2.68,2.68,0,0,0,1.51.08,4.16,4.16,0,0,0,1.28-.45,1.67,1.67,0,0,0,.42-.32,1.14,1.14,0,0,0,.29-.66,1.1,1.1,0,0,0-.55-1.14,2.16,2.16,0,0,0-1.26-.1,4.25,4.25,0,0,0-1.69.58,1.4,1.4,0,0,0-.74,1.52,1.61,1.61,0,0,0,1.29,1.12,2.89,2.89,0,0,0,1.45-.18,2.94,2.94,0,0,0,.79-.4,1.17,1.17,0,0,0,.4-.51,1.36,1.36,0,0,0-.09-1.15,1.08,1.08,0,0,0-.42-.4,1.2,1.2,0,0,0-.37-.1,2.73,2.73,0,0,0-1.26.19,4.53,4.53,0,0,0-.6.26,1.85,1.85,0,0,0-1,1.38,1.33,1.33,0,0,0,.11.71c.08.18.46.12.6.11a3.21,3.21,0,0,0,1.1-.3,2.22,2.22,0,0,0,1.28-1.32,1.72,1.72,0,0,0-.15-1.45c-.07-.12-.24-.12-.37-.12a2.61,2.61,0,0,0-.79.12,2.85,2.85,0,0,0-.75.29c-.06,0-.33.19-.26.29Z"/><path class="svg_line_header01-3" d="M202.68,10.35a19.36,19.36,0,0,1,.4,5.37c0,.38.35.54.68.55,2.1.06,4.19.05,6.29,0,.42,0,1.14-.31,1.22-.78s-.63-.55-1-.54c-1.83.06-3.83.05-5.73,0l.68.55a20.75,20.75,0,0,0-.41-5.72c-.1-.47-.91-.41-1.25-.31s-1,.41-.92.9Z"/><path class="svg_line_header01-3" d="M203.1,10.57c1.48.14,3,.24,4.45.26,1.21,0,2.78.22,3.88-.42s.82-2.22.9-3.32l.37-5.21-1.24.71a10.18,10.18,0,0,1,3.16-.1c.48.15.48.1.51.62s0,.95.05,1.42l.21,5.45c0,.25.49.3.65.29a16.36,16.36,0,0,0,4-.63l-1.22-.21a19.77,19.77,0,0,1,.77,5.08l1.24-.86-3.42.46c-.23,0-1.46.36-1.24.85A15,15,0,0,0,222.46,22l-.21-.36-.88,1.91c-.11.23-.26.91-.49,1.06.49-.33.26-.32-.15-.69L217.49,21c-.45-.4-2.19,0-2.09.71a123.73,123.73,0,0,1,1,13.73l1.24-.85a21.41,21.41,0,0,0-5.22,1.33l1.51.12a128.55,128.55,0,0,1-.54-13.31c0-.7-1.72,0-2,.14L206,27.17l1.88-.26a29.18,29.18,0,0,1-2.1-2.95l-.15.57a16.3,16.3,0,0,0,5.4-8.85c.17-.75-2-.41-2.17.29a15.06,15.06,0,0,1-5,8.25c-.2.17-.29.34-.15.57a30.76,30.76,0,0,0,2.09,2.95c.39.49,1.52,0,1.88-.26l5.44-4.31-2,.13a123.11,123.11,0,0,0,.54,13.31c0,.54,1.29.2,1.5.12a16.31,16.31,0,0,1,4.07-1c.42-.05,1.25-.31,1.24-.86a121.36,121.36,0,0,0-1-13.73l-2.1.7,2.9,2.63c.8.73,1.44,1.48,2.6,1.39,2.15-.18,2.71-2.87,3.44-4.49.08-.16-.1-.29-.21-.36a14.11,14.11,0,0,1-5.86-6.61l-1.24.86,3.42-.46c.42-.06,1.25-.3,1.24-.86A19.33,19.33,0,0,0,221,8.85c-.12-.43-1-.3-1.22-.22a11.56,11.56,0,0,1-2.87.47l.66.3-.14-3.79-.07-1.9A5.88,5.88,0,0,0,217.27,2c-.29-.74-1.11-.68-1.79-.71a35.49,35.49,0,0,0-3.71.14c-.32,0-1.21.28-1.24.71l-.25,3.48A15.73,15.73,0,0,0,210,9.13c-.2.4-.12.58.24.52h-.46c-.62,0-1.26,0-1.88,0-1.17,0-2.34-.1-3.5-.21a2,2,0,0,0-1.54.41c-.27.28-.31.67.2.72Z"/><path class="svg_line_header01-3" d="M226.1,6.35q-.42,13-.3,26.09a.23.23,0,0,0,.19.12,80.76,80.76,0,0,0,15.93.17c.32,0,1.57-.23,1.56-.71a228.61,228.61,0,0,1,.8-25.78c0-.12-.35-.14-.38-.14a154.05,154.05,0,0,1-16.08-.32,2.37,2.37,0,0,0-1.53.41c-.29.25-.36.41.12.45A151.16,151.16,0,0,0,242.48,7l-.38-.14a228.67,228.67,0,0,0-.79,25.78l1.56-.72a75.5,75.5,0,0,1-10.2.23c-.81,0-1.61-.08-2.42-.14s-2.09.15-2.29-.86a15.21,15.21,0,0,1,0-2.7c0-.82,0-1.64,0-2.46q0-10.1.33-20.18c0-.3-2.15,0-2.17.58Z"/><path class="svg_line_header01-3" d="M229.65,11.22l.21,1.9c0,.32.45.5.72.54,2.19.28,4.39.47,6.6.55a1.3,1.3,0,0,0,1.47-.9l.36-1.92c.08-.41-.38-.73-.73-.76L231.43,10a1.38,1.38,0,0,0-1.41.68.73.73,0,0,0,.68,1l6.84.63-.73-.76-.37,1.92,1.47-.9c-2.2-.08-4.41-.27-6.6-.55l.72.53-.21-1.89c-.06-.54-.91-.62-1.3-.5a1,1,0,0,0-.87,1.08Z"/><path class="svg_line_header01-3" d="M230.3,18.52l.28,1.74a.73.73,0,0,0,.46.46,24.07,24.07,0,0,0,6.3,1.1c.49,0,1.47-.2,1.47-.89V18.49a.76.76,0,0,0-.74-.74,61.21,61.21,0,0,1-6.47-.58,1.38,1.38,0,0,0-1.41.68c-.22.5.2.88.67.95a61.16,61.16,0,0,0,6.48.58l-.74-.74v2.44l1.47-.88a22,22,0,0,1-5.78-1l.46.47-.28-1.75c-.08-.53-.89-.6-1.29-.48s-1,.51-.88,1.07Z"/><path class="svg_line_header01-3" d="M230.71,25.83c0,.51-.06,1,0,1.53.05.66.69.82,1.26.85q1.55.08,3.09.12l1.52.05a3.93,3.93,0,0,0,1.77-.21,1.45,1.45,0,0,0,.92-1.34c0-.53,0-1.07,0-1.6s-.53-.67-1-.67a33.19,33.19,0,0,1-4.5-.29c-.87-.11-1.83-.37-2.6.23a1,1,0,0,0-.44,1c.15.51.72.63,1.18.61s1.14-.34,1.21-.85-.59-.69-1-.67H232l.53.05c1.13.4-1,.88-.65,1l.38.05.74.11c.53.07,1.07.13,1.6.17,1.13.09,2.26.12,3.39.11l-1-.67,0,1.11c0,.2,0,.4,0,.59a1.65,1.65,0,0,0,0,.21l.55-.44h-.82l-1.2,0-2.28-.09-.63,0s-.17,0-.21,0c.19-.11.43.62.44.12l0-1.15c0-.52-.54-.72-1-.67s-1.19.32-1.2.85Z"/><path class="svg_line_header01-3" d="M260.83,1.59l-.23,4.64,1.53-.7c-1.35.07-2.71.11-4.06.2-1.17.08-2.21.43-2.38,1.68-.13.88-.56,2.31.55,2.65a21.84,21.84,0,0,0,3.88.54,76.2,76.2,0,0,0,8.13.42c1,0,2.71.19,3.34-.77.27-.42.06-1,0-1.46a9.17,9.17,0,0,1,.19-2.28c.09-.45-.67-.39-.91-.36a17.49,17.49,0,0,1-1.91.12c-.37,0-.73,0-1.1,0a2.69,2.69,0,0,1-.85-.06c-.51-.26-.32-1.18-.27-1.68a9.76,9.76,0,0,1,.36-1.94c.1-.37.41-.89.22-1.27s-.73-.38-1.11-.4a24.32,24.32,0,0,0-3.91.16c-.34,0-1.19.25-1.26.67s.66.39.91.36c.63-.07,1.26-.11,1.89-.13A4.87,4.87,0,0,1,265,2c.34.09.29,0,.22.29a14.75,14.75,0,0,0-.61,3.62c0,.49,0,.92.46,1.19a3.72,3.72,0,0,0,1.59.25,23.65,23.65,0,0,0,3.95-.13l-.91-.36a10.09,10.09,0,0,0-.21,1.74q0,.4,0,.81c0,.2.19.85,0,1l.6-.38.41-.08h-2.18c-.86,0-1.73,0-2.59-.07-1.69-.08-3.38-.22-5.06-.42-.81-.1-1.63-.2-2.44-.33-.38-.06-.52-.11-.52-.53a10.2,10.2,0,0,1,.1-1.23,2.66,2.66,0,0,0,.09-.63c.07-.2,0-.2-.35,0-.46.09-.49.12-.1.08s.82,0,1.22-.06l2.57-.13c.31,0,1.5-.2,1.52-.7L263,1.27c0-.76-2.13-.3-2.16.32Z"/><path class="svg_line_header01-3" d="M258.24,13a22.45,22.45,0,0,0,0,2.32c0,.63,0,1.47.64,1.75a7.27,7.27,0,0,0,2.19.12,18.17,18.17,0,0,1,2.21.22c1.43.24,2.87.8,4.25,0,.71-.41.79-1,.87-1.76l.28-2.5c0-.25-.17-.4-.41-.42l-5.63-.62c-.92-.1-1.86-.27-2.79-.3a2.45,2.45,0,0,0-1.59.5c-.27.23-.48.64-.17.92a1.5,1.5,0,0,0,1.44,0c.21-.09.95-.51.59-.83,0,.09,0,.08,0,0l-.22.3.06-.06-.45.26q-1.11.08-.51.12l.17,0,.5.06,1,.11,2.1.23,4.12.45-.42-.43-.21,1.92c0,.3-.07.61-.1.92a3.32,3.32,0,0,1-.06.44l0,.13c-.05.08,0,.08,0,0s.4-.26.58-.2c-.08,0-.12,0-.2,0a6.41,6.41,0,0,1-.76-.16c-.59-.13-1.18-.23-1.78-.31s-1.25-.14-1.88-.17l-.91,0h-.49s-.24,0-.16,0,0,0,0-.12,0-.28-.05-.43-.05-.53-.06-.8a18.13,18.13,0,0,1,0-1.95c0-.47-.58-.48-.93-.43s-1.23.27-1.24.72Z"/><path class="svg_line_header01-3" d="M258.89,20.63l0,2.3c0,.4.32.49.67.53,1.63.19,3.26.32,4.89.38.93,0,2.34,0,2.58-1.13.15-.78.24-1.58.36-2.37,0-.27-.18-.44-.43-.49q-3.35-.69-6.74-1.09c-.54-.06-1.53.29-1.5.95a1,1,0,0,0,.39.73,1.44,1.44,0,0,0,1.45,0c.21-.1,1-.61.56-.93a.48.48,0,0,1-.22-.43l-1.5.94c2.09.25,4.18.6,6.25,1l-.44-.5-.2,1.28-.09.61c0,.11,0,.21,0,.31l0,.12c-.05.18,0,.15.19-.09l.53-.23c.3,0,.38,0,.22,0h-.51l-.7,0-1.4-.08q-1.39-.11-2.79-.27l.67.53,0-2.3c0-.49-.55-.58-.95-.52a2,2,0,0,0-.82.28c-.15.1-.41.29-.41.49Z"/><path class="svg_line_header01-3" d="M257,26.31l.5,7.26c0,.49.82.54,1.13.48s1-.36,1-.85l0-1.08c.05-1.12-2.16-.81-2.2.17l0,1.08L259.7,33l-.5-7.26c0-.2-.3-.38-.46-.44a1.38,1.38,0,0,0-.83,0c-.5.15-.92.48-.88,1Z"/><path class="svg_line_header01-3" d="M257.55,26.72a54.18,54.18,0,0,1,8,.78c.19,0,.7,0,.84.16s0,.75,0,.91l-.07,2.09-.14,4.18,1.52-.72q-4.14-.21-8.26-.6a2.11,2.11,0,0,0-1.54.41c-.31.27-.28.66.19.7q4.37.42,8.74.64c.32,0,1.5-.22,1.52-.72l.15-4.57c0-.76,0-1.52.07-2.28a1.14,1.14,0,0,0-.15-.87,1.66,1.66,0,0,0-1-.35,58.69,58.69,0,0,0-9.07-.91,1.86,1.86,0,0,0-1.44.57c-.28.43.24.57.57.58Z"/><path class="svg_line_header01-3" d="M259.74,28.82l0,3.1a.25.25,0,0,0,.2.17,1.24,1.24,0,0,0,.43,0H262a7.29,7.29,0,0,0,2-.12,1.74,1.74,0,0,0,1.21-.8,2,2,0,0,0,0-.81l0-1.66c0-.23-.52-.22-.64-.22h-.38a.6.6,0,0,1-.19,0c-.24,0-.48,0-.71-.08l-.16,0c-.17,0,.11,0,0,0l-.36-.08c-.24-.07-.48-.14-.71-.23a1.51,1.51,0,0,0-.7,0,2.38,2.38,0,0,0-.83.27c-.24.13-.71.49-.24.67a8.52,8.52,0,0,0,3.43.51l-.64-.21,0,1.1c0,.35,0,.7,0,1v-.12a.57.57,0,0,1,0,.18.25.25,0,0,1,0,.07,1.25,1.25,0,0,1,1.15-.48h-2.9l.63.21,0-3.1c0-.15-.32-.2-.4-.21a2.16,2.16,0,0,0-.8.08,2.31,2.31,0,0,0-.73.33.47.47,0,0,0-.24.38Z"/><path class="svg_line_header01-3" d="M275,5.2a8.27,8.27,0,0,0,3.1,3.4l.15-1L275.94,9l-.19.12c.07,0,.06,0,0,0s-.1.06.25-.05h.28c.08,0,.07,0,0,0l-.11-.08c-.32-.27-.62-.57-.93-.85s-.31-.27-.46-.42a1.29,1.29,0,0,1-.16-.17c.06.07,0-.07,0,0s.08-.2.12-.24l.39-.46A23.25,23.25,0,0,1,276.83,5a.52.52,0,0,0-.25-.92,1.71,1.71,0,0,0-1.54.41,22.78,22.78,0,0,0-2.1,2.18c-.34.4-.74.91-.54,1.47s.67.8,1,1.11a7.59,7.59,0,0,0,1.18,1,2.3,2.3,0,0,0,2.12-.08c1-.51,1.94-1.14,2.89-1.71.36-.21.59-.73.15-1a7.22,7.22,0,0,1-2.63-2.82,1,1,0,0,0-1.26-.36,1.49,1.49,0,0,0-.72.39c-.11.13-.28.37-.19.55Z"/><path class="svg_line_header01-3" d="M287.17,6.83C286,7.59,285,8.4,283.91,9.26c-.11.09-.29.33-.22.48a7.33,7.33,0,0,0,2.26,2.9,1.62,1.62,0,0,0,1.88-.23l2-1.59a6.49,6.49,0,0,0,1.68-1.58,1.61,1.61,0,0,0-.3-1.9,4.06,4.06,0,0,0-2-1,1.74,1.74,0,0,0-1.53.41c-.35.32-.23.67.21.79a2.5,2.5,0,0,1,1.4.7,1.08,1.08,0,0,1,.27.64.68.68,0,0,1,0,.28s-.06.09-.07.1-.12.16-.05.08a15.15,15.15,0,0,1-1.5,1.26L286.08,12l1.89-.23a6.73,6.73,0,0,1-2.1-2.63l-.22.48a34.92,34.92,0,0,1,2.87-2.13c.3-.2.64-.63.19-.87a1.72,1.72,0,0,0-1.54.19Z"/><path class="svg_line_header01-3" d="M279.47,3.66a19,19,0,0,1-7.28,13.53.2.2,0,0,0-.11.18,8.13,8.13,0,0,0,2.31,2.4c.41.28,1.69-.13,2-.46.69-.74,1.42-1.46,2.17-2.15l1.09-1,.56-.46c.16-.14.8-.45.18-.29l-1,.11a4.86,4.86,0,0,1,1.65.8l1.71.94,3.41,1.89a2.28,2.28,0,0,0,2.09-.56l2.08-3.77a.09.09,0,0,0,0-.15A34,34,0,0,1,286,12.86c-.58-.3-1.83-.71-2-1.38a6.83,6.83,0,0,1,.11-2.38,14.46,14.46,0,0,1,.56-2.53,16,16,0,0,0,.69-1.94c.12-.72-.37-.89-.95-1.07l-2.41-.76a2.3,2.3,0,0,0-1.39.15c-.07,0-1,.47-.67.56a21.73,21.73,0,0,1,2.8.89c.94.44.12,1.58-.12,2.29a15.7,15.7,0,0,0-.64,2.69c-.07.45-.11.89-.14,1.34a5,5,0,0,0,0,1.49c.21.6,1.56,1.07,2.14,1.36.84.43,1.69.82,2.56,1.18.4.16.85.28,1.24.48.6.3.2.62-.08,1.12L286.15,19l2.09-.56-4-2.21c-1-.58-2.33-1.67-3.59-1.49a6.23,6.23,0,0,0-3.19,1.82c-1.06.92-2.07,1.9-3,2.92l2-.46a7.3,7.3,0,0,1-1.84-1.75c-.37-.5-.21-.52.22-.88s.57-.49.84-.75a19.4,19.4,0,0,0,3-3.68,19.39,19.39,0,0,0,2.95-8.92c0-.22-2.13,0-2.18.58Z"/><path class="svg_line_header01-3" d="M273.72,21.84a8.33,8.33,0,0,0,3.1,3.4l.15-1-2.27,1.35-.18.11,0,0c-.18.08-.1.06.25,0H275c.08,0,.07,0,0,0l-.11-.08c-.32-.27-.63-.57-.94-.85l-.45-.42-.16-.17c.06.06,0-.07,0,0s.08-.2.12-.25l.39-.46a24.91,24.91,0,0,1,1.77-1.79.52.52,0,0,0-.24-.92,1.71,1.71,0,0,0-1.54.41,22.63,22.63,0,0,0-2.1,2.17c-.34.41-.74.92-.55,1.48s.68.79,1,1.1a7.14,7.14,0,0,0,1.18,1,2.33,2.33,0,0,0,2.12-.08c1-.51,1.93-1.14,2.89-1.71.36-.21.59-.73.15-1a7.21,7.21,0,0,1-2.63-2.82,1,1,0,0,0-1.26-.37,1.51,1.51,0,0,0-.72.4c-.11.13-.29.37-.19.55Z"/><path class="svg_line_header01-3" d="M287.17,22.24a36.77,36.77,0,0,0-3.26,2.43c-.11.08-.29.32-.22.48a7.48,7.48,0,0,0,2.26,2.9,1.63,1.63,0,0,0,1.88-.24l2-1.59a6.32,6.32,0,0,0,1.68-1.58,1.62,1.62,0,0,0-.3-1.9,4.14,4.14,0,0,0-2-1,1.81,1.81,0,0,0-1.53.41c-.35.33-.23.68.21.8a2.48,2.48,0,0,1,1.4.69,1.11,1.11,0,0,1,.27.65.61.61,0,0,1,0,.27s-.06.1-.07.11-.12.15-.05.08a13.8,13.8,0,0,1-1.5,1.25l-1.74,1.41,1.89-.24a6.7,6.7,0,0,1-2.1-2.62l-.22.48a35,35,0,0,1,2.87-2.14c.3-.2.64-.63.19-.87a1.72,1.72,0,0,0-1.54.2Z"/><path class="svg_line_header01-3" d="M279.47,19.07a18.92,18.92,0,0,1-7.28,13.52.23.23,0,0,0-.11.19,8.13,8.13,0,0,0,2.31,2.4,2.43,2.43,0,0,0,2-.47c.69-.74,1.42-1.45,2.17-2.14.36-.33.72-.65,1.09-1l.56-.47c.16-.14.8-.44.18-.29l-1,.11a5,5,0,0,1,1.65.8l1.71.95,3.41,1.89a2.34,2.34,0,0,0,2.09-.56l2.08-3.77c0-.07,0-.12,0-.15A35.55,35.55,0,0,1,286,28.26c-.58-.29-1.83-.71-2-1.38a6.84,6.84,0,0,1,.11-2.38,14.66,14.66,0,0,1,.56-2.53A15.46,15.46,0,0,0,285.3,20c.12-.72-.37-.88-.95-1.07l-2.41-.76a2.3,2.3,0,0,0-1.39.16c-.07,0-1,.46-.67.56a21.7,21.7,0,0,1,2.8.88c.94.44.12,1.58-.12,2.3a15.48,15.48,0,0,0-.64,2.69c-.07.44-.11.89-.14,1.33a5,5,0,0,0,0,1.49c.21.6,1.56,1.07,2.14,1.37.84.42,1.69.81,2.56,1.17.4.17.85.29,1.24.48.6.3.2.62-.08,1.12l-1.48,2.7,2.09-.57-4-2.2c-1-.58-2.33-1.67-3.59-1.49A6.16,6.16,0,0,0,277.48,32c-1.06.92-2.07,1.89-3,2.91l2-.46a7.26,7.26,0,0,1-1.84-1.74c-.37-.51-.21-.52.22-.89s.57-.49.84-.75a19,19,0,0,0,3-3.67,19.47,19.47,0,0,0,2.95-8.92c0-.22-2.13,0-2.18.58Z"/><path class="svg_line_header01-3" d="M307.33,12.38c-.23,2.93-.58,5.88-.65,8.82-.06,2.17.12,4.51,1.41,6.34,2.86,4,9.74,2.68,11.42-1.77.17-.46-1.93-.23-2.15.36-.73,1.94-2.38,3.3-4.5,2.67a5.58,5.58,0,0,1-3.63-4.12,16.25,16.25,0,0,1-.31-5.43c.16-2.49.39-5,.59-7.45,0-.37-2.12-.11-2.18.58Z"/><path class="svg_line_header01-3" d="M325.05,16.15l7.88-1.86c.23,0,1.07-.3,1-.65s-1-.12-1.18-.08l-7.89,1.86c-.23.06-1.06.3-1,.66s1,.11,1.19.07Z"/><path class="svg_line_header01-3" d="M328.36,11.88l-1.41,13c-.09.84,2.09.43,2.17-.28l1.41-13c.09-.83-2.1-.43-2.17.29Z"/><path class="svg_line_header01-3" d="M335.38,18.92a18.63,18.63,0,0,1,2.21-.64,5,5,0,0,1,.56-.11c-.3,0,0,0,0,0l.3-.05q.58-.09,1.17-.15l-.89-.71-1.09,1.66c-.28.43.24.7.61.71a1.67,1.67,0,0,0,1.43-.61l1.09-1.66a.39.39,0,0,0-.09-.55,1.12,1.12,0,0,0-.8-.16,21.88,21.88,0,0,0-4.86,1.07c-.34.12-1.06.4-.93.9s.92.42,1.25.31Z"/><path class="svg_line_header01-3" d="M334.31,26.22a12.06,12.06,0,0,0,8.78-.95c.24-.13.7-.51.24-.68a2.16,2.16,0,0,0-1.53.25,6,6,0,0,1-.64.3c-.31.12-.41.15-.64.22l-.35.09c-.14,0-.16,0-.07,0l-.24.05-.64.09a8.54,8.54,0,0,1-3.14-.32,2.22,2.22,0,0,0-1.53.25c-.22.11-.73.53-.24.68Z"/><path class="svg_line_header01-3" d="M352.19,14.7A56.37,56.37,0,0,0,351,28.59c0,.52,1.33.17,1.5.1a37.3,37.3,0,0,0,5.83-2.91c.3-.18.64-.53.21-.77a1.89,1.89,0,0,0-1.53.23,34.13,34.13,0,0,1-5.34,2.67l1.5.1a55.58,55.58,0,0,1,1.24-13.61c.15-.73-2-.38-2.17.3Z"/><path class="svg_line_header01-3" d="M364.18,15.21l1.48,7.23,1.94-.88-.5-.38c-.67-.52-2.62.45-1.69,1.17l.49.38c.54.42,2.1-.06,1.93-.88l-1.47-7.23c-.1-.49-.91-.47-1.27-.37s-1,.44-.91,1Z"/><path class="svg_line_header01-1" d="M169.94,31.29s-4-3.2-4.8-7.2c-1.08-5.4-2.37-9.66-2.89-15.15,3,.64,6.09.75,10.09,2.35,4.61,1.84,7,3.7,10.4,8.8,3.2,4.8,6,12.91,0,15.2A18.36,18.36,0,0,1,169.94,31.29Z"/><path class="svg_line_header01-3" d="M184.1,37.76l-.69-2c-.13-.36-.65-.34-.95-.32-3.2.19-6.55.36-9.65-.63a10.69,10.69,0,0,1-6.66-6.41c-2.6-6.39-.84-13.55-3.09-20L161,9.06c2.28,2.44,5.52,3.23,8.56,4.34a23.93,23.93,0,0,1,8.35,5.09A18.75,18.75,0,0,1,183,26.36c.9,2.84,1.46,7.4-1.3,9.45-1.17.88.67,1.19,1.36.68,5.75-4.28,1.92-13.32-1.87-17.56A24.21,24.21,0,0,0,173,13c-3.36-1.5-7.35-2-10-4.81-.42-.45-2.36,0-2.09.72,2.43,7,.16,15,3.89,21.71,3.55,6.34,11,6.41,17.39,6l-.94-.33.7,2c.27.78,2.43.16,2.17-.58Z"/><path class="svg_line_header01-3" d="M167.14,17.12l9.74,14c.36.53,2.47-.17,2-.81l-9.74-14c-.36-.52-2.47.18-2,.81Z"/><path class="svg_line_header01-3" d="M174.36,19.14,173.67,26c-.09.93,2.1.55,2.18-.25l.69-6.86c.1-.93-2.1-.55-2.18.24Z"/><path class="svg_line_header01-3" d="M168.79,27a51.33,51.33,0,0,1,6.35,2.44,1.62,1.62,0,0,0,1.55-.17c.3-.2.65-.73.16-1a54.24,54.24,0,0,0-6.76-2.61,1.7,1.7,0,0,0-1.54.41.5.5,0,0,0,.24.89Z"/><path class="svg_line_header01-3" d="M167,21.16l3.45.52a1.5,1.5,0,0,0,.86-.14,1.15,1.15,0,0,0,.55-.54.73.73,0,0,0-.68-1l-3.45-.52a1.5,1.5,0,0,0-.86.14,1.15,1.15,0,0,0-.55.54.73.73,0,0,0,.68,1Z"/><path class="svg_line_header01-1" d="M407.94,31.29s4-3.2,4.8-7.2c1.08-5.4,2.37-9.66,2.89-15.15-3,.64-6.09.75-10.09,2.35-4.61,1.84-7,3.7-10.4,8.8-3.2,4.8-6,12.91,0,15.2A18.36,18.36,0,0,0,407.94,31.29Z"/><path class="svg_line_header01-3" d="M395.93,37.86l.7-2-1.77.64c6.4.39,14.12.23,17.94-5.86C417,24,414.5,15.59,417,8.44c.19-.57-1.85,0-2.06.26-2.54,2.73-6.48,3.23-9.76,4.68A24.93,24.93,0,0,0,397,19.17a18.44,18.44,0,0,0-4.61,8.45c-.66,3.05-.62,6.87,2.12,8.91.49.36,2.39-.5,2.05-.75-2.84-2.12-2.67-6.32-1.81-9.39a18.54,18.54,0,0,1,5-8.15A23,23,0,0,1,408.23,13c3.08-1.09,6.36-2,8.66-4.44l-2.06.26c-2.19,6.31-.59,13.22-2.88,19.5a10.5,10.5,0,0,1-6.06,6.61c-3,1.1-6.47.83-9.63.64-.43,0-1.6.14-1.77.64l-.7,2c-.15.43,1.95.19,2.14-.38Z"/><path class="svg_line_header01-3" d="M408.7,16.65l-9.74,14c-.3.44.27.73.63.77a1.62,1.62,0,0,0,1.42-.63l9.74-14c.31-.44-.27-.73-.62-.77a1.61,1.61,0,0,0-1.43.63Z"/><path class="svg_line_header01-3" d="M401.34,19.31l.69,6.87c0,.18.29.3.43.33a1.49,1.49,0,0,0,.81,0c.41-.11,1-.38.93-.89l-.69-6.86c0-.19-.29-.3-.43-.34a1.71,1.71,0,0,0-.81,0c-.41.12-1,.39-.93.89Z"/><path class="svg_line_header01-3" d="M408.32,25.92a53.86,53.86,0,0,0-6.84,2.62c-.22.1-.93.42-.61.76s1.11.09,1.42-.05q1.56-.72,3.18-1.35c1.09-.42,2.08-.76,3.09-1.08.28-.08,1.06-.32,1-.74s-1-.23-1.21-.16Z"/><path class="svg_line_header01-3" d="M410.7,20l-3.45.52a3.08,3.08,0,0,0-.83.26c-.11.05-.39.17-.45.31-.15.35.78.19.86.18l3.45-.52a3,3,0,0,0,.83-.26c.12-.05.39-.17.45-.32.15-.34-.78-.18-.86-.17Z"/></g></g></svg>