<svg id="レイヤー_1" data-name="レイヤー 1" xmlns="http://www.w3.org/2000/svg" viewBox="0 0 556.13 38.88"><defs><style>.cls-1{fill:#39b54a;}</style></defs><path class="cls-1" d="M0,16.56S8,9.74,10.56.38L17,2.59C10.42,18.29,0,16.56,0,16.56Zm22-1.44c-2.4,7.49-5.28,12.19-7.93,15.22,3.37-.39,7.49-.77,12.34-1.2L24.77,24l5.9-1.2s1.44,5.09,3.89,14.88l-5,1.06-1.34-4.13C14.31,36.77,4.46,38.16,4.46,38.16L3.7,31.49s1.77-.24,5.08-.62A59.07,59.07,0,0,0,15.65,13Zm16.89,1.44S28.47,18.29,22,2.59L28.32.38C30.87,9.74,38.88,16.56,38.88,16.56Z"/><path class="cls-1" d="M48.14,31.73c-.28-4.75-.43-8.4-.48-10.18h-5V19.2H56.11L58,17.28l1.88,1.92v2.35H54.19c0,1.59-.09,4.76-.24,9.41,3.65-.67,6.2-1.39,6.2-1.39S57.79,35.81,44,38.35l-1.39-6.52A44.87,44.87,0,0,0,48.14,31.73ZM43.39,9.26H61c-.24-2.83-.34-5.9-.34-9.26h6.72c0,3.36.1,6.43.24,9.26H74l1.92-1.92,1.92,1.92v2.36H67.78C69.41,35,75.84,38.88,75.84,38.88S63.84,39,61.2,11.62H43.39ZM72.1,7.34a12.38,12.38,0,0,0-3.31-5.28s5.76-1.68,7.63,3.8Z"/><path class="cls-1" d="M98.64,6.72S98,19.06,97.82,30.24C108,30,110.11,30,110.11,30v6.72s-3.93-.19-16.46-.86C92.21,22.42,91.92,6.72,91.92,6.72Z"/><path class="cls-1" d="M121.68,6.72h6.72s.19,15.5-.67,29.09h-5.86C121.54,22.51,121.68,6.72,121.68,6.72Z"/><path class="cls-1" d="M139.68,35.81C138.24,22.42,138,6.72,138,6.72h6.72s6.34,7.39,11.62,15c.14-4.9.28-10.28.28-15h4.13c1.44,13.39,1.68,29.09,1.68,29.09h-6.72s.19-3,.34-7.34C152.3,23.71,147.6,17.9,144.38,14c-.24,6-.57,14.73-.57,21.79Z"/><path class="cls-1" d="M172.8,35.81c-1.44-13.39-1.73-29.09-1.73-29.09,15.31-.34,20.59-.34,20.59-.34v4.9s-3.79-.1-14.06-.43c-.1,2.11-.19,4.85-.29,7.92,8.07-.24,12.19-.24,12.19-.24v4.9s-4.41-.1-12.33-.53c-.1,2.4-.15,4.94-.19,7.39,11.9-.34,15.26-.34,15.26-.34v6.72S186.72,36.48,172.8,35.81Z"/><path class="cls-1" d="M213.65,9.36s10,0,25.34.34c0,11.37-10.32,12.38-10.32,12.38s2.5-2.16,3.31-8.26c-11,.34-18.33.44-18.33.44Zm2,26.45s5.67-4.51,5.67-17.67h6.72C228.05,34.71,215.66,35.81,215.66,35.81Z"/><path class="cls-1" d="M254.4,35.81s3.12-4.61,4.22-18.77c-2.11.05-3.17.05-3.17.05v-4.9h3.46c0-1.68.1-3.5.1-5.47h6.72c0,2-.05,3.84-.15,5.57,3.51.05,8,.09,13.3.24,0,23.28-7.2,23.33-7.2,23.33s.38-9.41.43-19.2c-2.59.05-4.89.14-7,.19C262.9,35.81,254.4,35.81,254.4,35.81Z"/><path class="cls-1" d="M298.65,21.75A42.11,42.11,0,0,1,297,11.57h6.73v.48h4.6c-1.87-.77-4.36-2.4-4.36-5.76h5.76a38,38,0,0,0,.43,5.76h2v-.48h6.72c0,24.62-16.27,24.24-16.27,24.24s8.79-4.13,9.51-21.84h-8.55c-.09,1.92-.19,4.75-.19,7.78Z"/><path class="cls-1" d="M341.86,15.65s-4.57-2.55-8.36-2.59l.05-5C342.24,8.54,341.86,15.65,341.86,15.65Zm14.88-.91S361.06,27.31,335,34.8l-1.49-6.53C352.13,23.14,356.74,14.74,356.74,14.74Z"/><path class="cls-1" d="M377.76,35.81h-5.38c-.67-13-.86-29.09-.86-29.09h6.72S378.24,21.55,377.76,35.81ZM388,26.16c-8.5,0-8.93-8.83-8.93-8.83A17.74,17.74,0,0,0,388,19.44Z"/><path class="cls-1" d="M409,10.61c0,11.09.48,16.13.48,16.13s-7.2-.39-7.2-16.13ZM430.8,8.69l1.92,1.92v1.92h-5.18V17a78.32,78.32,0,0,1-.34,8.59c1.44.38,2.64.72,3.55,1l-1.53,5.91c-1-.48-2.12-1-3.32-1.49-1.39,3.07-3.88,4.85-8.44,4.85-7.64,0-6.63-10.7-.1-11.33a17.73,17.73,0,0,1,3.26,0c.15-2,.2-4.51.2-7.53V12.53h-8.74V10.61h8.74V6.72h6.72v3.89h1.34ZM420.05,29a11.76,11.76,0,0,0-2.45-.38,1.78,1.78,0,0,0,0,3.55C418.66,32.21,419.47,31.49,420.05,29Z"/><path class="cls-1" d="M475,32.35s-2.31,1.78-15.94,1.78c-10,0-7.58-9.79-7.58-9.79s1.68,3.07,7.58,3.07c12.67,0,15.41-1.78,15.41-1.78ZM471.5,15.46a116.59,116.59,0,0,0-16.94-1.06V9.12a134.86,134.86,0,0,1,17.9,1.06Z"/><path class="cls-1" d="M499,12.53h-5.18V10.61h5.42c.19-1.68.29-3.31.38-4.85l6.68,1.49c-.2,1.15-.44,2.3-.72,3.36h4.6L512,8.69l1.92,1.92v1.92h-9a35,35,0,0,1-4.51,9.36s6.48-2.55,10.13.86c4.7,4.42,2.54,13.06-9.36,13.06,3.36-1.58,7.29-5,5.47-8.83-2.11-4.37-10.42-1.87-10.42-1.87A58.39,58.39,0,0,0,499,12.53Z"/><path class="cls-1" d="M548.83,27.36c-3-4.46-10,.24-10,.24a121.12,121.12,0,0,1,0-19.54h6.72s-1.34,9.56-2,14.79c0,0,6.48-4,10.42-.39,5.38,4.9.53,12.77-10.27,13.35C547.15,33.84,550.7,30.1,548.83,27.36ZM547,11.71l3.17-6c7.49,4,3.74,12,3.74,12A18.13,18.13,0,0,0,547,11.71Z"/></svg>