<svg xmlns="http://www.w3.org/2000/svg" viewBox="0 0 97.37 17.94"><defs><style>.svg_line_account_click-1{fill:#39b54a;}.svg_line_account_click-2{fill:#fff;}</style></defs><g id="レイヤー_2" data-name="レイヤー 2"><g id="line"><path class="svg_line_account_click-1" d="M27.12,3.91a.38.38,0,0,1,0-.19c0-.25.1-.57.1-1a4.25,4.25,0,0,0-.23-1c-.1-.32-.21-.39-.56-.58a.94.94,0,0,0-.48-.11,2.28,2.28,0,0,0-1.13.43,3.66,3.66,0,0,0-1.33,1.84c-.12.28-.34.44-.34.9a2.4,2.4,0,0,1-.12.71,12.13,12.13,0,0,0-.07,1.36,8.16,8.16,0,0,1-.07,1c-.09.92-.16,1.87-.16,2.17a5.05,5.05,0,0,1,0,.78,1.48,1.48,0,0,0,.1.64,7.31,7.31,0,0,1,.23,1.24A14.63,14.63,0,0,0,23.8,15c.24.3.46.87.79,1.08a2.08,2.08,0,0,0,.85.41A1.2,1.2,0,0,0,26.59,16c.18-.2.41-.59.5-.71a8.39,8.39,0,0,0,.42-1.08c.07-.21.16-.57.39-.57s.46.09.46.34c0,.09,0,.19,0,.28a.94.94,0,0,1-.07.34c-.09.23-.14.58-.2.78s-.42.37-.58.62a3.35,3.35,0,0,1-.6.86,4.18,4.18,0,0,1-.69.39,2.56,2.56,0,0,1-1.26.43c-.16,0-.28,0-.53,0a3.58,3.58,0,0,1-1.27-.39c-.23-.17-.55-.3-.89-.56a4.71,4.71,0,0,1-1-1.58,7.4,7.4,0,0,1-.2-.92,11.87,11.87,0,0,1-.56-3.54c0-1.31.14-2.46.16-2.74a2.82,2.82,0,0,1,.1-.92,3.05,3.05,0,0,0,.16-1,.76.76,0,0,1,.2-.62c.14-.12.1-.48.23-.92a5.46,5.46,0,0,1,.46-1.11c.14-.18.35-.73.53-.94s.65-.76.85-.92A6.06,6.06,0,0,1,24,.9c.23-.12.39,0,.66-.26A1.62,1.62,0,0,1,25.81.18a1.57,1.57,0,0,1,.87.26,3.18,3.18,0,0,1,1.06.62,2.69,2.69,0,0,1,.39,1s0,.07,0,.12-.07.5-.07.67c0,.36,0,.62,0,.94s-.07.55-.39.55S27.19,4.21,27.12,3.91Z"/><path class="svg_line_account_click-1" d="M32.39.51a1.42,1.42,0,0,1,.71-.3c.27,0,.55.71.57.92a9.18,9.18,0,0,1,.21,1.38c0,1.15,0,1.47,0,1.74,0,.51-.16,1-.16,1.38,0,.67-.07,1-.07,1.27s.07.83.07,1.52a5.09,5.09,0,0,1,0,.66c-.09,1.24-.18,2.21-.25,2.79s-.14,1.74-.14,2.09,0,1.06,0,1.42c0,.19,0,.37,0,.53s0,.32.14.39a3.25,3.25,0,0,0,.9.21c.53.11,1.1,0,1.4.11a1.54,1.54,0,0,0,.39.05,1,1,0,0,0,.51-.11,2.26,2.26,0,0,1,1-.26c.33,0,.44.12.51.42,0,0,0,.07,0,.11,0,.23-.18.35-.5.46a12.55,12.55,0,0,1-1.27.19,2.63,2.63,0,0,1-.36,0c-.3,0-.58-.07-.92-.07s-.44,0-.56,0c-.36,0-.71-.05-1.31-.05-.23,0-.43.05-.62.05a.7.7,0,0,1-.34-.05c-.28-.11-.85-.07-.85-.53,0-.3,0-.83,0-1.26a5,5,0,0,0,0-.58c0-.09,0-.23,0-.37,0-.46.05-1.08.1-1.56,0-.07,0-.12,0-.18,0-.53.21-.79.21-1.13s0-.3,0-.39c0-.25,0-.55,0-.81,0-.09,0-.16,0-.5,0-.6.06-1.8.06-2.51,0-.18,0-.32,0-.41s0-.23,0-.35a2.67,2.67,0,0,1,.18-1.17,0,0,0,0,0,.05,0c0-.09-.14-.3-.14-.46s.09-.57.09-.85a.9.9,0,0,0,0-.23,4.18,4.18,0,0,1-.09-1,4.61,4.61,0,0,1,0-.51c.05-.67.09-1.36.09-1.63S32.16.69,32.39.51Z"/><path class="svg_line_account_click-1" d="M41.81.62c.28-.16.33-.44.58-.5l.09,0c.23,0,.46.21.55.69a3.6,3.6,0,0,1,.16,1.15v.83A4.93,4.93,0,0,1,43.1,4a7.35,7.35,0,0,0-.23,1.54c0,.64.05,1.33.07,1.54S43,8.28,43,9.7c0,.81,0,1.87,0,2.46s0,.92,0,1.18a1.46,1.46,0,0,1,0,.41,2.54,2.54,0,0,0-.07.58c0,.2,0,.41,0,.62s-.16.71-.16.92.07.39.07.53a.78.78,0,0,1-.05.32c-.09.32-.48.6-.82.87s-.35.35-.46.35c-.35,0-.35-.65-.35-.83v-.46c0-.6-.05-1.34-.05-1.73s.07-2.53.1-2.89c0-.21,0-.39,0-.6,0-.67-.05-.78-.05-.92s.07-.46.07-.69-.07-.6-.09-1V8.42a25.11,25.11,0,0,1,.07-2.6,3.34,3.34,0,0,0,0-.55c0-.23,0-.51,0-.79,0-.43.19-.76.19-1.1s-.14-.57-.14-.87.09-.79.11-1.11C41.47.92,41.54.78,41.81.62Z"/><path class="svg_line_account_click-1" d="M53.27,3.91a.38.38,0,0,1,0-.19c0-.25.1-.57.1-1a4.25,4.25,0,0,0-.23-1c-.1-.32-.21-.39-.56-.58a.94.94,0,0,0-.48-.11,2.28,2.28,0,0,0-1.13.43,3.66,3.66,0,0,0-1.33,1.84c-.11.28-.34.44-.34.9a2.4,2.4,0,0,1-.12.71,12.13,12.13,0,0,0-.07,1.36,8.16,8.16,0,0,1-.07,1c-.09.92-.16,1.87-.16,2.17a3.38,3.38,0,0,1,0,.78,1.63,1.63,0,0,0,.09.64,7.31,7.31,0,0,1,.23,1.24A13.94,13.94,0,0,0,50,15c.23.3.46.87.78,1.08a2.08,2.08,0,0,0,.85.41A1.2,1.2,0,0,0,52.74,16c.18-.2.41-.59.5-.71a8.39,8.39,0,0,0,.42-1.08c.07-.21.16-.57.39-.57s.46.09.46.34c0,.09,0,.19,0,.28a.94.94,0,0,1-.07.34c-.09.23-.14.58-.2.78s-.42.37-.58.62a3.35,3.35,0,0,1-.6.86,4.18,4.18,0,0,1-.69.39,2.56,2.56,0,0,1-1.26.43c-.16,0-.28,0-.53,0a3.46,3.46,0,0,1-1.26-.39c-.24-.17-.56-.3-.9-.56a4.86,4.86,0,0,1-1-1.58,7.4,7.4,0,0,1-.2-.92,11.87,11.87,0,0,1-.56-3.54c0-1.31.14-2.46.16-2.74A2.82,2.82,0,0,1,46.9,7a3.05,3.05,0,0,0,.16-1,.76.76,0,0,1,.2-.62c.14-.12.1-.48.24-.92A4.51,4.51,0,0,1,48,3.33c.13-.18.34-.73.52-.94a10.85,10.85,0,0,1,.86-.92A5.37,5.37,0,0,1,50.12.9c.23-.12.39,0,.66-.26A1.62,1.62,0,0,1,52,.18a1.57,1.57,0,0,1,.87.26,3.09,3.09,0,0,1,1.06.62,2.69,2.69,0,0,1,.39,1s0,.07,0,.12-.07.5-.07.67c0,.36,0,.62,0,.94s-.07.55-.39.55S53.34,4.21,53.27,3.91Z"/><path class="svg_line_account_click-1" d="M58.44.53a2.52,2.52,0,0,1,.9-.53c.21,0,.41.07.44.6,0,.27,0,.5,0,.76s0,.55,0,.92,0,.64,0,.82a3.1,3.1,0,0,0,0,.49,5.82,5.82,0,0,1,0,.59c0,.28,0,.58,0,1,0,.58-.21.74-.21,1.31s.11.81.11,1.29a1.83,1.83,0,0,1,0,.32c0,.55-.18,1.56-.18,2.32a2.68,2.68,0,0,0,0,.42,3.45,3.45,0,0,1-.16.94.34.34,0,0,0,0,.14A2.19,2.19,0,0,1,59.59,13c0,.62-.16.89-.16,1.33,0,.07,0,.14,0,.23,0,.46.06.92.06,1.29v.32a1.39,1.39,0,0,1-.27.94,1.69,1.69,0,0,1-1,.53c-.23,0-.55-.07-.55-.41v-.53a3,3,0,0,0,0-.41,5.92,5.92,0,0,1-.09-1c0-.3.07-.53.07-.9a5.65,5.65,0,0,1-.1-1.05c0-.21.07-2,.07-3.22,0-.33,0-.95,0-1.5a3.6,3.6,0,0,1,0-.92.62.62,0,0,0,0-.3,6.1,6.1,0,0,0,0-.64,3.91,3.91,0,0,1-.07-.64c0-.07,0-.14,0-.21,0-.28.11-2.09.14-2.53s.07-.67.07-1a1.73,1.73,0,0,0-.05-.36.62.62,0,0,1,0-.19c0-.21.07-.44.07-.76S58.24.71,58.44.53ZM65,.16l.14,0c.16,0,.39.07.39.27a11,11,0,0,1-.3,1.08,10.54,10.54,0,0,1-.67,1.73,13.51,13.51,0,0,1-1.12,2.37c-.3.27-.32.32-.37.53a1.67,1.67,0,0,1-.23.73c-.25.44-.48.94-.64,1.27a5.16,5.16,0,0,0-.26,1.19,1.59,1.59,0,0,0,.42.85c.16.12.2,0,.34.46a3.44,3.44,0,0,0,.44,1c.18.14.55.92.73,1.1a10.47,10.47,0,0,1,.51,1.2c.14.14.44.85.69,1.17a4.73,4.73,0,0,1,1,1.73,1.24,1.24,0,0,1-1,.85,1,1,0,0,1-.94-.44,10.82,10.82,0,0,1-.9-1.49,3.5,3.5,0,0,0-.78-1c-.18-.23-.11-.43-.46-.87s-.25-.74-.46-.88-.2-.32-.41-.48-.16-.8-.49-1.12a1.08,1.08,0,0,1-.43-.81,1,1,0,0,1,0-.23,2.38,2.38,0,0,1,.51-1,6.77,6.77,0,0,0,.43-1c.17-.37.6-1.06.76-1.43s.3-.39.33-.71.18-.34.32-.73A11.84,11.84,0,0,1,63,4c.28-.69.26-.65.55-1.31a10.44,10.44,0,0,0,.53-1.5A2,2,0,0,1,65,.16Z"/><path class="svg_line_account_click-1" d="M68.4,2.05c0-.16,0-.26,0-.35a5.12,5.12,0,0,1-.12-.8.61.61,0,0,1,.56-.65c.09,0,.69-.09.78-.09.39,0,1,.09,1,.53V1.2a5,5,0,0,1-.07,1.08c-.12.43,0,1.86-.14,2.32a1.18,1.18,0,0,0-.07.32c0,.28.09.58.09.92,0,.07,0,.18,0,.3a3.7,3.7,0,0,0,0,.46v.9a14.32,14.32,0,0,0-.12,2,5.21,5.21,0,0,0,.12,1.38,6.8,6.8,0,0,1,.09,1c0,.3,0,.57,0,.92,0,.66-.45.8-.87.87h-.09c-.39,0-1.06-.21-1.06-.5v-.35a4.05,4.05,0,0,1,.12-1.17,2,2,0,0,0,0-.48c0-.26,0-.49,0-.69a2.23,2.23,0,0,0,0-.37,1.71,1.71,0,0,1-.07-.58V9c0-.36.11-1,.11-1.7,0-.25,0-.5,0-.71a6.38,6.38,0,0,1,0-.71c0-.35,0-.65,0-.9a1.62,1.62,0,0,0,0-.32,1.28,1.28,0,0,1-.07-.21A1.42,1.42,0,0,0,68.56,4c0-.11,0-.87,0-1C68.47,2.46,68.4,2.23,68.4,2.05Zm.94,13.24a4.45,4.45,0,0,1,.63-.07.86.86,0,0,1,.57.16,1.25,1.25,0,0,1,.3.9,1.75,1.75,0,0,1-.18.85c-.17.25-1,.46-1.27.55,0,0,0,0-.09,0a1.11,1.11,0,0,1-.87-.53,2,2,0,0,1-.1-.6c0-.3.07-.51.21-.55s.41-.67.69-.72Z"/><path class="svg_line_account_click-1" d="M73.26,2.05c0-.16,0-.26,0-.35a5.55,5.55,0,0,1-.11-.8.6.6,0,0,1,.55-.65c.09,0,.69-.09.78-.09.39,0,1,.09,1,.53V1.2a5,5,0,0,1-.07,1.08c-.12.43,0,1.86-.14,2.32a1.18,1.18,0,0,0-.07.32c0,.28.09.58.09.92,0,.07,0,.18,0,.3a3.7,3.7,0,0,0,0,.46v.9a14.32,14.32,0,0,0-.12,2,5.67,5.67,0,0,0,.12,1.38,5.64,5.64,0,0,1,.09,1c0,.3,0,.57,0,.92,0,.66-.46.8-.88.87h-.09c-.39,0-1.06-.21-1.06-.5v-.35a4.05,4.05,0,0,1,.12-1.17,2,2,0,0,0,0-.48c0-.26,0-.49,0-.69a2.23,2.23,0,0,0,0-.37,1.71,1.71,0,0,1-.07-.58V9c0-.36.11-1,.11-1.7,0-.25,0-.5,0-.71s0-.51,0-.71,0-.65,0-.9a1.09,1.09,0,0,0,0-.32,1.28,1.28,0,0,1-.07-.21c0-.09.1-.14.1-.44,0-.11,0-.87,0-1C73.32,2.46,73.26,2.23,73.26,2.05Zm.94,13.24a4.29,4.29,0,0,1,.62-.07.86.86,0,0,1,.57.16,1.2,1.2,0,0,1,.3.9,1.64,1.64,0,0,1-.18.85c-.16.25-1,.46-1.27.55,0,0,0,0-.09,0a1.11,1.11,0,0,1-.87-.53,2.05,2.05,0,0,1-.09-.6c0-.3.07-.51.2-.55s.42-.67.69-.72Z"/><path class="svg_line_account_click-2" d="M1.87,12a9.48,9.48,0,0,0,4-6.24,6.84,6.84,0,0,0,5.32,2.74,7.18,7.18,0,0,0-3.37,7.14,11.53,11.53,0,0,0-7-3.54"/><path d="M2.33,12.27A10.09,10.09,0,0,0,6.56,5.7l-1.4.37A7.43,7.43,0,0,0,10.88,9l-.19-.71a7.65,7.65,0,0,0-3.63,7.59l1.39-.49A12.29,12.29,0,0,0,1,11.67a1,1,0,0,0-.95.41c-.17.32.14.46.41.49A11.15,11.15,0,0,1,7.11,16c.34.36,1.48.09,1.4-.49a6.74,6.74,0,0,1,3.1-6.69c.41-.25.29-.69-.19-.7A6.4,6.4,0,0,1,6.5,5.48c-.29-.39-1.32-.08-1.4.37a9,9,0,0,1-3.69,5.91c-.23.16-.4.44-.11.63a1.09,1.09,0,0,0,1-.12Z"/><path class="svg_line_account_click-2" d="M85.64,10.09c4-1,5.56-1.61,6.89-3.88a5.6,5.6,0,0,0,4.12,4.27,7.39,7.39,0,0,0-5.87,4.33,4.37,4.37,0,0,0-1.14-2.72A7.18,7.18,0,0,0,85.54,10"/><path d="M85.72,10.41a21.18,21.18,0,0,0,4.8-1.61A6.9,6.9,0,0,0,93.2,6.2l-1.39.2a5.89,5.89,0,0,0,4.39,4.44l.57-.71a8.39,8.39,0,0,0-6.71,4.79l1.44-.3A6.31,6.31,0,0,0,91,12.81a4.89,4.89,0,0,0-1.2-1.48A7.15,7.15,0,0,0,86,9.68,1.45,1.45,0,0,0,85,10c-.2.18-.2.42.12.44A6.31,6.31,0,0,1,88.57,12a4.46,4.46,0,0,1,1.09,1.43A7.51,7.51,0,0,1,90.05,15c.1.49,1.32,0,1.45-.3a6.51,6.51,0,0,1,5-3.88c.29,0,1.3-.52.57-.71A5.38,5.38,0,0,1,93.26,6c-.1-.45-1.25,0-1.39.2a5.67,5.67,0,0,1-2.22,2.23,18.2,18.2,0,0,1-4.1,1.33c-.18,0-.71.23-.64.51s.65.16.81.12Z"/></g></g></svg>