<svg id="レイヤー_1" data-name="レイヤー 1" xmlns="http://www.w3.org/2000/svg" viewBox="0 0 297.28 70.67"><defs><style>.cls-1{fill:#f0908a;}</style></defs><path class="cls-1" d="M10.92,5.2s-2.84,0-6.4-.16C4.36,12.52,4,27.92,4,35.43l-2.92.2C.12,24.48,0,.36,0,.36,6.16,0,10.92,0,10.92,0Z"/><path class="cls-1" d="M16.16,34.43s2.12-7,1.72-25.11H23v.52h1.16V9.32h5s0,1.72-.28,24.39c-3.84.44-7,.56-7,.56V29.88s.88,0,2.72.08l-.12-5.36H21.6C19.6,33.51,16.16,34.43,16.16,34.43ZM22,22.64H24.4c0-1.68,0-3.12-.08-4.44H22.56Q22.32,20.66,22,22.64Zm.76-6.4h1.56c0-2-.08-3.4-.12-4.44H22.92C22.88,13.4,22.84,14.88,22.72,16.24Zm10.88-3.8A22.35,22.35,0,0,0,30,6.16s4.16-1.08,7.72,4.52Zm10.88,2.12h4.68s0,2-.28,20.71H45c0-.44,0-.88,0-1.32H34.72c0,.44,0,.88,0,1.32H30.84c-.4-17-.52-20.71-.52-20.71H35s0,1.76-.24,17.43H45C44.6,17.76,44.48,14.56,44.48,14.56Zm0,1A30.08,30.08,0,0,1,42,21.44a18.35,18.35,0,0,1,2.44,2.88l-3.16,2.24a19.53,19.53,0,0,0-1.24-2.2c-2.72,3.44-5.28,4.16-5.28,4.16a33.15,33.15,0,0,0,3.64-6.44A28,28,0,0,0,35,18.32a8.9,8.9,0,0,1,4.44,1.28,47.9,47.9,0,0,0,1.92-6.68ZM43,9.68l-4.28,1.48a21.92,21.92,0,0,0-3.12-6.48S39.8,3.84,43,9.68ZM46,3.52l4.4,1.16c-2.36,6.92-8.4,7-8.4,7A19.66,19.66,0,0,0,46,3.52Z"/><path class="cls-1" d="M65.12,32.67H60.64c-.56-10.79-.72-24.23-.72-24.23h5.6S65.52,20.8,65.12,32.67Zm8.52-8c-7.08,0-7.44-7.36-7.44-7.36A14.78,14.78,0,0,0,73.64,19Z"/><path class="cls-1" d="M100.76,20.92s-.8,8.68-11.2,11.75H85c-.56-10.79-.72-23.51-.72-23.51h5.6s0,8.24-.2,17.92A17.69,17.69,0,0,0,100.76,20.92Z"/><path class="cls-1" d="M121.84,35.63c-6.16.36-10.92.36-10.92.36V30.83s2.84,0,6.4.13c.16-7.48.48-22.88.48-30.4l2.92-.2C121.72,11.56,121.84,35.63,121.84,35.63Z"/><path class="cls-1" d="M158.28,29.08v5.59c-9.28,0-13.68-2.12-15.72-3.79a10.17,10.17,0,0,1-5,3.19,18,18,0,0,0,2.88-8.75A10.11,10.11,0,0,1,137.72,27,19.53,19.53,0,0,0,139,21.2h-2.8v-2h7.24A7.52,7.52,0,0,1,141,24.8h3.52a9.66,9.66,0,0,1-1,4.6A47,47,0,0,0,158.28,29.08Zm-14-13.68-3,2.52a21.8,21.8,0,0,0-3.92-5A6.94,6.94,0,0,1,144.24,15.4Zm13.16-4.56c0,.72,0,1.52,0,2.44h1.32a2.46,2.46,0,0,1,0-.52h4.6c.44,6.8.56,11.44.56,11.44H158.4a4.65,4.65,0,0,1,0-.52H157.2c0,.76,0,1.56,0,2.36h3.52l1.6-1.6,1.6,1.6v2h-6.76v.92h-4.64c0-.32,0-.6,0-.92h-7V26h7c0-.8-.08-1.6-.08-2.36h-1.68v.52H146c-.44-6.8-.56-11.44-.56-11.44h5.48v.52H152c0-.92,0-1.72,0-2.44h-4.56V9h-4c-.4-4.28-.52-5.2-.52-5.2h5V4.4h13.72a3.23,3.23,0,0,0,0-.64h4.24c.44,4.28.56,5.2.56,5.2h-4.6v1.88Zm0-3.56v1.6h1.28l1.6-1.6,1.16,1.16c0-.4,0-1,.12-2.08H147.8c0,.68-.08,1.48-.16,2.52H152c0-1,0-1.6,0-1.6Zm-5.12,14.44c0-.76-.08-1.52-.08-2.28h-1.4c0,.72,0,1.48-.08,2.28Zm-1.44-4.24h1.32c0-.8,0-1.52-.08-2.24h-1.2C150.88,15.88,150.88,16.64,150.84,17.48Zm7.64,2h-1.2c0,.76,0,1.48,0,2.28h1.2C158.44,21.08,158.48,20.32,158.48,19.44Zm-1.16-4.2v2.24h1.24c0-.68,0-1.44,0-2.24Z"/><path class="cls-1" d="M196.4,24.36c.44,6.56.56,11,.56,11h-5.48v-.48h-8.4v.48h-4.64c-.4-6.55-.52-11-.52-11h5.44v.4h0a19.79,19.79,0,0,0,2-3.4h-1.44a2.11,2.11,0,0,0,0,.52h-4.64c-.24-3-.36-5.4-.44-7h-3.72c-.44-5.72-.56-7-.56-7h3.76a13.5,13.5,0,0,0-2.64-4.16s3.64-2.52,7.48,3.92l-1.6.8h5.4A13.13,13.13,0,0,0,184,3.8s3.68-2.52,7.48,3.92l-1.6.8h3.92a22.35,22.35,0,0,0,2.56-5.84l4.4,1.2A6.65,6.65,0,0,1,197.84,8h2.48c.44,5.72.56,7,.56,7H195.8s0-.48.2-4.44H179.48c0,.68,0,1.52-.12,2.56h4.8v.52H191V13h4.64c.44,5.24.56,8.84.56,8.84h-5.48v-.52h-.52a6.09,6.09,0,0,1-3.52,3.4h5.12v-.4ZM191.52,33l.16-6.23h-8.32c0,1.44-.08,3.51-.2,6.23ZM184,19.4h6.72l.12-3.88h-6.72C184.12,16.52,184,17.8,184,19.4Z"/><path class="cls-1" d="M227.6,22c-2.68,10.71-9.8,10.67-9.8,10.67s3-2.4,4.48-10.67h-8.44V20.4h8.68c.16-1.24.28-2.6.4-4.12C218.24,17.64,216.4,15,216.4,15s5.2-1.12,10.48-7.4l4,4c-.8.64-1.52,1.2-2.24,1.72a43.23,43.23,0,0,1-.64,7h2.48l1.6-1.56,1.6,1.56V22Z"/><path class="cls-1" d="M245.12,20s7.44.12,21.2.52V24.2c-15.16.28-21.2.28-21.2.28Z"/><path class="cls-1" d="M297.28,31.35l-5.56.72-.12-1.92a123.1,123.1,0,0,1-14.2,1.25s4.88-7.36,4.88-21.56h5.6c0,8.72-2.68,14.12-5.36,17.36,4-.8,6.72-1.2,8.44-1.44a23.92,23.92,0,0,0-1.08-3.88S295.92,22.12,297.28,31.35Z"/><path class="cls-1" d="M72,47.4s4.28,0,17,.28c0,22.35-14.68,23-14.68,23s7.88-4.63,9-19.55c-8.32.32-11.32.4-11.32.4Zm19.52-3.56a3,3,0,1,1-3-3A3,3,0,0,1,91.52,43.84Zm-1.6,0a1.36,1.36,0,1,0-2.72,0,1.36,1.36,0,0,0,2.72,0Z"/><path class="cls-1" d="M101.16,49s6.76,0,19.52.28c0,0,0,8.4-.36,20.23-10.8.56-18.48.16-18.48.16C101.28,58.84,101.16,49,101.16,49Zm5.36,15.52c2.24,0,5.28.16,9.08.28-.24-4.92-.36-9.28-.44-12.08-3.52.08-6.32.16-8.44.24C106.72,55.4,106.64,59.36,106.52,64.52Z"/><path class="cls-1" d="M149,47.68c0,22.35-14.72,23-14.72,23s7.88-4.63,9-19.55c-8.28.32-11.28.4-11.28.4V47.4S136.28,47.4,149,47.68Z"/><path class="cls-1" d="M156.64,57.84s7.76-.4,13.56-8.16l3.76,2.8a16.19,16.19,0,0,1-4.8,4.4c-.2,2.24-.52,7.4-.52,13.79H166c-.68-5-1.08-9.43-1.28-12.11A15.36,15.36,0,0,1,156.64,57.84Z"/><path class="cls-1" d="M181.92,58s7.44.12,21.2.52V62.2c-15.16.28-21.2.28-21.2.28Z"/><path class="cls-1" d="M215.44,53H221c0,17.71-8.8,17.71-8.8,17.71S215.44,66.76,215.44,53ZM228.92,65a17.57,17.57,0,0,0,7.88-3.92s-.32,8.28-8,9.55h-4.52c-.56-10.79-.72-23.51-.72-23.51h5.6S229.16,55.4,228.92,65Z"/></svg>