<svg id="レイヤー_1" data-name="レイヤー 1" xmlns="http://www.w3.org/2000/svg" viewBox="0 0 571.2 43.2"><defs><style>.cls-1{fill:#f0908a;}</style></defs><path class="cls-1" d="M13.11,6.24s-3.41,0-7.69-.19c-.19,9-.57,27.46-.57,36.48l-3.51.24C.14,29.38,0,.43,0,.43,7.39,0,13.11,0,13.11,0Z"/><path class="cls-1" d="M19.39,41.33s2.54-8.45,2.06-30.15h6.1v.63h1.39v-.63H35s0,2.07-.33,29.29c-4.61.53-8.45.67-8.45.67V35.86s1.05,0,3.26.1l-.14-6.44H25.92C23.52,40.23,19.39,41.33,19.39,41.33Zm7-14.16h2.93c0-2-.05-3.74-.1-5.33H27.07Q26.78,24.8,26.35,27.17Zm.91-7.68h1.88c-.05-2.35-.1-4.08-.15-5.33H27.5C27.46,16.08,27.41,17.86,27.26,19.49Zm13.06-4.56a26.83,26.83,0,0,0-4.27-7.54s5-1.29,9.26,5.43Zm13.06,2.54H59s0,2.4-.33,24.87H54.05c0-.53,0-1.06,0-1.58H41.66c0,.52,0,1.05,0,1.58H37c-.48-20.45-.63-24.87-.63-24.87H42s0,2.12-.29,20.93H54C53.52,21.31,53.38,17.47,53.38,17.47Zm0,1.16a36.79,36.79,0,0,1-2.93,7.1,21.62,21.62,0,0,1,2.93,3.46l-3.8,2.69a23.1,23.1,0,0,0-1.48-2.64c-3.27,4.12-6.34,5-6.34,5a39.61,39.61,0,0,0,4.37-7.73A32.83,32.83,0,0,0,42.05,22a10.64,10.64,0,0,1,5.33,1.53,57.32,57.32,0,0,0,2.3-8Zm-1.83-7-5.13,1.77a26.41,26.41,0,0,0-3.75-7.77S47.76,4.61,51.55,11.62Zm3.7-7.4,5.28,1.4c-2.83,8.3-10.08,8.45-10.08,8.45A23.62,23.62,0,0,0,55.25,4.22Z"/><path class="cls-1" d="M78.14,39.22H72.77c-.67-13-.87-29.09-.87-29.09h6.72S78.62,25,78.14,39.22Zm10.23-9.65c-8.5,0-8.93-8.83-8.93-8.83a17.74,17.74,0,0,0,8.93,2.11Z"/><path class="cls-1" d="M120.91,25.11s-1,10.41-13.44,14.11h-5.42c-.67-13-.87-28.23-.87-28.23h6.72s0,9.89-.24,21.51A21.2,21.2,0,0,0,120.91,25.11Z"/><path class="cls-1" d="M146.21,42.77c-7.4.43-13.11.43-13.11.43V37s3.41,0,7.68.15c.2-9,.58-27.46.58-36.49l3.5-.24C146.06,13.87,146.21,42.77,146.21,42.77Z"/><path class="cls-1" d="M189.94,34.9v6.72c-11.14,0-16.42-2.54-18.87-4.56a12.23,12.23,0,0,1-5.95,3.84,21.62,21.62,0,0,0,3.45-10.51,12,12,0,0,1-3.31,2,23.55,23.55,0,0,0,1.49-6.91h-3.36V23.09h8.69a9.06,9.06,0,0,1-2.83,6.67h4.22a11.55,11.55,0,0,1-1.25,5.52A55.68,55.68,0,0,0,189.94,34.9ZM173.09,18.48l-3.6,3a26.27,26.27,0,0,0-4.71-6.05A8.33,8.33,0,0,1,173.09,18.48ZM188.88,13c0,.86,0,1.82,0,2.93h1.59a3.61,3.61,0,0,1,0-.63H196c.53,8.16.68,13.73.68,13.73h-6.58a5.27,5.27,0,0,1,0-.62h-1.49c0,.91,0,1.87,0,2.83h4.23l1.92-1.92,1.92,1.92V33.6h-8.12v1.11H183c0-.39,0-.72,0-1.11h-8.4V31.25h8.35c0-1-.1-1.92-.1-2.83h-2V29H175.2c-.53-8.16-.67-13.73-.67-13.73h6.57v.63h1.35c0-1.11,0-2.07,0-2.93h-5.47V10.75h-4.85c-.48-5.13-.63-6.24-.63-6.24h6.05v.77H194a3.74,3.74,0,0,0,.05-.77h5.08c.53,5.14.68,6.24.68,6.24h-5.52V13Zm0-4.27v1.92h1.54l1.92-1.92,1.39,1.39c0-.48.05-1.2.14-2.5H177.36c-.05.82-.1,1.78-.19,3h5.18c0-1.25,0-1.92,0-1.92Zm-6.14,17.33c-.05-.92-.1-1.83-.1-2.74H181c-.05.86-.05,1.78-.1,2.74ZM181,21h1.58c-.05-1-.05-1.83-.09-2.69h-1.44C181.06,19.06,181.06,20,181,21Zm9.17,2.35h-1.44c0,.91-.05,1.78-.05,2.74h1.44C190.13,25.3,190.18,24.39,190.18,23.33Zm-1.4-5V21h1.49c0-.82,0-1.73,0-2.69Z"/><path class="cls-1" d="M235.68,29.24c.53,7.87.67,13.24.67,13.24h-6.57v-.57H219.7v.57h-5.57c-.48-7.87-.63-13.24-.63-13.24H220v.47h.05a23.92,23.92,0,0,0,2.35-4.08H220.7a3.13,3.13,0,0,0,0,.63h-5.57c-.29-3.55-.44-6.48-.53-8.35h-4.47c-.52-6.87-.67-8.36-.67-8.36h4.51a16.26,16.26,0,0,0-3.16-5s4.36-3,9,4.7l-1.92,1h6.48a15.76,15.76,0,0,0-3.5-5.67s4.42-3,9,4.7l-1.92,1h4.7a26.6,26.6,0,0,0,3.07-7l5.28,1.44a8,8,0,0,1-3.5,4.89h3c.52,6.87.67,8.36.67,8.36H235s0-.58.24-5.33H215.38c0,.81,0,1.82-.15,3.07H221v.62h8.16v-.62h5.57c.53,6.29.67,10.61.67,10.61h-6.57v-.63h-.63A7.28,7.28,0,0,1,224,29.71h6.14v-.47Zm-5.86,10.32.2-7.49H220c-.05,1.72-.09,4.22-.24,7.49Zm-9-16.28h8.06l.15-4.65h-8.07C220.94,19.83,220.85,21.36,220.8,23.28Z"/><path class="cls-1" d="M273.12,26.4c-3.22,12.87-11.76,12.82-11.76,12.82s3.65-2.88,5.38-12.82H256.61V24.48H267c.2-1.49.34-3.12.48-4.94-5.61,1.63-7.82-1.49-7.82-1.49s6.24-1.34,12.58-8.88L277,14c-1,.77-1.82,1.44-2.69,2.06a52.27,52.27,0,0,1-.77,8.45h3l1.92-1.87,1.92,1.87V26.4Z"/><path class="cls-1" d="M294.14,24s8.93.15,25.45.63V29c-18.2.34-25.45.34-25.45.34Z"/><path class="cls-1" d="M356.74,37.64l-6.67.86-.15-2.3a150,150,0,0,1-17,1.48s5.86-8.83,5.86-25.87h6.72c0,10.46-3.22,16.94-6.44,20.83,4.76-1,8.07-1.44,10.13-1.72a28.56,28.56,0,0,0-1.29-4.66S355.11,26.55,356.74,37.64Z"/><path class="cls-1" d="M373.44,11.28s5.14,0,20.45.34c0,26.83-17.62,27.6-17.62,27.6s9.46-5.57,10.75-23.47c-10,.38-13.58.48-13.58.48ZM396.87,7a3.56,3.56,0,1,1-3.56-3.55A3.55,3.55,0,0,1,396.87,7ZM395,7a1.64,1.64,0,0,0-3.27,0A1.64,1.64,0,0,0,395,7Z"/><path class="cls-1" d="M408.43,13.2s8.11,0,23.43.34c0,0,0,10.08-.43,24.29-13,.67-22.18.19-22.18.19C408.58,25,408.43,13.2,408.43,13.2Zm6.43,18.63c2.69.05,6.34.19,10.9.33-.29-5.9-.43-11.13-.53-14.49-4.22.09-7.58.19-10.13.28C415.1,20.88,415,25.63,414.86,31.83Z"/><path class="cls-1" d="M465.89,11.62c0,26.83-17.67,27.6-17.67,27.6s9.46-5.57,10.76-23.47c-9.94.38-13.54.48-13.54.48v-5S450.58,11.28,465.89,11.62Z"/><path class="cls-1" d="M475,23.81s9.31-.48,16.27-9.79l4.51,3.36A19.3,19.3,0,0,1,490,22.66c-.24,2.69-.62,8.88-.62,16.56h-3.12c-.82-6-1.3-11.33-1.54-14.55A18.43,18.43,0,0,1,475,23.81Z"/><path class="cls-1" d="M505.34,24s8.93.15,25.45.63V29c-18.2.34-25.45.34-25.45.34Z"/><path class="cls-1" d="M545.57,18h6.72c0,21.27-10.56,21.27-10.56,21.27S545.57,34.51,545.57,18Zm16.17,14.5c5.09-.77,9.46-4.7,9.46-4.7s-.38,9.93-9.6,11.47h-5.42c-.68-13-.87-28.23-.87-28.23H562S562,20.88,561.74,32.45Z"/></svg>