<svg id="レイヤー_1" data-name="レイヤー 1" xmlns="http://www.w3.org/2000/svg" viewBox="0 0 302.16 108.67"><defs><style>.cls-1{fill:#f0908a;}</style></defs><path class="cls-1" d="M22.12,15.16h-4.8v-1.6h4.92c.12-1.6.32-3.32.52-5.12h5.6c-.24,1.88-.44,3.56-.6,5.12h2.56L31.92,12l1.6,1.56v1.6H27.6q-.24,2.88-.24,5h3L32,18.6l1.6,1.6v1.6H27.4c.36,7.16,3.08,8.16,7.4,6.64a6.28,6.28,0,0,1-5.92,4.23c-4.52,0-6.6-3.71-6.92-10.87h-4.6V20.2h4.56C21.92,18.68,22,17,22.12,15.16Z"/><path class="cls-1" d="M62.4,31.51c3.12-4,1.4-11.19-11.24-7.39L49.72,19.6c8-2.76,15.4-2.52,17.28,3.28C69,29.08,62.4,31.51,62.4,31.51Z"/><path class="cls-1" d="M97.84,32.31c-10.68,2.36-15.12-5.51-8.24-14-2.24-.72-6-2.84-7.12-9.2l5.4-1.44a29.09,29.09,0,0,0,2.64,9.56,33.7,33.7,0,0,1,5.08-4.36l3.84,4.08C83.6,28,97.84,32.31,97.84,32.31Z"/><path class="cls-1" d="M137.76,5.2s-2.84,0-6.4-.16c-.16,7.48-.48,22.88-.48,30.39l-2.92.2C127,24.48,126.84.36,126.84.36,133,0,137.76,0,137.76,0Z"/><path class="cls-1" d="M138.2,34.43s2.12-7,1.72-25.11H145v.52h1.16V9.32h5s0,1.72-.28,24.39c-3.84.44-7,.56-7,.56V29.88s.88,0,2.72.08l-.12-5.36h-2.84C141.64,33.51,138.2,34.43,138.2,34.43ZM144,22.64h2.44c0-1.68,0-3.12-.08-4.44H144.6Q144.36,20.66,144,22.64Zm.76-6.4h1.56c0-2-.08-3.4-.12-4.44H145C144.92,13.4,144.88,14.88,144.76,16.24Zm10.88-3.8a22.35,22.35,0,0,0-3.56-6.28s4.16-1.08,7.72,4.52Zm10.88,2.12h4.68s0,2-.28,20.71h-3.84c0-.44,0-.88,0-1.32H156.76c0,.44,0,.88,0,1.32h-3.84c-.4-17-.52-20.71-.52-20.71H157s0,1.76-.24,17.43H167C166.64,17.76,166.52,14.56,166.52,14.56Zm0,1a30.08,30.08,0,0,1-2.44,5.92,18.35,18.35,0,0,1,2.44,2.88l-3.16,2.24a19.53,19.53,0,0,0-1.24-2.2c-2.72,3.44-5.28,4.16-5.28,4.16a33.15,33.15,0,0,0,3.64-6.44,28,28,0,0,0-3.4-3.76,8.9,8.9,0,0,1,4.44,1.28,47.9,47.9,0,0,0,1.92-6.68ZM165,9.68l-4.28,1.48a21.92,21.92,0,0,0-3.12-6.48S161.84,3.84,165,9.68Zm3.08-6.16,4.4,1.16c-2.36,6.92-8.4,7-8.4,7A19.66,19.66,0,0,0,168.08,3.52Z"/><path class="cls-1" d="M187.16,32.67h-4.48C182.12,21.88,182,8.44,182,8.44h5.6S187.56,20.8,187.16,32.67Zm8.52-8c-7.08,0-7.44-7.36-7.44-7.36A14.78,14.78,0,0,0,195.68,19Z"/><path class="cls-1" d="M229.2,20.92s-.8,8.68-11.2,11.75h-4.52c-.56-10.79-.72-23.51-.72-23.51h5.6s0,8.24-.2,17.92A17.69,17.69,0,0,0,229.2,20.92Z"/><path class="cls-1" d="M247.88,35.63C241.72,36,237,36,237,36V30.83s2.84,0,6.4.13c.16-7.48.48-22.88.48-30.4l2.92-.2C247.76,11.56,247.88,35.63,247.88,35.63Z"/><path class="cls-1" d="M291,25.92l.88,5.52C275.32,36.07,270,26.2,279.8,19.88a7,7,0,0,0-2.52-.88,22.09,22.09,0,0,0,1.6-4.52H275.4v-1.6h3.84a25.08,25.08,0,0,0,.4-4.44h5.6a12.56,12.56,0,0,1-.8,4.44h1.4l1.6-1.6,1.6,1.6v1.6h-5.32a13,13,0,0,1-2.36,3.16,6,6,0,0,1,1.76.52c.76-.32,1.56-.64,2.44-.92l.8,1.64a14.73,14.73,0,0,0-1.4.6l1.48,1.64-3.36,2.64a10,10,0,0,0-1.24-2C278.6,25,279.8,28.92,291,25.92Z"/><path class="cls-1" d="M59.12,52.28a38.32,38.32,0,0,0,2.2-11.2l4.8.48A27,27,0,0,1,64.88,46h5.24l1.6-1.6,1.6,1.6v2H70.4q-.3,4.56-.84,8h1.32l1.6-1.6,1.6,1.6v2H69.2l-.48,2.24a17.06,17.06,0,0,1,6.44,5.92l-4.08,2.27a31.75,31.75,0,0,0-2.92-6c-2.92,10-7.4,10.75-7.4,10.75s2.64-4.48,3.88-15.15H60.76V56h4.08c.2-2.4.36-5.08.4-8H64C61.8,52.08,59.12,52.28,59.12,52.28ZM90.8,69.07H85.72v-.8H80.28c0,.29,0,.52,0,.8H76c-.44-13.23-.56-22.31-.56-22.31h5.08s0,.24,0,.72H86v-.72h4.24C90.68,60,90.8,69.07,90.8,69.07ZM86,49.44H80.52c0,3.08-.08,8.72-.2,16.88h5.44C85.76,63.2,85.8,57.52,86,49.44Z"/><path class="cls-1" d="M105.84,48.12c-1.28,9.12-.2,13.48-.2,13.48s-6.64-.6-5.36-14Zm9.52,1.56c1.48,22.75-12.36,21-12.36,21s8.28-4.47,6.76-21Z"/><path class="cls-1" d="M127.72,64.4s3.72-4.64,4.8-13.12h-2.8v-1.6h3a28.35,28.35,0,0,0,.16-3.24h5.6a27.63,27.63,0,0,1-.2,3.24h5.08l1.6-1.6,1.6,1.6v1.6H138C136,62.08,127.72,64.4,127.72,64.4Zm14.12.68a20.08,20.08,0,0,0,7.08-1l.36,5.59s-1,1-7.44,1c-7.28,0-5.52-8.15-5.52-8.15S137.52,65.08,141.84,65.08Zm-2.64-5.84-.28-3.92c7-.68,8.64,0,8.64,0l-.32,4S145.72,58.6,139.2,59.24Z"/><path class="cls-1" d="M168.88,69s-9.32.48-8-18.11l5.56.68C165.16,63.64,168.88,69,168.88,69Zm14.8-4.79-5.52.92a22.55,22.55,0,0,0-4.28-10.32S180.32,53.56,183.68,64.24Z"/><path class="cls-1" d="M215.44,45.64,217,47.2v2H203.36c-.24,2.56-.56,4.84-.92,6.88h5.4a3.46,3.46,0,0,1,0-.44h5.48s0,6-.28,17.39c-3.84.4-7.08.52-7.08.52v-4.4s.76,0,2.28.08c-.16-5-.28-8.87-.32-11.19h-5.8c-3,14.63-8.88,15.39-8.88,15.39s3.84-8,4.6-24.23h-8.08v-2h11.4c-.36-3.6-.44-6-.44-6h5.44s0,2-.24,6h8Z"/><path class="cls-1" d="M225.2,48.68l5.6.56C227.84,61.84,230,70,230,70S222.48,68.67,225.2,48.68Zm22.72,13.68.36,5.6s-2.16,1.51-10,1.51c-6.32,0-4.76-8.19-4.76-8.19s1,2.6,4.76,2.6C245.16,63.88,247.92,62.36,247.92,62.36Zm-13-11.88a76.11,76.11,0,0,1,12.24.88l-.64,4.4a66.37,66.37,0,0,0-11.6-.88Z"/><path class="cls-1" d="M0,106.35S5.52,102.44,6.72,93l5.44,1.32C9.72,107.15,0,106.35,0,106.35ZM22.72,89.28v1.6H17.8c-.2,5-.44,12-.44,17.79H13.88c-.68-6.19-1-13-1.2-17.79h-10v-1.6h10l-.12-4.84h5.6s-.12,1.92-.24,4.84h1.68l1.6-1.6Z"/><path class="cls-1" d="M31.52,108.67A24.94,24.94,0,0,0,44.72,89.2c-5.72.24-9.56.24-9.56.24V85.36s7,0,15.4.28c0,7.08-1.8,12-4.28,15.36,2.28-.36,6.16-.12,10.56,3.76l-4,3.91a31.51,31.51,0,0,0-7.6-6.35A19.89,19.89,0,0,1,31.52,108.67Z"/><path class="cls-1" d="M63.52,108.67A24.94,24.94,0,0,0,76.72,89.2c-5.72.24-9.56.24-9.56.24V85.36s7,0,15.4.28c0,7.08-1.8,12-4.28,15.36,2.28-.36,6.16-.12,10.56,3.76l-4,3.91a31.51,31.51,0,0,0-7.6-6.35A19.89,19.89,0,0,1,63.52,108.67Z"/><path class="cls-1" d="M106.32,95.72c-3.92-1.44-5.36-1.28-5.36-1.28a8.7,8.7,0,0,1,6.2-2.72,44.52,44.52,0,0,0,.56-7.28h5.6a44.31,44.31,0,0,1-.68,8.12A24.41,24.41,0,0,1,116.12,94l-2.52,5q-1.26-.66-2.4-1.2c-4,10.67-12.6,10.83-12.6,10.83S103.8,105.24,106.32,95.72Z"/><path class="cls-1" d="M129.8,87s6.36,0,19.12.28c0,0,0,8.4-.36,20.23a185.83,185.83,0,0,1-18.76.08v-5.15s5.08-.12,14,.32c-.2-4.92-.32-9.24-.4-12-8.92.28-13.6.36-13.6.36Z"/><path class="cls-1" d="M167.64,91.88s-3.8-2.12-7-2.16l0-4.16C168,86,167.64,91.88,167.64,91.88Zm12.4-.76s3.6,10.48-18.12,16.71l-1.24-5.43C176.2,98.12,180,91.12,180,91.12Z"/><path class="cls-1" d="M193.32,90.48H210.2l1.6-1.56,1.56,1.56v1.6H207c-.48,16.27-11,16.59-11,16.59s5.12-4.67,5.44-16.59h-8.08Zm1.16-4.32v-1.6h14.08l1.56-1.6,1.6,1.6v1.6Z"/><path class="cls-1" d="M231.64,91.88s-3.8-2.12-7-2.16l0-4.16C232,86,231.64,91.88,231.64,91.88Zm12.4-.76s3.6,10.48-18.12,16.71l-1.24-5.43C240.2,98.12,244,91.12,244,91.12Z"/><path class="cls-1" d="M257.48,86.16h4.16a45.13,45.13,0,0,0,1,8.64S257.48,95.16,257.48,86.16Zm3.44,22.51s11.52-6,11.52-19.07H278C278,108.67,260.92,108.67,260.92,108.67Zm2.92-22.51H268a45.13,45.13,0,0,0,1,8.64S263.84,95.16,263.84,86.16Z"/><path class="cls-1" d="M301.2,101.4h-3.48c-.76-8.52-1.16-17-1.16-17h5.6S301.72,94,301.2,101.4Zm-1.84,2.36a2.46,2.46,0,0,0-2.48,2.43,2.48,2.48,0,0,0,5,0A2.46,2.46,0,0,0,299.36,103.76Z"/></svg>