<svg xmlns="http://www.w3.org/2000/svg" viewBox="0 0 565.15 87.22"><defs><style>.svg_recommend_header1{fill:#f0908a;}</style></defs><g id="レイヤー_2" data-name="レイヤー 2"><g id="見出し"><path class="svg_recommend_header1" d="M5.76,18.19H0V16.27H5.9c.15-1.92.39-4,.63-6.14h6.72c-.29,2.26-.53,4.27-.72,6.14H15.6l1.92-1.87,1.92,1.87v1.92h-7.1c-.19,2.31-.29,4.32-.29,6h3.6l1.92-1.92,1.92,1.92v1.92H12.1c.43,8.59,3.69,9.8,8.88,8a7.55,7.55,0,0,1-7.11,5.09c-5.42,0-7.92-4.47-8.3-13.06H.05V24.24H5.52C5.52,22.42,5.57,20.4,5.76,18.19ZM54.1,37.83C57.84,33,55.78,24.39,40.61,29l-1.73-5.43c9.55-3.31,18.48-3,20.74,3.94C62,34.9,54.1,37.83,54.1,37.83Zm42.53,1c-12.82,2.83-18.15-6.63-9.89-16.85-2.69-.87-7.2-3.41-8.55-11l6.48-1.73a34.71,34.71,0,0,0,3.17,11.47,40.29,40.29,0,0,1,6.1-5.23l4.61,4.9C79.54,33.65,96.63,38.79,96.63,38.79Zm47.9-32.55s-3.41,0-7.68-.19c-.19,9-.58,27.46-.58,36.48l-3.5.24C131.57,29.38,131.43.43,131.43.43,138.82,0,144.53,0,144.53,0Zm.53,35.09s2.54-8.45,2.06-30.15h6.1v.63h1.39v-.63h6s0,2.07-.34,29.29c-4.61.53-8.45.67-8.45.67V35.86s1.06,0,3.27.1L155,29.52h-3.41C149.18,40.23,145.06,41.33,145.06,41.33Zm7-14.16h2.92c0-2,0-3.74-.09-5.33h-2.11Q152.44,24.8,152,27.17Zm.91-7.68h1.87c-.05-2.35-.1-4.08-.14-5.33h-1.49C153.12,16.08,153.07,17.86,152.93,19.49Zm13-4.56a26.83,26.83,0,0,0-4.27-7.54s5-1.29,9.27,5.43ZM179,17.47h5.62s0,2.4-.34,24.87h-4.61c0-.53,0-1.06,0-1.58H167.33c-.05.52-.05,1.05-.05,1.58h-4.61c-.48-20.45-.62-24.87-.62-24.87h5.57s0,2.12-.29,20.93h12.29C179.19,21.31,179,17.47,179,17.47Zm0,1.16a35.56,35.56,0,0,1-2.93,7.1A21.62,21.62,0,0,1,179,29.19l-3.79,2.69a21.73,21.73,0,0,0-1.49-2.64c-3.26,4.12-6.33,5-6.33,5a40,40,0,0,0,4.36-7.73A32.83,32.83,0,0,0,167.71,22,10.62,10.62,0,0,1,173,23.52a57.27,57.27,0,0,0,2.31-8Zm-1.82-7-5.14,1.77a26.25,26.25,0,0,0-3.74-7.77S173.43,4.61,177.22,11.62Zm3.69-7.4,5.28,1.4c-2.83,8.3-10.08,8.45-10.08,8.45A23.62,23.62,0,0,0,180.91,4.22Zm22.9,35h-5.38c-.67-13-.86-29.09-.86-29.09h6.72S204.29,25,203.81,39.22ZM214,29.57c-8.49,0-8.93-8.83-8.93-8.83A17.78,17.78,0,0,0,214,22.85Zm40.23-4.46s-1,10.41-13.44,14.11h-5.43c-.67-13-.86-28.23-.86-28.23h6.72s0,9.89-.24,21.51A21.2,21.2,0,0,0,254.26,25.11Zm22.41,17.66c-7.39.43-13.1.43-13.1.43V37s3.41,0,7.68.15c.19-9,.57-27.46.57-36.49l3.51-.24C276.53,13.87,276.67,42.77,276.67,42.77Zm51.75-11.66,1.05,6.62C309.6,43.3,303.26,31.44,315,23.86a8.57,8.57,0,0,0-3-1.06,26,26,0,0,0,1.92-5.42H309.7V15.46h4.6a30,30,0,0,0,.48-5.33h6.72a15,15,0,0,1-1,5.33h1.69l1.92-1.92,1.91,1.92v1.92h-6.38a15.47,15.47,0,0,1-2.83,3.79,7.53,7.53,0,0,1,2.11.62c.91-.38,1.87-.76,2.93-1.1l1,2a17,17,0,0,0-1.68.72l1.77,2-4,3.16a11.8,11.8,0,0,0-1.49-2.44C313.54,30.05,315,34.71,328.42,31.11Zm9.74-14s2-4.75,2.64-13.44l5.76.57a31.67,31.67,0,0,1-1.49,5.28h6.29l1.92-1.92,1.92,1.92v2.36h-3.5c-.24,3.64-.58,6.86-1,9.64h1.58l1.92-1.92,1.92,1.92v2.36h-5.85l-.58,2.68c2,1,4.8,2.93,7.73,7.11l-4.9,2.74a38.09,38.09,0,0,0-3.5-7.25c-3.51,12.05-8.88,12.91-8.88,12.91s3.16-5.38,4.65-18.19h-4.65V21.55H345c.24-2.88.43-6.09.48-9.64H344C341.37,16.9,338.16,17.14,338.16,17.14Zm38,20.16h-6.1v-1h-6.53c0,.33-.05.62-.05,1h-5c-.52-15.89-.67-26.79-.67-26.79h6.1s0,.29-.05.87h6.58v-.87h5.09C376,26.45,376.18,37.3,376.18,37.3Zm-5.81-23.57h-6.53c0,3.7-.1,10.46-.24,20.26h6.53C370.13,30.24,370.18,23.43,370.37,13.73Zm23.85-1.58c-1.53,10.94-.24,16.17-.24,16.17s-8-.72-6.43-16.85ZM405.65,14c1.78,27.31-14.83,25.2-14.83,25.2s9.93-5.38,8.11-25.2Zm14.83,17.66s4.46-5.57,5.76-15.74h-3.36V14h3.55a32.81,32.81,0,0,0,.19-3.89h6.73A31.93,31.93,0,0,1,433.1,14h6.1l1.92-1.92L443,14v1.92H432.82C430.46,28.9,420.48,31.68,420.48,31.68Zm16.95.82c5.61,0,8.49-1.2,8.49-1.2l.43,6.72s-1.2,1.2-8.92,1.2c-8.74,0-6.63-9.79-6.63-9.79S432.24,32.5,437.43,32.5Zm-3.17-7-.34-4.7c8.4-.82,10.37,0,10.37,0l-.38,4.76S442.08,24.72,434.26,25.49Zm35.61,11.76s-11.18.58-9.55-21.75l6.67.82C465.41,30.77,469.87,37.25,469.87,37.25Zm17.76-5.76L481,32.59a27,27,0,0,0-5.14-12.38S483.6,18.67,487.63,31.49ZM525.75,9.17,527.67,11v2.35H511.25c-.29,3.08-.67,5.81-1.1,8.26h6.48a4.06,4.06,0,0,1,0-.53h6.57s0,7.15-.33,20.88c-4.61.48-8.5.63-8.5.63V37.35s.91,0,2.74.09c-.2-5.95-.34-10.65-.39-13.44h-7c-3.65,17.57-10.65,18.48-10.65,18.48s4.6-9.6,5.52-29.09h-9.7V11h13.68c-.43-4.32-.53-7.15-.53-7.15h6.53s0,2.45-.29,7.15h9.6Zm11.7,3.65,6.73.67c-3.56,15.12-.92,24.91-.92,24.91S534.19,36.82,537.45,12.82Zm27.27,16.42.43,6.72s-2.59,1.82-12,1.82c-7.58,0-5.71-9.84-5.71-9.84s1.25,3.12,5.71,3.12C561.41,31.06,564.72,29.24,564.72,29.24ZM549.12,15A91.92,91.92,0,0,1,563.81,16L563,21.31a80.14,80.14,0,0,0-13.92-1ZM94.42,84.44s6.62-4.71,8.06-16L109,70C106.08,85.4,94.42,84.44,94.42,84.44Zm27.26-20.5v1.92h-5.9c-.24,6-.53,14.45-.53,21.36h-4.18c-.81-7.44-1.24-15.6-1.44-21.36h-12V63.94h12l-.15-5.81h6.72s-.14,2.3-.28,5.81h2L119.76,62Zm10.56,23.28a30,30,0,0,0,15.84-23.38c-6.86.29-11.47.29-11.47.29v-4.9s8.45,0,18.48.34c0,8.5-2.16,14.35-5.14,18.43,2.74-.43,7.4-.14,12.68,4.51l-4.85,4.71c-2.64-3.36-7-6.29-9.12-7.63A23.86,23.86,0,0,1,132.24,87.22Zm38.4,0a30,30,0,0,0,15.84-23.38c-6.86.29-11.47.29-11.47.29v-4.9s8.45,0,18.48.34c0,8.5-2.16,14.35-5.14,18.43,2.74-.43,7.4-.14,12.68,4.51l-4.85,4.71c-2.64-3.36-7-6.29-9.12-7.63A23.86,23.86,0,0,1,170.64,87.22ZM222,71.67c-4.7-1.73-6.43-1.54-6.43-1.54A10.41,10.41,0,0,1,223,66.87a53.84,53.84,0,0,0,.67-8.74h6.72a53.84,53.84,0,0,1-.81,9.74,30.42,30.42,0,0,1,4.17,1.78l-3,6q-1.52-.8-2.88-1.44c-4.85,12.82-15.12,13-15.12,13S219,83.09,222,71.67ZM250.18,61.2s7.63,0,22.94.34c0,0,0,10.08-.43,24.29a222.43,222.43,0,0,1-22.51.09V79.73s6.09-.14,16.8.38c-.24-5.9-.39-11.08-.48-14.44-10.71.33-16.32.43-16.32.43Zm45.4,5.86s-4.56-2.55-8.35-2.59l0-5C296,60,295.58,67.06,295.58,67.06Zm14.89-.91s4.32,12.57-21.75,20.06l-1.49-6.53C305.86,74.55,310.47,66.15,310.47,66.15Zm15.93-.77h20.26l1.92-1.88,1.87,1.88V67.3h-7.63c-.58,19.53-13.25,19.92-13.25,19.92s6.14-5.62,6.53-19.92h-9.7Zm1.39-5.19V58.27h16.9l1.87-1.92,1.92,1.92v1.92Zm44.59,6.87s-4.56-2.55-8.35-2.59l.05-5C372.77,60,372.38,67.06,372.38,67.06Zm14.89-.91s4.32,12.57-21.75,20.06L364,79.68C382.66,74.55,387.27,66.15,387.27,66.15Zm16.12-6h5a53.72,53.72,0,0,0,1.16,10.37S403.39,71,403.39,60.19Zm4.13,27s13.83-7.25,13.83-22.9h6.72C428.07,87.22,407.52,87.22,407.52,87.22Zm3.5-27h5a54.17,54.17,0,0,0,1.15,10.37S411,71,411,60.19Zm44.84,18.29h-4.18c-.91-10.22-1.39-20.35-1.39-20.35H457S456.48,69.65,455.86,78.48Zm-2.21,2.84a3,3,0,0,0-3,2.92,3,3,0,1,0,5.95,0A2.94,2.94,0,0,0,453.65,81.32Z"/></g></g></svg>