<svg xmlns="http://www.w3.org/2000/svg" viewBox="0 0 370.12 41.93"><defs><style>.cls-1{fill:#f6beba;}.cls-2{fill:#231815;}</style></defs><g id="レイヤー_2" data-name="レイヤー 2"><g id="見出し"><path class="cls-1" d="M195.52,30.26h0a.43.43,0,0,1,.46.59,16.57,16.57,0,0,1-1,3.75,1.4,1.4,0,0,1-1.63,1.07,37.45,37.45,0,0,1-11.2-1.38c.4-1.71.77-3.44,1.2-5.15.59-2.27,1.17-1.25,2.94-.56C189.24,29.72,192.45,29.78,195.52,30.26Z"/><path class="cls-1" d="M184.23,9.94a64.22,64.22,0,0,1,14.05,2.17,1.19,1.19,0,0,1,.65.35,1.1,1.1,0,0,1,.13.76,35,35,0,0,1-1.86,8.93.67.67,0,0,1-.24.37.65.65,0,0,1-.39.06l-5.82-.37a.48.48,0,0,1-.4-.16.44.44,0,0,1,0-.32l1.24-5.56q-4.08-.42-8.18-.65l1-4.95"/><path class="cls-1" d="M178.15,6.19a.48.48,0,0,0,.32-.12.48.48,0,0,0,.09-.26h0c.11-.81.68-5.81.68-5.81l-4.1.68a32.36,32.36,0,0,0-.1,5.88A19.4,19.4,0,0,0,178.15,6.19Z"/><path class="cls-1" d="M167,8.61h0l4.46-.35c0-2.25.07-4.5.08-6.75,0,0-2.6.07-2.81.09-.93.12-1.06,0-1.46.82C166.48,4,166.85,6.94,167,8.61Z"/><path class="cls-1" d="M150.11,3.71h0l6.76,11.55A17.81,17.81,0,0,1,162.35,10a43,43,0,0,1,3.39,5.21c-3,1-6.2,2.06-8.41,4.37s-3.06,6.25-1,8.68c1.87,2.17,5.2,2.29,8,1.71a27.73,27.73,0,0,0-.27,4.82,26.42,26.42,0,0,1-8.28,0c-2.7-.59-5.34-2.21-6.43-4.76a8.84,8.84,0,0,1,.15-6.57A26.23,26.23,0,0,1,153,17.62c-.11.16-6.42-7.24-6.93-8-1-1.38-2.18-2.36-.85-3.7C146.35,4.77,148.56,4.09,150.11,3.71Z"/><path class="cls-1" d="M83,16.44h0a23.75,23.75,0,0,1,17.25,3.5,6.45,6.45,0,0,1,2.47,2.5c1,2.24-.41,5-2.54,6.26S95.45,30.08,93,30.18L94.07,33a1.4,1.4,0,0,0,1.72,1.16,19.06,19.06,0,0,0,7.26-2.23,13.26,13.26,0,0,0,3.4-2.38c3-3,3.34-8,1.47-11.87A12.69,12.69,0,0,0,103,12.36,21.32,21.32,0,0,0,94,10a58.65,58.65,0,0,0-10.35,0c-1.82.17-1.75.09-1.63,1.61S82.7,14.86,83,16.44Z"/><path class="cls-1" d="M67.61,6.59h0a31.31,31.31,0,0,1,6.76,14.05l-6.2,2.1c.54-.18-2.94-9-3.31-9.78-.43-.94-2-3-1.74-4.09S66.55,7,67.61,6.59Z"/><path class="cls-1" d="M45.93,9.36l6.75,14a7.31,7.31,0,0,1,1.09-3,.77.77,0,0,1,.5-.42.84.84,0,0,1,.52.2l4.38,3q-2.85,5.69-5.45,11.47h0q-5.64-7.06-10.67-14.56c-1-1.57-4.22-4.88-3.5-6.84C39.86,12.38,45.62,8.71,45.93,9.36Z"/><path class="cls-2" d="M233.83,14.17a4.86,4.86,0,0,0,.95,3.79c.11.15.43.17.58.17a2.05,2.05,0,0,0,.85-.17c.29-.12.89-.45.59-.83-.1-.14-.2-.28-.29-.43l.08.13a4.65,4.65,0,0,1-.66-2.41v.14a5.23,5.23,0,0,1,.07-.68c.07-.47-.64-.47-.93-.43a2,2,0,0,0-.83.28c-.15.1-.38.24-.41.44Z"/><path class="cls-2" d="M239.13,14.13a5.33,5.33,0,0,0,.39,3.29.65.65,0,0,0,.45.39,1.61,1.61,0,0,0,1.54-.41c.11-.14.28-.37.19-.56a5.07,5.07,0,0,1-.48-1.87v.19a5,5,0,0,1,.09-1.23.51.51,0,0,0-.25-.5,1.25,1.25,0,0,0-.73-.14c-.47.06-1.11.31-1.21.84Z"/><path class="cls-2" d="M246.68,14.23a2.58,2.58,0,0,1,0,.4v-.19a2.85,2.85,0,0,1-.18,1.08l.07-.19a3.11,3.11,0,0,1-.25.52c0,.08-.1.15-.14.22.14-.22.06-.09,0,0l-.1.12a1.89,1.89,0,0,1-.2.2l.06-.05-.11.08-.22.14c.33-.21,0,0-.08,0A1.19,1.19,0,0,0,245,17a.47.47,0,0,0,0,.53,1.33,1.33,0,0,0,1.46.1,3.73,3.73,0,0,0,2.34-4c0-.2-.27-.33-.44-.38a1.63,1.63,0,0,0-.82,0c-.4.12-1,.43-.91.94Z"/><path class="cls-2" d="M230.31,17.85a18.29,18.29,0,0,0,.16,4.9c0,.13.31.16.39.16a2.41,2.41,0,0,0,.8-.1,2.65,2.65,0,0,0,.74-.31c.1-.07.27-.18.25-.33a17.89,17.89,0,0,1-.16-4.9c0-.13-.35-.17-.39-.17a2.41,2.41,0,0,0-.8.1c-.31.09-1,.25-1,.65Z"/><path class="cls-2" d="M232.29,18.71a94,94,0,0,1,18.16,2.15l-.38-.75a11.62,11.62,0,0,1-2.19,3.53c-.89,1,1.2,1.17,1.79.52a12.74,12.74,0,0,0,2.45-3.89.51.51,0,0,0-.38-.75,96,96,0,0,0-18.66-2.24,1.53,1.53,0,0,0-1.42.64c-.21.45.18.78.63.79Z"/><path class="cls-2" d="M236.65,22.91l5.68.95-.21-.79-4.64,4.57c-.17.17-.31.39-.13.62,1.08,1.36,2.63,3.17,2.34,5a5.37,5.37,0,0,1-2.3,3.75l.82-.28c.92-.12.73.2.45,0a2.75,2.75,0,0,0-.28-.19c-.29-.21-.57-.43-.85-.65a6.16,6.16,0,0,1-1.1-.93l-.33.76h0l-1.54.2.09,0c.59.42,2.59-.45,1.72-1.06l-.09-.06a1.73,1.73,0,0,0-1.54.2h0c-.25.16-.56.46-.33.77a10.6,10.6,0,0,0,2.05,1.65,2,2,0,0,0,1.44.53,3.56,3.56,0,0,0,2-1.22,7,7,0,0,0,2-4.26c.08-1.91-1.43-3.73-2.54-5.13l-.14.62,4.64-4.57c.31-.3.27-.71-.21-.79l-5.69-1a1.87,1.87,0,0,0-1.53.41c-.31.31-.27.71.21.8Z"/><path class="cls-2" d="M233.75,31.63c3.53.62,7.08,1.1,10.66,1.41a3.16,3.16,0,0,0,1.51-.29c.14-.07.78-.47.28-.51q-5.35-.47-10.65-1.41a2.78,2.78,0,0,0-1.52.29c-.16.07-.76.42-.28.51Z"/><path class="cls-2" d="M259.15,25.47l3.47-5.09-2.15.49a107,107,0,0,0,8,12.24c.37.49,2.3-.42,2.17-.59a108.18,108.18,0,0,1-8-12.23c-.27-.48-1.93.16-2.16.49L257,25.87c-.21.3.78.17.85.16a2.17,2.17,0,0,0,1.29-.56Z"/><path class="cls-2" d="M268.19,18l1.64,5.34c.11.37,1,.17,1.19.1a2.22,2.22,0,0,0,.74-.32c.1-.07.29-.21.24-.36l-1.63-5.34c-.12-.36-1-.16-1.19-.09a2.22,2.22,0,0,0-.74.32c-.1.07-.29.21-.25.35Z"/><path class="cls-2" d="M273.5,17.41a15.66,15.66,0,0,0,1.06,6c.19.47.85.47,1.26.35s1.1-.46.91-.94a14.74,14.74,0,0,1-1-5.61c0-.5-.55-.64-1-.59s-1.2.3-1.21.81Z"/><path class="cls-2" d="M281.49,21.64l9.29,1.23a3,3,0,0,0,1.52-.3c.15-.06.77-.44.28-.5l-9.29-1.23a2.93,2.93,0,0,0-1.51.3c-.15.07-.78.44-.29.5Z"/><path class="cls-2" d="M281.27,27.26a35.25,35.25,0,0,0,9.1,1.76,1.65,1.65,0,0,0,1.43-.62c.27-.45-.23-.69-.61-.71A33.26,33.26,0,0,1,282.58,26a1.71,1.71,0,0,0-1.54.41c-.35.35-.21.7.23.84Z"/><path class="cls-2" d="M286.24,17.15a79.09,79.09,0,0,1-.75,8.56,27.34,27.34,0,0,1-1.88,7.59c-.14.28-.56,1.16-.85,1.26s-.93-.31-1.11-.55a1.24,1.24,0,0,1-.07-1.39c.47-.74,1.26-.35,1.92-.08,2.65,1.05,5.21,2.42,7.8,3.64.5.23,2.48-.56,1.77-.9l-4.45-2.08a23.22,23.22,0,0,0-4.25-1.86,5.16,5.16,0,0,0-3.66.45c-.86.47-1.79,1.43-1.41,2.49.72,2,4,1.26,5.19.3a5.8,5.8,0,0,0,1.75-2.9,38,38,0,0,0,1.1-4.57,74.55,74.55,0,0,0,1.07-10.54c0-.41-2.14-.11-2.17.58Z"/><path class="cls-2" d="M303.36,19.58l12.83,3a2.52,2.52,0,0,0,1.52-.28c.18-.09.75-.44.27-.55l-12.84-3a2.56,2.56,0,0,0-1.51.28c-.19.09-.75.44-.27.55Z"/><path class="cls-2" d="M311.59,16.34c-.44,3-.93,6-1.49,9-.12.67-.24,1.35-.39,2-.06.29-.25,1.34-.51,1.47s-.84-.3-1-.45a1.39,1.39,0,0,1-.47-1.21c.13-.92,1-1,1.48-.28.7,1,.29,2.59.09,3.68A20.15,20.15,0,0,1,306.19,38c-.56.84,1.62.67,2,.06a20.83,20.83,0,0,0,3.44-9c.15-1.15.27-2.61-.69-3.45a3.28,3.28,0,0,0-2.85-.48c-1.79.44-3.66,2.43-1.84,4.06a3.45,3.45,0,0,0,5.31-1.2,25.51,25.51,0,0,0,1.16-5.58c.38-2.13.71-4.26,1-6.4.12-.86-2.07-.48-2.18.27Z"/><path class="cls-2" d="M331.57,13.76a104.17,104.17,0,0,1-5,14.77c-.48,1.15,1.7,1.15,2.08.25a108.23,108.23,0,0,0,5.09-15.18c.13-.54-.63-.74-1-.72a1.27,1.27,0,0,0-1.2.88Z"/><path class="cls-2" d="M324.25,35.23a1.65,1.65,0,0,1,.21,1.21v-.09a1.65,1.65,0,0,1-.27.64l-.09.13c-.07.09.05,0,0,0l-.06.06s-.09.1-.14.11l.07,0-.05,0c-.06,0,0,0,.13-.06l1.7-.18a1.36,1.36,0,0,1-.09-.82v.09a1.53,1.53,0,0,1,.25-.57l0-.06s.06-.06,0,0,0,0,0,0l.05,0,.06,0s-.15.1-.06,0,.14-.08,0,0l-.06,0-.16.07-1.27.19.14,0s-.13-.06,0,0l.06,0a.91.91,0,0,1,.21.18l-.06-.07a1.22,1.22,0,0,1,.24,1l0-.09a1.2,1.2,0,0,1-.15.37l0,0s0,0,0,0l-.06,0c-.12.11.14-.08,0,0s0,0,.14-.06l.17-.07,1.08-.21c.23,0,0,0-.09,0,.12,0,0,0,0,0l-.13-.06a1.48,1.48,0,0,1-.39-.31l.06.07a1.29,1.29,0,0,1-.33-1.07l0,.09a1.17,1.17,0,0,1,.24-.47c.07-.1-.09.07,0,0l.11-.09c.1-.09-.14.08,0,0s-.19.09-.05,0q-.3.11-.15.06l-.33.09-.08,0-.17,0h-.12c.07,0,0,0-.09,0h.08l.06,0a.31.31,0,0,1,.1.05.7.7,0,0,1,.19.16l-.06-.07a1.11,1.11,0,0,1,.23.93l0-.09a1,1,0,0,1-.17.4c-.08.11.06-.05,0,0l-.07.06c.12-.08.14-.1.08-.06l.24-.11a2.38,2.38,0,0,1,.83-.18c-.16,0,.12,0,0,0s-.14,0-.15,0h0l0,0a.31.31,0,0,1-.13-.06,1.4,1.4,0,0,1-.38-.3l.06.06a1.43,1.43,0,0,1-.36-1.2l0,.09a1.42,1.42,0,0,1,.1-.29l.07-.12.05-.06s-.07.06,0,0l.11-.09c.08-.07-.07,0-.08,0l.07,0c.08-.06-.2.1-.12.06s-.28.1-.15.06l-.19.06c.14-.05-.31.06-.18,0l-.18,0s.13,0,0,0,0,0,0,0-.2,0-.07,0h.06l.14,0s-.11,0,0,0l.07,0,.11.06a1,1,0,0,1,.23.18L325.2,35a.89.89,0,0,1,.21.77l0-.09a1.28,1.28,0,0,1-.21.46l-.06.09s0,0,0,0a.12.12,0,0,1-.05.05l-.08.07c-.09.08.17-.11,0,0l.12-.06.06,0a2.74,2.74,0,0,1,.75-.18h.22l-.1,0h0l0,0L326,36a.75.75,0,0,1-.16-.15l.06.07a1,1,0,0,1-.19-.88l0,.09a1,1,0,0,1,.19-.44l0,0s-.08.07,0,0,.07-.08.09-.08-.16.11-.08.07-.16.07-.14.07a2.83,2.83,0,0,1-1.07.24l-.37-.12a.88.88,0,0,1,.12.65l0-.09a1.48,1.48,0,0,1-.13.35l-.1.15c-.07.09,0,0,0,0l-.07.07-.08.06c-.08.08.14-.07.06,0l-.07.05c.16-.08.2-.1.12-.07l.2-.08a2.88,2.88,0,0,1,.66-.15c-.14,0,.24,0,.1,0,.06,0,.18,0,.06,0s-.13,0,0,0a1.28,1.28,0,0,0-.55,0,3.43,3.43,0,0,0-.84.2,1.47,1.47,0,0,0-.61.31c-.06.05-.2.2,0,.26a2.76,2.76,0,0,0,1.61,0,3.39,3.39,0,0,0,1.35-.65,1.31,1.31,0,0,0,.46-1.34.61.61,0,0,0-.07-.14c-.1-.15-.26-.15-.42-.15a3.71,3.71,0,0,0-1.27.24,2.24,2.24,0,0,0-1,.65,1.3,1.3,0,0,0-.21,1.14c.19.62.86.73,1.43.67a4,4,0,0,0,1.79-.58,1.82,1.82,0,0,0,.65-.67,1,1,0,0,0-.23-1.33A2.31,2.31,0,0,0,325.3,34a4.11,4.11,0,0,0-1.65.67,1.34,1.34,0,0,0-.46.59,1.42,1.42,0,0,0,.25,1.4,1.51,1.51,0,0,0,.6.49,2.68,2.68,0,0,0,1.51.08,4.16,4.16,0,0,0,1.28-.45,1.67,1.67,0,0,0,.42-.32,1.14,1.14,0,0,0,.29-.66A1.1,1.1,0,0,0,327,34.7a2.09,2.09,0,0,0-1.26-.11,4.07,4.07,0,0,0-1.69.59,1.39,1.39,0,0,0-.74,1.51,1.63,1.63,0,0,0,1.29,1.13,2.89,2.89,0,0,0,1.45-.19,2.94,2.94,0,0,0,.79-.4,1.1,1.1,0,0,0,.39-.51,1.36,1.36,0,0,0-.08-1.15,1,1,0,0,0-.43-.4,1.14,1.14,0,0,0-.36-.1,2.71,2.71,0,0,0-1.26.19,4.53,4.53,0,0,0-.6.26,1.85,1.85,0,0,0-1,1.38,1.33,1.33,0,0,0,.11.71c.08.18.46.12.6.11a3.44,3.44,0,0,0,1.1-.29,2.27,2.27,0,0,0,1.28-1.33,1.72,1.72,0,0,0-.15-1.45c-.07-.12-.25-.12-.37-.12a2.61,2.61,0,0,0-.79.12,2.85,2.85,0,0,0-.75.29c-.06,0-.33.19-.26.29Z"/><path class="cls-2" d="M46.43,12H44.68l6,16.19c.26.68,1.84.19,2.1-.28l3-5.45-2,.41,1.84,1.3c.57.4,1.57.86,1.92,1.48s-.23,1.67-.47,2.32-.58,1.53-.9,2.29a57.27,57.27,0,0,1-4.46,8.54l2.1-.13c.12-.56-.71-1.43-1-1.83-.77-1.11-1.59-2.2-2.4-3.28a79.42,79.42,0,0,1-5.48-8.54c-1.44-2.54-3.6-5.07-4.41-7.9-.44-1.55.74-2.29,2-3S45.15,12.8,46.43,12c.37-.21.56-.52.2-.81s-1.22,0-1.54.21c-2,1.18-4.41,1.94-6.07,3.66s-.25,3.88.75,5.59c1.4,2.39,2.84,4.75,4.25,7.12a69.6,69.6,0,0,0,4.15,6.33q1.13,1.48,2.22,3c.3.42.61.85.9,1.3.09.15.33.62.35.54-.19.87,1.83.28,2.09-.12a59.31,59.31,0,0,0,4.78-9.27c.34-.83.66-1.66,1-2.5.23-.66.62-1.4.25-2.08a4.7,4.7,0,0,0-1.53-1.26L55.8,22.06a1.67,1.67,0,0,0-2,.41l-3,5.44,2.1-.28-6-16.18c-.23-.61-1.39-.24-1.76,0h0c-.37.22-.56.52-.2.82S46.12,12.24,46.43,12Z"/><path class="cls-2" d="M80.52,13.67c7.43-1.73,18.29-1,23,6,2,3,2.5,7.44.08,10.38A11.47,11.47,0,0,1,99,33.13a12,12,0,0,1-6.62,1.13l.7.46a10.44,10.44,0,0,0-1.82-4.31l-1.38,1.21a12.91,12.91,0,0,0,9.87-3.94c1.11-1.21,2-2.89,1.35-4.55a6.34,6.34,0,0,0-3.5-3.19,32.05,32.05,0,0,0-11.91-2.6A10.23,10.23,0,0,1,83,17.23c-.7-.24-.76-.71-1-1.36s-.29-1.15-.41-1.73c-.06-.28-.12-.57-.16-.85s0-.44-.09-.22c.6-1-1.6-1-2.06-.19-.34.55.12,1.78.24,2.33a7.15,7.15,0,0,0,.84,2.61c.85,1.11,2.6,1,3.82,1a33.72,33.72,0,0,1,5.93.63A27.84,27.84,0,0,1,95.43,21c1.47.59,3.39,1.61,3.61,3.38s-1.6,3.41-3,4.3a9.58,9.58,0,0,1-5.44,1.48c-.52,0-1.93.45-1.38,1.21a9.34,9.34,0,0,1,1.63,4c.06.31.45.41.7.45,3.62.61,7.56-.79,10.66-2.59,2.89-1.68,5-4.33,5.16-7.77.33-7.62-6.82-12-13.43-13.36a32.55,32.55,0,0,0-13.79.25C78.81,12.6,79.18,14,80.52,13.67Z"/><path class="cls-2" d="M164.9,3a28.36,28.36,0,0,0-.28,7.86c0,.45,1,.31,1.23.25a14.42,14.42,0,0,1,4.48-.6c.5,0,1.54-.25,1.51-.91l-.3-6.12a1.7,1.7,0,0,0-.3-1.14A2,2,0,0,0,169.86,2c-1.07,0-2.13,0-3.2.1-.39,0-1.15.28-1.24.73s.66.48.94.46c.83,0,1.67-.08,2.5-.07h.31c.15,0,.09,0,.05,0a.72.72,0,0,1,.12.39c0,.42,0,.85.06,1.27l.26,5.34,1.51-.91a18.92,18.92,0,0,0-5.6.75l1.23.25a27.37,27.37,0,0,1,.27-7.56c.14-.82-2-.46-2.17.28Z"/><path class="cls-2" d="M172.46,2.67a15.92,15.92,0,0,0-.27,6.59c.08.47,1.3.1,1.49,0l2.1-.75a8.27,8.27,0,0,0,2.1-.88,1.92,1.92,0,0,0,.72-1.62l.25-2.19c.08-.7.2-1.42.23-2.12S178.5.85,177.9.86a15.22,15.22,0,0,0-2.22.32l-2.23.36c-.36.06-1.15.24-1.26.65s.71.34.9.31l3.65-.59c.08,0,.46,0,.22,0s-.13,0-.07.14a2,2,0,0,1,0,.73l-.2,1.75-.19,1.75c0,.28-.05.56-.1.83,0,.11-.09.24-.1.35s-.05.06.06,0a5.16,5.16,0,0,1-.78.28l-.84.3-1.83.64,1.49,0a15.45,15.45,0,0,1,.24-6.35c.16-.6-2-.28-2.15.34Z"/><path class="cls-2" d="M182,12.49a30.72,30.72,0,0,0-1.23,4.61c-.1.53.62.68,1,.65a23.85,23.85,0,0,1,9,1l-.26-1a38,38,0,0,0-4,5.33.51.51,0,0,0,.18.7,13.8,13.8,0,0,0,3.85,1.54c1.23.27,2.67.47,3.59-.6a5.36,5.36,0,0,0,.78-1.72c.27-.72.53-1.44.79-2.16q.78-2.18,1.53-4.35a3.65,3.65,0,0,0,.44-1.84,1.38,1.38,0,0,0-1.12-.9c-1.45-.4-3-.65-4.44-.91A83.63,83.63,0,0,0,183,11.75a1.48,1.48,0,0,0-1.42.65c-.22.47.2.82.65.85q3.56.24,7.08.79c1.18.18,2.36.38,3.53.62q.91.18,1.83.39c.63.14.87,0,.64.73-.77,2.27-1.59,4.53-2.41,6.78a11.77,11.77,0,0,0-.55,1.46c-.14.19-.13.23,0,.11s.16-.1-.08-.09a5.12,5.12,0,0,0-.78-.15,12.18,12.18,0,0,1-3.18-1.28l.19.7a36.21,36.21,0,0,1,3.77-5,.57.57,0,0,0-.27-1A26.35,26.35,0,0,0,182,16.25l1,.66a30.79,30.79,0,0,1,1.1-4.22c.4-1.15-1.77-1.06-2.06-.2Z"/><path class="cls-2" d="M181.32,29.47A28.37,28.37,0,0,0,194.06,33l-.64-.85-1,3c-.16.46-.29.95-.48,1.39-.09.21-.26.32,0,.21a2.69,2.69,0,0,1-.69.06,25.94,25.94,0,0,1-6-.2,24.75,24.75,0,0,1-3-.64c-.27-.07-1-.16-1.22-.37s0-1.06.12-1.41a24.94,24.94,0,0,1,2.08-5.53c.54-1.05-1.65-1-2.06-.2a26.67,26.67,0,0,0-1.48,3.43,16.44,16.44,0,0,0-1,3.51c-.13,1.29.95,1.6,2,1.9a30.82,30.82,0,0,0,3.58.78,24.68,24.68,0,0,0,7.43.15,2.75,2.75,0,0,0,2.4-2.07c.43-1.26.85-2.51,1.27-3.77a.61.61,0,0,0-.64-.84A26.27,26.27,0,0,1,183,28.26a1.5,1.5,0,0,0-1.55.15c-.32.24-.62.79-.14,1.06Z"/><path class="cls-2" d="M114.33,16.41a31.82,31.82,0,0,0,6.83-.16l-.8-.4a13,13,0,0,0-1.8,3.64c-.35,1.11-.75,2.42.09,3.4a4.9,4.9,0,0,0,2.76,1.39,4,4,0,0,0,2-.21c.53-.21,1.07-.5,1.09-1.12,0-.42-2.15-.11-2.17.58a.84.84,0,0,0,0,.12c-.08-.13.8-.26.84-.3s-.16,0-.25,0a5.28,5.28,0,0,1-1.09-.4,2.39,2.39,0,0,1-1.47-1.58,3.69,3.69,0,0,1,.17-1.51,13.16,13.16,0,0,1,.43-1.39,12.66,12.66,0,0,1,1.4-2.71c.35-.5-.53-.43-.8-.4a27,27,0,0,1-5.82.1,2.54,2.54,0,0,0-1.54.41c-.34.25-.29.52.15.56Z"/><path class="cls-2" d="M123.59,16.67a8,8,0,0,0,1.78,3.87,1.3,1.3,0,0,0,1.47.13c.34-.17.88-.65.53-1.06a7.81,7.81,0,0,1-1-1.45l.09.17a7.64,7.64,0,0,1-.73-2.24c0-.21-.28-.35-.45-.41a1.52,1.52,0,0,0-.82,0c-.44.13-1,.46-.9,1Z"/><path class="cls-2" d="M127.14,14.33l2,5.15c.17.44.87.38,1.24.27s1.11-.41.93-.85l-2-5.15c-.17-.44-.87-.38-1.24-.28s-1.11.42-.93.86Z"/><path class="cls-2" d="M120.84,27.16c-.34,2.81-.65,5.93,1.31,8.26a4.62,4.62,0,0,0,3.2,1.67,4.19,4.19,0,0,0,3.9-1.72,5.83,5.83,0,0,0,.33-3.8c-.09-.59-2.28-.1-2.17.58a5.33,5.33,0,0,1-.25,3.44,1.41,1.41,0,0,1-.46.48c.2-.13.13,0,.09,0a4.73,4.73,0,0,1-.53,0,3.62,3.62,0,0,1-1.51-.8c-2.41-2.07-2.1-5.54-1.75-8.37.09-.7-2.08-.3-2.16.33Z"/><path class="cls-2" d="M119.86,30.87l6.29-2.06c.41-.14,1-.49.89-1s-.87-.58-1.28-.44l-6.29,2.06c-.41.13-1,.49-.89,1s.87.57,1.28.44Z"/><path class="cls-2" d="M121.24,33.73A16.34,16.34,0,0,1,124,32.42l.37-.14c-.19.07.16-.05.2-.06l.76-.23.77-.19.38-.09c.14,0,.15,0,0,0l.22,0c.41-.07,1.13-.25,1.23-.75s-.64-.55-.94-.5A21.77,21.77,0,0,0,119.88,33c-.31.19-.62.65-.18.88a1.75,1.75,0,0,0,1.54-.19Z"/><path class="cls-2" d="M206.33,16.41a31.82,31.82,0,0,0,6.83-.16l-.8-.4a13,13,0,0,0-1.8,3.64c-.35,1.11-.75,2.42.09,3.4a4.9,4.9,0,0,0,2.76,1.39,4,4,0,0,0,2-.21c.53-.21,1.07-.5,1.09-1.12,0-.42-2.15-.11-2.17.58a.84.84,0,0,0,0,.12c-.08-.13.8-.26.84-.3s-.16,0-.25,0a5.28,5.28,0,0,1-1.09-.4,2.39,2.39,0,0,1-1.47-1.58,3.69,3.69,0,0,1,.17-1.51,13.16,13.16,0,0,1,.43-1.39,12.66,12.66,0,0,1,1.4-2.71c.35-.5-.53-.43-.8-.4a27,27,0,0,1-5.82.1,2.54,2.54,0,0,0-1.54.41c-.34.25-.29.52.15.56Z"/><path class="cls-2" d="M215.59,16.67a8,8,0,0,0,1.78,3.87,1.3,1.3,0,0,0,1.47.13c.34-.17.88-.65.53-1.06a7.81,7.81,0,0,1-1-1.45l.09.17a7.64,7.64,0,0,1-.73-2.24c0-.21-.28-.35-.45-.41a1.52,1.52,0,0,0-.82,0c-.44.13-1,.46-.9,1Z"/><path class="cls-2" d="M219.14,14.33l2,5.15c.17.44.87.38,1.24.27s1.11-.41.93-.85l-2-5.15c-.17-.44-.87-.38-1.24-.28s-1.11.42-.93.86Z"/><path class="cls-2" d="M212.84,27.16c-.34,2.81-.65,5.93,1.31,8.26a4.62,4.62,0,0,0,3.2,1.67,4.19,4.19,0,0,0,3.9-1.72,5.83,5.83,0,0,0,.33-3.8c-.09-.59-2.28-.1-2.17.58a5.33,5.33,0,0,1-.25,3.44,1.41,1.41,0,0,1-.46.48c.2-.13.13,0,.09,0a4.73,4.73,0,0,1-.53,0,3.62,3.62,0,0,1-1.51-.8c-2.41-2.07-2.1-5.54-1.75-8.37.09-.7-2.08-.3-2.16.33Z"/><path class="cls-2" d="M211.86,30.87l6.29-2.06c.41-.14,1-.49.89-1s-.87-.58-1.28-.44l-6.29,2.06c-.41.13-1,.49-.89,1s.87.57,1.28.44Z"/><path class="cls-2" d="M213.24,33.73A16.34,16.34,0,0,1,216,32.42l.37-.14c-.19.07.16-.05.2-.06l.76-.23.77-.19.38-.09c.14,0,.15,0,0,0l.22,0c.41-.07,1.13-.25,1.23-.75s-.64-.55-.94-.5A21.77,21.77,0,0,0,211.88,33c-.31.19-.62.65-.18.88a1.75,1.75,0,0,0,1.54-.19Z"/><path class="cls-2" d="M64.36,10.63a5.64,5.64,0,0,1,3.2-.82L67,9.67a22.3,22.3,0,0,1,4.89,13.05l.68-.65-6.65,2.28,1.5.07a45.4,45.4,0,0,0-1.64-7.1,17.2,17.2,0,0,0-1.46-3.21c-.38-.66-1.87-2.32-1-3.06.36-.28.24-.56-.17-.64a2.13,2.13,0,0,0-1.54.41,1.94,1.94,0,0,0-.22,2.76,21.25,21.25,0,0,1,1.9,3.59A40.47,40.47,0,0,1,65.23,25c.09.5,1.28.15,1.49.07l6.65-2.28c.27-.09.69-.32.68-.65a22.55,22.55,0,0,0-2.77-9.93A23.63,23.63,0,0,0,70,10.12c-.47-.66-.79-1.37-1.65-1.39a9.86,9.86,0,0,0-5.27,1.41c-.31.18-.63.48-.22.73s1.2,0,1.53-.24Z"/><path class="cls-2" d="M144.05,9.53a18.87,18.87,0,0,1,6.51-4l-1.47,0a73.22,73.22,0,0,1,6.34,11.72c.21.49,1.64-.05,1.92-.26a45.24,45.24,0,0,1,7.27-4.43l-1.71.15,3.37,5.37.46-.44a85.18,85.18,0,0,0-8.66,4c-2,1.21-4,3-4.21,5.51A6.37,6.37,0,0,0,158,33.25a11.67,11.67,0,0,0,8.09-.18l-1.46,0a22,22,0,0,1-.21,4.66l1-.53a20.85,20.85,0,0,1-9.13.32c-2.52-.47-5.39-1.35-6.74-3.72-2.34-4.09-.18-10.74,3.57-13.29.14-.09.34-.23.19-.41A88.24,88.24,0,0,1,144.51,9c-.35-.54-2.35.31-2.17.58a89.91,89.91,0,0,0,8.85,11.36l.19-.41a11.29,11.29,0,0,0-4.49,6.7c-.69,2.66-.85,5.85,1,8.09s5.15,3,7.92,3.36a25.5,25.5,0,0,0,9.72-.71c.2-.05.94-.24,1-.53a22.61,22.61,0,0,0,.24-4.86c0-.4-1.36,0-1.47,0a7.4,7.4,0,0,1-7.2-1.23,5.59,5.59,0,0,1-1.75-6c.76-2,2.65-3.25,4.49-4.16C163.16,20,165.6,19,168,18c.08,0,.57-.27.46-.44l-3.37-5.38c-.28-.43-1.38,0-1.71.15a47,47,0,0,0-7.69,4.65l1.92-.25A73.69,73.69,0,0,0,151.27,5c-.25-.37-1.17-.07-1.47,0a22.47,22.47,0,0,0-7.72,4.7c-.36.34.33.37.52.36a2.4,2.4,0,0,0,1.45-.52Z"/><path class="cls-1" d="M9.07,34.59s-4-3.2-4.8-7.2C3.19,22,1.9,17.73,1.38,12.25c3,.63,6.09.74,10.09,2.34,4.61,1.84,7,3.7,10.4,8.8,3.2,4.8,6,12.91,0,15.2A18.36,18.36,0,0,1,9.07,34.59Z"/><path class="cls-2" d="M23.23,41.06l-.7-2c-.08-.23-.44-.27-.64-.26-3.23.2-6.61.4-9.74-.58a10.78,10.78,0,0,1-6.8-6.34c-2.7-6.44-.89-13.67-3.16-20.21l-2.1.7C2.46,14.87,5.88,15.61,9,16.79a23.52,23.52,0,0,1,8.13,5.11,18.61,18.61,0,0,1,5,7.93c.92,3,1.31,7.38-1.53,9.49-.38.29-.2.57.18.67a2.09,2.09,0,0,0,1.54-.41c2.78-2.07,3-5.82,2.34-9a18.29,18.29,0,0,0-4.51-8.5,24.27,24.27,0,0,0-8.08-5.77c-3.38-1.5-7.34-2-10-4.83-.37-.39-2.33.05-2.1.7,2.41,7,.16,14.93,3.8,21.55C7.3,40.11,14.61,40.27,21,39.88l-.65-.26.7,2c.23.68,2.39,0,2.17-.58Z"/><path class="cls-2" d="M6.2,20.31l9.73,14c.39.55,2.38-.29,2.18-.58l-9.74-14C8,19.17,6,20,6.2,20.31Z"/><path class="cls-2" d="M13.49,22.44l-.69,6.87c-.09.94,2.1.56,2.18-.24l.69-6.87c.1-.94-2.1-.56-2.18.24Z"/><path class="cls-2" d="M7.67,30.09a50.52,50.52,0,0,1,6.43,2.48,2,2,0,0,0,1.4-.13c.09,0,1-.45.65-.61a53.7,53.7,0,0,0-6.69-2.58,2.38,2.38,0,0,0-1.52.28c-.21.1-.73.42-.27.56Z"/><path class="cls-2" d="M5.83,24.15l3.45.52a2,2,0,0,0,.8-.08,2.05,2.05,0,0,0,.74-.33c.11-.09.28-.23.23-.39s-.27-.21-.4-.23L7.2,23.12a2.16,2.16,0,0,0-.8.08,2.24,2.24,0,0,0-.74.33c-.11.09-.28.23-.23.4s.27.2.4.22Z"/><path class="cls-1" d="M361.07,34.59s4-3.2,4.8-7.2c1.08-5.4,2.36-9.66,2.88-15.14-3,.63-6.08.74-10.08,2.34-4.61,1.84-7,3.7-10.4,8.8-3.2,4.8-6,12.91,0,15.2A18.36,18.36,0,0,0,361.07,34.59Z"/><path class="cls-2" d="M349.06,41.16l.7-2-1.77.64c6.4.39,14.12.23,17.94-5.85,4.18-6.65,1.7-15,4.17-22.19.2-.57-1.84,0-2.05.26-2.55,2.73-6.49,3.23-9.76,4.68a24.93,24.93,0,0,0-8.17,5.79,18.4,18.4,0,0,0-4.61,8.45c-.67,3.06-.62,6.87,2.12,8.91.49.36,2.39-.5,2.05-.75-2.84-2.12-2.67-6.32-1.81-9.39a18.59,18.59,0,0,1,5-8.15,23,23,0,0,1,8.51-5.24c3.07-1.09,6.36-2,8.66-4.44l-2.06.26c-2.19,6.31-.59,13.23-2.89,19.51A10.54,10.54,0,0,1,359,38.24c-3,1.09-6.47.82-9.63.63-.43,0-1.6.14-1.77.64l-.7,2c-.15.43,1.95.19,2.14-.38Z"/><path class="cls-2" d="M361.83,20l-9.74,14c-.31.44.27.73.63.77a1.6,1.6,0,0,0,1.42-.63l9.74-14c.3-.44-.27-.73-.63-.77a1.6,1.6,0,0,0-1.42.63Z"/><path class="cls-2" d="M354.47,22.61l.69,6.87c0,.18.29.3.43.34a1.71,1.71,0,0,0,.81,0c.41-.12,1-.39.93-.89L356.64,22c0-.18-.29-.3-.43-.34a1.75,1.75,0,0,0-.82,0c-.4.12-1,.39-.92.89Z"/><path class="cls-2" d="M361.45,29.22a54,54,0,0,0-6.85,2.62c-.21.1-.92.42-.61.76s1.12.1,1.43-.05q1.56-.72,3.18-1.35c1.09-.42,2.08-.76,3.09-1.08.28-.08,1.06-.32,1-.74s-1-.23-1.21-.16Z"/><path class="cls-2" d="M363.83,23.26l-3.45.52a3.48,3.48,0,0,0-.83.26c-.12.05-.39.17-.45.32-.15.34.78.18.86.17l3.45-.52a3,3,0,0,0,.83-.26c.12-.05.39-.17.45-.31.15-.35-.78-.19-.86-.18Z"/></g></g></svg>