<svg xmlns="http://www.w3.org/2000/svg" viewBox="0 0 563.62 46.6"><defs><style>.cls-1{fill:#f0908a;}</style></defs><g id="レイヤー_2" data-name="レイヤー 2"><g id="見出し"><path class="cls-1" d="M0,43.67s6.62-4.71,8.06-16l6.53,1.58C11.67,44.63,0,43.67,0,43.67Zm27.27-20.5v1.92H21.36c-.24,6-.53,14.45-.53,21.36H16.66c-.82-7.44-1.25-15.6-1.44-21.36h-12V23.17h12L15,17.36H21.7s-.15,2.3-.29,5.81h2l1.92-1.92Z"/><path class="cls-1" d="M48.53,26.29S44,23.74,40.18,23.7l0-5C48.91,19.18,48.53,26.29,48.53,26.29Zm14.88-.91S67.73,38,41.66,45.44l-1.48-6.53C58.8,33.78,63.41,25.38,63.41,25.38Z"/><path class="cls-1" d="M76,23.7s3.94,0,19.25.33c0,24-17.62,22.42-17.62,22.42s9.17-4,10.71-18.29L76,28.59ZM94.8,20.24H77.47V18.32H91l1.92-1.92,1.92,1.92Z"/><path class="cls-1" d="M106.66,28.11s11-.57,19.34-11.66l5.38,4a23.56,23.56,0,0,1-6.87,6.29c-.24,3.17-.72,10.56-.72,19.68h-3.74c-.91-7.2-1.49-13.49-1.82-17.33A21.93,21.93,0,0,1,106.66,28.11Z"/><path class="cls-1" d="M151.25,26.29s-4.56-2.55-8.35-2.59l0-5C151.63,19.18,151.25,26.29,151.25,26.29Zm14.88-.91S170.45,38,144.38,45.44l-1.48-6.53C161.52,33.78,166.13,25.38,166.13,25.38Z"/><path class="cls-1" d="M200.16,32.34s-1,10.41-13.44,14.11H181.3c-.68-13-.87-28.23-.87-28.23h6.72s0,9.89-.24,21.51A21.2,21.2,0,0,0,200.16,32.34Z"/><path class="cls-1" d="M212.59,23.74h4.18a43.85,43.85,0,0,0,1,8.74S212.59,32.82,212.59,23.74Zm15.08,3.51h5.61c0,19.2-17.18,19.2-17.18,19.2S227.67,40.35,227.67,27.25ZM219,23.74h4.22a46,46,0,0,0,1,8.74S219,32.82,219,23.74Z"/><path class="cls-1" d="M241.34,46.45a30,30,0,0,0,15.85-23.38c-6.87.29-11.48.29-11.48.29v-4.9s8.45,0,18.48.34c0,8.5-2.16,14.35-5.13,18.43,2.73-.43,7.39-.14,12.67,4.52l-4.85,4.7c-2.64-3.36-7-6.29-9.12-7.63A23.86,23.86,0,0,1,241.34,46.45Z"/><path class="cls-1" d="M289.49,26.29s-4.56-2.55-8.35-2.59l0-5C289.87,19.18,289.49,26.29,289.49,26.29Zm14.88-.91S308.69,38,282.62,45.44l-1.48-6.53C299.76,33.78,304.37,25.38,304.37,25.38Z"/><path class="cls-1" d="M343,32.13c0,5.46-4.2,10.29-13.51,10.29a10.38,10.38,0,0,1-9.17-5.18c-1.68-2.8-2.45-6.93-1.61-12.67.84-6.16,3.57-14.21,9.17-24.57l9.59,2.24C326.7,20.23,322,32.62,330,32.62c5.88,0,6-7,.56-8.12l1.68-5C340.35,21.21,343,26.67,343,32.13Z"/><path class="cls-1" d="M354.49,24.57l-2.94-9.45c16.59-5.74,32.14-5.25,36.06,6.86C391.81,34.93,378,40,378,40,384.53,31.64,380.89,16.66,354.49,24.57Z"/><path class="cls-1" d="M419,34.69c-.39-5.19-5.43-8.55-11.91-5.66-4.9,2.2-5.47,10-2.21,10.36,2.4.29,4.56-3.5,5.38-9.6l6.09.77c-1.1,8.59-5.85,14.35-10.22,14.35-4.7,0-7.63-4.22-7.63-8.88A14.34,14.34,0,0,1,411,21.68c9.56-1.2,15.51,7,14.41,14.69-1.11,7.3-6,11-14.64,10.08C415.15,44.67,419.43,40.88,419,34.69Z"/><path class="cls-1" d="M439.87,25.18h-4.75V23.26h4.66c-.24-3.74-.34-5.9-.34-5.9h6.72s0,2.06-.09,5.9h5.52c.09-1.44.14-3,.14-4.56h6.72c0,1.59-.05,3.12-.14,4.56h.76L461,21.34l1.92,1.92v1.92h-4.8c-2.2,21.27-15.31,21.27-15.31,21.27s7.06-5.33,8.59-21.27H446c-.05,2.12-.14,4.66-.29,7.64h-5.42Z"/><path class="cls-1" d="M480.72,34c-1.39,8.35-10.13,8.54-10.13,8.54a29.09,29.09,0,0,0,3.51-9.65Zm-6.82-9.46h9.32c-.2-4.32-.24-7.2-.24-7.2h6.72l-.34,7.2h4.75L496,22.64,498,24.56v1.92h-8.64c-.24,5.86-.48,13.59-.48,20h-4.17c-.72-6.86-1.16-14.3-1.4-20H473.9Zm21.8-3.31a3.56,3.56,0,1,1,3.5-3.55A3.54,3.54,0,0,1,495.7,21.25Zm3.07,11.66a29,29,0,0,0,3.5,9.65s-8.73-.19-10.12-8.54ZM497.28,17.7a1.61,1.61,0,1,0-1.58,1.63A1.61,1.61,0,0,0,497.28,17.7Z"/><path class="cls-1" d="M511.15,31.23s8.93.15,25.44.63v4.41c-18.19.34-25.44.34-25.44.34Z"/><path class="cls-1" d="M553.39,46.45H548c-.68-13-.87-29.09-.87-29.09h6.72S553.87,32.19,553.39,46.45Zm10.23-9.65c-8.5,0-8.93-8.83-8.93-8.83a17.74,17.74,0,0,0,8.93,2.11Z"/></g></g></svg>