<svg id="レイヤー_1" data-name="レイヤー 1" xmlns="http://www.w3.org/2000/svg" viewBox="0 0 253.86 67.29"><defs><style>.cls-1{fill:#f0908a;}</style></defs><path class="cls-1" d="M0,22.72S5.52,18.8,6.72,9.4l5.44,1.32C9.72,23.52,0,22.72,0,22.72ZM22.72,5.64v1.6H17.8c-.2,5-.44,12-.44,17.8H13.88c-.68-6.2-1-13-1.2-17.8h-10V5.64h10L12.48.8h5.6S18,2.72,17.84,5.64h1.68L21.12,4Z"/><path class="cls-1" d="M40.44,8.24s-3.8-2.12-7-2.16l0-4.16C40.76,2.32,40.44,8.24,40.44,8.24Zm12.4-.76S56.44,18,34.72,24.2l-1.24-5.44C49,14.48,52.84,7.48,52.84,7.48Z"/><path class="cls-1" d="M63.36,6.08s3.28,0,16,.28C79.4,26.36,64.72,25,64.72,25s7.64-3.36,8.92-15.24l-10.28.36ZM79,3.2H64.56V1.6H75.8L77.4,0,79,1.6Z"/><path class="cls-1" d="M88.88,9.76S98.08,9.28,105,0l4.48,3.36a19.72,19.72,0,0,1-5.72,5.24c-.2,2.64-.6,8.8-.6,16.4H100c-.76-6-1.24-11.24-1.52-14.44A18.29,18.29,0,0,1,88.88,9.76Z"/><path class="cls-1" d="M126,8.24s-3.8-2.12-7-2.16l0-4.16C126.36,2.32,126,8.24,126,8.24Zm12.4-.76S142,18,120.32,24.2l-1.24-5.44C134.6,14.48,138.44,7.48,138.44,7.48Z"/><path class="cls-1" d="M166.8,13.28S166,22,155.6,25h-4.52c-.56-10.8-.72-23.52-.72-23.52H156s0,8.24-.2,17.92A17.69,17.69,0,0,0,166.8,13.28Z"/><path class="cls-1" d="M177.16,6.12h3.48a36.6,36.6,0,0,0,.84,7.28S177.16,13.68,177.16,6.12ZM189.72,9h4.68c0,16-14.32,16-14.32,16S189.72,20,189.72,9Zm-7.24-2.92H186a38.34,38.34,0,0,0,.8,7.28S182.48,13.68,182.48,6.12Z"/><path class="cls-1" d="M201.12,25a25,25,0,0,0,13.2-19.48c-5.72.24-9.56.24-9.56.24V1.72s7,0,15.4.28c0,7.08-1.8,12-4.28,15.36,2.28-.36,6.16-.12,10.56,3.76l-4,3.92a31.58,31.58,0,0,0-7.6-6.36A19.87,19.87,0,0,1,201.12,25Z"/><path class="cls-1" d="M241.24,8.24s-3.8-2.12-7-2.16l0-4.16C241.56,2.32,241.24,8.24,241.24,8.24Zm12.4-.76S257.24,18,235.52,24.2l-1.24-5.44C249.8,14.48,253.64,7.48,253.64,7.48Z"/><path class="cls-1" d="M37.81,59.21c0,4.29-3.3,8.08-10.61,8.08A8.13,8.13,0,0,1,20,63.22c-1.32-2.2-1.93-5.44-1.27-9.95.66-4.84,2.81-11.17,7.2-19.3l7.54,1.76C25,49.86,21.32,59.59,27.58,59.59c4.62,0,4.73-5.5.44-6.38l1.32-4C35.72,50.63,37.81,54.92,37.81,59.21Z"/><path class="cls-1" d="M46.83,53.27l-2.31-7.43c13-4.51,25.25-4.12,28.33,5.39,3.3,10.18-7.54,14.19-7.54,14.19C70.43,58.82,67.57,47.05,46.83,53.27Z"/><path class="cls-1" d="M98.92,56.74C98.6,52.42,94.4,49.62,89,52c-4.08,1.84-4.56,8.32-1.84,8.64,2,.24,3.8-2.92,4.48-8l5.08.64c-.92,7.16-4.88,12-8.52,12-3.92,0-6.36-3.52-6.36-7.4a12,12,0,0,1,10.48-12c8-1,12.92,5.8,12,12.24-.92,6.08-5,9.2-12.2,8.4C95.76,65.06,99.32,61.9,98.92,56.74Z"/><path class="cls-1" d="M116.36,48.82h-4v-1.6h3.88c-.2-3.12-.28-4.92-.28-4.92h5.6s0,1.72-.08,4.92h4.6c.08-1.2.12-2.48.12-3.8h5.6c0,1.32,0,2.6-.12,3.8h.64l1.6-1.6,1.6,1.6v1.6h-4c-1.84,17.72-12.76,17.72-12.76,17.72s5.88-4.44,7.16-17.72h-4.52q-.06,2.64-.24,6.36h-4.52Z"/><path class="cls-1" d="M150.4,56.18c-1.16,7-8.44,7.12-8.44,7.12a24.11,24.11,0,0,0,2.92-8Zm-5.68-7.88h7.76c-.16-3.6-.2-6-.2-6h5.6l-.28,6h4l1.6-1.6,1.6,1.6v1.6h-7.2c-.2,4.88-.4,11.32-.4,16.64h-3.48c-.6-5.72-1-11.92-1.16-16.64h-7.8Zm18.16-2.76a3,3,0,1,1,2.92-3A3,3,0,0,1,162.88,45.54Zm2.56,9.72a24.11,24.11,0,0,0,2.92,8s-7.28-.16-8.44-7.12ZM164.2,42.58a1.34,1.34,0,1,0-1.32,1.36A1.34,1.34,0,0,0,164.2,42.58Z"/><path class="cls-1" d="M175.76,53.86s7.44.12,21.2.52v3.68c-15.16.28-21.2.28-21.2.28Z"/><path class="cls-1" d="M211,66.54h-4.48c-.56-10.8-.72-24.24-.72-24.24h5.6S211.36,54.66,211,66.54Zm8.52-8c-7.08,0-7.44-7.36-7.44-7.36a14.78,14.78,0,0,0,7.44,1.76Z"/></svg>