<svg id="レイヤー_1" data-name="レイヤー 1" xmlns="http://www.w3.org/2000/svg" viewBox="0 0 402.44 58.44"><defs><style>.cls-1{fill:#fff;}</style></defs><path class="cls-1" d="M96.16,27.5a15.23,15.23,0,0,0-2.33-1.88l-3.15-2.23c-.27-.19-1.79,2.85-1.78,2.86s-.64,1.14-.42,1.25c0,0,4,1.52,6.07,2.08a1.31,1.31,0,0,0,1.63-.65A1.36,1.36,0,0,0,96.16,27.5Z"/><path class="cls-1" d="M12,0H2.91A2.92,2.92,0,0,0,0,2.91v9.84a2.92,2.92,0,0,0,2.91,2.91H4.72a2.92,2.92,0,0,0,2.91-2.91V3.33H12A1.67,1.67,0,0,0,12,0Z"/><path class="cls-1" d="M138.65,37h-1.82a2.91,2.91,0,0,0-2.9,2.9v9.42h-4.37a1.67,1.67,0,0,0,0,3.34h9.09a2.91,2.91,0,0,0,2.9-2.91V39.94A2.9,2.9,0,0,0,138.65,37Z"/><path class="cls-1" d="M52.19,3.72c-.15-.4-.77-.35-1.06-.19A13.37,13.37,0,0,0,48.62,5.3,8.91,8.91,0,0,0,46.7,7.4c-1.13,1.87-.56,4,.07,6a.64.64,0,0,0,.08.14c.1.5.9.33,1.22.14C51.41,11.62,53.59,7.6,52.19,3.72ZM48.32,12.1h.08l-.08.07Zm-.23-4.54v0a3.37,3.37,0,0,0-.19.32L48,7.65S48.08,7.59,48.09,7.56Z"/><path class="cls-1" d="M73.89,2.48a12.86,12.86,0,0,0-3,1.21,8,8,0,0,0-2.28,1.73,7.52,7.52,0,0,0-1.2,2.73,7.63,7.63,0,0,0-.4,3.14c0,.06.08.09.2.11a1.2,1.2,0,0,0,.24,0,2.35,2.35,0,0,0,.91-.23c1.7-.72,3.76-.95,5-2.46a5.21,5.21,0,0,0,1-2.66c.17-1.18.25-2.38.37-3.57C74.8,2.28,73.93,2.47,73.89,2.48ZM69.6,6.18h0l-.11.2A1.19,1.19,0,0,0,69.6,6.18Z"/><path class="cls-1" d="M61.63,25.18c.35-.41.7-.83,1-1.26.76-1,2.11-2.37,1.27-3.66a3.08,3.08,0,0,0-3.34-1.55c-.23.06-.67.21-.66.5v.7c-.34.75-.7,1.48-1.08,2.21a11.71,11.71,0,0,0-1.29-1.06,1.69,1.69,0,0,0-1.53-.15A1.36,1.36,0,0,0,55.1,22a2,2,0,0,0,.23.8c.16.44.82,1.66,1.48,2.91a43.26,43.26,0,0,1-4.58,5.89c-.41.44.83.27,1,.22a16.34,16.34,0,0,0,5.23-3.38c.07.08.12.17.19.26a6.74,6.74,0,0,0,1.78,1.79c.9.49,2-.37,2.69-.88a1.13,1.13,0,0,0,.58-.85,3.12,3.12,0,0,0-.59-1.33A21.6,21.6,0,0,0,61.63,25.18Z"/><path class="cls-1" d="M40.57,11.39c-.82-1.24-6.35-4-6.81-2,0,.2-.11.82-.18,1.67h-5.9v2h5.73c-.08,1-.16,2.12-.25,3.19H27.68v2.05H33c-.06.65-.12,1.23-.18,1.71s-.13,1-.2,1.48H27.68v2h4.65c-.32,2.26-.69,4.53-1.07,6.78-.7-.07-2.1-.54-2.94-.68-.63-.11-.62.43-.44.68a29.93,29.93,0,0,0,4.48,5c.72.66,1.35,1.45,2.41,1.21a2.92,2.92,0,0,0,2-1.91,14.69,14.69,0,0,0,.95-3.24c.27-1.27.52-2.54.75-3.82.45-2.5.83-5,1.17-7.52.19-1.41.75-6.26,1-7.66A1.37,1.37,0,0,0,40.57,11.39Z"/><path class="cls-1" d="M62.83,43c-.08-.48-.78-.39-1.08-.27-1.93.73-4.18,1.3-5.68,2.81a4,4,0,0,0-1.18,2.37,21.15,21.15,0,0,0,.18,3.37.56.56,0,0,0,.54.52.7.7,0,0,0,.87.3c1-.38,2.05-.79,3-1.26a9.9,9.9,0,0,0,2.67-1.56,3.75,3.75,0,0,0,.88-2.8A16.89,16.89,0,0,0,62.83,43Z"/><path class="cls-1" d="M92.76,52.82c-.67-1.13-.72-2.52-1.35-3.69a2.84,2.84,0,0,0-3.35-1.43l-.28.12a.84.84,0,0,0-.66-.13.87.87,0,0,0-.72.55,3.89,3.89,0,0,0,.9,3.83,4.26,4.26,0,0,0,2.1.93,6.64,6.64,0,0,1,2.1.54,1.06,1.06,0,0,0,1-.06C92.72,53.33,92.93,53.1,92.76,52.82Z"/><path class="cls-1" d="M77.94,57.79c-.81-2.3-1.3-4.52-3.17-6.08A9.42,9.42,0,0,0,69.65,50s-1.38.18-1.39.22h0c0,.08-.1.64-.2,1.07a6.56,6.56,0,0,0,1.52,4.93,6.63,6.63,0,0,0,4.17,2.08,21.81,21.81,0,0,0,3.43.06C77.48,58.39,78.09,58.24,77.94,57.79Z"/><path class="cls-1" d="M80.92,40.69c-.24-.25-1.5,0-2.14.11a6.19,6.19,0,0,0-2.61,1.62,5.15,5.15,0,0,0-1.25,2.87,6.2,6.2,0,0,0,0,2.67c0,.23,1.24,0,1.26,0a10.35,10.35,0,0,0,1.95-.75,6.47,6.47,0,0,0,2.12-1.67C81.38,44.24,81.23,41,80.92,40.69Z"/><path class="cls-1" d="M142.15,21.49a10,10,0,0,0-2.67-1.43,2.92,2.92,0,0,0-1.22-.16,7,7,0,0,0-1.89.5l-.65.23a6.76,6.76,0,0,0,.85-2c.32-.26,1.15-.54,1.48-.8a2.8,2.8,0,0,0,1-1.46,4.84,4.84,0,0,0,.11-2.47,3.87,3.87,0,0,0-.81-1.85c-.33-.29-.94,0-1.42.24a4.43,4.43,0,0,0-2.41,3.38,9.35,9.35,0,0,0,.3,2.29,3.55,3.55,0,0,1-.27,1.75c-.16.37-.49.72-1.79,1.71a36.17,36.17,0,0,1-7.58,4.6c.57-1,1-2.75.38-3.79a2.8,2.8,0,0,0-2.21-1.59,7.26,7.26,0,0,0-3.53.34,6.31,6.31,0,0,0-3.2,3,6.72,6.72,0,0,0-.43,2.8,3.48,3.48,0,0,0,2.42,2.71,5.69,5.69,0,0,1-.74.46,28.91,28.91,0,0,1-9,2.7,20.08,20.08,0,0,0-3.16,2.58c-.23.21-1.55,1.39-1.55,1.6s-.56.49-.35.79c2.16,3.18,7.23-.69,9.78-2.06,1.07-.57,3.76-2.5,3.89-2.59a58.55,58.55,0,0,0,5.37-4.1c1.14-.38,2.84-1,3.25-1.19A52.32,52.32,0,0,0,131,24.81l.06,0h0l.11-.08a17,17,0,0,0,1.48-1c.35-.26,1.29-.9,1.29-.9.19.18.94.95,1.16,1.09a3.69,3.69,0,0,0,1.35.69,5.53,5.53,0,0,0,5.75-2.4A.45.45,0,0,0,142.15,21.49Zm-19.24,4.24h0a4.25,4.25,0,0,1-1.59,1.65,2.93,2.93,0,0,1-2.65-.1,2.13,2.13,0,0,1-.45-1.43,4.09,4.09,0,0,1,1.88-3,3.65,3.65,0,0,1,3-.45C124.06,23.16,123.43,24.66,122.91,25.73Zm14.32-12.55h0Z"/><path class="cls-1" d="M92.36,14.81c0-.81-1.35-1.18-1.94-1.42a25.62,25.62,0,0,0-3.35-.87c-1.63-.27-1.87.74-1.89.93-.35,3.14-.7,6.27-1,9.41,0,.38-.45,3.6-.6,4.82-.11.89-1.29,8.09-.74,8.92.94,1.41,3.28,3.11,5.24,1.91.89-.55.86-1.67,1-2.49.09-.51,2-12.86,2.22-14.22C91.64,19.66,92.34,15.49,92.36,14.81Z"/><rect class="cls-1" x="46.98" y="35.29" width="21.43" height="2.05"/><path class="cls-1" d="M62.39,8.12C61.65,6.55,60,5.64,58.48,4.91c-.29-.14-1.25.07-1.34.43a8.57,8.57,0,0,0,.23,6,4.74,4.74,0,0,0,4,2.68,1.68,1.68,0,0,0,1-.28.79.79,0,0,0,.12-.15.27.27,0,0,0,.09-.15C62.87,11.69,63.17,9.78,62.39,8.12Z"/><path class="cls-1" d="M89.15,47.61c-5.18-2-12.85-.66-21.5,1.87-3.8,1.1-9.37,2.26-19.33,0-4.73-1.08-12.45-4.54-15.76-6-2.34-1-8.51-4.35-10.91-5.52A34.89,34.89,0,0,0,27,26.41a83.11,83.11,0,0,0,2-12.94l.18-1.56a1.09,1.09,0,0,0-.38-.85,19.65,19.65,0,0,0-3.88-2.22c-1.14-.42-1.7-.38-2.28,0-.43.29-.3,1-.41,1.71A102,102,0,0,1,20.56,22a74.74,74.74,0,0,1-2.66,9.81c0,.1-1.33,2.92-1.76,3.62-.76-.32-1.52-.63-2.29-.91-2.5-.9-5.38-1.67-8-.86a6.4,6.4,0,0,0-4.77,5.15A5.73,5.73,0,0,0,2.78,43.7a7.82,7.82,0,0,0,5.16,2.06c4.67.08,8.74-2.68,11.38-5.07,2.79,1.35,7.38,3.56,10,4.86,18.06,9.08,31.13,7.09,34.91,6.56,2.59-.37,12.65-4,18.87-4a12,12,0,0,1,4.34.81c.65.25,1.6.42,2.06-.06S89.74,47.84,89.15,47.61ZM10.29,43.7h0Zm3-1.69,0,0,.07-.09Zm-2.74-1.09c-1.64.85-3.36,1.28-5.15.32a2.25,2.25,0,0,1-1.37-2,3.16,3.16,0,0,1,2.6-3.37,7.79,7.79,0,0,1,4.3.52A28.91,28.91,0,0,1,14.22,38,9.85,9.85,0,0,1,10.55,40.92Z"/><path class="cls-1" d="M50.56,20.55c0-.81-1.12-1.17-1.61-1.41a18.23,18.23,0,0,0-2.77-.84c-1.35-.26-1.54.76-1.56.95-.27,3.14-.54,6.27-.8,9.41,0,.39-.35,3.61-.47,4.83-.08.89-.42,2.08,0,2.9.79,1.41,2.73,3.09,4.34,1.87.73-.55.71-1.67.83-2.49.07-.52,1-6.86,1.16-8.22C50,25.4,50.55,21.23,50.56,20.55Z"/><path class="cls-1" d="M74.22,20.55c0-.81-1.12-1.17-1.61-1.41a18.23,18.23,0,0,0-2.77-.84c-1.35-.26-1.54.76-1.56.95-.27,3.14-.54,6.27-.8,9.41,0,.39-.35,3.61-.46,4.83-.09.89-.43,2.08,0,2.9.79,1.41,2.73,3.09,4.34,1.87.73-.55.71-1.67.83-2.49.07-.52,1-6.86,1.16-8.22C73.66,25.4,74.21,21.23,74.22,20.55Z"/><path class="cls-1" d="M111.8,14.77c0-.81-1.36-1.17-2-1.4a27.49,27.49,0,0,0-3.36-.85c-1.63-.26-1.86.76-1.88,1q-.49,4.71-1,9.41c0,.39-.42,3.61-.56,4.83-.1.89-1.23,8.1-.68,8.92,1,1.41,3.31,3.09,5.26,1.88.88-.56.85-1.68,1-2.5.09-.51,1.93-12.88,2.12-14.24C111.12,19.63,111.78,15.45,111.8,14.77Z"/><path class="cls-1" d="M166.31,37.14s4.83-3.43,5.88-11.66L177,26.63C174.81,37.84,166.31,37.14,166.31,37.14Zm19.88-14.95v1.4h-4.31c-.17,4.37-.38,10.54-.38,15.58h-3.05c-.59-5.43-.91-11.38-1-15.58h-8.78v-1.4h8.71l-.1-4.24h4.9s-.11,1.68-.21,4.24h1.47l1.4-1.4Z"/><path class="cls-1" d="M202.39,24.46a15.8,15.8,0,0,0-6.09-1.89l0-3.64C202.67,19.28,202.39,24.46,202.39,24.46Zm10.85-.66s3.15,9.17-15.85,14.63l-1.09-4.76C209.88,29.93,213.24,23.8,213.24,23.8Z"/><path class="cls-1" d="M223.15,22.57s2.87,0,14,.25c0,17.5-12.84,16.35-12.84,16.35s6.68-2.94,7.8-13.34l-9,.32Zm13.68-2.52H224.2v-1.4H234l1.4-1.4,1.4,1.4Z"/><path class="cls-1" d="M247.58,25.79s8-.42,14.1-8.5l3.92,2.94a17.15,17.15,0,0,1-5,4.58c-.18,2.31-.53,7.71-.53,14.36h-2.73c-.66-5.25-1.08-9.84-1.33-12.64A16,16,0,0,1,247.58,25.79Z"/><path class="cls-1" d="M283.59,24.46a15.8,15.8,0,0,0-6.09-1.89l0-3.64C283.87,19.28,283.59,24.46,283.59,24.46Zm10.85-.66s3.15,9.17-15.85,14.63l-1.09-4.76C291.08,29.93,294.44,23.8,294.44,23.8Z"/><path class="cls-1" d="M321.36,28.88s-.7,7.59-9.8,10.29h-4c-.49-9.45-.63-20.59-.63-20.59h4.9s0,7.21-.17,15.69A15.52,15.52,0,0,0,321.36,28.88Z"/><path class="cls-1" d="M331.12,22.61h3.05A32.24,32.24,0,0,0,334.9,29S331.12,29.23,331.12,22.61Zm11,2.55h4.1c0,14-12.53,14-12.53,14S342.11,34.72,342.11,25.16Zm-6.33-2.55h3.08a33.55,33.55,0,0,0,.7,6.37S335.78,29.23,335.78,22.61Z"/><path class="cls-1" d="M353.49,39.17a21.85,21.85,0,0,0,11.55-17c-5,.21-8.37.21-8.37.21V18.76s6.16,0,13.48.24c0,6.2-1.58,10.47-3.75,13.45,2-.32,5.39-.11,9.24,3.29l-3.53,3.43a27.86,27.86,0,0,0-6.65-5.57A17.39,17.39,0,0,1,353.49,39.17Z"/><path class="cls-1" d="M391.39,24.46a15.8,15.8,0,0,0-6.09-1.89l0-3.64C391.67,19.28,391.39,24.46,391.39,24.46Zm10.85-.66s3.15,9.17-15.85,14.63l-1.09-4.76C398.88,29.93,402.24,23.8,402.24,23.8Z"/></svg>