<svg xmlns="http://www.w3.org/2000/svg" viewBox="0 0 113.72 15.35"><defs><style>.cls-1{fill:#fff;}</style></defs><g id="レイヤー_2" data-name="レイヤー 2"><g id="contact"><path class="cls-1" d="M0,7.57C0,3.4,2.78,0,6.2,0a5.56,5.56,0,0,1,4.17,2L8.7,4a3,3,0,0,0-2.5-1.6C4.35,2.37,2.88,4.45,2.88,7s1.47,4.65,3.32,4.65c1.65,0,3-1.68,3.27-3.9l2.88.6c-.33,3.82-2.95,6.8-6.15,6.8C2.78,15.15,0,11.75,0,7.57Zm25.8,7.58c-4.05,0-6.45-2.13-6.45-5.45,0-3.9,2.77-6.2,6.4-6.2h0C28.5,3.52,30.9,6,30.9,9.7,30.9,11.5,30,15.15,25.8,15.15ZM28.45,9c0-1.57-1.08-3.25-2.7-3.25A3.2,3.2,0,0,0,22.57,8.9c0,1.4,1.05,2.75,3.4,2.75A2.34,2.34,0,0,0,28.45,9Zm18.87-2.7c.23,4.13.28,8.83.28,8.83H44.1l.25-7.63c0-1.7-1.75-2-3.13-1.4-.12,2.4-.27,6.08-.27,9H38.78A116,116,0,0,1,37.9,3.52h3.5a2.25,2.25,0,0,0,0,.4C44.25,2.75,47.22,4.25,47.32,6.32Zm13,.83c-.05,1.6-.1,3.32-.12,5C61.27,12.1,62,12.1,62,12.1v3.25s-2.17,0-4.07-.2c-.3-2.73-.5-5.63-.63-8.15L54.6,6.85V4L57.17,4C57.1,1.58,57.07,0,57.07,0h3.5s-.1,1.58-.17,3.85L63,3.8V7.3S62.27,7.27,60.27,7.15Zm21.1,7-.12,1H76.62c-4,0-6.79-.83-6.57-5.45a6.5,6.5,0,0,1,6.72-6.2h3.1s-.07,2.57-.32,8.7A1.91,1.91,0,0,0,81.37,14.17ZM76.7,5.77a3.17,3.17,0,0,0-3.33,3c0,1.35,1,2.68,3.25,2.8C76.62,9,76.65,7.05,76.7,5.77ZM88.4,9.7a6.5,6.5,0,0,1,6.72-6.2,5.47,5.47,0,0,1,2.53.65l-.88,2a3.8,3.8,0,0,0-1.67-.35c-3.88.15-4.73,5.88.2,5.88a6.43,6.43,0,0,0,2.35-.55l.65,3.3a6.28,6.28,0,0,1-3.15.75C91,15.15,88.15,14.37,88.4,9.7ZM111,7.15c0,1.6-.1,3.32-.12,5,1.12-.05,1.87-.05,1.87-.05v3.25s-2.17,0-4.07-.2c-.3-2.73-.5-5.63-.63-8.15l-2.72-.15V4L107.87,4c-.07-2.37-.1-3.95-.1-3.95h3.5s-.1,1.58-.17,3.85l2.62-.05V7.3S113,7.27,111,7.15Z"/></g></g></svg>