<svg xmlns="http://www.w3.org/2000/svg" viewBox="0 0 284.62 22.49"><defs><style>.cls-1{fill:#fff;}</style></defs><g id="レイヤー_2" data-name="レイヤー 2"><g id="tolearn"><path class="cls-1" d="M3.92,8.5C2.78,8.45,1.47,8.4,0,8.32V5.52c9.37-.25,11.22-.25,11.22-.25v3.5s-1.05,0-4-.15L6.9,20.42H4.75C4.25,15.8,4,11.1,3.92,8.5ZM24.67,20.42c-4.05,0-6.45-2.13-6.45-5.45,0-3.9,2.78-6.2,6.4-6.2h0c2.72,0,5.12,2.45,5.12,6.2C29.77,16.77,28.87,20.42,24.67,20.42Zm2.65-6.12c0-1.58-1.07-3.25-2.7-3.25a3.19,3.19,0,0,0-3.17,3.12c0,1.4,1.05,2.75,3.4,2.75A2.32,2.32,0,0,0,27.32,14.3Zm20.45-9s-.32,6.35-.42,12.15c1.15-.05,1.9-.05,1.9-.05v3.25s-2.2,0-4.08-.2c-.75-7-.9-15.15-.9-15.15Zm8.5,9.7A6.56,6.56,0,0,1,63,8.77h0c3.55,0,4.77,3,5,5l-7.6,2.35a4.08,4.08,0,0,0,2.75.82,5.8,5.8,0,0,0,2.2-.5l.77,3.25a6.23,6.23,0,0,1-3.15.75C59,20.42,56,19,56.27,15Zm3.38-1,5.67-1.37A2.44,2.44,0,0,0,63,11.05,3.42,3.42,0,0,0,59.65,14ZM86.4,19.45l-.13,1H81.65c-4,0-6.8-.83-6.58-5.45a6.52,6.52,0,0,1,6.73-6.2h3.1s-.08,2.58-.33,8.7A1.93,1.93,0,0,0,86.4,19.45Zm-4.68-8.4a3.14,3.14,0,0,0-3.32,3c0,1.35,1,2.67,3.25,2.8C81.65,14.22,81.67,12.32,81.72,11.05ZM96.9,7.3l-.08,1.12a9.76,9.76,0,0,1,4.85-.8l-.07,3.53c-.93,0-4.6-.28-5,2.17-.08,2.3-.15,4.88-.15,7.1H94.27C93.52,14.37,93.4,7.3,93.4,7.3Zm21.2,4.3c.22,4.12.27,8.82.27,8.82h-3.5l.25-7.62c0-1.7-1.75-2.05-3.12-1.4-.13,2.4-.28,6.07-.28,9h-2.17a115.88,115.88,0,0,1-.88-11.62h3.5a3.35,3.35,0,0,0,0,.4C115,8,118,9.52,118.1,11.6Zm20.27-8.35s-1.78,0-4-.1c-.1,4.67-.3,14.3-.3,19l-1.82.13c-.63-7-.71-22-.71-22C135.39,0,138.37,0,138.37,0Zm7.88,17.17c-.75-7-.88-15.15-.88-15.15h3.5s3.3,3.85,6,7.8c.08-2.55.15-5.35.15-7.8h2.15c.75,7,.88,15.15.88,15.15h-3.5s.1-1.55.17-3.82c-2-2.48-4.4-5.5-6.07-7.53-.13,3.15-.3,7.68-.3,11.35Zm18.85-7.57c0-4.18,2.77-7.58,6.17-7.58s6.18,3.4,6.18,7.58-2.75,7.57-6.18,7.57S165.1,17,165.1,12.85Zm2.87-.58c0,2.58,1.48,4.65,3.33,4.65s3.32-2.07,3.32-4.65-1.5-4.62-3.32-4.62S168,9.72,168,12.27Zm26.05-7h3.5s-.1,3.93-.38,8.48c-.22,3.45-1.42,6.67-6.17,6.67s-5.95-3.22-6.15-6.67c-.27-4.55-.37-8.48-.37-8.48H188s0,3.68,0,8.05c0,2,1.25,3.6,3.07,3.6s3.07-1.6,3.07-3.6C194,9,194,5.27,194,5.27ZM208.45,8.5c-1.15-.05-2.45-.1-3.93-.18V5.52c9.37-.25,11.22-.25,11.22-.25v3.5s-1,0-4-.15l-.37,11.8h-2.15C208.77,15.8,208.55,11.1,208.45,8.5Zm14.3,4.35c0-4.18,2.77-7.58,6.17-7.58s6.17,3.4,6.17,7.58-2.75,7.57-6.17,7.57S222.75,17,222.75,12.85Zm2.87-.58c0,2.58,1.48,4.65,3.33,4.65s3.32-2.07,3.32-4.65-1.5-4.62-3.32-4.62S225.62,9.72,225.62,12.27Zm24.67,1.55c2.2,4.68,3,6.6,3,6.6h-3.83s-.65-1.5-2.05-5.72c-.64.07-1.35.12-2.17.15-.05,1.87-.07,3.82-.07,5.57H243c-.72-7-.87-15.15-.87-15.15h3.5c4.77.28,7.17,2.05,6.74,5.53A3.69,3.69,0,0,1,250.29,13.82Zm-4.84-5c0,1.25-.13,2.75-.18,4.32C249.07,12.82,248.82,9,245.45,8.8Zm15.22,11.62c-.75-7-.9-15.15-.9-15.15,8-.17,10.72-.17,10.72-.17V7.65s-2-.05-7.32-.23c-.05,1.1-.1,2.53-.15,4.13,4.2-.13,6.35-.13,6.35-.13V14s-2.3-.05-6.42-.27c-.05,1.25-.08,2.57-.1,3.85,6.19-.18,7.94-.18,7.94-.18v3.5S267.92,20.77,260.67,20.42Zm23.95,1.85c-3.85.22-6.82.22-6.82.22V19.27s1.77,0,4,.07c.1-4.67.3-14.29.3-19l1.83-.13C284.54,7.22,284.62,22.27,284.62,22.27Z"/></g></g></svg>