<svg xmlns="http://www.w3.org/2000/svg" viewBox="0 0 247.5 22.49"><defs><style>.cls-1{fill:#fff;}</style></defs><g id="レイヤー_2" data-name="レイヤー 2"><g id="about"><path class="cls-1" d="M8.55,5.27c2.85,7.93,4.8,15.15,4.8,15.15H9.85s-.43-1.38-1-3.57H4.52c-.57,2.19-1,3.57-1,3.57H0S2,13.2,4.82,5.27ZM8,13.35c-.43-1.85-.88-4-1.28-6.2-.37,2.22-.82,4.35-1.27,6.2Zm13.28,7.07c-.75-7-.88-15.15-.88-15.15h3.5s-.07,1.43-.15,3.55c4.47.45,6.72,2.83,6.32,7.35-.27,3.12-1.9,4.25-6.62,4.25Zm2.19-2.27c2.13,0,3.25-1.33,3.35-2.68s-.95-3-3.22-3.17C23.5,14.17,23.45,16.2,23.42,18.15Zm20.1,2.27c-4.05,0-6.44-2.13-6.44-5.45,0-3.9,2.77-6.2,6.39-6.2h0c2.72,0,5.12,2.45,5.12,6.2C48.62,16.77,47.72,20.42,43.52,20.42Zm2.65-6.12c0-1.58-1.07-3.25-2.7-3.25a3.19,3.19,0,0,0-3.17,3.12c0,1.4,1.05,2.75,3.4,2.75A2.32,2.32,0,0,0,46.17,14.3ZM62.32,8.8h3.5s-.45,6.75-.45,11.62H63.2c0-.3-.08-.6-.1-.9-3.33,2-7.05.4-7.2-2.45-.22-4.12-.28-8.27-.28-8.27h3.5l-.24,7.62c-.06,2.1,2.67,2.15,4,.8C62.42,12.85,62.32,8.8,62.32,8.8ZM78.5,12.42c0,1.6-.1,3.33-.13,5,1.13-.05,1.88-.05,1.88-.05v3.25s-2.18,0-4.08-.2c-.3-2.72-.5-5.62-.62-8.15l-2.73-.15V9.3l2.58-.08c-.08-2.37-.1-4-.1-4h3.5s-.1,1.58-.18,3.85c2.1,0,2.63,0,2.63,0v3.5S80.5,12.55,78.5,12.42Zm22.74-9.17s-1.77,0-4-.1c-.1,4.67-.3,14.3-.3,19l-1.83.13c-.62-7-.7-22-.7-22C98.27,0,101.24,0,101.24,0Zm7.88,17.17c-.75-7-.87-15.15-.87-15.15h3.5s3.3,3.85,6,7.8c.07-2.55.15-5.35.15-7.8h2.15c.75,7,.87,15.15.87,15.15h-3.5s.1-1.55.18-3.82c-2-2.48-4.4-5.5-6.08-7.53-.12,3.15-.3,7.68-.3,11.35ZM128,12.85c0-4.18,2.78-7.58,6.18-7.58s6.17,3.4,6.17,7.58-2.75,7.57-6.17,7.57S128,17,128,12.85Zm2.88-.58c0,2.58,1.47,4.65,3.32,4.65s3.33-2.07,3.33-4.65-1.5-4.62-3.33-4.62S130.85,9.72,130.85,12.27Zm26.05-7h3.49s-.1,3.93-.37,8.48c-.23,3.45-1.42,6.67-6.17,6.67s-5.95-3.22-6.15-6.67c-.28-4.55-.38-8.48-.38-8.48h3.5s0,3.68,0,8.05c0,2,1.25,3.6,3.08,3.6s3.07-1.6,3.07-3.6C156.92,9,156.9,5.27,156.9,5.27ZM171.32,8.5c-1.15-.05-2.45-.1-3.92-.18V5.52c9.37-.25,11.22-.25,11.22-.25v3.5s-1.05,0-4-.15l-.37,11.8h-2.15C171.65,15.8,171.42,11.1,171.32,8.5Zm14.3,4.35c0-4.18,2.78-7.58,6.18-7.58S198,8.67,198,12.85s-2.75,7.57-6.17,7.57S185.62,17,185.62,12.85Zm2.88-.58c0,2.58,1.47,4.65,3.32,4.65s3.33-2.07,3.33-4.65-1.5-4.62-3.33-4.62S188.5,9.72,188.5,12.27Zm24.67,1.55c2.2,4.68,3,6.6,3,6.6h-3.82s-.65-1.5-2-5.72c-.65.07-1.35.12-2.17.15,0,1.87-.08,3.82-.08,5.57h-2.17c-.73-7-.88-15.15-.88-15.15h3.5c4.78.28,7.17,2.05,6.75,5.53A3.69,3.69,0,0,1,213.17,13.82Zm-4.85-5c0,1.25-.12,2.75-.17,4.32C212,12.82,211.7,9,208.32,8.8Zm15.23,11.62c-.75-7-.9-15.15-.9-15.15,8-.17,10.72-.17,10.72-.17V7.65s-2-.05-7.32-.23c-.05,1.1-.1,2.53-.15,4.13,4.2-.13,6.34-.13,6.34-.13V14s-2.29-.05-6.42-.27c0,1.25-.07,2.57-.1,3.85,6.2-.18,7.95-.18,7.95-.18v3.5S230.79,20.77,223.55,20.42Zm23.95,1.85c-3.85.22-6.83.22-6.83.22V19.27s1.78,0,4,.07c.1-4.67.3-14.29.3-19l1.82-.13C247.42,7.22,247.5,22.27,247.5,22.27Z"/></g></g></svg>