<svg id="レイヤー_1" data-name="レイヤー 1" xmlns="http://www.w3.org/2000/svg" viewBox="0 0 232.89 26.4"><defs><style>.cls-1{fill:#f0908a;}</style></defs><path class="cls-1" d="M2.54,18.83,0,18.7V13.85c.77,0,1.5,0,2.19,0-.25-4.17-.25-6.32-.25-6.32C1.81,0,9.89,0,13.67,0L13.5,6.06c-1.63,0-6-.34-6.23,4.35l-.09,3.22,6.49-.17v6s-1.67-.13-6.62-.43c0,2.11-.08,4.47-.08,7H3.22C2.92,23.39,2.71,20.94,2.54,18.83Zm34.27,7.23c-7,0-11.1-3.66-11.1-9.38C25.71,10,30.49,6,36.72,6h0c4.69,0,8.82,4.21,8.82,10.66C45.58,19.78,44,26.06,36.81,26.06Zm4.56-10.54c0-2.71-1.85-5.59-4.65-5.59a5.5,5.5,0,0,0-5.46,5.38c0,2.4,1.81,4.73,5.85,4.73C40.2,20,41.45,17.84,41.37,15.52ZM63.64,0s-.56,10.92-.73,20.9c2-.09,3.27-.09,3.27-.09V26.4s-3.79,0-7-.34C57.88,14.06,57.62,0,57.62,0Zm20.6,0s-.56,10.92-.74,20.9c2-.09,3.27-.09,3.27-.09V26.4s-3.78,0-7-.34C78.47,14.06,78.22,0,78.22,0Zm40.67,6.06h6s-3.35,9.55-8.25,20h-4.39l-3.44-7.91c-1,2.45-2.23,5.24-3.4,7.91h-4.38c-4.9-10.45-8.26-20-8.26-20h6s2.07,6.28,4.39,13.5c1.46-5.11,2.62-8.55,2.62-8.55h6s1.21,3.48,2.67,8.55C122.89,12.34,124.91,6.06,124.91,6.06Zm32.47,20c-1.25-9.2-1.51-20-1.51-20h6s0,.26,0,.69a8.54,8.54,0,0,1,8.34.82c5.42-3.36,11.61-.65,11.83,3.31.38,7.09.47,15.18.47,15.18h-6l.43-13.12c.09-2.75-2.62-3.44-4.9-2.62a3.14,3.14,0,0,1,.08.56c.39,7.09.48,15.18.48,15.18h-6s.25-6.71.47-13.12c0-2.92-3-3.52-5.37-2.41-.22,4.13-.52,10.45-.52,15.53Zm37.19-9.38A11.27,11.27,0,0,1,206.1,6h0c6.1,0,8.21,5.07,8.68,8.56l-13.07,4A7.05,7.05,0,0,0,206.48,20a10,10,0,0,0,3.79-.86l1.33,5.59a10.76,10.76,0,0,1-5.42,1.29C199.22,26.06,194.1,23.56,194.57,16.68ZM200.38,15l9.76-2.36a4.23,4.23,0,0,0-4-2.67A5.9,5.9,0,0,0,200.38,15Zm31.47,3.27h-3.7C227.3,9.07,226.86,0,226.86,0h6S232.41,10.32,231.85,18.23Zm-2,2.54a2.61,2.61,0,0,0-2.63,2.62,2.65,2.65,0,1,0,5.29,0A2.61,2.61,0,0,0,229.88,20.77Z"/></svg>