<svg id="レイヤー_1" data-name="レイヤー 1" xmlns="http://www.w3.org/2000/svg" viewBox="0 0 215.95 30.29"><defs><style>.cls-1{fill:#f0908a;}</style></defs><path class="cls-1" d="M1.68,29.43C.24,16,0,.34,0,.34H6.72s6.34,7.39,11.62,15c.14-4.89.29-10.27.29-15h4.12c1.44,13.39,1.68,29.09,1.68,29.09H17.71s.2-3,.34-7.35C14.31,17.33,9.6,11.52,6.38,7.63c-.24,6.05-.57,14.74-.57,21.8Zm28.32,0C28.56,16,28.27.34,28.27.34,43.58,0,48.86,0,48.86,0V4.9s-3.79-.1-14.06-.44c-.1,2.12-.19,4.85-.29,7.93,8.07-.24,12.19-.24,12.19-.24V17s-4.41-.09-12.33-.53c-.1,2.4-.15,4.95-.19,7.4,11.9-.34,15.26-.34,15.26-.34v6.72S43.92,30.1,30,29.43ZM79.92.34c1.39,13.39,1.68,29.09,1.68,29.09H74.88S71.42,25,67,18.15c-4.37,6.76-7.88,11.28-7.88,11.28H55C53.57,16,53.28.34,53.28.34H60s-.53,10.41-.77,20.78C61.34,18.29,64.13,14.74,67,11c3.12,4,6,7.83,8.21,10.71.24-6,.52-14.45.52-21.36Zm25,20.11c0,4.37-2.54,9-10.75,9a18.67,18.67,0,0,1-8.69-1.88l2-6.24a19.75,19.75,0,0,0,6.72,1.4c6.48,0,5.47-6.39,1.49-6.39-5.19,0-8.45-3-8.45-7.3,0-4.8,3-8.68,8.93-8.68a15.74,15.74,0,0,1,7.29,1.48l-1.63,5.24a11.85,11.85,0,0,0-5.66-1.2c-4.9,0-4.71,5.52-.53,5.52C102.29,11.38,104.88,16.32,104.88,20.45ZM139.44.34s-.63,12.33-.82,23.52c10.13-.29,12.29-.29,12.29-.29v6.72s-3.94-.19-16.47-.86C133,16,132.71.34,132.71.34Zm18.23,0h6.73s.19,15.5-.68,29.09h-5.85C157.53,16.13,157.67.34,157.67.34Zm32.89,20.11c0,4.37-2.55,9-10.76,9a18.65,18.65,0,0,1-8.68-1.88l2-6.24a19.82,19.82,0,0,0,6.72,1.4c6.48,0,5.48-6.39,1.49-6.39-5.18,0-8.45-3-8.45-7.3,0-4.8,3-8.68,8.93-8.68a15.76,15.76,0,0,1,7.3,1.48l-1.63,5.24a11.87,11.87,0,0,0-5.67-1.2c-4.89,0-4.7,5.52-.53,5.52C188,11.38,190.56,16.32,190.56,20.45ZM201.93,6.53c-2.21-.1-4.7-.19-7.54-.34V.82C212.4.34,216,.34,216,.34V7.06s-2,0-7.59-.29l-.72,22.66h-4.12C202.55,20.55,202.12,11.52,201.93,6.53Z"/></svg>