<svg id="レイヤー_1" data-name="レイヤー 1" xmlns="http://www.w3.org/2000/svg" viewBox="0 0 294.2 55.52"><path d="M101.35.35a.08.08,0,0,1,.05-.08.69.69,0,0,0,.12-.1,1,1,0,0,1,.18-.09l.15-.08H109l.5.5v2l-.5.6h-3.85s0,0-.13.07-.12.13-.19.18-.13.12-.18.17a.41.41,0,0,0-.07.15V15.5h-3.25ZM118.2,20.52a3.26,3.26,0,0,1,.47-.17,2.64,2.64,0,0,0,.45-.18.31.31,0,0,0,.23-.32v-4a.3.3,0,0,0-.28-.33l-.45,0a1.63,1.63,0,0,0-.5.07.45.45,0,0,0-.27.43l-.5,4.5a4.72,4.72,0,0,0-.15.62,4.67,4.67,0,0,1-.2.82,4.34,4.34,0,0,1-.33.75.52.52,0,0,1-.5.33,2.08,2.08,0,0,1-.6-.1,2.49,2.49,0,0,1-.65-.33,2.06,2.06,0,0,1-.54-.47.84.84,0,0,1-.23-.55,10,10,0,0,1,.15-1.72c.1-.58.2-1.15.32-1.73s.23-1.15.33-1.7a10.08,10.08,0,0,0,.15-1.75V1.35s.05-.08.17-.15l.25-.2s.08-.05.18-.1a.23.23,0,0,1,.15-.05h6a.44.44,0,0,1,.35.12,1.12,1.12,0,0,1,.27.3,1.48,1.48,0,0,0,.28.28.6.6,0,0,0,.4.15,2.8,2.8,0,0,0,1-.2,2.85,2.85,0,0,1,1-.18c.3,0,.58.23.8.68a6.51,6.51,0,0,1,.6,1.52,12,12,0,0,1,.38,1.68c.07.55.12.9.12,1.07a1,1,0,0,1-.27.68,2.08,2.08,0,0,1-.65.42c-.28.1-.53.18-.8.25a4.59,4.59,0,0,1-.73.08,1.53,1.53,0,0,1-.32,0c-.1,0-.18-.13-.23-.3a4.2,4.2,0,0,1-.12-.78,12.31,12.31,0,0,0-.23-1.25,6.45,6.45,0,0,0-.37-1.17c-.15-.33-.35-.5-.55-.5a.12.12,0,0,0-.08,0c0,.05-.07.13-.15.28s-.1.2-.1.22V21.34a1.6,1.6,0,0,1-.27.93,2.35,2.35,0,0,1-.73.6,3.29,3.29,0,0,1-.92.37,6.34,6.34,0,0,1-.9.1h-.75a.94.94,0,0,1-.4-.47,3.11,3.11,0,0,1-.28-.65,6.17,6.17,0,0,1-.12-.73,2.48,2.48,0,0,1,0-.57C118,20.72,118.05,20.57,118.2,20.52Zm0-14.52a.62.62,0,0,0,.62.37,1.55,1.55,0,0,0,.35,0,.31.31,0,0,0,.23-.32V4.35c0-.1-.1-.2-.28-.25a2.06,2.06,0,0,0-.4-.1.43.43,0,0,0-.35.15.7.7,0,0,0-.2.32,2.71,2.71,0,0,0-.1.43,2.42,2.42,0,0,0,0,.37A2,2,0,0,0,118.15,6Zm-.08,5.65c.08.25.28.37.63.37a2.67,2.67,0,0,0,.4,0,.26.26,0,0,0,.25-.3V10a.26.26,0,0,0-.23-.28,1,1,0,0,0-.35-.07.64.64,0,0,0-.65.42,3.22,3.22,0,0,0-.12.75A4.28,4.28,0,0,0,118.07,11.65Zm5.6-2.15.35-.33h2.15c.2,0,.33.05.38.18a2,2,0,0,1,.15.4,1.18,1.18,0,0,0,.15.42c.05.13.15.18.32.18a.52.52,0,0,0,.45-.18.63.63,0,0,1,.45-.17,1.59,1.59,0,0,1,.5.07,2,2,0,0,0,.53.1.51.51,0,0,0,.55-.35,2.79,2.79,0,0,0,.2-.72,5.21,5.21,0,0,1,.2-.78.48.48,0,0,1,.52-.32,3.35,3.35,0,0,1,.68.05,2.64,2.64,0,0,1,.67.22,1.51,1.51,0,0,1,.55.4.75.75,0,0,1,.23.55,4.21,4.21,0,0,1-.25,1.45,3.83,3.83,0,0,0-.28,1.43,1.3,1.3,0,0,0,.25.72.8.8,0,0,0,.65.38,1.86,1.86,0,0,1,.28,0c.15,0,.25-.07.25-.17V10a.58.58,0,0,1,.17-.4.47.47,0,0,1,.4-.25h2.35l.32.32v13l-.32.32H134a.26.26,0,0,1-.25-.17,3.7,3.7,0,0,1-.17-.4c-.08-.15-.15-.28-.23-.4a.45.45,0,0,0-.35-.18h-5.67a.43.43,0,0,0-.4.2c0,.13-.13.28-.18.45a4.34,4.34,0,0,1-.2.48.43.43,0,0,1-.4.2H124l-.35-.33Zm3.38,8.87a1.23,1.23,0,0,0,.65.15,1.29,1.29,0,0,0,.35-.05.3.3,0,0,0,.15-.3.82.82,0,0,0-.28-.62,1.07,1.07,0,0,0-.65-.23c-.2,0-.32,0-.37.13a.72.72,0,0,0-.08.4C126.82,18.12,126.9,18.3,127.05,18.37ZM127,13c-.12,0-.17.07-.17.17v2.5s0,.05.05.1a.41.41,0,0,1,.12.08h.15a.43.43,0,0,1,.18-.08c.1,0,.15-.07.17-.1a8.71,8.71,0,0,0,.53-.85,1.75,1.75,0,0,0,.15-.8,1.13,1.13,0,0,0-.23-.7.77.77,0,0,0-.7-.32Zm1.13-9A16.9,16.9,0,0,1,128,1.75V1.47a2.12,2.12,0,0,0,0-.3.74.74,0,0,1,.4-.35,3.55,3.55,0,0,1,.65-.22c.23,0,.45-.08.68-.08s.4,0,.52,0a.85.85,0,0,1,.78.57,5.67,5.67,0,0,1,.35,1.38A11.37,11.37,0,0,1,131.52,4V6a1.33,1.33,0,0,1-.5.4,5.35,5.35,0,0,1-.7.2c-.25,0-.5.05-.75.05s-.42,0-.57,0a.62.62,0,0,1-.43-.1.66.66,0,0,1-.22-.4C128.3,5.45,128.25,4.7,128.15,4Zm1.52,14.28c0,.15.08.25.18.25h3.32l.35-.33V16.05a.52.52,0,0,0-.38.1,2.61,2.61,0,0,0-.27.22.77.77,0,0,1-.25.23.56.56,0,0,1-.35.1.82.82,0,0,1-.35-.08,1.16,1.16,0,0,1-.32-.2l-.33-.2a.79.79,0,0,0-.85.13,2.92,2.92,0,0,0-.4.5,1.62,1.62,0,0,0-.25.6,1.58,1.58,0,0,0-.1.52Zm2.6-12A12.42,12.42,0,0,1,132.6,5c.15-.45.3-1,.44-1.48s.35-1,.53-1.37a9.74,9.74,0,0,1,.55-1c.15-.28.3-.4.45-.4a3.85,3.85,0,0,1,.65.08,5.56,5.56,0,0,1,.92.22,3.16,3.16,0,0,1,.85.4.64.64,0,0,1,.38.55,3.48,3.48,0,0,1-.15.75c-.1.37-.23.8-.4,1.27s-.38,1-.58,1.5a12,12,0,0,1-.65,1.43A8.75,8.75,0,0,1,135,7.92c-.2.3-.4.43-.55.43a4.05,4.05,0,0,1-.7-.08,3.45,3.45,0,0,1-.75-.22,2.65,2.65,0,0,1-.57-.43,1,1,0,0,1-.23-.62A4.92,4.92,0,0,1,132.27,6.2ZM145.8,19.5V1.67l.07-.07a1.26,1.26,0,0,1,.15-.1.8.8,0,0,1,.18-.1.51.51,0,0,0,.15,0h3.17l.5.5V7.67c0,.1.1.2.28.3l.37.2c.65.25,1.38.48,2.13.7s1.55.48,2.32.73,1.58.55,2.33.85a16.67,16.67,0,0,1,2.07,1.05c.18.12.3.22.32.3a1,1,0,0,1,0,.37,3.27,3.27,0,0,1-.15.73,5.44,5.44,0,0,1-.37,1.12,4.38,4.38,0,0,1-.56,1.05.81.81,0,0,1-.62.45.39.39,0,0,1-.15,0c-1.23-.55-2.47-1.1-3.7-1.63a34.44,34.44,0,0,0-3.8-1.37,1.27,1.27,0,0,1-.25.12c-.17.08-.25.15-.25.23V22l-.35.35H146c-.1,0-.17-.07-.2-.22s0-.25,0-.28ZM172,2.17s0,0,0,.08a.24.24,0,0,1,.1.1,1,1,0,0,1,.13.17.26.26,0,0,1,0,.15V17c0,.12.1.2.27.2h.3a5.52,5.52,0,0,0,1.83-.4,18.07,18.07,0,0,0,2.12-1.05c.7-.43,1.45-.9,2.18-1.43s1.45-1.05,2.12-1.57,1.28-1.05,1.83-1.53,1-.9,1.35-1.22h.24a1,1,0,0,1,.61.3,4.73,4.73,0,0,1,.54.77,3.06,3.06,0,0,1,.45.88,1.91,1.91,0,0,1,.18.72,2.63,2.63,0,0,1-1,1.65,21.63,21.63,0,0,1-2.5,2.08c-1,.7-2.15,1.42-3.37,2.12s-2.4,1.35-3.58,1.93-2.2,1-3.12,1.37a6.72,6.72,0,0,1-2.05.52,1.51,1.51,0,0,1-.68-.22,4.71,4.71,0,0,1-.87-.55,4.54,4.54,0,0,1-.73-.72,1.14,1.14,0,0,1-.3-.68v-18ZM189,21l.5-.58h3.82a.41.41,0,0,0,.15-.07l.17-.18c.05-.07.13-.12.18-.2a.22.22,0,0,0,.07-.12V8h3.25V23.17s0,0-.07.07-.08.08-.08.1l-.2.08a.31.31,0,0,1-.15.07h-7.14L189,23ZM8.17,51.2V51l.18-.25h3.17c.05,0,.1,0,.18-.13l.15-.3A1.25,1.25,0,0,0,12,50a1.47,1.47,0,0,0,0-.17v-4.5A.31.31,0,0,0,12,45.2a1.21,1.21,0,0,0-.1-.2.44.44,0,0,1-.08-.1s-.07,0-.1,0l-.17,0c-.08.05-.13.07-.15.1l-.53.5c-.25.25-.5.5-.8.77l-.8.73c-.27.25-.45.42-.55.5-.25.25-.65.62-1.2,1.07s-1.15,1-1.77,1.48a20.71,20.71,0,0,1-1.88,1.27,3.21,3.21,0,0,1-1.47.53,1.35,1.35,0,0,1-.7-.28,4.36,4.36,0,0,1-.77-.72A4.44,4.44,0,0,1,.25,50,1.87,1.87,0,0,1,0,49.25c0-.1.15-.28.42-.5A12.18,12.18,0,0,1,1.5,48c.45-.33,1-.63,1.47-1s1-.65,1.55-1,1-.6,1.35-.88a7.16,7.16,0,0,0,.8-.62c.13-.1.3-.28.58-.55s.55-.55.85-.85.6-.58.85-.85.47-.45.57-.58a.4.4,0,0,1,0-.15v-.17a.68.68,0,0,0-.08-.4c-.05-.08-.2-.1-.45-.1H1.52l-.35-.35V37.25H11.35l.32-.4V33.5l.35-.33h3.15s.05,0,.08.08.07.07.1.1.05.1.1.17a.41.41,0,0,1,.07.15V36.5a.74.74,0,0,0,.2.4c.13.2.23.27.3.27h4.32s.05,0,.15.08a.61.61,0,0,1,.18.1.31.31,0,0,1,.1.1.16.16,0,0,1,.07,0v3s0,0-.07.1l-.1.07a.61.61,0,0,1-.18.1c-.1,0-.12.08-.15.08h-4c-.13,0-.25.07-.43.25a.73.73,0,0,0-.25.4V52.67a1,1,0,0,1-.17.55,5,5,0,0,1-.48.55,2.89,2.89,0,0,1-.57.42,1.55,1.55,0,0,1-.6.15H9a.63.63,0,0,1-.6-.37,4.57,4.57,0,0,1-.27-1.8c0-.3,0-.55,0-.7Zm18.15-.28a.87.87,0,0,1,0-.25c0-.1,0-.15.17-.17a33.9,33.9,0,0,0,4.53-1.3,26.1,26.1,0,0,0,4-1.83A27.13,27.13,0,0,0,38.6,44.9,33.83,33.83,0,0,0,42,41.67a4.5,4.5,0,0,0,.58-.85l.67-1.2a9.1,9.1,0,0,1,.7-1,1,1,0,0,1,.73-.45.91.91,0,0,1,.64.45,8.91,8.91,0,0,1,.65,1,8.74,8.74,0,0,1,.5,1.17,3.39,3.39,0,0,1,.2.83,4.31,4.31,0,0,1-1,2.5A17.75,17.75,0,0,1,43,46.92a41.65,41.65,0,0,1-3.65,2.68,43.65,43.65,0,0,1-4,2.35,28,28,0,0,1-3.7,1.64,9,9,0,0,1-2.75.6,1.25,1.25,0,0,1-.85-.42,5.17,5.17,0,0,1-.78-1,5.76,5.76,0,0,1-.6-1c-.17-.32-.27-.52-.32-.6A.69.69,0,0,1,26.32,50.92Zm.85-14.25V36.5A3.25,3.25,0,0,0,27.6,36a6.57,6.57,0,0,1,.6-.75,3.77,3.77,0,0,1,.72-.62,1.29,1.29,0,0,1,.75-.28.5.5,0,0,1,.18,0H30c.68.5,1.35,1,2,1.52s1.32,1.05,2,1.63c.1.12.23.25.4.42a5.89,5.89,0,0,1,.5.5c.18.15.3.28.43.4a.86.86,0,0,1,.17.18v.5l-2.35,2.35h-.65a1.92,1.92,0,0,0-.35-.33c-.2-.15-.37-.32-.57-.5s-.38-.35-.55-.5-.3-.27-.38-.35a5.8,5.8,0,0,0-.82-.62,13.84,13.84,0,0,1-1.18-.88,7.49,7.49,0,0,1-1.05-1,1.42,1.42,0,0,1-.47-.87C27.15,36.8,27.17,36.75,27.17,36.67ZM56.4,51.37l1.85-.85c.75-.35,1.57-.75,2.42-1.17a19.87,19.87,0,0,0,2.43-1.48A9.57,9.57,0,0,0,65,46.12a3.15,3.15,0,0,0,.73-1.95,1.24,1.24,0,0,0-.08-.37.26.26,0,0,0-.27-.2H51.85l-.08-.1a1.3,1.3,0,0,0-.1-.15.92.92,0,0,0-.1-.2.51.51,0,0,0,0-.15V40.5s.1-.15.28-.3a1.22,1.22,0,0,1,.37-.2h16.5a1.45,1.45,0,0,1,.6.17c.25.15.47.3.72.48a4.07,4.07,0,0,1,.63.55.85.85,0,0,1,.25.55.8.8,0,0,1,0,.25,26.88,26.88,0,0,1-1.74,3.92,18.83,18.83,0,0,1-2.33,3.35,16.86,16.86,0,0,1-3,2.75A20.56,20.56,0,0,1,60,54.17l-.27.1-.45.15-.45.15-.33.1h-.17a1.54,1.54,0,0,1-.8-.35,5.24,5.24,0,0,1-.88-.78,6,6,0,0,1-.7-.92,1.7,1.7,0,0,1-.3-.8C55.67,51.75,55.92,51.6,56.4,51.37ZM54,37.1a.6.6,0,0,1-.12-.25V34.5l0-.13a.7.7,0,0,1,.12-.2s0-.07.08-.1l.07-.07H68.52s0,0,0,.07.07.08.1.1a.53.53,0,0,1,.12.2.87.87,0,0,0,.06.13V37c0,.07-.08.17-.28.3a1,1,0,0,1-.4.2H54.52l-.15,0a.92.92,0,0,0-.2-.1C54.12,37.3,54.07,37.22,54,37.1Zm30.88,7.07a.48.48,0,0,0-.2-.37.72.72,0,0,0-.38-.13h-.1c-.37.18-.85.38-1.42.65s-1.23.58-1.88.85-1.35.5-2,.7a5.58,5.58,0,0,1-1.82.33,1.25,1.25,0,0,1-.75-.33,3.78,3.78,0,0,1-.68-.75,7.53,7.53,0,0,1-.45-.95,3,3,0,0,1-.17-.85l.8-.37c.52-.25,1.2-.55,2-.9s1.7-.75,2.67-1.18,1.88-.82,2.75-1.22l2.25-1a8,8,0,0,0,1.2-.62,29.24,29.24,0,0,0,3-2.28c.93-.82,1.83-1.67,2.73-2.55h.5c.05,0,.19.1.44.33a7.3,7.3,0,0,1,.78.72c.28.25.5.53.72.75s.35.35.38.38a.69.69,0,0,1,0,.25,1.44,1.44,0,0,1-.36.77c-.25.3-.55.63-.89,1s-.78.67-1.23,1-.85.67-1.27,1-.8.58-1.15.83-.6.4-.78.52l-.35.5V53.84L89.1,54a.62.62,0,0,1-.08.18l-.07.1s-.08.07-.1.07H85.17L84.85,54Zm16.47,6.75a.87.87,0,0,1,0-.25c0-.1.05-.15.17-.17a33.9,33.9,0,0,0,4.53-1.3,26.1,26.1,0,0,0,4-1.83,27.13,27.13,0,0,0,3.58-2.47A33.83,33.83,0,0,0,117,41.67a4.5,4.5,0,0,0,.58-.85l.67-1.2a9.1,9.1,0,0,1,.7-1,1,1,0,0,1,.73-.45.91.91,0,0,1,.64.45,8.91,8.91,0,0,1,.65,1,8.74,8.74,0,0,1,.5,1.17,3.39,3.39,0,0,1,.2.83,4.31,4.31,0,0,1-1,2.5A17.75,17.75,0,0,1,118,46.92a41.65,41.65,0,0,1-3.65,2.68,43.65,43.65,0,0,1-4,2.35,28,28,0,0,1-3.7,1.64,9,9,0,0,1-2.75.6,1.25,1.25,0,0,1-.85-.42,5.17,5.17,0,0,1-.78-1,5.76,5.76,0,0,1-.6-1c-.17-.32-.27-.52-.32-.6A.69.69,0,0,1,101.32,50.92Zm.85-14.25V36.5a3.25,3.25,0,0,0,.43-.53,6.57,6.57,0,0,1,.6-.75,3.77,3.77,0,0,1,.72-.62,1.29,1.29,0,0,1,.75-.28.5.5,0,0,1,.18,0H105c.68.5,1.35,1,2,1.52s1.32,1.05,2,1.63c.1.12.23.25.4.42a5.89,5.89,0,0,1,.5.5c.18.15.3.28.43.4a.86.86,0,0,1,.17.18v.5l-2.35,2.35h-.65a1.92,1.92,0,0,0-.35-.33c-.2-.15-.37-.32-.57-.5s-.38-.35-.55-.5-.3-.27-.38-.35a5.8,5.8,0,0,0-.82-.62,13.84,13.84,0,0,1-1.18-.88,7.49,7.49,0,0,1-1-1,1.42,1.42,0,0,1-.47-.87C102.15,36.8,102.17,36.75,102.17,36.67ZM134,34.17s0,0,0,.08a.24.24,0,0,1,.1.1,1,1,0,0,1,.13.17.26.26,0,0,1,0,.15V49c0,.12.1.2.27.2h.3a5.52,5.52,0,0,0,1.83-.4,18.07,18.07,0,0,0,2.12-1c.7-.43,1.45-.9,2.18-1.43s1.45-1,2.12-1.57,1.28-1,1.83-1.53,1-.9,1.35-1.22h.24a1,1,0,0,1,.61.3,4.73,4.73,0,0,1,.54.77,3.06,3.06,0,0,1,.45.88,1.91,1.91,0,0,1,.18.72,2.63,2.63,0,0,1-1,1.65,21.63,21.63,0,0,1-2.5,2.08c-1,.7-2.15,1.42-3.37,2.12s-2.4,1.35-3.58,1.93-2.2,1-3.12,1.37a6.72,6.72,0,0,1-2.05.52,1.51,1.51,0,0,1-.68-.22,4.71,4.71,0,0,1-.87-.55,4.54,4.54,0,0,1-.73-.72,1.14,1.14,0,0,1-.3-.68v-18Zm20.13,7.08a.82.82,0,0,1,.4-.63,4.92,4.92,0,0,1,.92-.45,8.15,8.15,0,0,1,.95-.27,5.84,5.84,0,0,1,.6-.08c.23,0,.45.23.73.7s.5,1,.75,1.55a14.25,14.25,0,0,1,.62,1.68,3.91,3.91,0,0,1,.25,1,.7.7,0,0,1-.35.6,2.48,2.48,0,0,1-.82.45,6.21,6.21,0,0,1-.9.28,5.54,5.54,0,0,1-.68.1.87.87,0,0,1-.5-.1c-.1-.05-.17-.2-.27-.43a8.74,8.74,0,0,1-.33-.82c-.17-.4-.32-.83-.5-1.28s-.35-.85-.5-1.25-.27-.65-.35-.82S154.15,41.35,154.15,41.25ZM158,52.6c.33-.25.78-.53,1.3-.88s1.13-.72,1.78-1.15,1.27-.87,1.87-1.32a19.46,19.46,0,0,0,1.65-1.3,7.72,7.72,0,0,0,1-1.1,4.49,4.49,0,0,0,.45-1c.2-.43.4-.95.63-1.53s.45-1.15.67-1.77.45-1.18.63-1.7.37-.93.52-1.25.22-.5.28-.5l.17,0a3,3,0,0,0,.5.18c.23.07.5.15.75.25l.75.22c.23.08.4.13.5.18a1.87,1.87,0,0,1,.45.22.59.59,0,0,1,.23.45,7.58,7.58,0,0,1-.56,2.6,18.46,18.46,0,0,1-1.5,3.18A30.28,30.28,0,0,1,168,49.72a28.5,28.5,0,0,1-2.55,2.93,15.55,15.55,0,0,1-2.67,2.07,5.1,5.1,0,0,1-2.53.8c-.12,0-.22,0-.32,0a.77.77,0,0,1-.28-.15l-2.15-2.17s0,0,0-.08v-.15Zm2-12.85a.74.74,0,0,1,.35-.6,3.7,3.7,0,0,1,.85-.38,4.08,4.08,0,0,1,.92-.2,4.48,4.48,0,0,1,.65-.07.57.57,0,0,1,.43.17,1.18,1.18,0,0,1,.3.43,1.69,1.69,0,0,1,.2.5,3.44,3.44,0,0,0,.15.4,4.72,4.72,0,0,0,.2.52c.1.28.2.53.3.83s.2.55.3.8.17.42.2.52a1,1,0,0,0,0,.2v.23a3,3,0,0,1,0,.42c0,.15-.13.25-.33.33l-1.17.47a2.87,2.87,0,0,1-1.15.2c-.23,0-.38,0-.45-.12a1.16,1.16,0,0,1-.23-.4c-.05-.15-.17-.4-.3-.78s-.3-.77-.45-1.2-.32-.82-.47-1.22L160,40A1.19,1.19,0,0,1,160,39.75Zm18.07,11.1c.4-.25.88-.53,1.4-.8l1.5-.8c.48-.25.83-.43,1.05-.58s.73-.52,1.23-.92,1.1-.9,1.72-1.43,1.25-1.12,1.88-1.75a23.41,23.41,0,0,0,1.75-1.9,14.84,14.84,0,0,0,1.25-1.87,3.6,3.6,0,0,0,.5-1.63l-.08-.15a1.46,1.46,0,0,0-.2-.3l0,0h-9.67a1,1,0,0,1-.38-.2q-.3-.18-.3-.3V35.35a.53.53,0,0,1,.13-.28.46.46,0,0,1,.22-.22c.33,0,.83-.05,1.53-.05s1.45,0,2.32,0,1.78,0,2.73,0,1.85,0,2.72,0,1.65,0,2.35,0h2.1a2.1,2.1,0,0,1,.68.15,6.63,6.63,0,0,1,.8.4,3.48,3.48,0,0,1,.67.53.92.92,0,0,1,.28.6.27.27,0,0,1,0,.15c-.32.72-.65,1.37-.95,2s-.62,1.18-.93,1.75-.59,1.13-.92,1.68-.65,1.15-1,1.77a3.6,3.6,0,0,1-.28.43.87.87,0,0,0-.07.4c0,.1,0,.2,0,.27a.75.75,0,0,0,.15.23l.85.85,1.25,1.25c.45.42.87.85,1.27,1.25s.66.65.81.82a1.58,1.58,0,0,0,.35.35,5.59,5.59,0,0,0,.47.53l.42.5a1.29,1.29,0,0,1,.25.3,1.28,1.28,0,0,1,.2.32,1.41,1.41,0,0,1,.13.33c0,.15-.08.37-.33.65A9.06,9.06,0,0,1,197,53c-.35.3-.68.55-1,.78a2,2,0,0,1-.7.35.49.49,0,0,1-.32-.1,1.14,1.14,0,0,1-.28-.23l-.42-.52c-.21-.28-.46-.57-.73-.9s-.52-.62-.75-.9l-.42-.52c-.1-.1-.3-.3-.58-.6s-.6-.58-.92-.9l-.9-.9-.6-.6h-.18a1.88,1.88,0,0,0-1,.47c-.4.3-.88.68-1.4,1.13s-1.08,1-1.65,1.5-1.18,1-1.78,1.5a12,12,0,0,1-1.72,1.12,3,3,0,0,1-1.5.47H180l-.12,0-2.33-2.32a.71.71,0,0,1-.1-.2l-.07-.15C177.42,51.32,177.65,51.12,178.07,50.85Zm25.25.07a.87.87,0,0,1,0-.25c0-.1.05-.15.17-.17a33.9,33.9,0,0,0,4.53-1.3,26.1,26.1,0,0,0,4-1.83,27.13,27.13,0,0,0,3.58-2.47A33.83,33.83,0,0,0,219,41.67a4.5,4.5,0,0,0,.58-.85l.67-1.2a9.1,9.1,0,0,1,.7-1,1,1,0,0,1,.73-.45.91.91,0,0,1,.64.45,8.91,8.91,0,0,1,.65,1,8.74,8.74,0,0,1,.5,1.17,3.39,3.39,0,0,1,.2.83,4.31,4.31,0,0,1-1.05,2.5A17.75,17.75,0,0,1,220,46.92a41.65,41.65,0,0,1-3.65,2.68,43.65,43.65,0,0,1-4,2.35,28,28,0,0,1-3.7,1.64,9,9,0,0,1-2.75.6,1.25,1.25,0,0,1-.85-.42,5.17,5.17,0,0,1-.78-1,5.76,5.76,0,0,1-.6-1c-.17-.32-.27-.52-.32-.6A.69.69,0,0,1,203.32,50.92Zm.85-14.25V36.5a3.25,3.25,0,0,0,.43-.53,6.57,6.57,0,0,1,.6-.75,3.77,3.77,0,0,1,.72-.62,1.29,1.29,0,0,1,.75-.28.5.5,0,0,1,.18,0H207c.68.5,1.35,1,2,1.52s1.32,1.05,2,1.63c.1.12.23.25.4.42a5.89,5.89,0,0,1,.5.5c.18.15.3.28.43.4a.86.86,0,0,1,.17.18v.5l-2.35,2.35h-.65a1.92,1.92,0,0,0-.35-.33c-.2-.15-.37-.32-.57-.5s-.38-.35-.55-.5-.3-.27-.38-.35a5.8,5.8,0,0,0-.82-.62,13.84,13.84,0,0,1-1.18-.88,7.49,7.49,0,0,1-1-1,1.42,1.42,0,0,1-.47-.87C204.15,36.8,204.17,36.75,204.17,36.67Zm25.58,9.4a12.47,12.47,0,0,1,1.27-2c.45-.57.88-1,1.25-1.45s.58-.7.58-.87a4.34,4.34,0,0,0-.35-1.33c-.25-.57-.53-1.2-.85-1.82s-.63-1.25-.93-1.85-.55-1-.7-1.4a1,1,0,0,1,0-.25.84.84,0,0,1,.35-.68,4.3,4.3,0,0,1,.87-.5,5,5,0,0,1,1-.32,3.5,3.5,0,0,1,.8-.1c.15,0,.3.12.48.37a7.63,7.63,0,0,1,.55.93c.2.37.4.77.6,1.22s.4.9.57,1.33a11.07,11.07,0,0,1,.48,1.12,4.53,4.53,0,0,0,.32.7.72.72,0,0,0,.68.35,3.19,3.19,0,0,0,1.75-.52,18.14,18.14,0,0,0,1.67-1.18c.55-.42,1.1-.82,1.68-1.22a4,4,0,0,1,1.72-.75.25.25,0,0,1,.25.07,1.18,1.18,0,0,1,.25.25,1.74,1.74,0,0,1,.2.3,1.74,1.74,0,0,0,.13.2s.1.18.19.35.21.33.31.5.19.33.29.5a3.48,3.48,0,0,1,.21.33c0,.07,0,.17,0,.25a.69.69,0,0,1-.3.55,2.93,2.93,0,0,1-.55.35c-.27.12-.73.37-1.37.7s-1.35.67-2.08,1l-2,1c-.62.32-1.07.57-1.35.7-.47.25-1,.55-1.47.87A13.1,13.1,0,0,0,234.72,45a5.28,5.28,0,0,0-1.1,1.4,3.15,3.15,0,0,0-.45,1.65,1.77,1.77,0,0,0,.53,1.35,3.72,3.72,0,0,0,1.27.75,8,8,0,0,0,1.58.3c.55,0,1,.07,1.45.07a16.57,16.57,0,0,0,1.85-.12l1.82-.23,1.8-.22a13.68,13.68,0,0,1,1.82-.13h.31c.17,0,.25,0,.25.18v3.34c0,.2-.18.38-.53.48a5.31,5.31,0,0,1-1.18.25c-.42,0-.82.07-1.17.1h-.62c-.83,0-1.53.1-2.13.12s-1.27.05-2,.05a22.27,22.27,0,0,1-3.1-.22,9.94,9.94,0,0,1-3-.85A5.6,5.6,0,0,1,230,51.5a5,5,0,0,1-.85-3A5.52,5.52,0,0,1,229.75,46.07Zm23.13-5.45c.24-2,.52-4,.79-5.95,0-.05.05-.2.08-.4a.57.57,0,0,1,.27-.42c.08,0,.23,0,.45,0h.45l.6,0h.65a2.53,2.53,0,0,1,.65.1,2.39,2.39,0,0,1,.53.27,1.27,1.27,0,0,0,0,.23v.2a13.36,13.36,0,0,1-.22,2.42c-.13.83-.3,1.65-.48,2.48s-.32,1.62-.47,2.45a15.63,15.63,0,0,0-.2,2.47v.38c0,.2,0,.32,0,.37a.6.6,0,0,0,.15.18h.1a.55.55,0,0,0,.38-.18.55.55,0,0,1,.42-.17,1.36,1.36,0,0,1,.9.35,1.13,1.13,0,0,1,.4.87,4.55,4.55,0,0,1-.32,1.68,10.69,10.69,0,0,0-.53,1.6,10.93,10.93,0,0,0-.32,1.87,6.43,6.43,0,0,1-.28,1.53,1.92,1.92,0,0,1-.7,1,2.49,2.49,0,0,1-1.62.4h-.75a1.44,1.44,0,0,1-.55-.77,8.26,8.26,0,0,1-.38-1.35c-.1-.5-.17-1-.25-1.65s-.1-1.12-.12-1.67,0-1-.05-1.43V46.6A46,46,0,0,1,252.88,40.62Zm6.77,7.53a3.8,3.8,0,0,1,1.25-1.3,5.49,5.49,0,0,1,1.62-.73,11.31,11.31,0,0,1,1.6-.37,9.35,9.35,0,0,1,1.23-.2c.32,0,.5-.13.5-.2V42a.74.74,0,0,0-.2-.38c-.15-.15-.25-.22-.3-.27s-.43,0-.8,0-.8,0-1.2,0-.83,0-1.2-.05a4.63,4.63,0,0,1-.8,0,.55.55,0,0,0-.18,0l-.4-.08-.42-.15a.28.28,0,0,1-.18-.25V37.85h5l.15-.08a.75.75,0,0,0,.2-.1.44.44,0,0,0,.15-.1c.08,0,.1,0,.1-.07V34l.1-.08c.05,0,.1-.07.15-.07s.1-.08.18-.13a.51.51,0,0,0,.15,0H269l.12,0a.76.76,0,0,1,.21.13s.07,0,.1.07l.07.08v2.85a.6.6,0,0,0,.25.5,1,1,0,0,0,.52.17,4.39,4.39,0,0,0,1-.1,6.39,6.39,0,0,1,1-.1c.1,0,.25,0,.42,0a.28.28,0,0,1,.28.32v2.5a.41.41,0,0,1-.28.45,1.76,1.76,0,0,1-.62.15,7.59,7.59,0,0,1-.85,0,2.85,2.85,0,0,0-.85.15,1.39,1.39,0,0,0-.67.42,1.31,1.31,0,0,0-.25.9c0,.65,0,1.25,0,1.83s.08,1.22.13,1.9a1.85,1.85,0,0,0,.9,1.1,13.88,13.88,0,0,0,1.53.82,9,9,0,0,1,1.44.85,1.35,1.35,0,0,1,.65,1.15,1.6,1.6,0,0,1-.17.65,4.35,4.35,0,0,1-.48.83,3.37,3.37,0,0,1-.59.7,1.11,1.11,0,0,1-.61.27,1.08,1.08,0,0,1-.6-.2,3,3,0,0,1-.5-.42,3.25,3.25,0,0,0-.47-.43,1,1,0,0,0-.6-.17H270l-.17,0a4.76,4.76,0,0,1-2,2.48,6.64,6.64,0,0,1-3.08.69,10.51,10.51,0,0,1-2-.2,5.75,5.75,0,0,1-1.82-.7,3.73,3.73,0,0,1-1.3-1.29,4.25,4.25,0,0,1,0-4Zm3.1,2.3a.69.69,0,0,0,.6.4h1.82a.45.45,0,0,0,.38-.18,1.68,1.68,0,0,0,.3-.4,1.09,1.09,0,0,0,.12-.47,2.28,2.28,0,0,0,0-.4q0-.65-.45-.75a3,3,0,0,0-1-.15,5.89,5.89,0,0,0-.68,0c-.22.05-.45.1-.67.17a1.17,1.17,0,0,0-.53.38.88.88,0,0,0-.22.65A1.61,1.61,0,0,0,262.75,50.45ZM286,44.6a5.87,5.87,0,0,1,.83-1,9.2,9.2,0,0,1,1.1-.85,6.92,6.92,0,0,0,1.07-.83,4.18,4.18,0,0,0,.85-1,2.1,2.1,0,0,0,.33-1.12,1.53,1.53,0,0,0-.28-.93,2,2,0,0,0-.7-.65,3.9,3.9,0,0,0-.92-.35,4.58,4.58,0,0,0-.95-.1,2.17,2.17,0,0,0-1,.23,7.76,7.76,0,0,0-.9.47l-.82.48a2.12,2.12,0,0,1-.85.2,1.1,1.1,0,0,1-.63-.18,3.83,3.83,0,0,1-.52-.42,4.51,4.51,0,0,1-.45-.5,3.72,3.72,0,0,0-.35-.43.4.4,0,0,0,0-.15v-.17a1.47,1.47,0,0,1,.55-1,5,5,0,0,1,1.3-.9,12.11,12.11,0,0,1,1.53-.65,4,4,0,0,1,1.15-.27h3.32a3.73,3.73,0,0,1,1.83.45A4.42,4.42,0,0,1,293,36.07a5.08,5.08,0,0,1,.92,1.58,5,5,0,0,1,.33,1.8V40a1.77,1.77,0,0,1-.06.42,1,1,0,0,1-.12.4,3.4,3.4,0,0,1-.35.53,9.86,9.86,0,0,1-1.1,1.2c-.37.37-.75.72-1.12,1.07s-.75.7-1.1,1.08a6.31,6.31,0,0,0-1,1.3,2,2,0,0,1-.3.3.56.56,0,0,1-.38.2h-2.32a.91.91,0,0,1-.68-.65A2.37,2.37,0,0,1,286,44.6Zm-1.12,5.12a2.49,2.49,0,0,1,.65-.82,2.89,2.89,0,0,1,.9-.53,2.64,2.64,0,0,1,1.07-.2,2.46,2.46,0,0,1,1,.2,3,3,0,0,1,.92.53,2.2,2.2,0,0,1,.63.82,2.15,2.15,0,0,1,.25,1,2.57,2.57,0,0,1-.23,1.1,2.29,2.29,0,0,1-.62.82,2.24,2.24,0,0,1-.9.52,3,3,0,0,1-1.08.18,3.17,3.17,0,0,1-1.1-.18,2.47,2.47,0,0,1-.9-.52,2.29,2.29,0,0,1-.62-.82,2.57,2.57,0,0,1-.23-1.1A2.39,2.39,0,0,1,284.9,49.72Z"/></svg>