<svg id="レイヤー_1" data-name="レイヤー 1" xmlns="http://www.w3.org/2000/svg" viewBox="0 0 489.42 28.23"><path d="M0,.42S0,.36.06.33.18.24.21.21A1.3,1.3,0,0,1,.42.09L.6,0H9.21l.6.6V3l-.6.72H4.59s-.06,0-.15.09S4.29,4,4.2,4A1.39,1.39,0,0,1,4,4.23a.46.46,0,0,0-.09.18V18.6H0ZM20.22,24.63a3.2,3.2,0,0,1,.57-.21,2.89,2.89,0,0,0,.54-.21.36.36,0,0,0,.27-.39V19a.35.35,0,0,0-.33-.39c-.24,0-.42,0-.54,0a1.93,1.93,0,0,0-.6.09.55.55,0,0,0-.33.51l-.6,5.4a5.56,5.56,0,0,0-.18.75,5.94,5.94,0,0,1-.24,1,6.24,6.24,0,0,1-.39.9.64.64,0,0,1-.6.39,2.25,2.25,0,0,1-.72-.12,2.72,2.72,0,0,1-.78-.39,2.45,2.45,0,0,1-.66-.57,1,1,0,0,1-.27-.66,12.06,12.06,0,0,1,.18-2.07c.12-.69.24-1.38.39-2.07s.27-1.38.39-2a12.15,12.15,0,0,0,.18-2.1v-16s.06-.09.21-.18.21-.18.3-.24a2.33,2.33,0,0,0,.21-.12A.3.3,0,0,1,17.4,1h7.2a.49.49,0,0,1,.42.15,1.28,1.28,0,0,1,.33.36,1.72,1.72,0,0,0,.33.33.74.74,0,0,0,.48.18,3.26,3.26,0,0,0,1.17-.24,3.26,3.26,0,0,1,1.2-.21c.36,0,.69.27,1,.81a7.76,7.76,0,0,1,.72,1.83,14.51,14.51,0,0,1,.45,2c.09.66.15,1.08.15,1.29a1.11,1.11,0,0,1-.33.81,2.35,2.35,0,0,1-.78.51c-.33.12-.63.21-1,.3a5.33,5.33,0,0,1-.87.09,1.52,1.52,0,0,1-.39-.06q-.18,0-.27-.36a4.76,4.76,0,0,1-.15-.93,14.41,14.41,0,0,0-.27-1.5A7.8,7.8,0,0,0,26.34,5c-.18-.39-.42-.6-.66-.6a.11.11,0,0,0-.09,0c0,.06-.09.15-.18.33s-.12.24-.12.27V25.62A1.87,1.87,0,0,1,25,26.73a2.87,2.87,0,0,1-.87.72A3.93,3.93,0,0,1,23,27.9,7.42,7.42,0,0,1,21.9,28H21a1.15,1.15,0,0,1-.48-.57,3.58,3.58,0,0,1-.33-.78A8.79,8.79,0,0,1,20,25.8a3.05,3.05,0,0,1-.06-.69C20,24.87,20,24.69,20.22,24.63ZM20.16,7.2a.77.77,0,0,0,.75.45,2.35,2.35,0,0,0,.42-.06.36.36,0,0,0,.27-.39v-2c0-.12-.12-.24-.33-.3a2.7,2.7,0,0,0-.48-.12.5.5,0,0,0-.42.18.86.86,0,0,0-.24.39,2.54,2.54,0,0,0-.12.51,2.43,2.43,0,0,0,0,.45A2.38,2.38,0,0,0,20.16,7.2ZM20.07,14c.09.3.33.45.75.45a4.11,4.11,0,0,0,.48-.06.32.32,0,0,0,.3-.36V12a.3.3,0,0,0-.27-.33,1.18,1.18,0,0,0-.42-.09.76.76,0,0,0-.78.51A3.52,3.52,0,0,0,20,13,5.06,5.06,0,0,0,20.07,14Zm6.72-2.58.42-.39h2.58c.24,0,.39.06.45.21a1.92,1.92,0,0,1,.18.48,1.73,1.73,0,0,0,.18.51c.06.15.18.21.39.21a.64.64,0,0,0,.54-.21.72.72,0,0,1,.54-.21,1.93,1.93,0,0,1,.6.09,2.34,2.34,0,0,0,.63.12.61.61,0,0,0,.66-.42,3.32,3.32,0,0,0,.24-.87,7,7,0,0,1,.24-.93.58.58,0,0,1,.63-.39,4,4,0,0,1,.81.06,3.21,3.21,0,0,1,.81.27,1.79,1.79,0,0,1,.66.48.88.88,0,0,1,.27.66,4.94,4.94,0,0,1-.3,1.74A4.69,4.69,0,0,0,37,14.52a1.52,1.52,0,0,0,.3.87.94.94,0,0,0,.78.45,2.39,2.39,0,0,1,.33,0c.18,0,.3-.09.3-.21V12a.74.74,0,0,1,.21-.48.58.58,0,0,1,.48-.3h2.82l.39.39v15.6l-.39.39h-3a.31.31,0,0,1-.3-.21c-.06-.15-.15-.3-.21-.48s-.18-.33-.27-.48a.52.52,0,0,0-.42-.21H31.2a.51.51,0,0,0-.48.24,5.12,5.12,0,0,0-.21.54c-.09.21-.15.39-.24.57a.51.51,0,0,1-.48.24H27.21l-.42-.39Zm4.05,10.65a1.5,1.5,0,0,0,.78.18,1.77,1.77,0,0,0,.42-.06.36.36,0,0,0,.18-.36,1,1,0,0,0-.33-.75,1.3,1.3,0,0,0-.78-.27c-.24,0-.39,0-.45.15a.9.9,0,0,0-.09.48Q30.57,21.92,30.84,22.05Zm0-6.45c-.15,0-.21.09-.21.21v3s0,.06.06.12a.66.66,0,0,1,.15.09H31a.46.46,0,0,1,.21-.09,1,1,0,0,0,.21-.12,10.88,10.88,0,0,0,.63-1,2.1,2.1,0,0,0,.18-1A1.34,1.34,0,0,0,32,16a.92.92,0,0,0-.84-.39ZM32.16,4.77A20.3,20.3,0,0,1,32,2.1V1.77a2,2,0,0,0,0-.36A.84.84,0,0,1,32.49,1a3.43,3.43,0,0,1,.78-.27,7.43,7.43,0,0,1,.81-.09,5.36,5.36,0,0,1,.63,0,1,1,0,0,1,.93.69,6.32,6.32,0,0,1,.42,1.65,12.89,12.89,0,0,1,.15,1.83V7.2a1.58,1.58,0,0,1-.6.48,5.61,5.61,0,0,1-.84.24c-.3,0-.6.06-.9.06a6,6,0,0,1-.69,0,.75.75,0,0,1-.51-.12.81.81,0,0,1-.27-.48C32.34,6.54,32.28,5.64,32.16,4.77ZM34,21.9c0,.18.09.3.21.3h4l.42-.39V19.26a.62.62,0,0,0-.45.12,2.61,2.61,0,0,0-.33.27.85.85,0,0,1-.3.27.63.63,0,0,1-.42.12,1,1,0,0,1-.42-.09,1.7,1.7,0,0,1-.39-.24,4.44,4.44,0,0,0-.39-.24.92.92,0,0,0-1,.15,3.24,3.24,0,0,0-.48.6,1.93,1.93,0,0,0-.3.72,1.78,1.78,0,0,0-.12.63ZM37.11,7.44a14,14,0,0,1,.39-1.5c.18-.54.36-1.14.54-1.77s.42-1.17.63-1.65a11.75,11.75,0,0,1,.66-1.26c.18-.33.36-.48.54-.48a6.06,6.06,0,0,1,.78.09,8.5,8.5,0,0,1,1.11.27,4,4,0,0,1,1,.48.76.76,0,0,1,.45.66,4.11,4.11,0,0,1-.18.9c-.12.45-.27,1-.48,1.53s-.45,1.14-.69,1.8a15.27,15.27,0,0,1-.78,1.71,11.43,11.43,0,0,1-.75,1.29c-.24.36-.48.51-.66.51a4.73,4.73,0,0,1-.84-.09,4,4,0,0,1-.9-.27,3.17,3.17,0,0,1-.69-.51A1.15,1.15,0,0,1,37,8.4,5.34,5.34,0,0,1,37.11,7.44Zm16.23,16V2l.09-.09a1.84,1.84,0,0,1,.18-.12,1,1,0,0,1,.21-.12L54,1.62h3.81l.6.6v7c0,.12.12.24.33.36l.45.24c.78.3,1.65.57,2.55.84s1.86.57,2.79.87,1.89.66,2.79,1a21.41,21.41,0,0,1,2.49,1.26c.21.15.36.27.39.36a1.49,1.49,0,0,1,0,.45,4,4,0,0,1-.18.87,6,6,0,0,1-.45,1.35,5.57,5.57,0,0,1-.66,1.26,1,1,0,0,1-.75.54.38.38,0,0,1-.18,0c-1.47-.66-3-1.32-4.44-2A41.36,41.36,0,0,0,59,15a2.07,2.07,0,0,1-.3.15c-.21.09-.3.18-.3.27v11l-.42.42H53.61c-.12,0-.21-.09-.24-.27s-.06-.3-.06-.33ZM84.81,2.61s0,0,.06.09.09.09.12.12a2,2,0,0,1,.15.21.3.3,0,0,1,.06.18V20.4c0,.15.12.24.33.24h.36a6.59,6.59,0,0,0,2.19-.48,20,20,0,0,0,2.55-1.26c.84-.51,1.74-1.08,2.61-1.71S95,15.93,95.79,15.3,97.32,14,98,13.47s1.2-1.08,1.62-1.47h.3a1.16,1.16,0,0,1,.72.36,5.67,5.67,0,0,1,.66.93,3.88,3.88,0,0,1,.54,1.05,2.38,2.38,0,0,1,.21.87,3.13,3.13,0,0,1-1.2,2,25.36,25.36,0,0,1-3,2.49c-1.23.84-2.58,1.71-4,2.55s-2.88,1.62-4.29,2.31-2.64,1.23-3.75,1.65a8,8,0,0,1-2.46.63,1.81,1.81,0,0,1-.81-.27,5.58,5.58,0,0,1-1-.66,4.77,4.77,0,0,1-.87-.87,1.36,1.36,0,0,1-.36-.81V2.61Zm20.4,22.59.6-.69h4.59a.46.46,0,0,0,.18-.09l.21-.21c.06-.09.15-.15.21-.24a.27.27,0,0,0,.09-.15V9.6H115V27.81s0,.06-.09.09-.09.09-.09.12l-.24.09a.46.46,0,0,1-.18.09h-8.58l-.6-.6Zm41-2.16V22.8l.21-.3h3.81c.06,0,.12,0,.21-.15l.18-.36a1.84,1.84,0,0,0,.15-.36c0-.12.06-.18.06-.21V16a.46.46,0,0,0-.09-.18.88.88,0,0,0-.12-.24.41.41,0,0,1-.09-.12c-.06,0-.09-.06-.12-.06l-.21.06-.18.12c-.12.12-.33.33-.63.6s-.6.6-1,.93l-1,.87c-.33.3-.54.51-.66.6-.3.3-.78.75-1.44,1.29s-1.38,1.17-2.13,1.77A24.88,24.88,0,0,1,141,23.19a3.82,3.82,0,0,1-1.77.63,1.67,1.67,0,0,1-.84-.33,5.09,5.09,0,0,1-.93-.87,5.93,5.93,0,0,1-.75-1,2.24,2.24,0,0,1-.3-.9c0-.12.18-.33.51-.6a14.44,14.44,0,0,1,1.29-1c.54-.39,1.14-.75,1.77-1.17s1.26-.78,1.86-1.17,1.14-.72,1.62-1.05a10,10,0,0,0,1-.75c.15-.12.36-.33.69-.66s.66-.66,1-1,.72-.69,1-1,.57-.54.69-.69a.53.53,0,0,1,0-.18v-.21a.83.83,0,0,0-.09-.48c-.06-.09-.24-.12-.54-.12h-9l-.42-.42V6.3H150l.39-.48v-4l.42-.39h3.78s.06,0,.09.09.09.09.12.12.06.12.12.21A.46.46,0,0,1,155,2V5.4a.86.86,0,0,0,.24.48c.15.24.27.33.36.33h5.19s.06,0,.18.09a1.3,1.3,0,0,1,.21.12s.09.06.12.12l.09.06v3.6s0,.06-.09.12l-.12.09a1.3,1.3,0,0,1-.21.12c-.12.06-.15.09-.18.09H156c-.15,0-.3.09-.51.3a.87.87,0,0,0-.3.48V24.81a1.21,1.21,0,0,1-.21.66,6,6,0,0,1-.57.66,3.73,3.73,0,0,1-.69.51,1.81,1.81,0,0,1-.72.18h-5.79a.75.75,0,0,1-.72-.45,4.58,4.58,0,0,1-.27-1,4.93,4.93,0,0,1-.06-1.14c0-.36,0-.66,0-.84ZM168,22.71a1.24,1.24,0,0,1,0-.3c0-.12.06-.18.21-.21a39.71,39.71,0,0,0,5.43-1.56,31.37,31.37,0,0,0,4.77-2.19,32.15,32.15,0,0,0,4.29-3,40.54,40.54,0,0,0,4.11-3.87,5.86,5.86,0,0,0,.69-1l.81-1.44a9.8,9.8,0,0,1,.84-1.23,1.18,1.18,0,0,1,.87-.54,1.1,1.1,0,0,1,.78.54,12.83,12.83,0,0,1,.78,1.26,11,11,0,0,1,.6,1.41,4.36,4.36,0,0,1,.24,1,5.15,5.15,0,0,1-1.26,3A21.72,21.72,0,0,1,188,17.91a48.76,48.76,0,0,1-4.38,3.21,51,51,0,0,1-4.8,2.82,34.51,34.51,0,0,1-4.44,2,10.78,10.78,0,0,1-3.3.72,1.51,1.51,0,0,1-1-.51,6.14,6.14,0,0,1-.93-1.17,7.66,7.66,0,0,1-.72-1.23c-.21-.39-.33-.63-.39-.72A1,1,0,0,1,168,22.71Zm1-17.1V5.4a4.16,4.16,0,0,0,.51-.63,9.45,9.45,0,0,1,.72-.9,5,5,0,0,1,.87-.75,1.59,1.59,0,0,1,.9-.33.68.68,0,0,1,.21,0h.21c.81.6,1.62,1.2,2.43,1.83s1.59,1.26,2.37,1.95a6.62,6.62,0,0,0,.48.51,5.66,5.66,0,0,1,.6.6c.21.18.36.33.51.48a1.07,1.07,0,0,1,.21.21V9l-2.82,2.82h-.78a2.89,2.89,0,0,0-.42-.39c-.24-.18-.45-.39-.69-.6s-.45-.42-.66-.6-.36-.33-.45-.42a7.41,7.41,0,0,0-1-.75c-.45-.3-.93-.66-1.41-1.05a9.38,9.38,0,0,1-1.26-1.14,1.75,1.75,0,0,1-.57-1C169,5.76,169,5.7,169,5.61Zm35.07,17.64,2.22-1c.9-.42,1.89-.9,2.91-1.41a25,25,0,0,0,2.91-1.77,11.71,11.71,0,0,0,2.25-2.1,3.84,3.84,0,0,0,.87-2.34,1.48,1.48,0,0,0-.09-.45.33.33,0,0,0-.33-.24H198.6l-.09-.12c0-.06-.09-.12-.12-.18a1.77,1.77,0,0,0-.12-.24,1,1,0,0,0-.06-.18v-3c0-.06.12-.18.33-.36A1.62,1.62,0,0,1,199,9.6h19.8a1.68,1.68,0,0,1,.72.21c.3.18.57.36.87.57a5.14,5.14,0,0,1,.75.66,1,1,0,0,1,.3.66,1.13,1.13,0,0,1,0,.3,32,32,0,0,1-2.1,4.71,22.79,22.79,0,0,1-2.79,4,20.72,20.72,0,0,1-3.57,3.3,24.42,24.42,0,0,1-4.53,2.58l-.33.12a5.66,5.66,0,0,1-.54.18l-.54.18-.39.12h-.21a1.83,1.83,0,0,1-1-.42,6,6,0,0,1-1.05-.93,7.2,7.2,0,0,1-.84-1.11,2,2,0,0,1-.36-1C203.19,23.7,203.49,23.52,204.06,23.25ZM201.15,6.12a.68.68,0,0,1-.15-.3V3a1.26,1.26,0,0,0,.06-.15.83.83,0,0,1,.15-.24s.06-.09.09-.12l.09-.09h17.22s0,0,.06.09.09.09.12.12a.83.83,0,0,1,.15.24A1.26,1.26,0,0,0,219,3V6c0,.09-.09.21-.33.36a1.14,1.14,0,0,1-.48.24H201.81l-.18-.06a1.77,1.77,0,0,0-.24-.12C201.33,6.36,201.27,6.27,201.15,6.12Zm37,8.49a.57.57,0,0,0-.24-.45.89.89,0,0,0-.45-.15h-.12c-.45.21-1,.45-1.71.78s-1.47.69-2.25,1-1.62.6-2.4.84a6.9,6.9,0,0,1-2.19.39,1.49,1.49,0,0,1-.9-.39,4.68,4.68,0,0,1-.81-.9,7.92,7.92,0,0,1-.54-1.14,3.63,3.63,0,0,1-.21-1l1-.45c.63-.3,1.44-.66,2.4-1.08s2-.9,3.21-1.41,2.25-1,3.3-1.47S238.17,8.31,239,8a8.87,8.87,0,0,0,1.44-.75,35.73,35.73,0,0,0,3.54-2.73c1.11-1,2.19-2,3.27-3.06h.6a1.61,1.61,0,0,1,.54.39,8.23,8.23,0,0,1,.93.87c.33.3.6.63.87.9a5.22,5.22,0,0,1,.45.45,1,1,0,0,1,0,.3,1.76,1.76,0,0,1-.42.93q-.45.54-1.08,1.17c-.45.39-.93.81-1.47,1.2s-1,.81-1.53,1.17-1,.69-1.38,1-.72.48-.93.63l-.42.6V26.22l-.09.18a.72.72,0,0,1-.09.21l-.09.12c-.06.06-.09.09-.12.09h-4.41l-.39-.42ZM258,22.71a1.24,1.24,0,0,1,0-.3c0-.12.06-.18.21-.21a39.71,39.71,0,0,0,5.43-1.56,31.37,31.37,0,0,0,4.77-2.19,32.15,32.15,0,0,0,4.29-3,40.54,40.54,0,0,0,4.11-3.87,5.86,5.86,0,0,0,.69-1l.81-1.44a9.8,9.8,0,0,1,.84-1.23,1.18,1.18,0,0,1,.87-.54,1.1,1.1,0,0,1,.78.54,12.83,12.83,0,0,1,.78,1.26,11,11,0,0,1,.6,1.41,4.36,4.36,0,0,1,.24,1,5.15,5.15,0,0,1-1.26,3A21.72,21.72,0,0,1,278,17.91a48.76,48.76,0,0,1-4.38,3.21,51,51,0,0,1-4.8,2.82,34.51,34.51,0,0,1-4.44,2,10.78,10.78,0,0,1-3.3.72,1.51,1.51,0,0,1-1-.51,6.14,6.14,0,0,1-.93-1.17,7.66,7.66,0,0,1-.72-1.23c-.21-.39-.33-.63-.39-.72A1,1,0,0,1,258,22.71Zm1-17.1V5.4a4.16,4.16,0,0,0,.51-.63,9.45,9.45,0,0,1,.72-.9,5,5,0,0,1,.87-.75,1.59,1.59,0,0,1,.9-.33.68.68,0,0,1,.21,0h.21c.81.6,1.62,1.2,2.43,1.83s1.59,1.26,2.37,1.95a6.62,6.62,0,0,0,.48.51,5.66,5.66,0,0,1,.6.6c.21.18.36.33.51.48a1.07,1.07,0,0,1,.21.21V9l-2.82,2.82h-.78a2.89,2.89,0,0,0-.42-.39c-.24-.18-.45-.39-.69-.6s-.45-.42-.66-.6-.36-.33-.45-.42a7.41,7.41,0,0,0-1-.75c-.45-.3-.93-.66-1.41-1.05a9.38,9.38,0,0,1-1.26-1.14,1.75,1.75,0,0,1-.57-1C259,5.76,259,5.7,259,5.61Zm38.22-3s0,0,.06.09.09.09.12.12a2,2,0,0,1,.15.21.3.3,0,0,1,.06.18V20.4c0,.15.12.24.33.24h.36a6.59,6.59,0,0,0,2.19-.48A20,20,0,0,0,303,18.9c.84-.51,1.74-1.08,2.61-1.71s1.74-1.26,2.55-1.89,1.53-1.26,2.19-1.83,1.2-1.08,1.62-1.47h.3a1.16,1.16,0,0,1,.72.36,5.67,5.67,0,0,1,.66.93,3.88,3.88,0,0,1,.54,1.05,2.38,2.38,0,0,1,.21.87,3.13,3.13,0,0,1-1.2,2,25.36,25.36,0,0,1-3,2.49c-1.23.84-2.58,1.71-4.05,2.55s-2.88,1.62-4.29,2.31-2.64,1.23-3.75,1.65a8,8,0,0,1-2.46.63,1.81,1.81,0,0,1-.81-.27,5.58,5.58,0,0,1-1.05-.66A4.77,4.77,0,0,1,293,25a1.36,1.36,0,0,1-.36-.81V2.61Zm24.15,8.49a1,1,0,0,1,.48-.75A5.45,5.45,0,0,1,323,9.81a9.53,9.53,0,0,1,1.14-.33,6.2,6.2,0,0,1,.72-.09c.27,0,.54.27.87.84s.6,1.17.9,1.86a18.21,18.21,0,0,1,.75,2,5.05,5.05,0,0,1,.3,1.23.85.85,0,0,1-.42.72,3.13,3.13,0,0,1-1,.54,7.42,7.42,0,0,1-1.08.33,6.59,6.59,0,0,1-.81.12,1,1,0,0,1-.6-.12c-.12-.06-.21-.24-.33-.51s-.21-.51-.39-1-.39-1-.6-1.53-.42-1-.6-1.5-.33-.78-.42-1S321.36,11.22,321.36,11.1ZM326,24.72c.39-.3.93-.63,1.56-1s1.35-.87,2.13-1.38,1.53-1.05,2.25-1.59a24.08,24.08,0,0,0,2-1.56,9.64,9.64,0,0,0,1.26-1.32,5.89,5.89,0,0,0,.54-1.14c.24-.51.48-1.14.75-1.83s.54-1.38.81-2.13.54-1.41.75-2,.45-1.11.63-1.5.27-.6.33-.6.12,0,.21,0a3.09,3.09,0,0,0,.6.21c.27.09.6.18.9.3l.9.27a6.14,6.14,0,0,1,.6.21,2.27,2.27,0,0,1,.54.27.68.68,0,0,1,.27.54,9.24,9.24,0,0,1-.66,3.12,22.78,22.78,0,0,1-1.8,3.81A38,38,0,0,1,338,21.27,35.64,35.64,0,0,1,335,24.78a17.88,17.88,0,0,1-3.21,2.49,6,6,0,0,1-3,1c-.15,0-.27,0-.39,0A1.22,1.22,0,0,1,328,28l-2.58-2.61s0,0,0-.09v-.18S325.59,25,326,24.72ZM328.38,9.3a.92.92,0,0,1,.42-.72,5.56,5.56,0,0,1,2.13-.69,5.55,5.55,0,0,1,.78-.09.66.66,0,0,1,.51.21,1.3,1.3,0,0,1,.36.51,2.09,2.09,0,0,1,.24.6,4.13,4.13,0,0,0,.18.48c0,.12.12.33.24.63s.24.63.36,1,.24.66.36,1,.21.51.24.63a1,1,0,0,0,0,.24v.27a2.91,2.91,0,0,1,0,.51c0,.18-.15.3-.39.39-.51.21-1,.39-1.41.57A3.43,3.43,0,0,1,331,15c-.27,0-.45,0-.54-.15a1.35,1.35,0,0,1-.27-.48c-.06-.18-.21-.48-.36-.93s-.36-.93-.54-1.44-.39-1-.57-1.47-.27-.78-.33-1A1.13,1.13,0,0,1,328.38,9.3Zm21.69,13.32c.48-.3,1.05-.63,1.68-1l1.8-1c.57-.3,1-.51,1.26-.69s.87-.63,1.47-1.11,1.32-1.08,2.07-1.71,1.5-1.35,2.25-2.1a29,29,0,0,0,2.1-2.28,17.22,17.22,0,0,0,1.5-2.25,4.25,4.25,0,0,0,.6-2l-.09-.18a.64.64,0,0,0-.12-.21.53.53,0,0,0-.12-.15L364.41,8H352.8a1.29,1.29,0,0,1-.45-.24q-.36-.22-.36-.36V4a.58.58,0,0,1,.15-.33.57.57,0,0,1,.27-.27c.39,0,1-.06,1.83-.06s1.74,0,2.79,0,2.13,0,3.27,0,2.22,0,3.27,0,2,0,2.82-.06h2.52a2.49,2.49,0,0,1,.81.18,7.16,7.16,0,0,1,1,.48,4.18,4.18,0,0,1,.81.63,1.12,1.12,0,0,1,.33.72.38.38,0,0,1,0,.18c-.39.87-.78,1.65-1.14,2.37s-.75,1.41-1.11,2.1-.72,1.35-1.11,2-.78,1.38-1.23,2.13a3.81,3.81,0,0,1-.33.51,1.05,1.05,0,0,0-.09.48c0,.12,0,.24,0,.33a.71.71,0,0,0,.18.27l1,1,1.5,1.5c.54.51,1.05,1,1.53,1.5s.78.78,1,1a2.65,2.65,0,0,0,.42.42c.18.21.36.42.57.63l.51.6a1.74,1.74,0,0,1,.3.36A1.81,1.81,0,0,1,374,23a1.75,1.75,0,0,1,.15.39c0,.18-.09.45-.39.78a11.72,11.72,0,0,1-1.05,1.08,14.55,14.55,0,0,1-1.2.93,2.26,2.26,0,0,1-.84.42.6.6,0,0,1-.39-.12,1.31,1.31,0,0,1-.33-.27c-.06-.09-.24-.3-.51-.63s-.54-.69-.87-1.08-.63-.75-.9-1.08-.45-.54-.51-.63-.36-.36-.69-.72-.72-.69-1.11-1.08l-1.08-1.08-.72-.72h-.21a2.24,2.24,0,0,0-1.17.57c-.48.36-1.05.81-1.68,1.35l-2,1.8c-.72.63-1.41,1.23-2.13,1.8a13.52,13.52,0,0,1-2.07,1.35,3.57,3.57,0,0,1-1.8.57h-.21l-.15,0-2.79-2.79a.57.57,0,0,1-.12-.24.85.85,0,0,1-.09-.18A2.27,2.27,0,0,1,350.07,22.62Zm30.3.09a1.24,1.24,0,0,1,0-.3c0-.12.06-.18.21-.21A39.71,39.71,0,0,0,386,20.64a31.37,31.37,0,0,0,4.77-2.19,32.15,32.15,0,0,0,4.29-3,40.54,40.54,0,0,0,4.11-3.87,5.86,5.86,0,0,0,.69-1l.81-1.44a9.8,9.8,0,0,1,.84-1.23,1.18,1.18,0,0,1,.87-.54,1.1,1.1,0,0,1,.78.54A12.83,12.83,0,0,1,404,9.18a11,11,0,0,1,.6,1.41,4.36,4.36,0,0,1,.24,1,5.15,5.15,0,0,1-1.26,3,21.72,21.72,0,0,1-3.18,3.33A48.76,48.76,0,0,1,396,21.12a51,51,0,0,1-4.8,2.82,34.51,34.51,0,0,1-4.44,2,10.78,10.78,0,0,1-3.3.72,1.51,1.51,0,0,1-1-.51,6.14,6.14,0,0,1-.93-1.17,7.66,7.66,0,0,1-.72-1.23c-.21-.39-.33-.63-.39-.72A1,1,0,0,1,380.37,22.71Zm1-17.1V5.4a4.16,4.16,0,0,0,.51-.63,9.45,9.45,0,0,1,.72-.9,5,5,0,0,1,.87-.75,1.59,1.59,0,0,1,.9-.33.68.68,0,0,1,.21,0h.21c.81.6,1.62,1.2,2.43,1.83s1.59,1.26,2.37,1.95a6.62,6.62,0,0,0,.48.51,5.66,5.66,0,0,1,.6.6c.21.18.36.33.51.48a1.07,1.07,0,0,1,.21.21V9l-2.82,2.82h-.78a2.89,2.89,0,0,0-.42-.39c-.24-.18-.45-.39-.69-.6s-.45-.42-.66-.6-.36-.33-.45-.42a7.41,7.41,0,0,0-1-.75c-.45-.3-.93-.66-1.41-1.05a9.38,9.38,0,0,1-1.26-1.14,1.75,1.75,0,0,1-.57-1C381.36,5.76,381.39,5.7,381.39,5.61Zm30.69,11.28a14.32,14.32,0,0,1,1.53-2.4c.54-.69,1.05-1.26,1.5-1.74s.69-.84.69-1.05a5,5,0,0,0-.42-1.59c-.3-.69-.63-1.44-1-2.19s-.75-1.5-1.11-2.22-.66-1.26-.84-1.68a.92.92,0,0,1,0-.3,1,1,0,0,1,.42-.81,5.05,5.05,0,0,1,1.05-.6,6.21,6.21,0,0,1,1.2-.39,4.57,4.57,0,0,1,1-.12c.18,0,.36.15.57.45a8.33,8.33,0,0,1,.66,1.11c.24.45.48.93.72,1.47s.48,1.08.69,1.59a12,12,0,0,1,.57,1.35,5.9,5.9,0,0,0,.39.84.86.86,0,0,0,.81.42,3.82,3.82,0,0,0,2.1-.63,22.12,22.12,0,0,0,2-1.41c.66-.51,1.32-1,2-1.47a4.86,4.86,0,0,1,2.07-.9.3.3,0,0,1,.3.09,1.42,1.42,0,0,1,.3.3,2.5,2.5,0,0,1,.24.36c.09.12.12.21.15.24l.24.42c.12.18.24.39.36.6s.24.39.36.6.21.33.24.39,0,.21,0,.3a.83.83,0,0,1-.36.66,3.4,3.4,0,0,1-.66.42c-.33.15-.87.45-1.65.84l-2.49,1.26-2.46,1.26c-.75.39-1.29.69-1.62.84-.57.3-1.17.66-1.77,1.05a16.17,16.17,0,0,0-1.77,1.35,6.4,6.4,0,0,0-1.32,1.68,3.78,3.78,0,0,0-.54,2,2.1,2.1,0,0,0,.63,1.62,4.31,4.31,0,0,0,1.53.9,9.58,9.58,0,0,0,1.89.36c.66.06,1.26.09,1.74.09a18.4,18.4,0,0,0,2.22-.15l2.19-.27,2.16-.27a17.51,17.51,0,0,1,2.19-.15h.36c.21,0,.3.06.3.21v4c0,.24-.21.45-.63.57a6.14,6.14,0,0,1-1.41.3c-.51.06-1,.09-1.41.12h-.75c-1,.06-1.83.12-2.55.15s-1.53.06-2.37.06a26.82,26.82,0,0,1-3.72-.27,11.86,11.86,0,0,1-3.54-1,6.77,6.77,0,0,1-2.61-2.13,6,6,0,0,1-1-3.57A6.52,6.52,0,0,1,412.08,16.89Zm27.75-6.54c.3-2.4.63-4.77,1-7.14,0-.06.06-.24.09-.48a.67.67,0,0,1,.33-.51c.09,0,.27,0,.54,0h.54c.21,0,.48,0,.72,0h.78a3,3,0,0,1,.78.12,3.1,3.1,0,0,1,.63.33,1.16,1.16,0,0,0,0,.27v.24A16.16,16.16,0,0,1,445,6c-.15,1-.36,2-.57,3s-.39,1.95-.57,2.94a19.51,19.51,0,0,0-.24,3v.45c0,.24,0,.39,0,.45a.56.56,0,0,0,.18.21h.12a.64.64,0,0,0,.45-.21.66.66,0,0,1,.51-.21A1.69,1.69,0,0,1,446,16a1.38,1.38,0,0,1,.48,1.05,5.32,5.32,0,0,1-.39,2,13,13,0,0,0-.63,1.92,12.65,12.65,0,0,0-.39,2.25,7.68,7.68,0,0,1-.33,1.83,2.36,2.36,0,0,1-.84,1.26,3.05,3.05,0,0,1-2,.48H441a1.77,1.77,0,0,1-.66-.93,8.87,8.87,0,0,1-.45-1.62c-.12-.6-.21-1.26-.3-2s-.12-1.35-.15-2,0-1.2-.06-1.71V17.52A57.16,57.16,0,0,1,439.83,10.35Zm8.13,9a4.67,4.67,0,0,1,1.5-1.56,6.7,6.7,0,0,1,2-.87,13.45,13.45,0,0,1,1.92-.45,12.26,12.26,0,0,1,1.47-.24c.39-.06.6-.15.6-.24V12a.83.83,0,0,0-.24-.45c-.18-.18-.3-.27-.36-.33s-.51,0-1,0-1,0-1.44-.06-1,0-1.44-.06a6.31,6.31,0,0,1-1-.06.52.52,0,0,0-.21,0l-.48-.09-.51-.18c-.15-.09-.21-.18-.21-.3V7h6l.18-.09a1.78,1.78,0,0,0,.24-.12.63.63,0,0,0,.18-.12c.09,0,.12-.06.12-.09V2.4l.12-.09c.06,0,.12-.09.18-.09s.12-.09.21-.15A1,1,0,0,0,456,2h3.21l.15.06a.83.83,0,0,1,.24.15s.09.06.12.09l.09.09V5.82a.7.7,0,0,0,.3.6,1.12,1.12,0,0,0,.63.21A5.52,5.52,0,0,0,462,6.51a7.74,7.74,0,0,1,1.2-.12c.12,0,.3,0,.51,0a.35.35,0,0,1,.33.39v3a.5.5,0,0,1-.33.54,2.5,2.5,0,0,1-.75.18c-.3,0-.66,0-1,0a3.63,3.63,0,0,0-1,.18,1.78,1.78,0,0,0-.81.51,1.6,1.6,0,0,0-.3,1.08c0,.78,0,1.5.06,2.19s.09,1.47.15,2.28a2.2,2.2,0,0,0,1.08,1.32,17.76,17.76,0,0,0,1.83,1,10.63,10.63,0,0,1,1.74,1,1.63,1.63,0,0,1,.78,1.38,1.9,1.9,0,0,1-.21.78,4.7,4.7,0,0,1-.57,1,3.94,3.94,0,0,1-.72.84,1.27,1.27,0,0,1-.72.33,1.22,1.22,0,0,1-.72-.24,3,3,0,0,1-.6-.51,4.61,4.61,0,0,0-.57-.51,1.2,1.2,0,0,0-.72-.21h-.18a.79.79,0,0,1-.21,0,5.67,5.67,0,0,1-2.4,3,7.79,7.79,0,0,1-3.69.84,13,13,0,0,1-2.4-.24,7.08,7.08,0,0,1-2.19-.84A4.57,4.57,0,0,1,448,24.18a4.29,4.29,0,0,1-.6-2.37A4.3,4.3,0,0,1,448,19.38Zm3.72,2.76a.82.82,0,0,0,.72.48h2.19a.54.54,0,0,0,.45-.21,1.83,1.83,0,0,0,.36-.48,1.24,1.24,0,0,0,.15-.57,3.46,3.46,0,0,0,.06-.48q0-.76-.54-.9a3.68,3.68,0,0,0-1.17-.18c-.24,0-.51,0-.81.06a8,8,0,0,0-.81.21,1.42,1.42,0,0,0-.63.45,1.07,1.07,0,0,0-.27.78A1.9,1.9,0,0,0,451.68,22.14Zm27.93-7a7.24,7.24,0,0,1,1-1.2,11,11,0,0,1,1.32-1,8.63,8.63,0,0,0,1.29-1,5.16,5.16,0,0,0,1-1.14,2.54,2.54,0,0,0,.39-1.35,1.87,1.87,0,0,0-.33-1.11,2.34,2.34,0,0,0-.84-.78,4.47,4.47,0,0,0-1.11-.42A5.08,5.08,0,0,0,481.2,7a2.58,2.58,0,0,0-1.17.27,9.38,9.38,0,0,0-1.08.57l-1,.57a2.42,2.42,0,0,1-1,.24,1.35,1.35,0,0,1-.75-.21,4.7,4.7,0,0,1-.63-.51,5.41,5.41,0,0,1-.54-.6,4.24,4.24,0,0,0-.42-.51.53.53,0,0,0,0-.18V6.42a1.74,1.74,0,0,1,.66-1.23,6,6,0,0,1,1.56-1.08,14,14,0,0,1,1.83-.78A4.64,4.64,0,0,1,480,3h4a4.47,4.47,0,0,1,2.19.54,5.14,5.14,0,0,1,1.74,1.35A6.28,6.28,0,0,1,489,6.78a6.09,6.09,0,0,1,.39,2.16V9.6a2.64,2.64,0,0,1-.06.51,1.48,1.48,0,0,1-.15.48,4.56,4.56,0,0,1-.42.63,12.34,12.34,0,0,1-1.32,1.44c-.45.45-.9.87-1.35,1.29s-.9.84-1.32,1.29a8,8,0,0,0-1.2,1.56,1.92,1.92,0,0,1-.36.36.66.66,0,0,1-.45.24H480a.78.78,0,0,1-.51-.27c-.21-.21-.3-.36-.3-.51A2.82,2.82,0,0,1,479.61,15.12Zm-1.35,6.15a3.17,3.17,0,0,1,.78-1,3.52,3.52,0,0,1,1.08-.63,3.18,3.18,0,0,1,1.29-.24,2.9,2.9,0,0,1,1.23.24,3.68,3.68,0,0,1,1.11.63,2.71,2.71,0,0,1,.75,1,2.49,2.49,0,0,1,.3,1.23,3.05,3.05,0,0,1-.27,1.32,2.71,2.71,0,0,1-.75,1,2.78,2.78,0,0,1-1.08.63,3.64,3.64,0,0,1-1.29.21,3.92,3.92,0,0,1-1.32-.21,3,3,0,0,1-1.08-.63,2.71,2.71,0,0,1-.75-1A3.05,3.05,0,0,1,478,22.5,2.84,2.84,0,0,1,478.26,21.27Z"/></svg>