<svg id="レイヤー_1" data-name="レイヤー 1" xmlns="http://www.w3.org/2000/svg" viewBox="0 0 75 36"><defs><style>.cls-1{fill:#fff;}</style></defs><polygon points="63 36 0 36 0 0 63 0 75 18 63 36"/><path class="cls-1" d="M22.15,18.59v4c0,1.63-.61,2.15-2.21,2.15-.36,0-.8,0-1.13,0l-.42-2c.32,0,.72,0,1.07,0s.6-.08.6-.43v-3l-1.75.53-.45-2.13,2.2-.51V14.44H18.12V12.49h1.94V9.77h2.09v2.72h1.4v1.95h-1.4v2.18l1.46-.4L23.77,18ZM33,22.29v2h-10v-2Zm-6.64-1.11H24.27V10.35h7.66V21.18H29.79v-.49H26.33Zm0-8.85v2.19h3.46V12.33Zm3.46,6.39V16.43H26.33v2.29Z"/><path class="cls-1" d="M43.32,15.53h5v9.21H46.19v-.58H35.67V22.27H46.19V20.72H36.81V18.86h9.38V17.4H35.83V15.53h5.3V9.74h2.19Zm-5.22-.17a14,14,0,0,0-2.33-3.89l1.76-1A15.37,15.37,0,0,1,40,14.41Zm8.14.06-1.78-.93a29.43,29.43,0,0,0,2.5-4l2.12,1A38.65,38.65,0,0,1,46.24,15.42Z"/></svg>