<svg id="レイヤー_1" data-name="レイヤー 1" xmlns="http://www.w3.org/2000/svg" viewBox="0 0 410.04 38.11"><path d="M18.49,21.33s-.9,9.76-12.59,13.23H.81C.18,22.41,0,8.1,0,8.1H6.3s0,9.27-.23,20.16A19.91,19.91,0,0,0,18.49,21.33Zm15.26-8.06h3.92a41.39,41.39,0,0,0,.94,8.19S33.75,21.78,33.75,13.27Zm14.13,3.29h5.26c0,18-16.1,18-16.1,18S47.88,28.84,47.88,16.56Zm-8.15-3.29h4a43.13,43.13,0,0,0,.9,8.19S39.73,21.78,39.73,13.27ZM65.21,34.56A28.07,28.07,0,0,0,80.05,12.64c-6.43.27-10.75.27-10.75.27V8.32s7.92,0,17.32.32c0,8-2,13.45-4.81,17.28,2.56-.41,6.93-.14,11.88,4.23l-4.55,4.41a35.38,35.38,0,0,0-8.55-7.16A22.32,22.32,0,0,1,65.21,34.56Zm49.63-18.9s-4.27-2.39-7.83-2.43l0-4.68C115.2,9,114.84,15.66,114.84,15.66Zm13.95-.86s4.05,11.79-20.38,18.81L107,27.49C124.47,22.68,128.79,14.8,128.79,14.8Zm38.47,8A14.47,14.47,0,0,1,159.93,15h-5.31c-5.13,7.92-11.07,7.83-11.07,7.83a48.12,48.12,0,0,0,5-7.83h-4.22v-2.2h5.35c.41-.86.77-1.76,1.17-2.7-3.24.27-4.23.27-4.23.27l-.22-4.82s.36,0,2.38-.09A24.34,24.34,0,0,0,152.69,0l4.36,2.34a10.8,10.8,0,0,1-2.11,2.88c1.75-.09,3.82-.18,6.34-.27l-.77-1.31,4.32-2.07s.32.68,3.11,7.16l-3.51,1.71c-.32-.59-.59-1.08-.86-1.53-2.34.22-4.41.45-6.16.58a32.91,32.91,0,0,1-1.53,3.29h10l1.8-1.8,1.8,1.8V15h-6.75A68.06,68.06,0,0,0,170.05,18Zm-1.35,8.6c-10.93,9.72-20.42,4.9-20.42,4.9a35.45,35.45,0,0,0,16.87-8.14ZM148.1,27.94s6.92-1.08,11.65-5.85l3.55,3.24C155,32.53,148.1,27.94,148.1,27.94Zm2.29-6.84a16.62,16.62,0,0,0,7.06-4.9l3.6,3.24C155.7,25.33,150.39,21.1,150.39,21.1ZM189,31.72s1.27,0,3.42.09c-.27-9.36-.36-16.51-.44-20.11H189.9C188.33,38.11,181,38.11,181,38.11s2.43-7.2,3.1-26.41h-2.47V9.49h2.56c.05-2.65.09-5.49.09-8.59h5.85c0,3.1,0,6-.18,8.59h2A1.85,1.85,0,0,0,192,9h5.71s0,9.72-.31,28.17c-4.55.63-8.33.81-8.33.81Zm19.8,5.18v-1h-3.73v1h-4.77C199.84,18,199.71,14,199.71,14h5.71v.77h3.74V14h4.77c.45,18.81.58,22.91.58,22.91Zm0-3.2L209.11,17h-3.73l-.23,16.69Zm29.57-9.76c.13-1.13.22-2.39.31-3.87h-9.58v-1.8h9.63V12.73h-9.72v-1.8h9.72V7.29h6.3v3.64h2.52l1.8-1.8,1.75,1.8v1.8h-6.07v5.54h2.56l1.8-1.8,1.8,1.8v1.8H245c-.05,1.84-.19,3.51-.36,4.95,1.88.45,3.64,1,5.12,1.44L248.35,32c-1.62-.67-3.28-1.3-4.9-1.89-1.57,3.38-4.41,4.5-9.36,4.5-7.15,0-6.25-9.81-.13-10.62A20.52,20.52,0,0,1,238.41,23.94Zm-.9,4.41a14.6,14.6,0,0,0-3.06-.5c-2.7,0-2.74,3.38,0,3.38C235.49,31.23,236.66,30.78,237.51,28.35ZM279,15a62.61,62.61,0,0,1-12.82,1.71v-6.3c10.22,0,20.57-.54,20.57-.54-6.35,9-14.45,17.23-3.7,24.66C266.49,34.56,270.22,21.33,279,15Zm10.71,4.59a10,10,0,0,0-2.29-3,3.93,3.93,0,0,1-.81,3.64A10.29,10.29,0,0,0,284,17.05l2.07-2.29a5.62,5.62,0,0,1,1.17,1.48l1.93-2.16A3.79,3.79,0,0,1,289.75,19.62Zm29.71,3.91c-.37-4.86-5.09-8-11.17-5.31-4.58,2.07-5.12,9.36-2.07,9.72,2.25.27,4.28-3.28,5-9l5.71.72c-1,8.06-5.49,13.46-9.59,13.46-4.4,0-7.15-4-7.15-8.33A13.44,13.44,0,0,1,312,11.34c9-1.13,14.53,6.52,13.5,13.77-1,6.84-5.63,10.35-13.73,9.45C315.9,32.89,319.9,29.34,319.46,23.53Zm27.62-6.21s-4.27,3.87-9.67-1l3.06-4.45A37,37,0,0,0,347.08,17.32Zm-.85,3.74s4.64,6.93-4.59,15.43L337.86,32A40.89,40.89,0,0,0,346.23,21.06Zm2.12-11.84s-4.77,3.11-9.45-2.61l3.6-3.87A38.14,38.14,0,0,0,348.35,9.22ZM351,19.8h5.4c-1.22,18.18-9.63,17.86-9.63,17.86S351,32.31,351,19.8Zm3.6-12.65h-5.76V5h8.28c-.36-2.48-.45-4.1-.45-4.1h6.16s0,1.4-.22,4.1h4.45l1.8-1.8,1.8,1.8v2.2H360A16,16,0,0,1,356,12.91c2.16-.13,4.81-.31,7.87-.54-.31-.85-.67-1.75-1-2.7l3.38-1.26c2.25,4.59,4.27,9.18,4.27,9.18l-4,1.53s-.45-1-1.08-2.65c-9,1.21-15.07,1.89-15.07,1.89l-1.17-5.09s1.08,0,3.1-.18A30.51,30.51,0,0,0,354.6,7.15Zm6.84,13.68.49,14.67h-4.59s0-1.44.28-14.67Zm11.7,8.51s-.68,2.61-2.21,7.47c0,0-2.56,0-7.51-.32-.41-13.72-.54-16.69-.54-16.69h4.63s0,1.17-.18,11.11h.36c.32-1.8.54-2.83.54-2.83ZM410,32s-.68,2.61-4.64,2.61c-5.22,0-2.52-6.44-3.69-10.26-.72-2.3-3.06-3-5.31-2.25a25.26,25.26,0,0,0-5.21,2.34c-.05,3.28-.05,6.75.09,10.17h-3.51c-.27-2.3-.55-4.77-.77-7.25a25.71,25.71,0,0,0-3,2.93L382.72,28a39.24,39.24,0,0,1,3.92-5.27c-.27-3.73-.5-7.24-.63-10h-3.6v-1.8h3.51l-.13-3.64h6.29s-.13,1.35-.31,3.64h1l1.8-1.8,1.8,1.8v1.8h-4.72c-.14,1.58-.22,3.47-.31,5.58a15.09,15.09,0,0,1,5.44-2.74c6.34-1.4,9.94,2.79,10.17,7.42C407.34,29.07,404.68,32.67,410,32Z"/></svg>