<svg id="レイヤー_1" data-name="レイヤー 1" xmlns="http://www.w3.org/2000/svg" viewBox="0 0 259.58 27.1"><path d="M13.15,15.17s-.64,6.94-9,9.4H.58C.13,15.93,0,5.76,0,5.76H4.48s0,6.59-.16,14.33A14.14,14.14,0,0,0,13.15,15.17ZM20.8,9.44h2.78a28.94,28.94,0,0,0,.68,5.82S20.8,15.49,20.8,9.44Zm10.05,2.34h3.74c0,12.79-11.45,12.79-11.45,12.79S30.85,20.51,30.85,11.78ZM25.06,9.44h2.81a30.66,30.66,0,0,0,.64,5.82S25.06,15.49,25.06,9.44ZM40,24.57A20,20,0,0,0,50.53,9c-4.58.19-7.65.19-7.65.19V5.92s5.63,0,12.32.22c0,5.67-1.44,9.57-3.42,12.29,1.82-.29,4.92-.1,8.44,3L57,24.57a25.07,25.07,0,0,0-6.08-5.08A15.9,15.9,0,0,1,40,24.57ZM72.06,11.13A14.4,14.4,0,0,0,66.5,9.41l0-3.33C72.32,6.4,72.06,11.13,72.06,11.13Zm9.92-.6s2.88,8.38-14.49,13.37l-1-4.35C78.91,16.13,82,10.53,82,10.53Zm24.16,5.69a10.31,10.31,0,0,1-5.21-5.56H97.15c-3.65,5.63-7.87,5.56-7.87,5.56a34.44,34.44,0,0,0,3.55-5.56h-3V9.09h3.81c.29-.61.55-1.25.83-1.92-2.3.19-3,.19-3,.19L91.3,3.94s.25,0,1.69-.07A17.4,17.4,0,0,0,95.78,0l3.1,1.66a7.56,7.56,0,0,1-1.5,2.05c1.24-.06,2.72-.13,4.51-.19l-.55-.93,3.08-1.47s.22.48,2.2,5.09l-2.49,1.21c-.23-.41-.42-.76-.61-1.08-1.66.16-3.14.32-4.38.41-.36.87-.71,1.63-1.09,2.34h7.13l1.28-1.28,1.28,1.28v1.57h-4.8a49.44,49.44,0,0,0,5.19,2.17Zm-1,6.11c-7.77,6.92-14.52,3.49-14.52,3.49a25.16,25.16,0,0,0,12-5.79ZM92.51,19.87a16.68,16.68,0,0,0,8.29-4.16l2.53,2.3C97.44,23.13,92.51,19.87,92.51,19.87ZM94.14,15a11.9,11.9,0,0,0,5-3.49l2.56,2.3C97.92,18,94.14,15,94.14,15Zm24.29,7.55s.9,0,2.44.06c-.2-6.65-.26-11.74-.33-14.3H119c-1.12,18.78-6.3,18.78-6.3,18.78S114.46,22,115,8.32h-1.76V6.75H115c0-1.89.06-3.9.06-6.11h4.16c0,2.21,0,4.26-.13,6.11h1.44a1.57,1.57,0,0,0,0-.32h4.07s0,6.91-.23,20c-3.23.45-5.92.58-5.92.58Zm14.08,3.68v-.71h-2.65v.71h-3.4C126.11,12.83,126,10,126,10h4.06v.55h2.66V10h3.39c.32,13.38.41,16.29.41,16.29Zm0-2.27.19-11.88h-2.65L129.89,24ZM150.34,17c.09-.8.16-1.69.22-2.75h-6.82V13h6.85V9.06h-6.91V7.78h6.91V5.18h4.48v2.6h1.79l1.28-1.28,1.25,1.28V9.06h-4.32V13h1.83l1.28-1.28L159.46,13v1.28H155a34.19,34.19,0,0,1-.26,3.52c1.35.32,2.6.71,3.65,1l-1,3.94c-1.15-.48-2.34-.93-3.49-1.34-1.12,2.4-3.14,3.2-6.66,3.2-5.08,0-4.44-7-.09-7.56A15.86,15.86,0,0,1,150.34,17Zm-.64,3.14a10.19,10.19,0,0,0-2.18-.35c-1.92,0-2,2.4,0,2.4C148.26,22.21,149.09,21.89,149.7,20.16ZM176,10.69a44.56,44.56,0,0,1-9.12,1.21V7.42c7.27,0,14.63-.38,14.63-.38-4.52,6.4-10.28,12.25-2.63,17.53C167.1,24.57,169.76,15.17,176,10.69ZM183.65,14A7.49,7.49,0,0,0,182,11.84a2.78,2.78,0,0,1-.58,2.59,7.19,7.19,0,0,0-1.86-2.3l1.48-1.63a4,4,0,0,1,.83,1.05L183.26,10A2.68,2.68,0,0,1,183.65,14Zm17.92,2.78C201.31,13.28,198,11,193.63,13c-3.26,1.47-3.65,6.65-1.47,6.91,1.6.19,3-2.33,3.58-6.4l4.07.51c-.74,5.73-3.91,9.57-6.82,9.57-3.13,0-5.09-2.82-5.09-5.92a9.58,9.58,0,0,1,8.39-9.57,8.51,8.51,0,0,1,9.6,9.79c-.74,4.87-4,7.36-9.76,6.72C199,23.39,201.89,20.86,201.57,16.73ZM218,12.32s-3,2.75-6.88-.7l2.17-3.17A26.33,26.33,0,0,0,218,12.32ZM217.41,15s3.3,4.93-3.27,11l-2.68-3.17A29.08,29.08,0,0,0,217.41,15Zm1.5-8.41s-3.39,2.21-6.72-1.86L214.75,2A27.36,27.36,0,0,0,218.91,6.56Zm1.89,7.52h3.84c-.86,12.93-6.85,12.7-6.85,12.7S220.8,23,220.8,14.08Zm2.56-9h-4.1V3.52h5.89c-.25-1.76-.32-2.91-.32-2.91h4.39s0,1-.16,2.91h3.16l1.28-1.28,1.28,1.28V5.09h-7.55a11.36,11.36,0,0,1-2.91,4.09c1.54-.09,3.42-.22,5.6-.38-.22-.61-.48-1.25-.7-1.92l2.4-.9c1.6,3.27,3,6.53,3,6.53l-2.82,1.09s-.32-.74-.77-1.89c-6.4.87-10.72,1.34-10.72,1.34l-.83-3.61s.77,0,2.21-.13A22.34,22.34,0,0,0,223.36,5.09Zm4.86,9.72.36,10.44h-3.27s0-1,.19-10.44Zm8.32,6s-.48,1.86-1.56,5.31c0,0-1.83,0-5.35-.22-.29-9.76-.38-11.87-.38-11.87h3.29s0,.83-.12,7.9h.25c.23-1.28.39-2,.39-2Zm23,1.86s-.48,1.85-3.29,1.85c-3.71,0-1.79-4.57-2.63-7.29-.51-1.63-2.17-2.11-3.77-1.6a18.25,18.25,0,0,0-3.71,1.66c0,2.34,0,4.8.06,7.23h-2.5c-.19-1.63-.38-3.39-.54-5.15a18.86,18.86,0,0,0-2.11,2.08l-.93-1.6a28.74,28.74,0,0,1,2.78-3.74c-.19-2.66-.35-5.15-.44-7.1h-2.56V7.78h2.49l-.09-2.6h4.48s-.1,1-.23,2.6h.74l1.28-1.28,1.28,1.28V9.06h-3.36c-.1,1.11-.16,2.46-.23,4a10.83,10.83,0,0,1,3.88-1.95c4.51-1,7.07,2,7.23,5.28C257.66,20.67,255.78,23.23,259.58,22.72Z"/></svg>