<svg id="レイヤー_1" data-name="レイヤー 1" xmlns="http://www.w3.org/2000/svg" viewBox="0 0 271.83 101.4"><defs><style>.cls-1{fill:#f0908a;}</style></defs><path class="cls-1" d="M83.44,4.55s-2.48,0-5.6-.14c-.14,6.55-.42,20-.42,26.6l-2.55.18c-.88-9.77-1-30.88-1-30.88C79.28,0,83.44,0,83.44,0Z"/><path class="cls-1" d="M95,30.14s1.86-6.16,1.51-22H101v.45h1V8.16h4.41s0,1.5-.24,21.35c-3.37.38-6.16.49-6.16.49V26.15s.77,0,2.38.07l-.11-4.69H99.79C98,29.33,95,30.14,95,30.14Zm5.08-10.33h2.14c0-1.47,0-2.73-.07-3.88h-1.55C100.49,17.36,100.31,18.66,100.1,19.81Zm.67-5.6h1.36c0-1.71-.07-3-.1-3.88h-1.09C100.91,11.73,100.87,13,100.77,14.21Zm9.52-3.32a19.49,19.49,0,0,0-3.12-5.5s3.64-.94,6.76,4Zm9.52,1.85h4.09s0,1.75-.24,18.13H120.3c0-.38,0-.77,0-1.15h-9a11,11,0,0,0,0,1.15h-3.36c-.35-14.91-.45-18.13-.45-18.13h4.06s0,1.54-.21,15.26h9C119.91,15.54,119.81,12.74,119.81,12.74Zm0,.84a26.31,26.31,0,0,1-2.14,5.18,16.54,16.54,0,0,1,2.14,2.52l-2.77,2A17,17,0,0,0,116,21.32,10.27,10.27,0,0,1,111.34,25a29,29,0,0,0,3.18-5.64,24.65,24.65,0,0,0-3-3.29,7.83,7.83,0,0,1,3.88,1.12,41,41,0,0,0,1.68-5.84Zm-1.33-5.11-3.75,1.3A19.24,19.24,0,0,0,112,4.09S115.71,3.36,118.48,8.47Zm2.69-5.39,3.85,1c-2.06,6.06-7.35,6.17-7.35,6.17A17.14,17.14,0,0,0,121.17,3.08Z"/><path class="cls-1" d="M144.87,28.6H141c-.49-9.45-.63-21.21-.63-21.21h4.9S145.22,18.2,144.87,28.6Zm7.45-7c-6.19,0-6.51-6.44-6.51-6.44a13,13,0,0,0,6.51,1.54Z"/><path class="cls-1" d="M183.05,18.31s-.7,7.59-9.8,10.29h-4c-.48-9.45-.62-20.58-.62-20.58h4.9s0,7.21-.18,15.68A15.48,15.48,0,0,0,183.05,18.31Z"/><path class="cls-1" d="M208.5,31.19c-5.39.31-9.56.31-9.56.31V27s2.48,0,5.6.1c.14-6.54.42-20,.42-26.6l2.56-.18C208.39,10.12,208.5,31.19,208.5,31.19Z"/><path class="cls-1" d="M0,61.57s4.83-3.43,5.88-11.66l4.76,1.16C8.51,62.27,0,61.57,0,61.57Zm19.88-15V48h-4.3c-.18,4.38-.39,10.54-.39,15.58h-3c-.6-5.43-.91-11.38-1.05-15.58H2.31v-1.4H11l-.11-4.23h4.9s-.1,1.68-.21,4.23h1.47l1.4-1.4Z"/><path class="cls-1" d="M40.29,48.9A15.69,15.69,0,0,0,34.2,47l0-3.64C40.57,43.72,40.29,48.9,40.29,48.9Zm10.85-.67s3.15,9.17-15.86,14.63L34.2,58.1C47.78,54.36,51.14,48.23,51.14,48.23Z"/><path class="cls-1" d="M65.94,47s2.87,0,14,.24C80,64.75,67.13,63.6,67.13,63.6s6.69-2.94,7.81-13.34l-9,.32Zm13.69-2.52H67V43.08h9.84l1.4-1.39,1.4,1.39Z"/><path class="cls-1" d="M93.17,50.23s8-.42,14.11-8.51l3.92,2.94a17.36,17.36,0,0,1-5,4.59c-.17,2.31-.52,7.7-.52,14.35h-2.73c-.67-5.25-1.09-9.84-1.33-12.64A16,16,0,0,1,93.17,50.23Z"/><path class="cls-1" d="M133.39,48.9a15.69,15.69,0,0,0-6.1-1.89l0-3.64C133.67,43.72,133.39,48.9,133.39,48.9Zm10.85-.67s3.15,9.17-15.86,14.63l-1.09-4.76C140.88,54.36,144.24,48.23,144.24,48.23Z"/><path class="cls-1" d="M176.75,53.31s-.7,7.59-9.8,10.29H163c-.5-9.45-.63-20.58-.63-20.58h4.9s0,7.21-.18,15.68A15.48,15.48,0,0,0,176.75,53.31Z"/><path class="cls-1" d="M191.41,47h3.05a32.24,32.24,0,0,0,.73,6.37S191.41,53.66,191.41,47Zm11,2.56h4.09c0,14-12.53,14-12.53,14S202.41,59.15,202.41,49.6ZM196.07,47h3.08a33.55,33.55,0,0,0,.7,6.37S196.07,53.66,196.07,47Z"/><path class="cls-1" d="M218.68,63.6a21.85,21.85,0,0,0,11.55-17.05c-5,.21-8.37.21-8.37.21V43.19s6.16,0,13.48.25c0,6.19-1.57,10.46-3.75,13.44,2-.32,5.4-.11,9.25,3.29L237.3,63.6A27.48,27.48,0,0,0,230.65,58,17.39,17.39,0,0,1,218.68,63.6Z"/><path class="cls-1" d="M260.78,48.9A15.62,15.62,0,0,0,254.69,47l0-3.64C261.06,43.72,260.78,48.9,260.78,48.9Zm10.86-.67s3.15,9.17-15.86,14.63l-1.09-4.76C268.28,54.36,271.64,48.23,271.64,48.23Z"/><path class="cls-1" d="M94.33,90.09s1.19,2.24,5.53,2.24c9.2,0,11.23-1.29,11.23-1.29l.39,4.9s-1.72,1.29-11.62,1.29C92.54,97.23,94.33,90.09,94.33,90.09Zm14.59-6.47a85.42,85.42,0,0,0-12.35-.77V79a97.83,97.83,0,0,1,13,.77ZM110.36,82,112,80.15a3.93,3.93,0,0,1,.91,1.19l1.5-1.71a3,3,0,0,1,.46,4.34A7.78,7.78,0,0,0,113,81.66a3.09,3.09,0,0,1-.6,2.83A8.09,8.09,0,0,0,110.36,82Z"/><path class="cls-1" d="M139.2,92.75c0,2-.11,4.69-.21,8.12h-4.06c-.11-2-.18-3.78-.25-5.39a14.09,14.09,0,0,1-9.76,4.59,25.7,25.7,0,0,0,6.72-7.32h-6.38V91h9.28c0-.56,0-1-.07-1.37a11.82,11.82,0,0,1-2.38.32,15.41,15.41,0,0,0,3.71-3.29h-2v.45h-4.06c-.14-1.89-.21-3.57-.29-5h-4.2V80.43h4.1c0-.66,0-1.26-.07-1.71h-3.36c-.35-3.93-.46-4.76-.46-4.76h4.41v.49h5.29l-.31-2.07h4.44s0,.24-.14,2.07h5.18V74h3.71c.39,3.92.49,4.76.49,4.76H144.1s0-.28.14-2.56H129.78c0,.35,0,.7,0,1.16h4.3s0,1.05-.07,3.11h11.69l1.4-1.4,1.37,1.4v1.72h-5.18A10.82,10.82,0,0,1,142,85h1.19l1.4-1.4L146,85V86.7h-5.43a10.12,10.12,0,0,1-3.15,2.06h1.82V91h6.44l1.4-1.4,1.37,1.4v1.71ZM137,85a11.65,11.65,0,0,0,1.3-2.83H134c0,.84,0,1.78-.07,2.83ZM149.1,96.57l-2.38,3.5C140,97.16,140,92.93,140,92.93A34,34,0,0,0,149.1,96.57Z"/><path class="cls-1" d="M174.72,72.42a42.15,42.15,0,0,1-.24,4.79h4.69v-.52h3.71c.35,14.38.45,24.22.45,24.22-3.36.38-6.16.49-6.16.49V97.55l1.75,0c0-1.61,0-3.85.07-6.65l-3.64,1.58a37.72,37.72,0,0,0-3-7.18c-2.35,5.22-5.81,7-7.39,7.6l-.11,8h-3.71c-.38-14.39-.49-24.22-.49-24.22h4.45v.52h4.52c.1-1.47.17-3.08.17-4.79Zm-5.25,6.51h-4.34c0,2.45,0,6.93-.14,13.3C166.25,90.62,168.6,86.66,169.47,78.93Zm4.76,0A24.43,24.43,0,0,1,173,83.79a13.55,13.55,0,0,1,6,5.08c0-2.84.07-6.16.14-9.94Z"/></svg>