<svg id="レイヤー_1" data-name="レイヤー 1" xmlns="http://www.w3.org/2000/svg" viewBox="0 0 645 7.79"><defs><style>.cls-1{fill:#efe4dc;}</style></defs><polygon class="cls-1" points="645 0.89 644.47 0 644.4 0.04 644.4 1.25 645 0.89"/><path class="cls-1" d="M0,2.65,4.47,0,5,.89l-5,3ZM0,6.49,10.94,0l.53.89L0,7.69Zm5.77.41L17.4,0l.53.89L6.29,7.79Zm6.46,0L23.87,0l.52.89L12.76,7.79Zm6.46,0L30.33,0l.53.89L19.22,7.79Zm6.47,0L36.8,0l.52.89L25.69,7.79Zm6.46,0L43.26,0l.53.89L32.15,7.79Zm6.47,0L49.73,0l.52.89L38.62,7.79Zm6.46,0L56.19,0l.53.89L45.08,7.79ZM51,6.9,62.65,0l.53.89L51.55,7.79Zm6.46,0L69.12,0l.53.89L58,7.79ZM64,6.9,75.58,0l.53.89L64.48,7.79Zm6.46,0L82.05,0l.53.89L70.94,7.79Zm6.47,0L88.51,0,89,.89,77.41,7.79Zm6.46,0L95,0l.53.89L83.87,7.79Zm6.47,0L101.44,0l.53.89L90.33,7.79Zm6.46,0L107.91,0l.53.89L96.8,7.79Zm6.47,0L114.37,0l.53.89-11.64,6.9Zm6.46,0L120.84,0l.52.89-11.63,6.9Zm6.46,0L127.3,0l.53.89-11.64,6.9Zm6.47,0L133.77,0l.52.89-11.63,6.9Zm6.46,0L140.23,0l.53.89-11.64,6.9Zm6.47,0L146.7,0l.52.89-11.63,6.9Zm6.46,0L153.16,0l.53.89-11.64,6.9Zm6.47,0L159.62,0l.53.89-11.63,6.9Zm6.46,0L166.09,0l.53.89L155,7.79Zm6.47,0L172.55,0l.53.89-11.63,6.9Zm6.46,0L179,0l.53.89-11.64,6.9Zm6.47,0L185.48,0l.53.89-11.64,6.9Zm6.46,0L192,0l.53.89-11.64,6.9Zm6.47,0L198.41,0l.53.89L187.3,7.79Zm6.46,0L204.88,0l.52.89-11.63,6.9Zm6.47,0L211.34,0l.53.89-11.64,6.9Zm6.46,0L217.81,0l.52.89L206.7,7.79Zm6.46,0L224.27,0l.53.89-11.64,6.9Zm6.47,0L230.74,0l.52.89-11.63,6.9Zm6.46,0L237.2,0l.53.89-11.64,6.9Zm6.47,0L243.66,0l.53.89-11.63,6.9Zm6.46,0L250.13,0l.53.89L239,7.79Zm6.47,0L256.59,0l.53.89-11.63,6.9Zm6.46,0L263.06,0l.53.89L252,7.79Zm6.47,0L269.52,0l.53.89-11.63,6.9Zm6.46,0L276,0l.53.89-11.64,6.9Zm6.47,0L282.45,0l.53.89-11.64,6.9Zm6.46,0L288.92,0l.53.89-11.64,6.9Zm6.47,0L295.38,0l.53.89-11.64,6.9Zm6.46,0L301.85,0l.52.89-11.63,6.9Zm6.46,0L308.31,0l.53.89L297.2,7.79Zm6.47,0L314.78,0l.52.89-11.63,6.9Zm6.46,0L321.24,0l.53.89-11.64,6.9Zm6.47,0L327.7,0l.53.89L316.6,7.79Zm6.46,0L334.17,0l.53.89-11.64,6.9Zm6.47,0L340.63,0l.53.89-11.63,6.9Zm6.46,0L347.1,0l.53.89L336,7.79Zm6.47,0L353.56,0l.53.89-11.63,6.9Zm6.46,0L360,0l.53.89-11.64,6.9Zm6.47,0L366.49,0l.53.89-11.63,6.9Zm6.46,0L373,0l.53.89-11.64,6.9Zm6.47,0L379.42,0l.53.89-11.64,6.9Zm6.46,0L385.89,0l.53.89-11.64,6.9Zm6.47,0L392.35,0l.53.89-11.64,6.9Zm6.46,0L398.82,0l.52.89-11.63,6.9Zm6.46,0L405.28,0l.53.89-11.64,6.9Zm6.47,0L411.75,0l.52.89-11.63,6.9Zm6.46,0L418.21,0l.53.89L407.1,7.79Zm6.47,0L424.67,0l.53.89-11.63,6.9Zm6.46,0L431.14,0l.53.89L420,7.79Zm6.47,0L437.6,0l.53.89L426.5,7.79Zm6.46,0L444.07,0l.53.89L433,7.79Zm6.47,0L450.53,0l.53.89-11.64,6.9Zm6.46,0L457,0l.53.89-11.64,6.9Zm6.47,0L463.46,0l.53.89-11.64,6.9Zm6.46,0L469.93,0l.52.89-11.63,6.9Zm6.46,0L476.39,0l.53.89-11.64,6.9Zm6.47,0L482.86,0l.52.89-11.63,6.9Zm6.46,0L489.32,0l.53.89-11.64,6.9Zm6.47,0L495.79,0l.52.89-11.63,6.9Zm6.46,0L502.25,0l.53.89-11.64,6.9Zm6.47,0L508.72,0l.52.89-11.63,6.9Zm6.46,0L515.18,0l.53.89-11.64,6.9Zm6.47,0L521.64,0l.53.89-11.63,6.9Zm6.46,0L528.11,0l.53.89L517,7.79Zm6.47,0L534.57,0l.53.89-11.63,6.9Zm6.46,0L541,0l.53.89-11.64,6.9Zm6.47,0L547.5,0l.53.89-11.64,6.9Zm6.46,0L554,0l.53.89-11.64,6.9Zm6.47,0L560.43,0l.53.89-11.64,6.9Zm6.46,0L566.9,0l.52.89-11.63,6.9Zm6.47,0L573.36,0l.53.89-11.64,6.9Zm6.46,0L579.83,0l.52.89-11.63,6.9Zm6.46,0L586.29,0l.53.89-11.64,6.9Zm6.47,0L592.76,0l.52.89-11.63,6.9Zm6.46,0L599.22,0l.53.89-11.64,6.9Zm6.47,0L605.68,0l.53.89-11.63,6.9Zm6.46,0L612.15,0l.53.89L601,7.79Zm6.47,0L618.61,0l.53.89-11.63,6.9Zm6.46,0L625.08,0l.53.89L614,7.79Zm6.47,0L631.54,0l.53.89-11.64,6.9Zm6.46,0L638,0l.53.89L626.9,7.79Z"/><polygon class="cls-1" points="4.47 0 0 2.65 0 3.86 5 0.89 4.47 0"/><polygon class="cls-1" points="10.94 0 0 6.49 0 7.69 11.47 0.89 10.94 0"/><rect class="cls-1" x="5.08" y="3.38" width="13.53" height="1.04" transform="translate(-0.33 6.59) rotate(-30.67)"/><rect class="cls-1" x="11.55" y="3.38" width="13.53" height="1.04" transform="translate(0.57 9.88) rotate(-30.66)"/><rect class="cls-1" x="18.01" y="3.38" width="13.53" height="1.04" transform="translate(1.48 13.18) rotate(-30.66)"/><rect class="cls-1" x="24.48" y="3.38" width="13.53" height="1.04" transform="translate(2.38 16.48) rotate(-30.66)"/><rect class="cls-1" x="30.94" y="3.38" width="13.53" height="1.04" transform="translate(3.29 19.78) rotate(-30.66)"/><rect class="cls-1" x="37.41" y="3.38" width="13.53" height="1.04" transform="translate(4.19 23.07) rotate(-30.66)"/><rect class="cls-1" x="43.87" y="3.38" width="13.53" height="1.04" transform="translate(5.09 26.37) rotate(-30.67)"/><rect class="cls-1" x="50.34" y="3.38" width="13.53" height="1.04" transform="translate(6 29.67) rotate(-30.66)"/><rect class="cls-1" x="56.8" y="3.38" width="13.53" height="1.04" transform="translate(6.9 32.96) rotate(-30.66)"/><rect class="cls-1" x="63.27" y="3.38" width="13.53" height="1.04" transform="translate(7.81 36.26) rotate(-30.66)"/><rect class="cls-1" x="69.73" y="3.38" width="13.53" height="1.04" transform="translate(8.71 39.56) rotate(-30.66)"/><rect class="cls-1" x="76.2" y="3.38" width="13.53" height="1.04" transform="translate(9.61 42.86) rotate(-30.67)"/><rect class="cls-1" x="82.66" y="3.38" width="13.53" height="1.04" transform="translate(10.52 46.15) rotate(-30.67)"/><rect class="cls-1" x="89.12" y="3.38" width="13.53" height="1.04" transform="translate(11.42 49.45) rotate(-30.66)"/><rect class="cls-1" x="95.59" y="3.38" width="13.53" height="1.04" transform="translate(12.33 52.74) rotate(-30.66)"/><rect class="cls-1" x="102.05" y="3.38" width="13.53" height="1.04" transform="translate(13.23 56.04) rotate(-30.66)"/><rect class="cls-1" x="108.52" y="3.38" width="13.53" height="1.04" transform="translate(14.13 59.34) rotate(-30.66)"/><rect class="cls-1" x="114.98" y="3.38" width="13.53" height="1.04" transform="translate(15.04 62.64) rotate(-30.67)"/><rect class="cls-1" x="121.45" y="3.38" width="13.53" height="1.04" transform="translate(15.94 65.94) rotate(-30.67)"/><rect class="cls-1" x="127.91" y="3.38" width="13.53" height="1.04" transform="translate(16.84 69.23) rotate(-30.66)"/><rect class="cls-1" x="134.38" y="3.38" width="13.53" height="1.04" transform="translate(17.75 72.53) rotate(-30.66)"/><rect class="cls-1" x="140.84" y="3.38" width="13.53" height="1.04" transform="translate(18.65 75.82) rotate(-30.66)"/><rect class="cls-1" x="147.31" y="3.38" width="13.53" height="1.04" transform="translate(19.56 79.12) rotate(-30.66)"/><rect class="cls-1" x="153.77" y="3.38" width="13.53" height="1.04" transform="translate(20.46 82.42) rotate(-30.67)"/><rect class="cls-1" x="160.24" y="3.38" width="13.53" height="1.04" transform="translate(21.37 85.72) rotate(-30.67)"/><rect class="cls-1" x="166.7" y="3.38" width="13.53" height="1.04" transform="translate(22.27 89.01) rotate(-30.66)"/><rect class="cls-1" x="173.16" y="3.38" width="13.53" height="1.04" transform="translate(23.17 92.31) rotate(-30.66)"/><rect class="cls-1" x="179.63" y="3.38" width="13.53" height="1.04" transform="translate(24.08 95.61) rotate(-30.66)"/><rect class="cls-1" x="186.09" y="3.38" width="13.53" height="1.04" transform="translate(24.98 98.9) rotate(-30.66)"/><rect class="cls-1" x="192.56" y="3.38" width="13.53" height="1.04" transform="translate(25.89 102.2) rotate(-30.67)"/><rect class="cls-1" x="199.02" y="3.38" width="13.53" height="1.04" transform="translate(26.79 105.5) rotate(-30.67)"/><rect class="cls-1" x="205.49" y="3.38" width="13.53" height="1.04" transform="translate(27.69 108.79) rotate(-30.66)"/><rect class="cls-1" x="211.95" y="3.38" width="13.53" height="1.04" transform="translate(28.6 112.09) rotate(-30.66)"/><rect class="cls-1" x="218.42" y="3.38" width="13.53" height="1.04" transform="translate(29.5 115.39) rotate(-30.66)"/><rect class="cls-1" x="224.88" y="3.38" width="13.53" height="1.04" transform="translate(30.4 118.68) rotate(-30.66)"/><rect class="cls-1" x="231.35" y="3.38" width="13.53" height="1.04" transform="translate(31.31 121.99) rotate(-30.67)"/><rect class="cls-1" x="237.81" y="3.38" width="13.53" height="1.04" transform="translate(32.21 125.28) rotate(-30.67)"/><rect class="cls-1" x="244.28" y="3.38" width="13.53" height="1.04" transform="translate(33.12 128.57) rotate(-30.66)"/><rect class="cls-1" x="250.74" y="3.38" width="13.53" height="1.04" transform="translate(34.02 131.87) rotate(-30.66)"/><rect class="cls-1" x="257.21" y="3.38" width="13.53" height="1.04" transform="translate(34.92 135.17) rotate(-30.66)"/><rect class="cls-1" x="263.67" y="3.38" width="13.53" height="1.04" transform="translate(35.83 138.47) rotate(-30.66)"/><rect class="cls-1" x="270.13" y="3.38" width="13.53" height="1.04" transform="translate(36.73 141.77) rotate(-30.67)"/><rect class="cls-1" x="276.6" y="3.38" width="13.53" height="1.04" transform="translate(37.64 145.07) rotate(-30.67)"/><rect class="cls-1" x="283.06" y="3.38" width="13.53" height="1.04" transform="translate(38.54 148.36) rotate(-30.66)"/><rect class="cls-1" x="289.53" y="3.38" width="13.53" height="1.04" transform="translate(39.44 151.65) rotate(-30.66)"/><rect class="cls-1" x="295.99" y="3.38" width="13.53" height="1.04" transform="translate(40.35 154.95) rotate(-30.66)"/><rect class="cls-1" x="302.46" y="3.38" width="13.53" height="1.04" transform="translate(41.25 158.25) rotate(-30.66)"/><rect class="cls-1" x="308.92" y="3.38" width="13.53" height="1.04" transform="translate(42.16 161.55) rotate(-30.67)"/><rect class="cls-1" x="315.39" y="3.38" width="13.53" height="1.04" transform="translate(43.06 164.85) rotate(-30.67)"/><rect class="cls-1" x="321.85" y="3.38" width="13.53" height="1.04" transform="translate(43.96 168.14) rotate(-30.66)"/><rect class="cls-1" x="328.32" y="3.38" width="13.53" height="1.04" transform="translate(44.87 171.44) rotate(-30.66)"/><rect class="cls-1" x="334.78" y="3.38" width="13.53" height="1.04" transform="translate(45.77 174.73) rotate(-30.66)"/><rect class="cls-1" x="341.25" y="3.38" width="13.53" height="1.04" transform="translate(46.67 178.03) rotate(-30.66)"/><rect class="cls-1" x="347.71" y="3.38" width="13.53" height="1.04" transform="translate(47.58 181.33) rotate(-30.67)"/><rect class="cls-1" x="354.18" y="3.38" width="13.53" height="1.04" transform="translate(48.49 184.63) rotate(-30.67)"/><rect class="cls-1" x="360.64" y="3.38" width="13.53" height="1.04" transform="translate(49.39 187.92) rotate(-30.66)"/><rect class="cls-1" x="367.1" y="3.38" width="13.53" height="1.04" transform="translate(50.29 191.22) rotate(-30.66)"/><rect class="cls-1" x="373.57" y="3.38" width="13.53" height="1.04" transform="translate(51.19 194.51) rotate(-30.66)"/><rect class="cls-1" x="380.03" y="3.38" width="13.53" height="1.04" transform="translate(52.1 197.81) rotate(-30.66)"/><rect class="cls-1" x="386.5" y="3.38" width="13.53" height="1.04" transform="translate(53.01 201.12) rotate(-30.67)"/><rect class="cls-1" x="392.96" y="3.38" width="13.53" height="1.04" transform="translate(53.91 204.4) rotate(-30.66)"/><rect class="cls-1" x="399.43" y="3.38" width="13.53" height="1.04" transform="translate(54.81 207.7) rotate(-30.66)"/><rect class="cls-1" x="405.89" y="3.38" width="13.53" height="1.04" transform="translate(55.71 211) rotate(-30.66)"/><rect class="cls-1" x="412.36" y="3.38" width="13.53" height="1.04" transform="translate(56.62 214.3) rotate(-30.66)"/><rect class="cls-1" x="418.82" y="3.38" width="13.53" height="1.04" transform="translate(57.53 217.6) rotate(-30.67)"/><rect class="cls-1" x="425.29" y="3.38" width="13.53" height="1.04" transform="translate(58.43 220.9) rotate(-30.67)"/><rect class="cls-1" x="431.75" y="3.38" width="13.53" height="1.04" transform="translate(59.33 224.19) rotate(-30.66)"/><rect class="cls-1" x="438.21" y="3.38" width="13.53" height="1.04" transform="translate(60.23 227.48) rotate(-30.66)"/><rect class="cls-1" x="444.68" y="3.38" width="13.53" height="1.04" transform="translate(61.14 230.79) rotate(-30.67)"/><rect class="cls-1" x="451.14" y="3.38" width="13.53" height="1.04" transform="translate(62.03 234.07) rotate(-30.66)"/><rect class="cls-1" x="457.61" y="3.38" width="13.53" height="1.04" transform="translate(62.95 237.38) rotate(-30.67)"/><rect class="cls-1" x="464.07" y="3.38" width="13.53" height="1.04" transform="translate(63.84 240.66) rotate(-30.66)"/><rect class="cls-1" x="470.54" y="3.38" width="13.53" height="1.04" transform="translate(64.76 243.98) rotate(-30.67)"/><rect class="cls-1" x="477" y="3.38" width="13.53" height="1.04" transform="matrix(0.86, -0.51, 0.51, 0.86, 65.66, 247.28)"/><rect class="cls-1" x="483.47" y="3.38" width="13.53" height="1.04" transform="translate(66.57 250.57) rotate(-30.67)"/><rect class="cls-1" x="489.93" y="3.38" width="13.53" height="1.04" transform="translate(67.47 253.87) rotate(-30.67)"/><rect class="cls-1" x="496.4" y="3.38" width="13.53" height="1.04" transform="translate(68.36 257.15) rotate(-30.66)"/><rect class="cls-1" x="502.86" y="3.38" width="13.53" height="1.04" transform="translate(69.28 260.46) rotate(-30.67)"/><rect class="cls-1" x="509.33" y="3.38" width="13.53" height="1.04" transform="translate(70.17 263.74) rotate(-30.66)"/><rect class="cls-1" x="515.79" y="3.38" width="13.53" height="1.04" transform="translate(71.09 267.06) rotate(-30.67)"/><rect class="cls-1" x="522.26" y="3.38" width="13.53" height="1.04" transform="translate(71.99 270.36) rotate(-30.67)"/><rect class="cls-1" x="528.72" y="3.38" width="13.53" height="1.04" transform="translate(72.88 273.63) rotate(-30.66)"/><rect class="cls-1" x="535.18" y="3.38" width="13.53" height="1.04" transform="matrix(0.86, -0.51, 0.51, 0.86, 73.8, 276.95)"/><rect class="cls-1" x="541.65" y="3.38" width="13.53" height="1.04" transform="translate(74.69 280.22) rotate(-30.66)"/><rect class="cls-1" x="548.11" y="3.38" width="13.53" height="1.04" transform="translate(75.61 283.54) rotate(-30.67)"/><rect class="cls-1" x="554.58" y="3.38" width="13.53" height="1.04" transform="translate(76.51 286.84) rotate(-30.67)"/><rect class="cls-1" x="561.04" y="3.38" width="13.53" height="1.04" transform="translate(77.41 290.14) rotate(-30.67)"/><rect class="cls-1" x="567.51" y="3.38" width="13.53" height="1.04" transform="translate(78.32 293.44) rotate(-30.67)"/><rect class="cls-1" x="573.97" y="3.38" width="13.53" height="1.04" transform="translate(79.21 296.71) rotate(-30.66)"/><rect class="cls-1" x="580.44" y="3.38" width="13.53" height="1.04" transform="translate(80.13 300.03) rotate(-30.67)"/><rect class="cls-1" x="586.9" y="3.38" width="13.53" height="1.04" transform="translate(81.02 303.3) rotate(-30.66)"/><rect class="cls-1" x="593.37" y="3.38" width="13.53" height="1.04" transform="translate(81.93 306.62) rotate(-30.67)"/><rect class="cls-1" x="599.83" y="3.38" width="13.53" height="1.04" transform="translate(82.84 309.92) rotate(-30.67)"/><rect class="cls-1" x="606.3" y="3.38" width="13.53" height="1.04" transform="translate(83.73 313.19) rotate(-30.66)"/><rect class="cls-1" x="612.76" y="3.38" width="13.53" height="1.04" transform="translate(84.65 316.51) rotate(-30.67)"/><rect class="cls-1" x="619.22" y="3.38" width="13.53" height="1.04" transform="translate(85.53 319.78) rotate(-30.66)"/><rect class="cls-1" x="625.69" y="3.38" width="13.53" height="1.04" transform="translate(86.45 323.11) rotate(-30.67)"/><polygon class="cls-1" points="633.36 7.79 644.4 1.25 644.4 0.04 632.84 6.9 633.36 7.79"/><polygon class="cls-1" points="639.83 7.79 644.4 5.08 644.4 3.88 639.3 6.9 639.83 7.79"/></svg>