<svg id="レイヤー_1" data-name="レイヤー 1" xmlns="http://www.w3.org/2000/svg" viewBox="0 0 434.5 90.96"><defs><style>.cls-1{fill:#f0908a;}</style></defs><path class="cls-1" d="M12.28,5.85s-3.19,0-7.2-.18c-.18,8.41-.54,25.74-.54,34.2l-3.28.22C.13,27.54,0,.41,0,.41,6.93,0,12.28,0,12.28,0Zm.5,32.89s2.39-7.92,1.94-28.26h5.71v.59h1.31v-.59h5.67s0,1.94-.32,27.45c-4.32.5-7.92.63-7.92.63v-5s1,0,3.06.09l-.13-6H18.9C16.65,37.71,12.78,38.74,12.78,38.74Zm6.53-13.27h2.74c0-1.89,0-3.51-.09-5H20C19.8,22.32,19.58,24,19.31,25.47Zm.85-7.2h1.76c-.05-2.21-.09-3.83-.14-5H20.39C20.34,15.07,20.3,16.74,20.16,18.27ZM32.4,14a25.22,25.22,0,0,0-4-7.06S33.08,5.71,37.08,12Zm12.24,2.39H49.9s0,2.25-.31,23.31H45.27c0-.5-.05-1-.05-1.49H33.66a14.84,14.84,0,0,0,0,1.49H29.29c-.44-19.17-.58-23.31-.58-23.31h5.22s0,2-.27,19.62H45.18C44.77,20,44.64,16.38,44.64,16.38Zm0,1.08a33.82,33.82,0,0,1-2.75,6.66,20.2,20.2,0,0,1,2.75,3.24l-3.56,2.52a22,22,0,0,0-1.39-2.48c-3.06,3.87-5.94,4.68-5.94,4.68a37,37,0,0,0,4.09-7.24A31.64,31.64,0,0,0,34,20.61a9.92,9.92,0,0,1,5,1.44,53.48,53.48,0,0,0,2.16-7.52Zm-1.71-6.57-4.82,1.66A24.74,24.74,0,0,0,34.6,5.26S39.37,4.32,42.93,10.89ZM46.39,4l5,1.3c-2.65,7.79-9.45,7.92-9.45,7.92A22.05,22.05,0,0,0,46.39,4Zm21.47,32.8h-5C62.19,24.61,62,9.49,62,9.49h6.3S68.31,23.4,67.86,36.76Zm9.58-9c-8,0-8.36-8.28-8.36-8.28a16.58,16.58,0,0,0,8.36,2Zm37.71-4.19s-.9,9.77-12.59,13.23H97.47c-.63-12.15-.81-26.46-.81-26.46H103s0,9.27-.23,20.16A19.86,19.86,0,0,0,115.15,23.53Zm21,16.56c-6.93.41-12.28.41-12.28.41V34.69s3.19,0,7.2.14c.18-8.42.54-25.74.54-34.2l3.28-.22C136,13,136.17,40.09,136.17,40.09Zm14.54-5.94s6.21-4.41,7.56-15l6.11,1.48C161.64,35.05,150.71,34.15,150.71,34.15Zm25.55-19.21v1.8h-5.53c-.23,5.62-.5,13.54-.5,20h-3.91c-.77-7-1.17-14.62-1.35-20H153.68v-1.8h11.2l-.14-5.45H171s-.13,2.16-.27,5.45h1.89l1.8-1.8Zm17.24,2.92s-4.27-2.38-7.83-2.43l.05-4.68C193.86,11.2,193.5,17.86,193.5,17.86ZM207.45,17s4.05,11.79-20.38,18.81l-1.4-6.12C203.13,24.88,207.45,17,207.45,17Zm11.84-1.58s3.69,0,18,.32c0,22.5-16.51,21-16.51,21s8.59-3.78,10-17.14l-11.56.4Zm17.59-3.24H220.64v-1.8h12.64l1.8-1.8,1.8,1.8Zm10.22,7.38S257.45,19,265.23,8.64l5,3.78a22.1,22.1,0,0,1-6.44,5.89c-.22,3-.67,9.9-.67,18.45h-3.51c-.86-6.75-1.39-12.64-1.71-16.24A20.59,20.59,0,0,1,247.1,19.57Zm44.5-1.71s-4.27-2.38-7.83-2.43l.05-4.68C292,11.2,291.6,17.86,291.6,17.86ZM305.55,17s4.05,11.79-20.38,18.81l-1.4-6.12C301.23,24.88,305.55,17,305.55,17Zm32.81,6.52s-.9,9.77-12.6,13.23h-5.09c-.63-12.15-.81-26.46-.81-26.46h6.3s0,9.27-.22,20.16A19.89,19.89,0,0,0,338.36,23.53Zm8.95-8h3.91a41,41,0,0,0,.95,8.19S347.31,24,347.31,15.48Zm14.13,3.28h5.27c0,18-16.11,18-16.11,18S361.44,31.05,361.44,18.76Zm-8.15-3.28h4a43.13,43.13,0,0,0,.9,8.19S353.29,24,353.29,15.48Zm21.88,21.28A28.09,28.09,0,0,0,390,14.85c-6.43.27-10.75.27-10.75.27V10.53s7.92,0,17.32.31c0,8-2,13.46-4.81,17.28,2.56-.4,6.93-.13,11.88,4.23l-4.55,4.41a35.3,35.3,0,0,0-8.55-7.15A22.34,22.34,0,0,1,375.17,36.76Zm45.13-18.9s-4.27-2.38-7.83-2.43l0-4.68C420.66,11.2,420.3,17.86,420.3,17.86ZM434.25,17s4.05,11.79-20.38,18.81l-1.4-6.12C429.93,24.88,434.25,17,434.25,17ZM162.72,83.8s-1,5.67-19,7.07v-5c2.34,0,4.59,0,6.66-.18,0-.63.05-1.62.05-3.2h-5.76v-2.2h5.76c0-.9,0-1.94,0-3.06H149.4a2.83,2.83,0,0,0,0,.58H145c-.45-10.35-.59-12.6-.59-12.6h5.22v.68h1V63.6h-6.79V61.39h6.84V60.18h3.87c0,.4,0,.81,0,1.21H158l1.8-1.8,1.8,1.8V63.6h-6.88c0,.81,0,1.57,0,2.34h1.49v-.68h4.32c.44,10.35.58,12.6.58,12.6h-5.22v-.58h-.94c0,1.12.09,2.16.09,3.06h2.51l1.81-1.8,1.75,1.8v2.2h-6c.05,1.17.05,2,.09,2.66A63.56,63.56,0,0,0,162.72,83.8Zm-18-26.37a29.14,29.14,0,0,0,12.59-5.22l2.84,4C148.77,62.52,144.68,57.43,144.68,57.43ZM150.53,75c0-.72,0-1.49,0-2.34h-1.08c0,.72,0,1.48,0,2.34Zm-.9-6.89c0,.63,0,1.4,0,2.34h1c0-.76.05-1.53.05-2.34Zm5.13,0c0,.81,0,1.58,0,2.34h1.26c0-.72,0-1.48,0-2.34ZM155.93,75c0-.63,0-1.4.09-2.34h-1.17c0,.85,0,1.62,0,2.34Zm15.34-9.86h5.67s0,7.79-.32,22.59c-4.09.63-7.56.81-7.56.81v-6.3s.95,0,2.61.09c-.18-6.43-.31-11.47-.36-14.35H170.1c-1.44,20.92-8.33,22.77-8.33,22.77s2-7.38,2.61-22.77H162.5V65.8h2c0-2,0-4,0-6.21h5.85q0,3.31-.14,6.21h1Zm45.85.59c.5,15,.63,25.2.63,25.2h-5.26s0-1.31,0-3.87h-20c0,1.26,0,2.52-.09,3.87h-4.27c-.5-15-.63-25.2-.63-25.2h5.26s0,6.57-.22,19.12h20c.05-4.23.14-10.62.27-19.12Zm-12.06-7.52c0,1.26,0,3.42,0,6.39h1.57v-.58h4.32c.5,10.71.63,18,.63,18h-5.26v-.59h-7.43v.59h-4.31c-.5-10.71-.59-18-.59-18h5.22v.58h1.26c-.09-2.88-.14-5.08-.14-6.39h-12.1V56H213.7l1.8-1.8,1.8,1.8v2.2Zm-4.27,21-.14-5.09H199c0,1.53,0,3.24-.14,5.09ZM199.08,72h1.53c-.09-1.85-.09-3.56-.13-5.13h-1.31C199.12,68.14,199.12,69.85,199.08,72Zm7.29,2.2h-1.49c0,1.58,0,3.29-.09,5.09h1.53C206.32,78,206.32,76.29,206.37,74.17ZM205,66.84c0,1.53,0,3.24,0,5.13h1.48l.14-5.13Zm42.84,24v-.54H236.34v.54h-5.22c-.5-21.1-.63-35.55-.63-35.55h6.17V56h11.42a4,4,0,0,0,0-.77h5.22c.45,21.15.58,35.55.58,35.55Zm0-2.74c0-1.89,0-4.68.05-8.46H236.47c0,2.61,0,5.44-.09,8.46ZM236.52,77.41h11.34c0-2.52,0-5.31.09-8.5H236.56C236.56,71.43,236.52,74.26,236.52,77.41Zm.09-10.71H248l.13-8.46H236.66C236.66,60.18,236.61,63,236.61,66.7Zm32.49-7.65a76.71,76.71,0,0,0,5.9,7.11s-3.65,2.16-10.22-2.52ZM269,86.64l-3.87-5c6.62-5.22,8.78-9.68,8.78-9.68S277.47,78.4,269,86.64Zm11.34-32.58,6.12,1.4c-.27,1.61-.63,3.1-1,4.45h14.35c-1.26,11.7-8.45,12.87-8.45,12.87s1.79-3.69,2.11-10.67H284.8c-3.59,10.4-9.22,10.67-9.22,10.67S278.64,66.12,280.35,54.06Zm10.17,11.47c-1.4,24.44-13.36,25.25-13.36,25.25s7.73-9.14,7.73-25.25ZM295,90.78c-7.7-8.06-4.64-14.49-4.64-14.49s2,4.36,8,9.45Z"/></svg>