<svg id="レイヤー_1" data-name="レイヤー 1" xmlns="http://www.w3.org/2000/svg" viewBox="0 0 220.73 101.08"><defs><style>.cls-1{fill:#f0908a;}</style></defs><path class="cls-1" d="M72.94,4.55s-2.48,0-5.6-.14c-.14,6.55-.42,20-.42,26.6l-2.55.18c-.88-9.77-1-30.87-1-30.87C68.78,0,72.94,0,72.94,0Zm.38,25.59s1.86-6.16,1.51-22h4.44v.45h1V8.16H84.7s0,1.5-.24,21.35c-3.37.38-6.17.49-6.17.49V26.15s.77,0,2.38.07l-.1-4.69H78.08C76.33,29.33,73.32,30.14,73.32,30.14ZM78.4,19.81h2.13c0-1.47,0-2.73-.07-3.88H78.92C78.78,17.36,78.61,18.66,78.4,19.81Zm.66-5.6h1.37c0-1.71-.07-3-.11-3.88H79.24C79.2,11.73,79.17,13,79.06,14.21Zm9.53-3.32a19.49,19.49,0,0,0-3.12-5.5s3.64-.94,6.76,4Zm9.52,1.85h4.09s0,1.75-.24,18.13H98.6c0-.38,0-.77,0-1.15h-9a11,11,0,0,0,0,1.15H86.17c-.35-14.91-.45-18.13-.45-18.13h4.06s0,1.54-.21,15.26h9C98.21,15.54,98.11,12.74,98.11,12.74Zm0,.84A26.31,26.31,0,0,1,96,18.76a16.54,16.54,0,0,1,2.14,2.52l-2.77,2a17,17,0,0,0-1.08-1.92A10.27,10.27,0,0,1,89.64,25a29,29,0,0,0,3.18-5.64,24.65,24.65,0,0,0-3-3.29,7.83,7.83,0,0,1,3.88,1.12,41,41,0,0,0,1.68-5.84ZM96.78,8.47,93,9.77A19.1,19.1,0,0,0,90.3,4.1S94,3.36,96.78,8.47Zm2.69-5.39,3.85,1C101.26,10.15,96,10.26,96,10.26A17.14,17.14,0,0,0,99.47,3.08Zm16.7,25.52h-3.92c-.49-9.45-.63-21.21-.63-21.21h4.9S116.52,18.2,116.17,28.6Zm7.45-7c-6.19,0-6.51-6.44-6.51-6.44a13,13,0,0,0,6.51,1.54ZM153,18.31s-.7,7.59-9.8,10.29h-4c-.49-9.45-.64-20.58-.64-20.58h4.91s0,7.21-.18,15.68A15.48,15.48,0,0,0,153,18.31ZM169.3,31.19c-5.4.31-9.56.31-9.56.31V27s2.49,0,5.6.1c.14-6.54.42-20,.42-26.6l2.55-.17C169.19,10.12,169.3,31.19,169.3,31.19ZM0,61.57s4.83-3.43,5.88-11.66l4.76,1.16C8.51,62.27,0,61.57,0,61.57Zm19.88-15V48h-4.3c-.18,4.38-.39,10.54-.39,15.58h-3c-.6-5.43-.91-11.38-1.05-15.58H2.31v-1.4H11l-.11-4.23h4.9s-.1,1.68-.21,4.23h1.47l1.4-1.4ZM33.29,48.9A15.69,15.69,0,0,0,27.19,47l0-3.64C33.57,43.72,33.29,48.9,33.29,48.9Zm10.85-.67s3.15,9.17-15.86,14.63L27.19,58.1C40.78,54.36,44.14,48.23,44.14,48.23ZM53.34,47s2.87,0,14,.24c0,17.5-12.85,16.35-12.85,16.35s6.69-2.94,7.81-13.34l-9,.32ZM67,44.49H54.39v-1.4h9.84l1.4-1.4,1.4,1.4ZM75,50.23s8-.42,14.11-8.51L93,44.66a17.36,17.36,0,0,1-5,4.59c-.17,2.31-.52,7.7-.52,14.35H84.74c-.67-5.25-1.09-9.84-1.33-12.64A16,16,0,0,1,75,50.23Zm34.62-1.33a15.69,15.69,0,0,0-6.1-1.89l0-3.64C109.87,43.72,109.59,48.9,109.59,48.9Zm10.85-.67s3.15,9.17-15.86,14.63l-1.09-4.76C117.08,54.36,120.44,48.23,120.44,48.23ZM146,53.31s-.7,7.59-9.8,10.29h-4c-.49-9.45-.64-20.58-.64-20.58h4.91s0,7.21-.18,15.68A15.48,15.48,0,0,0,146,53.31Zm7-6.27H156a31.82,31.82,0,0,0,.74,6.37S152.91,53.66,152.91,47Zm11,2.56H168c0,14-12.53,14-12.53,14S163.91,59.15,163.91,49.6ZM157.57,47h3.08a33.55,33.55,0,0,0,.7,6.37S157.57,53.66,157.57,47Zm17,16.56a21.85,21.85,0,0,0,11.55-17.05c-5,.21-8.36.21-8.36.21V43.19s6.16,0,13.47.25c0,6.19-1.57,10.46-3.74,13.44,2-.32,5.39-.11,9.24,3.29L193.2,63.6A27.48,27.48,0,0,0,186.55,58,17.37,17.37,0,0,1,174.58,63.6Zm35.11-14.7a15.69,15.69,0,0,0-6.1-1.89l0-3.64C210,43.72,209.69,48.9,209.69,48.9Zm10.85-.67s3.15,9.17-15.86,14.63l-1.09-4.76C217.18,54.36,220.54,48.23,220.54,48.23ZM65.7,95.52s-.81,4.41-14.78,5.49V97.16c1.82,0,3.57,0,5.18-.14,0-.49,0-1.26,0-2.48H51.66V92.82h4.48c0-.7,0-1.5,0-2.38h-.84a2.37,2.37,0,0,0,0,.46H51.94c-.35-8.05-.46-9.8-.46-9.8h4.06v.52h.77V79.8H51V78.09h5.32v-1h3a7.55,7.55,0,0,0,0,1H62l1.4-1.4,1.4,1.4V79.8H59.43c0,.63,0,1.23,0,1.82h1.15V81.1H64c.35,8.05.46,9.8.46,9.8H60.38v-.46h-.74c0,.88.07,1.68.07,2.38h2l1.4-1.4,1.37,1.4v1.72H59.75c0,.91,0,1.57.07,2.06A49,49,0,0,0,65.7,95.52ZM51.66,75A22.84,22.84,0,0,0,61.46,71l2.21,3.15C54.84,79,51.66,75,51.66,75Zm4.55,13.68c0-.56,0-1.15,0-1.82H55.4c0,.56,0,1.16,0,1.82Zm-.7-5.35c0,.49,0,1.08,0,1.82h.78c0-.6,0-1.19,0-1.82Zm4,0c0,.63,0,1.22,0,1.82h1c0-.56,0-1.16,0-1.82Zm.91,5.35c0-.49,0-1.08.07-1.82h-.91c0,.67,0,1.26,0,1.82ZM72.35,81h4.41s0,6-.25,17.57c-3.18.49-5.88.63-5.88.63v-4.9s.74,0,2,.07c-.14-5-.24-8.93-.28-11.17h-.94C70.32,99.51,65,100.94,65,100.94s1.58-5.74,2-17.71H65.52V81.52h1.54c0-1.54,0-3.12,0-4.83h4.55c0,1.71,0,3.32-.11,4.83h.81Zm35.66.45c.39,11.66.49,19.6.49,19.6h-4.09s0-1,0-3H88.86c0,1,0,2-.07,3H85.47c-.39-11.65-.49-19.6-.49-19.6h4.09s0,5.11-.17,14.88h15.54c0-3.29.11-8.26.21-14.88Zm-9.38-5.84c0,1,0,2.66,0,5h1.22v-.46h3.36c.39,8.33.49,14,.49,14H99.58V93.7H93.8v.45H90.44c-.39-8.33-.46-14-.46-14h4.07v.46h1c-.07-2.24-.11-4-.11-5H85.5V73.92h19.85l1.4-1.4,1.4,1.4v1.72ZM95.31,92l-.11-4H93.94c0,1.19,0,2.52-.1,4ZM94,86.31h1.19c-.07-1.43-.07-2.76-.11-4h-1C94,83.34,94,84.67,94,86.31ZM99.65,88H98.49c0,1.22,0,2.55-.07,4h1.19C99.61,91,99.61,89.67,99.65,88Zm-1.09-5.71c0,1.19,0,2.52,0,4h1.15l.11-4ZM131.88,101v-.42H123V101H118.9c-.39-16.42-.5-27.65-.5-27.65h4.8v.59h8.89a2.93,2.93,0,0,0,0-.59h4.06c.35,16.45.45,27.65.45,27.65Zm0-2.14c0-1.47,0-3.64,0-6.58h-8.86c0,2,0,4.24-.07,6.58Zm-8.78-8.29h8.82c0-2,0-4.13.07-6.62h-8.86C123.13,85.89,123.1,88.1,123.1,90.55Zm.07-8.33H132l.1-6.58H123.2C123.2,77.14,123.17,79.31,123.17,82.22Zm25.26-6A62.92,62.92,0,0,0,153,81.8s-2.83,1.68-8-2Zm-.07,21.45-3-3.85c5.15-4.06,6.83-7.52,6.83-7.52S155,91.32,148.36,97.72Zm8.83-25.34L162,73.47c-.21,1.26-.49,2.41-.77,3.46h11.16c-1,9.1-6.58,10-6.58,10a22.9,22.9,0,0,0,1.65-8.29h-6.76c-2.8,8.08-7.17,8.29-7.17,8.29S155.86,81.76,157.19,72.38Zm7.91,8.93c-1.09,19-10.4,19.63-10.4,19.63s6-7.1,6-19.63Zm3.5,19.63c-6-6.26-3.61-11.27-3.61-11.27s1.54,3.4,6.23,7.35Z"/></svg>