<svg id="レイヤー_1" data-name="レイヤー 1" xmlns="http://www.w3.org/2000/svg" viewBox="0 0 579.7 43.2"><defs><style>.cls-1{fill:#f0908a;}</style></defs><path class="cls-1" d="M13.11,6.24s-3.41,0-7.69-.19c-.19,9-.57,27.46-.57,36.48l-3.51.24C.14,29.38,0,.43,0,.43,7.39,0,13.11,0,13.11,0Zm6.28,35.09s2.54-8.45,2.06-30.14h6.1v.62h1.39v-.62H35s0,2.06-.33,29.28c-4.61.53-8.45.67-8.45.67V35.86s1.05,0,3.26.1l-.14-6.44H25.92C23.52,40.23,19.39,41.33,19.39,41.33Zm7-14.16h2.93c0-2-.05-3.74-.1-5.33H27.07Q26.78,24.8,26.35,27.17Zm.91-7.68h1.88c-.05-2.35-.1-4.08-.15-5.33H27.5C27.46,16.08,27.41,17.86,27.26,19.49Zm13.06-4.56a26.83,26.83,0,0,0-4.27-7.54s5-1.29,9.26,5.43Zm13.06,2.54H59s0,2.4-.33,24.87H54.05c0-.53,0-1.06,0-1.58H41.66c0,.52,0,1.05,0,1.58H37c-.48-20.45-.63-24.87-.63-24.87H42s0,2.12-.29,20.93H54C53.52,21.31,53.38,17.47,53.38,17.47Zm0,1.16a36.79,36.79,0,0,1-2.93,7.1,21.62,21.62,0,0,1,2.93,3.46l-3.8,2.69a24.14,24.14,0,0,0-1.48-2.65c-3.27,4.13-6.34,5-6.34,5a39.61,39.61,0,0,0,4.37-7.73A32.83,32.83,0,0,0,42.05,22a10.64,10.64,0,0,1,5.33,1.53,57.56,57.56,0,0,0,2.3-8Zm-1.83-7-5.13,1.77a26.41,26.41,0,0,0-3.75-7.77S47.76,4.61,51.55,11.62Zm3.7-7.4,5.28,1.4c-2.83,8.3-10.08,8.45-10.08,8.45A23.62,23.62,0,0,0,55.25,4.22Zm22.89,35H72.77c-.67-13-.87-29.09-.87-29.09h6.72S78.62,25,78.14,39.22Zm10.23-9.65c-8.5,0-8.93-8.83-8.93-8.83a17.74,17.74,0,0,0,8.93,2.11Zm32.54-4.46s-1,10.41-13.44,14.11h-5.42c-.67-13-.87-28.23-.87-28.23h6.72s0,9.89-.24,21.51A21.2,21.2,0,0,0,120.91,25.11Zm25.3,17.66c-7.4.43-13.11.43-13.11.43V37s3.41,0,7.68.15c.2-9,.58-27.46.58-36.49l3.5-.24C146.06,13.87,146.21,42.77,146.21,42.77Zm17.42-6.33s6.63-4.71,8.07-16L178.22,22C175.3,37.4,163.63,36.44,163.63,36.44Zm27.27-20.5v1.92H185c-.24,6-.53,14.45-.53,21.36h-4.17c-.82-7.44-1.25-15.6-1.44-21.36h-12V15.94h11.95l-.14-5.81h6.72s-.15,2.3-.29,5.81h2L189,14Zm18.38,3.12s-4.56-2.55-8.35-2.59l0-5C209.66,12,209.28,19.06,209.28,19.06Zm14.88-.91s4.32,12.57-21.74,20.06l-1.49-6.53C219.55,26.55,224.16,18.15,224.16,18.15Zm10.7-1.68s3.94,0,19.25.33c0,24-17.61,22.42-17.61,22.42s9.16-4,10.7-18.29l-12.34.43ZM253.63,13H236.3V11.09h13.49l1.92-1.92,1.92,1.92Zm9,7.87s11-.57,19.34-11.66l5.38,4a23.56,23.56,0,0,1-6.87,6.29c-.24,3.17-.72,10.56-.72,19.68H276c-.91-7.2-1.49-13.49-1.82-17.33A21.93,21.93,0,0,1,262.61,20.88Zm45.55-1.82s-4.56-2.55-8.35-2.59l0-5C308.54,12,308.16,19.06,308.16,19.06ZM323,18.15s4.32,12.57-21.74,20.06l-1.49-6.53C318.43,26.55,323,18.15,323,18.15Zm35,7s-1,10.41-13.44,14.11h-5.42c-.67-13-.87-28.23-.87-28.23H345s0,9.89-.24,21.51A21.2,21.2,0,0,0,358,25.11Zm10.51-8.6h4.18a43.85,43.85,0,0,0,1,8.74S368.54,25.59,368.54,16.51ZM383.62,20h5.61c0,19.2-17.18,19.2-17.18,19.2S383.62,33.12,383.62,20Zm-8.69-3.51h4.22a46,46,0,0,0,1,8.74S374.93,25.59,374.93,16.51Zm21.41,22.71a30,30,0,0,0,15.84-23.38c-6.87.29-11.48.29-11.48.29v-4.9s8.45,0,18.49.34c0,8.5-2.17,14.35-5.14,18.43,2.73-.43,7.39-.14,12.67,4.52l-4.85,4.7c-2.64-3.36-7-6.29-9.12-7.63A23.84,23.84,0,0,1,396.34,39.22Zm48.14-20.16s-4.56-2.55-8.35-2.59l.05-5C444.86,12,444.48,19.06,444.48,19.06Zm14.88-.91s4.32,12.57-21.74,20.06l-1.49-6.53C454.75,26.55,459.36,18.15,459.36,18.15Zm17.47,9.4s1.63,3.08,7.59,3.08c12.62,0,15.41-1.78,15.41-1.78l.52,6.72s-2.35,1.78-15.93,1.78C474.38,37.35,476.83,27.55,476.83,27.55Zm20-8.88a117.93,117.93,0,0,0-17-1.05V12.34a134.88,134.88,0,0,1,17.86,1.05Zm2-2.25,2.21-2.5a5.25,5.25,0,0,1,1.24,1.63l2.07-2.35a4.06,4.06,0,0,1,.62,5.95A10.71,10.71,0,0,0,502.47,16a4.21,4.21,0,0,1-.82,3.88A11.1,11.1,0,0,0,498.82,16.42ZM528.77,31.2c0,2.74-.14,6.44-.29,11.14h-5.57c-.14-2.69-.24-5.18-.33-7.39a19.36,19.36,0,0,1-13.4,6.29,34.92,34.92,0,0,0,9.22-10h-8.74V28.85h12.72c0-.77,0-1.34-.09-1.87a16.56,16.56,0,0,1-3.27.43,20.87,20.87,0,0,0,5.09-4.51h-2.73v.62h-5.57c-.19-2.59-.29-4.89-.39-6.86h-5.76V14.31h5.62c0-.92,0-1.73-.1-2.36h-4.6c-.48-5.37-.63-6.53-.63-6.53H516V6.1h7.25l-.43-2.84h6.09s0,.34-.19,2.84h7.11V5.42h5.08c.53,5.38.68,6.53.68,6.53h-6.1s0-.38.19-3.5H515.86c0,.48-.05,1-.05,1.58h5.9s0,1.44-.09,4.28h16l1.92-1.92,1.87,1.92v2.35h-7.1a14.46,14.46,0,0,1-1.73,3.89h1.63l1.92-1.92,1.92,1.92V22.9h-7.44a13.94,13.94,0,0,1-4.32,2.83h2.5v3.12h8.83l1.92-1.92,1.87,1.92V31.2Zm-3-10.65a16.11,16.11,0,0,0,1.78-3.89h-5.95c0,1.15-.05,2.45-.1,3.89Zm16.61,15.89-3.26,4.8c-9.27-4-9.22-9.8-9.22-9.8A46.09,46.09,0,0,0,542.35,36.44ZM567.89,3.31a56.34,56.34,0,0,1-.34,6.58H574V9.17h5.08c.48,19.73.63,33.22.63,33.22-4.61.53-8.45.67-8.45.67V37.78s.77,0,2.4,0c0-2.21.05-5.28.1-9.12l-5,2.16A51.11,51.11,0,0,0,564.67,21c-3.21,7.15-8,9.6-10.13,10.41l-.14,11h-5.09c-.53-19.73-.67-33.22-.67-33.22h6.1v.72h6.19c.14-2,.24-4.23.24-6.58Zm-7.2,8.93h-6c0,3.36,0,9.51-.2,18.24C556.27,28.27,559.49,22.85,560.69,12.24Zm6.53,0a33.26,33.26,0,0,1-1.68,6.67,18.72,18.72,0,0,1,8.21,7c0-3.88.09-8.44.19-13.63Z"/></svg>