<svg id="レイヤー_1" data-name="レイヤー 1" xmlns="http://www.w3.org/2000/svg" viewBox="0 0 286.8 28.26"><path d="M4.62,2.61s0,0,.06.09.09.09.12.12A2,2,0,0,1,5,3,.3.3,0,0,1,5,3.21V20.4c0,.15.12.24.33.24H5.7a6.59,6.59,0,0,0,2.19-.48,20,20,0,0,0,2.55-1.26c.84-.51,1.74-1.08,2.61-1.71s1.74-1.26,2.55-1.89,1.53-1.26,2.19-1.83S19,12.39,19.41,12h.3a1.16,1.16,0,0,1,.72.36,5.67,5.67,0,0,1,.66.93,3.88,3.88,0,0,1,.54,1.05,2.38,2.38,0,0,1,.21.87,3.13,3.13,0,0,1-1.2,2,25.36,25.36,0,0,1-3,2.49c-1.23.84-2.58,1.71-4.05,2.55s-2.88,1.62-4.29,2.31-2.64,1.23-3.75,1.65a8,8,0,0,1-2.46.63,1.81,1.81,0,0,1-.81-.27,5.58,5.58,0,0,1-1-.66A4.77,4.77,0,0,1,.36,25,1.36,1.36,0,0,1,0,24.21V2.61ZM31.77,11.1a1,1,0,0,1,.48-.75,5.45,5.45,0,0,1,1.11-.54,9.53,9.53,0,0,1,1.14-.33,6.2,6.2,0,0,1,.72-.09c.27,0,.54.27.87.84s.6,1.17.9,1.86a18.21,18.21,0,0,1,.75,2,5.05,5.05,0,0,1,.3,1.23.85.85,0,0,1-.42.72,3.13,3.13,0,0,1-1,.54,7.42,7.42,0,0,1-1.08.33,6.59,6.59,0,0,1-.81.12,1,1,0,0,1-.6-.12c-.12-.06-.21-.24-.33-.51s-.21-.51-.39-1-.39-1-.6-1.53-.42-1-.6-1.5-.33-.78-.42-1S31.77,11.22,31.77,11.1Zm4.65,13.62c.39-.3.93-.63,1.56-1s1.35-.87,2.13-1.38,1.53-1.05,2.25-1.59a24.08,24.08,0,0,0,2-1.56,9.64,9.64,0,0,0,1.26-1.32,5.89,5.89,0,0,0,.54-1.14c.24-.51.48-1.14.75-1.83s.54-1.38.81-2.13.54-1.41.75-2,.45-1.11.63-1.5.27-.6.33-.6.12,0,.21,0a3.09,3.09,0,0,0,.6.21c.27.09.6.18.9.3l.9.27a6.14,6.14,0,0,1,.6.21,2.27,2.27,0,0,1,.54.27.68.68,0,0,1,.27.54,9.24,9.24,0,0,1-.66,3.12A22.78,22.78,0,0,1,51,17.34a38,38,0,0,1-2.55,3.93,35.64,35.64,0,0,1-3.06,3.51,17.88,17.88,0,0,1-3.21,2.49,6,6,0,0,1-3,1c-.15,0-.27,0-.39,0A1.22,1.22,0,0,1,38.4,28l-2.58-2.61s0,0,0-.09v-.18S36,25,36.42,24.72ZM38.79,9.3a.92.92,0,0,1,.42-.72,5.56,5.56,0,0,1,2.13-.69,5.55,5.55,0,0,1,.78-.09.66.66,0,0,1,.51.21,1.3,1.3,0,0,1,.36.51,2.09,2.09,0,0,1,.24.6,4.13,4.13,0,0,0,.18.48c0,.12.12.33.24.63s.24.63.36,1,.24.66.36,1,.21.51.24.63a1,1,0,0,0,0,.24v.27a2.91,2.91,0,0,1,0,.51c0,.18-.15.3-.39.39-.51.21-1,.39-1.41.57a3.43,3.43,0,0,1-1.38.24c-.27,0-.45,0-.54-.15a1.35,1.35,0,0,1-.27-.48c-.06-.18-.21-.48-.36-.93s-.36-.93-.54-1.44-.39-1-.57-1.47-.27-.78-.33-1A1.13,1.13,0,0,1,38.79,9.3ZM63.48,22.62c.48-.3,1.05-.63,1.68-1l1.8-1c.57-.3,1-.51,1.26-.69s.87-.63,1.47-1.11,1.32-1.08,2.07-1.71,1.5-1.35,2.25-2.1a29,29,0,0,0,2.1-2.28,17.22,17.22,0,0,0,1.5-2.25,4.25,4.25,0,0,0,.6-2l-.09-.18A.64.64,0,0,0,78,8.22a.53.53,0,0,0-.12-.15L77.82,8H66.21a1.29,1.29,0,0,1-.45-.24q-.36-.22-.36-.36V4a.58.58,0,0,1,.15-.33.57.57,0,0,1,.27-.27c.39,0,1-.06,1.83-.06s1.74,0,2.79,0,2.13,0,3.27,0,2.22,0,3.27,0,2,0,2.82-.06h2.52a2.49,2.49,0,0,1,.81.18,7.16,7.16,0,0,1,1,.48,4.18,4.18,0,0,1,.81.63,1.12,1.12,0,0,1,.33.72.38.38,0,0,1,0,.18c-.39.87-.78,1.65-1.14,2.37S83.31,9.18,83,9.87s-.72,1.35-1.11,2-.78,1.38-1.23,2.13a3.81,3.81,0,0,1-.33.51,1.05,1.05,0,0,0-.09.48c0,.12,0,.24,0,.33a.71.71,0,0,0,.18.27l1,1,1.5,1.5c.54.51,1,1,1.53,1.5s.78.78,1,1a2.65,2.65,0,0,0,.42.42c.18.21.36.42.57.63l.51.6a1.74,1.74,0,0,1,.3.36,1.81,1.81,0,0,1,.24.39,1.75,1.75,0,0,1,.15.39c0,.18-.09.45-.39.78a11.72,11.72,0,0,1-1,1.08,14.55,14.55,0,0,1-1.2.93,2.26,2.26,0,0,1-.84.42.6.6,0,0,1-.39-.12,1.31,1.31,0,0,1-.33-.27c-.06-.09-.24-.3-.51-.63s-.54-.69-.87-1.08-.63-.75-.9-1.08-.45-.54-.51-.63-.36-.36-.69-.72-.72-.69-1.11-1.08l-1.08-1.08L77,19.2H76.8a2.24,2.24,0,0,0-1.17.57c-.48.36-1,.81-1.68,1.35l-2,1.8c-.72.63-1.41,1.23-2.13,1.8a13.52,13.52,0,0,1-2.07,1.35,3.57,3.57,0,0,1-1.8.57h-.21l-.15,0-2.79-2.79a.57.57,0,0,1-.12-.24.85.85,0,0,1-.09-.18A2.27,2.27,0,0,1,63.48,22.62Zm33.3.09a1.24,1.24,0,0,1,0-.3c0-.12.06-.18.21-.21a39.71,39.71,0,0,0,5.43-1.56,31.37,31.37,0,0,0,4.77-2.19,32.15,32.15,0,0,0,4.29-3,40.54,40.54,0,0,0,4.11-3.87,5.86,5.86,0,0,0,.69-1l.81-1.44A9.8,9.8,0,0,1,118,7.92a1.18,1.18,0,0,1,.87-.54,1.1,1.1,0,0,1,.78.54,12.83,12.83,0,0,1,.78,1.26,11,11,0,0,1,.6,1.41,4.36,4.36,0,0,1,.24,1,5.15,5.15,0,0,1-1.26,3,21.72,21.72,0,0,1-3.18,3.33,48.76,48.76,0,0,1-4.38,3.21,51,51,0,0,1-4.8,2.82,34.51,34.51,0,0,1-4.44,2,10.78,10.78,0,0,1-3.3.72,1.51,1.51,0,0,1-1-.51A6.14,6.14,0,0,1,97.92,25a7.66,7.66,0,0,1-.72-1.23c-.21-.39-.33-.63-.39-.72A1,1,0,0,1,96.78,22.71Zm1-17.1V5.4a4.16,4.16,0,0,0,.51-.63,9.45,9.45,0,0,1,.72-.9,5,5,0,0,1,.87-.75,1.59,1.59,0,0,1,.9-.33.68.68,0,0,1,.21,0h.21c.81.6,1.62,1.2,2.43,1.83S105.24,5.91,106,6.6a6.62,6.62,0,0,0,.48.51,5.66,5.66,0,0,1,.6.6c.21.18.36.33.51.48a1.07,1.07,0,0,1,.21.21V9L105,11.82h-.78a2.89,2.89,0,0,0-.42-.39c-.24-.18-.45-.39-.69-.6s-.45-.42-.66-.6-.36-.33-.45-.42a7.41,7.41,0,0,0-1-.75c-.45-.3-.93-.66-1.41-1.05a9.38,9.38,0,0,1-1.26-1.14,1.75,1.75,0,0,1-.57-1C97.77,5.76,97.8,5.7,97.8,5.61Zm31-.21.39-.48h9a.75.75,0,0,1,.21-.15c.09-.09.15-.15.18-.15a.82.82,0,0,1,.15-.12c.09,0,.12-.09.15-.09V.81A1.37,1.37,0,0,1,139,.63a.65.65,0,0,1,.18-.21,1.78,1.78,0,0,1,.24-.24.83.83,0,0,1,.18-.18h3a.88.88,0,0,1,.42.24q.27.23.27.36V4.2a.46.46,0,0,0,.09.18c.06.06.12.15.21.24s.15.15.24.21a.27.27,0,0,0,.15.09h9.21a.52.52,0,0,0,.09.12c0,.06.09.12.12.18s.06.12.12.21a1,1,0,0,0,.06.18v18.6a3.49,3.49,0,0,1-.51,2,3.31,3.31,0,0,1-1.29,1.2,5.06,5.06,0,0,1-1.83.6,12.06,12.06,0,0,1-2.07.18h-.63a2.13,2.13,0,0,1-.42,0h-.24l-.33-.15a.71.71,0,0,1-.27-.24c-.21-.54-.39-1-.57-1.44A3.74,3.74,0,0,1,145.2,25v-.36c0-.24.09-.36.21-.36h3.39l.6-.69V20.4s0-.09-.15-.18A2,2,0,0,1,149,20h-.09a1.32,1.32,0,0,0-.66.21c-.21.15-.39.3-.6.48a4.39,4.39,0,0,1-.57.48,1,1,0,0,1-.69.24h-.18l-.72-.72c-.18-.15-.3-.3-.45-.45s-.27-.33-.42-.54-.45-.51-.81-.9c-.15-.12-.3-.3-.51-.51s-.42-.39-.6-.57-.33-.36-.48-.51A1.07,1.07,0,0,0,142,17h-.81c-.21.33-.51.78-.93,1.38a16.81,16.81,0,0,1-1.35,1.71,9.35,9.35,0,0,1-1.59,1.5,2.77,2.77,0,0,1-1.62.63c-.12,0-.21,0-.3,0a1.32,1.32,0,0,1-.33-.36c-.15-.18-.3-.36-.48-.54a2.85,2.85,0,0,0-.57-.48,1.06,1.06,0,0,0-.63-.21,1.38,1.38,0,0,0-.3,0c-.15,0-.21.06-.21.18V27.6s0,.09-.12.18a1.66,1.66,0,0,1-.18.24.41.41,0,0,1-.12.09.37.37,0,0,1-.06.09h-3.21l-.39-.39Zm9.9,4a.45.45,0,0,0-.51-.42h-4.59a.62.62,0,0,0-.42.21.65.65,0,0,0-.18.39v8.82c0,.15.09.21.27.21h.36a2.64,2.64,0,0,0,1.95-1,9.62,9.62,0,0,0,1.65-2.34,16.62,16.62,0,0,0,1.14-2.85,9.4,9.4,0,0,0,.42-2.37A3.1,3.1,0,0,0,138.72,9.42Zm4.56,3a5.87,5.87,0,0,0,.54.63c.18.18.51.48,1,.93s1,.93,1.53,1.47l1.53,1.44c.45.48.78.78,1,1H149a.84.84,0,0,0,.24,0c.12,0,.15-.09.15-.18v-8l-.6-.6H144a.65.65,0,0,0-.57.36,3.24,3.24,0,0,0-.3.81,5.32,5.32,0,0,0-.12.9v.54A1.3,1.3,0,0,0,143.28,12.39Zm22.14,9a1.06,1.06,0,0,0-.18,0,.84.84,0,0,0-.24,0,2,2,0,0,0-1,.24,2,2,0,0,1-1,.24,1.26,1.26,0,0,1-.75-.33,4.3,4.3,0,0,1-.66-.78,9.72,9.72,0,0,1-.51-1,2.65,2.65,0,0,1-.18-.87v-.3c0-.09.09-.18.24-.18A32,32,0,0,0,167,14.91a38.76,38.76,0,0,0,5-4.5h4.2a2.39,2.39,0,0,1,.45.36c.24.24.6.51,1,.87s.87.72,1.38,1.14,1,.81,1.44,1.2.9.75,1.26,1a7,7,0,0,0,.84.6,19.38,19.38,0,0,0,2.52,1.2,21.22,21.22,0,0,1,2.49,1.2c.12.09.15.12.18.18s0,.12,0,.24a.38.38,0,0,1,0,.18,1.63,1.63,0,0,1-.3.51c-.15.21-.3.45-.48.69a7.49,7.49,0,0,1-.48.72c-.15.24-.27.39-.33.48s-.33.42-.39.51-.18.12-.39.12a2.25,2.25,0,0,1-.93-.24,5.83,5.83,0,0,0-.9-.39h-.09a.65.65,0,0,0-.54.24.79.79,0,0,0-.27.57v6l-.09.09-.21.12s-.06.06-.18.09a.52.52,0,0,1-.21.09c-.06,0-.15,0-.3,0h-.84a1,1,0,0,1-.27,0c-.54,0-1,0-1.44-.06a2.7,2.7,0,0,1-1.35-.6H170.4a2.63,2.63,0,0,1-1.29.6c-.42,0-.9.06-1.41.06a1,1,0,0,1-.24,0h-.39a1.58,1.58,0,0,1-.39,0h-.27a.52.52,0,0,1-.21-.09q-.18,0-.18-.09l-.21-.12-.09-.09v-6Zm-2.64-10.11a.72.72,0,0,1,.24-.57,3.53,3.53,0,0,1,.57-.33,5.28,5.28,0,0,0,.6-.36.66.66,0,0,0,.24-.54c0-.06,0-.09,0-.09a.32.32,0,0,0-.18-.21h-.48a5.78,5.78,0,0,1-.72,0l-.78-.09a1.53,1.53,0,0,1-.63-.27l-.24-.24a1.84,1.84,0,0,0-.15-.18V2.82l.6-.72h9.39a.5.5,0,0,0,.51-.33,4.33,4.33,0,0,0,.15-.72,2.53,2.53,0,0,1,.18-.72.58.58,0,0,1,.57-.33h2.79a.54.54,0,0,1,.54.33,2.54,2.54,0,0,1,.24.72,4.11,4.11,0,0,0,.21.72.42.42,0,0,0,.42.33h9.6a.54.54,0,0,1,.36.27,1.08,1.08,0,0,1,.24.45V8.4c0,.12-.12.24-.33.39a1.11,1.11,0,0,1-.48.21,1.63,1.63,0,0,1-.33.06c-.18,0-.36,0-.57.06s-.39,0-.54.06a2,2,0,0,1-.36,0,.31.31,0,0,0-.18.15.66.66,0,0,0,0,.24v.21a.89.89,0,0,0,.24.21,5,5,0,0,1,.42.39,2.8,2.8,0,0,1,.39.45.87.87,0,0,1,.18.45,1.28,1.28,0,0,1-.3.78,4.43,4.43,0,0,1-.75.75,8.69,8.69,0,0,1-.87.57,2,2,0,0,1-.81.21,1.2,1.2,0,0,1-.63-.21,5.65,5.65,0,0,1-.69-.48c-.21-.18-.39-.36-.57-.54a4.59,4.59,0,0,0-.39-.39c-.15-.12-.42-.3-.81-.6s-.78-.6-1.2-.9-.81-.6-1.2-.9-.66-.48-.81-.6c0,0-.06-.06-.09-.18a.4.4,0,0,1-.09-.21.3.3,0,0,1,0-.09,1,1,0,0,1,.24-.57,4.58,4.58,0,0,1,.54-.54,6.59,6.59,0,0,1,.54-.42,1.41,1.41,0,0,0,.3-.18,1,1,0,0,0,0-.3v-.3c0-.15-.09-.21-.24-.21H170l-.12.06a.27.27,0,0,0-.09.15V6.3a.5.5,0,0,0,.33.54l.78.27a3,3,0,0,1,.78.27.55.55,0,0,1,.33.51,1.55,1.55,0,0,1-.39.84,8.17,8.17,0,0,1-1,1.26,12,12,0,0,1-1.38,1.38,19.41,19.41,0,0,1-1.53,1.29,15.66,15.66,0,0,1-1.44,1,2.25,2.25,0,0,1-1.08.39.59.59,0,0,1-.21,0,20.55,20.55,0,0,1-2.19-2.4A.92.92,0,0,1,162.78,11.31Zm2.64-2.64a2.38,2.38,0,0,0,.87-.18,5,5,0,0,0,.84-.54,2.41,2.41,0,0,0,.66-.69,1.9,1.9,0,0,0,.24-.87.75.75,0,0,0,0-.24c0-.12-.09-.15-.18-.15h-2l-.39.42Zm4.44,14.73a.48.48,0,0,0,.54.42h7.41a.48.48,0,0,0,.54-.36,2.64,2.64,0,0,0,.09-.63c0-.09,0-.21,0-.36a1.77,1.77,0,0,0-.06-.42,3.27,3.27,0,0,0-.18-.33.64.64,0,0,0-.36-.12H170.4a.5.5,0,0,0-.54.42,3.61,3.61,0,0,0-.09.69A3.34,3.34,0,0,0,169.86,23.4Zm1.35-5.73a.2.2,0,0,0,.21.15h5.79c.12,0,.18-.06.18-.15a1,1,0,0,0,0-.27v-.18l-2.61-2.61-.18-.12a2,2,0,0,1-.21-.09h-.21s-.12.06-.21.09-.18.09-.18.12l-2.61,2.61a.44.44,0,0,0,0,.18C171.18,17.46,171.21,17.55,171.21,17.67ZM179.91,7a4,4,0,0,0,.78.57,6,6,0,0,0,.87.45,1.68,1.68,0,0,0,.66.18.46.46,0,0,0,.48-.36,1.81,1.81,0,0,0,.12-.66,1.38,1.38,0,0,0,0-.3c0-.12-.06-.24-.09-.39a1.42,1.42,0,0,0-.21-.36.26.26,0,0,0-.27-.15h-2.4c-.12,0-.21,0-.21.15a1,1,0,0,0,0,.27A.82.82,0,0,0,179.91,7ZM207.24,23a10.71,10.71,0,0,0,1.59-.63c.63-.27,1.32-.6,2.1-1A8.4,8.4,0,0,0,213,19.77a8.07,8.07,0,0,0,1.59-2.13,6.39,6.39,0,0,0,.63-2.91,10.6,10.6,0,0,0-.27-2.22,8,8,0,0,0-.87-2.31,6,6,0,0,0-1.47-1.86,3.29,3.29,0,0,0-2.13-.75c-.27,0-.57.42-.81,1.29s-.57,1.92-.9,3.18-.72,2.67-1.17,4.14a24.7,24.7,0,0,1-1.68,4.17,11,11,0,0,1-2.37,3.21,4.73,4.73,0,0,1-3.3,1.26,4.9,4.9,0,0,1-2.91-.84,7.37,7.37,0,0,1-1.92-2.16A9.9,9.9,0,0,1,194.31,19a15,15,0,0,1-.33-3,12.11,12.11,0,0,1,1.11-5.25,13,13,0,0,1,3-4,14.64,14.64,0,0,1,9.69-3.54,13.08,13.08,0,0,1,4.77.84,12.11,12.11,0,0,1,3.87,2.37,10.85,10.85,0,0,1,2.61,3.69,12.05,12.05,0,0,1,.15,9.06A13.21,13.21,0,0,1,217,22.92a11.83,11.83,0,0,1-3.39,2.67,8.87,8.87,0,0,1-4.26,1.05,1.32,1.32,0,0,1-.87-.39,8.07,8.07,0,0,1-.9-.87,6.19,6.19,0,0,1-.69-1.11,2.23,2.23,0,0,1-.27-1Q206.61,23.17,207.24,23Zm-8.79-6.3a6.12,6.12,0,0,0,.24,1.29,3.51,3.51,0,0,0,.57,1,1.4,1.4,0,0,0,1.05.42,1.69,1.69,0,0,0,1.23-.69A7.63,7.63,0,0,0,202.62,17a21.15,21.15,0,0,0,.9-2.34c.27-.84.51-1.68.69-2.49a19.43,19.43,0,0,0,.45-2.22,12.62,12.62,0,0,0,.15-1.47,1.15,1.15,0,0,0-.09-.57c-.06-.09-.24-.12-.54-.12a3.74,3.74,0,0,0-2.31.81,7.37,7.37,0,0,0-1.83,2,10.41,10.41,0,0,0-1.2,2.55,7.78,7.78,0,0,0-.45,2.43C198.39,15.87,198.42,16.23,198.45,16.65Zm30.36,4.77s-.06-.06-.18-.06a.53.53,0,0,0-.39.18,1.13,1.13,0,0,0-.27.36,2.48,2.48,0,0,1-.21.39.43.43,0,0,1-.33.15.94.94,0,0,1-.6-.33,3.71,3.71,0,0,1-.51-.81c-.15-.3-.27-.63-.39-.93a2.05,2.05,0,0,1-.15-.75,5.79,5.79,0,0,1,.45-2.25c.3-.72.63-1.47,1-2.22s.69-1.53,1-2.28a6.51,6.51,0,0,0,.45-2.37.73.73,0,0,0-.36-.72,2.66,2.66,0,0,0-.84-.21,3.49,3.49,0,0,1-.84-.15c-.27-.06-.39-.27-.39-.6V6.6a.56.56,0,0,1,.15-.3,1.35,1.35,0,0,1,.27-.3c.12,0,.33,0,.6,0a8.22,8.22,0,0,0,.84-.15,1.91,1.91,0,0,0,.75-.33.88.88,0,0,0,.3-.69V.42s0-.06.12-.09a.63.63,0,0,1,.18-.12.88.88,0,0,1,.24-.12A.67.67,0,0,0,229.8,0h2.4l.51.42V4.8a.77.77,0,0,0,.27.63,2.57,2.57,0,0,0,.66.45,4,4,0,0,0,.78.27,2.61,2.61,0,0,0,.6.06h.18a1.18,1.18,0,0,0,.12-.39,2.09,2.09,0,0,0,.09-.42c0-.12,0-.36.06-.69s0-.72.06-1.11,0-.75.06-1.08,0-.6,0-.72l.39-.39h6.81l.6.6v9a2.55,2.55,0,0,0,.12.66A.48.48,0,0,0,244,12a1,1,0,0,0,.63-.36A1,1,0,0,0,245,11V5.61a1.17,1.17,0,0,0-.33-.78l-.48-.63V1.8l.42-.39h9V4.2l-1,1a2.6,2.6,0,0,1,0,.33c0,.21,0,.48-.06.78s0,.6-.06.93,0,.54,0,.75v.24a2.28,2.28,0,0,0,0,.48v1.83a2.91,2.91,0,0,0,0,.51v.33a1.28,1.28,0,0,0,.66.63c.24.06.42.09.6.15a.69.69,0,0,1,.39.33,2.91,2.91,0,0,1,.15,1.11,1.87,1.87,0,0,1-.42,1.44,1.93,1.93,0,0,1-1,.39c-.36,0-.69.06-1,.06a.44.44,0,0,0-.45.51v7.8c0,.12.06.15.15.18a1,1,0,0,0,.27,0,.48.48,0,0,0,.54-.39c0-.27.06-.54.09-.84a3.35,3.35,0,0,1,.09-.81c.06-.27.24-.39.57-.39a1.74,1.74,0,0,1,.84.21,1.83,1.83,0,0,1,.66.6v.66c0,.12,0,.27,0,.39v.24a9.9,9.9,0,0,1-.15,1.74,3.91,3.91,0,0,1-.57,1.29,2.21,2.21,0,0,1-1,.81,3.77,3.77,0,0,1-1.65.3,4.37,4.37,0,0,1-1.53-.21,2,2,0,0,1-.93-.6,2.3,2.3,0,0,1-.51-1.05,7.42,7.42,0,0,1-.24-1.56c-.06-.15-.12-.21-.21-.24h-.3a1.13,1.13,0,0,0-.3,0c-.12.15-.36.39-.72.81a14,14,0,0,1-1.14,1.2,11,11,0,0,1-1.29,1.11,1.8,1.8,0,0,1-1.11.51,1.61,1.61,0,0,1-.78-.21,2.56,2.56,0,0,1-.75-.51,2.9,2.9,0,0,1-.57-.66,1.23,1.23,0,0,1-.24-.75v-.09l1-1.2V24.3a.33.33,0,0,0,0-.15c0-.24-.06-.39-.15-.45a.85.85,0,0,0-.48-.12,1.06,1.06,0,0,1-.21,0h-.21c-.18.06-.45.18-.84.36s-.84.36-1.32.57A13.5,13.5,0,0,1,237,25a4,4,0,0,1-1.2.21.94.94,0,0,1-.69-.33,5,5,0,0,1-.51-.78,4.89,4.89,0,0,1-.33-.93,4.17,4.17,0,0,1-.09-.81.78.78,0,0,1,.18-.54,1.58,1.58,0,0,1,.42-.36,1.75,1.75,0,0,0,.42-.39.6.6,0,0,0,.21-.48V17.4a.37.37,0,0,0-.12-.33A.37.37,0,0,0,235,17h-.12a.23.23,0,0,1-.09,0c-.24.15-.48.3-.72.42l-.63.45a2,2,0,0,0-.45.54,2,2,0,0,0-.21.78v3c0,.42,0,.93,0,1.56s0,1.26-.06,1.86,0,1.11-.06,1.56,0,.63,0,.63l-.42.39h-2.4a.67.67,0,0,0-.15-.09,1,1,0,0,1-.24-.09l-.18-.12-.12-.09V22.2Zm4.32-10a5,5,0,0,0,.45.9,3.31,3.31,0,0,0,.69.75,1.19,1.19,0,0,0,.75.33.51.51,0,0,0,.3-.09c.09,0,.09-.15.09-.33V11.79a1.16,1.16,0,0,0,0-.27V10.38a2.8,2.8,0,0,0-.24-1.17H235a3.15,3.15,0,0,0-1.41.33,1.09,1.09,0,0,0-.63,1.05A3.53,3.53,0,0,0,233.13,11.46ZM239,6.12a.45.45,0,0,0,.45.3.53.53,0,0,0,.51-.27,1.18,1.18,0,0,0,.12-.54,2.69,2.69,0,0,0-.06-.54q0-.27-.45-.27A.7.7,0,0,0,239,5a.86.86,0,0,0-.18.57A1.22,1.22,0,0,0,239,6.12Zm0,5.16a.49.49,0,0,0,.48.33.54.54,0,0,0,.54-.33,2.24,2.24,0,0,0,.09-.6,2.08,2.08,0,0,0-.09-.6.48.48,0,0,0-.51-.3.44.44,0,0,0-.48.3,1.61,1.61,0,0,0-.15.63A1.39,1.39,0,0,0,238.92,11.28ZM243.39,17a8.64,8.64,0,0,1,.45,1.41,12.62,12.62,0,0,0,.42,1.38.86.86,0,0,0,.87.63,1.13,1.13,0,0,0,.84-.54,5.47,5.47,0,0,0,.81-1.23,9.16,9.16,0,0,0,.6-1.38,4.2,4.2,0,0,0,.24-1.08.69.69,0,0,0-.45-.69,2.85,2.85,0,0,0-1-.27,6.67,6.67,0,0,0-1.08,0h-.66a3,3,0,0,0-.42-.36,1.39,1.39,0,0,0-.42-.06,1.06,1.06,0,0,1-.21,0h-.15c-.15,0-.39,0-.72,0s-.72.06-1.08.06-.72.06-1.08.06-.57,0-.72,0a3.19,3.19,0,0,0-.51.3.59.59,0,0,0-.3.51v3.81a.37.37,0,0,0,.3.39,3.47,3.47,0,0,0,.51,0,.71.71,0,0,0,.81-.78,2.59,2.59,0,0,0-.12-.84,3.8,3.8,0,0,1-.09-.84.77.77,0,0,1,.24-.57,1.42,1.42,0,0,1,.57-.36,3.08,3.08,0,0,1,.75-.21c.27,0,.48-.06.66-.06A1,1,0,0,1,243.39,17Zm5-11.79c-.12,0-.15.09-.15.18v5.4l.09.09c0,.06.09.09.09.12h.21a1,1,0,0,0,.36-.66,6.76,6.76,0,0,0,.09-1.14,6.83,6.83,0,0,0,0-1.11c0-.33,0-.54,0-.6v-1a4.43,4.43,0,0,0,0-.63V5.4c0-.09-.06-.15-.15-.18a.66.66,0,0,0-.24,0A.84.84,0,0,0,248.37,5.22ZM260.76,25c.15-.06.27-.15.45-.21s.72,0,1.29,0,1.17,0,1.83,0a14.14,14.14,0,0,0,1.74-.27,1.86,1.86,0,0,0,1.14-.69l-.21-.21-.57-.18c-.27-.12-.54-.21-.81-.33l-.84-.27a3.44,3.44,0,0,1-.57-.21,2.48,2.48,0,0,1-.39-.21.38.38,0,0,1-.21-.39.81.81,0,0,1,.18-.51c.09-.15.21-.3.33-.48a4.89,4.89,0,0,0,.33-.51.81.81,0,0,0,.18-.51,1.38,1.38,0,0,0,0-.3c0-.15-.09-.21-.18-.21h-4.2a.65.65,0,0,1-.48-.21,2,2,0,0,1-.24-.51l-.09-.57a2.15,2.15,0,0,1,0-.39,2,2,0,0,1,0-.36,3.68,3.68,0,0,1,.06-.57,1.43,1.43,0,0,1,.18-.54.42.42,0,0,1,.36-.24h7.2a.47.47,0,0,0,.51-.36,1.78,1.78,0,0,0,.12-.63,2,2,0,0,0,0-.33c0-.18-.09-.27-.21-.27h-5.79c-.09,0-.21-.09-.39-.3a.68.68,0,0,1-.21-.42V6.6l.09-.15a1.78,1.78,0,0,1,.12-.24,1.78,1.78,0,0,0,.12-.18.33.33,0,0,1,.06-.12h5a.87.87,0,0,0,.51-.24.58.58,0,0,0,.3-.48,1.18,1.18,0,0,0-.09-.42A.34.34,0,0,0,267,4.5h-6.39a.67.67,0,0,1-.15-.12.83.83,0,0,1-.24-.18l-.12-.09L260,4V1.41L260.4,1h25.2l.42.39V4l-.09.09-.12.09a1.66,1.66,0,0,1-.24.18.67.67,0,0,1-.15.12h-6.6c-.18,0-.27.09-.33.27a1.18,1.18,0,0,0-.09.42.63.63,0,0,0,.21.45.52.52,0,0,0,.39.27h6.21V14l-.39.51H273.6c-.18,0-.33.12-.51.36a1.09,1.09,0,0,0-.3.6c0,.06,0,.18,0,.36s.09.27.18.27h13.2l.6.69v2a1.84,1.84,0,0,0-.15.18,1.31,1.31,0,0,1-.24.21,1.66,1.66,0,0,1-.24.18l-.15.12h-4.41a1,1,0,0,0-.69.36c-.24.27-.45.57-.69.9a10.75,10.75,0,0,0-.54,1,3.11,3.11,0,0,0-.27.69s0,.06,0,.12a.74.74,0,0,0,.45.69,4.06,4.06,0,0,0,1.08.42,10.68,10.68,0,0,0,1.41.3l1.41.27a3.53,3.53,0,0,1,1.08.42.75.75,0,0,1,.42.66,1.79,1.79,0,0,1-.21.78,9.62,9.62,0,0,1-.57.93,3.69,3.69,0,0,1-.78.75,1.5,1.5,0,0,1-.78.3,1.38,1.38,0,0,1-.3,0h-.18l-6.6-2.22a1,1,0,0,1-.24,0h-.33a2.93,2.93,0,0,0-.78.06,2.47,2.47,0,0,0-.57.18l-.66.24a9.19,9.19,0,0,1-1,.36c-1.56.42-3.18.81-4.86,1.14a28.71,28.71,0,0,1-4.92.48,1.21,1.21,0,0,1-.81-.33,2.25,2.25,0,0,1-.57-.72,4.36,4.36,0,0,1-.48-1.77A.45.45,0,0,1,260.76,25Zm4.41-14.58c0,.12,0,.24,0,.33a.9.9,0,0,0,.12.3.3.3,0,0,0,.3.15H267c.15,0,.24,0,.3-.15a.9.9,0,0,0,.12-.3c0-.09,0-.21,0-.33V10c0-.12,0-.24,0-.36a.7.7,0,0,0-.12-.3.32.32,0,0,0-.3-.12h-1.38a.35.35,0,0,0-.3.12.7.7,0,0,0-.12.3c0,.12,0,.24,0,.36v.45Zm5.88,10.35c.3.06.63.15,1,.24s.66.18,1,.24.51.12.63.15H274a1.36,1.36,0,0,0,1-.36c.24-.24.51-.51.81-.84V20a.84.84,0,0,0,0-.24c0-.12-.09-.15-.18-.15h-5.19a.62.62,0,0,0-.21.15A1.13,1.13,0,0,0,270,20v.21a1.8,1.8,0,0,0,.21.18,1.29,1.29,0,0,0,.21.21ZM272,11a2.65,2.65,0,0,0,1.92,0c.24-.09.36-.39.36-.84V10c0-.12,0-.21-.06-.33a1.11,1.11,0,0,0-.15-.33.23.23,0,0,0-.21-.12H272a.23.23,0,0,0-.21.12,1.07,1.07,0,0,0-.12.33,1.28,1.28,0,0,0-.06.33.68.68,0,0,0,0,.21C271.59,10.65,271.71,11,272,11Zm.21-5.34a2.4,2.4,0,0,0,1.5,0,.55.55,0,0,0,.36-.6V4.83a.19.19,0,0,0-.21-.21H272c-.12,0-.18.06-.18.21a1.32,1.32,0,0,0,0,.27A.55.55,0,0,0,272.16,5.7Zm6.21,5.13c.15.27.27.39.45.39h1.8c.09,0,.15,0,.24-.15a1.79,1.79,0,0,0,.18-.33,1.69,1.69,0,0,0,.12-.36,1.52,1.52,0,0,0,.06-.27A1.78,1.78,0,0,0,281,9.6c-.15-.27-.27-.39-.39-.39h-1.8c-.18,0-.3.15-.45.42a1.65,1.65,0,0,0-.18.57A1.7,1.7,0,0,0,278.37,10.83Z"/></svg>