<svg id="レイヤー_1" data-name="レイヤー 1" xmlns="http://www.w3.org/2000/svg" viewBox="0 0 297.54 38.07"><path d="M8.68,19.89c-4.41-1.62-6-1.44-6-1.44a9.81,9.81,0,0,1,7-3.06,50.69,50.69,0,0,0,.63-8.19h6.3a49.33,49.33,0,0,1-.77,9.13A28.16,28.16,0,0,1,19.71,18l-2.84,5.62q-1.41-.74-2.7-1.35C9.63,34.29,0,34.47,0,34.47S5.85,30.6,8.68,19.89Z"/><path d="M42.57,15.57s-4.28-2.39-7.83-2.43l0-4.68C42.93,8.91,42.57,15.57,42.57,15.57Zm14-.86s4,11.79-20.39,18.81L34.74,27.4C52.2,22.59,56.52,14.71,56.52,14.71Z"/><path d="M64.57,31.86s6.48-7,6.48-21.6h6.3C77.35,31.23,64.57,31.86,64.57,31.86ZM89.05,12.24s1,7.92,2,18.27l-5,.72c-1.84-9.81-3.19-18.14-3.19-18.14ZM87.39,7.78a4,4,0,0,1-.77,3.65A10.28,10.28,0,0,0,84,8.19L86,5.85a5.43,5.43,0,0,1,1.17,1.48l1.93-2.16a3.86,3.86,0,0,1,.59,5.58A10.33,10.33,0,0,0,87.39,7.78Z"/><path d="M103.23,20.2s8.37.14,23.85.59v4.14c-17.06.31-23.85.31-23.85.31Z"/><path d="M137.39,30.19A19.5,19.5,0,0,0,144,24.66h-5.35V22.45h6.79a15.34,15.34,0,0,0,.72-1.39h6.3l-.67,1.39h17.46l1.8-1.8,1.8,1.8v2.21h-6.84a30.49,30.49,0,0,0,7.42,2.2l-2.25,5a16.77,16.77,0,0,1-5.62-3.69c0,1.26-.09,4.09-.32,8.37-4.23.45-7.78.58-7.78.58V32.53s1,0,2.74,0c-.09-1-.13-1.89-.18-2.61h-4.77c-1.71,7.24-7.92,7.56-7.92,7.56s1.67-2.16,2.3-7.56h-3.28V28.12A16.2,16.2,0,0,1,137.39,30.19ZM164.11,5.44l.23,2.21h-5.72l.09-2.21H152.5c0,.63,0,1.35-.09,2.21h-4.76c-.05-.86-.14-1.58-.18-2.21h-8.78V3.24h8.59L147.06.72h5.67l-.09,2.52h6.21c0-.72,0-1.53.09-2.52h4.77c.09,1,.18,1.8.22,2.52h5.36l1.8-1.8,1.8,1.8v2.2Zm-1.62,14.4H150.44a6.19,6.19,0,0,0,0,.81h-6.17s0-4.14.32-12h5.22c0,.22.05.45.05.67h12a4.2,4.2,0,0,0,0-.67h6.16s0,4.14-.31,12h-5.22C162.54,20.38,162.49,20.11,162.49,19.84ZM147,27.76h2.79c0-.58,0-1.21,0-1.89h5.85c0,.68,0,1.31,0,1.89h4.28V27.4h5a9.93,9.93,0,0,1-1.66-2.74H150.39A14.76,14.76,0,0,1,147,27.76Zm3.14-14.31h12c0-.72-.09-1.35-.09-1.93H150Zm12.2,4.19-.14-2h-12c.05.72.1,1.39.1,2Z"/><path d="M181.26,35.28a45.65,45.65,0,0,0,10.89-7.65h-8.5V25.42h9.62c0-1.62,0-2.52,0-2.52h6.12v2.52h6l1.75-1.8,1.8,1.8v2.21H199.3c0,2.43-.13,5.76-.27,9.94h-5.22c-.08-1.66-.18-3.24-.22-4.68C186.84,37.57,181.26,35.28,181.26,35.28ZM192.69,2.21c-.27.85-.54,1.61-.81,2.38h3.64A17,17,0,0,0,197.15,0l4.45,1.44a8.46,8.46,0,0,1-2,3.15h3.24l1.8-1.8,1.8,1.8v2.2H199.8c0,.63-.05,1.58-.05,2.93h2.16l1.8-1.8,1.8,1.8v2.2h-5.8c-.05.86-.05,1.85-.09,2.93h2.29l1.8-1.8,1.8,1.8v2.2h-5.94c0,.9,0,1.89,0,2.93h3.28l1.8-1.76,1.8,1.76v2.2H191.52c0,.18,0,.32,0,.45h-4.73c-.14-4.27-.27-7.6-.36-10.17a9.58,9.58,0,0,1-4.63,2.12A54.07,54.07,0,0,0,187,.13Zm1.89,14.84h-3c-.05.95-.05,1.89-.05,2.93h3.11C194.62,18.94,194.62,18,194.58,17.05Zm-.18-5.13h-2.7c0,.9,0,1.85,0,2.93h2.84C194.44,13.77,194.4,12.78,194.4,11.92Zm-2.61-5.13c0,.77,0,1.71,0,2.93h2.57c0-1.35-.09-2.3-.14-2.93Zm20.47,26.1-2.16,4.5c-10.71-3.55-10.35-9.09-10.35-9.09A39,39,0,0,0,212.26,32.89Z"/><path d="M231,5h-8.91V2.83h25.51L249.43,1l1.8,1.79V5h-9.31c0,.76,0,2-.09,3.91h1.57V8.59h4.32c.5,8.69.63,10.53.63,10.53h-5.26v-.45H229.27a1.91,1.91,0,0,0,0,.45h-4.32c-.45-8.68-.59-10.53-.59-10.53h5.22V9h1.4C230.94,7.83,231,6.52,231,5ZM237.19,31h-5.4l-.13.81-4.59-.36c.13-2.52.32-4.82.45-6.71h-5V22.5h5.18l.27-2.84,5.44.41-.35,2.43h14.17l1.8-1.8,1.8,1.8v2.2h-6.17a18.6,18.6,0,0,1-1.08,4.05h3.65L249,27l1.8,1.8V31h-8.28a12.43,12.43,0,0,1-9.18,6.39A18.65,18.65,0,0,0,237.19,31Zm-6.34-19.8H229.5l-.18,5.31h1.44C230.76,15.48,230.81,13.86,230.85,11.16Zm7,17.59a21.51,21.51,0,0,0,.63-4.05h-5.76c-.18,1.17-.36,2.52-.63,4.05ZM235.4,5c.08,1.44.13,2.74.17,3.91h1.35L236.74,5ZM237,11.16h-1.35c.09,2.61.18,4.27.23,5.31h1.35C237.15,14.4,237.06,12.64,237,11.16Zm4.64,5.31h1.53c0-1.17.09-2.88.13-5.31h-1.53Z"/><path d="M261.81,13l2.93-3.56c.27.23.53.5.81.77a36.76,36.76,0,0,0,2.51-5.71l5,2.15c-2,3.33-3.87,5.09-5.44,6a13.28,13.28,0,0,1,.94,1.71c.59-1,1.17-2.12,1.8-3.29l4.73,2.84a24.44,24.44,0,0,1-4.36,4.59c.67-.05,1.34-.14,2.07-.23,0-.31,0-.63-.1-.94l3.65-.14c.36,1.85.63,3.38.81,4.5-.27-15.61-.36-19.48-.36-19.48h4.81v.4h11.43v-.4H297c.45,29,.59,35.28.59,35.28-4.32.49-7.92.63-7.92.63v-5s1,0,3.19.14c0-4.23.09-12.47.23-28.44H281.65c0,3.73-.13,12.46-.31,32.67h-3.87l-.14-6.71-3.73,1.89a47,47,0,0,0-1.35-4.77c0,2-.09,4.59-.18,7.88h-4.32c-.09-2.39-.18-4.41-.23-6.12a8.59,8.59,0,0,1-6.2,3.73s1.93-2.88,2.74-8.77l3.29.58c-.05-.63-.05-1.17-.09-1.66l-3.42.72-.9-4.86,2.79-.27,1.39-2.21A33.7,33.7,0,0,0,261.81,13Zm10.53,12.37a7.89,7.89,0,0,1,5,3.87c0-2-.09-3.82-.09-5.53l-4,.18s-.09-.54-.18-1.62a3.7,3.7,0,0,0-.71.18C272.39,23,272.34,24,272.34,25.33Zm12.46,2.75h1c-.18-7.43-.32-11.07-.36-12.69h-3.11V13.18h6.12l1.8-1.8,1.8,1.8v2.21h-3.15c0,1.53,0,5-.18,12.69h1.08c-.22-7.43-.31-9.09-.31-9.09h3.06s0,1.12-.23,11.65h-2.43v-.36h-5v.36h-3s0-1.12.22-11.65h2.43Zm2.21-17-3.42.45a23.5,23.5,0,0,0-1.49-4.59A5.52,5.52,0,0,1,287,11.07Zm-.59,1.8a14.21,14.21,0,0,0,2.39-6.17l3.51.18C291.73,11.92,286.42,12.87,286.42,12.87Z"/></svg>