<svg id="レイヤー_1" data-name="レイヤー 1" xmlns="http://www.w3.org/2000/svg" viewBox="0 0 486.49 88.44"><path d="M6.16,28c2.93.09,6.84.27,11.66.63v5.09a144,144,0,0,1-17.51.09V28C3.55,23,9.22,20.56,9.22,16c0-1.67-2.61-4.64-6.88-1.35L0,8.82C8.55,4,16.29,8.32,16.29,15.3,16.29,21.19,10.8,24.3,6.16,28ZM46.8,21.78c.09,6.25-2.93,12.06-10.44,12.06S25.83,28,25.92,21.73c.13-7.2,4.36-14.94,10.44-14.94S46.66,14.58,46.8,21.78Zm-4.68-1.35c0-3.65-2-7.34-5.76-7.34s-5.72,3.65-5.76,7.29,1.8,7.16,5.76,7.16S42.12,24,42.12,20.43ZM61.06,28c2.93.09,6.84.27,11.66.63v5.09a144,144,0,0,1-17.51.09V28c3.24-4.95,8.91-7.43,8.91-12,0-1.67-2.61-4.64-6.88-1.35L54.9,8.82C63.45,4,71.19,8.32,71.19,15.3,71.19,21.19,65.7,24.3,61.06,28Zm40.64-6.25c.09,6.25-2.93,12.06-10.44,12.06S80.73,28,80.82,21.73C81,14.53,85.18,6.79,91.26,6.79S101.56,14.58,101.7,21.78ZM97,20.43c0-3.65-2-7.34-5.76-7.34s-5.72,3.65-5.76,7.29,1.8,7.16,5.76,7.16S97,24,97,20.43ZM140.58,6V8.19h-9.32v7.06h4.64l1.8-1.8,1.8,1.8v2.21h-8.28c0,2.38-.05,5.08-.09,8.19H137l1.8-1.76,1.76,1.76V27.9h-9.5c0,2.74,0,5.76-.13,9h-5.18l-.27-9H113V25.65h3.42c-.41-6.21-.54-10.4-.54-10.4h9.45c-.09-3.33-.09-5.76-.14-7.06h-5c-4.23,5.89-9.63,5.71-9.63,5.71A38.92,38.92,0,0,0,117.4,0l5.72,2.12A27.37,27.37,0,0,1,121.5,6H137l1.8-1.8ZM125.46,25.65l-.14-8.19H122c0,1.75-.09,4.5-.23,8.19ZM157,20.25a5.75,5.75,0,0,1-2.79-5.13c0-6.48,3.74-8.33,8.6-8.33s8.55,1.85,8.55,8.33a5.75,5.75,0,0,1-2.79,5.13,6.85,6.85,0,0,1,4.05,6.34c0,3.87-2.88,7.25-9.81,7.25S153,30.46,153,26.59A6.81,6.81,0,0,1,157,20.25Zm9.63,4.32c-.09-1.53-1.44-3-3.82-3s-3.74,1.49-3.83,3,1,3,3.83,3S166.72,26.05,166.63,24.57Zm-3.82-5.9c2.7-.13,3.78-1.44,3.64-3s-1-2.61-3.64-2.61-3.6,1-3.69,2.61S160.11,18.54,162.81,18.67ZM183.46,36.9s4.64-7.47,3.6-35.6h6.3V2h7.56V1.3h5.22c.5,20.93.63,35.19.63,35.19-5.49.5-10.08.63-10.08.63V32.17s1.31,0,3.92.09c0-2.11,0-5,.09-8.64h-9.18C188.64,37.08,183.46,36.9,183.46,36.9Zm8.46-15.48h8.78c0-2.25,0-4.77.09-7.47h-7.92A74.9,74.9,0,0,1,191.92,21.42Zm1.13-9.72h7.74c0-2.3.09-4.82.09-7.47h-7.52C193.32,7,193.23,9.45,193.05,11.7Zm27,22.14A28.1,28.1,0,0,0,234.9,11.92c-6.44.27-10.76.27-10.76.27V7.6s7.92,0,17.33.32c0,8-2,13.45-4.82,17.28,2.57-.41,6.93-.14,11.88,4.23L244,33.84a35.76,35.76,0,0,0-8.55-7.16A22.36,22.36,0,0,1,220.05,33.84ZM272,8h6.3c0,25.92-15.26,25.92-15.26,25.92s4.55-2.34,7.16-11.39a17.85,17.85,0,0,0-6.66-1.84l.09-4.55a10.26,10.26,0,0,1-5.9,4.37s1.94-2.93,1.94-13.41H266A16.31,16.31,0,0,1,263.7,16c4.36.27,6.25,2.38,7.06,4.23a50.41,50.41,0,0,0,1.17-10H267V8.46h5Zm19.66,11.56s8.37.14,23.85.59V24.3c-17.05.31-23.85.31-23.85.31Zm44.1,14.27h-5c-.63-12.15-.81-27.27-.81-27.27h6.3S336.19,20.47,335.74,33.84Zm9.59-9.05c-8,0-8.37-8.28-8.37-8.28a16.6,16.6,0,0,0,8.37,2Zm22.77-5.53c-4.41-1.62-6-1.44-6-1.44a9.77,9.77,0,0,1,7-3.06,49.58,49.58,0,0,0,.63-8.19H376a50.27,50.27,0,0,1-.76,9.13,28.08,28.08,0,0,1,3.91,1.67L376.29,23q-1.43-.73-2.7-1.35c-4.55,12-14.18,12.2-14.18,12.2S365.26,30,368.1,19.26ZM402,14.94s-4.27-2.39-7.83-2.43l.05-4.68C402.34,8.28,402,14.94,402,14.94Zm13.95-.86S420,25.87,395.55,32.89l-1.4-6.12C411.61,22,415.93,14.08,415.93,14.08ZM424,31.23s6.48-7,6.48-21.6h6.3C436.77,30.6,424,31.23,424,31.23Zm24.48-19.62s.94,7.92,2,18.27l-5,.72c-1.85-9.81-3.2-18.14-3.2-18.14ZM446.8,7.15A4,4,0,0,1,446,10.8a10.43,10.43,0,0,0-2.66-3.24l2.07-2.34a5.14,5.14,0,0,1,1.17,1.49l1.94-2.17a3.85,3.85,0,0,1,.58,5.58A10.33,10.33,0,0,0,446.8,7.15Zm15.84,12.42s8.37.14,23.85.59V24.3c-17.05.31-23.85.31-23.85.31Zm-296.28,61A19.48,19.48,0,0,0,173,75h-5.35V72.82h6.79c.27-.45.5-.94.72-1.39h6.3l-.67,1.39h17.46l1.8-1.8,1.8,1.8V75H195a30.49,30.49,0,0,0,7.42,2.2l-2.25,5a16.77,16.77,0,0,1-5.62-3.69c0,1.26-.09,4.09-.32,8.37-4.23.45-7.78.58-7.78.58V82.9s1,0,2.74,0c-.09-1-.13-1.89-.18-2.61h-4.77c-1.71,7.24-7.92,7.56-7.92,7.56s1.67-2.16,2.3-7.56h-3.29V78.49A16.2,16.2,0,0,1,166.36,80.56Zm26.73-24.75.23,2.21H187.6l.09-2.21h-6.21c0,.63,0,1.36-.09,2.21h-4.77c0-.85-.13-1.58-.18-2.21h-8.77v-2.2h8.59L176,51.09h5.67l-.09,2.52h6.21c0-.72,0-1.53.09-2.52h4.77c.09.95.18,1.8.22,2.52h5.36l1.8-1.8,1.8,1.8v2.2Zm-1.62,14.4H179.41a5,5,0,0,0,.05.81h-6.17s0-4.14.32-12h5.22c0,.22,0,.45,0,.67h12.06a4.2,4.2,0,0,0,0-.67h6.16s0,4.14-.31,12h-5.22C191.52,70.75,191.47,70.48,191.47,70.21ZM176,78.13h2.79c.05-.58.05-1.21.05-1.89h5.85c0,.68,0,1.31-.05,1.89h4.28v-.36h5A9.93,9.93,0,0,1,192.24,75H179.37A14.6,14.6,0,0,1,176,78.13Zm3.15-14.31h12c0-.72-.09-1.35-.09-1.93H179ZM191.34,68l-.14-2h-12c.05.72.09,1.39.09,2Zm18.9,17.64A45.65,45.65,0,0,0,221.13,78h-8.51V75.79h9.63c0-1.62,0-2.52,0-2.52h6.12v2.52h6l1.75-1.8,1.8,1.8V78h-9.63c0,2.43-.13,5.76-.27,9.94h-5.22c-.09-1.66-.18-3.24-.22-4.68C215.82,87.94,210.24,85.65,210.24,85.65Zm11.43-33.07c-.27.85-.54,1.61-.81,2.38h3.64a16.66,16.66,0,0,0,1.62-4.59l4.46,1.44a8.37,8.37,0,0,1-2,3.15h3.24l1.8-1.8,1.8,1.8v2.21h-6.61c0,.62-.05,1.57-.05,2.92h2.16l1.8-1.8,1.8,1.8v2.2h-5.8c-.05.86-.05,1.85-.09,2.93h2.29l1.8-1.8,1.8,1.8v2.2h-5.94c0,.9,0,1.89,0,2.93h3.28l1.8-1.76,1.8,1.76v2.2H220.5c0,.18-.05.32-.05.45h-4.72c-.14-4.27-.27-7.6-.36-10.17A9.63,9.63,0,0,1,210.73,65,53.89,53.89,0,0,0,216,50.5Zm1.89,14.84h-3c-.05,1-.05,1.89-.05,2.93h3.11C223.6,69.31,223.6,68.32,223.56,67.42Zm-.18-5.13h-2.7c0,.9-.05,1.85-.05,2.93h2.84C223.42,64.14,223.38,63.15,223.38,62.29Zm-2.61-5.12c0,.76-.05,1.71-.05,2.92h2.57c0-1.35-.09-2.3-.14-2.92Zm20.47,26.09-2.16,4.5c-10.71-3.55-10.35-9.09-10.35-9.09A39,39,0,0,0,241.24,83.26ZM260,55.41H251.1v-2.2h25.51l1.8-1.8,1.8,1.8v2.2H270.9c0,.76,0,2-.09,3.91h1.57V59h4.32c.5,8.69.63,10.53.63,10.53h-5.26V69H258.25a1.91,1.91,0,0,0,0,.45h-4.32c-.45-8.68-.59-10.53-.59-10.53h5.22v.36h1.4C259.92,58.2,260,56.89,260,55.41Zm6.16,25.92h-5.4l-.13.81-4.59-.36c.13-2.52.31-4.82.45-6.71h-5v-2.2h5.18L257,70l5.44.41L262,72.87h14.18l1.8-1.8,1.8,1.8v2.2h-6.17a18.6,18.6,0,0,1-1.08,4.05h3.65l1.8-1.8,1.8,1.8v2.21h-8.28a12.43,12.43,0,0,1-9.18,6.39A18.65,18.65,0,0,0,266.17,81.33Zm-6.34-19.8h-1.35l-.18,5.31h1.44C259.74,65.85,259.78,64.23,259.83,61.53Zm7,17.59a21.51,21.51,0,0,0,.63-4.05h-5.76c-.18,1.17-.36,2.52-.63,4.05Zm-2.48-23.71c.09,1.44.14,2.74.18,3.91h1.35l-.18-3.91ZM266,61.53h-1.35c.09,2.61.18,4.27.23,5.31h1.35C266.13,64.77,266,63,266,61.53Zm4.64,5.31h1.53c0-1.17.09-2.88.13-5.31h-1.53Zm17.46-3.51L291,59.77c.27.23.54.5.81.77a35.72,35.72,0,0,0,2.52-5.71l5,2.15c-2,3.33-3.87,5.09-5.44,6a13.28,13.28,0,0,1,.94,1.71c.59-1,1.17-2.12,1.8-3.29l4.73,2.84A24.45,24.45,0,0,1,297,68.82c.68,0,1.35-.14,2.07-.23,0-.31,0-.63-.09-.94l3.65-.14c.36,1.85.63,3.38.81,4.5-.27-15.61-.36-19.48-.36-19.48h4.81v.4h11.43v-.4h3.87c.45,29,.59,35.28.59,35.28-4.32.49-7.92.63-7.92.63v-5s1,0,3.19.14c0-4.23.09-12.47.23-28.44H307.93c0,3.74-.13,12.46-.31,32.67h-3.87l-.14-6.71L299.88,83a47,47,0,0,0-1.35-4.77c0,2-.09,4.59-.18,7.88H294c-.09-2.39-.18-4.41-.23-6.12a8.6,8.6,0,0,1-6.21,3.73s1.94-2.88,2.75-8.77l3.28.58c0-.63,0-1.17-.09-1.66l-3.42.72-.9-4.86,2.79-.27,1.4-2.21A33.7,33.7,0,0,0,288.09,63.33ZM298.62,75.7a7.89,7.89,0,0,1,5,3.87c0-2-.09-3.82-.09-5.53l-4,.18s-.09-.54-.18-1.62a4,4,0,0,0-.72.18C298.66,73.41,298.62,74.35,298.62,75.7Zm12.46,2.75h1c-.18-7.43-.32-11.07-.36-12.69h-3.11V63.55h6.12l1.8-1.8,1.8,1.8v2.21h-3.15c0,1.53,0,5-.18,12.69h1.08c-.22-7.43-.31-9.09-.31-9.09h3.06s0,1.12-.23,11.65h-2.43v-.36h-5V81h-3s0-1.12.22-11.65h2.43Zm2.21-17-3.42.45a23.5,23.5,0,0,0-1.49-4.59A5.52,5.52,0,0,1,313.29,61.44Zm-.59,1.8a14.21,14.21,0,0,0,2.39-6.17l3.51.18C318,62.29,312.7,63.24,312.7,63.24Z"/></svg>