<svg id="レイヤー_1" data-name="レイヤー 1" xmlns="http://www.w3.org/2000/svg" viewBox="0 0 149.92 149.92"><defs><style>.cls-1{fill:#efe4dc;stroke:#efe4dc;stroke-miterlimit:10;stroke-width:5px;}.cls-2{fill:#231815;}</style></defs><circle class="cls-1" cx="74.96" cy="74.96" r="72.46"/><path class="cls-2" d="M123.73,83.45c-8.3,0-11.17-2.08-12.79-3.69s-3.7-4.49-3.7-12.79c0-.32,0-1.22-1-1.22s-1,.9-1,1.22c0,8.3-2.09,11.17-3.7,12.79S97,83.45,88.71,83.45a1,1,0,0,0-1.21,1c0,1,.89,1,1.21,1,8.3,0,11.17,2.09,12.79,3.7s3.7,4.49,3.7,12.79c0,.32,0,1.21,1,1.21s1-.89,1-1.21c0-8.3,2.09-11.18,3.7-12.79s4.49-3.7,12.79-3.7c.32,0,1.21,0,1.21-1S124.05,83.45,123.73,83.45Z"/><path class="cls-2" d="M45.52,61.1c12.47,0,16.78,3.14,19.2,5.56s5.56,6.74,5.56,19.21a1.55,1.55,0,0,0,1.54,1.81c1.49,0,1.53-1.33,1.53-1.81,0-12.47,3.13-16.79,5.56-19.21s6.73-5.56,19.2-5.56c.48,0,1.82,0,1.82-1.53S98.59,58,98.11,58c-12.47,0-16.78-3.13-19.2-5.55s-5.56-6.73-5.56-19.2c0-.48,0-1.82-1.53-1.82s-1.54,1.34-1.54,1.82c0,12.47-3.13,16.77-5.56,19.2S58,58,45.52,58c-.48,0-1.82.06-1.82,1.54S45,61.1,45.52,61.1Z"/><path class="cls-2" d="M66.88,96.46c0-.91-.82-.94-1.11-.94-7.64,0-10.28-1.92-11.76-3.4S50.6,88,50.6,80.35c0-.29,0-1.11-.94-1.11a1,1,0,0,0-.94,1.11c0,7.64-1.92,10.28-3.4,11.77s-4.13,3.4-11.76,3.4c-.3,0-1.12,0-1.12.94s.82.94,1.12.94c7.63,0,10.27,1.92,11.76,3.41s3.4,4.12,3.4,11.77a.94.94,0,0,0,.94,1.1c.91,0,.94-.81.94-1.1,0-7.65,1.93-10.29,3.41-11.77s4.13-3.41,11.76-3.41C66.06,97.4,66.88,97.37,66.88,96.46Z"/></svg>