<svg id="レイヤー_1" data-name="レイヤー 1" xmlns="http://www.w3.org/2000/svg" viewBox="0 0 440.58 88.26"><defs><style>.cls-1{fill:#f0908a;}</style></defs><path class="cls-1" d="M0,9.31s7.15,0,21.51.32c0,0,0,9.45-.41,22.77A209,209,0,0,1,0,32.49V26.68s5.71-.13,15.75.36c-.23-5.53-.36-10.39-.45-13.54-10,.31-15.3.4-15.3.4ZM35.77,24.93s6.89.94,17.06,2.7l-.36,5c-9.36-.59-17.19-1.44-17.19-1.44ZM51.52,12.15s-5.76-.54-15.07-1.76l.09-2.83c10.3.23,15.12.54,15.12.54ZM37,19.71l.18-2.88C47.47,17.5,51.12,18,51.12,18l-.23,4.1Zm43.38,7.11c0-3.83.18-7.52.27-10.08l-9.86.36V13.23s3.24,0,15.26.27c0,0-.32,6.43-1,13.41,1,0,2.16.09,3.28.09v4.27c-11,.54-20.16.68-20.16.68V26.68S72.85,26.68,80.37,26.82Zm43.24,4.77c-12.15.63-22.32.81-22.32.81V26.1s9,0,22.32.4Zm-1.35-22v6.3s-7.47-.18-19.61-.81V10C116,9.58,122.26,9.58,122.26,9.58Zm13.1,3.65h19l1.8-1.76,1.75,1.76V15h-7.15c-.54,18.31-12.42,18.67-12.42,18.67s5.76-5.26,6.12-18.67h-9.09Zm1.31-4.86V6.57H152.5l1.76-1.8,1.8,1.8v1.8Zm29.92,10.89s8.73-.45,15.25-9.18l4.23,3.15a18.22,18.22,0,0,1-5.4,4.95c-.22,2.52-.58,8.32-.58,15.52h-2.92C176.4,28,176,23.08,175.72,20.07A17.32,17.32,0,0,1,166.59,19.26Zm40.09-.14c-4.41-1.62-6-1.44-6-1.44a9.77,9.77,0,0,1,7-3.06,50.6,50.6,0,0,0,.63-8.19h6.3a49.36,49.36,0,0,1-.77,9.14,26.88,26.88,0,0,1,3.92,1.66l-2.84,5.63q-1.41-.75-2.7-1.35C207.63,33.52,198,33.7,198,33.7S203.85,29.83,206.68,19.12Zm32.09-4.32s-4.27-2.38-7.83-2.42L231,7.7C239.13,8.14,238.77,14.8,238.77,14.8ZM252.72,14s4,11.79-20.39,18.81l-1.39-6.12C248.4,21.82,252.72,14,252.72,14Zm8.06,17.14s6.47-7,6.47-21.59h6.3C273.55,30.46,260.78,31.09,260.78,31.09Zm24.47-19.62s.95,7.92,2,18.27l-5,.72C280.35,20.65,279,12.33,279,12.33ZM283.59,7a4,4,0,0,1-.77,3.65,10.36,10.36,0,0,0-2.65-3.25l2.07-2.34a5.61,5.61,0,0,1,1.17,1.49l1.93-2.16a3.86,3.86,0,0,1,.59,5.58A10.33,10.33,0,0,0,283.59,7Zm15.84,12.42s8.37.13,23.85.58v4.14c-17.06.32-23.85.32-23.85.32ZM334.62,35c-.5-17.82-.63-30-.63-30h5.71v.54h8.15c-.09,6.21-2.7,9.49-5.09,11.2,5.31,4.23,7.47,11.74-2.6,13.77l-.64-3.74L339.39,35Zm4.9-10.17c4.32-1.53,1.53-4.45.09-5.71C339.57,20.83,339.57,22.72,339.52,24.79Zm.09-7.56a26,26,0,0,0,2.8-9.49H339.7C339.7,9.81,339.66,13,339.61,17.23Zm9.59,14.22-.54-30.33h5.67v.5h4.9v-.5H364c.45,15.26.59,18.54.59,18.54h-3a29.9,29.9,0,0,0,.32,3.51c.58-.72,1.21-1.53,1.89-2.52l3.28,3.15a7.6,7.6,0,0,1-4.54,2.93,44.23,44.23,0,0,0,3.42,9.85s-8.78-3.33-9.63-17.59h-2.16c0,3.24,0,7-.09,11.47,1.08-.18,2.29-.45,3.69-.72l.67,3.6C349,36,347,36.58,347,36.58l-.86-4.5Zm5-14.67H359c0-1.21.05-2.92.09-5.35h-4.81C354.24,13,354.19,14.76,354.19,16.78Zm.09-7.56h4.82c0-1.57,0-3.37.09-5.39h-4.86C354.33,5,354.28,6.75,354.28,9.22ZM375.43,36.4a61.42,61.42,0,0,0,3.33-16.11h6.3A31.51,31.51,0,0,1,383,28.8a44.77,44.77,0,0,0,4.54.94c-.27-7.29-.41-12.55-.45-14.31h-6.48v-2.2h16.65l1.8-1.8,1.75,1.8v2.2h-7.6c0,1,0,3.38-.09,6.93h2.2l1.8-1.8,1.8,1.8v2.21h-5.85c0,1.71,0,3.6-.09,5.71a71.32,71.32,0,0,0,9.18-.18v6.3c-11.79.32-17.64-2.38-20.56-4.95C378.81,35.91,375.43,36.4,375.43,36.4Zm.95-25.33c-.45-6.44-.59-7.83-.59-7.83h5.67v.68h6.84C388,.76,387.85,0,387.85,0h5.72s0,.45-.23,3.92h6.71a3.82,3.82,0,0,1,0-.68h4.73c.49,6.43.63,7.83.63,7.83h-5.72s0-.54.23-4.95H381.37c0,1.13-.09,2.75-.22,5Zm58,11.61c-.36-4.86-5.08-8-11.16-5.31-4.59,2.07-5.13,9.36-2.07,9.72,2.25.27,4.28-3.29,5-9l5.72.72c-1,8.05-5.49,13.45-9.59,13.45-4.4,0-7.15-4-7.15-8.32A13.46,13.46,0,0,1,427,10.48c9-1.12,14.53,6.53,13.5,13.77-1,6.84-5.63,10.35-13.73,9.45C430.83,32,434.83,28.48,434.38,22.68Zm-395,59.59c-5.13,3.83-8.59,3.29-8.59,3.29a49.36,49.36,0,0,0,6.7-7.2c-1.62-4.1-3.15-10-4.27-18.27H26c-.18,2.38-.45,4.54-.76,6.43h3.1a1.41,1.41,0,0,1,0-.27h4.81s0,1.17-.31,12.38c-4.32.49-8,.63-8,.63v-5s1.26,0,3.87.14c-.09-2.57-.18-4.41-.27-5.67h-3.6c-2.52,12.6-7.42,14.08-7.42,14.08s2.43-6.57,2.43-24.93H32.89c-.27-2.16-.49-4.5-.67-7h6.3c.13,2.47.31,4.81.54,7h6.21l1.8-1.8,1.8,1.8v2.21H39.28a127.61,127.61,0,0,0,1.89,13,46.89,46.89,0,0,0,3.33-6.57L50,69.54a55.22,55.22,0,0,1-7.34,9.81c2.21,7.51,4.41,8.41,4.41,8.41S43.24,89,39.37,82.27Zm8.82-27.53-4.5,2a13.24,13.24,0,0,0-4-5.35S45.67,49.07,48.19,54.74ZM58.1,76.06c1.61-.22,3.1-.49,4.49-.81-.36-8.55-.54-14.8-.58-16.69H58.27V56.31H68.76l1.8-1.76,1.8,1.76v2.25H68.13c0,1.66,0,6.88-.23,15.3a34.23,34.23,0,0,0,4.64-1.8s-.32,6.3-13.68,9.22ZM74.92,51h6.3c0,3.11-.09,6-.22,8.6h2.25v-.5h6.12s0,9.72-.32,28.22c-6.12.63-11.25.81-11.25.81v-6.3s2.25,0,5.9.13c-.27-9.36-.36-16.51-.45-20.16H80.86C79,88.26,70.51,88.26,70.51,88.26s3.33-5.09,4.19-26.42H71.91v-2.2h2.88C74.88,57,74.92,54.15,74.92,51Zm37.53,8.55,1.8,1.8V63.6H97.6V61.39h5.81c-.14-1.66-.22-3.19-.27-4.54H98.5V54.64H103L102.87,51H109s0,1.26,0,3.64h.81l1.8-1.8,1.8,1.8v2.21H108.9c-.05,1.31-.14,2.83-.18,4.54h1.93Zm0,12.2,1.8,1.75v2.25H109c0,1,0,2.48-.09,4.46h.85l1.8-1.8,1.8,1.8v2.2h-4.5c0,1.58-.09,3.33-.18,5.27h-5.21l-.27-5.27H98.5v-2.2h4.59c-.09-1.89-.17-3.42-.17-4.46H97.6V73.54h13.05Zm-6.7-.32-4.1,1.26a21.09,21.09,0,0,0-2.34-8.27S104.31,64.68,105.75,71.47Zm.45,1.4a21.34,21.34,0,0,0,1.39-8.51l4.19.81C111.1,72.1,106.2,72.87,106.2,72.87Zm14.67-14.13c0,3.51-.09,11.47-.32,29h-4.72c-.5-26-.63-31.64-.63-31.64h5.71v.46h5.4a1.89,1.89,0,0,0,0-.46h6.16s0,3.83-.31,11.21c-4.32.45-8,.63-8,.63v-5s.9,0,2.48,0c-.09-1.67-.18-3.1-.23-4.23Zm10,28.93A14,14,0,0,1,127,85.06a8.88,8.88,0,0,1-5.67,2.66,24.42,24.42,0,0,0,3.29-5.85A14.87,14.87,0,0,1,123,74.44a23.27,23.27,0,0,0,3,3.78,29.36,29.36,0,0,0,1-6.07h-4.82V69.94h9.54c0,5.18-.85,8.82-2.11,11.43A16.83,16.83,0,0,0,132.7,83Zm10.18-22.81s1.8-4.36,2.2-13.41L149.4,53a27.13,27.13,0,0,1-.81,3.28h4.23c-.14-3.42-.18-5.4-.18-5.4h6.16s0,1.84-.09,5.4h7.34l1.8-1.8,1.8,1.8v2.2h-11c0,2.07-.09,4.5-.18,7.29h5.76l1.8-1.8,1.8,1.8V68H143.59V65.8h9.59c-.14-2.74-.23-5.17-.32-7.29h-5.08C145.17,64.5,141.08,64.9,141.08,64.86Zm11,7.65v.63h7.65v-.63h5.22c.45,9.09.59,15.25.59,15.25h-6.12V87h-7.65v.76h-5.22c-.5-9-.63-15.25-.63-15.25Zm0,2.83c0,2.07-.09,5.22-.18,9.41h7.56c0-2.07.09-5.22.22-9.41Zm30.69-15s7.15,0,21.51.32c0,0,0,9.45-.41,22.77a209,209,0,0,1-21.1.09V77.68s5.72-.13,15.75.36c-.23-5.53-.36-10.39-.45-13.54-10,.31-15.3.4-15.3.4Zm35.73,10.13s8.37.13,23.85.58v4.14c-17.06.32-23.85.32-23.85.32Zm49.59-13c0,1.94,0,3.74-.18,5.45h2l1.8-1.8,1.8,1.8v1.8H267.7c-1.89,19.75-11.56,20.07-11.56,20.07s4.23-5.22,5.31-20.07h-8.51v-1.8h8.64c.09-1.71.14-3.51.14-5.45Zm17,13s8.37.13,23.85.58v4.14c-17.06.32-23.85.32-23.85.32Zm54.72,6.66,1,6.21c-18.63,5.22-24.57-5.9-13.59-13a8,8,0,0,0-2.84-1,24.51,24.51,0,0,0,1.8-5.08H322.2v-1.8h4.32a28.32,28.32,0,0,0,.45-5h6.3a14.11,14.11,0,0,1-.9,5h1.57l1.8-1.8,1.8,1.8v1.8h-6a14.64,14.64,0,0,1-2.66,3.55,6.73,6.73,0,0,1,2,.59c.86-.36,1.76-.72,2.75-1l.9,1.85c-.54.18-1.08.45-1.58.67l1.67,1.85-3.78,3a11.19,11.19,0,0,0-1.4-2.3C325.8,76.11,327.15,80.47,339.75,77.1Zm16.42-5.54a14,14,0,0,1-5.67,2.3,36.65,36.65,0,0,0,8-17.32l6,1.88c-1.66,6.66-4.77,10.44-7.65,12.6h4.05c.45,11.25.59,13.68.59,13.68h-5.67S355.86,83.4,356.17,71.56ZM383.8,60.85c.45,10.35.59,12.6.59,12.6h-5.22v-.72h-2.84a37.2,37.2,0,0,1-1.93,6.35,38.28,38.28,0,0,0,8.5,2.38l-1.39,6.12a28,28,0,0,1-9.41-4.14c-2.79,4-5.49,4.14-5.49,4.14s1.4-1.44,2.75-6.7a8.94,8.94,0,0,1-2.3-6.3,19.34,19.34,0,0,0,3.15,2.34c.23-1.26.45-2.66.63-4.19h-1.39v.72h-4.32c-.45-10.35-.59-12.6-.59-12.6h5.22v.68h2.07c.05-1.26.14-2.61.14-4h-7.25v-2.2h7.34c0-1.44,0-2.92,0-4.5h6.3c0,1.58,0,3.06-.09,4.5h2.16l1.8-1.8,1.8,1.8v2.2h-5.85c0,1.4-.13,2.75-.22,4h1.48v-.68Zm-12.1,2.88h-2l-.18,6.8h1.57C371.34,68.5,371.56,66.25,371.7,63.73Zm7.69,0h-1.62c-.22,2.52-.58,4.77-.94,6.8h2.38ZM399,84.7c5.26-2.61,7.74-6.57,6.34-10.66-1-2.88-4.32-3.11-8.05-2.12L396,65.71c6.75-1.79,12.87-.18,14.89,4.55C413.86,77.23,408.64,84.7,399,84.7Zm.81-22.86a14.68,14.68,0,0,1,8,3.15s1.53-6.48-7.2-8.45Z"/></svg>