<svg id="レイヤー_1" data-name="レイヤー 1" xmlns="http://www.w3.org/2000/svg" viewBox="0 0 278.58 32.52"><path d="M22.45,30.87Q15.67,21.29,8.29,12.15c-.78-1-3.55.14-2.66,1.24Q13,22.53,19.79,32.12c.72,1,3.49-.07,2.66-1.25Z"/><path d="M1.72,4.26h0l.38-.13L2,4.15l.39-.08H2.35l.37,0H2.65l.32,0h-.1l.26.07L3,4.07l.19.12a.67.67,0,0,1-.24-.26L3,4.1a.87.87,0,0,1-.13-.44v.19A.64.64,0,0,1,3,3.61l-.1.2a.44.44,0,0,1,.08-.11l-.19.19.08-.07a.62.62,0,0,0,.24-.29.33.33,0,0,0,.06-.3A.34.34,0,0,0,2.92,3a.64.64,0,0,0-.35-.14l-.33,0A2.78,2.78,0,0,0,1.49,3l-.38.12a2.36,2.36,0,0,0-.59.35,1.39,1.39,0,0,0-.32.32A1.38,1.38,0,0,0,.06,4s0,0,0,.08a1.12,1.12,0,0,0,0,.36.58.58,0,0,0,0,.19.56.56,0,0,0,.07.18,1.55,1.55,0,0,0,.2.32.53.53,0,0,0,.13.13,1.73,1.73,0,0,0,.34.21,2.43,2.43,0,0,0,.76.14l.4,0H2a3.64,3.64,0,0,0,.86-.23A1.58,1.58,0,0,0,3.3,5.1a1,1,0,0,0,.32-.29.36.36,0,0,0,.11-.3.27.27,0,0,0-.1-.26l-.19-.12A1.45,1.45,0,0,0,2.86,4l-.37,0a3.52,3.52,0,0,0-.77.21Z"/><path d="M275.79,1.66,257.92,23.44c-.43.52.37.68.74.69a2.74,2.74,0,0,0,1.93-.75L278.45,1.6c.43-.52-.37-.68-.74-.68a2.66,2.66,0,0,0-1.92.74Z"/><path d="M253.57,29l-1.11,1.08-.16.15a.29.29,0,0,0-.12.24c0,.08,0,.14.08.2a.57.57,0,0,0,.31.1,1.29,1.29,0,0,0,.44,0,4,4,0,0,0,1.13-.25,2.31,2.31,0,0,0,.8-.47L256.05,29l.16-.16a.28.28,0,0,0,.12-.23.17.17,0,0,0-.08-.2.58.58,0,0,0-.31-.11,1.6,1.6,0,0,0-.44,0,4,4,0,0,0-1.13.25,2.38,2.38,0,0,0-.8.47Z"/><path d="M24.41,14.32a3.62,3.62,0,0,1,1.37-1.06,6.25,6.25,0,0,1,1.78-.52c.65-.11,1.26-.2,1.84-.24l.23-.23v-.9c0-1.14,0-2.29-.05-3.42s-.08-2.27-.08-3.42a1.18,1.18,0,0,1,.06-.36.28.28,0,0,1,.3-.18H32a.3.3,0,0,1,.24.12.28.28,0,0,1,.12.24V6.87l.26.23h4.19l.24.25V9.26c0,.16-.11.27-.35.29a3.92,3.92,0,0,1-.86,0c-.34,0-.72-.06-1.13-.09a6,6,0,0,0-1.14,0,1.89,1.89,0,0,0-.86.33,1,1,0,0,0-.35.83c0,.18,0,.37,0,.59a3.27,3.27,0,0,0,0,.63,3.7,3.7,0,0,0,0,.59,1.05,1.05,0,0,0,.24.51,1.8,1.8,0,0,0,.59.47,7.39,7.39,0,0,0,1,.46c.38.17.76.35,1.17.51a9.74,9.74,0,0,1,1.12.56,3.4,3.4,0,0,1,.82.59.9.9,0,0,1,.33.65,1.31,1.31,0,0,1-.16.48,3.14,3.14,0,0,1-.38.69,3.9,3.9,0,0,1-.47.61.74.74,0,0,1-.49.27A1.19,1.19,0,0,1,35.5,18a5.18,5.18,0,0,1-.79-.56,9.93,9.93,0,0,1-.76-.65,6.74,6.74,0,0,0-.59-.46.37.37,0,0,1-.13,0H33.1a.33.33,0,0,0-.28.23l-.27.6c-.11.23-.26.48-.42.75a3.19,3.19,0,0,1-.72.76,4,4,0,0,1-1.11.57,5.43,5.43,0,0,1-1.68.24A9.72,9.72,0,0,1,27,19.33a4.57,4.57,0,0,1-1.53-.56,3.41,3.41,0,0,1-1.12-1.05,2.83,2.83,0,0,1-.43-1.62A2.78,2.78,0,0,1,24.41,14.32Zm2.37,2.18a1,1,0,0,0,.42.3,1.8,1.8,0,0,0,.52.13c.2,0,.38,0,.54,0a1.66,1.66,0,0,0,1.08-.33,1.26,1.26,0,0,0,.42-1,.67.67,0,0,0-.11-.41.54.54,0,0,0-.27-.2.84.84,0,0,0-.4-.09h-.43a4.51,4.51,0,0,0-.61,0,2.27,2.27,0,0,0-.61.15,1.42,1.42,0,0,0-.51.32.85.85,0,0,0-.2.6A.83.83,0,0,0,26.78,16.5Z"/><path d="M46.08,17.31a.13.13,0,0,1,.11-.13,14,14,0,0,0,2.43-.72,6.24,6.24,0,0,0,1.94-1.17,4.76,4.76,0,0,0,1.3-1.76,6,6,0,0,0,.45-2.47,10.75,10.75,0,0,0-.07-1.2,4,4,0,0,0-.31-1.25,2.82,2.82,0,0,0-.68-1,1.63,1.63,0,0,0-1.15-.4,2.6,2.6,0,0,0-1.35.34,3.82,3.82,0,0,0-1,.92A5.16,5.16,0,0,0,47,9.75a7.74,7.74,0,0,0-.45,1.46,11.35,11.35,0,0,0-.22,1.45,8,8,0,0,0,0,1.28.45.45,0,0,1-.26.38,1.53,1.53,0,0,1-.54.14,2.91,2.91,0,0,1-.59,0l-.47,0a.63.63,0,0,1-.63-.36,2.17,2.17,0,0,1-.23-.86,6.68,6.68,0,0,1,0-1,6.42,6.42,0,0,0,.06-.77,33.24,33.24,0,0,1,.18-3.62c.14-1.19.27-2.38.41-3.6l.22-.2a.44.44,0,0,1,.27-.16l1.8.13a.42.42,0,0,1,.25.12.44.44,0,0,1,.11.24,6.29,6.29,0,0,0-.2.82,5.06,5.06,0,0,0-.05.74v.2a.82.82,0,0,1,0,.16.08.08,0,0,0,0,.07l.07,0a1.43,1.43,0,0,0,.67-.25c.25-.16.54-.34.86-.52a6.88,6.88,0,0,1,1-.54,3,3,0,0,1,1.2-.26,3.73,3.73,0,0,1,2.17.6,4.33,4.33,0,0,1,1.38,1.53A7.62,7.62,0,0,1,54.87,9a11.82,11.82,0,0,1,.21,2.18,8.67,8.67,0,0,1-.54,3A8.69,8.69,0,0,1,53,16.86a8.17,8.17,0,0,1-2.37,1.91,6.45,6.45,0,0,1-3,.72,1,1,0,0,1-.54-.24,2.48,2.48,0,0,1-.5-.52,3,3,0,0,1-.36-.66,1.77,1.77,0,0,1-.15-.58S46.08,17.38,46.08,17.31Z"/><path d="M61.52.6l.39-.42h4l.42.42V14.79a.22.22,0,0,1-.09.09c0,.06-.09.09-.12.12s-.12.06-.21.09l-.18.09H61.91l-.39-.39Zm4.65,20.76c.06-.09.09-.18.15-.18A22.49,22.49,0,0,0,69.5,19.8,12.57,12.57,0,0,0,72,18a12,12,0,0,0,1.89-2.34A15.65,15.65,0,0,0,75.2,12.6V0h4.5l.42.39V2c0,.39,0,.81,0,1.23V4.23c0,1.89,0,3.75-.09,5.61a22.6,22.6,0,0,1-.69,5.22,14.87,14.87,0,0,1-2.07,4.62,12.52,12.52,0,0,1-4.2,3.72c-.24.12-.48.27-.78.42a4.29,4.29,0,0,1-.9.48,6.25,6.25,0,0,1-1,.36,2.68,2.68,0,0,1-.93.18.75.75,0,0,1-.24,0,.44.44,0,0,1-.18,0L66.32,22c-.06,0-.09-.12-.15-.21a1.18,1.18,0,0,1-.06-.18S66.14,21.48,66.17,21.36Z"/><path d="M100.91,10.08a1.64,1.64,0,0,1,.48-1A13.54,13.54,0,0,1,102.53,8c.42-.36.84-.72,1.26-1a6.78,6.78,0,0,0,.93-.9V5.7a1,1,0,0,0-.15-.48.44.44,0,0,0-.45-.24h-17s-.06,0-.09-.09-.09-.09-.12-.09a1.23,1.23,0,0,0-.09-.24.46.46,0,0,1-.09-.18V1.2a.7.7,0,0,1,.21-.42A.53.53,0,0,1,87.32.6h22a1.75,1.75,0,0,1,.39.15,4.11,4.11,0,0,1,.42.24c.12.12.27.27.48.45s.42.39.6.57.36.36.51.54a1.81,1.81,0,0,1,.21.24v.6s-.09.12-.24.36a7.3,7.3,0,0,0-.57.81c-.18.3-.42.63-.63,1s-.42.63-.57.84c-.24.36-.6.9-1.11,1.59a20.1,20.1,0,0,1-1.62,2,20,20,0,0,1-1.74,1.8,2.23,2.23,0,0,1-1.44.78,1.62,1.62,0,0,1-.84-.27,6.27,6.27,0,0,1-.87-.69c-.27-.27-.54-.54-.78-.81a5.49,5.49,0,0,1-.6-.63ZM88.64,21.45a9.48,9.48,0,0,1,.81-.54l.93-.45A2.48,2.48,0,0,0,91.1,20a14.22,14.22,0,0,0,2.31-2.7,10.54,10.54,0,0,0,1.23-2.79,14.2,14.2,0,0,0,.45-3.09c.06-1.08.06-2.28,0-3.6a.63.63,0,0,1,.21-.39.44.44,0,0,1,.39-.21h3.39a.83.83,0,0,1,.45.24l.36.36a2.54,2.54,0,0,0,0,.39c0,.18,0,.39.06.6a4.08,4.08,0,0,0,.06.63c0,.18,0,.3,0,.36V10a24.52,24.52,0,0,1-.33,3.93,16.09,16.09,0,0,1-1.08,3.78,15,15,0,0,1-1.92,3.36,12.34,12.34,0,0,1-2.85,2.73c-.33.21-.63.45-1,.66a1.65,1.65,0,0,1-1,.36,2.35,2.35,0,0,1-1-.3,6.89,6.89,0,0,1-1.2-.69,4.79,4.79,0,0,1-1-.9,1.38,1.38,0,0,1-.42-.84A.87.87,0,0,1,88.64,21.45Z"/><path d="M114.26,20.94c.39-.57.84-1.2,1.35-1.92s1-1.41,1.41-2.1a13.3,13.3,0,0,0,.9-1.53,16.66,16.66,0,0,0,.84-3.51,32.08,32.08,0,0,0,.3-3.78c0-1.29,0-2.55-.06-3.81s-.09-2.43-.09-3.51l.21-.39h4.2l.18.21a1.32,1.32,0,0,0,0,.27V2.7c0,1.92,0,3.87,0,5.85a36.41,36.41,0,0,1-.57,5.79,20.77,20.77,0,0,1-1.71,5.37,15.22,15.22,0,0,1-3.51,4.68.59.59,0,0,0-.21,0h-.18a3.24,3.24,0,0,1-1.08-.21,7.05,7.05,0,0,1-1.17-.57,5.16,5.16,0,0,1-1-.78,1.19,1.19,0,0,1-.42-.87A3.25,3.25,0,0,1,114.26,20.94ZM131.72.39l.09.09a.16.16,0,0,1,.09.12c.06,0,.09.12.15.21a1.18,1.18,0,0,1,.06.18V17c0,.09.09.18.3.27l.3.15a10.59,10.59,0,0,0,3-2c.84-.81,1.71-1.68,2.58-2.64a.46.46,0,0,0,.18-.09.52.52,0,0,1,.21-.09,1.26,1.26,0,0,1,.78.42,5.42,5.42,0,0,1,.78,1c.24.39.45.78.63,1.14a2.83,2.83,0,0,1,.24.84,2.4,2.4,0,0,1-.69,1.2c-.48.51-1.08,1.11-1.8,1.74s-1.53,1.29-2.4,1.95-1.74,1.29-2.55,1.83a17.63,17.63,0,0,1-2.22,1.35,3.68,3.68,0,0,1-1.47.54,2.78,2.78,0,0,1-.72-.21,5.42,5.42,0,0,1-.87-.57,9,9,0,0,1-.78-.66,1,1,0,0,1-.33-.57V.39Z"/><path d="M146.49,12.2c0-.53,0-1.12.07-1.79s.07-1.35.13-2.05.14-1.33.25-1.93A7.19,7.19,0,0,1,147.35,5c.17-.38.38-.56.63-.56h.54a3.75,3.75,0,0,1,.67,0,1.54,1.54,0,0,1,.56.14A.44.44,0,0,1,150,5a9.5,9.5,0,0,1-.16,1.75c-.13.58-.25,1.15-.38,1.75s-.27,1.15-.38,1.72A8.93,8.93,0,0,0,148.9,12a1.45,1.45,0,0,0,0,.29.18.18,0,0,0,.2.12.36.36,0,0,0,.3-.12.43.43,0,0,1,.31-.13.77.77,0,0,1,.27.09,1.59,1.59,0,0,1,.32.18,1.66,1.66,0,0,1,.27.25.5.5,0,0,1,.09.2v.36c-.07.27-.16.56-.25.9s-.2.67-.3,1-.18.72-.27,1.06-.19.69-.26,1a10.06,10.06,0,0,0-.18,1.05,1.1,1.1,0,0,1-.16.57.62.62,0,0,1-.47.26,10.34,10.34,0,0,1-1.19.05.7.7,0,0,1-.66-.45,3.78,3.78,0,0,1-.34-1,7.84,7.84,0,0,1-.11-1.17V14.68c0-.23,0-.47,0-.72V12.2Zm5.28,2.91a4.51,4.51,0,0,1,0-.72,2.68,2.68,0,0,1,.14-.65c.06-.18.17-.27.31-.27h1.57c.18,0,.28.06.32.18a2.48,2.48,0,0,1,.07.47,3.23,3.23,0,0,0,.06.61,1.14,1.14,0,0,0,.27.62,1.84,1.84,0,0,0,.77.45,4.15,4.15,0,0,0,1.48.2,12,12,0,0,0,1.8-.13,12.21,12.21,0,0,1,1.8-.13,1.79,1.79,0,0,1,.3,0c.15,0,.2.09.2.24v2c0,.18-.11.29-.34.38a2.56,2.56,0,0,1-.76.16,5.49,5.49,0,0,1-.79.05h-.61a3.7,3.7,0,0,1-.49,0h-1c-.54,0-1.11,0-1.73-.09a5.46,5.46,0,0,1-1.65-.39,3.2,3.2,0,0,1-1.26-.9,2.59,2.59,0,0,1-.51-1.68C151.78,15.51,151.77,15.35,151.77,15.11ZM160.32,6V8.18l-.09.07c-.07,0-.13.06-.16.06a3.68,3.68,0,0,1-.38.09l-.34,0h-5.87a1.91,1.91,0,0,1-.33-.06,1.13,1.13,0,0,1-.27-.14.34.34,0,0,1-.12-.27V6.15a.3.3,0,0,1,.12-.24.28.28,0,0,1,.24-.12h6.95Z"/><path d="M172.43,11.91a.33.33,0,0,0-.14-.27.48.48,0,0,0-.27-.09h-.08c-.27.12-.61.27-1,.47s-.88.41-1.35.61-1,.36-1.44.5a4.25,4.25,0,0,1-1.32.24.87.87,0,0,1-.54-.24,2.51,2.51,0,0,1-.48-.54,4.27,4.27,0,0,1-.33-.68,2.25,2.25,0,0,1-.12-.61l.57-.27,1.44-.65c.58-.27,1.23-.54,1.93-.85s1.35-.59,2-.88l1.62-.74a4.41,4.41,0,0,0,.86-.45,20.38,20.38,0,0,0,2.13-1.64c.67-.59,1.31-1.2,2-1.83h.36s.15.07.33.23a4.38,4.38,0,0,1,.55.52c.2.18.36.38.53.54s.25.26.27.27a1.15,1.15,0,0,1,0,.18,1.06,1.06,0,0,1-.25.56A7.94,7.94,0,0,1,179,7a9.42,9.42,0,0,1-.88.72c-.3.25-.61.49-.92.71s-.57.41-.83.59-.43.29-.55.38l-.25.36v9.13l-.06.1-.05.13-.06.07s0,.06-.07.06h-2.65l-.23-.26Z"/><path d="M183.34,17.44c0-.08.18-.24.5-.49s.7-.5,1.15-.79.87-.58,1.3-.85.72-.5.9-.65c.43-.36.81-.7,1.13-1a14.48,14.48,0,0,0,1-1.14.54.54,0,0,0,0-.11v-.12a.83.83,0,0,0-.31-.63,4.87,4.87,0,0,0-.75-.56c-.29-.2-.63-.38-1-.58s-.69-.36-1-.54a4.54,4.54,0,0,1-.76-.55.87.87,0,0,1-.31-.62,1.07,1.07,0,0,1,.18-.45,5.82,5.82,0,0,1,.44-.61,3.88,3.88,0,0,1,.46-.52c.18-.15.29-.22.36-.22h.49L191,9.51h.09a.2.2,0,0,0,.09,0,.73.73,0,0,0,.58-.4,6.17,6.17,0,0,0,.51-1,11.27,11.27,0,0,0,.43-1.28c.14-.46.27-.9.41-1.27a7.76,7.76,0,0,1,.4-1c.14-.27.29-.4.45-.4a4.81,4.81,0,0,1,.65.09,7.33,7.33,0,0,1,.86.23,4.14,4.14,0,0,1,.76.38.62.62,0,0,1,.32.47,4.54,4.54,0,0,1-.29,1.44,15.42,15.42,0,0,1-.7,1.57c-.27.54-.54,1-.83,1.53s-.52.9-.72,1.26v.23a1.12,1.12,0,0,0,.27.7,4.09,4.09,0,0,0,.69.69c.28.23.57.45.9.68s.63.43.9.65a6.38,6.38,0,0,1,.7.65,1.07,1.07,0,0,1,.27.67,1.37,1.37,0,0,1-.22.61,4.28,4.28,0,0,1-.54.73,4.71,4.71,0,0,1-.65.62,1.16,1.16,0,0,1-.57.25h-.07a.32.32,0,0,0-.13-.05l-.11-.08-2.88-2.88a.76.76,0,0,0-.29-.21,1.14,1.14,0,0,0-.3,0,.4.4,0,0,0-.13,0h-.12a2.39,2.39,0,0,1-.29.3l-.49.47c-.18.17-.32.33-.47.49s-.23.25-.3.31-.49.43-.89.8-.84.76-1.31,1.14-.92.7-1.37,1a2.21,2.21,0,0,1-1.06.43,1.09,1.09,0,0,1-.61-.21,4.06,4.06,0,0,1-.6-.51c-.19-.2-.38-.39-.56-.59s-.32-.38-.45-.51S183.34,17.47,183.34,17.44Z"/><path d="M217.07,12.86l-.23.26H202.79a.3.3,0,0,1-.28-.17.63.63,0,0,1-.08-.32V10.34a.39.39,0,0,0,0-.11c0-.05.05-.11.07-.12s0-.06.06-.07.05-.06.07-.06h14.4Z"/><path d="M221.62,10.23v-.12c0-.06.09-.16.18-.34a4.1,4.1,0,0,1,.31-.51,4,4,0,0,1,.4-.52,1.27,1.27,0,0,1,.44-.31H223a1.16,1.16,0,0,1,.47.16,5.85,5.85,0,0,1,.74.38l.86.52c.29.2.56.39.79.57a6.85,6.85,0,0,1,.6.51c.16.18.23.3.23.39a.28.28,0,0,1,0,.11.7.7,0,0,1,0,.13,2.24,2.24,0,0,1-.19.29,4,4,0,0,0-.27.43c-.11.16-.2.3-.29.45a1.76,1.76,0,0,0-.2.27c-.09.12-.14.2-.18.21a.42.42,0,0,1-.25,0h-.09c-.06,0-.07,0-.07,0l-3.25-2a.81.81,0,0,1-.23-.2.81.81,0,0,1,0-.29A.31.31,0,0,1,221.62,10.23Zm1,6.59c.2-.09.43-.2.72-.3l1-.31c.36-.09.7-.2,1-.3s.65-.2.94-.29a4.47,4.47,0,0,0,.63-.24,23,23,0,0,0,2.44-1.31,17,17,0,0,0,2.24-1.68,25.24,25.24,0,0,0,1.78-1.85c.5-.61,1-1.28,1.57-2l.1-.11h.15a.7.7,0,0,1,.48.3,3.5,3.5,0,0,1,.45.72c.15.27.26.54.37.79a2.19,2.19,0,0,1,.14.6,1.24,1.24,0,0,1-.29.77c-.2.25-.4.49-.56.67-.41.43-.9.92-1.47,1.44s-1.17,1-1.84,1.58-1.35,1.05-2.09,1.55a21.73,21.73,0,0,1-2.2,1.35,13.43,13.43,0,0,1-2.21.94,7.4,7.4,0,0,1-2.07.34.81.81,0,0,1-.54-.31,4.53,4.53,0,0,1-.51-.7,3.31,3.31,0,0,1-.37-.81,2.27,2.27,0,0,1-.15-.61C222.34,17,222.43,16.9,222.61,16.82Zm1.84-10.31a.57.57,0,0,1-.07-.31.62.62,0,0,1,0-.18,2,2,0,0,1,.14-.31c.11-.17.22-.36.34-.57a3.46,3.46,0,0,1,.43-.56.7.7,0,0,1,.51-.25,1.61,1.61,0,0,1,.43.14c.22.11.45.22.74.38s.56.31.86.49.6.37.85.55a5.36,5.36,0,0,1,.61.49c.16.16.25.27.25.36a1.3,1.3,0,0,1-.16.5,4,4,0,0,1-.39.65c-.17.2-.33.38-.49.54a.71.71,0,0,1-.45.26.79.79,0,0,1-.24,0l-.19-.13c-.11,0-.29-.18-.58-.34l-.88-.56-.87-.52-.55-.38A.66.66,0,0,1,224.45,6.51Zm7.74-1.43a.72.72,0,0,1,.33-.21,1.28,1.28,0,0,1,.39-.13,2,2,0,0,1,.38,0,.78.78,0,0,1,.52.27,3.19,3.19,0,0,1,.49.63,3.05,3.05,0,0,1,.38.74,1.78,1.78,0,0,1,.16.61.46.46,0,0,1-.15.32,1.52,1.52,0,0,1-.36.26,4,4,0,0,1-.45.14,1.35,1.35,0,0,1-.37,0,.61.61,0,0,1-.22,0,.76.76,0,0,1-.14-.22l-1.08-1.91V5.44A.6.6,0,0,1,232.19,5.08Zm2.54-.91a1.33,1.33,0,0,1,.34-.22,2,2,0,0,1,.44-.16,1.35,1.35,0,0,1,.34-.06.76.76,0,0,1,.52.26,2.94,2.94,0,0,1,.48.61,3.28,3.28,0,0,1,.37.72,1.67,1.67,0,0,1,.14.61.5.5,0,0,1-.13.34,2.13,2.13,0,0,1-.32.26,2.05,2.05,0,0,1-.41.16,1.84,1.84,0,0,1-.37.07c-.12,0-.27-.11-.45-.31a6.38,6.38,0,0,1-.52-.68,5.3,5.3,0,0,1-.41-.78,1.54,1.54,0,0,1-.16-.54A.4.4,0,0,1,234.73,4.17Z"/><path d="M244.39,15.33a2,2,0,0,1,1.43-.54,1.8,1.8,0,0,1,.74.14,2.32,2.32,0,0,1,.64.36,1.72,1.72,0,0,1,.6,1.32,1.75,1.75,0,0,1-.56,1.4,2,2,0,0,1-1.42.51,2.32,2.32,0,0,1-1.43-.47,1.67,1.67,0,0,1-.57-1.35A1.73,1.73,0,0,1,244.39,15.33Zm-.23-5.94a32.44,32.44,0,0,1-.22-3.68V5.54a.45.45,0,0,1,0-.24.29.29,0,0,1,.11-.16.25.25,0,0,1,.21-.07h3a.28.28,0,0,1,.24.1.56.56,0,0,1,.1.24,1.52,1.52,0,0,1,0,.29v.21a31.13,31.13,0,0,1-.23,3.62c-.17,1.21-.33,2.4-.49,3.59a2.94,2.94,0,0,1-.18.3.37.37,0,0,1-.31.16h-1.31a.39.39,0,0,1-.34-.21,1.74,1.74,0,0,1-.15-.38C244.48,11.8,244.32,10.59,244.16,9.39Z"/></svg>