<svg id="レイヤー_1" data-name="レイヤー 1" xmlns="http://www.w3.org/2000/svg" viewBox="0 0 215.58 49.72"><path d="M22.45,45.09Q15.67,35.51,8.29,26.36c-.78-1-3.55.15-2.66,1.25Q13,36.75,19.79,46.34c.72,1,3.49-.08,2.66-1.25Z"/><path d="M1.72,18.48h0l.38-.13-.07,0,.39-.08H2.35l.37,0H2.65l.32,0-.1,0,.26.08L3,18.29l.19.12a.85.85,0,0,1-.24-.26l.1.17a.9.9,0,0,1-.13-.45v.2A.6.6,0,0,1,3,17.83l-.1.2a.44.44,0,0,1,.08-.11l-.19.19L2.82,18a.62.62,0,0,0,.24-.29.33.33,0,0,0,.06-.3.32.32,0,0,0-.2-.22.64.64,0,0,0-.35-.14l-.33,0a3.22,3.22,0,0,0-.75.1l-.38.13a2.36,2.36,0,0,0-.59.35A1.39,1.39,0,0,0,.2,18a1.38,1.38,0,0,0-.14.27.19.19,0,0,0,0,.08,1.12,1.12,0,0,0,0,.36.58.58,0,0,0,0,.19A.67.67,0,0,0,.1,19a1.55,1.55,0,0,0,.2.32.8.8,0,0,0,.13.13,1.73,1.73,0,0,0,.34.21,2.17,2.17,0,0,0,.76.13,2.68,2.68,0,0,0,.4,0H2a3.64,3.64,0,0,0,.86-.23,1.58,1.58,0,0,0,.46-.25A1.11,1.11,0,0,0,3.62,19a.36.36,0,0,0,.11-.3.27.27,0,0,0-.1-.26l-.19-.12a1.66,1.66,0,0,0-.58-.11l-.37,0a3.52,3.52,0,0,0-.77.21Z"/><path d="M212.79,17.88,194.92,39.66c-.43.52.37.68.74.68a2.69,2.69,0,0,0,1.93-.74l17.86-21.78c.43-.52-.37-.68-.74-.68a2.66,2.66,0,0,0-1.92.74Z"/><path d="M190.57,45.2l-1.11,1.08-.16.15a.29.29,0,0,0-.12.24c0,.08,0,.14.08.2a.67.67,0,0,0,.31.1,1.6,1.6,0,0,0,.44,0,4,4,0,0,0,1.13-.25,2.48,2.48,0,0,0,.8-.47l1.11-1.07.16-.16a.29.29,0,0,0,.12-.24.17.17,0,0,0-.08-.2.67.67,0,0,0-.31-.1,1.6,1.6,0,0,0-.44,0,4,4,0,0,0-1.13.25,2.38,2.38,0,0,0-.8.47Z"/><path d="M66.63,48v.59H59.76v-.56c5.07-5.1,5.85-6.82,5.85-8.26a2.19,2.19,0,0,0-2.44-2.31,6,6,0,0,0-3,.91L60,37.84a6.38,6.38,0,0,1,3.2-.93,2.71,2.71,0,0,1,3,2.88c0,1.85-1.17,3.68-5.7,8.25Z"/><path d="M77.48,42.9c0,4.05-1.37,6-3.71,6s-3.67-1.92-3.67-6,1.32-6,3.67-6S77.48,38.8,77.48,42.9Zm-.66,0c0-3.72-1.07-5.43-3-5.43s-3,1.71-3,5.45,1.05,5.38,3,5.38S76.82,46.59,76.82,42.88Z"/><path d="M87.72,48v.59H80.85v-.56c5.07-5.1,5.85-6.82,5.85-8.26a2.19,2.19,0,0,0-2.44-2.31,6,6,0,0,0-3,.91l-.18-.57a6.38,6.38,0,0,1,3.2-.93,2.71,2.71,0,0,1,3,2.88c0,1.85-1.17,3.68-5.7,8.25Z"/><path d="M98.57,42.9c0,4.05-1.37,6-3.71,6s-3.67-1.92-3.67-6,1.32-6,3.67-6S98.57,38.8,98.57,42.9Zm-.66,0c0-3.72-1.07-5.43-3-5.43s-3,1.71-3,5.45,1,5.38,3,5.38S97.91,46.59,97.91,42.88Z"/><path d="M102.93,47.55v1.08H102V47.55Z"/><path d="M113.67,46c0,2.11-1.54,2.85-3.66,2.85-1.87,0-3.57-.72-3.57-2.85,0-1.94,1.46-2.72,3.06-3.24-1.8-.77-2.73-1.44-2.73-3.08,0-2,1.64-2.73,3.29-2.73,2.16,0,3.27,1.1,3.27,2.73s-.92,2.46-2.69,3.08C112.22,43.26,113.67,44,113.67,46Zm-.63-.05c0-1.63-1.23-2.32-3-2.89-1.74.49-3,1.27-3,2.91,0,1.92,1.59,2.34,3,2.34S113,47.85,113,45.91Zm-3-3.43c1.09-.39,2.62-1,2.62-2.84,0-1.09-.69-2.19-2.65-2.19-1.76,0-2.67.86-2.67,2.22S108.3,41.8,110.09,42.48Z"/><path d="M127.47,48.52c0,1-.37,1.2-1.47,1.2-.45,0-1.06,0-1.47,0l-.09-.61c.41,0,1,0,1.47,0,.72,0,1-.1,1-.67V44.8h-7.29A9,9,0,0,1,117,49.72l-.51-.37a9.07,9.07,0,0,0,2.74-7V36.76h8.28Zm-.61-4.3V41h-7.07v1.32a13.14,13.14,0,0,1-.12,1.89Zm-7.07-6.87v3.07h7.07V37.35Z"/><path d="M136.07,47.34H133v1h-.57V37.6h3.68ZM133,38.16v3.93h2.54V38.16Zm2.54,8.62V42.64H133v4.14Zm7.92-5v2h2.05v.54h-2.05v4.3c0,.8-.3,1-1.25,1-.49,0-1.15,0-1.6,0l-.08-.58,1.58,0c.57,0,.73-.09.73-.5V44.4h-6.1v-.54h6.1v-2h-6.12v-.54h4.1V38.8h-3.11v-.54h3.11V36.13h.6v2.13h3.07v.54h-3.07v2.49h4.11v.54Zm-2.49,6-.5.36a14.21,14.21,0,0,0-2.37-2.69l.44-.36A15,15,0,0,1,140.93,47.82Z"/><path d="M149.87,46.11l.55.15a10.14,10.14,0,0,1-2.13,3.45l-.55-.24A9,9,0,0,0,149.87,46.11Zm9.28-.81h-9.42V40.86h4.17V36.13h.62V38h6.33v.52h-6.33v2.3h4.63Zm-.61-3.9h-8.21v3.36h8.21Zm-5.88,4.81a13.86,13.86,0,0,1,.73,3.24l-.61.11a12.87,12.87,0,0,0-.65-3.21Zm2.92,0a13.8,13.8,0,0,1,1.35,3.18l-.57.15a12.57,12.57,0,0,0-1.27-3.15Zm5.57,3.33-.59.2a15.89,15.89,0,0,0-2.29-3.51l.51-.23A16.91,16.91,0,0,1,161.15,49.51Z"/><path d="M36.82,22a.46.46,0,0,1,.09-.18A1.78,1.78,0,0,1,37,21.6a.49.49,0,0,0,.09-.18.52.52,0,0,0,.09-.12h3.6l.6-.69V9.21a.65.65,0,0,0-.36-.57,1.28,1.28,0,0,0-.63-.24c-.09,0-.27,0-.51,0l-.78-.09-.81-.06h-.51a.73.73,0,0,1-.39-.63,7,7,0,0,1,0-.78,3.79,3.79,0,0,1,.09-.9A1.26,1.26,0,0,1,38,5.22c.78-.24,1.56-.48,2.43-.78a17.07,17.07,0,0,0,2.37-1H46a.58.58,0,0,1,.48.27.88.88,0,0,1,.21.51V20.82s.06,0,.15.09S47,21,47,21a.54.54,0,0,1,.21.15c.09.09.15.15.18.15H50c.09,0,.24.09.39.3a.68.68,0,0,1,.21.42V24.6a1,1,0,0,0-.06.18.83.83,0,0,1-.15.24s-.06.06-.09.12l-.09.06h-13l-.39-.39Z"/><path d="M57,22a3.37,3.37,0,0,1,.48-.84,2.41,2.41,0,0,1,.66-.69A2.25,2.25,0,0,1,58.9,20c.39.24.78.45,1.14.63s.69.36,1,.51a3.64,3.64,0,0,0,1,.36,4.83,4.83,0,0,0,1.17.12,3.64,3.64,0,0,0,2.64-.93,3.46,3.46,0,0,0,1-2.64,3.49,3.49,0,0,0-1-2.49,3.42,3.42,0,0,0-2.46-1,5.49,5.49,0,0,0-1.56.27c-.6.21-1,.39-1.44.54A5.09,5.09,0,0,1,59,14.7a1.69,1.69,0,0,1-.69-1.44c0-.78,0-1.56-.06-2.34s0-1.62,0-2.43a21.57,21.57,0,0,1,.15-2.43,9.53,9.53,0,0,1,.57-2.25,2.39,2.39,0,0,1,.18-.24c.12-.12.18-.15.21-.15H70.48a.53.53,0,0,1,.39.18.62.62,0,0,1,.21.42V6.81a1.06,1.06,0,0,1-.21.42c-.15.18-.27.27-.39.27h-6.6a.62.62,0,0,0-.51.3,2.33,2.33,0,0,0-.21.69,3,3,0,0,0-.09.72v.51a4.58,4.58,0,0,0,0,.54v.54a.91.91,0,0,0,.24.24,1,1,0,0,0,.36.18,12.7,12.7,0,0,1,3.24.24,6.93,6.93,0,0,1,2.67,1.14,5.7,5.7,0,0,1,1.83,2.19A7,7,0,0,1,72.1,18a7.49,7.49,0,0,1-.63,3.09,7.67,7.67,0,0,1-1.71,2.49,8.68,8.68,0,0,1-2.55,1.65,8.37,8.37,0,0,1-3.12.6,14.39,14.39,0,0,1-1.74-.21A18.1,18.1,0,0,1,59.92,25a10.81,10.81,0,0,1-2.13-1c-.63-.39-.93-.81-.93-1.29A2.07,2.07,0,0,1,57,22Z"/><path d="M78.67,10.35a12.3,12.3,0,0,1,1.2-3.63,7.62,7.62,0,0,1,2.31-2.67A6.34,6.34,0,0,1,86,3a6.22,6.22,0,0,1,3.75,1,7.6,7.6,0,0,1,2.43,2.64,12,12,0,0,1,1.26,3.66,21.61,21.61,0,0,1,.36,3.87,22.13,22.13,0,0,1-.36,3.87,13,13,0,0,1-1.26,3.78,7.83,7.83,0,0,1-2.4,2.82A6.49,6.49,0,0,1,86,25.83a6.12,6.12,0,0,1-3.81-1.14,8,8,0,0,1-2.31-2.85,12.46,12.46,0,0,1-1.17-3.75,22,22,0,0,1-.33-3.87A24.67,24.67,0,0,1,78.67,10.35Zm4.47,5.91a13.72,13.72,0,0,0,.21,2.49,6,6,0,0,0,.84,2.16,2.15,2.15,0,0,0,1.89.9,1.76,1.76,0,0,0,1.2-.45,3.4,3.4,0,0,0,.84-1.11,6.23,6.23,0,0,0,.48-1.38,7.11,7.11,0,0,0,.15-1.26V10.8a5,5,0,0,0-.18-1.29,3.45,3.45,0,0,0-.51-1.23,2.88,2.88,0,0,0-.87-.93A2.19,2.19,0,0,0,86,7a2.06,2.06,0,0,0-1.83.87,5.75,5.75,0,0,0-.81,2.07,12.75,12.75,0,0,0-.18,2.4v3.93Z"/><path d="M110.23,23.52h-3.39a.48.48,0,0,1-.54-.36,3.29,3.29,0,0,1-.12-.81,3.27,3.27,0,0,0-.09-.78.39.39,0,0,0-.45-.36,1.45,1.45,0,0,0-1,.39,10.51,10.51,0,0,0-.84.81,7.94,7.94,0,0,1-.87.87,1.55,1.55,0,0,1-1,.36,1.22,1.22,0,0,1-.72-.39,8.27,8.27,0,0,1-.87-.9c-.3-.33-.54-.63-.75-.9a1.89,1.89,0,0,0-.36-.45c0-.12,0-.21,0-.3s.21-.51.66-.93,1-1,1.59-1.53,1.32-1.2,2.07-1.86,1.47-1.38,2.1-2.07a15.35,15.35,0,0,0,1.62-2,3.43,3.43,0,0,0,.63-1.8,4.11,4.11,0,0,0-.06-.48.35.35,0,0,0-.36-.3h-7L100,9.21V6l.39-.48h9.81a1.84,1.84,0,0,0,.15-.18c.12-.15.18-.24.24-.33a.83.83,0,0,0,.18-.24l.12-.15V.42s0-.06.12-.09a.63.63,0,0,1,.18-.12.88.88,0,0,1,.24-.12.85.85,0,0,1,.18-.09h3a.88.88,0,0,1,.42.24q.27.23.27.36V4.8a.26.26,0,0,0,.09.18.81.81,0,0,0,.21.24,1.5,1.5,0,0,0,.24.21.27.27,0,0,0,.15.09h9.81s.09,0,.15.12a2.11,2.11,0,0,1,.18.27,2.64,2.64,0,0,0,.18.3,2,2,0,0,0,.09.21c0,.09,0,.27,0,.6V8.58a2.43,2.43,0,0,1-.24.84,1.78,1.78,0,0,0-.12.18l-.06.12h-7a.48.48,0,0,0-.39.24.74.74,0,0,0-.21.45,3,3,0,0,0,.66,1.68A17.34,17.34,0,0,0,120.73,14a27.19,27.19,0,0,0,2.1,2c.78.66,1.47,1.29,2.13,1.86l1.62,1.47c.45.42.66.69.66.81a2,2,0,0,1-.33.81,6.34,6.34,0,0,1-.81,1.08,9.21,9.21,0,0,1-1,.93,1.55,1.55,0,0,1-.78.39,2,2,0,0,1-1-.36,13,13,0,0,1-1.11-.81c-.36-.3-.69-.6-1-.87a6.49,6.49,0,0,0-.63-.57.59.59,0,0,0-.21,0,.75.75,0,0,0-.24,0c-.09,0-.15.06-.15.18a2.39,2.39,0,0,0,0,.33c0,.18,0,.39,0,.63a6,6,0,0,1-.12.72.91.91,0,0,1-.24.54s-.12.09-.21.18-.15.12-.18.12H116a.27.27,0,0,0-.15.09c-.09.06-.15.15-.24.21a1.5,1.5,0,0,0-.21.24.27.27,0,0,0-.09.15V27.6c0,.12-.09.24-.27.39a1.06,1.06,0,0,1-.42.21h-3a.85.85,0,0,1-.18-.09,1,1,0,0,1-.24-.09c-.06,0-.12-.09-.18-.12l-.12-.09v-3.6ZM108,19a.82.82,0,0,0,.36.18,2.33,2.33,0,0,0,.48.06h.42a2.45,2.45,0,0,0,.42,0,2.69,2.69,0,0,0,.54-.06,1.59,1.59,0,0,0,.45-.24.63.63,0,0,0,.18-.48V15.6a.48.48,0,0,0-.09-.33.51.51,0,0,0-.3-.09,1.43,1.43,0,0,0-.81.39,5.6,5.6,0,0,0-.84,1,5,5,0,0,0-.69,1.14,2,2,0,0,0-.3.9A.41.41,0,0,0,108,19Zm7.65-4a1.3,1.3,0,0,0-.12.21.52.52,0,0,0-.09.21V18.6a.4.4,0,0,0,.24.39,1.43,1.43,0,0,0,.54.18,4.1,4.1,0,0,0,.57.06h.75a1,1,0,0,0,.42,0,1,1,0,0,0,.36-.12.45.45,0,0,0,.15-.36,1.25,1.25,0,0,0,0-.39,2,2,0,0,0-.18-.36c-.09-.09-.21-.3-.42-.57s-.39-.54-.6-.81-.39-.57-.6-.84l-.39-.57a2,2,0,0,0-.21-.09l-.18-.12h-.21Z"/><path d="M131.65,20.48l.16-.61c.05-.2.11-.4.16-.59s.09-.35.11-.47a23.79,23.79,0,0,0,.25-2.4c0-.81.07-1.6.11-2.41,0-.18.11-.29.27-.3a1.59,1.59,0,0,1,.43-.06h.32a3.89,3.89,0,0,1,.47,0,1.29,1.29,0,0,1,.42.11c.11.05.18.12.18.21v2.29a.6.6,0,0,0,.18.36c.14.16.25.23.36.23l.07,0s.05-.06.05-.08V13.05a.11.11,0,0,0-.05,0s0,0-.07-.09l-.13-.11a.38.38,0,0,1-.11-.07h-2.52l-.23-.29V10.76l.23-.18h2.16a.26.26,0,0,0,.22-.07.49.49,0,0,0,.11-.18,1.44,1.44,0,0,0,0-.24V9.7c0-.09,0-.18,0-.25a.58.58,0,0,0-.13-.22.29.29,0,0,0-.2-.09H132.8c-.07,0-.15-.05-.24-.16a.63.63,0,0,1-.12-.26V7.41a.71.71,0,0,1,.12-.27c.09-.11.17-.16.24-.16h1.67c.2,0,.31-.09.31-.25s0-.36.07-.56a1,1,0,0,1,.25-.56,1.32,1.32,0,0,1,.94-.25,1.14,1.14,0,0,1,.86.25,1,1,0,0,1,.31.56c0,.2,0,.39.07.56a.28.28,0,0,0,.31.25h1.56l.11.07.13.11a.35.35,0,0,0,.09.07l0,.06V8.72a.47.47,0,0,1-.13.26c-.09.11-.16.16-.24.16h-1.67a.19.19,0,0,0-.16.09.51.51,0,0,0-.09.18.74.74,0,0,0,0,.21V10a1.57,1.57,0,0,0,0,.24.53.53,0,0,0,.11.21c0,.06.11.08.22.08h2.65c.12,0,.25-.08.41-.26a3.15,3.15,0,0,0,.43-.61,3.6,3.6,0,0,0,.34-.68,1.17,1.17,0,0,0,.15-.49c0-.25-.07-.39-.2-.43A3.26,3.26,0,0,0,140.9,8a1,1,0,0,1-.47-.2,1.07,1.07,0,0,1-.21-.79,1.53,1.53,0,0,1,0-.27,1.72,1.72,0,0,1,0-.34,1.32,1.32,0,0,1,.15-.29.42.42,0,0,1,.3-.11h6.95a.32.32,0,0,1,.24.11.58.58,0,0,1,.12.25v.36c0,.18,0,.31,0,.36,0,.63,0,1.26,0,1.89a5.64,5.64,0,0,1-.3,1.66,2.63,2.63,0,0,1-.9,1.17,3,3,0,0,1-1.79.45,1,1,0,0,1-.57-.16,1,1,0,0,1-.38-.4,1.63,1.63,0,0,1-.18-.54,3.56,3.56,0,0,1,0-.65v-.18a7.13,7.13,0,0,0,.75-.07,1.26,1.26,0,0,0,.52-.2.94.94,0,0,0,.33-.43,2.8,2.8,0,0,0,.09-.74V8.54a1.11,1.11,0,0,0,0-.3.46.46,0,0,0-.25-.2,2,2,0,0,0-.34,0,.91.91,0,0,0-.67.21,1.35,1.35,0,0,0-.31.58,4.51,4.51,0,0,0-.16.7,2.45,2.45,0,0,1-.18.67s-.07.09-.18.18l-.18.18s0,.05-.07.09l-.11.16a1.34,1.34,0,0,0-.11.14.25.25,0,0,1-.07.09l-.27.25a3.68,3.68,0,0,1-.39.4c-.13.14-.27.27-.4.4a3.31,3.31,0,0,1-.27.27h-.18a.56.56,0,0,1-.31-.09,2.76,2.76,0,0,1-.27-.23,1.69,1.69,0,0,0-.25-.2.52.52,0,0,0-.3-.09.31.31,0,0,0-.28.16,3.5,3.5,0,0,0-.12.35c0,.12-.07.25-.11.36a.19.19,0,0,1-.21.14h-1.68a.23.23,0,0,0-.18.13,1.46,1.46,0,0,0-.13.25,1.19,1.19,0,0,0-.05.32.92.92,0,0,0,0,.2,1.53,1.53,0,0,0,0,.41.36.36,0,0,0,.21.31,1.47,1.47,0,0,0,.33,0l.45,0a4.33,4.33,0,0,1,.5.08,1.35,1.35,0,0,1,.4.12s.05,0,.09.06l0,.05v1.57l-.24.23-.9.06a1.25,1.25,0,0,0-.54.14.7.7,0,0,0-.29.41,2.31,2.31,0,0,0-.09.78,1.9,1.9,0,0,0,.29,1.15,1.4,1.4,0,0,0,1.17.41h9.47c.05,0,.09,0,.11.11a.77.77,0,0,1,0,.18,2.45,2.45,0,0,1-.09.47c-.06.2-.13.4-.2.59s-.13.37-.2.53l-.11.21a1.07,1.07,0,0,1-.18.16.21.21,0,0,1-.18.09h-8.41a6.78,6.78,0,0,1-1.87-.25,8,8,0,0,1-1.73-.72,1.47,1.47,0,0,1-.28-.2,2.92,2.92,0,0,0-.29-.23,2.36,2.36,0,0,0-.31-.2.56.56,0,0,0-.32-.09.41.41,0,0,0-.43.27,5.3,5.3,0,0,0-.15.63,2,2,0,0,1-.18.63.42.42,0,0,1-.45.29,1.64,1.64,0,0,1-.41-.07,2,2,0,0,1-.51-.2,5,5,0,0,1-.45-.3.54.54,0,0,1-.18-.38A2.76,2.76,0,0,1,131.65,20.48Zm9.07-7.31c0-.12.09-.2.25-.27a1.81,1.81,0,0,1,.36-.09h.22c.43,0,1,0,1.64,0l1.89,0,1.56,0h.67l.25.25v5l-.25.24H141l-.23-.24Zm2.27,3a.28.28,0,0,0,.16.25.91.91,0,0,0,.34.11,2.62,2.62,0,0,0,.38,0h.2a2,2,0,0,0,.85-.14c.18-.11.25-.38.25-.78v-.2a1.8,1.8,0,0,0,0-.21A1.39,1.39,0,0,0,145,15a.37.37,0,0,0-.27-.14h-1.33l-.36.36Z"/><path d="M153.07,19.89l6.12-6.25s0,0,0-.09a.43.43,0,0,0,0-.13.84.84,0,0,0-.07-.32c0-.11-.16-.13-.34,0l-1.93.18c-.59,0-1.2.07-1.85.07l-.27,0h-.27a.41.41,0,0,1-.2-.29c0-.16,0-.27,0-.3s0-.09,0-.2a2.5,2.5,0,0,1,0-.42,3.27,3.27,0,0,1,0-.45,3.46,3.46,0,0,0,0-.37v-.08a.46.46,0,0,1,.07-.23.62.62,0,0,1,.18-.18c1.42,0,2.86-.11,4.28-.25a41.75,41.75,0,0,1,4.31-.22.81.81,0,0,1,.47.15,1.54,1.54,0,0,1,.43.34,2,2,0,0,1,.36.47,1.75,1.75,0,0,1,.23.48v.06c0,.16-.14.37-.41.66s-.6.56-1,.87-.7.56-1,.82-.59.46-.72.58l-.09.18a.44.44,0,0,0,0,.18c0,.05,0,.09,0,.13a2.22,2.22,0,0,1,.7.9c.18.36.33.72.47,1.08a6.89,6.89,0,0,0,.51,1,1.55,1.55,0,0,0,.84.65h.9a9,9,0,0,0,1.17-.07,11.31,11.31,0,0,1,1.17-.06.41.41,0,0,1,.47.47v.14a2.09,2.09,0,0,1,0,.31c0,.14,0,.31,0,.47a3.3,3.3,0,0,1,0,.47c0,.14,0,.23,0,.3a.8.8,0,0,1-.56.54,3.13,3.13,0,0,1-.9.16c-.32,0-.64,0-1,0a6.38,6.38,0,0,0-.79-.05,5.16,5.16,0,0,1-1.93-.29,3.33,3.33,0,0,1-1.13-.72,2.81,2.81,0,0,1-.6-.92c-.12-.34-.23-.65-.32-.92a3.23,3.23,0,0,0-.32-.72.65.65,0,0,0-.58-.29,1.21,1.21,0,0,0-.79.29,4.45,4.45,0,0,0-.72.72,7.53,7.53,0,0,0-.67.92c-.21.32-.43.65-.65.93a5.29,5.29,0,0,1-.64.73,1.06,1.06,0,0,1-.67.28,1.81,1.81,0,0,1-.6-.14,3.88,3.88,0,0,1-.66-.36,2.46,2.46,0,0,1-.56-.49.91.91,0,0,1-.23-.54Zm3.36-12.48a3.19,3.19,0,0,1,.08-.61,1.34,1.34,0,0,1,.18-.51.43.43,0,0,1,.37-.21h.22l6.23.72a.5.5,0,0,1,.27.14.58.58,0,0,1,.09.27,3.44,3.44,0,0,1,0,.4,4,4,0,0,1,0,.59,2.54,2.54,0,0,1-.13.56.43.43,0,0,1-.27.33h-1.87c-.54,0-1.1,0-1.68-.09s-1.15-.13-1.71-.22a6.46,6.46,0,0,1-1.47-.41c-.15-.06-.24-.13-.24-.2a2.82,2.82,0,0,1,0-.31C156.42,7.75,156.42,7.61,156.43,7.41Z"/><path d="M174,17.55a2,2,0,0,1,1.42-.54,1.77,1.77,0,0,1,.74.14,2.38,2.38,0,0,1,.65.36,1.69,1.69,0,0,1,.43.58,1.67,1.67,0,0,1,.16.74,1.75,1.75,0,0,1-.56,1.4,2,2,0,0,1-1.42.5,2.26,2.26,0,0,1-1.42-.46,1.65,1.65,0,0,1-.58-1.35A1.71,1.71,0,0,1,174,17.55Zm-.24-5.94a32.43,32.43,0,0,1-.21-3.68V7.75a.56.56,0,0,1,0-.23.31.31,0,0,1,.11-.16.28.28,0,0,1,.22-.07h3a.27.27,0,0,1,.24.1.66.66,0,0,1,.11.24,1.42,1.42,0,0,1,0,.29v.21a29.08,29.08,0,0,1-.24,3.62c-.16,1.21-.32,2.39-.48,3.58,0,.09-.11.18-.18.31a.37.37,0,0,1-.31.16h-1.32a.39.39,0,0,1-.34-.21,1.82,1.82,0,0,1-.14-.38C174.13,14,174,12.81,173.8,11.61Z"/></svg>