<svg id="レイヤー_1" data-name="レイヤー 1" xmlns="http://www.w3.org/2000/svg" viewBox="0 0 341.38 204.03"><defs><style>.cls-1{fill:#fff;}</style></defs><path class="cls-1" d="M295.86,18.07a29,29,0,0,1,2,10.69V25.68a36.43,36.43,0,0,1-3.62,15.09l1.5-3.16a46.57,46.57,0,0,1-7.35,10.93l2.82-3.09a48.22,48.22,0,0,1-7.08,6.39L288.12,49a58.77,58.77,0,0,1-7.64,4.62l4.9-2.48a74.79,74.79,0,0,1-9.3,3.88l5.67-1.93a111.54,111.54,0,0,1-13.94,3.64l5.88-1.16c-9.48,1.85-19.11,2.87-28.69,4L213.12,63.5c-21,2.58-42.11,5-63.12,7.78-6.54.87-13,2-19.47,3.4a134.45,134.45,0,0,0-19,5.67,67.33,67.33,0,0,0-6.66,2.85A101,101,0,0,0,94.7,88.65a68.77,68.77,0,0,0-13,10.4c-3.68,3.93-7.19,7.89-9.65,12.71-2.3,4.51-4.32,9.1-5,14.16-.59,4.78-.13,1.92-6.13,14.92-2.07,4.48-21.31,31.77-25,35-32,28-36,26-36,26,1.92,1.16,27,.66,26,0,6.45,4.46,157.54,1.58,154-4-3.25-5.12-25-14-49-39,1,.66-13.36-17.26-17.61-24.49l1.54,2.66a32.56,32.56,0,0,1-4.56-16v3.07a32.44,32.44,0,0,1,3.26-13.84l-1.5,3.17a42.43,42.43,0,0,1,6.73-9.9L116,106.61a50.09,50.09,0,0,1,7.36-6.59l-4,2.87a52.76,52.76,0,0,1,7-4.28l-4.9,2.48a72.93,72.93,0,0,1,8.9-3.71l-5.67,1.93A105.87,105.87,0,0,1,137.61,96l-5.88,1.17c7.37-1.45,14.83-2.32,22.28-3.23l24.71-3,49.42-6.07c16.73-2,33.58-3.67,50-7.52a154.26,154.26,0,0,0,15.43-4.73,109.41,109.41,0,0,0,14.18-6.42,81.69,81.69,0,0,0,12.08-7.94,67,67,0,0,0,9.27-9.1,47.34,47.34,0,0,0,5.94-8.39,54.89,54.89,0,0,0,5.14-12.16,42.56,42.56,0,0,0,1.13-12.48,28.48,28.48,0,0,0-2-9.64,5.55,5.55,0,0,0-3-3.65A10.19,10.19,0,0,0,330.92.51a23.91,23.91,0,0,0-7.59-.36,31.6,31.6,0,0,0-8.62,1.32C309.62,3,304.05,5,300.19,8.74l-2.82,3.09a7.56,7.56,0,0,0-1.51,6.24Z"/></svg>