<svg id="レイヤー_1" data-name="レイヤー 1" xmlns="http://www.w3.org/2000/svg" viewBox="0 0 242.56 27.1"><defs><style>.cls-1{fill:#f0908a;}</style></defs><path class="cls-1" d="M.45,25.47C.1,12.8,0,4.16,0,4.16H4.06v.38h5.8c-.07,4.42-1.92,6.75-3.62,8,3.78,3,5.31,8.35-1.86,9.79l-.44-2.65-.1,5.82Zm3.49-7.23C7,17.15,5,15.07,4,14.17,4,15.42,4,16.77,3.94,18.24ZM4,12.86A18.41,18.41,0,0,0,6,6.11H4.06C4.06,7.58,4,9.82,4,12.86ZM10.82,23,10.43,1.41h4v.35H18V1.41h3.39c.32,10.84.42,13.18.42,13.18H19.62a19.87,19.87,0,0,0,.22,2.5c.41-.52.86-1.09,1.34-1.8l2.34,2.25a5.4,5.4,0,0,1-3.23,2.07,31.23,31.23,0,0,0,2.43,7s-6.24-2.37-6.85-12.51H14.34c0,2.3,0,5-.07,8.16.77-.13,1.63-.32,2.62-.51l.49,2.56c-6.69,1.85-8.1,2.3-8.1,2.3l-.61-3.2Zm3.55-10.43h3.39c0-.86,0-2.08.06-3.81H14.4C14.4,9.82,14.37,11.1,14.37,12.54Zm.06-5.37h3.43c0-1.12,0-2.4.06-3.84H14.46C14.46,4.19,14.43,5.41,14.43,7.17Zm11.2,19.32A43.64,43.64,0,0,0,28,15h4.48A22.37,22.37,0,0,1,31,21.09a31.38,31.38,0,0,0,3.23.67c-.19-5.19-.29-8.93-.32-10.18H29.31V10H41.15l1.28-1.29L43.68,10v1.56H38.27c0,.74,0,2.4-.06,4.93h1.57l1.27-1.28,1.28,1.28v1.57H38.18c0,1.21,0,2.56-.07,4.06A49.29,49.29,0,0,0,44.64,22v4.48C36.26,26.72,32.1,24.8,30,23,28,26.14,25.63,26.49,25.63,26.49Zm.67-18c-.32-4.58-.41-5.57-.41-5.57h4v.48h4.86c-.22-2.24-.32-2.78-.32-2.78h4.07s0,.32-.16,2.78h4.76a2,2,0,0,1,0-.48h3.36c.35,4.58.44,5.57.44,5.57H42.91s0-.38.16-3.52H29.86c0,.8-.07,2-.16,3.52Zm26.92,1.73-2.92.19,0-1.06,2.95-.22c-.07-1.63-.07-2.63-.07-2.63h4.48s0,.84,0,2.34l5.76-.42V8.1l4.48-.29C68.22,14,63.2,15,63.2,15a24.11,24.11,0,0,0,.22-5.54l-5.82.39c0,2.27-.06,5.53-.16,9.37,6.78-.35,9.63-.25,9.63-.25v4.12a110.35,110.35,0,0,1-13.34-.06C53.47,18.08,53.31,13.34,53.22,10.21Zm19.52,8.12s4.89.68,12.12,1.92l-.25,3.59c-6.66-.42-12.23-1-12.23-1Zm11.2-9.08S79.84,8.86,73.22,8l.06-2c7.33.16,10.75.39,10.75.39ZM73.6,14.62l.13-2c7.33.48,9.92.81,9.92.81l-.16,2.91Zm27.33-9.44c0,1.38,0,2.66-.13,3.87h1.41l1.28-1.27,1.28,1.27v1.28H100.7c-1.34,14.05-8.22,14.28-8.22,14.28s3-3.72,3.78-14.28H90.21V9.05h6.14c.07-1.21.1-2.49.1-3.87Zm8.25,9.25s6,.1,17,.42v2.94c-12.12.22-17,.22-17,.22ZM132.58,7l4.48.45C134.69,17.5,136.45,24,136.45,24S130.4,23,132.58,7Zm18.17,11L151,22.4s-1.73,1.21-8,1.21c-5.06,0-3.81-6.56-3.81-6.56A3.89,3.89,0,0,0,143,19.13C148.54,19.13,150.75,17.92,150.75,17.92Zm-10.4-9.51a60.31,60.31,0,0,1,9.79.71l-.51,3.52a53.33,53.33,0,0,0-9.28-.7Zm33.38,7.81a10.32,10.32,0,0,1-5.22-5.57h-3.77c-3.65,5.64-7.88,5.57-7.88,5.57a34.69,34.69,0,0,0,3.56-5.57h-3V9.09h3.81c.28-.61.54-1.25.83-1.92-2.31.19-3,.19-3,.19l-.16-3.42s.26,0,1.7-.07A17.43,17.43,0,0,0,163.36,0l3.1,1.66A7.35,7.35,0,0,1,165,3.71c1.25-.06,2.72-.13,4.51-.19l-.54-.93L172,1.12s.22.48,2.21,5.09l-2.5,1.21c-.22-.41-.42-.77-.61-1.08-1.66.15-3.13.31-4.38.41a21.39,21.39,0,0,1-1.09,2.34h7.14l1.28-1.28,1.28,1.28v1.56h-4.8a47.09,47.09,0,0,0,5.18,2.18Zm-1,6.11c-7.78,6.92-14.53,3.49-14.53,3.49a25.12,25.12,0,0,0,12-5.79ZM160.1,19.87a16.67,16.67,0,0,0,8.28-4.16l2.53,2.3C165,23.13,160.1,19.87,160.1,19.87ZM161.73,15a11.84,11.84,0,0,0,5-3.49l2.56,2.3C165.5,18,161.73,15,161.73,15Zm22.37,7.55s.89,0,2.43.06c-.19-6.65-.26-11.74-.32-14.3H184.7c-1.12,18.78-6.3,18.78-6.3,18.78s1.73-5.12,2.21-18.78h-1.76V6.75h1.82c0-1.89.07-3.9.07-6.11h4.16q0,3.32-.13,6.11h1.44a1.57,1.57,0,0,0,0-.32h4.06s0,6.91-.22,20c-3.24.45-5.92.58-5.92.58Zm14.08,3.68v-.71h-2.66v.71h-3.39c-.35-13.41-.45-16.29-.45-16.29h4.06v.54h2.66V10h3.39c.32,13.38.42,16.29.42,16.29Zm0-2.28.19-11.87h-2.66L195.55,24Zm16.7-14.91h-9.66V7.78h9.34l-.64-2.53,4.42-.71a29.2,29.2,0,0,1,.8,3.24h2l1.28-1.29,1.28,1.29V9.05h-4.38a17.06,17.06,0,0,1,0,6.41,6.37,6.37,0,0,1,.13,2.91c-1,6-5.08,6.2-5.08,6.2a8.44,8.44,0,0,0,2-5.31c-3.42,1.83-6.46-.51-6.46-3.49a3.9,3.9,0,0,1,3.87-3.9,9,9,0,0,1,1.7.19C215.33,11.1,215.1,10.05,214.88,9.05Zm.67,6.69a2.27,2.27,0,0,0-1.92-.86,1.24,1.24,0,1,0,.19,2.46C214.82,17.34,215.33,16.73,215.55,15.74Zm22.27,3.94a2.75,2.75,0,0,0-.09-2.72c-2-3-7.71-1-7.71-1-.23-2.34-.2-3.65.16-8.64H226.4V6.08h8.35a35.69,35.69,0,0,0-1.6,6.78s5.54-1.76,8,.87c3.81,4.12-.32,10.84-7.62,10.84-5.56,0-4.6-6.2.07-6.2A8.88,8.88,0,0,1,237.82,19.68Zm-4.32,3a4.52,4.52,0,0,0,2.63-1,4,4,0,0,0-2.59-1.28C231.68,20.45,231.39,22.72,233.5,22.72Z"/></svg>