<svg id="レイヤー_1" data-name="レイヤー 1" xmlns="http://www.w3.org/2000/svg" viewBox="0 0 149.92 149.92"><defs><style>.cls-1{fill:#efe4dc;stroke:#efe4dc;stroke-miterlimit:10;stroke-width:5px;}.cls-2{fill:#231815;}</style></defs><circle class="cls-1" cx="74.96" cy="74.96" r="72.46"/><path class="cls-2" d="M51.87,84.65c0-.16-.06-.31-.06-.47V82.81a5.58,5.58,0,0,1,.32-1.9,36.42,36.42,0,0,0,5-10,31.49,31.49,0,0,1-3.37-13A29.07,29.07,0,0,1,54,54.86a12.13,12.13,0,0,0-8.86-3.78c-7.1,0-12.86,5.8-12.86,14.8,0,7.21,5.86,15,5.86,15a5.82,5.82,0,0,1,.31,1.9v1.37a4.37,4.37,0,0,1-2.55,4L26.56,92a7.34,7.34,0,0,0-4.13,5.33l-.16,2a3.84,3.84,0,0,0,3.82,4.13H41.31l.62-8,0-.21a13.12,13.12,0,0,1,7.42-9.57Z"/><path class="cls-2" d="M124.83,97.29A7.34,7.34,0,0,0,120.7,92l-9.32-3.8a4.37,4.37,0,0,1-2.54-4V82.81a5.82,5.82,0,0,1,.31-1.9s5.86-7.82,5.86-15c0-9-5.75-14.8-12.87-14.8a12.11,12.11,0,0,0-8.86,3.79A26.54,26.54,0,0,1,93.47,58a31.48,31.48,0,0,1-3.36,13,36.48,36.48,0,0,0,5,10,5.83,5.83,0,0,1,.32,1.9v1.37c0,.16-.06.31-.07.47l2.3.94a13.18,13.18,0,0,1,7.6,9.63l0,.22.62,8h15.22A3.84,3.84,0,0,0,125,99.33Z"/><path class="cls-2" d="M96.08,89.55,84.81,84.94a5.28,5.28,0,0,1-3.08-4.81V78.47a6.94,6.94,0,0,1,.38-2.3S89.2,66.71,89.2,58c0-10.9-7-17.91-15.57-17.91S58.06,47.09,58.06,58c0,8.72,7.09,18.18,7.09,18.18a7.21,7.21,0,0,1,.39,2.3v1.66a5.29,5.29,0,0,1-3.09,4.81L51.18,89.55a8.81,8.81,0,0,0-5,6.44l-.58,7.47h56.06L101.08,96A8.83,8.83,0,0,0,96.08,89.55Z"/></svg>