<svg id="レイヤー_1" data-name="レイヤー 1" xmlns="http://www.w3.org/2000/svg" viewBox="0 0 80.34 25.42"><defs><style>.cls-1{fill:#ddc8b6;}</style></defs><path class="cls-1" d="M23.42,18.45l1-.85a11.36,11.36,0,0,0,1-1,1.69,1.69,0,0,0,.44-1.09,1.42,1.42,0,0,0-.32-.9c-.23-.27-.48-.52-.75-.78s-.53-.51-.77-.76a1.74,1.74,0,0,1-.44-.89.48.48,0,0,1,.14-.35,2.42,2.42,0,0,1,.9-.67,1,1,0,0,1,.41-.12h.08s.05,0,.05,0l1.58,1.58h.07l.09,0a.44.44,0,0,0,.42-.31,3.51,3.51,0,0,0,.22-.75c.07-.28.14-.56.22-.85a1.24,1.24,0,0,1,.34-.61,2.6,2.6,0,0,0,.34,0l.56.06a3.19,3.19,0,0,1,.55.16.66.66,0,0,1,.37.32v.1a3.74,3.74,0,0,1-.15,1.07L29.38,13c-.13.34-.25.69-.36,1a3.33,3.33,0,0,0-.17,1v.17a.71.71,0,0,1,0,.17c.09.14.21.31.34.49a4.88,4.88,0,0,1,.43.6,5.68,5.68,0,0,1,.34.65,1.47,1.47,0,0,1,.15.61.8.8,0,0,1-.17.47,2.07,2.07,0,0,1-.39.45,2.54,2.54,0,0,1-.49.35.82.82,0,0,1-.5.12.37.37,0,0,1-.35-.17,1.32,1.32,0,0,1-.21-.41,3,3,0,0,0-.22-.39.45.45,0,0,0-.36-.17,1,1,0,0,0-.66.43c-.24.29-.51.59-.78.93s-.56.66-.83.95a1.17,1.17,0,0,1-.82.43.71.71,0,0,1-.46-.19,3.35,3.35,0,0,1-.44-.41,2.51,2.51,0,0,1-.34-.51,1,1,0,0,1-.15-.44A1.07,1.07,0,0,1,23.42,18.45Zm9.17.32a.56.56,0,0,1,0-.1l.22-.17h1.6s.07,0,.1-.08a.72.72,0,0,0,.12-.21c0-.07.05-.13.09-.2s0-.1,0-.12V11.53a.5.5,0,0,0-.05-.15.75.75,0,0,0-.1-.2.94.94,0,0,0-.14-.19.31.31,0,0,0-.17-.07H31c-.07,0-.12,0-.17-.12a2,2,0,0,1-.12-.29,2.49,2.49,0,0,1-.08-.32.86.86,0,0,0-.09-.24l-.07-.1-.05-.07h-6.9l-.1-.07-.14-.1s0,0-.06,0,0-.05,0-.07V7.79l0,0s.05-.07.06-.07.07-.07.14-.12l.1-.05h2a.27.27,0,0,0,.24-.2c.05-.14.08-.24.1-.31a2.45,2.45,0,0,1,0-.34c0-.15,0-.32,0-.51a4.75,4.75,0,0,0,0-.51c0-.17,0-.29,0-.34a.78.78,0,0,1,.16-.15.34.34,0,0,1,.18-.09h1.36a.4.4,0,0,1,.19.09c.08,0,.14.1.15.15,0,.27,0,.6,0,1a2.89,2.89,0,0,0,.22,1,.29.29,0,0,0,.05.1l.05.07h2.28a.35.35,0,0,1,.26.1,2.12,2.12,0,0,1,.17.27c.05.12.1.23.13.33a1.48,1.48,0,0,0,.12.25s0,0,.07.09l0,0h3s0,0,.08-.08l.14-.14.1-.14c0-.05.07-.08.07-.1V5.31s0,0,.07,0l.1-.07.14-.07.08,0h1.48l.09,0a.5.5,0,0,1,.13.07.47.47,0,0,1,.12.07s0,0,0,0V8.25a.32.32,0,0,0,.26.33,3.43,3.43,0,0,0,.57.06l.57,0c.17,0,.25.11.25.24v1.7l-.22.29h-1l-.41.39v7.82a1.27,1.27,0,0,1-.39,1,2.76,2.76,0,0,1-.93.58,4,4,0,0,1-1.18.27,8.06,8.06,0,0,1-1,.07.57.57,0,0,1-.49-.25,2.59,2.59,0,0,1-.31-.6,4.42,4.42,0,0,1-.13-.71,3.3,3.3,0,0,1,0-.58Zm-2-5.54a.31.31,0,0,1,.06-.19s.1-.08.18-.15a.7.7,0,0,0,.22-.12l.34-.17.34-.17.24-.1h.12a.56.56,0,0,1,.34.12,2.93,2.93,0,0,1,.29.31l.22.37c.07.14.12.26.17.34a1.62,1.62,0,0,0,.15.31c.07.15.16.3.24.47s.17.34.26.5.12.25.13.3,0,0,0,.12a.24.24,0,0,1,0,.1.67.67,0,0,1-.19.43,1.85,1.85,0,0,1-.44.32,4.09,4.09,0,0,1-.51.26l-.36.13a.27.27,0,0,1-.12,0,.38.38,0,0,1-.29-.17,2.44,2.44,0,0,1-.24-.41c-.06-.14-.11-.29-.17-.43s-.06-.22-.1-.25a2.87,2.87,0,0,0-.18-.36c-.09-.18-.17-.37-.28-.56s-.17-.37-.25-.54l-.19-.36A.23.23,0,0,1,30.55,13.23Z"/><path class="cls-1" d="M46.08,8.41q0-.21-.21-.21H40.65a.29.29,0,0,0-.08-.07.53.53,0,0,0-.14-.1.94.94,0,0,1-.13-.14s-.09-.08-.09-.1V6.33a.44.44,0,0,1,.1-.24.39.39,0,0,1,.24-.1H55.27l.24.22v1.7a.14.14,0,0,0,0,0,.71.71,0,0,0-.09.07l-.14.1-.08.07h-6a.2.2,0,0,0-.17.1,1.57,1.57,0,0,0-.12.26c0,.1,0,.2,0,.29a1.44,1.44,0,0,0,0,.18v.16a.45.45,0,0,1,0,.08l.24.17h5.44s.12.05.2.15.14.17.14.24V20.71l-.34.34h-1.6a.29.29,0,0,1-.25-.12,3.15,3.15,0,0,1-.19-.27,1.09,1.09,0,0,0-.19-.27.29.29,0,0,0-.27-.12H43.61a.34.34,0,0,0-.29.12,1.43,1.43,0,0,0-.19.27,1.75,1.75,0,0,1-.16.27.38.38,0,0,1-.28.12H41.23a.3.3,0,0,1-.24-.12.32.32,0,0,1-.1-.22V9.83c0-.07,0-.13.12-.24a.3.3,0,0,1,.22-.15h4.52a.27.27,0,0,0,.16-.08,1.47,1.47,0,0,0,.1-.22c0-.11.05-.19.07-.28a1.55,1.55,0,0,0,0-.17C46.11,8.63,46.09,8.52,46.08,8.41Zm-2.44,3.22a.93.93,0,0,0-.23,0,.44.44,0,0,0-.19.1.29.29,0,0,0-.07.22v5.66a.84.84,0,0,1,0,.1.43.43,0,0,0,.08.14s0,0,0,.07a.07.07,0,0,1,0,0h.92l.05,0a.68.68,0,0,1,0-.07.45.45,0,0,0,.07-.14l0-.1V12a.29.29,0,0,0-.08-.22.42.42,0,0,0-.17-.1,1.09,1.09,0,0,0-.24,0,.58.58,0,0,0-.19,0Zm3.2,3.49a.44.44,0,0,0,.27.15h1.26a.27.27,0,0,0,.27-.15.67.67,0,0,0,.07-.31c0-.06,0-.17,0-.27a.19.19,0,0,0-.21-.17H47s-.1.07-.2.19a.53.53,0,0,0-.14.27C46.67,14.92,46.72,15,46.84,15.12Zm-.05-2.82a.2.2,0,0,0,.22.15h1.46c.12,0,.19,0,.21-.14s0-.18,0-.25a.53.53,0,0,0-.08-.27.29.29,0,0,0-.26-.14H47a.2.2,0,0,0-.22.14.8.8,0,0,0,0,.25A.86.86,0,0,0,46.79,12.3ZM48.47,18c.12,0,.19,0,.21-.13a1.05,1.05,0,0,0,0-.26.92.92,0,0,0,0-.25c0-.09-.09-.14-.21-.14h-1.7V18Zm2.72,0h.92s.1-.07.19-.19a.73.73,0,0,0,.15-.25V12.21a.46.46,0,0,0-.27-.47,1.36,1.36,0,0,0-.53-.11.71.71,0,0,0-.2,0,.67.67,0,0,0-.22,0,.3.3,0,0,0-.17.1c-.07,0-.09.1-.09.2v5.78Z"/><path class="cls-1" d="M77.46,3.7a15,15,0,0,1-1.68,5.06,9.87,9.87,0,0,1-3.54,4,2.63,2.63,0,0,1-3.49-1.42,2.73,2.73,0,0,1,0-2.08,1.34,1.34,0,0,1,.29-.45c.32-.26.2-.25-.36,0a4.83,4.83,0,0,1,1,.38c3.1,2,.81,7-.76,9.3a14.15,14.15,0,0,1-7.32,5.67c-.33.11-1.44.43-1.29,1s1.31.28,1.6.19a18.28,18.28,0,0,0,9-6c2-2.48,4.51-7.14,2.41-10.19-1.8-2.6-7.13-2.07-7.64,1.35-.63,4.11,4.69,4.42,7.36,3.35,4.13-1.65,6.66-6.3,7.29-10.51.13-.9-2.76-.38-2.88.44Z"/><path class="cls-1" d="M.78.86a10,10,0,0,0,.56,8.86C2.87,12.51,6.16,15,9.49,14.53,11.16,14.3,13,13,13,11.15A2.73,2.73,0,0,0,10.3,8.76a4.33,4.33,0,0,0-4.08,1.79,6.06,6.06,0,0,0-.37,5A16,16,0,0,0,13.37,25a1.88,1.88,0,0,0,2.08-.15c.44-.35.8-1.2.14-1.56a14.49,14.49,0,0,1-6.26-6.8A7.49,7.49,0,0,1,8.5,12c.11-.46.34-1,.75-1.07a.72.72,0,0,1,.75.47c.58,1.77-2.64.45-3.19.1a8.18,8.18,0,0,1-2.6-2.7,8.29,8.29,0,0,1-.64-7.57C4.24-.31,1.32-.37.78.86Z"/></svg>