<svg id="レイヤー_1" data-name="レイヤー 1" xmlns="http://www.w3.org/2000/svg" viewBox="0 0 221.5 64.17"><defs><style>.cls-1{fill:#f0908a;}</style></defs><path class="cls-1" d="M25.57,2.11l1.28,1.28V5H10.18A13.42,13.42,0,0,1,9.09,7.39H11.9v.32h8.29V7.39h4.48a66.25,66.25,0,0,1-.29,6.75L25.57,13l1.28,1.25v1.56H24.16a31.65,31.65,0,0,1-1,4.64h1.09l1.28-1.28,1.28,1.28V22H22.69c-1.7,4.32-3.84,4.61-3.84,4.61s.45-.77.83-4.61h-8a4.93,4.93,0,0,1,0,.67h-3c-.1-2.72-.16-5-.19-6.88H6.18V14.21H8.35c-.06-2.79-.13-4.48-.16-5.51a7.61,7.61,0,0,1-3.36,2.53A35.72,35.72,0,0,0,6.88,0L11,.58c-.1,1-.23,2-.39,2.81h13.7ZM11.71,20.41h2.37c0-.8,0-2.2.06-4.64H11.78C11.74,17.12,11.74,18.65,11.71,20.41Zm.1-6.2h2.37l.09-4.93h-2.4C11.87,10.3,11.84,11.87,11.81,14.21Zm5.57-4.93c.06,1.92.12,3.55.16,4.93h2.59c0-1.48.06-3.11.06-4.93Zm2.68,6.49H17.6c.06,2.37.13,3.81.16,4.64h2C19.9,19.13,20,17.6,20.06,15.77ZM32.51,26.69s3.3-5.32,2.56-25.31h4.48v.51h5.38V1.38h3.71c.35,14.87.45,25,.45,25-3.91.35-7.17.45-7.17.45V23.33s.93,0,2.78.06c0-1.5,0-3.55.07-6.14H38.24C36.19,26.81,32.51,26.69,32.51,26.69Zm6-11h6.24c0-1.6,0-3.39.06-5.31H39.2A52.83,52.83,0,0,1,38.53,15.68Zm.8-6.91h5.5c0-1.64.07-3.43.07-5.31H39.55C39.52,5.41,39.46,7.17,39.33,8.77ZM59.2,9C57.73,9,56.8,9,56.8,9V4.9s2.78,0,5.22.22c.92,8.93,1.12,19.39,1.12,19.39H58.66S59.07,16.38,59.2,9Zm22.62,7c.07,4.45-2.08,8.58-7.42,8.58S66.91,20.35,67,15.9c.09-5.12,3.1-10.62,7.42-10.62S81.73,10.81,81.82,15.93ZM78.5,15c0-2.59-1.44-5.21-4.1-5.21s-4.06,2.59-4.1,5.18S71.58,20,74.4,20,78.5,17.5,78.5,15ZM93.7,1.82v.55h11.71V1.82h3.71c.32,14.79.42,24.87.42,24.87h-4.36v-.58H93.47c0,.19,0,.38,0,.58H89.76c-.35-14.79-.45-24.87-.45-24.87Zm0,2.12c0,3.23,0,10.2-.19,20.6h11.71c0-3.23.07-10.21.2-20.6Zm1.25,15.77c-.32-7.1-.41-10.94-.41-10.94h3.71v.54H101a2.46,2.46,0,0,0,0-.54h3.07c.32,7.13.41,10.94.41,10.94h-3.71v-.77H98a5,5,0,0,0,0,.77Zm3.14-2.34h2.78c0-1.4.07-3.55.16-6.49H98.18C98.18,12.25,98.14,14.4,98.05,17.37Zm31.26-.7c-.26-3.46-3.61-5.7-7.93-3.78-3.27,1.48-3.65,6.66-1.48,6.92,1.6.19,3-2.34,3.59-6.4l4.06.51c-.73,5.73-3.9,9.57-6.81,9.57-3.14,0-5.09-2.82-5.09-5.92A9.56,9.56,0,0,1,124,8a8.51,8.51,0,0,1,9.6,9.79c-.74,4.86-4,7.36-9.76,6.72C126.78,23.33,129.63,20.8,129.31,16.67ZM139.46,15s1.37-2.08,1.37-9.56h4.48C145.31,13.79,139.46,15,139.46,15ZM149.6,7.65h-3.55V6.37h3.55a1.19,1.19,0,0,0,0-.32h4.48c0,18.43-10.88,18.43-10.88,18.43S149.15,21.44,149.6,7.65Zm1.15-4.42,1.47-1.63a3.71,3.71,0,0,1,.83,1.06l1.38-1.54a2.68,2.68,0,0,1,.38,3.93A6.87,6.87,0,0,0,153.18,3a2.77,2.77,0,0,1-.57,2.56A7.47,7.47,0,0,0,150.75,3.23Zm9.89,7.1h4.48c0,14.18-7,14.18-7,14.18S160.64,21.37,160.64,10.33ZM171.42,20a14.07,14.07,0,0,0,6.31-3.14s-.26,6.63-6.4,7.65h-3.62c-.45-8.64-.57-18.81-.57-18.81h4.48S171.62,12.29,171.42,20Zm13-5.63s6,.09,17,.41v3c-12.12.22-17,.22-17,.22Zm21.51-8.48s3.42,0,13.63.22c0,17.89-11.74,18.4-11.74,18.4s6.3-3.71,7.16-15.65c-6.65.26-9.05.32-9.05.32ZM221.5,3A2.37,2.37,0,1,1,219.14.67,2.36,2.36,0,0,1,221.5,3Zm-1.28,0a1.09,1.09,0,1,0-2.17,0,1.09,1.09,0,1,0,2.17,0ZM2.94,47.14,0,47.33l0-1,2.94-.23c-.06-1.63-.06-2.62-.06-2.62H7.36s0,.83,0,2.34l5.76-.42V45l4.48-.29C18,50.89,12.93,52,12.93,52a24,24,0,0,0,.22-5.53l-5.82.38c0,2.27-.07,5.54-.16,9.38,6.78-.35,9.63-.26,9.63-.26v4.13A113.16,113.16,0,0,1,3.46,60C3.2,55,3,50.28,2.94,47.14ZM24,46.38h2.79a29.35,29.35,0,0,0,.67,5.82S24,52.42,24,46.38Zm10,2.33h3.74c0,12.8-11.45,12.8-11.45,12.8S34.08,57.45,34.08,48.71Zm-5.79-2.33H31.1a30.66,30.66,0,0,0,.64,5.82S28.29,52.42,28.29,46.38Zm16.64.16c5.76.31,5.53,5,5.53,5a14.55,14.55,0,0,0-5.6-1.7Zm16.51.92s2.91,8.39-14.5,13.38l-1-4.35C58.4,53.06,61.44,47.46,61.44,47.46Zm-7.65.61a14.55,14.55,0,0,0-5.6-1.73L48.26,43C54,43.33,53.79,48.07,53.79,48.07Zm16.8,9.7s1.76,0,7.81.16l-.1-3.36c-3.71.19-5.79.25-5.79.25V52.07s2,0,5.76.1c0-1.38,0-2.6,0-3.56l-7.71.26V46.12s3,0,11.52.19c0,0,0,6.85-.61,14.72-7.8.38-10.91.48-10.91.48Zm26.47-9.7a14.53,14.53,0,0,0-5.57-1.73l0-3.33C97.31,43.33,97.06,48.07,97.06,48.07Zm9.92-.61s2.88,8.39-14.5,13.38l-1-4.35C103.9,53.06,107,47.46,107,47.46Zm19,8.64.71,4.42c-13.25,3.71-17.47-4.19-9.67-9.25a5.38,5.38,0,0,0-2-.7A18.17,18.17,0,0,0,116.29,47H113.5V45.67h3.08a20.18,20.18,0,0,0,.32-3.55h4.48a10.12,10.12,0,0,1-.64,3.55h1.12l1.28-1.28,1.28,1.28V47h-4.26a10.63,10.63,0,0,1-1.89,2.53,4.82,4.82,0,0,1,1.41.41c.61-.25,1.25-.51,1.95-.73l.64,1.31c-.38.13-.77.32-1.12.48l1.19,1.31-2.69,2.11a8.2,8.2,0,0,0-1-1.63C116.06,55.4,117,58.5,126,56.1Zm13.67-17.85h3.71s0,1.15-.22,11.77h-3.08V49.7h-2.84c0,3.52-.07,8.1-.13,14H134c-.32-21-.42-25.5-.42-25.5h3.71v.29h2.34Zm.22,6.65h-2.59c0,.93,0,2,0,3.23H140C140,46.92,139.9,45.86,139.87,44.9Zm-.16-4.8h-2.4c0,.77,0,1.8,0,3.23h2.56Zm-1.53,11.33h8.22l1.25-1.28,1.28,1.28V53h-2c0,.51,0,1.25-.06,2.37l.77-.77,1.28,1.28v1.57h-2.08c0,1.15-.07,2.49-.13,4.16H144c-.1-1.64-.16-3-.19-4.16h-1.44c-1.35,4.09-3.71,4.16-3.71,4.16a13.89,13.89,0,0,0,.86-4.16h-1.34V55.88h1.47q.09-1.25.09-2.88h-1.56Zm4.6,4.45h1c-.06-1.38-.12-2.27-.12-2.88h-.45A22.62,22.62,0,0,1,142.78,55.88Zm7,4.83c0-2.05,0-5.44.1-11h-2.46a1.15,1.15,0,0,0,0,.32h-3.75s0-1.12.23-11.77H147v.29h3v-.29h3.08c.32,21,.41,25.5.41,25.5-3.07.32-5.63.42-5.63.42V60.65S148.51,60.65,149.82,60.71Zm-2.59-17.38H150c0-1,0-2.08,0-3.23H147.1C147.14,41.32,147.2,42.38,147.23,43.33Zm2.69,4.8c0-1,0-2.08,0-3.23h-2.69l.13,3.23Zm12.26,3.65H165c.36,8,.45,9.73.45,9.73h-4.06s0-.93.22-9.34a9.7,9.7,0,0,1-4,1.63,26.4,26.4,0,0,0,5.7-12.32l4.25,1.34C166.43,47.56,164.22,50.25,162.18,51.78Zm18.14-3.87,1.28,1.28v1.57h-3.81c0,.57,0,1.37,0,2.43h1L180,51.91l1.28,1.28v1.57h-3.55c0,.7,0,1.53-.07,2.4h1.09L180,55.88l1.28,1.28v1.57h-3.65c0,.76,0,1.56-.06,2.43h1.5l1.25-1.28,1.28,1.28v1.57h-8.93v.83h-3.39l-.32-11a4.38,4.38,0,0,1-2.37.87,33.41,33.41,0,0,0,2.63-8.71l3.52,1.38a15.07,15.07,0,0,1-.87,2.59h1v.48h2.36a10.88,10.88,0,0,0,1.12-4l3,1.38a5.77,5.77,0,0,1-2.63,2.59h2.37Zm-1.5-8.29h3.74s0,.45-.26,4.61h-3a1,1,0,0,1,0-.29h-7.65a1,1,0,0,1,0,.29h-3c-.35-3.77-.45-4.61-.45-4.61h3.75s0,.32-.13,2.76h1.63l.19-4.68h3.4c.16,2.4.28,3.84.35,4.68h1.82C178.88,40.17,178.82,39.62,178.82,39.62Zm-4.36,21.54c-.06-.83-.09-1.67-.12-2.43h-1.6c0,.76,0,1.56,0,2.43Zm-1.69-4h1.5c0-.87,0-1.67-.06-2.4H172.8C172.8,55.46,172.77,56.26,172.77,57.16Zm.06-4h1.31c0-1-.06-1.86-.06-2.43h-1.22C172.86,51.37,172.83,52.17,172.83,53.19Zm28.87,2.27s0-.41,0-1.25H199.2c0,2.79-.07,5.89-.13,9.38h-3.36c-.09-3.39-.16-6.56-.19-9.38h-2.85c0,.39,0,.8,0,1.25h-3.07c-.32-8.13-.42-13.34-.42-13.34h3.71v.32h2.47l-.07-5h4.07s0,1.66,0,5h2.63a1,1,0,0,1,0-.32h3c.35,8.09.45,13.34.45,13.34Zm-6.21-2.81c-.07-3.4-.1-6.31-.13-8.64h-2.5c0,1.69-.06,4.57-.16,8.64Zm6.24,0c0-1.92.06-4.8.16-8.64h-2.6c0,2.27,0,5.15-.09,8.64Zm16.89,3h-2.78c-.61-6.82-.93-13.57-.93-13.57h4.48S219,49.8,218.62,55.69Zm-1.47,1.88a2,2,0,0,0-2,2,2,2,0,1,0,2-2Z"/></svg>