<svg id="レイヤー_1" data-name="レイヤー 1" xmlns="http://www.w3.org/2000/svg" viewBox="0 0 96.77 171.52"><defs><style>.cls-1{fill:#fff;}</style></defs><path class="cls-1" d="M30.43,2.59A62.42,62.42,0,0,0,12,13.79a55.72,55.72,0,0,0-6.88,7.28,25.67,25.67,0,0,0-4.68,8.4A12.75,12.75,0,0,0,4.6,42.55a32.38,32.38,0,0,0,12.33,6.32c6.8,2,13.8,3.32,20.66,5.11l-2.88-.75q7.42,1.94,14.76,4.15C53.64,58.64,58,59.74,61.84,62l-2.06-1.25a13.76,13.76,0,0,1,4.36,4.06l-1.07-1.71A12.25,12.25,0,0,1,64.85,70l.07-2a19.73,19.73,0,0,1-2.46,8.3l1.16-2.1a25.7,25.7,0,0,1-4.21,5.63l2.11-2.09c-5.06,5-11.39,8.38-16.47,13.33a47.22,47.22,0,0,0-5.3,5.75,46.52,46.52,0,0,0-3.65,6.15,36.36,36.36,0,0,0-3.33,9.78,53.85,53.85,0,0,0,0,19.85,162.51,162.51,0,0,0,4.41,17.24c1.8,6,3.76,11.9,5.89,17.75.9,2.44,3.71,3.32,6,3.71a28.44,28.44,0,0,0,11.82-1c3.72-1.07,7.78-2.47,10.72-5.07,1.59-1.4,4.23-3.77,3.34-6.21-2-5.51-3.87-11.09-5.58-16.7a161.21,161.21,0,0,1-4.8-18.73,50.26,50.26,0,0,1-.76-10.39l-.07,2A39.79,39.79,0,0,1,68.3,97.54l-1.16,2.11A31.21,31.21,0,0,1,72.21,93L70.1,95.05C74.72,90.5,80.4,87.28,85.22,83a36.28,36.28,0,0,0,7.45-8.48c1.77-3,3.41-6.14,3.87-9.65.41-3.13.41-6.55-1.07-9.42a18,18,0,0,0-3.25-4.64,25,25,0,0,0-5.42-3.67,47.78,47.78,0,0,0-8.91-3.34q-5.46-1.7-11-3.23-7.29-2-14.64-3.85C48.51,35.77,44.7,35,41,34l2.87.75a35,35,0,0,1-8.89-3.53l2,1.25a14.52,14.52,0,0,1-4.81-4.41l1.07,1.71a8.75,8.75,0,0,1-1.3-4.91l-.07,2a11.48,11.48,0,0,1,1.43-4.63l-1.16,2.11a36,36,0,0,1,6-7.69L36,18.78A42.41,42.41,0,0,1,42,13.93l-2.93,2a41.53,41.53,0,0,1,4.9-2.79l-3.62,1.72c.73-.34,1.47-.67,2.21-1,2.92-1.2,6.72-3.12,8.67-5.78,1.23-1.68,2-4.19.16-5.83C49.14.31,45.66-.06,42.9,0A35.31,35.31,0,0,0,30.43,2.59Z"/></svg>