<svg id="レイヤー_1" data-name="レイヤー 1" xmlns="http://www.w3.org/2000/svg" viewBox="0 0 268.38 261.39"><defs><style>.cls-1{fill:#fff;}</style></defs><path class="cls-1" d="M192.7,3.47C189.12,4.7,185.54,5.94,182,7.38a99.47,99.47,0,0,0-14.62,7.26,86.28,86.28,0,0,0-8.12,5.69,61.55,61.55,0,0,0-6.51,6.31,39.35,39.35,0,0,0-6.86,11.12A30.4,30.4,0,0,0,143.73,50a18.79,18.79,0,0,0,2.16,9.33c2,3.63,4.23,6.78,7.66,9.12a45,45,0,0,0,11.06,5.76c9.08,3.07,18.59,4.53,27.8,7.16l-3.95-1.14a177.51,177.51,0,0,1,17.39,6,92.8,92.8,0,0,1,15.25,7.29l-2.83-1.84a19.93,19.93,0,0,1,6.29,6.14l-1.5-2.48a13.26,13.26,0,0,1,1.79,6.74l.06-2.9a15.63,15.63,0,0,1-1.77,6.51l1.54-3a25.09,25.09,0,0,1-4.11,5.6l2.85-3a38.14,38.14,0,0,1-5.64,4.75l4-2.76a45,45,0,0,1-5.33,3.12l4.92-2.41a95.91,95.91,0,0,1-11.32,4.5l5.68-1.91a140.91,140.91,0,0,1-16.29,4.29l5.87-1.19a239.12,239.12,0,0,1-30.65,3.78l5.47-.37c-17.76,1.18-35.58,1.38-53.29,3.2a213.67,213.67,0,0,0-52.66,12,125.32,125.32,0,0,0-23.41,11.45,119.36,119.36,0,0,0-12.1,8.65,102.7,102.7,0,0,0-10.2,9.92c-5.6,6.09-9.78,13-13.5,20.38A106,106,0,0,0,7.27,203c-3.89,14.37-5.42,29.25-6.57,44-.14,1.85-.28,3.69-.41,5.54A4,4,0,0,0,1,256.75a5.43,5.43,0,0,0,3.59,3.08,16.82,16.82,0,0,0,6.36,1.34A26.3,26.3,0,0,0,18.8,261c5.67-.87,11.59-2.44,16.48-5.51l4-2.76a12.84,12.84,0,0,0,4.39-6c1.37-18.76,3-37.82,8.83-55.8a100.34,100.34,0,0,1,5.91-14.36l-1.54,3a77.87,77.87,0,0,1,12.9-18.31l-2.85,3a77.58,77.58,0,0,1,11.66-9.9l-4,2.76a90.29,90.29,0,0,1,11.58-6.74l-4.92,2.41a112.58,112.58,0,0,1,13.28-5.4l-5.68,1.91a147,147,0,0,1,17.43-4.61l-5.88,1.18a230.32,230.32,0,0,1,29.84-3.81l-5.47.37c31.4-2.12,63.44-1.4,93.83-10.81,9.58-3,19.58-6.36,28.15-11.69a61.28,61.28,0,0,0,11-8.31,56.09,56.09,0,0,0,5.3-5.8,36.62,36.62,0,0,0,3.62-6.36A19.61,19.61,0,0,0,268.27,89c-.31-3.56-2.28-7-4.49-9.66-2.49-3.06-6.15-5.24-9.51-7.17A90.31,90.31,0,0,0,245.58,68a203.27,203.27,0,0,0-26.72-9.35c-6.94-2-14.06-3.14-21-5.13l3.95,1.14a39.3,39.3,0,0,1-10.06-4.3l2.83,1.83a20.41,20.41,0,0,1-6.46-6.55l1.49,2.48a18.75,18.75,0,0,1-2.42-9.8l-.06,2.9A26.24,26.24,0,0,1,190,30.41l-1.54,3a29.64,29.64,0,0,1,4.86-6.88l-2.85,3A38.51,38.51,0,0,1,196,24.83l-4,2.76a54.89,54.89,0,0,1,7-4.09l-4.92,2.41a136.53,136.53,0,0,1,15.36-6,26.06,26.06,0,0,0,6.9-3.79,16.71,16.71,0,0,0,4.84-4.34c1.69-2.44,2.67-6,.1-8.39l-2.84-1.83A22.64,22.64,0,0,0,209.72,0l-5.46.37A48,48,0,0,0,192.7,3.47Z"/></svg>