<svg id="レイヤー_1" data-name="レイヤー 1" xmlns="http://www.w3.org/2000/svg" viewBox="0 0 226.05 220.41"><defs><style>.cls-1{fill:#fff;}</style></defs><path class="cls-1" d="M1.12,14.2c-3,17.21.31,34.82,7.45,50.61C16.14,81.56,27.76,96.13,41,108.71s28.57,23.43,43.79,33.86c16,11,32,21.94,47.38,33.73q23.65,18.07,45.92,37.9l5.6,5a9.62,9.62,0,0,0,4.43,1,24.55,24.55,0,0,0,6.52-.09,69.2,69.2,0,0,0,16.91-3.88l5-2a31.47,31.47,0,0,0,7.21-4.24l1.81-2a2.1,2.1,0,0,0-.86-3.19,794,794,0,0,0-61.67-50.58c-10.36-7.66-21-15-31.59-22.25-10.28-7-20.57-14-30.43-21.61A208.44,208.44,0,0,1,70.7,82.44l1.2,1.39c-15-17.35-26.47-39-28.24-62.18a76.86,76.86,0,0,1,.93-19.1C45,.22,37.31,0,37.08,0A56.26,56.26,0,0,0,21.24,2.37c-5.06,1.42-10.42,3-14.89,5.87L3.28,10.37A4.3,4.3,0,0,0,1.12,14.2Z"/></svg>