<svg id="レイヤー_1" data-name="レイヤー 1" xmlns="http://www.w3.org/2000/svg" viewBox="0 0 149.92 149.92"><defs><style>.cls-1{fill:#efe4dc;stroke:#efe4dc;stroke-miterlimit:10;stroke-width:5px;}</style></defs><circle class="cls-1" cx="74.96" cy="74.96" r="72.46"/><path d="M96.85,86.55a9.84,9.84,0,0,0,1.47-8.17L90.74,54.91H58.56L51,78.38a9.84,9.84,0,0,0,1.47,8.17l18.12,25.7v4.1a4.77,4.77,0,0,0,3,8.51V82c-1.8-.49-3.12,1.89-3.12-.06,0-2.34,1.89-8.26,4.23-8.26a4.23,4.23,0,0,1,1.11,8.31v42.92a4.77,4.77,0,0,0,3-8.51v-4.1Z"/><rect x="57.51" y="36.17" width="34.27" height="15.25"/></svg>