<svg id="レイヤー_1" data-name="レイヤー 1" xmlns="http://www.w3.org/2000/svg" viewBox="0 0 368.37 90.96"><defs><style>.cls-1{fill:#f0908a;}</style></defs><path class="cls-1" d="M12.28,5.85s-3.19,0-7.2-.18c-.18,8.41-.54,25.74-.54,34.2l-3.28.22C.13,27.54,0,.41,0,.41,6.93,0,12.28,0,12.28,0Z"/><path class="cls-1" d="M17.28,38.74s2.39-7.92,1.94-28.26h5.71v.59h1.31v-.59h5.67s0,1.94-.32,27.45c-4.32.5-7.92.63-7.92.63v-5s1,0,3.06.09l-.13-6H23.4C21.15,37.71,17.28,38.74,17.28,38.74Zm6.53-13.27h2.74c0-1.89,0-3.51-.09-5h-2C24.3,22.32,24.08,24,23.81,25.47Zm.85-7.2h1.76c-.05-2.21-.09-3.83-.14-5H24.89C24.84,15.07,24.8,16.74,24.66,18.27ZM36.9,14a25.22,25.22,0,0,0-4-7.06S37.58,5.71,41.58,12Zm12.24,2.39H54.4s0,2.25-.31,23.31H49.77c0-.5-.05-1-.05-1.49H38.16a14.84,14.84,0,0,0,0,1.49H33.79c-.44-19.17-.58-23.31-.58-23.31h5.22s0,2-.27,19.62H49.68C49.27,20,49.14,16.38,49.14,16.38Zm0,1.08a33.82,33.82,0,0,1-2.75,6.66,20.2,20.2,0,0,1,2.75,3.24l-3.56,2.52a22,22,0,0,0-1.39-2.48c-3.06,3.87-5.94,4.68-5.94,4.68a37,37,0,0,0,4.09-7.24,31.64,31.64,0,0,0-3.82-4.23,9.92,9.92,0,0,1,5,1.44,53.48,53.48,0,0,0,2.16-7.52Zm-1.71-6.57-4.82,1.66A24.74,24.74,0,0,0,39.1,5.26S43.87,4.32,47.43,10.89ZM50.89,4l5,1.3c-2.65,7.79-9.45,7.92-9.45,7.92A22.05,22.05,0,0,0,50.89,4Z"/><path class="cls-1" d="M72.36,36.76h-5c-.63-12.15-.81-27.27-.81-27.27h6.3S72.81,23.4,72.36,36.76Zm9.58-9c-8,0-8.36-8.28-8.36-8.28a16.58,16.58,0,0,0,8.36,2Z"/><path class="cls-1" d="M110.65,23.53s-.9,9.77-12.59,13.23H93c-.63-12.15-.81-26.46-.81-26.46h6.3s0,9.27-.23,20.16A19.86,19.86,0,0,0,110.65,23.53Z"/><path class="cls-1" d="M129,40.09c-6.93.41-12.28.41-12.28.41V34.69s3.19,0,7.2.14c.18-8.42.54-25.74.54-34.2l3.28-.22C128.83,13,129,40.09,129,40.09Z"/><path class="cls-1" d="M162.31,25.74c-.35-4.86-5.08-8-11.15-5.31-4.59,2.07-5.13,9.36-2.07,9.72,2.25.27,4.27-3.29,5-9l5.71.72c-1,8.05-5.49,13.45-9.58,13.45-4.41,0-7.16-4-7.16-8.32a13.46,13.46,0,0,1,11.79-13.46c9-1.12,14.53,6.53,13.5,13.77-1,6.84-5.62,10.35-13.72,9.45C158.76,35.1,162.77,31.54,162.31,25.74Z"/><path class="cls-1" d="M211.9,30.73a10.07,10.07,0,0,1-7.06-1.44v2h-7.11c0,1.49-.09,3.24-.18,5.27h8.19l1.8-1.76,1.8,1.76v2.25H180.9V36.54h11.34c-.14-1.94-.22-3.74-.32-5.27H185.4V29.11A10.17,10.17,0,0,1,178,30.73a19.13,19.13,0,0,0,5.94-7H180.9V21.55H187c-.22-5.76-.36-10.57-.45-13.86H180.9V5.49h5.63c-.05-1.62-.05-2.52-.05-2.52h6.12V5.49h5.13c0-.81,0-1.62,0-2.52H203c0,.85,0,1.71.09,2.52h2.66l1.8-1.8,1.8,1.8v2.2h-6.17c.27,6.89.36,11.93.41,13.86h2.16l1.8-1.8,1.8,1.8v2.21H206A19.23,19.23,0,0,0,211.9,30.73Zm-9.22-3.1a17.15,17.15,0,0,1-3-3.87h-9.49a16,16,0,0,1-4.73,5.31h6.34l-.13-3.83h6.16s0,1.31-.09,3.83h3.47Zm-10.39-6.08h5.17c0-.76,0-1.93,0-3.6h-5.12C192.38,19.08,192.33,20.29,192.29,21.55Zm.13-5.8h5.08c.05-.9.05-1.94.05-3h-5C192.46,13.68,192.46,14.67,192.42,15.75Zm.09-5.22h5.08c0-.9,0-1.85.09-2.84h-5.12C192.56,8.55,192.56,9.45,192.51,10.53Z"/><path class="cls-1" d="M249.25,8.41l1.8,1.76v2.25H238.72c0,4.14-.09,9.63-.18,16.42h2.25l1.8-1.8,1.8,1.8v2.21h-5.85l-.13,8.73h-5.18c-.08-3.06-.13-6-.17-8.73H227V28.84h6c-.09-3.55-.13-6.79-.18-9.72-5.49,11-13.32,11.93-13.32,11.93s6.71-6.48,9.68-18.63h-8.87V10.17h12.37L232.6,3h6.17s0,2.43-.05,7.16h8.73Zm2.16,17.1-3.06,5.54a24.67,24.67,0,0,1-8.64-17.51A59.69,59.69,0,0,0,251.41,25.51Z"/><path class="cls-1" d="M259.52,16.06s1.89-4.45,2.47-12.6l5.4.54A29.82,29.82,0,0,1,266,9h5.89l1.8-1.8,1.8,1.8v2.21h-3.28c-.23,3.42-.54,6.43-.95,9h1.49l1.8-1.8,1.8,1.8v2.21h-5.49l-.54,2.52c1.89.9,4.5,2.74,7.24,6.66L273,34.15a35,35,0,0,0-3.28-6.79c-3.29,11.29-8.33,12.1-8.33,12.1s3-5,4.37-17h-4.37V20.2H266c.23-2.7.41-5.71.45-9H265C262.53,15.84,259.52,16.06,259.52,16.06ZM295.15,35h-5.71v-.9h-6.12c0,.32-.05.59-.05.9h-4.72c-.49-14.89-.63-25.11-.63-25.11h5.71s0,.27,0,.81h6.16V9.85h4.77C295,24.79,295.15,35,295.15,35Zm-5.44-22.09h-6.12c0,3.46-.09,9.81-.22,19h6.11C289.48,28.35,289.53,22,289.71,12.87Z"/><path class="cls-1" d="M304.74,15.52v-2.2h10l1.81-1.8,1.75,1.8v2.2Zm12.69,11.79c.45,5.63.58,9.45.58,9.45H312.8v-.58h-2.16c0,.18-.05.36-.05.58h-4.32c-.45-5.62-.58-9.45-.58-9.45h5.22v.45h2.16a1.87,1.87,0,0,0,0-.45ZM306.54,10.8V8.59H313l1.79-1.8,1.76,1.8V10.8Zm0,9.45V18H313l1.79-1.8,1.76,1.8v2.21Zm0,2.52H313l1.79-1.8,1.76,1.8V25h-10ZM313,30h-2.12c0,1,0,2.38-.13,4h2.11ZM335.56,13.9a15.55,15.55,0,0,0-1.39-4.45c0,2.2.13,4.27.22,6.21l1.35-1.35,1.8,1.75v2.25h-3c.18,2.66.36,5,.58,7.11.27-.63.5-1.26.72-1.89L340,26a24,24,0,0,1-3.78,6.75c1.08,5.67,2.21,7.29,2.21,7.29s-2.43.32-4.86-4.63a12.73,12.73,0,0,1-5.31,2.7,57.43,57.43,0,0,0,3.91-6.35,70,70,0,0,1-2.52-13.41H318V16.06h2.75a17.31,17.31,0,0,0-1.58-4.9s3.74,0,5.14,4.63a15,15,0,0,0,.94-5.26L328.9,12a7.86,7.86,0,0,1-3.06,4.09h3.56l-.4-5.85H318.6V8h3.19c-.22-3.47-.31-4.28-.31-4.28h4.23s0,.45-.13,4.28h.17l1.8-1.8,1.35,1.35L328.77,3h5.35c0,1.58,0,3.06.05,4.5,1.48,0,4.32.68,5.8,4.55Zm-12.23,6.8v.63h2V20.7h3.87c.5,8.68.63,14.58.63,14.58H325v-.63h-1.94c0,.22,0,.45,0,.63h-3.87c-.45-8.64-.58-14.58-.58-14.58Zm1.75,8.41h-1.89c0,1-.05,2.12-.09,3.33H325C325,31.54,325.08,30.42,325.08,29.11Zm-1.75-5.58c0,.9-.05,2-.05,3.33h1.84c.05-1,.09-2.11.09-3.33Z"/><path class="cls-1" d="M367.38,29.16l1,6.21c-18.63,5.22-24.57-5.9-13.59-13a7.91,7.91,0,0,0-2.83-1,25.24,25.24,0,0,0,1.8-5.08h-3.92v-1.8h4.32a28.32,28.32,0,0,0,.45-5h6.3a14.15,14.15,0,0,1-.9,5h1.58l1.8-1.8,1.79,1.8v1.8h-6a14.77,14.77,0,0,1-2.65,3.55,6.76,6.76,0,0,1,2,.59c.86-.36,1.76-.72,2.75-1l.9,1.85c-.54.18-1.08.45-1.58.67l1.67,1.85-3.78,3a11.39,11.39,0,0,0-1.39-2.3C353.43,28.17,354.78,32.53,367.38,29.16Z"/><path class="cls-1" d="M112.77,83.8s-1,5.67-19,7.07v-5c2.34,0,4.59,0,6.66-.18,0-.63,0-1.62,0-3.2H94.73v-2.2h5.76c0-.9,0-1.94,0-3.06H99.45a2.83,2.83,0,0,0,0,.58H95.09c-.45-10.35-.59-12.6-.59-12.6h5.22v.68h1V63.6H93.92V61.39h6.84V60.18h3.87c0,.4,0,.81,0,1.21H108l1.8-1.8,1.8,1.8V63.6h-6.88c0,.81,0,1.57,0,2.34h1.49v-.68h4.32c.45,10.35.58,12.6.58,12.6h-5.22v-.58H105c0,1.12.09,2.16.09,3.06h2.52l1.8-1.8,1.75,1.8v2.2h-6c0,1.17,0,2,.09,2.66A63.56,63.56,0,0,0,112.77,83.8Zm-18-26.37a29.2,29.2,0,0,0,12.6-5.22l2.83,4C98.82,62.52,94.73,57.43,94.73,57.43ZM100.58,75c0-.72,0-1.49,0-2.34H99.54c0,.72,0,1.48,0,2.34Zm-.9-6.89c0,.63-.05,1.4-.05,2.34h1c0-.76,0-1.53,0-2.34Zm5.13,0c0,.81,0,1.58,0,2.34h1.26c0-.72,0-1.48,0-2.34ZM106,75c0-.63,0-1.4.09-2.34H104.9c0,.85,0,1.62,0,2.34Zm15.34-9.86H127s0,7.79-.32,22.59c-4.09.63-7.56.81-7.56.81v-6.3s1,0,2.61.09c-.18-6.43-.31-11.47-.36-14.35h-1.21c-1.44,20.92-8.32,22.77-8.32,22.77s2-7.38,2.61-22.77h-1.89V65.8h2c0-2,0-4,0-6.21h5.85q0,3.31-.13,6.21h1Z"/><path class="cls-1" d="M167.17,65.76c.5,15,.63,25.2.63,25.2h-5.26s0-1.31,0-3.87h-20c0,1.26,0,2.52-.09,3.87H138.2c-.5-15-.63-25.2-.63-25.2h5.26s0,6.57-.22,19.12h20c0-4.23.14-10.62.27-19.12Zm-12-7.52c0,1.26-.05,3.42-.05,6.39h1.58v-.58H161c.5,10.71.63,18,.63,18h-5.26v-.59h-7.42v.59h-4.32c-.5-10.71-.59-18-.59-18h5.22v.58h1.26c-.09-2.88-.13-5.08-.13-6.39H138.24V56h25.51l1.8-1.8,1.8,1.8v2.2Zm-4.28,21-.13-5.09h-1.62c-.05,1.53-.05,3.24-.14,5.09ZM149.13,72h1.53c-.09-1.85-.09-3.56-.13-5.13h-1.31C149.18,68.14,149.18,69.85,149.13,72Zm7.29,2.2h-1.48c-.05,1.58-.05,3.29-.09,5.09h1.53C156.38,78,156.38,76.29,156.42,74.17ZM155,66.84c0,1.53,0,3.24,0,5.13h1.48l.14-5.13Z"/><path class="cls-1" d="M193,68.23a62.64,62.64,0,0,1-12.83,1.71v-6.3c10.22,0,20.57-.54,20.57-.54-6.35,9-14.45,17.24-3.69,24.66C180.45,87.76,184.19,74.53,193,68.23Zm10.7,4.59a10.15,10.15,0,0,0-2.29-3,4,4,0,0,1-.81,3.65A10.29,10.29,0,0,0,198,70.26l2.07-2.3a5.65,5.65,0,0,1,1.17,1.49l1.93-2.16A3.78,3.78,0,0,1,203.71,72.82Z"/><path class="cls-1" d="M219.33,70h-4.77c-.49-7.16-.63-8.69-.63-8.69h5.72v.63h19.43a2.64,2.64,0,0,0,0-.63h4.77c.45,7.16.58,8.69.58,8.69h-5.67s0-.63.18-5.85H219.56C219.51,65.44,219.42,67.29,219.33,70Zm3.24-10.67-4.68,2a15,15,0,0,0-3.73-5.67S218.3,53.25,222.57,59.32ZM239.85,78l1.8,1.8v2.21h-9c0,2.11-.13,4.77-.22,7.92-4.32.49-8,.63-8,.63v-5s.85,0,2.52.09c-.05-1.35-.14-2.56-.18-3.64h-9V79.84h9c-.09-2.56-.09-4-.09-4h4.18a25,25,0,0,0,1-4.9H220.19V68.68h18.08c0,4.28-3.1,6.93-5.48,8.37,0,.63,0,1.58,0,2.79h5.31ZM223.61,55.63s4.09-2.38,8.41,3.69l-4.72,2A14.43,14.43,0,0,0,223.61,55.63Zm9.58,5.81a21.15,21.15,0,0,0,6.43-7.2l4.68,2C241,62.83,233.19,61.44,233.19,61.44Z"/><path class="cls-1" d="M257.22,84.52l-6.16-1.39c1.8-7.74,9.94-6.3,9.94-6.3A16.46,16.46,0,0,0,257.22,84.52Zm10.31-16.11c-2.57,5.85,4.77,6.66,4.77,13.19,0,3.55-1.89,6.21-5.4,6.21a17.45,17.45,0,0,1-6.75-1.35l2.07-6.3c1.89.94,3.87,1.62,4.59-.14,1.08-2.61-7.29-6.57-.68-12.15a15.85,15.85,0,0,1-6.07-5l5.4-3.29a24.59,24.59,0,0,0,9,8.73A10.52,10.52,0,0,1,267.53,68.41ZM283,83.13l-6.12,1.39A16.83,16.83,0,0,0,273,76.83S281.16,75.39,283,83.13Zm-5.17-11.39a3.92,3.92,0,0,1-.77,3.6,10.15,10.15,0,0,0-2.65-3.24l2.07-2.29a4.18,4.18,0,0,1,1.16,1.48l2-2.16a3.79,3.79,0,0,1,.54,5.54A9.47,9.47,0,0,0,277.79,71.74Z"/></svg>