<svg id="レイヤー_1" data-name="レイヤー 1" xmlns="http://www.w3.org/2000/svg" viewBox="0 0 139.97 149.68"><defs><style>.cls-1{fill:#fff;}</style></defs><path class="cls-1" d="M37.42,1.27c-6.6,2.14-13.1,4.81-18.34,9.49a49.46,49.46,0,0,0-9.42,11c-5.54,9-10.8,19.93-9.44,30.81a21.53,21.53,0,0,0,1.85,6.58A15.89,15.89,0,0,0,6.27,65c6,4.65,14.13,3.86,21.29,3.75l34.36-.54,19.18-.3c5.9-.1,11.86-.45,17.76-.19l-3.5-.17a23.37,23.37,0,0,1,3.81.49l-2.85-.67a15.56,15.56,0,0,1,4.05,1.55l-2-1.16a16.54,16.54,0,0,1,5.39,5.2l-1-1.61c4.1,6.42,5.61,14.62,5.3,22.14l.09-1.92A33.66,33.66,0,0,1,103.53,107l1.18-2c-3.1,5.23-7.26,9.89-9.42,15.64a44.09,44.09,0,0,0-2.6,18.24,16,16,0,0,0,3.23,8.8,6.74,6.74,0,0,0,3.46,1.48,13.62,13.62,0,0,0,4.93.51A35.3,35.3,0,0,0,116.77,147c3-1.27,6.77-2.84,8.71-5.6l1.18-2a3.11,3.11,0,0,0-.94-3.52c-.14-.18-.27-.37-.39-.56l1,1.61c-1.89-3.12-2-7.12-1.82-10.67l-.1,1.92c.32-5.48,1.52-11.31,4.31-16.1l-1.18,2c1.91-3.23,4.24-6.19,6.19-9.4a38.14,38.14,0,0,0,5.52-13.48c1.56-9.07.52-19.59-4.24-27.63a24,24,0,0,0-4.33-5.72,20.69,20.69,0,0,0-7.3-4.21c-6-1.94-12.33-1.78-18.59-1.68l-34.12.53-18.92.3c-6.2.1-12.47.49-18.66.24l3.5.17a13.77,13.77,0,0,1-2.22-.29l2.85.67a9.82,9.82,0,0,1-2.17-.83l2,1.15a9.83,9.83,0,0,1-3.23-3.12l1,1.6a21.94,21.94,0,0,1-3-12.42l-.1,1.92a37.92,37.92,0,0,1,2.8-11.43A71.48,71.48,0,0,1,39.56,20l-1.18,2a43.49,43.49,0,0,1,7.3-9.45l-2.13,2a27.84,27.84,0,0,1,3.77-3l-3,1.9a22.77,22.77,0,0,1,2.42-1.33L43.17,13.9c.56-.25,1.13-.48,1.72-.68l-4.17,1.37.24-.08c3.73-1.21,7.63-2.47,10.76-5,1.3-1,4.26-3.74,3.41-5.93C54.22,1.27,51.47.46,49.21.19A28.63,28.63,0,0,0,37.42,1.27Z"/></svg>