<svg id="レイヤー_1" data-name="レイヤー 1" xmlns="http://www.w3.org/2000/svg" viewBox="0 0 149.92 149.92"><defs><style>.cls-1{fill:#efe4dc;stroke:#efe4dc;stroke-miterlimit:10;stroke-width:5px;}</style></defs><circle class="cls-1" cx="74.96" cy="74.96" r="72.46"/><path d="M43.05,52.42a7.63,7.63,0,1,0-7.63-7.62A7.62,7.62,0,0,0,43.05,52.42Z"/><path d="M69,75.68a3.27,3.27,0,0,0,0-.45L80.31,67a1.61,1.61,0,0,0-1.89-2.61L67,72.64a3.41,3.41,0,0,0-1.39-.31H59.41l-1.5-8.57C57.08,59.43,55.34,56,51.65,56H36c-3.7,0-7.72,4-7.72,7.72V89.4a3.34,3.34,0,0,0,3.34,3.35h2.34l1.27,21.86a3.56,3.56,0,0,0,3.56,3.56H45.9a3.56,3.56,0,0,0,3.56-3.56L51.13,71.3h.08l1,4.22A4.14,4.14,0,0,0,56.26,79h9.36A3.33,3.33,0,0,0,69,75.68ZM40.61,70.93V58.74H45V70.93l-2.33,2.74Z"/><polygon points="62.82 39.8 62.82 67.66 67.2 67.66 67.2 44.18 116.85 44.18 116.85 86.05 67.2 86.05 67.2 80.78 62.82 80.78 62.82 90.43 121.23 90.43 121.23 39.8 62.82 39.8"/><path d="M84.88,101.75a6.18,6.18,0,1,0-6.18,6.18A6.18,6.18,0,0,0,84.88,101.75Z"/><path d="M78.7,111.24a10.25,10.25,0,0,0-9.59,6.93H88.28A10.23,10.23,0,0,0,78.7,111.24Z"/><path d="M111.53,101.75a6.18,6.18,0,1,0-6.18,6.18A6.18,6.18,0,0,0,111.53,101.75Z"/><path d="M105.35,111.24a10.23,10.23,0,0,0-9.58,6.93h19.16A10.22,10.22,0,0,0,105.35,111.24Z"/></svg>