<svg id="レイヤー_1" data-name="レイヤー 1" xmlns="http://www.w3.org/2000/svg" viewBox="0 0 297.6 399.84"><defs><style>.cls-1{fill:#fff;}</style></defs><path class="cls-1" d="M297.48,384.15c-7-26.25-27.33-45.62-50.23-58.76-26.21-15.05-56.52-20.63-85.94-25.71-17.49-3-35.08-5.93-52.13-11l3.95,1.18a126.71,126.71,0,0,1-33.29-15.06l2.85,1.88C73.92,270.9,66,263.67,60.56,254.63l1.5,2.52a51.13,51.13,0,0,1-7.19-26.5l0,2.94c.19-11.08,3.44-21.9,8.38-31.76l-1.53,3a92.46,92.46,0,0,1,15.25-21.56l-2.84,3A98.89,98.89,0,0,1,88.31,174l-4,2.78a100.41,100.41,0,0,1,12.83-7.6l-4.91,2.42A97.05,97.05,0,0,1,103.49,167l-5.68,1.92a91.41,91.41,0,0,1,10.65-2.86l-5.87,1.18a87.62,87.62,0,0,1,11.17-1.5l-5.46.36a62.1,62.1,0,0,1,8.84.06l-4.83-.43a43,43,0,0,1,7.38,1.35l-4-1.18a30.88,30.88,0,0,1,7.89,3.58l-2.85-1.87a23,23,0,0,1,6.6,6.88L125.86,172a20.17,20.17,0,0,1,3,10.43l0-2.95a15.73,15.73,0,0,1-1.57,6.43l1.53-3a17.16,17.16,0,0,1-2.64,3.75l2.84-3a19.84,19.84,0,0,1-2.36,2l4-2.79a21.85,21.85,0,0,1-2.72,1.61l4.91-2.43a26.19,26.19,0,0,1-2.57,1.06l5.68-1.91a33.68,33.68,0,0,1-4.17,1.1l5.87-1.18a45.49,45.49,0,0,1-5.46.68l5.47-.35a74.52,74.52,0,0,1-10.67-.21l4.83.43c-15.25-1.38-30.76-3.34-45.48-7.69l4,1.17a91.73,91.73,0,0,1-23.78-10.65l2.85,1.87a67,67,0,0,1-20.49-20.83l1.5,2.53a47.58,47.58,0,0,1-7-24.48l0,3A55.06,55.06,0,0,1,49.53,103L48,106C52.69,96.77,59.16,88.49,66.29,81l-2.84,3a50.47,50.47,0,0,1,7.14-6l-4,2.79A147.09,147.09,0,0,1,86.15,69.7l-4.92,2.43c12.87-6.36,26-12.23,38.59-19.08C132,46.43,144.2,38.75,154,28.86c5.63-5.67,10.8-11.62,14.43-18.79A5.53,5.53,0,0,0,170,5.55a4.08,4.08,0,0,0-1.49-4c-2.56-2.77-8.22-3.5-11.63-3.47a43.49,43.49,0,0,0-17,3.45L134.93,4a22.41,22.41,0,0,0-6.81,5.78,61.92,61.92,0,0,1-10.35,14.52l2.84-3A97.12,97.12,0,0,1,106.09,33.6l4-2.79A215.63,215.63,0,0,1,81.69,47.05l4.92-2.42c-17.38,8.58-35.43,16-51.21,27.42a66.54,66.54,0,0,0-9.53,8.7,130.54,130.54,0,0,0-11.35,13.7C7.25,104.68,1,116.82.14,129.52a52.25,52.25,0,0,0,1.73,18.84A61.61,61.61,0,0,0,10,164.59c6.61,9.86,16.16,17.41,26.46,23.13,12.15,6.75,26.09,10.46,39.69,12.91,6.4,1.15,12.86,2,19.33,2.76a200.67,200.67,0,0,0,20.48,1.8,81.3,81.3,0,0,0,24.68-3.13c10.13-3.13,19.83-7.62,26.7-16,8.41-10.22,5.73-25.21-4-33.56-5.94-5.13-13.69-8-21.37-9.22a96.28,96.28,0,0,0-26.86,0c-15.86,2-30.89,7.15-45.12,14.28A112.37,112.37,0,0,0,41,178.4a117.14,117.14,0,0,0-12.8,14.81A107.49,107.49,0,0,0,19,209.32c-5.78,12.13-8.74,25.73-7.28,39.18,1.19,11,6.35,21.28,13.31,29.75,7.09,8.64,16.46,15.27,26.13,20.73,10.16,5.73,21.06,9.61,32.23,12.83,26.24,7.58,53.55,10.32,80.18,16.14,6.49,1.42,12.93,3,19.31,4.9l-4-1.17A153.82,153.82,0,0,1,219.26,350l-2.84-1.87c12.32,8.13,23.31,18.4,31,31.09l-1.51-2.52A74.65,74.65,0,0,1,254,395.8c.93,3.46,5.32,5,8.32,5.57,5,1,11.33.3,16.17-1.11,5.08-1.47,10.64-3.45,14.56-7.13,2.4-2.24,5.4-5.32,4.42-9Z"/></svg>