<svg id="レイヤー_1" data-name="レイヤー 1" xmlns="http://www.w3.org/2000/svg" viewBox="0 0 229.58 41.86"><path d="M64,15.77c0-.14.14-.25.4-.34s.63-.21,1-.31l1.31-.34a13.31,13.31,0,0,0,1.31-.4,4.07,4.07,0,0,0,1-.53.92.92,0,0,0,.4-.74s0-.06,0-.06-.07-.11-.13-.19-.09-.13-.11-.13H64.44l-.08-.06s0-.09,0-.13-.06-.08-.1-.15l0-.1V10.77l.37-.44h6q.12,0,.21-.21a3.15,3.15,0,0,0,.13-.51c0-.19.06-.36.08-.53A2.42,2.42,0,0,1,71,8.74a1.33,1.33,0,0,1,.14-.17c.07-.1.11-.14.13-.14h1.9c.15,0,.21-.07.23-.21a2,2,0,0,0,0-.32V7.6c0-.12,0-.32,0-.61s0-.57,0-.89,0-.63,0-.93a3.74,3.74,0,0,0,0-.61.64.64,0,0,0-.15-.29c-.07-.13-.15-.21-.23-.21H72c-.06,0-.13.16-.27.44s-.26.63-.41,1l-.46,1.1a3.12,3.12,0,0,1-.38.74,4.45,4.45,0,0,1-1,.87A7.69,7.69,0,0,1,68.35,9,10.06,10.06,0,0,1,67,9.46a4.55,4.55,0,0,1-1.27.19.81.81,0,0,1-.47-.21A2.18,2.18,0,0,1,64.86,9a2.77,2.77,0,0,1-.31-.59,1.59,1.59,0,0,1-.13-.51c0-.1.12-.19.32-.27l.8-.27c.34-.09.69-.22,1.07-.36a5.11,5.11,0,0,0,1-.57,3,3,0,0,0,.8-.8,1.9,1.9,0,0,0,.32-1.1V4.26c0-.12,0-.2-.13-.2H67.35a.25.25,0,0,0-.25.25,4.35,4.35,0,0,0-.08.57,3.18,3.18,0,0,1-.07.55.34.34,0,0,1-.36.27H64.82a.35.35,0,0,1-.25-.12.33.33,0,0,1-.13-.26V2a.68.68,0,0,1,.13-.26c.1-.12.17-.17.25-.17H70.9a.25.25,0,0,0,.25-.25c0-.17.07-.34.09-.55a3.41,3.41,0,0,1,.1-.55A.3.3,0,0,1,71.66,0h1.9a.31.31,0,0,1,.32.25A1.5,1.5,0,0,1,74,.8c0,.21,0,.38.07.55a.25.25,0,0,0,.27.25H80.4a.39.39,0,0,1,.09.07l.16.12.07.05.06.06V5.07l-.27.25-.21,0c-.13,0-.28,0-.47,0l-.59,0c-.21,0-.36,0-.49,0h-.08a.4.4,0,0,1-.4-.21,2,2,0,0,1-.13-.49L78,4.27a.3.3,0,0,0-.28-.21H76.22s0,0-.08.06,0,0,0,.06a1,1,0,0,0-.1.15.79.79,0,0,0,0,.12v1.9a.64.64,0,0,0,.17.28c.12.13.17.21.21.21h1.52a.31.31,0,0,0,.25-.13c.06-.1.11-.19.17-.31s.13-.21.19-.3A.31.31,0,0,1,78.75,6a2.21,2.21,0,0,1,.47,0,2.11,2.11,0,0,1,.55.19,2.2,2.2,0,0,1,.44.33A.57.57,0,0,1,80.4,7a1.94,1.94,0,0,1-.51,1.39A2.23,2.23,0,0,1,78.61,9H77c-.48,0-.93,0-1.39-.05a10,10,0,0,0-1.37-.08H74c-.14,0-.19,0-.19.13v1.14l.24.19h6.46a.35.35,0,0,1,.31.16,1.09,1.09,0,0,1,.17.36,3.35,3.35,0,0,1,.05.4v.53a2.88,2.88,0,0,1,0,.42.84.84,0,0,1-.11.36.3.3,0,0,1-.26.17H75.71c-.08,0-.12.06-.12.17a1,1,0,0,0,0,.21.72.72,0,0,0,.35.57,4.17,4.17,0,0,0,.85.45,6.61,6.61,0,0,0,1.14.4c.44.14.84.23,1.23.33s.75.17,1.07.22l.68.12.13.13a.61.61,0,0,1,.14.13v.12l-.27.51c-.13.23-.26.47-.42.72a4,4,0,0,1-.49.65.7.7,0,0,1-.53.28,5.62,5.62,0,0,1-1.86-.3,11.17,11.17,0,0,1-1.75-.76,13,13,0,0,1-1.58-1.08,15.1,15.1,0,0,1-1.35-1.28h-.49c-.46.44-1,.86-1.48,1.28a12.78,12.78,0,0,1-1.69,1.08,11.17,11.17,0,0,1-1.86.76,6.27,6.27,0,0,1-1.94.3.71.71,0,0,1-.52-.26,3,3,0,0,1-.43-.57,5.86,5.86,0,0,1-.31-.61c-.07-.19-.11-.3-.13-.34A.58.58,0,0,1,64,15.77Z"/><path d="M93.93,11.72v-.85a.55.55,0,0,1,.26-.48h.38a1.4,1.4,0,0,0,.42,0,.66.66,0,0,0,.34-.15.34.34,0,0,0,.16-.3,2.2,2.2,0,0,0,0-.27,2.3,2.3,0,0,0-.12-.34,1.05,1.05,0,0,0-.15-.3A.27.27,0,0,0,95,8.87H87.62a.47.47,0,0,1-.15,0l-.21-.09a.67.67,0,0,1-.19-.14.17.17,0,0,1-.1-.13v-2h6.46a.34.34,0,0,0,.33-.17A1.47,1.47,0,0,0,93.83,6a1.18,1.18,0,0,0-.19-.65.77.77,0,0,0-.59-.36L91.78,5H90.37L89,4.92c-.47,0-.91-.06-1.33-.1a1,1,0,0,1-.34-.19.39.39,0,0,1-.17-.32V2.66c0-.06,0-.1.19-.15l.19-.1h.05a13,13,0,0,1,1.52.08c.5,0,1,0,1.52,0H91.8c.15,0,.23,0,.25-.09a1.48,1.48,0,0,0,0-.27A1,1,0,0,0,92,1.75a1.08,1.08,0,0,1-.08-.44c0-.13.12-.25.33-.34A4.49,4.49,0,0,1,93,.76l.78-.11.49,0a.49.49,0,0,1,.46.23,3.5,3.5,0,0,1,.24.55,4.08,4.08,0,0,0,.23.51.53.53,0,0,0,.5.25,2.43,2.43,0,0,0,.64-.1L97,1.9l.64-.17a2.59,2.59,0,0,1,.67-.1,1.35,1.35,0,0,1,.28,0,.31.31,0,0,1,.19.23,1.41,1.41,0,0,1,.06.27,2,2,0,0,1,.08.37,3.91,3.91,0,0,1,.07.39,1.15,1.15,0,0,0,.06.24v.19A.59.59,0,0,1,98.6,4a7.55,7.55,0,0,1-.91.23,9.49,9.49,0,0,0-.93.19.54.54,0,0,0-.42.55.82.82,0,0,0,.27.64.76.76,0,0,0,.6.27,4.5,4.5,0,0,0,.63-.07c.21-.06.4-.12.61-.2A4.49,4.49,0,0,0,99,5.39a2.54,2.54,0,0,1,.61-.07.48.48,0,0,1,.43.21,1.16,1.16,0,0,1,.23.53,2.3,2.3,0,0,1,.1.63c0,.21,0,.38,0,.49a.54.54,0,0,1-.36.57,3.76,3.76,0,0,1-.79.21,3.23,3.23,0,0,0-.8.19.5.5,0,0,0-.36.53c0,.08,0,.13,0,.19a2.59,2.59,0,0,0,.19.38,3.6,3.6,0,0,0,.26.57q.15.29.27.57a4.15,4.15,0,0,0,.17.38.92.92,0,0,1,.08.17c0,.12,0,.17,0,.21a.07.07,0,0,1,0,.06,1.13,1.13,0,0,1-.15.53,5.3,5.3,0,0,1-.36.51,2.74,2.74,0,0,1-.5.4.92.92,0,0,1-.47.15c-.17,0-.46,0-.84,0s-.76,0-1.15-.05a6.48,6.48,0,0,1-1.09-.25A.93.93,0,0,1,94,12S93.93,11.89,93.93,11.72Zm-6.84,1c0-.23,0-.46,0-.68a2.21,2.21,0,0,1,.15-.65,1,1,0,0,1,.34-.46l.34,0h.8a2.18,2.18,0,0,1,.51,0,1,1,0,0,1,.44.13.4.4,0,0,1,.19.38,2.32,2.32,0,0,1-.08.65,4.48,4.48,0,0,0,0,.64,1.37,1.37,0,0,0,.17.72,1.27,1.27,0,0,0,.43.52,2,2,0,0,0,.61.34l.69.19a2.45,2.45,0,0,1,.34,0h1.37c.64,0,1.29,0,1.92-.08s1.27-.08,1.91-.08a1.29,1.29,0,0,1,.25,0h.15l.14.12v2a.43.43,0,0,1-.31.38,2.86,2.86,0,0,1-.76.23l-1,.13c-.36,0-.72,0-1.07,0l-.91,0h-.57A16.63,16.63,0,0,1,91,17.08,6.37,6.37,0,0,1,89,16.51a3.92,3.92,0,0,1-1.4-1.22,3.46,3.46,0,0,1-.55-2Z"/><path d="M106,15.73v-.15s.16,0,.35,0a3.07,3.07,0,0,0,.57-.06,1.42,1.42,0,0,0,.51-.19.37.37,0,0,0,.23-.36V12.16l-.25-.25H106c-.11,0-.2-.08-.26-.25a2.79,2.79,0,0,1-.17-.6,3.63,3.63,0,0,1-.06-.67c0-.23,0-.38,0-.47a.53.53,0,0,1,.34-.55,3.51,3.51,0,0,1,.74-.21,5.18,5.18,0,0,0,.75-.17.49.49,0,0,0,.34-.5V6.21c0-.06-.08-.15-.21-.23a.94.94,0,0,0-.31-.15,1.13,1.13,0,0,0-.2,0l-.37,0-.34,0a1.11,1.11,0,0,0-.23,0l-.24-.25V3.8a.33.33,0,0,1,.3-.38,3.69,3.69,0,0,1,.69-.06l.66-.07a.34.34,0,0,0,.3-.36V.27s0,0,.08-.06l.11-.08L108,.06a.24.24,0,0,1,.11-.06h1.77l.32.27V2.79a.46.46,0,0,0,.19.36,1.09,1.09,0,0,0,.44.19,4.17,4.17,0,0,0,.49.08,2.71,2.71,0,0,0,.36,0c.08,0,.1,0,.1,0l.62-.63h.21l.44,0,.51-.07a1,1,0,0,0,.36-.16s.08-.07.12-.13a.32.32,0,0,0,.07-.13V.38L114.6,0h1.63l.12.06.15.07a.28.28,0,0,1,.11.08c.06,0,.08,0,.08.06v1.9a.36.36,0,0,1,.08.09.31.31,0,0,0,.11.15.5.5,0,0,0,.11.13.49.49,0,0,1,.15.12.4.4,0,0,0,.12.07h5.57l.24.31V4.69a.47.47,0,0,1-.13.27.34.34,0,0,1-.25.17H117a.23.23,0,0,0-.19.13.87.87,0,0,0-.11.31,1,1,0,0,0-.06.32,1.22,1.22,0,0,0,0,.23.86.86,0,0,0,.12.47c0,.12.19.19.4.25h3.28a3.88,3.88,0,0,1,.42,0,1.83,1.83,0,0,1,.55.13,3.33,3.33,0,0,1,.5.25.45.45,0,0,1,.19.4,7,7,0,0,1-.18,1.55,14.34,14.34,0,0,1-.47,1.54c-.19.52-.38,1-.61,1.52s-.42,1-.64,1.41v.07a.76.76,0,0,0,.47.71,5.79,5.79,0,0,0,1,.42,10.22,10.22,0,0,1,1.07.37.65.65,0,0,1,.47.59.25.25,0,0,1,0,.12l-.2.36-.38.55a4.6,4.6,0,0,1-.46.53,1.13,1.13,0,0,1-.48.34h-.05a1.9,1.9,0,0,1-.74-.17,8.56,8.56,0,0,1-.84-.44l-.78-.51c-.24-.17-.45-.3-.62-.4h-.25a1.12,1.12,0,0,0-.7.22l-.61.5a4.69,4.69,0,0,1-.63.47,1.1,1.1,0,0,1-.66.23.64.64,0,0,1-.52-.25c-.13-.15-.26-.34-.4-.53a4.65,4.65,0,0,0-.36-.61.8.8,0,0,0-.43-.4.2.2,0,0,0-.12,0,.29.29,0,0,0-.13.08l-1.52,1.52s0,0-.08,0h-.09a.66.66,0,0,1-.48-.19,2.4,2.4,0,0,1-.38-.4,3.33,3.33,0,0,0-.36-.4.63.63,0,0,0-.45-.17.73.73,0,0,0-.4.21,7.92,7.92,0,0,1-.69.49,4.14,4.14,0,0,1-.89.49,2.94,2.94,0,0,1-1.12.21h-.76a.72.72,0,0,1-.3-.34,2.36,2.36,0,0,1-.21-.51,2.27,2.27,0,0,1-.12-.53,3.86,3.86,0,0,1,0-.46Zm5.91-5.4a3.27,3.27,0,0,1-.64.25,3.35,3.35,0,0,0-.67.27.55.55,0,0,0-.28.55V15a.46.46,0,0,0,.11.23.27.27,0,0,0,.21.15,1.32,1.32,0,0,0,1-.59,6.92,6.92,0,0,0,.87-1.52,19.28,19.28,0,0,0,.69-2.07c.18-.74.36-1.48.49-2.18s.25-1.35.32-1.94a9.44,9.44,0,0,0,.1-1.27.52.52,0,0,0-.14-.33,1.14,1.14,0,0,0-.24-.22.81.81,0,0,0-.27,0l-.38,0-.36,0a1.48,1.48,0,0,0-.27,0h-.21c-.17,0-.28.06-.3.15a.84.84,0,0,1-.25.36,1.06,1.06,0,0,1-.57.35l-.43.09a.43.43,0,0,0-.29.25,1.79,1.79,0,0,0-.11.76,2.53,2.53,0,0,0,.07.68.54.54,0,0,0,.23.34,1,1,0,0,0,.48.1c.21,0,.45,0,.76,0a.74.74,0,0,1,.26.32,2.86,2.86,0,0,1,.1.42,1.78,1.78,0,0,1,0,.46v.4A.63.63,0,0,1,111.88,10.33Zm2.59,5a.8.8,0,0,0,.19,0,1.2,1.2,0,0,0,.47-.13,2,2,0,0,0,.57-.33,4.15,4.15,0,0,0,.48-.43,1,1,0,0,0,.19-.46,1,1,0,0,0-.08-.3,2.79,2.79,0,0,0-.19-.33,1.55,1.55,0,0,0-.27-.24.53.53,0,0,0-.28-.1.55.55,0,0,0-.19,0,2.05,2.05,0,0,0-.17.34c-.1.19-.17.36-.29.55s-.17.36-.26.53-.14.27-.17.35a.76.76,0,0,0-.08.21,1.16,1.16,0,0,0-.06.17C114.33,15.29,114.37,15.33,114.47,15.33Zm2.43-5.19a6.46,6.46,0,0,0,.32.65,3.07,3.07,0,0,0,.4.61.57.57,0,0,0,.44.26.48.48,0,0,0,.41-.22,2.23,2.23,0,0,0,.33-.54,5.74,5.74,0,0,0,.19-.64,2.85,2.85,0,0,0,.05-.51c0-.08,0-.18,0-.31a.23.23,0,0,0-.25-.19H117a.22.22,0,0,0-.21.13.85.85,0,0,0,0,.25.32.32,0,0,0,0,.13Z"/><path d="M127.69,5.58c.13-1.32.29-2.67.46-4.06a1,1,0,0,1,.09-.21.83.83,0,0,1,.15-.17h.46c.11,0,.3,0,.55,0a5.15,5.15,0,0,1,.78,0,2.41,2.41,0,0,1,.7.15.43.43,0,0,1,.31.42A8.6,8.6,0,0,1,131,3.38c-.1.55-.23,1.12-.35,1.69s-.24,1.14-.36,1.71a11,11,0,0,0-.15,1.71V9.4c0,.12,0,.19,0,.23a.13.13,0,0,0,.09.12h.16a.25.25,0,0,0,.24-.13l.18-.26c.05-.12.13-.19.18-.29a.34.34,0,0,1,.29-.08,1.06,1.06,0,0,1,.59.31.68.68,0,0,1,.3.55,6.23,6.23,0,0,1-.17,1.48c-.11.49-.24,1-.4,1.5s-.3,1-.43,1.5a6.68,6.68,0,0,0-.27,1.5,1.26,1.26,0,0,1-.4.33,2.35,2.35,0,0,1-.47.15,4.56,4.56,0,0,1-.54,0H129c-.23,0-.42-.15-.59-.44a4.52,4.52,0,0,1-.41-1.1,10.32,10.32,0,0,1-.27-1.5c-.08-.53-.12-1.05-.15-1.56s-.06-.93-.08-1.31,0-.65,0-.78C127.5,8.28,127.56,6.91,127.69,5.58Zm7,9.54c.23-.23.51-.49.82-.76l.89-.83a3.42,3.42,0,0,0,.61-.73,5.45,5.45,0,0,0,.63-2,16,16,0,0,0,.13-2V7.87a.42.42,0,0,0-.38-.39c-.13,0-.36,0-.68,0s-.69,0-1,0l-1.05,0c-.32,0-.55,0-.66,0a1.24,1.24,0,0,1-.25,0l-.3-.07a.79.79,0,0,1-.25-.15.38.38,0,0,1-.09-.27V5.07s0-.05,0-.11a.85.85,0,0,1,.1-.14s0-.05.06-.07l.05-.06h3.94a.36.36,0,0,0,.26-.09,1,1,0,0,0,.15-.23,1.38,1.38,0,0,0,.08-.27,1.23,1.23,0,0,0,0-.26c0-.38,0-.78-.06-1.18a8.82,8.82,0,0,1-.07-1.16.71.71,0,0,1,.09-.32A.31.31,0,0,1,138,1h2.14a.43.43,0,0,1,.27.11.38.38,0,0,1,.11.27V4.06a.43.43,0,0,0,.14.25.44.44,0,0,0,.24.14h2.17V6.84c0,.19-.12.3-.38.32s-.53,0-.84.06a7.3,7.3,0,0,0-.87.07.51.51,0,0,0-.46.44c0,.93-.05,1.81-.13,2.64a13.28,13.28,0,0,1-.44,2.34,9.92,9.92,0,0,1-.93,2.15,8.71,8.71,0,0,1-1.65,2,5,5,0,0,1-.42.32.68.68,0,0,1-.47.19,1.5,1.5,0,0,1-.65-.17,4.19,4.19,0,0,1-.7-.42,3.91,3.91,0,0,1-.59-.55,1,1,0,0,1-.23-.57C134.34,15.54,134.45,15.37,134.7,15.12Z"/><path d="M152.13,12.69a2.84,2.84,0,0,1,.79-1,4.18,4.18,0,0,1,1.14-.63,4,4,0,0,1,1.31-.21,3.3,3.3,0,0,1,1.68.42,5.86,5.86,0,0,1,1.23.91,12.06,12.06,0,0,1,.84.94c.22.28.4.41.51.41a.63.63,0,0,0,.46-.2,2.69,2.69,0,0,0,.28-.5,2.83,2.83,0,0,0,.15-.59,2.49,2.49,0,0,0,.06-.49,2.23,2.23,0,0,0-.36-1.26,2.59,2.59,0,0,0-.93-.81A4.61,4.61,0,0,0,158,9.25a6.25,6.25,0,0,0-1.25-.13,5.85,5.85,0,0,0-1.86.28,7.86,7.86,0,0,0-1.64.76,11,11,0,0,0-1.46,1.11c-.47.39-.93.83-1.39,1.27h-.38l-1.38-1.39s-.06-.08-.1-.13a.64.64,0,0,0,0-.12.58.58,0,0,1,0-.13c0-.07.06-.11.1-.13l.24-.25c.14-.13.21-.23.27-.25l6.46-5.32.23-.2a.67.67,0,0,0,0-.25c0-.17-.06-.27-.19-.29a3.07,3.07,0,0,0-.42,0c-.61,0-1.22,0-1.83.07s-1.21.08-1.82.08h-.27l-.19,0L151,3.93V1.79l.24-.14c1.39,0,2.83,0,4.3-.15s2.92-.11,4.35-.11a.79.79,0,0,1,.51.17,2,2,0,0,1,.46.41,3.29,3.29,0,0,1,.34.54,3.91,3.91,0,0,1,.19.53.62.62,0,0,1-.27.49,5.31,5.31,0,0,1-.76.59c-.3.19-.64.42-1,.63l-1,.66a6,6,0,0,0-.78.65.84.84,0,0,0-.32.59.68.68,0,0,0,0,.19,14.26,14.26,0,0,1,2.24.42,7.48,7.48,0,0,1,2,.87,4.31,4.31,0,0,1,1.42,1.46,4.3,4.3,0,0,1,.53,2.26,4.81,4.81,0,0,1-.57,2.42,5.1,5.1,0,0,1-1.52,1.65,6.72,6.72,0,0,1-2.14.91,10.57,10.57,0,0,1-2.44.29,9.39,9.39,0,0,1-1.61-.14,4.61,4.61,0,0,1-1.58-.47,3.46,3.46,0,0,1-1.19-1,2.25,2.25,0,0,1-.5-1.56A2.67,2.67,0,0,1,152.13,12.69Zm2.48,1.52a.85.85,0,0,0,.35.3,1.35,1.35,0,0,0,.45.16,2.7,2.7,0,0,0,.48.05,1.62,1.62,0,0,0,.26,0h.25a.39.39,0,0,0,.25-.21,1.23,1.23,0,0,0,0-.28,1.08,1.08,0,0,0-.38-.87,1.4,1.4,0,0,0-.92-.33h-.24a1.24,1.24,0,0,0-.25,0c-.21.08-.32.17-.36.29a1.18,1.18,0,0,0-.06.41A.81.81,0,0,0,154.61,14.21Z"/><path d="M41.68,35.72v-.85a.55.55,0,0,1,.26-.48h.38a1.4,1.4,0,0,0,.42,0,.66.66,0,0,0,.34-.15.34.34,0,0,0,.16-.3,2.2,2.2,0,0,0,0-.27,2.3,2.3,0,0,0-.12-.34,1.05,1.05,0,0,0-.15-.3.27.27,0,0,0-.23-.12H35.37a.47.47,0,0,1-.15,0L35,32.76a.91.91,0,0,1-.19-.13.21.21,0,0,1-.1-.14v-2h6.46a.34.34,0,0,0,.33-.17,1.47,1.47,0,0,0,.07-.34,1.18,1.18,0,0,0-.19-.65.77.77,0,0,0-.59-.36l-1.27,0H38.12l-1.42-.06c-.47,0-.91-.06-1.33-.1a1,1,0,0,1-.34-.19.39.39,0,0,1-.17-.32V26.66c0-.06,0-.1.19-.15l.19-.1h0a13,13,0,0,1,1.52.08c.5,0,1,.05,1.52.05h1.22c.15,0,.23,0,.25-.09a1.48,1.48,0,0,0,0-.27,1,1,0,0,0-.08-.43,1.08,1.08,0,0,1-.08-.44c0-.13.12-.25.33-.34a4.49,4.49,0,0,1,.72-.21l.78-.11.49,0a.49.49,0,0,1,.46.23,3.5,3.5,0,0,1,.24.55,4.08,4.08,0,0,0,.23.51.53.53,0,0,0,.5.25,2.43,2.43,0,0,0,.64-.1l.67-.17.64-.17a2.59,2.59,0,0,1,.67-.1,1.35,1.35,0,0,1,.28,0,.31.31,0,0,1,.19.23,1.41,1.41,0,0,1,.06.27,2,2,0,0,1,.08.37,3.91,3.91,0,0,1,.07.39,1.15,1.15,0,0,0,.06.24v.19a.59.59,0,0,1-.42.61,7.55,7.55,0,0,1-.91.23,9.49,9.49,0,0,0-.93.19.54.54,0,0,0-.42.55.82.82,0,0,0,.27.64.76.76,0,0,0,.6.27,4.5,4.5,0,0,0,.63-.07c.21-.06.4-.12.61-.2a4.49,4.49,0,0,0,.59-.19,2.54,2.54,0,0,1,.61-.07.48.48,0,0,1,.43.21,1.16,1.16,0,0,1,.23.53,2.3,2.3,0,0,1,.1.63c0,.21,0,.38,0,.49a.54.54,0,0,1-.36.57A3.76,3.76,0,0,1,47,32a3.23,3.23,0,0,0-.8.19.5.5,0,0,0-.36.53c0,.08,0,.13,0,.19a2.59,2.59,0,0,0,.19.38,3.6,3.6,0,0,0,.26.57q.15.28.27.57a4.15,4.15,0,0,0,.17.38.92.92,0,0,1,.08.17c0,.12,0,.17,0,.21a.07.07,0,0,1,0,.06,1.13,1.13,0,0,1-.15.53,5.3,5.3,0,0,1-.36.51,2.74,2.74,0,0,1-.5.4.92.92,0,0,1-.47.15c-.17,0-.46,0-.84,0s-.76,0-1.15,0a6.48,6.48,0,0,1-1.09-.25A.93.93,0,0,1,41.7,36S41.68,35.89,41.68,35.72Zm-6.84,1c0-.23,0-.46,0-.68a2.21,2.21,0,0,1,.15-.65,1,1,0,0,1,.34-.46l.34,0h.8a2.18,2.18,0,0,1,.51,0,1,1,0,0,1,.44.13.4.4,0,0,1,.19.38,2.32,2.32,0,0,1-.08.65,4.48,4.48,0,0,0,0,.64,1.37,1.37,0,0,0,.17.72,1.27,1.27,0,0,0,.43.52,2,2,0,0,0,.61.34l.69.19a2.45,2.45,0,0,1,.34,0h1.37c.64,0,1.29,0,1.92-.08s1.27-.08,1.91-.08a1.29,1.29,0,0,1,.25,0h.15l.14.12v2a.43.43,0,0,1-.31.38,2.86,2.86,0,0,1-.76.23c-.32.05-.66.09-1,.13s-.72,0-1.07,0l-.91,0h-.57a16.63,16.63,0,0,1-2.11-.15,6.37,6.37,0,0,1-1.94-.57,3.92,3.92,0,0,1-1.4-1.22,3.46,3.46,0,0,1-.55-2Z"/><path d="M60,40.32c-.1-.17-.19-.36-.29-.57s-.19-.4-.27-.59a1.52,1.52,0,0,1-.11-.48.6.6,0,0,1,0-.21.69.69,0,0,1,.23-.15c.36,0,.76-.07,1.23-.13A12.52,12.52,0,0,0,62.25,38a11.62,11.62,0,0,0,1.49-.4A5,5,0,0,0,65,37a3,3,0,0,0,.91-.93,2.47,2.47,0,0,0,.34-1.32,2,2,0,0,0-.72-1.65,2.74,2.74,0,0,0-1.75-.57,8,8,0,0,0-1.76.19,14,14,0,0,0-1.79.5c-.59.19-1.16.41-1.73.64l-1.63.7h-.14a.57.57,0,0,1-.47-.28,2.06,2.06,0,0,1-.38-.65c-.08-.24-.15-.49-.21-.72a4.78,4.78,0,0,1-.08-.55.61.61,0,0,1,.1-.42,1.76,1.76,0,0,1,.42-.17c.64-.19,1.29-.38,2-.59s1.33-.4,2-.57,1.35-.32,2-.43a10.16,10.16,0,0,1,2-.19,5.64,5.64,0,0,1,2,.34,4.47,4.47,0,0,1,1.59,1,4.27,4.27,0,0,1,1,1.5,5.09,5.09,0,0,1,.36,2,4.74,4.74,0,0,1-.78,2.74,6.48,6.48,0,0,1-2,1.92,9.32,9.32,0,0,1-2.69,1.12,11.63,11.63,0,0,1-2.87.36,2.23,2.23,0,0,0-.36,0,.5.5,0,0,1-.33-.15A3.73,3.73,0,0,1,60,40.32Z"/><path d="M79.94,38a.57.57,0,0,1,.31-.1A3.39,3.39,0,0,1,81,38a4.79,4.79,0,0,0,.78.08A1.44,1.44,0,0,0,83,37.51a3.5,3.5,0,0,0,.61-1.37,7.81,7.81,0,0,0,.23-1.62c0-.56,0-1,0-1.4v-.21c0-.12,0-.23,0-.34V32a.78.78,0,0,0-.21-.57,1.37,1.37,0,0,0-.48-.29,2,2,0,0,0-.57-.13,2.93,2.93,0,0,0-.57,0h-.26a.59.59,0,0,0-.19,0l-.52.51c0,.08,0,.21-.11.42a6.17,6.17,0,0,0-.19.65c-.06.23-.13.45-.19.66s-.1.34-.13.42-.1.36-.21.67-.21.6-.31.93-.21.62-.32.91-.15.46-.17.53a6.47,6.47,0,0,0-.3,1c-.14.44-.31.89-.5,1.35A6.7,6.7,0,0,1,78,40.21a1,1,0,0,1-.8.53,2.34,2.34,0,0,1-.48-.08,4.3,4.3,0,0,1-.77-.25,4.12,4.12,0,0,1-.73-.34c-.2-.13-.32-.28-.32-.42a1.41,1.41,0,0,1,.13-.34,5.19,5.19,0,0,0,.25-.47l.27-.44a1.48,1.48,0,0,0,.13-.21c.21-.42.48-.91.74-1.42s.55-1.09.8-1.66a16.54,16.54,0,0,0,.63-1.69,5.31,5.31,0,0,0,.24-1.57v-.21a.14.14,0,0,0-.13-.16l-.23,0h-.23a5.47,5.47,0,0,0-1,.08,8.42,8.42,0,0,1-1,.08l-.23,0H75a.84.84,0,0,1-.32-.42,1.67,1.67,0,0,1-.09-.55,3.11,3.11,0,0,1,0-.61c0-.21,0-.38,0-.53a.73.73,0,0,1,.08-.36.38.38,0,0,1,.3-.19c.1,0,.29,0,.54,0l.81,0c.29,0,.55,0,.8,0l.51,0a1.52,1.52,0,0,0,1-.36,1.78,1.78,0,0,0,.44-.74,3.44,3.44,0,0,0,.11-.93v-.93a3.06,3.06,0,0,1,.12-.7.43.43,0,0,1,.43-.27h.59a4.46,4.46,0,0,1,.88,0,3,3,0,0,1,.8.21.55.55,0,0,1,.34.51v.14a2.09,2.09,0,0,0-.08.34c0,.19-.08.4-.11.6s-.08.42-.12.61a3.42,3.42,0,0,1-.07.35v.19a1.44,1.44,0,0,0,.07.36.43.43,0,0,0,.31.21,8.53,8.53,0,0,1,1.46.13,4,4,0,0,1,1.23.4,2.69,2.69,0,0,1,.92.8,3.39,3.39,0,0,1,.57,1.33v1.46c0,.17,0,.3,0,.36,0,.51,0,1.06,0,1.63a13.23,13.23,0,0,1-.16,1.77A8.83,8.83,0,0,1,86,38a4.53,4.53,0,0,1-.72,1.44,3.59,3.59,0,0,1-1.17,1,3.69,3.69,0,0,1-1.73.36,8.11,8.11,0,0,1-1.24-.09,1.63,1.63,0,0,1-.78-.37,1.57,1.57,0,0,1-.4-.77,5.38,5.38,0,0,1-.13-1.32A.35.35,0,0,1,79.94,38Zm7-10.35a2.56,2.56,0,0,1,.64-.33l.72-.21a3.73,3.73,0,0,1,.55-.09c.14,0,.31.13.52.38a7.39,7.39,0,0,1,.66,1,14.33,14.33,0,0,1,.71,1.36c.24.52.45,1,.64,1.49s.34.89.46,1.29a3.08,3.08,0,0,1,.19.89.87.87,0,0,1-.25.57,2.44,2.44,0,0,1-.61.42,3.16,3.16,0,0,1-.68.26L90,34.9h-.18c-.21,0-.4-.19-.58-.53a8.85,8.85,0,0,1-.47-1.23c-.13-.48-.27-1-.42-1.45a6.42,6.42,0,0,0-.38-1.1c0-.09-.11-.26-.23-.51s-.24-.5-.38-.76-.26-.51-.38-.76-.2-.4-.26-.5S86.73,27.8,86.92,27.67Z"/><path d="M96.34,29.58c.13-1.32.29-2.67.46-4.06a1,1,0,0,1,.09-.21.83.83,0,0,1,.15-.17h.46c.11,0,.3,0,.55,0a5.15,5.15,0,0,1,.78,0,2.41,2.41,0,0,1,.7.15.43.43,0,0,1,.31.42,8.6,8.6,0,0,1-.17,1.67c-.1.55-.23,1.12-.35,1.69s-.24,1.14-.36,1.71a11,11,0,0,0-.15,1.71v.91c0,.12,0,.19,0,.23a.13.13,0,0,0,.1.12h.15a.25.25,0,0,0,.24-.13l.18-.26c0-.12.13-.19.18-.29A.34.34,0,0,1,100,33a1.06,1.06,0,0,1,.59.31.68.68,0,0,1,.3.55,6.23,6.23,0,0,1-.17,1.48c-.11.49-.25,1-.4,1.5s-.3,1-.43,1.5a6.68,6.68,0,0,0-.27,1.5,1.26,1.26,0,0,1-.4.33,2.35,2.35,0,0,1-.47.15,4.56,4.56,0,0,1-.54,0h-.51c-.23,0-.42-.15-.59-.44a5,5,0,0,1-.42-1.1,12,12,0,0,1-.26-1.5c-.08-.53-.12-1-.15-1.56s-.06-.93-.08-1.31,0-.65,0-.78C96.15,32.28,96.21,30.91,96.34,29.58Zm7,9.54c.23-.23.51-.49.82-.76l.89-.83a3.42,3.42,0,0,0,.61-.73,5.45,5.45,0,0,0,.63-1.95,16,16,0,0,0,.13-2v-.94a.42.42,0,0,0-.38-.39c-.13,0-.36,0-.69,0l-1,0-1,0c-.32,0-.55,0-.66,0a1.24,1.24,0,0,1-.25,0l-.3-.07a.79.79,0,0,1-.25-.15.38.38,0,0,1-.09-.27V29.07s0-.05,0-.11a.85.85,0,0,1,.1-.14s0-.05.06-.07l0-.06h3.94a.36.36,0,0,0,.26-.09,1,1,0,0,0,.15-.23,1.38,1.38,0,0,0,.08-.27,1.23,1.23,0,0,0,0-.26c0-.38,0-.78-.06-1.18a8.82,8.82,0,0,1-.07-1.16.71.71,0,0,1,.09-.32.31.31,0,0,1,.29-.15h2.14a.43.43,0,0,1,.27.11.38.38,0,0,1,.11.27v2.65a.43.43,0,0,0,.14.25.44.44,0,0,0,.24.14h2.17v2.39c0,.19-.12.3-.38.32s-.53,0-.84.06a7.48,7.48,0,0,0-.87.07.51.51,0,0,0-.46.44c0,.93,0,1.81-.13,2.64a13.28,13.28,0,0,1-.44,2.34,10.43,10.43,0,0,1-.93,2.15,8.71,8.71,0,0,1-1.65,2,5,5,0,0,1-.42.32.68.68,0,0,1-.47.19,1.5,1.5,0,0,1-.65-.17,4.19,4.19,0,0,1-.7-.42,3.91,3.91,0,0,1-.59-.55,1,1,0,0,1-.23-.57C103,39.54,103.1,39.37,103.35,39.12Z"/><path d="M117.83,33.5h-.15a1.52,1.52,0,0,1-.29,0,.57.57,0,0,1-.26-.08.33.33,0,0,1-.19-.15l-1-2v-.5a8,8,0,0,0,.53-.77c.25-.38.52-.8.82-1.28s.63-1,1-1.5.63-1,.91-1.42.51-.8.7-1.09a2.06,2.06,0,0,1,.31-.41h.11a.15.15,0,0,1,.1,0l.3.07c.13.06.31.1.46.15l.47.17a1,1,0,0,0,.29.1c.11.06.19.11.22.19a.82.82,0,0,1,0,.25A2.34,2.34,0,0,1,122,26a5.3,5.3,0,0,1-.42.95c-.15.32-.32.61-.47.9a7.71,7.71,0,0,0-.38.68v12.8a.44.44,0,0,1-.08.1,1.74,1.74,0,0,0-.11.15,1,1,0,0,1-.19.15.3.3,0,0,1-.19.1h-1.65l-.1-.06-.15-.06-.13-.07-.06-.06V33.88ZM125,30.27c-.18.32-.36.66-.53,1a7.9,7.9,0,0,1-.55,1,.84.84,0,0,1-.72.46.57.57,0,0,1-.27-.06,1,1,0,0,1-.24-.21c-.1-.07-.19-.19-.33-.3s-.26-.25-.38-.38a3,3,0,0,0-.3-.31c-.08-.09-.13-.13-.13-.15v-.51c.13-.17.3-.44.53-.82s.47-.8.74-1.29l.84-1.48c.28-.52.55-1,.79-1.43s.46-.81.65-1.1.3-.43.38-.45l.32,0,.63.14a3.22,3.22,0,0,1,.64.22c.21.12.37.23.42.37v0a.15.15,0,0,1,0,.08,1.49,1.49,0,0,1-.19.72,1.51,1.51,0,0,0-.21.74,1.17,1.17,0,0,0,0,.21c0,.12,0,.17.12.17h6.21a.32.32,0,0,1,.09.08.57.57,0,0,0,.16.11s.05,0,.07.08.06,0,.06.05v1.91l-.27.3h-4.29s-.06,0-.12.07a1,1,0,0,1-.15.12s0,.06-.07.09l0,0V31s0,0,0,.08.05.06.07.06a1,1,0,0,0,.23.11.55.55,0,0,0,.15.07h3.93v2l-.24.32h-3.69l-.15.08a1,1,0,0,0-.23.11.22.22,0,0,1-.07.06.25.25,0,0,1,0,.06v1.27a.25.25,0,0,1,0,.06s.05.06.07.07a1,1,0,0,1,.15.12c.06.06.1.07.12.07h4l.25.31v1.78l-.25.31h-4l-.13.09a.5.5,0,0,0-.14.1s0,0-.09.06-.08.07-.1.07v3.17l-.05.1-.14.15a.55.55,0,0,1-.13.15.59.59,0,0,0-.11.1h-1.9a.63.63,0,0,1-.27-.14c-.11-.09-.17-.17-.17-.24V30c0-.05-.06-.11-.15-.13l-.19,0A.81.81,0,0,0,125,30.27Z"/><path d="M142.28,39c0-.07,0-.11.12-.13a15.27,15.27,0,0,0,2.56-.76,6.84,6.84,0,0,0,2-1.24A5.09,5.09,0,0,0,148.38,35a6.39,6.39,0,0,0,.48-2.6,9.93,9.93,0,0,0-.08-1.27,4.27,4.27,0,0,0-.32-1.31,3.11,3.11,0,0,0-.72-1.07,1.81,1.81,0,0,0-1.22-.42,2.78,2.78,0,0,0-1.42.36,3.93,3.93,0,0,0-1.07,1,5.74,5.74,0,0,0-.76,1.35,8.07,8.07,0,0,0-.47,1.54,10.83,10.83,0,0,0-.23,1.54,7.86,7.86,0,0,0,0,1.35.47.47,0,0,1-.27.4,2,2,0,0,1-.57.15,3.21,3.21,0,0,1-.62,0c-.19,0-.36,0-.5,0a.65.65,0,0,1-.66-.38,2.38,2.38,0,0,1-.25-.91,6.16,6.16,0,0,1,0-1,7.16,7.16,0,0,0,.06-.81,34.29,34.29,0,0,1,.19-3.82c.15-1.25.28-2.51.43-3.8l.23-.21c.12-.11.21-.17.29-.17l1.9.13A.48.48,0,0,1,143,25a.39.39,0,0,1,.12.24,5.65,5.65,0,0,0-.21.88,4.26,4.26,0,0,0-.06.78v.2a1.06,1.06,0,0,1,0,.17s0,0,0,.08l.07,0a1.55,1.55,0,0,0,.71-.27c.26-.17.57-.36.91-.55a7.08,7.08,0,0,1,1.1-.57,3.35,3.35,0,0,1,1.27-.26,3.9,3.9,0,0,1,2.28.62A4.68,4.68,0,0,1,150.76,28a8,8,0,0,1,.79,2.18,11.5,11.5,0,0,1,.23,2.3,9.59,9.59,0,0,1-2.18,6,8.63,8.63,0,0,1-2.51,2,6.86,6.86,0,0,1-3.19.76,1.07,1.07,0,0,1-.57-.25,2.77,2.77,0,0,1-.53-.55,3,3,0,0,1-.38-.7,1.72,1.72,0,0,1-.16-.61C142.26,39.08,142.28,39,142.28,39Z"/><path d="M159.1,33.55c0-.55,0-1.17.07-1.88s.08-1.42.14-2.16.15-1.41.26-2A7.89,7.89,0,0,1,160,26c.17-.39.4-.58.67-.58l.57,0a4.09,4.09,0,0,1,.7,0,1.7,1.7,0,0,1,.59.15.47.47,0,0,1,.26.44,9.77,9.77,0,0,1-.17,1.84c-.13.61-.26,1.22-.4,1.84s-.28,1.22-.4,1.82a9.13,9.13,0,0,0-.19,1.87,1.54,1.54,0,0,0,0,.3.19.19,0,0,0,.21.13.37.37,0,0,0,.32-.13.42.42,0,0,1,.33-.13.81.81,0,0,1,.28.09,1.79,1.79,0,0,1,.34.19,2.62,2.62,0,0,1,.29.27.47.47,0,0,1,.09.21v.38c-.07.28-.17.59-.26,1s-.21.7-.33,1.08-.18.76-.28,1.12-.19.72-.27,1a10.67,10.67,0,0,0-.19,1.1,1.23,1.23,0,0,1-.17.61.61.61,0,0,1-.49.26,9,9,0,0,1-1.25.06.75.75,0,0,1-.71-.47,4.65,4.65,0,0,1-.36-1.09,8.65,8.65,0,0,1-.11-1.23V36.18c0-.25,0-.5,0-.76V33.55Zm5.56,3.08a5.17,5.17,0,0,1,.06-.76,2.93,2.93,0,0,1,.15-.68c.06-.19.17-.29.33-.29h1.65c.19,0,.3.06.34.19a2.75,2.75,0,0,1,.08.5,4.72,4.72,0,0,0,0,.64,1.35,1.35,0,0,0,.29.65,2,2,0,0,0,.82.48,4.31,4.31,0,0,0,1.55.2,11.89,11.89,0,0,0,1.9-.13,13.79,13.79,0,0,1,1.9-.13,2.19,2.19,0,0,1,.33,0,.21.21,0,0,1,.21.24v2.15c0,.19-.12.3-.37.4a2.41,2.41,0,0,1-.79.17,6.38,6.38,0,0,1-.84.06h-.64a4.27,4.27,0,0,1-.52,0h-1c-.57,0-1.18,0-1.83-.1a5.48,5.48,0,0,1-1.74-.42,3.28,3.28,0,0,1-1.33-1,2.61,2.61,0,0,1-.54-1.76C164.68,37.05,164.66,36.88,164.66,36.63Zm9-9.59v2.28a.42.42,0,0,1-.1.07,1.2,1.2,0,0,1-.17.06,1.87,1.87,0,0,1-.4.1l-.36,0h-6.19a1.86,1.86,0,0,1-.34-.06,1.3,1.3,0,0,1-.29-.15.36.36,0,0,1-.13-.29v-1.9a.32.32,0,0,1,.13-.24.3.3,0,0,1,.25-.14h7.33Z"/><path d="M186.06,36.86a2.11,2.11,0,0,1,1.5-.57,2,2,0,0,1,.78.15,2.61,2.61,0,0,1,.68.38,1.89,1.89,0,0,1,.46.61,2.05,2.05,0,0,1-.42,2.26,2.13,2.13,0,0,1-1.5.53,2.39,2.39,0,0,1-1.5-.49,1.73,1.73,0,0,1-.61-1.43A1.8,1.8,0,0,1,186.06,36.86Zm-.25-6.27a33.49,33.49,0,0,1-.23-3.87v-.19a.51.51,0,0,1,0-.25.33.33,0,0,1,.12-.17A.27.27,0,0,1,186,26h3.18a.26.26,0,0,1,.24.12.55.55,0,0,1,.12.24,1.72,1.72,0,0,1,0,.31v.23a32.21,32.21,0,0,1-.25,3.81c-.17,1.28-.34,2.53-.51,3.78,0,.1-.12.19-.19.33a.42.42,0,0,1-.33.17h-1.38a.4.4,0,0,1-.36-.23,1.39,1.39,0,0,1-.16-.4C186.15,33.14,186,31.87,185.81,30.59Z"/><path d="M22.45,35.77Q15.67,26.18,8.29,17.05c-.78-1-3.55.14-2.66,1.24Q13,27.42,19.79,37c.72,1,3.49-.07,2.66-1.25Z"/><path d="M1.72,9.16h0L2.09,9,2,9.05,2.41,9H2.35l.37,0H2.65L3,9h-.1L3.13,9,3,9l.19.12a.67.67,0,0,1-.24-.26L3,9a.87.87,0,0,1-.13-.44v.19A.64.64,0,0,1,3,8.51l-.1.2a.44.44,0,0,1,.08-.11l-.19.2a.6.6,0,0,1,.08-.08.62.62,0,0,0,.24-.29.33.33,0,0,0,.06-.3.34.34,0,0,0-.2-.22.64.64,0,0,0-.35-.14l-.33,0a2.78,2.78,0,0,0-.75.11L1.11,8a2.36,2.36,0,0,0-.59.35,1.39,1.39,0,0,0-.32.32,1.38,1.38,0,0,0-.14.27S0,9,0,9a1.16,1.16,0,0,0,0,.37.57.57,0,0,0,0,.18.56.56,0,0,0,.07.18A1.55,1.55,0,0,0,.3,10a.53.53,0,0,0,.13.13,1.73,1.73,0,0,0,.34.21,2.18,2.18,0,0,0,.76.14l.4,0H2a3.64,3.64,0,0,0,.86-.23A1.58,1.58,0,0,0,3.3,10a1,1,0,0,0,.32-.29.36.36,0,0,0,.11-.3.28.28,0,0,0-.1-.26L3.44,9a1.45,1.45,0,0,0-.58-.1L2.49,9a3.52,3.52,0,0,0-.77.21Z"/><path d="M226.79,8.56,208.92,30.34c-.43.52.37.68.74.69a2.74,2.74,0,0,0,1.93-.75L229.45,8.51c.43-.53-.37-.69-.74-.69a2.66,2.66,0,0,0-1.92.74Z"/><path d="M204.57,35.88,203.46,37l-.16.15a.29.29,0,0,0-.12.24c0,.08,0,.14.08.2a.57.57,0,0,0,.31.1,1.29,1.29,0,0,0,.44,0,4,4,0,0,0,1.13-.25,2.31,2.31,0,0,0,.8-.47l1.11-1.07.16-.16a.28.28,0,0,0,.12-.23.17.17,0,0,0-.08-.2.58.58,0,0,0-.31-.11,1.29,1.29,0,0,0-.44,0,3.68,3.68,0,0,0-1.13.24,2.38,2.38,0,0,0-.8.47Z"/></svg>