<svg id="レイヤー_1" data-name="レイヤー 1" xmlns="http://www.w3.org/2000/svg" viewBox="0 0 232.58 29.94"><path d="M22.45,28Q15.67,18.45,8.29,9.3c-.78-1-3.55.15-2.66,1.25Q13,19.69,19.79,29.28c.72,1,3.49-.08,2.66-1.25Z"/><path d="M1.72,1.41h0l.38-.13L2,1.31l.39-.08H2.35l.37,0a.08.08,0,0,1-.07,0l.32,0-.1,0,.26.08L3,1.23l.19.12a.85.85,0,0,1-.24-.26l.1.17A.9.9,0,0,1,2.9.81V1A.6.6,0,0,1,3,.77l-.1.2A.44.44,0,0,1,2.93.86l-.19.19L2.82,1a.64.64,0,0,0,.24-.3A.3.3,0,0,0,3.12.39a.35.35,0,0,0-.2-.23A.63.63,0,0,0,2.57,0L2.24,0a3.22,3.22,0,0,0-.75.1L1.11.23A2.36,2.36,0,0,0,.52.58,1.39,1.39,0,0,0,.2.9a1.38,1.38,0,0,0-.14.27.19.19,0,0,0,0,.08,1.12,1.12,0,0,0,0,.36A.58.58,0,0,0,0,1.8.67.67,0,0,0,.1,2a1.55,1.55,0,0,0,.2.32.8.8,0,0,0,.13.13,1.73,1.73,0,0,0,.34.21,2.17,2.17,0,0,0,.76.13,2.68,2.68,0,0,0,.4,0H2a3.64,3.64,0,0,0,.86-.23,1.58,1.58,0,0,0,.46-.25A1.11,1.11,0,0,0,3.62,2a.36.36,0,0,0,.11-.3.27.27,0,0,0-.1-.26l-.19-.12a1.46,1.46,0,0,0-.58-.11l-.37,0a3.49,3.49,0,0,0-.77.2Z"/><path d="M29.52,20c.23-.12.52-.25.81-.37s.61-.27.9-.4a2.65,2.65,0,0,0,.57-.31,4.2,4.2,0,0,0,1-1.24,5.83,5.83,0,0,0,.43-1.11c.09-.35.16-.67.22-.94a1.34,1.34,0,0,1,.3-.67.56.56,0,0,1,.13-.09l.12,0h1.91l.25.12v.2a2.19,2.19,0,0,1,0,.33,7,7,0,0,1-.41,2.26,7.78,7.78,0,0,1-1.14,2.15,6.1,6.1,0,0,1-1.74,1.62,4.19,4.19,0,0,1-2.27.64.71.71,0,0,1-.47-.23,2.85,2.85,0,0,1-.47-.54,6.21,6.21,0,0,1-.34-.61,1.49,1.49,0,0,1-.14-.49C29.16,20.17,29.28,20.06,29.52,20Zm11.79-6.14-.14,0-1.08,0L38.21,14l-2.27.11-2.28.1c-.72,0-1.35.08-1.87.09s-.9,0-1.07,0h-.07a.46.46,0,0,1-.23-.07.59.59,0,0,1-.18-.16c-.06-.33-.09-.6-.11-.81s0-.49,0-.78v-.2a1.14,1.14,0,0,1,.06-.25.35.35,0,0,1,.1-.21.22.22,0,0,1,.2-.09h2.05a.55.55,0,0,0,.42-.24,2,2,0,0,0,.34-.54,2.84,2.84,0,0,0,.23-.63,2.12,2.12,0,0,0,.09-.47,1.21,1.21,0,0,0,0-.25.21.21,0,0,0-.22-.16H30s-.05,0-.11-.07l-.14-.11s-.07-.07-.14-.13S29.52,9,29.52,9V7.46a.4.4,0,0,1,.12-.25c.11-.11.18-.17.24-.17h5.76A.31.31,0,0,0,36,6.77a4.78,4.78,0,0,0,.07-.59c0-.22,0-.41.07-.61a.33.33,0,0,1,.36-.27h1.68a.3.3,0,0,1,.18.09.58.58,0,0,1,.18.16,4.3,4.3,0,0,0,0,.61,1.32,1.32,0,0,0,.18.58s.09.11.15.2S39,7,39,7h5.87a.36.36,0,0,1,.1.11l.15.2s0,.05,0,.13l.06.1V8.9a.48.48,0,0,1-.09.2.78.78,0,0,1-.15.16.85.85,0,0,1-.14.11l-.09.07H42l-.05.07a.54.54,0,0,0,0,.11s0,0,0,.07,0,.05,0,.05a.2.2,0,0,0,0,.13A.61.61,0,0,0,42,10c.15.16.38.38.69.67s.61.57.92.9a8.14,8.14,0,0,1,.86,1,3,3,0,0,1,.54.93v.06a.78.78,0,0,1-.2.5,1.82,1.82,0,0,1-.52.41,2.89,2.89,0,0,1-.63.26,2,2,0,0,1-.58.1h-.23c-.23-.26-.43-.47-.59-.67a1,1,0,0,0-.76-.31Zm-5.08-2.26h2l.53,0,.65-.09c.07,0,.1-.05.12-.11v-.18a.49.49,0,0,0-.12-.36.57.57,0,0,1-.13-.38v-.05s0-.05.09-.11l.16-.18.15-.2s.07-.09.09-.11V9.62l-.06-.07s-.05,0-.07,0H37s-.07,0-.16.14l-.2.22a1,1,0,0,1-.12.22c-.06.12-.11.23-.18.36a4,4,0,0,0-.18.36c-.06.12-.09.2-.11.25a.3.3,0,0,0,0,.13A.4.4,0,0,0,36.23,11.55ZM43,19.67a1,1,0,0,0,.41-.45,2.77,2.77,0,0,0,.17-.58c0-.22,0-.41,0-.59a2,2,0,0,1,.09-.45.22.22,0,0,1,.24-.18,2,2,0,0,1,.55.09,2.69,2.69,0,0,1,.62.25,1.92,1.92,0,0,1,.5.39.79.79,0,0,1,.2.53,8.58,8.58,0,0,1-.09,1,4.85,4.85,0,0,1-.31,1.13,2.65,2.65,0,0,1-.59.92,1.22,1.22,0,0,1-.94.39H40.19a1.18,1.18,0,0,1-.73-.23,2.28,2.28,0,0,1-.53-.58,2.31,2.31,0,0,1-.32-.73,4.36,4.36,0,0,1-.09-.74V15s0-.11.2-.2a.53.53,0,0,1,.29-.16h1.54l.11,0a.54.54,0,0,1,.15.09.15.15,0,0,1,.1.05c.06,0,.08.06.08.07v4.32a.36.36,0,0,0,.16.33,1,1,0,0,0,.36.2l.41.07a2.33,2.33,0,0,0,.33,0A1.42,1.42,0,0,0,43,19.67Z"/><path d="M56.88,19a13.54,13.54,0,0,1-1.3,1.08,11.35,11.35,0,0,1-1.51,1,10.13,10.13,0,0,1-1.64.74,4.83,4.83,0,0,1-1.64.3.64.64,0,0,1-.39-.19,3.7,3.7,0,0,1-.42-.45c-.12-.17-.25-.33-.34-.49s-.16-.27-.2-.31,0-.12,0-.18.1-.27.32-.37a4.34,4.34,0,0,1,.79-.31l1.06-.31c.36-.09.72-.21,1-.32a4.14,4.14,0,0,0,.79-.4.6.6,0,0,0,.32-.5s0-.09,0-.18-.06-.13-.11-.13h-4s0,0,0-.07,0-.09-.09-.11a.6.6,0,0,0,0-.14.24.24,0,0,1-.06-.11V16.23a.6.6,0,0,1,.13-.25c.09-.11.16-.17.23-.17h5.64s0,0,.05-.07a.72.72,0,0,1,.07-.11l.08-.14c0-.05,0-.09,0-.11s0,0,0-.05,0-.06,0-.06a.51.51,0,0,0-.12-.18c-.06-.07-.09-.12-.11-.12H52a.51.51,0,0,1-.3-.13.34.34,0,0,1-.18-.29V13.22a.14.14,0,0,0,0-.05l.09-.06a.52.52,0,0,1,.15-.11.39.39,0,0,1,.09-.07h3.6c.11,0,.16,0,.2-.16a1.12,1.12,0,0,0,0-.27.85.85,0,0,0,0-.25c0-.11-.09-.16-.2-.16H51.6a.29.29,0,0,1-.25-.17,2.42,2.42,0,0,0-.2-.39,1.92,1.92,0,0,0-.41-.47,1.89,1.89,0,0,0-.83-.36l-.11,0s-.11-.05-.12-.07a.18.18,0,0,1-.08-.05l-.05-.07V6.81h5.76a.34.34,0,0,0,.36-.22,1.69,1.69,0,0,0,.13-.48,4.11,4.11,0,0,1,.11-.47.25.25,0,0,1,.25-.22h2a.24.24,0,0,1,.25.22,4.39,4.39,0,0,1,.09.47,2.09,2.09,0,0,0,.13.48.36.36,0,0,0,.38.22H64.8v3.66a.2.2,0,0,1-.18.21,2,2,0,0,1-.39.09l-.46.07a.36.36,0,0,0-.28.22.3.3,0,0,0-.06.22,1.63,1.63,0,0,1-.07.36.88.88,0,0,1-.13.3.22.22,0,0,1-.23.15H58.68a.21.21,0,0,0-.2.16.62.62,0,0,0,0,.25.78.78,0,0,0,0,.27.21.21,0,0,0,.2.16h3.84a.24.24,0,0,1,.1.07l.15.11s0,0,.07.06,0,.05,0,.05v1.44s0,0,0,.05-.07.06-.07.08a.64.64,0,0,0-.22.11.33.33,0,0,1-.14.07H58.55c-.07,0-.11.07-.11.19s0,.2,0,.22,0,.11,0,.23,0,.2.11.2h6.13l.35.42v1.31a.19.19,0,0,1,0,.11.6.6,0,0,0,0,.14s-.06.06-.09.11,0,.07,0,.07H60.35a.19.19,0,0,0-.19.11.35.35,0,0,0-.06.18.69.69,0,0,0,.36.56,4,4,0,0,0,.9.43,8,8,0,0,0,1.16.33l1.15.25c.36.09.64.2.9.29s.36.19.36.3v.13c-.09.14-.18.3-.27.47a2.65,2.65,0,0,1-.29.52A3.58,3.58,0,0,1,64,22a1.1,1.1,0,0,1-.5.23,11.27,11.27,0,0,1-3.41-1.08A10.1,10.1,0,0,1,57.24,19ZM52,9.78a.28.28,0,0,0,.3.2h3.12a.23.23,0,0,0,.16-.07c0-.06.13-.13.18-.2l.16-.23A1.46,1.46,0,0,0,56,9.26a.09.09,0,0,0,0-.06.08.08,0,0,0,0,0A.08.08,0,0,0,56,9.08a.17.17,0,0,0,0-.06,2.75,2.75,0,0,0-1-.14l-1,0H52.56a1.45,1.45,0,0,0-.42.16.47.47,0,0,0-.2.38A1.19,1.19,0,0,0,52,9.78Zm6.07-.52a.38.38,0,0,0,.09.16.92.92,0,0,0,.17.25,1.52,1.52,0,0,0,.18.22c.08,0,.11.09.15.09h3.24a.31.31,0,0,0,.27-.16.82.82,0,0,0,.09-.31.47.47,0,0,0-.18-.43,1.7,1.7,0,0,0-.41-.18h-3a1.47,1.47,0,0,0-.27,0l-.23.1a.17.17,0,0,0-.11.16S58.07,9.26,58.09,9.26Z"/><path d="M77.06,19.07a6.4,6.4,0,0,0,1-.38c.38-.16.79-.36,1.26-.61a4.76,4.76,0,0,0,1.24-.92,4.83,4.83,0,0,0,1-1.27,3.92,3.92,0,0,0,.38-1.75,6.21,6.21,0,0,0-.17-1.33,4.58,4.58,0,0,0-.52-1.39,3.62,3.62,0,0,0-.88-1.12A2,2,0,0,0,79,9.85c-.16,0-.34.25-.48.78s-.35,1.15-.54,1.91-.44,1.6-.71,2.48a15.16,15.16,0,0,1-1,2.5,6.56,6.56,0,0,1-1.43,1.93,2.85,2.85,0,0,1-2,.76,2.93,2.93,0,0,1-1.74-.51A4.48,4.48,0,0,1,70,18.41a6,6,0,0,1-.66-1.72,8.67,8.67,0,0,1-.2-1.78,7.15,7.15,0,0,1,.67-3.15,8,8,0,0,1,1.81-2.43,8.94,8.94,0,0,1,2.65-1.57,9.07,9.07,0,0,1,3.17-.55,7.85,7.85,0,0,1,2.86.5,7.37,7.37,0,0,1,2.33,1.42,6.55,6.55,0,0,1,1.56,2.22,7.08,7.08,0,0,1,.58,2.9,7,7,0,0,1-.49,2.54,7.74,7.74,0,0,1-1.33,2.26,7.16,7.16,0,0,1-2,1.61,5.35,5.35,0,0,1-2.55.63.82.82,0,0,1-.52-.24,3.29,3.29,0,0,1-.54-.52,3.4,3.4,0,0,1-.42-.67,1.27,1.27,0,0,1-.16-.57C76.68,19.23,76.81,19.16,77.06,19.07Zm-5.28-3.78a3.28,3.28,0,0,0,.15.77,1.8,1.8,0,0,0,.34.63.81.81,0,0,0,.63.26,1,1,0,0,0,.74-.42,4.47,4.47,0,0,0,.64-1,12.18,12.18,0,0,0,.54-1.41,15.27,15.27,0,0,0,.42-1.49c.12-.49.21-.94.27-1.33a8.75,8.75,0,0,0,.09-.89.61.61,0,0,0-.06-.34c0-.05-.14-.07-.32-.07a2.25,2.25,0,0,0-1.39.49,4.34,4.34,0,0,0-1.09,1.2A6.1,6.1,0,0,0,72,13.2a4.69,4.69,0,0,0-.27,1.46C71.75,14.82,71.76,15,71.78,15.29Z"/><path d="M99.85,20.19l.1-.13a2.38,2.38,0,0,0,1.75-.66,3.13,3.13,0,0,0,.68-1.52,9.14,9.14,0,0,0,.08-2,17.77,17.77,0,0,1-.09-2v-2c-.06-.15-.13-.24-.24-.24a1.27,1.27,0,0,0-.28,0,.82.82,0,0,0-.38.06.71.71,0,0,0-.18.32c-.08.74-.17,1.51-.26,2.32a22.92,22.92,0,0,1-.39,2.44,12.4,12.4,0,0,1-.74,2.28,7.3,7.3,0,0,1-1.26,2l-.29.29a4.08,4.08,0,0,1-.36.36c-.11.13-.22.24-.29.31s-.12.12-.14.12H97.2a1.42,1.42,0,0,1-.16-.17c-.09-.08-.17-.17-.26-.26a1.48,1.48,0,0,0-.25-.25,1,1,0,0,0-.18-.16.21.21,0,0,0-.1-.06l-.13-.07H95.4c-.52,0-1.06,0-1.59.07l-1.56.17c-.52.07-1,.12-1.59.18s-1,.07-1.58.07a.58.58,0,0,1-.4-.15.67.67,0,0,1-.18-.32,2.1,2.1,0,0,1,0-.43,3.17,3.17,0,0,1,0-.42v-.48a1.78,1.78,0,0,1,.59-.22c.27,0,.56-.07.87-.09l.83,0c.25,0,.41,0,.48,0l.33-.18a.37.37,0,0,0,.16-.31,1.12,1.12,0,0,0,0-.27.21.21,0,0,0-.2-.14H89.15a.28.28,0,0,1-.22-.11.77.77,0,0,1-.1-.23.68.68,0,0,1,0-.29v-.38a1.62,1.62,0,0,1,0-.29A.85.85,0,0,1,88.9,17c0-.07.07-.11.14-.11H91.2a.24.24,0,0,0,.22-.09.78.78,0,0,0,0-.21.73.73,0,0,0,0-.18c0-.09-.06-.13-.13-.13h-2a.39.39,0,0,1-.09-.07A.48.48,0,0,1,89,16.1L89,16.05l0-.06V11s0,0,0-.07l.07-.05.15-.11a.2.2,0,0,1,.09-.07h2c.07,0,.11,0,.13-.13a.73.73,0,0,0,0-.18.59.59,0,0,0,0-.2.27.27,0,0,0-.22-.09H88.68a.15.15,0,0,1-.14-.12.89.89,0,0,1-.07-.28,1.65,1.65,0,0,1,0-.3V9.2a.91.91,0,0,1,.14-.52,1.19,1.19,0,0,1,.29-.3l.31-.17c.09,0,.12-.07.12-.09a.68.68,0,0,0-.09-.32c-.07-.13-.14-.23-.23-.38L88.76,7a1,1,0,0,1-.1-.41c0-.25.19-.43.56-.54a5.48,5.48,0,0,1,1.32-.2c.5,0,1,0,1.53,0a8.67,8.67,0,0,0,1.17-.06l.5-.07.76-.11.76-.1.5-.08a.94.94,0,0,1,.41.18,2.55,2.55,0,0,1,.35.38c.08.15.17.29.25.45a1.38,1.38,0,0,1,.09.43.4.4,0,0,1-.2.36,1.71,1.71,0,0,1-.51.15,5.78,5.78,0,0,1-.63,0,3.28,3.28,0,0,0-.63,0,2,2,0,0,0-.5.14.38.38,0,0,0-.2.36.65.65,0,0,0,.06.26.19.19,0,0,0,.19.16H97a.32.32,0,0,1,.23.14c.07.09.14.2.23.33a1.93,1.93,0,0,0,.27.3.62.62,0,0,0,.4.15.87.87,0,0,0,.2,0l.29-.06a.83.83,0,0,0,.25-.12A.21.21,0,0,0,99,8.9V6c0-.06,0-.13.16-.22s.18-.14.25-.14h1.57s0,0,.09,0l.14.09s0,0,.11.06.07,0,.07.07v3a.5.5,0,0,1,.11.09l.2.16.14.11.09.07h2.76l.12.18v.27c0,.18,0,.38,0,.61v4.29c0,.43,0,.88,0,1.33s-.06,1-.09,1.66-.11,1.24-.18,1.8a4.48,4.48,0,0,1-.49,1.46,2.5,2.5,0,0,1-1,.95,3.9,3.9,0,0,1-1.78.36h-.29a1.17,1.17,0,0,1-.2,0l-.36-.36ZM91.2,8.31l.24-.24c0-.11-.09-.14-.22-.14h-.57a3.54,3.54,0,0,0-.46,0,2.45,2.45,0,0,0-.39,0c-.11,0-.16,0-.16.07v.11ZM91,12.54c0,.14.09.21.22.21a.41.41,0,0,0,.21-.05.21.21,0,0,0,.09-.18c0-.16,0-.24-.16-.25a2,2,0,0,0-.36,0Zm0,1.87v.3a2,2,0,0,0,.36,0c.11,0,.16-.11.16-.27a.2.2,0,0,0-.09-.18.33.33,0,0,0-.21-.06C91.13,14.17,91.06,14.26,91,14.41Zm3.33,4.73a.76.76,0,0,0,.29.09h.45a5,5,0,0,0,.67,0,4.13,4.13,0,0,0,.65-.15.72.72,0,0,0,.41-.32l-.24-.13H94.44l-.1.09a.92.92,0,0,0-.15.16v.06Q94.19,19.06,94.37,19.14Zm-.09-6.57a.25.25,0,0,0,.27.18c.13,0,.18,0,.22-.07a.35.35,0,0,0,0-.16c0-.16-.07-.25-.19-.27a2.24,2.24,0,0,0-.38,0A1.74,1.74,0,0,0,94.28,12.57Zm0,1.84c0,.14,0,.25,0,.3a1.72,1.72,0,0,0,.34,0c.13,0,.18-.11.18-.27a.2.2,0,0,0-.09-.18.33.33,0,0,0-.21-.06C94.37,14.17,94.3,14.26,94.3,14.41ZM97.2,11s0,0,.07,0a.12.12,0,0,0,.06-.07v-.24a.63.63,0,0,0-.08-.32A.28.28,0,0,0,97,10.1H94.68a.34.34,0,0,0-.18.09.77.77,0,0,0-.18.15l.23.31h2.16Zm-2.88,5.64a.17.17,0,0,1,.05.05s.06.05.07.07l.15.11a.2.2,0,0,0,.09.07h2.16a.22.22,0,0,1,.22.17,2.88,2.88,0,0,1,.07.36,1.31,1.31,0,0,0,.09.34.2.2,0,0,0,.21.16c.15,0,.29-.13.42-.38a4.62,4.62,0,0,0,.36-.95c.11-.38.2-.81.29-1.28s.14-.9.21-1.33.09-.81.13-1.14,0-.57,0-.7a.52.52,0,0,0-.16-.38,1.82,1.82,0,0,0-.41-.27,3.85,3.85,0,0,0-.92-.2.26.26,0,0,0-.16.09,1.28,1.28,0,0,0-.11.2c0,.07,0,.15-.07.2a.43.43,0,0,0,0,.13V16l-.31.29H94.44a.16.16,0,0,0,0,.07,1.15,1.15,0,0,1-.07.11v.13Z"/><path d="M112.44,10.23l.11-.25.58,0H114a2.37,2.37,0,0,0,.83-.24.59.59,0,0,0,.38-.59.81.81,0,0,0-.08-.36.28.28,0,0,0-.3-.22h-6a.3.3,0,0,1-.23-.16.53.53,0,0,1-.13-.27V6.74l0-.09c0-.07,0-.13.07-.15s0,0,0-.09l.08,0h15.71l.26.25V8.18a.82.82,0,0,1,0,.11.31.31,0,0,1-.09.14s0,.05,0,.11a.27.27,0,0,1-.08.07h-6.22c-.17,0-.26.09-.31.27a2,2,0,0,0-.07.4.76.76,0,0,0,.18.43.54.54,0,0,0,.43.22h2.29v8h-8.29Zm-1-.36v8.52l.07.09a.42.42,0,0,0,.11.14.49.49,0,0,0,.16.16.24.24,0,0,0,.2.09h9.23l.11,0,.15-.09s.09-.07.16-.15a.4.4,0,0,0,.12-.09V9.87l.08,0,.11-.08.14-.07.11-.05h1.55l.1.05c.08,0,.11.06.15.07l.07.08,0,0V22s0,0,0,.05l-.07.07a.57.57,0,0,1-.15.06l-.1,0h-1.55a.3.3,0,0,1-.29-.14,2.56,2.56,0,0,1-.16-.33,3.79,3.79,0,0,0-.2-.34.39.39,0,0,0-.33-.14H112a.36.36,0,0,0-.31.14c-.05.11-.12.22-.18.34a2.56,2.56,0,0,1-.16.33.38.38,0,0,1-.31.14h-1.56a.35.35,0,0,1-.26-.12.34.34,0,0,1-.1-.24V10a.42.42,0,0,1,.1-.24.35.35,0,0,1,.26-.12h1.67Zm3.11,3a.37.37,0,0,0,.36.17.56.56,0,0,0,.38-.18.64.64,0,0,0,.18-.36.55.55,0,0,0-.16-.36.36.36,0,0,0-.33-.2c-.19,0-.32,0-.39.14a.77.77,0,0,0-.11.42A.84.84,0,0,0,114.53,12.82Zm0,3A.47.47,0,0,0,115,16a.41.41,0,0,0,.33-.19.55.55,0,0,0,.16-.35.59.59,0,0,0-.16-.38.39.39,0,0,0-.33-.17c-.19,0-.32,0-.39.14a.76.76,0,0,0-.11.41A.64.64,0,0,0,114.57,15.85Zm3.2-3a.54.54,0,0,0,.36.18.48.48,0,0,0,.38-.2.66.66,0,0,0,.16-.4.47.47,0,0,0-.18-.36.49.49,0,0,0-.36-.14.51.51,0,0,0-.36.16.57.57,0,0,0-.18.4A.58.58,0,0,0,117.77,12.81Zm0,3a.47.47,0,0,0,.36.18.58.58,0,0,0,.36-.14.44.44,0,0,0,.18-.36.63.63,0,0,0-.16-.42.42.42,0,0,0-.38-.19.52.52,0,0,0-.36.17.58.58,0,0,0-.18.38A.56.56,0,0,0,117.77,15.83Z"/><path d="M128.85,22.56l.39-.6c.21-.21.54-.54,1-1s1-1,1.56-1.56,1.08-1.08,1.56-1.59.84-.87,1-1.05a14.28,14.28,0,0,0,1.23-1.41c.42-.54.78-1.08,1.14-1.62a8,8,0,0,0,.75-1.74,5.62,5.62,0,0,0,.3-1.86,3.9,3.9,0,0,0-.63-2.31A2.58,2.58,0,0,0,135,6.93a2.08,2.08,0,0,0-1,.27,9.91,9.91,0,0,0-1,.54l-.93.57a1.9,1.9,0,0,1-.87.24.52.52,0,0,1-.21-.09,1.3,1.3,0,0,1-.21-.12,4.52,4.52,0,0,0-.54-.54c-.24-.21-.48-.42-.69-.63s-.39-.42-.54-.57a1.81,1.81,0,0,1-.21-.24V5.94a1.6,1.6,0,0,1,.9-1.29,9.17,9.17,0,0,1,2-1,21.61,21.61,0,0,1,2.31-.57,12,12,0,0,1,1.65-.18,7.84,7.84,0,0,1,2.82.48,6.21,6.21,0,0,1,3.72,3.45,6.81,6.81,0,0,1,.57,2.79,8.5,8.5,0,0,1-.57,3.12,13.78,13.78,0,0,1-1.44,2.61c-.57.81-1.17,1.62-1.83,2.43a18.94,18.94,0,0,0-1.77,2.52,1.78,1.78,0,0,0-.12.24.46.46,0,0,0-.09.18,2.39,2.39,0,0,0,.18.24.33.33,0,0,0,.21.15h6l.42.39v3.6h-15Z"/><path d="M148.2,10.35a11.82,11.82,0,0,1,1.59-3.72A8.51,8.51,0,0,1,152.52,4a7.07,7.07,0,0,1,4-1.05c.39,0,.9,0,1.56.09a11.63,11.63,0,0,1,1.92.42,5.59,5.59,0,0,1,1.65.78,1.62,1.62,0,0,1,.69,1.32v.21a.53.53,0,0,0,0,.18,6.66,6.66,0,0,1-.39.57c-.18.21-.36.45-.54.66a2.9,2.9,0,0,1-.66.57A1.22,1.22,0,0,1,160,8a2.25,2.25,0,0,1-.78-.15l-.78-.36-.78-.36a1.92,1.92,0,0,0-.84-.18,3.47,3.47,0,0,0-1.74.42,3.75,3.75,0,0,0-1.26,1.11A4.68,4.68,0,0,0,153,10a5.11,5.11,0,0,0-.3,1.77v.78a.47.47,0,0,0,.21.21h.21c.39-.21.72-.39,1-.57a5.83,5.83,0,0,1,.9-.39,4.07,4.07,0,0,1,.87-.18,6.16,6.16,0,0,1,1.11-.09,5.92,5.92,0,0,1,2.58.54,5.08,5.08,0,0,1,1.92,1.41,5.7,5.7,0,0,1,1.17,2.13,8.26,8.26,0,0,1,.42,2.64,7.88,7.88,0,0,1-.54,2.94,7.08,7.08,0,0,1-1.44,2.37,7.38,7.38,0,0,1-2.31,1.59,7.11,7.11,0,0,1-2.91.6,6.94,6.94,0,0,1-3.84-1,8.15,8.15,0,0,1-2.55-2.7,12.3,12.3,0,0,1-1.38-3.63,17.9,17.9,0,0,1-.45-3.9A17.33,17.33,0,0,1,148.2,10.35Zm4.68,8.76a4,4,0,0,0,.57,1.32,2.84,2.84,0,0,0,1,1,2.56,2.56,0,0,0,1.38.36,2.49,2.49,0,0,0,1.23-.27,2.08,2.08,0,0,0,.75-.78,4.26,4.26,0,0,0,.42-1.08,6.07,6.07,0,0,0,.12-1.29,4.3,4.3,0,0,0-.57-2.34,2.29,2.29,0,0,0-2.13-.9,3.4,3.4,0,0,0-1.08.18,2.63,2.63,0,0,0-1,.48,1.85,1.85,0,0,0-.66.78,2.05,2.05,0,0,0-.24,1.08A6.35,6.35,0,0,0,152.88,19.11Z"/><path d="M174.78,19.41h-2a.29.29,0,0,1-.32-.21,1.87,1.87,0,0,1-.07-.49,1.84,1.84,0,0,0-.06-.47A.23.23,0,0,0,172,18a.88.88,0,0,0-.61.23c-.16.15-.34.31-.5.49a4.33,4.33,0,0,1-.53.52.94.94,0,0,1-.59.22.75.75,0,0,1-.43-.24,4.45,4.45,0,0,1-.52-.54q-.27-.3-.45-.54c-.13-.18-.2-.27-.22-.27s0-.12,0-.18.13-.3.4-.56.57-.57.95-.92.79-.72,1.25-1.11.88-.83,1.26-1.24a9.88,9.88,0,0,0,1-1.21,2.11,2.11,0,0,0,.38-1.08,2.4,2.4,0,0,0,0-.29.22.22,0,0,0-.22-.18h-4.21l-.23-.3V8.9l.23-.29h5.89l.09-.11.14-.19a.65.65,0,0,0,.11-.15l.07-.09V5.55s0,0,.08,0a.35.35,0,0,1,.1-.08s.07,0,.15-.07l.1,0h1.81a.53.53,0,0,1,.25.14c.1.09.16.16.16.22V8.18a.21.21,0,0,0,0,.11.58.58,0,0,0,.13.14l.14.13.09,0h5.89s.05,0,.09.07a1.26,1.26,0,0,1,.11.17.71.71,0,0,0,.11.17c0,.08.05.11.05.13s0,.16,0,.36v.94a1.28,1.28,0,0,1-.15.5.58.58,0,0,1-.07.11l0,.07h-4.22a.28.28,0,0,0-.23.15.42.42,0,0,0-.13.27,1.79,1.79,0,0,0,.4,1,9.5,9.5,0,0,0,1,1.17A16.36,16.36,0,0,0,182.34,15l1.28,1.11c.4.37.72.65,1,.89s.4.41.4.48a1.15,1.15,0,0,1-.2.49,4,4,0,0,1-.49.65,7.46,7.46,0,0,1-.57.56,1,1,0,0,1-.47.23,1.14,1.14,0,0,1-.61-.22,7,7,0,0,1-.67-.48l-.58-.52-.37-.35h-.27c-.06,0-.09,0-.09.11a1.34,1.34,0,0,0,0,.2c0,.11,0,.23,0,.38s0,.29-.07.43a.51.51,0,0,1-.15.32s-.07.06-.12.11-.09.07-.11.07h-1.93a.21.21,0,0,0-.09.06s-.09.09-.14.12a1.74,1.74,0,0,0-.13.15.16.16,0,0,0,0,.09v2c0,.08-.06.15-.16.24a.66.66,0,0,1-.25.12h-1.81l-.1,0a.57.57,0,0,1-.15-.06.61.61,0,0,1-.1-.07l-.08-.05V19.83Zm-1.35-2.72a.36.36,0,0,0,.21.11,1.27,1.27,0,0,0,.29,0h.25a1.38,1.38,0,0,0,.26,0,2.69,2.69,0,0,0,.32,0,1.13,1.13,0,0,0,.27-.15.38.38,0,0,0,.11-.29V14.66a.28.28,0,0,0-.06-.2.32.32,0,0,0-.18-.05.87.87,0,0,0-.48.23,3.48,3.48,0,0,0-.51.6,3,3,0,0,0-.41.68,1.16,1.16,0,0,0-.18.54A.24.24,0,0,0,173.43,16.69ZM178,14.3a.76.76,0,0,0-.07.13.26.26,0,0,0-.06.12v1.91a.23.23,0,0,0,.15.23.68.68,0,0,0,.32.11,2.38,2.38,0,0,0,.34,0h.45a.57.57,0,0,0,.26,0,.73.73,0,0,0,.21-.07.27.27,0,0,0,.09-.22.62.62,0,0,0,0-.23.8.8,0,0,0-.1-.22c-.06-.05-.13-.18-.26-.34s-.23-.32-.36-.49-.23-.34-.36-.5-.19-.29-.23-.34,0,0-.13-.06-.09,0-.1-.07H178Z"/><path d="M189.63,17.54a1.81,1.81,0,0,1,1.33-.48,1.52,1.52,0,0,1,1.24.52,1.88,1.88,0,0,1,.47,1.29,1.73,1.73,0,0,1-.49,1.3,1.93,1.93,0,0,1-2.57,0,1.83,1.83,0,0,1-.45-1.32A1.81,1.81,0,0,1,189.63,17.54Zm.19-3c0-.35,0-.72-.09-1.14s0-.88-.09-1.35-.07-.92-.09-1.33-.05-.81-.09-1.15,0-.6-.05-.76V8.36a1.32,1.32,0,0,1,0-.29V7.85a2.93,2.93,0,0,1,0-.37V7.22l.25-.23h2.52l.11.11s0,.09,0,.2,0,.21,0,.34V9.37c0,.47,0,1-.06,1.51s-.05,1.1-.09,1.66-.09,1.06-.14,1.53a8.88,8.88,0,0,1-.18,1.11c-.09.29-.18.45-.29.45h-1.31a.37.37,0,0,1-.25-.12.47.47,0,0,1-.11-.24C189.88,15.11,189.86,14.86,189.82,14.52Z"/><path d="M198.57,17.54a1.85,1.85,0,0,1,1.34-.48,1.53,1.53,0,0,1,1.24.52,1.93,1.93,0,0,1,.47,1.29,1.77,1.77,0,0,1-.49,1.3,1.94,1.94,0,0,1-2.58,0,1.87,1.87,0,0,1-.45-1.32A1.85,1.85,0,0,1,198.57,17.54Zm.2-3c0-.35-.05-.72-.09-1.14s-.05-.88-.09-1.35-.07-.92-.09-1.33-.05-.81-.09-1.15,0-.6,0-.76V8.36a1.32,1.32,0,0,1,0-.29V7.85a2.93,2.93,0,0,1,0-.37V7.22l.25-.23h2.52l.11.11s0,.09,0,.2,0,.21,0,.34V9.37c0,.47,0,1-.05,1.51s-.05,1.1-.09,1.66S201,13.6,201,14.07a11.23,11.23,0,0,1-.18,1.11c-.09.29-.18.45-.29.45H199.2a.37.37,0,0,1-.25-.12.57.57,0,0,1-.11-.24C198.83,15.11,198.81,14.86,198.77,14.52Z"/><path d="M229.79.82,211.92,22.59c-.43.53.37.69.74.69a2.65,2.65,0,0,0,1.93-.75L232.45.76c.43-.52-.37-.68-.74-.69a2.71,2.71,0,0,0-1.92.75Z"/><path d="M207.57,28.14l-1.11,1.07-.16.16a.28.28,0,0,0-.12.23.15.15,0,0,0,.08.2.58.58,0,0,0,.31.11,1.6,1.6,0,0,0,.44,0,4,4,0,0,0,1.13-.25,2.48,2.48,0,0,0,.8-.47l1.11-1.08.16-.15a.29.29,0,0,0,.12-.24.17.17,0,0,0-.08-.2.57.57,0,0,0-.31-.1,1.29,1.29,0,0,0-.44,0,4,4,0,0,0-1.13.25,2.38,2.38,0,0,0-.8.47Z"/></svg>