<svg id="レイヤー_1" data-name="レイヤー 1" xmlns="http://www.w3.org/2000/svg" viewBox="0 0 462.63 123.96"><defs><style>.cls-1{fill:#f0908a;}</style></defs><path class="cls-1" d="M0,36.58S4.63,29.11,3.6,1H9.9v.72h7.56V1h5.22c.49,20.93.63,35.19.63,35.19-5.49.49-10.08.63-10.08.63v-5s1.3,0,3.91.09c.05-2.12.05-5,.09-8.64H8.05C5.17,36.76,0,36.58,0,36.58ZM8.46,21.1h8.77c.05-2.25.05-4.77.09-7.47H9.4A74.72,74.72,0,0,1,8.46,21.1Zm1.12-9.72h7.74c.05-2.29.09-4.81.09-7.46H9.9C9.85,6.66,9.76,9.13,9.58,11.38ZM43.92,27.72c2.92.09,6.84.27,11.65.63v5.08a143.81,143.81,0,0,1-17.5.09V27.67c3.24-5,8.91-7.42,8.91-12,0-1.67-2.61-4.64-6.88-1.36L37.76,8.5C46.31,3.69,54,8,54,15,54,20.88,48.55,24,43.92,27.72ZM75,1.62v.77H91.44V1.62h5.22c.45,20.79.58,35,.58,35H91.12v-.81H74.65c0,.27,0,.54,0,.81H69.44c-.5-20.79-.63-35-.63-35Zm0,3c0,4.54,0,14.35-.27,29H91.12c0-4.55.09-14.36.27-29Zm1.76,22.18c-.45-10-.59-15.39-.59-15.39h5.22v.77h4a3.94,3.94,0,0,0,0-.77h4.32c.45,10,.58,15.39.58,15.39H85V25.69H81a9.75,9.75,0,0,0,0,1.08Zm4.41-3.28H85c0-2,.09-5,.23-9.14h-4C81.27,16.29,81.22,19.3,81.09,23.49Zm44-1c-.36-4.86-5.08-8-11.16-5.31-4.59,2.07-5.13,9.36-2.07,9.72,2.25.27,4.28-3.29,5-9l5.72.72c-1,8.05-5.49,13.45-9.59,13.45-4.41,0-7.15-4-7.15-8.32A13.46,13.46,0,0,1,117.63,10.3c9-1.12,14.53,6.53,13.5,13.77-1,6.84-5.63,10.35-13.73,9.45C121.5,31.86,125.5,28.3,125.05,22.5Zm16.07-2.39s1.93-2.92,1.93-13.45h6.3C149.35,18.45,141.12,20.11,141.12,20.11Zm14.26-10.3h-5V8h5a1.35,1.35,0,0,0,.05-.45h6.3c0,25.92-15.3,25.92-15.3,25.92S154.75,29.2,155.38,9.81ZM157,3.6l2.07-2.29a5.46,5.46,0,0,1,1.17,1.48L162.18.63a3.79,3.79,0,0,1,.54,5.54,9.81,9.81,0,0,0-2.3-2.93,3.86,3.86,0,0,1-.81,3.6A10.29,10.29,0,0,0,157,3.6Zm17.51,10h6.3c0,19.93-9.9,19.93-9.9,19.93S174.51,29.11,174.51,13.59Zm15.16,13.59c4.77-.72,8.87-4.41,8.87-4.41s-.36,9.31-9,10.75h-5.09c-.63-12.14-.81-26.45-.81-26.45h6.3S189.94,16.33,189.67,27.18Zm18.23-7.92s8.37.13,23.85.58V24c-17.06.32-23.85.32-23.85.32ZM240.84,7.33s4.82,0,19.17.32c0,25.15-16.51,25.87-16.51,25.87s8.86-5.22,10.07-22c-9.36.36-12.73.45-12.73.45Zm22-4A3.33,3.33,0,1,1,259.47,0,3.33,3.33,0,0,1,262.8,3.33Zm-1.8,0a1.53,1.53,0,1,0-3.06,0,1.53,1.53,0,1,0,3.06,0Zm16.69,10-4.09.27-.05-1.49,4.14-.31c-.09-2.29-.09-3.69-.09-3.69h6.3s0,1.17,0,3.28l8.1-.58v-.45l6.3-.4c.54,8.63-6.53,10.16-6.53,10.16a33.58,33.58,0,0,0,.32-7.78l-8.19.54c-.05,3.19-.09,7.78-.23,13.18,9.54-.49,13.55-.36,13.55-.36V31.5a157,157,0,0,1-18.76-.09C278.05,24.39,277.83,17.73,277.69,13.32Zm32.36-1.08H314a41,41,0,0,0,1,8.19S310.05,20.74,310.05,12.24Zm14.13,3.28h5.26c0,18-16.11,18-16.11,18S324.18,27.81,324.18,15.52ZM316,12.24h4a43.13,43.13,0,0,0,.9,8.19S316,20.74,316,12.24Zm24.3.22c8.1.46,7.79,7.07,7.79,7.07s-4.28-2.34-7.87-2.39Zm23.22,1.31s4.1,11.79-20.38,18.81l-1.4-6.12C359.28,21.64,363.55,13.77,363.55,13.77Zm-10.75.85s-4.28-2.38-7.88-2.42L345,7.52C353.11,8,352.8,14.62,352.8,14.62Zm23.62,13.64s2.48,0,11,.22l-.13-4.72c-5.22.27-8.15.36-8.15.36V20.25s2.8,0,8.1.13c0-1.93,0-3.64,0-5l-10.85.36V11.88s4.14,0,16.2.27c0,0,0,9.63-.85,20.7-11,.54-15.35.67-15.35.67Zm36.32-13.64s-4.28-2.38-7.83-2.42l0-4.68C413.1,8,412.74,14.62,412.74,14.62Zm13.95-.85s4.05,11.79-20.39,18.81l-1.39-6.12C422.37,21.64,426.69,13.77,426.69,13.77Zm24.25.23a63.47,63.47,0,0,1-12.82,1.71V9.41c10.21,0,20.56-.54,20.56-.54-6.34,9-14.44,17.23-3.69,24.65C438.39,33.52,442.12,20.29,450.94,14Zm10.71,4.58a10.06,10.06,0,0,0-2.29-3,3.93,3.93,0,0,1-.81,3.64A10.29,10.29,0,0,0,455.94,16l2.07-2.3a5.65,5.65,0,0,1,1.17,1.49l1.93-2.16A3.78,3.78,0,0,1,461.65,18.58ZM46.39,69.94c-4.41-1.61-6-1.44-6-1.44a9.78,9.78,0,0,1,7-3,50.82,50.82,0,0,0,.63-8.2h6.3a49.36,49.36,0,0,1-.77,9.14,26.88,26.88,0,0,1,3.92,1.66l-2.84,5.63q-1.41-.75-2.7-1.35c-4.54,12-14.17,12.19-14.17,12.19S43.56,80.65,46.39,69.94Zm31.19-4.32s-4.27-2.38-7.83-2.42l0-4.68C77.94,59,77.58,65.62,77.58,65.62Zm14-.85s4,11.79-20.38,18.81l-1.4-6.12C87.21,72.64,91.53,64.77,91.53,64.77Zm26.14-6.07H124c0,25.91-15.25,25.91-15.25,25.91s4.54-2.34,7.15-11.38a18,18,0,0,0-6.66-1.85l.09-4.54a10.22,10.22,0,0,1-5.89,4.37s1.93-2.93,1.93-13.42h6.3a16.47,16.47,0,0,1-2.24,8.92c4.36.26,6.25,2.38,7.06,4.22a50.3,50.3,0,0,0,1.17-10h-4.95v-1.8h5Zm19.67,11.56s8.37.13,23.85.58V75c-17.06.32-23.85.32-23.85.32Zm36.49-10.48,6.3.63c-3.32,14.17-.85,23.35-.85,23.35S170.78,82.27,173.83,59.78Zm25.56,15.38.41,6.3s-2.43,1.71-11.3,1.71c-7.1,0-5.35-9.22-5.35-9.22s1.17,2.92,5.35,2.92C196.29,76.87,199.39,75.16,199.39,75.16ZM184.77,61.8a85.63,85.63,0,0,1,13.77,1l-.72,4.95a74.66,74.66,0,0,0-13-1Zm27.45-1.89h5.71s0,8.19-.26,23.8h18l1.8-1.8,1.8,1.8v2.21H217.62c0,.54,0,1.08,0,1.62h-4.73C212.35,71.11,212.22,59.91,212.22,59.91Zm.63-6.08H227a31.9,31.9,0,0,0,.4-3.19l4.82.72-.41,2.47h3.87l1.8-1.79,1.8,1.79V56h-8a12.29,12.29,0,0,1-3.33,5.85h3.33V61.4H236c.5,11,.63,18.49.63,18.49h-5.71V79.3h-6.52v.59h-4.78c-.45-11-.58-18.49-.58-18.49h5.67v.49h.49a45.44,45.44,0,0,0,1.4-5.85H212.85ZM231,74.26h-6.43c0,.9-.05,1.85-.09,2.84H231Zm.09-5.08h-6.43c0,.86,0,1.84,0,2.83H231C231.07,71.16,231.07,70.21,231.07,69.18Zm-6.34-5.09c0,.77,0,1.76,0,2.88h6.44c0-.94,0-1.89.09-2.88Zm35.1,3.83a13.76,13.76,0,0,1-1.75,3.1c-.05,3.69-.09,8.15-.19,13.5-4.18.54-7.64.68-7.64.68V80.34s.9,0,2.78.09l-.13-4.86a18.67,18.67,0,0,1-3.69,1.48L248,71.83a21.53,21.53,0,0,0,4.86-.9c-.09-2.56-.14-4.81-.14-6.7h-4V62h3.92l-.13-5.67h5.71l0,5.57,1.7-1.71,1.8,1.81v2.2h-3.5c-.05,1.35-.05,2.88-.05,4.59ZM277.38,73a23.6,23.6,0,0,1-1.44,5.85h1.39l1.8-1.8,1.8,1.8v2.21h-6.07A12.54,12.54,0,0,1,266,87.4a20.85,20.85,0,0,0,3.6-6.34h-2.52c0,.22,0,.49-.09.76l-5.35-.4c.18-3.56.36-6.35.49-8.42h-3V70.8h3.1l.13-1.76,6.35.46a12.29,12.29,0,0,0-.18,1.3h8.77l1.8-1.8,1.8,1.8V73Zm-16.92-8.14h4.18a17.24,17.24,0,0,0-2.11-5.71s5.08-1.08,6.93,4.54l-3.24,1.17h4.59a19.27,19.27,0,0,0,2.07-6.57l5,.76c-1.53,3.74-3.42,5.27-4.9,5.81h3.24L278,63.1l1.8,1.76v2.25H260.46Zm1.35-9.76h6c-.27-2.57-.36-4.28-.36-4.28h5.4s0,1.49-.18,4.28h2.21l1.8-1.81,1.8,1.81v2.2H261.81ZM271.17,73h-2.93c-.22,1.44-.49,3.38-.85,5.85h2.92A24.89,24.89,0,0,0,271.17,73Zm21.38-7.78,3.15.49v-.94h-5.9v-2.2h5.85l-.18-8.78h5.22l0,8.78h1.52l1.8-1.76,1.8,1.76v2.2H300.6c0,4.54-.09,10.89-.22,19.75h-4.32c-.09-5.08-.14-9.36-.23-13-3,6.62-7.11,7.47-7.11,7.47A42.17,42.17,0,0,0,292.55,65.22Zm14.17,6.12-3.55,3.6c-2.48-3.15-1.54-9-1.54-9A28.13,28.13,0,0,0,306.72,71.34Zm17.19,16.2h-5.67V87h-6.16v.59H307.3c-.45-21.15-.58-35.59-.58-35.59h5.67v.76h6.16V52h4.77C323.77,73.09,323.91,87.54,323.91,87.54Zm-5.63-11.25h-6.07c0,2.61,0,5.44-.09,8.46h6.12C318.24,82.9,318.28,80.07,318.28,76.29Zm.09-10.71H312.3c0,2.52-.05,5.35-.05,8.5h6.08C318.33,71.61,318.37,68.77,318.37,65.58Zm.14-10.66h-6.12c0,1.89-.05,4.72-.05,8.46h6.08C318.46,60.76,318.46,57.93,318.51,54.92Zm13.68,8.37V61.08h10l1.8-1.8,1.81,1.8v2.21Zm.95,11.78h5.26v.45h2.16v-.45h4.32c.49,5.63.63,9.45.63,9.45h-5.26v-.58h-2.17a3,3,0,0,1,0,.58h-4.28C333.27,78.9,333.14,75.07,333.14,75.07Zm7.28-18.71,1.8-1.8,1.8,1.8v2.2H334v-2.2ZM334,68V65.8h6.43l1.8-1.8,1.8,1.8V68Zm0,2.52h6.43l1.8-1.8,1.8,1.8v2.2H334Zm4.18,11.16h2.12l.13-4h-2.07C338.31,78.76,338.26,80.11,338.17,81.69Zm7.2-27.13s4-1.35,6.66,5.44l-4.14,2.43A22.92,22.92,0,0,0,345.37,54.56Zm0,16s4-1.3,6.66,5.45l-4.14,2.43A23,23,0,0,0,345.37,70.57Zm.68-1.26s7.65-4.23,7.65-18.49h5.17C358.87,69.22,346.05,69.31,346.05,69.31Zm7.65-2.47h5.17c0,20.56-12.82,20.7-12.82,20.7S353.7,82.81,353.7,66.84Zm14-1.67-2.52,4.14c-9.32-4.27-7.56-9.81-7.56-9.81a15.41,15.41,0,0,0,2.16,1.9,40.52,40.52,0,0,0,2.52-8.19l4.86,1.66c-3.2,6.62-6.39,6.71-7.25,6.62A23.19,23.19,0,0,0,367.74,65.17Zm0,17.69-2.52,4.68c-9.32-4.77-7.56-11-7.56-11A21.06,21.06,0,0,0,367.74,82.86Zm-8-5.36a37.23,37.23,0,0,0,2.57-8.28l4.86,1.67C363.46,78.54,359.77,77.5,359.77,77.5Zm30.6-14.8H376.79V60.9h13.13l-.9-3.56,6.21-1a38.38,38.38,0,0,1,1.13,4.54h2.83l1.8-1.8,1.8,1.8v1.8h-6.16a24.1,24.1,0,0,1-.05,9,9.19,9.19,0,0,1,.18,4.09c-1.39,8.51-7.15,8.73-7.15,8.73a11.91,11.91,0,0,0,2.88-7.47c-4.82,2.57-9.09-.72-9.09-4.9a5.49,5.49,0,0,1,5.44-5.49,11.82,11.82,0,0,1,2.39.27C391,65.58,390.69,64.09,390.37,62.7Zm.95,9.4a3.23,3.23,0,0,0-2.7-1.21,1.74,1.74,0,1,0,.27,3.46C390.28,74.35,391,73.5,391.32,72.1Zm35.82,5.54a3.87,3.87,0,0,0-.14-3.83c-2.79-4.23-10.84-1.35-10.84-1.35-.32-3.28-.27-5.13.22-12.14h-5.3v-1.8h11.74a49,49,0,0,0-2.25,9.53s7.78-2.47,11.2,1.22c5.36,5.8-.45,15.25-10.71,15.25-7.82,0-6.48-8.73.09-8.73A12.56,12.56,0,0,1,427.14,77.64Zm-6.08,4.27a6.29,6.29,0,0,0,3.69-1.39,5.63,5.63,0,0,0-3.64-1.8C418.5,78.72,418.09,81.91,421.06,81.91ZM128.52,124s-5-.81-5-12.6,5-12.6,5-12.6-2.16,3.44-2.16,12.6S128.52,124,128.52,124Zm9.43-18.4h3.16c-.25-3-.33-5-.33-5h3.83s0,1.71-.16,5h1.29l1.11-1.12,1.13,1.12v1.38H138Zm.79,17.11a27.21,27.21,0,0,0,3.35-7.11,37.67,37.67,0,0,0-3.44-5.35s1.79,0,4.26,2.35a38.91,38.91,0,0,0,.81-5.15h3.33a24.05,24.05,0,0,1-1.93,7.7,34.08,34.08,0,0,1,2.8,4.87l-3,1.43c-.51-1.17-1-2.27-1.49-3.27A15,15,0,0,1,138.74,122.67Zm17.16-1c-2.83.3-5.18.39-5.18.39V119s.7,0,2.13,0l-.09-3.44-2.35,1.26a12.92,12.92,0,0,0-1.9-5.66s2.32-.53,4.23,2.58c-.06-1.79-.09-3.39-.12-4.73h-4.37v-1.37h4.34l-.05-3.53h3.55s0,1.09,0,3.22l.81-.81,1.12,1.12V109h-1.93C156,112,156,116.18,155.9,121.64ZM170,106.79h5.57c0-.08,0-.16,0-.25h2.94c.31,14,.39,17,.39,17h-3.55v-.31H164.89c0,.11,0,.2,0,.31h-2.94c-.31-14-.39-17-.39-17h3.55v.25h2.58a20.76,20.76,0,0,0,1.12-3.52h-7.25V101.9h15.2l1.12-1.12L179,101.9v1.37h-6.8A8,8,0,0,1,170,106.79Zm-3.87,1.38h-1.12c0,1.87-.05,5.74-.16,13.69H166C166,120.32,166.06,116.65,166.17,108.17Zm3,0,.08,3.64h1.83c0-1.77-.06-2.91-.09-3.64Zm1.93,5h-1.82c.06,1.4.09,2.6.09,3.64h1.84C171.16,115.45,171.13,114.24,171.1,113.18Zm.14,5h-1.82c0,1.74.06,2.91.09,3.64h1.82Zm3.08,3.64h1.12c0-1.9.06-5.8.17-13.69h-1.12C174.49,109.68,174.43,113.29,174.32,121.86Zm16.58-6v-3.14s1.23.08,3.47.36v2.58C191.91,115.9,190.9,115.9,190.9,115.9ZM207.08,120s3.87-2.74,4.71-9.32l3.8.92C213.89,120.57,207.08,120,207.08,120Zm15.91-12v1.12h-3.45c-.14,3.5-.3,8.42-.3,12.46H216.8c-.48-4.35-.73-9.1-.84-12.46h-7v-1.12h7l-.08-3.39h3.92s-.08,1.34-.17,3.39h1.18l1.12-1.12Zm11.84,1.82a12.58,12.58,0,0,0-4.87-1.52l0-2.91C235.06,105.73,234.83,109.88,234.83,109.88Zm8.68-.54s2.52,7.34-12.68,11.71l-.87-3.81C240.82,114.24,243.51,109.34,243.51,109.34Zm10.73-1s2.29,0,11.22.2c0,14-10.27,13.08-10.27,13.08s5.34-2.36,6.24-10.67l-7.19.25Zm10.94-2h-10.1v-1.12h7.86l1.12-1.12,1.12,1.12Zm9.16,4.59a16.41,16.41,0,0,0,11.28-6.8l3.14,2.35a13.84,13.84,0,0,1-4,3.67c-.14,1.84-.42,6.16-.42,11.48h-2.18c-.53-4.2-.87-7.87-1.06-10.11A12.79,12.79,0,0,1,274.34,110.94ZM302,109.88a12.58,12.58,0,0,0-4.87-1.52l0-2.91C302.25,105.73,302,109.88,302,109.88Zm8.68-.54s2.52,7.34-12.68,11.71l-.87-3.81C308,114.24,310.71,109.34,310.71,109.34Zm15.37,2c0-9.16-2.12-12.6-2.12-12.6s5,.81,5,12.6-5,12.6-5,12.6S326.08,120.52,326.08,111.36Z"/></svg>