<svg id="レイヤー_1" data-name="レイヤー 1" xmlns="http://www.w3.org/2000/svg" viewBox="0 0 149.92 149.92"><defs><style>.cls-1{fill:#efe4dc;stroke:#efe4dc;stroke-miterlimit:10;stroke-width:5px;}.cls-2{fill:#fff;}.cls-3{fill:#040000;}</style></defs><circle class="cls-1" cx="74.96" cy="74.96" r="72.46"/><path class="cls-2" d="M35.4,60.28l.63-1c.34-.34.88-.88,1.71-1.66s1.61-1.66,2.53-2.53,1.76-1.76,2.54-2.59,1.36-1.41,1.65-1.7a21.44,21.44,0,0,0,2-2.29c.68-.88,1.27-1.76,1.85-2.64a12.67,12.67,0,0,0,1.22-2.82,9.19,9.19,0,0,0,.49-3,6.38,6.38,0,0,0-1-3.76,4.23,4.23,0,0,0-3.56-1.41,3.41,3.41,0,0,0-1.66.44,13.93,13.93,0,0,0-1.56.88c-.53.34-1,.63-1.51.92a3,3,0,0,1-1.41.39.88.88,0,0,1-.34-.14,2.17,2.17,0,0,1-.35-.2,7.74,7.74,0,0,0-.87-.88c-.39-.34-.78-.68-1.12-1s-.64-.68-.88-.92a3.32,3.32,0,0,1-.34-.4v-.68a2.59,2.59,0,0,1,1.46-2.09,14.69,14.69,0,0,1,3.31-1.56,34.37,34.37,0,0,1,3.76-.93,20.16,20.16,0,0,1,2.68-.29,12.67,12.67,0,0,1,4.58.78,10.52,10.52,0,0,1,3.61,2.14,10.41,10.41,0,0,1,2.43,3.46,11,11,0,0,1,.93,4.54,13.66,13.66,0,0,1-.93,5.06,21.83,21.83,0,0,1-2.34,4.24c-.92,1.32-1.9,2.64-3,3.95A31,31,0,0,0,49,56.68a3.6,3.6,0,0,0-.19.39.7.7,0,0,0-.15.29,4.21,4.21,0,0,0,.3.39.52.52,0,0,0,.34.24h9.74l.69.64v5.84H35.4Z"/><path class="cls-2" d="M79.21,57.36a.66.66,0,0,0-.14-.34,2.27,2.27,0,0,0-.25-.49,1.56,1.56,0,0,0-.39-.44A.56.56,0,0,0,78,55.9h-13s-.15,0-.29-.2a2.12,2.12,0,0,0-.39-.29c0-.1-.1-.15-.15-.24a.62.62,0,0,1-.15-.1V49.85a3,3,0,0,0,.25-.48,3.21,3.21,0,0,1,.39-.78c.34-.69.83-1.61,1.51-2.83s1.36-2.53,2.14-3.95,1.61-2.92,2.49-4.43,1.7-2.93,2.48-4.1a26,26,0,0,1,2.2-3c.63-.78,1.17-1.17,1.51-1.17h9.6V47.61a1.17,1.17,0,0,0,.63,1.22,3.3,3.3,0,0,0,1.37.44,10.06,10.06,0,0,1,1.41.34.86.86,0,0,1,.64.92v4.2a.91.91,0,0,1-.64.87,8.72,8.72,0,0,1-1.41.39,4.29,4.29,0,0,0-1.37.49,1.14,1.14,0,0,0-.63,1.17v6.82H79.21Zm-6.38-8.58c0,.29.1.44.34.44H78c.15,0,.34-.2.59-.54A1.63,1.63,0,0,0,79,47.9V38.16s0-.1-.1-.15-.15-.15-.19-.15c-.2,0-.44.25-.83.69a16.19,16.19,0,0,0-1.17,1.8c-.44.68-.88,1.46-1.37,2.34s-.87,1.7-1.26,2.48-.69,1.42-.93,2a4.72,4.72,0,0,0-.34,1.07Z"/><path class="cls-2" d="M104.13,41.81V50a.46.46,0,0,1,.1.17c.11.14.17.24.24.27s.07.1.14.17l.07.07h7.47s.07,0,.14-.07.07-.1.1-.17a2.92,2.92,0,0,0,.21-.27.38.38,0,0,1,.13-.17V41.81l.58-.44h4.52a.52.52,0,0,1,.51.31,1.36,1.36,0,0,1,.17.57V65.37l-.1.2a.8.8,0,0,1-.14.28l-.13.13-.07.07h-4.76l-.58-.44V56.77a1.23,1.23,0,0,1-.13-.2c-.11-.11-.17-.21-.21-.24l-.1-.14c-.07-.07-.1-.1-.14-.1h-7.47a.26.26,0,0,0-.07.1c-.07,0-.14.1-.14.14s-.13.13-.24.24-.1.2-.1.2v9.28H98.79s-.06,0-.13-.07-.1-.1-.1-.13l-.14-.28a.8.8,0,0,0-.07-.2V42.05a.8.8,0,0,1,.21-.48.67.67,0,0,1,.47-.2h4.52Z"/><path d="M126,84.73l-23.66-8.36a3,3,0,0,0-3.83,1.83L87,110.74a3,3,0,0,0,1.84,3.83l23.65,8.36a3,3,0,0,0,3.83-1.83l11.5-32.54A3,3,0,0,0,126,84.73Zm-15-3.57,5.74,2a.61.61,0,0,1-.41,1.15l-5.74-2a.61.61,0,1,1,.41-1.15Zm-9.87,36.21a1.55,1.55,0,1,1,2-1A1.54,1.54,0,0,1,101.19,117.37Zm12.7-.36-22.35-7.9,10-28.3,22.35,7.9Z"/><path class="cls-3" d="M33.79,107.68H77a3,3,0,0,0,3-3V79.29a3,3,0,0,0-3-3H33.79a3,3,0,0,0-3,3V104.7A3,3,0,0,0,33.79,107.68Zm1.58-27.37h40V103h-40Z"/><path class="cls-3" d="M83.43,116l-5.32-4.72a2.1,2.1,0,0,0-1.36-.48H34a2.06,2.06,0,0,0-1.35.48L27.34,116a1.26,1.26,0,0,0-.44.92v1.64a.81.81,0,0,0,.9.7H83a.81.81,0,0,0,.89-.7v-1.64A1.22,1.22,0,0,0,83.43,116Zm-34.15.56,1.54-2.08h9.77l1.53,2.08Z"/></svg>