<svg id="レイヤー_1" data-name="レイヤー 1" xmlns="http://www.w3.org/2000/svg" viewBox="0 0 263.52 269.99"><defs><style>.cls-1{fill:#fff;}</style></defs><path class="cls-1" d="M74,3.25a152.29,152.29,0,0,0-17.51,9,109.35,109.35,0,0,0-12,8.19A148.88,148.88,0,0,0,30,33,144.67,144.67,0,0,0,18,47.16,97.16,97.16,0,0,0,2.17,77.54c-3.23,10.68-3.07,22.88,1.93,33a61.78,61.78,0,0,0,9.47,14.37,97.18,97.18,0,0,0,13.36,11.86,147,147,0,0,0,26.2,15.58c19.93,9.48,41.12,15.86,62.45,21.35,20.41,5.25,41.06,9.77,61.09,16.4,2.54.84,5.06,1.73,7.54,2.72l-4.08-1.63a62.76,62.76,0,0,1,16,9l-3-2.41a59,59,0,0,1,14.67,18.11l-1.68-3.13c6.28,11.77,9.47,24.91,11.83,38,.68,3.76,1.29,7.54,1.87,11.32a6.9,6.9,0,0,0,3.17,4.34,10.74,10.74,0,0,0,5.58,2.84,21.73,21.73,0,0,0,7.69.72,27.43,27.43,0,0,0,8.66-1.16c5.12-1.52,10.72-3.75,14.38-7.8L262,257.5a9.25,9.25,0,0,0,1.27-7.13c-2-12.67-4.17-25.42-8.52-37.52a97.45,97.45,0,0,0-9.65-19.66,59,59,0,0,0-5.54-7.33,73,73,0,0,0-9.32-8.43c-6.93-5.51-15.15-8.88-23.4-11.88-7-2.55-14.24-4.63-21.43-6.63-14.21-3.95-28.56-7.3-42.84-11a414.17,414.17,0,0,1-42-12.66c-1.71-.64-3.4-1.29-5.1-2L99.57,135c-14.23-5.69-28.34-12.75-40.35-22.39l3,2.42c-6.29-5.1-12-11-15.81-18.23l1.67,3.13a37.65,37.65,0,0,1-4.38-16.2l.12,3.55a48.69,48.69,0,0,1,3.61-18.72L46,72.1A95.67,95.67,0,0,1,60.13,48.22l-2.72,3.45A112.23,112.23,0,0,1,74.53,34.34l-3.88,3.14A111.93,111.93,0,0,1,87,26.51l-4.85,2.66Q87,26.53,92,24.37a22.39,22.39,0,0,0,6.79-4.22,15.67,15.67,0,0,0,4.65-5c1.71-3.08,2.25-7.43-.4-10.26-3-3.23-7.69-4.65-12-4.83A39.54,39.54,0,0,0,74,3.25Z"/></svg>