<svg id="レイヤー_1" data-name="レイヤー 1" xmlns="http://www.w3.org/2000/svg" viewBox="0 0 156.41 149.73"><path d="M3.39,39.59s0,0,0,.07a.24.24,0,0,1,.09.08s.07.09.11.16a.22.22,0,0,1,0,.13V52.64c0,.11.09.17.25.17h.26a4.89,4.89,0,0,0,1.61-.35,15.31,15.31,0,0,0,1.87-.92c.61-.38,1.27-.79,1.91-1.26s1.28-.92,1.87-1.38l1.61-1.34c.48-.42.88-.8,1.19-1.08h.22a.85.85,0,0,1,.52.26,4.57,4.57,0,0,1,.49.68,2.8,2.8,0,0,1,.39.77,1.84,1.84,0,0,1,.16.64,2.3,2.3,0,0,1-.88,1.45,17.88,17.88,0,0,1-2.2,1.83c-.9.62-1.89,1.25-3,1.87s-2.12,1.19-3.15,1.69-1.94.91-2.75,1.21a5.9,5.9,0,0,1-1.8.47,1.35,1.35,0,0,1-.6-.2,4,4,0,0,1-.77-.49A3.48,3.48,0,0,1,.26,56a1,1,0,0,1-.26-.6V39.59Z"/><path d="M21.1,45.82a.7.7,0,0,1,.35-.55,3.82,3.82,0,0,1,.81-.4,8.41,8.41,0,0,1,.84-.24,3.74,3.74,0,0,1,.53-.07c.2,0,.39.2.64.62s.44.86.66,1.36A14.78,14.78,0,0,1,25.48,48a3.91,3.91,0,0,1,.22.9.63.63,0,0,1-.31.53,2.41,2.41,0,0,1-.73.39,6,6,0,0,1-.79.25,5.18,5.18,0,0,1-.59.08.77.77,0,0,1-.44-.08.82.82,0,0,1-.25-.38c-.06-.13-.15-.37-.28-.72s-.29-.73-.44-1.13a11,11,0,0,1-.44-1.1c-.16-.33-.24-.57-.31-.72S21.1,45.91,21.1,45.82Zm3.41,10c.28-.22.68-.47,1.14-.77s1-.64,1.56-1,1.13-.77,1.66-1.16a17.51,17.51,0,0,0,1.45-1.15,7,7,0,0,0,.92-1,4.8,4.8,0,0,0,.4-.84c.17-.38.35-.84.55-1.34s.39-1,.59-1.57.4-1,.55-1.49.33-.81.46-1.1S34,44,34,44l.15,0a2.31,2.31,0,0,0,.44.15c.2.07.44.14.66.23l.66.19a3.77,3.77,0,0,1,.44.16,2.05,2.05,0,0,1,.4.19.51.51,0,0,1,.19.4,6.75,6.75,0,0,1-.48,2.29,16.61,16.61,0,0,1-1.32,2.79,28.89,28.89,0,0,1-1.87,2.89,27.32,27.32,0,0,1-2.24,2.57,13.83,13.83,0,0,1-2.36,1.83,4.44,4.44,0,0,1-2.22.7l-.29,0a1.17,1.17,0,0,1-.24-.13l-1.89-1.92s0,0,0-.06v-.14S24.2,56,24.51,55.81ZM26.25,44.5a.68.68,0,0,1,.3-.53,3.69,3.69,0,0,1,.75-.33,3.25,3.25,0,0,1,.82-.18,4.37,4.37,0,0,1,.57-.06.48.48,0,0,1,.37.15,1,1,0,0,1,.27.37,1.44,1.44,0,0,1,.17.45,3.17,3.17,0,0,0,.14.35,4.42,4.42,0,0,0,.17.46c.09.24.18.46.27.73s.17.48.26.7.15.37.18.46a.82.82,0,0,0,0,.18v.2a2.3,2.3,0,0,1,0,.37.4.4,0,0,1-.29.29c-.38.15-.73.28-1,.41a2.41,2.41,0,0,1-1,.18c-.2,0-.33,0-.39-.11a.92.92,0,0,1-.2-.35c-.05-.13-.16-.35-.27-.68s-.26-.69-.39-1.06-.29-.73-.42-1.08-.2-.57-.24-.7A.94.94,0,0,1,26.25,44.5Z"/><path d="M42.15,54.27c.35-.22.77-.47,1.23-.71l1.32-.7c.42-.22.73-.38.93-.51s.64-.46,1.08-.81,1-.79,1.51-1.26,1.1-1,1.66-1.54,1.07-1.12,1.54-1.67a13.89,13.89,0,0,0,1.1-1.65A3.19,3.19,0,0,0,53,44l-.07-.13a.57.57,0,0,0-.09-.16.39.39,0,0,0-.09-.11l0,0H44.15a1.09,1.09,0,0,1-.33-.18c-.17-.11-.26-.19-.26-.26V40.62a.42.42,0,0,1,.11-.24.47.47,0,0,1,.2-.2c.28,0,.72,0,1.34,0l2,0c.74,0,1.56,0,2.39,0s1.63,0,2.4,0l2.07,0H56a1.76,1.76,0,0,1,.59.13,5.19,5.19,0,0,1,.71.35,3,3,0,0,1,.59.47.77.77,0,0,1,.24.52.34.34,0,0,1,0,.14c-.28.63-.57,1.21-.83,1.73s-.55,1-.82,1.54-.53,1-.81,1.48-.57,1-.9,1.56a1.88,1.88,0,0,1-.25.37.87.87,0,0,0-.06.36c0,.09,0,.17,0,.24a.57.57,0,0,0,.13.2l.75.75,1.1,1.1c.4.37.77.74,1.12,1.1l.71.72a1.6,1.6,0,0,0,.3.31c.14.15.27.31.42.46l.38.44a1.4,1.4,0,0,1,.22.27,1.17,1.17,0,0,1,.17.28,1.1,1.1,0,0,1,.11.29.79.79,0,0,1-.28.57,9.44,9.44,0,0,1-.77.79,9.16,9.16,0,0,1-.88.68,1.66,1.66,0,0,1-.62.31A.44.44,0,0,1,57,57.1a1.24,1.24,0,0,1-.24-.19c0-.07-.17-.22-.37-.47s-.4-.5-.64-.79-.46-.55-.66-.79-.33-.4-.37-.46-.27-.27-.51-.53-.53-.51-.81-.79l-.8-.79-.52-.53h-.16a1.63,1.63,0,0,0-.86.42c-.35.26-.77.59-1.23,1s-.95.85-1.45,1.32-1,.9-1.56,1.32a11.54,11.54,0,0,1-1.52,1,2.7,2.7,0,0,1-1.32.41h-.16l-.11,0-2-2a.49.49,0,0,1-.09-.18l-.07-.13A1.68,1.68,0,0,1,42.15,54.27Z"/><path d="M64.81,54.33a1,1,0,0,1,0-.22c0-.09,0-.13.16-.15a28.11,28.11,0,0,0,4-1.15,23.7,23.7,0,0,0,3.5-1.6A24.91,24.91,0,0,0,75.62,49a30.19,30.19,0,0,0,3-2.84,4.49,4.49,0,0,0,.51-.75c.19-.35.39-.7.59-1a8,8,0,0,1,.62-.91.85.85,0,0,1,.63-.39.81.81,0,0,1,.58.39c.19.29.39.6.57.93a8.84,8.84,0,0,1,.44,1,3.1,3.1,0,0,1,.17.73,3.73,3.73,0,0,1-.92,2.2,16.4,16.4,0,0,1-2.33,2.44,37.65,37.65,0,0,1-3.21,2.36,36.5,36.5,0,0,1-3.53,2.06,25.52,25.52,0,0,1-3.25,1.46,7.92,7.92,0,0,1-2.42.52,1.11,1.11,0,0,1-.75-.37,4.61,4.61,0,0,1-.68-.86,5.4,5.4,0,0,1-.53-.9c-.15-.29-.24-.46-.29-.53A.78.78,0,0,1,64.81,54.33Zm.75-12.54v-.15a3,3,0,0,0,.37-.47,7.66,7.66,0,0,1,.53-.66A4.06,4.06,0,0,1,67.1,40a1.19,1.19,0,0,1,.66-.24.5.5,0,0,1,.15,0h.16c.59.44,1.19.88,1.78,1.35S71,42,71.59,42.52c.09.11.2.22.35.37a3.65,3.65,0,0,1,.44.44,4.34,4.34,0,0,1,.37.35,1,1,0,0,1,.16.16v.44l-2.07,2.06h-.57a3.68,3.68,0,0,0-.31-.28c-.18-.13-.33-.29-.51-.44L69,45.18l-.33-.31a5,5,0,0,0-.73-.55,12.5,12.5,0,0,1-1-.77,6.26,6.26,0,0,1-.92-.84,1.24,1.24,0,0,1-.42-.77S65.56,41.86,65.56,41.79Z"/><path d="M92.27,55.34c-.42,0-.88,0-1.34,0s-1,0-1.46-.11a4.29,4.29,0,0,1-1.29-.35,2.53,2.53,0,0,1-1-.75A1.88,1.88,0,0,1,86.83,53V45.31l.29-.37h4.4a.42.42,0,0,0,.37-.18,1.37,1.37,0,0,0,.16-.44,10.25,10.25,0,0,0,.09-.84,1.48,1.48,0,0,0,0-.3,4.38,4.38,0,0,0,0-.51,2,2,0,0,0-.13-.46.29.29,0,0,0-.27-.2h-4.4l-.11-.09a2,2,0,0,0-.17-.13s-.07,0-.09-.09-.07,0-.07-.06v-2l.29-.29h7.63l.16.14v.7c0,.33,0,.7,0,1.06s0,.72.07,1,0,.57,0,.71v.15a1.86,1.86,0,0,0,0,.33c0,.09.07.2.11.29a.31.31,0,0,0,.22.13c.22,0,.42-.16.6-.46a10.08,10.08,0,0,0,.46-1.13c.13-.44.26-.92.37-1.45s.25-1,.38-1.45a6.19,6.19,0,0,1,.42-1.1c.15-.29.33-.44.55-.44s.44,0,.72,0a3.17,3.17,0,0,1,.82.09,1.59,1.59,0,0,1,.64.31.74.74,0,0,1,.26.61,3.81,3.81,0,0,1-.15,1,3.11,3.11,0,0,0-.16,1,.83.83,0,0,0,.13.36.38.38,0,0,0,.31.22h5.72s0,0,.09.08a.3.3,0,0,0,.07.14,1.38,1.38,0,0,1,.08.17.32.32,0,0,1,.07.13V43.7a.42.42,0,0,1-.22.4,3.39,3.39,0,0,1-.51.2,5,5,0,0,0-.55.17.61.61,0,0,0-.35.4c-.06.24-.15.55-.28,1s-.29.85-.47,1.34-.33,1-.5,1.52-.31,1-.46,1.47-.27.86-.38,1.21a3.82,3.82,0,0,0-.13.77,1.58,1.58,0,0,0,.59,1.15,13.89,13.89,0,0,0,1.32,1c.49.29.93.55,1.32.8s.62.48.62.68a1.74,1.74,0,0,1-.2.66,3.08,3.08,0,0,1-.46.77,6.54,6.54,0,0,1-.66.64,1.09,1.09,0,0,1-.66.28,1.72,1.72,0,0,1-1.14-.42,9.15,9.15,0,0,1-1-1,9.68,9.68,0,0,0-.94-1,1.52,1.52,0,0,0-1-.44,1.78,1.78,0,0,0-1.08.46c-.4.31-.82.64-1.23,1a13.54,13.54,0,0,1-1.35,1,2.36,2.36,0,0,1-1.36.47.87.87,0,0,1-.71-.51,12.21,12.21,0,0,1-.61-1.08c-.18-.37-.35-.72-.53-1s-.35-.42-.55-.35Zm3.34-2.5a5.89,5.89,0,0,1-.35.77c-.13.24-.26.48-.37.72a1.87,1.87,0,0,0-.18.75,3.5,3.5,0,0,0,1.1-.26,7.75,7.75,0,0,0,1.32-.73,5.66,5.66,0,0,0,1.1-1,1.57,1.57,0,0,0,.48-1,5.91,5.91,0,0,0-.21-1.45,4.62,4.62,0,0,0-.64-1.34,3.81,3.81,0,0,0-1-1,2.46,2.46,0,0,0-1.36-.39.61.61,0,0,0-.35.09l-.38.22H92.4s-.11-.07-.22-.16L92,48l-.15-.09a.35.35,0,0,0-.14-.06h-1.6l-.31.31v3.65a.71.71,0,0,0,.22.39.57.57,0,0,0,.37.2H92.4c.26,0,.42-.09.48-.24a2.27,2.27,0,0,0,.2-.57,2.24,2.24,0,0,1,.18-.57.39.39,0,0,1,.39-.25,2.56,2.56,0,0,1,.6.09,4.34,4.34,0,0,1,.72.24,1.55,1.55,0,0,1,.58.4.8.8,0,0,1,.24.57A2.12,2.12,0,0,1,95.61,52.84Zm4.91-4.49a.37.37,0,0,0,.24.06c.2,0,.38-.15.53-.46a6.2,6.2,0,0,0,.35-1,9.41,9.41,0,0,0,.24-1.15A5.9,5.9,0,0,0,102,45a.6.6,0,0,0-.13-.42.65.65,0,0,0-.33-.21,1.27,1.27,0,0,0-.44-.07,3.47,3.47,0,0,0-.44,0,2.76,2.76,0,0,0-.38,0,.9.9,0,0,0-.37.07.71.71,0,0,0-.31.19.61.61,0,0,0-.11.35,3.32,3.32,0,0,0,.09.8c.07.28.15.57.24.86s.2.57.31.83.18.51.24.71A1,1,0,0,0,100.52,48.35Z"/><path d="M110.62,55.85a2.12,2.12,0,0,1,.41-.48l.51-.47a2.3,2.3,0,0,0,.37-.5,3.16,3.16,0,0,0,.29-.73c.11-.35.26-.75.4-1.21s.3-.94.48-1.45.33-.95.48-1.34a8.07,8.07,0,0,1,.47-1c.15-.26.26-.39.37-.39a3.46,3.46,0,0,0,.46,0,5.94,5.94,0,0,1,.73,0,2.57,2.57,0,0,1,.72.11.6.6,0,0,1,.44.33v.52a6.65,6.65,0,0,1-.06.89,5.36,5.36,0,0,0-.09.88,1.93,1.93,0,0,0,.18.77,3.52,3.52,0,0,0,.44.74,4.84,4.84,0,0,0,.57.64,5.72,5.72,0,0,0,.57.55.82.82,0,0,0,.22,0,1,1,0,0,0,.22,0c.11,0,.15,0,.15-.15V47.66a.86.86,0,0,0-.15-.33c-.11-.13-.2-.19-.29-.19h-3.23l-.11-.07a1.77,1.77,0,0,0-.18-.15s-.06-.05-.08-.07a.36.36,0,0,1-.07-.07V44.72a.58.58,0,0,1,.15-.29.41.41,0,0,1,.29-.15h10.56a.57.57,0,0,1,.35.17c.11.13.2.22.25.27v1a2.5,2.5,0,0,1,0,.61,2.06,2.06,0,0,1-.13.58c-.06.15-.15.24-.28.24h-3.24a.34.34,0,0,0-.31.19,1.48,1.48,0,0,0-.13.45,2,2,0,0,0,0,.48v.26a2.44,2.44,0,0,0,0,.35v.25l.31.37h4.84a.27.27,0,0,0,.11.09.92.92,0,0,0,.18.13.73.73,0,0,1,.11.09.1.1,0,0,1,0,.07v2.2s0,0,0,0a.73.73,0,0,1-.11.09.71.71,0,0,1-.18.15l-.11.07h-4.84l-.31.37v1.92s.05.08.11.15a1.37,1.37,0,0,0,.24.18,1.46,1.46,0,0,1,.25.13l.15,0h7.41a7.32,7.32,0,0,1-.06.86,4.58,4.58,0,0,1-.22.92,2.64,2.64,0,0,1-.42.8,1.14,1.14,0,0,1-.7.44h-2.8c-1,0-2,0-3,0a13.22,13.22,0,0,1-2.71-.33,9.49,9.49,0,0,1-2.5-.86,9.28,9.28,0,0,1-2.38-1.71.82.82,0,0,0-.22,0,1,1,0,0,0-.81.46c-.2.31-.4.66-.6,1a10.8,10.8,0,0,1-.61,1,1.07,1.07,0,0,1-.91.47h-.22a1.69,1.69,0,0,0-.3-.22c-.18-.11-.38-.27-.6-.42s-.42-.38-.61-.57a1.76,1.76,0,0,1-.4-.55v-.09A.89.89,0,0,1,110.62,55.85Zm.85-16h6.76a.53.53,0,0,0,.53-.31,2.61,2.61,0,0,0,.17-.68c0-.24,0-.46.07-.68s.11-.31.24-.31h2.64a.33.33,0,0,1,.35.31,4.83,4.83,0,0,1,.11.68,3.77,3.77,0,0,0,.18.68.54.54,0,0,0,.55.31h6.73l.31.37v5l-.31.3h-2.33L127,45s0-.13,0-.39a3.47,3.47,0,0,0,0-.79,3.21,3.21,0,0,0-.15-.82.47.47,0,0,0-.48-.35H114.71l-.13,0a.82.82,0,0,0-.18.11s-.07,0-.13.07a.28.28,0,0,0-.09.07V45l-.51.44h-2.2s0,0-.06-.06-.07-.07-.09-.09a.85.85,0,0,0-.07-.15l-.06-.14V40.18Z"/><path d="M140.82,47.86a14.18,14.18,0,0,1,.73-1.71c.24-.53.48-1,.7-1.41a2.2,2.2,0,0,0,.33-1,.14.14,0,0,0,0-.07.5.5,0,0,0-.13-.15,2.33,2.33,0,0,1-.33,0h-.33a11.34,11.34,0,0,0-1.56.11c-.53.09-1.06.17-1.59.28l-1.54.27a13.63,13.63,0,0,1-1.56.11.74.74,0,0,1-.64-.27,1.21,1.21,0,0,1-.24-.63,3.65,3.65,0,0,1,0-.82c0-.28,0-.55,0-.77a.74.74,0,0,1,.59-.75c.33,0,.82-.08,1.5-.13l2.27-.2c.85,0,1.73-.13,2.68-.19s1.83-.14,2.68-.22,1.63-.14,2.29-.18,1.17-.09,1.5-.11,1-.09,1.56-.11,1.1,0,1.63,0h.26a1.45,1.45,0,0,1,.29,0,.49.49,0,0,1,.26.13.33.33,0,0,1,.09.27v2.35L152,43a23.07,23.07,0,0,0-2.86.37,8.36,8.36,0,0,0-2.6.92A5.33,5.33,0,0,0,144.61,46a5.23,5.23,0,0,0-.73,2.91,3.94,3.94,0,0,0,.55,2.18,4.28,4.28,0,0,0,1.43,1.41,8.35,8.35,0,0,0,2,.83,19.78,19.78,0,0,0,2.2.49c.13,0,.18.08.18.24v.28a5.53,5.53,0,0,1-.07.82,4,4,0,0,1-.26.92,2.37,2.37,0,0,1-.49.77.86.86,0,0,1-.72.33,8.43,8.43,0,0,1-3-.57A8.77,8.77,0,0,1,143,55a8.88,8.88,0,0,1-1.84-2.37,6.22,6.22,0,0,1-.71-2.93A5.43,5.43,0,0,1,140.82,47.86Zm7-1.82a.48.48,0,0,1,.13-.31,1.31,1.31,0,0,1,.31-.27,1.56,1.56,0,0,1,.4-.13,3.12,3.12,0,0,1,.35,0,.87.87,0,0,1,.57.26,4.22,4.22,0,0,1,.51.64,3,3,0,0,1,.39.73,1.49,1.49,0,0,1,.16.59.69.69,0,0,1-.44.66,1.88,1.88,0,0,1-.84.22h-.22s-.09-.07-.13-.15-.13-.2-.24-.4-.24-.39-.35-.61-.25-.42-.36-.62-.19-.35-.24-.42Zm2.62-1.39.35-.2a1.14,1.14,0,0,1,.38-.13l.3,0a1.83,1.83,0,0,1,.33,0,.42.42,0,0,1,.29.13s.11.15.22.33.26.35.42.55l.37.64a1.3,1.3,0,0,1,.18.55.58.58,0,0,1-.16.31,1.48,1.48,0,0,1-.39.31,2.63,2.63,0,0,1-.42.17.62.62,0,0,1-.31.09.85.85,0,0,1-.61-.29,3.92,3.92,0,0,1-.53-.68,5.87,5.87,0,0,1-.4-.79,2,2,0,0,1-.15-.68A.39.39,0,0,1,150.46,44.65Z"/><path d="M86.11,65.86a.4.4,0,0,1,.06-.13.56.56,0,0,0,.07-.17s0,0,.09-.09,0,0,.06,0h18.33l.31.29V84.92a.41.41,0,0,1-.15.28.43.43,0,0,1-.29.16h-2.35a.34.34,0,0,1-.31-.16c-.05-.11-.11-.22-.16-.35a1.12,1.12,0,0,0-.15-.35.28.28,0,0,0-.26-.15H89.63a.31.31,0,0,0-.29.15,3.32,3.32,0,0,0-.13.35,1.84,1.84,0,0,1-.15.35.4.4,0,0,1-.31.16h-2.2l-.44-.44Zm3.52,15.41h11.73l.28-.31v-12a.44.44,0,0,0-.13-.3.53.53,0,0,0-.31-.14H89.76a.44.44,0,0,0-.29.14.4.4,0,0,0-.15.3V81Zm1.6-10.43h8.52l0,.06s.09.07.09.09a.43.43,0,0,1,.11.18.62.62,0,0,0,.05.11v7.35a.37.37,0,0,0-.05.11c0,.08-.06.15-.11.17s0,.07-.09.09l0,.07H91.23s0,0-.08-.07-.05-.07-.07-.09a.78.78,0,0,1-.07-.17L91,78.63V71.14Zm2.89,2.66c-.16.09-.25.2-.25.28v2.34s.09.15.25.26a.7.7,0,0,0,.35.18h1.89a.45.45,0,0,0,.37-.2c.09-.16.18-.26.23-.37v-.78c0-.08,0-.15,0-.19a4.09,4.09,0,0,0-.07-.88,1,1,0,0,0-.22-.51.78.78,0,0,0-.48-.26,6.09,6.09,0,0,0-.86-.05h-.44l-.44,0A3.61,3.61,0,0,0,94.12,73.5Z"/><path d="M110.26,82.81a5.39,5.39,0,0,1,.82-.22l.9-.18a1,1,0,0,0,.66-.42l-.13-.15-2.07-.57c-.13,0-.22-.11-.24-.22a.64.64,0,0,1-.07-.31v-.13s0-.07,0-.09l.73-1.45s0-.07,0-.11v-.11c0-.22-.09-.33-.24-.36l-.51-.11a.83.83,0,0,1-.5-.33,1.58,1.58,0,0,1-.24-1v-.37a.8.8,0,0,1,0-.22l.28-.31c.31,0,.71,0,1.15-.05a4.26,4.26,0,0,0,1.25-.22,2.23,2.23,0,0,0,1-.61,1.58,1.58,0,0,0,.42-1.21,2.3,2.3,0,0,0,0-.38c0-.13-.11-.17-.29-.17a1,1,0,0,0-.59.19l-.53.47a2.62,2.62,0,0,1-.53.46.87.87,0,0,1-.59.22,1.72,1.72,0,0,1-.31,0,.31.31,0,0,1-.24-.14l-.88-1.32v-.19a.77.77,0,0,1,.4-.71l.85-.44a4.7,4.7,0,0,0,.86-.46.76.76,0,0,0,.4-.7c0-.11,0-.18,0-.22a.7.7,0,0,0-.26-.07c-.07,0-.18,0-.33,0s-.35,0-.53-.05l-.55,0a2.58,2.58,0,0,0-.35,0,.61.61,0,0,1-.29-.47,5.15,5.15,0,0,1,0-.55,1.14,1.14,0,0,1,.16-.63,1.91,1.91,0,0,1,.37-.38,2.76,2.76,0,0,0,.37-.31.65.65,0,0,0,.16-.44,1.67,1.67,0,0,0-.16-.74,2.27,2.27,0,0,1-.15-.75.6.6,0,0,1,.18-.42,1,1,0,0,1,.39-.33,1.94,1.94,0,0,1,.51-.2,2.08,2.08,0,0,1,.46-.06.49.49,0,0,1,.46.22,1.6,1.6,0,0,1,.27.46l.26.46a.52.52,0,0,0,.44.22c.07,0,.11,0,.11,0l.31-1.46.28-.3H116c.13,0,.22.08.28.24a3.29,3.29,0,0,1,.16.55l.06.66a1.19,1.19,0,0,0,.07.46.47.47,0,0,0,.15,0,.45.45,0,0,0,.44-.24,3.5,3.5,0,0,0,.27-.51,4,4,0,0,1,.28-.5.5.5,0,0,1,.47-.24c.13,0,.3,0,.52,0a4.56,4.56,0,0,1,.6.18,2,2,0,0,1,.48.3.54.54,0,0,1,.2.44.7.7,0,0,1-.13.42,2.45,2.45,0,0,1-.24.38,2.28,2.28,0,0,0-.27.39.75.75,0,0,0-.13.42.36.36,0,0,0,.16.29,3.28,3.28,0,0,1,.37.28,4.89,4.89,0,0,1,.46.51,2,2,0,0,1,.33.9s0,.07.09.15a.3.3,0,0,0,.07.14,1.71,1.71,0,0,0,.68-1.13c.06-.48.13-1,.15-1.49a12.86,12.86,0,0,1,.16-1.45,1.45,1.45,0,0,1,.61-1.06h1a3.64,3.64,0,0,1,.66,0,2.67,2.67,0,0,1,.6.11.61.61,0,0,1,.37.31s0,.13,0,.26v.25a6.43,6.43,0,0,1-.08,1.07,5.69,5.69,0,0,0-.09,1.08v.24a.48.48,0,0,0,0,.18l.29.22h4.55l.11.13a2.11,2.11,0,0,0,.18.24.38.38,0,0,1,.08.16l.07.13v1.61a.54.54,0,0,1-.2.41,1.86,1.86,0,0,1-.42.33l-.44.38a1,1,0,0,0-.26.5,12.43,12.43,0,0,1-.44,1.61c-.2.59-.42,1.21-.62,1.83s-.37,1.21-.5,1.78a5.6,5.6,0,0,0-.22,1.5v.41a.47.47,0,0,0,.15.36,1.56,1.56,0,0,1,.35.33,6.94,6.94,0,0,1,.53.55l.53.52a3.43,3.43,0,0,1,.35.36l.29.19.33.27a1.4,1.4,0,0,1,.31.28.55.55,0,0,1,.13.36.86.86,0,0,1,0,.22c-.07.08-.16.22-.31.39s-.29.38-.46.6a8,8,0,0,0-.53.61,3,3,0,0,1-.46.44h-.07a.57.57,0,0,1-.31-.09c-.11,0-.22-.13-.35-.19s-.24-.16-.35-.25l-.24-.19c-.07-.07-.2-.2-.38-.36l-.59-.52c-.2-.2-.38-.38-.57-.55a2.55,2.55,0,0,0-.38-.33.21.21,0,0,0-.13,0,1.55,1.55,0,0,0-1,.42c-.31.29-.64.6-1,.93a10.32,10.32,0,0,1-1,.9,1.79,1.79,0,0,1-1.15.42h-.13l-1-1s0,0-.13,0a.87.87,0,0,0-.36.09,1.23,1.23,0,0,0-.24.22c-.09.06-.17.13-.28.22a.56.56,0,0,1-.31.09,1.13,1.13,0,0,1-.51-.16c-.2-.13-.39-.24-.57-.37a2.05,2.05,0,0,1-.48-.35l-.2-.16s-.09,0-.2,0h-.18a3.4,3.4,0,0,0-1.21.22c-.37.15-.77.33-1.16.53s-.82.37-1.21.53a4.3,4.3,0,0,1-1.28.22.86.86,0,0,1-.57-.2,3.34,3.34,0,0,1-.37-.51,6.08,6.08,0,0,1-.25-.64c-.06-.22-.13-.41-.17-.57A.54.54,0,0,1,110.26,82.81Zm4.23-3.28a1,1,0,0,0,.57.15.9.9,0,0,0,.59-.2.75.75,0,0,0,.25-.59c0-.2-.07-.33-.25-.37a1.59,1.59,0,0,0-.48-.07,2,2,0,0,0-.62.09c-.19,0-.3.2-.3.46A.6.6,0,0,0,114.49,79.53Zm1.63-3.72a1.53,1.53,0,0,0,.57.18,3.92,3.92,0,0,0,.68,0,4.65,4.65,0,0,1,.48,0h.91a2.74,2.74,0,0,0,.92-.16.72.72,0,0,0,0-.22,1.12,1.12,0,0,0-.11-.5l-.26-.42a2.58,2.58,0,0,1-.29-.46,1.81,1.81,0,0,1-.11-.62h0s0,0,0,0a1,1,0,0,0-.23.11l0,0h-.24a.82.82,0,0,1-.44-.11l-.35-.28a1.51,1.51,0,0,0-.36-.24.66.66,0,0,0-.41-.14c-.09,0-.2.11-.33.29a3.58,3.58,0,0,0-.33.68,7.59,7.59,0,0,0-.25.77,3.75,3.75,0,0,0-.11.57A.56.56,0,0,0,116.12,75.81Zm2.24,5.65a1.69,1.69,0,0,0,.37.29,1.93,1.93,0,0,0,.44.2,2,2,0,0,0,.42.06,1.82,1.82,0,0,0,.93-.26,9.17,9.17,0,0,0,.88-.66c.26-.24.53-.51.77-.77s.44-.51.59-.68a.6.6,0,0,0,.16-.29c0-.09,0-.2,0-.31s0-.11,0-.17v-.11l-.73-2.05a.53.53,0,0,0-.24-.28,1.84,1.84,0,0,0-1,.1.72.72,0,0,0-.27.36,1.66,1.66,0,0,0-.11.53,2.45,2.45,0,0,1-.13.61.43.43,0,0,1-.31.35,4.19,4.19,0,0,1-.46.16,2.41,2.41,0,0,0-.49.2.88.88,0,0,0-.37.46c0,.06,0,.17-.09.33s-.11.31-.2.5-.13.38-.17.55a1.19,1.19,0,0,0-.11.38s0,0,0,.09A.6.6,0,0,0,118.36,81.46Zm.15-10.21a2.77,2.77,0,0,0,.45.31,2.42,2.42,0,0,0,.52.24,1.13,1.13,0,0,0,.42.09.51.51,0,0,0,.55-.35,2,2,0,0,0,.13-.7v-.25a.16.16,0,0,0-.15-.19,2.74,2.74,0,0,0-.35,0l-.55,0c-.18,0-.36,0-.53.05a2.91,2.91,0,0,0-.33,0,.84.84,0,0,0-.27.07.3.3,0,0,0-.06.22A.62.62,0,0,0,118.51,71.25Zm5.62,1.48c0,.28.06.57.11.86a4.66,4.66,0,0,0,.24.77.5.5,0,0,0,.42.33c.17,0,.28-.11.39-.36a3.2,3.2,0,0,0,.24-.79c0-.28.09-.57.14-.86s0-.48,0-.59a.57.57,0,0,0-.31-.53,1,1,0,0,0-.57-.15.77.77,0,0,0-.57.15.81.81,0,0,0-.18.57C124.08,72.24,124.1,72.44,124.13,72.73Z"/><path d="M134.71,82.3a5.66,5.66,0,0,0,.37-.59c.26-.53.57-1.1.95-1.74s.68-1.3,1-2,.57-1.37.81-2a6.37,6.37,0,0,0,.33-1.94c0-.17,0-.33-.17-.39a.62.62,0,0,0-.4-.13,5.45,5.45,0,0,0-1.34.15,5.45,5.45,0,0,1-1.34.15.69.69,0,0,1-.58-.3,5,5,0,0,1-.13-1c0-.3,0-.63,0-1v-.59l.15-.14s.05,0,.14,0l.35,0a3.69,3.69,0,0,1,.37-.05,2,2,0,0,1,.31,0c.11,0,.29,0,.55,0s.55,0,.86-.05.57,0,.83,0,.47,0,.55,0A.87.87,0,0,0,139,70a1.73,1.73,0,0,0,.33-.79,4.57,4.57,0,0,0,.09-1c0-.35,0-.68,0-1s.05-.6.09-.84.13-.35.29-.39h.66a6.92,6.92,0,0,0,.72,0,4.62,4.62,0,0,1,.84,0,1.56,1.56,0,0,1,.7.22.59.59,0,0,1,.31.57,5.19,5.19,0,0,1-.15,1.32,5.16,5.16,0,0,0-.18,1.3c0,.06,0,.13,0,.24v.17L143,70a10,10,0,0,1,2.27.35,3.82,3.82,0,0,1,1.54.88,3.27,3.27,0,0,1,.9,1.52A7.43,7.43,0,0,1,148,75c0,.6,0,1.26-.05,2s-.11,1.39-.19,2.09a15.05,15.05,0,0,1-.47,2,6.08,6.08,0,0,1-.85,1.69,4.37,4.37,0,0,1-1.39,1.17,4.53,4.53,0,0,1-2,.44,8.17,8.17,0,0,1-1.38-.11,1.59,1.59,0,0,1-.86-.42,1.45,1.45,0,0,1-.44-.86,5.86,5.86,0,0,1-.13-1.41,1.25,1.25,0,0,1,0-.22v-.22s.06,0,.13-.09l.15-.06h.07a6.51,6.51,0,0,1,.88.06,3.87,3.87,0,0,0,.88.09h.81a1.59,1.59,0,0,0,1.08-1,6.14,6.14,0,0,0,.51-1.76,16.11,16.11,0,0,0,.18-1.93V75.06a2.4,2.4,0,0,0-.49-1.61,2,2,0,0,0-1.58-.57,1.43,1.43,0,0,0-1.15.84,10.42,10.42,0,0,0-1,2.13c-.3.84-.59,1.76-.85,2.75s-.55,1.92-.84,2.78a13,13,0,0,1-.84,2.11c-.28.57-.61.86-1,.86a4.71,4.71,0,0,1-.7-.11,5.09,5.09,0,0,1-.92-.27,3.37,3.37,0,0,1-.77-.44.74.74,0,0,1-.33-.57A1.14,1.14,0,0,1,134.71,82.3Zm13.59-13,.42-.26a3.07,3.07,0,0,0,.42-.27.57.57,0,0,0,.2-.46,1.68,1.68,0,0,0-.11-.55q-.14-.22-.27-.48c-.11-.16-.19-.31-.28-.47a1.24,1.24,0,0,1-.11-.52.72.72,0,0,1,.11-.4,1.23,1.23,0,0,1,.33-.26,1.47,1.47,0,0,1,.42-.2,1.15,1.15,0,0,1,.39-.07.8.8,0,0,1,.6.33,3.77,3.77,0,0,1,.5.75,6.54,6.54,0,0,1,.4.79c.11.24.17.42.2.49v.15a1.08,1.08,0,0,1-.09.44,1.27,1.27,0,0,0-.07.44v.29c.18.37.44.85.79,1.43s.66,1.19,1,1.8.6,1.28.84,1.92a5.36,5.36,0,0,1,.35,1.69.77.77,0,0,1-.35.59,2.85,2.85,0,0,1-.79.49,6.49,6.49,0,0,1-.91.35,2.53,2.53,0,0,1-.61.13,2,2,0,0,1-.27-.48l-.59-1.23c-.24-.51-.48-1.06-.77-1.65s-.55-1.19-.81-1.74-.49-1.06-.66-1.5-.33-.75-.4-.92a.3.3,0,0,1,0-.09v-.11A.45.45,0,0,1,148.3,69.34Zm2.91-4.07a.44.44,0,0,1,.15-.37,1,1,0,0,1,.35-.29,1.85,1.85,0,0,1,.44-.18,1.46,1.46,0,0,1,.4,0,.89.89,0,0,1,.59.26,7.27,7.27,0,0,1,.53.66,6.08,6.08,0,0,1,.38.77,2.56,2.56,0,0,1,.13.64.71.71,0,0,1-.42.68,1.58,1.58,0,0,1-.86.25.57.57,0,0,1-.37-.09,3.85,3.85,0,0,1-.29-.38l-.2-.35-.3-.53c-.14-.19-.22-.37-.33-.52a3.79,3.79,0,0,1-.18-.36A.44.44,0,0,1,151.21,65.27Z"/><path d="M19.35,106.12l-2.12-4.28a.23.23,0,0,1,0-.16v-.32a6.07,6.07,0,0,1,.52-1.08c.36-.64.84-1.44,1.36-2.4s1.16-2,1.8-3.08,1.24-2.16,1.84-3.16,1.08-1.88,1.48-2.6.68-1.16.76-1.32.28-.44.4-.48a1.39,1.39,0,0,1,.52-.08,6.7,6.7,0,0,1,2.68.56,3.39,3.39,0,0,1,1.76,1.88.64.64,0,0,0,.12.32.89.89,0,0,0,.12.2h8c.32,0,.48-.16.48-.52a6.84,6.84,0,0,1,.12-1.24,1.91,1.91,0,0,1,.72-1.16,3.49,3.49,0,0,1,2.28-.56h1.76a1.23,1.23,0,0,1,.72.76,6.19,6.19,0,0,1,.24,1.24c.08.4.16.8.24,1.12a.64.64,0,0,0,.64.48h7.76l.2.16a1.31,1.31,0,0,0,.32.24c.08,0,.12.12.2.16a.5.5,0,0,0,.08.12v3.72c0,.24-.12.4-.44.52s-.64.16-1,.24a5.24,5.24,0,0,0-1.08.24.94.94,0,0,0-.68.6c-.08.2-.16.44-.28.72s-.24.56-.36.88a3.58,3.58,0,0,0-.32.92,3.53,3.53,0,0,0-.12.84,1.8,1.8,0,0,0,.2.68.71.71,0,0,0,.6.36h4.28V105s0,.09-.12.17l-.16.12a2.73,2.73,0,0,1-.28.2l-.24.07H29.75l-.2-.07c-.16-.08-.24-.16-.32-.2a.55.55,0,0,0-.16-.12c-.08-.08-.12-.13-.12-.17v-4l.28-.24a4.64,4.64,0,0,1,1.08,0,10.68,10.68,0,0,0,1.6,0,4,4,0,0,0,1.48-.4A1.07,1.07,0,0,0,34,99.32a6.34,6.34,0,0,0-.36-2.64,1.89,1.89,0,0,0-1-.84c-.4-.12-.8-.2-1.2-.28a1.79,1.79,0,0,1-1.2-.92c0-.08,0-.24,0-.44a3.09,3.09,0,0,1-.08-.6,4,4,0,0,1-.08-.64c0-.24-.08-.36-.08-.44a1,1,0,0,0-.16-.44q-.06-.12-.36-.12a.78.78,0,0,0-.32,0,.68.68,0,0,0-.24.24c-.12.28-.32.64-.56,1.08s-.44.88-.64,1.32-.4.8-.56,1.12l-.24.48v27c0,.2-.16.4-.48.64a8,8,0,0,1-.72.4H25a6.1,6.1,0,0,1-.72,0h-.56a3.55,3.55,0,0,1-.92,0A2.59,2.59,0,0,1,22,124a.57.57,0,0,1-.36-.56V106.12Zm13.08,2.39h20L53,109v14.4l-.52.56H48.15a5,5,0,0,0-.52-.4,5,5,0,0,1-.52-.4,2.38,2.38,0,0,0-.32-.16.62.62,0,0,0-.24-.12H38a1.52,1.52,0,0,1-.24.2,4.25,4.25,0,0,1-.44.36c-.12.12-.28.2-.4.32a1.52,1.52,0,0,0-.24.2,1,1,0,0,1-.28.12,1,1,0,0,1-.28.12H33a1.44,1.44,0,0,1-.6-.32c-.32-.2-.44-.36-.44-.48V109Zm4.84,7.56a2.27,2.27,0,0,0,.12.72,1.57,1.57,0,0,0,.32.56.7.7,0,0,0,.6.24h8a.63.63,0,0,0,.6-.28,1.68,1.68,0,0,0,.36-.56,4.51,4.51,0,0,0,.12-.72v-1.2a4.51,4.51,0,0,0-.12-.72,1.68,1.68,0,0,0-.36-.56.7.7,0,0,0-.6-.24H38.55a1,1,0,0,0-1.12.72,4.39,4.39,0,0,0-.2,1.4A4.15,4.15,0,0,0,37.27,116.07Zm3.32-15.59a10.9,10.9,0,0,0,1.28.08,2.87,2.87,0,0,0,2.64-1.12,5.43,5.43,0,0,0,.76-3.16,1.38,1.38,0,0,0,0-.36v-.2l-.52-.28h-5.6c-.2,0-.32.12-.32.36v.44A6,6,0,0,0,39,98c.16.52.36,1.12.6,1.76A1.79,1.79,0,0,0,40.59,100.48Z"/><path d="M61.49,109.35a3.64,3.64,0,0,1,.77-.31,4.87,4.87,0,0,0,.84-.28,1,1,0,0,0,.57-.57v-1.26c0-1.63-.05-3.26-.16-4.86s-.15-3.24-.15-4.86v-.77l.31-.29a.71.71,0,0,1,.2,0,2.3,2.3,0,0,1,.41,0,4.91,4.91,0,0,1,.53,0c.2,0,.35,0,.46,0h.4a2.72,2.72,0,0,1,.42,0,.48.48,0,0,1,.35.26,20.71,20.71,0,0,1,.18,2.62c0,.86,0,1.74,0,2.62s0,1.74.06,2.6a19,19,0,0,0,.33,2.57.39.39,0,0,0,.22.27,1.12,1.12,0,0,0,.29,0,1.81,1.81,0,0,0,.84-.22,1.7,1.7,0,0,1,.85-.24.62.62,0,0,1,.53.31,1.86,1.86,0,0,1,.33.66,3.64,3.64,0,0,1,.16.77c0,.24,0,.44,0,.55a.55.55,0,0,1-.16.37,4,4,0,0,1-.28.29l-1.59.68c-.61.26-1.25.53-1.91.83l-2,.84-1.83.73h-.13a.75.75,0,0,1-.6-.31,2.09,2.09,0,0,1-.37-.71,3.77,3.77,0,0,1-.18-.85c0-.29,0-.53,0-.69A.72.72,0,0,1,61.49,109.35Zm6.38,2.82a6,6,0,0,1,.95-.6l1.07-.52a4,4,0,0,0,.82-.53,16.91,16.91,0,0,0,2.57-3.1,16,16,0,0,0,1.65-3.35,20.25,20.25,0,0,0,1-3.65c.25-1.28.44-2.6.64-4l.31-.29.22,0h.77c.22,0,.44,0,.66,0l.64,0a.72.72,0,0,1,.35.11l.29.29v.2a1.47,1.47,0,0,1,0,.28,16.37,16.37,0,0,1-.42,3.68c-.26,1.25-.57,2.46-.92,3.61a3,3,0,0,1-.25.66c-.11.22-.19.46-.3.72s-.18.49-.25.73a3.18,3.18,0,0,0-.11.68,2,2,0,0,0,.31,1.06,4.85,4.85,0,0,0,.77.9c.31.29.64.55,1,.84a10.33,10.33,0,0,1,1,.83,4.17,4.17,0,0,1,.75.9,1.89,1.89,0,0,1,.31,1,1.38,1.38,0,0,1-.24.64,5.29,5.29,0,0,1-.62.74,5.8,5.8,0,0,1-.75.6,1.44,1.44,0,0,1-.66.24.84.84,0,0,1-.57-.29c-.17-.22-.39-.46-.59-.77a11.08,11.08,0,0,1-.66-1c-.22-.35-.42-.68-.64-1a6.69,6.69,0,0,0-.59-.77.79.79,0,0,0-.55-.28H75.4L74.32,112a17.86,17.86,0,0,1-1.46,1.41,9.76,9.76,0,0,1-1.6,1.21,3.09,3.09,0,0,1-1.56.5,1.32,1.32,0,0,1-.71-.26,5,5,0,0,1-.75-.59,3.29,3.29,0,0,1-.55-.75,1.51,1.51,0,0,1-.24-.68A.89.89,0,0,1,67.87,112.17Zm.79-13.89a3.73,3.73,0,0,1,.71-.44,6.09,6.09,0,0,1,.77-.28,2.47,2.47,0,0,1,.48-.11c.22,0,.51.2.9.61a13,13,0,0,1,1.13,1.39,13.89,13.89,0,0,1,.92,1.54,3.18,3.18,0,0,1,.37,1.1.85.85,0,0,1-.28.57,4.22,4.22,0,0,1-.73.55,7.75,7.75,0,0,1-.81.42,1.78,1.78,0,0,1-.62.15.78.78,0,0,1-.53-.35,4,4,0,0,1-.48-.79c-.16-.29-.29-.57-.42-.84s-.2-.46-.24-.52-.11-.18-.24-.38-.27-.42-.42-.66-.29-.44-.42-.64-.22-.33-.24-.37a2.21,2.21,0,0,1-.13-.24.45.45,0,0,1,0-.22A.66.66,0,0,1,68.66,98.28Z"/><path d="M92.91,111.07c0-.07.06-.11.08-.11s.05-.07.11-.16l.11-.13V95.27l.38-.29h2.49a.43.43,0,0,1,.35.2.6.6,0,0,1,.15.38v5l.38.37h6.6l.13.07c.06.07.13.11.15.15s.07,0,.09.09l.07,0v2.35l-.29.37H97.24l-.2.09a.84.84,0,0,0-.24.14.23.23,0,0,1-.09.06l0,.07v6.47l.29.35h8.2a.36.36,0,0,1,.29.22.53.53,0,0,1,.15.31v2a.79.79,0,0,1,0,.13,1.25,1.25,0,0,1-.09.16s0,.06-.07.11-.06,0-.08,0H85.8l-.07,0a1.09,1.09,0,0,0-.06-.11.51.51,0,0,1-.11-.16c0-.06,0-.11,0-.13v-1.91a.52.52,0,0,0,0-.13,1,1,0,0,1,.11-.16.57.57,0,0,1,.15-.22c.07-.11.11-.15.13-.15h6.89S92.88,111.13,92.91,111.07Z"/><path d="M111,105.74c0-.63,0-1.36.09-2.17s.09-1.66.15-2.51.18-1.63.31-2.36a8.28,8.28,0,0,1,.51-1.74c.2-.46.46-.68.77-.68l.66,0a5.47,5.47,0,0,1,.81,0,1.88,1.88,0,0,1,.68.18.53.53,0,0,1,.31.5,11.22,11.22,0,0,1-.2,2.14c-.15.7-.3,1.4-.46,2.13s-.33,1.41-.46,2.11a10.56,10.56,0,0,0-.22,2.16,2.09,2.09,0,0,0,0,.35.23.23,0,0,0,.25.16.46.46,0,0,0,.37-.16.49.49,0,0,1,.37-.15.75.75,0,0,1,.33.11,1.39,1.39,0,0,1,.4.22,2,2,0,0,1,.33.31.58.58,0,0,1,.11.24V107c-.09.33-.2.68-.31,1.1s-.24.81-.37,1.25-.22.88-.33,1.3-.22.84-.31,1.19a11,11,0,0,0-.22,1.27,1.5,1.5,0,0,1-.2.71.78.78,0,0,1-.57.31,12,12,0,0,1-1.45.06.87.87,0,0,1-.82-.55,4.83,4.83,0,0,1-.41-1.25A10.32,10.32,0,0,1,111,111v-2.18c0-.29,0-.57,0-.88v-2.16Zm6.45,3.57a6.73,6.73,0,0,1,.06-.88,3.15,3.15,0,0,1,.18-.79c.07-.22.2-.33.37-.33H120c.22,0,.35.06.39.22a2.52,2.52,0,0,1,.09.57,4,4,0,0,0,.07.75,1.44,1.44,0,0,0,.33.74,2.24,2.24,0,0,0,.94.55,4.88,4.88,0,0,0,1.81.25,14.61,14.61,0,0,0,2.2-.16,15,15,0,0,1,2.2-.15,2.7,2.7,0,0,1,.37,0c.18,0,.25.11.25.29v2.48c0,.22-.14.35-.42.46a3,3,0,0,1-.93.2,6.68,6.68,0,0,1-1,.07h-.75a5.62,5.62,0,0,1-.6,0h-1.21c-.66,0-1.36,0-2.11-.11a6.79,6.79,0,0,1-2-.48,3.92,3.92,0,0,1-1.54-1.1,3.12,3.12,0,0,1-.62-2.05C117.48,109.79,117.46,109.59,117.46,109.31ZM127.91,98.2v2.64a.56.56,0,0,1-.11.08,1,1,0,0,1-.2.07,2.37,2.37,0,0,1-.46.11l-.42,0h-6.89a1.69,1.69,0,0,1-.28,0,2.76,2.76,0,0,1-.4-.06,1.29,1.29,0,0,1-.33-.18.4.4,0,0,1-.15-.33v-2.2a.38.38,0,0,1,.15-.29.35.35,0,0,1,.29-.15h8.49Z"/><path d="M142.23,109.57a2.45,2.45,0,0,1,1.74-.66,2.23,2.23,0,0,1,.9.18,2.61,2.61,0,0,1,.79.44,2.16,2.16,0,0,1,.53.7,2.12,2.12,0,0,1,.2.9,2.17,2.17,0,0,1-.68,1.72,2.48,2.48,0,0,1-1.74.62,2.72,2.72,0,0,1-1.74-.58,2,2,0,0,1-.7-1.65A2.11,2.11,0,0,1,142.23,109.57Zm-.29-7.26a39.76,39.76,0,0,1-.26-4.49V97.6a.61.61,0,0,1,0-.28.41.41,0,0,1,.14-.2.32.32,0,0,1,.26-.09h3.67a.31.31,0,0,1,.29.13.64.64,0,0,1,.13.29,1.46,1.46,0,0,1,0,.35v.26a38.46,38.46,0,0,1-.29,4.43c-.2,1.47-.4,2.92-.6,4.38a2.72,2.72,0,0,1-.22.37.45.45,0,0,1-.37.2h-1.61a.47.47,0,0,1-.41-.27,1.6,1.6,0,0,1-.18-.46C142.34,105.26,142.14,103.78,141.94,102.31Z"/><path d="M153.86,123.39q-12.29,8.69-24,18.15c-.47.37-.33.65.2.77a2.9,2.9,0,0,0,2.05-.55q11.71-9.45,24-18.14c.5-.36.29-.67-.21-.78a3,3,0,0,0-2,.55Z"/><path d="M119.33,148a1.16,1.16,0,0,1,0,.18l0-.27a.85.85,0,0,1,0,.23l.09-.26a.78.78,0,0,1-.11.2l.18-.25a1.22,1.22,0,0,1-.15.17l.25-.23a1.09,1.09,0,0,1-.17.13l.32-.19a.66.66,0,0,1-.19.09l.38-.14a1.39,1.39,0,0,1-.19.06l.39-.07h0l.33.06a.44.44,0,0,1-.15-.05l.28.13-.15-.09.21.18a.52.52,0,0,1-.1-.11.67.67,0,0,0-.35-.25,1,1,0,0,0-.47-.14,1.82,1.82,0,0,0-.57,0,1.65,1.65,0,0,0-.57.18l-.32.18a1.41,1.41,0,0,0-.43.48l-.09.27a.66.66,0,0,0,.14.5l.08.1a3.33,3.33,0,0,0,.28.25,1.74,1.74,0,0,0,.48.22,2.94,2.94,0,0,0,1.53,0l.11,0c.16-.06.33-.11.49-.18s.27-.16.41-.24l.11-.07a2,2,0,0,0,.84-1.2.5.5,0,0,0,0-.12,1.38,1.38,0,0,0-.06-.53.51.51,0,0,0-.22-.33.77.77,0,0,0-.38-.22,1.31,1.31,0,0,0-.52-.07,1.64,1.64,0,0,0-.58.06,2,2,0,0,0-1,.56.84.84,0,0,0-.24.78Z"/><path d="M124.24,1.82l19.08,16.24c.89.76,3.47-.55,2.25-1.59L126.49.23c-.89-.76-3.47.55-2.25,1.59Z"/><path d="M148.1,24.71h.06l-.32,0a2.21,2.21,0,0,1,.49.09l-.27-.08a2.67,2.67,0,0,1,.71.32l-.19-.12a2.58,2.58,0,0,1,.79.82l-.1-.16,0,.05a.34.34,0,0,0,.19.23.72.72,0,0,0,.36.14,2.64,2.64,0,0,0,1.08-.08,2.44,2.44,0,0,0,1-.47l.19-.2a.48.48,0,0,0,.1-.4,3.16,3.16,0,0,0-.48-.67,3.61,3.61,0,0,0-.69-.53,3.69,3.69,0,0,0-1.79-.48,1.78,1.78,0,0,0-.56.06,2.33,2.33,0,0,0-.57.17,1.58,1.58,0,0,0-.46.25,1,1,0,0,0-.32.29c-.11.17-.19.4,0,.56a1.26,1.26,0,0,0,.78.23Z"/></svg>