<svg id="レイヤー_1" data-name="レイヤー 1" xmlns="http://www.w3.org/2000/svg" viewBox="0 0 167.48 144.31"><defs><style>.cls-1{fill:#fff;}</style></defs><path class="cls-1" d="M133.06,18.94a19.93,19.93,0,0,1,1.44,2.39l-1.36-2.79a22.62,22.62,0,0,1,2.12,8.32l-.22-3.1a33,33,0,0,1-1.3,11l.9-3.08a34,34,0,0,1-4,8.77l1.89-2.91A25.71,25.71,0,0,1,129,41.85l2.76-2.6a28.14,28.14,0,0,1-4.4,3.36l3.51-2.14a32.22,32.22,0,0,1-5.32,2.58l4.13-1.53a41,41,0,0,1-7.14,1.87l4.35-.74a115.3,115.3,0,0,1-16.29,1.1l-20,.5c-13.77.34-27.78.52-41.09,4.52s-25.18,11-34.35,21.29A60.25,60.25,0,0,0,1.32,122.62,42.18,42.18,0,0,0,9,139.49c2.16,2.77,5.72,4.21,9.1,4.66A22.66,22.66,0,0,0,30.63,142c3.22-1.7,6.77-4.12,8.16-7.65,1.17-3,1.42-6.27-.68-9a30.8,30.8,0,0,1-3.39-5.47l1.36,2.79a43,43,0,0,1-3.83-15.42l.22,3.1a53.62,53.62,0,0,1,2-18.26l-.9,3.07a49.45,49.45,0,0,1,5.82-12.61l-1.89,2.91a50.36,50.36,0,0,1,7.54-9l-2.76,2.59a52.11,52.11,0,0,1,8.36-6.34L47.1,74.87A53.82,53.82,0,0,1,56,70.58l-4.13,1.54A69.17,69.17,0,0,1,63.62,69l-4.34.74c9.51-1.61,19.19-1.64,28.81-1.88s19-.23,28.52-.78c12-.69,23.84-3.69,33.68-10.79a42.24,42.24,0,0,0,11.15-12.41,44,44,0,0,0,4.8-12.1c2.43-8.94,1.41-19.29-4-27-2-2.78-5.9-4.23-9.1-4.65a22.66,22.66,0,0,0-12.58,2.17c-3.22,1.7-6.77,4.12-8.16,7.64-1.21,3-1.31,6.15.68,9Z"/></svg>