<svg id="レイヤー_1" data-name="レイヤー 1" xmlns="http://www.w3.org/2000/svg" viewBox="0 0 177.78 133.34"><defs><style>.cls-1{fill:#fff;}</style></defs><path class="cls-1" d="M36.57,120.41C33,114.29,31.86,107,31.93,100l0,2.14A59.48,59.48,0,0,1,38,76.39l-1.13,2.23a36.3,36.3,0,0,1,6-8.51l-2.08,2.18a36.75,36.75,0,0,1,5.13-4.43L43,69.9a35.64,35.64,0,0,1,4.49-2.67L43.9,69a38.08,38.08,0,0,1,4.34-1.79l-4.16,1.4a45.56,45.56,0,0,1,5.16-1.37l-4.31.87a59.09,59.09,0,0,1,7-.9l-4,.27a142.53,142.53,0,0,1,21.37.61l-3.54-.3A222.33,222.33,0,0,1,100,73.6c8.32,2.08,16.85,3.93,25.48,3.7A68.32,68.32,0,0,0,147.7,73a44.25,44.25,0,0,0,8.35-4.16,43.54,43.54,0,0,0,7.3-5.65,45.23,45.23,0,0,0,5.93-7,52.28,52.28,0,0,0,3.85-7.24,51.31,51.31,0,0,0,3.66-12.62c1.72-10.45,1.35-21.87-2.32-31.88-.93-2.55-3.64-3.57-6.08-4a27,27,0,0,0-11.86.82c-3.72,1.08-7.8,2.53-10.68,5.22-1.64,1.52-4.18,4-3.25,6.55a57.08,57.08,0,0,1,3.18,20.49l0-2.15c-.18,8.13-1.69,16.42-5.38,23.72l1.13-2.22a34.38,34.38,0,0,1-5.44,7.77l2.08-2.19a28.94,28.94,0,0,1-3.83,3.33l2.91-2a25.65,25.65,0,0,1-3.27,2l3.6-1.78a26.88,26.88,0,0,1-3.14,1.29l4.17-1.4a33.06,33.06,0,0,1-3.25.86l4.31-.87a34,34,0,0,1-4.26.55l4-.26a45,45,0,0,1-6.57-.11l3.54.31a94.13,94.13,0,0,1-13.54-2.42c-6.17-1.49-12.32-3-18.57-4.1-7.9-1.41-15.85-2.29-23.84-2.93a148.73,148.73,0,0,0-18.16-.59,94.84,94.84,0,0,0-11,.94A90.17,90.17,0,0,0,35.9,55a56.78,56.78,0,0,0-10.23,4.8,49.39,49.39,0,0,0-9.39,7,48.68,48.68,0,0,0-6.45,7.38A56.56,56.56,0,0,0,5.6,81.93,58,58,0,0,0,1.18,95.77a66.38,66.38,0,0,0-.9,18.45A35.46,35.46,0,0,0,4.69,129a3.81,3.81,0,0,0,2.15,2.52A7.29,7.29,0,0,0,10.78,133a27,27,0,0,0,11.86-.83c3.72-1.08,7.8-2.53,10.68-5.21l2.09-2.19a5.17,5.17,0,0,0,1.16-4.36Z"/></svg>