<svg id="レイヤー_1" data-name="レイヤー 1" xmlns="http://www.w3.org/2000/svg" viewBox="0 0 441.15 27.17"><defs><style>.cls-1{fill:#f0908a;}</style></defs><path class="cls-1" d="M20.73,2.11,22,3.39V5H5.34A13.42,13.42,0,0,1,4.26,7.39H7.07v.32h8.29V7.39h4.48c0,2.59-.1,4.83-.29,6.75L20.73,13,22,14.21v1.56H19.33a31.65,31.65,0,0,1-1,4.64h1.08l1.28-1.28L22,20.41V22H17.85C16.16,26.3,14,26.59,14,26.59s.45-.77.84-4.61h-8a4.93,4.93,0,0,1,0,.67h-3c-.1-2.72-.16-5-.2-6.88H1.34V14.21H3.52c-.06-2.79-.13-4.48-.16-5.51A7.61,7.61,0,0,1,0,11.23,35.72,35.72,0,0,0,2.05,0L6.14.58a27,27,0,0,1-.38,2.81H19.45ZM6.88,20.41H9.25c0-.8,0-2.2.06-4.64H6.94C6.91,17.12,6.91,18.65,6.88,20.41Zm.1-6.2H9.34l.1-4.93H7C7,10.3,7,11.87,7,14.21Zm5.56-4.93c.07,1.92.13,3.55.16,4.93h2.59c0-1.48.07-3.11.07-4.93Zm2.69,6.49H12.77c.06,2.37.13,3.81.16,4.64h2C15.07,19.13,15.17,17.6,15.23,15.77ZM27.68,26.69S31,21.37,30.24,1.38h4.48v.51h5.37V1.38h3.72c.35,14.87.44,25,.44,25-3.9.35-7.16.45-7.16.45V23.33s.93,0,2.78.06c0-1.5,0-3.55.07-6.14H33.41C31.36,26.81,27.68,26.69,27.68,26.69Zm6-11h6.24c0-1.6,0-3.39.06-5.31H34.37C34.21,12.35,34,14.11,33.7,15.68Zm.8-6.91H40c0-1.64.06-3.43.06-5.31H34.72C34.69,5.41,34.62,7.17,34.5,8.77ZM54.37,9C52.9,9,52,9,52,9V4.9s2.78,0,5.21.22c.93,8.93,1.12,19.39,1.12,19.39H53.82S54.24,16.38,54.37,9Zm22.62,7c.06,4.45-2.08,8.58-7.42,8.58s-7.49-4.16-7.43-8.61c.1-5.12,3.11-10.62,7.43-10.62S76.89,10.81,77,15.93Zm-3.33-1c0-2.59-1.44-5.21-4.09-5.21s-4.07,2.59-4.1,5.18S66.75,20,69.57,20,73.66,17.5,73.66,15ZM88.86,1.82v.55h11.71V1.82h3.72c.32,14.79.41,24.87.41,24.87h-4.35v-.58H88.64c0,.19,0,.38,0,.58H84.93c-.35-14.79-.45-24.87-.45-24.87Zm0,2.12c0,3.23,0,10.2-.19,20.6h11.71c0-3.23.06-10.21.19-20.6Zm1.25,15.77c-.32-7.1-.42-10.94-.42-10.94h3.71v.54h2.82a3.26,3.26,0,0,0,0-.54h3.07c.32,7.13.42,10.94.42,10.94H96v-.77H93.18a6.61,6.61,0,0,0,0,.77Zm3.13-2.34H96c0-1.4.06-3.55.16-6.49H93.34C93.34,12.25,93.31,14.4,93.21,17.37Zm31.27-.7c-.26-3.46-3.62-5.7-7.94-3.78-3.26,1.48-3.65,6.66-1.47,6.92,1.6.19,3-2.34,3.58-6.4l4.07.51c-.74,5.73-3.91,9.57-6.82,9.57-3.13,0-5.09-2.82-5.09-5.92A9.57,9.57,0,0,1,119.2,8a8.51,8.51,0,0,1,9.6,9.79c-.74,4.86-4,7.36-9.76,6.72C122,23.33,124.8,20.8,124.48,16.67ZM134.62,15S136,12.89,136,5.41h4.48C140.48,13.79,134.62,15,134.62,15Zm10.15-7.32h-3.56V6.37h3.56a1.19,1.19,0,0,0,0-.32h4.48c0,18.43-10.88,18.43-10.88,18.43S144.32,21.44,144.77,7.65Zm1.15-4.42,1.47-1.63a3.89,3.89,0,0,1,.83,1.06l1.38-1.54A2.69,2.69,0,0,1,150,5.05,6.87,6.87,0,0,0,148.35,3a2.76,2.76,0,0,1-.58,2.56A7.31,7.31,0,0,0,145.92,3.23Zm9.89,7.1h4.48c0,14.18-7,14.18-7,14.18S155.81,21.37,155.81,10.33ZM166.59,20a14,14,0,0,0,6.3-3.14s-.25,6.63-6.4,7.65h-3.61c-.45-8.64-.58-18.81-.58-18.81h4.48S166.78,12.29,166.59,20Zm13-5.63s5.95.09,17,.41v3c-12.13.22-17,.22-17,.22Zm21.51-8.48s3.42,0,13.63.22c0,17.89-11.75,18.4-11.75,18.4s6.31-3.71,7.17-15.65c-6.65.26-9.05.32-9.05.32ZM216.67,3A2.37,2.37,0,1,1,214.3.67,2.37,2.37,0,0,1,216.67,3Zm-1.28,0a1.09,1.09,0,0,0-2.18,0,1.09,1.09,0,0,0,2.18,0Zm9.31,7.1-2.91.19,0-1.05,2.94-.23c-.06-1.63-.06-2.62-.06-2.62h4.48s0,.83,0,2.34l5.76-.42V8l4.48-.29c.38,6.15-4.64,7.23-4.64,7.23a24,24,0,0,0,.22-5.53l-5.82.38c0,2.27-.07,5.54-.16,9.38,6.78-.35,9.63-.26,9.63-.26v4.13A113.31,113.31,0,0,1,225.21,23C225,18,224.8,13.28,224.7,10.14Zm21.09-.76h2.78a28.94,28.94,0,0,0,.68,5.82S245.79,15.42,245.79,9.38Zm10.05,2.33h3.74c0,12.8-11.45,12.8-11.45,12.8S255.84,20.45,255.84,11.71Zm-5.79-2.33h2.81a30.66,30.66,0,0,0,.64,5.82S250.05,15.42,250.05,9.38Zm16.64.16c5.76.31,5.53,5,5.53,5a14.55,14.55,0,0,0-5.6-1.7Zm16.51.92s2.91,8.39-14.5,13.38l-1-4.35C280.16,16.06,283.2,10.46,283.2,10.46Zm-7.65.61A14.55,14.55,0,0,0,270,9.34L270,6C275.77,6.33,275.55,11.07,275.55,11.07Zm16.8,9.7s1.76,0,7.81.16l-.1-3.36c-3.71.19-5.79.25-5.79.25V15.07s2,0,5.76.1c0-1.38,0-2.6,0-3.56l-7.71.26V9.12s2.94,0,11.52.19c0,0,0,6.85-.61,14.72-7.81.38-10.91.48-10.91.48Zm26.47-9.7a14.53,14.53,0,0,0-5.57-1.73l0-3.33C319.07,6.33,318.82,11.07,318.82,11.07Zm9.91-.61s2.88,8.39-14.49,13.38l-1-4.35C325.66,16.06,328.73,10.46,328.73,10.46Zm19,8.64.71,4.42c-13.25,3.71-17.47-4.19-9.67-9.25a5.38,5.38,0,0,0-2-.7A18.17,18.17,0,0,0,338.05,10h-2.79V8.67h3.08a20.18,20.18,0,0,0,.32-3.55h4.48a9.9,9.9,0,0,1-.65,3.55h1.12l1.29-1.28,1.28,1.28V10h-4.26A10.63,10.63,0,0,1,340,12.48a4.82,4.82,0,0,1,1.41.41c.61-.25,1.25-.51,1.95-.73l.64,1.31c-.38.13-.77.32-1.12.48l1.19,1.31-2.69,2.11a8.2,8.2,0,0,0-1-1.63C337.82,18.4,338.78,21.5,347.74,19.1ZM361.41,1.25h3.71s0,1.15-.22,11.77h-3.08V12.7H359c0,3.52-.07,8.1-.13,14.05h-3.07c-.32-21-.42-25.5-.42-25.5h3.71v.29h2.34Zm.22,6.65H359c0,.93,0,2,0,3.23h2.75C361.73,9.92,361.66,8.86,361.63,7.9Zm-.16-4.8h-2.4c0,.77,0,1.8,0,3.23h2.56Zm-1.53,11.33h8.22l1.25-1.28,1.28,1.28V16h-2c0,.51,0,1.25-.06,2.37l.77-.77,1.28,1.28v1.57h-2.08c0,1.15-.07,2.49-.13,4.16h-2.72c-.1-1.64-.16-3-.19-4.16h-1.44c-1.35,4.09-3.71,4.16-3.71,4.16a13.89,13.89,0,0,0,.86-4.16h-1.34V18.88h1.47q.09-1.24.09-2.88h-1.56Zm4.6,4.45h1c-.06-1.38-.13-2.27-.13-2.88h-.44A22.62,22.62,0,0,1,364.54,18.88Zm7,4.83c0-2.05,0-5.44.1-11h-2.47a.88.88,0,0,0,0,.32H365.5s0-1.12.23-11.77h3.07v.29h3V1.25h3.08c.32,21,.41,25.5.41,25.5-3.07.32-5.63.42-5.63.42V23.65S370.27,23.65,371.58,23.71ZM369,6.33h2.75c0-1,0-2.08,0-3.23h-2.91C368.9,4.32,369,5.38,369,6.33Zm2.69,4.8c0-1,0-2.08,0-3.23H369l.13,3.23Zm12.26,3.65h2.84c.36,8,.45,9.73.45,9.73h-4.06s0-.93.22-9.34a9.7,9.7,0,0,1-4,1.63,26.4,26.4,0,0,0,5.7-12.32l4.25,1.34C388.19,10.56,386,13.25,383.94,14.78Zm18.14-3.87,1.28,1.28v1.57h-3.81c0,.57,0,1.37,0,2.43h1l1.25-1.28L403,16.19v1.57h-3.55c0,.7,0,1.53-.07,2.4h1.09l1.25-1.28L403,20.16v1.57h-3.65c0,.76,0,1.56-.06,2.43h1.5l1.25-1.28,1.28,1.28v1.57h-8.93v.83H391l-.32-11a4.38,4.38,0,0,1-2.37.87A33.41,33.41,0,0,0,391,7.74l3.52,1.38a15.07,15.07,0,0,1-.87,2.59h1v.48H397a10.88,10.88,0,0,0,1.12-4l2.95,1.38a5.77,5.77,0,0,1-2.63,2.59h2.37Zm-1.51-8.29h3.75s0,.45-.26,4.61h-3a1,1,0,0,1,0-.29h-7.65a1,1,0,0,1,0,.29h-3c-.35-3.77-.45-4.61-.45-4.61h3.75s0,.32-.13,2.76h1.63L395.26.7h3.39c.16,2.4.29,3.84.36,4.68h1.82C400.64,3.17,400.57,2.62,400.57,2.62Zm-4.35,21.54c-.06-.83-.09-1.67-.12-2.43h-1.6c0,.76,0,1.56,0,2.43Zm-1.69-4H396c0-.87,0-1.67-.06-2.4h-1.41C394.56,18.46,394.53,19.26,394.53,20.16Zm.06-4h1.31c0-1-.06-1.86-.06-2.43h-1.22C394.62,14.37,394.59,15.17,394.59,16.19Zm28.86,2.27s0-.41,0-1.25H421c0,2.79-.07,5.89-.13,9.38h-3.36c-.1-3.39-.16-6.56-.19-9.38h-2.85c0,.39,0,.8,0,1.25h-3.07c-.32-8.13-.42-13.34-.42-13.34h3.71v.32h2.47l-.07-5h4.07s0,1.66,0,5h2.63a1,1,0,0,1,0-.32h3c.35,8.09.45,13.34.45,13.34Zm-6.2-2.81c-.07-3.4-.1-6.31-.13-8.64h-2.5c0,1.69-.06,4.57-.16,8.64Zm6.24,0c0-1.92.06-4.8.16-8.64h-2.6c0,2.27,0,5.15-.09,8.64Zm16.89,3H437.6c-.61-6.82-.93-13.57-.93-13.57h4.48S440.8,12.8,440.38,18.69Zm-1.47,1.88a2,2,0,0,0-2,2,2,2,0,1,0,2-2Z"/></svg>