<svg id="レイヤー_1" data-name="レイヤー 1" xmlns="http://www.w3.org/2000/svg" viewBox="0 0 205.47 76.18"><defs><style>.cls-1{fill:#f0908a;}</style></defs><path class="cls-1" d="M20.11,2.29h6.3c0,25.92-15.25,25.92-15.25,25.92s4.54-2.34,7.15-11.38A18,18,0,0,0,11.65,15l.09-4.54A10.18,10.18,0,0,1,5.85,14.8S7.78,11.88,7.78,1.39h6.3a16.31,16.31,0,0,1-2.25,8.91c4.37.27,6.26,2.39,7.07,4.23a50.31,50.31,0,0,0,1.17-10h-5V2.75h5Zm16.2,8.64S46.66,10.39,54.45,0l5,3.78a22.1,22.1,0,0,1-6.44,5.89c-.22,3-.67,9.9-.67,18.45H48.87c-.86-6.75-1.4-12.64-1.71-16.24A20.62,20.62,0,0,1,36.31,10.93ZM94,26.64l-6.26.81-.13-2.16a138.63,138.63,0,0,1-16,1.39s5.49-8.28,5.49-24.25h6.3c0,9.81-3,15.88-6,19.53,4.46-.9,7.56-1.35,9.5-1.62A27.14,27.14,0,0,0,85.63,16S92.43,16.24,94,26.64Zm18.22-9.5h-4.54c-1-9.22-1-14.93-1-14.93h5.85S112.59,7.92,112.18,17.14ZM123.79,4.5c1.67,25.6-14,23.62-14,23.62s9.32-5,7.65-23.62Zm14.09,9.36s8.37.13,23.85.58v4.14c-17.06.32-23.85.32-23.85.32Zm36.54,3.33s2.2-3.15,3-10.89h-2.48V4.5h2.61c0-1.12.09-2.34.09-3.65h6.3a29.82,29.82,0,0,1-.18,3.65h4.64l1.8-1.8L192,4.5V6.3h-8.51C181.57,16.6,174.42,17.19,174.42,17.19Zm19.26-6.75a64.29,64.29,0,0,1-.36,8c1.35.36,2.52.68,3.33,1L195.21,25c-.9-.45-2-.94-3.11-1.39-1.3,2.88-3.64,4.54-7.92,4.54-7.15,0-6.21-10-.09-10.62a17.36,17.36,0,0,1,3.06,0c.14-1.89.23-4.23.23-7.06Zm-7.07,11.34a10.67,10.67,0,0,0-2.29-.36,1.67,1.67,0,0,0,0,3.33C185.31,24.75,186.07,24.07,186.61,21.78ZM194,8.46,198.54,4c5.58,5.67,0,11.79,0,11.79A16.42,16.42,0,0,0,194,8.46ZM0,48.73s7.15,0,21.51.32c0,0,0,9.45-.41,22.77A209,209,0,0,1,0,71.91V66.1s5.71-.13,15.75.36c-.23-5.53-.36-10.39-.45-13.54-10,.31-15.3.4-15.3.4Zm36,3.06s3.69,0,18,.32c0,22.5-16.52,21-16.52,21s8.6-3.78,10-17.14L36,56.38Zm17.59-3.24H37.31v-1.8H50L51.75,45l1.8,1.79ZM88.11,71.64l-6.26.81-.13-2.16a138.62,138.62,0,0,1-16,1.39s5.48-8.28,5.48-24.25h6.3c0,9.81-3,15.88-6,19.53,4.46-.9,7.56-1.35,9.5-1.62A27.14,27.14,0,0,0,79.78,61S86.58,61.24,88.11,71.64Zm31.14-6.12,1,6.21c-18.63,5.22-24.57-5.9-13.59-13a8,8,0,0,0-2.84-1,24.51,24.51,0,0,0,1.8-5.08H101.7v-1.8H106a28.32,28.32,0,0,0,.45-5h6.3a14.11,14.11,0,0,1-.9,5h1.57l1.8-1.8,1.8,1.8v1.8h-6a14.64,14.64,0,0,1-2.66,3.55,6.73,6.73,0,0,1,2,.59c.86-.36,1.76-.72,2.75-1l.9,1.85c-.54.18-1.08.45-1.58.67l1.67,1.85-3.78,3a11.19,11.19,0,0,0-1.4-2.3C105.3,64.53,106.65,68.89,119.25,65.52Zm13.54-15.84h11.84l1.8-1.8,1.8,1.8v2.2H132.79Zm15.12,23.44h-6.12v-.4h-2.2v.4h-5.22c-.45-5.62-.58-9.45-.58-9.45h6.11v.45h2.16c0-.18.05-.31.05-.45h5.22C147.78,69.3,147.91,73.12,147.91,73.12ZM134.6,45h8.23l1.8-1.8,1.8,1.8v2.2H134.6Zm0,11.65V54.4h8.23l1.8-1.8,1.8,1.8v2.21Zm0,2.52h8.23l1.8-1.8,1.8,1.8v2.2H134.6Zm7.37,7.2h-2.11l-.13,4.18h2.11C141.84,69.43,141.88,68,142,66.33Zm20.88-4.68s0-.45.18-4h-11l-.18,4H148c-.49-5.36-.63-6.53-.63-6.53h4.82v.36h11v-.36H167c.49,5.36.58,6.53.58,6.53ZM151,62.37h5.31c0,12.28-8.15,13.81-8.15,13.81S151,71.41,151,62.37Zm9.27-17.69-.14,6H163l1.8-1.8,1.8,1.8v2.21h-18V50.67h6.7c-.09-2.48-.22-4.41-.27-6h-6.43v-2.2h6.3c-.09-2.48-.14-3.19-.14-3.19h5.67l0,3.19H163l1.8-1.76,1.8,1.76v2.2Zm3.82,22.37L169,68.31s-.68,2.61-2.21,7.47c0,0-3,0-8.73-.32-.49-7.78-.63-13.09-.63-13.09h5.27s0,2.56-.14,7.51c.36,0,.68,0,1,0C163.89,68.08,164.11,67.05,164.11,67.05ZM182.43,66a4.94,4.94,0,1,1,0-9.86,4.53,4.53,0,0,1,1.84.36c0-1.48,0-3.19,0-5.17H179V49.5h5.26V45.85h6.3c0,1.27,0,2.48-.09,3.65H193l1.8-1.8,1.8,1.8v1.8h-6.21c-.41,5.49-1.44,9.31-3,11.7a8.85,8.85,0,0,0,1.22,3.15c2.29,3.28,7.33,3.1,10.62,1.89-2.39,4.68-7.34,5.85-10.08,4.68-3.6-1.53-4.64-4.37-5-7A5.16,5.16,0,0,1,182.43,66Zm0-3.74c.58,0,1-.4,1.3-1.17-.18-.94-.49-1.48-1.3-1.48A1.33,1.33,0,1,0,182.43,62.23Zm12.24-5.8s7.78-2.7,10.8,4.63l-5.81,2.39A17.25,17.25,0,0,0,194.67,56.43Z"/></svg>