<svg id="レイヤー_1" data-name="レイヤー 1" xmlns="http://www.w3.org/2000/svg" viewBox="0 0 52 52"><defs><style>.cls-1{fill:#fff;stroke:#c6a385;stroke-miterlimit:10;stroke-width:4px;}</style></defs><circle class="cls-1" cx="26" cy="26" r="24"/><path d="M14.88,11.92l-2,11.19c-.17.93,2.72.44,2.88-.42l2-11.2c.16-.93-2.73-.43-2.88.43Z"/><path d="M17.42,13.39a15.34,15.34,0,0,1,4.52-1.46l-1-.19c.08.07,0,.54,0,.64,0,.48,0,1,0,1.45l-.09,2.78q-.11,2.84-.24,5.67l2-1.13c-.15,0-.14,0-.2,0a1.77,1.77,0,0,0-2-.18c-.4.19-1.23.91-.71,1.42a2.58,2.58,0,0,0,1.83.79c.63,0,1.94-.26,2-1.13q.25-4.93.38-9.89a2.28,2.28,0,0,0-.51-1.82c-.7-.67-1.86-.29-2.7-.11a18.94,18.94,0,0,0-4.55,1.6c-.48.24-1.14.84-.71,1.41s1.43.44,2,.18Z"/><path d="M16.67,16.61c.42-.18.86-.35,1.29-.5l.28-.1.19-.06-.19.06c.06,0,.31-.09.38-.11l.28-.09,1.25-.31c-.43.11,0,0,.05,0l.34-.07.68-.11a3.55,3.55,0,0,0,1.1-.36c.18-.09.51-.27.59-.48.18-.54-1-.4-1.19-.37a26.91,26.91,0,0,0-6.09,1.71c-.22.09-1.27.54-.84.91a1.09,1.09,0,0,0,.75.13,3.68,3.68,0,0,0,1.13-.24Z"/><path d="M14.83,19.47A16.86,16.86,0,0,0,21,18.39a2.16,2.16,0,0,0,.81-.45c.1-.11.21-.29.05-.41a1.21,1.21,0,0,0-.75-.11,4.1,4.1,0,0,0-1.13.25l-.53.19c-.12,0-.06,0,.17-.06l-.17.05-.26.07-.51.13c.45-.11.16,0,.05,0l-.3.06a2.12,2.12,0,0,0-.57.08l.19,0-.18,0-.26,0-.52,0a1.22,1.22,0,0,1-.27,0c.33,0-.05,0-.12,0a3.5,3.5,0,0,0-2,.55c-.13.09-.39.25-.34.45s.38.23.52.23Z"/><path d="M34.29,15.25Q23.6,26.76,12.69,38.09a.94.94,0,0,0,.41,1.51,1.89,1.89,0,0,0,2.05-.54Q26,27.72,36.75,16.22a1,1,0,0,0-.41-1.52,1.9,1.9,0,0,0-2.05.55Z"/><path d="M30.19,29.29c1-.46,4.56-1.95,4.37.36-.14,1.85-2.4,3.14-3.89,3.82-.57.27-1.43,1-.34,1.29a22.39,22.39,0,0,0,3.17.09c.86.06,1.21,1,.85,1.81a4.23,4.23,0,0,1-2.2,2A5.25,5.25,0,0,1,29.2,39a2.69,2.69,0,0,0-2.05.55c-.44.37-.36.85.25.94a11,11,0,0,0,5.42-.62,8.18,8.18,0,0,0,4.07-3c.77-1.23.74-2.84-.81-3.39-1.29-.47-2.67,0-3.95-.28l-.34,1.29a15.31,15.31,0,0,0,4-2.56,4.25,4.25,0,0,0,1.64-3.38C37.25,27,35.29,26.77,34,26.87a14.58,14.58,0,0,0-4.92,1.34c-.36.17-1.19.59-.79,1.09s1.5.18,1.9,0Z"/></svg>