<svg id="レイヤー_1" data-name="レイヤー 1" xmlns="http://www.w3.org/2000/svg" viewBox="0 0 191.17 64.17"><defs><style>.cls-1{fill:#f0908a;}</style></defs><path class="cls-1" d="M57.18,2.11l1.28,1.28V5H41.79a13.42,13.42,0,0,1-1.08,2.43h2.81v.32h8.29V7.39h4.48c0,2.59-.1,4.83-.29,6.75L57.18,13l1.28,1.25v1.56H55.78a30.28,30.28,0,0,1-1,4.64H55.9l1.28-1.28,1.28,1.28V22H54.3c-1.69,4.32-3.84,4.61-3.84,4.61s.45-.77.83-4.61h-8a3.71,3.71,0,0,1,0,.67h-3c-.09-2.72-.16-5-.19-6.88H37.79V14.21H40c-.07-2.79-.13-4.48-.16-5.51a7.61,7.61,0,0,1-3.36,2.53A35.72,35.72,0,0,0,38.5,0l4.09.57a26.89,26.89,0,0,1-.38,2.82H55.9ZM43.33,20.41H45.7c0-.8,0-2.2.06-4.64H43.39C43.36,17.12,43.36,18.65,43.33,20.41Zm.09-6.2h2.37l.1-4.93h-2.4C43.49,10.3,43.46,11.87,43.42,14.21ZM49,9.28c.06,1.92.13,3.55.16,4.93h2.59c0-1.48.07-3.11.07-4.93Zm2.69,6.49H49.21c.07,2.37.13,3.81.17,4.64h2C51.52,19.13,51.62,17.6,51.68,15.77ZM64.13,26.69s3.29-5.32,2.56-25.31h4.48v.51h5.37V1.38h3.71c.36,14.87.45,25,.45,25-3.9.35-7.16.45-7.16.45V23.33s.92,0,2.78.06c0-1.51,0-3.55.06-6.14H69.86C67.81,26.81,64.13,26.69,64.13,26.69Zm6-11h6.24c0-1.6,0-3.39.07-5.31H70.82A52.65,52.65,0,0,1,70.14,15.68Zm.8-6.91h5.51c0-1.64.06-3.43.06-5.31H71.17C71.13,5.41,71.07,7.17,70.94,8.77ZM97.86,9c-1.48.06-2.4.06-2.4.06V4.89s2.78,0,5.21.23c.93,8.93,1.12,19.39,1.12,19.39H97.31S97.73,16.38,97.86,9Zm21.34,7c.06,4.45-2.08,8.58-7.42,8.58s-7.49-4.16-7.43-8.61c.1-5.12,3.11-10.62,7.43-10.62S119.1,10.81,119.2,15.93Zm-3.33-1c0-2.59-1.44-5.21-4.09-5.21s-4.07,2.59-4.1,5.18S109,20,111.78,20,115.87,17.5,115.87,15ZM135.55,1.82v.55h11.71V1.82H151c.32,14.79.42,24.87.42,24.87H147v-.58H135.33c0,.19,0,.38,0,.58h-3.68c-.36-14.79-.45-24.87-.45-24.87Zm0,2.12c0,3.23,0,10.2-.19,20.6H147c0-3.23.06-10.21.19-20.6Zm1.25,15.77c-.32-7.1-.42-10.94-.42-10.94h3.71v.54h2.82a3.26,3.26,0,0,0,0-.54H146c.32,7.13.42,10.94.42,10.94h-3.71v-.77h-2.82a6.61,6.61,0,0,0,0,.77Zm3.13-2.34h2.79c0-1.4.06-3.55.16-6.49H140C140,12.25,140,14.4,139.9,17.37ZM157.7,19c5.05,3.87,2,7.58,2,7.58a10.12,10.12,0,0,0-4.35-4.74ZM7.74,60.52c0-1.09.07-3.3.13-7.71H2V51.24H7.9c0-1.76,0-3.81.1-6.18H0V43.49H17l1.25-1.28,1.28,1.28v1.57H11.42c.07,2.37.13,4.42.16,6.18H15L16.25,50l1.29,1.28v1.57H11.62c.09,4.31.12,6.56.12,7.71H17l1.25-1.28,1.28,1.28v1.57H0V60.52Zm2.5-17.38a14.65,14.65,0,0,0-4.58-4S9.5,36.49,13,40.9Zm21.09-2.56H25V39H43.13l1.28-1.29L45.7,39v1.56H39.07c0,.55,0,1.41-.06,2.79h1.12v-.26H43.2c.35,6.18.45,7.49.45,7.49H39.9v-.32H30.08a1.27,1.27,0,0,0,0,.32H27c-.32-6.18-.42-7.49-.42-7.49h3.71v.26h1C31.26,42.57,31.29,41.64,31.33,40.58ZM35.71,59H31.87l-.09.58-3.27-.26c.1-1.79.23-3.42.32-4.76H25.28V53H29l.19-2,3.87.29L32.77,53H42.85l1.28-1.28L45.41,53v1.57H41a14.34,14.34,0,0,1-.76,2.88h2.59l1.28-1.28,1.28,1.28V59H39.52A8.83,8.83,0,0,1,33,63.56,13.26,13.26,0,0,0,35.71,59ZM31.2,44.93h-1l-.13,3.78h1C31.14,48,31.17,46.85,31.2,44.93Zm5,12.52a14.48,14.48,0,0,0,.45-2.88h-4.1c-.12.83-.25,1.79-.44,2.88ZM34.43,40.58c.07,1,.1,2,.13,2.79h1l-.13-2.79Zm1.15,4.35h-1c.07,1.86.13,3,.16,3.78h1C35.68,47.24,35.62,46,35.58,44.93Zm3.3,3.78H40c0-.83.06-2.05.09-3.78H39Zm9.18,3.65a18.88,18.88,0,0,0,4.32-2.56h-3.1V48.23H53c-.1-2.14-.16-3.87-.2-5.28h-2.4V41.38h2.34c-.1-3-.16-3.87-.16-3.87h4.06l-.06,3.59,1-1,1.28,1.25V43H56.58c0,.93,0,2-.07,3.23a43.64,43.64,0,0,0,4.07-5l2.68,1.67v-.55h4v.39h5.83c-.1,4.38-2,6.72-3.65,7.93,2,1.54,3.3,3.68,3.2,5.6s-1.5,3.49-5,4.22l-.48-2.65-.1,5.82H63.68c-.26-9.5-.35-16.73-.42-19.77a30.08,30.08,0,0,1-3.77,4.35h.83L61.6,47l1.28,1.28V49.8H57.63a16.45,16.45,0,0,1-2.33,1.5v.19H58v-.38H61.7c.32,7.49.41,12.58.41,12.58H57.76V63.3H55.07v.39H51.36c-.22-5-.35-9-.38-11A6.74,6.74,0,0,1,48.06,52.36Zm7.08,9.37h2.62c0-.89,0-2.08.06-3.55H55.2C55.2,59.24,55.17,60.42,55.14,61.73Zm.09-5.12h2.63c0-1.08,0-2.27.06-3.55H55.3C55.26,53.93,55.26,55.11,55.23,56.61Zm11.94-.22c3.07-1.06,1.12-3.14.06-4C67.2,53.61,67.2,55,67.17,56.39Zm.06-5.34a19.21,19.21,0,0,0,2-6.76h-2C67.29,45.73,67.26,48,67.23,51.05Zm28.1-11,1.24,1.28v1.57H76.45V41.35h8.22c-.25-2.33-.35-3.84-.35-3.84H88.7s0,1.31-.16,3.84h5.51Zm.13,7.42c.35,7.27.41,12.26.41,12.26-3.07.35-5.63.45-5.63.45V56.68s.45,0,1.31,0c0-1.73.07-4.19.16-7.33h-3c0,3.11-.06,7.94-.19,14.37H84.77c-.19-6.08-.29-11.1-.35-14.37H81.5c0,1.95-.06,5.44-.22,10.37H77.57c-.32-7.3-.42-12.26-.42-12.26H81.5v.32h2.88c0-1.72-.06-2.65-.06-2.65H88.7v2.65h3v-.32Zm18.46.13a44.24,44.24,0,0,1-9.12,1.22V44.36c7.26,0,14.62-.39,14.62-.39-4.51,6.41-10.27,12.26-2.62,17.54C105,61.51,107.65,52.1,113.92,47.62Zm7.62,3.27a7.37,7.37,0,0,0-1.64-2.12,2.82,2.82,0,0,1-.57,2.6,7.47,7.47,0,0,0-1.86-2.31l1.47-1.63a4,4,0,0,1,.84,1.06L121.15,47A2.7,2.7,0,0,1,121.54,50.89Zm12.28-12.64h3.72s0,1.15-.23,11.77h-3.07V49.7h-2.85c0,3.52-.06,8.1-.13,14h-3.07c-.32-21-.41-25.5-.41-25.5h3.71v.29h2.33Zm.23,6.65h-2.59c0,.93,0,2,0,3.23h2.76C134.14,46.92,134.08,45.86,134.05,44.9Zm-.16-4.8h-2.4c0,.77,0,1.79,0,3.23H134Zm-1.54,11.33h8.23l1.24-1.28,1.28,1.28V53h-2c0,.51,0,1.25-.07,2.37l.77-.77,1.28,1.28v1.57H141c0,1.15-.06,2.49-.12,4.16h-2.72c-.1-1.64-.16-3-.2-4.16h-1.44c-1.34,4.09-3.71,4.16-3.71,4.16a13.6,13.6,0,0,0,.87-4.16h-1.35V55.88h1.47c.07-.84.1-1.79.1-2.88h-1.57ZM137,55.88h1c-.06-1.38-.13-2.27-.13-2.88h-.45A21.28,21.28,0,0,1,137,55.88Zm7,4.83c0-2.05,0-5.44.1-11h-2.47a1.15,1.15,0,0,0,0,.32h-3.74s0-1.12.22-11.77h3.07v.29h3v-.29h3.07c.32,21,.42,25.5.42,25.5-3.07.32-5.63.42-5.63.42V60.64S142.69,60.64,144,60.71Zm-2.59-17.38h2.75c0-1,0-2.08,0-3.23h-2.91C141.31,41.32,141.38,42.38,141.41,43.33Zm2.69,4.8c0-1,0-2.08,0-3.23h-2.69l.13,3.23Zm10.33,3.65h2.85c.35,8,.45,9.73.45,9.73h-4.07s0-.93.23-9.34a9.75,9.75,0,0,1-4,1.63,26.44,26.44,0,0,0,5.69-12.32l4.26,1.34C158.69,47.56,156.48,50.25,154.43,51.78Zm18.14-3.87,1.29,1.28v1.57h-3.81c0,.57,0,1.37,0,2.43h1l1.24-1.28,1.29,1.28v1.57H170c0,.7,0,1.53-.06,2.4H171l1.24-1.28,1.29,1.28v1.56h-3.65c0,.77,0,1.57-.07,2.44h1.51l1.24-1.28,1.29,1.28v1.56h-8.93v.84h-3.39l-.33-11a4.36,4.36,0,0,1-2.36.87,33.67,33.67,0,0,0,2.62-8.71L165,46.12a14.28,14.28,0,0,1-.86,2.59h1v.48h2.37a11.09,11.09,0,0,0,1.12-4l2.94,1.38A5.76,5.76,0,0,1,169,49.19h2.37Zm-1.5-8.29h3.74s0,.45-.25,4.61h-3a1,1,0,0,1,0-.29h-7.65a1,1,0,0,1,0,.29h-3c-.35-3.77-.45-4.61-.45-4.61h3.74s0,.32-.12,2.76h1.63l.19-4.68h3.39c.16,2.4.29,3.84.35,4.68h1.83C171.13,40.17,171.07,39.62,171.07,39.62Zm-4.35,21.54c-.07-.83-.1-1.67-.13-2.44H165c0,.77,0,1.57,0,2.44Zm-1.7-4h1.51c0-.87,0-1.67-.07-2.4h-1.41C165.05,55.46,165,56.26,165,57.16Zm.07-4h1.31c0-1-.06-1.86-.06-2.43h-1.22C165.12,51.37,165.09,52.17,165.09,53.19Zm25.31,2.5h-2.78c-.61-6.82-.93-13.57-.93-13.57h4.48S190.82,49.8,190.4,55.69Zm-1.47,1.88a2,2,0,0,0-2,2,2,2,0,0,0,4,0A2,2,0,0,0,188.93,57.57Z"/></svg>