<svg id="レイヤー_1" data-name="レイヤー 1" xmlns="http://www.w3.org/2000/svg" viewBox="0 0 155.37 172.73"><defs><style>.cls-1{fill:#fff;}</style></defs><path class="cls-1" d="M10.58,10.44C7.46,16.66,3.52,22.67,1.3,29.3A25,25,0,0,0,.07,39.17a18.62,18.62,0,0,0,3,8.29A46.49,46.49,0,0,0,12.32,58.2a60.68,60.68,0,0,0,6.52,5.12A30.69,30.69,0,0,0,29.7,67.67c5.8,1.27,11.89.84,17.78.55s11.9-.41,17.85-.6L85.7,67c6.46-.21,12.94-.52,19.41-.14l-3.52-.22a64.48,64.48,0,0,1,11.23,1.66L110,67.52a36.31,36.31,0,0,1,9.41,3.62l-2-1.22a14.87,14.87,0,0,1,4.77,4.57L121,72.8a18.72,18.72,0,0,1,2.46,10.46l.08-2A28.36,28.36,0,0,1,120.1,93.8l1.16-2.08A20.05,20.05,0,0,1,118,96L120.14,94A23.9,23.9,0,0,1,117,96.54l2.93-1.94a26,26,0,0,1-2.72,1.54l3.62-1.72A29,29,0,0,1,118,95.56l4.17-1.38a38.16,38.16,0,0,1-4,1.07l4.3-.89c-4.79,1-9.71,1.23-14.56,1.7L90.68,97.71,56.4,101c-11.67,1.12-24,1.4-34.9,6.1a43.66,43.66,0,0,0-10.8,6.22A25,25,0,0,0,5,119.62a26.93,26.93,0,0,0-3.38,7.83,39,39,0,0,0-.77,8.63C.89,147.75,6.66,158,10,168.85c.73,2.41,3.88,3.29,6,3.63a28.74,28.74,0,0,0,11.81-1c3.72-1.08,7.77-2.46,10.73-5.05,1.65-1.43,4.11-3.63,3.36-6.13-1.78-5.9-4.33-11.53-6.28-17.37a48.13,48.13,0,0,1-2.76-16.85l-.08,2a24.28,24.28,0,0,1,2.69-10.61l-1.16,2.08A17.24,17.24,0,0,1,37,115.89L34.88,118a17,17,0,0,1,2.28-1.86L34.22,118a20.15,20.15,0,0,1,2.22-1.26l-3.62,1.72a24,24,0,0,1,2.35-1L31,118.93a31.92,31.92,0,0,1,3.36-.89l-4.3.89a95.15,95.15,0,0,1,9.52-1.17l12.91-1.24L78.57,114l25.83-2.49c9.67-.93,19.49-1.92,28.43-6,5.89-2.71,11.46-6,15.69-11a30.7,30.7,0,0,0,5.11-9.19,33.29,33.29,0,0,0,1.73-10.53,20,20,0,0,0-1.42-8.5,20.59,20.59,0,0,0-3.33-5.3,21.4,21.4,0,0,0-5.75-4.22c-3.93-2.26-8.42-3.39-12.79-4.43-8.63-2.05-17.74-2-26.56-1.79-16.65.48-33.29,1.11-49.93,1.73-1.73.07-3.46.08-5.2,0l3.52.22a28.39,28.39,0,0,1-5-.74l2.86.73a18.66,18.66,0,0,1-4.68-1.91l2.05,1.22a57.74,57.74,0,0,1-9.38-7.56,38.76,38.76,0,0,1-5.87-6.92l1.06,1.68a17.83,17.83,0,0,1-3-10.25l-.08,2c.19-4,1.72-7.77,3.44-11.33,2.21-4.55,4.75-8.93,7-13.45,1.11-2.21-1.43-4.2-3-4.89-3-1.28-7.34-1.12-10.38-.63a34.07,34.07,0,0,0-12.09,4L13.86,6.29a9.39,9.39,0,0,0-3.28,4.15Z"/></svg>