<svg id="レイヤー_1" data-name="レイヤー 1" xmlns="http://www.w3.org/2000/svg" viewBox="0 0 297.6 399.84"><defs><style>.cls-1{fill:#fff;}</style></defs><path class="cls-1" d="M126.76,13.41A57.88,57.88,0,0,1,123,19.77l1.68-2.47a74.43,74.43,0,0,1-13.47,14.61l3-2.51a118.66,118.66,0,0,1-11,8.11c-2,1.3-4,2.54-6,3.76-1.53.93,3.82-2.26,3-1.81l-.82.48-1.44.83C97,41.36,96,42,94.93,42.52,86.8,47,78.42,51,70.05,55,53.8,62.76,36.49,70.55,24.19,84.12,15.5,93.7,7.35,104.73,3.07,117.05c-4,11.42-4.31,24.2.27,35.47C13,176.36,37,189.93,60.83,195.91c13.89,3.49,28.27,5.31,42.5,6.74,18.45,1.84,38.3-.84,54.41-10.41,6-3.58,12.42-8.91,14-16.12a21,21,0,0,0-2.88-16.46,28.72,28.72,0,0,0-6.42-7.34,36.89,36.89,0,0,0-9.89-5.07c-8.14-2.88-17.4-3.24-25.93-2.77-31,1.7-62,14-85,35.05-18.06,16.52-31.54,41.22-30.2,66.21,1.2,22.48,17.94,40.18,36.64,50.74,23.53,13.28,50.11,18.06,76.41,22.66,6.8,1.19,13.6,2.34,20.39,3.56l-3.83-.69c21.22,3.83,42.49,8.47,62,17.85l-2.7-1.3c16.89,8.18,32.58,19.58,43.54,35l-1.34-1.9A76.08,76.08,0,0,1,254,395.8c.79,2.94,5.61,3.66,7.87,3.89a45,45,0,0,0,16-1.8c5.06-1.44,10.52-3.2,14.74-6.44,2.1-1.6,5.71-4.17,4.87-7.3-5.54-20.77-20.25-38.1-37.64-50.21-19.7-13.72-42.59-21.52-65.87-26.56-15.91-3.44-32-5.9-48-8.79l3.83.69c-19.51-3.54-39.26-7.56-57.23-16.23l2.7,1.3C82.8,278.28,71.07,270.08,63,258.69l1.34,1.9a51.73,51.73,0,0,1-9.18-34.77l-.21,2.31c1.34-13.25,6.57-25.93,14-36.91l-1.68,2.48a95.22,95.22,0,0,1,17-18.79l-3,2.52c2.12-1.78,4.31-3.48,6.57-5.07,1.06-.74,2.13-1.47,3.21-2.17.62-.4,1.25-.78,1.87-1.17,2.31-1.45-4.9,2.84-1.68,1q3.34-1.92,6.86-3.57l1-.46q2.73-1.23-3.46,1.51l2-.85c1.19-.48,2.4-.94,3.61-1.38l2.09-.71c-.06,0-7,2.2-3.6,1.16q2.11-.63,4.26-1.17l1.61-.38q3.19-.72-4.24.91l1.09-.22q1.89-.37,3.81-.66l2.19-.29q3-.36-3.76.41l1.11-.11c1.46-.13,2.93-.22,4.4-.26.82,0,4,0,.17,0s-.66,0,.16.07a49.39,49.39,0,0,1,5,.59l-3.83-.69a34.78,34.78,0,0,1,8.28,2.59l-2.7-1.3a23.68,23.68,0,0,1,9,7.37L125,170.65a20,20,0,0,1,3.86,12.78l.21-2.31a15.71,15.71,0,0,1-2.47,7l1.69-2.48a17.09,17.09,0,0,1-3,3.35l3-2.51c-.35.28-.7.56-1.06.82-2.31,1.64,2.43-1.39,2.55-1.45-.41.2-.81.43-1.21.64-2.35,1.23,5.81-2.35,3.29-1.45l-.66.24q-2.71,1,4.58-1.46l-1.38.39c-2.82.8,6.86-1.34,3.95-.84-.48.09-1,.18-1.45.25l-1.49.21c.08,0,6.65-.65,3.4-.41-.93.07-1.87.11-2.8.13-.51,0-1,0-1.54,0-1.95,0,5.68.12,2.69,0-1,0-2-.09-3-.16a287.48,287.48,0,0,1-30.66-3.95l3.83.69c-10.93-2-21.7-4.88-31.76-9.68l2.7,1.3A70.72,70.72,0,0,1,51.53,149.9l1.34,1.89c-6.63-9.37-10.2-20.36-9.24-31.89l-.21,2.32c1-10.78,5.68-20.68,11.69-29.56l-1.68,2.48C57.92,88.6,63.05,82,69.13,76.83l-3,2.51a71.31,71.31,0,0,1,7.72-5.53l1-.58.49-.3c1.84-1.13-3.76,2.22-3.09,1.84l2.35-1.36c1.58-.89,3.18-1.75,4.78-2.59,7.14-3.75,14.46-7.14,21.72-10.63,17.8-8.56,35.29-17.85,50.34-30.79a75.55,75.55,0,0,0,18.38-23c1.44-2.84-1.73-4.79-3.82-5.51-4.06-1.4-9.92-.88-14-.16A54.72,54.72,0,0,0,135.48,6c-3.35,1.82-6.93,3.86-8.72,7.4Z"/></svg>