<svg id="レイヤー_1" data-name="レイヤー 1" xmlns="http://www.w3.org/2000/svg" viewBox="0 0 278.58 64.36"><path d="M22.45,32.77Q15.67,23.18,8.29,14.05c-.78-1-3.55.14-2.66,1.24Q13,24.42,19.79,34c.72,1,3.49-.07,2.66-1.25Z"/><path d="M1.72,6.16h0L2.09,6,2,6.05,2.41,6H2.35l.37,0H2.65L3,6h-.1L3.13,6,3,6l.19.12a.67.67,0,0,1-.24-.26L3,6a.87.87,0,0,1-.13-.44v.19A.64.64,0,0,1,3,5.51l-.1.2a.44.44,0,0,1,.08-.11l-.19.2a.6.6,0,0,1,.08-.08.62.62,0,0,0,.24-.29.33.33,0,0,0,.06-.3.34.34,0,0,0-.2-.22.64.64,0,0,0-.35-.14l-.33,0a2.78,2.78,0,0,0-.75.11L1.11,5a2.36,2.36,0,0,0-.59.35,1.39,1.39,0,0,0-.32.32,1.38,1.38,0,0,0-.14.27S0,6,0,6a1.16,1.16,0,0,0,0,.37.57.57,0,0,0,0,.18.56.56,0,0,0,.07.18A1.55,1.55,0,0,0,.3,7a.53.53,0,0,0,.13.13,1.73,1.73,0,0,0,.34.21,2.18,2.18,0,0,0,.76.14l.4,0H2a3.64,3.64,0,0,0,.86-.23A1.58,1.58,0,0,0,3.3,7a1,1,0,0,0,.32-.29.36.36,0,0,0,.11-.3.28.28,0,0,0-.1-.26L3.44,6a1.45,1.45,0,0,0-.58-.1L2.49,6a3.52,3.52,0,0,0-.77.21Z"/><path d="M32,15c.21-.36.46-.74.74-1.14s.53-.76.78-1.06.38-.48.42-.48a2.67,2.67,0,0,1,.49.06,5.09,5.09,0,0,1,.59.19,1.85,1.85,0,0,1,.51.3.53.53,0,0,1,.21.42,2.73,2.73,0,0,1-.24,1,11.75,11.75,0,0,1-.59,1.25,5.68,5.68,0,0,1-.76,1.09,1.18,1.18,0,0,1-.82.45.37.37,0,0,1-.13,0h-.14a3.84,3.84,0,0,0-.34-.19c-.17-.09-.32-.19-.49-.3a2,2,0,0,1-.4-.36.63.63,0,0,1-.17-.42A2,2,0,0,1,32,15Zm4.75-2.53a7,7,0,0,0,1-.11,3.85,3.85,0,0,0,.83-.28,3.19,3.19,0,0,0,.74-.52,6.42,6.42,0,0,0,.73-.74.65.65,0,0,0,0-.19v-.11a.12.12,0,0,0,0-.08.29.29,0,0,0,0-.15c0-.08-.06-.15-.1-.23s0-.17-.07-.25a.21.21,0,0,1,0-.13s0,0,0-.06a.08.08,0,0,1,0-.07l0-.13c0-.06,0-.12.07-.12a1,1,0,0,1,.21,0,3.35,3.35,0,0,0,.44-.07A2.35,2.35,0,0,0,41,9a.29.29,0,0,0,.19-.25V4.45A.3.3,0,0,0,41,4.12a1.05,1.05,0,0,0-.4-.07c-.25,0-.42.19-.55.55a5.71,5.71,0,0,0-.36,1.33c-.1.53-.21,1.1-.31,1.74a13.26,13.26,0,0,1-.41,1.75,3.65,3.65,0,0,1-.71,1.33,1.37,1.37,0,0,1-1.16.53h-.19a2.08,2.08,0,0,1-.24-.21l-.38-.3a3.47,3.47,0,0,1-.4-.3l-.23-.21c-.11-.12-.21-.17-.23-.21s0-.11,0-.23,0-.13,0-.19A7.38,7.38,0,0,0,36.8,7.54a6,6,0,0,0,.47-2.49V4.67c0-.15,0-.22,0-.22L36.87,4H32.2a.35.35,0,0,1-.08-.06.35.35,0,0,1,0-.13.65.65,0,0,1-.1-.15l0-.1V2.17a.79.79,0,0,1,0-.12.48.48,0,0,1,.1-.15.8.8,0,0,1,0-.11.24.24,0,0,1,.08-.08h6.33a.31.31,0,0,0,.34-.27A2.61,2.61,0,0,0,39,.86,4.22,4.22,0,0,1,39,.27.35.35,0,0,1,39.42,0h1.77a.45.45,0,0,1,.19.09.66.66,0,0,1,.19.18V.46c0,.09,0,.19,0,.3s0,.23.06.3a1.72,1.72,0,0,1,0,.21,2.41,2.41,0,0,0,.19.27c.09.11.15.17.19.17h6.33c.05,0,.13.06.24.17a.47.47,0,0,1,.13.29V3.55l0,.1c0,.07-.08.11-.1.15a.83.83,0,0,1-.07.13.25.25,0,0,1,0,.06H44.36a.42.42,0,0,1-.1.07.91.91,0,0,1-.17.12,1.47,1.47,0,0,1-.17.15l-.13.12V9.76a.82.82,0,0,1-.38.75,3,3,0,0,1-.8.39l-.82.31c-.24.09-.36.23-.36.43a.74.74,0,0,0,.17.48l.35.38c.13.11.24.25.36.36a.77.77,0,0,1,.15.46.61.61,0,0,1-.17.39,4.63,4.63,0,0,1-.46.37,3.22,3.22,0,0,1-.51.28.86.86,0,0,1-.4.11h-.13c-.08,0-.12,0-.12,0l-1.25-1.26s0,0-.08,0a.06.06,0,0,0-.05,0,.46.46,0,0,0-.16.14.5.5,0,0,0-.09.11v1.65c0,.1.06.19.19.31a.47.47,0,0,0,.3.19h2.66a.43.43,0,0,0,.42-.23,1.91,1.91,0,0,0,.15-.46,2.86,2.86,0,0,1,.14-.49.36.36,0,0,1,.38-.23,1.91,1.91,0,0,1,.79.19,2.07,2.07,0,0,0,.84.17.77.77,0,0,0-.1-.4,2.37,2.37,0,0,0-.19-.34l-.19-.32a.87.87,0,0,1-.09-.36.6.6,0,0,1,.19-.42,1.59,1.59,0,0,1,.48-.34,2.07,2.07,0,0,1,.56-.23,1.83,1.83,0,0,1,.5-.09h.3c.23.19.48.44.8.75a8.72,8.72,0,0,1,.91,1,11.29,11.29,0,0,1,.78,1.1,2.07,2.07,0,0,1,.32,1,1.31,1.31,0,0,1,0,.17v.15c-.12.08-.25.17-.4.29l-.46.36c-.17.09-.32.19-.49.26a1.22,1.22,0,0,1-.5.12.69.69,0,0,1-.61-.36,6.68,6.68,0,0,1-.38-.8,6.62,6.62,0,0,0-.4-.8.63.63,0,0,0-.56-.36c-.08,0-.16.15-.25.44a8,8,0,0,1-.36,1,4.15,4.15,0,0,1-.61.95,1.15,1.15,0,0,1-.93.45H38.28a1.87,1.87,0,0,1-.63-.13,2,2,0,0,1-1-.93,1.12,1.12,0,0,1-.18-.59V12.67ZM31.93,7.87c.12-.14.25-.35.44-.63a9.53,9.53,0,0,1,.57-.89,6.9,6.9,0,0,1,.65-.82.87.87,0,0,1,.6-.34,4,4,0,0,1,.5,0,4.36,4.36,0,0,1,.59.17,1.75,1.75,0,0,1,.49.33.49.49,0,0,1,.23.41,1.89,1.89,0,0,1-.3.78A6.78,6.78,0,0,1,35,8a7.29,7.29,0,0,1-.85,1,1.2,1.2,0,0,1-.72.41.92.92,0,0,1-.48-.13,4.71,4.71,0,0,1-.42-.36,2.46,2.46,0,0,1-.34-.44A1.69,1.69,0,0,1,31.93,8V7.87Zm12.9-1.6a.56.56,0,0,1,.23-.42,3.62,3.62,0,0,1,.5-.32,2.87,2.87,0,0,1,.51-.23,1.16,1.16,0,0,1,.3-.09.39.39,0,0,1,.14,0,1,1,0,0,1,.72.38,7.05,7.05,0,0,1,.7.89c.21.34.42.68.59,1s.3.59.4.76a.35.35,0,0,0,0,.12v.13a.71.71,0,0,1-.19.5,2.74,2.74,0,0,1-.5.38,2,2,0,0,1-.6.2,2.05,2.05,0,0,1-.57.08H46.9a.54.54,0,0,0-.15,0L45.84,8c-.32-.56-.65-1.07-1-1.58C44.85,6.4,44.83,6.35,44.83,6.27Z"/><path d="M53.58,15.79a3.51,3.51,0,0,1,.89-.19c.36,0,.74-.08,1.16-.1s.81-.05,1.16-.09a8.37,8.37,0,0,0,.89-.19c.25-.1.36-.23.36-.4a.5.5,0,0,0-.11-.29,1.4,1.4,0,0,0-.29-.23,2.79,2.79,0,0,0-.34-.18.83.83,0,0,0-.27-.06,1.45,1.45,0,0,0-.47.07l-.44.21c-.15.06-.3.13-.44.17a1.26,1.26,0,0,1-.49.1l-.19,0-.13,0-1.14-1.14a.1.1,0,0,1,0-.07v-.1c0-.11.11-.23.34-.36a8.38,8.38,0,0,1,.87-.4L56.08,12a11.72,11.72,0,0,0,1.12-.51,3.22,3.22,0,0,0,.88-.59.91.91,0,0,0,.36-.66.85.85,0,0,0-.1-.34,1.62,1.62,0,0,0-.19-.37,2.79,2.79,0,0,0-.28-.32.42.42,0,0,0-.27-.13.71.71,0,0,0-.55.25c-.15.18-.3.38-.45.59a4.15,4.15,0,0,1-.46.56.85.85,0,0,1-.65.27,1,1,0,0,1-.41-.11,2.73,2.73,0,0,1-.48-.25,1.94,1.94,0,0,1-.36-.34.8.8,0,0,1-.15-.4.22.22,0,0,1,0-.1V9.5l1-1.14s0-.06,0-.12A.25.25,0,0,0,55,8a.39.39,0,0,0-.27-.13l-.26,0a3,3,0,0,1-.42,0,3.13,3.13,0,0,0-.42,0,1.76,1.76,0,0,0-.28,0l-.14-.13V4.69l.27-.32h2.15c.13,0,.21,0,.22-.13a1,1,0,0,0,0-.23.94.94,0,0,0-.32-.82,6.8,6.8,0,0,0-.7-.38,2.3,2.3,0,0,1-.71-.42,1.07,1.07,0,0,1-.32-.89,1.35,1.35,0,0,1,0-.29c0-.09.09-.15.23-.18,1,0,2-.12,3.07-.21s2.06-.19,3.1-.31,2.07-.19,3.1-.26S65.43.11,66.44.11a1.63,1.63,0,0,1,.28,0h.17l1.28,1.28s0,.09-.08.15l-.32.21a2.59,2.59,0,0,0-.33.19c-.11.07-.17.13-.17.21a.49.49,0,0,0,.14.32.35.35,0,0,1,.13.3.55.55,0,0,1-.08.31,1.37,1.37,0,0,1-.19.3,1.85,1.85,0,0,0-.19.27A.61.61,0,0,0,67,4a.63.63,0,0,0,0,.23c0,.09.1.13.23.13h1.79a.36.36,0,0,1,.23.19.6.6,0,0,1,.15.26V7.73a.33.33,0,0,1-.19.34,1.65,1.65,0,0,1-.44.1,3.71,3.71,0,0,0-.44.07.28.28,0,0,0-.2.31v.07a.85.85,0,0,0,.07.16.82.82,0,0,1,.11.21,1.08,1.08,0,0,0,.12.22,1.22,1.22,0,0,1,.07.17.74.74,0,0,1-.2.38,2.65,2.65,0,0,1-.4.42,2.11,2.11,0,0,1-.48.34.89.89,0,0,1-.44.14.37.37,0,0,1-.13,0,2,2,0,0,0-.23-.25c-.11-.11-.24-.25-.38-.38l-.38-.38a1.38,1.38,0,0,0-.26-.25c-.08-.05-.13-.11-.19-.11a.58.58,0,0,0-.19,0h-.13a2.16,2.16,0,0,1-.92.59,10.22,10.22,0,0,1-1.17.42l-1,.34c-.3.1-.44.19-.44.3a.86.86,0,0,0,0,.21.27.27,0,0,0,.23.1h3.53a2,2,0,0,0,.36.23,2.56,2.56,0,0,1,.38.22,2,2,0,0,1,.31.27.66.66,0,0,1,.11.38.64.64,0,0,1,0,.32,2,2,0,0,1-.22.29,2.57,2.57,0,0,0-.29.34l-.46.49c-.17.17-.32.35-.47.5l-.3.32a.55.55,0,0,0,0,.19.34.34,0,0,0,.24.32,2,2,0,0,0,.59.17c.21,0,.44,0,.65,0s.36,0,.44,0l.53.06.8.07c.28,0,.55,0,.79.08l.54,0c.13,0,.2,0,.22.09a.93.93,0,0,1,0,.23,2.32,2.32,0,0,1-.13.55,3.61,3.61,0,0,1-.36.67,2.8,2.8,0,0,1-.5.53,1,1,0,0,1-.55.21,9,9,0,0,1-1.71-.19l-1.71-.44c-.55-.17-1.12-.32-1.67-.44a6.75,6.75,0,0,0-3.34,0c-.55.12-1.1.27-1.67.44l-1.68.44a7.73,7.73,0,0,1-1.73.21.81.81,0,0,1-.51-.19,2.2,2.2,0,0,1-.42-.44,2.12,2.12,0,0,1-.26-.57,1.43,1.43,0,0,1-.12-.53C53.21,16,53.33,15.88,53.58,15.79Zm2.33-8.57a1.25,1.25,0,0,0,.44.19,2.45,2.45,0,0,0,.55,0,3.94,3.94,0,0,0,.46,0l.51,0a4.11,4.11,0,0,0,.68-.14,2.32,2.32,0,0,0,.63-.22c.19-.08.26-.18.26-.29a.58.58,0,0,0-.09-.3.38.38,0,0,0-.3-.15H56.14c-.17,0-.27.05-.32.17a.68.68,0,0,0-.08.34A.43.43,0,0,0,55.91,7.22ZM58.53,3.8a1.15,1.15,0,0,0,.38.51h.23l.23,0a2.94,2.94,0,0,0,.47,0c.16,0,.23-.13.23-.34a1.34,1.34,0,0,0-.28-.85.94.94,0,0,0-.8-.35l-.23,0-.23,0c-.09,0-.13.06-.13.17v.19A1.61,1.61,0,0,0,58.53,3.8Zm1.54,9.69a1.11,1.11,0,0,0,.34.22,1.69,1.69,0,0,0,.78.23,1.55,1.55,0,0,0,.34,0,1.38,1.38,0,0,0,.39-.18.76.76,0,0,0,.3-.22.43.43,0,0,0,.13-.31.35.35,0,0,0-.06-.21s-.09-.05-.2-.05h-1.9A.39.39,0,0,0,60,13a.58.58,0,0,0,0,.19A.42.42,0,0,0,60.07,13.49Zm.44-5a2.24,2.24,0,0,0,.66.09,3,3,0,0,0,.71-.07c.24-.08.47-.13.72-.19l.7-.14a2,2,0,0,1,.69,0q.08-.11.3-.36c.15-.15.3-.3.48-.45s.34-.29.51-.42a.93.93,0,0,1,.47-.17,1,1,0,0,1,.46.09,1.22,1.22,0,0,0,.47.08V6.72c0-.15-.05-.24-.17-.26l-1.08-.1c-.29,0-.63,0-1,0a1.41,1.41,0,0,0-1,.28,1.63,1.63,0,0,0-.42.61,5.89,5.89,0,0,1-.29.61.6.6,0,0,1-.6.28h-.25l-1-.63s0,0-.07,0h-.1a.45.45,0,0,0-.32.12.46.46,0,0,0-.13.34C60.19,8.24,60.3,8.45,60.51,8.53Zm1.94-5.21a2.61,2.61,0,0,0,0,.4.84.84,0,0,0,.11.36.67.67,0,0,0,.27.23h.22l.21,0a1.39,1.39,0,0,0,1-.45,1.59,1.59,0,0,0,.44-1.15.52.52,0,0,0,0-.17c0-.07-.06-.11-.14-.15h-.38a3.43,3.43,0,0,0-.38,0h-.43a2.23,2.23,0,0,0-.46,0,1,1,0,0,0-.36.17.43.43,0,0,0-.13.38C62.47,3.06,62.45,3.19,62.45,3.32Z"/><path d="M76.07,7.88a2.31,2.31,0,0,1,.51-.76,2.66,2.66,0,0,1,.8-.51,2.86,2.86,0,0,1,1-.17,2.52,2.52,0,0,1,1.79.7,2.44,2.44,0,0,1,.7,1.79,2.9,2.9,0,0,1-.17,1,2.52,2.52,0,0,1-.52.79,2,2,0,0,1-.76.52,2.41,2.41,0,0,1-1,.19,2.42,2.42,0,0,1-2.55-2.55A2.5,2.5,0,0,1,76.07,7.88Z"/><path d="M89.87,14.72a3.83,3.83,0,0,0-.16.61,2.31,2.31,0,0,1-.21.61.46.46,0,0,1-.45.28,1.65,1.65,0,0,1-.42,0,2.58,2.58,0,0,1-.49-.17,2.08,2.08,0,0,1-.42-.31.58.58,0,0,1-.17-.42c0-.07,0-.32.11-.72s.17-.84.27-1.27.21-.84.3-1.2.17-.55.21-.55h1.63l.27-.13v-.12a.8.8,0,0,0,0-.19.63.63,0,0,0-.25-.58,1.12,1.12,0,0,0-.57-.21,3.89,3.89,0,0,0-.76,0,4.8,4.8,0,0,1-.72.08.44.44,0,0,1-.27-.25,2.37,2.37,0,0,1-.09-.34,2.46,2.46,0,0,1,0-.4V9.06s0-.11,0-.23V8.62a.6.6,0,0,1,.42-.38l.59-.11a1.58,1.58,0,0,0,.53-.23.58.58,0,0,0,.25-.57,1.17,1.17,0,0,0-.27-.76c-.19-.21-.38-.42-.59-.61a6.37,6.37,0,0,1-.57-.6,1.21,1.21,0,0,1-.25-.73,1.36,1.36,0,0,1,.27-.77,6,6,0,0,1,.61-.76c.23-.25.45-.48.66-.72a2.88,2.88,0,0,0,.5-.73A3.45,3.45,0,0,0,90,1.08c0-.15.09-.3.13-.43a.81.81,0,0,1,.21-.31.87.87,0,0,1,.42-.09l.45,0a3.75,3.75,0,0,1,.55.15,1.79,1.79,0,0,1,.5.24.49.49,0,0,1,.21.4v.06a5.23,5.23,0,0,1-.44.78c-.19.28-.38.57-.55.87a7.64,7.64,0,0,0-.48.88,2.37,2.37,0,0,0-.19.83,1,1,0,0,0,0,.21.14.14,0,0,0,.15.11.6.6,0,0,0,.57-.36,4.51,4.51,0,0,0,.35-.77,3.94,3.94,0,0,1,.38-.8.61.61,0,0,1,.59-.36,1.2,1.2,0,0,1,.45.09,3.69,3.69,0,0,1,.42.17L94.2,3a1,1,0,0,0,.43.08.28.28,0,0,0,.23-.1A.92.92,0,0,0,95,2.75a1.35,1.35,0,0,0,.14-.22.71.71,0,0,1,.11-.17h3c.08,0,.17-.08.3-.23a.72.72,0,0,0,.19-.34,1.11,1.11,0,0,0,0-.33,2.86,2.86,0,0,0,0-.43c0-.17,0-.33,0-.46a2.12,2.12,0,0,0,0-.3.56.56,0,0,1,.17-.18A.5.5,0,0,1,99.33,0h1.76a.39.39,0,0,1,.27.13.87.87,0,0,1,.11.25c0,.06,0,.17,0,.3s0,.31,0,.46a3.42,3.42,0,0,0,0,.46c0,.15,0,.24,0,.3s0,0,.07.07.1.1.15.16a1,1,0,0,1,.18.15c0,.06.09.08.11.08h3.29V4.63h-3.29s0,0-.11.08l-.16.11a1.23,1.23,0,0,0-.15.16c-.08,0-.09.09-.09.09v1l.24.32h2.66s.06,0,.12.08a.44.44,0,0,0,.15.11.7.7,0,0,0,.15.15c.08.06.09.1.09.1V8.36l0,.11-.1.15a.75.75,0,0,1-.07.12.22.22,0,0,1,0,.07H95.91c-.14,0-.19.06-.23.18a2.63,2.63,0,0,0,0,.43c0,.17,0,.34,0,.5a.33.33,0,0,1-.21.34l-.3.19-.38.19a3.23,3.23,0,0,0-.3.19l-.16.07h-.11l-.76-.64H93.3l-.11,0c-.19,0-.3.07-.32.25a3.1,3.1,0,0,0,0,.43,1.47,1.47,0,0,0,.06.42c0,.13.15.21.34.21l.07,0h.06a.72.72,0,0,1,.15-.07.64.64,0,0,0,.23-.12l.23-.11.15-.08a2,2,0,0,1,.55.59,3.88,3.88,0,0,1,.44.86,5.9,5.9,0,0,1,.3.93,4.25,4.25,0,0,1,.1.79.42.42,0,0,1-.21.36,2.12,2.12,0,0,1-.48.29l-.53.19a1.88,1.88,0,0,1-.38.06s-.06,0-.06,0a1.35,1.35,0,0,1-.26-.27,3.35,3.35,0,0,1-.21-.36,2.53,2.53,0,0,1-.15-.36,1.33,1.33,0,0,0-.14-.27s0,0,0,0-.06,0-.06,0-.08,0-.13.06l-.06.06v3.3a.44.44,0,0,1-.08.1,1.74,1.74,0,0,0-.11.15,1.05,1.05,0,0,1-.15.15c-.06.06-.1.1-.12.1H90.83s0,0-.09-.1a.7.7,0,0,1-.15-.15.65.65,0,0,1-.12-.15.59.59,0,0,1-.07-.1V14.57s0,0-.08-.06l-.11-.07h-.08C90,14.44,89.92,14.53,89.87,14.72ZM92.16,8a.34.34,0,1,0,0-.67.3.3,0,0,0-.32.34A.29.29,0,0,0,92.16,8Zm2.19-1.43a3,3,0,0,1,.26.54c.08.18.18.35.25.53a.47.47,0,0,0,.42.23h.11a3.39,3.39,0,0,1,0-.35,4.26,4.26,0,0,1,.1-.49,1.77,1.77,0,0,1,.19-.44A.35.35,0,0,1,96,6.4h2.53c.07,0,.11,0,.15-.11A1.07,1.07,0,0,0,98.79,6c0-.09,0-.19,0-.28V5.58a1.15,1.15,0,0,0,0-.24A1.35,1.35,0,0,0,98.72,5a.79.79,0,0,0-.15-.27.32.32,0,0,0-.25-.12h-3s0,0-.08-.07,0-.1,0-.11-.08-.16-.14-.33L94.9,3.8h-.19a.88.88,0,0,0-.59.3,3.23,3.23,0,0,0-.57.72,6.24,6.24,0,0,0-.44.9,2,2,0,0,0-.19.78,1.31,1.31,0,0,0,.5-.08,1.09,1.09,0,0,1,.47-.09A.52.52,0,0,1,94.35,6.57Zm2.07,3.82h8l.25.25v6.84a.3.3,0,0,1-.16.28,1,1,0,0,1-.36.12c-.15,0-.28,0-.4,0h-.28a1.32,1.32,0,0,1-.61-.12,1.64,1.64,0,0,1-.44-.21,2.24,2.24,0,0,1-.34-.23.7.7,0,0,0-.32-.09H99a.32.32,0,0,0-.25.09,1.37,1.37,0,0,0-.19.23,1.39,1.39,0,0,1-.21.21.36.36,0,0,1-.25.1H96.67a1,1,0,0,1-.31-.15c-.13-.1-.21-.18-.21-.23V10.64ZM98.55,14a1.79,1.79,0,0,0,0,.42.74.74,0,0,0,.19.3.53.53,0,0,0,.4.14h2.28l.14,0a1,1,0,0,0,.22-.08.39.39,0,0,0,.21-.11.2.2,0,0,0,.08-.15V13.05a.33.33,0,0,0-.13-.25.36.36,0,0,0-.25-.13H99l-.38.38a1,1,0,0,0,0,.21V14Z"/><path d="M115,9.71a3.27,3.27,0,0,0-.25.8,5.54,5.54,0,0,0-.13.91c0,.3,0,.53,0,.68v.15a.76.76,0,0,1,0,.17,2.45,2.45,0,0,0,.3.33,2.82,2.82,0,0,1,.44.47c.15.17.27.34.38.49a.92.92,0,0,1,.15.46,1.19,1.19,0,0,1-.13.48,6.08,6.08,0,0,1-.34.6,5.79,5.79,0,0,1-.42.5.67.67,0,0,1-.38.21h-.38a.77.77,0,0,1-.13-.17,3,3,0,0,0-.25-.25,3.47,3.47,0,0,0-.29-.25.58.58,0,0,0-.28-.09h-.08s0,0-.11.07-.13,0-.13.06l-1.1,1.18a6,6,0,0,1-1.18,1,1.65,1.65,0,0,0-.21.11s-.08,0-.17,0a.53.53,0,0,1-.19,0l-.19-.11-.19-.23a4.37,4.37,0,0,0-.25-.4c-.1-.13-.19-.27-.26-.38s-.16-.21-.2-.25,0-.07-.07-.13a.79.79,0,0,1,0-.13s0,0,0-.06a.87.87,0,0,1,.36-.7,9.55,9.55,0,0,1,.78-.61,8.7,8.7,0,0,0,.8-.65,1.09,1.09,0,0,0,.36-.83.56.56,0,0,0-.38-.5l-.84-.34a2.9,2.9,0,0,1-.83-.4.81.81,0,0,1-.38-.72,1,1,0,0,1,0-.19v-.19c0-.13,0-.34.11-.65s.13-.64.19-1,.14-.69.21-1a5.31,5.31,0,0,0,.11-.65c0-.05,0-.19.08-.39a1.78,1.78,0,0,1,.06-.37V6.65a.49.49,0,0,0-.29-.46,3.43,3.43,0,0,1-.47-.23.17.17,0,0,1-.08-.07s-.06,0-.06-.06V3.93s.08-.09.23-.13l.5-.19a2.1,2.1,0,0,0,.51-.27.55.55,0,0,0,.28-.41,4.4,4.4,0,0,0,.1-.52c0-.24.06-.49.11-.76s.08-.53.1-.76.06-.42.08-.51l.26-.25h.21a1.76,1.76,0,0,1,.28,0h.48a1.71,1.71,0,0,1,.55,0,1,1,0,0,1,.44.17.48.48,0,0,1,.19.44,5,5,0,0,1-.14,1.1A4.76,4.76,0,0,0,112.74,3a1.22,1.22,0,0,0,0,.23v.21c.09.19.28.29.61.29s.64,0,1,0a5.28,5.28,0,0,1,.91,0,.42.42,0,0,1,.4.46V7.11a.19.19,0,0,0,.13.2.61.61,0,0,0,.25.06.55.55,0,0,0,.38-.25.63.63,0,0,0,.19-.4V1s0,0,.07-.06l.12-.08L117,.82l.09-.06a.86.86,0,0,1,.25.08l.27.05h.68a7.31,7.31,0,0,0,1.33-.11c.46-.08.89-.15,1.35-.27s.89-.19,1.33-.26a6.08,6.08,0,0,1,1.33-.14,1.09,1.09,0,0,1,.47.1,1.39,1.39,0,0,1,.38.25,1.24,1.24,0,0,1,.34.38l.39.43a1.28,1.28,0,0,1,0,.19v.19c0,.06-.05.12-.15.14l-.51.07a3.61,3.61,0,0,0-.63.17,1.76,1.76,0,0,0-.53.31.65.65,0,0,0-.23.51,1.34,1.34,0,0,0,0,.25,2.11,2.11,0,0,0,.1.3,1.37,1.37,0,0,0,.17.23.3.3,0,0,0,.23.11h2.28l.24.32V5.45l-.24.33H124a.18.18,0,0,0-.2.18,1,1,0,0,0-.06.31,1,1,0,0,0,.06.32A2.17,2.17,0,0,0,124,7a.72.72,0,0,0,.25.36.48.48,0,0,0,.32.13.29.29,0,0,0,.26-.11,1.28,1.28,0,0,0,.16-.28.89.89,0,0,1,.15-.27.3.3,0,0,1,.24-.11,1,1,0,0,1,.35.09,5.05,5.05,0,0,1,.45.25,2.49,2.49,0,0,1,.38.34.4.4,0,0,1,.15.32,1.2,1.2,0,0,1-.2.71A4.54,4.54,0,0,1,126,9c-.17.21-.32.38-.46.57a1,1,0,0,0-.21.55v7.34s0,0-.07.07l-.11.06a.59.59,0,0,1-.16.08l-.09,0h-1.79a2.38,2.38,0,0,0-.3-.19,1.49,1.49,0,0,1-.32-.19l-.16-.07-.09-.06H119.6l-.11.06a.62.62,0,0,0-.16.07,1.27,1.27,0,0,1-.24.19l-.25.19h-1.9s0,0-.08,0a.35.35,0,0,0,0-.08.49.49,0,0,1-.08-.13l-.06-.12V10.14a.41.41,0,0,0-.15-.3,2.21,2.21,0,0,0-.36-.23,2.17,2.17,0,0,0-.42-.17,1.47,1.47,0,0,0-.26-.07A.51.51,0,0,0,115,9.71Zm-3.42-.25a1.37,1.37,0,0,0,.1.34.5.5,0,0,0,.19.25.53.53,0,0,0,.34.09c.19,0,.34-.17.47-.47A5,5,0,0,0,113,8.61c.05-.39.09-.78.11-1.15s0-.6,0-.72a.73.73,0,0,0-.11-.41.48.48,0,0,0-.4-.14.67.67,0,0,0-.63.35,2.88,2.88,0,0,0-.3.83,5.32,5.32,0,0,0-.1,1v.78A2.18,2.18,0,0,0,111.62,9.46Zm6.84.3h4.29c.08,0,.14,0,.14-.09a1.23,1.23,0,0,0,0-.17.9.9,0,0,0-.19-.48c-.11-.19-.24-.4-.39-.62l-.44-.57c-.15-.16-.27-.23-.32-.23h-.06s-.06,0-.08.06,0,0,0,.07a2.38,2.38,0,0,1-.42.89,1.31,1.31,0,0,1-.55.42,1.56,1.56,0,0,1-.59.12h-.59a2.45,2.45,0,0,0-.51.09.71.71,0,0,0-.38.38Zm.93-6.11a3.07,3.07,0,0,0,.57.06l.25,0a.86.86,0,0,0,.24,0,.64.64,0,0,0,.21-.14.34.34,0,0,0,.08-.26.41.41,0,0,0-.08-.25.49.49,0,0,0-.19-.21l-.24,0h-.55a1.05,1.05,0,0,0-.29.06.58.58,0,0,0-.23.13.42.42,0,0,0-.09.27A.37.37,0,0,0,119.39,3.65Zm-.29,3.09a.29.29,0,0,0,.23.23h.46a3.4,3.4,0,0,1,.42,0,1.85,1.85,0,0,0,.47,0,1,1,0,0,0,.4-.13.34.34,0,0,0,.17-.32.65.65,0,0,0,0-.19.92.92,0,0,0-.09-.23.61.61,0,0,0-.12-.21.21.21,0,0,0-.17-.08h-1.52c-.13,0-.21.08-.23.23s0,.27,0,.34S119.09,6.63,119.1,6.74Zm.33,5.78a.28.28,0,0,0,.28.15h2.55a.33.33,0,0,0,.25-.13.43.43,0,0,0,.13-.25.65.65,0,0,0-.06-.25.2.2,0,0,0-.21-.13H119.6c-.13,0-.23,0-.25.1a.56.56,0,0,0,0,.2A.51.51,0,0,0,119.43,12.52Zm-.08,2.6c0,.06.12.08.25.08h2.77c.12,0,.19,0,.21-.14a.52.52,0,0,0,.06-.22.36.36,0,0,0-.17-.31.75.75,0,0,0-.34-.09h-2.28c-.35,0-.52.15-.52.45A.75.75,0,0,0,119.35,15.12Z"/><path d="M130,15.84v-.13c0-.09.15-.21.43-.38s.67-.34,1.12-.55l1.43-.76a12.26,12.26,0,0,0,1.44-.93A5.15,5.15,0,0,0,135.5,12a1.85,1.85,0,0,0,.44-1.16,1.86,1.86,0,0,0,0-.28.23.23,0,0,0-.23-.15h-5.32s0,0-.09-.06l-.15-.13s-.06,0-.1-.08,0,0,0,0v-2a.73.73,0,0,1,.12-.09,1,1,0,0,1,.15-.15.65.65,0,0,1,.15-.12.44.44,0,0,1,.1-.08h6.08l.24-.32v-2a.25.25,0,0,1,0-.06s-.05,0-.07,0l-.15-.14L136.43,5h-4.8c-.08,0-.15-.06-.25-.18a.6.6,0,0,1-.13-.28V2.79l.05-.11a.43.43,0,0,1,.08-.14l.06-.11.05-.07h4.83l.11-.08a1.22,1.22,0,0,0,.17-.15l.16-.16s.05-.05.05-.07V1.62a3.46,3.46,0,0,1,0-.46,4.71,4.71,0,0,1,.08-.5.88.88,0,0,1,.17-.39,1.31,1.31,0,0,1,.13-.16l.12-.11h2a.47.47,0,0,1,.25.13c.07.1.13.17.13.25s0,.17,0,.3,0,.31.05.46,0,.3,0,.46v.3A.32.32,0,0,0,140,2c0,.06.09.1.13.16s.11.11.17.15a.14.14,0,0,0,.12.08h5.45V4.69l-.27.33h-5.32a.31.31,0,0,0-.22.17.51.51,0,0,0-.16.26v1.9l.27.32h6.19a.56.56,0,0,1,.33.14.37.37,0,0,1,.19.3v2l-.25.31h-5.7s-.06,0-.11.11l-.16.21v.06a1.79,1.79,0,0,0,.48,1.14,6.41,6.41,0,0,0,1.19,1,15.89,15.89,0,0,0,1.58.9c.55.26,1.08.51,1.56.72l1.2.53c.32.13.47.25.47.31a1.82,1.82,0,0,1-.13.64,4,4,0,0,1-.38.7,2.07,2.07,0,0,1-.53.57,1,1,0,0,1-.61.25,3.69,3.69,0,0,1-1.45-.32,9.29,9.29,0,0,1-1.46-.82,11.37,11.37,0,0,1-1.37-1.1c-.43-.38-.83-.74-1.17-1.07s-.67-.6-.9-.83-.4-.32-.47-.32-.29.11-.55.34-.55.51-.91.85l-1.22,1.11a14.06,14.06,0,0,1-1.41,1.11,7.36,7.36,0,0,1-1.52.84,3.68,3.68,0,0,1-1.52.34.82.82,0,0,1-.53-.26,3.14,3.14,0,0,1-.45-.57,6.66,6.66,0,0,1-.35-.61L130,16A1.09,1.09,0,0,0,130,15.84Z"/><path d="M160.6,12.67c-.09,0-.15.06-.15.13v3.29a.34.34,0,0,1-.17.3,1.07,1.07,0,0,1-.36.16,1.9,1.9,0,0,1-.4.05h-.27s-.13,0-.28,0a2.61,2.61,0,0,1-.4,0,1.12,1.12,0,0,1-.38-.11.32.32,0,0,1-.15-.27V11.4a.28.28,0,0,0-.14-.25l-.24-.19a2.4,2.4,0,0,1-.29-.19.31.31,0,0,1-.15-.25s0-.11,0-.28,0-.34,0-.53,0-.4-.08-.61a1.7,1.7,0,0,0-.15-.48,1.43,1.43,0,0,0-.49.67,3.17,3.17,0,0,0-.27,1c-.05.36-.09.7-.11,1s0,.61,0,.82v.23a.48.48,0,0,0,0,.21,3.68,3.68,0,0,0,.28.36,4.06,4.06,0,0,1,.42.47,5.7,5.7,0,0,1,.42.55,2,2,0,0,1,.27.52v.07a1,1,0,0,1-.14.46,3.7,3.7,0,0,1-.38.59,3.48,3.48,0,0,1-.47.47.84.84,0,0,1-.46.19.45.45,0,0,1-.36-.15,1.25,1.25,0,0,1-.24-.36,3.27,3.27,0,0,0-.25-.36.45.45,0,0,0-.36-.15.34.34,0,0,0-.14.05.35.35,0,0,0-.11.08l-.4.4c-.19.21-.4.42-.61.63l-.61.6c-.18.19-.34.33-.41.4a1.49,1.49,0,0,1-.25.21.82.82,0,0,1-.25,0,.68.68,0,0,1-.45-.19,2.5,2.5,0,0,1-.46-.46,2.37,2.37,0,0,1-.36-.55,1.31,1.31,0,0,1-.13-.51v-.06l.51-.47c.25-.21.47-.46.72-.7a9.17,9.17,0,0,0,.67-.8,1.53,1.53,0,0,0,.26-.76c0-.19-.11-.34-.36-.46s-.49-.25-.78-.36a4.78,4.78,0,0,1-.8-.44.78.78,0,0,1-.36-.64v-.06a6,6,0,0,0,.14-.66c.05-.35.13-.69.19-1.05a9.75,9.75,0,0,1,.19-1c.07-.33.11-.55.13-.69a1.35,1.35,0,0,0,.06-.34,1,1,0,0,0,0-.21,1.33,1.33,0,0,1,0-.21V6.71a.7.7,0,0,0-.19-.56,2,2,0,0,0-.59-.32V3.93s.08-.07.19-.11a4.51,4.51,0,0,0,.46-.17,1.37,1.37,0,0,0,.47-.31.87.87,0,0,0,.29-.55,2.39,2.39,0,0,0,0-.49c0-.23,0-.48.07-.76a5.59,5.59,0,0,1,.14-.8,2,2,0,0,1,.24-.61h.38l.38,0h.29a2.41,2.41,0,0,1,.38,0,2.33,2.33,0,0,1,.36.08.41.41,0,0,1,.25.19,1.27,1.27,0,0,0,0,.23V.84A4.35,4.35,0,0,1,154.31,2a5,5,0,0,0-.13,1.16.43.43,0,0,0,.08.24.79.79,0,0,0,.17.19l.42,0c.24,0,.55,0,.85.06a5.16,5.16,0,0,1,.87.17c.25.06.38.15.38.26V7.22l.27.26h10.51l.24.25v2.91s0,0,0,.06l-.07.07-.1.08-.15.11a1,1,0,0,0-.17.11c-.06,0-.08.08-.09.08a.46.46,0,0,1-.12.13c-.06.06-.07.1-.07.12v3.8a.94.94,0,0,1-.21.59,2.6,2.6,0,0,1-1.16.72,2.09,2.09,0,0,1-.61.09.67.67,0,0,1-.46-.13,2.25,2.25,0,0,1-.24-.36,2.74,2.74,0,0,1-.21-.42,1.15,1.15,0,0,0-.34-.36l-.19.25v1.9q0,.11-.18.24a.66.66,0,0,1-.26.14h-1.52a.24.24,0,0,1-.11-.06l-.16-.06a.26.26,0,0,0-.11-.07l-.08-.06V13.05a.33.33,0,0,0-.19-.28.53.53,0,0,0-.3-.12ZM153.23,9.8c.06.16.21.23.46.23s.38-.15.49-.44a4.6,4.6,0,0,0,.27-1c.05-.39.07-.74.09-1.13s0-.62,0-.77a.66.66,0,0,0-.11-.38.46.46,0,0,0-.35-.14q-.32,0-.51.42a3.54,3.54,0,0,0-.28,1,6.51,6.51,0,0,0-.14,1c0,.32,0,.53,0,.64A1.52,1.52,0,0,0,153.23,9.8Zm10.83-5.11a.36.36,0,0,1-.06-.11c0-.06-.06-.08-.07-.08h-4.81a.28.28,0,0,1-.25-.11.81.81,0,0,1-.11-.27.88.88,0,0,1,0-.32V3.36a1.62,1.62,0,0,1,0-.3.49.49,0,0,1,.11-.23.39.39,0,0,1,.27-.1H164a.68.68,0,0,1,0-.15c0-.05,0-.11,0-.17a.38.38,0,0,0,0-.13.32.32,0,0,0-.23-.06h-5.32l-.24-.32V.76s0,0,.05,0a.17.17,0,0,1,.08-.07l.13-.1.12,0h7.84l.12,0c.05,0,.11.06.15.1s0,0,.05.07.06,0,.06,0v5.7c0,.06-.07.13-.21.23a.76.76,0,0,1-.28.15h-7.73a.89.89,0,0,1-.31-.15c-.13-.1-.21-.17-.21-.23V5.32l.06-.06s.06,0,.08,0l.15-.14a.26.26,0,0,1,.09-.05h5.46s0,0,.07-.08a.67.67,0,0,1,.06-.12V4.69Zm-4.54,5.42c0,.11.09.15.23.15H161c.06,0,.09-.06.15-.19a1.55,1.55,0,0,1,.1-.19V9.82a.51.51,0,0,0-.14-.32,1.46,1.46,0,0,0-.24-.25s-.12,0-.27,0h-.25a1.47,1.47,0,0,0-.62.1c-.17.05-.27.22-.27.51A1.47,1.47,0,0,0,159.52,10.11Zm4.31,0a.21.21,0,0,0,.23.15h1.38a.11.11,0,0,0,.12-.08,1.55,1.55,0,0,0,0-.15V9.88a.32.32,0,0,1,0-.08,1.94,1.94,0,0,0,0-.34c0-.09-.1-.17-.25-.21s-.13,0-.28,0h-.29a2.25,2.25,0,0,0-.66.08c-.19,0-.29.23-.29.53A1.47,1.47,0,0,0,163.83,10.11Zm0,3.7a1.94,1.94,0,0,0,0,.34.84.84,0,0,0,.12.31.28.28,0,0,0,.24.11.62.62,0,0,0,.31-.15,1.58,1.58,0,0,0,.2-.23,2.62,2.62,0,0,1,0-.32v-.61a1.94,1.94,0,0,0,0-.34.46.46,0,0,0-.15-.27.36.36,0,0,0-.28-.11.42.42,0,0,0-.31.11,1.69,1.69,0,0,0-.13.27,1.94,1.94,0,0,0,0,.34v.55Z"/><path d="M179.51,1V7.35l0,0-.1.09-.13.12a.46.46,0,0,0-.11.07h-4s0,0-.08.1a.39.39,0,0,1-.05.1.31.31,0,0,0-.1.13.53.53,0,0,0-.09.11v9.37c0,.07-.06.15-.17.24a.68.68,0,0,1-.27.14h-1.79s-.11-.08-.2-.21a.57.57,0,0,1-.18-.29V1.14l.06-.1a.4.4,0,0,1,.08-.15l.05-.07s.06-.06.08-.06h6.84Zm-4.58,4.54c0,.09,0,.13.15.13h1.77c.07,0,.11,0,.13-.13V5.21c0-.1-.06-.14-.13-.14h-1.77c-.1,0-.13,0-.15.14v.36Zm0-2.64a1,1,0,0,0,.13.15l.11.09h1.52s.06,0,.14-.09a1.24,1.24,0,0,1,.13-.15V2.79a1.35,1.35,0,0,0-.13-.15c-.08-.06-.12-.1-.14-.1h-1.52a.59.59,0,0,1-.11.1.4.4,0,0,0-.13.15v.14Zm1.65,13.79V9.12l.25-.25h6.7l.33.25v5.7a.28.28,0,0,0,.11.24.72.72,0,0,0,.25.12l.3,0h.23a1.32,1.32,0,0,0,.66-.14c.19-.07.29-.3.29-.64V8.36a.79.79,0,0,0,0-.17,2.4,2.4,0,0,1-.11-.23.61.61,0,0,0-.17-.19.27.27,0,0,0-.19-.1H181l0-.07c0-.06-.06-.1-.1-.12s0-.09,0-.15a.24.24,0,0,1-.06-.11V1.14l.06-.1a1.24,1.24,0,0,1,0-.15A.29.29,0,0,1,181,.82s0-.06.06-.06h7.08s0,0,.08.06l.06.07a.72.72,0,0,1,.07.15l.06.1V15.08a2.83,2.83,0,0,1-.32,1.39,2.59,2.59,0,0,1-.84.84,3,3,0,0,1-1.2.43,6.52,6.52,0,0,1-1.4.14,1,1,0,0,1-.74-.25,1.69,1.69,0,0,1-.35-.57c-.07-.21-.13-.4-.19-.57s-.13-.27-.28-.27h-3.8s-.08,0-.13.1a1.2,1.2,0,0,0-.17.21c-.06.07-.1.15-.16.23l-.05.09-.06.08s-.06.05-.08.05h-1.76Zm2.51-5.36a.85.85,0,0,0,.3.15,2,2,0,0,0,.38,0h.69a2.1,2.1,0,0,0,.37,0,.82.82,0,0,0,.31-.11.41.41,0,0,0,.13-.31.48.48,0,0,0-.11-.3.29.29,0,0,0-.29-.15h-1.52a.47.47,0,0,0-.26.11A.37.37,0,0,0,179,11,.45.45,0,0,0,179.11,11.36Zm-.06,2.7a.2.2,0,0,0,.21.13H181a.2.2,0,0,0,.2-.13.55.55,0,0,0,0-.5.22.22,0,0,0-.2-.13h-1.77a.23.23,0,0,0-.21.13.55.55,0,0,0,0,.5Zm4.39-11.13a1.24,1.24,0,0,1,.13.15c.06.07.1.09.11.09h1.66c.07,0,.13,0,.13-.15V2.85a.56.56,0,0,0,0-.21c0-.06-.09-.1-.24-.1h-1.53l-.11.1a1.35,1.35,0,0,0-.13.15s0,0,0,.06S183.42,2.91,183.44,2.93Zm0,2.75c0,.1.09.15.22.15h1.53a.38.38,0,0,0,.26-.11.35.35,0,0,0,.13-.27.52.52,0,0,0,0-.24.21.21,0,0,0-.21-.14h-1.79c-.07,0-.11,0-.11.14a.77.77,0,0,0,0,.18A1.81,1.81,0,0,0,183.46,5.68Z"/><path d="M195.39,7.88a2.31,2.31,0,0,1,.51-.76,2.66,2.66,0,0,1,.8-.51,2.9,2.9,0,0,1,1-.17,2.52,2.52,0,0,1,1.79.7,2.44,2.44,0,0,1,.7,1.79,2.9,2.9,0,0,1-.17,1,2.52,2.52,0,0,1-.52.79,2.1,2.1,0,0,1-.76.52,2.41,2.41,0,0,1-1,.19,2.42,2.42,0,0,1-2.55-2.55A2.5,2.5,0,0,1,195.39,7.88Z"/><path d="M209.09,9.38l-.32-.26L208,9.5c-.08,0-.17,0-.33-.25s-.3-.46-.45-.72-.3-.55-.44-.82a2.13,2.13,0,0,1-.19-.57,1.88,1.88,0,0,1,.42-.83c.27-.4.57-.8.93-1.26l1-1.27a6.52,6.52,0,0,0,.7-1,3.87,3.87,0,0,1,.23-.45c.09-.23.21-.46.32-.69s.25-.47.34-.68a4.58,4.58,0,0,1,.25-.46c0-.15.11-.22.21-.24a1.94,1.94,0,0,1,.34,0c.15,0,.32,0,.55,0a3,3,0,0,1,.65.13,1.5,1.5,0,0,1,.57.26.56.56,0,0,1,.23.46.11.11,0,0,1,0,.07v.06l-.12.29c-.05.17-.11.28-.13.34l-.25.53c-.13.25-.26.51-.4.8a8.67,8.67,0,0,1-.38.82c-.11.24-.2.41-.24.51l-.19.65V17.74h-2.23l-.3-.26Zm4,5.57.06-.06a.18.18,0,0,0,.05-.07,1.11,1.11,0,0,1,.16-.12.2.2,0,0,1,.11-.07H217s0,0,.08-.08l.06-.11a.45.45,0,0,0,.07-.14l.06-.11V8.62l-.06-.11a.53.53,0,0,0-.07-.15.67.67,0,0,1-.06-.12c0-.05-.06-.07-.08-.07h-4l-.12-.06c-.05-.06-.11-.09-.13-.13s-.06,0-.1-.06a.07.07,0,0,0,0,0V5.64h4a.85.85,0,0,0,.29-.09,2.49,2.49,0,0,0,.23-.23.77.77,0,0,1,.11-.15.44.44,0,0,0,.08-.1V.65s0,0,.07-.08a.17.17,0,0,1,.12-.06s.07,0,.15-.09l.09,0h1.79l.09,0c.06,0,.12,0,.16.09l.11.06c.06,0,.08.06.08.08V4.94a.77.77,0,0,0,.24.45.63.63,0,0,0,.46.25h3.53s0,0,.08.08a.27.27,0,0,0,.06.11s.05.1.07.15l.06.1V7.6a.4.4,0,0,1-.1.21.69.69,0,0,1-.17.17s-.07.07-.13.13l-.11.06h-3.56c-.11,0-.21.07-.26.25a.85.85,0,0,0-.12.32v5.32a.86.86,0,0,0,.12.34.29.29,0,0,0,.26.23h3.18l.09.07a.49.49,0,0,1,.15.12A.7.7,0,0,1,224,15a.71.71,0,0,1,.12.11v1.77l-.27.25H213.08Z"/><path d="M232.71,16.19a.18.18,0,0,1,.13-.1l.28,0,.48,0c.15,0,.3,0,.46,0l.3,0a1.07,1.07,0,0,0,.32-.08.29.29,0,0,0,.17-.3.41.41,0,0,0-.13-.27.34.34,0,0,0-.25-.17H229.8l-.27-.32V13.68l.27-.31h4.67c.14,0,.21,0,.25-.13a1.18,1.18,0,0,0,0-.25.86.86,0,0,0,0-.24c0-.1-.11-.14-.25-.14H227.9a.14.14,0,0,1-.15-.13,1.69,1.69,0,0,1-.08-.34,2,2,0,0,1,0-.32v-.4a2.11,2.11,0,0,1,0-.33.52.52,0,0,1,.12-.26.24.24,0,0,1,.23-.12h6.45c.12,0,.19,0,.23-.11a.37.37,0,0,0,.06-.21.49.49,0,0,0-.06-.23.28.28,0,0,0-.23-.09h-4.56l-.24-.31v-1l.24-.31h4.45c.17,0,.28,0,.32-.09a.49.49,0,0,0,.06-.27V7.85c0-.12-.06-.18-.13-.18h-4.32l0-.07a.33.33,0,0,0-.06-.12.68.68,0,0,1-.08-.15.31.31,0,0,1,0-.11v-3a.63.63,0,0,1,.13-.27c.09-.11.17-.17.25-.17h4.18c.07,0,.11-.05.11-.13a.84.84,0,0,0,0-.19.59.59,0,0,0,0-.17c0-.1,0-.13-.11-.13h-6.08a.34.34,0,0,1-.29-.18,1.12,1.12,0,0,1-.11-.38,3,3,0,0,1,0-.41,1.45,1.45,0,0,1,0-.23v-.3a.67.67,0,0,1,0-.21l.24-.33h6.08a.4.4,0,0,0,.27-.11c.06-.1.13-.19.19-.31l.15-.32a.6.6,0,0,1,.15-.21.62.62,0,0,1,.16-.07A.4.4,0,0,1,235.5,0h1.77a.35.35,0,0,1,.3.17,1.88,1.88,0,0,1,.15.38,2.53,2.53,0,0,1,.15.36.3.3,0,0,0,.29.17h6.33l.24.33V2.79l0,0s-.06.06-.06.1a.33.33,0,0,0-.15.11c-.06.06-.1.08-.12.08h-6.19c-.06,0-.1,0-.11.13a.59.59,0,0,0,0,.17.84.84,0,0,0,0,.19c0,.08,0,.13.11.13h4.29s.06,0,.12.08l.15.11.07.08,0,0V7.35l-.24.32h-4.43c-.08,0-.11.06-.13.18a1.4,1.4,0,0,0,0,.22.41.41,0,0,0,.07.27c0,.06.14.09.33.09H243l.32.31v1.52l.44.38.76,0a1.32,1.32,0,0,1,.47.13.69.69,0,0,1,.25.34,3.2,3.2,0,0,1,0,.68c0,.06,0,.14,0,.27v.19l-.25.25a1.64,1.64,0,0,1-.29,0,4.68,4.68,0,0,0-.59.07,1.82,1.82,0,0,0-.57.19.38.38,0,0,0-.26.36v2.4l-.32.26h-2a.38.38,0,0,1-.25-.11,2,2,0,0,1-.18-.21,2.11,2.11,0,0,1-.19-.23.48.48,0,0,0-.25-.09h-1.79a.3.3,0,0,0-.28.19c-.06.13-.14.3-.21.49s-.19.42-.3.65a2.43,2.43,0,0,1-.56.66,2.81,2.81,0,0,1-.95.48,5,5,0,0,1-1.55.21h-.48a1.32,1.32,0,0,1-.28,0h-.19a1.21,1.21,0,0,1-.55-.67,1.83,1.83,0,0,1-.21-.85ZM232.82,6a.32.32,0,0,0,.27.13h1.38a.43.43,0,0,0,.25-.12.24.24,0,0,0,.15-.18s0-.06,0-.08a.86.86,0,0,1,0-.15l-.06-.1h-1.9a.12.12,0,0,0-.13.1V5.7A.38.38,0,0,0,232.82,6ZM238,6a.3.3,0,0,0,.24.13h1.41a.33.33,0,0,0,.25-.13.41.41,0,0,0,.13-.25s0-.08,0-.15a.13.13,0,0,0-.11-.1H238a.13.13,0,0,0-.12.1c0,.07,0,.11,0,.15A.31.31,0,0,0,238,6Zm0,7.2c0,.09,0,.15.13.15h2c.1,0,.14-.06.15-.15V13a.38.38,0,0,0,0-.2c0-.06-.1-.1-.23-.1h-1.79c-.13,0-.21,0-.22.1a.5.5,0,0,0,0,.2A.88.88,0,0,0,238,13.15Zm0-2.61c0,.06,0,.1.11.1h1.9c.11,0,.19,0,.23-.08a.33.33,0,0,0,0-.15,1.16,1.16,0,0,0,0-.17c0-.08-.06-.1-.14-.1h-2c-.08,0-.11,0-.11.1a.44.44,0,0,0,0,.15A.41.41,0,0,0,238.05,10.54Z"/><path d="M62.66,36.14a3.77,3.77,0,0,1,.78-1,7.84,7.84,0,0,1,1-.78,9.11,9.11,0,0,0,1-.74,4.08,4.08,0,0,0,.78-.84,1.9,1.9,0,0,0,.32-1.1v-.4c0-.15,0-.32,0-.47a1,1,0,0,0-.19-.42.53.53,0,0,0-.42-.17H63.36s-.06,0-.11-.12a1.19,1.19,0,0,0-.16-.19.86.86,0,0,0-.05-.15A.24.24,0,0,1,63,29.7V28.06l.25-.32h2.9s.06,0,.12-.13l.15-.19s0-.08.08-.13a.49.49,0,0,0,0-.12V25l.27-.27h2.28s.09.08.17.19.08.19.08.19v.13a1.72,1.72,0,0,1,0,.27,4.4,4.4,0,0,1,0,.49,2.41,2.41,0,0,0-.06.5,1.62,1.62,0,0,0,0,.26.64.64,0,0,0,.08.27.35.35,0,0,0,.19.24h.44a3.4,3.4,0,0,0,1-.13,4.92,4.92,0,0,1,1-.13,1.38,1.38,0,0,1,.26,0,.2.2,0,0,1,.16.22v2a.35.35,0,0,1-.25.32,2.35,2.35,0,0,1-.61.12l-.78,0a4,4,0,0,0-.8.15,1.31,1.31,0,0,0-.62.39,1,1,0,0,0-.25.76,2.21,2.21,0,0,0,.1.58.43.43,0,0,0,.45.31,9.22,9.22,0,0,0,1.31-.08c.44,0,.88-.07,1.33-.07a9.11,9.11,0,0,1,2,.22,5.63,5.63,0,0,1,1.72.72,3.78,3.78,0,0,1,1.69,3.31,4.33,4.33,0,0,1-.51,2.13,4.86,4.86,0,0,1-1.37,1.54,6.48,6.48,0,0,1-1.93.91,7.86,7.86,0,0,1-2.21.3.87.87,0,0,1-.63-.24,1.94,1.94,0,0,1-.41-.59,4.48,4.48,0,0,1-.23-.76,3.21,3.21,0,0,1-.08-.71.35.35,0,0,1,.06-.21s.1-.09.21-.15c.36,0,.78,0,1.29-.11a7.07,7.07,0,0,0,1.41-.32,4.08,4.08,0,0,0,1.14-.69A1.58,1.58,0,0,0,74.89,36a1.45,1.45,0,0,0-.25-.88,1.94,1.94,0,0,0-.64-.57,3.5,3.5,0,0,0-.86-.3,3.67,3.67,0,0,0-.91-.1l-.59,0c-.32,0-.68.06-1.06.1a3.84,3.84,0,0,0-1,.23c-.3.09-.45.24-.45.43v4.3a1.61,1.61,0,0,1-.21.8,2,2,0,0,1-.5.6,2.26,2.26,0,0,1-.72.38,2.73,2.73,0,0,1-.78.14,5.15,5.15,0,0,1-1.54-.27,5.07,5.07,0,0,1-1.48-.76,4.12,4.12,0,0,1-1.12-1.16,2.83,2.83,0,0,1-.44-1.5A2.6,2.6,0,0,1,62.66,36.14Zm2.69,1.71a.83.83,0,0,0,1,.13.28.28,0,0,0,.19-.3V36a.12.12,0,0,0-.13-.13.59.59,0,0,0-.17,0l-.19,0c-.29.25-.49.44-.67.61a1,1,0,0,0-.24.76A.71.71,0,0,0,65.35,37.85Zm8.36-9.59a3.4,3.4,0,0,1,.29-.57,2.84,2.84,0,0,1,.4-.56.57.57,0,0,1,.42-.22s.05,0,.05,0l.95.41c.38.16.78.33,1.2.54a9.52,9.52,0,0,1,1.16.68,3.51,3.51,0,0,1,.87.76s0,0,0,.06a1.2,1.2,0,0,1-.13.47,3.71,3.71,0,0,1-.33.61,4.36,4.36,0,0,1-.39.55.66.66,0,0,1-.42.23.24.24,0,0,1-.13,0l-.9-.48c-.43-.22-.91-.47-1.37-.74s-.89-.53-1.25-.79-.55-.44-.55-.58A1.67,1.67,0,0,1,73.71,28.26Z"/><path d="M86.43,38.57a.4.4,0,0,1,0-.13,4.06,4.06,0,0,1-.35-.53,3.29,3.29,0,0,1-.3-.63,3.4,3.4,0,0,1-.17-.7,1.87,1.87,0,0,1,.06-.67.64.64,0,0,0-.33-.11,1.45,1.45,0,0,1-.41-.06,1.42,1.42,0,0,1-.36-.1.24.24,0,0,1-.18-.24V33.88l.27-.31H89.2a.4.4,0,0,0,.23-.09,1.14,1.14,0,0,0,.17-.27,2.22,2.22,0,0,0,.09-.28,1.14,1.14,0,0,0,0-.25v-.15c0-.1,0-.19,0-.27a1.32,1.32,0,0,0-.08-.22c0-.08-.08-.12-.13-.12H86.92l-.38-.3a.72.72,0,0,0-.44-.16,1.44,1.44,0,0,0-.55.12c-.17.08-.36.19-.53.29s-.36.22-.53.34a2.31,2.31,0,0,1-.5.28,1.08,1.08,0,0,1-.45-.27,5.05,5.05,0,0,1-.44-.47c-.13-.17-.25-.36-.36-.53a4.09,4.09,0,0,0-.27-.38v-.19l.37-.29c.24-.19.55-.43.91-.74l1.21-1c.44-.36.86-.68,1.24-1l1-.86a4.42,4.42,0,0,0,.55-.51l.35-.42.58-.76c.23-.26.44-.53.65-.76s.36-.34.46-.34h2.52s.16.09.38.29.48.45.78.75.63.63,1,1l1,1c.33.32.63.63.9.87a6,6,0,0,0,.59.52c.49.34,1,.64,1.48.93l1.56.83v.51a1.23,1.23,0,0,1-.16.31c-.11.17-.24.34-.4.55a6.19,6.19,0,0,1-.47.55c-.15.17-.29.29-.36.36h-.06l-.06,0a1.11,1.11,0,0,1-.58-.19,4,4,0,0,1-.54-.4c-.19-.15-.36-.26-.55-.4a1,1,0,0,0-.57-.17.35.35,0,0,0-.3.13c-.1.08-.17.18-.27.25l-.13.12-.12.07H92.87q-.09,0-.12.12a.77.77,0,0,0-.09.22,1.1,1.1,0,0,0,0,.27.88.88,0,0,1,0,.15,1.8,1.8,0,0,0,.13.53.88.88,0,0,0,.16.27.28.28,0,0,0,.22.09h4.83v2c0,.08-.06.13-.19.17a2.09,2.09,0,0,1-.42.08l-.46.07a.55.55,0,0,0-.34.19,1.57,1.57,0,0,1,.32.31.63.63,0,0,1,.08.38,1,1,0,0,1-.17.55c-.13.17-.27.32-.4.47l-.4.48a.84.84,0,0,0-.19.53v.06s.08.11.16.19.09.13.11.13h2.77l.12.08.15.11.07.06,0,.07V41.1l0,0-.07.08a.68.68,0,0,1-.15.08l-.12,0H83.75a.38.38,0,0,1-.27-.13.45.45,0,0,1-.11-.25v-1.4c0-.08,0-.15.13-.27s.17-.17.25-.17h2.52c.1,0,.14-.08.16-.21v-.36Zm2.39.51h.25a2.28,2.28,0,0,0,.4,0,.3.3,0,0,0,.22-.33V36.29A.34.34,0,0,0,89.6,36a.64.64,0,0,0-.27-.18A1.07,1.07,0,0,0,89,35.8l-.27,0a3.77,3.77,0,0,0-.51,0c-.13,0-.21.13-.21.36a.4.4,0,0,0,0,.13c0,.06,0,.09,0,.11l.76,1.52v.21a1.08,1.08,0,0,1-.06.38.89.89,0,0,0-.07.36C88.69,39,88.74,39.06,88.82,39.08ZM89,29.45c0,.1,0,.13.12.13h4.31s.06,0,.11-.11a.79.79,0,0,0,.14-.15v-.11a1.38,1.38,0,0,1-.06-.16l-.08-.11-2.14-2.15H91.1l-.11.08c-.06.06-.14.13-.21.21s-.16.17-.23.26-.15.16-.21.21-.15.16-.29.29l-.41.47a5.84,5.84,0,0,0-.42.46c-.13.13-.23.25-.29.3v.19A.8.8,0,0,0,89,29.45ZM93.3,35.8a1.13,1.13,0,0,0-.32.05.64.64,0,0,0-.25.18.32.32,0,0,0-.11.26V38.7a.19.19,0,0,0,.17.21.74.74,0,0,0,.27.06.72.72,0,0,0,.19,0,1.55,1.55,0,0,1,.17-.74c.13-.21.26-.44.4-.65a4.57,4.57,0,0,0,.39-.62,1.22,1.22,0,0,0,.19-.71.35.35,0,0,0-.28-.4,3.62,3.62,0,0,0-.55,0Z"/><path d="M106.85,31.88a2.31,2.31,0,0,1,.51-.76,2.66,2.66,0,0,1,.8-.51,2.9,2.9,0,0,1,1-.17,2.48,2.48,0,0,1,1.78.7,2.41,2.41,0,0,1,.71,1.79,2.9,2.9,0,0,1-.17,1,2.52,2.52,0,0,1-.52.79,2,2,0,0,1-.76.52,2.41,2.41,0,0,1-1,.19,2.42,2.42,0,0,1-2.55-2.55A2.5,2.5,0,0,1,106.85,31.88Z"/><path d="M122.66,40a6.09,6.09,0,0,0-.74.34c-.23.13-.48.24-.74.36a2,2,0,0,1-.78.17.56.56,0,0,1-.4-.23,2.17,2.17,0,0,1-.4-.53,3.91,3.91,0,0,1-.32-.55,2.54,2.54,0,0,0-.19-.36v-.06q0-.16.51-.42c.36-.17.8-.36,1.33-.57s1.08-.42,1.71-.66,1.18-.48,1.69-.7a9.27,9.27,0,0,0,1.33-.75c.34-.24.53-.47.53-.7a.09.09,0,0,0,0-.06.13.13,0,0,0,0-.07l-.06-.06a2.52,2.52,0,0,0-1.25.34c-.4.23-.8.48-1.22.74s-.8.52-1.2.74a2.53,2.53,0,0,1-1.27.35l-.28,0a.23.23,0,0,1-.23-.12L119.85,36a.2.2,0,0,1,0-.07v-.1a.52.52,0,0,1,.34-.45,4.75,4.75,0,0,1,.87-.36c.35-.12.73-.23,1.13-.35a7.69,7.69,0,0,0,1.12-.34,3.54,3.54,0,0,0,.85-.41.63.63,0,0,0,.36-.54,3.69,3.69,0,0,0-1,.15l-.93.33c-.3.13-.61.22-.93.34a3.37,3.37,0,0,1-1,.15.58.58,0,0,1-.19,0s-.09,0-.17-.11a1.7,1.7,0,0,1-.15-.21,3.69,3.69,0,0,0-.25-.34,1.55,1.55,0,0,0-.23-.34,2.44,2.44,0,0,0-.13-.25l-.11-.19a.47.47,0,0,1,0-.19c0-.13.09-.25.28-.34a2.75,2.75,0,0,1,.71-.25c.28-.08.58-.13.91-.19s.64-.13.93-.21.51-.17.7-.25.27-.21.27-.34a.28.28,0,0,0-.1-.17.92.92,0,0,0-.21-.13.94.94,0,0,0-.23-.1.16.16,0,0,0-.09,0,.17.17,0,0,1-.08-.07s0,0,0-.06V29.07a.29.29,0,0,1,.17-.28.74.74,0,0,1,.34-.1h8.74a.48.48,0,0,1,.19.08l.21.15.15.19c.06.06.08.1.08.13a2.51,2.51,0,0,1-.21,1.22,1.1,1.1,0,0,1-.5.38l-.49.15c-.15,0-.21.17-.21.42a1,1,0,0,0,.17.57.57.57,0,0,0,.49.26.93.93,0,0,0,.48-.15,3.77,3.77,0,0,0,.51-.34,2.66,2.66,0,0,0,.46-.38l.3-.26.19,0a1.27,1.27,0,0,1,.52.15,2.27,2.27,0,0,1,.57.38,3.31,3.31,0,0,1,.45.47.75.75,0,0,1,.19.48.8.8,0,0,1-.4.68,8.72,8.72,0,0,1-.87.48,5.29,5.29,0,0,0-.89.45.83.83,0,0,0-.4.7,1.48,1.48,0,0,0,.51,1.07,10.06,10.06,0,0,0,1.08.93c.4.28.76.55,1.1.82s.5.47.5.68v.19c0,.06-.1.13-.19.27a3.05,3.05,0,0,0-.32.38c-.1.11-.19.24-.31.38l-.21.24a3.59,3.59,0,0,0-.3.38.33.33,0,0,1-.31.14A2.06,2.06,0,0,1,133,39.8a6.27,6.27,0,0,1-1.25-1.38,19.47,19.47,0,0,1-1.12-1.9c-.34-.69-.67-1.35-.93-2s-.51-1.26-.7-1.81a12.56,12.56,0,0,1-.4-1.22c-.06-.11-.12-.19-.16-.2a.3.3,0,0,0-.2-.06.9.9,0,0,0-.59.24.68.68,0,0,0-.33.52,2,2,0,0,0,.38.83c.27.39.54.84.84,1.35a13.27,13.27,0,0,1,.83,1.69,5.1,5.1,0,0,1,.37,1.9,4.82,4.82,0,0,1-.29,1.68,3.24,3.24,0,0,1-.8,1.29,3.69,3.69,0,0,1-1.25.85,4.53,4.53,0,0,1-1.65.31h-.48a1.32,1.32,0,0,1-.28,0h-.19a.49.49,0,0,1-.46-.38,7,7,0,0,1-.15-.69,2.55,2.55,0,0,0-.19-.66.59.59,0,0,0-.55-.31A1.78,1.78,0,0,0,122.66,40Zm-3.33-14.21a.65.65,0,0,1,.16-.29.34.34,0,0,1,.22-.17h6c.11,0,.19-.08.23-.21a1.83,1.83,0,0,0,.11-.46,1.83,1.83,0,0,1,.17-.45.4.4,0,0,1,.36-.21h1.66a.4.4,0,0,1,.36.21,1.83,1.83,0,0,1,.15.45,2.31,2.31,0,0,0,.13.46.26.26,0,0,0,.25.21h6l.11.08.13.11s.06.06.08.1l.06,0V29.7h-2.28c-.21,0-.31-.1-.35-.31a6.13,6.13,0,0,1,0-.64,4.6,4.6,0,0,0,0-.65.34.34,0,0,0-.38-.3H122.26a.31.31,0,0,0-.34.3,2.28,2.28,0,0,0,0,.65,6.13,6.13,0,0,1,0,.64c0,.21-.09.31-.25.31h-2l-.27-.25Zm5.74,13.64.34,0a1.9,1.9,0,0,0,.46-.07,2.72,2.72,0,0,0,.46-.21,1.11,1.11,0,0,0,.36-.32.94.94,0,0,0,.13-.48.54.54,0,0,0-.06-.25c0-.05-.09-.07-.19-.07a1.48,1.48,0,0,0-.43.11,3.83,3.83,0,0,0-.57.29,2.3,2.3,0,0,0-.48.38.71.71,0,0,0-.19.38A.19.19,0,0,0,125.07,39.43Z"/><path d="M141.93,40.3a2.75,2.75,0,0,0-.23.49c-.08.17-.15.34-.23.5a.51.51,0,0,1-.44.21H141s-.08,0-.08,0l-1.41-1.39V40a.45.45,0,0,1,0-.11,1.61,1.61,0,0,1,.11-.59c.08-.19.17-.38.27-.59a5.73,5.73,0,0,1,.3-.61,4.53,4.53,0,0,0,.23-.57,22.11,22.11,0,0,0,.59-3.23,32.54,32.54,0,0,0,.17-3.3v-1.2a.35.35,0,0,0-.29-.32,4.59,4.59,0,0,0-.51-.1,3.2,3.2,0,0,1-.49-.07.25.25,0,0,1-.23-.27V27.3l.24-.32H142l.11-.09c.06-.06.1-.1.14-.1s0,0,.09-.07.1,0,.1-.06V24.51a.38.38,0,0,0,.07-.11l.12-.13a.56.56,0,0,1,.17-.18A.36.36,0,0,1,143,24h1.52l.09.06a.34.34,0,0,1,.15.07.5.5,0,0,1,.14.08s0,0,0,.06v2.14a.72.72,0,0,1,.08.1.44.44,0,0,1,.11.15c0,.06.1.11.16.19l.11.13H147a.91.91,0,0,0,.23.23c.15.11.23.19.26.21s0,0,.08,0a.67.67,0,0,0,.53-.25,2.34,2.34,0,0,0,.34-.63c.08-.24.17-.51.25-.79a6.88,6.88,0,0,1,.25-.8,2,2,0,0,1,.34-.61.66.66,0,0,1,.55-.25l.49,0a2.84,2.84,0,0,1,.57.1,1.53,1.53,0,0,1,.48.23.49.49,0,0,1,.19.43.83.83,0,0,1-.06.34.77.77,0,0,0-.07.37.51.51,0,0,0,.11.3.28.28,0,0,0,.27.19h4.8l.27.19v2.09H152a1.43,1.43,0,0,0-.28.08.88.88,0,0,0-.34.11.25.25,0,0,0-.14.13c.12.15.21.25.27.34s.13.18.21.27a1.54,1.54,0,0,0,.19.28,2.35,2.35,0,0,1,.23.38.52.52,0,0,0,.13.12c.06,0,.09.07.11.07h3.94s.13.06.24.18a.43.43,0,0,1,.13.26V32a.41.41,0,0,1-.13.26c-.11.14-.19.19-.24.19h-2a.19.19,0,0,0-.15.12.78.78,0,0,0-.13.24c0,.1-.06.18-.08.27a.76.76,0,0,0,0,.19,1.26,1.26,0,0,0,.15.53.55.55,0,0,0,.5.29H157v2l-.25.31h-2a.21.21,0,0,0-.23.13,1.81,1.81,0,0,0,0,.23,1.47,1.47,0,0,0,.45,1,7.47,7.47,0,0,0,1,.88c.34.29.67.53.95.76s.44.42.44.61a1,1,0,0,1-.17.47,3.49,3.49,0,0,1-.38.53,2.72,2.72,0,0,1-.48.48.68.68,0,0,1-.43.19,1.19,1.19,0,0,1-.86-.42,11.62,11.62,0,0,1-.78-.91l-.7-.93c-.21-.27-.4-.42-.57-.42h-.08s-.05,0-.11.08a.36.36,0,0,0-.14,0c-.13.16-.34.37-.6.65a11.15,11.15,0,0,1-.84.85,7,7,0,0,1-1,.73,1.71,1.71,0,0,1-1,.32.65.65,0,0,1-.19,0,3.56,3.56,0,0,1-.3-.29c-.13-.11-.25-.24-.38-.37a4,4,0,0,1-.32-.4.71.71,0,0,1-.14-.38c0-.19.16-.4.48-.61l1.06-.74a11.62,11.62,0,0,0,1-.91,1.69,1.69,0,0,0,.47-1.12,1.36,1.36,0,0,0,0-.27c0-.12-.09-.17-.22-.17h-2.28L148.1,36V34.39a.25.25,0,0,1,.19-.25,1,1,0,0,1,.38-.09,2.57,2.57,0,0,0,.4-.08.18.18,0,0,0,.17-.19.49.49,0,0,0-.17-.41c-.14-.12-.27-.19-.4-.29a2,2,0,0,1-.4-.25.45.45,0,0,1-.19-.4,1.63,1.63,0,0,1,.13-.58c.1-.18.19-.37.29-.54a5.26,5.26,0,0,0,.26-.59,1.34,1.34,0,0,0,.14-.64,2.06,2.06,0,0,1-.67-.1,3.32,3.32,0,0,1-.47-.2c-.16-.1-.31-.16-.44-.23a1.26,1.26,0,0,0-.49-.1h-2.66a.34.34,0,0,0-.27.12.53.53,0,0,0-.17.24l-.06.33a1.23,1.23,0,0,0,0,.26,1.47,1.47,0,0,0,.14.59.49.49,0,0,0,.51.3H147s.08,0,.11.1a2.09,2.09,0,0,1,.1.21,1,1,0,0,1,0,.25v.51c0,.25,0,.64-.06,1.18s-.06,1.06-.08,1.61,0,1.05-.07,1.52,0,.76,0,.89c0,.57-.1,1.12-.17,1.64a4.11,4.11,0,0,1-.44,1.36,2.34,2.34,0,0,1-.91,1,3.11,3.11,0,0,1-1.62.36.66.66,0,0,1-.62-.29,2.1,2.1,0,0,1-.27-.61c-.06-.22-.13-.43-.19-.62a.38.38,0,0,0-.4-.29A.44.44,0,0,0,141.93,40.3Zm1.15-.7a1.22,1.22,0,0,0,1.11-.59,4,4,0,0,0,.45-1.37,8.54,8.54,0,0,0,.08-1.6c0-.55,0-1,0-1.27V34a.75.75,0,0,0-.25-.32.45.45,0,0,0-.3-.08c-.17,0-.32.14-.46.38s-.26.57-.4.95-.22.8-.32,1.24-.17.89-.23,1.29-.13.76-.15,1-.06.5-.06.57C142.51,39.43,142.7,39.6,143.08,39.6Zm7.26-5.66a1.58,1.58,0,0,0,.42.07.52.52,0,0,0,.47-.23.72.72,0,0,0,.17-.51c0-.15,0-.28,0-.44s-.14-.24-.33-.24a.52.52,0,0,0-.32.11,3.58,3.58,0,0,0-.29.27,1,1,0,0,0-.22.34,1.28,1.28,0,0,0-.12.32C150.08,33.8,150.17,33.9,150.34,33.94Z"/><path d="M164.61,31.88a2.31,2.31,0,0,1,.51-.76,2.66,2.66,0,0,1,.8-.51,2.9,2.9,0,0,1,1-.17,2.48,2.48,0,0,1,1.78.7,2.41,2.41,0,0,1,.71,1.79,2.9,2.9,0,0,1-.17,1,2.52,2.52,0,0,1-.52.79,2,2,0,0,1-.76.52,2.41,2.41,0,0,1-1,.19,2.42,2.42,0,0,1-2.55-2.55A2.5,2.5,0,0,1,164.61,31.88Z"/><path d="M185.78,38.46a.58.58,0,0,0-.19,0h-.14a12.47,12.47,0,0,1-1.52,1.27,11.49,11.49,0,0,1-1.74,1,11.93,11.93,0,0,1-1.88.72,8.11,8.11,0,0,1-2,.26.93.93,0,0,1-.23,0,.48.48,0,0,1-.21-.11c0-.06-.11-.17-.19-.32l-.3-.5a3.57,3.57,0,0,1-.28-.55,1.25,1.25,0,0,1-.12-.47v-.19a.15.15,0,0,1,.14-.12l.37-.07.57-.12.59-.11.36-.08a4.91,4.91,0,0,0,.61-.13,8.2,8.2,0,0,0,.88-.23,4.88,4.88,0,0,0,.81-.32c.25-.13.36-.28.36-.46,0,0,0,0,0-.07l-.08-.06-.15-.11c-.06-.06-.1-.08-.12-.08h-4L177,37.3V35.78a.36.36,0,0,1,.19-.31.53.53,0,0,1,.3-.13h5.84a.24.24,0,0,0,.21-.15,1.26,1.26,0,0,0,0-.29,1.19,1.19,0,0,0,0-.28.23.23,0,0,0-.21-.17h-5.84s0,0-.09-.06l-.15-.13s-.06,0-.1-.08,0,0,0,0V32.49a.35.35,0,0,1,.18-.3.61.61,0,0,1,.33-.14h6.21c.06,0,.09,0,.11-.13a.72.72,0,0,0,0-.19.35.35,0,0,0-.19-.3.49.49,0,0,0-.32-.14h-4.69V29.45s0,0,0-.06a.31.31,0,0,0,.09-.07.45.45,0,0,1,.15-.11.44.44,0,0,1,.1-.08h4.69c.06,0,.09,0,.11-.11a.92.92,0,0,0,0-.2.49.49,0,0,0-.13-.28.34.34,0,0,0-.27-.17h-5.43l-.27-.31V26.54a.5.5,0,0,1,.16-.28c.09-.11.17-.17.22-.17h2s.07,0,.15-.13a.39.39,0,0,0,.09-.17s0-.12,0-.27a1.48,1.48,0,0,1-.06-.25s0-.06,0-.09v-.12a.52.52,0,0,1,.23-.41,2.64,2.64,0,0,1,.53-.31,4.36,4.36,0,0,1,.59-.17,2.73,2.73,0,0,1,.46-.06.72.72,0,0,1,.57.31c.13.21.24.42.36.64s.21.46.3.67a.46.46,0,0,0,.4.3H187a.55.55,0,0,0,.48-.3c.11-.21.21-.42.32-.67a5.62,5.62,0,0,1,.34-.64.73.73,0,0,1,.61-.31l.53,0a4.1,4.1,0,0,1,.69.1,1.76,1.76,0,0,1,.6.19.43.43,0,0,1,.25.42.71.71,0,0,1-.13.43.64.64,0,0,0-.15.44,1,1,0,0,0,0,.21c0,.11.05.17.13.17h2.15c.05,0,.13.06.24.17a.53.53,0,0,1,.13.28v1.52l-.24.31h-5.45c-.19,0-.29,0-.33.09a.43.43,0,0,0-.07.27,1.41,1.41,0,0,0,0,.23c0,.11,0,.17.13.17h4.81l.09.08a.37.37,0,0,1,.15.11.26.26,0,0,0,.1.07s0,.06,0,.06v1.84h-4.94a.45.45,0,0,0-.33.08.15.15,0,0,0,0,.17,1.61,1.61,0,0,0,.07.25.69.69,0,0,1,.06.26h6.19s.06,0,.12.08l.15.11s.07.08.15.14.09.11.09.11V34a.45.45,0,0,1-.13.27c-.11.11-.19.17-.24.17h-6.71a.21.21,0,0,0-.23.19.88.88,0,0,0,0,.3v.23c0,.11.06.17.14.17h7l.09.08c.06,0,.12.07.15.11a1.93,1.93,0,0,1,.16.15.28.28,0,0,0,.09.1v1.4a.24.24,0,0,0,0,.1,1.13,1.13,0,0,1-.07.15,1,1,0,0,1-.08.11l-.06.08h-4.42c-.12,0-.19,0-.21.09a.53.53,0,0,0-.06.23.7.7,0,0,0,.36.55,5.48,5.48,0,0,0,.92.37,9.37,9.37,0,0,0,1.19.22c.44.08.84.14,1.2.19a5.81,5.81,0,0,1,.93.19c.25.08.36.17.36.29a1.81,1.81,0,0,1-.13.59,3.32,3.32,0,0,1-.34.68,2.74,2.74,0,0,1-.52.59.77.77,0,0,1-.55.25,7.46,7.46,0,0,1-1.9-.25,7.9,7.9,0,0,1-1.8-.7,10.59,10.59,0,0,1-1.64-1A8.8,8.8,0,0,1,186,38.57.84.84,0,0,0,185.78,38.46Z"/><path d="M200.92,37.56l-.11,0h-.16a1.19,1.19,0,0,0-.6.15,1.31,1.31,0,0,1-.61.15.84.84,0,0,1-.48-.21,2.53,2.53,0,0,1-.41-.49,5.92,5.92,0,0,1-.33-.61,1.84,1.84,0,0,1-.11-.55v-.19a.14.14,0,0,1,.15-.12,19.6,19.6,0,0,0,3.65-2.22,25.39,25.39,0,0,0,3.19-2.85h2.66a1.72,1.72,0,0,1,.28.23c.16.15.38.32.65.55s.55.46.87.72.61.52.92.76.57.48.79.65a4.42,4.42,0,0,0,.54.38,12.89,12.89,0,0,0,1.59.76,13.54,13.54,0,0,1,1.58.76c.07.06.09.07.11.11s0,.08,0,.15a.25.25,0,0,1,0,.12,1,1,0,0,1-.19.32c-.09.13-.19.29-.3.44a4.38,4.38,0,0,1-.31.45c-.09.16-.17.25-.2.31l-.25.32c0,.06-.12.08-.25.08a1.38,1.38,0,0,1-.59-.16,4.62,4.62,0,0,0-.57-.24h-.05a.44.44,0,0,0-.35.15.51.51,0,0,0-.17.36v3.8l-.05.06-.14.07s0,0-.11.06a.4.4,0,0,1-.13.06l-.19,0h-.71c-.34,0-.64,0-.91,0a1.69,1.69,0,0,1-.85-.38h-4.7a1.65,1.65,0,0,1-.81.38q-.4,0-.9,0H202a.9.9,0,0,1-.24,0h-.17a.35.35,0,0,1-.14-.06c-.07,0-.11,0-.11-.06l-.13-.07-.06-.06v-3.8Zm-1.67-6.4a.48.48,0,0,1,.15-.36,2.6,2.6,0,0,1,.36-.21,2.25,2.25,0,0,0,.38-.23.39.39,0,0,0,.15-.34s0-.06,0-.06a.18.18,0,0,0-.11-.13h-.3a3.46,3.46,0,0,1-.46,0l-.49,0a.93.93,0,0,1-.4-.18l-.16-.15-.09-.11V25.79l.38-.46h6a.32.32,0,0,0,.32-.21,1.87,1.87,0,0,0,.09-.46,1.48,1.48,0,0,1,.12-.45.38.38,0,0,1,.36-.21h1.77a.35.35,0,0,1,.34.21,1.83,1.83,0,0,1,.15.45,3.27,3.27,0,0,0,.13.46.28.28,0,0,0,.27.21h6.08a.38.38,0,0,1,.23.17.71.71,0,0,1,.15.29v3.53c0,.07-.08.15-.21.25a.77.77,0,0,1-.3.13,1.1,1.1,0,0,1-.21,0l-.36,0c-.12,0-.25,0-.35,0a1.22,1.22,0,0,1-.23,0,.22.22,0,0,0-.11.1.36.36,0,0,0,0,.15v.13a.7.7,0,0,0,.15.14,2,2,0,0,1,.27.24,1.74,1.74,0,0,1,.25.29.59.59,0,0,1,.11.28.87.87,0,0,1-.19.5,2.61,2.61,0,0,1-.47.47,5.21,5.21,0,0,1-.55.36,1.19,1.19,0,0,1-.52.13.74.74,0,0,1-.4-.13,3.3,3.3,0,0,1-.43-.3c-.14-.12-.25-.23-.36-.34a2.82,2.82,0,0,0-.25-.25c-.1-.08-.27-.19-.51-.38l-.76-.57c-.27-.19-.52-.38-.76-.57s-.42-.3-.52-.38,0,0-.05-.12a.22.22,0,0,1-.06-.13.2.2,0,0,1,0-.06.71.71,0,0,1,.15-.36l.34-.34a4,4,0,0,1,.35-.26l.19-.12a1.15,1.15,0,0,0,0-.19v-.19c0-.09-.05-.13-.15-.13h-4.8l-.08,0s-.06.07-.06.09V28a.32.32,0,0,0,.21.34l.5.17a2.17,2.17,0,0,1,.49.17.36.36,0,0,1,.21.33,1,1,0,0,1-.25.53,5.45,5.45,0,0,1-.62.8,9.08,9.08,0,0,1-.88.87,12.05,12.05,0,0,1-1,.82,9.86,9.86,0,0,1-.91.62,1.42,1.42,0,0,1-.68.25.39.39,0,0,1-.14,0,12.3,12.3,0,0,1-1.38-1.52A.55.55,0,0,1,199.25,31.16Zm1.67-1.67a1.63,1.63,0,0,0,.55-.11A3,3,0,0,0,202,29a1.44,1.44,0,0,0,.42-.43,1.14,1.14,0,0,0,.15-.55.5.5,0,0,0,0-.16c0-.07-.05-.09-.11-.09h-1.27l-.25.26Zm2.81,9.33a.3.3,0,0,0,.34.26h4.7c.19,0,.3-.07.34-.22a1.68,1.68,0,0,0,.06-.4c0-.06,0-.14,0-.23a1.1,1.1,0,0,0,0-.27l-.12-.21a.36.36,0,0,0-.22-.07h-4.7a.31.31,0,0,0-.34.26,2.09,2.09,0,0,0,0,.44A2,2,0,0,0,203.73,38.82Zm.86-3.63c0,.06,0,.09.13.09h3.67c.07,0,.11,0,.11-.09a.62.62,0,0,0,0-.17V34.9l-1.65-1.65-.12-.07c-.07,0-.11-.06-.13-.06h-.13l-.14.06c-.07,0-.11,0-.11.07l-1.65,1.65a.29.29,0,0,0,0,.12S204.59,35.11,204.59,35.19Zm5.51-6.74a2.83,2.83,0,0,0,.49.36,3.57,3.57,0,0,0,.55.28,1,1,0,0,0,.42.12.29.29,0,0,0,.3-.23,1.15,1.15,0,0,0,.08-.42.8.8,0,0,0,0-.19c0-.08,0-.15-.06-.25a1,1,0,0,0-.13-.23.18.18,0,0,0-.17-.09H210c-.08,0-.13,0-.13.09a.66.66,0,0,0,0,.17A.51.51,0,0,0,210.1,28.45Z"/><path d="M129.31,53.58a4.67,4.67,0,0,1,1.44,1.11,5.27,5.27,0,0,1,.9,1.61,6.42,6.42,0,0,1,.32,2,2.21,2.21,0,0,1,0,.32,2.05,2.05,0,0,1-.06.49,1.34,1.34,0,0,1-.13.44.37.37,0,0,1-.3.19h-5.57c-.1,0-.13.06-.15.21v.25a1.12,1.12,0,0,0,.24.76,2.08,2.08,0,0,0,.63.51,2.25,2.25,0,0,0,.8.28,3.71,3.71,0,0,0,.78.1,3.25,3.25,0,0,0,1-.19,3,3,0,0,1,1-.21.61.61,0,0,1,.4.19A1.6,1.6,0,0,1,131,62a3.8,3.8,0,0,1,.25.49,1.87,1.87,0,0,1,.09.42.83.83,0,0,1-.47.7,4.57,4.57,0,0,1-1.09.42,8.77,8.77,0,0,1-1.21.21,6.21,6.21,0,0,1-.86.08,6.11,6.11,0,0,1-1.76-.31,6.21,6.21,0,0,1-1.69-.89,5,5,0,0,1-1.3-1.37,3.25,3.25,0,0,1-.49-1.75V57.5a3.24,3.24,0,0,1,.46-1.67,4.75,4.75,0,0,1,1.19-1.37,5.87,5.87,0,0,1,1.58-.93,4.57,4.57,0,0,1,1.67-.34A4.64,4.64,0,0,1,129.31,53.58Zm-3.65,3.79a.22.22,0,0,0,.23.13h3a.07.07,0,0,0,.06,0s0-.06,0-.08v-.15c0-.11,0-.17,0-.23a1.07,1.07,0,0,0-.49-1,2,2,0,0,0-1.1-.31,1.69,1.69,0,0,0-.61.1,2.29,2.29,0,0,0-.59.26,1.61,1.61,0,0,0-.46.44,1,1,0,0,0-.19.63A1.39,1.39,0,0,0,125.66,57.37Z"/><path d="M139.8,52.82a.59.59,0,0,0,.07.1.64.64,0,0,1,.12.15.7.7,0,0,0,.17.19l.09.13H142s0,0,.11.12a1.33,1.33,0,0,0,.14.19,1.07,1.07,0,0,1,.07.15.4.4,0,0,1,.06.11v1.39a.24.24,0,0,1-.06.11.91.91,0,0,1-.07.14s-.08.11-.14.19-.09.13-.11.13h-1.77a.19.19,0,0,0-.13.1,1,1,0,0,0-.13.2c0,.1-.08.18-.1.25a.64.64,0,0,0,0,.16v3.53a1.94,1.94,0,0,0,.19,1,1.17,1.17,0,0,0,.5.41,2.06,2.06,0,0,0,.64.15,1.76,1.76,0,0,1,.65.2,1.12,1.12,0,0,1,.47.49,2.07,2.07,0,0,1,.21,1.1.63.63,0,0,1-.23.53,1.49,1.49,0,0,1-.57.25,3.62,3.62,0,0,1-.68.08h-.61a4.09,4.09,0,0,1-1.33-.23,3.68,3.68,0,0,1-1.23-.63,3.24,3.24,0,0,1-.89-1,2.56,2.56,0,0,1-.35-1.33V56.49a.37.37,0,0,0-.22-.38,1.8,1.8,0,0,0-.5-.15,2.35,2.35,0,0,1-.51-.15.33.33,0,0,1-.23-.33V54a.4.4,0,0,1,.23-.38l.53-.17a2.07,2.07,0,0,0,.55-.17.54.54,0,0,0,.34-.42s0-.13,0-.28.06-.32.1-.49.05-.33.07-.48a1.77,1.77,0,0,1,0-.27l0-.13a1.55,1.55,0,0,0,.07-.23l.12-.21a.19.19,0,0,1,.15-.07h2.34Z"/><path d="M152.22,53.22a4.06,4.06,0,0,1,.91.17,2.54,2.54,0,0,1,.82.35.67.67,0,0,1,.34.59,1.49,1.49,0,0,1-.11.55,2,2,0,0,1-.3.53,2.65,2.65,0,0,1-.4.42A1,1,0,0,1,153,56a2.29,2.29,0,0,1-.64-.08,3.08,3.08,0,0,0-.65-.07,2.39,2.39,0,0,0-1.08.24,2.25,2.25,0,0,0-.72.65,2.93,2.93,0,0,0-.42.95,3.81,3.81,0,0,0-.13,1.08,3.73,3.73,0,0,0,.13,1,3,3,0,0,0,.42,1,2,2,0,0,0,.7.66,2,2,0,0,0,1,.27,2.11,2.11,0,0,0,.88-.21,1.92,1.92,0,0,1,.85-.19.53.53,0,0,1,.4.19,1.67,1.67,0,0,1,.34.45,4.46,4.46,0,0,1,.25.55,1.71,1.71,0,0,1,.1.48.77.77,0,0,1-.4.66,3.2,3.2,0,0,1-.93.44,6.51,6.51,0,0,1-1,.21,5,5,0,0,1-.82.08,6,6,0,0,1-1.76-.31,5.77,5.77,0,0,1-1.67-.87,4.83,4.83,0,0,1-1.26-1.37,3.37,3.37,0,0,1-.49-1.77V57.5a3.07,3.07,0,0,1,.53-1.77,4.89,4.89,0,0,1,1.35-1.37,6.84,6.84,0,0,1,1.78-.87,5.69,5.69,0,0,1,1.79-.3C151.65,53.19,151.9,53.19,152.22,53.22Z"/><path d="M275.79,9.56,257.92,31.34c-.43.52.37.68.74.69a2.74,2.74,0,0,0,1.93-.75L278.45,9.51c.43-.53-.37-.69-.74-.69a2.66,2.66,0,0,0-1.92.74Z"/><path d="M253.57,36.88,252.46,38l-.16.15a.29.29,0,0,0-.12.24c0,.08,0,.14.08.2a.57.57,0,0,0,.31.1,1.29,1.29,0,0,0,.44,0,4,4,0,0,0,1.13-.25,2.31,2.31,0,0,0,.8-.47l1.11-1.07.16-.16a.28.28,0,0,0,.12-.23.17.17,0,0,0-.08-.2.58.58,0,0,0-.31-.11,1.29,1.29,0,0,0-.44,0,3.68,3.68,0,0,0-1.13.24,2.38,2.38,0,0,0-.8.47Z"/></svg>