<svg id="レイヤー_1" data-name="レイヤー 1" xmlns="http://www.w3.org/2000/svg" viewBox="0 0 298.44 344.24"><defs><style>.cls-1{fill:#fff;}</style></defs><path class="cls-1" d="M168,29.72,238,77c5.64,3.81,11.84,7.31,16.69,12.12l-3.19-3.16a20,20,0,0,1,3.7,5.06l-1.89-4a13.88,13.88,0,0,1,1.27,4.82l-.34-4.38a14.9,14.9,0,0,1-.48,4.36L255,87.48a20.86,20.86,0,0,1-2.26,5l2.54-4.09a32.71,32.71,0,0,1-4.56,5.54l3.74-3.63a63.41,63.41,0,0,1-10.5,8.09l4.77-3a97,97,0,0,1-16.76,8l5.63-2.11c-19.91,7.43-41.29,11-60.14,21.24-5.82,3.14-11.72,6.64-16.58,11.17a56.26,56.26,0,0,0-8.5,9.15c-2.11,3.1-4.4,6.49-5.55,10.14s-2.16,7.11-1.93,10.89c.2,3.41.37,6.58,1.74,9.71a34.09,34.09,0,0,0,4.44,8,52.54,52.54,0,0,0,6.65,6.69c6.59,5.68,14.83,9.12,21.07,15.24l-3.2-3.17a24.84,24.84,0,0,1,4.66,6.34l-1.9-4a20.76,20.76,0,0,1,1.95,7l-.35-4.38a22.26,22.26,0,0,1-.77,7.44l1.18-4.34a31.87,31.87,0,0,1-3.64,8l2.55-4.1A50.16,50.16,0,0,1,172,221.2l3.74-3.64a66.75,66.75,0,0,1-10.72,8.37l4.77-3c-10.09,6.28-21.46,10.75-32.55,14.92l5.63-2.11c-22,8.24-44.65,14.73-66.24,24a206,206,0,0,0-27.38,14.43c-4.7,2.93-9.31,5.95-13.69,9.33A156.52,156.52,0,0,0,21.74,296,104.74,104.74,0,0,0,1.19,324.64a13,13,0,0,0,1.05,12.7c2.67,3.76,8,6.22,12.51,6.71C25.58,345.24,38,340.7,43,330.45c1.26-2.58,2.65-5.08,4.16-7.52L44.58,327a94.78,94.78,0,0,1,14-17.23l-3.74,3.64A128.65,128.65,0,0,1,76.1,297l-4.76,3c11.93-7.43,24.77-13.17,37.9-18.11L103.61,284c27.14-10.18,55.58-17.59,81.32-31.18,14.27-7.53,27.09-18.22,34.81-32.6,6.53-12.18,6-28.18-3.75-38.58a74,74,0,0,0-14.54-11.87c-4.16-2.66-8.43-5.25-12-8.7l3.2,3.17a21.8,21.8,0,0,1-4.34-5.89l1.9,4a17.6,17.6,0,0,1-1.54-5.63l.34,4.39a17.79,17.79,0,0,1,.56-5.9l-1.19,4.35a23.67,23.67,0,0,1,2.67-5.91l-2.54,4.09a34.35,34.35,0,0,1,4.92-6l-3.74,3.64a49,49,0,0,1,8-6.12l-4.77,3a101,101,0,0,1,17.42-8.35L204.72,146c11.53-4.3,23.52-7.17,35.18-11.05,14.66-4.88,29.44-10.94,41.29-21.12,8.15-7,16.14-16,17.2-27.24a24.12,24.12,0,0,0-.14-4.16,29.24,29.24,0,0,0-.43-4.08,28.62,28.62,0,0,0-3.43-7.89c-2.13-3.7-5.55-6.75-8.81-9.44-2.64-2.18-5.53-4-8.37-5.95L267,48.11l-20-13.5L201.28,3.8A24.07,24.07,0,0,0,186.36.05a23.44,23.44,0,0,0-8.75,2,21.85,21.85,0,0,0-7.58,4c-3.53,3-7.3,7.15-7.47,12.07-.15,4.53,1.53,8.89,5.44,11.53Z"/></svg>