<svg id="レイヤー_1" data-name="レイヤー 1" xmlns="http://www.w3.org/2000/svg" viewBox="0 0 281.67 115.49"><defs><style>.cls-1{fill:#f0908a;}</style></defs><path class="cls-1" d="M91.58,25.31S94.88,20,94.14,0h4.48V.51H104V0h3.71c.35,14.88.45,25,.45,25-3.91.36-7.17.45-7.17.45V22s.93,0,2.79.06c0-1.5,0-3.55.06-6.14H97.31C95.26,25.44,91.58,25.31,91.58,25.31Zm6-11h6.24c0-1.6,0-3.39.06-5.31H98.27A52.83,52.83,0,0,1,97.6,14.3Zm.8-6.91h5.5c0-1.63.07-3.42.07-5.31H98.62C98.59,4,98.53,5.79,98.4,7.39ZM122.82,19c2.08.06,4.86.19,8.28.45v3.61a101.13,101.13,0,0,1-12.44.06V19C121,15.46,125,13.7,125,10.46c0-1.18-1.85-3.29-4.89-1l-1.67-4.16C124.51,1.92,130,5,130,10,130,14.14,126.11,16.35,122.82,19ZM144.9.45V1h11.71V.45h3.71c.32,14.78.42,24.86.42,24.86h-4.36v-.58H144.67c0,.2,0,.39,0,.58H141c-.35-14.78-.45-24.86-.45-24.86Zm0,2.11c0,3.23,0,10.21-.19,20.61h11.71c0-3.24.07-10.21.2-20.61Zm1.25,15.77c-.32-7.1-.41-10.94-.41-10.94h3.71v.55h2.81a2.59,2.59,0,0,0,0-.55h3.07c.32,7.14.41,10.94.41,10.94H152v-.76h-2.81a4.84,4.84,0,0,0,0,.76ZM149.25,16H152c0-1.41.07-3.55.16-6.5h-2.81C149.38,10.88,149.34,13,149.25,16Zm31.26-.71c-.26-3.45-3.61-5.69-7.93-3.77-3.27,1.47-3.65,6.65-1.48,6.91,1.6.19,3-2.33,3.59-6.4l4.06.51c-.74,5.73-3.9,9.57-6.81,9.57-3.14,0-5.09-2.82-5.09-5.92a9.57,9.57,0,0,1,8.38-9.57,8.51,8.51,0,0,1,9.6,9.79c-.74,4.87-4,7.36-9.76,6.72C178,22,180.83,19.42,180.51,15.29ZM24.32,45.6S25.7,43.52,25.7,36h4.48C30.18,44.41,24.32,45.6,24.32,45.6Zm10.14-7.33H30.91V37h3.55a.85.85,0,0,0,0-.32H39C39,55.1,28.1,55.1,28.1,55.1S34,52.06,34.46,38.27Zm1.16-4.41,1.47-1.64a4.22,4.22,0,0,1,.83,1.06l1.38-1.54a2.7,2.7,0,0,1,.38,3.94,7,7,0,0,0-1.63-2.08,2.75,2.75,0,0,1-.58,2.56A7.23,7.23,0,0,0,35.62,33.86ZM48.06,41h4.48c0,14.17-7,14.17-7,14.17S48.06,52,48.06,41Zm10.79,9.66a14,14,0,0,0,6.3-3.13s-.25,6.62-6.4,7.64H55.14c-.45-8.64-.58-18.81-.58-18.81H59S59,42.91,58.85,50.62Zm13-5.63s6,.1,17,.42v2.94c-12.13.22-17,.22-17,.22Zm23.42-8.48s3.43,0,13.63.23c0,17.88-11.74,18.39-11.74,18.39s6.3-3.71,7.17-15.64c-6.66.25-9.06.32-9.06.32Zm15.62-2.85a2.37,2.37,0,1,1-2.37-2.36A2.36,2.36,0,0,1,110.85,33.66Zm-1.28,0a1.09,1.09,0,0,0-2.18,0,1.09,1.09,0,0,0,2.18,0Zm11.87,7.11-2.91.19,0-1.06,2.94-.22c-.06-1.63-.06-2.63-.06-2.63h4.48s0,.84,0,2.34l5.76-.42v-.31l4.48-.29c.39,6.14-4.64,7.23-4.64,7.23a23.6,23.6,0,0,0,.23-5.54l-5.83.39c0,2.27-.06,5.53-.16,9.37,6.79-.35,9.64-.25,9.64-.25V53.7A112.32,112.32,0,0,1,122,53.63C121.7,48.64,121.54,43.9,121.44,40.77Zm23-.77h2.78a29.35,29.35,0,0,0,.67,5.82S144.45,46.05,144.45,40Zm10.05,2.34h3.74c0,12.79-11.46,12.79-11.46,12.79S154.5,51.07,154.5,42.34ZM148.7,40h2.82a30.66,30.66,0,0,0,.64,5.82S148.7,46.05,148.7,40Zm17.28.16c5.76.32,5.54,5,5.54,5a14.61,14.61,0,0,0-5.6-1.69Zm16.52.93s2.91,8.38-14.5,13.37l-1-4.35C179.46,46.69,182.5,41.09,182.5,41.09Zm-7.65.61a14.36,14.36,0,0,0-5.6-1.73l.06-3.33C175.07,37,174.85,41.7,174.85,41.7Zm16.8,9.69s1.76,0,7.81.16l-.1-3.36c-3.71.19-5.79.26-5.79.26V45.7s2,0,5.76.09c0-1.38,0-2.59,0-3.55l-7.71.26V39.74s2.94,0,11.52.2c0,0,0,6.84-.61,14.71-7.81.39-10.91.48-10.91.48Zm25.82-9.69A14.35,14.35,0,0,0,211.9,40l0-3.33C217.73,37,217.47,41.7,217.47,41.7Zm9.92-.61s2.88,8.38-14.49,13.37l-1-4.35C224.32,46.69,227.39,41.09,227.39,41.09Zm17.25.16a44.71,44.71,0,0,1-9.12,1.21V38c7.26,0,14.62-.38,14.62-.38-4.51,6.4-10.27,12.26-2.62,17.53C235.71,55.13,238.37,45.73,244.64,41.25Zm7.61,3.26a7.24,7.24,0,0,0-1.63-2.11,2.79,2.79,0,0,1-.57,2.59,7.39,7.39,0,0,0-1.86-2.3l1.47-1.64a4.28,4.28,0,0,1,.84,1.06l1.37-1.53A2.68,2.68,0,0,1,252.25,44.51ZM6.18,76.77c-3.14-1.15-4.29-1-4.29-1a7,7,0,0,1,5-2.17,35.42,35.42,0,0,0,.45-5.83h4.48a35.6,35.6,0,0,1-.55,6.5A20,20,0,0,1,14,75.42l-2,4q-1-.53-1.92-1C6.85,87,0,87.13,0,87.13S4.16,84.38,6.18,76.77ZM28.35,73.7A14.35,14.35,0,0,0,22.78,72l0-3.33C28.61,69,28.35,73.7,28.35,73.7Zm9.92-.61s2.88,8.38-14.49,13.37l-1-4.35C35.2,78.69,38.27,73.09,38.27,73.09Zm18.59-4.32h4.48C61.34,87.2,50.5,87.2,50.5,87.2s3.23-1.66,5.08-8.1a12.67,12.67,0,0,0-4.73-1.31l.06-3.23a7.27,7.27,0,0,1-4.19,3.1s1.38-2.08,1.38-9.53h4.48A11.63,11.63,0,0,1,51,74.46c3.1.19,4.44,1.7,5,3a35.34,35.34,0,0,0,.83-7.1H53.31V69.09h3.55Zm14,8.22s6,.1,17,.42v2.94c-12.13.22-17,.22-17,.22Zm26-7.45,4.48.44c-2.37,10.08-.61,16.61-.61,16.61S94.62,85.54,96.8,69.54ZM115,80.48l.29,4.48s-1.72,1.21-8,1.21c-5,0-3.81-6.55-3.81-6.55a3.89,3.89,0,0,0,3.81,2.08C112.77,81.7,115,80.48,115,80.48ZM104.58,71a60.47,60.47,0,0,1,9.79.71l-.52,3.52a53.27,53.27,0,0,0-9.27-.7Zm19.52-1.34h4.06s0,5.83-.19,16.93h12.8l1.28-1.28,1.28,1.28v1.57H127.94a11.14,11.14,0,0,1,0,1.15h-3.36C124.19,77.6,124.1,69.63,124.1,69.63Zm.44-4.32h10a21.26,21.26,0,0,0,.29-2.27l3.42.51L138,65.31h2.76L142.05,64l1.28,1.28v1.57h-5.7A8.72,8.72,0,0,1,135.26,71h2.37v-.35H141c.36,7.8.45,13.15.45,13.15h-4.06v-.42h-4.64v.42h-3.39C129.06,76,129,70.69,129,70.69h4V71h.35a31.53,31.53,0,0,0,1-4.16h-9.79Zm12.9,14.53h-4.58c0,.64,0,1.31-.06,2h4.64Zm.06-3.62h-4.57c0,.61,0,1.32,0,2h4.57C137.5,77.63,137.5,77,137.5,76.22ZM133,72.61c0,.54,0,1.25,0,2h4.58c0-.67,0-1.34.06-2Zm25,2.72a9.49,9.49,0,0,1-1.25,2.21c0,2.62-.06,5.79-.12,9.59-3,.39-5.44.48-5.44.48V84.16s.64,0,2,.06l-.1-3.45a12.89,12.89,0,0,1-2.62,1l-.9-3.71a15.12,15.12,0,0,0,3.46-.64c-.06-1.82-.1-3.42-.1-4.77h-2.81V71.13h2.78l-.09-4h4.06l0,4L158,69.86l1.28,1.27V72.7h-2.49c0,1,0,2,0,3.27Zm12.48,3.61a16.66,16.66,0,0,1-1,4.16h1l1.28-1.28L173,83.1v1.57h-4.32a8.92,8.92,0,0,1-6.3,4.51,14.87,14.87,0,0,0,2.56-4.51h-1.8c0,.16,0,.35-.06.54l-3.81-.28c.13-2.53.26-4.52.35-6h-2.11V77.38h2.21l.1-1.25,4.51.32a7,7,0,0,0-.13.93h6.24l1.28-1.28L173,77.38v1.56Zm-12-5.79h3a12.46,12.46,0,0,0-1.51-4.06,4.31,4.31,0,0,1,4.93,3.23l-2.3.83h3.26a13.38,13.38,0,0,0,1.47-4.67l3.55.54c-1.08,2.66-2.43,3.75-3.48,4.13h2.3l1.28-1.25,1.28,1.25v1.6H158.4Zm1-6.94h4.26c-.2-1.83-.26-3-.26-3h3.84s0,1-.13,3h1.57l1.28-1.28,1.28,1.28v1.57H159.36ZM166,78.94h-2.08c-.16,1-.36,2.4-.61,4.16h2.08A17.9,17.9,0,0,0,166,78.94Zm15.2-5.53,2.24.35v-.67h-4.2V71.52h4.16l-.12-6.24H187l0,6.24h1.08l1.28-1.25,1.28,1.25v1.57h-3.68c0,3.23-.06,7.74-.16,14h-3.07c-.06-3.61-.09-6.65-.16-9.21-2.14,4.7-5.05,5.31-5.05,5.31A30.3,30.3,0,0,0,181.22,73.41Zm10.08,4.35-2.53,2.56c-1.76-2.24-1.09-6.43-1.09-6.43A20,20,0,0,0,191.3,77.76Zm12.22,11.52h-4v-.42H195.1v.42h-3.39c-.32-15-.41-25.31-.41-25.31h4v.54h4.38V64h3.39C203.42,79,203.52,89.28,203.52,89.28Zm-4-8H195.2c0,1.85,0,3.87-.06,6h4.35C199.49,86,199.52,84,199.52,81.28Zm.06-7.62h-4.32c0,1.8,0,3.81,0,6h4.32C199.55,78,199.58,75.94,199.58,73.66Zm.1-7.58h-4.35c0,1.34,0,3.36,0,6h4.31C199.65,70.24,199.65,68.22,199.68,66.08Zm9.73,6V70.46h7.13l1.28-1.28,1.28,1.28V72Zm.67,8.38h3.74v.32h1.54v-.32h3.07c.35,4,.45,6.72.45,6.72h-3.74v-.41H213.6a2,2,0,0,1,0,.41h-3C210.18,83.13,210.08,80.41,210.08,80.41Zm5.18-13.31,1.28-1.28,1.28,1.28v1.57h-7.13V67.1Zm-4.57,8.29V73.82h4.57l1.28-1.28,1.28,1.28v1.57Zm0,1.79h4.57l1.28-1.28,1.28,1.28v1.57h-7.13Zm3,7.94h1.51l.09-2.82h-1.47C213.76,83,213.73,84,213.66,85.12Zm5.12-19.3s2.85-1,4.74,3.88l-2.94,1.72A16.35,16.35,0,0,0,218.78,65.82Zm0,11.39s2.85-.92,4.74,3.88l-2.94,1.72A16.35,16.35,0,0,0,218.78,77.21Zm.48-.89s5.44-3,5.44-13.15h3.68C228.38,76.26,219.26,76.32,219.26,76.32Zm5.44-1.76h3.68c0,14.62-9.12,14.72-9.12,14.72S224.7,85.92,224.7,74.56Zm10-1.18-1.79,2.94c-6.63-3-5.38-7-5.38-7a10.93,10.93,0,0,0,1.54,1.35,28.85,28.85,0,0,0,1.79-5.83l3.45,1.19c-2.27,4.7-4.54,4.77-5.15,4.7A16.63,16.63,0,0,0,234.69,73.38Zm0,12.57-1.79,3.33c-6.63-3.39-5.38-7.81-5.38-7.81A15,15,0,0,0,234.69,86ZM229,82.14a26.52,26.52,0,0,0,1.83-5.88l3.45,1.18C231.65,82.88,229,82.14,229,82.14Zm21.76-10.52h-9.66V70.34h9.34l-.64-2.53,4.42-.71a26.71,26.71,0,0,1,.8,3.24h2l1.27-1.29,1.29,1.29v1.28h-4.39a17.22,17.22,0,0,1,0,6.4,6.67,6.67,0,0,1,.13,2.91c-1,6-5.09,6.2-5.09,6.2a8.43,8.43,0,0,0,2-5.31c-3.43,1.83-6.47-.51-6.47-3.49a3.9,3.9,0,0,1,3.88-3.9,8.92,8.92,0,0,1,1.69.19C251.23,73.66,251,72.61,250.78,71.62Zm.68,6.68a2.31,2.31,0,0,0-1.92-.86,1.24,1.24,0,1,0,.19,2.46C250.72,79.9,251.23,79.29,251.46,78.3Zm25.47,3.94a2.75,2.75,0,0,0-.1-2.72c-2-3-7.71-1-7.71-1a45.35,45.35,0,0,1,.16-8.64H265.5V68.64h8.36a34.84,34.84,0,0,0-1.6,6.78s5.53-1.76,8,.87c3.81,4.12-.32,10.84-7.61,10.84-5.57,0-4.61-6.2.06-6.2A8.92,8.92,0,0,1,276.93,82.24Zm-4.32,3a4.52,4.52,0,0,0,2.62-1A4,4,0,0,0,272.64,83C270.78,83,270.5,85.28,272.61,85.28ZM46,115.49s-4.43-.72-4.43-11.25S46,93,46,93s-1.93,3.07-1.93,11.24S46,115.49,46,115.49Zm8.42-16.42h2.83c-.23-2.65-.3-4.43-.3-4.43h3.42s0,1.53-.15,4.43h1.15l1-1,1,1v1.22H54.42Zm.7,15.27a23.91,23.91,0,0,0,3-6.35,34,34,0,0,0-3.07-4.77s1.6,0,3.8,2.1a35,35,0,0,0,.72-4.6h3a21.27,21.27,0,0,1-1.73,6.87,29.73,29.73,0,0,1,2.5,4.35l-2.7,1.27c-.45-1-.9-2-1.32-2.92A13.3,13.3,0,0,1,55.12,114.34Zm15.32-.92c-2.52.27-4.62.35-4.62.35V111s.63,0,1.9,0L67.65,108l-2.1,1.13a11.43,11.43,0,0,0-1.7-5.05s2.07-.48,3.77,2.3c-.05-1.6-.08-3-.1-4.23h-3.9v-1.22H67.5l-.06-3.15h3.18s0,1,0,2.87l.73-.72,1,1v1.22H70.59C70.57,104.77,70.52,108.54,70.44,113.42Zm12.63-13.25h5c0-.08,0-.15,0-.23h2.62c.28,12.48.35,15.18.35,15.18H87.87v-.28h-9.4c0,.1,0,.18,0,.28H75.82c-.27-12.48-.35-15.18-.35-15.18h3.18v.23H81A18.76,18.76,0,0,0,82,97H75.47V95.79H89l1-1,1,1V97H85A7.26,7.26,0,0,1,83.07,100.17Zm-3.45,1.22h-1c0,1.68-.05,5.13-.15,12.23h1C79.47,112.24,79.52,109,79.62,101.39Zm2.68,0,.07,3.25H84c0-1.57,0-2.6-.08-3.25ZM84,105.87H82.4c0,1.25.07,2.32.07,3.25h1.65C84.07,107.89,84.05,106.82,84,105.87Zm.13,4.5H82.52c0,1.55,0,2.59.08,3.25h1.62Zm2.75,3.25h1c0-1.7,0-5.18.14-12.23H87C87,102.74,87,106,86.9,113.62Zm14.8-5.33v-2.8s1.1.08,3.1.33v2.3C102.6,108.29,101.7,108.29,101.7,108.29ZM116.15,112s3.45-2.44,4.2-8.32l3.4.83C122.22,112.46,116.15,112,116.15,112Zm14.19-10.67v1h-3.07c-.12,3.13-.27,7.53-.27,11.13h-2.18c-.42-3.88-.65-8.13-.75-11.13H117.8v-1H124l-.07-3h3.49s-.07,1.2-.15,3h1l1-1Zm10.58,1.63a11.12,11.12,0,0,0-4.35-1.35l0-2.6C141.12,99.22,140.92,102.92,140.92,102.92Zm7.75-.48s2.25,6.55-11.32,10.45l-.78-3.4C146.27,106.82,148.67,102.44,148.67,102.44Zm9.58-.87s2.05,0,10,.17c0,12.5-9.17,11.68-9.17,11.68s4.77-2.1,5.57-9.53l-6.42.23Zm9.77-1.8h-9v-1h7l1-1,1,1Zm8.18,4.1a14.63,14.63,0,0,0,10.07-6.08l2.8,2.1a12.53,12.53,0,0,1-3.57,3.28c-.13,1.65-.38,5.5-.38,10.25h-2c-.47-3.75-.77-7-.95-9A11.39,11.39,0,0,1,176.2,103.87Zm24.72-1a11.12,11.12,0,0,0-4.35-1.35l0-2.6C201.12,99.22,200.92,102.92,200.92,102.92Zm7.75-.48s2.25,6.55-11.32,10.45l-.78-3.4C206.27,106.82,208.67,102.44,208.67,102.44Zm13.73,1.8c0-8.17-1.9-11.24-1.9-11.24s4.42.72,4.42,11.24-4.42,11.25-4.42,11.25S222.4,112.42,222.4,104.24Z"/></svg>