<svg id="レイヤー_1" data-name="レイヤー 1" xmlns="http://www.w3.org/2000/svg" viewBox="0 0 457.51 88.08"><defs><style>.cls-1{fill:#f0908a;}</style></defs><path class="cls-1" d="M3.15,21H0V18.76H8.19A8.33,8.33,0,0,1,5.49,25h4a11.35,11.35,0,0,1-1.17,5.17,51.9,51.9,0,0,0,16.61-.36v6.3c-10.49,0-15.44-2.38-17.73-4.27a11.29,11.29,0,0,1-5.58,3.6A20.57,20.57,0,0,0,4.9,25.6a11.11,11.11,0,0,1-3.15,1.85A22.12,22.12,0,0,0,3.15,21ZM1.3,11.61a7.8,7.8,0,0,1,7.79,2.83L5.76,17.28A24.15,24.15,0,0,0,1.3,11.61Zm9.41,1.17H14c-.41-9.49-.54-11.61-.54-11.61h5.26l0,.5h8.23c0-.19.05-.32.05-.5h4.32c.27,6.84.45,10.17.54,11.61h2.16c.45,13.36.58,16.24.58,16.24-4.32.5-7.92.63-7.92.63V26.46H23.31V26H21.78v.5H17.46c-.5-5.27-.63-8.82-.63-8.82h5.26v.58h1.49c0-.18,0-.4,0-.58h4.32c.27,3.06.41,5.53.5,7.11a7.16,7.16,0,0,1,.9,0l.18-9.31H15.93L15.61,29H11.34C10.84,15.7,10.71,12.78,10.71,12.78Zm7.65.49h2.2C20.11,8,20,6.84,20,6.84h5.26v.4h1.49c0-1,0-2.11.09-3.37H18.58C18.54,5.62,18.49,8.55,18.36,13.27Zm5.13,7.16H22.05l-.14,3.33h1.44C23.35,22.86,23.4,21.78,23.49,20.43Zm3.19-11H25.11l-.18,3.82h1.66C26.59,12.69,26.59,11.56,26.68,9.45Zm45.5,26.73-4.37,1.21c-.49-1.35-.9-2.61-1.3-3.78-10.13,1.49-20.75,2.66-20.75,2.66L45.18,30s1.26-.13,3.37-.31A73.79,73.79,0,0,0,49.9,19.39H44.73V17.14H54.81l-.36-8.77H44.73V6.17H54.4C54.27,2.29,54.22,0,54.22,0h6.17s0,2.12,0,6.17h6l1.8-1.81,1.8,1.81v2.2H60.3c0,2.43-.14,5.35-.23,8.77h6.26l1.8-1.75,1.8,1.75v2.25H56.83a22.06,22.06,0,0,1-3.73,10c3.33-.27,7.38-.59,11.74-.86l-.9-2.79,5.18-1.48S70.24,28.3,72.18,36.18ZM90.36,19.3c-4.41-1.62-6-1.44-6-1.44a9.77,9.77,0,0,1,7-3.06,49.49,49.49,0,0,0,.63-8.19h6.3a50.39,50.39,0,0,1-.76,9.14,26.8,26.8,0,0,1,3.91,1.66L98.55,23q-1.42-.75-2.7-1.35c-4.55,12-14.18,12.19-14.18,12.19S87.52,30,90.36,19.3ZM118.84,15s-4.27-2.38-7.83-2.43l0-4.67C119.2,8.32,118.84,15,118.84,15Zm13.95-.85s4.05,11.79-20.38,18.81L111,26.82C128.47,22,132.79,14.13,132.79,14.13Zm6.26,17.14s6.48-7,6.48-21.6h6.3C151.83,30.64,139.05,31.27,139.05,31.27Zm24.48-19.62s.94,7.92,2,18.27l-5,.72c-1.85-9.81-3.2-18.13-3.2-18.13ZM161.86,7.2a4,4,0,0,1-.76,3.64,10.57,10.57,0,0,0-2.66-3.24l2.07-2.34a5.41,5.41,0,0,1,1.17,1.49l1.94-2.16a3.85,3.85,0,0,1,.58,5.58A10.33,10.33,0,0,0,161.86,7.2ZM176.8,19.62s8.37.13,23.85.58v4.14c-17.05.32-23.85.32-23.85.32Zm54,3.24c-.36-4.86-5.09-8-11.16-5.31-4.59,2.07-5.13,9.36-2.07,9.72,2.25.27,4.27-3.29,5-9l5.71.72c-1,8.05-5.49,13.45-9.58,13.45-4.41,0-7.16-4-7.16-8.32a13.46,13.46,0,0,1,11.79-13.46c9-1.12,14.54,6.53,13.5,13.77-1,6.84-5.62,10.35-13.72,9.45C227.2,32.22,231.21,28.66,230.76,22.86Zm18.45-8.28,3.15.49v-.94h-5.9V11.92h5.85l-.18-8.77h5.22l0,8.77h1.53l1.8-1.75,1.8,1.75v2.21h-5.18c0,4.54-.09,10.89-.22,19.75h-4.32c-.09-5.08-.14-9.36-.23-13-3,6.62-7.11,7.47-7.11,7.47A42.17,42.17,0,0,0,249.21,14.58Zm14.17,6.12-3.55,3.6c-2.48-3.15-1.53-9-1.53-9A28.27,28.27,0,0,0,263.38,20.7Zm17.19,16.2H274.9v-.59h-6.16v.59H264c-.45-21.15-.59-35.6-.59-35.6h5.67v.77h6.17V1.3H280C280.44,22.45,280.57,36.9,280.57,36.9ZM275,25.65h-6.08c0,2.61,0,5.44-.09,8.46h6.12C274.9,32.26,275,29.43,275,25.65ZM275,14.94H269c0,2.52,0,5.35,0,8.5H275C275,21,275,18.13,275,14.94Zm.13-10.67h-6.12c0,1.9,0,4.73,0,8.46h6.07C275.13,10.12,275.13,7.29,275.17,4.27Zm13.68,8.37v-2.2h10l1.8-1.8,1.8,1.8v2.2Zm.95,11.79h5.26v.45h2.16v-.45h4.32c.5,5.63.63,9.45.63,9.45h-5.26V33.3h-2.16a2.44,2.44,0,0,1-.05.58h-4.27C289.93,28.26,289.8,24.43,289.8,24.43Zm7.29-18.72,1.8-1.79,1.8,1.79V7.92h-10V5.71Zm-6.44,11.66V15.16h6.44l1.8-1.8,1.8,1.8v2.21Zm0,2.52h6.44l1.8-1.8,1.8,1.8v2.2h-10Zm4.19,11.16H297l.14-4H295C295,28.12,294.93,29.47,294.84,31.05ZM302,3.92s4-1.36,6.66,5.44l-4.14,2.43A23.18,23.18,0,0,0,302,3.92Zm0,16s4-1.3,6.66,5.45l-4.14,2.43A23.3,23.3,0,0,0,302,19.93Zm.67-1.26s7.65-4.23,7.65-18.49h5.18C315.54,18.58,302.71,18.67,302.71,18.67Zm7.65-2.47h5.18c0,20.56-12.83,20.7-12.83,20.7S310.36,32.17,310.36,16.2Zm14-1.67-2.52,4.14c-9.31-4.27-7.56-9.81-7.56-9.81a15.85,15.85,0,0,0,2.16,1.89A39.56,39.56,0,0,0,319,2.56l4.86,1.67c-3.19,6.61-6.39,6.7-7.24,6.61A23.12,23.12,0,0,0,324.4,14.53Zm0,17.69-2.52,4.68c-9.31-4.77-7.56-11-7.56-11A21.06,21.06,0,0,0,324.4,32.22Zm-8-5.36A37.62,37.62,0,0,0,319,18.58l4.86,1.67C320.13,27.9,316.44,26.86,316.44,26.86Zm19.8-2.2v-5s2,.13,5.58.58v4.14C337.86,24.66,336.24,24.66,336.24,24.66ZM364.27,2v.77h16.47V2H386c.45,20.79.59,35,.59,35h-6.12v-.81H364c0,.27,0,.54,0,.81h-5.18c-.49-20.79-.63-35-.63-35Zm0,3c0,4.54-.05,14.35-.27,29h16.47c0-4.55.09-14.36.27-29ZM366,27.13c-.45-10-.58-15.39-.58-15.39h5.22v.77h4a5,5,0,0,0,0-.77h4.32c.45,10,.59,15.39.59,15.39h-5.22V26.05h-4a7.81,7.81,0,0,0-.05,1.08Zm4.41-3.28h3.92c0-2,.09-5,.22-9.14h-4C370.57,16.65,370.53,19.66,370.39,23.85Zm23.94-3.92s10.62-3.82,16.92-12l.77.58A26.6,26.6,0,0,0,413.73.18L420,.81a17.47,17.47,0,0,1-1,3.42h4.95l1.8-1.76,1.8,1.76v2.2h-5.09a7.19,7.19,0,0,1,2.3,3l-4.14,2.7a23.87,23.87,0,0,0-1.67-5.72h-1.08a8.39,8.39,0,0,1-4.14,3.42l2.48,2C404.14,23,394.33,19.93,394.33,19.93Zm13-13.5a7.56,7.56,0,0,1,2.25,3l-4.09,2.7a25.53,25.53,0,0,0-1.72-5.72h-.62c-2.66,5.81-6.84,6.08-6.84,6.08S398,8.37,398.61.18l6.25.63A23.7,23.7,0,0,1,404,4.23h4.77l1.8-1.76,1.8,1.76v2.2Zm-5.72,17.24h6.17v.58h8.73a2.83,2.83,0,0,1,0-.58h5.18c.49,7.83.63,13.18.63,13.18H416.2v-.58h-8.73v.58h-5.22C401.76,29,401.62,23.67,401.62,23.67Zm2.43-2v-2.2h11.61l1.8-1.8,1.8,1.8v2.2Zm3.51,12.42h8.69l.18-7.6h-8.68C407.75,28.21,407.65,30.73,407.56,34.06ZM428.62,22.9c-12-4-12.15-10.08-12.15-10.08a34.77,34.77,0,0,0,13,3.83Zm27.9,3.38,1,6.21c-18.63,5.22-24.57-5.9-13.59-13a7.91,7.91,0,0,0-2.83-1,25.24,25.24,0,0,0,1.8-5.08H439v-1.8h4.32a28.32,28.32,0,0,0,.45-5H450a14.15,14.15,0,0,1-.9,5h1.58l1.8-1.8,1.8,1.8v1.8h-6A14.77,14.77,0,0,1,445.68,17a6.82,6.82,0,0,1,2,.59c.85-.36,1.75-.72,2.74-1l.9,1.85c-.54.18-1.08.45-1.57.67l1.66,1.85-3.78,3a11.39,11.39,0,0,0-1.39-2.3C442.57,25.29,443.92,29.65,456.52,26.28ZM75,61.44H86.8l1.8-1.8,1.8,1.8v2.2H75ZM90.09,84.88H84v-.4H81.76v.4H76.54c-.45-5.62-.58-9.45-.58-9.45h6.12v.45h2.16c0-.18,0-.31,0-.45H89.5C90,81.06,90.09,84.88,90.09,84.88ZM76.77,56.71H85l1.8-1.79,1.8,1.79v2.21H76.77Zm0,11.66V66.16H85l1.8-1.8,1.8,1.8v2.21Zm0,2.52H85l1.8-1.8,1.8,1.8v2.2H76.77Zm7.38,7.2H82l-.13,4.18H84C84,81.19,84.06,79.8,84.15,78.09ZM105,73.41s0-.45.18-4h-11l-.18,4H90.18c-.5-5.36-.63-6.53-.63-6.53h4.81v.36h11v-.36h3.87c.5,5.36.59,6.53.59,6.53Zm-11.84.72H98.5c0,12.28-8.14,13.81-8.14,13.81S93.19,83.17,93.19,74.13Zm9.27-17.69-.13,6h2.83l1.8-1.8,1.8,1.8v2.2h-18v-2.2h6.71c-.09-2.48-.23-4.41-.27-6H90.76v-2.2h6.3c-.09-2.48-.13-3.2-.13-3.2h5.67l0,3.2h2.61l1.8-1.76,1.8,1.76v2.2Zm3.83,22.37,4.9,1.26s-.67,2.61-2.2,7.47c0,0-3,0-8.73-.32-.5-7.78-.63-13.09-.63-13.09h5.26s0,2.56-.13,7.51c.36,0,.67,0,1,0C106.06,79.84,106.29,78.81,106.29,78.81Zm41.22-.45s-1.8,6.52-7.2,6.52c-6.93,0-6.71-7.51-11.57-8-3.51,7.61-8.59,8-8.59,8s5.62-7.69,5.62-27.27h6.3a56.44,56.44,0,0,1-1.75,15,5.66,5.66,0,0,1,6.07,2.07C140.62,80.07,142.42,82,147.51,78.36Zm19.44-13a62.64,62.64,0,0,1-12.83,1.71v-6.3c10.22,0,20.57-.54,20.57-.54-6.35,9-14.45,17.24-3.69,24.66C154.39,84.88,158.13,71.65,167,65.35Zm10.71,4.59a10.35,10.35,0,0,0-2.3-3,3.92,3.92,0,0,1-.81,3.65,10.29,10.29,0,0,0-2.61-3.24l2.07-2.3a5.65,5.65,0,0,1,1.17,1.49l1.94-2.16A3.78,3.78,0,0,1,177.66,69.94Zm14.08,14.94c-.63-12.15-.81-24.07-.81-24.07h6.3s0,3,0,7.87c1.57-.4,5.67-1.8,10.66-6l3.92,4.95c-8.42,5.67-13,3.24-14.63,1.89,0,2.88-.09,6.26-.18,10,9.54-.49,13.55-.36,13.55-.36V85A157.15,157.15,0,0,1,191.74,84.88ZM233.14,66s-4.27-2.38-7.83-2.43l.05-4.67C233.5,59.32,233.14,66,233.14,66Zm14-.85s4,11.79-20.38,18.81l-1.4-6.12C242.77,73,247.09,65.13,247.09,65.13ZM265.9,84.88h-5c-.63-12.15-.81-27.27-.81-27.27h6.3S266.35,71.52,265.9,84.88Zm9.59-9c-8,0-8.37-8.28-8.37-8.28a16.6,16.6,0,0,0,8.37,2Zm31.63,1.44,1,6.21c-18.63,5.22-24.57-5.9-13.59-13a7.91,7.91,0,0,0-2.83-1,25.24,25.24,0,0,0,1.8-5.08h-3.92v-1.8h4.32a28.32,28.32,0,0,0,.45-5h6.3a14.15,14.15,0,0,1-.9,5h1.58l1.8-1.8,1.8,1.8v1.8h-6A14.77,14.77,0,0,1,296.28,68a6.82,6.82,0,0,1,2,.59c.85-.36,1.75-.72,2.74-1l.9,1.85c-.54.18-1.08.45-1.57.67L302,71.88l-3.78,3a11.39,11.39,0,0,0-1.39-2.3C293.17,76.29,294.52,80.65,307.12,77.28ZM326,65.49l4.59,1.57a17.62,17.62,0,0,1-4.23,7.61h1c.45,8.41.58,10.21.58,10.21h-5.67s0-.76.23-7.33a13,13,0,0,1-4.41,1.35,30.2,30.2,0,0,0,6.84-12.6c-3.65,2.43-6.39,1.53-6.39,1.53a22.4,22.4,0,0,0,7.42-11.12l5,2.75A22.72,22.72,0,0,1,326,65.49Zm24.16,8.59,1.76,1.8v2.21H348c-.09,2.34-.13,5.4-.22,9.36-4.32.49-8,.63-8,.63v-5s1.08,0,3.29.14c-.09-2-.14-3.69-.23-5.13h-13V75.88h12.87l-.18-4.14H331.24v-2.2H347l1.8-1.8,1.76,1.8v2.2h-2.43c-.05.77-.05,2-.09,4.14h.31ZM334.57,85.56a13.19,13.19,0,0,0-4.32-5s5.81-2.66,8.64,2.79Zm2.66-32.81v.41h7.29v-.41h4.77c.49,11.48.63,14,.63,14H344.2v-.54h-7.29v.54h-4.77c-.45-11.52-.58-14-.58-14Zm7.11,8h-7.29c0,1-.05,2.07-.09,3.24h7.29C344.29,63.19,344.29,62.16,344.34,60.76Zm-7.16-5.4c0,.81,0,1.85-.09,3.2h7.29c.05-1,.05-2,.09-3.2ZM377.5,78a3.87,3.87,0,0,0-.13-3.83c-2.79-4.23-10.85-1.35-10.85-1.35-.31-3.28-.27-5.13.23-12.15h-5.31V58.88h11.74a49.89,49.89,0,0,0-2.25,9.53s7.79-2.47,11.21,1.22c5.35,5.8-.45,15.25-10.71,15.25-7.83,0-6.48-8.73.09-8.73A12.49,12.49,0,0,1,377.5,78Zm-6.07,4.27a6.31,6.31,0,0,0,3.69-1.39,5.65,5.65,0,0,0-3.65-1.8C368.86,79.08,368.46,82.27,371.43,82.27Z"/></svg>