<svg id="レイヤー_1" data-name="レイヤー 1" xmlns="http://www.w3.org/2000/svg" viewBox="0 0 337.47 27.17"><defs><style>.cls-1{fill:#f0908a;}</style></defs><path class="cls-1" d="M20.73,2.11,22,3.39V5H5.34A13.42,13.42,0,0,1,4.26,7.39H7.07v.32h8.29V7.39h4.48c0,2.59-.1,4.83-.29,6.75L20.73,13,22,14.21v1.56H19.33a31.65,31.65,0,0,1-1,4.64h1.08l1.28-1.28L22,20.41V22H17.85C16.16,26.3,14,26.59,14,26.59s.45-.77.84-4.61h-8a4.93,4.93,0,0,1,0,.67h-3c-.1-2.72-.16-5-.2-6.88H1.34V14.21H3.52c-.06-2.79-.13-4.48-.16-5.51A7.61,7.61,0,0,1,0,11.23,35.72,35.72,0,0,0,2.05,0L6.14.58a27,27,0,0,1-.38,2.81H19.45ZM6.88,20.41H9.25c0-.8,0-2.2.06-4.64H6.94C6.91,17.12,6.91,18.65,6.88,20.41Zm.1-6.2H9.34l.1-4.93H7C7,10.3,7,11.87,7,14.21Zm5.56-4.93c.07,1.92.13,3.55.16,4.93h2.59c0-1.48.07-3.11.07-4.93Zm2.69,6.49H12.77c.06,2.37.13,3.81.16,4.64h2C15.07,19.13,15.17,17.6,15.23,15.77ZM27.68,26.69S31,21.37,30.24,1.38h4.48v.51h5.37V1.38h3.72c.35,14.87.44,25,.44,25-3.9.35-7.16.45-7.16.45V23.33s.93,0,2.78.06c0-1.5,0-3.55.07-6.14H33.41C31.36,26.81,27.68,26.69,27.68,26.69Zm6-11h6.24c0-1.6,0-3.39.06-5.31H34.37C34.21,12.35,34,14.11,33.7,15.68Zm.8-6.91H40c0-1.64.06-3.43.06-5.31H34.72C34.69,5.41,34.62,7.17,34.5,8.77ZM61.41,9C59.94,9,59,9,59,9V4.9s2.78,0,5.21.22c.93,8.93,1.12,19.39,1.12,19.39H60.86S61.28,16.38,61.41,9Zm21.34,7c.06,4.45-2.08,8.58-7.42,8.58s-7.49-4.16-7.43-8.61C68,10.78,71,5.28,75.33,5.28S82.65,10.81,82.75,15.93Zm-3.33-1c0-2.59-1.44-5.21-4.09-5.21s-4.07,2.59-4.1,5.18S72.51,20,75.33,20,79.42,17.5,79.42,15ZM99.1,1.82v.55h11.71V1.82h3.72c.32,14.79.41,24.87.41,24.87h-4.35v-.58H98.88c0,.19,0,.38,0,.58H95.17c-.36-14.79-.45-24.87-.45-24.87Zm0,2.12c0,3.23,0,10.2-.19,20.6h11.71c0-3.23.06-10.21.19-20.6Zm1.25,15.77c-.32-7.1-.42-10.94-.42-10.94h3.71v.54h2.82a3.26,3.26,0,0,0,0-.54h3.07c.32,7.13.42,10.94.42,10.94h-3.71v-.77h-2.82a6.61,6.61,0,0,0,0,.77Zm3.13-2.34h2.79c0-1.4.06-3.55.16-6.49h-2.82C103.58,12.25,103.55,14.4,103.45,17.37ZM121.25,19c5,3.87,2,7.58,2,7.58a10.08,10.08,0,0,0-4.35-4.73Zm32.8,4.48c0-1.09.06-3.3.12-7.71h-5.88V14.24h5.92c0-1.76,0-3.81.09-6.18h-8V6.5h17l1.25-1.29,1.28,1.29V8.06h-8.06c.06,2.37.12,4.42.16,6.18h3.39L162.56,13l1.28,1.28v1.57h-5.92c.09,4.32.13,6.56.13,7.71h5.21l1.25-1.28,1.28,1.28v1.57H146.3V23.52Zm2.49-17.38a14.57,14.57,0,0,0-4.57-4s3.84-2.65,7.36,1.76Zm21.09-2.56H171.3V2h18.14L190.72.74,192,2V3.58h-6.63c0,.55,0,1.41-.06,2.79h1.12V6.11h3.07c.35,6.18.45,7.49.45,7.49h-3.74v-.32h-9.83a1.27,1.27,0,0,0,0,.32h-3.07c-.32-6.18-.42-7.49-.42-7.49h3.72v.26h1C177.57,5.57,177.6,4.64,177.63,3.58ZM182,22h-3.84l-.1.58-3.26-.26c.09-1.79.22-3.42.32-4.76h-3.56V16h3.68l.2-2,3.87.29L179.07,16h10.08l1.28-1.28L191.71,16v1.57h-4.38a13.69,13.69,0,0,1-.77,2.88h2.59l1.28-1.28,1.28,1.28V22h-5.89a8.82,8.82,0,0,1-6.52,4.55A13.26,13.26,0,0,0,182,22ZM177.5,7.93h-1l-.12,3.78h1C177.44,11,177.47,9.85,177.5,7.93Zm5,12.52a14.48,14.48,0,0,0,.45-2.88h-4.09c-.13.83-.26,1.79-.45,2.88ZM180.73,3.58c.07,1,.1,2,.13,2.79h1l-.13-2.79Zm1.16,4.35h-1c.06,1.86.13,3,.16,3.78h1C182,10.24,181.92,9,181.89,7.93Zm3.29,3.78h1.09c0-.83.06-2.05.1-3.78h-1.09Zm9.19,3.65a18.88,18.88,0,0,0,4.32-2.56h-3.11V11.23h3.75c-.1-2.14-.16-3.87-.19-5.28h-2.4V4.38h2.33c-.09-3-.16-3.87-.16-3.87H203l-.07,3.59,1-1,1.28,1.24V6h-2.27c0,.93,0,2-.07,3.23a42.6,42.6,0,0,0,4.07-5l2.69,1.67V5.34h4v.39h5.82c-.09,4.38-1.95,6.72-3.65,7.93,2,1.54,3.3,3.68,3.2,5.6s-1.5,3.49-5,4.23l-.48-2.66-.1,5.82H210c-.25-9.5-.35-16.73-.41-19.77a29.49,29.49,0,0,1-3.78,4.35h.83L207.9,10l1.28,1.28V12.8h-5.24a16,16,0,0,1-2.34,1.5v.19h2.69v-.38H208c.32,7.49.41,12.58.41,12.58h-4.35V26.3h-2.68v.39h-3.72c-.22-5-.35-9-.38-11A6.71,6.71,0,0,1,194.37,15.36Zm7.07,9.37h2.62c0-.89,0-2.08.07-3.55H201.5C201.5,22.24,201.47,23.42,201.44,24.73Zm.1-5.12h2.62c0-1.08,0-2.27.06-3.55H201.6C201.57,16.93,201.57,18.11,201.54,19.61Zm11.93-.22c3.07-1.06,1.12-3.14.06-4C213.5,16.61,213.5,18,213.47,19.39Zm.06-5.34a19,19,0,0,0,2-6.76h-2C213.6,8.74,213.57,11,213.53,14.05Zm28.1-11,1.25,1.28V5.92H222.75V4.35H231c-.26-2.33-.36-3.84-.36-3.84H235s0,1.31-.16,3.84h5.5Zm.13,7.43c.35,7.26.41,12.25.41,12.25-3.07.35-5.63.45-5.63.45V19.68s.45,0,1.31,0c0-1.73.07-4.19.17-7.33h-3c0,3.11-.07,7.94-.2,14.37h-3.71c-.19-6.08-.29-11.1-.35-14.37h-2.91c0,1.95-.07,5.44-.23,10.37h-3.71c-.32-7.3-.41-12.25-.41-12.25h4.35v.31h2.88c0-1.72-.07-2.65-.07-2.65H235v2.65h3V10.5Zm18.46.12a44.09,44.09,0,0,1-9.12,1.22V7.36c7.27,0,14.63-.39,14.63-.39-4.52,6.41-10.27,12.26-2.63,17.54C251.3,24.51,254,15.1,260.22,10.62Zm7.62,3.27a7.18,7.18,0,0,0-1.63-2.12,2.81,2.81,0,0,1-.58,2.6,7.27,7.27,0,0,0-1.86-2.31l1.48-1.63a3.89,3.89,0,0,1,.83,1.06L267.45,10A2.7,2.7,0,0,1,267.84,13.89ZM280.13,1.25h3.71s0,1.15-.23,11.77h-3.07V12.7h-2.85c0,3.52-.06,8.1-.12,14.05H274.5c-.32-21-.42-25.5-.42-25.5h3.71v.29h2.34Zm.22,6.65h-2.59c0,.93,0,2,0,3.23h2.75C280.45,9.92,280.38,8.86,280.35,7.9Zm-.16-4.8h-2.4c0,.77,0,1.8,0,3.23h2.56Zm-1.54,11.33h8.23l1.25-1.28,1.28,1.28V16h-2c0,.51,0,1.25-.06,2.37l.77-.77,1.28,1.28v1.57h-2.08c0,1.15-.07,2.49-.13,4.16h-2.72c-.1-1.64-.16-3-.19-4.16h-1.44c-1.35,4.09-3.71,4.16-3.71,4.16a13.89,13.89,0,0,0,.86-4.16h-1.35V18.88h1.48q.09-1.24.09-2.88h-1.57Zm4.61,4.45h1c-.06-1.38-.13-2.27-.13-2.88h-.44A22.62,22.62,0,0,1,283.26,18.88Zm7,4.83c0-2.05,0-5.44.1-11h-2.47a.88.88,0,0,0,0,.32h-3.75s0-1.12.23-11.77h3.07v.29h3V1.25h3.08c.32,21,.41,25.5.41,25.5-3.07.32-5.63.42-5.63.42V23.65S289,23.65,290.3,23.71ZM287.71,6.33h2.75c0-1,0-2.08,0-3.23h-2.91C287.61,4.32,287.68,5.38,287.71,6.33Zm2.69,4.8c0-1,0-2.08,0-3.23h-2.69l.13,3.23Zm10.34,3.65h2.84c.36,8,.45,9.73.45,9.73H300s0-.93.22-9.34a9.7,9.7,0,0,1-4,1.63,26.4,26.4,0,0,0,5.7-12.32l4.25,1.34C305,10.56,302.78,13.25,300.74,14.78Zm18.14-3.87,1.28,1.28v1.57h-3.81c0,.57,0,1.37,0,2.43h1l1.25-1.28,1.28,1.28v1.57h-3.55c0,.7,0,1.53-.07,2.4h1.09l1.25-1.28,1.28,1.28v1.57h-3.65c0,.76,0,1.56-.06,2.43h1.5l1.25-1.28,1.28,1.28v1.57h-8.93v.83h-3.39l-.32-11a4.38,4.38,0,0,1-2.37.87,33.2,33.2,0,0,0,2.62-8.71l3.53,1.38a15.07,15.07,0,0,1-.87,2.59h1v.48h2.37a10.88,10.88,0,0,0,1.12-4l2.95,1.38a5.77,5.77,0,0,1-2.63,2.59h2.37Zm-1.51-8.29h3.75s0,.45-.26,4.61h-3a1,1,0,0,1,0-.29h-7.65a1,1,0,0,1,0,.29h-3c-.35-3.77-.45-4.61-.45-4.61h3.75s0,.32-.13,2.76h1.63L312.06.7h3.39c.16,2.4.29,3.84.36,4.68h1.82C317.44,3.17,317.37,2.62,317.37,2.62ZM313,24.16c-.06-.83-.09-1.67-.12-2.43h-1.6c0,.76,0,1.56,0,2.43Zm-1.69-4h1.5c0-.87,0-1.67-.06-2.4h-1.41C311.36,18.46,311.33,19.26,311.33,20.16Zm.06-4h1.31c0-1-.06-1.86-.06-2.43h-1.22C311.42,14.37,311.39,15.17,311.39,16.19Zm25.31,2.5h-2.78c-.61-6.82-.93-13.57-.93-13.57h4.48S337.12,12.8,336.7,18.69Zm-1.47,1.88a2,2,0,0,0-2,2,2,2,0,1,0,4,0A2,2,0,0,0,335.23,20.57Z"/></svg>