<svg id="レイヤー_1" data-name="レイヤー 1" xmlns="http://www.w3.org/2000/svg" viewBox="0 0 149.92 149.92"><defs><style>.cls-1{fill:#efe4dc;stroke:#efe4dc;stroke-miterlimit:10;stroke-width:5px;}</style></defs><circle class="cls-1" cx="74.96" cy="74.96" r="72.46"/><path d="M94.86,63.06a32.23,32.23,0,0,1,8.38,1.1c-2.87-13-17.19-22.94-34.47-22.94-19.35,0-35,12.41-35,27.71,0,9.76,6.38,18.33,16,23.27l-5.43,12.14A144.65,144.65,0,0,0,72.21,98,19.7,19.7,0,0,1,67.6,85.49C67.6,73.12,79.83,63.06,94.86,63.06Z"/><path d="M118,85.49c0-10.11-10.36-18.3-23.14-18.3s-23.13,8.19-23.13,18.3c0,7.72,6,14.32,14.59,17A103.88,103.88,0,0,0,111,108.88l-3.59-8C113.78,97.6,118,91.94,118,85.49Z"/></svg>