<svg id="レイヤー_1" data-name="レイヤー 1" xmlns="http://www.w3.org/2000/svg" viewBox="0 0 236.58 52.12"><path d="M29.86,1.8a.12.12,0,0,0,0,.06.12.12,0,0,1,.07.07l.09.12a.18.18,0,0,1,0,.11V12.48c0,.09.07.14.2.14h.21a4,4,0,0,0,1.32-.29,11.92,11.92,0,0,0,1.53-.75c.5-.31,1-.65,1.57-1s1-.76,1.53-1.13l1.31-1.1c.4-.34.72-.65,1-.88h.18a.73.73,0,0,1,.44.21,3.65,3.65,0,0,1,.39.56,2.34,2.34,0,0,1,.32.63,1.49,1.49,0,0,1,.13.52,1.85,1.85,0,0,1-.72,1.19A15,15,0,0,1,37.67,12c-.74.51-1.55,1-2.43,1.54s-1.73,1-2.58,1.38-1.58.74-2.25,1a4.59,4.59,0,0,1-1.47.38,1.06,1.06,0,0,1-.49-.16,3.32,3.32,0,0,1-.63-.4,2.56,2.56,0,0,1-.52-.52.78.78,0,0,1-.22-.49V1.8Z"/><path d="M44.35,6.9a.55.55,0,0,1,.28-.45,3.22,3.22,0,0,1,.67-.33c.23-.09.47-.14.68-.2l.44,0c.16,0,.32.16.52.51s.36.7.54,1.11a11.86,11.86,0,0,1,.45,1.21,3.25,3.25,0,0,1,.18.74.51.51,0,0,1-.25.43,2,2,0,0,1-.6.32,3.75,3.75,0,0,1-.65.2,3,3,0,0,1-.48.07.63.63,0,0,1-.36-.07c-.08,0-.13-.14-.2-.31s-.13-.3-.23-.59-.24-.6-.36-.92a9.51,9.51,0,0,1-.37-.9c-.12-.27-.19-.47-.25-.59S44.35,7,44.35,6.9Zm2.79,8.17c.23-.18.55-.38.93-.63s.81-.52,1.28-.83.92-.63,1.35-.95a14.58,14.58,0,0,0,1.19-.94,5.17,5.17,0,0,0,.75-.79,3.3,3.3,0,0,0,.33-.68c.14-.31.29-.69.45-1.1s.32-.83.49-1.28.32-.85.44-1.23l.38-.9c.09-.23.17-.36.2-.36l.13,0a1.81,1.81,0,0,0,.36.13c.16,0,.36.11.54.18l.54.16a2.24,2.24,0,0,1,.36.13,1.2,1.2,0,0,1,.32.16.41.41,0,0,1,.17.32A5.62,5.62,0,0,1,57,8.36a13.69,13.69,0,0,1-1.08,2.28A23.65,23.65,0,0,1,54.34,13a22.8,22.8,0,0,1-1.84,2.11,10.9,10.9,0,0,1-1.93,1.49,3.58,3.58,0,0,1-1.81.58l-.24,0a.83.83,0,0,1-.2-.11l-1.55-1.57s0,0,0-.05v-.11S46.88,15.23,47.14,15.07Zm1.42-9.25a.57.57,0,0,1,.25-.44,3.85,3.85,0,0,1,.61-.27A3,3,0,0,1,50.09,5a2.65,2.65,0,0,1,.47,0,.39.39,0,0,1,.3.12.82.82,0,0,1,.22.31,1.13,1.13,0,0,1,.14.36,3,3,0,0,0,.11.29c0,.07.07.19.14.38s.15.37.22.59.15.4.22.57.12.31.14.38a.58.58,0,0,0,0,.15v.16a1.62,1.62,0,0,1,0,.31c0,.1-.09.17-.23.23L51,9.11a2,2,0,0,1-.83.15c-.16,0-.27,0-.32-.1a.64.64,0,0,1-.16-.28c0-.11-.13-.29-.22-.56s-.22-.56-.32-.86-.24-.6-.35-.89L48.58,6A.65.65,0,0,1,48.56,5.82Z"/><path d="M61.57,13.81c.29-.18.63-.38,1-.58s.74-.39,1.08-.57.59-.31.76-.42.52-.37.88-.66l1.24-1c.45-.4.9-.81,1.35-1.26a17.44,17.44,0,0,0,1.26-1.37,9.59,9.59,0,0,0,.9-1.35,2.6,2.6,0,0,0,.36-1.17l0-.11a.41.41,0,0,0-.08-.12.15.15,0,0,0-.07-.09l0,0h-7a.67.67,0,0,1-.27-.14c-.15-.09-.22-.16-.22-.22v-2a.36.36,0,0,1,.09-.2c.06-.09.11-.15.17-.16.23,0,.59,0,1.09,0l1.68,0c.61,0,1.28,0,2,0h2l1.69,0h1.52a1.52,1.52,0,0,1,.48.11,3.92,3.92,0,0,1,.58.29,2.22,2.22,0,0,1,.49.38.67.67,0,0,1,.19.43.34.34,0,0,1,0,.1c-.24.53-.47,1-.69,1.43s-.45.84-.66,1.26-.44.81-.67,1.21-.47.82-.74,1.27a1.86,1.86,0,0,1-.2.31.72.72,0,0,0-.05.29c0,.07,0,.14,0,.2a.46.46,0,0,0,.11.16l.61.61.9.9.92.9.57.59a1.82,1.82,0,0,0,.25.26c.11.12.22.25.35.37l.3.36a1,1,0,0,1,.18.22A1.53,1.53,0,0,1,76,14a1.31,1.31,0,0,1,.09.24.71.71,0,0,1-.24.47,6.29,6.29,0,0,1-.63.64,6.73,6.73,0,0,1-.72.56,1.27,1.27,0,0,1-.5.26.37.37,0,0,1-.24-.08.67.67,0,0,1-.19-.16l-.31-.38A8.18,8.18,0,0,0,72.7,15c-.2-.22-.38-.46-.54-.65l-.31-.38-.41-.43c-.22-.2-.43-.42-.67-.65l-.65-.65-.43-.43h-.13a1.38,1.38,0,0,0-.7.34c-.29.22-.63.49-1,.81L66.67,14c-.44.38-.85.74-1.28,1.08a9.35,9.35,0,0,1-1.24.81,2.11,2.11,0,0,1-1.09.34h-.21l-1.68-1.68a.58.58,0,0,1-.07-.14l-.05-.11C61.1,14.15,61.27,14,61.57,13.81Z"/><path d="M80.11,13.87a.76.76,0,0,1,0-.19c0-.07,0-.1.12-.12a22.69,22.69,0,0,0,3.26-.94,19.2,19.2,0,0,0,2.87-1.31A19.62,19.62,0,0,0,89,9.53,25.16,25.16,0,0,0,91.42,7.2a3.5,3.5,0,0,0,.41-.61l.49-.86a5.3,5.3,0,0,1,.5-.74.7.7,0,0,1,.52-.33c.15,0,.31.11.47.33a6.84,6.84,0,0,1,.47.75,6,6,0,0,1,.36.85,2.63,2.63,0,0,1,.14.59A3.09,3.09,0,0,1,94,9a13.09,13.09,0,0,1-1.91,2,28.93,28.93,0,0,1-2.63,1.93,28.29,28.29,0,0,1-2.88,1.69,20.64,20.64,0,0,1-2.67,1.19,6.33,6.33,0,0,1-2,.43.9.9,0,0,1-.61-.3,4.08,4.08,0,0,1-.56-.71,4.77,4.77,0,0,1-.43-.73c-.12-.24-.2-.38-.23-.44A.5.5,0,0,1,80.11,13.87ZM80.72,3.6V3.47A2.6,2.6,0,0,0,81,3.1a5.08,5.08,0,0,1,.43-.54A2.71,2.71,0,0,1,82,2.11a.93.93,0,0,1,.54-.2.37.37,0,0,1,.13,0h.12c.49.36,1,.72,1.46,1.1A17,17,0,0,1,85.66,4.2a3.46,3.46,0,0,0,.28.3,3,3,0,0,1,.36.36c.13.11.22.2.31.29a.63.63,0,0,1,.13.13v.36L85,7.33h-.46a1.64,1.64,0,0,0-.26-.24,4.4,4.4,0,0,1-.41-.36c-.14-.12-.27-.25-.4-.35l-.27-.26a3.75,3.75,0,0,0-.59-.45A10.27,10.27,0,0,1,81.8,5a5.53,5.53,0,0,1-.75-.68,1.06,1.06,0,0,1-.35-.63S80.72,3.66,80.72,3.6Z"/><path d="M102.58,14.69c-.35,0-.73,0-1.1,0s-.8,0-1.19-.09a3.44,3.44,0,0,1-1.06-.29,2.06,2.06,0,0,1-.8-.61,1.59,1.59,0,0,1-.3-1V6.48l.23-.3H102a.36.36,0,0,0,.31-.15,1.4,1.4,0,0,0,.13-.36,1.67,1.67,0,0,0,0-.39,1.87,1.87,0,0,0,0-.29,1.46,1.46,0,0,0,0-.25,2.85,2.85,0,0,0,0-.42,1.43,1.43,0,0,0-.1-.38.24.24,0,0,0-.22-.16h-3.6l-.09-.07-.15-.11s0,0-.07-.07-.05,0-.05-.06V1.8l.23-.23h6.25l.13.1v.58c0,.27,0,.58,0,.87s0,.59.06.86,0,.47,0,.57v.13a1.26,1.26,0,0,0,0,.27,1.44,1.44,0,0,0,.09.24.21.21,0,0,0,.18.1c.18,0,.34-.12.49-.37s.25-.56.38-.92.21-.76.3-1.19.2-.81.31-1.19a4.6,4.6,0,0,1,.34-.9c.13-.23.27-.36.45-.36s.36,0,.59,0a2.93,2.93,0,0,1,.67.07,1.26,1.26,0,0,1,.52.25.6.6,0,0,1,.22.51,3,3,0,0,1-.13.81,2.53,2.53,0,0,0-.12.81.59.59,0,0,0,.1.29.3.3,0,0,0,.25.17h4.69s0,0,.07.08,0,.09,0,.1a1,1,0,0,1,.08.15.31.31,0,0,1,0,.11V5.17a.33.33,0,0,1-.18.32,2.61,2.61,0,0,1-.42.16,3.39,3.39,0,0,0-.45.15.46.46,0,0,0-.28.32c-.06.2-.13.45-.24.78s-.23.7-.37,1.09-.28.81-.42,1.25-.25.82-.38,1.2-.21.71-.3,1a2.8,2.8,0,0,0-.11.63,1.27,1.27,0,0,0,.48.94c.35.29.71.54,1.08.79l1.08.65c.35.2.51.4.51.56a1.35,1.35,0,0,1-.16.54,2.58,2.58,0,0,1-.38.63,4.34,4.34,0,0,1-.54.52.91.91,0,0,1-.54.24,1.43,1.43,0,0,1-.94-.35,7.65,7.65,0,0,1-.83-.79,9.69,9.69,0,0,0-.77-.79,1.23,1.23,0,0,0-.83-.36,1.42,1.42,0,0,0-.88.38c-.32.25-.67.52-1,.83a12.07,12.07,0,0,1-1.1.82,1.88,1.88,0,0,1-1.11.38.7.7,0,0,1-.58-.41c-.18-.27-.34-.58-.5-.88a7.83,7.83,0,0,0-.44-.83c-.14-.26-.28-.35-.45-.29Zm2.73-2a3.6,3.6,0,0,1-.29.63c-.1.2-.21.4-.3.6a1.48,1.48,0,0,0-.15.61,2.81,2.81,0,0,0,.9-.22,6.28,6.28,0,0,0,1.08-.59,4.59,4.59,0,0,0,.9-.78,1.28,1.28,0,0,0,.4-.83,4.64,4.64,0,0,0-.18-1.18,3.73,3.73,0,0,0-.52-1.1,3,3,0,0,0-.83-.83,2,2,0,0,0-1.12-.33.48.48,0,0,0-.28.08,2.68,2.68,0,0,0-.31.18h-1.93s-.09-.06-.18-.13l-.18-.11a.31.31,0,0,0-.12-.07l-.11-.05h-1.32l-.25.25v3a.62.62,0,0,0,.18.32.51.51,0,0,0,.31.16h1.67c.22,0,.34-.07.4-.2a1.79,1.79,0,0,0,.16-.46,1.62,1.62,0,0,1,.15-.47.31.31,0,0,1,.32-.2,2,2,0,0,1,.49.07,4.1,4.1,0,0,1,.59.2,1.18,1.18,0,0,1,.47.33.65.65,0,0,1,.2.46A1.72,1.72,0,0,1,105.31,12.64Zm4-3.67a.29.29,0,0,0,.19,0c.17,0,.31-.13.44-.38a5.14,5.14,0,0,0,.29-.84,7.83,7.83,0,0,0,.19-.94,5.22,5.22,0,0,0,.06-.63.52.52,0,0,0-.38-.52,1,1,0,0,0-.36-.06h-.67a.77.77,0,0,0-.3.06.63.63,0,0,0-.26.16.48.48,0,0,0-.09.29,2.62,2.62,0,0,0,.08.65,6.77,6.77,0,0,0,.2.7c.09.23.16.47.25.68s.14.42.2.58A.56.56,0,0,0,109.33,9Z"/><path d="M117.59,15.11a1.64,1.64,0,0,1,.34-.4l.41-.38a1.84,1.84,0,0,0,.31-.41,2.89,2.89,0,0,0,.23-.6c.09-.28.22-.61.33-1s.25-.77.39-1.18.27-.78.4-1.1a5.77,5.77,0,0,1,.38-.85c.12-.22.21-.32.3-.32l.38,0c.2,0,.4,0,.6,0a2.06,2.06,0,0,1,.59.09.5.5,0,0,1,.36.27v.43a5.94,5.94,0,0,1,0,.72,4.66,4.66,0,0,0-.08.72,1.53,1.53,0,0,0,.15.63,2.72,2.72,0,0,0,.36.61,4.58,4.58,0,0,0,.47.53,6,6,0,0,0,.46.44.58.58,0,0,0,.18,0,.65.65,0,0,0,.18,0c.09,0,.13,0,.13-.12V8.41a.63.63,0,0,0-.13-.27c-.09-.11-.16-.16-.23-.16H121.4l-.09-.06-.14-.12s-.06,0-.07-.06l-.06,0V6c0-.08.06-.15.13-.24a.32.32,0,0,1,.23-.12h8.65a.44.44,0,0,1,.28.14c.09.11.17.18.2.22v.81a2.1,2.1,0,0,1,0,.5,1.7,1.7,0,0,1-.1.47c-.06.12-.13.2-.24.2h-2.65a.28.28,0,0,0-.25.16,1,1,0,0,0-.1.36,1.31,1.31,0,0,0,0,.39v.22a1.74,1.74,0,0,0,0,.29v.2l.25.3h4a.18.18,0,0,0,.09.07l.14.11a.31.31,0,0,1,.09.07s0,0,0,.06V12s0,0,0,0a.23.23,0,0,1-.09.08.43.43,0,0,1-.14.12l-.09.06h-4l-.25.3v1.57s0,.07.09.13a.94.94,0,0,0,.19.14,1.8,1.8,0,0,1,.2.11l.13,0h6.07a5,5,0,0,1-.06.71,3.16,3.16,0,0,1-.18.75,2.35,2.35,0,0,1-.34.65.9.9,0,0,1-.58.36h-2.28c-.85,0-1.66,0-2.43,0a11.24,11.24,0,0,1-2.22-.27,8.17,8.17,0,0,1-2.05-.71,7.8,7.8,0,0,1-1.95-1.4.52.52,0,0,0-.18,0,.79.79,0,0,0-.66.38c-.16.25-.33.54-.49.85a9.41,9.41,0,0,1-.5.82.85.85,0,0,1-.74.38H119a2.11,2.11,0,0,0-.25-.18c-.15-.09-.31-.22-.49-.34s-.34-.31-.5-.47a1.26,1.26,0,0,1-.33-.45v-.07A.72.72,0,0,1,117.59,15.11ZM118.29,2h5.53a.43.43,0,0,0,.43-.25,2.09,2.09,0,0,0,.14-.56c0-.2,0-.38.06-.56s.09-.25.19-.25h2.17a.27.27,0,0,1,.28.25,3.27,3.27,0,0,1,.09.56,3.29,3.29,0,0,0,.15.56.44.44,0,0,0,.45.25h5.51l.25.31V6.36l-.25.25h-1.91L131,6.25a2.77,2.77,0,0,0,0-.33,3.41,3.41,0,0,0,0-.64,2.48,2.48,0,0,0-.12-.67.39.39,0,0,0-.4-.29h-9.6l-.1,0a.43.43,0,0,0-.15.09l-.1,0-.08,0v1.7l-.41.36h-1.8s0,0-.06-.06,0,0-.07-.07a.78.78,0,0,0,0-.12l-.06-.11v-4Z"/><path d="M142.3,8.57a12,12,0,0,1,.6-1.4c.19-.44.39-.81.57-1.16a1.75,1.75,0,0,0,.27-.79.08.08,0,0,0,0,0,.36.36,0,0,0-.1-.13,1.53,1.53,0,0,1-.27,0h-.27a10.57,10.57,0,0,0-1.28.09c-.44.08-.87.15-1.3.24l-1.26.21a9.18,9.18,0,0,1-1.28.09.63.63,0,0,1-.52-.21,1.07,1.07,0,0,1-.2-.52,3.61,3.61,0,0,1,0-.67c0-.23,0-.45,0-.63a.59.59,0,0,1,.49-.61c.27,0,.66-.07,1.22-.11l1.86-.16c.7,0,1.42-.11,2.19-.17s1.5-.1,2.2-.18l1.87-.14,1.23-.09c.39,0,.83-.07,1.28-.09l1.33,0h.21a.93.93,0,0,1,.24,0,.36.36,0,0,1,.21.11c.06,0,.08.12.08.21V4.32l-.24.23c-.77.06-1.56.17-2.34.31a7,7,0,0,0-2.12.76,4.21,4.21,0,0,0-1.55,1.44,4.26,4.26,0,0,0-.6,2.38,3.27,3.27,0,0,0,.45,1.78,3.51,3.51,0,0,0,1.18,1.15,6.21,6.21,0,0,0,1.62.68,14.13,14.13,0,0,0,1.8.4c.1,0,.14.07.14.2v.23a6.42,6.42,0,0,1-.05.67,3.81,3.81,0,0,1-.22.75,1.94,1.94,0,0,1-.4.64.71.71,0,0,1-.59.27,7,7,0,0,1-2.47-.47,7.31,7.31,0,0,1-2.14-1.32,7,7,0,0,1-1.51-1.94,5.16,5.16,0,0,1-.58-2.4A4.42,4.42,0,0,1,142.3,8.57Zm5.75-1.49a.39.39,0,0,1,.1-.26,1,1,0,0,1,.26-.21.94.94,0,0,1,.32-.11l.29,0a.75.75,0,0,1,.47.22,3.25,3.25,0,0,1,.41.52,2.46,2.46,0,0,1,.32.6,1.19,1.19,0,0,1,.13.48.56.56,0,0,1-.36.54,1.44,1.44,0,0,1-.68.18h-.18s-.08-.05-.11-.12-.11-.17-.2-.33-.2-.32-.29-.5-.2-.34-.29-.51l-.19-.34Zm2.14-1.14c.09-.05.18-.11.29-.16a1,1,0,0,1,.3-.11l.25,0h.27a.35.35,0,0,1,.24.11l.18.27c.11.13.21.29.34.45l.31.52a1.08,1.08,0,0,1,.14.46.43.43,0,0,1-.13.25,1.15,1.15,0,0,1-.32.25,1.73,1.73,0,0,1-.34.14.48.48,0,0,1-.25.07.72.72,0,0,1-.51-.23,3.4,3.4,0,0,1-.43-.56,4.35,4.35,0,0,1-.32-.65,1.57,1.57,0,0,1-.13-.55A.34.34,0,0,1,150.19,5.94Z"/><path d="M156.93,1.21A.24.24,0,0,1,157,1.1.82.82,0,0,0,157,1s0,0,.07-.08a.06.06,0,0,1,.06,0h15l.25.23V16.8a.49.49,0,0,1-.36.36h-1.93a.27.27,0,0,1-.25-.13c0-.09-.09-.18-.13-.28a1,1,0,0,0-.12-.29.25.25,0,0,0-.22-.13h-9.59a.26.26,0,0,0-.24.13,2.24,2.24,0,0,0-.11.29,1.39,1.39,0,0,1-.12.28.31.31,0,0,1-.25.13h-1.81l-.36-.36Zm2.89,12.6h9.59l.24-.25V3.73a.42.42,0,0,0-.11-.26.42.42,0,0,0-.25-.1h-9.37a.34.34,0,0,0-.23.1.36.36,0,0,0-.13.26v9.83Zm1.31-8.53h7a.07.07,0,0,1,0,0s.08,0,.08.07l.09.14a.39.39,0,0,0,0,.1v6a.4.4,0,0,0,0,.09c0,.07-.06.13-.09.14s0,.06-.08.08a.14.14,0,0,1,0,0h-7s0,0-.07,0l-.06-.08a.62.62,0,0,1-.05-.14.26.26,0,0,1,0-.09V5.53Zm2.36,2.18c-.13.07-.2.16-.2.23V9.6s.07.12.2.21a.55.55,0,0,0,.29.15h1.54a.38.38,0,0,0,.31-.17c.07-.12.14-.21.18-.3V8.86c0-.07,0-.13,0-.16a3.39,3.39,0,0,0-.06-.72.86.86,0,0,0-.17-.42.67.67,0,0,0-.4-.21,5.74,5.74,0,0,0-.7,0h-.36l-.36,0A1.45,1.45,0,0,0,163.49,7.46Z"/><path d="M176.7,15.07a6.83,6.83,0,0,1,.66-.18c.24,0,.49-.09.74-.14a.86.86,0,0,0,.54-.35l-.11-.12-1.69-.47c-.11,0-.18-.09-.2-.18a.66.66,0,0,1,0-.25v-.11s0,0,0-.07L177.2,12a.64.64,0,0,0,0-.09v-.09c0-.18-.07-.27-.2-.29l-.41-.09a.67.67,0,0,1-.42-.27,1.38,1.38,0,0,1-.19-.84V10a1.07,1.07,0,0,1,0-.18l.24-.25c.25,0,.57,0,.93,0a3.83,3.83,0,0,0,1-.18,1.93,1.93,0,0,0,.83-.5,1.32,1.32,0,0,0,.34-1,1.51,1.51,0,0,0,0-.31c0-.11-.09-.14-.23-.14a.8.8,0,0,0-.49.16l-.43.38a2.6,2.6,0,0,1-.43.38.76.76,0,0,1-.49.18,1.14,1.14,0,0,1-.25,0,.27.27,0,0,1-.2-.11l-.72-1.08V7.17a.63.63,0,0,1,.33-.58l.7-.36a4.28,4.28,0,0,0,.7-.38.61.61,0,0,0,.33-.57c0-.09,0-.15,0-.18a.9.9,0,0,0-.22-.06,1.25,1.25,0,0,0-.27,0l-.43,0-.45,0h-.29a.5.5,0,0,1-.23-.38,3.54,3.54,0,0,1,0-.45.91.91,0,0,1,.13-.53,1.7,1.7,0,0,1,.3-.3A1.89,1.89,0,0,0,177,3a.55.55,0,0,0,.12-.36A1.33,1.33,0,0,0,177,2a1.76,1.76,0,0,1-.13-.62.5.5,0,0,1,.15-.34.78.78,0,0,1,.32-.27,1.35,1.35,0,0,1,.41-.16,1.48,1.48,0,0,1,.38-.06.4.4,0,0,1,.38.19,1.34,1.34,0,0,1,.22.37l.21.38a.42.42,0,0,0,.36.18c.06,0,.09,0,.09,0l.25-1.18.24-.26h1.57c.1,0,.18.08.23.2a4.07,4.07,0,0,1,.13.45c0,.18,0,.36.05.54a1.07,1.07,0,0,0,0,.38.34.34,0,0,0,.13,0,.37.37,0,0,0,.36-.2c.07-.13.16-.27.22-.41a2.82,2.82,0,0,1,.23-.42.42.42,0,0,1,.38-.2c.11,0,.25,0,.43,0l.49.15a1.62,1.62,0,0,1,.39.25.45.45,0,0,1,.17.36.62.62,0,0,1-.11.34,2.36,2.36,0,0,1-.2.31,1.66,1.66,0,0,0-.22.32.55.55,0,0,0-.11.34.31.31,0,0,0,.13.24,2.45,2.45,0,0,1,.31.23,5.43,5.43,0,0,1,.37.41,1.69,1.69,0,0,1,.27.74.79.79,0,0,1,.08.13.15.15,0,0,0,.05.1,1.33,1.33,0,0,0,.56-.91,12.2,12.2,0,0,0,.12-1.23c0-.41.08-.81.13-1.19a1.21,1.21,0,0,1,.5-.86h.83a2.44,2.44,0,0,1,.54,0,1.85,1.85,0,0,1,.49.09.49.49,0,0,1,.31.25s0,.11,0,.22v.19a4.45,4.45,0,0,1-.07.89,5.14,5.14,0,0,0-.07.88v.2a.29.29,0,0,0,0,.14l.23.18h3.73l.09.11c.05.09.11.14.14.2a.19.19,0,0,1,.07.12l.06.11V5.28a.47.47,0,0,1-.16.34,1.77,1.77,0,0,1-.35.27l-.36.3a.88.88,0,0,0-.21.42,10.17,10.17,0,0,1-.36,1.31c-.16.49-.34,1-.51,1.5s-.3,1-.41,1.46a4.55,4.55,0,0,0-.18,1.22v.34a.39.39,0,0,0,.13.29,2,2,0,0,1,.28.27c.15.14.29.29.44.45l.43.43c.14.13.23.24.29.29l.23.16.27.22a.93.93,0,0,1,.25.23.44.44,0,0,1,.11.29.55.55,0,0,1,0,.18,2.66,2.66,0,0,1-.25.32,5,5,0,0,1-.38.49c-.14.16-.29.32-.43.5a2.13,2.13,0,0,1-.38.37h-.05a.45.45,0,0,1-.25-.08,2.19,2.19,0,0,1-.29-.16l-.29-.2-.2-.16L190,16l-.49-.43c-.16-.16-.31-.31-.47-.45s-.23-.23-.3-.27a.23.23,0,0,0-.11,0,1.26,1.26,0,0,0-.85.34c-.25.24-.52.49-.79.76a8,8,0,0,1-.81.74,1.47,1.47,0,0,1-.94.34h-.11l-.82-.84s0,0-.11,0a.69.69,0,0,0-.29.07,1.12,1.12,0,0,0-.2.18l-.23.18a.43.43,0,0,1-.25.07.9.9,0,0,1-.42-.13c-.16-.1-.32-.19-.47-.3a1.72,1.72,0,0,1-.39-.29l-.16-.12a1.59,1.59,0,0,0-.17,0h-.14a2.59,2.59,0,0,0-1,.18c-.31.12-.63.27-1,.43s-.66.31-1,.43a3.34,3.34,0,0,1-1,.18.71.71,0,0,1-.47-.16,2.25,2.25,0,0,1-.3-.42,3,3,0,0,1-.2-.52l-.15-.47A.47.47,0,0,1,176.7,15.07Zm3.46-2.68a.79.79,0,0,0,.46.12.78.78,0,0,0,.49-.16.61.61,0,0,0,.2-.48c0-.17-.06-.27-.2-.31a1.37,1.37,0,0,0-.4-.05,1.51,1.51,0,0,0-.5.07c-.16,0-.25.16-.25.38A.5.5,0,0,0,180.16,12.39Zm1.33-3a1.24,1.24,0,0,0,.47.14,2.56,2.56,0,0,0,.55,0,3.27,3.27,0,0,1,.4,0h.74a2.19,2.19,0,0,0,.75-.13.47.47,0,0,0,0-.18.88.88,0,0,0-.09-.41l-.21-.34a2,2,0,0,1-.24-.38,1.46,1.46,0,0,1-.09-.51h0s0,0,0,0l-.18.09,0,0h-.19A.73.73,0,0,1,183,7.6l-.29-.23a1.15,1.15,0,0,0-.29-.2.51.51,0,0,0-.34-.11c-.07,0-.16.09-.27.23a3.24,3.24,0,0,0-.27.56,4.54,4.54,0,0,0-.2.63,3,3,0,0,0-.09.47A.45.45,0,0,0,181.49,9.35ZM183.32,14a1.43,1.43,0,0,0,.31.24,1.46,1.46,0,0,0,.36.16,1.74,1.74,0,0,0,.34.05,1.56,1.56,0,0,0,.76-.21c.25-.17.48-.34.72-.54s.43-.42.63-.63l.49-.56a.46.46,0,0,0,.12-.24c0-.07,0-.16,0-.25s0-.09,0-.14v-.09l-.59-1.68a.47.47,0,0,0-.2-.23,1.32,1.32,0,0,0-.29,0,1,1,0,0,0-.54.11.57.57,0,0,0-.22.29,1.71,1.71,0,0,0-.09.43,2,2,0,0,1-.1.5.38.38,0,0,1-.25.29,3.43,3.43,0,0,1-.38.13,1.85,1.85,0,0,0-.4.16.76.76,0,0,0-.31.38,2.74,2.74,0,0,1-.07.27c-.05.11-.09.25-.16.41s-.11.31-.14.45a.94.94,0,0,0-.09.31s0,0,0,.07A.47.47,0,0,0,183.32,14Zm.13-8.35a2.31,2.31,0,0,0,.36.25,2.76,2.76,0,0,0,.43.2,1.07,1.07,0,0,0,.34.07.42.42,0,0,0,.45-.29,1.51,1.51,0,0,0,.11-.57v-.2c0-.09,0-.15-.12-.16h-.29l-.45,0-.43,0a1.25,1.25,0,0,0-.27,0,.9.9,0,0,0-.22.06s-.05.09-.05.18A.53.53,0,0,0,183.45,5.62ZM188,6.82c0,.24.06.47.09.71a4.26,4.26,0,0,0,.2.63.42.42,0,0,0,.34.27c.15,0,.24-.09.33-.29a2.92,2.92,0,0,0,.19-.65c0-.23.08-.47.11-.7s0-.4,0-.49a.46.46,0,0,0-.25-.43.9.9,0,0,0-.47-.13.63.63,0,0,0-.47.13.66.66,0,0,0-.14.47Q188,6.48,188,6.82Z"/><path d="M196.7,14.66a5.4,5.4,0,0,0,.3-.49c.22-.43.47-.9.78-1.42s.56-1.06.82-1.62.47-1.12.67-1.68a5.19,5.19,0,0,0,.27-1.58.34.34,0,0,0-.14-.33.52.52,0,0,0-.33-.1,4.39,4.39,0,0,0-1.09.12,4.53,4.53,0,0,1-1.1.13.55.55,0,0,1-.47-.25,3.8,3.8,0,0,1-.11-.83c0-.25,0-.52,0-.85V5.28l.13-.11s0,0,.11,0a2.4,2.4,0,0,1,.28,0l.31,0a1.34,1.34,0,0,1,.25,0,3.63,3.63,0,0,1,.45,0l.71,0c.23,0,.46,0,.68,0l.45,0a.72.72,0,0,0,.54-.31,1.44,1.44,0,0,0,.27-.65,4.21,4.21,0,0,0,.07-.83c0-.28,0-.56,0-.81s0-.48.07-.68.11-.29.24-.33H202a5.09,5.09,0,0,1,.68,0,1.37,1.37,0,0,1,.58.18.5.5,0,0,1,.25.47A4.21,4.21,0,0,1,203.38,3a4.25,4.25,0,0,0-.15,1.07s0,.1,0,.19v.15l.23.1a9.09,9.09,0,0,1,1.86.29,3.31,3.31,0,0,1,1.26.72,2.8,2.8,0,0,1,.74,1.25,6.22,6.22,0,0,1,.25,1.87c0,.48,0,1,0,1.6s-.09,1.14-.16,1.71a11.47,11.47,0,0,1-.38,1.64,5,5,0,0,1-.7,1.39,3.36,3.36,0,0,1-1.13,1,3.6,3.6,0,0,1-1.68.36,6.6,6.6,0,0,1-1.13-.09,1.25,1.25,0,0,1-.7-.34,1.18,1.18,0,0,1-.36-.7A4.54,4.54,0,0,1,201.2,14a.81.81,0,0,1,0-.17v-.19l.1-.07.13,0h.05a5.68,5.68,0,0,1,.72,0,3.08,3.08,0,0,0,.72.07h.67a1.32,1.32,0,0,0,.88-.79,4.84,4.84,0,0,0,.42-1.44,12.35,12.35,0,0,0,.14-1.58V8.73a1.87,1.87,0,0,0-.4-1.31A1.63,1.63,0,0,0,203.36,7a1.16,1.16,0,0,0-.94.68,8.22,8.22,0,0,0-.79,1.75c-.25.68-.49,1.44-.7,2.25s-.45,1.57-.69,2.27a11.15,11.15,0,0,1-.68,1.73c-.23.47-.5.7-.81.7a3.78,3.78,0,0,1-.58-.09,3.51,3.51,0,0,1-.75-.21,2.75,2.75,0,0,1-.63-.37.6.6,0,0,1-.27-.46A.94.94,0,0,1,196.7,14.66ZM207.82,4.05l.35-.21c.12-.08.25-.15.34-.22a.46.46,0,0,0,.16-.38,1.39,1.39,0,0,0-.09-.45l-.22-.4a3.73,3.73,0,0,1-.23-.37,1.19,1.19,0,0,1-.09-.44.66.66,0,0,1,.09-.32A1.23,1.23,0,0,1,208.4,1a1.74,1.74,0,0,1,.34-.16,1.39,1.39,0,0,1,.33-.05.63.63,0,0,1,.48.27,3.45,3.45,0,0,1,.42.61,6.42,6.42,0,0,1,.32.65c.09.2.14.34.16.4v.12a.86.86,0,0,1-.07.36,1.36,1.36,0,0,0,0,.36v.24c.14.3.36.7.64,1.17s.55,1,.8,1.47.48,1,.68,1.57a4.43,4.43,0,0,1,.29,1.39.63.63,0,0,1-.29.48,2.31,2.31,0,0,1-.65.4,6.27,6.27,0,0,1-.74.29,2.19,2.19,0,0,1-.5.1,1.27,1.27,0,0,1-.21-.39l-.49-1L209.23,8c-.24-.49-.45-1-.67-1.42s-.39-.87-.54-1.23-.27-.61-.32-.76a.14.14,0,0,1,0-.07V4.39A.38.38,0,0,1,207.82,4.05ZM210.2.72a.39.39,0,0,1,.13-.31.71.71,0,0,1,.28-.23A1.22,1.22,0,0,1,211,0a1,1,0,0,1,.33,0,.7.7,0,0,1,.48.22,6.4,6.4,0,0,1,.44.54,5.18,5.18,0,0,1,.3.63,1.51,1.51,0,0,1,.11.52.6.6,0,0,1-.34.56,1.32,1.32,0,0,1-.7.19c-.15,0-.25,0-.31-.07a3,3,0,0,1-.23-.3,2.6,2.6,0,0,0-.17-.29l-.25-.43c-.11-.17-.18-.31-.27-.44l-.14-.28A.34.34,0,0,1,210.2.72Z"/><path d="M68.34,38.48l-1.59-3.2s0,0,0-.13v-.23a4.21,4.21,0,0,1,.39-.81c.27-.49.63-1.08,1-1.81S69,30.84,69.48,30s.93-1.62,1.38-2.38L72,25.68c.33-.55.51-.88.57-1s.21-.33.3-.36a.87.87,0,0,1,.39-.06,5,5,0,0,1,2,.42,2.54,2.54,0,0,1,1.32,1.41.48.48,0,0,0,.09.24.67.67,0,0,0,.09.15h6c.24,0,.36-.12.36-.39a5,5,0,0,1,.09-.93,1.49,1.49,0,0,1,.54-.88,2.69,2.69,0,0,1,1.71-.41h1.32a.92.92,0,0,1,.54.57,4.51,4.51,0,0,1,.18.93c.06.3.12.6.18.83a.48.48,0,0,0,.48.37H94l.15.12a1,1,0,0,0,.24.18c.06,0,.09.08.15.12l.06.09v2.79c0,.17-.09.3-.33.39l-.75.18a3.9,3.9,0,0,0-.81.17.72.72,0,0,0-.51.46c-.06.14-.12.33-.21.54a6.37,6.37,0,0,0-.27.66,2.49,2.49,0,0,0-.24.68,2.79,2.79,0,0,0-.09.64,1.4,1.4,0,0,0,.15.51.53.53,0,0,0,.45.27h3.21v3.3s0,0-.09.11l-.12.09a1.8,1.8,0,0,1-.21.16.5.5,0,0,0-.18.06H76.14A.49.49,0,0,0,76,38l-.24-.16a.74.74,0,0,0-.12-.09c-.06-.06-.09-.08-.09-.11v-3l.21-.18a2.62,2.62,0,0,1,.81,0,8,8,0,0,0,1.2,0,3.22,3.22,0,0,0,1.11-.3.82.82,0,0,0,.48-.82,4.7,4.7,0,0,0-.27-2,1.42,1.42,0,0,0-.72-.63c-.3-.09-.6-.16-.9-.22a1.33,1.33,0,0,1-.9-.68c0-.06,0-.18,0-.34a2.22,2.22,0,0,1-.06-.44,3,3,0,0,1-.06-.48c0-.18-.06-.27-.06-.33a.74.74,0,0,0-.12-.33q0-.09-.27-.09a.58.58,0,0,0-.24,0,.51.51,0,0,0-.18.18c-.09.21-.24.47-.42.8s-.33.66-.48,1-.3.59-.42.83l-.18.37V51.29c0,.16-.12.3-.36.49s-.42.23-.54.29H72.6a3.45,3.45,0,0,1-.54,0h-.42a2.67,2.67,0,0,1-.69,0,1.94,1.94,0,0,1-.63-.18.42.42,0,0,1-.27-.42v-13Zm9.81,1.81h15l.39.39V51.47l-.39.42H89.94a3.73,3.73,0,0,0-.39-.3,2.11,2.11,0,0,1-.39-.3l-.24-.12a.7.7,0,0,0-.18-.09H82.35a.77.77,0,0,1-.18.15,3.19,3.19,0,0,1-.33.27c-.09.09-.21.15-.3.24a2.26,2.26,0,0,0-.18.15.52.52,0,0,1-.21.09.78.78,0,0,1-.21.09h-2.4a1.08,1.08,0,0,1-.45-.24c-.24-.15-.33-.27-.33-.36V40.68ZM81.78,46a1.69,1.69,0,0,0,.09.53,1.18,1.18,0,0,0,.24.42.51.51,0,0,0,.45.19h6a.46.46,0,0,0,.45-.22,1.09,1.09,0,0,0,.27-.42,3,3,0,0,0,.09-.54V45a3.5,3.5,0,0,0-.09-.55,1.37,1.37,0,0,0-.27-.42.56.56,0,0,0-.45-.18H82.74a.76.76,0,0,0-.84.55A3.78,3.78,0,0,0,81.78,46Zm2.49-11.7a8.44,8.44,0,0,0,1,.05,2.15,2.15,0,0,0,2-.84,4,4,0,0,0,.57-2.36,1,1,0,0,0,0-.27v-.15l-.39-.22h-4.2c-.15,0-.24.09-.24.28v.33a4.52,4.52,0,0,0,.18,1.29c.12.39.27.84.45,1.32A1.34,1.34,0,0,0,84.27,34.26Z"/><path d="M100,41.24a3.31,3.31,0,0,1,.63-.25,4,4,0,0,0,.69-.23.77.77,0,0,0,.46-.47v-1c0-1.33,0-2.66-.12-4s-.13-2.64-.13-4v-.63l.25-.23a.59.59,0,0,1,.17,0,1.65,1.65,0,0,1,.34,0,3.13,3.13,0,0,1,.43,0c.16,0,.29,0,.38,0h.32a1.67,1.67,0,0,1,.34,0,.38.38,0,0,1,.29.22,16.84,16.84,0,0,1,.15,2.14c0,.7,0,1.42,0,2.14s0,1.42,0,2.13a15.08,15.08,0,0,0,.27,2.1.3.3,0,0,0,.18.22.68.68,0,0,0,.23,0,1.42,1.42,0,0,0,.69-.19,1.41,1.41,0,0,1,.7-.19.51.51,0,0,1,.43.25,1.52,1.52,0,0,1,.27.54,3,3,0,0,1,.13.63,4.33,4.33,0,0,1,0,.45.47.47,0,0,1-.13.31,2.47,2.47,0,0,1-.23.23l-1.3.56c-.5.21-1,.43-1.57.68s-1.1.45-1.65.69l-1.5.59h-.11a.59.59,0,0,1-.48-.25,1.48,1.48,0,0,1-.31-.58,3,3,0,0,1-.14-.7c0-.23,0-.43,0-.56A.6.6,0,0,1,100,41.24Zm5.22,2.31a5.22,5.22,0,0,1,.78-.49c.29-.14.57-.29.88-.43a3.24,3.24,0,0,0,.67-.43,13.94,13.94,0,0,0,2.1-2.54A13.16,13.16,0,0,0,111,36.92a16.47,16.47,0,0,0,.81-3c.2-1,.36-2.12.53-3.26l.25-.23.18,0h.63a4.87,4.87,0,0,0,.54,0l.52,0a.46.46,0,0,1,.29.09l.23.23V31a1,1,0,0,1,0,.24,13.67,13.67,0,0,1-.34,3c-.22,1-.47,2-.76,3a2,2,0,0,1-.2.54c-.09.18-.16.37-.25.59s-.14.4-.2.59a2.68,2.68,0,0,0-.09.56,1.61,1.61,0,0,0,.26.87,3.5,3.5,0,0,0,.63.73,9.61,9.61,0,0,0,.82.69c.29.22.56.45.81.68a3.53,3.53,0,0,1,.62.74,1.57,1.57,0,0,1,.25.85,1,1,0,0,1-.2.52,3.18,3.18,0,0,1-.5.61,5.31,5.31,0,0,1-.62.49,1.09,1.09,0,0,1-.54.2.65.65,0,0,1-.46-.24,5.14,5.14,0,0,1-.49-.63c-.18-.25-.36-.52-.54-.83s-.34-.55-.52-.81a5.76,5.76,0,0,0-.49-.63.63.63,0,0,0-.45-.23h-.36l-.88.94a16.35,16.35,0,0,1-1.19,1.15,7.78,7.78,0,0,1-1.31,1,2.55,2.55,0,0,1-1.28.41,1.14,1.14,0,0,1-.58-.21,4.52,4.52,0,0,1-.61-.49,2.41,2.41,0,0,1-.45-.61,1.15,1.15,0,0,1-.2-.56A.72.72,0,0,1,105.23,43.55Zm.65-11.36a2.38,2.38,0,0,1,.58-.36c.23-.09.43-.18.63-.24a3.26,3.26,0,0,1,.39-.09c.18,0,.42.16.74.51a9.17,9.17,0,0,1,.92,1.13,12,12,0,0,1,.76,1.26,2.52,2.52,0,0,1,.3.9.67.67,0,0,1-.23.47,3.61,3.61,0,0,1-.6.45,5.13,5.13,0,0,1-.66.34,1.5,1.5,0,0,1-.51.13.63.63,0,0,1-.43-.29,3,3,0,0,1-.39-.65c-.13-.23-.24-.47-.35-.68s-.16-.38-.19-.43-.09-.15-.2-.31-.22-.34-.34-.54-.24-.36-.35-.52a2.85,2.85,0,0,1-.19-.31,1.52,1.52,0,0,1-.11-.2.37.37,0,0,1,0-.18A.52.52,0,0,1,105.88,32.19Z"/><path d="M125.72,42.65c0-.06,0-.09.07-.09l.09-.13.09-.11V29.72l.31-.23h2a.34.34,0,0,1,.29.16.49.49,0,0,1,.12.31V34l.31.31h5.4l.11,0c.05.06.11.09.13.13a.22.22,0,0,1,.07.07l0,0v1.92l-.23.31h-5.29l-.17.07a.71.71,0,0,0-.2.11s0,0-.07.05l0,.06v5.29l.23.29h6.72a.29.29,0,0,1,.23.18.49.49,0,0,1,.13.25v1.68l0,.1a.61.61,0,0,1-.07.13s0,.05-.06.09-.05,0-.07,0h-16l-.05,0-.06-.09a.79.79,0,0,1-.09-.13c0-.05,0-.09,0-.1V43.28a.39.39,0,0,0,0-.11l.09-.13a.54.54,0,0,1,.13-.17c0-.1.09-.13.11-.13h5.63S125.7,42.7,125.72,42.65Z"/><path d="M140.53,38.29c0-.52,0-1.12.07-1.78s.08-1.35.13-2,.14-1.34.25-1.93a6.81,6.81,0,0,1,.41-1.42c.17-.38.38-.56.63-.56l.55,0a3.64,3.64,0,0,1,.66,0,1.77,1.77,0,0,1,.56.14.46.46,0,0,1,.25.42,9.65,9.65,0,0,1-.16,1.75c-.13.57-.25,1.15-.38,1.74s-.27,1.15-.38,1.73a8.76,8.76,0,0,0-.18,1.76,1.45,1.45,0,0,0,0,.29.19.19,0,0,0,.2.13.37.37,0,0,0,.3-.13.44.44,0,0,1,.31-.12.6.6,0,0,1,.27.09,1.4,1.4,0,0,1,.32.18,1.66,1.66,0,0,1,.27.25.45.45,0,0,1,.09.2v.36c-.07.27-.16.56-.25.9s-.2.66-.31,1-.17.72-.26,1.07-.18.68-.26,1a9.53,9.53,0,0,0-.18,1,1.14,1.14,0,0,1-.16.58.58.58,0,0,1-.47.25,8,8,0,0,1-1.18.06.71.71,0,0,1-.67-.45,3.78,3.78,0,0,1-.34-1,8,8,0,0,1-.11-1.17V40.78c0-.24,0-.47,0-.73V38.29Zm5.28,2.92a4.43,4.43,0,0,1,.05-.72,2.58,2.58,0,0,1,.14-.65c.06-.18.17-.27.31-.27h1.57c.18,0,.29,0,.32.18a1.87,1.87,0,0,1,.07.47,3.31,3.31,0,0,0,.06.61,1.23,1.23,0,0,0,.27.61,1.74,1.74,0,0,0,.77.45,3.93,3.93,0,0,0,1.48.2,12,12,0,0,0,1.8-.13,13.72,13.72,0,0,1,1.8-.12,2,2,0,0,1,.31,0c.14,0,.19.09.19.23v2c0,.18-.1.29-.34.38a2.28,2.28,0,0,1-.76.16,5.56,5.56,0,0,1-.79.06h-.61a3.7,3.7,0,0,1-.49,0h-1c-.54,0-1.11,0-1.72-.09a5.46,5.46,0,0,1-1.66-.4,3.1,3.1,0,0,1-1.26-.9,2.54,2.54,0,0,1-.51-1.67C145.82,41.6,145.81,41.44,145.81,41.21Zm8.55-9.09v2.16l-.09.07-.16,0a1.51,1.51,0,0,1-.38.09l-.34,0h-5.64a1.11,1.11,0,0,1-.23,0c-.11,0-.22,0-.33,0a.87.87,0,0,1-.27-.15.31.31,0,0,1-.12-.27v-1.8a.29.29,0,0,1,.12-.23.3.3,0,0,1,.24-.13h7Z"/><path d="M160.31,41.42a2,2,0,0,1,1.43-.54,1.81,1.81,0,0,1,.74.15,2.09,2.09,0,0,1,.64.36,1.78,1.78,0,0,1,.44.57,1.86,1.86,0,0,1,.16.74,1.79,1.79,0,0,1-.56,1.41,2,2,0,0,1-1.42.5,2.26,2.26,0,0,1-1.43-.47,1.64,1.64,0,0,1-.57-1.35A1.75,1.75,0,0,1,160.31,41.42Zm-.23-5.94a32.27,32.27,0,0,1-.22-3.67v-.18a.49.49,0,0,1,0-.24.33.33,0,0,1,.11-.16.28.28,0,0,1,.21-.07h3a.29.29,0,0,1,.24.11.48.48,0,0,1,.1.23,1.52,1.52,0,0,1,0,.29V32a31.27,31.27,0,0,1-.23,3.62c-.17,1.2-.33,2.39-.49,3.58a2.92,2.92,0,0,1-.18.31.4.4,0,0,1-.31.16h-1.31a.38.38,0,0,1-.34-.22,1.56,1.56,0,0,1-.15-.38C160.4,37.89,160.24,36.69,160.08,35.48Z"/><path d="M233.79,8,215.92,29.73c-.43.52.37.69.74.69a2.7,2.7,0,0,0,1.93-.75L236.45,7.9c.43-.52-.37-.69-.74-.69a2.67,2.67,0,0,0-1.92.75Z"/><path d="M211.57,35.28l-1.11,1.07-.16.15a.31.31,0,0,0-.12.24.16.16,0,0,0,.08.2.58.58,0,0,0,.31.11,1.29,1.29,0,0,0,.44,0,3.68,3.68,0,0,0,1.13-.24,2.48,2.48,0,0,0,.8-.47l1.11-1.08.16-.15a.29.29,0,0,0,.12-.24.17.17,0,0,0-.08-.2.68.68,0,0,0-.31-.11,1.29,1.29,0,0,0-.44,0,3.7,3.7,0,0,0-1.13.25,2.23,2.23,0,0,0-.8.47Z"/><path d="M22.45,31.17Q15.67,21.59,8.29,12.44c-.78-1-3.55.14-2.66,1.25Q13,22.83,19.79,32.41c.72,1,3.49-.07,2.66-1.24Z"/><path d="M1.72,4.55h0l.38-.13L2,4.45l.39-.08H2.35l.37,0H2.65l.32,0-.1,0,.26.08A.55.55,0,0,1,3,4.36l.19.13a.85.85,0,0,1-.24-.26l.1.16A.84.84,0,0,1,2.9,4v.19A.69.69,0,0,1,3,3.9l-.1.2A.76.76,0,0,1,2.93,4l-.19.2a.27.27,0,0,1,.08-.07.7.7,0,0,0,.24-.3.31.31,0,0,0,.06-.29.33.33,0,0,0-.2-.23.72.72,0,0,0-.35-.14l-.33,0a2.76,2.76,0,0,0-.75.1l-.38.13a2.32,2.32,0,0,0-.59.34A1.62,1.62,0,0,0,.2,4a1.74,1.74,0,0,0-.14.27.32.32,0,0,0,0,.09,1.08,1.08,0,0,0,0,.36.63.63,0,0,0,0,.19.67.67,0,0,0,.07.18,1.55,1.55,0,0,0,.2.32l.13.13a1.32,1.32,0,0,0,.34.2,2,2,0,0,0,.76.14,2.69,2.69,0,0,0,.4,0H2a3.64,3.64,0,0,0,.86-.23A1.86,1.86,0,0,0,3.3,5.4a1.28,1.28,0,0,0,.32-.29.36.36,0,0,0,.11-.3.27.27,0,0,0-.1-.26l-.19-.13a1.65,1.65,0,0,0-.58-.1l-.37,0a3,3,0,0,0-.77.2Z"/></svg>