<svg id="レイヤー_1" data-name="レイヤー 1" xmlns="http://www.w3.org/2000/svg" viewBox="0 0 119.3 127.49"><path d="M.44,54.62c.29-.15.64-.31,1-.46s.75-.33,1.1-.48a3.33,3.33,0,0,0,.7-.38A5.22,5.22,0,0,0,4.4,51.78a7.15,7.15,0,0,0,.53-1.36c.11-.42.2-.81.26-1.14a1.65,1.65,0,0,1,.38-.82s.09-.06.15-.11a.62.62,0,0,1,.16,0H8.21l.31.15v.24a3.36,3.36,0,0,1,0,.4A8.62,8.62,0,0,1,8,51.87a9.65,9.65,0,0,1-1.38,2.62,7.19,7.19,0,0,1-2.14,2,5.08,5.08,0,0,1-2.77.79A.84.84,0,0,1,1.17,57a3.8,3.8,0,0,1-.58-.66,6.94,6.94,0,0,1-.41-.75A1.83,1.83,0,0,1,0,55C0,54.89.15,54.76.44,54.62Zm14.41-7.5-.17,0-1.32,0c-.64,0-1.41.06-2.29.11l-2.77.13-2.8.13c-.88,0-1.65.09-2.29.11s-1.1,0-1.3,0H1.83a.58.58,0,0,1-.29-.08.73.73,0,0,1-.22-.2c-.07-.4-.11-.73-.13-1s0-.6,0-.95v-.24a1.7,1.7,0,0,1,.06-.31.49.49,0,0,1,.13-.26.29.29,0,0,1,.25-.11h2.5a.64.64,0,0,0,.51-.29A2.34,2.34,0,0,0,5,43.62a4.6,4.6,0,0,0,.29-.77,3.54,3.54,0,0,0,.11-.57A2,2,0,0,0,5.39,42a.26.26,0,0,0-.26-.2H1s-.06,0-.13-.08a1.27,1.27,0,0,1-.17-.14s-.09-.08-.18-.15a.63.63,0,0,1-.11-.13V39.35A.59.59,0,0,1,.59,39c.14-.13.22-.19.29-.19h7a.38.38,0,0,0,.42-.33,7.28,7.28,0,0,0,.09-.73A5.92,5.92,0,0,1,8.52,37,.39.39,0,0,1,9,36.71h2c.07,0,.13,0,.22.11a.62.62,0,0,1,.22.2,4,4,0,0,0,.07.75,1.48,1.48,0,0,0,.22.7c0,.07.11.13.17.24s.11.14.14.14h7.17s.06,0,.13.13.13.17.18.24,0,.07.06.15l.07.14v1.6a.47.47,0,0,1-.11.24.72.72,0,0,1-.18.2,1.27,1.27,0,0,1-.17.14l-.11.08H15.69l-.07.09-.06.13s0,0,0,.09,0,.07,0,.07a.33.33,0,0,0,.06.15.3.3,0,0,0,.07.13c.17.2.46.46.83.82s.75.7,1.13,1.1a11,11,0,0,1,1.05,1.21,3.72,3.72,0,0,1,.66,1.14v.07a1,1,0,0,1-.24.61,2.36,2.36,0,0,1-.64.51,3.45,3.45,0,0,1-.77.31,2.28,2.28,0,0,1-.7.13.4.4,0,0,1-.13,0h-.16c-.28-.31-.53-.57-.72-.82a1.2,1.2,0,0,0-.93-.37Zm-6.2-2.77h2.4c.19,0,.41,0,.63-.05s.51-.06.8-.11a.16.16,0,0,0,.15-.13v-.22a.61.61,0,0,0-.15-.44.68.68,0,0,1-.16-.46v-.07s0-.06.11-.13.13-.15.2-.22l.18-.24a1,1,0,0,1,.11-.13V42a.17.17,0,0,1-.07-.09l-.09,0H9.53s-.09,0-.2.18a1.68,1.68,0,0,0-.24.26,1.64,1.64,0,0,1-.16.26,3.11,3.11,0,0,1-.22.45l-.22.44c-.06.15-.11.24-.13.3a.44.44,0,0,0,0,.16A.49.49,0,0,0,8.65,44.35Zm8.29,9.92a1.35,1.35,0,0,0,.51-.55,4,4,0,0,0,.2-.7c0-.27,0-.51.06-.73a2.79,2.79,0,0,1,.11-.55.28.28,0,0,1,.29-.22,2.65,2.65,0,0,1,.68.11,4,4,0,0,1,.75.31,2.45,2.45,0,0,1,.62.48,1,1,0,0,1,.24.64,10.57,10.57,0,0,1-.11,1.21,5.82,5.82,0,0,1-.38,1.39,3.18,3.18,0,0,1-.72,1.12,1.5,1.5,0,0,1-1.15.48H13.49a1.44,1.44,0,0,1-.9-.28,2.57,2.57,0,0,1-.64-.71,2.74,2.74,0,0,1-.4-.9,5.35,5.35,0,0,1-.11-.9V48.59s.07-.13.24-.24a.77.77,0,0,1,.36-.2h1.89a.85.85,0,0,0,.13.05.78.78,0,0,1,.18.11.28.28,0,0,1,.13.06c.06.05.09.07.09.09v5.28a.45.45,0,0,0,.19.4,1.32,1.32,0,0,0,.44.24,2.71,2.71,0,0,0,.51.09,3.36,3.36,0,0,0,.4,0A1.62,1.62,0,0,0,16.94,54.27Z"/><path d="M33.88,53.44c-.46.43-1,.87-1.58,1.32A14.15,14.15,0,0,1,30.45,56a12.86,12.86,0,0,1-2,.9,6,6,0,0,1-2,.37A.75.75,0,0,1,26,57a3.94,3.94,0,0,1-.51-.55,5.24,5.24,0,0,1-.41-.59c-.14-.2-.2-.33-.25-.38s0-.15,0-.22.13-.33.4-.46a5.82,5.82,0,0,1,1-.37l1.3-.38c.44-.11.87-.26,1.27-.39a4.85,4.85,0,0,0,1-.49.76.76,0,0,0,.4-.61,2,2,0,0,1,0-.22c0-.09-.06-.16-.13-.16H25.08a.23.23,0,0,1,0-.09C25,52.05,25,52,24.93,52a1,1,0,0,0-.07-.17c0-.07-.07-.11-.07-.14v-1.6a.75.75,0,0,1,.16-.31c.11-.13.2-.2.28-.2h6.89l.07-.09a.27.27,0,0,1,.09-.13l.08-.17a.47.47,0,0,0,0-.14s0,0,0-.06,0-.07,0-.07a.62.62,0,0,0-.16-.22c-.06-.09-.11-.15-.13-.15H27.88a.66.66,0,0,1-.38-.16.43.43,0,0,1-.22-.35V46.39l0-.06.12-.07a.35.35,0,0,1,.17-.13.5.5,0,0,1,.11-.09h4.4c.13,0,.2-.06.24-.2a.93.93,0,0,0,.07-.33.76.76,0,0,0-.07-.3c0-.14-.11-.2-.24-.2H27.44a.33.33,0,0,1-.31-.2,3.72,3.72,0,0,0-.25-.48,2.35,2.35,0,0,0-.5-.58,2.38,2.38,0,0,0-1-.44l-.14,0-.15-.09a.24.24,0,0,1-.09-.06s-.06-.07-.06-.09V38.56h7a.43.43,0,0,0,.44-.26,2.63,2.63,0,0,0,.15-.6l.13-.57a.31.31,0,0,1,.31-.26h2.49c.17,0,.26.08.31.26s.06.35.11.57a2.2,2.2,0,0,0,.15.6.44.44,0,0,0,.46.26h7V43a.25.25,0,0,1-.22.26,2,2,0,0,1-.48.11,4.21,4.21,0,0,0-.55.09.43.43,0,0,0-.35.26.38.38,0,0,0-.07.27,2.46,2.46,0,0,1-.09.44,1.2,1.2,0,0,1-.15.37.29.29,0,0,1-.29.18H36.08a.24.24,0,0,0-.24.2,1,1,0,0,0-.07.3,1.22,1.22,0,0,0,.07.33.24.24,0,0,0,.24.2h4.69s.06,0,.13.09a1.4,1.4,0,0,1,.18.13s0,.05.09.07,0,.06,0,.06v1.76a.06.06,0,0,1,0,.07c-.05,0-.09.07-.09.09a1.06,1.06,0,0,0-.27.13.37.37,0,0,1-.17.09H35.93c-.09,0-.13.09-.13.24a1.33,1.33,0,0,1,0,.26,2.08,2.08,0,0,1,0,.29c0,.18,0,.24.13.24h7.48l.44.51v1.6a.29.29,0,0,1-.07.14.88.88,0,0,0-.06.17s-.07.07-.11.13a.16.16,0,0,1,0,.09H38.13a.26.26,0,0,0-.24.13.41.41,0,0,0-.07.23.84.84,0,0,0,.44.68,5.37,5.37,0,0,0,1.1.53,11.4,11.4,0,0,0,1.41.39l1.41.31a11.2,11.2,0,0,1,1.1.35c.28.13.44.24.44.37v.16c-.11.17-.22.37-.33.57a4,4,0,0,1-.35.64,3.83,3.83,0,0,1-.47.55,1.37,1.37,0,0,1-.61.28,13.71,13.71,0,0,1-4.16-1.31,12.68,12.68,0,0,1-3.48-2.64ZM27.94,42.19a.35.35,0,0,0,.37.24h3.81a.29.29,0,0,0,.2-.08,2.8,2.8,0,0,0,.22-.25c.07-.08.13-.2.2-.28s.09-.2.11-.27a.09.09,0,0,0,0-.06.1.1,0,0,0,0-.07.11.11,0,0,0-.07-.09.15.15,0,0,0-.06-.06,3.29,3.29,0,0,0-1.21-.18l-1.21,0H28.6a1.64,1.64,0,0,0-.5.2.53.53,0,0,0-.25.46A1.76,1.76,0,0,0,27.94,42.19Zm7.42-.64a.69.69,0,0,0,.11.2,1.19,1.19,0,0,0,.22.31,1,1,0,0,0,.22.26c.08.07.13.11.17.11h4a.38.38,0,0,0,.33-.2.82.82,0,0,0,.11-.37.59.59,0,0,0-.22-.53,1.9,1.9,0,0,0-.5-.22H36.08a2.21,2.21,0,0,0-.33,0,1.46,1.46,0,0,0-.28.13.21.21,0,0,0-.14.2S35.33,41.55,35.36,41.55Z"/><path d="M58.54,53.54a6.91,6.91,0,0,0,1.17-.46c.46-.2,1-.44,1.54-.75a6,6,0,0,0,1.52-1.12,5.82,5.82,0,0,0,1.16-1.56,4.67,4.67,0,0,0,.47-2.13,7.85,7.85,0,0,0-.2-1.63,5.73,5.73,0,0,0-.64-1.7,4.42,4.42,0,0,0-1.08-1.36,2.41,2.41,0,0,0-1.56-.55c-.2,0-.42.31-.59.95s-.42,1.4-.66,2.33-.53,2-.86,3a18.26,18.26,0,0,1-1.23,3.06A8.27,8.27,0,0,1,55.84,54a3.5,3.5,0,0,1-2.42.92,3.6,3.6,0,0,1-2.14-.62,5.49,5.49,0,0,1-1.41-1.58,7.51,7.51,0,0,1-.81-2.09,11.35,11.35,0,0,1-.24-2.18,8.89,8.89,0,0,1,.81-3.85,9.72,9.72,0,0,1,2.22-3A10.85,10.85,0,0,1,59,39a9.54,9.54,0,0,1,3.5.62A8.94,8.94,0,0,1,65.3,41.4a8,8,0,0,1,1.91,2.71,8.7,8.7,0,0,1,.71,3.54,8.53,8.53,0,0,1-.6,3.1,9.37,9.37,0,0,1-1.63,2.77,8.51,8.51,0,0,1-2.48,2,6.48,6.48,0,0,1-3.13.77,1,1,0,0,1-.63-.28,6.54,6.54,0,0,1-.66-.64,4.45,4.45,0,0,1-.51-.82,1.63,1.63,0,0,1-.2-.7C58.08,53.74,58.24,53.65,58.54,53.54ZM52.1,48.92a4.3,4.3,0,0,0,.17.95,2.47,2.47,0,0,0,.42.77,1,1,0,0,0,.77.31,1.23,1.23,0,0,0,.9-.51,5.86,5.86,0,0,0,.8-1.25,16.26,16.26,0,0,0,.66-1.72c.19-.61.37-1.23.5-1.82A12.39,12.39,0,0,0,56.65,44a8.6,8.6,0,0,0,.11-1.08.94.94,0,0,0-.06-.42c-.05-.06-.18-.09-.4-.09a2.74,2.74,0,0,0-1.7.6,5.58,5.58,0,0,0-1.34,1.47,8,8,0,0,0-.88,1.87,5.73,5.73,0,0,0-.33,1.78C52.05,48.35,52.07,48.62,52.1,48.92Z"/><path d="M86.4,54.91l.13-.15a2.9,2.9,0,0,0,2.13-.82,3.81,3.81,0,0,0,.84-1.85,11.26,11.26,0,0,0,.09-2.42,23.77,23.77,0,0,1-.11-2.46V44.79c-.07-.18-.16-.29-.29-.29a1.94,1.94,0,0,0-.35,0,1,1,0,0,0-.46.07.84.84,0,0,0-.22.39c-.09.9-.2,1.85-.31,2.84a27.85,27.85,0,0,1-.49,3,14.44,14.44,0,0,1-.9,2.79,8.72,8.72,0,0,1-1.54,2.4l-.35.36c-.15.15-.29.3-.44.43a4.88,4.88,0,0,1-.35.38c-.11.11-.16.15-.18.15h-.44A2.79,2.79,0,0,1,83,57a2.23,2.23,0,0,1-.3-.31,2.94,2.94,0,0,0-.31-.3,1.39,1.39,0,0,0-.22-.2L82,56.16c-.07,0-.14-.06-.16-.08H81c-.64,0-1.3,0-1.93.08l-1.92.2c-.64.09-1.28.16-1.94.22s-1.27.09-1.93.09a.7.7,0,0,1-.49-.18.94.94,0,0,1-.22-.39,2.39,2.39,0,0,1-.06-.53,4.7,4.7,0,0,1,0-.51v-.59a1.93,1.93,0,0,1,.72-.27c.33,0,.68-.08,1.06-.1s.7-.05,1-.05.51,0,.59,0a4.37,4.37,0,0,0,.4-.22.47.47,0,0,0,.2-.37,1,1,0,0,0-.07-.34.25.25,0,0,0-.24-.17H73.33a.35.35,0,0,1-.27-.13.93.93,0,0,1-.13-.29,1,1,0,0,1,0-.35V51.7a2.49,2.49,0,0,1,0-.36A1,1,0,0,1,73,51a.19.19,0,0,1,.17-.13h2.64a.3.3,0,0,0,.27-.11,1.17,1.17,0,0,0,0-.26,1.08,1.08,0,0,0,0-.22c0-.11-.07-.16-.15-.16H73.48l-.11-.08a.7.7,0,0,1-.18-.14l-.08-.06L73,49.78V43.62s0,0,.07-.09l.08-.06a1.76,1.76,0,0,0,.18-.13.5.5,0,0,1,.11-.09H76c.08,0,.13,0,.15-.16a1.08,1.08,0,0,0,0-.22.93.93,0,0,0,0-.24.3.3,0,0,0-.27-.11H72.75c-.06,0-.13,0-.17-.15a1.15,1.15,0,0,1-.09-.33,2.9,2.9,0,0,1,0-.38v-.17a1.08,1.08,0,0,1,.17-.64,1,1,0,0,1,.35-.37,2,2,0,0,1,.38-.2c.11-.05.15-.09.15-.11a.83.83,0,0,0-.11-.4c-.09-.15-.17-.29-.28-.46l-.27-.46a1.45,1.45,0,0,1-.11-.51c0-.31.22-.53.68-.66A6.75,6.75,0,0,1,75,37.44c.62,0,1.25-.07,1.87-.07a12.81,12.81,0,0,0,1.43-.06c.11,0,.31-.05.62-.09s.59-.09.92-.13l.93-.14.61-.08a1.15,1.15,0,0,1,.51.22,3.15,3.15,0,0,1,.42.46,3.22,3.22,0,0,1,.3.55,1.4,1.4,0,0,1,.11.53.48.48,0,0,1-.24.44,2.33,2.33,0,0,1-.61.17,5.86,5.86,0,0,1-.77,0,4.78,4.78,0,0,0-.77,0,1.83,1.83,0,0,0-.62.18.44.44,0,0,0-.24.44,1,1,0,0,0,.06.31.26.26,0,0,0,.25.19h3.08a.43.43,0,0,1,.28.18c.09.11.18.24.29.39a1.7,1.7,0,0,0,.33.38.7.7,0,0,0,.48.17,1.25,1.25,0,0,0,.24,0l.36-.06a.94.94,0,0,0,.3-.16.24.24,0,0,0,.14-.22V37.59c0-.06.06-.15.19-.26s.22-.18.31-.18h1.92a.33.33,0,0,0,.11.05.45.45,0,0,1,.17.11s.07,0,.13.06.09.07.09.09v3.65a.78.78,0,0,1,.13.11,2.38,2.38,0,0,0,.25.2s.08.07.17.13a.5.5,0,0,0,.11.09h3.37l.15.22v.33c0,.22,0,.46,0,.75v5.24c0,.52,0,1.07-.07,1.62s-.07,1.24-.11,2S92.12,53.35,92,54a5.11,5.11,0,0,1-.59,1.78A3.11,3.11,0,0,1,90.18,57a4.82,4.82,0,0,1-2.18.44h-.35a1,1,0,0,1-.24,0L87,57ZM75.83,40.39l.29-.29c0-.13-.11-.17-.26-.17l-.29,0h-.42a5.15,5.15,0,0,0-.55,0,3.58,3.58,0,0,0-.48,0c-.13,0-.2.05-.2.09v.13Zm-.19,5.17c0,.17.11.26.26.26a.54.54,0,0,0,.27-.06.3.3,0,0,0,.1-.22c0-.2-.06-.29-.19-.31a3.12,3.12,0,0,0-.44,0Zm0,2.29v.37a3.13,3.13,0,0,0,.44,0c.13,0,.19-.14.19-.33a.27.27,0,0,0-.1-.22.45.45,0,0,0-.27-.07C75.75,47.56,75.66,47.67,75.64,47.85Zm4.07,5.78a.91.91,0,0,0,.35.11h.55a4.43,4.43,0,0,0,.81,0,3.9,3.9,0,0,0,.8-.18.85.85,0,0,0,.5-.39L82.44,53H79.8l-.14.11a1.64,1.64,0,0,0-.17.2v.07C79.49,53.48,79.55,53.57,79.71,53.63Zm-.11-8c0,.16.15.22.33.22s.22,0,.26-.09a.43.43,0,0,0,0-.19c0-.2-.09-.31-.25-.33a2.13,2.13,0,0,0-.46,0A1.52,1.52,0,0,0,79.6,45.6Zm0,2.25c0,.17,0,.3,0,.37a2.85,2.85,0,0,0,.42,0c.15,0,.22-.14.22-.33a.28.28,0,0,0-.11-.22.45.45,0,0,0-.27-.07C79.71,47.56,79.62,47.67,79.62,47.85Zm3.54-4.23s0,0,.09-.06a.17.17,0,0,0,.07-.09v-.29a.92.92,0,0,0-.09-.39.35.35,0,0,0-.35-.2h-2.8a.41.41,0,0,0-.22.11,1.21,1.21,0,0,0-.22.17l.29.38h2.64Zm-3.52,6.89.07.06a.19.19,0,0,0,.09.09l.17.13a.5.5,0,0,0,.11.09h2.64a.28.28,0,0,1,.27.2,2.87,2.87,0,0,1,.08.44,4.26,4.26,0,0,0,.11.42.28.28,0,0,0,.27.2c.17,0,.35-.16.5-.47a5,5,0,0,0,.44-1.16A15.81,15.81,0,0,0,84.75,49c.08-.55.17-1.1.26-1.63s.11-1,.15-1.39,0-.7,0-.86a.65.65,0,0,0-.2-.46,2.48,2.48,0,0,0-.51-.33,1.78,1.78,0,0,0-.61-.17,2.19,2.19,0,0,0-.51-.07.31.31,0,0,0-.2.11l-.13.24a1.1,1.1,0,0,1-.09.24.69.69,0,0,0,0,.16v5l-.37.35H79.8a.18.18,0,0,0-.07.09.65.65,0,0,1-.09.13v.16Z"/><path d="M101.79,42.74l.14-.31.7,0a9.73,9.73,0,0,0,1.08,0,2.84,2.84,0,0,0,1-.29.71.71,0,0,0,.46-.72,1.26,1.26,0,0,0-.08-.45.37.37,0,0,0-.38-.26H97.39a.4.4,0,0,1-.28-.2.6.6,0,0,1-.16-.33V38.47a.37.37,0,0,0,0-.11c0-.09.06-.15.09-.17s0-.07.06-.11.07,0,.09,0h19.21l.31.31v1.89a.79.79,0,0,1-.05.13.43.43,0,0,1-.11.18s0,.07-.06.13a.29.29,0,0,1-.09.09h-7.61c-.2,0-.31.11-.38.33a3.71,3.71,0,0,0-.09.48.91.91,0,0,0,.22.53.66.66,0,0,0,.53.27h2.8v9.74H101.79Zm-1.25-.44V52.71a5.42,5.42,0,0,1,.22.28.63.63,0,0,0,.2.2.32.32,0,0,0,.24.11h11.29l.13,0,.18-.11s.11-.09.19-.18a.75.75,0,0,0,.16-.11V42.3l.09-.07.13-.08a1.31,1.31,0,0,1,.17-.09c.07,0,.11-.07.14-.07h1.89l.13.07a.74.74,0,0,1,.18.09l.08.08a.31.31,0,0,1,.05.07V57.11s0,0-.05.07l-.08.08a.52.52,0,0,1-.18.07l-.13.06h-1.89a.39.39,0,0,1-.36-.17,3,3,0,0,1-.19-.4,2.8,2.8,0,0,0-.25-.41.47.47,0,0,0-.39-.18H101.2a.42.42,0,0,0-.37.18,4,4,0,0,0-.22.41c-.07.16-.14.29-.2.4a.47.47,0,0,1-.38.17H98.12a.41.41,0,0,1-.31-.15.38.38,0,0,1-.13-.28V42.43a.46.46,0,0,1,.13-.28.43.43,0,0,1,.31-.16h2Zm3.81,3.61a.45.45,0,0,0,.44.2.66.66,0,0,0,.46-.22.79.79,0,0,0,.22-.44.72.72,0,0,0-.2-.44.43.43,0,0,0-.39-.24c-.25,0-.4,0-.49.17a.9.9,0,0,0-.13.51A1,1,0,0,0,104.35,45.91Zm0,3.7a.59.59,0,0,0,.49.17.5.5,0,0,0,.39-.24.67.67,0,0,0,.2-.42.72.72,0,0,0-.2-.46.47.47,0,0,0-.39-.22c-.25,0-.4,0-.49.18a.87.87,0,0,0-.13.5A.75.75,0,0,0,104.39,49.61Zm3.92-3.72a.6.6,0,0,0,.44.22.59.59,0,0,0,.46-.24.84.84,0,0,0,.2-.49.59.59,0,0,0-.22-.44.65.65,0,0,0-.44-.17.61.61,0,0,0-.44.19.65.65,0,0,0-.22.49A.63.63,0,0,0,108.31,45.89Zm0,3.69a.54.54,0,0,0,.44.22.76.76,0,0,0,.44-.17.56.56,0,0,0,.22-.44.8.8,0,0,0-.2-.51.54.54,0,0,0-.46-.24.6.6,0,0,0-.44.22.62.62,0,0,0-.22.46A.61.61,0,0,0,108.31,49.58Z"/><path d="M22.41,93.83l.52-.8c.28-.28.72-.72,1.4-1.36s1.32-1.36,2.08-2.08,1.44-1.44,2.08-2.12,1.12-1.16,1.36-1.4a19,19,0,0,0,1.64-1.88c.56-.72,1-1.44,1.52-2.16a10.7,10.7,0,0,0,1-2.32,7.49,7.49,0,0,0,.4-2.48,5.2,5.2,0,0,0-.84-3.08A3.44,3.44,0,0,0,30.65,73a2.77,2.77,0,0,0-1.36.36,13.21,13.21,0,0,0-1.28.72c-.44.28-.84.52-1.24.76a2.54,2.54,0,0,1-1.16.32.7.7,0,0,1-.28-.12,1.74,1.74,0,0,1-.28-.16,6,6,0,0,0-.72-.72c-.32-.28-.64-.56-.92-.84s-.52-.56-.72-.76a2.42,2.42,0,0,1-.28-.32v-.56A2.13,2.13,0,0,1,23.61,70a12.23,12.23,0,0,1,2.72-1.28,28.81,28.81,0,0,1,3.08-.76,16,16,0,0,1,2.2-.24,10.46,10.46,0,0,1,3.76.64,8.28,8.28,0,0,1,5,4.6,9.08,9.08,0,0,1,.76,3.72,11.33,11.33,0,0,1-.76,4.16,18.37,18.37,0,0,1-1.92,3.48c-.76,1.08-1.56,2.16-2.44,3.24a25.25,25.25,0,0,0-2.36,3.36,2.38,2.38,0,0,0-.16.32.62.62,0,0,0-.12.24,3.19,3.19,0,0,0,.24.32.44.44,0,0,0,.28.2h8l.56.52v4.8h-20Z"/><path d="M48.21,77.55a15.76,15.76,0,0,1,2.12-5A11.34,11.34,0,0,1,54,69.07a9.43,9.43,0,0,1,5.32-1.4c.52,0,1.2,0,2.08.12a15.51,15.51,0,0,1,2.56.56,7.46,7.46,0,0,1,2.2,1,2.16,2.16,0,0,1,.92,1.76v.28a.7.7,0,0,0,0,.24,8.88,8.88,0,0,1-.52.76c-.24.28-.48.6-.72.88a3.87,3.87,0,0,1-.88.76,1.63,1.63,0,0,1-1,.32,3,3,0,0,1-1-.2l-1-.48c-.32-.16-.68-.32-1-.48A2.56,2.56,0,0,0,59.69,73a4.63,4.63,0,0,0-2.32.56A5,5,0,0,0,55.69,75a6.24,6.24,0,0,0-1.08,2,6.81,6.81,0,0,0-.4,2.36v1a.63.63,0,0,0,.28.28h.28c.52-.28,1-.52,1.36-.76a7.78,7.78,0,0,1,1.2-.52,5.43,5.43,0,0,1,1.16-.24A8.21,8.21,0,0,1,60,79.11a7.9,7.9,0,0,1,3.44.72A6.77,6.77,0,0,1,66,81.71a7.6,7.6,0,0,1,1.56,2.84,11,11,0,0,1,.56,3.52A10.51,10.51,0,0,1,67.37,92a9.44,9.44,0,0,1-1.92,3.16,9.84,9.84,0,0,1-3.08,2.12,9.48,9.48,0,0,1-3.88.8,9.25,9.25,0,0,1-5.12-1.4,10.86,10.86,0,0,1-3.4-3.6,16.4,16.4,0,0,1-1.84-4.84,23.87,23.87,0,0,1-.6-5.2A23.1,23.1,0,0,1,48.21,77.55Zm6.24,11.68A5.34,5.34,0,0,0,55.21,91a3.79,3.79,0,0,0,1.32,1.32,3.41,3.41,0,0,0,1.84.48A3.32,3.32,0,0,0,60,92.43a2.77,2.77,0,0,0,1-1A5.68,5.68,0,0,0,61.57,90a8.1,8.1,0,0,0,.16-1.72A5.73,5.73,0,0,0,61,85.11a3.06,3.06,0,0,0-2.84-1.2,4.53,4.53,0,0,0-1.44.24,3.5,3.5,0,0,0-1.28.64,2.46,2.46,0,0,0-.88,1,2.74,2.74,0,0,0-.32,1.44A8.47,8.47,0,0,0,54.45,89.23Z"/><path d="M82.85,89H80.37a.37.37,0,0,1-.4-.26,2.7,2.7,0,0,1-.09-.6,2.69,2.69,0,0,0-.06-.57.29.29,0,0,0-.33-.26,1.06,1.06,0,0,0-.75.29,6.74,6.74,0,0,0-.62.59,6.44,6.44,0,0,1-.64.64,1.16,1.16,0,0,1-.72.26.93.93,0,0,1-.53-.28,5.85,5.85,0,0,1-.64-.67c-.22-.24-.39-.46-.55-.66a1.71,1.71,0,0,0-.26-.33c0-.08,0-.15,0-.22s.15-.37.48-.68.7-.7,1.17-1.12,1-.88,1.51-1.36,1.08-1,1.54-1.52a10.72,10.72,0,0,0,1.19-1.48,2.5,2.5,0,0,0,.47-1.32c0-.08,0-.19-.05-.35a.26.26,0,0,0-.26-.22H75.66l-.29-.37V76.11l.29-.35h7.19a.61.61,0,0,0,.11-.13,2.91,2.91,0,0,0,.18-.24.7.7,0,0,0,.13-.18l.09-.11V72s0,0,.09-.07a.46.46,0,0,1,.13-.08.43.43,0,0,1,.18-.09.4.4,0,0,1,.13-.07h2.2a.74.74,0,0,1,.31.18c.13.11.19.2.19.26v3.08a.19.19,0,0,0,.07.13.54.54,0,0,0,.15.18.8.8,0,0,0,.18.15.18.18,0,0,0,.11.07h7.19s.07,0,.12.09a2.36,2.36,0,0,1,.13.2,2.17,2.17,0,0,1,.2.37c0,.07,0,.2,0,.44V78a1.78,1.78,0,0,1-.18.61s0,.07-.09.13l0,.09H89.3A.37.37,0,0,0,89,79a.53.53,0,0,0-.15.33,2.19,2.19,0,0,0,.48,1.23A13.79,13.79,0,0,0,90.55,82c.47.51,1,1,1.54,1.5s1.08.94,1.57,1.36L94.85,86c.33.31.48.5.48.59a1.54,1.54,0,0,1-.24.6,5,5,0,0,1-.6.79,7.38,7.38,0,0,1-.7.68,1.12,1.12,0,0,1-.57.29,1.43,1.43,0,0,1-.75-.27,9.79,9.79,0,0,1-.82-.59c-.26-.22-.5-.44-.7-.64a5.28,5.28,0,0,0-.46-.42.5.5,0,0,0-.16,0,.56.56,0,0,0-.17,0c-.07,0-.11,0-.11.13a2.4,2.4,0,0,0,0,.25c0,.13,0,.28,0,.46a5.24,5.24,0,0,1-.08.53.71.71,0,0,1-.18.39s-.09.07-.15.13-.11.09-.14.09H87.1A.18.18,0,0,0,87,89c-.07,0-.11.11-.18.15a1.19,1.19,0,0,0-.15.18.24.24,0,0,0-.07.11V92c0,.08-.06.17-.19.28a.82.82,0,0,1-.31.15h-2.2a.53.53,0,0,1-.13-.06.45.45,0,0,1-.18-.07l-.13-.08-.09-.07V89.47ZM81.2,85.64a.57.57,0,0,0,.27.13,1.84,1.84,0,0,0,.35,0h.31a1.41,1.41,0,0,0,.31,0,2.13,2.13,0,0,0,.39,0,1,1,0,0,0,.33-.18.43.43,0,0,0,.13-.35V83.15a.38.38,0,0,0-.06-.24.4.4,0,0,0-.22-.06,1.08,1.08,0,0,0-.6.28,4.13,4.13,0,0,0-.61.73,3.64,3.64,0,0,0-.51.83,1.52,1.52,0,0,0-.22.66A.31.31,0,0,0,81.2,85.64Zm5.61-2.93a1.19,1.19,0,0,0-.08.16.31.31,0,0,0-.07.15v2.33a.29.29,0,0,0,.18.29,1,1,0,0,0,.39.13,3.65,3.65,0,0,0,.42,0h.55a.81.81,0,0,0,.31,0,1,1,0,0,0,.26-.09.32.32,0,0,0,.11-.27,1,1,0,0,0,0-.28,1.58,1.58,0,0,0-.13-.27c-.07-.06-.16-.22-.31-.41s-.29-.4-.44-.6-.29-.42-.44-.61-.24-.36-.29-.42a.71.71,0,0,0-.15-.07.4.4,0,0,1-.13-.09h-.16Z"/><path d="M101,86.67a2.25,2.25,0,0,1,1.63-.59,1.87,1.87,0,0,1,1.52.64,2.36,2.36,0,0,1,.57,1.58,2.18,2.18,0,0,1-.59,1.59,2.08,2.08,0,0,1-1.59.61,2,2,0,0,1-1.56-.59,2.62,2.62,0,0,1,0-3.24Zm.25-3.69c0-.42-.07-.88-.12-1.39s-.06-1.08-.11-1.65-.08-1.12-.1-1.63-.07-1-.12-1.41,0-.72-.06-.92v-.53a1.94,1.94,0,0,1,0-.35v-.26c0-.11,0-.24,0-.47v-.3l.31-.29h3.08l.13.13a.63.63,0,0,1,0,.24c0,.14,0,.27,0,.42v2.12c0,.57,0,1.18-.06,1.84s-.07,1.35-.11,2-.11,1.3-.18,1.87a10.18,10.18,0,0,1-.22,1.36c-.11.35-.22.55-.35.55h-1.61a.46.46,0,0,1-.31-.15.72.72,0,0,1-.13-.29C101.31,83.7,101.29,83.4,101.25,83Z"/><path d="M111.94,86.67a2.21,2.21,0,0,1,1.62-.59,1.87,1.87,0,0,1,1.52.64,2.31,2.31,0,0,1,.57,1.58,2.14,2.14,0,0,1-.59,1.59,2,2,0,0,1-1.58.61,2.07,2.07,0,0,1-1.57-.59,2.26,2.26,0,0,1-.55-1.61A2.22,2.22,0,0,1,111.94,86.67Zm.24-3.69c0-.42-.07-.88-.11-1.39s-.07-1.08-.11-1.65-.09-1.12-.11-1.63-.07-1-.11-1.41,0-.72-.07-.92v-.53a1.94,1.94,0,0,1,0-.35v-.26c0-.11,0-.24,0-.47v-.3l.31-.29h3.08l.13.13a.63.63,0,0,1,0,.24c0,.14,0,.27,0,.42v2.12c0,.57,0,1.18-.07,1.84s-.07,1.35-.11,2-.11,1.3-.18,1.87a12.42,12.42,0,0,1-.21,1.36c-.12.35-.23.55-.36.55h-1.6a.46.46,0,0,1-.31-.15.61.61,0,0,1-.13-.29C112.24,83.7,112.22,83.4,112.18,83Z"/><path d="M116.74,101.4q-12.28,8.68-24,18.15c-.48.38-.32.69.22.82a2.82,2.82,0,0,0,2.05-.55q11.7-9.45,24-18.14c.51-.37.28-.7-.22-.83a3,3,0,0,0-2.05.55Z"/><path d="M82.21,126.08a.45.45,0,0,1,0,.23v-.18a.7.7,0,0,1-.09.32l.1-.19a.75.75,0,0,1-.15.2l.19-.19-.16.13.27-.18a1.19,1.19,0,0,1-.15.09l.33-.16-.13,0,.38-.12-.12,0,.39-.08-.12,0,.36,0h-.12l.32,0-.14,0,.26.07-.17-.07.18.11a.69.69,0,0,1-.19-.19.62.62,0,0,0-.32-.14,1.12,1.12,0,0,0-.45-.05,2.15,2.15,0,0,0-.56.07,2.84,2.84,0,0,0-.57.16l-.33.16a1.47,1.47,0,0,0-.46.36l-.11.19a.3.3,0,0,0,.09.33,1.07,1.07,0,0,0,.56.37,2.53,2.53,0,0,0,.78.1,4.53,4.53,0,0,0,1-.13,3.89,3.89,0,0,0,1.38-.65,1.92,1.92,0,0,0,.59-.71.55.55,0,0,0,.07-.25,1.08,1.08,0,0,0,0-.44c-.08-.22-.34-.29-.54-.33a2.09,2.09,0,0,0-.5,0,2.61,2.61,0,0,0-.57.09,2.68,2.68,0,0,0-1,.46c-.14.13-.38.34-.31.56Z"/><path d="M87.13,1.88l19.08,16.24c.94.8,3.49-.57,2.24-1.64L89.37.24c-.94-.8-3.49.57-2.24,1.64Z"/><path d="M111,24.71h0l-.32,0a3.85,3.85,0,0,1,.47.08l-.27-.07a2.65,2.65,0,0,1,.69.29l-.19-.11a2.56,2.56,0,0,1,.86.84l-.09-.15a.59.59,0,0,1,0,.08.33.33,0,0,0,.19.21.69.69,0,0,0,.36.13,2.76,2.76,0,0,0,1.07-.09,2.68,2.68,0,0,0,1-.46l.19-.19a.45.45,0,0,0,.11-.38,3,3,0,0,0-1-1.08,3.34,3.34,0,0,0-.76-.37,4.79,4.79,0,0,0-1.19-.21,2.6,2.6,0,0,0-.56.07,2.21,2.21,0,0,0-.57.17,1.63,1.63,0,0,0-.47.25,1.06,1.06,0,0,0-.32.28c-.11.16-.2.37,0,.53a1.22,1.22,0,0,0,.77.2Z"/></svg>