<svg id="レイヤー_1" data-name="レイヤー 1" xmlns="http://www.w3.org/2000/svg" viewBox="0 0 239.4 82.26"><defs><style>.cls-1{fill:#f0908a;}</style></defs><path class="cls-1" d="M.63,35C.14,17.14,0,5,0,5H5.71v.54h8.15c-.09,6.21-2.7,9.49-5.09,11.2,5.31,4.23,7.48,11.74-2.6,13.77l-.63-3.74L5.4,35ZM5.54,24.79c4.31-1.53,1.53-4.45.08-5.71C5.58,20.83,5.58,22.72,5.54,24.79Zm.08-7.56a26,26,0,0,0,2.8-9.49H5.71C5.71,9.81,5.67,13,5.62,17.23Zm9.59,14.22L14.67,1.12h5.67v.5h4.9v-.5H30c.45,15.26.59,18.54.59,18.54h-3a29.9,29.9,0,0,0,.32,3.51c.58-.72,1.21-1.53,1.89-2.52l3.28,3.15a7.6,7.6,0,0,1-4.54,2.93A44.23,44.23,0,0,0,32,36.58S23.17,33.25,22.32,19H20.16c0,3.24-.05,7-.09,11.47,1.08-.18,2.29-.45,3.69-.72l.67,3.6C15,36,13.05,36.58,13.05,36.58l-.86-4.5Zm5-14.67H25c0-1.21.05-2.92.09-5.35H20.25C20.25,13,20.2,14.76,20.2,16.78Zm.09-7.56h4.82c0-1.57,0-3.37.09-5.39H20.34C20.34,5,20.29,6.75,20.29,9.22ZM40.55,36.4a61.91,61.91,0,0,0,3.33-16.11h6.29A31.11,31.11,0,0,1,48.1,28.8a45.63,45.63,0,0,0,4.55.94c-.27-7.29-.4-12.55-.45-14.31H45.72v-2.2H62.37l1.8-1.8,1.75,1.8v2.2h-7.6c0,1,0,3.38-.09,6.93h2.2l1.8-1.8,1.8,1.8v2.21H58.18c0,1.71,0,3.6-.09,5.71a71.32,71.32,0,0,0,9.18-.18v6.3c-11.79.32-17.64-2.38-20.56-4.95C43.92,35.91,40.55,36.4,40.55,36.4Zm.94-25.33c-.45-6.44-.58-7.83-.58-7.83h5.67v.68h6.84C53.1.76,53,0,53,0h5.72s0,.45-.23,3.92h6.71a3.82,3.82,0,0,1,0-.68h4.73c.49,6.43.63,7.83.63,7.83H64.84s0-.54.23-4.95H46.49c-.05,1.13-.09,2.75-.23,5ZM83.83,13.5l-4.09.27,0-1.49L83.83,12c-.08-2.3-.08-3.69-.08-3.69H90s0,1.17,0,3.28L98.1,11v-.45l6.3-.41c.54,8.64-6.53,10.17-6.53,10.17a33.58,33.58,0,0,0,.32-7.78L90,13.05c0,3.19-.09,7.78-.23,13.18,9.54-.49,13.55-.36,13.55-.36v5.81a157.15,157.15,0,0,1-18.77-.09C84.19,24.57,84,17.91,83.83,13.5Zm32,11.43s6.89.94,17.06,2.7l-.36,5c-9.36-.59-17.19-1.44-17.19-1.44Zm15.75-12.78s-5.76-.54-15.07-1.76l.09-2.83c10.3.23,15.12.54,15.12.54ZM117,19.71l.18-2.88c10.3.67,13.95,1.12,13.95,1.12l-.23,4.1ZM159.93,6.43c0,1.94-.05,3.74-.18,5.45h2l1.8-1.8,1.8,1.8v1.8h-5.72c-1.89,19.75-11.56,20.07-11.56,20.07s4.23-5.22,5.31-20.07h-8.51v-1.8h8.65c.08-1.71.13-3.51.13-5.45Zm16.11,13s8.37.13,23.85.58v4.14c-17.06.32-23.85.32-23.85.32ZM213.43,9l6.3.62c-3.32,14.18-.85,23.36-.85,23.36S210.38,31.45,213.43,9ZM239,24.34l.41,6.3s-2.43,1.71-11.3,1.71c-7.1,0-5.35-9.22-5.35-9.22s1.17,2.92,5.35,2.92C235.89,26.05,239,24.34,239,24.34ZM224.37,11a85.63,85.63,0,0,1,13.77,1l-.72,5a74.66,74.66,0,0,0-13-1ZM76.9,67a14.5,14.5,0,0,1-7.33-7.83H64.26C59.13,67.05,53.19,67,53.19,67a48.7,48.7,0,0,0,5-7.83H54V56.92h5.35c.4-.85.77-1.75,1.17-2.7-3.24.28-4.23.28-4.23.28L56,49.68s.36,0,2.39-.09a24.92,24.92,0,0,0,3.92-5.44l4.36,2.34a11,11,0,0,1-2.11,2.88c1.75-.09,3.82-.19,6.34-.28l-.77-1.3,4.32-2.07s.32.68,3.11,7.16l-3.51,1.7c-.32-.58-.59-1.08-.86-1.53-2.34.23-4.41.45-6.16.59a33.76,33.76,0,0,1-1.53,3.28h10l1.8-1.8,1.8,1.8v2.21H72.4a70.17,70.17,0,0,0,7.29,3.06Zm-1.35,8.59c-10.93,9.72-20.43,4.91-20.43,4.91A35.42,35.42,0,0,0,72,72.31ZM57.74,72.09S64.67,71,69.39,66.24l3.55,3.24C64.67,76.68,57.74,72.09,57.74,72.09ZM60,65.25a16.59,16.59,0,0,0,7.06-4.91l3.6,3.24C65.34,69.48,60,65.25,60,65.25ZM96,75.87s1.26,0,3.42.09C99.13,66.6,99,59.44,99,55.84H96.84C95.26,82.26,88,82.26,88,82.26s2.43-7.2,3.1-26.42H88.61v-2.2h2.56c0-2.65.09-5.49.09-8.6h5.85c0,3.11,0,6-.18,8.6h2a1.85,1.85,0,0,0,0-.45h5.71s0,9.72-.31,28.17c-4.55.63-8.32.81-8.32.81ZM115.78,81v-1h-3.73v1h-4.77c-.5-18.85-.63-22.9-.63-22.9h5.71v.76h3.74v-.76h4.77c.45,18.81.58,22.9.58,22.9Zm0-3.19.27-16.7h-3.73l-.23,16.7Zm28-21H130.18v-1.8h13.14l-.9-3.56,6.21-1a37.73,37.73,0,0,1,1.13,4.54h2.83l1.8-1.8,1.8,1.8v1.8H150a24.1,24.1,0,0,1-.05,9,9.19,9.19,0,0,1,.18,4.09C148.77,78.48,143,78.7,143,78.7a11.91,11.91,0,0,0,2.88-7.47c-4.82,2.57-9.09-.72-9.09-4.9a5.48,5.48,0,0,1,5.44-5.49,11.82,11.82,0,0,1,2.39.27C144.4,59.76,144.09,58.27,143.77,56.88Zm.95,9.4a3.23,3.23,0,0,0-2.7-1.21,1.74,1.74,0,1,0,.27,3.46C143.68,68.53,144.4,67.68,144.72,66.28Zm35.82,5.54A3.87,3.87,0,0,0,180.4,68c-2.79-4.23-10.84-1.35-10.84-1.35-.31-3.28-.27-5.13.22-12.14h-5.31V52.7h11.75A49,49,0,0,0,174,62.23s7.78-2.47,11.2,1.22c5.36,5.8-.45,15.25-10.71,15.25-7.83,0-6.47-8.73.09-8.73A12.56,12.56,0,0,1,180.54,71.82Zm-6.08,4.27a6.29,6.29,0,0,0,3.69-1.39,5.63,5.63,0,0,0-3.64-1.8C171.9,72.9,171.5,76.09,174.46,76.09Z"/></svg>