<svg id="レイヤー_1" data-name="レイヤー 1" xmlns="http://www.w3.org/2000/svg" viewBox="0 0 104.08 147.49"><path d="M6.87,110v.59H0V110c5.07-5.1,5.85-6.82,5.85-8.26A2.19,2.19,0,0,0,3.4,99.44a6,6,0,0,0-3,.91l-.18-.57a6.38,6.38,0,0,1,3.2-.93,2.71,2.71,0,0,1,3,2.88c0,1.85-1.17,3.68-5.7,8.25Z"/><path d="M17.71,104.84c0,4-1.36,6-3.7,6s-3.68-1.92-3.68-6,1.32-6,3.68-6S17.71,100.74,17.71,104.84Zm-.66,0c0-3.72-1.06-5.43-3-5.43s-3,1.71-3,5.45,1,5.38,3,5.38S17.05,108.53,17.05,104.82Z"/><path d="M28,110v.59H21.09V110c5.07-5.1,5.85-6.82,5.85-8.26a2.19,2.19,0,0,0-2.45-2.31,6,6,0,0,0-3,.91l-.18-.57a6.37,6.37,0,0,1,3.19-.93,2.71,2.71,0,0,1,3.05,2.88c0,1.85-1.17,3.68-5.7,8.25Z"/><path d="M38.8,104.84c0,4-1.36,6-3.7,6s-3.68-1.92-3.68-6,1.32-6,3.68-6S38.8,100.74,38.8,104.84Zm-.66,0c0-3.72-1.06-5.43-3-5.43s-3,1.71-3,5.45,1,5.38,3,5.38S38.14,108.53,38.14,104.82Z"/><path d="M43.17,109.49v1.08h-.9v-1.08Z"/><path d="M53.91,107.9c0,2.11-1.55,2.85-3.66,2.85-1.88,0-3.57-.72-3.57-2.85,0-1.94,1.45-2.72,3.06-3.24-1.8-.77-2.73-1.44-2.73-3.08,0-2,1.63-2.73,3.28-2.73,2.16,0,3.27,1.1,3.27,2.73s-.91,2.46-2.68,3.08C52.45,105.2,53.91,105.9,53.91,107.9Zm-.63-.05c0-1.63-1.23-2.32-3-2.89-1.74.49-3,1.27-3,2.91,0,1.92,1.59,2.34,2.95,2.34S53.28,109.79,53.28,107.85Zm-3-3.43c1.1-.39,2.63-1,2.63-2.84,0-1.09-.69-2.19-2.66-2.19-1.75,0-2.67.86-2.67,2.22S48.54,103.74,50.32,104.42Z"/><path d="M67.71,110.46c0,1-.38,1.2-1.47,1.2-.45,0-1.07,0-1.47,0l-.09-.61c.4,0,1,0,1.47,0,.72,0,.94-.1.94-.67v-3.65H59.8a8.9,8.9,0,0,1-2.61,4.92l-.51-.37a9,9,0,0,0,2.75-7V98.7h8.28Zm-.62-4.3V103H60v1.32a13.14,13.14,0,0,1-.12,1.89ZM60,99.29v3.07h7.06V99.29Z"/><path d="M76.3,109.28H73.2v1h-.57V99.54H76.3Zm-3.1-9.18V104h2.53V100.1Zm2.53,8.62v-4.14H73.2v4.14Zm7.92-5v2h2.06v.54H83.65v4.3c0,.8-.3,1-1.24,1-.5,0-1.16,0-1.61,0l-.07-.58,1.57,0c.57,0,.74-.09.74-.5v-4.24H76.93v-.54H83v-2H76.92v-.54H81v-2.49h-3.1v-.54H81V98.07h.6v2.13h3.08v.54H81.61v2.49h4.11v.54Zm-2.49,6-.49.36a14.21,14.21,0,0,0-2.37-2.69l.43-.36A14.28,14.28,0,0,1,81.16,109.76Z"/><path d="M90.1,108.05l.56.15a10.14,10.14,0,0,1-2.13,3.45l-.56-.24A8.77,8.77,0,0,0,90.1,108.05Zm9.29-.81H90V102.8h4.17V98.07h.61V100h6.33v.52H94.75v2.3h4.64Zm-.62-3.9h-8.2v3.36h8.2Zm-5.88,4.81a13.93,13.93,0,0,1,.74,3.24l-.62.11a12.81,12.81,0,0,0-.64-3.21Zm2.93,0a14.26,14.26,0,0,1,1.35,3.18l-.57.15a13,13,0,0,0-1.28-3.15Zm5.56,3.33-.58.2a15.61,15.61,0,0,0-2.3-3.51l.51-.23A16.53,16.53,0,0,1,101.38,111.45Z"/><path d="M7.62,58.83a.71.71,0,0,1,.13-.24,2.38,2.38,0,0,1,.16-.32A.65.65,0,0,0,8,58a1.41,1.41,0,0,0,.12-.16h4.79l.8-.92V41.75a.87.87,0,0,0-.48-.76,1.71,1.71,0,0,0-.84-.32c-.12,0-.36,0-.68,0l-1-.12c-.4,0-.72,0-1.08-.08H8.94a1,1,0,0,1-.51-.84,9.39,9.39,0,0,1,0-1,5.7,5.7,0,0,1,.11-1.2,1.7,1.7,0,0,1,.73-.92c1-.32,2.07-.64,3.23-1A22.76,22.76,0,0,0,15.62,34H19.9a.77.77,0,0,1,.64.36,1.17,1.17,0,0,1,.28.68V57.23s.08,0,.2.12.16.12.2.12a.72.72,0,0,1,.28.2c.12.12.2.2.24.2h3.48c.12,0,.32.12.52.4a.91.91,0,0,1,.28.56v3.44a1.29,1.29,0,0,0-.08.24,1.11,1.11,0,0,1-.2.32s-.08.08-.12.16a.5.5,0,0,0-.12.08H8.15l-.53-.52Z"/><path d="M30.59,58.75a4.49,4.49,0,0,1,.64-1.12,3.32,3.32,0,0,1,.87-.92,3.11,3.11,0,0,1,1-.56c.52.32,1,.6,1.52.84s.92.48,1.36.68a4.85,4.85,0,0,0,1.4.48,6.44,6.44,0,0,0,1.56.16,4.85,4.85,0,0,0,3.52-1.24,5.15,5.15,0,0,0,0-6.84A4.56,4.56,0,0,0,39.18,49a7.33,7.33,0,0,0-2.08.36c-.8.28-1.4.52-1.92.72a6.63,6.63,0,0,1-2-1,2.22,2.22,0,0,1-.92-1.92c0-1,0-2.08-.08-3.12s0-2.16,0-3.24a28.74,28.74,0,0,1,.21-3.24,12.68,12.68,0,0,1,.75-3c0-.08.13-.16.24-.32s.24-.2.28-.2H48.5a.7.7,0,0,1,.52.24.82.82,0,0,1,.28.56v3.72a1.41,1.41,0,0,1-.28.56c-.2.24-.36.36-.52.36H39.7a.82.82,0,0,0-.68.4,3.1,3.1,0,0,0-.28.92,4,4,0,0,0-.12,1v.68a6.1,6.1,0,0,0,0,.72v.72a1.22,1.22,0,0,0,.32.32,1.35,1.35,0,0,0,.48.24,16.93,16.93,0,0,1,4.32.32,9.24,9.24,0,0,1,3.56,1.52,7.6,7.6,0,0,1,2.44,2.92,9.28,9.28,0,0,1,.88,4.28,10,10,0,0,1-.84,4.12,10.23,10.23,0,0,1-2.28,3.32,11.57,11.57,0,0,1-3.4,2.2,11.16,11.16,0,0,1-4.16.8,19.18,19.18,0,0,1-2.32-.28,24.14,24.14,0,0,1-3.24-.84,14.69,14.69,0,0,1-2.84-1.28,2.11,2.11,0,0,1-1.23-1.72A2.76,2.76,0,0,1,30.59,58.75Z"/><path d="M57,43.27a16.69,16.69,0,0,1,1.59-4.84,10.15,10.15,0,0,1,3.08-3.56,8.45,8.45,0,0,1,5-1.4,8.29,8.29,0,0,1,5,1.4A10.13,10.13,0,0,1,75,38.39a16,16,0,0,1,1.68,4.88,28.82,28.82,0,0,1,.48,5.16,29.5,29.5,0,0,1-.48,5.16,17.39,17.39,0,0,1-1.68,5,10.44,10.44,0,0,1-3.2,3.76,8.66,8.66,0,0,1-5,1.52,8.16,8.16,0,0,1-5.08-1.52,10.6,10.6,0,0,1-3.08-3.8,16.89,16.89,0,0,1-1.55-5,29.32,29.32,0,0,1-.44-5.16A32.89,32.89,0,0,1,57,43.27ZM63,51.15a18.3,18.3,0,0,0,.28,3.32,8,8,0,0,0,1.12,2.88,2.87,2.87,0,0,0,2.52,1.2,2.34,2.34,0,0,0,1.6-.6,4.53,4.53,0,0,0,1.12-1.48,8.3,8.3,0,0,0,.64-1.84,9.48,9.48,0,0,0,.2-1.68V43.87a6.6,6.6,0,0,0-.24-1.72,4.6,4.6,0,0,0-.68-1.64,3.84,3.84,0,0,0-1.16-1.24,2.92,2.92,0,0,0-1.64-.48A2.75,2.75,0,0,0,64.3,40a7.66,7.66,0,0,0-1.08,2.76,17,17,0,0,0-.24,3.2v5.24Z"/><path d="M89.51,54.76H87a.37.37,0,0,1-.4-.26,2.72,2.72,0,0,1-.08-.6,2.69,2.69,0,0,0-.07-.57c0-.17-.13-.26-.33-.26a1.09,1.09,0,0,0-.75.28,6.87,6.87,0,0,0-.61.6,6.44,6.44,0,0,1-.64.64,1.16,1.16,0,0,1-.73.26.9.9,0,0,1-.53-.29,4.41,4.41,0,0,1-.63-.66c-.22-.24-.4-.46-.55-.66a1.56,1.56,0,0,0-.27-.33c0-.08,0-.15,0-.22s.15-.37.48-.68.71-.7,1.17-1.12,1-.88,1.52-1.36,1.08-1,1.54-1.52a11.52,11.52,0,0,0,1.19-1.48,2.56,2.56,0,0,0,.46-1.32,2.2,2.2,0,0,0,0-.35.26.26,0,0,0-.26-.22H82.31L82,44.27V41.91l.28-.35h7.2l.11-.13.17-.24a.52.52,0,0,0,.13-.18L90,40.9V37.82s0,0,.09-.07a.46.46,0,0,1,.13-.08.5.5,0,0,1,.18-.09.4.4,0,0,1,.13-.07h2.2a.64.64,0,0,1,.31.18c.13.11.2.2.2.26V41a.18.18,0,0,0,.06.13.56.56,0,0,0,.16.18.76.76,0,0,0,.17.15.2.2,0,0,0,.11.07H101s.06,0,.11.09a1.16,1.16,0,0,1,.13.2,2.14,2.14,0,0,0,.13.22,1.16,1.16,0,0,0,.07.15c0,.07,0,.2,0,.44v1.15a1.78,1.78,0,0,1-.18.61s0,.07-.08.13l-.05.09H96a.36.36,0,0,0-.28.18.55.55,0,0,0-.16.33A2.21,2.21,0,0,0,96,46.38a12.65,12.65,0,0,0,1.21,1.43,20,20,0,0,0,1.54,1.5c.57.48,1.08.94,1.56,1.36l1.19,1.08c.33.31.48.5.48.59a1.54,1.54,0,0,1-.24.6,4.9,4.9,0,0,1-.59.79,8.84,8.84,0,0,1-.71.68,1.12,1.12,0,0,1-.57.29,1.46,1.46,0,0,1-.75-.27,8.29,8.29,0,0,1-.81-.59,9.49,9.49,0,0,1-.71-.64,5.28,5.28,0,0,0-.46-.42.44.44,0,0,0-.15,0,.62.62,0,0,0-.18,0,.12.12,0,0,0-.11.13,2.14,2.14,0,0,0,0,.25c0,.13,0,.28,0,.46a5.34,5.34,0,0,1-.09.53.65.65,0,0,1-.18.39l-.15.13c-.07,0-.11.09-.13.09H93.75a.2.2,0,0,0-.11.07c-.06,0-.11.11-.17.15a1.29,1.29,0,0,0-.16.18.2.2,0,0,0-.06.11v2.49c0,.08-.07.17-.2.28a.7.7,0,0,1-.31.15h-2.2a.53.53,0,0,1-.13-.06.52.52,0,0,1-.18-.07L90.1,58,90,57.91V55.27Zm-1.65-3.32a.5.5,0,0,0,.26.13,1.84,1.84,0,0,0,.35,0h.31a1.32,1.32,0,0,0,.31,0,2.13,2.13,0,0,0,.39,0,.86.86,0,0,0,.33-.18A.44.44,0,0,0,90,51V49a.38.38,0,0,0-.07-.24.4.4,0,0,0-.22-.06,1.05,1.05,0,0,0-.59.28,4.17,4.17,0,0,0-.62.73,4,4,0,0,0-.51.83,1.52,1.52,0,0,0-.22.66A.3.3,0,0,0,87.86,51.44Zm5.61-2.93a.61.61,0,0,0-.09.16.31.31,0,0,0-.07.15v2.33a.29.29,0,0,0,.18.29,1,1,0,0,0,.39.13,3.65,3.65,0,0,0,.42,0h.55a.81.81,0,0,0,.31,0,1.21,1.21,0,0,0,.27-.09.36.36,0,0,0,.11-.27.64.64,0,0,0,0-.28,1.06,1.06,0,0,0-.13-.27c-.06-.06-.15-.22-.31-.41s-.28-.4-.44-.6a7.35,7.35,0,0,0-.44-.61l-.28-.42s-.07-.05-.16-.07a.56.56,0,0,1-.13-.09h-.15Z"/><path d="M47.4,87c.06-.24.13-.48.2-.74s.13-.49.19-.73.11-.42.14-.57a26,26,0,0,0,.3-2.93c.05-1,.09-2,.14-3,0-.22.13-.35.33-.37a2.32,2.32,0,0,1,.52-.07h.4c.18,0,.37,0,.57.05a1.59,1.59,0,0,1,.51.13c.13.07.22.15.22.26v2.8a.71.71,0,0,0,.22.44c.17.2.31.28.44.28l.09,0s.06-.07.06-.09V77.91l-.06,0s-.07-.06-.09-.11a1.82,1.82,0,0,1-.16-.13.55.55,0,0,1-.13-.09H48.21l-.28-.35V75.11l.28-.22h2.64a.34.34,0,0,0,.27-.08.56.56,0,0,0,.13-.22,1.24,1.24,0,0,0,.06-.29v-.49q0-.16-.06-.3a.88.88,0,0,0-.16-.27.36.36,0,0,0-.24-.11h-2c-.09,0-.18-.06-.29-.19a.82.82,0,0,1-.15-.31V71a.75.75,0,0,1,.15-.33c.11-.13.2-.2.29-.2h2c.24,0,.38-.11.38-.31s0-.44.08-.68a1.25,1.25,0,0,1,.31-.68,1.58,1.58,0,0,1,1.15-.31,1.38,1.38,0,0,1,1,.31,1.44,1.44,0,0,1,.38.68c0,.24.06.49.08.68a.34.34,0,0,0,.38.31h1.91a.67.67,0,0,1,.14.09,1.07,1.07,0,0,0,.15.13.35.35,0,0,0,.11.09l0,.07v1.76a.59.59,0,0,1-.15.31c-.11.13-.2.19-.29.19h-2a.24.24,0,0,0-.2.11.57.57,0,0,0-.11.22,1.22,1.22,0,0,0,0,.27v.46a1.27,1.27,0,0,0,0,.29.64.64,0,0,0,.13.26c0,.07.14.09.27.09h3.23c.16,0,.31-.09.51-.31a3.86,3.86,0,0,0,.53-.75,5.89,5.89,0,0,0,.42-.83,1.45,1.45,0,0,0,.17-.6c0-.31-.09-.48-.24-.53l-.57-.11a1.15,1.15,0,0,1-.57-.24c-.18-.15-.27-.46-.27-1a2.48,2.48,0,0,1,0-.33,2.84,2.84,0,0,1,0-.42,1.89,1.89,0,0,1,.17-.35.52.52,0,0,1,.38-.13H67a.36.36,0,0,1,.29.13.74.74,0,0,1,.15.31v.44c0,.22,0,.37,0,.44,0,.77,0,1.54,0,2.31a7.33,7.33,0,0,1-.38,2,3.13,3.13,0,0,1-1.1,1.43,3.63,3.63,0,0,1-2.17.54A1.23,1.23,0,0,1,63,76.7a1.21,1.21,0,0,1-.46-.49,1.77,1.77,0,0,1-.22-.66,5.27,5.27,0,0,1-.07-.79v-.22a7.52,7.52,0,0,0,.93-.09,1.56,1.56,0,0,0,.64-.24,1.25,1.25,0,0,0,.39-.53,3.1,3.1,0,0,0,.11-.9v-.37a1.79,1.79,0,0,0,0-.38.57.57,0,0,0-.31-.24,2.85,2.85,0,0,0-.42,0,1.08,1.08,0,0,0-.81.26,1.48,1.48,0,0,0-.37.7,4.69,4.69,0,0,0-.2.86,3.53,3.53,0,0,1-.22.82,2,2,0,0,1-.22.22l-.22.22-.09.11-.13.2a.64.64,0,0,0-.13.17l-.09.11a3.61,3.61,0,0,0-.33.31,4.43,4.43,0,0,1-.49.48c-.15.18-.33.33-.48.49a2.49,2.49,0,0,1-.33.33.75.75,0,0,1-.22,0,.7.7,0,0,1-.37-.11,4.28,4.28,0,0,1-.33-.29,1.83,1.83,0,0,0-.31-.24.6.6,0,0,0-.38-.11.35.35,0,0,0-.33.2,3.92,3.92,0,0,0-.15.42c0,.15-.09.31-.13.44a.24.24,0,0,1-.27.17H55a.29.29,0,0,0-.22.16,1.51,1.51,0,0,0-.16.31,1.32,1.32,0,0,0-.06.39.88.88,0,0,0,0,.24,1.91,1.91,0,0,0,0,.51.42.42,0,0,0,.26.37,1.43,1.43,0,0,0,.4,0c.17,0,.35,0,.55,0a4.41,4.41,0,0,1,.62.09,1.51,1.51,0,0,1,.48.15.2.2,0,0,1,.11.07A.25.25,0,0,0,57,80v1.92l-.28.28-1.1.07a1.49,1.49,0,0,0-.66.18.8.8,0,0,0-.36.5,2.93,2.93,0,0,0-.11.95,2.3,2.3,0,0,0,.36,1.41,1.69,1.69,0,0,0,1.43.5H67.86c.07,0,.11,0,.13.13a1.13,1.13,0,0,1,0,.22,2.53,2.53,0,0,1-.11.58,6.75,6.75,0,0,1-.24.72c-.09.24-.15.44-.24.64l-.13.26a1.58,1.58,0,0,1-.22.2.3.3,0,0,1-.22.11H56.57a8.31,8.31,0,0,1-2.29-.31,9.77,9.77,0,0,1-2.11-.87,2.94,2.94,0,0,1-.35-.25,2.86,2.86,0,0,0-.35-.28,2.08,2.08,0,0,0-.38-.25.71.71,0,0,0-.39-.1.5.5,0,0,0-.53.33,7.09,7.09,0,0,0-.18.76,2.81,2.81,0,0,1-.22.78.51.51,0,0,1-.55.35,1.7,1.7,0,0,1-.5-.09,2.64,2.64,0,0,1-.62-.24,5.74,5.74,0,0,1-.55-.38.61.61,0,0,1-.22-.46A3.33,3.33,0,0,1,47.4,87Zm11.09-8.93c0-.15.11-.24.31-.33a2,2,0,0,1,.44-.11h.26c.53,0,1.19,0,2,0s1.56,0,2.31,0l1.92,0h.81l.31.31v6.16l-.31.29H58.77l-.28-.29Zm2.77,3.65a.36.36,0,0,0,.2.31,1,1,0,0,0,.42.13,2.42,2.42,0,0,0,.46,0h.24a2.41,2.41,0,0,0,1-.18c.22-.13.31-.46.31-1v-.24c0-.13,0-.22,0-.26a1.78,1.78,0,0,0-.24-.27.47.47,0,0,0-.33-.17H61.7l-.44.44Z"/><path d="M72.7,86.27l7.48-7.64s0,0,0-.11a.4.4,0,0,0,0-.15,1.08,1.08,0,0,0-.09-.4c0-.13-.2-.15-.42-.06l-2.36.22c-.72,0-1.47.09-2.26.09a1.78,1.78,0,0,1-.33,0h-.33a.46.46,0,0,1-.24-.35c0-.2,0-.33,0-.37a1.87,1.87,0,0,1,0-.24,3.77,3.77,0,0,1,0-.51,3.41,3.41,0,0,1,0-.55c0-.18,0-.33,0-.46v-.09a.51.51,0,0,1,.09-.29.77.77,0,0,1,.22-.22c1.73,0,3.49-.13,5.23-.3a51.77,51.77,0,0,1,5.26-.27,1,1,0,0,1,.57.18,1.79,1.79,0,0,1,.53.42,2.36,2.36,0,0,1,.44.57,2.68,2.68,0,0,1,.29.59v.07c0,.19-.18.46-.51.81s-.72.68-1.16,1.06-.86.68-1.28,1-.73.55-.88.7-.09.16-.11.22a.67.67,0,0,0,0,.22c0,.07,0,.11,0,.16a2.84,2.84,0,0,1,.86,1.1c.22.44.39.88.57,1.32a7.42,7.42,0,0,0,.61,1.19,2,2,0,0,0,1,.79h1.1a9.64,9.64,0,0,0,1.43-.09c.46,0,.94-.07,1.43-.07a.51.51,0,0,1,.57.58v.17a3.24,3.24,0,0,1,0,.38c0,.17,0,.37,0,.57a4.63,4.63,0,0,1,0,.57c0,.18,0,.29,0,.38a1,1,0,0,1-.68.66,4.68,4.68,0,0,1-1.1.19,11.73,11.73,0,0,1-1.19,0,8.1,8.1,0,0,0-1-.07,6.33,6.33,0,0,1-2.35-.35A3.82,3.82,0,0,1,82.49,87a3.33,3.33,0,0,1-.73-1.12c-.15-.42-.28-.79-.39-1.12a3.62,3.62,0,0,0-.4-.88.76.76,0,0,0-.7-.36,1.48,1.48,0,0,0-1,.36,4.88,4.88,0,0,0-.88.88,9.27,9.27,0,0,0-.82,1.12c-.26.4-.52.79-.79,1.14a6.34,6.34,0,0,1-.79.88,1.27,1.27,0,0,1-.81.35,2.15,2.15,0,0,1-.73-.17,3.75,3.75,0,0,1-.81-.44A2.9,2.9,0,0,1,73,87a1.09,1.09,0,0,1-.28-.66ZM76.81,71a4.8,4.8,0,0,1,.09-.75,1.58,1.58,0,0,1,.22-.61.53.53,0,0,1,.46-.27h.27l7.61.88a.6.6,0,0,1,.33.18.62.62,0,0,1,.11.33c0,.09,0,.26,0,.48a5.89,5.89,0,0,1-.22,1.41.55.55,0,0,1-.33.4H83c-.66,0-1.34,0-2.05-.11s-1.41-.16-2.09-.27a7.29,7.29,0,0,1-1.8-.5c-.18-.07-.29-.16-.29-.25a2,2,0,0,1,0-.37C76.79,71.44,76.79,71.26,76.81,71Z"/><path d="M96.72,83.47a2.25,2.25,0,0,1,1.63-.59,1.88,1.88,0,0,1,1.52.64,2.36,2.36,0,0,1,.57,1.58,2.18,2.18,0,0,1-.59,1.59,2.12,2.12,0,0,1-1.59.61,2.07,2.07,0,0,1-1.56-.59,2.62,2.62,0,0,1,0-3.24ZM97,79.78c0-.42-.06-.88-.11-1.39s-.06-1.08-.11-1.65-.08-1.12-.11-1.63-.06-1-.11-1.41,0-.72-.06-.92v-.53a1.94,1.94,0,0,1,0-.35v-.26a4.67,4.67,0,0,1,0-.47v-.3l.31-.29h3.08l.13.13a.6.6,0,0,1,0,.24c0,.14,0,.27,0,.42v2.11c0,.58,0,1.19-.06,1.85s-.07,1.35-.11,2-.11,1.3-.18,1.87a12.11,12.11,0,0,1-.22,1.36c-.11.35-.22.55-.35.55H97.49a.46.46,0,0,1-.31-.15.72.72,0,0,1-.13-.29C97,80.5,97,80.2,97,79.78Z"/><path d="M101.52,121.4q-12.28,8.68-24,18.15c-.48.38-.31.69.22.82a2.81,2.81,0,0,0,2.05-.55q11.71-9.45,24-18.14c.52-.37.29-.7-.22-.83a3,3,0,0,0-2,.55Z"/><path d="M67,146.08a.59.59,0,0,1,0,.23v-.18a.71.71,0,0,1-.1.32l.11-.19a.78.78,0,0,1-.16.2l.19-.19a.93.93,0,0,1-.15.13l.27-.18-.15.09.32-.16-.13,0,.38-.12-.12,0,.4-.08-.12,0,.36,0H68l.32,0a.8.8,0,0,1-.15,0l.27.07-.18-.07.19.11a.72.72,0,0,1-.2-.19.62.62,0,0,0-.31-.14,1.16,1.16,0,0,0-.45,0,2.1,2.1,0,0,0-.56.07,2.94,2.94,0,0,0-.58.16l-.33.16a1.74,1.74,0,0,0-.46.36l-.1.19a.3.3,0,0,0,.09.33,1,1,0,0,0,.55.37,2.57,2.57,0,0,0,.78.1,4.62,4.62,0,0,0,1-.13,4,4,0,0,0,1.38-.65,1.92,1.92,0,0,0,.59-.71.72.72,0,0,0,.07-.25,1.08,1.08,0,0,0,0-.44c-.08-.22-.34-.29-.55-.33a2.09,2.09,0,0,0-.5,0,2.82,2.82,0,0,0-.57.09,2.56,2.56,0,0,0-1,.46c-.15.13-.39.34-.31.56Z"/><path d="M71.92,1.88,91,18.12c1,.8,3.5-.57,2.25-1.64L74.16.24c-.94-.8-3.5.57-2.24,1.64Z"/><path d="M95.76,24.71h0l-.32,0a3.4,3.4,0,0,1,.46.08l-.26-.07a3,3,0,0,1,.69.29l-.19-.11a2.65,2.65,0,0,1,.86.84l-.1-.15a.56.56,0,0,1,0,.08.31.31,0,0,0,.19.21.63.63,0,0,0,.35.13,2.8,2.8,0,0,0,1.08-.09,2.56,2.56,0,0,0,1-.46l.19-.19a.45.45,0,0,0,.12-.38,3,3,0,0,0-1-1.08,3.08,3.08,0,0,0-.75-.37,4.87,4.87,0,0,0-1.2-.21,2.68,2.68,0,0,0-.56.07,2.47,2.47,0,0,0-.57.17,1.58,1.58,0,0,0-.46.25A1,1,0,0,0,95,24c-.1.16-.19.37,0,.53a1.22,1.22,0,0,0,.77.2Z"/></svg>