<svg id="レイヤー_1" data-name="レイヤー 1" xmlns="http://www.w3.org/2000/svg" viewBox="0 0 258.75 26.24"><defs><style>.cls-1{fill:#f0908a;}</style></defs><path class="cls-1" d="M10.14,5.7h4.48c0,18.43-10.84,18.43-10.84,18.43S7,22.46,8.86,16a12.67,12.67,0,0,0-4.73-1.31l.06-3.23A7.27,7.27,0,0,1,0,14.59s1.38-2.08,1.38-9.54H5.86a11.65,11.65,0,0,1-1.6,6.34c3.1.19,4.44,1.7,5,3a35.45,35.45,0,0,0,.83-7.11H6.59V6h3.55Zm8.32,6.14s7.36-.38,12.9-7.78l3.58,2.69a15.74,15.74,0,0,1-4.57,4.19c-.16,2.11-.48,7-.48,13.12h-2.5c-.61-4.8-1-9-1.21-11.55A14.67,14.67,0,0,1,18.46,11.84ZM56.25,23l-4.44.57-.1-1.53a100.38,100.38,0,0,1-11.36,1s3.91-5.89,3.91-17.25h4.48c0,7-2.15,11.3-4.29,13.89,3.17-.64,5.37-1,6.75-1.15a19.24,19.24,0,0,0-.87-3.11S55.17,15.62,56.25,23ZM66,16.25H62.78c-.7-6.55-.7-10.62-.7-10.62h4.16S66.3,9.7,66,16.25Zm8.25-9c1.19,18.21-9.92,16.8-9.92,16.8S71,20.48,69.79,7.26Zm6.82,6.66s6,.1,17,.41v3c-12.13.22-17,.22-17,.22Zm22.78,2.37s1.57-2.24,2.11-7.75h-1.76V7.26h1.86c0-.8.06-1.66.06-2.59h4.48a23.35,23.35,0,0,1-.12,2.59h3.29L115.07,6l1.28,1.28V8.54h-6C109,15.87,103.87,16.29,103.87,16.29Zm13.7-4.8a43.84,43.84,0,0,1-.26,5.72c1,.26,1.79.49,2.37.68l-1,3.93c-.63-.32-1.4-.67-2.2-1-.93,2.05-2.59,3.23-5.63,3.23-5.09,0-4.42-7.13-.07-7.55a13.21,13.21,0,0,1,2.18,0c.09-1.34.16-3,.16-5Zm-5,8.06a8,8,0,0,0-1.63-.26,1.19,1.19,0,0,0,0,2.37C111.62,21.66,112.16,21.18,112.54,19.55Zm5.28-9.47L121,6.91c4,4,0,8.38,0,8.38A11.57,11.57,0,0,0,117.82,10.08Zm10.82-3.36s5.09,0,15.3.22c0,0,0,6.72-.29,16.19a149.24,149.24,0,0,1-15,.07V19.07s4.06-.1,11.2.26c-.16-3.94-.26-7.39-.32-9.63-7.14.22-10.88.28-10.88.28ZM151,8.89s2.62,0,12.83.23c0,16-11.74,14.94-11.74,14.94s6.11-2.68,7.13-12.19l-8.22.29Zm12.51-2.3H152V5.31h9L162.24,4l1.28,1.28ZM184.89,23l-4.44.57-.1-1.53A100.38,100.38,0,0,1,169,23s3.91-5.89,3.91-17.25h4.48c0,7-2.15,11.3-4.29,13.89,3.17-.64,5.37-1,6.75-1.15a19.24,19.24,0,0,0-.87-3.11S183.81,15.62,184.89,23Zm19-4.36.7,4.42c-13.24,3.71-17.47-4.19-9.66-9.25a5.5,5.5,0,0,0-2-.7,17.43,17.43,0,0,0,1.28-3.62h-2.78V8.22h3.07a20.18,20.18,0,0,0,.32-3.55h4.48a10.08,10.08,0,0,1-.64,3.55h1.12L201,6.94l1.28,1.28V9.5H198A10.63,10.63,0,0,1,196.13,12a4.83,4.83,0,0,1,1.41.42c.6-.26,1.24-.51,2-.74l.64,1.31a11.43,11.43,0,0,0-1.12.48l1.18,1.31-2.69,2.12a8.1,8.1,0,0,0-1-1.64C193.92,18,194.88,21.05,203.84,18.65Zm6.43-11.26h8.42L220,6.11l1.28,1.28V9h-11ZM221,24.06h-4.35v-.29H215.1v.29h-3.71c-.32-4-.41-6.72-.41-6.72h4.35v.32h1.53c0-.12,0-.22,0-.32h3.71C220.93,21.34,221,24.06,221,24.06ZM211.55,4h5.86l1.28-1.28L220,4V5.6h-8.42Zm0,8.29V10.75h5.86l1.28-1.28L220,10.75v1.57Zm0,1.79h5.86l1.28-1.28L220,14.11v1.57h-8.42Zm5.25,5.12h-1.5l-.1,3h1.5C216.7,21.44,216.74,20.45,216.8,19.23Zm14.85-3.33s0-.32.13-2.81H224l-.13,2.81h-2.75c-.35-3.8-.45-4.64-.45-4.64h3.42v.26h7.81v-.26h2.75c.35,3.81.42,4.64.42,4.64Zm-8.42.51H227c0,8.74-5.8,9.83-5.8,9.83S223.23,22.85,223.23,16.41Zm6.59-12.57-.09,4.26h2L233,6.81,234.3,8.1V9.66H221.5V8.1h4.77c-.06-1.76-.16-3.14-.19-4.26H221.5V2.27H226C225.92.51,225.89,0,225.89,0h4l0,2.27h1.85L233,1l1.28,1.25V3.84Zm2.72,15.9,3.49.9s-.48,1.85-1.57,5.31c0,0-2.14,0-6.21-.22-.35-5.54-.44-9.32-.44-9.32h3.74s0,1.83-.09,5.35c.25,0,.47,0,.7,0C232.38,20.48,232.54,19.74,232.54,19.74Zm9.83-.77a3.51,3.51,0,1,1,0-7,3.19,3.19,0,0,1,1.31.25c0-1.05,0-2.27,0-3.68h-3.74V7.26h3.74V4.67h4.48c0,.9,0,1.76-.06,2.59h1.76L251.13,6l1.29,1.28V8.54H248c-.29,3.91-1,6.63-2.14,8.32a6.16,6.16,0,0,0,.86,2.24c1.63,2.34,5.22,2.21,7.55,1.35-1.7,3.32-5.22,4.16-7.17,3.32a5.74,5.74,0,0,1-3.55-5A3.6,3.6,0,0,1,242.37,19Zm0-2.65c.41,0,.7-.29.92-.83-.12-.68-.35-1.06-.92-1.06A1,1,0,1,0,242.37,16.32Zm8.7-4.13s5.54-1.92,7.68,3.3l-4.13,1.69A12.34,12.34,0,0,0,251.07,12.19Z"/></svg>