<svg id="レイヤー_1" data-name="レイヤー 1" xmlns="http://www.w3.org/2000/svg" viewBox="0 0 157.03 161.49"><path d="M58.6,53.21a13.57,13.57,0,0,1,.74-1.14A11.26,11.26,0,0,1,60.12,51a1.93,1.93,0,0,1,.41-.48,2.67,2.67,0,0,1,.5.06,3.7,3.7,0,0,1,.59.19,1.63,1.63,0,0,1,.51.3.56.56,0,0,1,.21.42,2.8,2.8,0,0,1-.25,1,8.81,8.81,0,0,1-.59,1.25,5.26,5.26,0,0,1-.76,1.09,1.16,1.16,0,0,1-.81.45.45.45,0,0,1-.14,0h-.13l-.34-.19c-.17-.09-.32-.19-.5-.3a2.29,2.29,0,0,1-.4-.36.63.63,0,0,1-.17-.42A2.07,2.07,0,0,1,58.6,53.21Zm4.75-2.53a6.65,6.65,0,0,0,1-.11,3.46,3.46,0,0,0,.84-.29,3.06,3.06,0,0,0,.74-.51,7.32,7.32,0,0,0,.72-.74.68.68,0,0,0,0-.19v-.11a.12.12,0,0,0,0-.08.29.29,0,0,0,0-.15,2.18,2.18,0,0,0-.09-.23c0-.09-.06-.17-.08-.25a.21.21,0,0,1,0-.13s0,0,0-.06a.15.15,0,0,1,0-.07s0-.06,0-.14.06-.11.08-.11a.85.85,0,0,1,.21,0l.43-.07a1.57,1.57,0,0,0,.44-.18.27.27,0,0,0,.19-.24V42.7a.29.29,0,0,0-.23-.32,1,1,0,0,0-.4-.07c-.24,0-.41.18-.55.55a6.25,6.25,0,0,0-.36,1.33c-.09.53-.21,1.1-.3,1.74a15,15,0,0,1-.42,1.75,3.73,3.73,0,0,1-.7,1.33,1.4,1.4,0,0,1-1.16.53h-.19s-.13-.09-.25-.21l-.38-.3a4.63,4.63,0,0,1-.4-.3,2.45,2.45,0,0,1-.22-.21c-.12-.12-.21-.17-.23-.21s-.06-.12-.06-.23,0-.13,0-.19a7.33,7.33,0,0,0,1.44-2.09,5.83,5.83,0,0,0,.48-2.49v-.38c0-.15,0-.23,0-.23l-.38-.45H58.79l-.08-.06s-.06-.09-.06-.13a1.46,1.46,0,0,1-.09-.15l0-.1V40.42a.76.76,0,0,1,.13-.26s0-.06.06-.12a.27.27,0,0,1,.08-.07h6.32a.31.31,0,0,0,.34-.27,2.59,2.59,0,0,0,.1-.59c0-.22,0-.41.07-.59a.36.36,0,0,1,.38-.26h1.77a.36.36,0,0,1,.19.09.66.66,0,0,1,.19.17v.19a1.88,1.88,0,0,0,0,.31c0,.11,0,.23.06.3a1.26,1.26,0,0,1,0,.21l.19.27c.1.11.16.17.19.17H75c.06,0,.13.05.25.17a.55.55,0,0,1,.13.28v1.39a.84.84,0,0,0,0,.1l-.09.15a.46.46,0,0,1-.08.13l0,.06H70.94a.27.27,0,0,1-.09.07l-.17.12-.17.15-.14.11V48a.8.8,0,0,1-.38.74,2.68,2.68,0,0,1-.79.4l-.82.31c-.25.09-.36.22-.36.43a.76.76,0,0,0,.17.48l.34.38c.13.11.25.25.36.36a.71.71,0,0,1,.15.46.57.57,0,0,1-.17.39,4.45,4.45,0,0,1-.45.37,3.74,3.74,0,0,1-.52.28.83.83,0,0,1-.39.11h-.14c-.07,0-.11,0-.11,0L66,51.44s0,0-.07,0a.07.07,0,0,0-.06,0,.45.45,0,0,0-.15.14.44.44,0,0,0-.1.11v1.65c0,.1.06.19.19.31a.49.49,0,0,0,.31.19h2.66a.43.43,0,0,0,.42-.23,3.56,3.56,0,0,0,.15-.46,2.89,2.89,0,0,1,.13-.49.37.37,0,0,1,.38-.23,2,2,0,0,1,.8.19,2.07,2.07,0,0,0,.84.17.74.74,0,0,0-.1-.4,2.9,2.9,0,0,0-.19-.34c-.06-.09-.13-.21-.19-.32a.77.77,0,0,1-.09-.36.56.56,0,0,1,.19-.42,1.67,1.67,0,0,1,.47-.34,2.27,2.27,0,0,1,.57-.23,1.92,1.92,0,0,1,.49-.1l.16,0H73c.23.19.47.44.8.74a11.06,11.06,0,0,1,.91,1,13.31,13.31,0,0,1,.78,1.1,2,2,0,0,1,.32,1,.71.71,0,0,1,0,.17v.15c-.11.08-.25.17-.4.29l-.45.36c-.18.09-.33.19-.5.26a1.17,1.17,0,0,1-.49.12.69.69,0,0,1-.61-.36,5.43,5.43,0,0,1-.38-.8,8.5,8.5,0,0,0-.4-.8.63.63,0,0,0-.57-.36c-.07,0-.15.15-.25.44a5.93,5.93,0,0,1-.36,1,4.11,4.11,0,0,1-.6.95,1.17,1.17,0,0,1-.94.45H64.87a2.15,2.15,0,0,1-.63-.13,2.46,2.46,0,0,1-.57-.38,2.23,2.23,0,0,1-.42-.55,1.21,1.21,0,0,1-.17-.59V50.93Zm-4.83-4.56c.11-.13.25-.34.44-.62s.36-.59.57-.9a6.72,6.72,0,0,1,.64-.81.89.89,0,0,1,.61-.35,2.77,2.77,0,0,1,.49.06,4.36,4.36,0,0,1,.59.17,2,2,0,0,1,.5.33.49.49,0,0,1,.23.41,2,2,0,0,1-.31.78,8,8,0,0,1-.72,1.07,7.35,7.35,0,0,1-.86,1,1.2,1.2,0,0,1-.72.41,1,1,0,0,1-.47-.13,3.62,3.62,0,0,1-.42-.36,2.36,2.36,0,0,1-.34-.44,1.45,1.45,0,0,1-.23-.47v-.12Zm12.9-1.59a.56.56,0,0,1,.23-.42,3.47,3.47,0,0,1,.49-.32,2.87,2.87,0,0,1,.51-.23,1.59,1.59,0,0,1,.31-.1.32.32,0,0,1,.13,0,1.05,1.05,0,0,1,.72.38,6.4,6.4,0,0,1,.71.9c.2.34.41.68.58,1l.4.76a.35.35,0,0,0,0,.12v.13a.63.63,0,0,1-.19.49,2,2,0,0,1-.49.38,1.77,1.77,0,0,1-.61.21,2.05,2.05,0,0,1-.57.08h-.17l-.15,0c-.31-.53-.61-1.06-.91-1.6s-.65-1.06-1-1.57C71.44,44.66,71.42,44.6,71.42,44.53Z"/><path d="M80.16,54.05a4.08,4.08,0,0,1,.89-.2c.36,0,.74-.07,1.16-.09s.82-.06,1.16-.09a7.86,7.86,0,0,0,.89-.19c.25-.1.36-.23.36-.4a.44.44,0,0,0-.11-.29,1.32,1.32,0,0,0-.28-.23l-.35-.19a1.05,1.05,0,0,0-.26,0,1.55,1.55,0,0,0-.48.07c-.15.08-.3.13-.43.21s-.31.13-.44.17a1.26,1.26,0,0,1-.49.1.8.8,0,0,1-.19,0l-.14,0-1.14-1.14a.12.12,0,0,1,0-.08v-.09c0-.12.12-.23.35-.36a6.13,6.13,0,0,1,.87-.4c.36-.15.74-.31,1.16-.46a11.72,11.72,0,0,0,1.12-.51,3.16,3.16,0,0,0,.87-.59.77.77,0,0,0,.27-1c-.06-.13-.12-.24-.19-.36a2.21,2.21,0,0,0-.29-.32.4.4,0,0,0-.26-.13.7.7,0,0,0-.55.24c-.15.19-.31.38-.46.59a3.14,3.14,0,0,1-.45.57.9.9,0,0,1-.65.27,1.09,1.09,0,0,1-.42-.11,2.64,2.64,0,0,1-.47-.25,1.47,1.47,0,0,1-.36-.34.76.76,0,0,1-.16-.4.22.22,0,0,1,0-.1v-.09l1-1.14s0-.06,0-.12a.27.27,0,0,0-.13-.24.47.47,0,0,0-.27-.14l-.27,0a2.85,2.85,0,0,1-.41,0,3.47,3.47,0,0,0-.42,0,1.87,1.87,0,0,0-.29,0l-.13-.13V43l.27-.32h2.14c.14,0,.21,0,.23-.14a.85.85,0,0,0,0-.22,1,1,0,0,0-.32-.82,4.84,4.84,0,0,0-.71-.38,2.37,2.37,0,0,1-.7-.42,1.07,1.07,0,0,1-.32-.89,2.36,2.36,0,0,1,0-.29c0-.09.1-.15.23-.19,1,0,2-.11,3.08-.2s2-.19,3.1-.31,2.07-.19,3.09-.26S92,38.37,93,38.37a1.74,1.74,0,0,1,.29,0h.17l1.27,1.27s0,.1-.08.16a2.23,2.23,0,0,1-.32.2l-.32.2c-.11.07-.17.13-.17.2a.54.54,0,0,0,.13.33.33.33,0,0,1,.13.3.58.58,0,0,1-.07.3,2.32,2.32,0,0,1-.19.31.88.88,0,0,0-.19.27.59.59,0,0,0-.08.34.43.43,0,0,0,0,.22c0,.1.09.14.23.14h1.78a.32.32,0,0,1,.23.19.51.51,0,0,1,.15.26V46a.33.33,0,0,1-.19.34,1.5,1.5,0,0,1-.43.1,3.4,3.4,0,0,0-.44.07.29.29,0,0,0-.21.31v.07l.08.16.11.2a1.69,1.69,0,0,0,.11.23l.08.17a.77.77,0,0,1-.21.38,2.27,2.27,0,0,1-.4.42,1.87,1.87,0,0,1-.47.34.92.92,0,0,1-.44.14.32.32,0,0,1-.13,0,2.11,2.11,0,0,0-.23-.25l-.38-.38-.38-.38a1.36,1.36,0,0,0-.27-.25c-.07,0-.13-.11-.19-.11a.53.53,0,0,0-.19,0h-.13a2.12,2.12,0,0,1-.91.59,9.73,9.73,0,0,1-1.18.42l-1,.34c-.31.09-.44.19-.44.3a.86.86,0,0,0,0,.21.23.23,0,0,0,.22.1H92a1.34,1.34,0,0,0,.36.22c.15.08.26.16.38.23a1.93,1.93,0,0,1,.3.27.58.58,0,0,1,.12.38.67.67,0,0,1,0,.32l-.23.29a2.75,2.75,0,0,0-.28.34c-.16.15-.31.32-.46.49s-.32.34-.47.5-.25.26-.31.32a.55.55,0,0,0,0,.19.35.35,0,0,0,.25.32,2,2,0,0,0,.59.17c.21,0,.43,0,.64,0s.36,0,.44,0l.53.06c.25,0,.52,0,.8.07s.55,0,.8.08l.53,0c.13,0,.21,0,.23.09a.93.93,0,0,1,0,.23,2,2,0,0,1-.14.55,2.82,2.82,0,0,1-.36.66,2.55,2.55,0,0,1-.49.54,1,1,0,0,1-.55.21,9,9,0,0,1-1.71-.19l-1.71-.44c-.55-.17-1.12-.32-1.67-.44a6.79,6.79,0,0,0-3.35,0c-.55.12-1.1.27-1.67.44s-1.1.3-1.67.44a7.73,7.73,0,0,1-1.73.21.75.75,0,0,1-.51-.2,1.72,1.72,0,0,1-.42-.43,2.14,2.14,0,0,1-.27-.57,1.62,1.62,0,0,1-.11-.53C79.8,54.25,79.91,54.14,80.16,54.05Zm2.34-8.57a1.2,1.2,0,0,0,.43.19,2.59,2.59,0,0,0,.56,0,3.87,3.87,0,0,0,.45,0l.51,0a4.22,4.22,0,0,0,.69-.14,2.12,2.12,0,0,0,.63-.23c.19-.07.26-.17.26-.28a.65.65,0,0,0-.09-.3.4.4,0,0,0-.31-.16h-2.9a.33.33,0,0,0-.33.17.87.87,0,0,0-.07.35A.41.41,0,0,0,82.5,45.48Zm2.62-3.42a1.15,1.15,0,0,0,.38.51h.23a1.22,1.22,0,0,0,.23,0,2.94,2.94,0,0,0,.47,0c.15,0,.23-.13.23-.34a1.39,1.39,0,0,0-.29-.86.94.94,0,0,0-.79-.34,1.22,1.22,0,0,0-.23,0c-.12,0-.19,0-.23,0s-.13.06-.13.17v.19A1.46,1.46,0,0,0,85.12,42.06Zm1.54,9.69A1,1,0,0,0,87,52a1.3,1.3,0,0,0,.44.17,1.28,1.28,0,0,0,.34.06,1.22,1.22,0,0,0,.34-.06A1.08,1.08,0,0,0,88.5,52a.69.69,0,0,0,.3-.22.41.41,0,0,0,.14-.31.35.35,0,0,0-.06-.21s-.09,0-.21,0h-1.9a.41.41,0,0,0-.23,0,.58.58,0,0,0,0,.19A.39.39,0,0,0,86.66,51.75Zm.43-5a2.26,2.26,0,0,0,.67.09,3.39,3.39,0,0,0,.7-.07,7,7,0,0,1,.72-.19c.25-.06.48-.1.71-.14a1.92,1.92,0,0,1,.68,0c.06-.07.15-.19.31-.36s.3-.3.47-.45a6.28,6.28,0,0,1,.51-.42.87.87,0,0,1,.48-.17.93.93,0,0,1,.45.09,1.31,1.31,0,0,0,.48.08V45c0-.15-.06-.24-.17-.26L92,44.62c-.29,0-.63,0-1,0a1.42,1.42,0,0,0-1,.29,1.63,1.63,0,0,0-.42.61c-.09.23-.19.43-.28.61a.64.64,0,0,1-.61.28h-.25l-1-.63s0,0-.08,0h-.09a.43.43,0,0,0-.46.46A.59.59,0,0,0,87.09,46.79ZM89,41.58a2.61,2.61,0,0,0,0,.4,1.09,1.09,0,0,0,.12.36.72.72,0,0,0,.26.23h.23l.21,0a1.33,1.33,0,0,0,1-.46A1.51,1.51,0,0,0,91.35,41a.52.52,0,0,0,0-.17c0-.07-.06-.11-.13-.15h-.38l-.38,0H90a1.62,1.62,0,0,0-.45,0,1,1,0,0,0-.37.17.46.46,0,0,0-.13.38C89.05,41.32,89,41.45,89,41.58Z"/><path d="M102.66,46.14a2.31,2.31,0,0,1,.51-.76,2.38,2.38,0,0,1,.8-.51,2.8,2.8,0,0,1,1-.17,2.49,2.49,0,0,1,1.79.7,2.4,2.4,0,0,1,.7,1.79,2.68,2.68,0,0,1-.17,1,2.44,2.44,0,0,1-.51.79,2.19,2.19,0,0,1-.76.52,2.46,2.46,0,0,1-1,.19,2.42,2.42,0,0,1-2.54-2.55A2.33,2.33,0,0,1,102.66,46.14Z"/><path d="M116.45,53a3.89,3.89,0,0,0-.15.61,2.74,2.74,0,0,1-.21.61.47.47,0,0,1-.46.28,2.27,2.27,0,0,1-.41,0,2.13,2.13,0,0,1-.5-.18,2,2,0,0,1-.42-.3.64.64,0,0,1-.17-.42,6.34,6.34,0,0,1,.12-.72c.07-.42.17-.84.26-1.27s.21-.84.31-1.2.17-.55.21-.55h1.63l.27-.13v-.12a1.58,1.58,0,0,0,0-.19.66.66,0,0,0-.24-.59,1.21,1.21,0,0,0-.57-.2,3.87,3.87,0,0,0-.76,0,5.1,5.1,0,0,1-.72.08.42.42,0,0,1-.27-.25,1.13,1.13,0,0,1-.09-.34,2.46,2.46,0,0,1,0-.4v-.34s0-.11,0-.23v-.21a.56.56,0,0,1,.41-.38l.59-.11a2,2,0,0,0,.54-.23c.17-.09.24-.28.24-.57a1.17,1.17,0,0,0-.26-.76c-.19-.21-.38-.42-.59-.61a7.87,7.87,0,0,1-.57-.6,1.21,1.21,0,0,1-.25-.73,1.41,1.41,0,0,1,.27-.78,9.45,9.45,0,0,1,.6-.76c.23-.24.46-.47.67-.72a2.43,2.43,0,0,0,.49-.72,2.71,2.71,0,0,0,.19-.57c0-.15.1-.3.14-.44a.72.72,0,0,1,.2-.3.79.79,0,0,1,.42-.09l.46,0a5.7,5.7,0,0,1,.55.16,1.6,1.6,0,0,1,.49.24.46.46,0,0,1,.21.4v.06a4.75,4.75,0,0,1-.43.78c-.19.28-.38.57-.56.87a7.53,7.53,0,0,0-.47.88,2.32,2.32,0,0,0-.19.83,1,1,0,0,0,0,.21.13.13,0,0,0,.15.11.6.6,0,0,0,.57-.36,4.27,4.27,0,0,0,.34-.78,5.78,5.78,0,0,1,.38-.79.62.62,0,0,1,.59-.37,1.32,1.32,0,0,1,.46.1,3.56,3.56,0,0,1,.41.17,3.3,3.3,0,0,1,.42.19,1.11,1.11,0,0,0,.44.08.3.3,0,0,0,.23-.1,2.18,2.18,0,0,0,.17-.21,1,1,0,0,0,.13-.23c.06-.07.08-.13.12-.17h3c.08,0,.18-.07.31-.22a.79.79,0,0,0,.19-.35,1,1,0,0,0,0-.32,2.94,2.94,0,0,0,0-.44c0-.17,0-.32,0-.45a2.16,2.16,0,0,0,0-.31,1.35,1.35,0,0,1,.17-.17c.1-.05.15-.09.21-.09h1.77a.36.36,0,0,1,.26.13.93.93,0,0,1,.12.25c0,.06,0,.17,0,.3s0,.31,0,.46a3.14,3.14,0,0,0,0,.45c0,.16,0,.25,0,.31s0,0,.08.07a1.1,1.1,0,0,0,.15.16.89.89,0,0,1,.17.15c.06.06.1.07.11.07H132v2.28H128.7a.56.56,0,0,1-.11.08l-.15.11a.79.79,0,0,0-.15.16.28.28,0,0,0-.1.09v1l.25.32h2.66s.05,0,.11.08l.15.11a.79.79,0,0,0,.16.15.38.38,0,0,1,.09.1v1.52a.39.39,0,0,0,0,.11l-.09.15a.42.42,0,0,1-.08.12.22.22,0,0,1,0,.07h-8.87a.22.22,0,0,0-.23.17c0,.14,0,.27,0,.44s0,.34,0,.5a.35.35,0,0,1-.21.34l-.3.19c-.14,0-.25.13-.38.19a3.54,3.54,0,0,0-.31.19c-.09,0-.13.07-.15.07h-.11l-.76-.64h-.08a.75.75,0,0,1-.11,0c-.19,0-.31.07-.33.24a3.31,3.31,0,0,0,0,.44,1.52,1.52,0,0,0,.06.42.31.31,0,0,0,.34.21.15.15,0,0,0,.08,0H120s.07,0,.15-.08a.68.68,0,0,0,.23-.11l.22-.11.16-.08a2.1,2.1,0,0,1,.55.59,3.58,3.58,0,0,1,.43.85,6.75,6.75,0,0,1,.31.93,5.28,5.28,0,0,1,.09.8.4.4,0,0,1-.21.36,1.86,1.86,0,0,1-.47.29l-.53.19a2,2,0,0,1-.38.06s-.06,0-.06,0a1.37,1.37,0,0,1-.27-.27l-.21-.36c0-.13-.11-.25-.15-.36a1.13,1.13,0,0,0-.13-.27.07.07,0,0,0-.06,0s0,0,0,0-.08,0-.14.06l0,.06v3.3a.44.44,0,0,1-.08.1.49.49,0,0,0-.11.15,1.23,1.23,0,0,1-.16.15c0,.06-.09.1-.11.1h-1.52a.35.35,0,0,0-.1-.1l-.15-.15a.65.65,0,0,1-.11-.15.44.44,0,0,1-.08-.1V52.83s0,0-.07-.06l-.12-.07h-.07C116.6,52.7,116.51,52.79,116.45,53Zm2.3-6.72a.34.34,0,1,0-.32-.33A.29.29,0,0,0,118.75,46.26Zm2.18-1.43a3.28,3.28,0,0,1,.27.53c.08.19.17.36.25.53a.44.44,0,0,0,.42.23H122c0-.07,0-.19,0-.34a4.21,4.21,0,0,1,.09-.49,3.05,3.05,0,0,1,.19-.44.36.36,0,0,1,.32-.19h2.53a.15.15,0,0,0,.15-.11,1.07,1.07,0,0,0,.08-.27c0-.09,0-.19,0-.28v-.16a1.15,1.15,0,0,0,0-.24,1.59,1.59,0,0,0-.1-.33.57.57,0,0,0-.15-.26.3.3,0,0,0-.25-.12h-3s0,0-.08-.07a.33.33,0,0,0-.06-.12c0-.05-.07-.15-.13-.32a2.43,2.43,0,0,1-.11-.32h-.19a.86.86,0,0,0-.59.3,3.23,3.23,0,0,0-.57.72,5.35,5.35,0,0,0-.44.9,2,2,0,0,0-.19.78,1.26,1.26,0,0,0,.49-.08,1.17,1.17,0,0,1,.48-.1A.5.5,0,0,1,120.93,44.83ZM123,48.65h8l.25.25v6.84a.32.32,0,0,1-.15.28,1.18,1.18,0,0,1-.36.12H130a1.31,1.31,0,0,1-.6-.12,1.64,1.64,0,0,1-.44-.21,1.83,1.83,0,0,1-.34-.23.74.74,0,0,0-.33-.09h-2.79a.35.35,0,0,0-.25.09,2.11,2.11,0,0,0-.19.23,2,2,0,0,1-.2.21.37.37,0,0,1-.25.1h-1.39A.78.78,0,0,1,123,56c-.14-.09-.21-.17-.21-.22V48.9Zm2.13,3.57a1.42,1.42,0,0,0,.06.42.65.65,0,0,0,.19.3.52.52,0,0,0,.4.14h2.28l.13,0a1,1,0,0,0,.23-.08.43.43,0,0,0,.21-.11.19.19,0,0,0,.07-.15V51.31a.29.29,0,0,0-.13-.25.33.33,0,0,0-.25-.13h-2.79l-.38.38a1,1,0,0,0,0,.21v.7Z"/><path d="M141.63,48a2.82,2.82,0,0,0-.25.79,4.16,4.16,0,0,0-.13.92c0,.3,0,.53,0,.68v.15a.71.71,0,0,1,0,.17,1.91,1.91,0,0,0,.3.33,4,4,0,0,1,.44.47c.15.17.26.34.38.49a1,1,0,0,1,.15.46,1.23,1.23,0,0,1-.13.48,5.45,5.45,0,0,1-.35.6c-.13.19-.28.34-.41.5s-.27.21-.38.21h-.38a1.1,1.1,0,0,1-.14-.17,1.88,1.88,0,0,0-.24-.25,3.23,3.23,0,0,0-.29-.25.51.51,0,0,0-.28-.09h-.08s0,0-.11.07-.14,0-.14.06l-1.1,1.18a5.46,5.46,0,0,1-1.18,1l-.21.11s-.07,0-.17,0a.58.58,0,0,1-.19,0l-.19-.11a3,3,0,0,0-.19-.23,3.26,3.26,0,0,0-.24-.4c-.1-.13-.19-.27-.27-.38a2.11,2.11,0,0,0-.19-.25s0-.07-.08-.13,0-.12,0-.13,0,0,0-.06a.85.85,0,0,1,.36-.7,8.1,8.1,0,0,1,.78-.61,8.54,8.54,0,0,0,.79-.65,1.1,1.1,0,0,0,.37-.83.58.58,0,0,0-.38-.5c-.25-.11-.54-.23-.84-.34a3.1,3.1,0,0,1-.84-.4.84.84,0,0,1-.38-.72,1,1,0,0,1,0-.19V49c0-.13.06-.34.12-.65s.13-.64.19-1,.13-.69.21-1,.11-.53.11-.65,0-.19.08-.4a1.94,1.94,0,0,1,0-.36v-.07a.48.48,0,0,0-.28-.46,4.3,4.3,0,0,1-.48-.23s0,0-.07-.07-.06,0-.06-.06v-1.9s.08-.09.23-.13l.49-.19a2.36,2.36,0,0,0,.52-.27.57.57,0,0,0,.28-.42,3.79,3.79,0,0,0,.1-.51,4.22,4.22,0,0,1,.11-.76c0-.27.07-.53.09-.76s.06-.42.08-.51l.27-.25h.2a1.87,1.87,0,0,1,.29,0h.47a1.77,1.77,0,0,1,.56,0,.91.91,0,0,1,.43.17.46.46,0,0,1,.19.44,5,5,0,0,1-.13,1.1,4.28,4.28,0,0,0-.13,1.12,1.27,1.27,0,0,0,0,.23v.21c.09.19.28.28.6.28s.65,0,1,0a5.16,5.16,0,0,1,.91,0,.42.42,0,0,1,.4.46v2.92a.21.21,0,0,0,.14.21.6.6,0,0,0,.24.06.52.52,0,0,0,.38-.25.59.59,0,0,0,.19-.4v-5.7s0,0,.08-.05l.11-.08a.69.69,0,0,1,.15-.07l.1-.06a1.23,1.23,0,0,1,.25.07l.26.06h.69a8.42,8.42,0,0,0,1.33-.11c.45-.08.89-.15,1.34-.27s.9-.19,1.33-.26a6.2,6.2,0,0,1,1.33-.14,1.14,1.14,0,0,1,.48.1,1.52,1.52,0,0,1,.38.24,1.75,1.75,0,0,1,.34.38c.11.14.25.29.38.44a.62.62,0,0,1,0,.19v.19c0,.06-.06.11-.15.13s-.31.06-.52.08a3.74,3.74,0,0,0-.62.17,1.76,1.76,0,0,0-.53.31.62.62,0,0,0-.23.51,1.2,1.2,0,0,0,0,.24,1.81,1.81,0,0,0,.09.31c.06.07.12.17.17.23a.37.37,0,0,0,.23.11h2.28l.25.32v1.39l-.25.32h-1.9a.2.2,0,0,0-.21.19,1,1,0,0,0-.05.31,1,1,0,0,0,.05.32c0,.13.1.27.15.4a.86.86,0,0,0,.25.36.52.52,0,0,0,.32.13.31.31,0,0,0,.27-.11,1.32,1.32,0,0,0,.15-.29,1.61,1.61,0,0,1,.15-.26.35.35,0,0,1,.25-.12,1.08,1.08,0,0,1,.34.1,5.2,5.2,0,0,1,.46.25,4,4,0,0,1,.38.34.43.43,0,0,1,.15.32,1.16,1.16,0,0,1-.21.7,3.43,3.43,0,0,1-.45.61,6.78,6.78,0,0,0-.46.57,1,1,0,0,0-.21.55v7.34s0,0-.08.07l-.11.06a.42.42,0,0,1-.15.07l-.1.06h-1.78a2.4,2.4,0,0,0-.31-.19,1.83,1.83,0,0,1-.32-.19.52.52,0,0,0-.15-.07l-.1-.06h-2.66l-.11.06a.35.35,0,0,0-.15.07l-.25.19c-.11.1-.21.15-.25.19h-1.9l-.07-.06s0,0-.06-.07a.32.32,0,0,1-.07-.13l-.06-.12V48.4a.44.44,0,0,0-.15-.3,2.74,2.74,0,0,0-.36-.23,2.85,2.85,0,0,0-.42-.17,1.93,1.93,0,0,0-.27-.08C141.89,47.62,141.74,47.74,141.63,48Zm-3.42-.25a1.05,1.05,0,0,0,.09.34.64.64,0,0,0,.19.25.63.63,0,0,0,.34.09c.19,0,.34-.17.48-.47a5.08,5.08,0,0,0,.26-1.07,11.31,11.31,0,0,0,.12-1.14c0-.38,0-.6,0-.72a.72.72,0,0,0-.12-.42.49.49,0,0,0-.4-.13.68.68,0,0,0-.62.34,3.06,3.06,0,0,0-.31.84,5.23,5.23,0,0,0-.09,1v.78A2.18,2.18,0,0,0,138.21,47.72ZM145,48h4.3c.07,0,.13,0,.13-.09a.62.62,0,0,0,0-.17,1,1,0,0,0-.19-.48c-.11-.19-.25-.4-.4-.63l-.44-.56c-.15-.16-.26-.23-.32-.23h-.06l-.07,0S148,46,148,46a2.24,2.24,0,0,1-.42.89,1.31,1.31,0,0,1-.55.42,1.56,1.56,0,0,1-.59.12h-.59a1.6,1.6,0,0,0-.51.09.78.78,0,0,0-.38.38Zm.94-6.11a3.88,3.88,0,0,0,.57.05l.24,0a1,1,0,0,0,.25,0,.77.77,0,0,0,.21-.14.34.34,0,0,0,.07-.26.4.4,0,0,0-.07-.25.66.66,0,0,0-.19-.21l-.25,0h-.55a1,1,0,0,0-.28.06.47.47,0,0,0-.23.13.41.41,0,0,0-.1.27A.38.38,0,0,0,146,41.91ZM145.69,45a.29.29,0,0,0,.23.23h.45a3.32,3.32,0,0,1,.42,0,1.93,1.93,0,0,0,.48,0,1,1,0,0,0,.4-.13.35.35,0,0,0,.17-.33.72.72,0,0,0,0-.19,1.07,1.07,0,0,0-.1-.22.6.6,0,0,0-.11-.21.22.22,0,0,0-.17-.08h-1.52c-.13,0-.21.08-.23.23a3.26,3.26,0,0,0,0,.34A2,2,0,0,0,145.69,45Zm.32,5.78a.3.3,0,0,0,.29.15h2.54a.3.3,0,0,0,.25-.13.38.38,0,0,0,.13-.25.62.62,0,0,0-.05-.25.21.21,0,0,0-.21-.13h-2.78c-.13,0-.22,0-.24.1a.56.56,0,0,0,0,.2A.57.57,0,0,0,146,50.78Zm-.07,2.6c0,.06.11.08.24.08H149c.11,0,.19,0,.21-.14a.49.49,0,0,0,.05-.22.34.34,0,0,0-.17-.31.69.69,0,0,0-.34-.09h-2.28q-.51,0-.51.45A.75.75,0,0,0,145.94,53.38Z"/><path d="M37.6,78.1V78c0-.1.15-.21.44-.38s.66-.34,1.12-.55l1.42-.76A11.61,11.61,0,0,0,42,75.35a6,6,0,0,0,1.12-1,1.91,1.91,0,0,0,.44-1.16,1.86,1.86,0,0,0,0-.28.23.23,0,0,0-.23-.15H38l-.09-.06c-.06-.06-.12-.09-.16-.13s0,0-.09-.08,0,0,0,0v-2l.11-.1.16-.15A.52.52,0,0,1,38,70l.09-.08h6.08l.25-.32v-2a.25.25,0,0,1,0-.06s-.06-.06-.07-.06l-.16-.13-.11-.06H39.27c-.07,0-.15,0-.24-.17a.71.71,0,0,1-.14-.28V65.05l.06-.11A.43.43,0,0,1,39,64.8l0-.11.06-.08H44l.11-.07c.06,0,.11-.1.17-.15l.15-.16s.06,0,.06-.07v-.29a3.39,3.39,0,0,1,0-.45c0-.17,0-.33.07-.5a1,1,0,0,1,.18-.4.7.7,0,0,1,.13-.15l.11-.11h2a.41.41,0,0,1,.25.13.43.43,0,0,1,.13.25c0,.06,0,.17,0,.3l.06.46c0,.17,0,.3,0,.45v.31l.09.07c0,.06.1.1.14.16a1.22,1.22,0,0,0,.17.15c0,.06.07.07.11.07h5.45V67l-.26.32H47.88a.36.36,0,0,0-.23.17.62.62,0,0,0-.15.27v1.9l.26.32H54a.54.54,0,0,1,.32.14.37.37,0,0,1,.19.3v2l-.25.31h-5.7s-.05,0-.11.11a2.33,2.33,0,0,0-.15.21v.06a1.83,1.83,0,0,0,.47,1.14,6.84,6.84,0,0,0,1.2,1,13.25,13.25,0,0,0,1.58.89c.55.27,1.08.52,1.55.73l1.2.53c.32.13.48.25.48.3a1.66,1.66,0,0,1-.14.65,3,3,0,0,1-.38.7,2.07,2.07,0,0,1-.53.57,1,1,0,0,1-.61.25,3.65,3.65,0,0,1-1.44-.32,8.86,8.86,0,0,1-1.46-.82,10.64,10.64,0,0,1-1.37-1.1c-.44-.38-.84-.74-1.18-1.07s-.66-.6-.89-.83-.4-.33-.48-.33-.28.12-.55.35l-.91.85c-.36.34-.76.7-1.21,1.1a13.86,13.86,0,0,1-1.41,1.12,7.63,7.63,0,0,1-1.52.84,3.71,3.71,0,0,1-1.52.34.82.82,0,0,1-.53-.26,5,5,0,0,1-.46-.57c-.13-.21-.24-.42-.34-.61l-.19-.34A.56.56,0,0,0,37.6,78.1Z"/><path d="M68.25,74.93c-.1,0-.16.06-.16.13v3.29a.32.32,0,0,1-.17.3.92.92,0,0,1-.36.16,1.75,1.75,0,0,1-.4,0H66.9s-.14,0-.29,0a2.75,2.75,0,0,1-.4,0,1.27,1.27,0,0,1-.38-.11.34.34,0,0,1-.15-.27V73.66a.29.29,0,0,0-.13-.25l-.25-.19A2.31,2.31,0,0,1,65,73a.29.29,0,0,1-.15-.25.73.73,0,0,1,0-.28c0-.15,0-.34,0-.53s0-.4-.08-.61a2.1,2.1,0,0,0-.15-.48,1.46,1.46,0,0,0-.5.67,3.17,3.17,0,0,0-.26,1,7.66,7.66,0,0,0-.11,1c0,.33,0,.61,0,.82v.23a.48.48,0,0,0,0,.21,2.57,2.57,0,0,0,.28.36,5.26,5.26,0,0,1,.42.47c.15.17.28.36.42.55a1.68,1.68,0,0,1,.26.52v.07a1.12,1.12,0,0,1-.13.46,3.7,3.7,0,0,1-.38.59,3,3,0,0,1-.48.47.84.84,0,0,1-.45.19.43.43,0,0,1-.36-.15,1.43,1.43,0,0,1-.25-.36,2.31,2.31,0,0,0-.25-.36.43.43,0,0,0-.36-.15.31.31,0,0,0-.13.05.21.21,0,0,0-.11.08l-.4.4c-.19.21-.4.42-.61.62l-.61.61-.42.4a1.56,1.56,0,0,1-.24.21.87.87,0,0,1-.25,0,.73.73,0,0,1-.46-.19,2.45,2.45,0,0,1-.45-.46,2.37,2.37,0,0,1-.36-.55,1.23,1.23,0,0,1-.14-.51V78.1l.52-.47c.24-.21.47-.46.72-.71a9.21,9.21,0,0,0,.66-.79,1.59,1.59,0,0,0,.27-.76.52.52,0,0,0-.36-.46c-.23-.11-.5-.25-.78-.36a5.12,5.12,0,0,1-.8-.44.75.75,0,0,1-.36-.64v-.06a4.57,4.57,0,0,0,.13-.67c.06-.34.14-.68.19-1s.12-.7.19-1,.12-.55.14-.68a1.85,1.85,0,0,0,.05-.34,1,1,0,0,0,0-.21c0-.08,0-.15,0-.21V69a.72.72,0,0,0-.19-.55,2,2,0,0,0-.59-.32v-1.9s.08-.08.19-.11l.46-.17a1.53,1.53,0,0,0,.47-.31.92.92,0,0,0,.29-.55,4,4,0,0,0,0-.49c0-.23,0-.48.08-.76a7.4,7.4,0,0,1,.13-.8,1.93,1.93,0,0,1,.25-.61h.38l.38,0h.28a2.41,2.41,0,0,1,.38,0,2.45,2.45,0,0,1,.37.08.36.36,0,0,1,.24.19,1.27,1.27,0,0,0,0,.23v.22A4.84,4.84,0,0,1,62,64.22a4.51,4.51,0,0,0-.13,1.15.42.42,0,0,0,.07.25c.06.08.12.13.17.19l.42,0c.25,0,.55,0,.86.06a5.36,5.36,0,0,1,.87.17c.25,0,.38.15.38.26v3.16l.27.26h10.5l.25.25V72.9a.07.07,0,0,1,0,0L75.5,73a.39.39,0,0,1-.09.08l-.15.11a.71.71,0,0,0-.17.11c-.06,0-.08.08-.1.08a.58.58,0,0,1-.11.13c-.06.06-.08.1-.08.12v3.8a1,1,0,0,1-.21.59,2.08,2.08,0,0,1-.51.43,2.74,2.74,0,0,1-.65.29,2,2,0,0,1-.61.09.64.64,0,0,1-.45-.13,2.9,2.9,0,0,1-.25-.36c-.07-.12-.13-.27-.21-.42a1,1,0,0,0-.34-.36l-.19.25v1.9c0,.07-.06.15-.17.24a.63.63,0,0,1-.27.14H69.42l-.11-.06L69.16,80a.22.22,0,0,0-.12-.07L69,79.87V75.31a.39.39,0,0,0-.19-.29.61.61,0,0,0-.31-.11A2.08,2.08,0,0,1,68.25,74.93Zm-7.37-2.87c0,.15.2.23.45.23s.38-.15.5-.44a4.73,4.73,0,0,0,.26-1,10.59,10.59,0,0,0,.1-1.12c0-.36,0-.62,0-.78a.64.64,0,0,0-.12-.38.47.47,0,0,0-.34-.13c-.21,0-.38.13-.51.42a3.44,3.44,0,0,0-.29,1,7.91,7.91,0,0,0-.13,1c0,.33,0,.54,0,.65A1.52,1.52,0,0,0,60.88,72.06ZM71.7,67l0-.11c0-.06-.06-.08-.08-.08H66.76a.27.27,0,0,1-.24-.11.66.66,0,0,1-.12-.27,1.16,1.16,0,0,1,0-.32v-.44c0-.09,0-.19,0-.3a.42.42,0,0,1,.12-.23.36.36,0,0,1,.26-.1h4.87a.68.68,0,0,1,0-.15,1,1,0,0,0,0-.17.31.31,0,0,0,0-.13.33.33,0,0,0-.23-.06H66.12l-.25-.32V63s0,0,.06,0,.06-.06.07-.08l.14-.09.11,0H74.1l.11,0a1.46,1.46,0,0,1,.15.09s0,0,.06.08.06,0,.06,0v5.7s-.08.13-.21.23a.71.71,0,0,1-.29.15H66.25A.87.87,0,0,1,66,69c-.14-.1-.21-.18-.21-.23V67.58l.06-.06s0-.06.07-.06a.81.81,0,0,0,.15-.13l.1-.06h5.45s0,0,.08-.07,0-.08,0-.12V67Zm-4.54,5.41c0,.12.1.16.23.16h1.27c.06,0,.1-.06.16-.19a.73.73,0,0,1,.09-.19v-.06a.56.56,0,0,0-.13-.32,1.46,1.46,0,0,0-.25-.25,2.42,2.42,0,0,0-.26,0H68a1.49,1.49,0,0,0-.63.1c-.17,0-.26.22-.26.51A1.22,1.22,0,0,0,67.16,72.36Zm4.32,0a.2.2,0,0,0,.22.16h1.39a.11.11,0,0,0,.12-.08,1.31,1.31,0,0,1,0-.15v-.15a.32.32,0,0,1,0-.08c0-.11,0-.23,0-.34s-.1-.17-.25-.21-.14,0-.29,0h-.28a2.28,2.28,0,0,0-.67.08c-.19,0-.28.23-.28.53A1.27,1.27,0,0,0,71.48,72.36Zm0,3.71a1.94,1.94,0,0,0,0,.34.89.89,0,0,0,.11.31.3.3,0,0,0,.25.11.59.59,0,0,0,.3-.15,1.82,1.82,0,0,0,.21-.23,2.62,2.62,0,0,1,0-.32v-.61a1.88,1.88,0,0,0,0-.34.61.61,0,0,0-.15-.27.35.35,0,0,0-.29-.11.36.36,0,0,0-.3.11,1.13,1.13,0,0,0-.13.27,1.88,1.88,0,0,0,0,.34v.55Z"/><path d="M87.15,63.28v6.33l0,0-.09.09a1.11,1.11,0,0,0-.13.12.36.36,0,0,0-.12.07h-4s0,0-.08.1a.2.2,0,0,1-.06.09.55.55,0,0,0-.09.14.74.74,0,0,0-.1.11v9.37c0,.07-.05.15-.17.24a.66.66,0,0,1-.26.14H80.18s-.11-.08-.21-.21-.17-.23-.17-.29V63.4l.06-.1a.42.42,0,0,1,.07-.15s0-.06.06-.07.06-.06.08-.06H86.9Zm-4.58,4.54c0,.1.06.14.16.14h1.76c.08,0,.12,0,.13-.14v-.36c0-.09-.05-.13-.13-.13H82.73a.14.14,0,0,0-.16.13v.36Zm0-2.64a.76.76,0,0,0,.14.16.5.5,0,0,0,.11.09h1.52s.06,0,.13-.09.12-.12.13-.16v-.13s-.07-.09-.13-.15-.11-.1-.13-.1H82.84l-.11.1a.45.45,0,0,0-.14.15v.13ZM84.25,79v-7.6l.24-.25H91.2l.32.25v5.7a.29.29,0,0,0,.12.24.68.68,0,0,0,.24.12l.31,0h.22a1.33,1.33,0,0,0,.67-.14c.19-.07.28-.3.28-.64V70.62s0-.1,0-.17l-.12-.23A.51.51,0,0,0,93,70a.25.25,0,0,0-.19-.1H88.67l0-.07c0-.06,0-.1-.09-.12a1.14,1.14,0,0,0-.06-.15c0-.06-.06-.09-.06-.11V63.4l.06-.1c0-.07.06-.13.06-.15s0-.06.07-.07,0-.06.06-.06h7.09s0,0,.07.06,0,.05.06.07a.4.4,0,0,1,.08.15l0,.1V77.34a2.72,2.72,0,0,1-.32,1.39,2.38,2.38,0,0,1-.84.83,2.88,2.88,0,0,1-1.19.44,6.61,6.61,0,0,1-1.41.14,1,1,0,0,1-.74-.25,1.84,1.84,0,0,1-.34-.57c-.08-.21-.13-.4-.19-.57s-.13-.27-.29-.27H86.9s-.07,0-.13.1a1.29,1.29,0,0,0-.17.21c-.06.07-.09.15-.15.22l-.06.1-.06.08s0,0-.07,0H84.49Zm2.5-5.36a1.11,1.11,0,0,0,.31.15,1.92,1.92,0,0,0,.38,0h.68a2.22,2.22,0,0,0,.38,0,1,1,0,0,0,.3-.11.38.38,0,0,0,.14-.31.44.44,0,0,0-.12-.3.27.27,0,0,0-.28-.15H87a.5.5,0,0,0-.27.11.4.4,0,0,0-.11.27A.5.5,0,0,0,86.75,73.62Zm0,2.7a.18.18,0,0,0,.2.13h1.77a.21.21,0,0,0,.21-.13.69.69,0,0,0,.06-.25.65.65,0,0,0-.06-.25.24.24,0,0,0-.21-.13H86.9a.2.2,0,0,0-.2.13.65.65,0,0,0-.06.25A.69.69,0,0,0,86.7,76.32Zm4.38-11.14s.08.08.14.16.09.09.11.09H93c.08,0,.14,0,.14-.15v-.17a.56.56,0,0,0,0-.21c0-.06-.1-.1-.25-.1H91.33s-.06,0-.11.1a.88.88,0,0,0-.14.15s0,0,0,.06S91.07,65.17,91.08,65.18Zm0,2.76a.21.21,0,0,0,.23.15h1.52a.4.4,0,0,0,.27-.11.38.38,0,0,0,.13-.27.57.57,0,0,0-.06-.25.21.21,0,0,0-.21-.13H91.2c-.08,0-.12,0-.12.13a1.55,1.55,0,0,0,0,.48Z"/><path d="M103,70.14a2.31,2.31,0,0,1,.51-.76,2.38,2.38,0,0,1,.8-.51,2.8,2.8,0,0,1,1-.17,2.49,2.49,0,0,1,1.79.7,2.4,2.4,0,0,1,.7,1.79,2.68,2.68,0,0,1-.17,1,2.44,2.44,0,0,1-.51.79,2.19,2.19,0,0,1-.76.52,2.46,2.46,0,0,1-1,.19,2.42,2.42,0,0,1-2.54-2.55A2.33,2.33,0,0,1,103,70.14Z"/><path d="M116.74,71.64l-.33-.26-.76.38c-.07,0-.17,0-.32-.25s-.3-.46-.46-.72-.3-.55-.43-.82a1.81,1.81,0,0,1-.19-.57,1.88,1.88,0,0,1,.42-.83c.26-.4.57-.8.93-1.26s.68-.85,1-1.27a7.62,7.62,0,0,0,.71-1,3.41,3.41,0,0,1,.22-.45q.15-.34.33-.69c.11-.25.24-.47.34-.68a3.14,3.14,0,0,1,.25-.46.29.29,0,0,1,.2-.25H119l.55,0a3.67,3.67,0,0,1,.64.14,1.5,1.5,0,0,1,.57.26.54.54,0,0,1,.23.46.11.11,0,0,1,0,.07v.06s0,.13-.11.29-.12.28-.13.34-.14.26-.25.53-.27.51-.4.8-.25.55-.38.82-.21.41-.25.51l-.19.64V80H117l-.3-.26Zm4,5.57,0-.06.06-.07L121,77a.26.26,0,0,1,.12-.07h3.53s0,0,.07-.08l.06-.11a.43.43,0,0,0,.08-.14l.05-.11V70.88l-.05-.11a.4.4,0,0,0-.08-.15.67.67,0,0,1-.06-.12s0-.07-.07-.07h-4l-.11-.06c-.06-.06-.12-.1-.13-.13s-.06,0-.1-.06a.25.25,0,0,0,0-.06V67.9h4.05a.81.81,0,0,0,.28-.09,1.66,1.66,0,0,0,.23-.23,1,1,0,0,1,.12-.15.59.59,0,0,0,.07-.1V62.9s0,0,.08-.07a.15.15,0,0,1,.11-.06.43.43,0,0,1,.15-.09l.1,0h1.78l.1,0a.54.54,0,0,1,.15.09l.12.06.07.07v4.3a.79.79,0,0,0,.25.45.65.65,0,0,0,.45.25h3.54s0,0,.07.08a.36.36,0,0,0,.06.11s.06.1.08.15l.05.1v1.52a.4.4,0,0,1-.09.21,1.35,1.35,0,0,1-.17.17s-.08.07-.14.13l-.11.06h-3.55c-.12,0-.21.07-.27.24a1.09,1.09,0,0,0-.11.33v5.32a1,1,0,0,0,.11.34c.06.15.15.23.27.23h3.17l.1.07a.65.65,0,0,1,.15.12.69.69,0,0,1,.15.15.44.44,0,0,1,.11.11v1.77l-.26.25H120.73Z"/><path d="M140.35,78.44a.22.22,0,0,1,.14-.09l.28,0,.48,0,.45,0,.31,0a1.15,1.15,0,0,0,.32-.08.31.31,0,0,0,.17-.3.44.44,0,0,0-.13-.27.34.34,0,0,0-.25-.17h-4.67l-.27-.32V75.94l.27-.31h4.67a.24.24,0,0,0,.25-.13,1.21,1.21,0,0,0,0-.25.88.88,0,0,0,0-.24.23.23,0,0,0-.25-.14h-6.57a.15.15,0,0,1-.16-.13,2.9,2.9,0,0,1-.07-.34,2.11,2.11,0,0,1,0-.33v-.39a2.11,2.11,0,0,1,0-.33.62.62,0,0,1,.11-.26.26.26,0,0,1,.23-.12h6.46a.23.23,0,0,0,.23-.11.36.36,0,0,0,.05-.21.48.48,0,0,0-.05-.23.26.26,0,0,0-.23-.09h-4.56l-.25-.31V71l.25-.31H142a.43.43,0,0,0,.32-.09.49.49,0,0,0,.06-.27V70.1c0-.11-.06-.17-.14-.17h-4.31a.22.22,0,0,0-.06-.07.87.87,0,0,0,0-.12.68.68,0,0,1-.08-.15c0-.06-.06-.09-.06-.11v-3a.68.68,0,0,1,.14-.27c.09-.11.17-.17.24-.17h4.18a.12.12,0,0,0,.12-.13.84.84,0,0,0,0-.19.59.59,0,0,0,0-.17c0-.1,0-.14-.12-.14h-6.08a.31.31,0,0,1-.28-.17,1.13,1.13,0,0,1-.12-.38c0-.15,0-.28,0-.42s0-.2,0-.22v-.31a.75.75,0,0,1,0-.21l.25-.32h6.08a.43.43,0,0,0,.27-.11c.05-.1.13-.19.19-.31a2.22,2.22,0,0,1,.15-.32.49.49,0,0,1,.15-.21.42.42,0,0,1,.15-.07l.12-.06h1.76a.37.37,0,0,1,.31.17,2.31,2.31,0,0,1,.15.38c0,.13.11.25.15.36a.3.3,0,0,0,.28.17h6.33l.25.32v1.39l-.06,0s-.06.06-.06.09a1,1,0,0,0-.15.12c-.06,0-.09.07-.11.07h-6.2c-.05,0-.09,0-.11.14a.59.59,0,0,0,0,.17.84.84,0,0,0,0,.19c0,.07.06.13.11.13h4.3s.06,0,.11.08l.15.11.08.08,0,0v3.29l-.25.32H145.8c-.07,0-.11.06-.13.17a1.58,1.58,0,0,0,0,.23.36.36,0,0,0,.08.27c0,.05.13.09.32.09h4.56l.32.31v1.52l.44.38c.3,0,.57,0,.76,0a1.24,1.24,0,0,1,.48.13.62.62,0,0,1,.24.34,3.1,3.1,0,0,1,.06.68,1.59,1.59,0,0,1,0,.27v.19l-.25.25a1.45,1.45,0,0,1-.28,0,3.36,3.36,0,0,0-.59.07,1.66,1.66,0,0,0-.57.19.39.39,0,0,0-.27.36v2.4l-.32.26h-2a.36.36,0,0,1-.25-.11l-.19-.21-.19-.23a.37.37,0,0,0-.25-.09h-1.78a.31.31,0,0,0-.29.19c0,.13-.13.3-.21.49a6.11,6.11,0,0,1-.3.65,2.22,2.22,0,0,1-.55.66,2.91,2.91,0,0,1-.95.48,5.06,5.06,0,0,1-1.56.21h-.47a1.42,1.42,0,0,1-.29,0h-.19a1.29,1.29,0,0,1-.55-.67,2,2,0,0,1-.21-.85Zm.12-10.24a.29.29,0,0,0,.26.14h1.39a.46.46,0,0,0,.25-.12.26.26,0,0,0,.15-.19.08.08,0,0,0,0-.07.77.77,0,0,1-.06-.15.36.36,0,0,1-.05-.1h-1.9a.13.13,0,0,0-.14.1V68A.31.31,0,0,0,140.47,68.2Zm5.2,0a.3.3,0,0,0,.25.14h1.4a.29.29,0,0,0,.25-.14.33.33,0,0,0,.13-.24s0-.08,0-.15a.13.13,0,0,0-.12-.1h-1.9c-.06,0-.09,0-.11.1s0,.11,0,.15A.3.3,0,0,0,145.67,68.2Zm0,7.2c0,.1,0,.16.13.16h2c.09,0,.13-.06.15-.16v-.17a.35.35,0,0,0,0-.21s-.09-.09-.23-.09h-1.78c-.13,0-.21,0-.23.09a.6.6,0,0,0,0,.21A.76.76,0,0,0,145.67,75.4Zm0-2.6a.1.1,0,0,0,.11.1h1.9c.12,0,.19,0,.23-.08a.33.33,0,0,0,0-.15.59.59,0,0,0,0-.17c0-.08-.06-.1-.13-.1h-2c-.07,0-.11,0-.11.1a.57.57,0,0,0,0,.3Z"/><path d="M.32,98.4a3.81,3.81,0,0,1,.78-1,8.74,8.74,0,0,1,1-.78,12.14,12.14,0,0,0,1-.74,4.08,4.08,0,0,0,.78-.84A2,2,0,0,0,4.2,94v-.4a3.73,3.73,0,0,0,0-.47A.9.9,0,0,0,4,92.7a.49.49,0,0,0-.42-.17H1s-.06,0-.12-.12a1.25,1.25,0,0,0-.15-.19,1.14,1.14,0,0,0-.06-.15.31.31,0,0,1,0-.11V90.32L.89,90H3.8s.06-.06.11-.13a1.79,1.79,0,0,0,.16-.19.57.57,0,0,1,.07-.13.79.79,0,0,0,0-.12V87.28L4.45,87H6.73s.09.07.17.19L7,87.4v.13a1.8,1.8,0,0,1,0,.27c0,.15,0,.32,0,.49a2.33,2.33,0,0,0-.06.49,1.8,1.8,0,0,0,0,.27.64.64,0,0,0,.08.27.34.34,0,0,0,.18.24h.44a3.51,3.51,0,0,0,1-.13,4.19,4.19,0,0,1,1-.13,1.47,1.47,0,0,1,.27,0c.09,0,.15.09.15.22v2a.34.34,0,0,1-.25.32,2.35,2.35,0,0,1-.6.12l-.78,0a3.92,3.92,0,0,0-.8.15A1.36,1.36,0,0,0,7,92.6a1.05,1.05,0,0,0-.24.76A2.23,2.23,0,0,0,6.8,94a.45.45,0,0,0,.46.31,9.31,9.31,0,0,0,1.31-.08c.43,0,.87-.08,1.33-.08a9,9,0,0,1,2,.23,5.59,5.59,0,0,1,1.73.72,4,4,0,0,1,1.22,1.31,3.85,3.85,0,0,1,.47,2,4.33,4.33,0,0,1-.51,2.13A5,5,0,0,1,13.47,102a6.54,6.54,0,0,1-1.94.91,7.74,7.74,0,0,1-2.2.3A.81.81,0,0,1,8.7,103a2.11,2.11,0,0,1-.42-.58,5.62,5.62,0,0,1-.23-.76,3.86,3.86,0,0,1-.07-.71.35.35,0,0,1,.06-.21s.09-.09.2-.15c.37,0,.78-.06,1.3-.11a6.23,6.23,0,0,0,1.4-.33,3.6,3.6,0,0,0,1.14-.68,1.56,1.56,0,0,0,.48-1.23,1.52,1.52,0,0,0-.25-.88,2,2,0,0,0-.65-.57,3.43,3.43,0,0,0-.85-.3,3.73,3.73,0,0,0-.91-.1l-.59,0-1.07.1a3.67,3.67,0,0,0-1,.23c-.31.09-.46.24-.46.43v4.3a1.46,1.46,0,0,1-.21.79,1.79,1.79,0,0,1-.49.61,2.37,2.37,0,0,1-.72.38,2.77,2.77,0,0,1-.78.13A5,5,0,0,1,3,103.11a5,5,0,0,1-1.48-.76,3.86,3.86,0,0,1-1.12-1.16A2.74,2.74,0,0,1,0,99.69,2.6,2.6,0,0,1,.32,98.4ZM3,100.11a.94.94,0,0,0,.59.23,1,1,0,0,0,.38-.1.3.3,0,0,0,.19-.3V98.3a.12.12,0,0,0-.13-.13.66.66,0,0,0-.17,0l-.19,0c-.29.25-.5.44-.67.61a1,1,0,0,0-.25.76A.72.72,0,0,0,3,100.11Zm8.36-9.6a5,5,0,0,1,.28-.57,3.23,3.23,0,0,1,.4-.55.6.6,0,0,1,.42-.22s.06,0,.06,0l1,.42c.38.15.78.33,1.2.53a12.06,12.06,0,0,1,1.15.69,3.38,3.38,0,0,1,.88.76s0,0,0,0a1.08,1.08,0,0,1-.14.48,3.61,3.61,0,0,1-.32.61,4.36,4.36,0,0,1-.4.55.62.62,0,0,1-.42.23.27.27,0,0,1-.13,0L14.44,93c-.44-.23-.91-.47-1.37-.74a14.41,14.41,0,0,1-1.25-.8c-.36-.24-.55-.43-.55-.57A1.26,1.26,0,0,1,11.38,90.51Z"/><path d="M24.09,100.83a.4.4,0,0,1,0-.13,5.09,5.09,0,0,1-.34-.54,2.53,2.53,0,0,1-.3-.62,2.46,2.46,0,0,1-.17-.71,2.08,2.08,0,0,1,0-.66.53.53,0,0,0-.32-.11,1.52,1.52,0,0,1-.42-.06,1.71,1.71,0,0,1-.36-.1.24.24,0,0,1-.17-.24V96.14l.27-.31h4.56a.35.35,0,0,0,.22-.09.73.73,0,0,0,.17-.27,2.43,2.43,0,0,0,.1-.28,1.14,1.14,0,0,0,0-.25v-.15q0-.15-.06-.27c0-.09-.06-.17-.07-.23s-.08-.11-.14-.11H24.59l-.38-.3a.77.77,0,0,0-.44-.16,1.44,1.44,0,0,0-.55.12c-.17.07-.36.19-.53.28l-.54.35a3.17,3.17,0,0,1-.49.28,1.18,1.18,0,0,1-.46-.27,5,5,0,0,1-.43-.47,5.52,5.52,0,0,1-.36-.53c-.12-.17-.21-.31-.27-.38v-.19l.36-.29c.25-.19.55-.43.91-.74l1.22-1c.44-.36.85-.68,1.23-1l1.05-.86c.28-.25.47-.42.55-.51l.34-.42c.17-.23.38-.49.59-.76s.44-.53.65-.76.36-.34.45-.34H30s.15.09.38.28l.78.76c.3.29.62.63,1,1l1,1,.89.87a6.6,6.6,0,0,0,.59.51c.5.35,1,.65,1.48.93s1,.56,1.56.84V93a1.44,1.44,0,0,1-.15.31l-.4.55a5,5,0,0,1-.48.55c-.15.17-.28.28-.36.36h0l-.06,0a1.18,1.18,0,0,1-.59-.19,4.61,4.61,0,0,1-.53-.4c-.19-.15-.36-.27-.55-.4a1,1,0,0,0-.57-.17.39.39,0,0,0-.31.13l-.26.25-.13.11-.12.08H30.53c-.06,0-.09,0-.11.11a1.74,1.74,0,0,0-.1.23,1.1,1.1,0,0,0,0,.27c0,.07,0,.13,0,.15a1.21,1.21,0,0,0,0,.25,1,1,0,0,0,.1.28.87.87,0,0,0,.15.27.3.3,0,0,0,.23.09H35.6v2c0,.08-.05.13-.19.17A1.86,1.86,0,0,1,35,98a3.4,3.4,0,0,0-.46.07.52.52,0,0,0-.34.19,1.9,1.9,0,0,1,.32.31.63.63,0,0,1,.08.38,1,1,0,0,1-.17.55L34,100c-.15.17-.29.33-.4.48a.84.84,0,0,0-.19.53v.06s.07.11.15.19.1.13.11.13h2.78l.11.08.15.11.08.06s0,0,0,.07v1.64l0,0-.08.08a.3.3,0,0,1-.15.07l-.11.06H21.41a.36.36,0,0,1-.26-.13.41.41,0,0,1-.12-.25v-1.4a.54.54,0,0,1,.14-.27c.09-.11.17-.17.24-.17h2.53c.09,0,.13-.08.15-.21v-.36Zm2.4.51h.24a2.08,2.08,0,0,0,.4,0,.31.31,0,0,0,.23-.33V98.55a.39.39,0,0,0-.1-.27.69.69,0,0,0-.26-.17.86.86,0,0,0-.32,0l-.27,0c-.19,0-.36,0-.51,0s-.21.14-.21.37a.43.43,0,0,0,0,.13c0,.06,0,.09,0,.11l.76,1.52v.21a1.08,1.08,0,0,1-.06.38.76.76,0,0,0-.08.36A.17.17,0,0,0,26.49,101.34Zm.13-9.63c0,.1,0,.13.11.13H31s.06,0,.12-.11a1.07,1.07,0,0,0,.13-.15v-.12a.77.77,0,0,1-.06-.15.42.42,0,0,0-.07-.11L29,89.05h-.25l-.11.08-.21.21c-.07.09-.15.17-.23.26l-.21.21c-.05,0-.15.15-.28.29l-.42.47c-.15.15-.28.3-.42.46l-.28.3v.19A.8.8,0,0,0,26.62,91.71ZM31,98.06a.8.8,0,0,0-.32,0,.65.65,0,0,0-.25.17.33.33,0,0,0-.12.27V101a.19.19,0,0,0,.18.21.69.69,0,0,0,.26.06.65.65,0,0,0,.19,0,1.68,1.68,0,0,1,.17-.74c.14-.21.27-.44.4-.65a6.44,6.44,0,0,0,.4-.62,1.3,1.3,0,0,0,.19-.71.35.35,0,0,0-.28-.4,3.64,3.64,0,0,0-.56,0Z"/><path d="M44.52,94.14a2.31,2.31,0,0,1,.51-.76,2.38,2.38,0,0,1,.8-.51,2.8,2.8,0,0,1,1-.17,2.49,2.49,0,0,1,1.79.7,2.4,2.4,0,0,1,.7,1.79,2.68,2.68,0,0,1-.17,1,2.44,2.44,0,0,1-.51.79,2.19,2.19,0,0,1-.76.52,2.46,2.46,0,0,1-1,.19,2.42,2.42,0,0,1-2.54-2.55A2.33,2.33,0,0,1,44.52,94.14Z"/><path d="M60.32,102.25a7,7,0,0,0-.74.35,7.31,7.31,0,0,1-.74.36,1.89,1.89,0,0,1-.78.17.55.55,0,0,1-.39-.23,2,2,0,0,1-.4-.53,4,4,0,0,1-.33-.55,1.79,1.79,0,0,0-.19-.36v-.06c0-.11.17-.25.52-.42s.79-.36,1.33-.57,1.08-.42,1.71-.66S61.48,99.27,62,99a8.42,8.42,0,0,0,1.33-.74c.34-.24.53-.47.53-.7a.09.09,0,0,0,0-.06.1.1,0,0,0-.06-.07l-.05-.06a2.49,2.49,0,0,0-1.26.34c-.4.23-.8.48-1.21.74s-.8.52-1.2.74a2.56,2.56,0,0,1-1.27.35l-.29,0a.24.24,0,0,1-.23-.12l-.76-1.14s0,0,0-.07v-.1a.53.53,0,0,1,.35-.45,5.17,5.17,0,0,1,.87-.37L59.83,97A8.2,8.2,0,0,0,61,96.63a3.63,3.63,0,0,0,.86-.42.63.63,0,0,0,.36-.53,3.57,3.57,0,0,0-1,.15c-.31.1-.63.21-.93.33s-.61.22-.93.34a3.43,3.43,0,0,1-1,.15.53.53,0,0,1-.19,0,.31.31,0,0,1-.17-.11,1.58,1.58,0,0,1-.16-.21,2.62,2.62,0,0,0-.24-.34,2.66,2.66,0,0,0-.23-.35l-.13-.24-.12-.19a.47.47,0,0,1,0-.19c0-.14.1-.25.29-.35a3.32,3.32,0,0,1,.7-.24,8.12,8.12,0,0,1,.91-.19c.33-.06.65-.13.93-.21a7.07,7.07,0,0,0,.71-.25.41.41,0,0,0,.26-.34.29.29,0,0,0-.09-.17,1,1,0,0,0-.21-.13,1.15,1.15,0,0,0-.23-.1.19.19,0,0,0-.09,0s-.06,0-.08-.07-.06,0-.06-.06V91.33a.31.31,0,0,1,.17-.28.78.78,0,0,1,.35-.1h8.73a.43.43,0,0,1,.19.08,1.19,1.19,0,0,1,.21.15,1.35,1.35,0,0,1,.16.19c0,.06.07.09.07.13a2.4,2.4,0,0,1-.21,1.22,1,1,0,0,1-.49.38l-.5.15c-.15,0-.2.17-.2.42a1,1,0,0,0,.17.57.56.56,0,0,0,.49.26,1,1,0,0,0,.48-.15A3.77,3.77,0,0,0,70.3,94a2.24,2.24,0,0,0,.45-.38,3.69,3.69,0,0,0,.31-.27l.19,0a1.32,1.32,0,0,1,.51.16,2,2,0,0,1,.57.38,4.08,4.08,0,0,1,.46.47.73.73,0,0,1,.19.48.82.82,0,0,1-.4.68,7.23,7.23,0,0,1-.88.47,6.75,6.75,0,0,0-.89.46.83.83,0,0,0-.4.7,1.5,1.5,0,0,0,.51,1.07,12.9,12.9,0,0,0,1.09.93c.4.28.76.55,1.1.82s.49.47.49.68v.19a3.06,3.06,0,0,1-.19.27,4.26,4.26,0,0,0-.32.38l-.3.37-.21.25a4,4,0,0,0-.31.38c0,.08-.15.13-.3.13a2,2,0,0,1-1.31-.55,6,6,0,0,1-1.25-1.38,21.69,21.69,0,0,1-1.13-1.9c-.34-.69-.66-1.35-.93-2s-.51-1.25-.7-1.8-.32-.95-.4-1.22a.59.59,0,0,0-.15-.21.41.41,0,0,0-.21,0,.92.92,0,0,0-.59.24.67.67,0,0,0-.32.52,1.9,1.9,0,0,0,.38.83c.26.38.53.84.83,1.35A12.67,12.67,0,0,1,67,98.11a5.08,5.08,0,0,1,.36,1.9,4.72,4.72,0,0,1-.28,1.67,3.27,3.27,0,0,1-.8,1.3,3.64,3.64,0,0,1-1.26.85,4.53,4.53,0,0,1-1.65.31h-.47a1.42,1.42,0,0,1-.29,0h-.19a.49.49,0,0,1-.45-.38,7,7,0,0,1-.16-.69,2,2,0,0,0-.19-.66.57.57,0,0,0-.55-.31A2,2,0,0,0,60.32,102.25ZM57,88a.76.76,0,0,1,.15-.28.32.32,0,0,1,.23-.17h6a.23.23,0,0,0,.22-.21,1.55,1.55,0,0,0,.12-.46,1.5,1.5,0,0,1,.17-.45.37.37,0,0,1,.36-.21h1.65a.37.37,0,0,1,.36.21,1.26,1.26,0,0,1,.15.45,2.5,2.5,0,0,0,.14.46c0,.13.11.21.24.21h5.95l.11.07.14.12a.71.71,0,0,0,.07.09l.06,0v4H70.81c-.21,0-.3-.1-.34-.31a6.32,6.32,0,0,1,0-.64,3.42,3.42,0,0,0,0-.65.34.34,0,0,0-.38-.3H59.93a.32.32,0,0,0-.35.3,2.73,2.73,0,0,0,0,.65,6.32,6.32,0,0,1,0,.64c0,.21-.1.31-.25.31h-2L57,91.71Zm5.74,13.64a2.23,2.23,0,0,0,.34,0,2.87,2.87,0,0,0,.46-.07,2.31,2.31,0,0,0,.45-.21,1,1,0,0,0,.36-.33.8.8,0,0,0,.13-.47.51.51,0,0,0,0-.25s-.1-.07-.19-.07a1.2,1.2,0,0,0-.44.11,3.83,3.83,0,0,0-.57.29,2.52,2.52,0,0,0-.47.38.65.65,0,0,0-.19.38C62.57,101.61,62.62,101.67,62.74,101.68Z"/><path d="M79.59,102.56a3.68,3.68,0,0,0-.23.49c-.07.17-.15.34-.23.5a.48.48,0,0,1-.43.21h-.08s-.07,0-.07,0l-1.41-1.39v-.06a.26.26,0,0,1,0-.11,1.85,1.85,0,0,1,.11-.59c.08-.19.18-.38.27-.59s.19-.4.31-.61a3.34,3.34,0,0,0,.22-.57,19.73,19.73,0,0,0,.59-3.23,29.88,29.88,0,0,0,.17-3.3v-1.2a.34.34,0,0,0-.28-.32,4.59,4.59,0,0,0-.51-.1l-.5-.07a.26.26,0,0,1-.23-.27V89.56l.25-.32h2.17a.27.27,0,0,1,.11-.09c.06-.06.09-.1.13-.1s0,0,.1-.07.09,0,.09-.06V86.77a.56.56,0,0,0,.08-.11,1.48,1.48,0,0,0,.11-.14,1.35,1.35,0,0,1,.17-.17.42.42,0,0,1,.21-.09h1.52l.1.06a.3.3,0,0,1,.15.07.46.46,0,0,1,.13.08s.06,0,.06,0v2.15l.08.1a.63.63,0,0,1,.11.15l.15.19a.48.48,0,0,1,.11.13h1.52a1.51,1.51,0,0,0,.23.23c.15.11.23.19.27.21a.08.08,0,0,0,.07,0,.71.71,0,0,0,.54-.25,2.66,2.66,0,0,0,.34-.63c.07-.24.17-.51.25-.8a7.39,7.39,0,0,1,.24-.79,2.17,2.17,0,0,1,.34-.61.69.69,0,0,1,.56-.25l.49,0a2.84,2.84,0,0,1,.57.1,1.46,1.46,0,0,1,.47.22.5.5,0,0,1,.19.44.87.87,0,0,1-.05.34.76.76,0,0,0-.08.36.55.55,0,0,0,.12.31.27.27,0,0,0,.26.19h4.81l.26.19v2.09H89.68l-.29.07a1.14,1.14,0,0,0-.34.12c-.06,0-.09.05-.13.13s.21.25.26.34l.21.27c.06.09.12.19.19.28a1.46,1.46,0,0,1,.23.38l.13.12a.41.41,0,0,0,.12.07H94c.06,0,.13.06.25.17a.53.53,0,0,1,.13.27v1.39a.51.51,0,0,1-.13.26c-.12.14-.19.19-.25.19H92a.17.17,0,0,0-.15.12.69.69,0,0,0-.14.24c0,.1,0,.18-.07.27a.76.76,0,0,0,0,.19,1.13,1.13,0,0,0,.15.53.53.53,0,0,0,.49.29h2.4v2l-.25.31h-2c-.13,0-.19,0-.23.13a.93.93,0,0,0,0,.23,1.44,1.44,0,0,0,.46,1,6.87,6.87,0,0,0,1,.88l1,.76c.28.23.43.42.43.61a.9.9,0,0,1-.17.47,2.91,2.91,0,0,1-.38.53,3.06,3.06,0,0,1-.47.48.7.7,0,0,1-.44.19,1.19,1.19,0,0,1-.85-.42,9.82,9.82,0,0,1-.78-.91c-.25-.34-.5-.65-.71-.93s-.39-.42-.57-.42h-.07s-.06,0-.12.08a.36.36,0,0,0-.13,0c-.13.15-.34.36-.61.65a11,11,0,0,1-.83.85,7.34,7.34,0,0,1-1,.72,1.68,1.68,0,0,1-1,.33.62.62,0,0,1-.19,0,3.34,3.34,0,0,1-.31-.29c-.13-.11-.24-.24-.38-.38a4.16,4.16,0,0,1-.32-.39.78.78,0,0,1-.13-.38c0-.2.15-.4.47-.61l1.07-.74a9.23,9.23,0,0,0,1-.92A1.62,1.62,0,0,0,88.56,99a1.38,1.38,0,0,0,0-.26c0-.12-.1-.17-.23-.17H86l-.25-.31V96.65A.25.25,0,0,1,86,96.4a1,1,0,0,1,.38-.09,2.18,2.18,0,0,0,.4-.08A.18.18,0,0,0,86.9,96a.5.5,0,0,0-.17-.42,3.6,3.6,0,0,0-.4-.28,1.87,1.87,0,0,1-.39-.25.44.44,0,0,1-.19-.4,1.49,1.49,0,0,1,.13-.59l.28-.53a5.3,5.3,0,0,0,.27-.59,1.5,1.5,0,0,0,.13-.64,2,2,0,0,1-.66-.1,2.58,2.58,0,0,1-.48-.21c-.15-.09-.3-.15-.43-.22a1.35,1.35,0,0,0-.5-.1H81.83a.35.35,0,0,0-.26.11.53.53,0,0,0-.17.25l-.06.32a1.32,1.32,0,0,0,0,.27,1.62,1.62,0,0,0,.13.59.52.52,0,0,0,.52.3h2.65s.08,0,.12.1a1,1,0,0,1,.09.21,1,1,0,0,1,0,.24v.52c0,.24,0,.64-.06,1.18s0,1.06-.07,1.61-.06,1-.08,1.52,0,.76,0,.89c0,.57-.09,1.12-.17,1.64a4,4,0,0,1-.43,1.36,2.28,2.28,0,0,1-.92,1,3,3,0,0,1-1.61.37.69.69,0,0,1-.63-.29,2.08,2.08,0,0,1-.26-.61c-.06-.23-.14-.43-.19-.63a.38.38,0,0,0-.4-.28A.47.47,0,0,0,79.59,102.56Zm1.16-.71a1.21,1.21,0,0,0,1.1-.58,4,4,0,0,0,.46-1.37,9.53,9.53,0,0,0,.07-1.6c0-.55,0-1,0-1.27v-.76A.84.84,0,0,0,82.1,96a.48.48,0,0,0-.31-.08c-.17,0-.32.13-.45.38a8.26,8.26,0,0,0-.4,1c-.11.38-.23.8-.32,1.24s-.17.89-.23,1.29a8.65,8.65,0,0,0-.15,1q-.06.47-.06.57Q80.18,101.85,80.75,101.85ZM88,96.19a1.31,1.31,0,0,0,.41.08A.56.56,0,0,0,88.9,96a.77.77,0,0,0,.17-.51,3.24,3.24,0,0,0,0-.44c0-.15-.13-.24-.32-.24a.5.5,0,0,0-.32.11,3.58,3.58,0,0,0-.29.27,1.07,1.07,0,0,0-.23.34,1.74,1.74,0,0,0-.11.32C87.74,96.06,87.84,96.16,88,96.19Z"/><path d="M102.28,94.14a2.31,2.31,0,0,1,.51-.76,2.38,2.38,0,0,1,.8-.51,2.8,2.8,0,0,1,1-.17,2.49,2.49,0,0,1,1.79.7,2.4,2.4,0,0,1,.7,1.79,2.68,2.68,0,0,1-.17,1,2.44,2.44,0,0,1-.51.79,2.19,2.19,0,0,1-.76.52,2.46,2.46,0,0,1-1,.19,2.42,2.42,0,0,1-2.54-2.55A2.33,2.33,0,0,1,102.28,94.14Z"/><path d="M123.44,100.72a.55.55,0,0,0-.19,0h-.13A13.28,13.28,0,0,1,121.6,102a10.35,10.35,0,0,1-1.75,1,10.75,10.75,0,0,1-1.88.73,8,8,0,0,1-2,.26.9.9,0,0,1-.23,0,.53.53,0,0,1-.21-.11c0-.06-.11-.17-.19-.32s-.21-.33-.3-.5a3.65,3.65,0,0,1-.29-.55,1.42,1.42,0,0,1-.11-.47v-.19c0-.06.05-.12.13-.12l.38-.07.57-.12.59-.11.36-.08a5.82,5.82,0,0,0,.61-.13,8,8,0,0,0,.87-.23,5,5,0,0,0,.82-.32c.25-.14.36-.29.36-.46,0,0,0,0,0-.07a.14.14,0,0,1-.07-.06l-.16-.11c0-.06-.09-.08-.11-.08h-4l-.24-.32V98a.34.34,0,0,1,.19-.31.51.51,0,0,1,.3-.13H121a.23.23,0,0,0,.21-.15.93.93,0,0,0,.06-.29.88.88,0,0,0-.06-.28.21.21,0,0,0-.21-.17h-5.83l-.09-.06c-.06-.06-.12-.09-.16-.13s0,0-.09-.08,0,0,0,0V94.75a.37.37,0,0,1,.19-.3.59.59,0,0,1,.32-.14h6.22c.05,0,.09,0,.11-.13a.76.76,0,0,0,0-.19.37.37,0,0,0-.19-.3.52.52,0,0,0-.32-.14h-4.7V91.71s0,0,0-.06l.1-.07a11.17,11.17,0,0,1,.24-.19h4.7c.05,0,.09,0,.11-.12a.8.8,0,0,0,0-.19.49.49,0,0,0-.13-.28.36.36,0,0,0-.27-.17h-5.43l-.27-.31V88.8a.53.53,0,0,1,.15-.28c.1-.12.17-.17.23-.17h2s.08,0,.15-.13a.41.41,0,0,0,.1-.18s0-.11-.06-.26a1.2,1.2,0,0,1-.05-.25s0-.06,0-.09v-.12a.54.54,0,0,1,.22-.42,3.85,3.85,0,0,1,.54-.3,3.28,3.28,0,0,1,.59-.17,2.64,2.64,0,0,1,.45-.06.69.69,0,0,1,.57.31,6.6,6.6,0,0,1,.36.64c.1.25.21.46.31.67a.44.44,0,0,0,.4.3h3.15a.52.52,0,0,0,.47-.3c.12-.21.21-.42.33-.67a3.92,3.92,0,0,1,.34-.64.71.71,0,0,1,.61-.31l.53,0a4,4,0,0,1,.68.1,1.62,1.62,0,0,1,.61.19.43.43,0,0,1,.25.41.66.66,0,0,1-.14.44.67.67,0,0,0-.15.44,1,1,0,0,0,0,.21c0,.11.06.17.13.17h2.15c.06,0,.13.05.25.17a.63.63,0,0,1,.13.28v1.52l-.25.31h-5.45c-.19,0-.28,0-.32.09a.36.36,0,0,0-.08.27,1.41,1.41,0,0,0,0,.23c0,.11.06.17.13.17h4.81l.1.07a.65.65,0,0,1,.15.12l.09.07s0,.06,0,.06v1.84h-4.94c-.17,0-.26,0-.32.08a.14.14,0,0,0-.06.17,1.77,1.77,0,0,0,.08.25.66.66,0,0,1,.05.26h6.2s.05,0,.11.08l.15.11s.08.08.16.14a.5.5,0,0,1,.09.11v1.52a.53.53,0,0,1-.13.27c-.12.11-.19.17-.25.17h-6.71a.19.19,0,0,0-.22.19.86.86,0,0,0,0,.3v.23c0,.11.06.17.13.17h7l.1.08c.06,0,.11.07.15.11a1.05,1.05,0,0,1,.15.15.35.35,0,0,0,.1.1v1.4a.24.24,0,0,0,0,.1l-.08.15-.07.11-.06.08h-4.43c-.11,0-.19,0-.2.09a.53.53,0,0,0-.06.23.68.68,0,0,0,.36.55,4.66,4.66,0,0,0,.91.36,7.75,7.75,0,0,0,1.2.23l1.19.19a5.73,5.73,0,0,1,.94.19c.24.08.36.17.36.29a1.63,1.63,0,0,1-.14.59,2.88,2.88,0,0,1-.34.68,2.47,2.47,0,0,1-.51.59.77.77,0,0,1-.55.25,7.35,7.35,0,0,1-1.9-.25,7.8,7.8,0,0,1-1.81-.7,10.05,10.05,0,0,1-1.63-1,9.36,9.36,0,0,1-1.37-1.29A.56.56,0,0,0,123.44,100.72Z"/><path d="M138.59,99.82a.71.71,0,0,0-.12,0,.47.47,0,0,0-.15,0,1.2,1.2,0,0,0-.61.16,1.31,1.31,0,0,1-.61.15.81.81,0,0,1-.47-.21,2.57,2.57,0,0,1-.42-.49,5.86,5.86,0,0,1-.32-.61,1.61,1.61,0,0,1-.12-.55V98c0-.06.06-.12.16-.12a19.84,19.84,0,0,0,3.64-2.22,24.78,24.78,0,0,0,3.2-2.85h2.65a1.54,1.54,0,0,1,.29.23c.15.15.38.32.65.55l.87.72c.3.27.61.51.91.76s.57.48.8.65a5.61,5.61,0,0,0,.53.38,13,13,0,0,0,1.6.76,11.39,11.39,0,0,1,1.57.76c.08,0,.1.07.12.11s0,.08,0,.15a.25.25,0,0,1,0,.12,1.2,1.2,0,0,1-.19.32c-.1.13-.19.28-.31.44a4.39,4.39,0,0,1-.3.45l-.21.31-.25.32c0,.06-.11.08-.24.08a1.38,1.38,0,0,1-.59-.16,3.46,3.46,0,0,0-.57-.24H150a.39.39,0,0,0-.34.15.47.47,0,0,0-.17.36v3.8l-.06.06a.83.83,0,0,0-.13.07s0,0-.12.06a.28.28,0,0,1-.13.06,1.83,1.83,0,0,1-.19,0h-.7c-.34,0-.65,0-.91,0a1.81,1.81,0,0,1-.86-.38h-4.69a1.78,1.78,0,0,1-.82.38c-.26,0-.57,0-.89,0h-.4a1,1,0,0,1-.25,0h-.17a.33.33,0,0,1-.13-.06c-.08,0-.11,0-.11-.06a.91.91,0,0,0-.14-.07l-.05-.06v-3.8Zm-1.68-6.4a.45.45,0,0,1,.16-.36,1.79,1.79,0,0,1,.36-.21,4.23,4.23,0,0,0,.38-.23.42.42,0,0,0,.15-.34s0-.06,0-.06a.24.24,0,0,0-.11-.13h-.31a3.39,3.39,0,0,1-.45,0l-.5,0a1,1,0,0,1-.4-.18l-.15-.15-.09-.11V88l.38-.45h5.94a.33.33,0,0,0,.33-.21,4.17,4.17,0,0,0,.09-.46,1.85,1.85,0,0,1,.11-.45.37.37,0,0,1,.37-.21h1.76a.33.33,0,0,1,.34.21,1.5,1.5,0,0,1,.16.45,1.92,1.92,0,0,0,.13.46.27.27,0,0,0,.26.21h6.08a.31.31,0,0,1,.23.17.63.63,0,0,1,.15.28v3.54q0,.11-.21.24a.65.65,0,0,1-.3.14.94.94,0,0,1-.21,0c-.11,0-.23,0-.36,0l-.34,0a1.22,1.22,0,0,1-.23,0,.18.18,0,0,0-.11.1.36.36,0,0,0,0,.15v.13a.4.4,0,0,0,.15.13c.1.08.17.16.27.25a1.68,1.68,0,0,1,.24.29.5.5,0,0,1,.12.28.82.82,0,0,1-.19.49,2.73,2.73,0,0,1-.48.48,5.21,5.21,0,0,1-.55.36,1.19,1.19,0,0,1-.51.13.7.7,0,0,1-.4-.13c-.15-.1-.3-.19-.44-.3l-.36-.35a1.67,1.67,0,0,0-.25-.24c-.09-.08-.26-.19-.51-.38s-.49-.38-.76-.57l-.76-.57c-.25-.17-.42-.31-.51-.38s0,0-.06-.12a.22.22,0,0,1-.06-.13.35.35,0,0,1,0-.06.63.63,0,0,1,.15-.36,2.72,2.72,0,0,1,.34-.34,3.85,3.85,0,0,1,.34-.26.76.76,0,0,0,.19-.12.62.62,0,0,0,0-.19v-.19c0-.09-.06-.13-.15-.13h-4.81l-.07,0a.14.14,0,0,0-.06.09v.06a.32.32,0,0,0,.21.34l.49.17a2.45,2.45,0,0,1,.5.17.36.36,0,0,1,.21.32,1,1,0,0,1-.25.54,4.92,4.92,0,0,1-.63.79,8,8,0,0,1-.87.88c-.33.3-.65.57-1,.81a9.48,9.48,0,0,1-.91.63,1.49,1.49,0,0,1-.69.25.34.34,0,0,1-.13,0,14.14,14.14,0,0,1-1.39-1.52A.55.55,0,0,1,136.91,93.42Zm1.68-1.67a1.44,1.44,0,0,0,.55-.12,2.51,2.51,0,0,0,.53-.34,1.56,1.56,0,0,0,.42-.43,1.3,1.3,0,0,0,.15-.55.5.5,0,0,0,0-.16.1.1,0,0,0-.11-.09h-1.28l-.24.26Zm2.81,9.33a.3.3,0,0,0,.34.26h4.69c.19,0,.31-.07.34-.23a1.55,1.55,0,0,0,.06-.39c0-.06,0-.14,0-.23a1.1,1.1,0,0,0,0-.27,1,1,0,0,0-.11-.21.39.39,0,0,0-.23-.07h-4.69a.31.31,0,0,0-.34.26,2.15,2.15,0,0,0-.06.44A2.07,2.07,0,0,0,141.4,101.08Zm.85-3.63a.14.14,0,0,0,.14.09h3.66c.08,0,.12,0,.12-.09a1.31,1.31,0,0,0,0-.17v-.12l-1.65-1.65-.11-.08a.62.62,0,0,1-.14-.05h-.13a1.23,1.23,0,0,1-.13.05c-.08,0-.12.06-.12.08l-1.65,1.65a.29.29,0,0,0,0,.12A1.59,1.59,0,0,1,142.25,97.45Zm5.51-6.75a2.14,2.14,0,0,0,.5.36,3.65,3.65,0,0,0,.55.29,1,1,0,0,0,.41.11.29.29,0,0,0,.31-.22,1.36,1.36,0,0,0,.07-.42.8.8,0,0,0,0-.19c0-.08,0-.15-.05-.25a1.71,1.71,0,0,0-.13-.23.18.18,0,0,0-.18-.09H147.7c-.07,0-.13,0-.13.09a.66.66,0,0,0,0,.17A.51.51,0,0,0,147.76,90.7Z"/><path d="M127.6,115.84a4.71,4.71,0,0,1,1.45,1.11,5.25,5.25,0,0,1,.89,1.61,6.13,6.13,0,0,1,.32,2,2.21,2.21,0,0,1,0,.32,2,2,0,0,1-.05.49,1.42,1.42,0,0,1-.14.44.36.36,0,0,1-.3.19h-5.57c-.09,0-.13.06-.15.21v.25a1.12,1.12,0,0,0,.25.76,2.11,2.11,0,0,0,.63.51,2.2,2.2,0,0,0,.79.28,3.88,3.88,0,0,0,.78.1,3.31,3.31,0,0,0,1-.19,2.86,2.86,0,0,1,1-.21.59.59,0,0,1,.4.19,1.28,1.28,0,0,1,.34.42,3.8,3.8,0,0,1,.25.49,1.45,1.45,0,0,1,.1.42.84.84,0,0,1-.48.7,4.76,4.76,0,0,1-1.08.42,9.17,9.17,0,0,1-1.22.21,5.68,5.68,0,0,1-.85.07,5.87,5.87,0,0,1-3.46-1.19,4.94,4.94,0,0,1-1.29-1.37,3.25,3.25,0,0,1-.49-1.75v-2.54a3.32,3.32,0,0,1,.45-1.67,4.64,4.64,0,0,1,1.2-1.37,5.66,5.66,0,0,1,1.57-.93,4.53,4.53,0,0,1,3.61,0ZM124,119.62a.2.2,0,0,0,.22.14h3a.07.07,0,0,0,.06,0s.06-.06.06-.08v-.15c0-.11,0-.17,0-.23a1.08,1.08,0,0,0-.5-1,2,2,0,0,0-1.1-.3,1.69,1.69,0,0,0-.61.1,2.64,2.64,0,0,0-.59.26,1.46,1.46,0,0,0-.45.44,1,1,0,0,0-.19.63A1.31,1.31,0,0,0,124,119.62Z"/><path d="M138.09,115.08a.44.44,0,0,0,.08.1.55.55,0,0,1,.11.15,2.38,2.38,0,0,0,.17.19l.1.13h1.76s0,0,.12.12a1.46,1.46,0,0,0,.13.19,1,1,0,0,1,.08.15.22.22,0,0,1,.05.11v1.39a.19.19,0,0,1-.05.11.87.87,0,0,1-.08.14,1.46,1.46,0,0,0-.13.19c-.08.09-.1.13-.12.13h-1.76a.19.19,0,0,0-.13.09c0,.06-.1.14-.14.21a2,2,0,0,0-.09.25.58.58,0,0,0,0,.15v3.54a1.88,1.88,0,0,0,.19,1,1.11,1.11,0,0,0,.49.42,2.05,2.05,0,0,0,.65.15,1.91,1.91,0,0,1,.64.19,1.22,1.22,0,0,1,.48.5,2.17,2.17,0,0,1,.21,1.1.66.66,0,0,1-.23.53,1.49,1.49,0,0,1-.57.25,3.82,3.82,0,0,1-.68.07h-.61a4,4,0,0,1-1.33-.22,3.83,3.83,0,0,1-1.24-.63,3.5,3.5,0,0,1-.89-1,2.58,2.58,0,0,1-.34-1.33v-4.69a.37.37,0,0,0-.23-.38,1.4,1.4,0,0,0-.49-.15,2.63,2.63,0,0,1-.52-.15.33.33,0,0,1-.22-.33v-1.52a.38.38,0,0,1,.22-.38l.54-.17a2.51,2.51,0,0,0,.55-.17.57.57,0,0,0,.34-.42s0-.13,0-.28.05-.32.09-.49.06-.33.08-.48a1.77,1.77,0,0,1,0-.27.66.66,0,0,1,0-.13c0-.08.06-.15.08-.23l.11-.21a.23.23,0,0,1,.16-.07h2.33Z"/><path d="M150.52,115.48a4.16,4.16,0,0,1,.91.17,2.64,2.64,0,0,1,.82.35.68.68,0,0,1,.34.58,1.53,1.53,0,0,1-.12.56,1.73,1.73,0,0,1-.3.53,2.27,2.27,0,0,1-.4.42.94.94,0,0,1-.51.17,2.32,2.32,0,0,1-.65-.08,3,3,0,0,0-.64-.08,2.47,2.47,0,0,0-1.09.25,2.36,2.36,0,0,0-.72.65,3.16,3.16,0,0,0-.42,1,4.21,4.21,0,0,0-.13,1.08,4,4,0,0,0,.13,1,3,3,0,0,0,.42,1,2,2,0,0,0,.7.67,2,2,0,0,0,1,.27,2.06,2.06,0,0,0,.87-.21,1.81,1.81,0,0,1,.86-.19.52.52,0,0,1,.4.19,2.22,2.22,0,0,1,.34.45c.09.19.17.36.25.55a2.07,2.07,0,0,1,.09.48.77.77,0,0,1-.4.66,3.08,3.08,0,0,1-.93.44,6.39,6.39,0,0,1-1,.21,4.86,4.86,0,0,1-.82.07,6,6,0,0,1-1.77-.3,6,6,0,0,1-1.67-.87,4.79,4.79,0,0,1-1.25-1.37,3.29,3.29,0,0,1-.5-1.77v-2.54a3,3,0,0,1,.54-1.77,4.85,4.85,0,0,1,1.34-1.37,6.9,6.9,0,0,1,1.79-.87,5.67,5.67,0,0,1,1.79-.31A5.59,5.59,0,0,1,150.52,115.48Z"/><path d="M154.47,135.4q-12.28,8.68-24,18.15c-.48.38-.31.69.22.82a2.81,2.81,0,0,0,2.05-.55q11.72-9.45,24-18.14c.52-.37.29-.7-.22-.83a3,3,0,0,0-2.05.55Z"/><path d="M120,160.08a.85.85,0,0,1,0,.23v-.18a.59.59,0,0,1-.09.32l.11-.19a1.08,1.08,0,0,1-.16.2l.19-.19-.15.13.26-.18a.54.54,0,0,1-.15.09l.33-.16-.13,0,.38-.12-.12,0,.39-.08-.12,0,.37,0H121l.32,0a.8.8,0,0,1-.15,0l.26.07-.17-.07.19.11a.61.61,0,0,1-.2-.19.62.62,0,0,0-.31-.14,1.16,1.16,0,0,0-.45,0,2.1,2.1,0,0,0-.56.07,2.94,2.94,0,0,0-.58.16l-.33.16a1.6,1.6,0,0,0-.46.36l-.1.19a.3.3,0,0,0,.09.33,1,1,0,0,0,.55.37,2.53,2.53,0,0,0,.78.1,4.45,4.45,0,0,0,1-.13,4,4,0,0,0,1.39-.65,1.92,1.92,0,0,0,.59-.71.72.72,0,0,0,.07-.25.93.93,0,0,0,0-.44c-.07-.22-.34-.29-.54-.33a2.09,2.09,0,0,0-.5,0,2.82,2.82,0,0,0-.57.09,2.68,2.68,0,0,0-1,.46c-.14.13-.38.34-.3.56Z"/><path d="M124.86,1.88l19.08,16.24c.95.8,3.5-.57,2.25-1.64L127.11.24c-1-.8-3.5.57-2.25,1.64Z"/><path d="M148.71,24.71h0l-.32,0a3.69,3.69,0,0,1,.46.08l-.26-.07a2.73,2.73,0,0,1,.68.29l-.18-.11a2.76,2.76,0,0,1,.86.84l-.1-.15.05.08a.31.31,0,0,0,.19.21.63.63,0,0,0,.35.13,2.82,2.82,0,0,0,1.08-.09,2.71,2.71,0,0,0,1-.46l.19-.19a.42.42,0,0,0,.11-.38,2.88,2.88,0,0,0-1-1.08,3.08,3.08,0,0,0-.75-.37,5,5,0,0,0-1.2-.21,2.68,2.68,0,0,0-.56.07,2.33,2.33,0,0,0-.57.17,1.58,1.58,0,0,0-.46.25A1,1,0,0,0,148,24c-.11.16-.19.37,0,.53a1.22,1.22,0,0,0,.77.2Z"/></svg>