<svg id="レイヤー_1" data-name="レイヤー 1" xmlns="http://www.w3.org/2000/svg" viewBox="0 0 144.18 123.49"><path d="M.66,52.38a4.49,4.49,0,0,1,1.67-1.3,7.57,7.57,0,0,1,2.18-.64c.79-.13,1.54-.24,2.24-.29L7,49.87v-1.1C7,47.38,7,46,7,44.59s-.09-2.78-.09-4.18A1.72,1.72,0,0,1,7,40a.36.36,0,0,1,.38-.22H10a.35.35,0,0,1,.28.15.36.36,0,0,1,.16.29v3.08l.31.28h5.12l.29.31v2.33c0,.2-.13.33-.42.36a6,6,0,0,1-1.06,0c-.41,0-.88-.07-1.38-.11a7.81,7.81,0,0,0-1.39,0,2.24,2.24,0,0,0-1.05.4,1.23,1.23,0,0,0-.42,1c0,.22,0,.46,0,.73a3.88,3.88,0,0,0,0,.77,4.18,4.18,0,0,0,.07.72,1.19,1.19,0,0,0,.29.62,2,2,0,0,0,.72.57,8.33,8.33,0,0,0,1.23.57c.47.2.93.42,1.43.62a11.66,11.66,0,0,1,1.37.68,3.87,3.87,0,0,1,1,.73,1.1,1.1,0,0,1,.4.79,1.54,1.54,0,0,1-.2.59,4.37,4.37,0,0,1-.46.84,4.23,4.23,0,0,1-.58.75.9.9,0,0,1-.59.33,1.48,1.48,0,0,1-.84-.31,7,7,0,0,1-1-.68c-.33-.27-.64-.53-.93-.79a7.53,7.53,0,0,0-.72-.58.56.56,0,0,1-.16,0h-.15a.4.4,0,0,0-.35.29l-.33.72q-.21.43-.51.93a3.8,3.8,0,0,1-.88.92,4.83,4.83,0,0,1-1.36.71,7.15,7.15,0,0,1-2.05.28,10.54,10.54,0,0,1-2-.2,5.56,5.56,0,0,1-1.87-.68A4.17,4.17,0,0,1,.53,56.53a3.46,3.46,0,0,1-.53-2A3.37,3.37,0,0,1,.66,52.38ZM3.56,55a1.34,1.34,0,0,0,.51.37,2.72,2.72,0,0,0,.64.16c.24,0,.46,0,.66,0a2,2,0,0,0,1.32-.4,1.55,1.55,0,0,0,.51-1.27.82.82,0,0,0-.14-.51.62.62,0,0,0-.33-.24,1.06,1.06,0,0,0-.48-.11H5.72a5.17,5.17,0,0,0-.75,0,2.94,2.94,0,0,0-.75.18,1.58,1.58,0,0,0-.61.4,1,1,0,0,0-.24.72A1,1,0,0,0,3.56,55Z"/><path d="M28.91,56c0-.09,0-.13.13-.16A16.59,16.59,0,0,0,32,55a7.7,7.7,0,0,0,2.38-1.43A5.87,5.87,0,0,0,36,51.41a7.31,7.31,0,0,0,.55-3,11.42,11.42,0,0,0-.09-1.47,4.77,4.77,0,0,0-.37-1.52,3.45,3.45,0,0,0-.84-1.23,2,2,0,0,0-1.4-.48,3.21,3.21,0,0,0-1.65.41,4.57,4.57,0,0,0-1.24,1.13,6.42,6.42,0,0,0-.88,1.56,10.51,10.51,0,0,0-.55,1.78,13.19,13.19,0,0,0-.26,1.78,9.38,9.38,0,0,0,0,1.56.56.56,0,0,1-.3.47,2.29,2.29,0,0,1-.66.17,4.45,4.45,0,0,1-.73,0c-.22,0-.42,0-.57,0a.76.76,0,0,1-.77-.44A2.88,2.88,0,0,1,25.87,51a8.17,8.17,0,0,1,0-1.21,7.54,7.54,0,0,0,.07-.94,43.23,43.23,0,0,1,.22-4.43c.18-1.45.33-2.9.51-4.4l.26-.24a.55.55,0,0,1,.33-.2l2.2.16a.56.56,0,0,1,.31.15.55.55,0,0,1,.13.29,6.7,6.7,0,0,0-.24,1,5.58,5.58,0,0,0-.07.9v.24a.91.91,0,0,1,0,.2.11.11,0,0,0,0,.09l.09,0a1.69,1.69,0,0,0,.81-.31c.31-.19.66-.41,1.06-.63a8,8,0,0,1,1.27-.66,3.85,3.85,0,0,1,1.48-.31,4.61,4.61,0,0,1,2.64.72,5.52,5.52,0,0,1,1.69,1.87,9.49,9.49,0,0,1,.93,2.54,14.43,14.43,0,0,1,.26,2.66,10.59,10.59,0,0,1-.66,3.65,10.87,10.87,0,0,1-1.87,3.28,9.8,9.8,0,0,1-2.9,2.33,8,8,0,0,1-3.7.88,1.23,1.23,0,0,1-.66-.28,3.77,3.77,0,0,1-.62-.64,4.64,4.64,0,0,1-.44-.82,2,2,0,0,1-.17-.7C28.89,56.18,28.91,56.12,28.91,56Z"/><path d="M50.31,40.78l.29-.31h2.93l.3.31V51.19a.15.15,0,0,1-.06.06s-.07.07-.09.09l-.15.07-.14.06H50.6l-.29-.28ZM53.72,56c.05-.07.07-.14.11-.14a15.38,15.38,0,0,0,2.34-1,8.91,8.91,0,0,0,1.8-1.3,8.59,8.59,0,0,0,1.39-1.71,12.07,12.07,0,0,0,1-2.27V40.34h3.3l.31.29v1.14c0,.29,0,.59,0,.9v.77c0,1.39,0,2.75-.07,4.12a16.94,16.94,0,0,1-.5,3.83,11,11,0,0,1-1.52,3.38,9.2,9.2,0,0,1-3.08,2.73l-.57.31a3,3,0,0,1-.66.35,5.69,5.69,0,0,1-.71.27,1.9,1.9,0,0,1-.68.13.65.65,0,0,1-.18,0,.38.38,0,0,1-.13,0l-2.05-2.05s-.06-.09-.11-.16a.79.79,0,0,1,0-.13S53.7,56.1,53.72,56Z"/><path d="M83.16,47.73a1.18,1.18,0,0,1,.35-.74,11,11,0,0,1,.84-.82c.31-.26.62-.53.92-.77a5,5,0,0,0,.69-.66v-.22a.79.79,0,0,0-.11-.35.34.34,0,0,0-.33-.18H73s0,0-.07-.06-.06-.07-.08-.07a1,1,0,0,0-.07-.17.56.56,0,0,1-.07-.14V41.22a.52.52,0,0,1,.16-.31.37.37,0,0,1,.28-.13H89.32a1.1,1.1,0,0,1,.29.11l.31.18a4.09,4.09,0,0,0,.35.33c.15.15.31.28.44.41s.26.27.37.4a1.62,1.62,0,0,1,.16.18v.44s-.07.09-.18.26a5.41,5.41,0,0,0-.42.6c-.13.21-.31.46-.46.72s-.31.46-.42.62-.44.66-.81,1.16a13.72,13.72,0,0,1-1.19,1.5A14.72,14.72,0,0,1,86.48,49a1.6,1.6,0,0,1-1,.57,1.13,1.13,0,0,1-.62-.2,4.26,4.26,0,0,1-.64-.5c-.19-.2-.39-.4-.57-.6a3.58,3.58,0,0,1-.44-.46Zm-9,8.34q.27-.2.6-.39l.68-.33A1.86,1.86,0,0,0,76,55a10.62,10.62,0,0,0,1.69-2,7.3,7.3,0,0,0,.9-2,10.1,10.1,0,0,0,.33-2.27c0-.79,0-1.67,0-2.64a.41.41,0,0,1,.15-.28.33.33,0,0,1,.28-.16h2.49a.61.61,0,0,1,.33.18l.27.26a2.09,2.09,0,0,0,0,.29c0,.13,0,.28,0,.44a2.24,2.24,0,0,0,0,.46c0,.13,0,.22,0,.26v.16a18.45,18.45,0,0,1-.24,2.88,11.77,11.77,0,0,1-.8,2.77,11,11,0,0,1-1.4,2.47,9.25,9.25,0,0,1-2.09,2c-.25.15-.47.33-.71.48a1.19,1.19,0,0,1-.77.27,1.79,1.79,0,0,1-.75-.22,4.9,4.9,0,0,1-.88-.51,3.54,3.54,0,0,1-.72-.66,1,1,0,0,1-.31-.62A.67.67,0,0,1,74.16,56.07Z"/><path d="M96,55.7l1-1.41c.35-.53.7-1,1-1.54a10.32,10.32,0,0,0,.66-1.12,12,12,0,0,0,.62-2.58,23.32,23.32,0,0,0,.22-2.77c0-.94,0-1.87,0-2.79s-.07-1.79-.07-2.58l.15-.28h3.08l.14.15a1.09,1.09,0,0,0,0,.2v1.34c0,1.41,0,2.84,0,4.29a28.07,28.07,0,0,1-.42,4.25,15.1,15.1,0,0,1-1.26,3.94,11.23,11.23,0,0,1-2.57,3.43.44.44,0,0,0-.15,0h-.14a2.35,2.35,0,0,1-.79-.15,5.72,5.72,0,0,1-.86-.42,4.12,4.12,0,0,1-.7-.57.88.88,0,0,1-.31-.64A2.32,2.32,0,0,1,96,55.7Zm12.81-15.07.06.06a.11.11,0,0,1,.07.09s.06.09.11.16a.58.58,0,0,1,0,.13V52.79c0,.07.07.14.22.2l.22.11a7.62,7.62,0,0,0,2.22-1.45c.62-.59,1.26-1.23,1.9-1.94l.13-.06a.31.31,0,0,1,.15-.07.91.91,0,0,1,.57.31,4,4,0,0,1,.58.73c.17.28.33.57.46.83a2.07,2.07,0,0,1,.17.62,1.74,1.74,0,0,1-.5.88c-.35.37-.79.81-1.32,1.28s-1.12.94-1.76,1.42-1.28,1-1.87,1.35a13.18,13.18,0,0,1-1.63,1,2.71,2.71,0,0,1-1.08.39,2,2,0,0,1-.53-.15,3.29,3.29,0,0,1-.63-.42,7.41,7.41,0,0,1-.58-.48c-.15-.18-.24-.31-.24-.42V40.63Z"/><path d="M121,49.78c0-.64,0-1.36.09-2.18s.08-1.65.15-2.51.18-1.62.31-2.35A8.57,8.57,0,0,1,122,41c.2-.46.47-.68.77-.68l.66,0a3.75,3.75,0,0,1,.82,0,2,2,0,0,1,.68.17.54.54,0,0,1,.31.51,12,12,0,0,1-.2,2.13c-.15.71-.31,1.41-.46,2.14s-.33,1.41-.46,2.11a9.9,9.9,0,0,0-.22,2.16,2.09,2.09,0,0,0,0,.35.22.22,0,0,0,.24.15.46.46,0,0,0,.38-.15.46.46,0,0,1,.37-.16.91.91,0,0,1,.33.11,1.81,1.81,0,0,1,.73.53.86.86,0,0,1,.11.24V51c-.09.33-.2.69-.31,1.1s-.24.82-.38,1.26-.22.88-.33,1.3-.22.83-.3,1.18a10.75,10.75,0,0,0-.22,1.28,1.53,1.53,0,0,1-.2.7.74.74,0,0,1-.57.31,9.89,9.89,0,0,1-1.46.07.87.87,0,0,1-.81-.55,4.83,4.83,0,0,1-.42-1.25A12,12,0,0,1,121,55V52.82c0-.29,0-.58,0-.88V49.78Zm6.44,3.56a6.93,6.93,0,0,1,.07-.88,2.85,2.85,0,0,1,.18-.79.39.39,0,0,1,.37-.33H130c.22,0,.35.07.39.22a2.62,2.62,0,0,1,.09.57,3.88,3.88,0,0,0,.07.75,1.44,1.44,0,0,0,.33.75,2.12,2.12,0,0,0,.94.55,4.91,4.91,0,0,0,1.81.24,14.7,14.7,0,0,0,2.2-.15,14.9,14.9,0,0,1,2.2-.16,1.86,1.86,0,0,1,.37,0c.18,0,.24.11.24.28v2.49c0,.22-.13.35-.42.46a2.89,2.89,0,0,1-.92.2,8.51,8.51,0,0,1-1,.07h-.75a5.34,5.34,0,0,1-.59,0h-1.21c-.66,0-1.36,0-2.11-.11a6.64,6.64,0,0,1-2-.49,3.86,3.86,0,0,1-1.54-1.1,3.14,3.14,0,0,1-.61-2C127.45,53.83,127.42,53.63,127.42,53.34Zm10.46-11.11v2.64l-.11.09c-.09,0-.16.07-.2.07a3.49,3.49,0,0,1-.46.11l-.42,0H129.8a1.69,1.69,0,0,1-.28,0,1.76,1.76,0,0,1-.4-.07,1.28,1.28,0,0,1-.33-.17.4.4,0,0,1-.15-.33v-2.2a.38.38,0,0,1,.15-.29.35.35,0,0,1,.29-.15h8.49Z"/><path d="M32.12,76.43A.42.42,0,0,0,32,76.1a.62.62,0,0,0-.33-.11h-.09l-1.26.57c-.5.26-1.08.51-1.65.75s-1.19.44-1.76.61a5,5,0,0,1-1.6.29,1.08,1.08,0,0,1-.66-.29,3.19,3.19,0,0,1-.6-.66,6.28,6.28,0,0,1-.39-.83,2.66,2.66,0,0,1-.16-.75l.71-.33c.46-.22,1.05-.48,1.76-.79s1.49-.66,2.35-1,1.65-.72,2.42-1.07,1.41-.64,2-.91A6.28,6.28,0,0,0,33.73,71a25.8,25.8,0,0,0,2.59-2c.82-.72,1.61-1.47,2.4-2.24h.44c.05,0,.18.08.4.28a6.65,6.65,0,0,1,.68.64c.24.22.44.46.64.66a4.18,4.18,0,0,1,.33.33.82.82,0,0,1,0,.22,1.25,1.25,0,0,1-.31.68,11.56,11.56,0,0,1-.79.86,12.45,12.45,0,0,1-1.08.88c-.37.31-.75.59-1.12.86l-1,.73c-.31.19-.53.35-.68.46l-.31.44V84.94l-.07.14a.57.57,0,0,1-.06.15s0,.07-.07.09-.07.06-.09.06H32.41l-.29-.3Z"/><path d="M48.53,83.18c0-.08.22-.28.62-.59s.86-.62,1.41-1,1-.7,1.58-1,.88-.62,1.1-.8c.53-.44,1-.85,1.39-1.25s.83-.88,1.25-1.39a.7.7,0,0,0,0-.13v-.15a1,1,0,0,0-.37-.77,5.63,5.63,0,0,0-.92-.68,13.35,13.35,0,0,0-1.21-.71c-.44-.22-.84-.44-1.21-.66a5.34,5.34,0,0,1-.93-.68,1,1,0,0,1-.37-.75,1.13,1.13,0,0,1,.22-.55,8.45,8.45,0,0,1,.52-.75,5,5,0,0,1,.58-.63c.22-.18.35-.27.44-.27h.59l4.69,3.08H58a.26.26,0,0,0,.11,0,.9.9,0,0,0,.7-.48,7.7,7.7,0,0,0,.62-1.19A13.54,13.54,0,0,0,60,70.29c.17-.57.33-1.1.5-1.56A9.4,9.4,0,0,1,61,67.52c.17-.33.35-.49.55-.49a6,6,0,0,1,.79.11,10.27,10.27,0,0,1,1.05.29,4.24,4.24,0,0,1,.93.46.77.77,0,0,1,.4.57,5.52,5.52,0,0,1-.36,1.76,18,18,0,0,1-.86,1.92c-.33.66-.66,1.27-1,1.87s-.64,1.1-.88,1.54v.28a1.39,1.39,0,0,0,.33.86,5.13,5.13,0,0,0,.84.84c.35.28.7.55,1.1.83s.77.53,1.1.8a7.4,7.4,0,0,1,.86.79,1.28,1.28,0,0,1,.33.81,1.66,1.66,0,0,1-.27.75,5.16,5.16,0,0,1-.66.9,5.55,5.55,0,0,1-.79.75,1.43,1.43,0,0,1-.7.31h-.09a.89.89,0,0,0-.16-.07.56.56,0,0,1-.13-.09l-3.52-3.52a1,1,0,0,0-.35-.26,1.73,1.73,0,0,0-.37,0,.56.56,0,0,0-.16,0h-.15a2.58,2.58,0,0,1-.35.37c-.2.2-.4.38-.6.57a7.87,7.87,0,0,0-.57.6c-.18.18-.29.31-.37.37s-.6.53-1.08,1-1,.93-1.61,1.39-1.12.86-1.67,1.21a2.76,2.76,0,0,1-1.3.53,1.35,1.35,0,0,1-.75-.27,4.48,4.48,0,0,1-.72-.61c-.25-.24-.47-.49-.69-.73s-.39-.46-.55-.62C48.55,83.27,48.53,83.23,48.53,83.18Z"/><path d="M90.2,77.59l-.28.31H72.75a.37.37,0,0,1-.35-.2.92.92,0,0,1-.09-.39v-2.8a.36.36,0,0,0,0-.13c0-.06.06-.13.09-.15a.24.24,0,0,1,.06-.09s.07-.07.09-.07H90.2Z"/><path d="M96.21,74.38v-.15l.22-.42a7.2,7.2,0,0,1,.37-.62,6.14,6.14,0,0,1,.48-.63,1.56,1.56,0,0,1,.55-.38.14.14,0,0,1,.07,0,1.48,1.48,0,0,1,.57.2,7.08,7.08,0,0,1,.91.46c.35.2.68.42,1.05.64s.68.48,1,.7a6,6,0,0,1,.72.62c.2.22.29.37.29.48a.4.4,0,0,1,0,.13.9.9,0,0,1,0,.16,2.73,2.73,0,0,1-.25.35c-.1.15-.21.33-.33.53l-.35.55a3,3,0,0,0-.24.33,1.15,1.15,0,0,1-.22.26c-.06.05-.15.05-.31.05h-.11c-.06,0-.08,0-.08,0l-4-2.48a.9.9,0,0,1-.28-.24,1.21,1.21,0,0,1,0-.36A.3.3,0,0,1,96.21,74.38Zm1.21,8.06a7.92,7.92,0,0,1,.88-.38l1.18-.37c.44-.11.86-.25,1.28-.38l1.15-.35a6.5,6.5,0,0,0,.77-.29,28.74,28.74,0,0,0,3-1.6,21.38,21.38,0,0,0,2.73-2,30,30,0,0,0,2.17-2.26c.62-.75,1.28-1.57,1.92-2.45l.13-.13s.09,0,.18,0a.92.92,0,0,1,.59.37,4.85,4.85,0,0,1,.55.88,10.15,10.15,0,0,1,.44,1,2.76,2.76,0,0,1,.18.73,1.51,1.51,0,0,1-.35.94c-.25.31-.49.6-.69.82-.5.53-1.1,1.12-1.8,1.76s-1.43,1.27-2.25,1.93-1.65,1.28-2.55,1.9-1.78,1.16-2.68,1.65a16.7,16.7,0,0,1-2.71,1.14,8.64,8.64,0,0,1-2.53.42,1,1,0,0,1-.66-.37,6,6,0,0,1-.62-.86,4.46,4.46,0,0,1-.46-1,2.67,2.67,0,0,1-.17-.75C97.09,82.63,97.2,82.52,97.42,82.44Zm2.24-12.61a.61.61,0,0,1-.09-.38.94.94,0,0,1,0-.22,4.09,4.09,0,0,1,.18-.37l.42-.71a3.88,3.88,0,0,1,.53-.68.84.84,0,0,1,.61-.31,2,2,0,0,1,.53.18c.26.13.55.26.9.46s.69.38,1.06.6.73.46,1,.68a6.35,6.35,0,0,1,.75.59c.2.2.31.33.31.44a1.82,1.82,0,0,1-.2.62,4.77,4.77,0,0,1-.48.79q-.3.36-.6.66a.85.85,0,0,1-.55.31,1,1,0,0,1-.28,0,1.06,1.06,0,0,1-.24-.16c-.14-.06-.36-.22-.71-.42s-.7-.43-1.08-.68l-1-.64-.69-.46A.94.94,0,0,1,99.66,69.83Zm9.46-1.74a1,1,0,0,1,.4-.27,1.92,1.92,0,0,1,.48-.15,2.24,2.24,0,0,1,.46-.07.93.93,0,0,1,.64.34,3.6,3.6,0,0,1,.6.76,4.32,4.32,0,0,1,.46.91,2.05,2.05,0,0,1,.2.74.55.55,0,0,1-.18.4,1.71,1.71,0,0,1-.44.31,3.2,3.2,0,0,1-.55.17,1.72,1.72,0,0,1-.46.07.85.85,0,0,1-.27,0,1.05,1.05,0,0,1-.17-.27L109,68.66v-.13A.69.69,0,0,1,109.12,68.09Zm3.1-1.12a2.17,2.17,0,0,1,.42-.27,2.86,2.86,0,0,1,.53-.2,2.18,2.18,0,0,1,.42-.06.91.91,0,0,1,.64.31,3.92,3.92,0,0,1,.59.74,4.25,4.25,0,0,1,.44.88,2,2,0,0,1,.18.75.61.61,0,0,1-.16.42,2,2,0,0,1-.39.31,2.25,2.25,0,0,1-.51.2,1.91,1.91,0,0,1-.44.09c-.15,0-.33-.14-.55-.38a7,7,0,0,1-.64-.83,6.21,6.21,0,0,1-.5-1,1.85,1.85,0,0,1-.2-.66A.49.49,0,0,1,112.22,67Z"/><path d="M128,80.61a2.43,2.43,0,0,1,1.74-.66,2.24,2.24,0,0,1,.9.17,2.85,2.85,0,0,1,.79.44,2.16,2.16,0,0,1,.73,1.61,2.15,2.15,0,0,1-.69,1.72,2.44,2.44,0,0,1-1.73.61,2.7,2.7,0,0,1-1.74-.57,2,2,0,0,1-.71-1.65A2.09,2.09,0,0,1,128,80.61Zm-.29-7.26a39.9,39.9,0,0,1-.26-4.49v-.22a.68.68,0,0,1,0-.29.49.49,0,0,1,.13-.2.4.4,0,0,1,.27-.08h3.67a.34.34,0,0,1,.29.13.72.72,0,0,1,.13.28,2.36,2.36,0,0,1,0,.36v.26a38.28,38.28,0,0,1-.28,4.42c-.2,1.48-.4,2.93-.6,4.38a3.48,3.48,0,0,1-.22.38.46.46,0,0,1-.37.19h-1.61a.47.47,0,0,1-.42-.26,2,2,0,0,1-.17-.46C128.11,76.3,127.91,74.82,127.71,73.35Z"/><path d="M141.62,97.4q-12.28,8.68-24,18.15c-.48.38-.32.69.22.82a2.82,2.82,0,0,0,2-.55q11.7-9.45,24-18.14c.51-.37.28-.7-.22-.83a3,3,0,0,0-2,.55Z"/><path d="M107.09,122.08a.45.45,0,0,1,0,.23v-.18a.7.7,0,0,1-.09.32l.1-.19a.75.75,0,0,1-.15.2l.19-.19-.16.13.27-.18a1.19,1.19,0,0,1-.15.09l.33-.16-.13,0,.38-.12-.12,0L108,122l-.12,0,.36,0h-.12l.32,0-.14,0,.26.07-.17-.07.18.11a.69.69,0,0,1-.19-.19.66.66,0,0,0-.32-.14,1.12,1.12,0,0,0-.45-.05,2.15,2.15,0,0,0-.56.07,2.84,2.84,0,0,0-.57.16l-.33.16a1.47,1.47,0,0,0-.46.36l-.11.19a.3.3,0,0,0,.09.33,1.07,1.07,0,0,0,.56.37,2.53,2.53,0,0,0,.78.1,4.53,4.53,0,0,0,1-.13,3.89,3.89,0,0,0,1.38-.65A1.92,1.92,0,0,0,110,122a.55.55,0,0,0,.07-.25,1.08,1.08,0,0,0,0-.44c-.08-.22-.34-.29-.54-.33a2.09,2.09,0,0,0-.5,0,2.61,2.61,0,0,0-.57.09,2.68,2.68,0,0,0-1,.46c-.14.13-.38.34-.31.56Z"/><path d="M112,1.88l19.08,16.24c.94.8,3.49-.57,2.24-1.64L114.25.24c-.94-.8-3.49.57-2.24,1.64Z"/><path d="M135.85,24.71h0l-.32,0a3.4,3.4,0,0,1,.46.08l-.26-.07a2.65,2.65,0,0,1,.69.29l-.19-.11a2.56,2.56,0,0,1,.86.84l-.09-.15a.59.59,0,0,1,0,.08.33.33,0,0,0,.19.21.69.69,0,0,0,.36.13,2.76,2.76,0,0,0,1.07-.09,2.68,2.68,0,0,0,1-.46l.19-.19a.45.45,0,0,0,.11-.38,3,3,0,0,0-1-1.08,3.34,3.34,0,0,0-.76-.37,4.79,4.79,0,0,0-1.19-.21,2.6,2.6,0,0,0-.56.07,2.41,2.41,0,0,0-.58.17,1.72,1.72,0,0,0-.46.25,1.06,1.06,0,0,0-.32.28c-.11.16-.2.37,0,.53a1.22,1.22,0,0,0,.77.2Z"/></svg>