<svg id="レイヤー_1" data-name="レイヤー 1" xmlns="http://www.w3.org/2000/svg" viewBox="0 0 101.1 147.49"><path d="M0,59c0-.14.13-.25.4-.35s.63-.2,1-.3L2.73,58c.46-.12.9-.25,1.32-.4a4.07,4.07,0,0,0,1-.53.92.92,0,0,0,.4-.74s0-.06,0-.06a.8.8,0,0,0-.13-.19c-.06-.1-.1-.13-.11-.13H.4l-.08-.06a.43.43,0,0,1,0-.13s-.06-.08-.1-.16l0-.09V54l.38-.44h6c.07,0,.15-.07.21-.21a4.71,4.71,0,0,0,.13-.51c0-.19.06-.36.08-.53A1.51,1.51,0,0,1,7,52s.08-.1.13-.17.12-.14.14-.14h1.9c.15,0,.21-.07.23-.21s0-.24,0-.32v-.3c0-.12,0-.33,0-.61s0-.57,0-.89,0-.63,0-.93a3.74,3.74,0,0,0,0-.61.78.78,0,0,0-.15-.29c-.08-.13-.15-.21-.23-.21H8c-.06,0-.14.16-.27.44s-.27.63-.42,1-.3.74-.45,1.1a3.12,3.12,0,0,1-.38.74,4.73,4.73,0,0,1-1,.87,7.69,7.69,0,0,1-1.22.75A10.06,10.06,0,0,1,3,52.72a4.55,4.55,0,0,1-1.27.19.86.86,0,0,1-.48-.21,2.43,2.43,0,0,1-.41-.49,2.38,2.38,0,0,1-.31-.59,1.58,1.58,0,0,1-.13-.52c0-.09.11-.19.32-.26l.8-.27c.34-.09.68-.23,1.06-.36a5.19,5.19,0,0,0,1-.57,3.2,3.2,0,0,0,.8-.8,1.9,1.9,0,0,0,.32-1.1v-.23c0-.11,0-.19-.13-.19H3.3a.25.25,0,0,0-.24.25,4.35,4.35,0,0,0-.08.57c0,.19,0,.38-.07.55a.35.35,0,0,1-.37.27H.78a.33.33,0,0,1-.25-.12.33.33,0,0,1-.13-.26V45.29A.78.78,0,0,1,.53,45c.1-.11.17-.17.25-.17H6.86a.22.22,0,0,0,.24-.24,3.88,3.88,0,0,0,.1-.55,5.27,5.27,0,0,1,.09-.55.32.32,0,0,1,.33-.25h1.9a.31.31,0,0,1,.32.25,1.5,1.5,0,0,1,.1.55,2.94,2.94,0,0,0,.07.55.24.24,0,0,0,.27.24h6.08l.09.08.15.11.08.06.06.06v3.17l-.27.25-.21,0-.47,0c-.19,0-.38,0-.59,0s-.36,0-.5,0h-.07a.4.4,0,0,1-.4-.21A1.61,1.61,0,0,1,14.1,48L14,47.53a.31.31,0,0,0-.28-.21H12.18s0,0-.08.06-.06,0-.06.06,0,.09-.09.15,0,.1,0,.11v1.9a.6.6,0,0,0,.17.29c.12.13.17.21.21.21h1.52a.31.31,0,0,0,.25-.14l.17-.3c.06-.11.13-.21.19-.3a.3.3,0,0,1,.28-.16,2.32,2.32,0,0,1,.48.06,2.11,2.11,0,0,1,.55.19,2.63,2.63,0,0,1,.44.32.61.61,0,0,1,.19.44,1.9,1.9,0,0,1-.52,1.39,2.21,2.21,0,0,1-1.27.66H12.94c-.48,0-.93,0-1.39,0a10.1,10.1,0,0,0-1.37-.08H10c-.13,0-.19,0-.19.13V53.4l.25.19h6.46a.34.34,0,0,1,.3.15,1.06,1.06,0,0,1,.18.37c0,.15.05.28.05.39V55a2.68,2.68,0,0,1,0,.41,1,1,0,0,1-.11.37.32.32,0,0,1-.27.17H11.66c-.07,0-.11,0-.11.17a1,1,0,0,0,0,.21.71.71,0,0,0,.34.57,4.56,4.56,0,0,0,.86.45,7.58,7.58,0,0,0,1.14.4c.43.13.83.23,1.23.32s.74.18,1.07.23l.68.12.13.13c.08.06.12.09.14.13v.12c-.06.11-.16.28-.27.51l-.42.72a4,4,0,0,1-.49.65.7.7,0,0,1-.53.28,5.72,5.72,0,0,1-1.87-.3,11.48,11.48,0,0,1-1.74-.76,13.41,13.41,0,0,1-1.58-1.09,13.72,13.72,0,0,1-1.35-1.27H8.38A18.56,18.56,0,0,1,6.9,58.85a14.77,14.77,0,0,1-1.69,1.09,10.93,10.93,0,0,1-1.87.76,6.17,6.17,0,0,1-1.93.3.68.68,0,0,1-.52-.26,3.87,3.87,0,0,1-.43-.57,5.86,5.86,0,0,1-.31-.61c-.07-.19-.11-.31-.13-.34A.58.58,0,0,1,0,59Z"/><path d="M29.88,55v-.86a.55.55,0,0,1,.27-.47h.38a1.43,1.43,0,0,0,.42,0,.66.66,0,0,0,.34-.15.33.33,0,0,0,.15-.3,2,2,0,0,0,0-.27,2.55,2.55,0,0,0-.26-.65.28.28,0,0,0-.23-.11H23.58a.47.47,0,0,1-.15,0L23.22,52a.55.55,0,0,1-.19-.14.17.17,0,0,1-.1-.13v-2h6.46a.31.31,0,0,0,.32-.17,1.11,1.11,0,0,0,.08-.35,1.26,1.26,0,0,0-.19-.64A.77.77,0,0,0,29,48.2l-1.27,0H26.33l-1.42-.06c-.48,0-.91-.06-1.33-.1a.9.9,0,0,1-.34-.19.4.4,0,0,1-.18-.32V45.92c0-.06.06-.1.19-.15l.2-.1h.05a13,13,0,0,1,1.52.08c.5,0,1,0,1.52,0h1.22c.15,0,.23,0,.24-.09a1.48,1.48,0,0,0,0-.27A1.21,1.21,0,0,0,28,45a1.11,1.11,0,0,1-.08-.44c0-.13.12-.25.32-.34a4.64,4.64,0,0,1,.73-.21l.78-.12h.49a.48.48,0,0,1,.45.22,3.07,3.07,0,0,1,.25.55,3.55,3.55,0,0,0,.23.52.51.51,0,0,0,.49.24,2.43,2.43,0,0,0,.65-.09l.66-.17.65-.17a2.59,2.59,0,0,1,.67-.1,1.35,1.35,0,0,1,.28,0c.08,0,.15.09.19.23a1.46,1.46,0,0,1,.06.26c0,.12,0,.25.07.38a2.33,2.33,0,0,1,.08.38,1.12,1.12,0,0,0,.06.25v.19a.6.6,0,0,1-.42.61,8.06,8.06,0,0,1-.91.23,7.42,7.42,0,0,0-.94.19.54.54,0,0,0-.41.55.87.87,0,0,0,.26.64.76.76,0,0,0,.61.27A3.4,3.4,0,0,0,33.8,49a4.76,4.76,0,0,0,.61-.19,5,5,0,0,0,.59-.19,2.4,2.4,0,0,1,.6-.07.5.5,0,0,1,.44.21,1.28,1.28,0,0,1,.23.53,2.28,2.28,0,0,1,.09.63,4.82,4.82,0,0,1,0,.49A.55.55,0,0,1,36,51a4.61,4.61,0,0,1-.8.21,3.26,3.26,0,0,0-.79.19.5.5,0,0,0-.37.53c0,.08,0,.13,0,.19s.1.21.19.38a4.89,4.89,0,0,0,.27.57c.09.19.19.38.26.57L35,54a1.26,1.26,0,0,1,.07.17c0,.11,0,.17,0,.21a.07.07,0,0,1,0,.06A1.26,1.26,0,0,1,35,55a5.3,5.3,0,0,1-.36.51,3.65,3.65,0,0,1-.5.4.92.92,0,0,1-.47.15c-.17,0-.46,0-.84,0s-.76,0-1.16-.06a5.38,5.38,0,0,1-1.08-.24,1,1,0,0,1-.65-.48S29.88,55.15,29.88,55Zm-6.83,1c0-.23,0-.46,0-.68a2.21,2.21,0,0,1,.16-.65,1,1,0,0,1,.34-.46l.34,0h.34l.46,0h.51a1.2,1.2,0,0,1,.44.14.4.4,0,0,1,.19.38,2.25,2.25,0,0,1-.08.64,3.57,3.57,0,0,0-.06.65,1.4,1.4,0,0,0,.18.72,1.18,1.18,0,0,0,.43.51,1.68,1.68,0,0,0,.61.35l.68.19a2.58,2.58,0,0,1,.35,0h1.36c.65,0,1.3,0,1.92-.08s1.28-.08,1.92-.08a1.34,1.34,0,0,1,.25,0h.15l.13.12v2c0,.15-.09.28-.3.38a3.45,3.45,0,0,1-.76.23c-.32,0-.67.09-1.05.13s-.72,0-1.06,0l-.91,0h-.57a16.63,16.63,0,0,1-2.11-.15A6.37,6.37,0,0,1,25,59.77a3.84,3.84,0,0,1-1.4-1.22,3.48,3.48,0,0,1-.55-2Z"/><path d="M41.93,59v-.15s.15,0,.34,0a3,3,0,0,0,.57-.06,1.47,1.47,0,0,0,.52-.19.37.37,0,0,0,.22-.36V55.42l-.24-.25H41.93c-.11,0-.21-.08-.26-.25a2.28,2.28,0,0,1-.17-.61,3.45,3.45,0,0,1-.06-.66c0-.23,0-.38,0-.47a.54.54,0,0,1,.34-.56,4.22,4.22,0,0,1,.74-.2,3.82,3.82,0,0,0,.74-.18.46.46,0,0,0,.34-.49V49.47c0-.06-.07-.15-.2-.23a1,1,0,0,0-.31-.15,1.3,1.3,0,0,0-.21,0c-.11,0-.23,0-.36,0l-.34,0a1.16,1.16,0,0,0-.23,0l-.24-.25V47.06a.33.33,0,0,1,.3-.38,3.66,3.66,0,0,1,.68-.06c.25,0,.48,0,.67-.07a.34.34,0,0,0,.3-.37V43.52s0,0,.08-.05l.11-.08a.69.69,0,0,1,.15-.07l.12-.06h1.77l.32.26v2.53a.44.44,0,0,0,.19.36,1,1,0,0,0,.43.19,4.71,4.71,0,0,0,.5.08,2.64,2.64,0,0,0,.36,0c.08,0,.09,0,.09,0l.63-.63h.21L49,46l.51-.07a1.1,1.1,0,0,0,.36-.16.38.38,0,0,0,.12-.13.32.32,0,0,0,.07-.13v-1.9l.46-.38h1.63l.11.06a.72.72,0,0,1,.27.15c.06,0,.08,0,.08.05v1.9l.07.1a.49.49,0,0,0,.12.15.5.5,0,0,0,.11.13.64.64,0,0,1,.15.12.4.4,0,0,0,.12.07h5.56l.25.31V48a.47.47,0,0,1-.13.27.34.34,0,0,1-.25.17H53a.23.23,0,0,0-.19.13.72.72,0,0,0-.11.3,1.05,1.05,0,0,0-.06.33,1.22,1.22,0,0,0,0,.23,1,1,0,0,0,.11.47.65.65,0,0,0,.4.25h3.29a4.12,4.12,0,0,1,.42,0,1.57,1.57,0,0,1,.55.13,2.25,2.25,0,0,1,.49.25.42.42,0,0,1,.19.39,7,7,0,0,1-.17,1.56A15.07,15.07,0,0,1,57.38,54c-.19.51-.38,1-.61,1.52s-.42,1-.65,1.41V57a.77.77,0,0,0,.48.71,4.9,4.9,0,0,0,1,.41c.38.12.74.25,1.07.38a.65.65,0,0,1,.47.59.25.25,0,0,1,0,.12c0,.05-.11.19-.21.36s-.22.34-.38.55a3.72,3.72,0,0,1-.45.53,1.29,1.29,0,0,1-.48.34h0a2.2,2.2,0,0,1-.75-.17c-.26-.13-.55-.27-.83-.44l-.78-.51c-.25-.17-.46-.3-.63-.4a.37.37,0,0,1-.13,0h-.11a1.18,1.18,0,0,0-.71.23l-.61.5a4,4,0,0,1-.62.47,1.11,1.11,0,0,1-.67.23.61.61,0,0,1-.51-.25,6.1,6.1,0,0,1-.4-.53,6.11,6.11,0,0,0-.36-.61.81.81,0,0,0-.44-.4.19.19,0,0,0-.11,0,.24.24,0,0,0-.13.08l-1.52,1.52s0,0-.08,0h-.09a.62.62,0,0,1-.48-.2,2,2,0,0,1-.38-.39,4.48,4.48,0,0,0-.36-.4.64.64,0,0,0-.46-.17.74.74,0,0,0-.39.21,7.92,7.92,0,0,1-.69.49,4.39,4.39,0,0,1-.89.49,2.94,2.94,0,0,1-1.12.21h-.76a.79.79,0,0,1-.31-.34,4.14,4.14,0,0,1-.21-.51,2.86,2.86,0,0,1-.11-.54,3.7,3.7,0,0,1,0-.45Zm5.91-5.4a3.14,3.14,0,0,1-.65.25,3.51,3.51,0,0,0-.66.27.56.56,0,0,0-.29.55v3.55a.42.42,0,0,0,.12.23.27.27,0,0,0,.21.15,1.29,1.29,0,0,0,1-.59,6.55,6.55,0,0,0,.88-1.52,20.12,20.12,0,0,0,.68-2.07c.19-.74.36-1.48.5-2.18s.24-1.35.32-1.94A9,9,0,0,0,50,49a.5.5,0,0,0-.13-.33,1.28,1.28,0,0,0-.25-.23.75.75,0,0,0-.26,0l-.38,0-.36,0a1.53,1.53,0,0,0-.27,0h-.21c-.17,0-.28.06-.3.15a.94.94,0,0,1-.25.36,1.06,1.06,0,0,1-.57.35l-.44.09a.41.41,0,0,0-.28.25,1.64,1.64,0,0,0-.11.76,2.18,2.18,0,0,0,.07.68.56.56,0,0,0,.23.34,1,1,0,0,0,.47.1c.21,0,.46,0,.76,0a.76.76,0,0,1,.27.32,2,2,0,0,1,.09.42,1.78,1.78,0,0,1,0,.46V53A.63.63,0,0,1,47.84,53.59Zm2.58,5,.19,0a1.19,1.19,0,0,0,.48-.13,2,2,0,0,0,.57-.33,3.34,3.34,0,0,0,.47-.43.9.9,0,0,0,.19-.46.87.87,0,0,0-.07-.3c-.06-.12-.12-.21-.19-.33a1.55,1.55,0,0,0-.27-.24.55.55,0,0,0-.47-.08,2.05,2.05,0,0,0-.17.34c-.1.19-.18.36-.29.55s-.17.36-.27.53-.13.27-.17.35a.71.71,0,0,0-.07.21,1.16,1.16,0,0,0-.06.17C50.29,58.55,50.33,58.59,50.42,58.59Zm2.44-5.19a4.86,4.86,0,0,0,.32.65,2.68,2.68,0,0,0,.4.61.56.56,0,0,0,.43.26.47.47,0,0,0,.42-.23,2,2,0,0,0,.33-.53,5.74,5.74,0,0,0,.19-.64A4.21,4.21,0,0,0,55,53a1.85,1.85,0,0,0,0-.3.22.22,0,0,0-.24-.19H53a.22.22,0,0,0-.21.13.65.65,0,0,0-.06.25.32.32,0,0,0,0,.13C52.72,53.08,52.78,53.19,52.86,53.4Z"/><path d="M63.65,48.84c.13-1.33.28-2.67.46-4.06a.56.56,0,0,1,.09-.21.61.61,0,0,1,.15-.17h.46c.11,0,.3,0,.55,0a5.15,5.15,0,0,1,.78,0,2.48,2.48,0,0,1,.7.15.42.42,0,0,1,.3.42A7.89,7.89,0,0,1,67,46.64c-.09.55-.22,1.12-.34,1.69s-.25,1.14-.36,1.71a11,11,0,0,0-.15,1.71v.91c0,.12,0,.19,0,.23a.12.12,0,0,0,.09.11.47.47,0,0,0,.15,0,.28.28,0,0,0,.25-.13,1.78,1.78,0,0,0,.17-.27c.06-.11.14-.19.19-.28a.3.3,0,0,1,.29-.08,1.06,1.06,0,0,1,.59.31.68.68,0,0,1,.3.55A6.79,6.79,0,0,1,68,54.6c-.11.49-.25,1-.4,1.5s-.3,1-.44,1.5a7.26,7.26,0,0,0-.26,1.5,1.57,1.57,0,0,1-.4.33,2.25,2.25,0,0,1-.48.15,4.45,4.45,0,0,1-.53,0H65a.72.72,0,0,1-.59-.43,5.16,5.16,0,0,1-.42-1.1,10.37,10.37,0,0,1-.26-1.5c-.08-.54-.12-1-.16-1.56s0-.93-.07-1.31,0-.65,0-.78C63.46,51.54,63.52,50.17,63.65,48.84Zm7,9.54c.23-.23.51-.49.82-.76l.89-.84a3.82,3.82,0,0,0,.61-.72,5.31,5.31,0,0,0,.62-2,14.38,14.38,0,0,0,.14-2v-1a.41.41,0,0,0-.38-.38c-.14,0-.36,0-.69,0s-.68,0-1,0l-1.05,0c-.32,0-.55,0-.66,0a1.24,1.24,0,0,1-.25,0l-.3-.07a.67.67,0,0,1-.25-.16.35.35,0,0,1-.1-.26V48.33a.51.51,0,0,1,0-.11.85.85,0,0,1,.1-.14s0,0,0-.07l.06-.06h3.93a.38.38,0,0,0,.27-.09,2.22,2.22,0,0,0,.15-.23,1.38,1.38,0,0,0,.08-.27,1.23,1.23,0,0,0,0-.26c0-.38,0-.78-.06-1.18a7.37,7.37,0,0,1-.08-1.16.7.7,0,0,1,.1-.32.31.31,0,0,1,.28-.16h2.15a.45.45,0,0,1,.27.12.42.42,0,0,1,.11.26v2.66a.47.47,0,0,0,.13.25.43.43,0,0,0,.25.13h2.17v2.4c0,.19-.12.3-.38.32s-.54,0-.84.06a7.3,7.3,0,0,0-.87.07.51.51,0,0,0-.46.44c0,.93-.06,1.81-.13,2.64A13.28,13.28,0,0,1,75.94,56,10.13,10.13,0,0,1,75,58.11a8.75,8.75,0,0,1-1.65,2c-.1.09-.25.19-.42.32a.73.73,0,0,1-.48.19,1.57,1.57,0,0,1-.64-.17,3.82,3.82,0,0,1-.7-.42,3.91,3.91,0,0,1-.59-.55,1,1,0,0,1-.23-.57C70.3,58.8,70.41,58.63,70.66,58.38Z"/><path d="M88.08,56a2.87,2.87,0,0,1,.8-1A3.5,3.5,0,0,1,90,54.35a4,4,0,0,1,1.31-.21,3.24,3.24,0,0,1,1.67.42,5.68,5.68,0,0,1,1.24.91,11.53,11.53,0,0,1,.83.93c.23.29.4.42.52.42a.57.57,0,0,0,.45-.21,2,2,0,0,0,.29-.49,3.64,3.64,0,0,0,.15-.59,2.49,2.49,0,0,0,.06-.49,2.28,2.28,0,0,0-.36-1.26,2.62,2.62,0,0,0-.94-.81A4.14,4.14,0,0,0,94,52.51a6.25,6.25,0,0,0-1.25-.13,5.85,5.85,0,0,0-1.86.28,7.63,7.63,0,0,0-1.64.76,10.34,10.34,0,0,0-1.46,1.1c-.48.4-.93.84-1.39,1.28H86l-1.39-1.39s-.05-.08-.09-.13a.64.64,0,0,0,0-.12.46.46,0,0,1,0-.13c0-.08.06-.11.09-.13l.25-.25c.14-.13.21-.23.27-.25l6.46-5.32a3,3,0,0,0,.23-.21.93.93,0,0,0,0-.24c0-.17,0-.27-.19-.29a2.83,2.83,0,0,0-.41,0c-.61,0-1.22,0-1.83.07s-1.21.08-1.82.08h-.27l-.19,0-.25-.25V45l.25-.13c1.39,0,2.83-.06,4.3-.15s2.92-.12,4.35-.12a.79.79,0,0,1,.51.18,1.75,1.75,0,0,1,.45.41,2.78,2.78,0,0,1,.35.54,3.91,3.91,0,0,1,.19.53.62.62,0,0,1-.27.49,6,6,0,0,1-.76.59c-.3.19-.65.42-1,.63l-1,.66a6,6,0,0,0-.78.65.8.8,0,0,0-.32.59.72.72,0,0,0,0,.19,14.26,14.26,0,0,1,2.24.42,7.41,7.41,0,0,1,2,.87,4.17,4.17,0,0,1,1.43,1.46,4.3,4.3,0,0,1,.53,2.26,4.75,4.75,0,0,1-.57,2.41,5,5,0,0,1-1.52,1.66,6.77,6.77,0,0,1-2.15.91,10.48,10.48,0,0,1-2.43.28,9.33,9.33,0,0,1-1.61-.13,4.76,4.76,0,0,1-1.58-.47,3.49,3.49,0,0,1-1.2-1,2.3,2.3,0,0,1-.49-1.56A2.67,2.67,0,0,1,88.08,56Zm2.49,1.52a.89.89,0,0,0,.34.3,1.24,1.24,0,0,0,.46.15,2,2,0,0,0,.47.06,1.72,1.72,0,0,0,.27,0h.25a.34.34,0,0,0,.24-.21,1.23,1.23,0,0,0,0-.28,1.08,1.08,0,0,0-.38-.88,1.4,1.4,0,0,0-.91-.32h-.25a1.24,1.24,0,0,0-.24,0c-.21.08-.33.17-.36.28a1.29,1.29,0,0,0-.06.42A.81.81,0,0,0,90.57,57.47Z"/><path d="M29.88,79v-.86a.55.55,0,0,1,.27-.47h.38a1.43,1.43,0,0,0,.42,0,.66.66,0,0,0,.34-.15.33.33,0,0,0,.15-.3,2,2,0,0,0,0-.27,2.55,2.55,0,0,0-.26-.65.28.28,0,0,0-.23-.11H23.58a.47.47,0,0,1-.15,0L23.22,76a.55.55,0,0,1-.19-.14.17.17,0,0,1-.1-.13v-2h6.46a.31.31,0,0,0,.32-.17,1.11,1.11,0,0,0,.08-.35,1.26,1.26,0,0,0-.19-.64A.77.77,0,0,0,29,72.2l-1.27,0H26.33l-1.42-.06c-.48,0-.91-.06-1.33-.1a.9.9,0,0,1-.34-.19.4.4,0,0,1-.18-.32V69.92c0-.06.06-.1.19-.15l.2-.1h.05a13,13,0,0,1,1.52.08c.5,0,1,0,1.52,0h1.22c.15,0,.23,0,.24-.09a1.48,1.48,0,0,0,0-.27A1.21,1.21,0,0,0,28,69a1.11,1.11,0,0,1-.08-.44c0-.13.12-.25.32-.34a4.64,4.64,0,0,1,.73-.21l.78-.12h.49a.48.48,0,0,1,.45.22,3.07,3.07,0,0,1,.25.55,3.55,3.55,0,0,0,.23.52.51.51,0,0,0,.49.24,2.43,2.43,0,0,0,.65-.09l.66-.17.65-.17a2.59,2.59,0,0,1,.67-.1,1.35,1.35,0,0,1,.28,0c.08,0,.15.09.19.23a1.46,1.46,0,0,1,.06.26c0,.12,0,.25.07.38a2.33,2.33,0,0,1,.08.38,1.12,1.12,0,0,0,.06.25v.19a.6.6,0,0,1-.42.61,8.06,8.06,0,0,1-.91.23,7.42,7.42,0,0,0-.94.19.54.54,0,0,0-.41.55.87.87,0,0,0,.26.64.76.76,0,0,0,.61.27A3.4,3.4,0,0,0,33.8,73a4.76,4.76,0,0,0,.61-.19,5,5,0,0,0,.59-.19,2.4,2.4,0,0,1,.6-.07.5.5,0,0,1,.44.21,1.28,1.28,0,0,1,.23.53,2.28,2.28,0,0,1,.09.63,4.82,4.82,0,0,1,0,.49A.55.55,0,0,1,36,75a4.61,4.61,0,0,1-.8.21,3.26,3.26,0,0,0-.79.19.5.5,0,0,0-.37.53c0,.08,0,.13,0,.19s.1.21.19.38a4.89,4.89,0,0,0,.27.57c.09.19.19.38.26.57L35,78a1.26,1.26,0,0,1,.07.17c0,.11,0,.17,0,.21a.07.07,0,0,1,0,.06A1.26,1.26,0,0,1,35,79a5.3,5.3,0,0,1-.36.51,3.65,3.65,0,0,1-.5.4.92.92,0,0,1-.47.15c-.17,0-.46,0-.84,0s-.76,0-1.16-.06a5.38,5.38,0,0,1-1.08-.24,1,1,0,0,1-.65-.48S29.88,79.15,29.88,79Zm-6.83,1c0-.23,0-.46,0-.68a2.21,2.21,0,0,1,.16-.65,1,1,0,0,1,.34-.46c.05,0,.17,0,.34,0h.34l.46,0a4.34,4.34,0,0,1,.51,0,1.2,1.2,0,0,1,.44.14.4.4,0,0,1,.19.38,2.25,2.25,0,0,1-.08.64,3.57,3.57,0,0,0-.06.65,1.4,1.4,0,0,0,.18.72,1.18,1.18,0,0,0,.43.51,1.68,1.68,0,0,0,.61.35l.68.19a2.58,2.58,0,0,1,.35,0h1.36c.65,0,1.3,0,1.92-.08s1.28-.08,1.92-.08a1.34,1.34,0,0,1,.25,0h.15l.13.12v2c0,.15-.09.28-.3.38a3.45,3.45,0,0,1-.76.23c-.32,0-.67.09-1.05.13s-.72,0-1.06,0l-.91,0h-.57a16.63,16.63,0,0,1-2.11-.15A6.37,6.37,0,0,1,25,83.77a3.84,3.84,0,0,1-1.4-1.22,3.48,3.48,0,0,1-.55-2Z"/><path d="M48.16,83.58c-.09-.17-.19-.36-.28-.57s-.19-.4-.27-.59a1.52,1.52,0,0,1-.11-.48.6.6,0,0,1,0-.21.62.62,0,0,1,.22-.15L49,81.45a12.83,12.83,0,0,0,1.46-.21,11.47,11.47,0,0,0,1.48-.4,4.62,4.62,0,0,0,1.3-.63,2.79,2.79,0,0,0,.91-.93A2.41,2.41,0,0,0,54.49,78a2,2,0,0,0-.72-1.65A2.78,2.78,0,0,0,52,75.75a8.2,8.2,0,0,0-1.77.19,15.62,15.62,0,0,0-1.78.49c-.59.19-1.16.42-1.73.65l-1.64.7H45a.57.57,0,0,1-.47-.28,1.89,1.89,0,0,1-.38-.65c-.08-.25-.16-.49-.21-.72a5.1,5.1,0,0,1-.08-.55.61.61,0,0,1,.1-.42,1.31,1.31,0,0,1,.41-.17c.65-.19,1.3-.38,2-.59s1.33-.4,2-.57,1.34-.32,2-.44a10.94,10.94,0,0,1,2-.19,5.54,5.54,0,0,1,2,.35,4.38,4.38,0,0,1,1.6,1A4.18,4.18,0,0,1,57,76a5.06,5.06,0,0,1,.36,2,4.74,4.74,0,0,1-.78,2.74,6.72,6.72,0,0,1-2,1.92,9.38,9.38,0,0,1-2.7,1.12,12,12,0,0,1-2.86.36,2.42,2.42,0,0,0-.37,0,.5.5,0,0,1-.32-.15A3.4,3.4,0,0,1,48.16,83.58Z"/><path d="M68.15,81.28a.57.57,0,0,1,.31-.1,3.25,3.25,0,0,1,.77.08,5,5,0,0,0,.78.08,1.5,1.5,0,0,0,1.24-.57,3.65,3.65,0,0,0,.61-1.37,7.81,7.81,0,0,0,.22-1.62c0-.57,0-1,0-1.4v-.21a2,2,0,0,1,0-.34v-.59a.77.77,0,0,0-.2-.57,1.37,1.37,0,0,0-.48-.29,2,2,0,0,0-.57-.13,2.93,2.93,0,0,0-.57,0H70a.67.67,0,0,0-.19,0l-.51.51c0,.08-.06.21-.11.42a4.45,4.45,0,0,0-.19.65c-.06.23-.14.45-.19.66a2.81,2.81,0,0,1-.14.42,6.2,6.2,0,0,1-.2.67c-.1.3-.21.6-.31.93s-.21.62-.32.91a4.54,4.54,0,0,0-.17.53,7.54,7.54,0,0,0-.31,1,13.87,13.87,0,0,1-.49,1.35,6.6,6.6,0,0,1-.68,1.21,1,1,0,0,1-.8.53,2.09,2.09,0,0,1-.48-.07,4.66,4.66,0,0,1-.78-.25,5.36,5.36,0,0,1-.72-.34c-.21-.13-.32-.28-.32-.42a1.41,1.41,0,0,1,.13-.34c.08-.15.17-.3.25-.47s.19-.31.26-.44a1.64,1.64,0,0,0,.14-.21c.21-.42.47-.91.74-1.43s.55-1.08.8-1.65A16.45,16.45,0,0,0,66,76.68a5.35,5.35,0,0,0,.25-1.58v-.21c0-.09,0-.13-.13-.15a1.22,1.22,0,0,1-.23,0h-.23a5.66,5.66,0,0,0-1,.08,8.1,8.1,0,0,1-1,.08,1.22,1.22,0,0,1-.23,0h-.23a.84.84,0,0,1-.32-.42,1.68,1.68,0,0,1-.1-.55c0-.19,0-.4,0-.61s0-.38,0-.53a.73.73,0,0,1,.08-.36.37.37,0,0,1,.3-.19c.1,0,.29,0,.53,0l.82,0c.29,0,.55,0,.8,0l.51,0a1.52,1.52,0,0,0,1-.36A1.85,1.85,0,0,0,67.3,71a4,4,0,0,0,.11-.93v-.93a3.82,3.82,0,0,1,.11-.7.46.46,0,0,1,.44-.27h.59a4.33,4.33,0,0,1,.87,0,2.92,2.92,0,0,1,.8.21.53.53,0,0,1,.34.51V69s0,.16-.07.35-.08.39-.12.6-.07.42-.11.61-.06.29-.08.34v.19a1,1,0,0,0,.08.36.38.38,0,0,0,.3.21,8.53,8.53,0,0,1,1.47.14,4,4,0,0,1,1.23.4,2.74,2.74,0,0,1,.91.79,3.23,3.23,0,0,1,.57,1.33v1.47a3,3,0,0,1,0,.36c0,.51,0,1.06,0,1.63a11.75,11.75,0,0,1-.15,1.77,9.64,9.64,0,0,1-.38,1.71,4.75,4.75,0,0,1-.72,1.44,3.52,3.52,0,0,1-1.18,1,3.75,3.75,0,0,1-1.73.36,6.84,6.84,0,0,1-1.23-.1,1.53,1.53,0,0,1-.78-.36,1.61,1.61,0,0,1-.4-.78A5.24,5.24,0,0,1,68,81.56.34.34,0,0,1,68.15,81.28Zm7-10.35a2.83,2.83,0,0,1,.65-.33c.25-.07.47-.15.72-.21A3.73,3.73,0,0,1,77,70.3c.13,0,.31.13.51.38a6.78,6.78,0,0,1,.67,1,12.33,12.33,0,0,1,.7,1.36c.25.52.46,1,.65,1.48a12.73,12.73,0,0,1,.45,1.3,2.77,2.77,0,0,1,.19.89.86.86,0,0,1-.24.57,2.44,2.44,0,0,1-.61.42,3.37,3.37,0,0,1-.68.26l-.52.19H78c-.21,0-.4-.19-.57-.53a8.85,8.85,0,0,1-.47-1.23c-.14-.48-.27-1-.42-1.45a7.43,7.43,0,0,0-.38-1.1c0-.09-.11-.27-.23-.51s-.24-.5-.38-.76-.26-.52-.38-.76l-.26-.5C74.86,71.19,74.93,71.06,75.12,70.93Z"/><path d="M84.55,72.84c.13-1.33.28-2.67.46-4.06a.56.56,0,0,1,.09-.21.83.83,0,0,1,.15-.17h.46c.11,0,.3,0,.55,0a5.15,5.15,0,0,1,.78,0,2.48,2.48,0,0,1,.7.15A.42.42,0,0,1,88,69a7.89,7.89,0,0,1-.17,1.67c-.09.55-.22,1.12-.34,1.69s-.24,1.14-.36,1.71A11,11,0,0,0,87,75.75v.91c0,.12,0,.19,0,.23a.12.12,0,0,0,.09.11.5.5,0,0,0,.16,0,.28.28,0,0,0,.24-.13,1.78,1.78,0,0,0,.17-.27c.06-.11.14-.19.19-.28a.3.3,0,0,1,.29-.08,1.06,1.06,0,0,1,.59.31.68.68,0,0,1,.3.55,6.79,6.79,0,0,1-.17,1.48c-.11.49-.25,1-.4,1.5s-.3,1-.44,1.5a7.26,7.26,0,0,0-.26,1.5,1.57,1.57,0,0,1-.4.33,2.44,2.44,0,0,1-.48.15,4.45,4.45,0,0,1-.53,0h-.51a.72.72,0,0,1-.59-.43,5.16,5.16,0,0,1-.42-1.1,10.37,10.37,0,0,1-.26-1.5c-.08-.54-.12-1-.16-1.56s0-.93-.07-1.31,0-.65,0-.78C84.36,75.54,84.42,74.17,84.55,72.84Zm7,9.54c.23-.23.51-.49.82-.76l.89-.84a3.82,3.82,0,0,0,.61-.72,5.31,5.31,0,0,0,.62-2,14.38,14.38,0,0,0,.14-2v-.95a.41.41,0,0,0-.38-.38c-.14,0-.36,0-.69,0l-1,0-1,0c-.32,0-.55,0-.66,0a1.24,1.24,0,0,1-.25,0l-.3-.07a.67.67,0,0,1-.25-.16.35.35,0,0,1-.1-.26V72.33a.51.51,0,0,1,0-.11.85.85,0,0,1,.1-.14s0,0,0-.07l.06-.06h3.93a.38.38,0,0,0,.27-.09,2.22,2.22,0,0,0,.15-.23,1.38,1.38,0,0,0,.08-.27,1.23,1.23,0,0,0,0-.26c0-.38,0-.78-.06-1.18a7.37,7.37,0,0,1-.08-1.16.7.7,0,0,1,.1-.32.31.31,0,0,1,.28-.16H97a.45.45,0,0,1,.27.12.42.42,0,0,1,.11.26v2.66a.47.47,0,0,0,.13.25.43.43,0,0,0,.25.13H100v2.4c0,.19-.12.3-.38.32s-.54,0-.84.06a7.3,7.3,0,0,0-.87.07.51.51,0,0,0-.46.44c0,.93-.06,1.81-.13,2.64A13.28,13.28,0,0,1,96.84,80a10.13,10.13,0,0,1-.93,2.14,8.75,8.75,0,0,1-1.65,2c-.1.09-.25.19-.42.32a.73.73,0,0,1-.48.19,1.57,1.57,0,0,1-.64-.17A3.82,3.82,0,0,1,92,84a3.91,3.91,0,0,1-.59-.55,1,1,0,0,1-.23-.57C91.2,82.8,91.31,82.63,91.56,82.38Z"/><path d="M22.44,100.76h-.15a1.52,1.52,0,0,1-.29,0,.57.57,0,0,1-.26-.08.41.41,0,0,1-.2-.15l-1-2V98c.11-.13.28-.4.53-.78l.82-1.27.95-1.5c.32-.51.62-1,.91-1.42s.51-.8.7-1.09a2.06,2.06,0,0,1,.31-.41H25l.31.08c.13.06.3.1.45.15l.48.17a.94.94,0,0,0,.28.1.45.45,0,0,1,.23.19.82.82,0,0,1,0,.25,2.58,2.58,0,0,1-.19.83,6.56,6.56,0,0,1-.42.95c-.15.32-.32.61-.47.89s-.29.5-.38.69v12.8a.44.44,0,0,1-.08.1.77.77,0,0,0-.11.15c-.06.06-.12.09-.19.15a.3.3,0,0,1-.19.1H23.06l-.09-.06a.57.57,0,0,1-.15-.06l-.13-.07-.06-.06v-7.73Zm7.12-3.23c-.19.32-.36.66-.53,1a7.9,7.9,0,0,1-.55,1,.86.86,0,0,1-.72.46.54.54,0,0,1-.27-.06,1.31,1.31,0,0,1-.25-.21c-.09-.08-.19-.19-.32-.3s-.26-.25-.38-.38-.21-.23-.3-.31-.14-.13-.14-.15V98.1a7.74,7.74,0,0,0,.54-.82c.22-.38.47-.8.74-1.29s.55-1,.83-1.48l.8-1.43c.25-.45.46-.81.65-1.1s.3-.44.38-.46l.32,0,.63.14a3.72,3.72,0,0,1,.64.22,1,1,0,0,1,.42.36v0a.15.15,0,0,1,0,.08,1.64,1.64,0,0,1-.19.72,1.51,1.51,0,0,0-.21.74,1.17,1.17,0,0,0,0,.21c0,.11,0,.17.11.17H38l.09.08.15.11s.06,0,.08.08.06,0,.06,0v1.9l-.27.31H33.84s-.06,0-.12.07a1,1,0,0,1-.15.12.57.57,0,0,1-.08.09l0,0v1.14s0,0,0,.08.06,0,.08,0a.59.59,0,0,0,.23.12l.15.07h3.93v2l-.24.32H34a.71.71,0,0,0-.15.08.61.61,0,0,0-.23.11.28.28,0,0,1-.08.06.14.14,0,0,1,0,.06v1.27a.14.14,0,0,1,0,.06.29.29,0,0,1,.08.07,1,1,0,0,1,.15.12.26.26,0,0,0,.12.07h4l.25.31v1.78l-.25.31h-4a.63.63,0,0,0-.14.09.58.58,0,0,0-.13.1s0,0-.09.05-.08.08-.1.08v3.17l-.06.1a1.08,1.08,0,0,1-.13.15,1.35,1.35,0,0,1-.13.15l-.12.1H31a.66.66,0,0,1-.26-.14c-.12-.09-.17-.17-.17-.24V97.22s-.06-.11-.15-.13a.92.92,0,0,0-.2,0A.81.81,0,0,0,29.56,97.53Z"/><path d="M46.89,106.21c0-.08,0-.11.11-.13a15.11,15.11,0,0,0,2.57-.76,7.05,7.05,0,0,0,2-1.24A5.09,5.09,0,0,0,53,102.22a6.42,6.42,0,0,0,.47-2.6,12.28,12.28,0,0,0-.07-1.28A4.14,4.14,0,0,0,53.06,97,2.93,2.93,0,0,0,52.34,96a1.76,1.76,0,0,0-1.21-.42,2.81,2.81,0,0,0-1.43.36,3.9,3.9,0,0,0-1.06,1,5.41,5.41,0,0,0-.76,1.35,8.88,8.88,0,0,0-.48,1.54,10.77,10.77,0,0,0-.22,1.54,7.86,7.86,0,0,0,0,1.35.49.49,0,0,1-.27.4,2,2,0,0,1-.57.15,3.31,3.31,0,0,1-.63,0c-.19,0-.36,0-.49,0a.65.65,0,0,1-.66-.38,2.38,2.38,0,0,1-.25-.91,6.16,6.16,0,0,1,0-1,6.78,6.78,0,0,0,.05-.81,34.27,34.27,0,0,1,.2-3.82c.15-1.26.28-2.51.43-3.8a3,3,0,0,1,.23-.21.48.48,0,0,1,.28-.17l1.9.13a.57.57,0,0,1,.27.13.43.43,0,0,1,.11.25,7.47,7.47,0,0,0-.21.87,5.67,5.67,0,0,0,0,.78v.21a1.06,1.06,0,0,1,0,.17.11.11,0,0,0,0,.08s.06,0,.08,0a1.48,1.48,0,0,0,.7-.27c.27-.17.57-.36.92-.55a7.08,7.08,0,0,1,1.1-.57A3.33,3.33,0,0,1,51.62,93a3.93,3.93,0,0,1,2.28.63,4.56,4.56,0,0,1,1.46,1.62,8,8,0,0,1,.8,2.18,12.28,12.28,0,0,1,.23,2.3,9.52,9.52,0,0,1-2.19,6,8.62,8.62,0,0,1-2.5,2,6.89,6.89,0,0,1-3.19.76,1,1,0,0,1-.57-.25,2.82,2.82,0,0,1-.54-.55A4.35,4.35,0,0,1,47,107a1.91,1.91,0,0,1-.15-.61C46.87,106.34,46.89,106.29,46.89,106.21Z"/><path d="M63.71,100.81c0-.55,0-1.17.07-1.88s.08-1.42.14-2.16.15-1.41.26-2a7.12,7.12,0,0,1,.44-1.5c.17-.39.4-.59.66-.59h.57a4.21,4.21,0,0,1,.71,0,1.5,1.5,0,0,1,.58.15.45.45,0,0,1,.27.44,10.68,10.68,0,0,1-.17,1.84c-.13.61-.27,1.21-.4,1.84s-.28,1.22-.4,1.82a9.13,9.13,0,0,0-.19,1.87,1.54,1.54,0,0,0,0,.3.19.19,0,0,0,.21.13.39.39,0,0,0,.32-.13.41.41,0,0,1,.32-.13.79.79,0,0,1,.29.09,1.79,1.79,0,0,1,.34.19,2.56,2.56,0,0,1,.29.27.64.64,0,0,1,.09.21v.38c-.07.28-.17.59-.27.95s-.2.7-.32,1.08-.19.76-.28,1.12l-.27,1a10.67,10.67,0,0,0-.19,1.1,1.3,1.3,0,0,1-.17.61.68.68,0,0,1-.49.26,9.08,9.08,0,0,1-1.26.06.74.74,0,0,1-.7-.48,4.42,4.42,0,0,1-.36-1.08,8.82,8.82,0,0,1-.12-1.23v-1.88c0-.25,0-.5,0-.76v-1.87Zm5.56,3.08a5.06,5.06,0,0,1,.06-.76,2.93,2.93,0,0,1,.15-.68c.06-.19.17-.29.32-.29h1.66c.19,0,.3.06.34.19a2.75,2.75,0,0,1,.08.5,3.52,3.52,0,0,0,.05.64,1.27,1.27,0,0,0,.29.65,1.86,1.86,0,0,0,.81.47,4.13,4.13,0,0,0,1.56.21,13.28,13.28,0,0,0,1.9-.13,12.3,12.3,0,0,1,1.9-.13,2,2,0,0,1,.32,0c.16,0,.21.09.21.24V107c0,.19-.11.3-.36.4a2.77,2.77,0,0,1-.8.17,6.23,6.23,0,0,1-.83.06H74.72c-.57,0-1.17,0-1.82-.09a5.76,5.76,0,0,1-1.75-.42,3.35,3.35,0,0,1-1.33-.95,2.66,2.66,0,0,1-.53-1.76C69.29,104.31,69.27,104.14,69.27,103.89Zm9-9.59v2.28a.42.42,0,0,1-.1.07c-.08,0-.13.06-.17.06a2,2,0,0,1-.4.1l-.36,0h-6a1.25,1.25,0,0,1-.24,0,2.11,2.11,0,0,1-.35,0,1.46,1.46,0,0,1-.28-.15.37.37,0,0,1-.13-.29v-1.9a.34.34,0,0,1,.13-.25.31.31,0,0,1,.25-.13H78Z"/><path d="M90.67,104.12a2.11,2.11,0,0,1,1.5-.57,2,2,0,0,1,.78.15,2.61,2.61,0,0,1,.68.38,1.89,1.89,0,0,1,.46.61,2.05,2.05,0,0,1-.42,2.26,2.13,2.13,0,0,1-1.5.53,2.37,2.37,0,0,1-1.5-.49,1.73,1.73,0,0,1-.61-1.43A1.8,1.8,0,0,1,90.67,104.12Zm-.25-6.27A33.49,33.49,0,0,1,90.19,94v-.2a.47.47,0,0,1,0-.24.34.34,0,0,1,.11-.17.31.31,0,0,1,.23-.08h3.17a.3.3,0,0,1,.25.11.64.64,0,0,1,.12.25c0,.12,0,.21,0,.31v.22A32.24,32.24,0,0,1,93.88,98c-.17,1.27-.34,2.53-.52,3.78a2,2,0,0,1-.19.33.4.4,0,0,1-.32.17H91.46a.42.42,0,0,1-.36-.23,1.85,1.85,0,0,1-.15-.4C90.76,100.4,90.59,99.12,90.42,97.85Z"/><path d="M98.54,121.4q-12.29,8.68-24,18.15c-.48.38-.31.69.22.82a2.81,2.81,0,0,0,2-.55q11.72-9.45,24-18.14c.52-.37.29-.7-.22-.83a3,3,0,0,0-2,.55Z"/><path d="M64,146.08a.59.59,0,0,1,0,.23v-.18a.71.71,0,0,1-.1.32l.11-.19a.78.78,0,0,1-.16.2l.2-.19-.16.13.27-.18-.15.09.33-.16-.14,0,.38-.12-.12,0,.4-.08-.12,0,.36,0h-.12l.32,0a.58.58,0,0,1-.14,0l.26.07-.18-.07.19.11a.72.72,0,0,1-.2-.19.59.59,0,0,0-.31-.14,1.16,1.16,0,0,0-.45,0,2.1,2.1,0,0,0-.56.07,2.94,2.94,0,0,0-.58.16l-.32.16a1.47,1.47,0,0,0-.46.36l-.11.19a.3.3,0,0,0,.09.33,1,1,0,0,0,.55.37,2.57,2.57,0,0,0,.78.1,4.62,4.62,0,0,0,1-.13,4,4,0,0,0,1.38-.65,1.92,1.92,0,0,0,.59-.71.72.72,0,0,0,.07-.25,1.08,1.08,0,0,0,0-.44c-.08-.22-.34-.29-.55-.33a2.09,2.09,0,0,0-.5,0,2.82,2.82,0,0,0-.57.09,2.63,2.63,0,0,0-1,.46c-.15.13-.39.34-.31.56Z"/><path d="M68.94,1.88,88,18.12c.95.8,3.5-.57,2.25-1.64L71.18.24c-.94-.8-3.5.57-2.24,1.64Z"/><path d="M92.78,24.71h0l-.32,0a3.4,3.4,0,0,1,.46.08l-.26-.07a3,3,0,0,1,.69.29l-.19-.11a2.65,2.65,0,0,1,.86.84l-.1-.15a.56.56,0,0,1,0,.08.31.31,0,0,0,.19.21.63.63,0,0,0,.35.13,2.8,2.8,0,0,0,1.08-.09,2.56,2.56,0,0,0,1-.46l.2-.19a.48.48,0,0,0,.11-.38,3,3,0,0,0-1-1.08,3.08,3.08,0,0,0-.75-.37,4.87,4.87,0,0,0-1.2-.21,2.51,2.51,0,0,0-.55.07,2.41,2.41,0,0,0-.58.17,1.58,1.58,0,0,0-.46.25A1,1,0,0,0,92,24c-.1.16-.19.37,0,.53a1.22,1.22,0,0,0,.77.2Z"/></svg>