<svg id="レイヤー_1" data-name="レイヤー 1" xmlns="http://www.w3.org/2000/svg" viewBox="0 0 199.19 121.71"><defs><style>.cls-1{fill:#fff;}</style></defs><path class="cls-1" d="M40.9,109.31a32.89,32.89,0,0,1-5.64-7.52L36.45,104A39.49,39.49,0,0,1,31.79,86l.05,2.47a39.7,39.7,0,0,1,3-15.45l-1,2.51a43.93,43.93,0,0,1,6.65-11l-2,2.43a48.21,48.21,0,0,1,7.21-7l-2.86,2.22a49.21,49.21,0,0,1,6.73-4.39l-3.57,1.9a52.37,52.37,0,0,1,7.42-3.2L49.18,58a70.24,70.24,0,0,1,9.14-2.41L54,56.43a150.94,150.94,0,0,1,22.86-2.07l-4,.14c19.51-.68,39-1.74,58.4-3.68,9.7-1,19.54-1.83,29-4.28a73.37,73.37,0,0,0,17.86-7.31,52.36,52.36,0,0,0,7.11-5.1,30.94,30.94,0,0,0,3.72-3.61,50.12,50.12,0,0,0,5.25-6.89,44.87,44.87,0,0,0,3.52-7.73A31.21,31.21,0,0,0,199,1.7c-.31-2.69-4.23-4.37-6.32-4.91a24.31,24.31,0,0,0-11.95.47C177-1.63,172.91-.06,170.16,2.83l-2,2.43a6.3,6.3,0,0,0-1,5c.09.79.15,1.58.17,2.37l0-2.46a27.06,27.06,0,0,1-2,10.62l1.05-2.51a32.24,32.24,0,0,1-4.73,7.84l2-2.43a32.2,32.2,0,0,1-4.77,4.64l2.86-2.23a33.51,33.51,0,0,1-4.45,2.84L160.78,27a41.87,41.87,0,0,1-5.5,2.38L159.44,28A60.07,60.07,0,0,1,151.61,30l4.32-.83c-8.69,1.65-17.62,2.31-26.43,3.12q-14.22,1.32-28.5,2.11-8.06.45-16.12.74l4-.14c-10.25.36-20.61.42-30.72,2.31C46.41,39.53,34.73,43.05,24.77,50,17.19,55.25,10.29,62,5.82,70.14A51,51,0,0,0,.89,82.73,46.73,46.73,0,0,0,0,96.59,39.41,39.41,0,0,0,3.21,109.7a40,40,0,0,0,8.2,12.47c2.29,2.26,5.59,3.06,8.71,3.24A27.79,27.79,0,0,0,32.64,123c3.09-1.45,6.8-3.41,8.45-6.55,1.18-2.22,1.89-5.09-.19-7.13Z"/></svg>