<svg id="レイヤー_1" data-name="レイヤー 1" xmlns="http://www.w3.org/2000/svg" viewBox="0 0 52 52"><defs><style>.cls-1{fill:#fff;stroke:#c6a385;stroke-miterlimit:10;stroke-width:4px;}</style></defs><circle class="cls-1" cx="26" cy="26" r="24"/><path d="M15.88,11.92l-2,11.19c-.17.93,2.72.44,2.88-.42l2-11.2c.16-.93-2.73-.43-2.88.43Z"/><path d="M18.42,13.39a15.34,15.34,0,0,1,4.52-1.46l-1-.19c.08.07,0,.54,0,.64,0,.48,0,1,0,1.45l-.09,2.78q-.11,2.84-.24,5.67l2-1.13c-.15,0-.14,0-.2,0a1.77,1.77,0,0,0-2-.18c-.4.19-1.23.91-.71,1.42a2.58,2.58,0,0,0,1.83.79c.63,0,1.94-.26,2-1.13q.25-4.93.38-9.89a2.28,2.28,0,0,0-.51-1.82c-.7-.67-1.86-.29-2.7-.11a18.94,18.94,0,0,0-4.55,1.6c-.48.24-1.14.84-.71,1.41s1.43.44,2,.18Z"/><path d="M17.67,16.61c.42-.18.86-.35,1.29-.5l.28-.1.19-.06-.19.06c.06,0,.31-.09.38-.11l.28-.09,1.25-.31c-.43.11,0,0,.05,0l.34-.07.68-.11a3.55,3.55,0,0,0,1.1-.36c.18-.09.51-.27.59-.48.18-.54-1-.4-1.19-.37a26.91,26.91,0,0,0-6.09,1.71c-.22.09-1.27.54-.84.91a1.09,1.09,0,0,0,.75.13,3.68,3.68,0,0,0,1.13-.24Z"/><path d="M15.83,19.47A16.86,16.86,0,0,0,22,18.39a2.16,2.16,0,0,0,.81-.45c.1-.11.21-.29.05-.41a1.21,1.21,0,0,0-.75-.11,4.1,4.1,0,0,0-1.13.25l-.53.19c-.12,0-.06,0,.17-.06l-.17.05-.26.07-.51.13c.45-.11.16,0,.05,0l-.3.06a2.12,2.12,0,0,0-.57.08l.19,0-.18,0-.26,0-.52,0a1.22,1.22,0,0,1-.27,0c.33,0-.05,0-.12,0a3.5,3.5,0,0,0-2,.55c-.13.09-.39.25-.34.45s.38.23.52.23Z"/><path d="M35.29,15.25Q24.6,26.76,13.69,38.09a.94.94,0,0,0,.41,1.51,1.89,1.89,0,0,0,2-.54Q27,27.72,37.75,16.22a1,1,0,0,0-.41-1.52,1.9,1.9,0,0,0-2.05.55Z"/><path d="M30.35,28.16l-2.42,7.37c-.42,1.29,1.22,1.33,2,1a3.51,3.51,0,0,1,2.15-.37,1.45,1.45,0,0,1,.8,1.67c-.26,1.81-2.15,2-3.69,2a1.93,1.93,0,0,0-1.89.88.89.89,0,0,0,.88,1.22A10,10,0,0,0,33.29,41a4.63,4.63,0,0,0,2.56-3.55,3,3,0,0,0-2.07-3.24c-1.69-.58-3.52,0-5.11.62l2,1,2.41-7.37c.52-1.58-2.37-1.55-2.76-.33Z"/><path d="M31.46,31.53c.57-.15,1.14-.29,1.72-.41l.39-.08.27-.06h-.06l.87-.15c1.16-.19,2.32-.32,3.5-.4.54,0,1.51-.39,1.63-1s-.85-.7-1.26-.67A39.37,39.37,0,0,0,31.05,30c-.44.11-1.41.53-1.24,1.15s1.23.49,1.65.38Z"/></svg>