<svg id="レイヤー_1" data-name="レイヤー 1" xmlns="http://www.w3.org/2000/svg" viewBox="0 0 469.32 101.61"><defs><style>.cls-1{fill:#fff799;}.cls-2{fill:#efe4dc;}</style></defs><path d="M.12,1.75l4.3,8.52c.13.26.58.4.83.44a2,2,0,0,0,1.15-.2c.61-.32,1-.87.67-1.54L2.77.45A1.21,1.21,0,0,0,1.94,0,2,2,0,0,0,.79.21c-.61.33-1,.87-.67,1.54Z"/><path d="M9.91,21.79a14.62,14.62,0,0,1,3.95,7.41c.13.62,1.25.49,1.66.37s1.37-.51,1.24-1.14a15.59,15.59,0,0,0-4.17-7.79c-.45-.46-1.4-.29-1.92-.05-.35.16-1.24.72-.76,1.2Z"/><path d="M20.47,45.4l3.2,4.27a1.17,1.17,0,0,0,.8.32,2.5,2.5,0,0,0,1.14-.22c.44-.21,1.15-.74.73-1.3l-3.2-4.27a1.19,1.19,0,0,0-.8-.32,2.5,2.5,0,0,0-1.14.22c-.45.21-1.15.74-.73,1.3Z"/><path d="M30.88,65.51l2.19,6.38a1.37,1.37,0,0,0,1.72.64c.54-.16,1.42-.71,1.18-1.42l-2.2-6.38a1.36,1.36,0,0,0-1.72-.63c-.54.16-1.42.71-1.17,1.41Z"/><path d="M438.37,72.75l5.27-7.51c.4-.57-.34-.94-.81-.95a2.25,2.25,0,0,0-1.9.81l-5.28,7.51c-.4.57.34.94.81,1a2.29,2.29,0,0,0,1.91-.81Z"/><path d="M448.6,53.39A4.2,4.2,0,0,0,451,49.75c0-.16-.46-.16-.49-.16a3.79,3.79,0,0,0-1.06.17,4,4,0,0,0-1,.38c-.14.09-.35.19-.35.38a4.41,4.41,0,0,1-.08.72l0-.12a3.91,3.91,0,0,1-.92,1.77l.12-.13a6,6,0,0,1-.46.42l-.12.09c-.15.1.19-.12,0,0l-.29.17c-.08,0-.39.23-.35.38s.4.16.49.15a4.7,4.7,0,0,0,2.05-.54Z"/><path d="M456.52,38.65l3.06-4.37a.62.62,0,0,0,0-.71,1.17,1.17,0,0,0-.81-.34,2.17,2.17,0,0,0-1.9.84l-3.06,4.36a.63.63,0,0,0,0,.72,1.17,1.17,0,0,0,.81.34,2.17,2.17,0,0,0,1.9-.84Z"/><path d="M463.57,21.58a22.87,22.87,0,0,0,5.72-8.92c.23-.64-.91-.72-1.26-.67a1.94,1.94,0,0,0-1.64,1,20.63,20.63,0,0,1-5.16,8.05.59.59,0,0,0,.29,1.08,2.47,2.47,0,0,0,2.05-.55Z"/><path class="cls-1" d="M367,69.62c-.27-2-.31-4.25.85-5.94a7.57,7.57,0,0,1,3.44-2.51c5-2.17,11.85-1.55,14.69,3.12.46.76.89,1.67,1.74,1.92a3,3,0,0,0,1.66-.16c3.6-1,7.35-2,11.07-1.49s7.38,3.13,8,6.83c.77,4.48-2.92,8.38-6.38,11.31h0c-5.24,4.43-16.14,16.84-22.64,10.77A42.56,42.56,0,0,1,367,69.62Z"/><path d="M385.42,95.59a88,88,0,0,1-11.29-14.35c-.45-.72-3.28.18-2.7,1.09a87.44,87.44,0,0,0,11.29,14.35c.64.66,3.38-.39,2.7-1.09Z"/><path d="M372.46,63.75c1-3.3,4.57-4.49,7.63-3.28,3.81,1.51,6.13,5.32,7.57,9,.36.91,2.39.13,2.78-.4,2.15-2.89,5.57-4.91,9.26-4.47a10,10,0,0,1,7.93,6.55c2.9,8.15-6.44,13.61-12,17.37q-6.69,4.51-13.55,8.78c-.42.26-.83.68-.28,1s1.59,0,2-.3q7.13-4.44,14.09-9.15c3.75-2.53,7.85-5,10.63-8.69,2.5-3.3,3.36-7.53,1.31-11.27A11.34,11.34,0,0,0,400.09,63a15.23,15.23,0,0,0-12.32,6.06l2.78-.4c-1.77-4.51-5-9.31-10.21-10.06-4.13-.6-9.45,1.23-10.77,5.57-.27.9,2.62.5,2.89-.41Z"/><path class="cls-1" d="M124.49,44.11A11.66,11.66,0,0,1,130,41.17c3.51-.58,7,1.61,9,4.54s2.85,6.49,3.65,9.95c6.1-8.44,19.92-9.76,27.5-2.62.33-5.24,1.12-10.64,3.87-15.12s7.84-7.86,13.06-7.2c4.72.61,8.57,4.38,10.59,8.69s2.53,9.16,3,13.9a17.57,17.57,0,0,1,31.48-.16c10.51-11.91,31.79-11.61,42,.59,2.85-1.21,3.65-5.07,6.28-6.7,3.47-2.16,8.11.76,10,4.41s2.1,7.93,3.89,11.61a10.68,10.68,0,0,1,20.33,2.6c2.64-6.08,12.74-6.67,16.07-.94,3.41-11.37,16-20.95,27-16.38a16.22,16.22,0,0,1,9.3,17.86A16.21,16.21,0,0,1,351,78.55c2.51,5,9.43,7.94,9.31,13.55-.08,3.43-3,6.18-6.16,7.55-7.88,3.44-18.09,0-22.3-7.48,2.12,3.12-.59,7.83-4.3,8.51s-7.43-1.78-9.42-5-2.61-7-3.19-10.77c-.35,4.28-5.7,6.88-9.75,5.45s-6.55-5.71-7.14-10a12.32,12.32,0,0,1-21.92,1.82c-5.43,6-17.54,13.15-25.29,11-13.84-3.82-14.42-19.8-17-27.58-1.46-4.49-5.87-3.29-7.92-3.07-10.59,1.14-12,2.1-12.38,4-2.94,13.91,13.24,2,17.48,8.18,7.14,10.47-5.91,15.17-8.6,15.53a17,17,0,0,1-11.17-2.55c-5.57-3.57-9.11-9.48-12.45-15.19-.29,4.62-.63,9.4-2.81,13.48s-6.71,7.31-11.25,6.43c-4.06-.79-7-4.65-7.81-8.71s.16-8.25,1.48-12.17a29.81,29.81,0,0,0-16,8.17,40.89,40.89,0,0,0,12.69,6.14,15.78,15.78,0,0,1-28.07,3.78h0c-2.71-4-3.62-9.66-8-12.25-2.87,5.92-5.43,13.85-12.36,16.29-5.23,1.85-12.1-.1-13.62-5.89-6.59,16.54-13,10.19-28.45,6.12C71.83,90.53,59.83,52.43,81,50.14c4.56-.49,9.48,12,11.62,14.63C96.35,54.18,112,54.3,113.5,66.3A32.3,32.3,0,0,1,124.49,44.11Z"/><path class="cls-2" d="M346.13,72.26h0a5.77,5.77,0,0,1,3.52-10.82C357.73,62.62,353.94,76.37,346.13,72.26Z"/><path class="cls-2" d="M164.65,65.55a8.55,8.55,0,0,1-8.54,5.88,4.69,4.69,0,0,1-3-1.15,4.17,4.17,0,0,1-1.09-1.94A6.07,6.07,0,1,1,164,66.49"/><path class="cls-2" d="M247,67.48A8.53,8.53,0,0,1,251.16,62h0c7.22-4.5,17.38,3.09,11.24,10.48C258,77.77,245.59,75.8,247,67.48Z"/><path d="M77.88,55.45a2.27,2.27,0,0,1-.11-3,2,2,0,0,1,2.93-.72c2.93,1.38,4.59,5,6,7.71a81.52,81.52,0,0,1,7.44,20.34c.23,1,3,.29,2.9-.78-.37-3.72-.46-7.61.86-11.17,1.06-2.86,3.43-5.78,6.58-6.38,6.48-1.22,9.18,7.37,10.34,12.08.25,1,2.75.26,2.89-.57a48.14,48.14,0,0,1,8.74-20.31c2.1-2.81,4.78-6.33,8.29-7.39s6,2.13,6.95,5.05a26.7,26.7,0,0,1,.81,10.6A47,47,0,0,1,140,72.11a63.86,63.86,0,0,1-5,10.79A55.87,55.87,0,0,1,128.9,92c-2.28,2.61-5.47,5.2-9.16,4.49-3-.58-5.78-2.84-5.86-6.1,0-1.07-2.5-.11-2.8.35-1.86,2.83-3.82,5.88-6.73,7.75a10.56,10.56,0,0,1-8.68,1c-6.85-1.91-11.18-7.89-13.55-14.27a84.86,84.86,0,0,1-3.15-12c-.21-1-3.12-.29-2.9.78,1.63,7.74,3.45,16.42,9.36,22.15,5,4.88,12.87,7.22,19.39,4,4-2,6.57-5.68,9-9.31l-2.8.35c.08,3.21,2.63,5.53,5.51,6.52a12.07,12.07,0,0,0,10.06-1.25c3.41-2,5.92-5.17,8.08-8.39a77.29,77.29,0,0,0,6.53-11.77,52.52,52.52,0,0,0,3.91-12.94A33.36,33.36,0,0,0,145,50.84c-.79-3.32-2.72-6.59-6.29-7.33-4.12-.85-8.16,1.6-11,4.38a47.91,47.91,0,0,0-12.9,25.39l2.9-.57c-.84-3.41-1.92-7-4.24-9.76a9.35,9.35,0,0,0-9.36-3,12.73,12.73,0,0,0-8.52,6.83c-1.93,4-1.87,8.62-1.45,13l2.9-.78a82.46,82.46,0,0,0-4.13-13.23A64.81,64.81,0,0,0,87,54.08c-2-2.94-5.16-5.43-8.85-4.07-2.4.88-5.37,4.17-3,6.58.73.72,3.47-.37,2.69-1.14Z"/><path d="M153.9,70.19c3.94.57,10.18.37,11.25-4.53.49-2.26-1.08-4.46-3-5.52a6.93,6.93,0,0,0-7.3.45,9.81,9.81,0,0,0-4.07,6.84c-.22,1.55,2.75,1.23,2.95-.18A7.79,7.79,0,0,1,156,62.71a5.72,5.72,0,0,1,.89-.67,6.09,6.09,0,0,1,.63-.3c-.07,0-.23.06.06,0l.46-.13s.29-.05.06,0l.3,0h.3c-.2,0,0,0,.07,0a3.21,3.21,0,0,1,1.1.3,3.92,3.92,0,0,1,2.45,3.43,2.61,2.61,0,0,1-.28,1.07c0,.08-.08.16-.13.24s.11-.15,0,0l-.15.2s-.28.32-.1.13a3.9,3.9,0,0,1-.38.33l-.21.15c.22-.15,0,0,0,0l-.53.26s-.3.11-.12.05-.17,0-.2.06l-.67.17-.28.05c.3-.05-.11,0-.17,0a14.52,14.52,0,0,1-1.46.1,8.62,8.62,0,0,1-1.26,0c-.47,0-.95-.09-1.42-.16a1.81,1.81,0,0,0-1.88.92,1,1,0,0,0,.91,1.32Z"/><path d="M146.71,56.87a16.35,16.35,0,0,1,4-4.41,14.21,14.21,0,0,1,4.64-1.92c4.44-1.13,8.79-1.44,13.1.39A14.31,14.31,0,0,1,177,60.56c1,4,.26,8.68-2.6,11.79-3.71,4-10,4.34-14.85,6.29-.35.14-1,.48-.88,1,.72,4.36,6.55,4.28,9.88,4.1,1.95-.11,4.48-.14,6,1.32,2.17,2.1.52,5.18-1.25,6.9-7.26,7.07-19.21,6.16-25.87-1.2a20.13,20.13,0,0,1-5.15-15.36c.12-1.11-2.79-.57-2.89.38a20.67,20.67,0,0,0,18.13,22.53,23.47,23.47,0,0,0,15.58-3.89c2.14-1.48,4.43-3.47,5.2-6.06a4.45,4.45,0,0,0-2.67-5.46c-2.49-1.06-5.18-.7-7.79-.64-2.45.06-5.78-.51-6.27-3.39l-.88,1c5.09-2.06,11-2.52,15.26-6.26a13.76,13.76,0,0,0,4.17-12.74,15.15,15.15,0,0,0-8.81-11c-4.88-2.25-10-2.06-15.15-.9a22.35,22.35,0,0,0-6.73,2.48,18.44,18.44,0,0,0-5.4,5.48c-.72,1,2.17.79,2.69,0Z"/><path d="M177.92,54.42a41.42,41.42,0,0,1,1.82-13.91c1-3.25,2.74-6.8,5.66-8.75,3.18-2.11,6.77,0,8.72,2.79,2.59,3.71,2.42,8.56,2.18,12.87q-.81,14.73-1.69,29.45c-.27,4.8-.42,9.63-.83,14.41-.18,2-.84,3.87-3.05,4.33a7.45,7.45,0,0,1-4.89-1c-9.47-5.11-7.14-17.29-6.81-26.09,0-1.11-2.85-.5-2.89.39-.34,9.08-2.59,20.59,6.39,26.45a10.79,10.79,0,0,0,11.24.55,5.9,5.9,0,0,0,2.9-5c.24-2.81.33-5.64.49-8.46l2-34.45c.27-4.74.65-9.89-2-14.08a9.36,9.36,0,0,0-10.29-4.29c-4.4,1.09-7.38,4.9-9.1,8.89A38.83,38.83,0,0,0,175,55.19c0,.84,2.94.28,2.9-.77Z"/><path d="M231,49.72c-4-3.84-9.7-4.74-15-3.58a19.92,19.92,0,0,0-13.15,10,30.12,30.12,0,0,0-3.11,17.29c.62,6.44,3.07,12.44,8.53,16.2a19.66,19.66,0,0,0,16.49,2.74c5-1.51,10.21-5.67,9.9-11.42a9.13,9.13,0,0,0-3.1-6.43c-2.35-2-5.34-2-8.2-1.31-2.49.59-6.42,2.38-8.47-.18-1-1.23-.87-2.94-.68-4.41s.55-3.4,1.76-4.5,2.59-.81,3.94-.59c1.57.26,3.1.71,4.67,1a9.84,9.84,0,0,0,8.9-2.56,7.61,7.61,0,0,0,1.66-8.51,8.34,8.34,0,0,0-7.42-4.66c-.65,0-1.59.18-1.9.85s.24,1.09.85,1.09c5.8,0,8.48,7.82,3.61,11.21-2.15,1.49-4.88.61-7.22.1s-4.85-1-7.19-.07a7.21,7.21,0,0,0-4.32,5.48c-.56,2.43-.84,5.55,1.22,7.37,1.8,1.6,4.53,1.69,6.78,1.29,2.72-.48,5.83-2.26,8.52-.85,4.37,2.27,4.6,8.45,1.64,11.89-3.49,4.06-9.38,4.82-14.28,3.3A17.4,17.4,0,0,1,204.22,80a30.91,30.91,0,0,1-1-17.25c1.28-5.7,4.55-11.28,10-13.77,4.9-2.22,11.05-1.88,15,2,.86.82,3.61-.33,2.67-1.23Z"/><path d="M239.56,52.57c2.49-3.54,5.77-7.17,10.23-8,4.82-.92,9.87.94,14.19,2.92,7.57,3.46,15.63,8.75,16.9,17.67,2.34,16.54-18.6,33.59-33.81,24.55-7.3-4.33-11.6-13.47-9.63-21.81.22-.92-2.67-.47-2.88.42-1.94,8.18,1.91,17.08,8.77,21.81,8.23,5.68,19.22,3.79,27.28-1.28C278,84.19,283.92,76,284,67c0-10.08-8.39-16.37-16.67-20.32C262,44.09,256,42.06,250,43.19c-5.65,1.07-9.9,4.83-13.13,9.42-.69,1,2.18.66,2.67,0Z"/><path d="M252.94,73a7.26,7.26,0,0,1-1.84-6.63c.42-2.19,1.72-4.56,3.75-5.49-.22.11.22-.08.21-.07.45-.17-.27.06.19-.06s-.23,0,.16,0a3.4,3.4,0,0,1,.46-.06,4.66,4.66,0,0,1,2.63.59,5.19,5.19,0,0,1,2.24,2.8,7.13,7.13,0,0,1-1.52,7.27c-2.38,2.37-6,2.27-9,1.32a2.91,2.91,0,0,0-2,.33c-.29.16-1,.69-.32.89a15,15,0,0,0,11.88-1,8.52,8.52,0,0,0,3.59-3.71,8.07,8.07,0,0,0,.63-4.55,6.23,6.23,0,0,0-2.05-3.86A7.35,7.35,0,0,0,256,59.39a9.27,9.27,0,0,0-7.29,5.68A8.19,8.19,0,0,0,250.22,74c.6.59,3.29-.48,2.72-1Z"/><path d="M278.85,51.68a7.07,7.07,0,0,1,4.07-6.79c2.56-1.06,5.7.89,7.33,2.77C294.8,52.9,290.4,60,293,65.75c.32.7,2.15,0,2.57-.32a11,11,0,0,0,3.33-3.89c.81-1.39,1.95-3.93,3.82-4,2.11-.08,4.17,1.4,5.46,2.94a23.08,23.08,0,0,1,3.35,6.39c.27.65,2.79,0,2.88-.64a9.24,9.24,0,0,1,3.87-6.34,6.7,6.7,0,0,1,6.9,0c4.86,2.45,5.67,7.79,4.92,12.69-.72,4.69-2.48,9.46-1.79,14.27a13.21,13.21,0,0,0,.93,3.26,8.13,8.13,0,0,1,1,4c-.24,2.46-2.42,5.05-5,4.67a9,9,0,0,1-6.54-5.39,15.31,15.31,0,0,1-.36-10c.08-.3-.27-.37-.5-.37-3.6,0-6.06,2-7.87,4.87-.89,1.45-1.65,3-2.59,4.38-.76,1.15-1.8,2.62-3.22,3l1.58.09a22.26,22.26,0,0,1-3.73-16c.14-.91-2.45,0-2.75.33q-3.46,3.64-7.24,7c-2.12,1.86-5.11,4.66-7.78,2.08-1.47-1.43-1.62-3.79-1.75-5.71-.16-2.29-.16-4.64-1-6.8-.3-.73-3.14.19-2.9.78,1.09,2.64.85,5.55,1.19,8.34.29,2.45,1.26,4.82,3.85,5.55,3.28.93,6.86-1,9.35-3a89.1,89.1,0,0,0,9-8.41l-2.75.34a22.44,22.44,0,0,0,3.69,16.25c.3.43,1.18.19,1.58.09,3.21-.77,5.12-3.12,6.71-5.85.78-1.33,1.49-2.72,2.39-4,.51-.72,1.45-2.13,2.46-2.11l-.5-.37a16,16,0,0,0,.23,10.09,9.94,9.94,0,0,0,6.41,5.81c5.52,1.5,13-3.09,10.49-9.35A18.67,18.67,0,0,1,331.24,86a17.12,17.12,0,0,1,0-4.35c.33-3.14,1.21-6.18,1.72-9.29a16.42,16.42,0,0,0-.3-8.21,9.76,9.76,0,0,0-5.85-5.85c-6.22-2.36-14.23,1.61-15.21,8.4l2.88-.64c-1.92-4.8-4.8-10.26-10.84-9.76a8.19,8.19,0,0,0-6,3.23c-1.41,1.89-2.21,4.41-4.26,5.74l2.57-.32c-1.73-3.81-.4-7.93-.54-11.92a9.88,9.88,0,0,0-5.11-8.56c-5.71-3-14.76.84-14.33,8,0,.56,2.95.06,2.9-.78Z"/><path d="M332.77,68a21.36,21.36,0,0,1,5.07-14.35c3.71-4.44,9.57-7.63,15.44-5.91,5.15,1.52,8.84,6.12,11.22,10.71,2.58,5,4.63,11.4,1.16,16.45-3.06,4.46-8.9,5.87-13.88,6.89-.29.06-1.78.35-1.73.88.24,2.9,4.06,3.39,6.1,4.59,3.31,1.94,3,6.51.26,8.84-3,2.51-7.57,2.06-11,.89a20.46,20.46,0,0,1-8.59-5.78,18.45,18.45,0,0,1-4.65-11.22c0-.43-2.93,0-2.9.77.39,8.19,6.67,15.25,14.4,17.51A18.77,18.77,0,0,0,356,97.57c3.43-1.43,6.75-5,5.07-9-.8-1.88-2.68-2.66-4.45-3.4-1.6-.67-3.52-1.38-3.68-3.36l-1.73.88c5.35-1.1,11.39-2.51,15.51-6.35,5.08-4.74,4-11.66,1.33-17.41-2.43-5.21-6.34-10.43-12-12.24-6.11-1.93-13.28.51-18.07,4.45a22.08,22.08,0,0,0-8.08,17.55c0,.42,2.92,0,2.9-.77Z"/><path d="M351.42,68.25a5.56,5.56,0,0,1-1.78,1.61c.05,0-.39.19-.23.12s-.16.06-.18.07l-.12,0-.28.08c-.05,0-.29,0-.05,0l-.29,0c.19,0-.39,0-.34,0a4.19,4.19,0,0,1-3.52-2.75,3.42,3.42,0,0,1,.94-4.05c.2-.15.11-.07.06,0a2.69,2.69,0,0,1,.29-.16c.21-.12-.3.1.09,0l.25-.1c-.36.13.37-.07,0,0l.27,0c.3,0-.11,0,.17,0a4.25,4.25,0,0,1,2.07.56A7.33,7.33,0,0,1,352,68.52c.19.86,3.1.15,2.9-.78a8,8,0,0,0-3.81-5.45,7.52,7.52,0,0,0-7.06.31,4.57,4.57,0,0,0-2.45,5.28,5.39,5.39,0,0,0,4.74,3.78,8.87,8.87,0,0,0,7.75-3.45c.39-.54-.34-.72-.75-.72a2.57,2.57,0,0,0-1.92.76Z"/></svg>