<svg id="レイヤー_1" data-name="レイヤー 1" xmlns="http://www.w3.org/2000/svg" viewBox="0 0 91.65 7.43"><defs><style>.cls-1{fill:#fbbe3b;}</style></defs><path class="cls-1" d="M91.35,1.71l0-.11-.61,1.15.12-.09L88.08,3.75l.17,0L86,3.37l.1.11-.18-.69L85.84,3l.59-.77c-.26.25-1.48.87-2,1.35a12.88,12.88,0,0,0-1.05,1c-.11.13-.24.25-.33.38-.65.86,3.14.07,2.3-.7-1.3-1.19-2.65-2.67-4.48-3A10.05,10.05,0,0,0,74.36,2.9c-.64.37-1.31.77-1.92,1.15.38-.24.47,0-.06-.1a5.15,5.15,0,0,1-1.28-.5c-1.43-.81-2.58-2-4.17-2.55a8.7,8.7,0,0,0-6.68.89c-.42.23-3.5,2.52-3.48,2.54l.71-.2c.32-.1.64.17.14-.08-.22-.11-.44-.19-.65-.29a23.93,23.93,0,0,1-2.13-1.27c-3.76-2.27-7.58-1.14-11.12,1-.16.1-1,.47-1,.61,0-.17.6,0,.69-.12-.2.2-1.32-.38-1.61-.51-1.39-.66-2.63-1.6-4.06-2.16A8.86,8.86,0,0,0,32,1.09a11.83,11.83,0,0,0-2.84,1.26L28.07,3c-1.24.74.58-.16.56,0S25.16,1.3,24.8,1.15A8.5,8.5,0,0,0,18.74,1a11.44,11.44,0,0,0-2.92,1.47c-.46.32-1.7,1-1.89,1.37s-.1-.11,0,0,.91-1.19,1.2-.15l-.77-.43c-.64-.49-1.17-1.13-1.78-1.67C8.66-1.91,3.34,1,.28,4.19c-1,1,.81,1.5,1.51,1.5A5.37,5.37,0,0,0,5.63,4.16c.28-.3,1.3-1,1.39-1.29C7.46,1.29,6.16,3.35,6,3a3,3,0,0,0,.53.24,5.31,5.31,0,0,1,.81.68C8.52,5,9.57,6.25,11.26,6.6a9,9,0,0,0,6.32-1.37c.72-.44,1.37-1,2.05-1.46a2.87,2.87,0,0,0,.64-.43c.12-.16.09,0-.31.07a1.09,1.09,0,0,1-.56.09c-.32,0-.3,0,.08,0,1.37.57,2.62,1.4,4,1.93A8.81,8.81,0,0,0,30,5.28,17.6,17.6,0,0,0,32.65,3.8c.14-.09.32-.16.46-.26.43-.33-.47.11-.6.14-.56.17-.27,0,.1.13A24.26,24.26,0,0,1,36.81,6C40.71,8,44.49,6.6,48,4.5A6.69,6.69,0,0,1,48.85,4c-.05-.07-.61.2-.61.16s1.83.88,2,1a9.79,9.79,0,0,0,5,1.94,10.18,10.18,0,0,0,6.28-2.17,13.77,13.77,0,0,0,1.74-1.39c.48-.48.2,0,0-.09s-1,0-.91.13a7.07,7.07,0,0,0,.67.26c1.63.81,2.84,2.22,4.62,2.77a10.71,10.71,0,0,0,7.14-.55,11.68,11.68,0,0,0,3.07-1.71c.8-.73-.6.42-.64-.08,0,0,1,.71,1,.76a8.89,8.89,0,0,0,2.58,2A6.41,6.41,0,0,0,85,7.11a7.2,7.2,0,0,0,3.48-2.24,19.48,19.48,0,0,1,2.35-1.7c.75-.61,1.32-1.69.18-2.22C89.52.27,87.29,1.14,86.1,2c-.23.17-.78.76-.6,1.14l0,.11c.87,1.83,6.52,0,5.8-1.55Z"/></svg>