<svg id="レイヤー_1" data-name="レイヤー 1" xmlns="http://www.w3.org/2000/svg" viewBox="0 0 111.87 10.37"><defs><style>.cls-1{fill:#f4b0a9;}</style></defs><path class="cls-1" d="M.94,7h17.7c2.16,0,4.52,0,6.2-1.59s2.91-3.2,4.58-4.5l-1.62.87h0L24,1.6h0a.33.33,0,0,0,.13.47l7.68,8.05c.41.43,1.71.16,2.18.07a7.08,7.08,0,0,0,2.76-1l7.56-5.28L40.15,5l16.72.26,33.43.53,16.86.27a7.56,7.56,0,0,0,4.1-1.1c.88-.56.83-1.23-.34-1.25q-19.77-.33-39.56-.63C62.3,3,53.23,2.74,44.17,2.69c-2.58,0-4.31,1.07-6.28,2.44L32.26,9.07l5-.91-7.68-8,.13.47v0c.67-1.15-3.6-.21-3.85-.13-1.57.51-2.63,1.82-3.76,2.93L19.41,6l4.5-1.4L4.7,4.63A7.88,7.88,0,0,0,.6,5.73C-.26,6.29-.24,7,.94,7Z"/></svg>