<svg id="レイヤー_1" data-name="レイヤー 1" xmlns="http://www.w3.org/2000/svg" viewBox="0 0 125.26 7.17"><defs><style>.cls-1{fill:#81c8b0;}</style></defs><path class="cls-1" d="M2.28,5.85a5.16,5.16,0,0,1-.86-2.71,1.88,1.88,0,0,1,1.8-1.85,1.79,1.79,0,0,1,1.35,1A2.57,2.57,0,0,1,2.3,5.86a2.57,2.57,0,0,1-2-3.71A3.48,3.48,0,0,1,4,.87a2.41,2.41,0,0,1,1.23.57,2.17,2.17,0,0,1-.3,2.93,2.92,2.92,0,0,1-3.85.32,2.18,2.18,0,0,1,.47-3.51C2.72.72,4,1.63,4.76,2.67M22.22,5a2.4,2.4,0,0,0,3.25.84,2.69,2.69,0,0,0,1-3.28,3.06,3.06,0,0,0-3-1.78,1.19,1.19,0,0,0-.64.21,1.44,1.44,0,0,0-.39.65c-.43,1.1-.85,2.4-.26,3.43a2.12,2.12,0,0,0,3.7-.54A2.12,2.12,0,0,0,22.8,2.39a1.93,1.93,0,0,0-.3,2.89,1.69,1.69,0,0,0,2.67-.72A1.49,1.49,0,0,0,23.1,3a1.84,1.84,0,0,0-.43,2.41,5.35,5.35,0,0,0,2,1.8M43.08.25a1.27,1.27,0,0,0-1.57.89A1.91,1.91,0,0,0,42.15,3c1,.88,2.85.66,3.2-.6A1.53,1.53,0,0,0,43,2.08a1.91,1.91,0,0,0,.13,2.56,2.32,2.32,0,0,0,3.64-.86A2.53,2.53,0,0,0,44.57.59a1.89,1.89,0,0,0-1.44.49,1.93,1.93,0,0,0-.42.72,2.56,2.56,0,0,0,1,3,2.23,2.23,0,0,0,3-.74,2,2,0,0,0-1.07-2.78C44.13.82,42.82,2.47,42.3,4M65.55.94a2.39,2.39,0,0,0-1.2,2.84c.46,1,2.35,1,2.51-.1a1.38,1.38,0,0,0-.21-.88A1.92,1.92,0,0,0,64,2.23a1.94,1.94,0,0,0-.42,2.66,2,2,0,0,0,3.25-.56A2,2,0,0,0,64.54,2a2.91,2.91,0,0,0-1.36,1,2.37,2.37,0,0,0-.62,2c.35,1.32,2.25,1.43,3.47.82a3,3,0,0,0,1.8-2.21c.08-1-1-2-1.88-1.59a2,2,0,0,0,1.59,2.52m15.95-.92C83.11,4.85,84.77,6,86,5.51a2.18,2.18,0,0,0,.39-3.67c-1.28-.81-3.28.62-2.84,2.07a2,2,0,0,0,3,1,2.43,2.43,0,0,0,.63-3.21A3,3,0,0,0,84,.44a2.15,2.15,0,0,0-1.72,1.49,2,2,0,0,0,.44,1.59,2.51,2.51,0,0,0,2.21,1,2,2,0,0,0,1.76-1.6,1.89,1.89,0,0,0-2.86-1.69,1.88,1.88,0,0,0,1,3.18M105.88,3l-.4.83a.86.86,0,0,0-.37-1.43,1.17,1.17,0,0,0-1.33,1A1.86,1.86,0,0,0,104.43,5a1.68,1.68,0,0,0,.8.42,1.63,1.63,0,0,0,1.59-.78,2.34,2.34,0,0,0-1.19-3.33,2.47,2.47,0,0,0-3.08,1.83,2.64,2.64,0,0,0,2.13,3,2.8,2.8,0,0,0,3-2.1,1.72,1.72,0,0,0-.39-1.65c-.9-.81-2.48.41-2.29,1.61m20.19-1c.36-1.72-1.66-3.31-3.35-2.83a3.58,3.58,0,0,0-2.22,4.21,3.14,3.14,0,0,0,1.95,2.33,2.07,2.07,0,0,0,2.58-1.22,2.36,2.36,0,0,0-1.35-2.57,2.19,2.19,0,0,0-2.29,0,1.53,1.53,0,1,0,2,.13.86.86,0,0,0-.36-.23,1,1,0,0,0-1,.37,2,2,0,0,0,.09,2.65"/></svg>