<svg id="レイヤー_1" data-name="レイヤー 1" xmlns="http://www.w3.org/2000/svg" viewBox="0 0 131.78 9.77"><defs><style>.cls-1{fill:#c6a385;}</style></defs><path class="cls-1" d="M5.13,1.79.26,8.41c-.21.28-.42.57-.09.86a2.44,2.44,0,0,0,1.5.25A7.7,7.7,0,0,0,3.93,9l.66-.28a3.64,3.64,0,0,0,1-.65l4.87-6.61c.21-.29.42-.57.09-.86A2.44,2.44,0,0,0,9,.37,7.69,7.69,0,0,0,6.74.86l-.66.29a3.87,3.87,0,0,0-1,.64Z"/><path class="cls-1" d="M16,3.13,12.25,8.82c-.23.36.27.63.5.71a4.17,4.17,0,0,0,1.86,0,7.8,7.8,0,0,0,2.21-.7,3,3,0,0,0,1.17-1l3.74-5.7c.23-.36-.28-.63-.51-.7a4.28,4.28,0,0,0-1.85,0,7.7,7.7,0,0,0-2.21.7,3.05,3.05,0,0,0-1.17,1Z"/><path class="cls-1" d="M27,3.22,24,7.91c-.23.35.27.63.5.7a4.17,4.17,0,0,0,1.86,0,7.16,7.16,0,0,0,2.2-.7A2.89,2.89,0,0,0,29.7,7l3-4.69c.23-.36-.27-.63-.5-.7a4.32,4.32,0,0,0-1.86,0,7.74,7.74,0,0,0-2.2.7,2.91,2.91,0,0,0-1.17,1Z"/><path class="cls-1" d="M42.07,6.2Q43.45,3.56,44.61.81c.16-.38-.2-.6-.5-.7a4.32,4.32,0,0,0-1.86,0A7.7,7.7,0,0,0,40,.8a2.43,2.43,0,0,0-1.17,1c-.76,1.83-1.61,3.63-2.53,5.39-.2.37.23.61.5.7a4.17,4.17,0,0,0,1.86,0,7.44,7.44,0,0,0,2.2-.7,2.56,2.56,0,0,0,1.17-1Z"/><path class="cls-1" d="M51.68,2.41A22.44,22.44,0,0,0,48,8.34c-.16.38.2.61.51.71a4.28,4.28,0,0,0,1.85,0,7.7,7.7,0,0,0,2.21-.7,2.43,2.43,0,0,0,1.17-1,21.36,21.36,0,0,1,2.2-4l-.23.32A20.2,20.2,0,0,1,57,2.09c.23-.26.39-.58.08-.86A2.44,2.44,0,0,0,55.54,1a7.7,7.7,0,0,0-2.26.5,4,4,0,0,0-1.6.93Z"/><path class="cls-1" d="M61.39,3.38,58.28,8.76c-.21.36.24.62.5.7a4.17,4.17,0,0,0,1.86,0,7.16,7.16,0,0,0,2.2-.7A2.68,2.68,0,0,0,64,7.8l3.12-5.38c.21-.37-.25-.62-.5-.71a4.32,4.32,0,0,0-1.86,0,7.8,7.8,0,0,0-2.21.7,2.76,2.76,0,0,0-1.17,1Z"/><path class="cls-1" d="M74.63,7c1-1.54,1.94-3.11,2.85-4.7.2-.37-.25-.62-.51-.71a4.28,4.28,0,0,0-1.85,0,7.7,7.7,0,0,0-2.21.7,2.64,2.64,0,0,0-1.17,1Q70.39,5.6,68.9,7.92c-.23.36.27.63.5.7a4.17,4.17,0,0,0,1.86,0,7.21,7.21,0,0,0,2.21-.7,2.85,2.85,0,0,0,1.16-1Z"/><path class="cls-1" d="M82.26,4.13,79.68,8.38c-.22.37.25.63.5.71a2.52,2.52,0,0,0,.82.08,4.06,4.06,0,0,0,1-.08,7.74,7.74,0,0,0,2.2-.7,2.81,2.81,0,0,0,1.17-1L88,3.17c.22-.36-.25-.62-.5-.7a2.52,2.52,0,0,0-.82-.08,4.06,4.06,0,0,0-1,.08,7.44,7.44,0,0,0-2.2.7,2.81,2.81,0,0,0-1.17,1Z"/><path class="cls-1" d="M94.11,3.5l-3,4.65c-.23.35.27.62.5.7a4.17,4.17,0,0,0,1.86,0,7.5,7.5,0,0,0,2.21-.7,2.93,2.93,0,0,0,1.16-1l3-4.65c.23-.35-.27-.62-.5-.7a4.17,4.17,0,0,0-1.86,0,7.5,7.5,0,0,0-2.21.7,2.93,2.93,0,0,0-1.16,1Z"/><path class="cls-1" d="M104.38,2.7l-3.14,5.49c-.21.36.24.62.5.7a4.17,4.17,0,0,0,1.86,0,7.44,7.44,0,0,0,2.2-.7,2.68,2.68,0,0,0,1.17-1l3.14-5.49c.21-.36-.24-.62-.5-.7a4.13,4.13,0,0,0-1.85,0,7.4,7.4,0,0,0-2.21.7,2.68,2.68,0,0,0-1.17,1Z"/><path class="cls-1" d="M114.76,2.56l-2.69,5.2c-.19.37.23.61.5.7a4.32,4.32,0,0,0,1.86,0,7.52,7.52,0,0,0,2.21-.71,2.56,2.56,0,0,0,1.17-1l2.69-5.2c.19-.37-.23-.61-.51-.7a4.28,4.28,0,0,0-1.85,0,7.7,7.7,0,0,0-2.21.7,2.58,2.58,0,0,0-1.17,1Z"/><path class="cls-1" d="M127.87,8a44.82,44.82,0,0,0,3.87-7c.17-.38-.2-.61-.5-.71a4.32,4.32,0,0,0-1.86,0,7.74,7.74,0,0,0-2.2.7,2.42,2.42,0,0,0-1.17,1,44.52,44.52,0,0,1-3.88,7c-.24.35.28.63.5.7a4.32,4.32,0,0,0,1.86,0A5.11,5.11,0,0,0,127.87,8Z"/></svg>