<svg id="レイヤー_1" data-name="レイヤー 1" xmlns="http://www.w3.org/2000/svg" viewBox="0 0 244.15 26.72"><defs><style>.cls-1{fill:#f0908a;}</style></defs><path class="cls-1" d="M0,13.23C0,6.22,4.66.5,10.42.5a9.35,9.35,0,0,1,7,3.36L14.62,7.18a5.08,5.08,0,0,0-4.2-2.69C7.31,4.49,4.83,8,4.83,12.27s2.48,7.81,5.59,7.81c2.77,0,5.08-2.82,5.5-6.55l4.83,1C20.21,21,15.79,26,10.42,26,4.66,26,0,20.25,0,13.23ZM46.87.5C51.66,13.82,54.94,26,54.94,26H49.06s-.72-2.31-1.72-6H40.11c-1,3.7-1.72,6-1.72,6H32.51S35.83,13.82,40.61.5Zm-1,13.57C45.15,11,44.4,7.39,43.72,3.65c-.63,3.74-1.38,7.31-2.14,10.42ZM73.29,5.92c-1.93-.08-4.12-.17-6.59-.29V.92C82.45.5,85.56.5,85.56.5V6.38s-1.77,0-6.64-.25L78.29,26H74.68C73.84,18.19,73.46,10.29,73.29,5.92ZM98.83,26C97.57,14.24,97.31.5,97.31.5c13.4-.29,18-.29,18-.29V4.49S112,4.41,103,4.12c-.09,1.84-.17,4.24-.26,6.93,7.06-.21,10.67-.21,10.67-.21v4.28s-3.86-.08-10.79-.46c-.09,2.1-.13,4.33-.17,6.47,10.42-.29,13.36-.29,13.36-.29v5.88S111,26.55,98.83,26Zm28.76-12.73c0-7,4.67-12.73,10.38-12.73a9.3,9.3,0,0,1,7,3.36l-2.78,3.32A5.12,5.12,0,0,0,138,4.49c-3.07,0-5.59,3.49-5.59,7.78s2.52,7.81,5.59,7.81A4.79,4.79,0,0,0,141.75,18c-.92,0-1.93-.13-3-.25V13c6.26-.29,10.67-.38,10.67-.38v5.89l-2-.09C145.83,22.85,142.21,26,138,26,132.26,26,127.59,20.25,127.59,13.23Zm33.6,0c0-7,4.67-12.73,10.38-12.73S182,6.22,182,13.23,177.32,26,171.57,26,161.19,20.25,161.19,13.23Zm4.83-1c0,4.32,2.48,7.81,5.59,7.81s5.59-3.49,5.59-7.81-2.52-7.78-5.59-7.78S166,8,166,12.27Zm41.46,2.6c3.7,7.86,5,11.09,5,11.09h-6.43s-1.09-2.52-3.44-9.62c-1.09.13-2.27.21-3.66.25-.08,3.15-.12,6.43-.12,9.37h-3.66C194,14.24,193.7.5,193.7.5h5.88c8,.47,12.06,3.45,11.35,9.29A6.25,6.25,0,0,1,207.48,14.87Zm-8.15-8.44c-.08,2.1-.21,4.62-.29,7.26C205.42,13.19,205,6.72,199.33,6.43Zm44.82-2.61s-3.32,3.91-8.91,9.92c.76,6,1,12.22,1,12.22h-5.88s.38-6.89.63-12.64c-6.3-7.27-7.6-9.92-7.6-9.92L228.18,0s2,3.7,5.17,9.12c4.29-6.85,6.09-8.83,6.09-8.83Z"/></svg>