<svg xmlns="http://www.w3.org/2000/svg" viewBox="0 0 184.34 26.21"><defs><style>.cls-1{fill:#fff;}.cls-2{fill:#f0908a;}</style></defs><g id="背景"><rect class="cls-1" x="-406.75" y="-765.9" width="1000" height="3612"/></g><g id="COLUMN"><path class="cls-2" d="M0,12.73C0,5.71,4.66,0,10.42,0a9.35,9.35,0,0,1,7,3.36L14.62,6.68A5.08,5.08,0,0,0,10.42,4C7.31,4,4.83,7.48,4.83,11.76s2.48,7.82,5.59,7.82c2.77,0,5.08-2.82,5.5-6.56l4.83,1c-.54,6.43-5,11.43-10.33,11.43C4.66,25.46,0,19.74,0,12.73Zm32.51,0C32.51,5.71,37.17,0,42.88,0S53.26,5.71,53.26,12.73,48.64,25.46,42.88,25.46,32.51,19.74,32.51,12.73Zm4.83-1c0,4.33,2.48,7.82,5.59,7.82s5.58-3.49,5.58-7.82S46,4,42.93,4,37.34,7.48,37.34,11.76ZM70.9,0s-.55,10.8-.72,20.58c8.87-.25,10.76-.25,10.76-.25v5.88l-14.41-.75C65.27,13.74,65,0,65,0Zm37.88,0h5.88s-.17,6.59-.63,14.24c-.38,5.8-2.39,11.22-10.37,11.22S93.66,20,93.32,14.24C92.86,6.59,92.69,0,92.69,0h5.88s-.08,6.17-.08,13.53c0,3.36,2.1,6,5.17,6s5.16-2.69,5.16-6C108.82,6.17,108.78,0,108.78,0Zm19.11,25.46C126.67,13.74,126.42,0,126.42,0h5.88s3,4,6.89,9.91C143,4,146.08,0,146.08,0h3.61c1.26,11.72,1.51,25.46,1.51,25.46h-5.88s.46-9.12.67-18.15c-1.85,2.44-4.28,5.59-6.8,8.82-2.73-3.49-5.3-6.85-7.19-9.37-.21,5.25-.46,12.65-.46,18.7Zm36.54,0C163.17,13.74,163,0,163,0h5.88S174.38,6.47,179,13.11c.13-4.29.26-9,.26-13.11h3.61c1.26,11.72,1.47,25.46,1.47,25.46h-5.88s.17-2.61.29-6.43c-3.27-4.16-7.39-9.24-10.21-12.65-.21,5.3-.5,12.9-.5,19.08Z"/></g></svg>