<svg id="レイヤー_1" data-name="レイヤー 1" xmlns="http://www.w3.org/2000/svg" viewBox="0 0 222.82 26.72"><defs><style>.cls-1{fill:#f0908a;}</style></defs><path class="cls-1" d="M0,.5H5.88s-.17,3.28-.33,7.9C10.67,4,14.79.5,14.79.5l2.73,3.32S13.06,7.6,7.23,11.89C15.71,18.78,19,21.51,19,21.51L15.21,26s-3.2-2.81-10-9.16c-.08,3.11-.13,6.3-.13,9.16H1.47C.21,14.24,0,.5,0,.5ZM32.3,26C31,14.24,30.79.5,30.79.5c13.4-.29,18-.29,18-.29V4.49s-3.32-.08-12.31-.37c-.08,1.84-.17,4.24-.25,6.93,7-.21,10.67-.21,10.67-.21v4.28s-3.87-.08-10.8-.46C36,16.76,36,19,36,21.13c10.42-.29,13.36-.29,13.36-.29v5.88S44.48,26.55,32.3,26ZM81.82,3.82s-3.32,3.91-8.91,9.92c.76,6,1,12.22,1,12.22H68s.38-6.89.63-12.64c-6.3-7.27-7.6-9.92-7.6-9.92L65.86,0s2,3.7,5.16,9.12C75.31,2.27,77.11.29,77.11.29ZM129.49.5C130.71,12.22,131,26,131,26h-5.88s-3-3.91-6.89-9.87C114.37,22,111.3,26,111.3,26h-3.61C106.43,14.24,106.17.5,106.17.5h5.89s-.47,9.12-.68,18.19c1.85-2.48,4.29-5.58,6.81-8.86,2.73,3.49,5.29,6.85,7.18,9.37.21-5.25.46-12.65.46-18.7Zm13.22,12.73c0-7,4.67-12.73,10.38-12.73s10.38,5.72,10.38,12.73S158.84,26,153.09,26,142.71,20.25,142.71,13.23Zm4.83-1c0,4.32,2.48,7.81,5.59,7.81s5.59-3.49,5.59-7.81-2.52-7.78-5.59-7.78S147.54,8,147.54,12.27ZM189,14.87c3.7,7.86,5,11.09,5,11.09h-6.43s-1.09-2.52-3.44-9.62c-1.09.13-2.27.21-3.66.25-.08,3.15-.12,6.43-.12,9.37h-3.66C175.47,14.24,175.22.5,175.22.5h5.88c8,.47,12.06,3.45,11.35,9.29A6.25,6.25,0,0,1,189,14.87Zm-8.15-8.44c-.08,2.1-.21,4.62-.29,7.26C186.94,13.19,186.52,6.72,180.85,6.43ZM206.39,26C205.12,14.24,204.92.5,204.92.5h5.88C224.7.5,229.11,26,210,26ZM210.08,20c4.71-.3,6.85-3.74,6.89-7.35.09-3.91-2.27-7.94-6.34-8.28C210.46,8.23,210.21,14.24,210.08,20Z"/></svg>