<svg id="レイヤー_1" data-name="レイヤー 1" xmlns="http://www.w3.org/2000/svg" viewBox="0 0 308.7 35.04"><defs><style>.cls-1{fill:#f0908a;}</style></defs><path class="cls-1" d="M0,7.14s4.49,0,17.9.3c0,23.48-15.42,24.15-15.42,24.15s8.27-4.87,9.41-20.54C3.15,11.38,0,11.47,0,11.47ZM20.5,3.4A3.11,3.11,0,1,1,17.39.29,3.11,3.11,0,0,1,20.5,3.4Zm-1.68,0A1.43,1.43,0,1,0,16,3.4a1.43,1.43,0,0,0,2.86,0Zm10.5,8.32H33a38.54,38.54,0,0,0,.88,7.65S29.32,19.66,29.32,11.72Zm13.19,3.07h4.91c0,16.8-15,16.8-15,16.8S42.51,26.25,42.51,14.79ZM34.9,11.72h3.7a40.28,40.28,0,0,0,.84,7.65S34.9,19.66,34.9,11.72Zm25.2.21c7.56.42,7.27,6.6,7.27,6.6s-4-2.19-7.35-2.23Zm21.68,1.22s3.82,11-19,17.56L61.45,25C77.79,20.5,81.78,13.15,81.78,13.15Zm-10,.8s-4-2.23-7.35-2.27l.08-4.37C72,7.73,71.74,14,71.74,14Zm34.1,11.21c0-3.57.17-7,.25-9.41l-9.2.34V12.48s3,0,14.24.25c0,0-.29,6-.92,12.52,1,0,2,.08,3.07.08v4C103,29.83,94.46,30,94.46,30V25S98.83,25,105.84,25.16ZM151.79,8.4c.46,15.71.59,19.12.59,19.12-2,.25-3.78.42-4.92.5v5.67c-9.74,0-14.36-2.23-16.5-4a10.48,10.48,0,0,1-5.21,3.36,18.92,18.92,0,0,0,3-9.2,10.51,10.51,0,0,1-2.9,1.72,20.57,20.57,0,0,0,1.31-6h-3V17.48h7.61a7.9,7.9,0,0,1-2.48,5.83h3.74A10.72,10.72,0,0,1,132,28.15a49.84,49.84,0,0,0,14.2-.13V23.44s.41,0,1.3,0c0-.38,0-.84,0-1.34h-2.31c0,1.13,0,2.31-.09,3.57h-4c0-1.26-.08-2.44-.08-3.57h-2.69c0,1.59,0,3.36-.08,5.38h-4c-.42-15.72-.54-19.12-.54-19.12h4.87v.46h2.9A22,22,0,0,0,137,6.55s2-1.55,6.3-.63a7.52,7.52,0,0,0,1.47-2.69h-9.62V1.13h15.8a8.75,8.75,0,0,1-5.5,5.38c.63.25,1.34.55,2.05.88l-1.59,1.47h1.89V8.4Zm-19.07,5-3.15,2.65a21.59,21.59,0,0,0-4.12-5.29A7.28,7.28,0,0,1,132.72,13.44ZM141,20.08l-.12-3.53h-2.4c0,1.05,0,2.23,0,3.53Zm-2.47-5.59h2.26c0-1.63-.08-2.77-.12-3.57h-2.1C138.52,11.8,138.52,12.94,138.48,14.49Zm9.15,2.06h-2.27c0,1,0,2.19-.08,3.53h2.31C147.59,19.07,147.63,17.9,147.63,16.55Zm.09-5.63h-2.27c0,.76,0,1.89,0,3.57h2.27C147.68,13.4,147.72,12.22,147.72,10.92Zm13.85,1.35A40,40,0,0,0,163.88.5l5,.51a27.22,27.22,0,0,1-1.3,4.62h5.5L174.8,4l1.68,1.68V7.69h-3.06c-.21,3.19-.51,6-.88,8.44h1.38l1.68-1.68,1.68,1.68v2.06h-5.12l-.51,2.35a17.9,17.9,0,0,1,6.77,6.22l-4.29,2.39a33.56,33.56,0,0,0-3.06-6.34c-3.07,10.54-7.78,11.3-7.78,11.3s2.78-4.7,4.08-15.92h-4.08V16.13h4.29c.21-2.52.38-5.33.42-8.44h-1.3C164.39,12.06,161.57,12.27,161.57,12.27Zm33.27,17.64h-5.33v-.84h-5.72c0,.29,0,.55,0,.84h-4.41c-.46-13.9-.59-23.44-.59-23.44h5.34s0,.25,0,.76h5.75V6.47h4.45C194.72,20.42,194.84,29.91,194.84,29.91ZM189.76,9.28h-5.71c0,3.24-.09,9.16-.21,17.73h5.71C189.55,23.73,189.59,17.77,189.76,9.28Zm31.33,15.21.92,5.8c-17.39,4.87-22.93-5.5-12.68-12.14a7.43,7.43,0,0,0-2.65-.93,22.7,22.7,0,0,0,1.68-4.74h-3.65V10.8h4a26.65,26.65,0,0,0,.42-4.67H215a13.1,13.1,0,0,1-.84,4.67h1.47l1.68-1.68L219,10.8v1.68h-5.58A13.68,13.68,0,0,1,211,15.79a6.65,6.65,0,0,1,1.85.55c.79-.33,1.63-.67,2.56-1l.84,1.72a15.11,15.11,0,0,0-1.47.63l1.55,1.72-3.53,2.77a10.38,10.38,0,0,0-1.3-2.14C208.07,23.57,209.33,27.64,221.09,24.49Zm11.55,8.07a28,28,0,0,0,3.06-7.31h-1.38c-.47-10.76-.59-18.07-.59-18.07h5.75V7.6h2.1a1.24,1.24,0,0,1,0-.42h4.83c.08,1.73.16,3.41.21,4.92h4.87L251.41,9h-4V6.89h4l-.13-2.73h-3.82V2.1h3.74c0-1.3,0-2,0-2H256v2h1.47c0-.63,0-1.34,0-2h4l.12,2h.8L264.06.42l1.68,1.68V4.16h-4l.12,2.73h.59l1.64-1.68,1.68,1.68V9h-3.82c0,1.3.08,2.39.08,3.15h1.26l1.64-1.64,1.68,1.64v2.06h-7.77V16.8h1.34v-.33h4c.13,3.23.26,6.13.3,8.61l.42-.42,1.68,1.68V28.4h-2c.13,3.82.17,6.05.17,6.05-3,.46-5.54.59-5.54.59V30.41h.67v-2h-1.26c0,1.13,0,2.35-.09,3.61h-3.73l-.13-3.61h-1.55c0,1.8-.09,3.82-.17,6.05h-4c-.08-2.19-.12-4.2-.21-6.05h-2.05a24.64,24.64,0,0,0,2,4.16s-5,.33-7.39-5.76L244,25.25h-2.69v-.63h-2.1a3.33,3.33,0,0,1,0,.63h-1.81L240,26.8C237.68,32.89,232.64,32.56,232.64,32.56Zm6.59-10h2.1c0-.8,0-1.77,0-2.94h-2.05C239.27,20.54,239.27,21.55,239.23,22.56Zm.13-5h2c0-.88,0-1.85.09-2.9H239.4C239.36,15.54,239.36,16.51,239.36,17.56Zm0-5h2.1c0-.92,0-1.93,0-2.94h-2.1C239.44,10.46,239.44,11.43,239.4,12.6Zm6.22,12.65c.29,1.05.63,2,.92,2.85V26.34h2.1c-.21-6.18-.25-9.87-.25-9.87h4.87v.33h1.14c-.05-1.17-.05-2.05-.05-2.64h-7.6c.21,6.8.29,11.09.29,11.09Zm8.94-1.64h-1.34c0,.84,0,1.76,0,2.73h1.47C254.61,25.37,254.56,24.49,254.56,23.61Zm-.12-4.75h-1.18c0,.76,0,1.64,0,2.69h1.26C254.48,20.58,254.44,19.7,254.44,18.86Zm1.3-6.76h1.43c0-.76,0-1.81,0-3.15h-1.39C255.78,10,255.74,11,255.74,12.1Zm.13-5.21h1.38c0-.84,0-1.72.09-2.73h-1.43C255.91,5,255.91,5.88,255.87,6.89Zm2.81,19.45h1.26c0-.84,0-1.77,0-2.73h-1.26C258.68,24.49,258.68,25.37,258.68,26.34Zm0-4.79H260c0-.84,0-1.72.08-2.69h-1.35C258.76,19.66,258.76,20.58,258.72,21.55ZM274.89,9.7h11.05L287.62,8,289.3,9.7v2.06H274.89ZM289,31.59h-5.71v-.38h-2.06v.38h-4.87c-.42-5.25-.55-8.82-.55-8.82h5.72v.42h2c0-.17,0-.3,0-.42h4.88C288.88,28,289,31.59,289,31.59ZM276.57,5.29h7.69l1.68-1.68,1.68,1.68V7.35H276.57Zm0,10.88V14.12h7.69l1.68-1.69,1.68,1.69v2.05Zm0,2.36h7.69l1.68-1.68,1.68,1.68v2H276.57Zm6.89,6.72h-2l-.12,3.9h2C283.33,28.15,283.37,26.84,283.46,25.25ZM303,20.88s0-.42.17-3.7H292.87l-.17,3.7h-3.61c-.47-5-.59-6.09-.59-6.09H293v.33h10.25v-.33h3.62c.46,5,.54,6.09.54,6.09Zm-11.05.67h5c0,11.47-7.61,12.9-7.61,12.9S291.9,30,291.9,21.55ZM300.55,5l-.12,5.59h2.65L304.76,9l1.68,1.68v2.06H289.63V10.63h6.26c-.08-2.31-.21-4.12-.25-5.59h-6V3h5.88c-.08-2.31-.12-3-.12-3h5.29l0,3h2.44l1.68-1.64L306.44,3V5Zm3.58,20.88,4.57,1.18s-.63,2.43-2.05,7c0,0-2.82,0-8.15-.3-.47-7.26-.59-12.22-.59-12.22h4.91s0,2.4-.12,7c.33,0,.63-.05.92-.05C303.92,26.88,304.13,25.92,304.13,25.92Z"/></svg>