<svg id="レイヤー_1" data-name="レイヤー 1" xmlns="http://www.w3.org/2000/svg" viewBox="0 0 101.53 113.55"><defs><style>.cls-1,.cls-3{fill:#c5a349;}.cls-1{stroke:#fff;stroke-miterlimit:10;stroke-width:3px;}.cls-2{fill:#fff;}</style></defs><path class="cls-1" d="M1.92,55.22l14-23,43-17,34,22s8.47,46.43,7.35,47.55S69,109.35,69,109.35L34.35,112.7,6.42,81.42Z"/><path class="cls-2" d="M21.61,57.86c1.24,2.62,1.67,3.69,1.67,3.69H21.14s-.37-.84-1.15-3.2c-.37,0-.76.07-1.22.08,0,1,0,2.14,0,3.12H17.51c-.41-3.9-.49-8.48-.49-8.48h2c2.68.15,4,1.15,3.78,3.09A2.06,2.06,0,0,1,21.61,57.86ZM18.9,55c0,.7-.07,1.54-.1,2.43C20.93,57.3,20.79,55.14,18.9,55Z"/><path class="cls-2" d="M31.71,53.07c1.59,4.44,2.69,8.48,2.69,8.48h-2s-.24-.77-.58-2H29.45c-.32,1.23-.57,2-.57,2h-2s1.1-4,2.7-8.48Zm-.34,4.52c-.24-1-.49-2.23-.71-3.47-.21,1.24-.47,2.43-.72,3.47Z"/><path class="cls-2" d="M38.8,61.55c-.42-3.9-.49-8.48-.49-8.48h2s1.85,2.15,3.39,4.37c.05-1.43.09-3,.09-4.37H45c.42,3.9.49,8.48.49,8.48h-2s.06-.86.1-2.14c-1.09-1.38-2.47-3.08-3.4-4.21C40.11,57,40,59.5,40,61.55Z"/><path class="cls-2" d="M49.36,53.07h2s-.06,1.09-.11,2.63c1.71-1.48,3.08-2.63,3.08-2.63l.91,1.1s-1.48,1.26-3.43,2.69c2.83,2.3,3.93,3.21,3.93,3.21l-1.27,1.48s-1.07-.93-3.32-3c0,1,0,2.1,0,3H49.85C49.43,57.65,49.36,53.07,49.36,53.07Z"/><path class="cls-2" d="M60.47,53.07h2s.05,4.52-.2,8.48H60.53C60.43,57.68,60.47,53.07,60.47,53.07Z"/><path class="cls-2" d="M67.68,61.55c-.42-3.9-.49-8.48-.49-8.48h2s1.84,2.15,3.39,4.37c0-1.43.08-3,.08-4.37h1.2c.42,3.9.49,8.48.49,8.48h-2s.06-.86.1-2.14C71.37,58,70,56.33,69.06,55.2c-.07,1.76-.17,4.3-.17,6.35Z"/><path class="cls-2" d="M78.24,57.31c0-2.34,1.56-4.24,3.46-4.24A3.11,3.11,0,0,1,84,54.19l-.93,1.1a1.71,1.71,0,0,0-1.41-.89c-1,0-1.86,1.16-1.86,2.59s.84,2.6,1.86,2.6A1.6,1.6,0,0,0,83,58.91c-.31,0-.64,0-1-.09V57.24c2.08-.1,3.55-.13,3.55-.13v2l-.65,0a3.53,3.53,0,0,1-3.17,2.5C79.8,61.55,78.24,59.65,78.24,57.31Z"/><path class="cls-2" d="M26.48,85.18c-.81-7.53-.94-16.36-.94-16.36h3.78s3.56,4.16,6.53,8.42c.08-2.75.16-5.78.16-8.42h2.32c.81,7.53,1,16.36,1,16.36H35.5s.11-1.68.19-4.13c-2.11-2.68-4.75-5.94-6.56-8.13-.14,3.4-.33,8.29-.33,12.26Z"/><path class="cls-2" d="M43.6,77c0-4.51,3-8.18,6.67-8.18s6.66,3.67,6.66,8.18-3,8.18-6.66,8.18S43.6,81.51,43.6,77Zm3.1-.62c0,2.78,1.6,5,3.59,5s3.59-2.24,3.59-5-1.62-5-3.59-5S46.7,73.62,46.7,76.38Z"/><path class="cls-2" d="M63.52,83.5a1.67,1.67,0,1,1-3.34,0,1.67,1.67,0,0,1,3.34,0Z"/><path class="cls-2" d="M69.52,78.27s.48-5,.48-9.45c0,0,3.27.05,6.48.32l.06,3a37.24,37.24,0,0,1-3.76.22c.22,1.75.36,3.24.44,4.26,3,.6,4.32,2.51,4.32,4.54s-2.57,4-8.43,4l-.19-3.78C73.92,81.4,73.89,78.27,69.52,78.27Z"/><path d="M70.71,12.05c0-.52-2.18.31-2.37.45A72.63,72.63,0,0,0,61.72,18L57.07,7.18c-.25-.58-2.22.24-2.47.57a99.75,99.75,0,0,0-8.68,13.32,92.85,92.85,0,0,0-9.19-7.21c-.4-.28-2.39.16-2.42.74Q33.62,26,32.94,37.36h0c0,.06.06.1.21.11C45.6,38.55,58,36.44,70.38,36c.34,0,2.15-.25,2.07-.8A152.38,152.38,0,0,1,70.71,12.05Z"/><path class="cls-3" d="M35.85,10.71a1.78,1.78,0,0,0,.38-1.24,2.8,2.8,0,0,0-.95-1.74,1.63,1.63,0,0,0-.66-.47,2.08,2.08,0,0,0-1.21,0c-.35.08-.69.18-1,.27a1.36,1.36,0,0,0-1,1,7.78,7.78,0,0,0-.13,2.5,1.31,1.31,0,0,0,.91,1,3.44,3.44,0,0,0,.64.12h.09a.83.83,0,0,0,.37.27,1.25,1.25,0,0,0,.19,0,1,1,0,0,0,.54.31,1.71,1.71,0,0,0,.81,0,1.39,1.39,0,0,0,1-1l.08-.46a.58.58,0,0,0-.14-.46Z"/><path class="cls-3" d="M73.23,7.05l-.89-.31-.45-.16a2,2,0,0,0-1.2,0,2.51,2.51,0,0,0-1,.57l-.32.31-.67.66c-.19.19-.37.57-.13.8a8.15,8.15,0,0,1,1.31,1.72c.11.19.5.27.69.28a1.93,1.93,0,0,0,1-.18,1.41,1.41,0,0,0,.66-.54l.08-.21s0,0,0-.05a1.55,1.55,0,0,0,.87-.61,4.31,4.31,0,0,0,.61-1.62C73.8,7.33,73.52,7.15,73.23,7.05Z"/><path class="cls-3" d="M58.9,2.68A1.33,1.33,0,0,0,58.42,2,2.5,2.5,0,0,0,58,1.79c0-.06,0-.13-.08-.19A1.8,1.8,0,0,0,57,.87,2.61,2.61,0,0,0,55.47.8a2.17,2.17,0,0,0-1.76,2,3,3,0,0,0,.17,1.07,3.72,3.72,0,0,0,.49,1,2.34,2.34,0,0,0,1.1.82,2.77,2.77,0,0,0,2-.1,1.38,1.38,0,0,0,.64-.6.8.8,0,0,0,0-.55l.07,0L58.59,4c.1-.1.17-.23,0-.34l-.05,0,.13-.18A1.06,1.06,0,0,0,58.9,2.68Z"/><path class="cls-3" d="M43.27,26.71a5,5,0,0,0-1.13-1.54c-.12-.11-.51-.07-.63-.06a4,4,0,0,0-1,.22c-.18.07-1,.38-.76.66a1,1,0,0,0-.26.24l-.82,1.14,0,.1A10.1,10.1,0,0,0,40.11,29a.68.68,0,0,0,.37.07,3.06,3.06,0,0,0,.74-.09,4.75,4.75,0,0,0,.64-.2,1.63,1.63,0,0,0,.56-.31l.76-.74a.66.66,0,0,0,.26-.54A1.39,1.39,0,0,0,43.27,26.71Z"/><path class="cls-3" d="M66.67,25.89l-.83-.79a1.32,1.32,0,0,0-1.12-.18A2.24,2.24,0,0,0,63,25.4a13.25,13.25,0,0,0-1.15,1.1c-.16.17-.4.47-.16.69l1.45,1.34a1.48,1.48,0,0,0,1.33.13,2.7,2.7,0,0,0,.61-.25,1.06,1.06,0,0,0,.46-.52l0,.06a4.71,4.71,0,0,1,.69-1.06c.1-.1.2-.21.31-.3S66.9,26.11,66.67,25.89Z"/><path class="cls-3" d="M68.31,32.7,36.18,34.35c-.45,0-1.34.35-1.41.89s.7.61,1.1.59L68,34.18c.45,0,1.34-.34,1.41-.88S68.71,32.68,68.31,32.7Z"/><path class="cls-3" d="M57.13,24a1.37,1.37,0,0,0-.5-.54L56,22.91l-.75-.59a2.06,2.06,0,0,0-.7-.47c-.59-.17-1.2.32-1.69.59l-1.7.93a.88.88,0,0,0-.27.24c-.36-.09-.93.11-1,.45a12.43,12.43,0,0,0,0,1.83,2.79,2.79,0,0,0,.35,1.59,7.58,7.58,0,0,0,1.3,1.1c.49.37,1,.73,1.5,1.07a.89.89,0,0,0,.89-.09l1.5-1.22a14,14,0,0,0,1.34-1.1,2.22,2.22,0,0,0,.36-1.58l0-.87A2.56,2.56,0,0,0,57.13,24ZM54,22.79h0l0,0Zm-.45,5.84h.1l0,0Z"/></svg>