<svg id="レイヤー_1" data-name="レイヤー 1" xmlns="http://www.w3.org/2000/svg" viewBox="0 0 101.53 113.55"><defs><style>.cls-1,.cls-3{fill:#c5a349;}.cls-1{stroke:#fff;stroke-miterlimit:10;stroke-width:3px;}.cls-2{fill:#fff;}</style></defs><path class="cls-1" d="M1.57,55.5l14-23,43-17,34,22S101,83.94,99.92,85.05s-31.28,24.58-31.28,24.58L34,113,6.07,81.7Z"/><path class="cls-2" d="M21.27,58.14c1.23,2.62,1.66,3.7,1.66,3.7H20.79s-.37-.84-1.15-3.21c-.36,0-.76.07-1.22.08,0,1,0,2.15,0,3.13H17.16c-.41-3.91-.49-8.49-.49-8.49h2c2.68.15,4,1.15,3.78,3.09A2.07,2.07,0,0,1,21.27,58.14Zm-2.72-2.82c0,.7-.07,1.54-.1,2.43C20.58,57.58,20.44,55.42,18.55,55.32Z"/><path class="cls-2" d="M31.36,53.35c1.6,4.44,2.69,8.49,2.69,8.49h-2s-.24-.77-.58-2H29.1c-.32,1.24-.57,2-.57,2h-2s1.11-4.05,2.7-8.49ZM31,57.87c-.24-1-.49-2.22-.71-3.47-.21,1.25-.46,2.44-.72,3.47Z"/><path class="cls-2" d="M38.45,61.84C38,57.93,38,53.35,38,53.35h2s1.84,2.16,3.39,4.37c0-1.43.08-3,.08-4.37h1.2c.42,3.91.49,8.49.49,8.49h-2s.06-.87.1-2.15c-1.09-1.38-2.46-3.08-3.4-4.21-.07,1.76-.17,4.3-.17,6.36Z"/><path class="cls-2" d="M49,53.35h2s0,1.09-.11,2.63c1.71-1.48,3.08-2.63,3.08-2.63l.91,1.1s-1.48,1.27-3.43,2.69l3.94,3.21-1.28,1.49S53,60.9,50.76,58.78c0,1,0,2.1,0,3.06H49.5C49.08,57.93,49,53.35,49,53.35Z"/><path class="cls-2" d="M60.13,53.35h2s0,4.52-.2,8.49H60.18C60.08,58,60.13,53.35,60.13,53.35Z"/><path class="cls-2" d="M67.34,61.84c-.42-3.91-.49-8.49-.49-8.49h2s1.85,2.16,3.39,4.37c0-1.43.08-3,.08-4.37h1.21c.42,3.91.49,8.49.49,8.49H72s.06-.87.1-2.15c-1.09-1.38-2.46-3.08-3.4-4.21-.07,1.76-.17,4.3-.17,6.36Z"/><path class="cls-2" d="M77.89,57.59c0-2.34,1.56-4.24,3.46-4.24a3.11,3.11,0,0,1,2.34,1.12l-.92,1.11a1.72,1.72,0,0,0-1.42-.9c-1,0-1.86,1.16-1.86,2.59s.84,2.61,1.86,2.61a1.6,1.6,0,0,0,1.26-.69,9.09,9.09,0,0,1-1-.09V57.52c2.08-.1,3.56-.12,3.56-.12v2l-.66,0a3.53,3.53,0,0,1-3.17,2.51C79.45,61.84,77.89,59.93,77.89,57.59Z"/><path class="cls-2" d="M25.88,85.46c-.81-7.53-.95-16.36-.95-16.36h3.78s3.56,4.16,6.53,8.42c.08-2.75.17-5.77.17-8.42h2.32c.81,7.53.94,16.36.94,16.36H34.89s.11-1.68.19-4.13c-2.1-2.67-4.75-5.94-6.56-8.13-.13,3.4-.32,8.29-.32,12.26Z"/><path class="cls-2" d="M43,77.28c0-4.51,3-8.18,6.67-8.18s6.67,3.67,6.67,8.18-3,8.18-6.67,8.18S43,81.79,43,77.28Zm3.11-.62c0,2.78,1.59,5,3.59,5s3.59-2.24,3.59-5-1.62-5-3.59-5S46.1,73.9,46.1,76.66Z"/><path class="cls-2" d="M62.92,83.78a1.68,1.68,0,1,1-3.35,0,1.68,1.68,0,0,1,3.35,0Z"/><path class="cls-2" d="M68.89,78.55l0-1.76c2.11-.05,3-1,3-1.94S70.7,73,68.7,73l.16-3.78c5.13.27,7.77,2.19,7.29,6a3,3,0,0,1-1.76,2.59,4,4,0,0,1,2.51,3.7c0,2.11-2.53,4-8.42,4l-.16-3.78C73.31,81.68,73.29,78.55,68.89,78.55Z"/><path d="M70.36,12.33c0-.52-2.18.31-2.37.45a72.46,72.46,0,0,0-6.62,5.49L56.72,7.46c-.24-.57-2.22.24-2.47.57a98.19,98.19,0,0,0-8.67,13.33,93.8,93.8,0,0,0-9.19-7.22c-.41-.28-2.39.16-2.43.74q-.69,11.39-1.37,22.76h0c0,.06.06.1.21.11,12.44,1.07,24.8-1,37.22-1.46.34,0,2.15-.25,2.07-.8A152.29,152.29,0,0,1,70.36,12.33Z"/><path class="cls-3" d="M35.5,11a1.72,1.72,0,0,0,.38-1.23,2.76,2.76,0,0,0-1-1.75,1.67,1.67,0,0,0-.65-.47,2.11,2.11,0,0,0-1.22,0L32,7.8a1.35,1.35,0,0,0-1,1,8,8,0,0,0-.13,2.49,1.31,1.31,0,0,0,.91,1,3.6,3.6,0,0,0,.64.12h.09a.81.81,0,0,0,.38.27,1,1,0,0,0,.18,0,.93.93,0,0,0,.54.31,1.59,1.59,0,0,0,.81,0,1.37,1.37,0,0,0,1-1l.08-.45a.6.6,0,0,0-.14-.47Z"/><path class="cls-3" d="M72.88,7.33,72,7l-.44-.16a2.16,2.16,0,0,0-1.21,0,2.41,2.41,0,0,0-1,.57L69,7.72l-.67.66c-.19.19-.36.56-.13.8a8.09,8.09,0,0,1,1.31,1.71,1,1,0,0,0,.69.28,1.93,1.93,0,0,0,1-.18,1.31,1.31,0,0,0,.66-.54l.08-.21v-.05a1.56,1.56,0,0,0,.86-.61A4.51,4.51,0,0,0,73.4,8C73.45,7.61,73.17,7.43,72.88,7.33Z"/><path class="cls-3" d="M58.55,3a1.32,1.32,0,0,0-.48-.64,2.1,2.1,0,0,0-.41-.24,1.67,1.67,0,0,0-.08-.2,1.82,1.82,0,0,0-.91-.73,2.73,2.73,0,0,0-1.55-.07,2.17,2.17,0,0,0-1.76,2,3.57,3.57,0,0,0,.17,1.07,3.58,3.58,0,0,0,.49,1A2.41,2.41,0,0,0,55.13,6a2.79,2.79,0,0,0,2-.11,1.33,1.33,0,0,0,.64-.6.8.8,0,0,0,0-.55l.06,0,.34-.35c.1-.1.18-.23,0-.34l0,0,.12-.18A1,1,0,0,0,58.55,3Z"/><path class="cls-3" d="M42.92,27a5,5,0,0,0-1.13-1.54c-.11-.11-.51-.07-.63-.06a4,4,0,0,0-1,.22c-.17.07-1,.38-.76.67a.82.82,0,0,0-.26.23l-.81,1.14,0,.1a9.17,9.17,0,0,0,1.43,1.49.63.63,0,0,0,.36.07,3.06,3.06,0,0,0,.74-.09,3.65,3.65,0,0,0,.64-.2,1.68,1.68,0,0,0,.56-.3l.76-.75a.65.65,0,0,0,.27-.54A1.41,1.41,0,0,0,42.92,27Z"/><path class="cls-3" d="M66.32,26.18l-.83-.8a1.31,1.31,0,0,0-1.12-.18,2.24,2.24,0,0,0-1.73.48,13.25,13.25,0,0,0-1.15,1.1c-.16.17-.4.47-.16.69l1.46,1.34a1.49,1.49,0,0,0,1.32.14,3.29,3.29,0,0,0,.61-.26,1.13,1.13,0,0,0,.47-.52l0,.06a5.21,5.21,0,0,1,.69-1.06l.31-.3C66.34,26.71,66.55,26.39,66.32,26.18Z"/><path class="cls-3" d="M68,33,35.83,34.63c-.45,0-1.34.35-1.4.89s.7.62,1.09.6l32.13-1.65c.45,0,1.34-.35,1.41-.89S68.36,33,68,33Z"/><path class="cls-3" d="M56.78,24.24a1.3,1.3,0,0,0-.5-.54l-.65-.51-.75-.59a2.06,2.06,0,0,0-.7-.47c-.59-.16-1.2.32-1.68.59l-1.71.93a.75.75,0,0,0-.26.24c-.37-.09-.93.11-1,.45a14,14,0,0,0,0,1.83,2.71,2.71,0,0,0,.36,1.59,7.15,7.15,0,0,0,1.29,1.1c.49.37,1,.73,1.51,1.07a.87.87,0,0,0,.89-.09c.49-.41,1-.81,1.49-1.21a15.78,15.78,0,0,0,1.34-1.11,2.22,2.22,0,0,0,.36-1.58l0-.87A2.31,2.31,0,0,0,56.78,24.24Zm-3.16-1.17h0Zm-.45,5.84h.1l0,0Z"/></svg>