<svg id="レイヤー_1" data-name="レイヤー 1" xmlns="http://www.w3.org/2000/svg" viewBox="0 0 175.35 26.51"><defs><style>.cls-1{fill:#f0908a;}</style></defs><path class="cls-1" d="M17,17.9c0,3.82-2.22,7.85-9.41,7.85A16.41,16.41,0,0,1,0,24.11l1.72-5.46A17.37,17.37,0,0,0,7.6,19.87c5.67,0,4.79-5.59,1.31-5.59-4.54,0-7.4-2.64-7.4-6.38C1.51,3.7,4.16.29,9.33.29A13.67,13.67,0,0,1,15.71,1.6L14.28,6.18A10.25,10.25,0,0,0,9.33,5.12C5,5.12,5.21,10,8.86,10,14.74,10,17,14.28,17,17.9Zm13.27,7.85C29,14,28.77.29,28.77.29c13.4-.29,18-.29,18-.29V4.29s-3.32-.09-12.31-.38c-.08,1.85-.16,4.24-.25,6.93,7.06-.21,10.67-.21,10.67-.21v4.28s-3.86-.08-10.8-.46c-.08,2.1-.12,4.33-.16,6.47,10.41-.29,13.36-.29,13.36-.29v5.88S42.46,26.34,30.28,25.75ZM73.42.29c4.79,13.32,8.06,25.46,8.06,25.46H75.6s-.71-2.31-1.72-6H66.66c-1,3.7-1.73,6-1.73,6H59.05S62.37,13.61,67.16.29Zm-1,13.57c-.71-3.11-1.47-6.68-2.14-10.41-.63,3.73-1.39,7.3-2.14,10.41Zm34.61.8c3.69,7.86,5,11.09,5,11.09h-6.43s-1.09-2.52-3.44-9.62c-1.1.13-2.27.21-3.66.25-.08,3.15-.13,6.43-.13,9.37H94.71C93.49,14,93.24.29,93.24.29h5.88c8,.47,12.06,3.45,11.34,9.29A6.24,6.24,0,0,1,107,14.66ZM98.87,6.22c-.08,2.1-.21,4.62-.3,7.26C105,13,104.54,6.51,98.87,6.22ZM122.93,13c0-7,4.67-12.73,10.42-12.73a9.34,9.34,0,0,1,7,3.37L137.55,7a5.09,5.09,0,0,0-4.2-2.68c-3.11,0-5.59,3.48-5.59,7.77s2.48,7.81,5.59,7.81c2.77,0,5.08-2.81,5.5-6.55l4.83,1c-.54,6.42-5,11.42-10.33,11.42C127.6,25.75,122.93,20,122.93,13Zm34,12.73C155.65,14,155.44.29,155.44.29h5.88s-.25,4.5-.46,10.34c4.2-.13,7.18-.17,9.2-.21.08-3.4.17-6.93.17-10.13h3.61c1.26,11.72,1.51,25.46,1.51,25.46h-5.88s.21-4.16.42-9.7l-9.16-.38c-.12,3.4-.16,6.93-.16,10.08Z"/></svg>