<svg id="レイヤー_1" data-name="レイヤー 1" xmlns="http://www.w3.org/2000/svg" viewBox="0 0 78.47 186.2"><path d="M58.54,16.45c.5-.58,1.11-1.12,1.4-1.12.79,0,2.7,1.59,2.7,2.2,0,.43-.54.9-1.3,1.26-.32,2.81-1,7.2-2.26,9.47-1.52,2.87-4.22,3.09-5.91,3.09a1.28,1.28,0,0,1-1.4-.83c-.32-.64-.83-.9-1.69-1.26a.57.57,0,0,1,.25-1.11,24,24,0,0,0,3.49.39c1.62,0,2.27-.46,2.77-1.29,1.41-2.09,2-6.52,2.23-9.36H50c-.14.68-.25,1.22-.29,1.4-.14.79-.61.9-1.51.94-1.4,0-1.51-.54-1.29-1.23A63.11,63.11,0,0,0,49,8.24c0-.36.25-.5.65-.43a4.7,4.7,0,0,1,2.3,1.4h6.3c0-1.94,0-4.6,0-6H47.52c-.47,0-.79-.15-.79-.72s.32-.72.79-.72H57.64C58.18,1.08,58.9.29,59.29.29c.79,0,3.1,1.69,3.1,2.52,0,.54-.76.9-1.51,1.18,0,2.34,0,6,0,7.17s-.57,1.37-1.62,1.37a1.1,1.1,0,0,1-1.11-1.23v-.65H51.37l-1.08,5.8Zm15.91-14c-.11,2.49-.11,11.41-.11,12.85,0,2.56.18,13.54.18,15,0,.83-.69,1.26-1.84,1.26-.72,0-1.19-.36-1.19-1,0-1.62.33-11.74.33-14.83,0-1.51.11-11.52-.47-15.12A.46.46,0,0,1,71.86,0c2.37,0,4.46.22,4.46,1.12C76.32,1.73,75.56,2.16,74.45,2.41ZM61.37,59.93a20.77,20.77,0,0,1,5.48.77c1,.25,1,.09.47-.8-.38-.61-1.48-2.33-2.59-4.44a25.7,25.7,0,0,1-6.45.82c-3.75,0-5.57-1-6.62-2.55-.5-.73,0-1.31.8-.85h0A10.25,10.25,0,0,0,57.94,54a23.78,23.78,0,0,0,5.67-.79c-.19-.44-.39-.88-.56-1.32-.42-1-.78-1.94-1.1-2.86a17.94,17.94,0,0,1-3.9.47,4.63,4.63,0,0,1-4.64-3.19c-.25-.69.29-1,.85-.51h0a5.92,5.92,0,0,0,4,1.4,8.8,8.8,0,0,0,2.9-.42c-.3-1-.6-2-.93-3.24-.19-.74-.54-1-1.51-1.37s-1.72-.55-1.72-1S58.17,40,59.21,40a5.57,5.57,0,0,1,2.71.74c.75.44.9.79.95,1.82a24.88,24.88,0,0,0,.4,3.41,4.64,4.64,0,0,1,1.82-.7c1.1,0,1.76.34,1.92.9s-.17.93-.73,1.3a11.41,11.41,0,0,1-2.41,1.06,24.71,24.71,0,0,0,1,2.79c.21.48.42.94.64,1.38a14.08,14.08,0,0,0,2.83-1.22c.54-.34.64-.59.36-1a11.41,11.41,0,0,0-.78-1c-.49-.58-.05-1.13.66-.78a8.13,8.13,0,0,0,2.4.84c.87.14,1.4.13,1.76.66s-.11,1.53-.82,2a20,20,0,0,1-5.24,2.65,38.87,38.87,0,0,0,2.8,4.17c1.06,1.41,1.27,1.86,1.27,2.88s-.75,2.2-1.62,2.2-1.4-.47-2.64-1.07a12.76,12.76,0,0,0-5.57-1.41c-3,0-4.94,1.15-4.94,2.95,0,2,2.31,2.76,4.31,2.76,2.8,0,5.81-1.23,5.81.89,0,1.39-2,2-5.77,2-2.35,0-6.63-1.11-6.63-5.19,0-3.21,3.2-5.08,7.69-5.08ZM72.75,96.8c.79-1.19,1.8-2.59,2.38-2.59.75,0,3.34,2.27,3.34,3.17,0,.54-.61.86-1.94.86H72.61c-.15.47-1,.69-1.55.79,0,2.56,0,7.13,0,10.62a2.46,2.46,0,0,1-2.62,2.56c-1.08,0-1-1-2.88-1.77-.87-.32-.72-1.18,0-1.18.57.07,1.54.14,1.94.14a.93.93,0,0,0,1-1c.07-1.22.07-1.87,0-3.49,0-1.19-.07-5.22-.21-6.66H46.33c-.47,0-.79-.14-.79-.72s.32-.72.79-.72ZM50.94,84.89a4.12,4.12,0,0,1,0,.86c-.25,2.48-1.91,4-3.57,4A1.29,1.29,0,0,1,46,88.41c0-1.33,1.8-1.54,2.67-3.24a6.15,6.15,0,0,0,.36-3.06c0-.82.93-1,1.29-.18a8.68,8.68,0,0,1,.43,1.52h9.69c0-1,0-2.24-.11-3.14a.45.45,0,0,1,.5-.54c.62,0,4.11.11,4.11,1.08,0,.76-.8,1.05-1.91,1.3v1.3H73.62C74.19,82.76,75,82,75.38,82c.68,0,3,2,3,3.06,0,.75-1,.79-1.9.93-.94.72-2,1.51-2.71,2s-1.4,0-1-.82a19.08,19.08,0,0,0,1-2.34Zm16.92,3.74c.68-1,1.47-2.09,1.94-2.09.68,0,2.88,2,2.88,2.77,0,.51-.61.76-1.66.76H62.24c-1.44,3.31-4.86,5.07-11.12,5.87-1.3.18-1.44-1-.25-1.3,5-1,7.55-2.37,8.71-4.57H52.41c-.46,0-.79-.14-.79-.72s.33-.72.79-.72h7.71a9.54,9.54,0,0,0,.25-2.74c0-.36,0-.64.54-.64,1.19,0,3.67.32,3.67,1,0,.43-.32.72-1.66.94a13.37,13.37,0,0,1-.21,1.4Zm-7.53,12.31c.47-.65,1.05-1.33,1.41-1.33.64,0,2.55,1.4,2.55,2.12,0,.4-.43.69-.93.9,0,1.59,0,4.86,0,5.76,0,1.12-.54,1.37-1.51,1.37s-1-.65-1-1.22v-.65H55v1.33c0,.75-.54,1.08-1.54,1.08a.85.85,0,0,1-.94-1,89.7,89.7,0,0,0-.14-9.11c0-.29.21-.5.54-.47a8.53,8.53,0,0,1,2.8,1.19Zm.54,5.51c0-1.33,0-3,0-4.07H55.26l-.22,0c0,.64,0,2.48,0,3.13v.9Zm8.68-12.67a1.46,1.46,0,0,1-.76,2c-.83.33-1.51-.43-2.59-1.4a19.37,19.37,0,0,0-2.34-1.87c-.68-.47-.54-1.3.4-1.23C66.63,91.4,68.93,92.3,69.55,93.78Zm-2.38,31.63c0-.73-.5-1.11-2-1.92-.57-.3-.6-.73-.2-1a3,3,0,0,1,1.67-.54c1.4,0,3.4,1,3.41,2.18,0,.9-.33,3.57-.6,5.72a27.31,27.31,0,0,1,4.57-.54c2.09,0,3.67.87,3.67,1.8,0,.72-.36,1.23-1.69,1.23-1.57,0-3.37-.57-6.81-.24a56.73,56.73,0,0,1-1,6.11c-.49,1.93-1.54,3.47-3,3.44-.77,0-1.29-.88-1.57-1.23A10,10,0,0,0,62,138.8c-.52-.48-.2-1,.51-.81a9.4,9.4,0,0,0,2.32.33,1.12,1.12,0,0,0,1.1-.72,19.9,19.9,0,0,0,1-5.25,65.52,65.52,0,0,0-9,2.2,68.48,68.48,0,0,0-.06,7.59c.27,2.09,1.14,3.17,4.36,3.18a65.06,65.06,0,0,0,7.44-.51c1.24,0,2.2.42,2.2,1.51,0,1.56-3,1.77-6.88,1.77-5.46,0-8.7-1.46-9-5.21-.21-2.39-.3-5.35-.37-7.54-3.72,1.31-5.9,2.16-6.9,2.16a3.49,3.49,0,0,1-3-3.24c0-.54.29-.71.8-.57a9.81,9.81,0,0,0,2.8.79,37.39,37.39,0,0,0,6.25-1.43,50.19,50.19,0,0,0-.27-5.24c-.13-.76-.57-.82-1.47-1.26-.45-.23-.5-.69,0-1h0a3.3,3.3,0,0,1,1.77-.6c1.29,0,2.84.7,2.84,2,0,.31-.18,3.35-.3,5.41,2.7-.73,6.22-1.53,9.09-2.1a48,48,0,0,0,.07-4.82ZM0,54.58A36.64,36.64,0,0,0,8.1,42.92c.18-.36.29-.54.72-.39,1.08.32,3.28,1.51,3.24,2.23s-.72.75-1.76.54c-.69,1-1.62,2.3-2.78,3.7.87.4,1.8.94,1.8,1.37s-.64.72-1.36.83c-.08,1.4-.11,5.9-.11,6.88l0,8.31c0,.79-.5,1.15-1.62,1.15a.89.89,0,0,1-1-1c0-2,.18-10.61,0-15a29.92,29.92,0,0,1-4.54,4m0-11.73A24.83,24.83,0,0,0,7.81,35.4c.18-.33.4-.51.76-.36,1.15.43,3.2,1.65,3.13,2.37s-.83.72-1.84.47a28.74,28.74,0,0,1-8.35,7m27,2.12c.72-1.08,1.66-2.34,2.2-2.34s3.13,2.12,3.13,3c0,.5-.65.79-1.84.79H10.84c-.47,0-.8-.14-.8-.72s.33-.72.8-.72h8.78c0-1.51,0-3.31,0-5h-7.2c-.47,0-.79-.14-.79-.72s.32-.72.79-.72h7.2c0-2-.11-3.89-.25-4.9,0-.32.18-.5.5-.5.61,0,4.28.11,4.28,1s-.79,1.08-1.9,1.33v3h4.39c.72-1.08,1.58-2.27,2.09-2.27.68,0,3,2.13,3,2.92,0,.5-.65.79-1.76.79H22.25v5Zm.11,6.59c.68-1,1.51-2.2,2-2.2.68,0,2.77,2.09,2.77,2.88,0,.51-.61.76-1.55.76H26.89v9.79a2.56,2.56,0,0,1-2.7,2.7c-1.12,0-.94-1.05-3.24-1.87-.87-.33-.68-1.23,0-1.19s1.8.18,2.23.18c.75,0,1.15-.29,1.19-1.12.07-1.47.07-3.49.07-5.54,0-.61,0-1.73-.07-2.95H11.12c-.47,0-.79-.15-.79-.72s.32-.72.79-.72H24.37c0-1.59-.14-3.1-.25-3.85,0-.47.07-.65.5-.65,1.87,0,3.85.25,3.85.93s-.9.83-1.54.94c0,.76,0,1.66,0,2.63Zm-9.79,8.67c-1,.11-1.48-.79-2.2-1.91a24.64,24.64,0,0,0-1.69-2.19c-.58-.69-.25-1.51.83-1.3,2.16.51,4.39,1.66,4.6,3.42A1.68,1.68,0,0,1,18.83,62.25Zm6.3,35.4a3.77,3.77,0,0,0-4.12-4c-2.25,0-4.73,1.46-6.44,3.77-.83,1.11-1.38,3.13-2.57,3.13s-2-1.43-2-3.3c0-2.32,1-7.09,1.53-10.25a23,23,0,0,1-3.09,0c-2.12-.17-3.36-1.68-3.93-4-.18-.74.45-1.12,1-.59A6.5,6.5,0,0,0,9.28,84.4a19.3,19.3,0,0,0,2.64,0c.24-1.72.48-3.2.48-3.84,0-1.15-2.25-1-2.25-2,0-.71,1.44-1.23,2.71-1.23,1.66,0,2.52.33,2.52,1.9a17.81,17.81,0,0,1-.74,3.16c-.06,1.2.91,1.35,2,.88,2-.86,2.45-2,3.46-2a1.17,1.17,0,0,1,1.21,1,1.72,1.72,0,0,1-.65,1.41c-.79.68-2.84,2.14-7.06,3a49.85,49.85,0,0,0-1.09,8.73c0,.46.13.49.42.23,2.5-2.25,5.18-3.86,8.37-3.85,4.05,0,6.79,2.64,6.79,6.23,0,5.26-5.49,8.6-14.5,8.45-1.14,0-1.25-1.41-.16-1.56C21.66,103.85,25.13,101.33,25.13,97.65ZM5.32,141.11a1.2,1.2,0,0,1-1.22-1.36A3.63,3.63,0,0,1,5,137.5a47.38,47.38,0,0,0,6.47-12,17.71,17.71,0,0,1-4.53.29,3.89,3.89,0,0,1-3-2.39A3.51,3.51,0,0,1,3.74,122c0-.51.31-.65.77-.29a7.17,7.17,0,0,0,3.35,1.48,19.15,19.15,0,0,0,4.28,0,10.19,10.19,0,0,0,.24-3.24c-.15-.9-.55-.91-1.62-1.56a.53.53,0,0,1,0-1,3.47,3.47,0,0,1,1.92-.57,4.77,4.77,0,0,1,2.08.38,1,1,0,0,1,.54,1.19,19.68,19.68,0,0,1-.47,2.37c.2.64.55.73,1.1.73s1.37-.71,2.11-.71,1.15.28,1.15.9-.36,1.1-1,1.56a14,14,0,0,1-4.52,1.8c-1.6,5.05-3.75,10.61-6.31,14.54C6.65,140.63,6.07,141.11,5.32,141.11Zm21.57,3.16a13.94,13.94,0,0,0-4.12-3.12c0,.16,0,.32,0,.47,0,3.18-2.58,4.71-5.18,4.71-3.3,0-5.48-1.55-5.48-3.92s2.91-4.18,7-4.18c.31,0,.63,0,.95,0-.1-1.52-.23-3.15-.23-4.5,0-2.71.79-4.53,2.51-5.7.74-.49,3.19-1.7,3.5-1.9a.54.54,0,0,0,.13-.79c-.37-.64-1.48-1-2.3-1.3s-.76-1.17.37-1.21a8,8,0,0,1,3,.51,4.09,4.09,0,0,1,2.79,3.73A1.76,1.76,0,0,1,28,129c-.9,0-2.16-.65-3.71-.29a3.24,3.24,0,0,0-2.56,3.53,38.48,38.48,0,0,0,.71,6.45c3.54.81,6.78,2.75,6.78,5a1.12,1.12,0,0,1-1.15,1.26,1.69,1.69,0,0,1-1.22-.62Zm-10.48-.42c2.44,0,3.74-1,3.74-2.74,0-.24,0-.51,0-.79a12.47,12.47,0,0,0-2.15-.18c-2.52,0-4.07.88-4.07,2.16C13.92,143.19,14.86,143.85,16.41,143.85Zm-5.05,23.29a4.49,4.49,0,0,1-.1,2.52,30,30,0,0,0-.79,6.12c0,1.68.21,1.72,1.23.8,2.56-2.31,5-4.29,8.49-4.29,4.07,0,6.91,2.54,6.91,6.19,0,6.05-7.49,8.07-15.52,7.67a.76.76,0,0,1,0-1.51c8.57-.83,12.53-2.61,12.53-6.77,0-2.38-1.47-3.81-4.14-3.82-2.15,0-4.53,1.71-6.32,4.22-1.41,2-1.89,2.73-2.83,2.73-1.64,0-2.8-1.79-2.8-4,0-1.55.76-8.91.8-9.9.07-1.89.66-2.47,1.73-3.07.46-.27,3.65-1.81,4.17-2.12a.94.94,0,0,0,.45-1.26c-.47-1-1.07-1.37-2.77-2.05-.81-.32-.63-1.28.28-1.25,3.44.11,6.86,2.3,6.86,5.07A1.41,1.41,0,0,1,18,164c-.2,0-2.34-.12-3.12,0a8.07,8.07,0,0,0-2.69.71C11.17,165.1,11,165.75,11.36,167.14Z"/></svg>