<svg id="レイヤー_1" data-name="レイヤー 1" xmlns="http://www.w3.org/2000/svg" viewBox="0 0 73.89 217.29"><path d="M49.41,1V.76A.7.7,0,0,1,50.17,0H72.85a.7.7,0,0,1,.75.76V11.37a.7.7,0,0,1-.75.76h-.29a.7.7,0,0,1-.76-.76v-9c0-.5-.14-.61-.64-.61h-21A.7.7,0,0,1,49.41,1ZM49.2,25.72c.54-.72,1.26-1.55,1.55-1.55.86,0,3.06,1.84,3.06,2.48,0,.44-.58.8-1.26,1.08-.18,6.09-.11,16.49-.15,24.55a3.14,3.14,0,0,1-3.27,3.24c-1.3,0-.54-1.51-2.74-2.19-.76-.26-.61-1.16.07-1.16.29,0,1.48.15,2.23.15S49.92,52,50,50.88c.11-1.87.11-5.19.07-8.28H45.81c-.35,4.46-1.26,9.14-3.92,12.63-.79,1-1.94.36-1.37-.72,2.27-4.71,3.14-10,3.14-18,0-3.35-.11-7.81-.4-11.7,0-.54.21-.72.68-.65a9.13,9.13,0,0,1,3,1.55Zm.86,15.44V34.82H46.14l-.07,2.45c0,1.23-.08,2.56-.15,3.89Zm-4-14c0,2.3.07,4.21,0,6.22h3.92V27.16ZM69.79,51c.07-2.48.18-5.54.18-6.44,0-1.23,0-7.6-.33-10-.07-.32.15-.5.47-.5,1.26,0,3.78.14,3.78,1,0,.47-.54.83-1.55,1,0,1.59,0,7.56,0,8.64,0,1.37.07,8.61.07,9.65,0,.83-.58,1.12-1.66,1.12a.9.9,0,0,1-1-1c0-.28,0-1,0-1.94H57.33v2c0,.79-.54,1.12-1.58,1.12a.91.91,0,0,1-1-1c0-1,.21-8.24.21-9.83,0-1.33.08-7.81-.28-10.26a.41.41,0,0,1,.46-.5c1.55,0,3.89.18,3.89,1,0,.54-.65.9-1.73,1.08,0,1.58-.07,7.45-.07,8.6,0,.87,0,3.82,0,6.3ZM55,26.37c-.36-.83.22-1.48,1.12-.94,1.94,1.33,3.42,3.13,3.13,4.79a1.47,1.47,0,0,1-1.69,1.4c-1-.18-1-1.26-1.4-2.56C55.82,28.09,55.35,27.19,55,26.37Zm4.86,10.9A21.73,21.73,0,0,1,63.6,39.9a21,21,0,0,0,1.11-5c0-.44.25-.54.61-.47,1.23.25,3,1.11,3,1.76,0,.47-.47.72-1.51.65a29.66,29.66,0,0,1-1.62,4.64c2.16,2.31,3.81,5.94,2,6.81-1.26.61-1.48-1.23-3.39-4.21a22.79,22.79,0,0,1-4.53,5.57c-.83.69-1.62-.07-.94-.9a29.9,29.9,0,0,0,4.21-6.51,32.84,32.84,0,0,0-3.49-4C58.41,37.56,59,36.88,59.85,37.27ZM60.9,25c-.29-.86.36-1.51,1.18-.86,1.84,1.4,3.21,3.28,2.78,4.89A1.46,1.46,0,0,1,63,30.29c-.94-.22-1-1.26-1.26-2.56A19.44,19.44,0,0,0,60.9,25Zm4.6,7.49a21.51,21.51,0,0,0,4-8.06c.07-.4.29-.61.65-.51,1.26.36,3.35,1.48,3.31,2.2,0,.54-.61.68-1.69.58a20.54,20.54,0,0,1-5.29,6.62C65.65,34,65,33.35,65.5,32.52ZM53,67.55a5.43,5.43,0,0,1,1.73-.3c1.71,0,3.82,1,3.82,2a34.42,34.42,0,0,0-1.1,8c4.41.63,8.85,2.71,8.85,5.64a1.48,1.48,0,0,1-1.54,1.63c-.92,0-1.55-.93-2.23-1.93a9.82,9.82,0,0,0-5.09-3.79c0,7.39.35,13,.35,14.25s-.62,2-1.51,2c-1.07,0-1.87-1-1.87-3,0-1.05.27-3.56.36-4.83.15-2,.36-5.14.36-8.2s0-5.78-.14-7.87c-.07-1.13-.56-1.67-2-2.32-.75-.33-.74-1,0-1.24Zm-6.72,40.24c0-.58,1.07-1,1.8-1,2.19,0,4.89,1.31,4.89,2.34a16.7,16.7,0,0,1-.54,2.48,52.38,52.38,0,0,0-.29,8.16c0,.58.23.76.72.63,4.59-1.21,14.67-8.18,18.47-12.12.8-.83,1.83.11,1.18,1-3.5,4.73-11,10-17.67,13.67-.88.49-2.48,2.25-3.31,2.25-1.06,0-2.3-2.12-2.3-3.81a6.82,6.82,0,0,1,.14-1.18,29,29,0,0,0,.4-5.56c0-1.22,0-2.07-.07-3.2A2.66,2.66,0,0,0,48,109c-.79-.43-1.76-.79-1.76-1.22ZM65,146.38v.29a.69.69,0,0,1-.75.75H41.53a.69.69,0,0,1-.75-.75V136.05a.7.7,0,0,1,.75-.76h.29a.7.7,0,0,1,.76.76v9c0,.5.14.61.64.61h21A.7.7,0,0,1,65,146.38ZM25.32,58.63a14.9,14.9,0,0,1-12.66,7.63C8.79,66.26,5,64.35,5,57.21c0-5.06.76-11.5.83-13.92.06-2.12-.43-2.4-1.71-3.42-.76-.61-.76-1,.06-1.41a3,3,0,0,1,2.58-.08c1.49.58,2.56,1.8,2.56,2.79,0,1.56-1.87,8.66-1.87,15.95,0,4.62,2.11,6.22,5.49,6.22,4.3,0,7.84-1.76,11.23-5.57.73-.8,1.79-.14,1.2.86ZM1,84.18A6.5,6.5,0,0,0,4.76,86.1a19.44,19.44,0,0,0,2.65,0c.24-1.72.47-3.2.47-3.84,0-1.15-2.25-1-2.25-2,0-.71,1.45-1.23,2.71-1.23,1.67,0,2.53.33,2.53,1.89a17.42,17.42,0,0,1-.74,3.16c-.06,1.21.91,1.36,2,.88,2-.85,2.46-2,3.47-2a1.18,1.18,0,0,1,1.21,1,1.72,1.72,0,0,1-.65,1.41c-.79.68-2.84,2.14-7.06,3A49.85,49.85,0,0,0,8,97.15c0,.46.13.49.42.23,2.5-2.25,5.17-3.86,8.37-3.86,4.05,0,6.79,2.65,6.79,6.23,0,5.27-5.49,8.6-14.5,8.46-1.14,0-1.25-1.41-.16-1.56h0c8.21-1.1,11.69-3.62,11.69-7.31a3.77,3.77,0,0,0-4.12-4c-2.25,0-4.73,1.46-6.44,3.76-.83,1.12-1.38,3.14-2.57,3.14s-2-1.43-2-3.3c0-2.32,1-7.09,1.53-10.25a24.77,24.77,0,0,1-3.09,0C1.81,88.55.57,87,0,84.77m17,33.7a3.79,3.79,0,0,1,2.23,3.25,1.39,1.39,0,0,1-.45,1.21,13.24,13.24,0,0,1,4.4-.83c3.4,0,5.89,2.1,5.89,5.06,0,2.79-2.47,4.79-5.78,4.79a7.68,7.68,0,0,1-6.5-4.21.65.65,0,0,1,1.06-.75h0c1.45,1.45,2.88,2.63,5.07,2.63s3.58-1.08,3.58-2.88-1.38-2.93-3.72-2.93c-2.13,0-4.66,1.07-8.61,3.68a47.85,47.85,0,0,1,4.48,9.13,7.74,7.74,0,0,1,.55,3.22A1.21,1.21,0,0,1,18,141c-.77,0-1.26-.59-1.5-1.8a33.41,33.41,0,0,0-3.94-10.54c-2.78,1.91-3.79,2.73-4.92,2.73A3.3,3.3,0,0,1,5.21,130a2.36,2.36,0,0,1-.45-1.24.59.59,0,0,1,.88-.6,3.19,3.19,0,0,0,1.49.5c.87,0,2.32-.83,4.07-1.88-.67-.78-1.47-1.55-2.12-2.2a1.74,1.74,0,0,1-.19-2.44c1.24-1.5,2.18-1.31,3.89-1.31a28,28,0,0,0,3-.14c.65-.08.78-.6.34-1.49-.32-.65.16-1,.88-.74ZM13,125.73a37.33,37.33,0,0,1,5.21-2.56l-.34,0a8,8,0,0,1-2.12-.42,12.49,12.49,0,0,0-3.53-.56c-.77,0-1.25.62-1,1.15C11.32,123.67,12.22,124.77,13,125.73ZM4.68,160c.38-.88,1.16-.86,1.4,0,.19.7.63,1,1.58,1,1.62,0,4.88-1.14,7.23-1.14,3.35,0,5.79,2.55,5.79,6.51,0,6.87-4.69,12.36-12.39,14.81-1.58.51-1.87-.87-.72-1.41,7.73-3.65,10.05-9,10.05-13.14,0-3.37-1.25-4.65-3.24-4.65-2.3,0-5.49,2.11-7.17,2.11a3.05,3.05,0,0,1-2.81-2.74A3.64,3.64,0,0,1,4.68,160Zm5.16-3c-.86.32-1.29-.4-.56-1,.43-.34,1.07-.86,1.36-1.13.62-.57.58-.82-.14-1.22A8.54,8.54,0,0,1,8,151.76c-.62-.77.09-1.6.93-1.08a11,11,0,0,0,6.58,1.67c1.36,0,2.38.51,2.38,1.6s-.84,1.57-2.87,1.46a6.15,6.15,0,0,0-2.82.61c-.76.31-1.56.64-2.39.94ZM7.55,193.83a10.57,10.57,0,0,1,6.26-2.7,5.38,5.38,0,0,1,5.65,5.39c0,3.1-2.09,5-4.54,7.38-1.76,1.8-1.76,2.09-1.76,2.56a2,2,0,0,0,.68,1.3c.58.68,0,1.33-.79,1A3.2,3.2,0,0,1,10.57,206c0-1.12.72-2.2,2.38-4,1.83-1.88,3.45-3.5,3.45-5.55a3.4,3.4,0,0,0-3.71-3.63c-2.19,0-3.2,1.65-3.92,4-.18.54-.43.83-.76.83-.72,0-1.33-1.51-1.33-2.3C6.68,194.76,6.86,194.47,7.55,193.83ZM14.85,215a2.29,2.29,0,0,1-2.23,2.34,2,2,0,0,1-2-2.12,2.26,2.26,0,0,1,2.27-2.27A2.05,2.05,0,0,1,14.85,215Z"/></svg>